<?xml version="1.0" encoding="UTF-8" standalone="no"?>
<!DOCTYPE svg PUBLIC "-//W3C//DTD SVG 1.1//EN"
 "http://www.w3.org/Graphics/SVG/1.1/DTD/svg11.dtd">
<!-- Generated by graphviz version 2.43.0 (0)
 -->
<!-- Title: EncodingODIM Pages: 1 -->
<svg width="442pt" height="241pt"
 viewBox="0.00 0.00 441.50 241.00" xmlns="http://www.w3.org/2000/svg" xmlns:xlink="http://www.w3.org/1999/xlink">
<g id="graph0" class="graph" transform="scale(1 1) rotate(0) translate(4 237)">
<title>EncodingODIM</title>
<polygon fill="white" stroke="transparent" points="-4,4 -4,-237 437.5,-237 437.5,4 -4,4"/>
<!-- Node1 -->
<g id="node1" class="node">
<title>Node1</title>
<g id="a_node1"><a xlink:title="Structure for data storage type, scaling and marker codes. Does not contain quantity.">
<polygon fill="#bfbfbf" stroke="black" points="128.5,-0.5 128.5,-19.5 216.5,-19.5 216.5,-0.5 128.5,-0.5"/>
<text text-anchor="middle" x="172.5" y="-7.5" font-family="Helvetica,sans-Serif" font-size="10.00">EncodingODIM</text>
</a>
</g>
</g>
<!-- Node2 -->
<g id="node2" class="node">
<title>Node2</title>
<g id="a_node2"><a xlink:href="classdrain_1_1ReferenceMap.html" target="_top" xlink:title=" ">
<polygon fill="white" stroke="black" points="79,-89.5 79,-108.5 166,-108.5 166,-89.5 79,-89.5"/>
<text text-anchor="middle" x="122.5" y="-96.5" font-family="Helvetica,sans-Serif" font-size="10.00">ReferenceMap</text>
</a>
</g>
</g>
<!-- Node2&#45;&gt;Node1 -->
<g id="edge1" class="edge">
<title>Node2&#45;&gt;Node1</title>
<path fill="none" stroke="midnightblue" d="M132.57,-80.49C143.17,-62.03 159.43,-33.74 167.54,-19.62"/>
<polygon fill="midnightblue" stroke="midnightblue" points="129.43,-78.93 127.48,-89.34 135.49,-82.41 129.43,-78.93"/>
</g>
<!-- Node3 -->
<g id="node3" class="node">
<title>Node3</title>
<g id="a_node3"><a xlink:href="classdrain_1_1SmartMap.html" target="_top" xlink:title=" ">
<polygon fill="white" stroke="black" points="13,-156.5 13,-175.5 156,-175.5 156,-156.5 13,-156.5"/>
<text text-anchor="middle" x="84.5" y="-163.5" font-family="Helvetica,sans-Serif" font-size="10.00">SmartMap&lt; Referencer &gt;</text>
</a>
</g>
</g>
<!-- Node3&#45;&gt;Node2 -->
<g id="edge2" class="edge">
<title>Node3&#45;&gt;Node2</title>
<path fill="none" stroke="midnightblue" d="M94.71,-147.53C102.07,-134.95 111.68,-118.51 117.46,-108.63"/>
<polygon fill="midnightblue" stroke="midnightblue" points="91.65,-145.83 89.62,-156.23 97.69,-149.37 91.65,-145.83"/>
</g>
<!-- Node4 -->
<g id="node4" class="node">
<title>Node4</title>
<g id="a_node4"><a xlink:title=" ">
<polygon fill="white" stroke="#bfbfbf" points="0,-213.5 0,-232.5 169,-232.5 169,-213.5 0,-213.5"/>
<text text-anchor="middle" x="84.5" y="-220.5" font-family="Helvetica,sans-Serif" font-size="10.00">map&lt; std::string, Referencer &gt;</text>
</a>
</g>
</g>
<!-- Node4&#45;&gt;Node3 -->
<g id="edge3" class="edge">
<title>Node4&#45;&gt;Node3</title>
<path fill="none" stroke="midnightblue" d="M84.5,-203.12C84.5,-193.82 84.5,-183.06 84.5,-175.71"/>
<polygon fill="midnightblue" stroke="midnightblue" points="81,-203.41 84.5,-213.41 88,-203.41 81,-203.41"/>
</g>
<!-- Node5 -->
<g id="node5" class="node">
<title>Node5</title>
<g id="a_node5"><a xlink:href="classdrain_1_1ValueScaling.html" target="_top" xlink:title="Linear scaling and physical range for image intensities.">
<polygon fill="white" stroke="black" points="197.5,-89.5 197.5,-108.5 277.5,-108.5 277.5,-89.5 197.5,-89.5"/>
<text text-anchor="middle" x="237.5" y="-96.5" font-family="Helvetica,sans-Serif" font-size="10.00">ValueScaling</text>
</a>
</g>
</g>
<!-- Node5&#45;&gt;Node1 -->
<g id="edge4" class="edge">
<title>Node5&#45;&gt;Node1</title>
<path fill="none" stroke="#9a32cd" stroke-dasharray="5,2" d="M224.98,-81.24C211.22,-62.82 189.63,-33.93 178.94,-19.62"/>
<polygon fill="#9a32cd" stroke="#9a32cd" points="222.24,-83.42 231.03,-89.34 227.85,-79.23 222.24,-83.42"/>
<text text-anchor="middle" x="249.5" y="-63" font-family="Helvetica,sans-Serif" font-size="10.00"> scalingConst</text>
<text text-anchor="middle" x="249.5" y="-52" font-family="Helvetica,sans-Serif" font-size="10.00">scaling</text>
<text text-anchor="middle" x="249.5" y="-41" font-family="Helvetica,sans-Serif" font-size="10.00">ownScaling</text>
</g>
<!-- Node6 -->
<g id="node6" class="node">
<title>Node6</title>
<g id="a_node6"><a xlink:href="classdrain_1_1UniTuple.html" target="_top" xlink:title=" ">
<polygon fill="white" stroke="black" points="174.5,-156.5 174.5,-175.5 300.5,-175.5 300.5,-156.5 174.5,-156.5"/>
<text text-anchor="middle" x="237.5" y="-163.5" font-family="Helvetica,sans-Serif" font-size="10.00">UniTuple&lt; double, 4 &gt;</text>
</a>
</g>
</g>
<!-- Node6&#45;&gt;Node5 -->
<g id="edge5" class="edge">
<title>Node6&#45;&gt;Node5</title>
<path fill="none" stroke="midnightblue" d="M237.5,-146.04C237.5,-133.67 237.5,-118.12 237.5,-108.63"/>
<polygon fill="midnightblue" stroke="midnightblue" points="234,-146.23 237.5,-156.23 241,-146.23 234,-146.23"/>
</g>
<!-- Node7 -->
<g id="node7" class="node">
<title>Node7</title>
<g id="a_node7"><a xlink:href="classdrain_1_1Range.html" target="_top" xlink:title=" ">
<polygon fill="white" stroke="black" points="319,-156.5 319,-175.5 422,-175.5 422,-156.5 319,-156.5"/>
<text text-anchor="middle" x="370.5" y="-163.5" font-family="Helvetica,sans-Serif" font-size="10.00">Range&lt; double &gt;</text>
</a>
</g>
</g>
<!-- Node7&#45;&gt;Node5 -->
<g id="edge6" class="edge">
<title>Node7&#45;&gt;Node5</title>
<path fill="none" stroke="#9a32cd" stroke-dasharray="5,2" d="M343.78,-151.94C317.44,-139.07 277.93,-119.76 255.23,-108.67"/>
<polygon fill="#9a32cd" stroke="#9a32cd" points="342.32,-155.12 352.84,-156.37 345.39,-148.83 342.32,-155.12"/>
<text text-anchor="middle" x="341.5" y="-130" font-family="Helvetica,sans-Serif" font-size="10.00"> physRange</text>
</g>
<!-- Node8 -->
<g id="node8" class="node">
<title>Node8</title>
<g id="a_node8"><a xlink:href="classdrain_1_1UniTuple.html" target="_top" xlink:title=" ">
<polygon fill="white" stroke="black" points="307.5,-213.5 307.5,-232.5 433.5,-232.5 433.5,-213.5 307.5,-213.5"/>
<text text-anchor="middle" x="370.5" y="-220.5" font-family="Helvetica,sans-Serif" font-size="10.00">UniTuple&lt; double, 2 &gt;</text>
</a>
</g>
</g>
<!-- Node8&#45;&gt;Node7 -->
<g id="edge7" class="edge">
<title>Node8&#45;&gt;Node7</title>
<path fill="none" stroke="midnightblue" d="M370.5,-203.12C370.5,-193.82 370.5,-183.06 370.5,-175.71"/>
<polygon fill="midnightblue" stroke="midnightblue" points="367,-203.41 370.5,-213.41 374,-203.41 367,-203.41"/>
</g>
</g>
</svg>
