<?xml version="1.0" encoding="UTF-8" standalone="no"?>
<!DOCTYPE svg PUBLIC "-//W3C//DTD SVG 1.1//EN"
 "http://www.w3.org/Graphics/SVG/1.1/DTD/svg11.dtd">
<!-- Generated by graphviz version 2.43.0 (0)
 -->
<!-- Title: MultiChannelWindowCore Pages: 1 -->
<!--zoomable 310 -->
<svg id="main" version="1.1" xmlns="http://www.w3.org/2000/svg" xmlns:xlink="http://www.w3.org/1999/xlink" xml:space="preserve" onload="init(evt)">
<style type="text/css"><![CDATA[
.edge:hover path { stroke: red; }
.edge:hover polygon { stroke: red; fill: red; }
]]></style>
<script type="text/javascript"><![CDATA[
var edges = document.getElementsByTagName('g');
if (edges && edges.length) {
  for (var i=0;i<edges.length;i++) {
    if (edges[i].id.substr(0,4)=='edge') {
      edges[i].setAttribute('class','edge');
    }
  }
}
]]></script>
        <defs>
                <circle id="rim" cx="0" cy="0" r="7"/>
                <circle id="rim2" cx="0" cy="0" r="3.5"/>
                <g id="zoomPlus">
                        <use xlink:href="#rim" fill="#404040">
                                <set attributeName="fill" to="#808080" begin="zoomplus.mouseover" end="zoomplus.mouseout"/>
                        </use>
                        <path d="M-4,0h8M0,-4v8" fill="none" stroke="white" stroke-width="1.5" pointer-events="none"/>
                </g>
                <g id="zoomMin">
                        <use xlink:href="#rim" fill="#404040">
                                <set attributeName="fill" to="#808080" begin="zoomminus.mouseover" end="zoomminus.mouseout"/>
                        </use>
                        <path d="M-4,0h8" fill="none" stroke="white" stroke-width="1.5" pointer-events="none"/>
                </g>
                <g id="dirArrow">
                        <path fill="none" stroke="white" stroke-width="1.5" d="M0,-3.0v7 M-2.5,-0.5L0,-3.0L2.5,-0.5"/>
                </g>
               <g id="resetDef">
                       <use xlink:href="#rim2" fill="#404040">
                               <set attributeName="fill" to="#808080" begin="reset.mouseover" end="reset.mouseout"/>
                       </use>
               </g>
        </defs>

<script type="text/javascript">
var viewWidth = 2229;
var viewHeight = 310;
var sectionId = 'dynsection-1';
</script>
<script xlink:href="svgpan.js"/>
<svg id="graph" class="graph">
<g id="viewport">
<title>MultiChannelWindowCore</title>
<polygon fill="white" stroke="transparent" points="-4,4 -4,-305.5 2225,-305.5 2225,4 -4,4"/>
<!-- Node1 -->
<g id="node1" class="node">
<title>Node1</title>
<g id="a_node1"><a xlink:title=" ">
<polygon fill="#bfbfbf" stroke="black" points="2078,-124 2078,-143 2221,-143 2221,-124 2078,-124"/>
<text text-anchor="middle" x="2149.5" y="-131" font-family="Helvetica,sans-Serif" font-size="10.00">MultiChannelWindowCore</text>
</a>
</g>
</g>
<!-- Node2 -->
<g id="node2" class="node">
<title>Node2</title>
<g id="a_node2"><a xlink:href="classdrain_1_1image_1_1WeightedWindowCore.html" target="_top" xlink:title=" ">
<polygon fill="white" stroke="black" points="1916,-173 1916,-192 2041,-192 2041,-173 1916,-173"/>
<text text-anchor="middle" x="1978.5" y="-180" font-family="Helvetica,sans-Serif" font-size="10.00">WeightedWindowCore</text>
</a>
</g>
</g>
<!-- Node2&#45;&gt;Node1 -->
<g id="edge1" class="edge">
<title>Node2&#45;&gt;Node1</title>
<path fill="none" stroke="midnightblue" d="M2022.34,-170.08C2051.3,-161.68 2088.98,-150.76 2115.6,-143.04"/>
<polygon fill="midnightblue" stroke="midnightblue" points="2021.12,-166.79 2012.49,-172.94 2023.07,-173.51 2021.12,-166.79"/>
</g>
<!-- Node3 -->
<g id="node3" class="node">
<title>Node3</title>
<g id="a_node3"><a xlink:href="classdrain_1_1image_1_1WindowCore.html" target="_top" xlink:title="Container for source data (input) and destination data (output). May also contain metadata of them.">
<polygon fill="white" stroke="black" points="1801,-223 1801,-242 1879,-242 1879,-223 1801,-223"/>
<text text-anchor="middle" x="1840" y="-230" font-family="Helvetica,sans-Serif" font-size="10.00">WindowCore</text>
</a>
</g>
</g>
<!-- Node3&#45;&gt;Node2 -->
<g id="edge2" class="edge">
<title>Node3&#45;&gt;Node2</title>
<path fill="none" stroke="midnightblue" d="M1876.55,-219.48C1899.89,-210.93 1929.92,-199.93 1951.14,-192.16"/>
<polygon fill="midnightblue" stroke="midnightblue" points="1875.18,-216.25 1867,-222.98 1877.59,-222.82 1875.18,-216.25"/>
</g>
<!-- Node4 -->
<g id="node4" class="node">
<title>Node4</title>
<g id="a_node4"><a xlink:href="classdrain_1_1image_1_1WindowCoreBase.html" target="_top" xlink:title="Provides splitting frames.">
<polygon fill="white" stroke="black" points="1645,-249 1645,-268 1747,-268 1747,-249 1645,-249"/>
<text text-anchor="middle" x="1696" y="-256" font-family="Helvetica,sans-Serif" font-size="10.00">WindowCoreBase</text>
</a>
</g>
</g>
<!-- Node4&#45;&gt;Node3 -->
<g id="edge3" class="edge">
<title>Node4&#45;&gt;Node3</title>
<path fill="none" stroke="midnightblue" d="M1757.18,-249.09C1765.86,-247.62 1774.67,-246.07 1783,-244.5 1788.76,-243.41 1794.85,-242.19 1800.79,-240.95"/>
<polygon fill="midnightblue" stroke="midnightblue" points="1756.38,-245.68 1747.1,-250.78 1757.54,-252.58 1756.38,-245.68"/>
</g>
<!-- Node5 -->
<g id="node5" class="node">
<title>Node5</title>
<g id="a_node5"><a xlink:href="classdrain_1_1image_1_1ImageView.html" target="_top" xlink:title="ImageFrame that also has channels.">
<polygon fill="white" stroke="black" points="1660.5,-211 1660.5,-230 1731.5,-230 1731.5,-211 1660.5,-211"/>
<text text-anchor="middle" x="1696" y="-218" font-family="Helvetica,sans-Serif" font-size="10.00">ImageView</text>
</a>
</g>
</g>
<!-- Node5&#45;&gt;Node2 -->
<g id="edge31" class="edge">
<title>Node5&#45;&gt;Node2</title>
<path fill="none" stroke="#9a32cd" stroke-dasharray="5,2" d="M1734.62,-207.84C1754.19,-201.82 1778.63,-195.14 1801,-191.5 1838.85,-185.34 1881.82,-183.04 1915.88,-182.32"/>
<polygon fill="#9a32cd" stroke="#9a32cd" points="1733.36,-204.57 1724.87,-210.91 1735.46,-211.25 1733.36,-204.57"/>
<text text-anchor="middle" x="1840" y="-205.5" font-family="Helvetica,sans-Serif" font-size="10.00"> srcWeight</text>
<text text-anchor="middle" x="1840" y="-194.5" font-family="Helvetica,sans-Serif" font-size="10.00">dstWeight</text>
</g>
<!-- Node5&#45;&gt;Node3 -->
<g id="edge4" class="edge">
<title>Node5&#45;&gt;Node3</title>
<path fill="none" stroke="#9a32cd" stroke-dasharray="5,2" d="M1742.09,-220.25C1755.3,-220.52 1769.75,-221.17 1783,-222.5 1788.8,-223.08 1794.9,-223.93 1800.85,-224.88"/>
<polygon fill="#9a32cd" stroke="#9a32cd" points="1741.86,-216.74 1731.81,-220.1 1741.75,-223.74 1741.86,-216.74"/>
<text text-anchor="middle" x="1774" y="-236.5" font-family="Helvetica,sans-Serif" font-size="10.00"> src</text>
<text text-anchor="middle" x="1774" y="-225.5" font-family="Helvetica,sans-Serif" font-size="10.00">dst</text>
</g>
<!-- Node6 -->
<g id="node6" class="node">
<title>Node6</title>
<g id="a_node6"><a xlink:href="classdrain_1_1image_1_1MultiChannel.html" target="_top" xlink:title="Multi&#45;channel ImageFrame.">
<polygon fill="white" stroke="black" points="1527,-224 1527,-243 1608,-243 1608,-224 1527,-224"/>
<text text-anchor="middle" x="1567.5" y="-231" font-family="Helvetica,sans-Serif" font-size="10.00">MultiChannel</text>
</a>
</g>
</g>
<!-- Node6&#45;&gt;Node5 -->
<g id="edge5" class="edge">
<title>Node6&#45;&gt;Node5</title>
<path fill="none" stroke="midnightblue" d="M1618.19,-228.39C1632.23,-226.95 1647.2,-225.41 1660.17,-224.08"/>
<polygon fill="midnightblue" stroke="midnightblue" points="1617.77,-224.92 1608.18,-229.42 1618.48,-231.88 1617.77,-224.92"/>
</g>
<!-- Node7 -->
<g id="node7" class="node">
<title>Node7</title>
<g id="a_node7"><a xlink:href="classdrain_1_1image_1_1ImageFrame.html" target="_top" xlink:title="Image with static geometry.">
<polygon fill="white" stroke="black" points="1412,-226 1412,-245 1490,-245 1490,-226 1412,-226"/>
<text text-anchor="middle" x="1451" y="-233" font-family="Helvetica,sans-Serif" font-size="10.00">ImageFrame</text>
</a>
</g>
</g>
<!-- Node7&#45;&gt;Node6 -->
<g id="edge6" class="edge">
<title>Node7&#45;&gt;Node6</title>
<path fill="none" stroke="midnightblue" d="M1500.36,-234.66C1509.23,-234.5 1518.4,-234.34 1526.97,-234.19"/>
<polygon fill="midnightblue" stroke="midnightblue" points="1500.06,-231.16 1490.13,-234.83 1500.19,-238.16 1500.06,-231.16"/>
</g>
<!-- Node8 -->
<g id="node8" class="node">
<title>Node8</title>
<g id="a_node8"><a xlink:href="classdrain_1_1image_1_1ImageLike.html" target="_top" xlink:title="A base class for images.">
<polygon fill="white" stroke="black" points="1205,-176 1205,-195 1272,-195 1272,-176 1205,-176"/>
<text text-anchor="middle" x="1238.5" y="-183" font-family="Helvetica,sans-Serif" font-size="10.00">ImageLike</text>
</a>
</g>
</g>
<!-- Node8&#45;&gt;Node7 -->
<g id="edge7" class="edge">
<title>Node8&#45;&gt;Node7</title>
<path fill="none" stroke="midnightblue" d="M1282.13,-195.24C1313.18,-202.38 1356.24,-212.38 1394,-221.5 1399.84,-222.91 1406.03,-224.43 1412.06,-225.93"/>
<polygon fill="midnightblue" stroke="midnightblue" points="1282.62,-191.76 1272.09,-192.93 1281.05,-198.58 1282.62,-191.76"/>
</g>
<!-- Node9 -->
<g id="node9" class="node">
<title>Node9</title>
<g id="a_node9"><a xlink:href="classdrain_1_1image_1_1ImageConf.html" target="_top" xlink:title="Struct for image (excluding data)">
<polygon fill="white" stroke="black" points="926.5,-171 926.5,-190 996.5,-190 996.5,-171 926.5,-171"/>
<text text-anchor="middle" x="961.5" y="-178" font-family="Helvetica,sans-Serif" font-size="10.00">ImageConf</text>
</a>
</g>
</g>
<!-- Node9&#45;&gt;Node8 -->
<g id="edge8" class="edge">
<title>Node9&#45;&gt;Node8</title>
<path fill="none" stroke="#9a32cd" stroke-dasharray="5,2" d="M1006.99,-181.31C1062.41,-182.32 1155.76,-184.01 1204.94,-184.91"/>
<polygon fill="#9a32cd" stroke="#9a32cd" points="1006.83,-177.81 996.77,-181.12 1006.71,-184.8 1006.83,-177.81"/>
<text text-anchor="middle" x="1102.5" y="-187.5" font-family="Helvetica,sans-Serif" font-size="10.00"> conf</text>
</g>
<!-- Node10 -->
<g id="node10" class="node">
<title>Node10</title>
<g id="a_node10"><a xlink:href="classdrain_1_1image_1_1Encoding.html" target="_top" xlink:title=" ">
<polygon fill="white" stroke="black" points="646,-206 646,-225 707,-225 707,-206 646,-206"/>
<text text-anchor="middle" x="676.5" y="-213" font-family="Helvetica,sans-Serif" font-size="10.00">Encoding</text>
</a>
</g>
</g>
<!-- Node10&#45;&gt;Node9 -->
<g id="edge9" class="edge">
<title>Node10&#45;&gt;Node9</title>
<path fill="none" stroke="midnightblue" d="M717.53,-211.56C756.12,-207.65 816.13,-201.28 868,-194.5 887.33,-191.97 908.86,-188.74 926.28,-186.02"/>
<polygon fill="midnightblue" stroke="midnightblue" points="716.84,-208.11 707.24,-212.6 717.54,-215.08 716.84,-208.11"/>
</g>
<!-- Node11 -->
<g id="node11" class="node">
<title>Node11</title>
<g id="a_node11"><a xlink:href="classdrain_1_1ValueScaling.html" target="_top" xlink:title="Linear scaling and physical range for image intensities.">
<polygon fill="white" stroke="black" points="404,-215 404,-234 484,-234 484,-215 404,-215"/>
<text text-anchor="middle" x="444" y="-222" font-family="Helvetica,sans-Serif" font-size="10.00">ValueScaling</text>
</a>
</g>
</g>
<!-- Node11&#45;&gt;Node10 -->
<g id="edge10" class="edge">
<title>Node11&#45;&gt;Node10</title>
<path fill="none" stroke="midnightblue" d="M494.15,-222.58C540.16,-220.78 607.4,-218.16 645.76,-216.66"/>
<polygon fill="midnightblue" stroke="midnightblue" points="493.96,-219.09 484.1,-222.97 494.23,-226.08 493.96,-219.09"/>
</g>
<!-- Node12 -->
<g id="node12" class="node">
<title>Node12</title>
<g id="a_node12"><a xlink:href="classdrain_1_1UniTuple.html" target="_top" xlink:title=" ">
<polygon fill="white" stroke="black" points="163,-234 163,-253 289,-253 289,-234 163,-234"/>
<text text-anchor="middle" x="226" y="-241" font-family="Helvetica,sans-Serif" font-size="10.00">UniTuple&lt; double, 4 &gt;</text>
</a>
</g>
</g>
<!-- Node12&#45;&gt;Node11 -->
<g id="edge11" class="edge">
<title>Node12&#45;&gt;Node11</title>
<path fill="none" stroke="midnightblue" d="M299.36,-237.13C334.32,-234.06 374.9,-230.49 403.99,-227.93"/>
<polygon fill="midnightblue" stroke="midnightblue" points="298.84,-233.67 289.19,-238.03 299.45,-240.64 298.84,-233.67"/>
</g>
<!-- Node13 -->
<g id="node13" class="node">
<title>Node13</title>
<g id="a_node13"><a xlink:href="classdrain_1_1Range.html" target="_top" xlink:title=" ">
<polygon fill="white" stroke="black" points="174.5,-196 174.5,-215 277.5,-215 277.5,-196 174.5,-196"/>
<text text-anchor="middle" x="226" y="-203" font-family="Helvetica,sans-Serif" font-size="10.00">Range&lt; double &gt;</text>
</a>
</g>
</g>
<!-- Node13&#45;&gt;Node11 -->
<g id="edge12" class="edge">
<title>Node13&#45;&gt;Node11</title>
<path fill="none" stroke="#9a32cd" stroke-dasharray="5,2" d="M287.84,-210.75C311.88,-212.84 339.74,-215.27 365,-217.5 377.6,-218.61 391.33,-219.84 403.72,-220.95"/>
<polygon fill="#9a32cd" stroke="#9a32cd" points="288.06,-207.26 277.8,-209.88 287.46,-214.23 288.06,-207.26"/>
<text text-anchor="middle" x="336" y="-220.5" font-family="Helvetica,sans-Serif" font-size="10.00"> physRange</text>
</g>
<!-- Node14 -->
<g id="node14" class="node">
<title>Node14</title>
<g id="a_node14"><a xlink:href="classdrain_1_1UniTuple.html" target="_top" xlink:title=" ">
<polygon fill="white" stroke="black" points="0,-196 0,-215 126,-215 126,-196 0,-196"/>
<text text-anchor="middle" x="63" y="-203" font-family="Helvetica,sans-Serif" font-size="10.00">UniTuple&lt; double, 2 &gt;</text>
</a>
</g>
</g>
<!-- Node14&#45;&gt;Node13 -->
<g id="edge13" class="edge">
<title>Node14&#45;&gt;Node13</title>
<path fill="none" stroke="midnightblue" d="M136.44,-205.5C149.24,-205.5 162.33,-205.5 174.37,-205.5"/>
<polygon fill="midnightblue" stroke="midnightblue" points="136.25,-202 126.25,-205.5 136.25,-209 136.25,-202"/>
</g>
<!-- Node15 -->
<g id="node15" class="node">
<title>Node15</title>
<g id="a_node15"><a xlink:href="classdrain_1_1Caster.html" target="_top" xlink:title=" ">
<polygon fill="white" stroke="black" points="420,-261 420,-280 468,-280 468,-261 420,-261"/>
<text text-anchor="middle" x="444" y="-268" font-family="Helvetica,sans-Serif" font-size="10.00">Caster</text>
</a>
</g>
</g>
<!-- Node15&#45;&gt;Node10 -->
<g id="edge14" class="edge">
<title>Node15&#45;&gt;Node10</title>
<path fill="none" stroke="#9a32cd" stroke-dasharray="5,2" d="M477.61,-259.12C491.49,-254.52 507.93,-249.38 523,-245.5 565.2,-234.63 614.85,-225.53 645.75,-220.3"/>
<polygon fill="#9a32cd" stroke="#9a32cd" points="476.36,-255.84 468,-262.35 478.6,-262.48 476.36,-255.84"/>
<text text-anchor="middle" x="546.5" y="-248.5" font-family="Helvetica,sans-Serif" font-size="10.00"> caster</text>
</g>
<!-- Node26 -->
<g id="node26" class="node">
<title>Node26</title>
<g id="a_node26"><a xlink:href="classdrain_1_1Castable.html" target="_top" xlink:title=" ">
<polygon fill="white" stroke="black" points="647,-244 647,-263 706,-263 706,-244 647,-244"/>
<text text-anchor="middle" x="676.5" y="-251" font-family="Helvetica,sans-Serif" font-size="10.00">Castable</text>
</a>
</g>
</g>
<!-- Node15&#45;&gt;Node26 -->
<g id="edge27" class="edge">
<title>Node15&#45;&gt;Node26</title>
<path fill="none" stroke="#9a32cd" stroke-dasharray="5,2" d="M478.57,-268.02C523.9,-264.68 603.94,-258.78 646.69,-255.63"/>
<polygon fill="#9a32cd" stroke="#9a32cd" points="478.09,-264.55 468.37,-268.78 478.6,-271.53 478.09,-264.55"/>
<text text-anchor="middle" x="546.5" y="-267.5" font-family="Helvetica,sans-Serif" font-size="10.00"> caster</text>
</g>
<!-- Node16 -->
<g id="node16" class="node">
<title>Node16</title>
<g id="a_node16"><a xlink:href="classdrain_1_1image_1_1Geometry.html" target="_top" xlink:title=" ">
<polygon fill="white" stroke="black" points="644,-62 644,-81 709,-81 709,-62 644,-62"/>
<text text-anchor="middle" x="676.5" y="-69" font-family="Helvetica,sans-Serif" font-size="10.00">Geometry</text>
</a>
</g>
</g>
<!-- Node16&#45;&gt;Node9 -->
<g id="edge15" class="edge">
<title>Node16&#45;&gt;Node9</title>
<path fill="none" stroke="midnightblue" d="M712.05,-84.81C769.83,-107.06 884.72,-151.31 935.44,-170.85"/>
<polygon fill="midnightblue" stroke="midnightblue" points="713.2,-81.5 702.61,-81.17 710.69,-88.03 713.2,-81.5"/>
</g>
<!-- Node31 -->
<g id="node31" class="node">
<title>Node31</title>
<g id="a_node31"><a xlink:href="classdrain_1_1image_1_1Tray.html" target="_top" xlink:title=" ">
<polygon fill="white" stroke="black" points="907,-33.5 907,-63.5 1016,-63.5 1016,-33.5 907,-33.5"/>
<text text-anchor="start" x="915" y="-51.5" font-family="Helvetica,sans-Serif" font-size="10.00">Tray&lt; const drain::</text>
<text text-anchor="middle" x="961.5" y="-40.5" font-family="Helvetica,sans-Serif" font-size="10.00">image::Channel &gt;</text>
</a>
</g>
</g>
<!-- Node16&#45;&gt;Node31 -->
<g id="edge35" class="edge">
<title>Node16&#45;&gt;Node31</title>
<path fill="none" stroke="#9a32cd" stroke-dasharray="5,2" d="M719.07,-60.83C738.37,-56.39 761.71,-51.76 783,-49.5 824.37,-45.11 871.47,-45.08 906.75,-46.02"/>
<polygon fill="#9a32cd" stroke="#9a32cd" points="718.02,-57.48 709.09,-63.19 719.63,-64.29 718.02,-57.48"/>
<text text-anchor="middle" x="825.5" y="-52.5" font-family="Helvetica,sans-Serif" font-size="10.00"> geometry</text>
</g>
<!-- Node34 -->
<g id="node34" class="node">
<title>Node34</title>
<g id="a_node34"><a xlink:href="classdrain_1_1image_1_1Tray.html" target="_top" xlink:title=" ">
<polygon fill="white" stroke="black" points="906.5,-111.5 906.5,-141.5 1016.5,-141.5 1016.5,-111.5 906.5,-111.5"/>
<text text-anchor="start" x="914.5" y="-129.5" font-family="Helvetica,sans-Serif" font-size="10.00">Tray&lt; drain::image</text>
<text text-anchor="middle" x="961.5" y="-118.5" font-family="Helvetica,sans-Serif" font-size="10.00">::Channel &gt;</text>
</a>
</g>
</g>
<!-- Node16&#45;&gt;Node34 -->
<g id="edge40" class="edge">
<title>Node16&#45;&gt;Node34</title>
<path fill="none" stroke="#9a32cd" stroke-dasharray="5,2" d="M719.52,-69.72C758.59,-69.1 818.09,-70.81 868,-83.5 891.69,-89.52 916.71,-101.55 934.76,-111.35"/>
<polygon fill="#9a32cd" stroke="#9a32cd" points="718.99,-66.23 709.07,-69.95 719.14,-73.23 718.99,-66.23"/>
<text text-anchor="middle" x="825.5" y="-86.5" font-family="Helvetica,sans-Serif" font-size="10.00"> geometry</text>
</g>
<!-- Node17 -->
<g id="node17" class="node">
<title>Node17</title>
<g id="a_node17"><a xlink:href="classdrain_1_1UniTuple.html" target="_top" xlink:title=" ">
<polygon fill="white" stroke="black" points="383,-13 383,-32 505,-32 505,-13 383,-13"/>
<text text-anchor="middle" x="444" y="-20" font-family="Helvetica,sans-Serif" font-size="10.00">UniTuple&lt; size_t, 4 &gt;</text>
</a>
</g>
</g>
<!-- Node17&#45;&gt;Node16 -->
<g id="edge16" class="edge">
<title>Node17&#45;&gt;Node16</title>
<path fill="none" stroke="midnightblue" d="M499.6,-34.11C544.56,-43.67 606.74,-56.88 643.86,-64.77"/>
<polygon fill="midnightblue" stroke="midnightblue" points="500.23,-30.66 489.72,-32.01 498.77,-37.51 500.23,-30.66"/>
</g>
<!-- Node18 -->
<g id="node18" class="node">
<title>Node18</title>
<g id="a_node18"><a xlink:href="classdrain_1_1Frame2D.html" target="_top" xlink:title=" ">
<polygon fill="white" stroke="black" points="388,-89 388,-108 500,-108 500,-89 388,-89"/>
<text text-anchor="middle" x="444" y="-96" font-family="Helvetica,sans-Serif" font-size="10.00">Frame2D&lt; size_t &gt;</text>
</a>
</g>
</g>
<!-- Node18&#45;&gt;Node16 -->
<g id="edge17" class="edge">
<title>Node18&#45;&gt;Node16</title>
<path fill="none" stroke="#9a32cd" stroke-dasharray="5,2" d="M510.19,-90.86C553.89,-85.75 609.5,-79.23 643.79,-75.21"/>
<polygon fill="#9a32cd" stroke="#9a32cd" points="509.74,-87.39 500.21,-92.03 510.55,-94.35 509.74,-87.39"/>
<text text-anchor="middle" x="546.5" y="-92.5" font-family="Helvetica,sans-Serif" font-size="10.00"> area</text>
</g>
<!-- Node19 -->
<g id="node19" class="node">
<title>Node19</title>
<g id="a_node19"><a xlink:href="classdrain_1_1UniTuple.html" target="_top" xlink:title=" ">
<polygon fill="white" stroke="black" points="165,-72 165,-91 287,-91 287,-72 165,-72"/>
<text text-anchor="middle" x="226" y="-79" font-family="Helvetica,sans-Serif" font-size="10.00">UniTuple&lt; size_t, 2 &gt;</text>
</a>
</g>
</g>
<!-- Node19&#45;&gt;Node18 -->
<g id="edge18" class="edge">
<title>Node19&#45;&gt;Node18</title>
<path fill="none" stroke="midnightblue" d="M297.37,-87.04C326.77,-89.35 360.42,-92 387.96,-94.17"/>
<polygon fill="midnightblue" stroke="midnightblue" points="297.41,-83.53 287.17,-86.24 296.86,-90.51 297.41,-83.53"/>
</g>
<!-- Node20 -->
<g id="node20" class="node">
<title>Node20</title>
<g id="a_node20"><a xlink:href="classdrain_1_1image_1_1ChannelGeometry.html" target="_top" xlink:title=" ">
<polygon fill="white" stroke="black" points="391.5,-51 391.5,-70 496.5,-70 496.5,-51 391.5,-51"/>
<text text-anchor="middle" x="444" y="-58" font-family="Helvetica,sans-Serif" font-size="10.00">ChannelGeometry</text>
</a>
</g>
</g>
<!-- Node19&#45;&gt;Node20 -->
<g id="edge20" class="edge">
<title>Node19&#45;&gt;Node20</title>
<path fill="none" stroke="midnightblue" d="M297.34,-74.66C327.92,-71.69 363.09,-68.27 391.22,-65.53"/>
<polygon fill="midnightblue" stroke="midnightblue" points="296.78,-71.2 287.17,-75.65 297.46,-78.17 296.78,-71.2"/>
</g>
<!-- Node20&#45;&gt;Node16 -->
<g id="edge19" class="edge">
<title>Node20&#45;&gt;Node16</title>
<path fill="none" stroke="#9a32cd" stroke-dasharray="5,2" d="M506.72,-62.06C526.89,-62.68 549.41,-63.49 570,-64.5 594.75,-65.72 622.74,-67.6 643.66,-69.1"/>
<polygon fill="#9a32cd" stroke="#9a32cd" points="506.81,-58.56 496.71,-61.76 506.6,-65.55 506.81,-58.56"/>
<text text-anchor="middle" x="546.5" y="-67.5" font-family="Helvetica,sans-Serif" font-size="10.00"> channels</text>
</g>
<!-- Node21 -->
<g id="node21" class="node">
<title>Node21</title>
<g id="a_node21"><a xlink:href="classdrain_1_1image_1_1CoordinatePolicy.html" target="_top" xlink:title="Policies for coordinate underflows and overflows.">
<polygon fill="white" stroke="black" points="627,-168 627,-187 726,-187 726,-168 627,-168"/>
<text text-anchor="middle" x="676.5" y="-175" font-family="Helvetica,sans-Serif" font-size="10.00">CoordinatePolicy</text>
</a>
</g>
</g>
<!-- Node21&#45;&gt;Node9 -->
<g id="edge21" class="edge">
<title>Node21&#45;&gt;Node9</title>
<path fill="none" stroke="#9a32cd" stroke-dasharray="5,2" d="M736.18,-178.12C793.61,-178.73 879.13,-179.64 926.26,-180.14"/>
<polygon fill="#9a32cd" stroke="#9a32cd" points="736.19,-174.62 726.15,-178.02 736.11,-181.62 736.19,-174.62"/>
<text text-anchor="middle" x="825.5" y="-182.5" font-family="Helvetica,sans-Serif" font-size="10.00"> coordinatePolicy</text>
</g>
<!-- Node22 -->
<g id="node22" class="node">
<title>Node22</title>
<g id="a_node22"><a xlink:href="classdrain_1_1UniTuple.html" target="_top" xlink:title=" ">
<polygon fill="white" stroke="black" points="385.5,-165.5 385.5,-195.5 502.5,-195.5 502.5,-165.5 385.5,-165.5"/>
<text text-anchor="start" x="393.5" y="-183.5" font-family="Helvetica,sans-Serif" font-size="10.00">UniTuple&lt; coord_pol</text>
<text text-anchor="middle" x="444" y="-172.5" font-family="Helvetica,sans-Serif" font-size="10.00">_t, 4 &gt;</text>
</a>
</g>
</g>
<!-- Node22&#45;&gt;Node21 -->
<g id="edge22" class="edge">
<title>Node22&#45;&gt;Node21</title>
<path fill="none" stroke="midnightblue" d="M512.67,-179.62C549.28,-179.14 593.66,-178.57 626.84,-178.13"/>
<polygon fill="midnightblue" stroke="midnightblue" points="512.52,-176.12 502.57,-179.75 512.62,-183.12 512.52,-176.12"/>
</g>
<!-- Node23 -->
<g id="node23" class="node">
<title>Node23</title>
<g id="a_node23"><a xlink:href="classdrain_1_1Dictionary2.html" target="_top" xlink:title="Two&#45;way mapping between strings and objects of template class T.">
<polygon fill="white" stroke="black" points="386.5,-127 386.5,-146 501.5,-146 501.5,-127 386.5,-127"/>
<text text-anchor="middle" x="444" y="-134" font-family="Helvetica,sans-Serif" font-size="10.00">Dictionary2&lt; K, V &gt;</text>
</a>
</g>
</g>
<!-- Node23&#45;&gt;Node21 -->
<g id="edge23" class="edge">
<title>Node23&#45;&gt;Node21</title>
<path fill="none" stroke="#9a32cd" stroke-dasharray="5,2" d="M508.71,-147.83C545.98,-154.46 592.29,-162.7 626.65,-168.81"/>
<polygon fill="#9a32cd" stroke="#9a32cd" points="508.92,-144.31 498.46,-146.01 507.69,-151.21 508.92,-144.31"/>
<text text-anchor="middle" x="546.5" y="-161.5" font-family="Helvetica,sans-Serif" font-size="10.00"> dict</text>
</g>
<!-- Node24 -->
<g id="node24" class="node">
<title>Node24</title>
<g id="a_node24"><a xlink:title=" ">
<polygon fill="white" stroke="#bfbfbf" points="174,-121.5 174,-151.5 278,-151.5 278,-121.5 174,-121.5"/>
<text text-anchor="start" x="182" y="-139.5" font-family="Helvetica,sans-Serif" font-size="10.00">list&lt; std::pair&lt; K,</text>
<text text-anchor="middle" x="226" y="-128.5" font-family="Helvetica,sans-Serif" font-size="10.00"> V &gt; &gt;</text>
</a>
</g>
</g>
<!-- Node24&#45;&gt;Node23 -->
<g id="edge24" class="edge">
<title>Node24&#45;&gt;Node23</title>
<path fill="none" stroke="midnightblue" d="M288.39,-136.5C319.23,-136.5 356.35,-136.5 386.48,-136.5"/>
<polygon fill="midnightblue" stroke="midnightblue" points="288.19,-133 278.19,-136.5 288.19,-140 288.19,-133"/>
</g>
<!-- Node25 -->
<g id="node25" class="node">
<title>Node25</title>
<g id="a_node25"><a xlink:href="classdrain_1_1CastableIterator.html" target="_top" xlink:title=" ">
<polygon fill="white" stroke="black" points="1055,-232 1055,-251 1150,-251 1150,-232 1055,-232"/>
<text text-anchor="middle" x="1102.5" y="-239" font-family="Helvetica,sans-Serif" font-size="10.00">CastableIterator</text>
</a>
</g>
</g>
<!-- Node25&#45;&gt;Node7 -->
<g id="edge25" class="edge">
<title>Node25&#45;&gt;Node7</title>
<path fill="none" stroke="#9a32cd" stroke-dasharray="5,2" d="M1160.35,-240.52C1231.42,-239.28 1351.1,-237.21 1411.98,-236.16"/>
<polygon fill="#9a32cd" stroke="#9a32cd" points="1160.17,-237.02 1150.23,-240.69 1160.29,-244.02 1160.17,-237.02"/>
<text text-anchor="middle" x="1238.5" y="-253.5" font-family="Helvetica,sans-Serif" font-size="10.00"> segmentEnd</text>
<text text-anchor="middle" x="1238.5" y="-242.5" font-family="Helvetica,sans-Serif" font-size="10.00">segmentBegin</text>
</g>
<!-- Node26&#45;&gt;Node25 -->
<g id="edge26" class="edge">
<title>Node26&#45;&gt;Node25</title>
<path fill="none" stroke="darkgreen" d="M716.7,-252.39C795.08,-250.17 970.78,-245.2 1054.89,-242.82"/>
<polygon fill="darkgreen" stroke="darkgreen" points="716.21,-248.9 706.31,-252.68 716.4,-255.9 716.21,-248.9"/>
</g>
<!-- Node27 -->
<g id="node27" class="node">
<title>Node27</title>
<g id="a_node27"><a xlink:href="classdrain_1_1FlexVariableMap.html" target="_top" xlink:title="A map of FlexVariable:s.">
<polygon fill="white" stroke="black" points="1189,-278 1189,-297 1288,-297 1288,-278 1189,-278"/>
<text text-anchor="middle" x="1238.5" y="-285" font-family="Helvetica,sans-Serif" font-size="10.00">FlexVariableMap</text>
</a>
</g>
</g>
<!-- Node27&#45;&gt;Node7 -->
<g id="edge28" class="edge">
<title>Node27&#45;&gt;Node7</title>
<path fill="none" stroke="#9a32cd" stroke-dasharray="5,2" d="M1288.48,-275.5C1318.87,-268.05 1358.71,-258.25 1394,-249.5 1399.84,-248.05 1406.01,-246.51 1412.05,-245.01"/>
<polygon fill="#9a32cd" stroke="#9a32cd" points="1287.44,-272.16 1278.56,-277.94 1289.11,-278.95 1287.44,-272.16"/>
<text text-anchor="middle" x="1360.5" y="-278.5" font-family="Helvetica,sans-Serif" font-size="10.00"> propertiesPtr</text>
<text text-anchor="middle" x="1360.5" y="-267.5" font-family="Helvetica,sans-Serif" font-size="10.00">properties</text>
</g>
<!-- Node28 -->
<g id="node28" class="node">
<title>Node28</title>
<g id="a_node28"><a xlink:href="classdrain_1_1SmartMap.html" target="_top" xlink:title=" ">
<polygon fill="white" stroke="black" points="886,-279 886,-298 1037,-298 1037,-279 886,-279"/>
<text text-anchor="middle" x="961.5" y="-286" font-family="Helvetica,sans-Serif" font-size="10.00">SmartMap&lt; FlexVariable &gt;</text>
</a>
</g>
</g>
<!-- Node28&#45;&gt;Node27 -->
<g id="edge29" class="edge">
<title>Node28&#45;&gt;Node27</title>
<path fill="none" stroke="midnightblue" d="M1047.34,-288.19C1093.76,-288.02 1149.62,-287.82 1188.74,-287.68"/>
<polygon fill="midnightblue" stroke="midnightblue" points="1047.27,-284.69 1037.28,-288.23 1047.29,-291.69 1047.27,-284.69"/>
</g>
<!-- Node29 -->
<g id="node29" class="node">
<title>Node29</title>
<g id="a_node29"><a xlink:title=" ">
<polygon fill="white" stroke="#bfbfbf" points="588,-282 588,-301 765,-301 765,-282 588,-282"/>
<text text-anchor="middle" x="676.5" y="-289" font-family="Helvetica,sans-Serif" font-size="10.00">map&lt; std::string, FlexVariable &gt;</text>
</a>
</g>
</g>
<!-- Node29&#45;&gt;Node28 -->
<g id="edge30" class="edge">
<title>Node29&#45;&gt;Node28</title>
<path fill="none" stroke="midnightblue" d="M775.2,-290.46C811.41,-290.08 851.86,-289.65 885.71,-289.29"/>
<polygon fill="midnightblue" stroke="midnightblue" points="775.07,-286.97 765.1,-290.57 775.14,-293.97 775.07,-286.97"/>
</g>
<!-- Node30 -->
<g id="node30" class="node">
<title>Node30</title>
<g id="a_node30"><a xlink:href="classdrain_1_1image_1_1ImageTray.html" target="_top" xlink:title=" ">
<polygon fill="white" stroke="black" points="1171.5,-59.5 1171.5,-89.5 1305.5,-89.5 1305.5,-59.5 1171.5,-59.5"/>
<text text-anchor="start" x="1179.5" y="-77.5" font-family="Helvetica,sans-Serif" font-size="10.00">ImageTray&lt; const drain</text>
<text text-anchor="middle" x="1238.5" y="-66.5" font-family="Helvetica,sans-Serif" font-size="10.00">::image::Channel &gt;</text>
</a>
</g>
</g>
<!-- Node30&#45;&gt;Node1 -->
<g id="edge32" class="edge">
<title>Node30&#45;&gt;Node1</title>
<path fill="none" stroke="#9a32cd" stroke-dasharray="5,2" d="M1316.04,-78.27C1355.96,-79.93 1405.6,-81.5 1450,-81.5 1450,-81.5 1450,-81.5 1979.5,-81.5 2036.6,-81.5 2099.94,-108.95 2130.31,-123.96"/>
<polygon fill="#9a32cd" stroke="#9a32cd" points="1315.99,-74.76 1305.85,-77.84 1315.69,-81.76 1315.99,-74.76"/>
<text text-anchor="middle" x="1696" y="-84.5" font-family="Helvetica,sans-Serif" font-size="10.00"> srcTray</text>
</g>
<!-- Node31&#45;&gt;Node30 -->
<g id="edge33" class="edge">
<title>Node31&#45;&gt;Node30</title>
<path fill="none" stroke="midnightblue" d="M1026.2,-57.21C1035.84,-58.4 1045.67,-59.54 1055,-60.5 1093.41,-64.46 1136.46,-67.82 1171.11,-70.25"/>
<polygon fill="midnightblue" stroke="midnightblue" points="1026.61,-53.73 1016.25,-55.96 1025.73,-60.68 1026.61,-53.73"/>
</g>
<!-- Node31&#45;&gt;Node30 -->
<g id="edge36" class="edge">
<title>Node31&#45;&gt;Node30</title>
<path fill="none" stroke="#9a32cd" stroke-dasharray="5,2" d="M1026.16,-43.3C1062.62,-41.53 1109.1,-41.33 1150,-47.5 1165.88,-49.89 1182.85,-54.6 1197.57,-59.42"/>
<polygon fill="#9a32cd" stroke="#9a32cd" points="1025.96,-39.81 1016.16,-43.84 1026.33,-46.8 1025.96,-39.81"/>
<text text-anchor="middle" x="1102.5" y="-50.5" font-family="Helvetica,sans-Serif" font-size="10.00"> alpha</text>
</g>
<!-- Node32 -->
<g id="node32" class="node">
<title>Node32</title>
<g id="a_node32"><a xlink:title=" ">
<polygon fill="white" stroke="#bfbfbf" points="602,-0.5 602,-30.5 751,-30.5 751,-0.5 602,-0.5"/>
<text text-anchor="start" x="610" y="-18.5" font-family="Helvetica,sans-Serif" font-size="10.00">map&lt; size_t, const</text>
<text text-anchor="middle" x="676.5" y="-7.5" font-family="Helvetica,sans-Serif" font-size="10.00"> drain::image::Channel &amp; &gt;</text>
</a>
</g>
</g>
<!-- Node32&#45;&gt;Node31 -->
<g id="edge34" class="edge">
<title>Node32&#45;&gt;Node31</title>
<path fill="none" stroke="midnightblue" d="M761.31,-25.27C808.44,-30.77 865.86,-37.46 906.92,-42.25"/>
<polygon fill="midnightblue" stroke="midnightblue" points="761.45,-21.77 751.12,-24.08 760.64,-28.72 761.45,-21.77"/>
</g>
<!-- Node33 -->
<g id="node33" class="node">
<title>Node33</title>
<g id="a_node33"><a xlink:href="classdrain_1_1image_1_1ImageTray.html" target="_top" xlink:title=" ">
<polygon fill="white" stroke="black" points="1168,-118.5 1168,-148.5 1309,-148.5 1309,-118.5 1168,-118.5"/>
<text text-anchor="start" x="1176" y="-136.5" font-family="Helvetica,sans-Serif" font-size="10.00">ImageTray&lt; drain::image</text>
<text text-anchor="middle" x="1238.5" y="-125.5" font-family="Helvetica,sans-Serif" font-size="10.00">::Channel &gt;</text>
</a>
</g>
</g>
<!-- Node33&#45;&gt;Node1 -->
<g id="edge37" class="edge">
<title>Node33&#45;&gt;Node1</title>
<path fill="none" stroke="#9a32cd" stroke-dasharray="5,2" d="M1319.26,-133.5C1358.61,-133.5 1406.8,-133.5 1450,-133.5 1450,-133.5 1450,-133.5 1979.5,-133.5 2011.77,-133.5 2047.52,-133.5 2077.79,-133.5"/>
<polygon fill="#9a32cd" stroke="#9a32cd" points="1319.19,-130 1309.19,-133.5 1319.19,-137 1319.19,-130"/>
<text text-anchor="middle" x="1696" y="-136.5" font-family="Helvetica,sans-Serif" font-size="10.00"> dstTray</text>
</g>
<!-- Node34&#45;&gt;Node33 -->
<g id="edge38" class="edge">
<title>Node34&#45;&gt;Node33</title>
<path fill="none" stroke="midnightblue" d="M1026.89,-131.17C1036.32,-131.71 1045.91,-132.18 1055,-132.5 1092.21,-133.81 1133.71,-134.13 1167.72,-134.09"/>
<polygon fill="midnightblue" stroke="midnightblue" points="1026.96,-127.67 1016.77,-130.56 1026.54,-134.65 1026.96,-127.67"/>
</g>
<!-- Node34&#45;&gt;Node33 -->
<g id="edge41" class="edge">
<title>Node34&#45;&gt;Node33</title>
<path fill="none" stroke="#9a32cd" stroke-dasharray="5,2" d="M1027.14,-120.38C1063.32,-117.88 1109.21,-116.26 1150,-119.5 1155.83,-119.96 1161.85,-120.6 1167.89,-121.34"/>
<polygon fill="#9a32cd" stroke="#9a32cd" points="1026.44,-116.92 1016.72,-121.14 1026.95,-123.9 1026.44,-116.92"/>
<text text-anchor="middle" x="1102.5" y="-122.5" font-family="Helvetica,sans-Serif" font-size="10.00"> alpha</text>
</g>
<!-- Node35 -->
<g id="node35" class="node">
<title>Node35</title>
<g id="a_node35"><a xlink:title=" ">
<polygon fill="white" stroke="#bfbfbf" points="616,-118.5 616,-148.5 737,-148.5 737,-118.5 616,-118.5"/>
<text text-anchor="start" x="624" y="-136.5" font-family="Helvetica,sans-Serif" font-size="10.00">map&lt; size_t, drain</text>
<text text-anchor="middle" x="676.5" y="-125.5" font-family="Helvetica,sans-Serif" font-size="10.00">::image::Channel &amp; &gt;</text>
</a>
</g>
</g>
<!-- Node35&#45;&gt;Node34 -->
<g id="edge39" class="edge">
<title>Node35&#45;&gt;Node34</title>
<path fill="none" stroke="midnightblue" d="M747.38,-131.77C796.41,-130.56 861,-128.96 906.18,-127.84"/>
<polygon fill="midnightblue" stroke="midnightblue" points="747.08,-128.28 737.17,-132.02 747.25,-135.28 747.08,-128.28"/>
</g>
</g>
</svg>
        <g id="navigator" transform="translate(0 0)" fill="#404254">
                <rect fill="#f2f5e9" fill-opacity="0.5" stroke="#606060" stroke-width=".5" x="0" y="0" width="60" height="60"/>
                <use id="zoomplus" xlink:href="#zoomPlus" x="17" y="9" onmousedown="handleZoom(evt,'in')"/>
                <use id="zoomminus" xlink:href="#zoomMin" x="42" y="9" onmousedown="handleZoom(evt,'out')"/>
                <use id="reset" xlink:href="#resetDef" x="30" y="36" onmousedown="handleReset()"/>
                <g id="arrowUp" xlink:href="#dirArrow" transform="translate(30 24)" onmousedown="handlePan(0,-1)">
                  <use xlink:href="#rim" fill="#404040">
                        <set attributeName="fill" to="#808080" begin="arrowUp.mouseover" end="arrowUp.mouseout"/>
                  </use>
                  <path fill="none" stroke="white" stroke-width="1.5" d="M0,-3.0v7 M-2.5,-0.5L0,-3.0L2.5,-0.5"/>
                </g>
                <g id="arrowRight" xlink:href="#dirArrow" transform="rotate(90) translate(36 -43)" onmousedown="handlePan(1,0)">
                  <use xlink:href="#rim" fill="#404040">
                        <set attributeName="fill" to="#808080" begin="arrowRight.mouseover" end="arrowRight.mouseout"/>
                  </use>
                  <path fill="none" stroke="white" stroke-width="1.5" d="M0,-3.0v7 M-2.5,-0.5L0,-3.0L2.5,-0.5"/>
                </g>
                <g id="arrowDown" xlink:href="#dirArrow" transform="rotate(180) translate(-30 -48)" onmousedown="handlePan(0,1)">
                  <use xlink:href="#rim" fill="#404040">
                        <set attributeName="fill" to="#808080" begin="arrowDown.mouseover" end="arrowDown.mouseout"/>
                  </use>
                  <path fill="none" stroke="white" stroke-width="1.5" d="M0,-3.0v7 M-2.5,-0.5L0,-3.0L2.5,-0.5"/>
                </g>
                <g id="arrowLeft" xlink:href="#dirArrow" transform="rotate(270) translate(-36 17)" onmousedown="handlePan(-1,0)">
                  <use xlink:href="#rim" fill="#404040">
                        <set attributeName="fill" to="#808080" begin="arrowLeft.mouseover" end="arrowLeft.mouseout"/>
                  </use>
                  <path fill="none" stroke="white" stroke-width="1.5" d="M0,-3.0v7 M-2.5,-0.5L0,-3.0L2.5,-0.5"/>
                </g>
        </g>
        <svg viewBox="0 0 15 15" width="100%" height="30px" preserveAspectRatio="xMaxYMin meet">
         <g id="arrow_out" transform="scale(0.3 0.3)">
          <a xlink:href="classdrain_1_1image_1_1MultiChannelWindowCore__coll__graph_org.svg" target="_base">
           <rect id="button" ry="5" rx="5" y="6" x="6" height="38" width="38"
                fill="#f2f5e9" fill-opacity="0.5" stroke="#606060" stroke-width="1.0"/>
           <path id="arrow"
             d="M 11.500037,31.436501 C 11.940474,20.09759 22.043105,11.32322 32.158766,21.979434 L 37.068811,17.246167 C 37.068811,17.246167 37.088388,32 37.088388,32 L 22.160133,31.978069 C 22.160133,31.978069 26.997745,27.140456 26.997745,27.140456 C 18.528582,18.264221 13.291696,25.230495 11.500037,31.436501 z"
             style="fill:#404040;"/>
          </a>
         </g>
        </svg>
</svg>
