<?xml version="1.0" encoding="UTF-8" standalone="no"?>
<!DOCTYPE svg PUBLIC "-//W3C//DTD SVG 1.1//EN"
 "http://www.w3.org/Graphics/SVG/1.1/DTD/svg11.dtd">
<!-- Generated by graphviz version 2.43.0 (0)
 -->
<!-- Title: CmdScript Pages: 1 -->
<svg width="1755pt" height="252pt"
 viewBox="0.00 0.00 1755.00 251.50" xmlns="http://www.w3.org/2000/svg" xmlns:xlink="http://www.w3.org/1999/xlink">
<g id="graph0" class="graph" transform="scale(1 1) rotate(0) translate(4 247.5)">
<title>CmdScript</title>
<polygon fill="white" stroke="transparent" points="-4,4 -4,-247.5 1751,-247.5 1751,4 -4,4"/>
<!-- Node1 -->
<g id="node1" class="node">
<title>Node1</title>
<g id="a_node1"><a xlink:title="Load script file and executes the commands immediately.">
<polygon fill="#bfbfbf" stroke="black" points="1680,-106 1680,-125 1747,-125 1747,-106 1680,-106"/>
<text text-anchor="middle" x="1713.5" y="-113" font-family="Helvetica,sans-Serif" font-size="10.00">CmdScript</text>
</a>
</g>
</g>
<!-- Node2 -->
<g id="node2" class="node">
<title>Node2</title>
<g id="a_node2"><a xlink:href="classdrain_1_1SimpleCommand.html" target="_top" xlink:title=" ">
<polygon fill="white" stroke="black" points="1489,-134.5 1489,-164.5 1616,-164.5 1616,-134.5 1489,-134.5"/>
<text text-anchor="start" x="1497" y="-152.5" font-family="Helvetica,sans-Serif" font-size="10.00">SimpleCommand&lt; std</text>
<text text-anchor="middle" x="1552.5" y="-141.5" font-family="Helvetica,sans-Serif" font-size="10.00">::string &gt;</text>
</a>
</g>
</g>
<!-- Node2&#45;&gt;Node1 -->
<g id="edge1" class="edge">
<title>Node2&#45;&gt;Node1</title>
<path fill="none" stroke="midnightblue" d="M1626.36,-133.92C1645.06,-129.92 1664.26,-125.81 1679.78,-122.5"/>
<polygon fill="midnightblue" stroke="midnightblue" points="1625.39,-130.55 1616.34,-136.06 1626.85,-137.39 1625.39,-130.55"/>
</g>
<!-- Node3 -->
<g id="node3" class="node">
<title>Node3</title>
<g id="a_node3"><a xlink:href="classdrain_1_1BasicCommand.html" target="_top" xlink:title="Simple implementation of Command: adds name , description and parameters .">
<polygon fill="white" stroke="black" points="1334.5,-148 1334.5,-167 1427.5,-167 1427.5,-148 1334.5,-148"/>
<text text-anchor="middle" x="1381" y="-155" font-family="Helvetica,sans-Serif" font-size="10.00">BasicCommand</text>
</a>
</g>
</g>
<!-- Node3&#45;&gt;Node2 -->
<g id="edge2" class="edge">
<title>Node3&#45;&gt;Node2</title>
<path fill="none" stroke="midnightblue" d="M1438.25,-154.85C1454.43,-154.08 1472.18,-153.24 1488.73,-152.46"/>
<polygon fill="midnightblue" stroke="midnightblue" points="1437.69,-151.37 1427.87,-155.34 1438.02,-158.36 1437.69,-151.37"/>
</g>
<!-- Node4 -->
<g id="node4" class="node">
<title>Node4</title>
<g id="a_node4"><a xlink:href="classdrain_1_1Command.html" target="_top" xlink:title="Base class for commands: typically actions taking parameters but also plain variable assignments and ...">
<polygon fill="white" stroke="black" points="1118.5,-186 1118.5,-205 1185.5,-205 1185.5,-186 1118.5,-186"/>
<text text-anchor="middle" x="1152" y="-193" font-family="Helvetica,sans-Serif" font-size="10.00">Command</text>
</a>
</g>
</g>
<!-- Node4&#45;&gt;Node3 -->
<g id="edge3" class="edge">
<title>Node4&#45;&gt;Node3</title>
<path fill="none" stroke="midnightblue" d="M1195.66,-188.5C1223.16,-183.97 1259.7,-177.92 1292,-172.5 1305.76,-170.19 1320.72,-167.65 1334.33,-165.33"/>
<polygon fill="midnightblue" stroke="midnightblue" points="1194.89,-185.08 1185.59,-190.15 1196.02,-191.98 1194.89,-185.08"/>
</g>
<!-- Node5 -->
<g id="node5" class="node">
<title>Node5</title>
<g id="a_node5"><a xlink:href="classdrain_1_1Contextual.html" target="_top" xlink:title=" ">
<polygon fill="white" stroke="black" points="946.5,-186 946.5,-205 1016.5,-205 1016.5,-186 946.5,-186"/>
<text text-anchor="middle" x="981.5" y="-193" font-family="Helvetica,sans-Serif" font-size="10.00">Contextual</text>
</a>
</g>
</g>
<!-- Node5&#45;&gt;Node4 -->
<g id="edge4" class="edge">
<title>Node5&#45;&gt;Node4</title>
<path fill="none" stroke="midnightblue" d="M1026.78,-195.5C1055.51,-195.5 1092.32,-195.5 1118.38,-195.5"/>
<polygon fill="midnightblue" stroke="midnightblue" points="1026.6,-192 1016.6,-195.5 1026.6,-199 1026.6,-192"/>
</g>
<!-- Node6 -->
<g id="node6" class="node">
<title>Node6</title>
<g id="a_node6"><a xlink:href="classdrain_1_1Context.html" target="_top" xlink:title=" ">
<polygon fill="white" stroke="black" points="708,-186 708,-205 763,-205 763,-186 708,-186"/>
<text text-anchor="middle" x="735.5" y="-193" font-family="Helvetica,sans-Serif" font-size="10.00">Context</text>
</a>
</g>
</g>
<!-- Node6&#45;&gt;Node5 -->
<g id="edge5" class="edge">
<title>Node6&#45;&gt;Node5</title>
<path fill="none" stroke="#9a32cd" stroke-dasharray="5,2" d="M773.09,-195.5C819.92,-195.5 900.43,-195.5 946.15,-195.5"/>
<polygon fill="#9a32cd" stroke="#9a32cd" points="773.08,-192 763.08,-195.5 773.08,-199 773.08,-192"/>
<text text-anchor="middle" x="865" y="-198.5" font-family="Helvetica,sans-Serif" font-size="10.00"> contextPtr</text>
</g>
<!-- Node7 -->
<g id="node7" class="node">
<title>Node7</title>
<g id="a_node7"><a xlink:href="classdrain_1_1VariableMap.html" target="_top" xlink:title="A map of Variables.">
<polygon fill="white" stroke="black" points="477,-224 477,-243 555,-243 555,-224 477,-224"/>
<text text-anchor="middle" x="516" y="-231" font-family="Helvetica,sans-Serif" font-size="10.00">VariableMap</text>
</a>
</g>
</g>
<!-- Node7&#45;&gt;Node6 -->
<g id="edge6" class="edge">
<title>Node7&#45;&gt;Node6</title>
<path fill="none" stroke="#9a32cd" stroke-dasharray="5,2" d="M565.02,-225.11C608.91,-217.44 672.22,-206.38 707.74,-200.18"/>
<polygon fill="#9a32cd" stroke="#9a32cd" points="564.38,-221.67 555.13,-226.84 565.59,-228.56 564.38,-221.67"/>
<text text-anchor="middle" x="603" y="-225.5" font-family="Helvetica,sans-Serif" font-size="10.00"> statusMap</text>
</g>
<!-- Node8 -->
<g id="node8" class="node">
<title>Node8</title>
<g id="a_node8"><a xlink:href="classdrain_1_1SmartMap.html" target="_top" xlink:title=" ">
<polygon fill="white" stroke="black" points="310,-224 310,-243 440,-243 440,-224 310,-224"/>
<text text-anchor="middle" x="375" y="-231" font-family="Helvetica,sans-Serif" font-size="10.00">SmartMap&lt; Variable &gt;</text>
</a>
</g>
</g>
<!-- Node8&#45;&gt;Node7 -->
<g id="edge7" class="edge">
<title>Node8&#45;&gt;Node7</title>
<path fill="none" stroke="midnightblue" d="M450.5,-233.5C459.6,-233.5 468.58,-233.5 476.82,-233.5"/>
<polygon fill="midnightblue" stroke="midnightblue" points="450.21,-230 440.21,-233.5 450.21,-237 450.21,-230"/>
</g>
<!-- Node9 -->
<g id="node9" class="node">
<title>Node9</title>
<g id="a_node9"><a xlink:title=" ">
<polygon fill="white" stroke="#bfbfbf" points="117,-224 117,-243 273,-243 273,-224 117,-224"/>
<text text-anchor="middle" x="195" y="-231" font-family="Helvetica,sans-Serif" font-size="10.00">map&lt; std::string, Variable &gt;</text>
</a>
</g>
</g>
<!-- Node9&#45;&gt;Node8 -->
<g id="edge8" class="edge">
<title>Node9&#45;&gt;Node8</title>
<path fill="none" stroke="midnightblue" d="M283.18,-233.5C292.2,-233.5 301.24,-233.5 309.93,-233.5"/>
<polygon fill="midnightblue" stroke="midnightblue" points="283.04,-230 273.04,-233.5 283.04,-237 283.04,-230"/>
</g>
<!-- Node10 -->
<g id="node10" class="node">
<title>Node10</title>
<g id="a_node10"><a xlink:href="classdrain_1_1Log.html" target="_top" xlink:title="Handler for notifications sent by a Logger.">
<polygon fill="white" stroke="black" points="499,-186 499,-205 533,-205 533,-186 499,-186"/>
<text text-anchor="middle" x="516" y="-193" font-family="Helvetica,sans-Serif" font-size="10.00">Log</text>
</a>
</g>
</g>
<!-- Node10&#45;&gt;Node6 -->
<g id="edge9" class="edge">
<title>Node10&#45;&gt;Node6</title>
<path fill="none" stroke="#9a32cd" stroke-dasharray="5,2" d="M543.55,-195.5C585.29,-195.5 665.79,-195.5 707.69,-195.5"/>
<polygon fill="#9a32cd" stroke="#9a32cd" points="543.35,-192 533.35,-195.5 543.35,-199 543.35,-192"/>
<text text-anchor="middle" x="603" y="-198.5" font-family="Helvetica,sans-Serif" font-size="10.00"> log</text>
</g>
<!-- Node11 -->
<g id="node11" class="node">
<title>Node11</title>
<g id="a_node11"><a xlink:href="classdrain_1_1StatusFlags.html" target="_top" xlink:title=" ">
<polygon fill="white" stroke="black" points="479,-148 479,-167 553,-167 553,-148 479,-148"/>
<text text-anchor="middle" x="516" y="-155" font-family="Helvetica,sans-Serif" font-size="10.00">StatusFlags</text>
</a>
</g>
</g>
<!-- Node11&#45;&gt;Node6 -->
<g id="edge10" class="edge">
<title>Node11&#45;&gt;Node6</title>
<path fill="none" stroke="#9a32cd" stroke-dasharray="5,2" d="M563.29,-165.59C607.31,-173.28 671.98,-184.58 707.93,-190.86"/>
<polygon fill="#9a32cd" stroke="#9a32cd" points="563.86,-162.13 553.4,-163.86 562.65,-169.03 563.86,-162.13"/>
<text text-anchor="middle" x="603" y="-180.5" font-family="Helvetica,sans-Serif" font-size="10.00"> statusFlags</text>
</g>
<!-- Node12 -->
<g id="node12" class="node">
<title>Node12</title>
<g id="a_node12"><a xlink:href="classdrain_1_1GlobalFlags.html" target="_top" xlink:title=" ">
<polygon fill="white" stroke="black" points="317,-142.5 317,-172.5 433,-172.5 433,-142.5 317,-142.5"/>
<text text-anchor="start" x="325" y="-160.5" font-family="Helvetica,sans-Serif" font-size="10.00">GlobalFlags&lt; status</text>
<text text-anchor="middle" x="375" y="-149.5" font-family="Helvetica,sans-Serif" font-size="10.00">_flag_id &gt;</text>
</a>
</g>
</g>
<!-- Node12&#45;&gt;Node11 -->
<g id="edge11" class="edge">
<title>Node12&#45;&gt;Node11</title>
<path fill="none" stroke="midnightblue" d="M443.53,-157.5C455.73,-157.5 468.01,-157.5 478.87,-157.5"/>
<polygon fill="midnightblue" stroke="midnightblue" points="443.34,-154 433.34,-157.5 443.34,-161 443.34,-154"/>
</g>
<!-- Node13 -->
<g id="node13" class="node">
<title>Node13</title>
<g id="a_node13"><a xlink:href="classdrain_1_1Flagger.html" target="_top" xlink:title="Bit vector accessible also with integer values associated with strings.">
<polygon fill="white" stroke="black" points="168.5,-148 168.5,-167 221.5,-167 221.5,-148 168.5,-148"/>
<text text-anchor="middle" x="195" y="-155" font-family="Helvetica,sans-Serif" font-size="10.00">Flagger</text>
</a>
</g>
</g>
<!-- Node13&#45;&gt;Node12 -->
<g id="edge12" class="edge">
<title>Node13&#45;&gt;Node12</title>
<path fill="none" stroke="midnightblue" d="M231.74,-157.5C256.13,-157.5 288.97,-157.5 316.96,-157.5"/>
<polygon fill="midnightblue" stroke="midnightblue" points="231.5,-154 221.5,-157.5 231.5,-161 231.5,-154"/>
</g>
<!-- Node14 -->
<g id="node14" class="node">
<title>Node14</title>
<g id="a_node14"><a xlink:href="classdrain_1_1FlagResolver.html" target="_top" xlink:title="Referencing a dictionary of binary values: {&quot;A&quot;,1: &quot;B&quot;:2, &quot;C&quot;: 4, &quot;D&quot;: 8, ...} resolves two&#45;way mappi...">
<polygon fill="white" stroke="black" points="0,-148 0,-167 80,-167 80,-148 0,-148"/>
<text text-anchor="middle" x="40" y="-155" font-family="Helvetica,sans-Serif" font-size="10.00">FlagResolver</text>
</a>
</g>
</g>
<!-- Node14&#45;&gt;Node13 -->
<g id="edge13" class="edge">
<title>Node14&#45;&gt;Node13</title>
<path fill="none" stroke="midnightblue" d="M90.04,-157.5C115.97,-157.5 146.74,-157.5 168.05,-157.5"/>
<polygon fill="midnightblue" stroke="midnightblue" points="90,-154 80,-157.5 90,-161 90,-154"/>
</g>
<!-- Node15 -->
<g id="node15" class="node">
<title>Node15</title>
<g id="a_node15"><a xlink:href="classdrain_1_1ReferenceMap.html" target="_top" xlink:title=" ">
<polygon fill="white" stroke="black" points="1108.5,-148 1108.5,-167 1195.5,-167 1195.5,-148 1108.5,-148"/>
<text text-anchor="middle" x="1152" y="-155" font-family="Helvetica,sans-Serif" font-size="10.00">ReferenceMap</text>
</a>
</g>
</g>
<!-- Node15&#45;&gt;Node3 -->
<g id="edge14" class="edge">
<title>Node15&#45;&gt;Node3</title>
<path fill="none" stroke="#9a32cd" stroke-dasharray="5,2" d="M1205.8,-157.5C1244.76,-157.5 1297.23,-157.5 1334.38,-157.5"/>
<polygon fill="#9a32cd" stroke="#9a32cd" points="1205.7,-154 1195.7,-157.5 1205.7,-161 1205.7,-154"/>
<text text-anchor="middle" x="1262" y="-160.5" font-family="Helvetica,sans-Serif" font-size="10.00"> parameters</text>
</g>
<!-- Node16 -->
<g id="node16" class="node">
<title>Node16</title>
<g id="a_node16"><a xlink:href="classdrain_1_1SmartMap.html" target="_top" xlink:title=" ">
<polygon fill="white" stroke="black" points="910,-148 910,-167 1053,-167 1053,-148 910,-148"/>
<text text-anchor="middle" x="981.5" y="-155" font-family="Helvetica,sans-Serif" font-size="10.00">SmartMap&lt; Referencer &gt;</text>
</a>
</g>
</g>
<!-- Node16&#45;&gt;Node15 -->
<g id="edge15" class="edge">
<title>Node16&#45;&gt;Node15</title>
<path fill="none" stroke="midnightblue" d="M1063.62,-157.5C1079.13,-157.5 1094.78,-157.5 1108.47,-157.5"/>
<polygon fill="midnightblue" stroke="midnightblue" points="1063.47,-154 1053.47,-157.5 1063.47,-161 1063.47,-154"/>
</g>
<!-- Node17 -->
<g id="node17" class="node">
<title>Node17</title>
<g id="a_node17"><a xlink:title=" ">
<polygon fill="white" stroke="#bfbfbf" points="651,-148 651,-167 820,-167 820,-148 651,-148"/>
<text text-anchor="middle" x="735.5" y="-155" font-family="Helvetica,sans-Serif" font-size="10.00">map&lt; std::string, Referencer &gt;</text>
</a>
</g>
</g>
<!-- Node17&#45;&gt;Node16 -->
<g id="edge16" class="edge">
<title>Node17&#45;&gt;Node16</title>
<path fill="none" stroke="midnightblue" d="M830.18,-157.5C856.69,-157.5 885.08,-157.5 909.97,-157.5"/>
<polygon fill="midnightblue" stroke="midnightblue" points="830.13,-154 820.13,-157.5 830.13,-161 830.13,-154"/>
</g>
<!-- Node18 -->
<g id="node18" class="node">
<title>Node18</title>
<g id="a_node18"><a xlink:href="classdrain_1_1CommandBank.html" target="_top" xlink:title="Container and execution tools for commands derived from Command.">
<polygon fill="white" stroke="black" points="1506.5,-84 1506.5,-103 1598.5,-103 1598.5,-84 1506.5,-84"/>
<text text-anchor="middle" x="1552.5" y="-91" font-family="Helvetica,sans-Serif" font-size="10.00">CommandBank</text>
</a>
</g>
</g>
<!-- Node18&#45;&gt;Node1 -->
<g id="edge17" class="edge">
<title>Node18&#45;&gt;Node1</title>
<path fill="none" stroke="#9a32cd" stroke-dasharray="5,2" d="M1609.01,-100.35C1626.03,-102.53 1644.8,-105.03 1662,-107.5 1667.8,-108.33 1673.96,-109.27 1679.92,-110.2"/>
<polygon fill="#9a32cd" stroke="#9a32cd" points="1609.04,-96.83 1598.67,-99.03 1608.15,-103.77 1609.04,-96.83"/>
<text text-anchor="middle" x="1648" y="-110.5" font-family="Helvetica,sans-Serif" font-size="10.00"> bank</text>
</g>
<!-- Node19 -->
<g id="node19" class="node">
<title>Node19</title>
<g id="a_node19"><a xlink:href="classdrain_1_1BankSuper.html" target="_top" xlink:title=" ">
<polygon fill="white" stroke="black" points="1310,-59 1310,-78 1452,-78 1452,-59 1310,-59"/>
<text text-anchor="middle" x="1381" y="-66" font-family="Helvetica,sans-Serif" font-size="10.00">BankSuper&lt; Command &gt;</text>
</a>
</g>
</g>
<!-- Node19&#45;&gt;Node18 -->
<g id="edge18" class="edge">
<title>Node19&#45;&gt;Node18</title>
<path fill="none" stroke="midnightblue" d="M1456.48,-79.49C1473.46,-81.99 1491.01,-84.58 1506.32,-86.84"/>
<polygon fill="midnightblue" stroke="midnightblue" points="1456.97,-76.02 1446.56,-78.02 1455.95,-82.94 1456.97,-76.02"/>
</g>
<!-- Node20 -->
<g id="node20" class="node">
<title>Node20</title>
<g id="a_node20"><a xlink:href="classdrain_1_1Bank.html" target="_top" xlink:title=" ">
<polygon fill="white" stroke="black" points="1090,-98.5 1090,-128.5 1214,-128.5 1214,-98.5 1090,-98.5"/>
<text text-anchor="start" x="1098" y="-116.5" font-family="Helvetica,sans-Serif" font-size="10.00">Bank&lt; Command, std</text>
<text text-anchor="middle" x="1152" y="-105.5" font-family="Helvetica,sans-Serif" font-size="10.00">::string &gt;</text>
</a>
</g>
</g>
<!-- Node20&#45;&gt;Node19 -->
<g id="edge19" class="edge">
<title>Node20&#45;&gt;Node19</title>
<path fill="none" stroke="midnightblue" d="M1224.33,-99.36C1259.43,-92.4 1300.81,-84.2 1332.07,-78"/>
<polygon fill="midnightblue" stroke="midnightblue" points="1223.26,-96 1214.13,-101.38 1224.62,-102.87 1223.26,-96"/>
</g>
<!-- Node21 -->
<g id="node21" class="node">
<title>Node21</title>
<g id="a_node21"><a xlink:title=" ">
<polygon fill="white" stroke="#bfbfbf" points="913.5,-98.5 913.5,-128.5 1049.5,-128.5 1049.5,-98.5 913.5,-98.5"/>
<text text-anchor="start" x="921.5" y="-116.5" font-family="Helvetica,sans-Serif" font-size="10.00">map&lt; std::string, Cloner</text>
<text text-anchor="middle" x="981.5" y="-105.5" font-family="Helvetica,sans-Serif" font-size="10.00">Base&lt; Command &gt; * &gt;</text>
</a>
</g>
</g>
<!-- Node21&#45;&gt;Node20 -->
<g id="edge20" class="edge">
<title>Node21&#45;&gt;Node20</title>
<path fill="none" stroke="darkgreen" d="M1059.65,-113.5C1069.79,-113.5 1080.07,-113.5 1089.89,-113.5"/>
<polygon fill="darkgreen" stroke="darkgreen" points="1059.58,-110 1049.58,-113.5 1059.58,-117 1059.58,-110"/>
</g>
<!-- Node22 -->
<g id="node22" class="node">
<title>Node22</title>
<g id="a_node22"><a xlink:href="classdrain_1_1Dictionary2.html" target="_top" xlink:title=" ">
<polygon fill="white" stroke="black" points="1098,-49.5 1098,-79.5 1206,-79.5 1206,-49.5 1098,-49.5"/>
<text text-anchor="start" x="1106" y="-67.5" font-family="Helvetica,sans-Serif" font-size="10.00">Dictionary2&lt; char,</text>
<text text-anchor="middle" x="1152" y="-56.5" font-family="Helvetica,sans-Serif" font-size="10.00"> std::string &gt;</text>
</a>
</g>
</g>
<!-- Node22&#45;&gt;Node19 -->
<g id="edge21" class="edge">
<title>Node22&#45;&gt;Node19</title>
<path fill="none" stroke="#9a32cd" stroke-dasharray="5,2" d="M1216.27,-65.61C1245.38,-66.13 1280.01,-66.74 1309.91,-67.26"/>
<polygon fill="#9a32cd" stroke="#9a32cd" points="1216.28,-62.11 1206.22,-65.44 1216.16,-69.11 1216.28,-62.11"/>
<text text-anchor="middle" x="1262" y="-69.5" font-family="Helvetica,sans-Serif" font-size="10.00"> briefKeys</text>
</g>
<!-- Node23 -->
<g id="node23" class="node">
<title>Node23</title>
<g id="a_node23"><a xlink:title=" ">
<polygon fill="white" stroke="#bfbfbf" points="922.5,-49.5 922.5,-79.5 1040.5,-79.5 1040.5,-49.5 922.5,-49.5"/>
<text text-anchor="start" x="930.5" y="-67.5" font-family="Helvetica,sans-Serif" font-size="10.00">list&lt; std::pair&lt; char,</text>
<text text-anchor="middle" x="981.5" y="-56.5" font-family="Helvetica,sans-Serif" font-size="10.00"> std::string &gt; &gt;</text>
</a>
</g>
</g>
<!-- Node23&#45;&gt;Node22 -->
<g id="edge22" class="edge">
<title>Node23&#45;&gt;Node22</title>
<path fill="none" stroke="midnightblue" d="M1051.05,-64.5C1066.61,-64.5 1082.91,-64.5 1097.72,-64.5"/>
<polygon fill="midnightblue" stroke="midnightblue" points="1050.96,-61 1040.96,-64.5 1050.96,-68 1050.96,-61"/>
</g>
<!-- Node24 -->
<g id="node24" class="node">
<title>Node24</title>
<g id="a_node24"><a xlink:href="classdrain_1_1Dictionary2.html" target="_top" xlink:title=" ">
<polygon fill="white" stroke="black" points="1095.5,-0.5 1095.5,-30.5 1208.5,-30.5 1208.5,-0.5 1095.5,-0.5"/>
<text text-anchor="start" x="1103.5" y="-18.5" font-family="Helvetica,sans-Serif" font-size="10.00">Dictionary2&lt; key_t,</text>
<text text-anchor="middle" x="1152" y="-7.5" font-family="Helvetica,sans-Serif" font-size="10.00"> value_t &gt;</text>
</a>
</g>
</g>
<!-- Node24&#45;&gt;Node19 -->
<g id="edge23" class="edge">
<title>Node24&#45;&gt;Node19</title>
<path fill="none" stroke="#9a32cd" stroke-dasharray="5,2" d="M1218.73,-30.85C1257.67,-39.94 1305.79,-51.17 1339.28,-58.99"/>
<polygon fill="#9a32cd" stroke="#9a32cd" points="1219.06,-27.33 1208.53,-28.47 1217.47,-34.15 1219.06,-27.33"/>
<text text-anchor="middle" x="1262" y="-49.5" font-family="Helvetica,sans-Serif" font-size="10.00"> sections</text>
</g>
<!-- Node25 -->
<g id="node25" class="node">
<title>Node25</title>
<g id="a_node25"><a xlink:title=" ">
<polygon fill="white" stroke="#bfbfbf" points="926,-0.5 926,-30.5 1037,-30.5 1037,-0.5 926,-0.5"/>
<text text-anchor="start" x="934" y="-18.5" font-family="Helvetica,sans-Serif" font-size="10.00">list&lt; std::pair&lt; key</text>
<text text-anchor="middle" x="981.5" y="-7.5" font-family="Helvetica,sans-Serif" font-size="10.00">_t , value_t &gt; &gt;</text>
</a>
</g>
</g>
<!-- Node25&#45;&gt;Node24 -->
<g id="edge24" class="edge">
<title>Node25&#45;&gt;Node24</title>
<path fill="none" stroke="midnightblue" d="M1047.45,-15.5C1063.27,-15.5 1080.06,-15.5 1095.41,-15.5"/>
<polygon fill="midnightblue" stroke="midnightblue" points="1047.21,-12 1037.21,-15.5 1047.21,-19 1047.21,-12"/>
</g>
</g>
</svg>
