<?xml version="1.0" encoding="UTF-8" standalone="no"?>
<!DOCTYPE svg PUBLIC "-//W3C//DTD SVG 1.1//EN"
 "http://www.w3.org/Graphics/SVG/1.1/DTD/svg11.dtd">
<!-- Generated by graphviz version 2.43.0 (0)
 -->
<!-- Title: ReferenceMap Pages: 1 -->
<svg width="1191pt" height="271pt"
 viewBox="0.00 0.00 1191.00 270.50" xmlns="http://www.w3.org/2000/svg" xmlns:xlink="http://www.w3.org/1999/xlink">
<g id="graph0" class="graph" transform="scale(1 1) rotate(0) translate(4 266.5)">
<title>ReferenceMap</title>
<polygon fill="white" stroke="transparent" points="-4,4 -4,-266.5 1187,-266.5 1187,4 -4,4"/>
<!-- Node1 -->
<g id="node1" class="node">
<title>Node1</title>
<g id="a_node1"><a xlink:title=" ">
<polygon fill="#bfbfbf" stroke="black" points="384,-126 384,-145 471,-145 471,-126 384,-126"/>
<text text-anchor="middle" x="427.5" y="-133" font-family="Helvetica,sans-Serif" font-size="10.00">ReferenceMap</text>
</a>
</g>
</g>
<!-- Node4 -->
<g id="node4" class="node">
<title>Node4</title>
<g id="a_node4"><a xlink:href="classdrain_1_1image_1_1SegmentProberConf.html" target="_top" xlink:title="Container for parameters of SegmentProber.">
<polygon fill="white" stroke="black" points="507,-224.5 507,-254.5 629,-254.5 629,-224.5 507,-224.5"/>
<text text-anchor="start" x="515" y="-242.5" font-family="Helvetica,sans-Serif" font-size="10.00">SegmentProberConf&lt;</text>
<text text-anchor="middle" x="568" y="-231.5" font-family="Helvetica,sans-Serif" font-size="10.00"> S, D &gt;</text>
</a>
</g>
</g>
<!-- Node1&#45;&gt;Node4 -->
<g id="edge3" class="edge">
<title>Node1&#45;&gt;Node4</title>
<path fill="none" stroke="midnightblue" d="M442.31,-152.99C456.87,-170.47 481.21,-197.17 507,-214.5 512.53,-218.21 518.69,-221.54 524.91,-224.47"/>
<polygon fill="midnightblue" stroke="midnightblue" points="445.02,-150.77 435.99,-145.23 439.6,-155.19 445.02,-150.77"/>
</g>
<!-- Node5 -->
<g id="node5" class="node">
<title>Node5</title>
<g id="a_node5"><a xlink:href="classdrain_1_1NodeXML.html" target="_top" xlink:title=" ">
<polygon fill="white" stroke="black" points="536.5,-186 536.5,-205 599.5,-205 599.5,-186 536.5,-186"/>
<text text-anchor="middle" x="568" y="-193" font-family="Helvetica,sans-Serif" font-size="10.00">NodeXML</text>
</a>
</g>
</g>
<!-- Node1&#45;&gt;Node5 -->
<g id="edge4" class="edge">
<title>Node1&#45;&gt;Node5</title>
<path fill="none" stroke="darkgreen" d="M453.7,-150.1C468.84,-158.5 488.66,-168.87 507,-176.5 516.38,-180.4 526.87,-183.98 536.41,-186.95"/>
<polygon fill="darkgreen" stroke="darkgreen" points="455.37,-147.02 444.94,-145.17 451.93,-153.12 455.37,-147.02"/>
</g>
<!-- Node9 -->
<g id="node9" class="node">
<title>Node9</title>
<g id="a_node9"><a xlink:href="classrack_1_1EncodingODIM.html" target="_top" xlink:title="Structure for data storage type, scaling and marker codes. Does not contain quantity.">
<polygon fill="white" stroke="black" points="524,-148 524,-167 612,-167 612,-148 524,-148"/>
<text text-anchor="middle" x="568" y="-155" font-family="Helvetica,sans-Serif" font-size="10.00">EncodingODIM</text>
</a>
</g>
</g>
<!-- Node1&#45;&gt;Node9 -->
<g id="edge8" class="edge">
<title>Node1&#45;&gt;Node9</title>
<path fill="none" stroke="midnightblue" d="M481.21,-143.87C495.25,-146.1 510.26,-148.49 523.74,-150.63"/>
<polygon fill="midnightblue" stroke="midnightblue" points="481.61,-140.39 471.18,-142.28 480.51,-147.31 481.61,-140.39"/>
</g>
<!-- Node18 -->
<g id="node18" class="node">
<title>Node18</title>
<g id="a_node18"><a xlink:href="classdrain_1_1image_1_1SegmentProberConf.html" target="_top" xlink:title=" ">
<polygon fill="white" stroke="black" points="507,-98.5 507,-128.5 629,-128.5 629,-98.5 507,-98.5"/>
<text text-anchor="start" x="515" y="-116.5" font-family="Helvetica,sans-Serif" font-size="10.00">SegmentProberConf&lt;</text>
<text text-anchor="middle" x="568" y="-105.5" font-family="Helvetica,sans-Serif" font-size="10.00"> double, double &gt;</text>
</a>
</g>
</g>
<!-- Node1&#45;&gt;Node18 -->
<g id="edge17" class="edge">
<title>Node1&#45;&gt;Node18</title>
<path fill="none" stroke="midnightblue" d="M481.21,-127.13C489.61,-125.79 498.34,-124.41 506.89,-123.05"/>
<polygon fill="midnightblue" stroke="midnightblue" points="480.51,-123.69 471.18,-128.72 481.61,-130.61 480.51,-123.69"/>
</g>
<!-- Node19 -->
<g id="node19" class="node">
<title>Node19</title>
<g id="a_node19"><a xlink:href="classdrain_1_1image_1_1SegmentProberConf.html" target="_top" xlink:title=" ">
<polygon fill="white" stroke="black" points="507,-49.5 507,-79.5 629,-79.5 629,-49.5 507,-49.5"/>
<text text-anchor="start" x="515" y="-67.5" font-family="Helvetica,sans-Serif" font-size="10.00">SegmentProberConf&lt;</text>
<text text-anchor="middle" x="568" y="-56.5" font-family="Helvetica,sans-Serif" font-size="10.00"> int, int &gt;</text>
</a>
</g>
</g>
<!-- Node1&#45;&gt;Node19 -->
<g id="edge18" class="edge">
<title>Node1&#45;&gt;Node19</title>
<path fill="none" stroke="midnightblue" d="M451.66,-120.3C467.01,-110.57 487.79,-98.02 507,-88.5 513.33,-85.36 520.18,-82.32 526.91,-79.5"/>
<polygon fill="midnightblue" stroke="midnightblue" points="449.39,-117.6 442.87,-125.95 453.17,-123.49 449.39,-117.6"/>
</g>
<!-- Node20 -->
<g id="node20" class="node">
<title>Node20</title>
<g id="a_node20"><a xlink:href="classdrain_1_1image_1_1SegmentProberConf.html" target="_top" xlink:title=" ">
<polygon fill="white" stroke="black" points="507,-0.5 507,-30.5 629,-30.5 629,-0.5 507,-0.5"/>
<text text-anchor="start" x="515" y="-18.5" font-family="Helvetica,sans-Serif" font-size="10.00">SegmentProberConf&lt;</text>
<text text-anchor="middle" x="568" y="-7.5" font-family="Helvetica,sans-Serif" font-size="10.00"> T, D &gt;</text>
</a>
</g>
</g>
<!-- Node1&#45;&gt;Node20 -->
<g id="edge19" class="edge">
<title>Node1&#45;&gt;Node20</title>
<path fill="none" stroke="midnightblue" d="M439.35,-117.27C452.82,-96.01 477.65,-61.03 507,-39.5 511.61,-36.12 516.77,-33.13 522.07,-30.51"/>
<polygon fill="midnightblue" stroke="midnightblue" points="436.25,-115.63 433.98,-125.98 442.21,-119.3 436.25,-115.63"/>
</g>
<!-- Node2 -->
<g id="node2" class="node">
<title>Node2</title>
<g id="a_node2"><a xlink:href="classdrain_1_1SmartMap.html" target="_top" xlink:title=" ">
<polygon fill="white" stroke="black" points="205,-126 205,-145 348,-145 348,-126 205,-126"/>
<text text-anchor="middle" x="276.5" y="-133" font-family="Helvetica,sans-Serif" font-size="10.00">SmartMap&lt; Referencer &gt;</text>
</a>
</g>
</g>
<!-- Node2&#45;&gt;Node1 -->
<g id="edge1" class="edge">
<title>Node2&#45;&gt;Node1</title>
<path fill="none" stroke="midnightblue" d="M358.07,-135.5C366.91,-135.5 375.64,-135.5 383.74,-135.5"/>
<polygon fill="midnightblue" stroke="midnightblue" points="358.07,-132 348.07,-135.5 358.07,-139 358.07,-132"/>
</g>
<!-- Node3 -->
<g id="node3" class="node">
<title>Node3</title>
<g id="a_node3"><a xlink:title=" ">
<polygon fill="white" stroke="#bfbfbf" points="0,-126 0,-145 169,-145 169,-126 0,-126"/>
<text text-anchor="middle" x="84.5" y="-133" font-family="Helvetica,sans-Serif" font-size="10.00">map&lt; std::string, Referencer &gt;</text>
</a>
</g>
</g>
<!-- Node3&#45;&gt;Node2 -->
<g id="edge2" class="edge">
<title>Node3&#45;&gt;Node2</title>
<path fill="none" stroke="midnightblue" d="M179.23,-135.5C187.88,-135.5 196.53,-135.5 204.92,-135.5"/>
<polygon fill="midnightblue" stroke="midnightblue" points="179.11,-132 169.11,-135.5 179.11,-139 179.11,-132"/>
</g>
<!-- Node6 -->
<g id="node6" class="node">
<title>Node6</title>
<g id="a_node6"><a xlink:href="classdrain_1_1image_1_1NodeSVG.html" target="_top" xlink:title=" ">
<polygon fill="white" stroke="black" points="669,-243 669,-262 731,-262 731,-243 669,-243"/>
<text text-anchor="middle" x="700" y="-250" font-family="Helvetica,sans-Serif" font-size="10.00">NodeSVG</text>
</a>
</g>
</g>
<!-- Node5&#45;&gt;Node6 -->
<g id="edge5" class="edge">
<title>Node5&#45;&gt;Node6</title>
<path fill="none" stroke="midnightblue" d="M609.21,-207.88C615.89,-210.23 622.69,-212.8 629,-215.5 639.24,-219.88 664.55,-233.53 681.76,-242.97"/>
<polygon fill="midnightblue" stroke="midnightblue" points="610.17,-204.52 599.58,-204.62 607.92,-211.14 610.17,-204.52"/>
</g>
<!-- Node7 -->
<g id="node7" class="node">
<title>Node7</title>
<g id="a_node7"><a xlink:href="classNodeHTML.html" target="_top" xlink:title=" ">
<polygon fill="white" stroke="black" points="665,-205 665,-224 735,-224 735,-205 665,-205"/>
<text text-anchor="middle" x="700" y="-212" font-family="Helvetica,sans-Serif" font-size="10.00">NodeHTML</text>
</a>
</g>
</g>
<!-- Node5&#45;&gt;Node7 -->
<g id="edge6" class="edge">
<title>Node5&#45;&gt;Node7</title>
<path fill="none" stroke="midnightblue" d="M609.83,-201.47C627.48,-204.05 647.91,-207.03 664.75,-209.49"/>
<polygon fill="midnightblue" stroke="midnightblue" points="610.21,-197.99 599.81,-200 609.2,-204.91 610.21,-197.99"/>
</g>
<!-- Node8 -->
<g id="node8" class="node">
<title>Node8</title>
<g id="a_node8"><a xlink:href="classrack_1_1NodeGDAL.html" target="_top" xlink:title=" ">
<polygon fill="white" stroke="black" points="665.5,-167 665.5,-186 734.5,-186 734.5,-167 665.5,-167"/>
<text text-anchor="middle" x="700" y="-174" font-family="Helvetica,sans-Serif" font-size="10.00">NodeGDAL</text>
</a>
</g>
</g>
<!-- Node5&#45;&gt;Node8 -->
<g id="edge7" class="edge">
<title>Node5&#45;&gt;Node8</title>
<path fill="none" stroke="midnightblue" d="M609.91,-189.52C627.71,-186.92 648.31,-183.91 665.22,-181.44"/>
<polygon fill="midnightblue" stroke="midnightblue" points="609.2,-186.09 599.81,-191 610.21,-193.01 609.2,-186.09"/>
</g>
<!-- Node10 -->
<g id="node10" class="node">
<title>Node10</title>
<g id="a_node10"><a xlink:href="classrack_1_1ODIM.html" target="_top" xlink:title="ODIM metadata (quantity, gain, offset, undetect, nodata, date, time)">
<polygon fill="white" stroke="black" points="678,-129 678,-148 722,-148 722,-129 678,-129"/>
<text text-anchor="middle" x="700" y="-136" font-family="Helvetica,sans-Serif" font-size="10.00">ODIM</text>
</a>
</g>
</g>
<!-- Node9&#45;&gt;Node10 -->
<g id="edge9" class="edge">
<title>Node9&#45;&gt;Node10</title>
<path fill="none" stroke="midnightblue" d="M622.3,-149.71C641.77,-146.86 662.69,-143.81 677.75,-141.61"/>
<polygon fill="midnightblue" stroke="midnightblue" points="621.68,-146.26 612.29,-151.17 622.69,-153.19 621.68,-146.26"/>
</g>
<!-- Node11 -->
<g id="node11" class="node">
<title>Node11</title>
<g id="a_node11"><a xlink:href="classrack_1_1CartesianODIM.html" target="_top" xlink:title="Metadata structure for Cartesian radar data products (single&#45;radar or composites).">
<polygon fill="white" stroke="black" points="798,-167 798,-186 888,-186 888,-167 798,-167"/>
<text text-anchor="middle" x="843" y="-174" font-family="Helvetica,sans-Serif" font-size="10.00">CartesianODIM</text>
</a>
</g>
</g>
<!-- Node10&#45;&gt;Node11 -->
<g id="edge10" class="edge">
<title>Node10&#45;&gt;Node11</title>
<path fill="none" stroke="midnightblue" d="M731.84,-146.9C744.04,-150.21 758.18,-154.04 771,-157.5 782.46,-160.59 794.96,-163.94 806.24,-166.96"/>
<polygon fill="midnightblue" stroke="midnightblue" points="732.7,-143.5 722.13,-144.26 730.86,-150.26 732.7,-143.5"/>
</g>
<!-- Node12 -->
<g id="node12" class="node">
<title>Node12</title>
<g id="a_node12"><a xlink:href="classrack_1_1PolarODIM.html" target="_top" xlink:title="Metadata structure for single&#45;radar data (polar scans, volumes and products).">
<polygon fill="white" stroke="black" points="809,-129 809,-148 877,-148 877,-129 809,-129"/>
<text text-anchor="middle" x="843" y="-136" font-family="Helvetica,sans-Serif" font-size="10.00">PolarODIM</text>
</a>
</g>
</g>
<!-- Node10&#45;&gt;Node12 -->
<g id="edge11" class="edge">
<title>Node10&#45;&gt;Node12</title>
<path fill="none" stroke="midnightblue" d="M732.26,-138.5C755.01,-138.5 785.78,-138.5 808.94,-138.5"/>
<polygon fill="midnightblue" stroke="midnightblue" points="732.11,-135 722.11,-138.5 732.11,-142 732.11,-135"/>
</g>
<!-- Node15 -->
<g id="node15" class="node">
<title>Node15</title>
<g id="a_node15"><a xlink:href="classrack_1_1VerticalCrossSectionODIM.html" target="_top" xlink:title=" ">
<polygon fill="white" stroke="black" points="771,-91 771,-110 915,-110 915,-91 771,-91"/>
<text text-anchor="middle" x="843" y="-98" font-family="Helvetica,sans-Serif" font-size="10.00">VerticalCrossSectionODIM</text>
</a>
</g>
</g>
<!-- Node10&#45;&gt;Node15 -->
<g id="edge14" class="edge">
<title>Node10&#45;&gt;Node15</title>
<path fill="none" stroke="midnightblue" d="M731.84,-130.1C744.04,-126.79 758.18,-122.96 771,-119.5 782.46,-116.41 794.96,-113.06 806.24,-110.04"/>
<polygon fill="midnightblue" stroke="midnightblue" points="730.86,-126.74 722.13,-132.74 732.7,-133.5 730.86,-126.74"/>
</g>
<!-- Node13 -->
<g id="node13" class="node">
<title>Node13</title>
<g id="a_node13"><a xlink:href="classrack_1_1EncodingBag.html" target="_top" xlink:title="Consider long names, and then addShortKeys()">
<polygon fill="white" stroke="black" points="967.5,-129 967.5,-148 1047.5,-148 1047.5,-129 967.5,-129"/>
<text text-anchor="middle" x="1007.5" y="-136" font-family="Helvetica,sans-Serif" font-size="10.00">EncodingBag</text>
</a>
</g>
</g>
<!-- Node12&#45;&gt;Node13 -->
<g id="edge12" class="edge">
<title>Node12&#45;&gt;Node13</title>
<path fill="none" stroke="midnightblue" d="M887.51,-138.5C912.32,-138.5 943.18,-138.5 967.26,-138.5"/>
<polygon fill="midnightblue" stroke="midnightblue" points="887.28,-135 877.28,-138.5 887.28,-142 887.28,-135"/>
</g>
<!-- Node14 -->
<g id="node14" class="node">
<title>Node14</title>
<g id="a_node14"><a xlink:href="classrack_1_1CmdEncoding.html" target="_top" xlink:title="Facility for validating and storing desired technical (non&#45;meteorological) user parameters.">
<polygon fill="white" stroke="black" points="1100,-129 1100,-148 1183,-148 1183,-129 1100,-129"/>
<text text-anchor="middle" x="1141.5" y="-136" font-family="Helvetica,sans-Serif" font-size="10.00">CmdEncoding</text>
</a>
</g>
</g>
<!-- Node13&#45;&gt;Node14 -->
<g id="edge13" class="edge">
<title>Node13&#45;&gt;Node14</title>
<path fill="none" stroke="darkgreen" d="M1058.04,-138.5C1071.81,-138.5 1086.6,-138.5 1099.8,-138.5"/>
<polygon fill="darkgreen" stroke="darkgreen" points="1057.75,-135 1047.75,-138.5 1057.75,-142 1057.75,-135"/>
</g>
<!-- Node16 -->
<g id="node16" class="node">
<title>Node16</title>
<g id="a_node16"><a xlink:href="classrack_1_1RhiODIM.html" target="_top" xlink:title=" ">
<polygon fill="white" stroke="black" points="978,-91 978,-110 1037,-110 1037,-91 978,-91"/>
<text text-anchor="middle" x="1007.5" y="-98" font-family="Helvetica,sans-Serif" font-size="10.00">RhiODIM</text>
</a>
</g>
</g>
<!-- Node15&#45;&gt;Node16 -->
<g id="edge15" class="edge">
<title>Node15&#45;&gt;Node16</title>
<path fill="none" stroke="midnightblue" d="M925.38,-100.5C944.15,-100.5 962.92,-100.5 977.67,-100.5"/>
<polygon fill="midnightblue" stroke="midnightblue" points="925.27,-97 915.27,-100.5 925.27,-104 925.27,-97"/>
</g>
<!-- Node17 -->
<g id="node17" class="node">
<title>Node17</title>
<g id="a_node17"><a xlink:href="classrack_1_1VerticalProfileODIM.html" target="_top" xlink:title=" ">
<polygon fill="white" stroke="black" points="951,-53 951,-72 1064,-72 1064,-53 951,-53"/>
<text text-anchor="middle" x="1007.5" y="-60" font-family="Helvetica,sans-Serif" font-size="10.00">VerticalProfileODIM</text>
</a>
</g>
</g>
<!-- Node15&#45;&gt;Node17 -->
<g id="edge16" class="edge">
<title>Node15&#45;&gt;Node17</title>
<path fill="none" stroke="midnightblue" d="M894.87,-88.6C917.71,-83.26 944.3,-77.05 965.79,-72.02"/>
<polygon fill="midnightblue" stroke="midnightblue" points="893.95,-85.23 885.01,-90.91 895.54,-92.04 893.95,-85.23"/>
</g>
</g>
</svg>
