<?xml version="1.0" encoding="UTF-8" standalone="no"?>
<!DOCTYPE svg PUBLIC "-//W3C//DTD SVG 1.1//EN"
 "http://www.w3.org/Graphics/SVG/1.1/DTD/svg11.dtd">
<!-- Generated by graphviz version 2.43.0 (0)
 -->
<!-- Title: ClutterOp Pages: 1 -->
<svg width="1005pt" height="877pt"
 viewBox="0.00 0.00 1004.50 877.00" xmlns="http://www.w3.org/2000/svg" xmlns:xlink="http://www.w3.org/1999/xlink">
<g id="graph0" class="graph" transform="scale(1 1) rotate(0) translate(4 873)">
<title>ClutterOp</title>
<polygon fill="white" stroke="transparent" points="-4,4 -4,-873 1000.5,-873 1000.5,4 -4,4"/>
<!-- Node1 -->
<g id="node1" class="node">
<title>Node1</title>
<g id="a_node1"><a xlink:title="Based on pre&#45;computed clutter map, scales the clutter probability for desired sweeps.">
<polygon fill="#bfbfbf" stroke="black" points="295.5,-0.5 295.5,-19.5 358.5,-19.5 358.5,-0.5 295.5,-0.5"/>
<text text-anchor="middle" x="327" y="-7.5" font-family="Helvetica,sans-Serif" font-size="10.00">ClutterOp</text>
</a>
</g>
</g>
<!-- Node2 -->
<g id="node2" class="node">
<title>Node2</title>
<g id="a_node2"><a xlink:href="classrack_1_1DetectorOp.html" target="_top" xlink:title="Base class for anomaly detectors.">
<polygon fill="white" stroke="black" points="275,-318.5 275,-337.5 347,-337.5 347,-318.5 275,-318.5"/>
<text text-anchor="middle" x="311" y="-325.5" font-family="Helvetica,sans-Serif" font-size="10.00">DetectorOp</text>
</a>
</g>
</g>
<!-- Node2&#45;&gt;Node1 -->
<g id="edge1" class="edge">
<title>Node2&#45;&gt;Node1</title>
<path fill="none" stroke="midnightblue" d="M311,-308.13C311,-295.16 311,-277.54 311,-262 311,-262 311,-262 311,-87 311,-62.19 319.27,-33.78 323.92,-19.77"/>
<polygon fill="midnightblue" stroke="midnightblue" points="307.5,-308.17 311,-318.17 314.5,-308.17 307.5,-308.17"/>
</g>
<!-- Node3 -->
<g id="node3" class="node">
<title>Node3</title>
<g id="a_node3"><a xlink:href="classrack_1_1AndreOp.html" target="_top" xlink:title="The base class for removal operators.">
<polygon fill="white" stroke="black" points="281.5,-413.5 281.5,-432.5 340.5,-432.5 340.5,-413.5 281.5,-413.5"/>
<text text-anchor="middle" x="311" y="-420.5" font-family="Helvetica,sans-Serif" font-size="10.00">AndreOp</text>
</a>
</g>
</g>
<!-- Node3&#45;&gt;Node2 -->
<g id="edge2" class="edge">
<title>Node3&#45;&gt;Node2</title>
<path fill="none" stroke="midnightblue" d="M311,-403.34C311,-383.33 311,-352.43 311,-337.56"/>
<polygon fill="midnightblue" stroke="midnightblue" points="307.5,-403.42 311,-413.42 314.5,-403.42 307.5,-403.42"/>
</g>
<!-- Node4 -->
<g id="node4" class="node">
<title>Node4</title>
<g id="a_node4"><a xlink:href="classrack_1_1VolumeTraversalOp.html" target="_top" xlink:title="Base class for radar data processors.">
<polygon fill="white" stroke="black" points="254.5,-492.5 254.5,-511.5 367.5,-511.5 367.5,-492.5 254.5,-492.5"/>
<text text-anchor="middle" x="311" y="-499.5" font-family="Helvetica,sans-Serif" font-size="10.00">VolumeTraversalOp</text>
</a>
</g>
</g>
<!-- Node4&#45;&gt;Node3 -->
<g id="edge3" class="edge">
<title>Node4&#45;&gt;Node3</title>
<path fill="none" stroke="midnightblue" d="M311,-482.31C311,-466.59 311,-444.81 311,-432.81"/>
<polygon fill="midnightblue" stroke="midnightblue" points="307.5,-482.47 311,-492.47 314.5,-482.47 307.5,-482.47"/>
</g>
<!-- Node5 -->
<g id="node5" class="node">
<title>Node5</title>
<g id="a_node5"><a xlink:href="classrack_1_1PolarProductOp.html" target="_top" xlink:title="Base class for flat (2D) products computed in the polar coordinate system. Volume is used as input.">
<polygon fill="white" stroke="black" points="265,-569.5 265,-588.5 357,-588.5 357,-569.5 265,-569.5"/>
<text text-anchor="middle" x="311" y="-576.5" font-family="Helvetica,sans-Serif" font-size="10.00">PolarProductOp</text>
</a>
</g>
</g>
<!-- Node5&#45;&gt;Node4 -->
<g id="edge4" class="edge">
<title>Node5&#45;&gt;Node4</title>
<path fill="none" stroke="midnightblue" d="M311,-559.02C311,-543.74 311,-522.98 311,-511.5"/>
<polygon fill="midnightblue" stroke="midnightblue" points="307.5,-559.4 311,-569.4 314.5,-559.4 307.5,-559.4"/>
</g>
<!-- Node6 -->
<g id="node6" class="node">
<title>Node6</title>
<g id="a_node6"><a xlink:href="classrack_1_1VolumeOp.html" target="_top" xlink:title=" ">
<polygon fill="white" stroke="black" points="65,-636.5 65,-655.5 207,-655.5 207,-636.5 65,-636.5"/>
<text text-anchor="middle" x="136" y="-643.5" font-family="Helvetica,sans-Serif" font-size="10.00">VolumeOp&lt; PolarODIM &gt;</text>
</a>
</g>
</g>
<!-- Node6&#45;&gt;Node5 -->
<g id="edge5" class="edge">
<title>Node6&#45;&gt;Node5</title>
<path fill="none" stroke="midnightblue" d="M168.93,-632.77C203.66,-619.87 257.49,-599.88 287.94,-588.56"/>
<polygon fill="midnightblue" stroke="midnightblue" points="167.39,-629.61 159.24,-636.37 169.83,-636.17 167.39,-629.61"/>
</g>
<!-- Node7 -->
<g id="node7" class="node">
<title>Node7</title>
<g id="a_node7"><a xlink:href="classdrain_1_1image_1_1ProductOp.html" target="_top" xlink:title=" ">
<polygon fill="white" stroke="black" points="0,-703.5 0,-733.5 162,-733.5 162,-703.5 0,-703.5"/>
<text text-anchor="start" x="8" y="-721.5" font-family="Helvetica,sans-Serif" font-size="10.00">ProductOp&lt; const PolarODIM,</text>
<text text-anchor="middle" x="81" y="-710.5" font-family="Helvetica,sans-Serif" font-size="10.00"> PolarODIM &gt;</text>
</a>
</g>
</g>
<!-- Node7&#45;&gt;Node6 -->
<g id="edge6" class="edge">
<title>Node7&#45;&gt;Node6</title>
<path fill="none" stroke="midnightblue" d="M98.55,-695.01C108.91,-681.73 121.44,-665.66 129.06,-655.89"/>
<polygon fill="midnightblue" stroke="midnightblue" points="95.52,-693.2 92.13,-703.23 101.04,-697.5 95.52,-693.2"/>
</g>
<!-- Node8 -->
<g id="node8" class="node">
<title>Node8</title>
<g id="a_node8"><a xlink:href="classdrain_1_1image_1_1CoordinatePolicy.html" target="_top" xlink:title="Policies for coordinate underflows and overflows.">
<polygon fill="white" stroke="black" points="280.5,-636.5 280.5,-655.5 379.5,-655.5 379.5,-636.5 280.5,-636.5"/>
<text text-anchor="middle" x="330" y="-643.5" font-family="Helvetica,sans-Serif" font-size="10.00">CoordinatePolicy</text>
</a>
</g>
</g>
<!-- Node8&#45;&gt;Node5 -->
<g id="edge7" class="edge">
<title>Node8&#45;&gt;Node5</title>
<path fill="none" stroke="#9a32cd" stroke-dasharray="5,2" d="M316.48,-627.72C314.66,-624.63 313.06,-621.33 312,-618 308.93,-608.31 309.19,-596.53 309.89,-588.68"/>
<polygon fill="#9a32cd" stroke="#9a32cd" points="313.73,-629.9 322.26,-636.18 319.5,-625.95 313.73,-629.9"/>
<text text-anchor="middle" x="355" y="-610" font-family="Helvetica,sans-Serif" font-size="10.00"> polarCoordPolicy</text>
</g>
<!-- Node23 -->
<g id="node23" class="node">
<title>Node23</title>
<g id="a_node23"><a xlink:href="classdrain_1_1image_1_1ImageConf.html" target="_top" xlink:title="Struct for image (excluding data)">
<polygon fill="white" stroke="black" points="485,-569.5 485,-588.5 555,-588.5 555,-569.5 485,-569.5"/>
<text text-anchor="middle" x="520" y="-576.5" font-family="Helvetica,sans-Serif" font-size="10.00">ImageConf</text>
</a>
</g>
</g>
<!-- Node8&#45;&gt;Node23 -->
<g id="edge36" class="edge">
<title>Node8&#45;&gt;Node23</title>
<path fill="none" stroke="#9a32cd" stroke-dasharray="5,2" d="M361,-632.74C380.89,-625.02 407.32,-615.04 431,-607 450.57,-600.36 472.82,-593.61 490.18,-588.52"/>
<polygon fill="#9a32cd" stroke="#9a32cd" points="359.57,-629.54 351.53,-636.43 362.11,-636.06 359.57,-629.54"/>
<text text-anchor="middle" x="473.5" y="-610" font-family="Helvetica,sans-Serif" font-size="10.00"> coordinatePolicy</text>
</g>
<!-- Node9 -->
<g id="node9" class="node">
<title>Node9</title>
<g id="a_node9"><a xlink:href="classdrain_1_1UniTuple.html" target="_top" xlink:title=" ">
<polygon fill="white" stroke="black" points="180.5,-703.5 180.5,-733.5 297.5,-733.5 297.5,-703.5 180.5,-703.5"/>
<text text-anchor="start" x="188.5" y="-721.5" font-family="Helvetica,sans-Serif" font-size="10.00">UniTuple&lt; coord_pol</text>
<text text-anchor="middle" x="239" y="-710.5" font-family="Helvetica,sans-Serif" font-size="10.00">_t, 4 &gt;</text>
</a>
</g>
</g>
<!-- Node9&#45;&gt;Node8 -->
<g id="edge8" class="edge">
<title>Node9&#45;&gt;Node8</title>
<path fill="none" stroke="midnightblue" d="M265.66,-696.84C283.34,-683.15 305.62,-665.89 318.78,-655.69"/>
<polygon fill="midnightblue" stroke="midnightblue" points="263.18,-694.34 257.42,-703.23 267.46,-699.88 263.18,-694.34"/>
</g>
<!-- Node10 -->
<g id="node10" class="node">
<title>Node10</title>
<g id="a_node10"><a xlink:href="classdrain_1_1Dictionary2.html" target="_top" xlink:title="Two&#45;way mapping between strings and objects of template class T.">
<polygon fill="white" stroke="black" points="315.5,-709 315.5,-728 430.5,-728 430.5,-709 315.5,-709"/>
<text text-anchor="middle" x="373" y="-716" font-family="Helvetica,sans-Serif" font-size="10.00">Dictionary2&lt; K, V &gt;</text>
</a>
</g>
</g>
<!-- Node10&#45;&gt;Node8 -->
<g id="edge9" class="edge">
<title>Node10&#45;&gt;Node8</title>
<path fill="none" stroke="#9a32cd" stroke-dasharray="5,2" d="M362.38,-700.09C353.79,-686 342.04,-666.74 335.32,-655.72"/>
<polygon fill="#9a32cd" stroke="#9a32cd" points="359.53,-702.14 367.73,-708.86 365.51,-698.5 359.53,-702.14"/>
<text text-anchor="middle" x="363" y="-677" font-family="Helvetica,sans-Serif" font-size="10.00"> dict</text>
</g>
<!-- Node11 -->
<g id="node11" class="node">
<title>Node11</title>
<g id="a_node11"><a xlink:title=" ">
<polygon fill="white" stroke="#bfbfbf" points="312,-781.5 312,-811.5 416,-811.5 416,-781.5 312,-781.5"/>
<text text-anchor="start" x="320" y="-799.5" font-family="Helvetica,sans-Serif" font-size="10.00">list&lt; std::pair&lt; K,</text>
<text text-anchor="middle" x="364" y="-788.5" font-family="Helvetica,sans-Serif" font-size="10.00"> V &gt; &gt;</text>
</a>
</g>
</g>
<!-- Node11&#45;&gt;Node10 -->
<g id="edge10" class="edge">
<title>Node11&#45;&gt;Node10</title>
<path fill="none" stroke="midnightblue" d="M366.88,-771.17C368.63,-756.4 370.76,-738.45 371.99,-728.06"/>
<polygon fill="midnightblue" stroke="midnightblue" points="363.39,-770.86 365.69,-781.2 370.34,-771.69 363.39,-770.86"/>
</g>
<!-- Node12 -->
<g id="node12" class="node">
<title>Node12</title>
<g id="a_node12"><a xlink:href="classdrain_1_1Tree.html" target="_top" xlink:title=" ">
<polygon fill="white" stroke="black" points="339,-67.5 339,-108.5 461,-108.5 461,-67.5 339,-67.5"/>
<text text-anchor="start" x="347" y="-96.5" font-family="Helvetica,sans-Serif" font-size="10.00">Tree&lt; hi5::NodeHi5,</text>
<text text-anchor="start" x="347" y="-85.5" font-family="Helvetica,sans-Serif" font-size="10.00"> rack::ODIMPath, rack</text>
<text text-anchor="middle" x="400" y="-74.5" font-family="Helvetica,sans-Serif" font-size="10.00">::ODIMPathLess &gt;</text>
</a>
</g>
</g>
<!-- Node12&#45;&gt;Node1 -->
<g id="edge11" class="edge">
<title>Node12&#45;&gt;Node1</title>
<path fill="none" stroke="#9a32cd" stroke-dasharray="5,2" d="M373.91,-59.83C360.29,-45.65 344.56,-29.28 335.21,-19.55"/>
<polygon fill="#9a32cd" stroke="#9a32cd" points="371.75,-62.64 381.2,-67.43 376.8,-57.79 371.75,-62.64"/>
<text text-anchor="middle" x="391" y="-41" font-family="Helvetica,sans-Serif" font-size="10.00"> clutterMap</text>
</g>
<!-- Node13 -->
<g id="node13" class="node">
<title>Node13</title>
<g id="a_node13"><a xlink:href="classdrain_1_1Tree.html" target="_top" xlink:title="Unordered tree based on std::map.">
<polygon fill="white" stroke="black" points="340,-156.5 340,-175.5 430,-175.5 430,-156.5 340,-156.5"/>
<text text-anchor="middle" x="385" y="-163.5" font-family="Helvetica,sans-Serif" font-size="10.00">Tree&lt; T, P, C &gt;</text>
</a>
</g>
</g>
<!-- Node13&#45;&gt;Node12 -->
<g id="edge12" class="edge">
<title>Node13&#45;&gt;Node12</title>
<path fill="none" stroke="#9a32cd" stroke-dasharray="5,2" d="M388.72,-146.14C390.97,-134.73 393.84,-120.21 396.12,-108.66"/>
<polygon fill="#9a32cd" stroke="#9a32cd" points="385.22,-145.79 386.72,-156.28 392.09,-147.15 385.22,-145.79"/>
<text text-anchor="middle" x="412.5" y="-130" font-family="Helvetica,sans-Serif" font-size="10.00"> dummy</text>
</g>
<!-- Node13&#45;&gt;Node13 -->
<g id="edge13" class="edge">
<title>Node13&#45;&gt;Node13</title>
<path fill="none" stroke="#9a32cd" stroke-dasharray="5,2" d="M440.26,-170.69C445.03,-169.69 448,-168.13 448,-166 448,-162.59 440.39,-160.64 430.02,-160.13"/>
<polygon fill="#9a32cd" stroke="#9a32cd" points="439.55,-167.25 430.02,-171.87 440.36,-174.2 439.55,-167.25"/>
<text text-anchor="middle" x="468.5" y="-163.5" font-family="Helvetica,sans-Serif" font-size="10.00"> dummy</text>
</g>
<!-- Node14 -->
<g id="node14" class="node">
<title>Node14</title>
<g id="a_node14"><a xlink:href="structhi5_1_1NodeHi5.html" target="_top" xlink:title="Rack&#39;s hi5 structure that uses Rack classes (Tree, Data, Image).">
<polygon fill="white" stroke="black" points="507.5,-156.5 507.5,-175.5 566.5,-175.5 566.5,-156.5 507.5,-156.5"/>
<text text-anchor="middle" x="537" y="-163.5" font-family="Helvetica,sans-Serif" font-size="10.00">NodeHi5</text>
</a>
</g>
</g>
<!-- Node14&#45;&gt;Node12 -->
<g id="edge14" class="edge">
<title>Node14&#45;&gt;Node12</title>
<path fill="none" stroke="#9a32cd" stroke-dasharray="5,2" d="M512.73,-151.54C491.24,-139.62 459.6,-122.06 435.31,-108.59"/>
<polygon fill="#9a32cd" stroke="#9a32cd" points="511.11,-154.64 521.55,-156.43 514.5,-148.52 511.11,-154.64"/>
<text text-anchor="middle" x="496.5" y="-130" font-family="Helvetica,sans-Serif" font-size="10.00"> data</text>
</g>
<!-- Node15 -->
<g id="node15" class="node">
<title>Node15</title>
<g id="a_node15"><a xlink:href="classdrain_1_1VariableMap.html" target="_top" xlink:title="A map of Variables.">
<polygon fill="white" stroke="black" points="423,-223.5 423,-242.5 501,-242.5 501,-223.5 423,-223.5"/>
<text text-anchor="middle" x="462" y="-230.5" font-family="Helvetica,sans-Serif" font-size="10.00">VariableMap</text>
</a>
</g>
</g>
<!-- Node15&#45;&gt;Node14 -->
<g id="edge15" class="edge">
<title>Node15&#45;&gt;Node14</title>
<path fill="none" stroke="#9a32cd" stroke-dasharray="5,2" d="M475.42,-215.16C481.35,-208.22 488.65,-200.34 496,-194 504,-187.1 513.87,-180.55 521.92,-175.63"/>
<polygon fill="#9a32cd" stroke="#9a32cd" points="472.4,-213.33 468.72,-223.26 477.79,-217.79 472.4,-213.33"/>
<text text-anchor="middle" x="521.5" y="-197" font-family="Helvetica,sans-Serif" font-size="10.00"> attributes</text>
</g>
<!-- Node16 -->
<g id="node16" class="node">
<title>Node16</title>
<g id="a_node16"><a xlink:href="classdrain_1_1SmartMap.html" target="_top" xlink:title=" ">
<polygon fill="white" stroke="black" points="397,-280.5 397,-299.5 527,-299.5 527,-280.5 397,-280.5"/>
<text text-anchor="middle" x="462" y="-287.5" font-family="Helvetica,sans-Serif" font-size="10.00">SmartMap&lt; Variable &gt;</text>
</a>
</g>
</g>
<!-- Node16&#45;&gt;Node15 -->
<g id="edge16" class="edge">
<title>Node16&#45;&gt;Node15</title>
<path fill="none" stroke="midnightblue" d="M462,-270.12C462,-260.82 462,-250.06 462,-242.71"/>
<polygon fill="midnightblue" stroke="midnightblue" points="458.5,-270.41 462,-280.41 465.5,-270.41 458.5,-270.41"/>
</g>
<!-- Node17 -->
<g id="node17" class="node">
<title>Node17</title>
<g id="a_node17"><a xlink:title=" ">
<polygon fill="white" stroke="#bfbfbf" points="383,-356.5 383,-375.5 539,-375.5 539,-356.5 383,-356.5"/>
<text text-anchor="middle" x="461" y="-363.5" font-family="Helvetica,sans-Serif" font-size="10.00">map&lt; std::string, Variable &gt;</text>
</a>
</g>
</g>
<!-- Node17&#45;&gt;Node16 -->
<g id="edge17" class="edge">
<title>Node17&#45;&gt;Node16</title>
<path fill="none" stroke="midnightblue" d="M461.26,-346.07C461.46,-331.18 461.73,-311.11 461.88,-299.77"/>
<polygon fill="midnightblue" stroke="midnightblue" points="457.75,-346.17 461.12,-356.22 464.75,-346.27 457.75,-346.17"/>
</g>
<!-- Node18 -->
<g id="node18" class="node">
<title>Node18</title>
<g id="a_node18"><a xlink:href="classdrain_1_1image_1_1Image.html" target="_top" xlink:title="Class for multi&#45;channel digital images. Supports dynamic typing with base types (char,...">
<polygon fill="white" stroke="black" points="545.5,-223.5 545.5,-242.5 592.5,-242.5 592.5,-223.5 545.5,-223.5"/>
<text text-anchor="middle" x="569" y="-230.5" font-family="Helvetica,sans-Serif" font-size="10.00">Image</text>
</a>
</g>
</g>
<!-- Node18&#45;&gt;Node14 -->
<g id="edge18" class="edge">
<title>Node18&#45;&gt;Node14</title>
<path fill="none" stroke="#9a32cd" stroke-dasharray="5,2" d="M560.22,-214.16C554.05,-201.63 546.06,-185.41 541.25,-175.63"/>
<polygon fill="#9a32cd" stroke="#9a32cd" points="557.13,-215.81 564.68,-223.23 563.41,-212.72 557.13,-215.81"/>
<text text-anchor="middle" x="574.5" y="-197" font-family="Helvetica,sans-Serif" font-size="10.00"> dataSet</text>
</g>
<!-- Node19 -->
<g id="node19" class="node">
<title>Node19</title>
<g id="a_node19"><a xlink:href="classdrain_1_1image_1_1ModifiableImage.html" target="_top" xlink:title="Image with modifiable geometry.">
<polygon fill="white" stroke="black" points="546.5,-280.5 546.5,-299.5 645.5,-299.5 645.5,-280.5 546.5,-280.5"/>
<text text-anchor="middle" x="596" y="-287.5" font-family="Helvetica,sans-Serif" font-size="10.00">ModifiableImage</text>
</a>
</g>
</g>
<!-- Node19&#45;&gt;Node18 -->
<g id="edge19" class="edge">
<title>Node19&#45;&gt;Node18</title>
<path fill="none" stroke="midnightblue" d="M587.33,-271.33C582.63,-261.77 577.04,-250.38 573.28,-242.71"/>
<polygon fill="midnightblue" stroke="midnightblue" points="584.23,-272.97 591.78,-280.41 590.52,-269.89 584.23,-272.97"/>
</g>
<!-- Node20 -->
<g id="node20" class="node">
<title>Node20</title>
<g id="a_node20"><a xlink:href="classdrain_1_1image_1_1MultiChannel.html" target="_top" xlink:title="Multi&#45;channel ImageFrame.">
<polygon fill="white" stroke="black" points="557.5,-356.5 557.5,-375.5 638.5,-375.5 638.5,-356.5 557.5,-356.5"/>
<text text-anchor="middle" x="598" y="-363.5" font-family="Helvetica,sans-Serif" font-size="10.00">MultiChannel</text>
</a>
</g>
</g>
<!-- Node20&#45;&gt;Node19 -->
<g id="edge20" class="edge">
<title>Node20&#45;&gt;Node19</title>
<path fill="none" stroke="midnightblue" d="M597.49,-346.07C597.09,-331.18 596.54,-311.11 596.24,-299.77"/>
<polygon fill="midnightblue" stroke="midnightblue" points="593.99,-346.32 597.76,-356.22 600.99,-346.13 593.99,-346.32"/>
</g>
<!-- Node21 -->
<g id="node21" class="node">
<title>Node21</title>
<g id="a_node21"><a xlink:href="classdrain_1_1image_1_1ImageFrame.html" target="_top" xlink:title="Image with static geometry.">
<polygon fill="white" stroke="black" points="559,-413.5 559,-432.5 637,-432.5 637,-413.5 559,-413.5"/>
<text text-anchor="middle" x="598" y="-420.5" font-family="Helvetica,sans-Serif" font-size="10.00">ImageFrame</text>
</a>
</g>
</g>
<!-- Node21&#45;&gt;Node20 -->
<g id="edge21" class="edge">
<title>Node21&#45;&gt;Node20</title>
<path fill="none" stroke="midnightblue" d="M598,-403.12C598,-393.82 598,-383.06 598,-375.71"/>
<polygon fill="midnightblue" stroke="midnightblue" points="594.5,-403.41 598,-413.41 601.5,-403.41 594.5,-403.41"/>
</g>
<!-- Node22 -->
<g id="node22" class="node">
<title>Node22</title>
<g id="a_node22"><a xlink:href="classdrain_1_1image_1_1ImageLike.html" target="_top" xlink:title="A base class for images.">
<polygon fill="white" stroke="black" points="490.5,-492.5 490.5,-511.5 557.5,-511.5 557.5,-492.5 490.5,-492.5"/>
<text text-anchor="middle" x="524" y="-499.5" font-family="Helvetica,sans-Serif" font-size="10.00">ImageLike</text>
</a>
</g>
</g>
<!-- Node22&#45;&gt;Node21 -->
<g id="edge22" class="edge">
<title>Node22&#45;&gt;Node21</title>
<path fill="none" stroke="midnightblue" d="M539.38,-485C554.6,-469.16 577.33,-445.51 589.53,-432.81"/>
<polygon fill="midnightblue" stroke="midnightblue" points="536.61,-482.83 532.2,-492.47 541.65,-487.68 536.61,-482.83"/>
</g>
<!-- Node23&#45;&gt;Node22 -->
<g id="edge23" class="edge">
<title>Node23&#45;&gt;Node22</title>
<path fill="none" stroke="#9a32cd" stroke-dasharray="5,2" d="M517.2,-559.21C516.33,-550.59 515.86,-540.25 517,-531 517.81,-524.44 519.64,-517.2 521.23,-511.72"/>
<polygon fill="#9a32cd" stroke="#9a32cd" points="513.75,-559.83 518.48,-569.31 520.7,-558.95 513.75,-559.83"/>
<text text-anchor="middle" x="529.5" y="-538.5" font-family="Helvetica,sans-Serif" font-size="10.00"> conf</text>
</g>
<!-- Node24 -->
<g id="node24" class="node">
<title>Node24</title>
<g id="a_node24"><a xlink:href="classdrain_1_1image_1_1Encoding.html" target="_top" xlink:title=" ">
<polygon fill="white" stroke="black" points="489.5,-636.5 489.5,-655.5 550.5,-655.5 550.5,-636.5 489.5,-636.5"/>
<text text-anchor="middle" x="520" y="-643.5" font-family="Helvetica,sans-Serif" font-size="10.00">Encoding</text>
</a>
</g>
</g>
<!-- Node24&#45;&gt;Node23 -->
<g id="edge24" class="edge">
<title>Node24&#45;&gt;Node23</title>
<path fill="none" stroke="midnightblue" d="M520,-626.04C520,-613.67 520,-598.12 520,-588.63"/>
<polygon fill="midnightblue" stroke="midnightblue" points="516.5,-626.23 520,-636.23 523.5,-626.23 516.5,-626.23"/>
</g>
<!-- Node25 -->
<g id="node25" class="node">
<title>Node25</title>
<g id="a_node25"><a xlink:href="classdrain_1_1ValueScaling.html" target="_top" xlink:title="Linear scaling and physical range for image intensities.">
<polygon fill="white" stroke="black" points="457,-709 457,-728 537,-728 537,-709 457,-709"/>
<text text-anchor="middle" x="497" y="-716" font-family="Helvetica,sans-Serif" font-size="10.00">ValueScaling</text>
</a>
</g>
</g>
<!-- Node25&#45;&gt;Node24 -->
<g id="edge25" class="edge">
<title>Node25&#45;&gt;Node24</title>
<path fill="none" stroke="midnightblue" d="M502.95,-699.27C507.52,-685.26 513.63,-666.53 517.16,-655.72"/>
<polygon fill="midnightblue" stroke="midnightblue" points="499.59,-698.26 499.82,-708.86 506.25,-700.43 499.59,-698.26"/>
</g>
<!-- Node26 -->
<g id="node26" class="node">
<title>Node26</title>
<g id="a_node26"><a xlink:href="classdrain_1_1UniTuple.html" target="_top" xlink:title=" ">
<polygon fill="white" stroke="black" points="434,-787 434,-806 560,-806 560,-787 434,-787"/>
<text text-anchor="middle" x="497" y="-794" font-family="Helvetica,sans-Serif" font-size="10.00">UniTuple&lt; double, 4 &gt;</text>
</a>
</g>
</g>
<!-- Node26&#45;&gt;Node25 -->
<g id="edge26" class="edge">
<title>Node26&#45;&gt;Node25</title>
<path fill="none" stroke="midnightblue" d="M497,-776.72C497,-761.2 497,-739.86 497,-728.12"/>
<polygon fill="midnightblue" stroke="midnightblue" points="493.5,-776.78 497,-786.78 500.5,-776.78 493.5,-776.78"/>
</g>
<!-- Node27 -->
<g id="node27" class="node">
<title>Node27</title>
<g id="a_node27"><a xlink:href="classdrain_1_1Range.html" target="_top" xlink:title=" ">
<polygon fill="white" stroke="black" points="578.5,-787 578.5,-806 681.5,-806 681.5,-787 578.5,-787"/>
<text text-anchor="middle" x="630" y="-794" font-family="Helvetica,sans-Serif" font-size="10.00">Range&lt; double &gt;</text>
</a>
</g>
</g>
<!-- Node27&#45;&gt;Node25 -->
<g id="edge27" class="edge">
<title>Node27&#45;&gt;Node25</title>
<path fill="none" stroke="#9a32cd" stroke-dasharray="5,2" d="M606.11,-781.85C578.85,-766.27 535.09,-741.26 512.15,-728.16"/>
<polygon fill="#9a32cd" stroke="#9a32cd" points="604.58,-785.01 615,-786.93 608.06,-778.93 604.58,-785.01"/>
<text text-anchor="middle" x="600" y="-755" font-family="Helvetica,sans-Serif" font-size="10.00"> physRange</text>
</g>
<!-- Node28 -->
<g id="node28" class="node">
<title>Node28</title>
<g id="a_node28"><a xlink:href="classdrain_1_1UniTuple.html" target="_top" xlink:title=" ">
<polygon fill="white" stroke="black" points="567,-849.5 567,-868.5 693,-868.5 693,-849.5 567,-849.5"/>
<text text-anchor="middle" x="630" y="-856.5" font-family="Helvetica,sans-Serif" font-size="10.00">UniTuple&lt; double, 2 &gt;</text>
</a>
</g>
</g>
<!-- Node28&#45;&gt;Node27 -->
<g id="edge28" class="edge">
<title>Node28&#45;&gt;Node27</title>
<path fill="none" stroke="midnightblue" d="M630,-839C630,-828 630,-814.68 630,-806.15"/>
<polygon fill="midnightblue" stroke="midnightblue" points="626.5,-839.33 630,-849.33 633.5,-839.33 626.5,-839.33"/>
</g>
<!-- Node29 -->
<g id="node29" class="node">
<title>Node29</title>
<g id="a_node29"><a xlink:href="classdrain_1_1Caster.html" target="_top" xlink:title=" ">
<polygon fill="white" stroke="black" points="555,-709 555,-728 603,-728 603,-709 555,-709"/>
<text text-anchor="middle" x="579" y="-716" font-family="Helvetica,sans-Serif" font-size="10.00">Caster</text>
</a>
</g>
</g>
<!-- Node29&#45;&gt;Node24 -->
<g id="edge29" class="edge">
<title>Node29&#45;&gt;Node24</title>
<path fill="none" stroke="#9a32cd" stroke-dasharray="5,2" d="M563.62,-701.43C558.83,-696.28 553.6,-690.48 549,-685 540.78,-675.21 531.96,-663.45 526.23,-655.63"/>
<polygon fill="#9a32cd" stroke="#9a32cd" points="561.22,-703.99 570.62,-708.87 566.31,-699.19 561.22,-703.99"/>
<text text-anchor="middle" x="566" y="-677" font-family="Helvetica,sans-Serif" font-size="10.00"> caster</text>
</g>
<!-- Node36 -->
<g id="node36" class="node">
<title>Node36</title>
<g id="a_node36"><a xlink:href="classdrain_1_1Castable.html" target="_top" xlink:title=" ">
<polygon fill="white" stroke="black" points="568.5,-636.5 568.5,-655.5 627.5,-655.5 627.5,-636.5 568.5,-636.5"/>
<text text-anchor="middle" x="598" y="-643.5" font-family="Helvetica,sans-Serif" font-size="10.00">Castable</text>
</a>
</g>
</g>
<!-- Node29&#45;&gt;Node36 -->
<g id="edge39" class="edge">
<title>Node29&#45;&gt;Node36</title>
<path fill="none" stroke="#9a32cd" stroke-dasharray="5,2" d="M584.02,-698.86C587.79,-684.9 592.76,-666.43 595.65,-655.72"/>
<polygon fill="#9a32cd" stroke="#9a32cd" points="580.55,-698.29 581.33,-708.86 587.31,-700.11 580.55,-698.29"/>
<text text-anchor="middle" x="607" y="-677" font-family="Helvetica,sans-Serif" font-size="10.00"> caster</text>
</g>
<!-- Node30 -->
<g id="node30" class="node">
<title>Node30</title>
<g id="a_node30"><a xlink:href="classdrain_1_1image_1_1Geometry.html" target="_top" xlink:title=" ">
<polygon fill="white" stroke="black" points="649.5,-636.5 649.5,-655.5 714.5,-655.5 714.5,-636.5 649.5,-636.5"/>
<text text-anchor="middle" x="682" y="-643.5" font-family="Helvetica,sans-Serif" font-size="10.00">Geometry</text>
</a>
</g>
</g>
<!-- Node30&#45;&gt;Node23 -->
<g id="edge30" class="edge">
<title>Node30&#45;&gt;Node23</title>
<path fill="none" stroke="midnightblue" d="M651.11,-632.6C618.94,-619.7 569.42,-599.83 541.34,-588.56"/>
<polygon fill="midnightblue" stroke="midnightblue" points="649.9,-635.89 660.49,-636.37 652.51,-629.4 649.9,-635.89"/>
</g>
<!-- Node31 -->
<g id="node31" class="node">
<title>Node31</title>
<g id="a_node31"><a xlink:href="classdrain_1_1UniTuple.html" target="_top" xlink:title=" ">
<polygon fill="white" stroke="black" points="621,-709 621,-728 743,-728 743,-709 621,-709"/>
<text text-anchor="middle" x="682" y="-716" font-family="Helvetica,sans-Serif" font-size="10.00">UniTuple&lt; size_t, 4 &gt;</text>
</a>
</g>
</g>
<!-- Node31&#45;&gt;Node30 -->
<g id="edge31" class="edge">
<title>Node31&#45;&gt;Node30</title>
<path fill="none" stroke="midnightblue" d="M682,-698.44C682,-684.53 682,-666.32 682,-655.72"/>
<polygon fill="midnightblue" stroke="midnightblue" points="678.5,-698.86 682,-708.86 685.5,-698.86 678.5,-698.86"/>
</g>
<!-- Node32 -->
<g id="node32" class="node">
<title>Node32</title>
<g id="a_node32"><a xlink:href="classdrain_1_1Frame2D.html" target="_top" xlink:title=" ">
<polygon fill="white" stroke="black" points="761,-709 761,-728 873,-728 873,-709 761,-709"/>
<text text-anchor="middle" x="817" y="-716" font-family="Helvetica,sans-Serif" font-size="10.00">Frame2D&lt; size_t &gt;</text>
</a>
</g>
</g>
<!-- Node32&#45;&gt;Node30 -->
<g id="edge32" class="edge">
<title>Node32&#45;&gt;Node30</title>
<path fill="none" stroke="#9a32cd" stroke-dasharray="5,2" d="M791.75,-704.31C764.4,-690.03 721.59,-667.67 698.34,-655.53"/>
<polygon fill="#9a32cd" stroke="#9a32cd" points="790.23,-707.47 800.72,-709 793.47,-701.26 790.23,-707.47"/>
<text text-anchor="middle" x="765.5" y="-677" font-family="Helvetica,sans-Serif" font-size="10.00"> area</text>
</g>
<!-- Node33 -->
<g id="node33" class="node">
<title>Node33</title>
<g id="a_node33"><a xlink:href="classdrain_1_1UniTuple.html" target="_top" xlink:title=" ">
<polygon fill="white" stroke="black" points="819,-787 819,-806 941,-806 941,-787 819,-787"/>
<text text-anchor="middle" x="880" y="-794" font-family="Helvetica,sans-Serif" font-size="10.00">UniTuple&lt; size_t, 2 &gt;</text>
</a>
</g>
</g>
<!-- Node33&#45;&gt;Node32 -->
<g id="edge33" class="edge">
<title>Node33&#45;&gt;Node32</title>
<path fill="none" stroke="midnightblue" d="M866.27,-778.94C853.3,-763.29 834.35,-740.43 824.14,-728.12"/>
<polygon fill="midnightblue" stroke="midnightblue" points="863.7,-781.32 872.77,-786.78 869.09,-776.85 863.7,-781.32"/>
</g>
<!-- Node34 -->
<g id="node34" class="node">
<title>Node34</title>
<g id="a_node34"><a xlink:href="classdrain_1_1image_1_1ChannelGeometry.html" target="_top" xlink:title=" ">
<polygon fill="white" stroke="black" points="891.5,-709 891.5,-728 996.5,-728 996.5,-709 891.5,-709"/>
<text text-anchor="middle" x="944" y="-716" font-family="Helvetica,sans-Serif" font-size="10.00">ChannelGeometry</text>
</a>
</g>
</g>
<!-- Node33&#45;&gt;Node34 -->
<g id="edge35" class="edge">
<title>Node33&#45;&gt;Node34</title>
<path fill="none" stroke="midnightblue" d="M893.94,-778.94C907.12,-763.29 926.38,-740.43 936.74,-728.12"/>
<polygon fill="midnightblue" stroke="midnightblue" points="891.11,-776.88 887.34,-786.78 896.46,-781.39 891.11,-776.88"/>
</g>
<!-- Node34&#45;&gt;Node30 -->
<g id="edge34" class="edge">
<title>Node34&#45;&gt;Node30</title>
<path fill="none" stroke="#9a32cd" stroke-dasharray="5,2" d="M902.42,-706.31C849.99,-692.2 760.99,-668.26 713.72,-655.53"/>
<polygon fill="#9a32cd" stroke="#9a32cd" points="901.83,-709.78 912.4,-709 903.65,-703.02 901.83,-709.78"/>
<text text-anchor="middle" x="843.5" y="-677" font-family="Helvetica,sans-Serif" font-size="10.00"> channels</text>
</g>
<!-- Node35 -->
<g id="node35" class="node">
<title>Node35</title>
<g id="a_node35"><a xlink:href="classdrain_1_1CastableIterator.html" target="_top" xlink:title=" ">
<polygon fill="white" stroke="black" points="550.5,-531.5 550.5,-550.5 645.5,-550.5 645.5,-531.5 550.5,-531.5"/>
<text text-anchor="middle" x="598" y="-538.5" font-family="Helvetica,sans-Serif" font-size="10.00">CastableIterator</text>
</a>
</g>
</g>
<!-- Node35&#45;&gt;Node21 -->
<g id="edge37" class="edge">
<title>Node35&#45;&gt;Node21</title>
<path fill="none" stroke="#9a32cd" stroke-dasharray="5,2" d="M598,-521.02C598,-495.46 598,-451.04 598,-432.5"/>
<polygon fill="#9a32cd" stroke="#9a32cd" points="594.5,-521.28 598,-531.28 601.5,-521.28 594.5,-521.28"/>
<text text-anchor="middle" x="633.5" y="-505" font-family="Helvetica,sans-Serif" font-size="10.00"> segmentEnd</text>
<text text-anchor="middle" x="633.5" y="-494" font-family="Helvetica,sans-Serif" font-size="10.00">segmentBegin</text>
</g>
<!-- Node36&#45;&gt;Node35 -->
<g id="edge38" class="edge">
<title>Node36&#45;&gt;Node35</title>
<path fill="none" stroke="darkgreen" d="M598,-625.94C598,-603.53 598,-567.31 598,-550.76"/>
<polygon fill="darkgreen" stroke="darkgreen" points="594.5,-626.22 598,-636.22 601.5,-626.22 594.5,-626.22"/>
</g>
<!-- Node37 -->
<g id="node37" class="node">
<title>Node37</title>
<g id="a_node37"><a xlink:href="classdrain_1_1FlexVariableMap.html" target="_top" xlink:title="A map of FlexVariable:s.">
<polygon fill="white" stroke="black" points="729.5,-492.5 729.5,-511.5 828.5,-511.5 828.5,-492.5 729.5,-492.5"/>
<text text-anchor="middle" x="779" y="-499.5" font-family="Helvetica,sans-Serif" font-size="10.00">FlexVariableMap</text>
</a>
</g>
</g>
<!-- Node37&#45;&gt;Node21 -->
<g id="edge40" class="edge">
<title>Node37&#45;&gt;Node21</title>
<path fill="none" stroke="#9a32cd" stroke-dasharray="5,2" d="M749.68,-488.53C712.72,-472.8 650.15,-446.18 618.15,-432.57"/>
<polygon fill="#9a32cd" stroke="#9a32cd" points="748.37,-491.77 758.94,-492.47 751.11,-485.33 748.37,-491.77"/>
<text text-anchor="middle" x="743.5" y="-465" font-family="Helvetica,sans-Serif" font-size="10.00"> propertiesPtr</text>
<text text-anchor="middle" x="743.5" y="-454" font-family="Helvetica,sans-Serif" font-size="10.00">properties</text>
</g>
<!-- Node38 -->
<g id="node38" class="node">
<title>Node38</title>
<g id="a_node38"><a xlink:href="classdrain_1_1SmartMap.html" target="_top" xlink:title=" ">
<polygon fill="white" stroke="black" points="734.5,-569.5 734.5,-588.5 885.5,-588.5 885.5,-569.5 734.5,-569.5"/>
<text text-anchor="middle" x="810" y="-576.5" font-family="Helvetica,sans-Serif" font-size="10.00">SmartMap&lt; FlexVariable &gt;</text>
</a>
</g>
</g>
<!-- Node38&#45;&gt;Node37 -->
<g id="edge41" class="edge">
<title>Node38&#45;&gt;Node37</title>
<path fill="none" stroke="midnightblue" d="M802.53,-559.92C796.18,-544.56 787.35,-523.2 782.51,-511.5"/>
<polygon fill="midnightblue" stroke="midnightblue" points="799.39,-561.49 806.44,-569.4 805.86,-558.82 799.39,-561.49"/>
</g>
<!-- Node39 -->
<g id="node39" class="node">
<title>Node39</title>
<g id="a_node39"><a xlink:title=" ">
<polygon fill="white" stroke="#bfbfbf" points="732.5,-636.5 732.5,-655.5 909.5,-655.5 909.5,-636.5 732.5,-636.5"/>
<text text-anchor="middle" x="821" y="-643.5" font-family="Helvetica,sans-Serif" font-size="10.00">map&lt; std::string, FlexVariable &gt;</text>
</a>
</g>
</g>
<!-- Node39&#45;&gt;Node38 -->
<g id="edge42" class="edge">
<title>Node39&#45;&gt;Node38</title>
<path fill="none" stroke="midnightblue" d="M817.79,-626.04C815.7,-613.67 813.07,-598.12 811.46,-588.63"/>
<polygon fill="midnightblue" stroke="midnightblue" points="814.4,-626.96 819.52,-636.23 821.3,-625.79 814.4,-626.96"/>
</g>
</g>
</svg>
