<?xml version="1.0" encoding="UTF-8" standalone="no"?>
<!DOCTYPE svg PUBLIC "-//W3C//DTD SVG 1.1//EN"
 "http://www.w3.org/Graphics/SVG/1.1/DTD/svg11.dtd">
<!-- Generated by graphviz version 2.43.0 (0)
 -->
<!-- Title: UnaryFunctorOpCloner&lt; F &gt; Pages: 1 -->
<svg width="183pt" height="218pt"
 viewBox="0.00 0.00 183.00 218.00" xmlns="http://www.w3.org/2000/svg" xmlns:xlink="http://www.w3.org/1999/xlink">
<g id="graph0" class="graph" transform="scale(1 1) rotate(0) translate(4 214)">
<title>UnaryFunctorOpCloner&lt; F &gt;</title>
<polygon fill="white" stroke="transparent" points="-4,4 -4,-214 179,-214 179,4 -4,4"/>
<!-- Node1 -->
<g id="node1" class="node">
<title>Node1</title>
<g id="a_node1"><a xlink:title=" ">
<polygon fill="#bfbfbf" stroke="black" points="10,-0.5 10,-19.5 165,-19.5 165,-0.5 10,-0.5"/>
<text text-anchor="middle" x="87.5" y="-7.5" font-family="Helvetica,sans-Serif" font-size="10.00">UnaryFunctorOpCloner&lt; F &gt;</text>
</a>
</g>
</g>
<!-- Node2 -->
<g id="node2" class="node">
<title>Node2</title>
<g id="a_node2"><a xlink:href="classdrain_1_1image_1_1ImageOpCloner.html" target="_top" xlink:title=" ">
<polygon fill="white" stroke="black" points="3,-56.5 3,-86.5 172,-86.5 172,-56.5 3,-56.5"/>
<text text-anchor="start" x="11" y="-74.5" font-family="Helvetica,sans-Serif" font-size="10.00">ImageOpCloner&lt; UnaryFunctor</text>
<text text-anchor="middle" x="87.5" y="-63.5" font-family="Helvetica,sans-Serif" font-size="10.00">Op&lt; F &gt; &gt;</text>
</a>
</g>
</g>
<!-- Node2&#45;&gt;Node1 -->
<g id="edge1" class="edge">
<title>Node2&#45;&gt;Node1</title>
<path fill="none" stroke="midnightblue" d="M87.5,-46.29C87.5,-36.86 87.5,-26.65 87.5,-19.66"/>
<polygon fill="midnightblue" stroke="midnightblue" points="84,-46.4 87.5,-56.4 91,-46.4 84,-46.4"/>
</g>
<!-- Node3 -->
<g id="node3" class="node">
<title>Node3</title>
<g id="a_node3"><a xlink:href="structdrain_1_1Cloner.html" target="_top" xlink:title=" ">
<polygon fill="white" stroke="black" points="0,-123.5 0,-153.5 175,-153.5 175,-123.5 0,-123.5"/>
<text text-anchor="start" x="8" y="-141.5" font-family="Helvetica,sans-Serif" font-size="10.00">Cloner&lt; ImageOp, UnaryFunctor</text>
<text text-anchor="middle" x="87.5" y="-130.5" font-family="Helvetica,sans-Serif" font-size="10.00">Op&lt; F &gt; &gt;</text>
</a>
</g>
</g>
<!-- Node3&#45;&gt;Node2 -->
<g id="edge2" class="edge">
<title>Node3&#45;&gt;Node2</title>
<path fill="none" stroke="midnightblue" d="M87.5,-113.11C87.5,-104.15 87.5,-94.32 87.5,-86.58"/>
<polygon fill="midnightblue" stroke="midnightblue" points="84,-113.4 87.5,-123.4 91,-113.4 84,-113.4"/>
</g>
<!-- Node4 -->
<g id="node4" class="node">
<title>Node4</title>
<g id="a_node4"><a xlink:href="structdrain_1_1ClonerBase.html" target="_top" xlink:title=" ">
<polygon fill="white" stroke="black" points="18,-190.5 18,-209.5 157,-209.5 157,-190.5 18,-190.5"/>
<text text-anchor="middle" x="87.5" y="-197.5" font-family="Helvetica,sans-Serif" font-size="10.00">ClonerBase&lt; ImageOp &gt;</text>
</a>
</g>
</g>
<!-- Node4&#45;&gt;Node3 -->
<g id="edge3" class="edge">
<title>Node4&#45;&gt;Node3</title>
<path fill="none" stroke="midnightblue" d="M87.5,-180.23C87.5,-171.59 87.5,-161.5 87.5,-153.52"/>
<polygon fill="midnightblue" stroke="midnightblue" points="84,-180.48 87.5,-190.48 91,-180.48 84,-180.48"/>
</g>
</g>
</svg>
