<?xml version="1.0" encoding="UTF-8" standalone="no"?>
<!DOCTYPE svg PUBLIC "-//W3C//DTD SVG 1.1//EN"
 "http://www.w3.org/Graphics/SVG/1.1/DTD/svg11.dtd">
<!-- Generated by graphviz version 2.43.0 (0)
 -->
<!-- Title: FuzzySigmoid&lt; T &gt; Pages: 1 -->
<svg width="121pt" height="252pt"
 viewBox="0.00 0.00 121.00 252.00" xmlns="http://www.w3.org/2000/svg" xmlns:xlink="http://www.w3.org/1999/xlink">
<g id="graph0" class="graph" transform="scale(1 1) rotate(0) translate(4 248)">
<title>FuzzySigmoid&lt; T &gt;</title>
<polygon fill="white" stroke="transparent" points="-4,4 -4,-248 117,-248 117,4 -4,4"/>
<!-- Node1 -->
<g id="node1" class="node">
<title>Node1</title>
<g id="a_node1"><a xlink:title="A smooth step function, by default from &#45;1.0 to +1.0.">
<polygon fill="#bfbfbf" stroke="black" points="0,-0.5 0,-19.5 113,-19.5 113,-0.5 0,-0.5"/>
<text text-anchor="middle" x="56.5" y="-7.5" font-family="Helvetica,sans-Serif" font-size="10.00">FuzzySigmoid&lt; T &gt;</text>
</a>
</g>
</g>
<!-- Node2 -->
<g id="node2" class="node">
<title>Node2</title>
<g id="a_node2"><a xlink:href="classdrain_1_1Fuzzifier.html" target="_top" xlink:title="A base class for fuzzy functions; also an unary functor.">
<polygon fill="white" stroke="black" points="13.5,-56.5 13.5,-75.5 99.5,-75.5 99.5,-56.5 13.5,-56.5"/>
<text text-anchor="middle" x="56.5" y="-63.5" font-family="Helvetica,sans-Serif" font-size="10.00">Fuzzifier&lt; T &gt;</text>
</a>
</g>
</g>
<!-- Node2&#45;&gt;Node1 -->
<g id="edge1" class="edge">
<title>Node2&#45;&gt;Node1</title>
<path fill="none" stroke="midnightblue" d="M56.5,-45.8C56.5,-36.91 56.5,-26.78 56.5,-19.75"/>
<polygon fill="midnightblue" stroke="midnightblue" points="53,-46.08 56.5,-56.08 60,-46.08 53,-46.08"/>
</g>
<!-- Node3 -->
<g id="node3" class="node">
<title>Node3</title>
<g id="a_node3"><a xlink:href="structdrain_1_1UnaryFunctor.html" target="_top" xlink:title=" ">
<polygon fill="white" stroke="black" points="15.5,-112.5 15.5,-131.5 97.5,-131.5 97.5,-112.5 15.5,-112.5"/>
<text text-anchor="middle" x="56.5" y="-119.5" font-family="Helvetica,sans-Serif" font-size="10.00">UnaryFunctor</text>
</a>
</g>
</g>
<!-- Node3&#45;&gt;Node2 -->
<g id="edge2" class="edge">
<title>Node3&#45;&gt;Node2</title>
<path fill="none" stroke="midnightblue" d="M56.5,-101.8C56.5,-92.91 56.5,-82.78 56.5,-75.75"/>
<polygon fill="midnightblue" stroke="midnightblue" points="53,-102.08 56.5,-112.08 60,-102.08 53,-102.08"/>
</g>
<!-- Node4 -->
<g id="node4" class="node">
<title>Node4</title>
<g id="a_node4"><a xlink:href="classdrain_1_1Functor.html" target="_top" xlink:title="Base class for sequential computations. Optional scaling utilities.">
<polygon fill="white" stroke="black" points="30,-168.5 30,-187.5 83,-187.5 83,-168.5 30,-168.5"/>
<text text-anchor="middle" x="56.5" y="-175.5" font-family="Helvetica,sans-Serif" font-size="10.00">Functor</text>
</a>
</g>
</g>
<!-- Node4&#45;&gt;Node3 -->
<g id="edge3" class="edge">
<title>Node4&#45;&gt;Node3</title>
<path fill="none" stroke="midnightblue" d="M56.5,-157.8C56.5,-148.91 56.5,-138.78 56.5,-131.75"/>
<polygon fill="midnightblue" stroke="midnightblue" points="53,-158.08 56.5,-168.08 60,-158.08 53,-158.08"/>
</g>
<!-- Node5 -->
<g id="node5" class="node">
<title>Node5</title>
<g id="a_node5"><a xlink:href="classdrain_1_1BeanLike.html" target="_top" xlink:title="Something which has a name, a description and possibly some parameters of varying type.">
<polygon fill="white" stroke="black" points="26,-224.5 26,-243.5 87,-243.5 87,-224.5 26,-224.5"/>
<text text-anchor="middle" x="56.5" y="-231.5" font-family="Helvetica,sans-Serif" font-size="10.00">BeanLike</text>
</a>
</g>
</g>
<!-- Node5&#45;&gt;Node4 -->
<g id="edge4" class="edge">
<title>Node5&#45;&gt;Node4</title>
<path fill="none" stroke="midnightblue" d="M56.5,-213.8C56.5,-204.91 56.5,-194.78 56.5,-187.75"/>
<polygon fill="midnightblue" stroke="midnightblue" points="53,-214.08 56.5,-224.08 60,-214.08 53,-214.08"/>
</g>
</g>
</svg>
