<?xml version="1.0" encoding="UTF-8" standalone="no"?>
<!DOCTYPE svg PUBLIC "-//W3C//DTD SVG 1.1//EN"
 "http://www.w3.org/Graphics/SVG/1.1/DTD/svg11.dtd">
<!-- Generated by graphviz version 2.43.0 (0)
 -->
<!-- Title: ProductOp&lt; MS, MD &gt; Pages: 1 -->
<svg width="164pt" height="140pt"
 viewBox="0.00 0.00 163.50 140.00" xmlns="http://www.w3.org/2000/svg" xmlns:xlink="http://www.w3.org/1999/xlink">
<g id="graph0" class="graph" transform="scale(1 1) rotate(0) translate(4 136)">
<title>ProductOp&lt; MS, MD &gt;</title>
<polygon fill="white" stroke="transparent" points="-4,4 -4,-136 159.5,-136 159.5,4 -4,4"/>
<!-- Node1 -->
<g id="node1" class="node">
<title>Node1</title>
<g id="a_node1"><a xlink:title="Polar and Cartesian products.">
<polygon fill="#bfbfbf" stroke="black" points="17.5,-0.5 17.5,-19.5 144.5,-19.5 144.5,-0.5 17.5,-0.5"/>
<text text-anchor="middle" x="81" y="-7.5" font-family="Helvetica,sans-Serif" font-size="10.00">ProductOp&lt; MS, MD &gt;</text>
</a>
</g>
</g>
<!-- Node2 -->
<g id="node2" class="node">
<title>Node2</title>
<g id="a_node2"><a xlink:href="classrack_1_1ProductBase.html" target="_top" xlink:title="Base class for radar data processors. Input can be in polar or Cartesian coordinates.">
<polygon fill="white" stroke="black" points="42.5,-56.5 42.5,-75.5 119.5,-75.5 119.5,-56.5 42.5,-56.5"/>
<text text-anchor="middle" x="81" y="-63.5" font-family="Helvetica,sans-Serif" font-size="10.00">ProductBase</text>
</a>
</g>
</g>
<!-- Node2&#45;&gt;Node1 -->
<g id="edge1" class="edge">
<title>Node2&#45;&gt;Node1</title>
<path fill="none" stroke="midnightblue" d="M81,-45.8C81,-36.91 81,-26.78 81,-19.75"/>
<polygon fill="midnightblue" stroke="midnightblue" points="77.5,-46.08 81,-56.08 84.5,-46.08 77.5,-46.08"/>
</g>
<!-- Node3 -->
<g id="node3" class="node">
<title>Node3</title>
<g id="a_node3"><a xlink:href="structrack_1_1ProductConf.html" target="_top" xlink:title="Shared properties for meteorological products and Cartesian products (composites and single&#45;radar ima...">
<polygon fill="white" stroke="black" points="0,-112.5 0,-131.5 76,-131.5 76,-112.5 0,-112.5"/>
<text text-anchor="middle" x="38" y="-119.5" font-family="Helvetica,sans-Serif" font-size="10.00">ProductConf</text>
</a>
</g>
</g>
<!-- Node3&#45;&gt;Node2 -->
<g id="edge2" class="edge">
<title>Node3&#45;&gt;Node2</title>
<path fill="none" stroke="midnightblue" d="M51.42,-104.14C58.91,-94.74 67.94,-83.4 74.03,-75.75"/>
<polygon fill="midnightblue" stroke="midnightblue" points="48.59,-102.08 45.1,-112.08 54.07,-106.44 48.59,-102.08"/>
</g>
<!-- Node4 -->
<g id="node4" class="node">
<title>Node4</title>
<g id="a_node4"><a xlink:href="classdrain_1_1BeanLike.html" target="_top" xlink:title="Something which has a name, a description and possibly some parameters of varying type.">
<polygon fill="white" stroke="black" points="94.5,-112.5 94.5,-131.5 155.5,-131.5 155.5,-112.5 94.5,-112.5"/>
<text text-anchor="middle" x="125" y="-119.5" font-family="Helvetica,sans-Serif" font-size="10.00">BeanLike</text>
</a>
</g>
</g>
<!-- Node4&#45;&gt;Node2 -->
<g id="edge3" class="edge">
<title>Node4&#45;&gt;Node2</title>
<path fill="none" stroke="midnightblue" d="M111.27,-104.14C103.6,-94.74 94.37,-83.4 88.13,-75.75"/>
<polygon fill="midnightblue" stroke="midnightblue" points="108.7,-106.54 117.73,-112.08 114.13,-102.12 108.7,-106.54"/>
</g>
</g>
</svg>
