<?xml version="1.0" encoding="UTF-8" standalone="no"?>
<!DOCTYPE svg PUBLIC "-//W3C//DTD SVG 1.1//EN"
 "http://www.w3.org/Graphics/SVG/1.1/DTD/svg11.dtd">
<!-- Generated by graphviz version 2.43.0 (0)
 -->
<!-- Title: Type Pages: 1 -->
<svg width="99pt" height="106pt"
 viewBox="0.00 0.00 98.50 106.00" xmlns="http://www.w3.org/2000/svg" xmlns:xlink="http://www.w3.org/1999/xlink">
<g id="graph0" class="graph" transform="scale(1 1) rotate(0) translate(4 102)">
<title>Type</title>
<polygon fill="white" stroke="transparent" points="-4,4 -4,-102 94.5,-102 94.5,4 -4,4"/>
<!-- Node1 -->
<g id="node1" class="node">
<title>Node1</title>
<g id="a_node1"><a xlink:title="Utilities related to stl::type_info.">
<polygon fill="#bfbfbf" stroke="black" points="7,-0.5 7,-19.5 46,-19.5 46,-0.5 7,-0.5"/>
<text text-anchor="middle" x="26.5" y="-7.5" font-family="Helvetica,sans-Serif" font-size="10.00">Type</text>
</a>
</g>
</g>
<!-- Node2 -->
<g id="node2" class="node">
<title>Node2</title>
<g id="a_node2"><a xlink:href="classdrain_1_1RegExp.html" target="_top" xlink:title=" ">
<polygon fill="white" stroke="black" points="0,-78.5 0,-97.5 53,-97.5 53,-78.5 0,-78.5"/>
<text text-anchor="middle" x="26.5" y="-85.5" font-family="Helvetica,sans-Serif" font-size="10.00">RegExp</text>
</a>
</g>
</g>
<!-- Node2&#45;&gt;Node1 -->
<g id="edge1" class="edge">
<title>Node2&#45;&gt;Node1</title>
<path fill="none" stroke="#9a32cd" stroke-dasharray="5,2" d="M26.5,-68.22C26.5,-52.7 26.5,-31.36 26.5,-19.62"/>
<polygon fill="#9a32cd" stroke="#9a32cd" points="23,-68.28 26.5,-78.28 30,-68.28 23,-68.28"/>
<text text-anchor="middle" x="58.5" y="-52" font-family="Helvetica,sans-Serif" font-size="10.00"> falseRegExp</text>
<text text-anchor="middle" x="58.5" y="-41" font-family="Helvetica,sans-Serif" font-size="10.00">trueRegExp</text>
</g>
</g>
</svg>
