<?xml version="1.0" encoding="UTF-8" standalone="no"?>
<!DOCTYPE svg PUBLIC "-//W3C//DTD SVG 1.1//EN"
 "http://www.w3.org/Graphics/SVG/1.1/DTD/svg11.dtd">
<!-- Generated by graphviz version 2.43.0 (0)
 -->
<!-- Title: BasicCommand Pages: 1 -->
<svg width="665pt" height="1734pt"
 viewBox="0.00 0.00 665.00 1734.00" xmlns="http://www.w3.org/2000/svg" xmlns:xlink="http://www.w3.org/1999/xlink">
<g id="graph0" class="graph" transform="scale(1 1) rotate(0) translate(4 1730)">
<title>BasicCommand</title>
<polygon fill="white" stroke="transparent" points="-4,4 -4,-1730 661,-1730 661,4 -4,4"/>
<!-- Node1 -->
<g id="node1" class="node">
<title>Node1</title>
<g id="a_node1"><a xlink:title="Simple implementation of Command: adds name , description and parameters .">
<polygon fill="#bfbfbf" stroke="black" points="209,-870.5 209,-889.5 302,-889.5 302,-870.5 209,-870.5"/>
<text text-anchor="middle" x="255.5" y="-877.5" font-family="Helvetica,sans-Serif" font-size="10.00">BasicCommand</text>
</a>
</g>
</g>
<!-- Node4 -->
<g id="node4" class="node">
<title>Node4</title>
<g id="a_node4"><a xlink:href="structComputeCmd.html" target="_top" xlink:title=" ">
<polygon fill="white" stroke="black" points="374.5,-1706.5 374.5,-1725.5 457.5,-1725.5 457.5,-1706.5 374.5,-1706.5"/>
<text text-anchor="middle" x="416" y="-1713.5" font-family="Helvetica,sans-Serif" font-size="10.00">ComputeCmd</text>
</a>
</g>
</g>
<!-- Node1&#45;&gt;Node4 -->
<g id="edge3" class="edge">
<title>Node1&#45;&gt;Node4</title>
<path fill="none" stroke="midnightblue" d="M257.13,-899.99C261.1,-1019.33 284.07,-1634.78 338,-1697 347.02,-1707.4 360.74,-1712.58 374.12,-1715.02"/>
<polygon fill="midnightblue" stroke="midnightblue" points="260.62,-899.63 256.8,-889.75 253.63,-899.86 260.62,-899.63"/>
</g>
<!-- Node5 -->
<g id="node5" class="node">
<title>Node5</title>
<g id="a_node5"><a xlink:href="classdrain_1_1CmdDebug.html" target="_top" xlink:title=" ">
<polygon fill="white" stroke="black" points="380.5,-1668.5 380.5,-1687.5 451.5,-1687.5 451.5,-1668.5 380.5,-1668.5"/>
<text text-anchor="middle" x="416" y="-1675.5" font-family="Helvetica,sans-Serif" font-size="10.00">CmdDebug</text>
</a>
</g>
</g>
<!-- Node1&#45;&gt;Node5 -->
<g id="edge4" class="edge">
<title>Node1&#45;&gt;Node5</title>
<path fill="none" stroke="midnightblue" d="M257.23,-899.77C261.66,-1015.28 286.52,-1599.89 338,-1659 348.4,-1670.94 364.99,-1675.99 380.12,-1677.92"/>
<polygon fill="midnightblue" stroke="midnightblue" points="260.72,-899.43 256.84,-889.57 253.72,-899.69 260.72,-899.43"/>
</g>
<!-- Node6 -->
<g id="node6" class="node">
<title>Node6</title>
<g id="a_node6"><a xlink:href="classdrain_1_1CmdExecScript.html" target="_top" xlink:title="Executes the defined script.">
<polygon fill="white" stroke="black" points="371,-1630.5 371,-1649.5 461,-1649.5 461,-1630.5 371,-1630.5"/>
<text text-anchor="middle" x="416" y="-1637.5" font-family="Helvetica,sans-Serif" font-size="10.00">CmdExecScript</text>
</a>
</g>
</g>
<!-- Node1&#45;&gt;Node6 -->
<g id="edge5" class="edge">
<title>Node1&#45;&gt;Node6</title>
<path fill="none" stroke="midnightblue" d="M257.34,-899.84C262.29,-1012.15 289,-1565.05 338,-1621 346.35,-1630.53 358.64,-1635.66 370.96,-1638.33"/>
<polygon fill="midnightblue" stroke="midnightblue" points="260.83,-899.45 256.9,-889.62 253.84,-899.76 260.83,-899.45"/>
</g>
<!-- Node7 -->
<g id="node7" class="node">
<title>Node7</title>
<g id="a_node7"><a xlink:href="classdrain_1_1CmdExpandVariables.html" target="_top" xlink:title=" ">
<polygon fill="white" stroke="black" points="355.5,-1592.5 355.5,-1611.5 476.5,-1611.5 476.5,-1592.5 355.5,-1592.5"/>
<text text-anchor="middle" x="416" y="-1599.5" font-family="Helvetica,sans-Serif" font-size="10.00">CmdExpandVariables</text>
</a>
</g>
</g>
<!-- Node1&#45;&gt;Node7 -->
<g id="edge6" class="edge">
<title>Node1&#45;&gt;Node7</title>
<path fill="none" stroke="midnightblue" d="M257.47,-899.83C262.94,-1008.65 291.47,-1530.18 338,-1583 342.73,-1588.37 348.72,-1592.35 355.26,-1595.27"/>
<polygon fill="midnightblue" stroke="midnightblue" points="260.95,-899.44 256.96,-889.63 253.96,-899.79 260.95,-899.44"/>
</g>
<!-- Node9 -->
<g id="node9" class="node">
<title>Node9</title>
<g id="a_node9"><a xlink:href="classdrain_1_1CmdStatus.html" target="_top" xlink:title=" ">
<polygon fill="white" stroke="black" points="381,-1554.5 381,-1573.5 451,-1573.5 451,-1554.5 381,-1554.5"/>
<text text-anchor="middle" x="416" y="-1561.5" font-family="Helvetica,sans-Serif" font-size="10.00">CmdStatus</text>
</a>
</g>
</g>
<!-- Node1&#45;&gt;Node9 -->
<g id="edge8" class="edge">
<title>Node1&#45;&gt;Node9</title>
<path fill="none" stroke="midnightblue" d="M257.6,-899.74C263.62,-1004.79 293.93,-1495.3 338,-1545 348.6,-1556.95 365.4,-1561.97 380.61,-1563.89"/>
<polygon fill="midnightblue" stroke="midnightblue" points="261.08,-899.38 257.02,-889.59 254.09,-899.78 261.08,-899.38"/>
</g>
<!-- Node10 -->
<g id="node10" class="node">
<title>Node10</title>
<g id="a_node10"><a xlink:href="classdrain_1_1SimpleCommand.html" target="_top" xlink:title="A single&#45;parameter command.">
<polygon fill="white" stroke="black" points="351.5,-1516.5 351.5,-1535.5 480.5,-1535.5 480.5,-1516.5 351.5,-1516.5"/>
<text text-anchor="middle" x="416" y="-1523.5" font-family="Helvetica,sans-Serif" font-size="10.00">SimpleCommand&lt; T &gt;</text>
</a>
</g>
</g>
<!-- Node1&#45;&gt;Node10 -->
<g id="edge9" class="edge">
<title>Node1&#45;&gt;Node10</title>
<path fill="none" stroke="midnightblue" d="M256.2,-899.62C255.11,-995.55 255.26,-1414.37 338,-1507 341.76,-1511.21 346.29,-1514.56 351.25,-1517.21"/>
<polygon fill="midnightblue" stroke="midnightblue" points="259.7,-899.61 256.33,-889.56 252.7,-899.52 259.7,-899.61"/>
</g>
<!-- Node11 -->
<g id="node11" class="node">
<title>Node11</title>
<g id="a_node11"><a xlink:href="classrack_1_1CartesianBBox.html" target="_top" xlink:title=" ">
<polygon fill="white" stroke="black" points="371.5,-1478.5 371.5,-1497.5 460.5,-1497.5 460.5,-1478.5 371.5,-1478.5"/>
<text text-anchor="middle" x="416" y="-1485.5" font-family="Helvetica,sans-Serif" font-size="10.00">CartesianBBox</text>
</a>
</g>
</g>
<!-- Node1&#45;&gt;Node11 -->
<g id="edge10" class="edge">
<title>Node1&#45;&gt;Node11</title>
<path fill="none" stroke="midnightblue" d="M256.38,-899.89C256.22,-992.73 260.24,-1382.66 338,-1469 346.48,-1478.41 358.81,-1483.51 371.12,-1486.19"/>
<polygon fill="midnightblue" stroke="midnightblue" points="259.88,-899.88 256.41,-889.86 252.88,-899.85 259.88,-899.88"/>
</g>
<!-- Node12 -->
<g id="node12" class="node">
<title>Node12</title>
<g id="a_node12"><a xlink:href="classrack_1_1CartesianBBoxReset.html" target="_top" xlink:title=" ">
<polygon fill="white" stroke="black" points="358,-1440.5 358,-1459.5 474,-1459.5 474,-1440.5 358,-1440.5"/>
<text text-anchor="middle" x="416" y="-1447.5" font-family="Helvetica,sans-Serif" font-size="10.00">CartesianBBoxReset</text>
</a>
</g>
</g>
<!-- Node1&#45;&gt;Node12 -->
<g id="edge11" class="edge">
<title>Node1&#45;&gt;Node12</title>
<path fill="none" stroke="midnightblue" d="M256.58,-899.71C257.38,-988.55 265.09,-1350.8 338,-1431 343.37,-1436.91 350.26,-1441.12 357.71,-1444.09"/>
<polygon fill="midnightblue" stroke="midnightblue" points="260.08,-899.63 256.52,-889.65 253.08,-899.68 260.08,-899.63"/>
</g>
<!-- Node13 -->
<g id="node13" class="node">
<title>Node13</title>
<g id="a_node13"><a xlink:href="classrack_1_1CartesianBBoxTest.html" target="_top" xlink:title=" ">
<polygon fill="white" stroke="black" points="362,-1402.5 362,-1421.5 470,-1421.5 470,-1402.5 362,-1402.5"/>
<text text-anchor="middle" x="416" y="-1409.5" font-family="Helvetica,sans-Serif" font-size="10.00">CartesianBBoxTest</text>
</a>
</g>
</g>
<!-- Node1&#45;&gt;Node13 -->
<g id="edge12" class="edge">
<title>Node1&#45;&gt;Node13</title>
<path fill="none" stroke="midnightblue" d="M256.83,-899.96C258.64,-985.36 270.03,-1319.04 338,-1393 344.34,-1399.89 352.74,-1404.47 361.66,-1407.46"/>
<polygon fill="midnightblue" stroke="midnightblue" points="260.32,-899.74 256.63,-889.81 253.33,-899.87 260.32,-899.74"/>
</g>
<!-- Node14 -->
<g id="node14" class="node">
<title>Node14</title>
<g id="a_node14"><a xlink:href="classrack_1_1CartesianBBoxTile.html" target="_top" xlink:title=" ">
<polygon fill="white" stroke="black" points="363,-1364.5 363,-1383.5 469,-1383.5 469,-1364.5 363,-1364.5"/>
<text text-anchor="middle" x="416" y="-1371.5" font-family="Helvetica,sans-Serif" font-size="10.00">CartesianBBoxTile</text>
</a>
</g>
</g>
<!-- Node1&#45;&gt;Node14 -->
<g id="edge13" class="edge">
<title>Node1&#45;&gt;Node14</title>
<path fill="none" stroke="midnightblue" d="M257.12,-900.27C260.02,-982.15 274.98,-1287.28 338,-1355 344.66,-1362.16 353.55,-1366.81 362.92,-1369.79"/>
<polygon fill="midnightblue" stroke="midnightblue" points="260.6,-899.75 256.77,-889.87 253.61,-899.98 260.6,-899.75"/>
</g>
<!-- Node15 -->
<g id="node15" class="node">
<title>Node15</title>
<g id="a_node15"><a xlink:href="classrack_1_1CartesianGrid.html" target="_top" xlink:title=" ">
<polygon fill="white" stroke="black" points="374.5,-1326.5 374.5,-1345.5 457.5,-1345.5 457.5,-1326.5 374.5,-1326.5"/>
<text text-anchor="middle" x="416" y="-1333.5" font-family="Helvetica,sans-Serif" font-size="10.00">CartesianGrid</text>
</a>
</g>
</g>
<!-- Node1&#45;&gt;Node15 -->
<g id="edge14" class="edge">
<title>Node1&#45;&gt;Node15</title>
<path fill="none" stroke="midnightblue" d="M257.44,-900.13C261.47,-977.61 279.8,-1255.35 338,-1317 347.36,-1326.91 360.99,-1332 374.2,-1334.51"/>
<polygon fill="midnightblue" stroke="midnightblue" points="260.92,-899.65 256.93,-889.83 253.93,-900 260.92,-899.65"/>
</g>
<!-- Node16 -->
<g id="node16" class="node">
<title>Node16</title>
<g id="a_node16"><a xlink:href="classrack_1_1CartesianInit.html" target="_top" xlink:title=" ">
<polygon fill="white" stroke="black" points="376.5,-1288.5 376.5,-1307.5 455.5,-1307.5 455.5,-1288.5 376.5,-1288.5"/>
<text text-anchor="middle" x="416" y="-1295.5" font-family="Helvetica,sans-Serif" font-size="10.00">CartesianInit</text>
</a>
</g>
</g>
<!-- Node1&#45;&gt;Node16 -->
<g id="edge15" class="edge">
<title>Node1&#45;&gt;Node16</title>
<path fill="none" stroke="midnightblue" d="M257.8,-899.77C262.99,-972.42 284.54,-1223.34 338,-1279 347.92,-1289.33 362.49,-1294.4 376.29,-1296.78"/>
<polygon fill="midnightblue" stroke="midnightblue" points="261.29,-899.43 257.11,-889.7 254.3,-899.91 261.29,-899.43"/>
</g>
<!-- Node17 -->
<g id="node17" class="node">
<title>Node17</title>
<g id="a_node17"><a xlink:href="classrack_1_1CartesianPlot.html" target="_top" xlink:title=" ">
<polygon fill="white" stroke="black" points="375,-1250.5 375,-1269.5 457,-1269.5 457,-1250.5 375,-1250.5"/>
<text text-anchor="middle" x="416" y="-1257.5" font-family="Helvetica,sans-Serif" font-size="10.00">CartesianPlot</text>
</a>
</g>
</g>
<!-- Node1&#45;&gt;Node17 -->
<g id="edge16" class="edge">
<title>Node1&#45;&gt;Node17</title>
<path fill="none" stroke="midnightblue" d="M258.29,-900.05C264.8,-968.51 289.42,-1191.45 338,-1241 347.64,-1250.83 361.5,-1255.88 374.81,-1258.39"/>
<polygon fill="midnightblue" stroke="midnightblue" points="261.75,-899.42 257.34,-889.79 254.78,-900.07 261.75,-899.42"/>
</g>
<!-- Node18 -->
<g id="node18" class="node">
<title>Node18</title>
<g id="a_node18"><a xlink:href="classrack_1_1CartesianRange.html" target="_top" xlink:title=" ">
<polygon fill="white" stroke="black" points="369,-1212.5 369,-1231.5 463,-1231.5 463,-1212.5 369,-1212.5"/>
<text text-anchor="middle" x="416" y="-1219.5" font-family="Helvetica,sans-Serif" font-size="10.00">CartesianRange</text>
</a>
</g>
</g>
<!-- Node1&#45;&gt;Node18 -->
<g id="edge17" class="edge">
<title>Node1&#45;&gt;Node18</title>
<path fill="none" stroke="midnightblue" d="M258.85,-899.97C266.73,-963.52 294.19,-1159.42 338,-1203 346.3,-1211.25 357.57,-1216.12 368.94,-1218.94"/>
<polygon fill="midnightblue" stroke="midnightblue" points="262.29,-899.22 257.61,-889.71 255.34,-900.06 262.29,-899.22"/>
</g>
<!-- Node19 -->
<g id="node19" class="node">
<title>Node19</title>
<g id="a_node19"><a xlink:href="classrack_1_1CartesianReset.html" target="_top" xlink:title="Creates a single&#45;radar Cartesian data set (2D data of both quantity and quality).">
<polygon fill="white" stroke="black" points="370.5,-1174.5 370.5,-1193.5 461.5,-1193.5 461.5,-1174.5 370.5,-1174.5"/>
<text text-anchor="middle" x="416" y="-1181.5" font-family="Helvetica,sans-Serif" font-size="10.00">CartesianReset</text>
</a>
</g>
</g>
<!-- Node1&#45;&gt;Node19 -->
<g id="edge18" class="edge">
<title>Node1&#45;&gt;Node19</title>
<path fill="none" stroke="midnightblue" d="M255.88,-899.66C255.39,-951.18 261.53,-1091.28 338,-1165 346.72,-1173.41 358.55,-1178.28 370.31,-1181.06"/>
<polygon fill="midnightblue" stroke="midnightblue" points="259.38,-899.62 256.08,-889.55 252.38,-899.48 259.38,-899.62"/>
</g>
<!-- Node20 -->
<g id="node20" class="node">
<title>Node20</title>
<g id="a_node20"><a xlink:href="classrack_1_1CartesianSize.html" target="_top" xlink:title=" ">
<polygon fill="white" stroke="black" points="374.5,-1136.5 374.5,-1155.5 457.5,-1155.5 457.5,-1136.5 374.5,-1136.5"/>
<text text-anchor="middle" x="416" y="-1143.5" font-family="Helvetica,sans-Serif" font-size="10.00">CartesianSize</text>
</a>
</g>
</g>
<!-- Node1&#45;&gt;Node20 -->
<g id="edge19" class="edge">
<title>Node1&#45;&gt;Node20</title>
<path fill="none" stroke="midnightblue" d="M256.89,-899.52C258.93,-946.15 270.81,-1064.79 338,-1127 347.8,-1136.07 361.23,-1141 374.13,-1143.62"/>
<polygon fill="midnightblue" stroke="midnightblue" points="260.39,-899.4 256.56,-889.52 253.39,-899.63 260.39,-899.4"/>
</g>
<!-- Node21 -->
<g id="node21" class="node">
<title>Node21</title>
<g id="a_node21"><a xlink:href="classrack_1_1CartesianSpread.html" target="_top" xlink:title=" ">
<polygon fill="white" stroke="black" points="367.5,-1098.5 367.5,-1117.5 464.5,-1117.5 464.5,-1098.5 367.5,-1098.5"/>
<text text-anchor="middle" x="416" y="-1105.5" font-family="Helvetica,sans-Serif" font-size="10.00">CartesianSpread</text>
</a>
</g>
</g>
<!-- Node1&#45;&gt;Node21 -->
<g id="edge20" class="edge">
<title>Node1&#45;&gt;Node21</title>
<path fill="none" stroke="midnightblue" d="M258.27,-899.84C263.08,-941.48 280.21,-1038.27 338,-1089 346.17,-1096.18 356.64,-1100.73 367.2,-1103.6"/>
<polygon fill="midnightblue" stroke="midnightblue" points="261.73,-899.24 257.22,-889.65 254.76,-899.96 261.73,-899.24"/>
</g>
<!-- Node22 -->
<g id="node22" class="node">
<title>Node22</title>
<g id="a_node22"><a xlink:href="classrack_1_1CmdCheckType.html" target="_top" xlink:title="Default handler for requests without own handler. Handles options that are recognized as 1) files to ...">
<polygon fill="white" stroke="black" points="370,-1060.5 370,-1079.5 462,-1079.5 462,-1060.5 370,-1060.5"/>
<text text-anchor="middle" x="416" y="-1067.5" font-family="Helvetica,sans-Serif" font-size="10.00">CmdCheckType</text>
</a>
</g>
</g>
<!-- Node1&#45;&gt;Node22 -->
<g id="edge21" class="edge">
<title>Node1&#45;&gt;Node22</title>
<path fill="none" stroke="midnightblue" d="M260.14,-899.63C267.84,-935.42 289.24,-1011.25 338,-1051 347.07,-1058.4 358.61,-1062.97 369.97,-1065.79"/>
<polygon fill="midnightblue" stroke="midnightblue" points="263.51,-898.63 258.11,-889.51 256.65,-900.01 263.51,-898.63"/>
</g>
<!-- Node23 -->
<g id="node23" class="node">
<title>Node23</title>
<g id="a_node23"><a xlink:href="classrack_1_1CmdCompleteODIM.html" target="_top" xlink:title=" ">
<polygon fill="white" stroke="black" points="359.5,-1022.5 359.5,-1041.5 472.5,-1041.5 472.5,-1022.5 359.5,-1022.5"/>
<text text-anchor="middle" x="416" y="-1029.5" font-family="Helvetica,sans-Serif" font-size="10.00">CmdCompleteODIM</text>
</a>
</g>
</g>
<!-- Node1&#45;&gt;Node23 -->
<g id="edge22" class="edge">
<title>Node1&#45;&gt;Node23</title>
<path fill="none" stroke="midnightblue" d="M262.92,-899.34C273.65,-928.61 298.09,-983.81 338,-1013 344.33,-1017.63 351.67,-1021.15 359.24,-1023.81"/>
<polygon fill="midnightblue" stroke="midnightblue" points="266.19,-898.11 259.58,-889.83 259.59,-900.43 266.19,-898.11"/>
</g>
<!-- Node24 -->
<g id="node24" class="node">
<title>Node24</title>
<g id="a_node24"><a xlink:href="classrack_1_1CmdConvert.html" target="_top" xlink:title=" ">
<polygon fill="white" stroke="black" points="377.5,-984.5 377.5,-1003.5 454.5,-1003.5 454.5,-984.5 377.5,-984.5"/>
<text text-anchor="middle" x="416" y="-991.5" font-family="Helvetica,sans-Serif" font-size="10.00">CmdConvert</text>
</a>
</g>
</g>
<!-- Node1&#45;&gt;Node24 -->
<g id="edge23" class="edge">
<title>Node1&#45;&gt;Node24</title>
<path fill="none" stroke="midnightblue" d="M267.09,-898.12C280.7,-919.79 306.41,-955.55 338,-975 349.73,-982.22 364.04,-986.7 377.13,-989.47"/>
<polygon fill="midnightblue" stroke="midnightblue" points="270.04,-896.25 261.86,-889.53 264.07,-899.89 270.04,-896.25"/>
</g>
<!-- Node25 -->
<g id="node25" class="node">
<title>Node25</title>
<g id="a_node25"><a xlink:href="classrack_1_1CmdCreateDefaultQuality.html" target="_top" xlink:title=" ">
<polygon fill="white" stroke="black" points="344.5,-946.5 344.5,-965.5 487.5,-965.5 487.5,-946.5 344.5,-946.5"/>
<text text-anchor="middle" x="416" y="-953.5" font-family="Helvetica,sans-Serif" font-size="10.00">CmdCreateDefaultQuality</text>
</a>
</g>
</g>
<!-- Node1&#45;&gt;Node25 -->
<g id="edge24" class="edge">
<title>Node1&#45;&gt;Node25</title>
<path fill="none" stroke="midnightblue" d="M275.19,-896.11C290.97,-908.92 314.65,-926.4 338,-937 346.4,-940.81 355.68,-943.93 364.8,-946.46"/>
<polygon fill="midnightblue" stroke="midnightblue" points="277.22,-893.24 267.3,-889.54 272.75,-898.62 277.22,-893.24"/>
</g>
<!-- Node26 -->
<g id="node26" class="node">
<title>Node26</title>
<g id="a_node26"><a xlink:href="classrack_1_1CmdDumpMap.html" target="_top" xlink:title=" ">
<polygon fill="white" stroke="black" points="371.5,-908.5 371.5,-927.5 460.5,-927.5 460.5,-908.5 371.5,-908.5"/>
<text text-anchor="middle" x="416" y="-915.5" font-family="Helvetica,sans-Serif" font-size="10.00">CmdDumpMap</text>
</a>
</g>
</g>
<!-- Node1&#45;&gt;Node26 -->
<g id="edge25" class="edge">
<title>Node1&#45;&gt;Node26</title>
<path fill="none" stroke="midnightblue" d="M306.42,-891.97C328.63,-897.29 354.42,-903.48 375.29,-908.48"/>
<polygon fill="midnightblue" stroke="midnightblue" points="307.04,-888.52 296.5,-889.59 305.4,-895.32 307.04,-888.52"/>
</g>
<!-- Node27 -->
<g id="node27" class="node">
<title>Node27</title>
<g id="a_node27"><a xlink:href="classrack_1_1CmdGeoTiffTile.html" target="_top" xlink:title=" ">
<polygon fill="white" stroke="black" points="370,-870.5 370,-889.5 462,-889.5 462,-870.5 370,-870.5"/>
<text text-anchor="middle" x="416" y="-877.5" font-family="Helvetica,sans-Serif" font-size="10.00">CmdGeoTiffTile</text>
</a>
</g>
</g>
<!-- Node1&#45;&gt;Node27 -->
<g id="edge26" class="edge">
<title>Node1&#45;&gt;Node27</title>
<path fill="none" stroke="midnightblue" d="M312.54,-880C331.31,-880 351.98,-880 369.81,-880"/>
<polygon fill="midnightblue" stroke="midnightblue" points="312.34,-876.5 302.34,-880 312.34,-883.5 312.34,-876.5"/>
</g>
<!-- Node28 -->
<g id="node28" class="node">
<title>Node28</title>
<g id="a_node28"><a xlink:href="classrack_1_1CmdHistogram.html" target="_top" xlink:title="TODO: generalize to array outfile.">
<polygon fill="white" stroke="black" points="371,-832.5 371,-851.5 461,-851.5 461,-832.5 371,-832.5"/>
<text text-anchor="middle" x="416" y="-839.5" font-family="Helvetica,sans-Serif" font-size="10.00">CmdHistogram</text>
</a>
</g>
</g>
<!-- Node1&#45;&gt;Node28 -->
<g id="edge27" class="edge">
<title>Node1&#45;&gt;Node28</title>
<path fill="none" stroke="midnightblue" d="M306.42,-868.03C328.63,-862.71 354.42,-856.52 375.29,-851.52"/>
<polygon fill="midnightblue" stroke="midnightblue" points="305.4,-864.68 296.5,-870.41 307.04,-871.48 305.4,-864.68"/>
</g>
<!-- Node29 -->
<g id="node29" class="node">
<title>Node29</title>
<g id="a_node29"><a xlink:href="classrack_1_1CmdImage.html" target="_top" xlink:title=" ">
<polygon fill="white" stroke="black" points="381,-794.5 381,-813.5 451,-813.5 451,-794.5 381,-794.5"/>
<text text-anchor="middle" x="416" y="-801.5" font-family="Helvetica,sans-Serif" font-size="10.00">CmdImage</text>
</a>
</g>
</g>
<!-- Node1&#45;&gt;Node29 -->
<g id="edge28" class="edge">
<title>Node1&#45;&gt;Node29</title>
<path fill="none" stroke="midnightblue" d="M275.19,-863.89C290.97,-851.08 314.65,-833.6 338,-823 351.42,-816.91 367.07,-812.59 380.74,-809.63"/>
<polygon fill="midnightblue" stroke="midnightblue" points="272.75,-861.38 267.3,-870.46 277.22,-866.76 272.75,-861.38"/>
</g>
<!-- Node30 -->
<g id="node30" class="node">
<title>Node30</title>
<g id="a_node30"><a xlink:href="classrack_1_1CmdImageAlphaBase.html" target="_top" xlink:title=" ">
<polygon fill="white" stroke="red" points="355,-756.5 355,-775.5 477,-775.5 477,-756.5 355,-756.5"/>
<text text-anchor="middle" x="416" y="-763.5" font-family="Helvetica,sans-Serif" font-size="10.00">CmdImageAlphaBase</text>
</a>
</g>
</g>
<!-- Node1&#45;&gt;Node30 -->
<g id="edge29" class="edge">
<title>Node1&#45;&gt;Node30</title>
<path fill="none" stroke="midnightblue" d="M267.09,-861.88C280.7,-840.21 306.41,-804.45 338,-785 344.33,-781.1 351.42,-778 358.66,-775.54"/>
<polygon fill="midnightblue" stroke="midnightblue" points="264.07,-860.11 261.86,-870.47 270.04,-863.75 264.07,-860.11"/>
</g>
<!-- Node33 -->
<g id="node31" class="node">
<title>Node33</title>
<g id="a_node31"><a xlink:href="classrack_1_1CmdImageQuality.html" target="_top" xlink:title="Quality groups accepted as alpha channels.">
<polygon fill="white" stroke="black" points="363.5,-718.5 363.5,-737.5 468.5,-737.5 468.5,-718.5 363.5,-718.5"/>
<text text-anchor="middle" x="416" y="-725.5" font-family="Helvetica,sans-Serif" font-size="10.00">CmdImageQuality</text>
</a>
</g>
</g>
<!-- Node1&#45;&gt;Node33 -->
<g id="edge30" class="edge">
<title>Node1&#45;&gt;Node33</title>
<path fill="none" stroke="midnightblue" d="M262.92,-860.66C273.65,-831.39 298.09,-776.19 338,-747 345.45,-741.55 354.27,-737.66 363.24,-734.87"/>
<polygon fill="midnightblue" stroke="midnightblue" points="259.59,-859.57 259.58,-870.17 266.19,-861.89 259.59,-859.57"/>
</g>
<!-- Node34 -->
<g id="node32" class="node">
<title>Node34</title>
<g id="a_node32"><a xlink:href="classrack_1_1CmdMove.html" target="_top" xlink:title="Rename or move data groups and attributes.">
<polygon fill="white" stroke="red" points="383,-680.5 383,-699.5 449,-699.5 449,-680.5 383,-680.5"/>
<text text-anchor="middle" x="416" y="-687.5" font-family="Helvetica,sans-Serif" font-size="10.00">CmdMove</text>
</a>
</g>
</g>
<!-- Node1&#45;&gt;Node34 -->
<g id="edge31" class="edge">
<title>Node1&#45;&gt;Node34</title>
<path fill="none" stroke="midnightblue" d="M260.14,-860.37C267.84,-824.58 289.24,-748.75 338,-709 350.59,-698.73 367.94,-693.89 382.98,-691.66"/>
<polygon fill="midnightblue" stroke="midnightblue" points="256.65,-859.99 258.11,-870.49 263.51,-861.37 256.65,-859.99"/>
</g>
<!-- Node36 -->
<g id="node33" class="node">
<title>Node36</title>
<g id="a_node33"><a xlink:href="classrack_1_1CmdOutputConf.html" target="_top" xlink:title=" ">
<polygon fill="white" stroke="black" points="368.5,-642.5 368.5,-661.5 463.5,-661.5 463.5,-642.5 368.5,-642.5"/>
<text text-anchor="middle" x="416" y="-649.5" font-family="Helvetica,sans-Serif" font-size="10.00">CmdOutputConf</text>
</a>
</g>
</g>
<!-- Node1&#45;&gt;Node36 -->
<g id="edge32" class="edge">
<title>Node1&#45;&gt;Node36</title>
<path fill="none" stroke="midnightblue" d="M258.27,-860.16C263.08,-818.52 280.21,-721.73 338,-671 346.48,-663.55 357.43,-658.93 368.4,-656.08"/>
<polygon fill="midnightblue" stroke="midnightblue" points="254.76,-860.04 257.22,-870.35 261.73,-860.76 254.76,-860.04"/>
</g>
<!-- Node37 -->
<g id="node34" class="node">
<title>Node37</title>
<g id="a_node34"><a xlink:href="classrack_1_1CmdQuantityConf.html" target="_top" xlink:title=" ">
<polygon fill="white" stroke="black" points="364,-604.5 364,-623.5 468,-623.5 468,-604.5 364,-604.5"/>
<text text-anchor="middle" x="416" y="-611.5" font-family="Helvetica,sans-Serif" font-size="10.00">CmdQuantityConf</text>
</a>
</g>
</g>
<!-- Node1&#45;&gt;Node37 -->
<g id="edge33" class="edge">
<title>Node1&#45;&gt;Node37</title>
<path fill="none" stroke="midnightblue" d="M256.89,-860.48C258.93,-813.85 270.81,-695.21 338,-633 345.17,-626.36 354.29,-621.94 363.72,-619.02"/>
<polygon fill="midnightblue" stroke="midnightblue" points="253.39,-860.37 256.56,-870.48 260.39,-860.6 253.39,-860.37"/>
</g>
<!-- Node38 -->
<g id="node35" class="node">
<title>Node38</title>
<g id="a_node35"><a xlink:href="classrack_1_1CmdSweep.html" target="_top" xlink:title="&quot;Virtual&quot; command extracting one sweep &#45; actually only modifying selector">
<polygon fill="white" stroke="black" points="380.5,-566.5 380.5,-585.5 451.5,-585.5 451.5,-566.5 380.5,-566.5"/>
<text text-anchor="middle" x="416" y="-573.5" font-family="Helvetica,sans-Serif" font-size="10.00">CmdSweep</text>
</a>
</g>
</g>
<!-- Node1&#45;&gt;Node38 -->
<g id="edge34" class="edge">
<title>Node1&#45;&gt;Node38</title>
<path fill="none" stroke="midnightblue" d="M255.88,-860.34C255.39,-808.82 261.53,-668.72 338,-595 349.2,-584.2 365.52,-579.23 380.25,-577.05"/>
<polygon fill="midnightblue" stroke="midnightblue" points="252.38,-860.52 256.08,-870.45 259.38,-860.38 252.38,-860.52"/>
</g>
<!-- Node39 -->
<g id="node36" class="node">
<title>Node39</title>
<g id="a_node36"><a xlink:href="classrack_1_1CmdVersion.html" target="_top" xlink:title=" ">
<polygon fill="white" stroke="black" points="378,-528.5 378,-547.5 454,-547.5 454,-528.5 378,-528.5"/>
<text text-anchor="middle" x="416" y="-535.5" font-family="Helvetica,sans-Serif" font-size="10.00">CmdVersion</text>
</a>
</g>
</g>
<!-- Node1&#45;&gt;Node39 -->
<g id="edge35" class="edge">
<title>Node1&#45;&gt;Node39</title>
<path fill="none" stroke="midnightblue" d="M258.85,-860.03C266.73,-796.48 294.19,-600.58 338,-557 348.44,-546.61 363.61,-541.59 377.73,-539.26"/>
<polygon fill="midnightblue" stroke="midnightblue" points="255.34,-859.94 257.61,-870.29 262.29,-860.78 255.34,-859.94"/>
</g>
<!-- Node40 -->
<g id="node37" class="node">
<title>Node40</title>
<g id="a_node37"><a xlink:href="classrack_1_1Compositor.html" target="_top" xlink:title=" ">
<polygon fill="white" stroke="red" points="379.5,-490.5 379.5,-509.5 452.5,-509.5 452.5,-490.5 379.5,-490.5"/>
<text text-anchor="middle" x="416" y="-497.5" font-family="Helvetica,sans-Serif" font-size="10.00">Compositor</text>
</a>
</g>
</g>
<!-- Node1&#45;&gt;Node40 -->
<g id="edge36" class="edge">
<title>Node1&#45;&gt;Node40</title>
<path fill="none" stroke="midnightblue" d="M258.29,-859.95C264.8,-791.49 289.42,-568.55 338,-519 348.7,-508.09 364.6,-503.06 379.17,-500.88"/>
<polygon fill="midnightblue" stroke="midnightblue" points="254.78,-859.93 257.34,-870.21 261.75,-860.58 254.78,-859.93"/>
</g>
<!-- Node46 -->
<g id="node38" class="node">
<title>Node46</title>
<g id="a_node38"><a xlink:href="classrack_1_1PolarAdd.html" target="_top" xlink:title=" ">
<polygon fill="white" stroke="red" points="386,-452.5 386,-471.5 446,-471.5 446,-452.5 386,-452.5"/>
<text text-anchor="middle" x="416" y="-459.5" font-family="Helvetica,sans-Serif" font-size="10.00">PolarAdd</text>
</a>
</g>
</g>
<!-- Node1&#45;&gt;Node46 -->
<g id="edge37" class="edge">
<title>Node1&#45;&gt;Node46</title>
<path fill="none" stroke="midnightblue" d="M257.8,-860.23C262.99,-787.58 284.54,-536.66 338,-481 350.21,-468.29 369.46,-463.54 385.66,-461.97"/>
<polygon fill="midnightblue" stroke="midnightblue" points="254.3,-860.09 257.11,-870.3 261.29,-860.57 254.3,-860.09"/>
</g>
<!-- Node48 -->
<g id="node39" class="node">
<title>Node48</title>
<g id="a_node39"><a xlink:href="classrack_1_1PolarPlot.html" target="_top" xlink:title=" ">
<polygon fill="white" stroke="black" points="386,-414.5 386,-433.5 446,-433.5 446,-414.5 386,-414.5"/>
<text text-anchor="middle" x="416" y="-421.5" font-family="Helvetica,sans-Serif" font-size="10.00">PolarPlot</text>
</a>
</g>
</g>
<!-- Node1&#45;&gt;Node48 -->
<g id="edge38" class="edge">
<title>Node1&#45;&gt;Node48</title>
<path fill="none" stroke="midnightblue" d="M257.44,-859.87C261.47,-782.39 279.8,-504.65 338,-443 350.19,-430.08 369.65,-425.36 385.95,-423.85"/>
<polygon fill="midnightblue" stroke="midnightblue" points="253.93,-860 256.93,-870.17 260.92,-860.35 253.93,-860"/>
</g>
<!-- Node49 -->
<g id="node40" class="node">
<title>Node49</title>
<g id="a_node40"><a xlink:href="classrack_1_1UndetectWeight.html" target="_top" xlink:title=" ">
<polygon fill="white" stroke="black" points="368.5,-376.5 368.5,-395.5 463.5,-395.5 463.5,-376.5 368.5,-376.5"/>
<text text-anchor="middle" x="416" y="-383.5" font-family="Helvetica,sans-Serif" font-size="10.00">UndetectWeight</text>
</a>
</g>
</g>
<!-- Node1&#45;&gt;Node49 -->
<g id="edge39" class="edge">
<title>Node1&#45;&gt;Node49</title>
<path fill="none" stroke="midnightblue" d="M257.12,-859.73C260.02,-777.85 274.98,-472.72 338,-405 345.88,-396.53 356.88,-391.58 368.1,-388.74"/>
<polygon fill="midnightblue" stroke="midnightblue" points="253.61,-860.02 256.77,-870.13 260.6,-860.25 253.61,-860.02"/>
</g>
<!-- Node50 -->
<g id="node41" class="node">
<title>Node50</title>
<g id="a_node41"><a xlink:href="structrack_1_1VerboseCmd.html" target="_top" xlink:title=" ">
<polygon fill="white" stroke="black" points="376.5,-338.5 376.5,-357.5 455.5,-357.5 455.5,-338.5 376.5,-338.5"/>
<text text-anchor="middle" x="416" y="-345.5" font-family="Helvetica,sans-Serif" font-size="10.00">VerboseCmd</text>
</a>
</g>
</g>
<!-- Node1&#45;&gt;Node50 -->
<g id="edge40" class="edge">
<title>Node1&#45;&gt;Node50</title>
<path fill="none" stroke="midnightblue" d="M256.83,-860.04C258.64,-774.64 270.03,-440.96 338,-367 347.78,-356.36 362.49,-351.25 376.45,-348.92"/>
<polygon fill="midnightblue" stroke="midnightblue" points="253.33,-860.13 256.63,-870.19 260.32,-860.26 253.33,-860.13"/>
</g>
<!-- Node51 -->
<g id="node42" class="node">
<title>Node51</title>
<g id="a_node42"><a xlink:href="classdrain_1_1SimpleCommand.html" target="_top" xlink:title=" ">
<polygon fill="white" stroke="red" points="344,-300.5 344,-319.5 488,-319.5 488,-300.5 344,-300.5"/>
<text text-anchor="middle" x="416" y="-307.5" font-family="Helvetica,sans-Serif" font-size="10.00">SimpleCommand&lt; bool &gt;</text>
</a>
</g>
</g>
<!-- Node1&#45;&gt;Node51 -->
<g id="edge41" class="edge">
<title>Node1&#45;&gt;Node51</title>
<path fill="none" stroke="midnightblue" d="M256.58,-860.29C257.38,-771.45 265.09,-409.2 338,-329 341.43,-325.23 345.47,-322.15 349.88,-319.65"/>
<polygon fill="midnightblue" stroke="midnightblue" points="253.08,-860.32 256.52,-870.35 260.08,-860.37 253.08,-860.32"/>
</g>
<!-- Node54 -->
<g id="node43" class="node">
<title>Node54</title>
<g id="a_node43"><a xlink:href="classdrain_1_1SimpleCommand.html" target="_top" xlink:title=" ">
<polygon fill="white" stroke="red" points="338,-262.5 338,-281.5 494,-281.5 494,-262.5 338,-262.5"/>
<text text-anchor="middle" x="416" y="-269.5" font-family="Helvetica,sans-Serif" font-size="10.00">SimpleCommand&lt; double &gt;</text>
</a>
</g>
</g>
<!-- Node1&#45;&gt;Node54 -->
<g id="edge42" class="edge">
<title>Node1&#45;&gt;Node54</title>
<path fill="none" stroke="midnightblue" d="M256.38,-860.11C256.22,-767.27 260.24,-377.34 338,-291 341.41,-287.21 345.44,-284.13 349.85,-281.61"/>
<polygon fill="midnightblue" stroke="midnightblue" points="252.88,-860.15 256.41,-870.14 259.88,-860.12 252.88,-860.15"/>
</g>
<!-- Node58 -->
<g id="node44" class="node">
<title>Node58</title>
<g id="a_node44"><a xlink:href="classdrain_1_1SimpleCommand.html" target="_top" xlink:title=" ">
<polygon fill="white" stroke="red" points="347.5,-202.5 347.5,-243.5 484.5,-243.5 484.5,-202.5 347.5,-202.5"/>
<text text-anchor="start" x="355.5" y="-231.5" font-family="Helvetica,sans-Serif" font-size="10.00">SimpleCommand&lt; drain</text>
<text text-anchor="start" x="355.5" y="-220.5" font-family="Helvetica,sans-Serif" font-size="10.00">::Point2D&lt; double &gt;::</text>
<text text-anchor="middle" x="416" y="-209.5" font-family="Helvetica,sans-Serif" font-size="10.00">tuple_t &gt;</text>
</a>
</g>
</g>
<!-- Node1&#45;&gt;Node58 -->
<g id="edge43" class="edge">
<title>Node1&#45;&gt;Node58</title>
<path fill="none" stroke="midnightblue" d="M256.45,-859.98C256.57,-763.89 261.59,-350.59 338,-253 340.74,-249.5 343.95,-246.4 347.47,-243.67"/>
<polygon fill="midnightblue" stroke="midnightblue" points="252.95,-860.09 256.45,-870.08 259.95,-860.08 252.95,-860.09"/>
</g>
<!-- Node60 -->
<g id="node45" class="node">
<title>Node60</title>
<g id="a_node45"><a xlink:href="classdrain_1_1SimpleCommand.html" target="_top" xlink:title=" ">
<polygon fill="white" stroke="red" points="343,-164.5 343,-183.5 489,-183.5 489,-164.5 343,-164.5"/>
<text text-anchor="middle" x="416" y="-171.5" font-family="Helvetica,sans-Serif" font-size="10.00">SimpleCommand&lt; float &gt;</text>
</a>
</g>
</g>
<!-- Node1&#45;&gt;Node60 -->
<g id="edge44" class="edge">
<title>Node1&#45;&gt;Node60</title>
<path fill="none" stroke="midnightblue" d="M257.52,-860.28C263.21,-753.2 292.5,-244.52 338,-193 341.37,-189.18 345.38,-186.07 349.76,-183.54"/>
<polygon fill="midnightblue" stroke="midnightblue" points="254.02,-860.17 256.99,-870.34 261.01,-860.54 254.02,-860.17"/>
</g>
<!-- Node62 -->
<g id="node46" class="node">
<title>Node62</title>
<g id="a_node46"><a xlink:href="classdrain_1_1SimpleCommand.html" target="_top" xlink:title=" ">
<polygon fill="white" stroke="red" points="348,-126.5 348,-145.5 484,-145.5 484,-126.5 348,-126.5"/>
<text text-anchor="middle" x="416" y="-133.5" font-family="Helvetica,sans-Serif" font-size="10.00">SimpleCommand&lt; int &gt;</text>
</a>
</g>
</g>
<!-- Node1&#45;&gt;Node62 -->
<g id="edge45" class="edge">
<title>Node1&#45;&gt;Node62</title>
<path fill="none" stroke="midnightblue" d="M257.39,-860.24C262.54,-749.56 290.03,-209.64 338,-155 341.36,-151.17 345.36,-148.05 349.74,-145.52"/>
<polygon fill="midnightblue" stroke="midnightblue" points="253.89,-860.18 256.93,-870.33 260.88,-860.51 253.89,-860.18"/>
</g>
<!-- Node68 -->
<g id="node47" class="node">
<title>Node68</title>
<g id="a_node47"><a xlink:href="classdrain_1_1SimpleCommand.html" target="_top" xlink:title=" ">
<polygon fill="white" stroke="red" points="352.5,-77 352.5,-107 479.5,-107 479.5,-77 352.5,-77"/>
<text text-anchor="start" x="360.5" y="-95" font-family="Helvetica,sans-Serif" font-size="10.00">SimpleCommand&lt; std</text>
<text text-anchor="middle" x="416" y="-84" font-family="Helvetica,sans-Serif" font-size="10.00">::string &gt;</text>
</a>
</g>
</g>
<!-- Node1&#45;&gt;Node68 -->
<g id="edge46" class="edge">
<title>Node1&#45;&gt;Node68</title>
<path fill="none" stroke="midnightblue" d="M257.34,-860.33C262.33,-746.65 289.67,-176.57 338,-117 341.98,-112.09 346.95,-108.13 352.42,-104.94"/>
<polygon fill="midnightblue" stroke="midnightblue" points="253.84,-860.25 256.9,-870.39 260.83,-860.55 253.84,-860.25"/>
</g>
<!-- Node98 -->
<g id="node48" class="node">
<title>Node98</title>
<g id="a_node48"><a xlink:href="classdrain_1_1SimpleCommand.html" target="_top" xlink:title=" ">
<polygon fill="white" stroke="red" points="340.5,-38.5 340.5,-57.5 491.5,-57.5 491.5,-38.5 340.5,-38.5"/>
<text text-anchor="middle" x="416" y="-45.5" font-family="Helvetica,sans-Serif" font-size="10.00">SimpleCommand&lt; string &gt;</text>
</a>
</g>
</g>
<!-- Node1&#45;&gt;Node98 -->
<g id="edge47" class="edge">
<title>Node1&#45;&gt;Node98</title>
<path fill="none" stroke="midnightblue" d="M257.14,-860.11C261.15,-741.35 284.32,-128.9 338,-67 341.25,-63.26 345.1,-60.19 349.33,-57.68"/>
<polygon fill="midnightblue" stroke="midnightblue" points="253.64,-860.18 256.8,-870.29 260.63,-860.42 253.64,-860.18"/>
</g>
<!-- Node102 -->
<g id="node49" class="node">
<title>Node102</title>
<g id="a_node49"><a xlink:href="classdrain_1_1SimpleCommand.html" target="_top" xlink:title=" ">
<polygon fill="white" stroke="red" points="357.5,-0.5 357.5,-19.5 474.5,-19.5 474.5,-0.5 357.5,-0.5"/>
<text text-anchor="middle" x="416" y="-7.5" font-family="Helvetica,sans-Serif" font-size="10.00">SimpleCommand&lt;&gt;</text>
</a>
</g>
</g>
<!-- Node1&#45;&gt;Node102 -->
<g id="edge48" class="edge">
<title>Node1&#45;&gt;Node102</title>
<path fill="none" stroke="midnightblue" d="M257.04,-860.33C260.56,-738.87 281.8,-94.1 338,-29 343.22,-22.96 350.03,-18.67 357.43,-15.67"/>
<polygon fill="midnightblue" stroke="midnightblue" points="253.54,-860.32 256.76,-870.41 260.54,-860.51 253.54,-860.32"/>
</g>
<!-- Node2 -->
<g id="node2" class="node">
<title>Node2</title>
<g id="a_node2"><a xlink:href="classdrain_1_1Command.html" target="_top" xlink:title="Base class for commands: typically actions taking parameters but also plain variable assignments and ...">
<polygon fill="white" stroke="black" points="106,-870.5 106,-889.5 173,-889.5 173,-870.5 106,-870.5"/>
<text text-anchor="middle" x="139.5" y="-877.5" font-family="Helvetica,sans-Serif" font-size="10.00">Command</text>
</a>
</g>
</g>
<!-- Node2&#45;&gt;Node1 -->
<g id="edge1" class="edge">
<title>Node2&#45;&gt;Node1</title>
<path fill="none" stroke="midnightblue" d="M183.35,-880C191.62,-880 200.31,-880 208.66,-880"/>
<polygon fill="midnightblue" stroke="midnightblue" points="183.17,-876.5 173.17,-880 183.17,-883.5 183.17,-876.5"/>
</g>
<!-- Node3 -->
<g id="node3" class="node">
<title>Node3</title>
<g id="a_node3"><a xlink:href="classdrain_1_1Contextual.html" target="_top" xlink:title=" ">
<polygon fill="white" stroke="black" points="0,-870.5 0,-889.5 70,-889.5 70,-870.5 0,-870.5"/>
<text text-anchor="middle" x="35" y="-877.5" font-family="Helvetica,sans-Serif" font-size="10.00">Contextual</text>
</a>
</g>
</g>
<!-- Node3&#45;&gt;Node2 -->
<g id="edge2" class="edge">
<title>Node3&#45;&gt;Node2</title>
<path fill="none" stroke="midnightblue" d="M80.39,-880C88.96,-880 97.8,-880 105.91,-880"/>
<polygon fill="midnightblue" stroke="midnightblue" points="80.13,-876.5 70.13,-880 80.13,-883.5 80.13,-876.5"/>
</g>
<!-- Node8 -->
<g id="node8" class="node">
<title>Node8</title>
<g id="a_node8"><a xlink:href="classrack_1_1CmdExpandVariables2.html" target="_top" xlink:title=" ">
<polygon fill="white" stroke="black" points="530,-1592.5 530,-1611.5 657,-1611.5 657,-1592.5 530,-1592.5"/>
<text text-anchor="middle" x="593.5" y="-1599.5" font-family="Helvetica,sans-Serif" font-size="10.00">CmdExpandVariables2</text>
</a>
</g>
</g>
<!-- Node7&#45;&gt;Node8 -->
<g id="edge7" class="edge">
<title>Node7&#45;&gt;Node8</title>
<path fill="none" stroke="midnightblue" d="M487.07,-1602C501.22,-1602 516,-1602 529.87,-1602"/>
<polygon fill="midnightblue" stroke="midnightblue" points="486.91,-1598.5 476.91,-1602 486.91,-1605.5 486.91,-1598.5"/>
</g>
</g>
</svg>
