<?xml version="1.0" encoding="UTF-8" standalone="no"?>
<!DOCTYPE svg PUBLIC "-//W3C//DTD SVG 1.1//EN"
 "http://www.w3.org/Graphics/SVG/1.1/DTD/svg11.dtd">
<!-- Generated by graphviz version 2.43.0 (0)
 -->
<!-- Title: Sampler Pages: 1 -->
<svg width="305pt" height="287pt"
 viewBox="0.00 0.00 304.50 287.00" xmlns="http://www.w3.org/2000/svg" xmlns:xlink="http://www.w3.org/1999/xlink">
<g id="graph0" class="graph" transform="scale(1 1) rotate(0) translate(4 283)">
<title>Sampler</title>
<polygon fill="white" stroke="transparent" points="-4,4 -4,-283 300.5,-283 300.5,4 -4,4"/>
<!-- Node1 -->
<g id="node1" class="node">
<title>Node1</title>
<g id="a_node1"><a xlink:title="Utility for sampling images (2D data), outputting formatted text data.">
<polygon fill="#bfbfbf" stroke="black" points="125,-0.5 125,-19.5 182,-19.5 182,-0.5 125,-0.5"/>
<text text-anchor="middle" x="153.5" y="-7.5" font-family="Helvetica,sans-Serif" font-size="10.00">Sampler</text>
</a>
</g>
</g>
<!-- Node2 -->
<g id="node2" class="node">
<title>Node2</title>
<g id="a_node2"><a xlink:href="classdrain_1_1BeanLike.html" target="_top" xlink:title="Something which has a name, a description and possibly some parameters of varying type.">
<polygon fill="white" stroke="black" points="123,-78.5 123,-97.5 184,-97.5 184,-78.5 123,-78.5"/>
<text text-anchor="middle" x="153.5" y="-85.5" font-family="Helvetica,sans-Serif" font-size="10.00">BeanLike</text>
</a>
</g>
</g>
<!-- Node2&#45;&gt;Node1 -->
<g id="edge1" class="edge">
<title>Node2&#45;&gt;Node1</title>
<path fill="none" stroke="midnightblue" d="M153.5,-68.22C153.5,-52.7 153.5,-31.36 153.5,-19.62"/>
<polygon fill="midnightblue" stroke="midnightblue" points="150,-68.28 153.5,-78.28 157,-68.28 150,-68.28"/>
</g>
<!-- Node3 -->
<g id="node3" class="node">
<title>Node3</title>
<g id="a_node3"><a xlink:href="classdrain_1_1ReferenceMap.html" target="_top" xlink:title=" ">
<polygon fill="white" stroke="black" points="41,-145.5 41,-164.5 128,-164.5 128,-145.5 41,-145.5"/>
<text text-anchor="middle" x="84.5" y="-152.5" font-family="Helvetica,sans-Serif" font-size="10.00">ReferenceMap</text>
</a>
</g>
</g>
<!-- Node3&#45;&gt;Node1 -->
<g id="edge7" class="edge">
<title>Node3&#45;&gt;Node1</title>
<path fill="none" stroke="#9a32cd" stroke-dasharray="5,2" d="M68.31,-138.09C54.5,-122.5 38.48,-98.2 49.5,-78 65.85,-48.02 102.01,-29.43 127.06,-19.65"/>
<polygon fill="#9a32cd" stroke="#9a32cd" points="65.77,-140.5 75.18,-145.38 70.87,-135.7 65.77,-140.5"/>
<text text-anchor="middle" x="81.5" y="-85.5" font-family="Helvetica,sans-Serif" font-size="10.00"> variableMap</text>
</g>
<!-- Node3&#45;&gt;Node2 -->
<g id="edge2" class="edge">
<title>Node3&#45;&gt;Node2</title>
<path fill="none" stroke="#9a32cd" stroke-dasharray="5,2" d="M101.11,-138.36C114.67,-125.58 133.34,-107.99 144.34,-97.63"/>
<polygon fill="#9a32cd" stroke="#9a32cd" points="98.68,-135.83 93.81,-145.23 103.48,-140.92 98.68,-135.83"/>
<text text-anchor="middle" x="153.5" y="-119" font-family="Helvetica,sans-Serif" font-size="10.00"> parameters</text>
</g>
<!-- Node4 -->
<g id="node4" class="node">
<title>Node4</title>
<g id="a_node4"><a xlink:href="classdrain_1_1SmartMap.html" target="_top" xlink:title=" ">
<polygon fill="white" stroke="black" points="13,-202.5 13,-221.5 156,-221.5 156,-202.5 13,-202.5"/>
<text text-anchor="middle" x="84.5" y="-209.5" font-family="Helvetica,sans-Serif" font-size="10.00">SmartMap&lt; Referencer &gt;</text>
</a>
</g>
</g>
<!-- Node4&#45;&gt;Node3 -->
<g id="edge3" class="edge">
<title>Node4&#45;&gt;Node3</title>
<path fill="none" stroke="midnightblue" d="M84.5,-192.12C84.5,-182.82 84.5,-172.06 84.5,-164.71"/>
<polygon fill="midnightblue" stroke="midnightblue" points="81,-192.41 84.5,-202.41 88,-192.41 81,-192.41"/>
</g>
<!-- Node5 -->
<g id="node5" class="node">
<title>Node5</title>
<g id="a_node5"><a xlink:title=" ">
<polygon fill="white" stroke="#bfbfbf" points="0,-259.5 0,-278.5 169,-278.5 169,-259.5 0,-259.5"/>
<text text-anchor="middle" x="84.5" y="-266.5" font-family="Helvetica,sans-Serif" font-size="10.00">map&lt; std::string, Referencer &gt;</text>
</a>
</g>
</g>
<!-- Node5&#45;&gt;Node4 -->
<g id="edge4" class="edge">
<title>Node5&#45;&gt;Node4</title>
<path fill="none" stroke="midnightblue" d="M84.5,-249.12C84.5,-239.82 84.5,-229.06 84.5,-221.71"/>
<polygon fill="midnightblue" stroke="midnightblue" points="81,-249.41 84.5,-259.41 88,-249.41 81,-249.41"/>
</g>
<!-- Node6 -->
<g id="node6" class="node">
<title>Node6</title>
<g id="a_node6"><a xlink:href="classdrain_1_1Range.html" target="_top" xlink:title=" ">
<polygon fill="white" stroke="black" points="202,-78.5 202,-97.5 285,-97.5 285,-78.5 202,-78.5"/>
<text text-anchor="middle" x="243.5" y="-85.5" font-family="Helvetica,sans-Serif" font-size="10.00">Range&lt; int &gt;</text>
</a>
</g>
</g>
<!-- Node6&#45;&gt;Node1 -->
<g id="edge5" class="edge">
<title>Node6&#45;&gt;Node1</title>
<path fill="none" stroke="#9a32cd" stroke-dasharray="5,2" d="M225.42,-71.73C206.87,-56.07 178.69,-32.27 163.7,-19.62"/>
<polygon fill="#9a32cd" stroke="#9a32cd" points="223.28,-74.5 233.18,-78.28 227.79,-69.16 223.28,-74.5"/>
<text text-anchor="middle" x="228" y="-52" font-family="Helvetica,sans-Serif" font-size="10.00"> jRange</text>
<text text-anchor="middle" x="228" y="-41" font-family="Helvetica,sans-Serif" font-size="10.00">iRange</text>
</g>
<!-- Node7 -->
<g id="node7" class="node">
<title>Node7</title>
<g id="a_node7"><a xlink:href="classdrain_1_1UniTuple.html" target="_top" xlink:title=" ">
<polygon fill="white" stroke="black" points="190.5,-145.5 190.5,-164.5 296.5,-164.5 296.5,-145.5 190.5,-145.5"/>
<text text-anchor="middle" x="243.5" y="-152.5" font-family="Helvetica,sans-Serif" font-size="10.00">UniTuple&lt; int, 2 &gt;</text>
</a>
</g>
</g>
<!-- Node7&#45;&gt;Node6 -->
<g id="edge6" class="edge">
<title>Node7&#45;&gt;Node6</title>
<path fill="none" stroke="midnightblue" d="M243.5,-135.04C243.5,-122.67 243.5,-107.12 243.5,-97.63"/>
<polygon fill="midnightblue" stroke="midnightblue" points="240,-135.23 243.5,-145.23 247,-135.23 240,-135.23"/>
</g>
</g>
</svg>
