<?xml version="1.0" encoding="UTF-8" standalone="no"?>
<!DOCTYPE svg PUBLIC "-//W3C//DTD SVG 1.1//EN"
 "http://www.w3.org/Graphics/SVG/1.1/DTD/svg11.dtd">
<!-- Generated by graphviz version 2.43.0 (0)
 -->
<!-- Title: PolarSite Pages: 1 -->
<!--zoomable 614 -->
<svg id="main" version="1.1" xmlns="http://www.w3.org/2000/svg" xmlns:xlink="http://www.w3.org/1999/xlink" xml:space="preserve" onload="init(evt)">
<style type="text/css"><![CDATA[
.edge:hover path { stroke: red; }
.edge:hover polygon { stroke: red; fill: red; }
]]></style>
<script type="text/javascript"><![CDATA[
var edges = document.getElementsByTagName('g');
if (edges && edges.length) {
  for (var i=0;i<edges.length;i++) {
    if (edges[i].id.substr(0,4)=='edge') {
      edges[i].setAttribute('class','edge');
    }
  }
}
]]></script>
        <defs>
                <circle id="rim" cx="0" cy="0" r="7"/>
                <circle id="rim2" cx="0" cy="0" r="3.5"/>
                <g id="zoomPlus">
                        <use xlink:href="#rim" fill="#404040">
                                <set attributeName="fill" to="#808080" begin="zoomplus.mouseover" end="zoomplus.mouseout"/>
                        </use>
                        <path d="M-4,0h8M0,-4v8" fill="none" stroke="white" stroke-width="1.5" pointer-events="none"/>
                </g>
                <g id="zoomMin">
                        <use xlink:href="#rim" fill="#404040">
                                <set attributeName="fill" to="#808080" begin="zoomminus.mouseover" end="zoomminus.mouseout"/>
                        </use>
                        <path d="M-4,0h8" fill="none" stroke="white" stroke-width="1.5" pointer-events="none"/>
                </g>
                <g id="dirArrow">
                        <path fill="none" stroke="white" stroke-width="1.5" d="M0,-3.0v7 M-2.5,-0.5L0,-3.0L2.5,-0.5"/>
                </g>
               <g id="resetDef">
                       <use xlink:href="#rim2" fill="#404040">
                               <set attributeName="fill" to="#808080" begin="reset.mouseover" end="reset.mouseout"/>
                       </use>
               </g>
        </defs>

<script type="text/javascript">
var viewWidth = 476;
var viewHeight = 614;
var sectionId = 'dynsection-1';
</script>
<script xlink:href="svgpan.js"/>
<svg id="graph" class="graph">
<g id="viewport">
<title>PolarSite</title>
<polygon fill="white" stroke="transparent" points="-4,4 -4,-610 472,-610 472,4 -4,4"/>
<!-- Node1 -->
<g id="node1" class="node">
<title>Node1</title>
<g id="a_node1"><a xlink:title=" ">
<polygon fill="#bfbfbf" stroke="black" points="312,-0.5 312,-19.5 372,-19.5 372,-0.5 312,-0.5"/>
<text text-anchor="middle" x="342" y="-7.5" font-family="Helvetica,sans-Serif" font-size="10.00">PolarSite</text>
</a>
</g>
</g>
<!-- Node2 -->
<g id="node2" class="node">
<title>Node2</title>
<g id="a_node2"><a xlink:href="classdrain_1_1SimpleCommand.html" target="_top" xlink:title=" ">
<polygon fill="white" stroke="black" points="273.5,-57.5 273.5,-98.5 410.5,-98.5 410.5,-57.5 273.5,-57.5"/>
<text text-anchor="start" x="281.5" y="-86.5" font-family="Helvetica,sans-Serif" font-size="10.00">SimpleCommand&lt; drain</text>
<text text-anchor="start" x="281.5" y="-75.5" font-family="Helvetica,sans-Serif" font-size="10.00">::Point2D&lt; double &gt;::</text>
<text text-anchor="middle" x="342" y="-64.5" font-family="Helvetica,sans-Serif" font-size="10.00">tuple_t &gt;</text>
</a>
</g>
</g>
<!-- Node2&#45;&gt;Node1 -->
<g id="edge1" class="edge">
<title>Node2&#45;&gt;Node1</title>
<path fill="none" stroke="midnightblue" d="M342,-47.12C342,-37.17 342,-26.84 342,-19.79"/>
<polygon fill="midnightblue" stroke="midnightblue" points="338.5,-47.2 342,-57.2 345.5,-47.2 338.5,-47.2"/>
</g>
<!-- Node3 -->
<g id="node3" class="node">
<title>Node3</title>
<g id="a_node3"><a xlink:href="classdrain_1_1BasicCommand.html" target="_top" xlink:title="Simple implementation of Command: adds name , description and parameters .">
<polygon fill="white" stroke="black" points="233.5,-146.5 233.5,-165.5 326.5,-165.5 326.5,-146.5 233.5,-146.5"/>
<text text-anchor="middle" x="280" y="-153.5" font-family="Helvetica,sans-Serif" font-size="10.00">BasicCommand</text>
</a>
</g>
</g>
<!-- Node3&#45;&gt;Node2 -->
<g id="edge2" class="edge">
<title>Node3&#45;&gt;Node2</title>
<path fill="none" stroke="midnightblue" d="M293.67,-138.24C303.2,-126.56 315.95,-110.93 325.96,-98.66"/>
<polygon fill="midnightblue" stroke="midnightblue" points="290.72,-136.32 287.11,-146.28 296.15,-140.75 290.72,-136.32"/>
</g>
<!-- Node4 -->
<g id="node4" class="node">
<title>Node4</title>
<g id="a_node4"><a xlink:href="classdrain_1_1Command.html" target="_top" xlink:title="Base class for commands: typically actions taking parameters but also plain variable assignments and ...">
<polygon fill="white" stroke="black" points="147.5,-213.5 147.5,-232.5 214.5,-232.5 214.5,-213.5 147.5,-213.5"/>
<text text-anchor="middle" x="181" y="-220.5" font-family="Helvetica,sans-Serif" font-size="10.00">Command</text>
</a>
</g>
</g>
<!-- Node4&#45;&gt;Node3 -->
<g id="edge3" class="edge">
<title>Node4&#45;&gt;Node3</title>
<path fill="none" stroke="midnightblue" d="M202.94,-207.59C222.53,-194.74 250.56,-176.33 266.86,-165.63"/>
<polygon fill="midnightblue" stroke="midnightblue" points="200.79,-204.82 194.35,-213.23 204.63,-210.67 200.79,-204.82"/>
</g>
<!-- Node5 -->
<g id="node5" class="node">
<title>Node5</title>
<g id="a_node5"><a xlink:href="classdrain_1_1Contextual.html" target="_top" xlink:title=" ">
<polygon fill="white" stroke="black" points="124,-270.5 124,-289.5 194,-289.5 194,-270.5 124,-270.5"/>
<text text-anchor="middle" x="159" y="-277.5" font-family="Helvetica,sans-Serif" font-size="10.00">Contextual</text>
</a>
</g>
</g>
<!-- Node5&#45;&gt;Node4 -->
<g id="edge4" class="edge">
<title>Node5&#45;&gt;Node4</title>
<path fill="none" stroke="midnightblue" d="M166.19,-261.03C169.99,-251.53 174.48,-240.3 177.51,-232.71"/>
<polygon fill="midnightblue" stroke="midnightblue" points="162.9,-259.82 162.44,-270.41 169.4,-262.42 162.9,-259.82"/>
</g>
<!-- Node6 -->
<g id="node6" class="node">
<title>Node6</title>
<g id="a_node6"><a xlink:href="classdrain_1_1Context.html" target="_top" xlink:title=" ">
<polygon fill="white" stroke="black" points="128.5,-337.5 128.5,-356.5 183.5,-356.5 183.5,-337.5 128.5,-337.5"/>
<text text-anchor="middle" x="156" y="-344.5" font-family="Helvetica,sans-Serif" font-size="10.00">Context</text>
</a>
</g>
</g>
<!-- Node6&#45;&gt;Node5 -->
<g id="edge5" class="edge">
<title>Node6&#45;&gt;Node5</title>
<path fill="none" stroke="#9a32cd" stroke-dasharray="5,2" d="M156.88,-327.04C157.45,-314.67 158.16,-299.12 158.6,-289.63"/>
<polygon fill="#9a32cd" stroke="#9a32cd" points="153.37,-327.08 156.4,-337.23 160.36,-327.41 153.37,-327.08"/>
<text text-anchor="middle" x="185" y="-311" font-family="Helvetica,sans-Serif" font-size="10.00"> contextPtr</text>
</g>
<!-- Node7 -->
<g id="node7" class="node">
<title>Node7</title>
<g id="a_node7"><a xlink:href="classdrain_1_1VariableMap.html" target="_top" xlink:title="A map of Variables.">
<polygon fill="white" stroke="black" points="39,-404.5 39,-423.5 117,-423.5 117,-404.5 39,-404.5"/>
<text text-anchor="middle" x="78" y="-411.5" font-family="Helvetica,sans-Serif" font-size="10.00">VariableMap</text>
</a>
</g>
</g>
<!-- Node7&#45;&gt;Node6 -->
<g id="edge6" class="edge">
<title>Node7&#45;&gt;Node6</title>
<path fill="none" stroke="#9a32cd" stroke-dasharray="5,2" d="M84.01,-395.04C87.03,-388.09 91.3,-380.51 97,-375 105.75,-366.55 117.62,-360.42 128.42,-356.16"/>
<polygon fill="#9a32cd" stroke="#9a32cd" points="80.71,-393.84 80.43,-404.44 87.26,-396.33 80.71,-393.84"/>
<text text-anchor="middle" x="124.5" y="-378" font-family="Helvetica,sans-Serif" font-size="10.00"> statusMap</text>
</g>
<!-- Node8 -->
<g id="node8" class="node">
<title>Node8</title>
<g id="a_node8"><a xlink:href="classdrain_1_1SmartMap.html" target="_top" xlink:title=" ">
<polygon fill="white" stroke="black" points="13,-467 13,-486 143,-486 143,-467 13,-467"/>
<text text-anchor="middle" x="78" y="-474" font-family="Helvetica,sans-Serif" font-size="10.00">SmartMap&lt; Variable &gt;</text>
</a>
</g>
</g>
<!-- Node8&#45;&gt;Node7 -->
<g id="edge7" class="edge">
<title>Node8&#45;&gt;Node7</title>
<path fill="none" stroke="midnightblue" d="M78,-456.5C78,-445.5 78,-432.18 78,-423.65"/>
<polygon fill="midnightblue" stroke="midnightblue" points="74.5,-456.83 78,-466.83 81.5,-456.83 74.5,-456.83"/>
</g>
<!-- Node9 -->
<g id="node9" class="node">
<title>Node9</title>
<g id="a_node9"><a xlink:title=" ">
<polygon fill="white" stroke="#bfbfbf" points="0,-529.5 0,-548.5 156,-548.5 156,-529.5 0,-529.5"/>
<text text-anchor="middle" x="78" y="-536.5" font-family="Helvetica,sans-Serif" font-size="10.00">map&lt; std::string, Variable &gt;</text>
</a>
</g>
</g>
<!-- Node9&#45;&gt;Node8 -->
<g id="edge8" class="edge">
<title>Node9&#45;&gt;Node8</title>
<path fill="none" stroke="midnightblue" d="M78,-519C78,-508 78,-494.68 78,-486.15"/>
<polygon fill="midnightblue" stroke="midnightblue" points="74.5,-519.33 78,-529.33 81.5,-519.33 74.5,-519.33"/>
</g>
<!-- Node10 -->
<g id="node10" class="node">
<title>Node10</title>
<g id="a_node10"><a xlink:href="classdrain_1_1Log.html" target="_top" xlink:title="Handler for notifications sent by a Logger.">
<polygon fill="white" stroke="black" points="139,-404.5 139,-423.5 173,-423.5 173,-404.5 139,-404.5"/>
<text text-anchor="middle" x="156" y="-411.5" font-family="Helvetica,sans-Serif" font-size="10.00">Log</text>
</a>
</g>
</g>
<!-- Node10&#45;&gt;Node6 -->
<g id="edge9" class="edge">
<title>Node10&#45;&gt;Node6</title>
<path fill="none" stroke="#9a32cd" stroke-dasharray="5,2" d="M156,-394.04C156,-381.67 156,-366.12 156,-356.63"/>
<polygon fill="#9a32cd" stroke="#9a32cd" points="152.5,-394.23 156,-404.23 159.5,-394.23 152.5,-394.23"/>
<text text-anchor="middle" x="165.5" y="-378" font-family="Helvetica,sans-Serif" font-size="10.00"> log</text>
</g>
<!-- Node11 -->
<g id="node11" class="node">
<title>Node11</title>
<g id="a_node11"><a xlink:href="classdrain_1_1StatusFlags.html" target="_top" xlink:title=" ">
<polygon fill="white" stroke="black" points="191,-404.5 191,-423.5 265,-423.5 265,-404.5 191,-404.5"/>
<text text-anchor="middle" x="228" y="-411.5" font-family="Helvetica,sans-Serif" font-size="10.00">StatusFlags</text>
</a>
</g>
</g>
<!-- Node11&#45;&gt;Node6 -->
<g id="edge10" class="edge">
<title>Node11&#45;&gt;Node6</title>
<path fill="none" stroke="#9a32cd" stroke-dasharray="5,2" d="M210.67,-397.36C196.52,-384.58 177.04,-366.99 165.56,-356.63"/>
<polygon fill="#9a32cd" stroke="#9a32cd" points="208.52,-400.13 218.29,-404.23 213.21,-394.93 208.52,-400.13"/>
<text text-anchor="middle" x="227" y="-378" font-family="Helvetica,sans-Serif" font-size="10.00"> statusFlags</text>
</g>
<!-- Node12 -->
<g id="node12" class="node">
<title>Node12</title>
<g id="a_node12"><a xlink:href="classdrain_1_1GlobalFlags.html" target="_top" xlink:title=" ">
<polygon fill="white" stroke="black" points="170,-461.5 170,-491.5 286,-491.5 286,-461.5 170,-461.5"/>
<text text-anchor="start" x="178" y="-479.5" font-family="Helvetica,sans-Serif" font-size="10.00">GlobalFlags&lt; status</text>
<text text-anchor="middle" x="228" y="-468.5" font-family="Helvetica,sans-Serif" font-size="10.00">_flag_id &gt;</text>
</a>
</g>
</g>
<!-- Node12&#45;&gt;Node11 -->
<g id="edge11" class="edge">
<title>Node12&#45;&gt;Node11</title>
<path fill="none" stroke="midnightblue" d="M228,-451.35C228,-441.51 228,-430.78 228,-423.54"/>
<polygon fill="midnightblue" stroke="midnightblue" points="224.5,-451.47 228,-461.47 231.5,-451.47 224.5,-451.47"/>
</g>
<!-- Node13 -->
<g id="node13" class="node">
<title>Node13</title>
<g id="a_node13"><a xlink:href="classdrain_1_1Flagger.html" target="_top" xlink:title="Bit vector accessible also with integer values associated with strings.">
<polygon fill="white" stroke="black" points="201.5,-529.5 201.5,-548.5 254.5,-548.5 254.5,-529.5 201.5,-529.5"/>
<text text-anchor="middle" x="228" y="-536.5" font-family="Helvetica,sans-Serif" font-size="10.00">Flagger</text>
</a>
</g>
</g>
<!-- Node13&#45;&gt;Node12 -->
<g id="edge12" class="edge">
<title>Node13&#45;&gt;Node12</title>
<path fill="none" stroke="midnightblue" d="M228,-519.22C228,-510.36 228,-499.96 228,-491.76"/>
<polygon fill="midnightblue" stroke="midnightblue" points="224.5,-519.33 228,-529.33 231.5,-519.33 224.5,-519.33"/>
</g>
<!-- Node14 -->
<g id="node14" class="node">
<title>Node14</title>
<g id="a_node14"><a xlink:href="classdrain_1_1FlagResolver.html" target="_top" xlink:title="Referencing a dictionary of binary values: {&quot;A&quot;,1: &quot;B&quot;:2, &quot;C&quot;: 4, &quot;D&quot;: 8, ...} resolves two&#45;way mappi...">
<polygon fill="white" stroke="black" points="188,-586.5 188,-605.5 268,-605.5 268,-586.5 188,-586.5"/>
<text text-anchor="middle" x="228" y="-593.5" font-family="Helvetica,sans-Serif" font-size="10.00">FlagResolver</text>
</a>
</g>
</g>
<!-- Node14&#45;&gt;Node13 -->
<g id="edge13" class="edge">
<title>Node14&#45;&gt;Node13</title>
<path fill="none" stroke="midnightblue" d="M228,-576.12C228,-566.82 228,-556.06 228,-548.71"/>
<polygon fill="midnightblue" stroke="midnightblue" points="224.5,-576.41 228,-586.41 231.5,-576.41 224.5,-576.41"/>
</g>
<!-- Node15 -->
<g id="node15" class="node">
<title>Node15</title>
<g id="a_node15"><a xlink:href="classdrain_1_1ReferenceMap.html" target="_top" xlink:title=" ">
<polygon fill="white" stroke="black" points="236.5,-213.5 236.5,-232.5 323.5,-232.5 323.5,-213.5 236.5,-213.5"/>
<text text-anchor="middle" x="280" y="-220.5" font-family="Helvetica,sans-Serif" font-size="10.00">ReferenceMap</text>
</a>
</g>
</g>
<!-- Node15&#45;&gt;Node3 -->
<g id="edge14" class="edge">
<title>Node15&#45;&gt;Node3</title>
<path fill="none" stroke="#9a32cd" stroke-dasharray="5,2" d="M280,-203.04C280,-190.67 280,-175.12 280,-165.63"/>
<polygon fill="#9a32cd" stroke="#9a32cd" points="276.5,-203.23 280,-213.23 283.5,-203.23 276.5,-203.23"/>
<text text-anchor="middle" x="310" y="-187" font-family="Helvetica,sans-Serif" font-size="10.00"> parameters</text>
</g>
<!-- Node16 -->
<g id="node16" class="node">
<title>Node16</title>
<g id="a_node16"><a xlink:href="classdrain_1_1SmartMap.html" target="_top" xlink:title=" ">
<polygon fill="white" stroke="black" points="213.5,-270.5 213.5,-289.5 356.5,-289.5 356.5,-270.5 213.5,-270.5"/>
<text text-anchor="middle" x="285" y="-277.5" font-family="Helvetica,sans-Serif" font-size="10.00">SmartMap&lt; Referencer &gt;</text>
</a>
</g>
</g>
<!-- Node16&#45;&gt;Node15 -->
<g id="edge15" class="edge">
<title>Node16&#45;&gt;Node15</title>
<path fill="none" stroke="midnightblue" d="M283.31,-260.42C282.46,-251.05 281.47,-240.14 280.79,-232.71"/>
<polygon fill="midnightblue" stroke="midnightblue" points="279.83,-260.76 284.22,-270.41 286.8,-260.13 279.83,-260.76"/>
</g>
<!-- Node17 -->
<g id="node17" class="node">
<title>Node17</title>
<g id="a_node17"><a xlink:title=" ">
<polygon fill="white" stroke="#bfbfbf" points="201.5,-337.5 201.5,-356.5 370.5,-356.5 370.5,-337.5 201.5,-337.5"/>
<text text-anchor="middle" x="286" y="-344.5" font-family="Helvetica,sans-Serif" font-size="10.00">map&lt; std::string, Referencer &gt;</text>
</a>
</g>
</g>
<!-- Node17&#45;&gt;Node16 -->
<g id="edge16" class="edge">
<title>Node17&#45;&gt;Node16</title>
<path fill="none" stroke="midnightblue" d="M285.71,-327.04C285.52,-314.67 285.28,-299.12 285.13,-289.63"/>
<polygon fill="midnightblue" stroke="midnightblue" points="282.21,-327.29 285.87,-337.23 289.21,-327.18 282.21,-327.29"/>
</g>
<!-- Node18 -->
<g id="node18" class="node">
<title>Node18</title>
<g id="a_node18"><a xlink:href="structdrain_1_1Point2D.html" target="_top" xlink:title=" ">
<polygon fill="white" stroke="black" points="348,-146.5 348,-165.5 458,-165.5 458,-146.5 348,-146.5"/>
<text text-anchor="middle" x="403" y="-153.5" font-family="Helvetica,sans-Serif" font-size="10.00">Point2D&lt; double &gt;</text>
</a>
</g>
</g>
<!-- Node18&#45;&gt;Node2 -->
<g id="edge17" class="edge">
<title>Node18&#45;&gt;Node2</title>
<path fill="none" stroke="#9a32cd" stroke-dasharray="5,2" d="M389.55,-138.24C380.17,-126.56 367.63,-110.93 357.78,-98.66"/>
<polygon fill="#9a32cd" stroke="#9a32cd" points="387.01,-140.67 396,-146.28 392.47,-136.29 387.01,-140.67"/>
<text text-anchor="middle" x="395.5" y="-120" font-family="Helvetica,sans-Serif" font-size="10.00"> value</text>
</g>
<!-- Node19 -->
<g id="node19" class="node">
<title>Node19</title>
<g id="a_node19"><a xlink:href="classdrain_1_1UniTuple.html" target="_top" xlink:title=" ">
<polygon fill="white" stroke="black" points="342,-213.5 342,-232.5 468,-232.5 468,-213.5 342,-213.5"/>
<text text-anchor="middle" x="405" y="-220.5" font-family="Helvetica,sans-Serif" font-size="10.00">UniTuple&lt; double, 2 &gt;</text>
</a>
</g>
</g>
<!-- Node19&#45;&gt;Node18 -->
<g id="edge18" class="edge">
<title>Node19&#45;&gt;Node18</title>
<path fill="none" stroke="midnightblue" d="M404.42,-203.04C404.04,-190.67 403.56,-175.12 403.27,-165.63"/>
<polygon fill="midnightblue" stroke="midnightblue" points="400.92,-203.35 404.73,-213.23 407.92,-203.13 400.92,-203.35"/>
</g>
</g>
</svg>
        <g id="navigator" transform="translate(0 0)" fill="#404254">
                <rect fill="#f2f5e9" fill-opacity="0.5" stroke="#606060" stroke-width=".5" x="0" y="0" width="60" height="60"/>
                <use id="zoomplus" xlink:href="#zoomPlus" x="17" y="9" onmousedown="handleZoom(evt,'in')"/>
                <use id="zoomminus" xlink:href="#zoomMin" x="42" y="9" onmousedown="handleZoom(evt,'out')"/>
                <use id="reset" xlink:href="#resetDef" x="30" y="36" onmousedown="handleReset()"/>
                <g id="arrowUp" xlink:href="#dirArrow" transform="translate(30 24)" onmousedown="handlePan(0,-1)">
                  <use xlink:href="#rim" fill="#404040">
                        <set attributeName="fill" to="#808080" begin="arrowUp.mouseover" end="arrowUp.mouseout"/>
                  </use>
                  <path fill="none" stroke="white" stroke-width="1.5" d="M0,-3.0v7 M-2.5,-0.5L0,-3.0L2.5,-0.5"/>
                </g>
                <g id="arrowRight" xlink:href="#dirArrow" transform="rotate(90) translate(36 -43)" onmousedown="handlePan(1,0)">
                  <use xlink:href="#rim" fill="#404040">
                        <set attributeName="fill" to="#808080" begin="arrowRight.mouseover" end="arrowRight.mouseout"/>
                  </use>
                  <path fill="none" stroke="white" stroke-width="1.5" d="M0,-3.0v7 M-2.5,-0.5L0,-3.0L2.5,-0.5"/>
                </g>
                <g id="arrowDown" xlink:href="#dirArrow" transform="rotate(180) translate(-30 -48)" onmousedown="handlePan(0,1)">
                  <use xlink:href="#rim" fill="#404040">
                        <set attributeName="fill" to="#808080" begin="arrowDown.mouseover" end="arrowDown.mouseout"/>
                  </use>
                  <path fill="none" stroke="white" stroke-width="1.5" d="M0,-3.0v7 M-2.5,-0.5L0,-3.0L2.5,-0.5"/>
                </g>
                <g id="arrowLeft" xlink:href="#dirArrow" transform="rotate(270) translate(-36 17)" onmousedown="handlePan(-1,0)">
                  <use xlink:href="#rim" fill="#404040">
                        <set attributeName="fill" to="#808080" begin="arrowLeft.mouseover" end="arrowLeft.mouseout"/>
                  </use>
                  <path fill="none" stroke="white" stroke-width="1.5" d="M0,-3.0v7 M-2.5,-0.5L0,-3.0L2.5,-0.5"/>
                </g>
        </g>
        <svg viewBox="0 0 15 15" width="100%" height="30px" preserveAspectRatio="xMaxYMin meet">
         <g id="arrow_out" transform="scale(0.3 0.3)">
          <a xlink:href="classrack_1_1PolarSite__coll__graph_org.svg" target="_base">
           <rect id="button" ry="5" rx="5" y="6" x="6" height="38" width="38"
                fill="#f2f5e9" fill-opacity="0.5" stroke="#606060" stroke-width="1.0"/>
           <path id="arrow"
             d="M 11.500037,31.436501 C 11.940474,20.09759 22.043105,11.32322 32.158766,21.979434 L 37.068811,17.246167 C 37.068811,17.246167 37.088388,32 37.088388,32 L 22.160133,31.978069 C 22.160133,31.978069 26.997745,27.140456 26.997745,27.140456 C 18.528582,18.264221 13.291696,25.230495 11.500037,31.436501 z"
             style="fill:#404040;"/>
          </a>
         </g>
        </svg>
</svg>
