<?xml version="1.0" encoding="UTF-8" standalone="no"?>
<!DOCTYPE svg PUBLIC "-//W3C//DTD SVG 1.1//EN"
 "http://www.w3.org/Graphics/SVG/1.1/DTD/svg11.dtd">
<!-- Generated by graphviz version 2.43.0 (0)
 -->
<!-- Title: DopplerOp Pages: 1 -->
<!--zoomable 366 -->
<svg id="main" version="1.1" xmlns="http://www.w3.org/2000/svg" xmlns:xlink="http://www.w3.org/1999/xlink" xml:space="preserve" onload="init(evt)">
<style type="text/css"><![CDATA[
.edge:hover path { stroke: red; }
.edge:hover polygon { stroke: red; fill: red; }
]]></style>
<script type="text/javascript"><![CDATA[
var edges = document.getElementsByTagName('g');
if (edges && edges.length) {
  for (var i=0;i<edges.length;i++) {
    if (edges[i].id.substr(0,4)=='edge') {
      edges[i].setAttribute('class','edge');
    }
  }
}
]]></script>
        <defs>
                <circle id="rim" cx="0" cy="0" r="7"/>
                <circle id="rim2" cx="0" cy="0" r="3.5"/>
                <g id="zoomPlus">
                        <use xlink:href="#rim" fill="#404040">
                                <set attributeName="fill" to="#808080" begin="zoomplus.mouseover" end="zoomplus.mouseout"/>
                        </use>
                        <path d="M-4,0h8M0,-4v8" fill="none" stroke="white" stroke-width="1.5" pointer-events="none"/>
                </g>
                <g id="zoomMin">
                        <use xlink:href="#rim" fill="#404040">
                                <set attributeName="fill" to="#808080" begin="zoomminus.mouseover" end="zoomminus.mouseout"/>
                        </use>
                        <path d="M-4,0h8" fill="none" stroke="white" stroke-width="1.5" pointer-events="none"/>
                </g>
                <g id="dirArrow">
                        <path fill="none" stroke="white" stroke-width="1.5" d="M0,-3.0v7 M-2.5,-0.5L0,-3.0L2.5,-0.5"/>
                </g>
               <g id="resetDef">
                       <use xlink:href="#rim2" fill="#404040">
                               <set attributeName="fill" to="#808080" begin="reset.mouseover" end="reset.mouseout"/>
                       </use>
               </g>
        </defs>

<script type="text/javascript">
var viewWidth = 934;
var viewHeight = 366;
var sectionId = 'dynsection-0';
</script>
<script xlink:href="svgpan.js"/>
<svg id="graph" class="graph">
<g id="viewport">
<title>DopplerOp</title>
<polygon fill="white" stroke="transparent" points="-4,4 -4,-361.5 930,-361.5 930,4 -4,4"/>
<!-- Node1 -->
<g id="node1" class="node">
<title>Node1</title>
<g id="a_node1"><a xlink:title="Base class for computing products using Doppler speed [VRAD] data.">
<polygon fill="#bfbfbf" stroke="black" points="504,-152.5 504,-171.5 572,-171.5 572,-152.5 504,-152.5"/>
<text text-anchor="middle" x="538" y="-159.5" font-family="Helvetica,sans-Serif" font-size="10.00">DopplerOp</text>
</a>
</g>
</g>
<!-- Node5 -->
<g id="node5" class="node">
<title>Node5</title>
<g id="a_node5"><a xlink:href="classrack_1_1DopplerWindowOp.html" target="_top" xlink:title=" ">
<polygon fill="white" stroke="black" points="608,-327 608,-357 765,-357 765,-327 608,-327"/>
<text text-anchor="start" x="616" y="-345" font-family="Helvetica,sans-Serif" font-size="10.00">DopplerWindowOp&lt; Doppler</text>
<text text-anchor="middle" x="686.5" y="-334" font-family="Helvetica,sans-Serif" font-size="10.00">AverageWindow2 &gt;</text>
</a>
</g>
</g>
<!-- Node1&#45;&gt;Node5 -->
<g id="edge4" class="edge">
<title>Node1&#45;&gt;Node5</title>
<path fill="none" stroke="midnightblue" d="M542.33,-181.89C548.89,-214.94 566.64,-281.19 608,-318 611.89,-321.47 616.28,-324.43 620.94,-326.97"/>
<polygon fill="midnightblue" stroke="midnightblue" points="545.7,-180.88 540.45,-171.68 538.81,-182.15 545.7,-180.88"/>
</g>
<!-- Node7 -->
<g id="node7" class="node">
<title>Node7</title>
<g id="a_node7"><a xlink:href="classrack_1_1DopplerWindowOp.html" target="_top" xlink:title=" ">
<polygon fill="white" stroke="black" points="608,-278 608,-308 765,-308 765,-278 608,-278"/>
<text text-anchor="start" x="616" y="-296" font-family="Helvetica,sans-Serif" font-size="10.00">DopplerWindowOp&lt; Doppler</text>
<text text-anchor="middle" x="686.5" y="-285" font-family="Helvetica,sans-Serif" font-size="10.00">DevWindow &gt;</text>
</a>
</g>
</g>
<!-- Node1&#45;&gt;Node7 -->
<g id="edge6" class="edge">
<title>Node1&#45;&gt;Node7</title>
<path fill="none" stroke="midnightblue" d="M546.39,-181.01C556.65,-204.98 577.48,-245.84 608,-269 612.49,-272.41 617.47,-275.33 622.67,-277.85"/>
<polygon fill="midnightblue" stroke="midnightblue" points="549.56,-179.52 542.53,-171.6 543.08,-182.18 549.56,-179.52"/>
</g>
<!-- Node9 -->
<g id="node9" class="node">
<title>Node9</title>
<g id="a_node9"><a xlink:href="classrack_1_1DopplerWindowOp.html" target="_top" xlink:title=" ">
<polygon fill="white" stroke="black" points="608,-229 608,-259 765,-259 765,-229 608,-229"/>
<text text-anchor="start" x="616" y="-247" font-family="Helvetica,sans-Serif" font-size="10.00">DopplerWindowOp&lt; Doppler</text>
<text text-anchor="middle" x="686.5" y="-236" font-family="Helvetica,sans-Serif" font-size="10.00">EccentricityWindow &gt;</text>
</a>
</g>
</g>
<!-- Node1&#45;&gt;Node9 -->
<g id="edge8" class="edge">
<title>Node1&#45;&gt;Node9</title>
<path fill="none" stroke="midnightblue" d="M555.77,-178.99C568.97,-191.54 588.36,-208.24 608,-219 614.82,-222.74 622.29,-226.02 629.81,-228.88"/>
<polygon fill="midnightblue" stroke="midnightblue" points="558.01,-176.28 548.4,-171.8 553.12,-181.29 558.01,-176.28"/>
</g>
<!-- Node11 -->
<g id="node11" class="node">
<title>Node11</title>
<g id="a_node11"><a xlink:href="classrack_1_1DopplerCrawlerOp.html" target="_top" xlink:title=" ">
<polygon fill="white" stroke="black" points="633.5,-190.5 633.5,-209.5 739.5,-209.5 739.5,-190.5 633.5,-190.5"/>
<text text-anchor="middle" x="686.5" y="-197.5" font-family="Helvetica,sans-Serif" font-size="10.00">DopplerCrawlerOp</text>
</a>
</g>
</g>
<!-- Node1&#45;&gt;Node11 -->
<g id="edge10" class="edge">
<title>Node1&#45;&gt;Node11</title>
<path fill="none" stroke="midnightblue" d="M582.12,-174.07C590.68,-176.42 599.62,-178.82 608,-181 620.2,-184.17 633.52,-187.49 645.62,-190.45"/>
<polygon fill="midnightblue" stroke="midnightblue" points="582.86,-170.65 572.29,-171.37 581,-177.4 582.86,-170.65"/>
</g>
<!-- Node12 -->
<g id="node12" class="node">
<title>Node12</title>
<g id="a_node12"><a xlink:href="classrack_1_1DopplerDiffOp.html" target="_top" xlink:title="Experimental.">
<polygon fill="white" stroke="black" points="643.5,-152.5 643.5,-171.5 729.5,-171.5 729.5,-152.5 643.5,-152.5"/>
<text text-anchor="middle" x="686.5" y="-159.5" font-family="Helvetica,sans-Serif" font-size="10.00">DopplerDiffOp</text>
</a>
</g>
</g>
<!-- Node1&#45;&gt;Node12 -->
<g id="edge11" class="edge">
<title>Node1&#45;&gt;Node12</title>
<path fill="none" stroke="midnightblue" d="M582.29,-162C601.61,-162 624.29,-162 643.46,-162"/>
<polygon fill="midnightblue" stroke="midnightblue" points="582.24,-158.5 572.24,-162 582.24,-165.5 582.24,-158.5"/>
</g>
<!-- Node13 -->
<g id="node13" class="node">
<title>Node13</title>
<g id="a_node13"><a xlink:href="classrack_1_1DopplerReprojectOp.html" target="_top" xlink:title=" ">
<polygon fill="white" stroke="black" points="629,-114.5 629,-133.5 744,-133.5 744,-114.5 629,-114.5"/>
<text text-anchor="middle" x="686.5" y="-121.5" font-family="Helvetica,sans-Serif" font-size="10.00">DopplerReprojectOp</text>
</a>
</g>
</g>
<!-- Node1&#45;&gt;Node13 -->
<g id="edge12" class="edge">
<title>Node1&#45;&gt;Node13</title>
<path fill="none" stroke="midnightblue" d="M582.12,-149.93C590.68,-147.58 599.62,-145.18 608,-143 620.2,-139.83 633.52,-136.51 645.62,-133.55"/>
<polygon fill="midnightblue" stroke="midnightblue" points="581,-146.6 572.29,-152.63 582.86,-153.35 581,-146.6"/>
</g>
<!-- Node14 -->
<g id="node14" class="node">
<title>Node14</title>
<g id="a_node14"><a xlink:href="classrack_1_1DopplerSamplerOp.html" target="_top" xlink:title="Base class for computing products using Doppler speed [VRAD] data.">
<polygon fill="white" stroke="black" points="632,-76.5 632,-95.5 741,-95.5 741,-76.5 632,-76.5"/>
<text text-anchor="middle" x="686.5" y="-83.5" font-family="Helvetica,sans-Serif" font-size="10.00">DopplerSamplerOp</text>
</a>
</g>
</g>
<!-- Node1&#45;&gt;Node14 -->
<g id="edge13" class="edge">
<title>Node1&#45;&gt;Node14</title>
<path fill="none" stroke="midnightblue" d="M555.11,-145.05C568.2,-132.23 587.76,-115.16 608,-105 615.68,-101.15 624.18,-98.04 632.66,-95.56"/>
<polygon fill="midnightblue" stroke="midnightblue" points="552.4,-142.81 547.84,-152.38 557.37,-147.74 552.4,-142.81"/>
</g>
<!-- Node16 -->
<g id="node16" class="node">
<title>Node16</title>
<g id="a_node16"><a xlink:href="classrack_1_1DopplerWindOp.html" target="_top" xlink:title="Base class for operators retrieving true wind (u,v).">
<polygon fill="white" stroke="black" points="640,-38.5 640,-57.5 733,-57.5 733,-38.5 640,-38.5"/>
<text text-anchor="middle" x="686.5" y="-45.5" font-family="Helvetica,sans-Serif" font-size="10.00">DopplerWindOp</text>
</a>
</g>
</g>
<!-- Node1&#45;&gt;Node16 -->
<g id="edge15" class="edge">
<title>Node1&#45;&gt;Node16</title>
<path fill="none" stroke="midnightblue" d="M547.54,-143.28C558.44,-121.54 579.37,-86.23 608,-67 617.43,-60.67 628.77,-56.44 639.83,-53.62"/>
<polygon fill="midnightblue" stroke="midnightblue" points="544.31,-141.93 543.13,-152.46 550.61,-144.96 544.31,-141.93"/>
</g>
<!-- Node18 -->
<g id="node18" class="node">
<title>Node18</title>
<g id="a_node18"><a xlink:href="classrack_1_1DopplerWindowOp.html" target="_top" xlink:title="Base class for Doppler average and variance.">
<polygon fill="white" stroke="black" points="616.5,-0.5 616.5,-19.5 756.5,-19.5 756.5,-0.5 616.5,-0.5"/>
<text text-anchor="middle" x="686.5" y="-7.5" font-family="Helvetica,sans-Serif" font-size="10.00">DopplerWindowOp&lt; W &gt;</text>
</a>
</g>
</g>
<!-- Node1&#45;&gt;Node18 -->
<g id="edge17" class="edge">
<title>Node1&#45;&gt;Node18</title>
<path fill="none" stroke="midnightblue" d="M543.66,-142.31C551.66,-113.01 570.83,-58.23 608,-29 612.9,-25.15 618.47,-22.06 624.33,-19.59"/>
<polygon fill="midnightblue" stroke="midnightblue" points="540.22,-141.64 541.13,-152.19 547,-143.37 540.22,-141.64"/>
</g>
<!-- Node2 -->
<g id="node2" class="node">
<title>Node2</title>
<g id="a_node2"><a xlink:href="classrack_1_1PolarProductOp.html" target="_top" xlink:title="Base class for flat (2D) products computed in the polar coordinate system. Volume is used as input.">
<polygon fill="white" stroke="black" points="376,-152.5 376,-171.5 468,-171.5 468,-152.5 376,-152.5"/>
<text text-anchor="middle" x="422" y="-159.5" font-family="Helvetica,sans-Serif" font-size="10.00">PolarProductOp</text>
</a>
</g>
</g>
<!-- Node2&#45;&gt;Node1 -->
<g id="edge1" class="edge">
<title>Node2&#45;&gt;Node1</title>
<path fill="none" stroke="midnightblue" d="M478.26,-162C487.02,-162 495.83,-162 503.87,-162"/>
<polygon fill="midnightblue" stroke="midnightblue" points="478.06,-158.5 468.06,-162 478.06,-165.5 478.06,-158.5"/>
</g>
<!-- Node3 -->
<g id="node3" class="node">
<title>Node3</title>
<g id="a_node3"><a xlink:href="classrack_1_1VolumeOp.html" target="_top" xlink:title=" ">
<polygon fill="white" stroke="black" points="198,-152.5 198,-171.5 340,-171.5 340,-152.5 198,-152.5"/>
<text text-anchor="middle" x="269" y="-159.5" font-family="Helvetica,sans-Serif" font-size="10.00">VolumeOp&lt; PolarODIM &gt;</text>
</a>
</g>
</g>
<!-- Node3&#45;&gt;Node2 -->
<g id="edge2" class="edge">
<title>Node3&#45;&gt;Node2</title>
<path fill="none" stroke="midnightblue" d="M350.48,-162C359.23,-162 367.89,-162 375.98,-162"/>
<polygon fill="midnightblue" stroke="midnightblue" points="350.2,-158.5 340.2,-162 350.2,-165.5 350.2,-158.5"/>
</g>
<!-- Node4 -->
<g id="node4" class="node">
<title>Node4</title>
<g id="a_node4"><a xlink:href="classdrain_1_1image_1_1ProductOp.html" target="_top" xlink:title=" ">
<polygon fill="white" stroke="black" points="0,-147 0,-177 162,-177 162,-147 0,-147"/>
<text text-anchor="start" x="8" y="-165" font-family="Helvetica,sans-Serif" font-size="10.00">ProductOp&lt; const PolarODIM,</text>
<text text-anchor="middle" x="81" y="-154" font-family="Helvetica,sans-Serif" font-size="10.00"> PolarODIM &gt;</text>
</a>
</g>
</g>
<!-- Node4&#45;&gt;Node3 -->
<g id="edge3" class="edge">
<title>Node4&#45;&gt;Node3</title>
<path fill="none" stroke="midnightblue" d="M172.32,-162C180.94,-162 189.59,-162 197.97,-162"/>
<polygon fill="midnightblue" stroke="midnightblue" points="172.23,-158.5 162.23,-162 172.23,-165.5 172.23,-158.5"/>
</g>
<!-- Node6 -->
<g id="node6" class="node">
<title>Node6</title>
<g id="a_node6"><a xlink:href="classrack_1_1DopplerAvgOp.html" target="_top" xlink:title="Simple op not producing quality field.">
<polygon fill="white" stroke="black" points="820.5,-332.5 820.5,-351.5 906.5,-351.5 906.5,-332.5 820.5,-332.5"/>
<text text-anchor="middle" x="863.5" y="-339.5" font-family="Helvetica,sans-Serif" font-size="10.00">DopplerAvgOp</text>
</a>
</g>
</g>
<!-- Node5&#45;&gt;Node6 -->
<g id="edge5" class="edge">
<title>Node5&#45;&gt;Node6</title>
<path fill="none" stroke="midnightblue" d="M775.31,-342C791,-342 806.68,-342 820.33,-342"/>
<polygon fill="midnightblue" stroke="midnightblue" points="775.02,-338.5 765.02,-342 775.02,-345.5 775.02,-338.5"/>
</g>
<!-- Node8 -->
<g id="node8" class="node">
<title>Node8</title>
<g id="a_node8"><a xlink:href="classrack_1_1DopplerDevOp.html" target="_top" xlink:title=" ">
<polygon fill="white" stroke="black" points="819.5,-283.5 819.5,-302.5 907.5,-302.5 907.5,-283.5 819.5,-283.5"/>
<text text-anchor="middle" x="863.5" y="-290.5" font-family="Helvetica,sans-Serif" font-size="10.00">DopplerDevOp</text>
</a>
</g>
</g>
<!-- Node7&#45;&gt;Node8 -->
<g id="edge7" class="edge">
<title>Node7&#45;&gt;Node8</title>
<path fill="none" stroke="midnightblue" d="M775.11,-293C790.5,-293 805.89,-293 819.36,-293"/>
<polygon fill="midnightblue" stroke="midnightblue" points="775.02,-289.5 765.02,-293 775.02,-296.5 775.02,-289.5"/>
</g>
<!-- Node10 -->
<g id="node10" class="node">
<title>Node10</title>
<g id="a_node10"><a xlink:href="classrack_1_1DopplerEccentricityOp.html" target="_top" xlink:title=" ">
<polygon fill="white" stroke="black" points="801,-234.5 801,-253.5 926,-253.5 926,-234.5 801,-234.5"/>
<text text-anchor="middle" x="863.5" y="-241.5" font-family="Helvetica,sans-Serif" font-size="10.00">DopplerEccentricityOp</text>
</a>
</g>
</g>
<!-- Node9&#45;&gt;Node10 -->
<g id="edge9" class="edge">
<title>Node9&#45;&gt;Node10</title>
<path fill="none" stroke="midnightblue" d="M775.17,-244C783.83,-244 792.48,-244 800.8,-244"/>
<polygon fill="midnightblue" stroke="midnightblue" points="775.02,-240.5 765.02,-244 775.02,-247.5 775.02,-240.5"/>
</g>
<!-- Node15 -->
<g id="node15" class="node">
<title>Node15</title>
<g id="a_node15"><a xlink:href="classrack_1_1DopplerDiffPlotterOp.html" target="_top" xlink:title=" ">
<polygon fill="white" stroke="black" points="804,-76.5 804,-95.5 923,-95.5 923,-76.5 804,-76.5"/>
<text text-anchor="middle" x="863.5" y="-83.5" font-family="Helvetica,sans-Serif" font-size="10.00">DopplerDiffPlotterOp</text>
</a>
</g>
</g>
<!-- Node14&#45;&gt;Node15 -->
<g id="edge14" class="edge">
<title>Node14&#45;&gt;Node15</title>
<path fill="none" stroke="midnightblue" d="M751.85,-86C768.88,-86 787.17,-86 803.88,-86"/>
<polygon fill="midnightblue" stroke="midnightblue" points="751.43,-82.5 741.43,-86 751.43,-89.5 751.43,-82.5"/>
</g>
<!-- Node17 -->
<g id="node17" class="node">
<title>Node17</title>
<g id="a_node17"><a xlink:href="classrack_1_1DopplerInversionOp.html" target="_top" xlink:title="Derives two&#45;dimensional wind (u,v) from Doppler data.">
<polygon fill="white" stroke="black" points="807,-38.5 807,-57.5 920,-57.5 920,-38.5 807,-38.5"/>
<text text-anchor="middle" x="863.5" y="-45.5" font-family="Helvetica,sans-Serif" font-size="10.00">DopplerInversionOp</text>
</a>
</g>
</g>
<!-- Node16&#45;&gt;Node17 -->
<g id="edge16" class="edge">
<title>Node16&#45;&gt;Node17</title>
<path fill="none" stroke="midnightblue" d="M743.1,-48C763.47,-48 786.52,-48 806.9,-48"/>
<polygon fill="midnightblue" stroke="midnightblue" points="743.02,-44.5 733.02,-48 743.02,-51.5 743.02,-44.5"/>
</g>
</g>
</svg>
        <g id="navigator" transform="translate(0 0)" fill="#404254">
                <rect fill="#f2f5e9" fill-opacity="0.5" stroke="#606060" stroke-width=".5" x="0" y="0" width="60" height="60"/>
                <use id="zoomplus" xlink:href="#zoomPlus" x="17" y="9" onmousedown="handleZoom(evt,'in')"/>
                <use id="zoomminus" xlink:href="#zoomMin" x="42" y="9" onmousedown="handleZoom(evt,'out')"/>
                <use id="reset" xlink:href="#resetDef" x="30" y="36" onmousedown="handleReset()"/>
                <g id="arrowUp" xlink:href="#dirArrow" transform="translate(30 24)" onmousedown="handlePan(0,-1)">
                  <use xlink:href="#rim" fill="#404040">
                        <set attributeName="fill" to="#808080" begin="arrowUp.mouseover" end="arrowUp.mouseout"/>
                  </use>
                  <path fill="none" stroke="white" stroke-width="1.5" d="M0,-3.0v7 M-2.5,-0.5L0,-3.0L2.5,-0.5"/>
                </g>
                <g id="arrowRight" xlink:href="#dirArrow" transform="rotate(90) translate(36 -43)" onmousedown="handlePan(1,0)">
                  <use xlink:href="#rim" fill="#404040">
                        <set attributeName="fill" to="#808080" begin="arrowRight.mouseover" end="arrowRight.mouseout"/>
                  </use>
                  <path fill="none" stroke="white" stroke-width="1.5" d="M0,-3.0v7 M-2.5,-0.5L0,-3.0L2.5,-0.5"/>
                </g>
                <g id="arrowDown" xlink:href="#dirArrow" transform="rotate(180) translate(-30 -48)" onmousedown="handlePan(0,1)">
                  <use xlink:href="#rim" fill="#404040">
                        <set attributeName="fill" to="#808080" begin="arrowDown.mouseover" end="arrowDown.mouseout"/>
                  </use>
                  <path fill="none" stroke="white" stroke-width="1.5" d="M0,-3.0v7 M-2.5,-0.5L0,-3.0L2.5,-0.5"/>
                </g>
                <g id="arrowLeft" xlink:href="#dirArrow" transform="rotate(270) translate(-36 17)" onmousedown="handlePan(-1,0)">
                  <use xlink:href="#rim" fill="#404040">
                        <set attributeName="fill" to="#808080" begin="arrowLeft.mouseover" end="arrowLeft.mouseout"/>
                  </use>
                  <path fill="none" stroke="white" stroke-width="1.5" d="M0,-3.0v7 M-2.5,-0.5L0,-3.0L2.5,-0.5"/>
                </g>
        </g>
        <svg viewBox="0 0 15 15" width="100%" height="30px" preserveAspectRatio="xMaxYMin meet">
         <g id="arrow_out" transform="scale(0.3 0.3)">
          <a xlink:href="classrack_1_1DopplerOp__inherit__graph_org.svg" target="_base">
           <rect id="button" ry="5" rx="5" y="6" x="6" height="38" width="38"
                fill="#f2f5e9" fill-opacity="0.5" stroke="#606060" stroke-width="1.0"/>
           <path id="arrow"
             d="M 11.500037,31.436501 C 11.940474,20.09759 22.043105,11.32322 32.158766,21.979434 L 37.068811,17.246167 C 37.068811,17.246167 37.088388,32 37.088388,32 L 22.160133,31.978069 C 22.160133,31.978069 26.997745,27.140456 26.997745,27.140456 C 18.528582,18.264221 13.291696,25.230495 11.500037,31.436501 z"
             style="fill:#404040;"/>
          </a>
         </g>
        </svg>
</svg>
