<?xml version="1.0" encoding="UTF-8" standalone="no"?>
<!DOCTYPE svg PUBLIC "-//W3C//DTD SVG 1.1//EN"
 "http://www.w3.org/Graphics/SVG/1.1/DTD/svg11.dtd">
<!-- Generated by graphviz version 2.43.0 (0)
 -->
<!-- Title: GradientOp Pages: 1 -->
<svg width="214pt" height="308pt"
 viewBox="0.00 0.00 213.50 308.00" xmlns="http://www.w3.org/2000/svg" xmlns:xlink="http://www.w3.org/1999/xlink">
<g id="graph0" class="graph" transform="scale(1 1) rotate(0) translate(4 304)">
<title>GradientOp</title>
<polygon fill="white" stroke="transparent" points="-4,4 -4,-304 209.5,-304 209.5,4 -4,4"/>
<!-- Node1 -->
<g id="node1" class="node">
<title>Node1</title>
<g id="a_node1"><a xlink:title="Computes spatial horizontal derivatives (dx and dy).">
<polygon fill="#bfbfbf" stroke="black" points="67.5,-56.5 67.5,-75.5 139.5,-75.5 139.5,-56.5 67.5,-56.5"/>
<text text-anchor="middle" x="103.5" y="-63.5" font-family="Helvetica,sans-Serif" font-size="10.00">GradientOp</text>
</a>
</g>
</g>
<!-- Node6 -->
<g id="node6" class="node">
<title>Node6</title>
<g id="a_node6"><a xlink:href="classdrain_1_1image_1_1GradientHorzOp.html" target="_top" xlink:title=" ">
<polygon fill="white" stroke="black" points="0,-0.5 0,-19.5 95,-19.5 95,-0.5 0,-0.5"/>
<text text-anchor="middle" x="47.5" y="-7.5" font-family="Helvetica,sans-Serif" font-size="10.00">GradientHorzOp</text>
</a>
</g>
</g>
<!-- Node1&#45;&gt;Node6 -->
<g id="edge5" class="edge">
<title>Node1&#45;&gt;Node6</title>
<path fill="none" stroke="midnightblue" d="M87.17,-49.25C77.24,-39.67 64.91,-27.79 56.66,-19.83"/>
<polygon fill="midnightblue" stroke="midnightblue" points="84.87,-51.9 94.5,-56.32 89.73,-46.86 84.87,-51.9"/>
</g>
<!-- Node7 -->
<g id="node7" class="node">
<title>Node7</title>
<g id="a_node7"><a xlink:href="classdrain_1_1image_1_1GradientVertOp.html" target="_top" xlink:title=" ">
<polygon fill="white" stroke="black" points="113.5,-0.5 113.5,-19.5 205.5,-19.5 205.5,-0.5 113.5,-0.5"/>
<text text-anchor="middle" x="159.5" y="-7.5" font-family="Helvetica,sans-Serif" font-size="10.00">GradientVertOp</text>
</a>
</g>
</g>
<!-- Node1&#45;&gt;Node7 -->
<g id="edge6" class="edge">
<title>Node1&#45;&gt;Node7</title>
<path fill="none" stroke="midnightblue" d="M119.83,-49.25C129.76,-39.67 142.09,-27.79 150.34,-19.83"/>
<polygon fill="midnightblue" stroke="midnightblue" points="117.27,-46.86 112.5,-56.32 122.13,-51.9 117.27,-46.86"/>
</g>
<!-- Node2 -->
<g id="node2" class="node">
<title>Node2</title>
<g id="a_node2"><a xlink:href="classdrain_1_1image_1_1DifferentialOp.html" target="_top" xlink:title="Virtual base class for horizontal and vertical intensity derivatives.">
<polygon fill="white" stroke="black" points="60.5,-112.5 60.5,-131.5 146.5,-131.5 146.5,-112.5 60.5,-112.5"/>
<text text-anchor="middle" x="103.5" y="-119.5" font-family="Helvetica,sans-Serif" font-size="10.00">DifferentialOp</text>
</a>
</g>
</g>
<!-- Node2&#45;&gt;Node1 -->
<g id="edge1" class="edge">
<title>Node2&#45;&gt;Node1</title>
<path fill="none" stroke="midnightblue" d="M103.5,-101.8C103.5,-92.91 103.5,-82.78 103.5,-75.75"/>
<polygon fill="midnightblue" stroke="midnightblue" points="100,-102.08 103.5,-112.08 107,-102.08 100,-102.08"/>
</g>
<!-- Node3 -->
<g id="node3" class="node">
<title>Node3</title>
<g id="a_node3"><a xlink:href="classdrain_1_1image_1_1ImageOp.html" target="_top" xlink:title="Base class for image processing functions.">
<polygon fill="white" stroke="black" points="73,-168.5 73,-187.5 134,-187.5 134,-168.5 73,-168.5"/>
<text text-anchor="middle" x="103.5" y="-175.5" font-family="Helvetica,sans-Serif" font-size="10.00">ImageOp</text>
</a>
</g>
</g>
<!-- Node3&#45;&gt;Node2 -->
<g id="edge2" class="edge">
<title>Node3&#45;&gt;Node2</title>
<path fill="none" stroke="midnightblue" d="M103.5,-157.8C103.5,-148.91 103.5,-138.78 103.5,-131.75"/>
<polygon fill="midnightblue" stroke="midnightblue" points="100,-158.08 103.5,-168.08 107,-158.08 100,-158.08"/>
</g>
<!-- Node4 -->
<g id="node4" class="node">
<title>Node4</title>
<g id="a_node4"><a xlink:href="classdrain_1_1image_1_1ImageMod.html" target="_top" xlink:title="Class for operations that modify an existing image instead of producing a new image.">
<polygon fill="white" stroke="black" points="69.5,-224.5 69.5,-243.5 137.5,-243.5 137.5,-224.5 69.5,-224.5"/>
<text text-anchor="middle" x="103.5" y="-231.5" font-family="Helvetica,sans-Serif" font-size="10.00">ImageMod</text>
</a>
</g>
</g>
<!-- Node4&#45;&gt;Node3 -->
<g id="edge3" class="edge">
<title>Node4&#45;&gt;Node3</title>
<path fill="none" stroke="midnightblue" d="M103.5,-213.8C103.5,-204.91 103.5,-194.78 103.5,-187.75"/>
<polygon fill="midnightblue" stroke="midnightblue" points="100,-214.08 103.5,-224.08 107,-214.08 100,-214.08"/>
</g>
<!-- Node5 -->
<g id="node5" class="node">
<title>Node5</title>
<g id="a_node5"><a xlink:href="classdrain_1_1BeanLike.html" target="_top" xlink:title="Something which has a name, a description and possibly some parameters of varying type.">
<polygon fill="white" stroke="black" points="73,-280.5 73,-299.5 134,-299.5 134,-280.5 73,-280.5"/>
<text text-anchor="middle" x="103.5" y="-287.5" font-family="Helvetica,sans-Serif" font-size="10.00">BeanLike</text>
</a>
</g>
</g>
<!-- Node5&#45;&gt;Node4 -->
<g id="edge4" class="edge">
<title>Node5&#45;&gt;Node4</title>
<path fill="none" stroke="midnightblue" d="M103.5,-269.8C103.5,-260.91 103.5,-250.78 103.5,-243.75"/>
<polygon fill="midnightblue" stroke="midnightblue" points="100,-270.08 103.5,-280.08 107,-270.08 100,-270.08"/>
</g>
</g>
</svg>
