<?xml version="1.0" encoding="UTF-8" standalone="no"?>
<!DOCTYPE svg PUBLIC "-//W3C//DTD SVG 1.1//EN"
 "http://www.w3.org/Graphics/SVG/1.1/DTD/svg11.dtd">
<!-- Generated by graphviz version 2.43.0 (0)
 -->
<!-- Title: GeoFrame Pages: 1 -->
<svg width="406pt" height="296pt"
 viewBox="0.00 0.00 406.00 296.00" xmlns="http://www.w3.org/2000/svg" xmlns:xlink="http://www.w3.org/1999/xlink">
<g id="graph0" class="graph" transform="scale(1 1) rotate(0) translate(4 292)">
<title>GeoFrame</title>
<polygon fill="white" stroke="transparent" points="-4,4 -4,-292 402,-292 402,4 -4,4"/>
<!-- Node1 -->
<g id="node1" class="node">
<title>Node1</title>
<g id="a_node1"><a xlink:title="Array with georeferencing support.">
<polygon fill="#bfbfbf" stroke="black" points="105.5,-0.5 105.5,-19.5 172.5,-19.5 172.5,-0.5 105.5,-0.5"/>
<text text-anchor="middle" x="139" y="-7.5" font-family="Helvetica,sans-Serif" font-size="10.00">GeoFrame</text>
</a>
</g>
</g>
<!-- Node2 -->
<g id="node2" class="node">
<title>Node2</title>
<g id="a_node2"><a xlink:href="classdrain_1_1Proj4.html" target="_top" xlink:title=" ">
<polygon fill="white" stroke="black" points="69.5,-111.5 69.5,-130.5 110.5,-130.5 110.5,-111.5 69.5,-111.5"/>
<text text-anchor="middle" x="90" y="-118.5" font-family="Helvetica,sans-Serif" font-size="10.00">Proj4</text>
</a>
</g>
</g>
<!-- Node2&#45;&gt;Node1 -->
<g id="edge1" class="edge">
<title>Node2&#45;&gt;Node1</title>
<path fill="none" stroke="#9a32cd" stroke-dasharray="5,2" d="M93.27,-101.46C96.85,-84.22 103.65,-58.23 115,-38 118.81,-31.22 124.55,-24.67 129.47,-19.72"/>
<polygon fill="#9a32cd" stroke="#9a32cd" points="89.82,-100.9 91.37,-111.38 96.69,-102.22 89.82,-100.9"/>
<text text-anchor="middle" x="137" y="-63" font-family="Helvetica,sans-Serif" font-size="10.00"> projR2M</text>
</g>
<!-- Node3 -->
<g id="node3" class="node">
<title>Node3</title>
<g id="a_node3"><a xlink:href="classdrain_1_1Dictionary2.html" target="_top" xlink:title=" ">
<polygon fill="white" stroke="black" points="0,-189.5 0,-219.5 118,-219.5 118,-189.5 0,-189.5"/>
<text text-anchor="start" x="8" y="-207.5" font-family="Helvetica,sans-Serif" font-size="10.00">Dictionary2&lt; int, std</text>
<text text-anchor="middle" x="59" y="-196.5" font-family="Helvetica,sans-Serif" font-size="10.00">::string &gt;</text>
</a>
</g>
</g>
<!-- Node3&#45;&gt;Node2 -->
<g id="edge2" class="edge">
<title>Node3&#45;&gt;Node2</title>
<path fill="none" stroke="#9a32cd" stroke-dasharray="5,2" d="M68.05,-179.72C74.34,-163.18 82.36,-142.1 86.75,-130.54"/>
<polygon fill="#9a32cd" stroke="#9a32cd" points="64.68,-178.71 64.4,-189.3 71.23,-181.2 64.68,-178.71"/>
<text text-anchor="middle" x="103" y="-157.5" font-family="Helvetica,sans-Serif" font-size="10.00"> epsgDict</text>
</g>
<!-- Node4 -->
<g id="node4" class="node">
<title>Node4</title>
<g id="a_node4"><a xlink:title=" ">
<polygon fill="white" stroke="#bfbfbf" points="4,-257.5 4,-287.5 114,-287.5 114,-257.5 4,-257.5"/>
<text text-anchor="start" x="12" y="-275.5" font-family="Helvetica,sans-Serif" font-size="10.00">list&lt; std::pair&lt; int,</text>
<text text-anchor="middle" x="59" y="-264.5" font-family="Helvetica,sans-Serif" font-size="10.00"> std::string &gt; &gt;</text>
</a>
</g>
</g>
<!-- Node4&#45;&gt;Node3 -->
<g id="edge3" class="edge">
<title>Node4&#45;&gt;Node3</title>
<path fill="none" stroke="midnightblue" d="M59,-247.03C59,-237.86 59,-227.74 59,-219.79"/>
<polygon fill="midnightblue" stroke="midnightblue" points="55.5,-247.18 59,-257.18 62.5,-247.18 55.5,-247.18"/>
</g>
<!-- Node5 -->
<g id="node5" class="node">
<title>Node5</title>
<g id="a_node5"><a xlink:href="structdrain_1_1Rectangle.html" target="_top" xlink:title=" ">
<polygon fill="white" stroke="black" points="138.5,-111.5 138.5,-130.5 259.5,-130.5 259.5,-111.5 138.5,-111.5"/>
<text text-anchor="middle" x="199" y="-118.5" font-family="Helvetica,sans-Serif" font-size="10.00">Rectangle&lt; double &gt;</text>
</a>
</g>
</g>
<!-- Node5&#45;&gt;Node1 -->
<g id="edge4" class="edge">
<title>Node5&#45;&gt;Node1</title>
<path fill="none" stroke="#9a32cd" stroke-dasharray="5,2" d="M191.28,-101.8C183.82,-84.85 171.8,-59.08 159,-38 155.12,-31.62 150.12,-24.87 146.09,-19.71"/>
<polygon fill="#9a32cd" stroke="#9a32cd" points="188.12,-103.31 195.3,-111.1 194.55,-100.54 188.12,-103.31"/>
<text text-anchor="middle" x="221" y="-85" font-family="Helvetica,sans-Serif" font-size="10.00"> extentNative</text>
<text text-anchor="middle" x="221" y="-74" font-family="Helvetica,sans-Serif" font-size="10.00">extentR</text>
<text text-anchor="middle" x="221" y="-63" font-family="Helvetica,sans-Serif" font-size="10.00">dataExtentD</text>
<text text-anchor="middle" x="221" y="-52" font-family="Helvetica,sans-Serif" font-size="10.00">extentD</text>
<text text-anchor="middle" x="221" y="-41" font-family="Helvetica,sans-Serif" font-size="10.00">dataOverlapD</text>
</g>
<!-- Node6 -->
<g id="node6" class="node">
<title>Node6</title>
<g id="a_node6"><a xlink:href="classdrain_1_1UniTuple.html" target="_top" xlink:title=" ">
<polygon fill="white" stroke="black" points="136,-195 136,-214 262,-214 262,-195 136,-195"/>
<text text-anchor="middle" x="199" y="-202" font-family="Helvetica,sans-Serif" font-size="10.00">UniTuple&lt; double, 4 &gt;</text>
</a>
</g>
</g>
<!-- Node6&#45;&gt;Node5 -->
<g id="edge5" class="edge">
<title>Node6&#45;&gt;Node5</title>
<path fill="none" stroke="midnightblue" d="M199,-184.38C199,-167.4 199,-143.37 199,-130.66"/>
<polygon fill="midnightblue" stroke="midnightblue" points="195.5,-184.78 199,-194.78 202.5,-184.78 195.5,-184.78"/>
</g>
<!-- Node7 -->
<g id="node7" class="node">
<title>Node7</title>
<g id="a_node7"><a xlink:href="structdrain_1_1Point2D.html" target="_top" xlink:title=" ">
<polygon fill="white" stroke="black" points="280,-195 280,-214 390,-214 390,-195 280,-195"/>
<text text-anchor="middle" x="335" y="-202" font-family="Helvetica,sans-Serif" font-size="10.00">Point2D&lt; double &gt;</text>
</a>
</g>
</g>
<!-- Node7&#45;&gt;Node5 -->
<g id="edge6" class="edge">
<title>Node7&#45;&gt;Node5</title>
<path fill="none" stroke="#9a32cd" stroke-dasharray="5,2" d="M311.93,-189.68C283.79,-172.81 237.06,-144.81 213.52,-130.7"/>
<polygon fill="#9a32cd" stroke="#9a32cd" points="310.33,-192.79 320.7,-194.93 313.92,-186.79 310.33,-192.79"/>
<text text-anchor="middle" x="307" y="-163" font-family="Helvetica,sans-Serif" font-size="10.00"> lowerLeft</text>
<text text-anchor="middle" x="307" y="-152" font-family="Helvetica,sans-Serif" font-size="10.00">upperRight</text>
</g>
<!-- Node8 -->
<g id="node8" class="node">
<title>Node8</title>
<g id="a_node8"><a xlink:href="classdrain_1_1UniTuple.html" target="_top" xlink:title=" ">
<polygon fill="white" stroke="black" points="272,-263 272,-282 398,-282 398,-263 272,-263"/>
<text text-anchor="middle" x="335" y="-270" font-family="Helvetica,sans-Serif" font-size="10.00">UniTuple&lt; double, 2 &gt;</text>
</a>
</g>
</g>
<!-- Node8&#45;&gt;Node7 -->
<g id="edge7" class="edge">
<title>Node8&#45;&gt;Node7</title>
<path fill="none" stroke="midnightblue" d="M335,-252.54C335,-239.97 335,-224.06 335,-214.34"/>
<polygon fill="midnightblue" stroke="midnightblue" points="331.5,-252.87 335,-262.87 338.5,-252.87 331.5,-252.87"/>
</g>
</g>
</svg>
