<?xml version="1.0" encoding="UTF-8" standalone="no"?>
<!DOCTYPE svg PUBLIC "-//W3C//DTD SVG 1.1//EN"
 "http://www.w3.org/Graphics/SVG/1.1/DTD/svg11.dtd">
<!-- Generated by graphviz version 2.43.0 (0)
 -->
<!-- Title: DataCoder Pages: 1 -->
<svg width="218pt" height="84pt"
 viewBox="0.00 0.00 218.00 84.00" xmlns="http://www.w3.org/2000/svg" xmlns:xlink="http://www.w3.org/1999/xlink">
<g id="graph0" class="graph" transform="scale(1 1) rotate(0) translate(4 80)">
<title>DataCoder</title>
<polygon fill="white" stroke="transparent" points="-4,4 -4,-80 214,-80 214,4 -4,4"/>
<!-- Node1 -->
<g id="node1" class="node">
<title>Node1</title>
<g id="a_node1"><a xlink:title="Converts ODIM encoded data (with markers) to natural values and backwards.">
<polygon fill="#bfbfbf" stroke="black" points="53.5,-0.5 53.5,-19.5 121.5,-19.5 121.5,-0.5 53.5,-0.5"/>
<text text-anchor="middle" x="87.5" y="-7.5" font-family="Helvetica,sans-Serif" font-size="10.00">DataCoder</text>
</a>
</g>
</g>
<!-- Node2 -->
<g id="node2" class="node">
<title>Node2</title>
<g id="a_node2"><a xlink:href="classdrain_1_1BeanLike.html" target="_top" xlink:title="Something which has a name, a description and possibly some parameters of varying type.">
<polygon fill="white" stroke="black" points="0,-56.5 0,-75.5 61,-75.5 61,-56.5 0,-56.5"/>
<text text-anchor="middle" x="30.5" y="-63.5" font-family="Helvetica,sans-Serif" font-size="10.00">BeanLike</text>
</a>
</g>
</g>
<!-- Node2&#45;&gt;Node1 -->
<g id="edge1" class="edge">
<title>Node2&#45;&gt;Node1</title>
<path fill="none" stroke="midnightblue" d="M47.12,-49.25C57.23,-39.67 69.78,-27.79 78.18,-19.83"/>
<polygon fill="midnightblue" stroke="midnightblue" points="44.51,-46.91 39.66,-56.32 49.32,-51.99 44.51,-46.91"/>
</g>
<!-- Node3 -->
<g id="node3" class="node">
<title>Node3</title>
<g id="a_node3"><a xlink:href="structdrain_1_1image_1_1AccumulationConverter.html" target="_top" xlink:title="Converts raw data to values appropriate for accumulation.">
<polygon fill="white" stroke="black" points="79,-56.5 79,-75.5 210,-75.5 210,-56.5 79,-56.5"/>
<text text-anchor="middle" x="144.5" y="-63.5" font-family="Helvetica,sans-Serif" font-size="10.00">AccumulationConverter</text>
</a>
</g>
</g>
<!-- Node3&#45;&gt;Node1 -->
<g id="edge2" class="edge">
<title>Node3&#45;&gt;Node1</title>
<path fill="none" stroke="midnightblue" d="M127.88,-49.25C117.77,-39.67 105.22,-27.79 96.82,-19.83"/>
<polygon fill="midnightblue" stroke="midnightblue" points="125.68,-51.99 135.34,-56.32 130.49,-46.91 125.68,-51.99"/>
</g>
</g>
</svg>
