<?xml version="1.0" encoding="UTF-8" standalone="no"?>
<!DOCTYPE svg PUBLIC "-//W3C//DTD SVG 1.1//EN"
 "http://www.w3.org/Graphics/SVG/1.1/DTD/svg11.dtd">
<!-- Generated by graphviz version 2.43.0 (0)
 -->
<!-- Title: BasicCommand Pages: 1 -->
<svg width="379pt" height="468pt"
 viewBox="0.00 0.00 378.50 468.00" xmlns="http://www.w3.org/2000/svg" xmlns:xlink="http://www.w3.org/1999/xlink">
<g id="graph0" class="graph" transform="scale(1 1) rotate(0) translate(4 464)">
<title>BasicCommand</title>
<polygon fill="white" stroke="transparent" points="-4,4 -4,-464 374.5,-464 374.5,4 -4,4"/>
<!-- Node1 -->
<g id="node1" class="node">
<title>Node1</title>
<g id="a_node1"><a xlink:title="Simple implementation of Command: adds name , description and parameters .">
<polygon fill="#bfbfbf" stroke="black" points="181.5,-0.5 181.5,-19.5 274.5,-19.5 274.5,-0.5 181.5,-0.5"/>
<text text-anchor="middle" x="228" y="-7.5" font-family="Helvetica,sans-Serif" font-size="10.00">BasicCommand</text>
</a>
</g>
</g>
<!-- Node2 -->
<g id="node2" class="node">
<title>Node2</title>
<g id="a_node2"><a xlink:href="classdrain_1_1Command.html" target="_top" xlink:title="Base class for commands: typically actions taking parameters but also plain variable assignments and ...">
<polygon fill="white" stroke="black" points="147.5,-67.5 147.5,-86.5 214.5,-86.5 214.5,-67.5 147.5,-67.5"/>
<text text-anchor="middle" x="181" y="-74.5" font-family="Helvetica,sans-Serif" font-size="10.00">Command</text>
</a>
</g>
</g>
<!-- Node2&#45;&gt;Node1 -->
<g id="edge1" class="edge">
<title>Node2&#45;&gt;Node1</title>
<path fill="none" stroke="midnightblue" d="M193.36,-58.9C202.49,-46.27 214.55,-29.6 221.76,-19.63"/>
<polygon fill="midnightblue" stroke="midnightblue" points="190.36,-57.08 187.34,-67.23 196.03,-61.18 190.36,-57.08"/>
</g>
<!-- Node3 -->
<g id="node3" class="node">
<title>Node3</title>
<g id="a_node3"><a xlink:href="classdrain_1_1Contextual.html" target="_top" xlink:title=" ">
<polygon fill="white" stroke="black" points="124,-124.5 124,-143.5 194,-143.5 194,-124.5 124,-124.5"/>
<text text-anchor="middle" x="159" y="-131.5" font-family="Helvetica,sans-Serif" font-size="10.00">Contextual</text>
</a>
</g>
</g>
<!-- Node3&#45;&gt;Node2 -->
<g id="edge2" class="edge">
<title>Node3&#45;&gt;Node2</title>
<path fill="none" stroke="midnightblue" d="M166.19,-115.03C169.99,-105.53 174.48,-94.3 177.51,-86.71"/>
<polygon fill="midnightblue" stroke="midnightblue" points="162.9,-113.82 162.44,-124.41 169.4,-116.42 162.9,-113.82"/>
</g>
<!-- Node4 -->
<g id="node4" class="node">
<title>Node4</title>
<g id="a_node4"><a xlink:href="classdrain_1_1Context.html" target="_top" xlink:title=" ">
<polygon fill="white" stroke="black" points="128.5,-191.5 128.5,-210.5 183.5,-210.5 183.5,-191.5 128.5,-191.5"/>
<text text-anchor="middle" x="156" y="-198.5" font-family="Helvetica,sans-Serif" font-size="10.00">Context</text>
</a>
</g>
</g>
<!-- Node4&#45;&gt;Node3 -->
<g id="edge3" class="edge">
<title>Node4&#45;&gt;Node3</title>
<path fill="none" stroke="#9a32cd" stroke-dasharray="5,2" d="M156.88,-181.04C157.45,-168.67 158.16,-153.12 158.6,-143.63"/>
<polygon fill="#9a32cd" stroke="#9a32cd" points="153.37,-181.08 156.4,-191.23 160.36,-181.41 153.37,-181.08"/>
<text text-anchor="middle" x="185" y="-165" font-family="Helvetica,sans-Serif" font-size="10.00"> contextPtr</text>
</g>
<!-- Node5 -->
<g id="node5" class="node">
<title>Node5</title>
<g id="a_node5"><a xlink:href="classdrain_1_1VariableMap.html" target="_top" xlink:title="A map of Variables.">
<polygon fill="white" stroke="black" points="39,-258.5 39,-277.5 117,-277.5 117,-258.5 39,-258.5"/>
<text text-anchor="middle" x="78" y="-265.5" font-family="Helvetica,sans-Serif" font-size="10.00">VariableMap</text>
</a>
</g>
</g>
<!-- Node5&#45;&gt;Node4 -->
<g id="edge4" class="edge">
<title>Node5&#45;&gt;Node4</title>
<path fill="none" stroke="#9a32cd" stroke-dasharray="5,2" d="M84.01,-249.04C87.03,-242.09 91.3,-234.51 97,-229 105.75,-220.55 117.62,-214.42 128.42,-210.16"/>
<polygon fill="#9a32cd" stroke="#9a32cd" points="80.71,-247.84 80.43,-258.44 87.26,-250.33 80.71,-247.84"/>
<text text-anchor="middle" x="124.5" y="-232" font-family="Helvetica,sans-Serif" font-size="10.00"> statusMap</text>
</g>
<!-- Node6 -->
<g id="node6" class="node">
<title>Node6</title>
<g id="a_node6"><a xlink:href="classdrain_1_1SmartMap.html" target="_top" xlink:title=" ">
<polygon fill="white" stroke="black" points="13,-321 13,-340 143,-340 143,-321 13,-321"/>
<text text-anchor="middle" x="78" y="-328" font-family="Helvetica,sans-Serif" font-size="10.00">SmartMap&lt; Variable &gt;</text>
</a>
</g>
</g>
<!-- Node6&#45;&gt;Node5 -->
<g id="edge5" class="edge">
<title>Node6&#45;&gt;Node5</title>
<path fill="none" stroke="midnightblue" d="M78,-310.5C78,-299.5 78,-286.18 78,-277.65"/>
<polygon fill="midnightblue" stroke="midnightblue" points="74.5,-310.83 78,-320.83 81.5,-310.83 74.5,-310.83"/>
</g>
<!-- Node7 -->
<g id="node7" class="node">
<title>Node7</title>
<g id="a_node7"><a xlink:title=" ">
<polygon fill="white" stroke="#bfbfbf" points="0,-383.5 0,-402.5 156,-402.5 156,-383.5 0,-383.5"/>
<text text-anchor="middle" x="78" y="-390.5" font-family="Helvetica,sans-Serif" font-size="10.00">map&lt; std::string, Variable &gt;</text>
</a>
</g>
</g>
<!-- Node7&#45;&gt;Node6 -->
<g id="edge6" class="edge">
<title>Node7&#45;&gt;Node6</title>
<path fill="none" stroke="midnightblue" d="M78,-373C78,-362 78,-348.68 78,-340.15"/>
<polygon fill="midnightblue" stroke="midnightblue" points="74.5,-373.33 78,-383.33 81.5,-373.33 74.5,-373.33"/>
</g>
<!-- Node8 -->
<g id="node8" class="node">
<title>Node8</title>
<g id="a_node8"><a xlink:href="classdrain_1_1Log.html" target="_top" xlink:title="Handler for notifications sent by a Logger.">
<polygon fill="white" stroke="black" points="139,-258.5 139,-277.5 173,-277.5 173,-258.5 139,-258.5"/>
<text text-anchor="middle" x="156" y="-265.5" font-family="Helvetica,sans-Serif" font-size="10.00">Log</text>
</a>
</g>
</g>
<!-- Node8&#45;&gt;Node4 -->
<g id="edge7" class="edge">
<title>Node8&#45;&gt;Node4</title>
<path fill="none" stroke="#9a32cd" stroke-dasharray="5,2" d="M156,-248.04C156,-235.67 156,-220.12 156,-210.63"/>
<polygon fill="#9a32cd" stroke="#9a32cd" points="152.5,-248.23 156,-258.23 159.5,-248.23 152.5,-248.23"/>
<text text-anchor="middle" x="165.5" y="-232" font-family="Helvetica,sans-Serif" font-size="10.00"> log</text>
</g>
<!-- Node9 -->
<g id="node9" class="node">
<title>Node9</title>
<g id="a_node9"><a xlink:href="classdrain_1_1StatusFlags.html" target="_top" xlink:title=" ">
<polygon fill="white" stroke="black" points="191,-258.5 191,-277.5 265,-277.5 265,-258.5 191,-258.5"/>
<text text-anchor="middle" x="228" y="-265.5" font-family="Helvetica,sans-Serif" font-size="10.00">StatusFlags</text>
</a>
</g>
</g>
<!-- Node9&#45;&gt;Node4 -->
<g id="edge8" class="edge">
<title>Node9&#45;&gt;Node4</title>
<path fill="none" stroke="#9a32cd" stroke-dasharray="5,2" d="M210.67,-251.36C196.52,-238.58 177.04,-220.99 165.56,-210.63"/>
<polygon fill="#9a32cd" stroke="#9a32cd" points="208.52,-254.13 218.29,-258.23 213.21,-248.93 208.52,-254.13"/>
<text text-anchor="middle" x="227" y="-232" font-family="Helvetica,sans-Serif" font-size="10.00"> statusFlags</text>
</g>
<!-- Node10 -->
<g id="node10" class="node">
<title>Node10</title>
<g id="a_node10"><a xlink:href="classdrain_1_1GlobalFlags.html" target="_top" xlink:title=" ">
<polygon fill="white" stroke="black" points="170,-315.5 170,-345.5 286,-345.5 286,-315.5 170,-315.5"/>
<text text-anchor="start" x="178" y="-333.5" font-family="Helvetica,sans-Serif" font-size="10.00">GlobalFlags&lt; status</text>
<text text-anchor="middle" x="228" y="-322.5" font-family="Helvetica,sans-Serif" font-size="10.00">_flag_id &gt;</text>
</a>
</g>
</g>
<!-- Node10&#45;&gt;Node9 -->
<g id="edge9" class="edge">
<title>Node10&#45;&gt;Node9</title>
<path fill="none" stroke="midnightblue" d="M228,-305.35C228,-295.51 228,-284.78 228,-277.54"/>
<polygon fill="midnightblue" stroke="midnightblue" points="224.5,-305.47 228,-315.47 231.5,-305.47 224.5,-305.47"/>
</g>
<!-- Node11 -->
<g id="node11" class="node">
<title>Node11</title>
<g id="a_node11"><a xlink:href="classdrain_1_1Flagger.html" target="_top" xlink:title="Bit vector accessible also with integer values associated with strings.">
<polygon fill="white" stroke="black" points="201.5,-383.5 201.5,-402.5 254.5,-402.5 254.5,-383.5 201.5,-383.5"/>
<text text-anchor="middle" x="228" y="-390.5" font-family="Helvetica,sans-Serif" font-size="10.00">Flagger</text>
</a>
</g>
</g>
<!-- Node11&#45;&gt;Node10 -->
<g id="edge10" class="edge">
<title>Node11&#45;&gt;Node10</title>
<path fill="none" stroke="midnightblue" d="M228,-373.22C228,-364.36 228,-353.96 228,-345.76"/>
<polygon fill="midnightblue" stroke="midnightblue" points="224.5,-373.33 228,-383.33 231.5,-373.33 224.5,-373.33"/>
</g>
<!-- Node12 -->
<g id="node12" class="node">
<title>Node12</title>
<g id="a_node12"><a xlink:href="classdrain_1_1FlagResolver.html" target="_top" xlink:title="Referencing a dictionary of binary values: {&quot;A&quot;,1: &quot;B&quot;:2, &quot;C&quot;: 4, &quot;D&quot;: 8, ...} resolves two&#45;way mappi...">
<polygon fill="white" stroke="black" points="188,-440.5 188,-459.5 268,-459.5 268,-440.5 188,-440.5"/>
<text text-anchor="middle" x="228" y="-447.5" font-family="Helvetica,sans-Serif" font-size="10.00">FlagResolver</text>
</a>
</g>
</g>
<!-- Node12&#45;&gt;Node11 -->
<g id="edge11" class="edge">
<title>Node12&#45;&gt;Node11</title>
<path fill="none" stroke="midnightblue" d="M228,-430.12C228,-420.82 228,-410.06 228,-402.71"/>
<polygon fill="midnightblue" stroke="midnightblue" points="224.5,-430.41 228,-440.41 231.5,-430.41 224.5,-430.41"/>
</g>
<!-- Node13 -->
<g id="node13" class="node">
<title>Node13</title>
<g id="a_node13"><a xlink:href="classdrain_1_1ReferenceMap.html" target="_top" xlink:title=" ">
<polygon fill="white" stroke="black" points="236.5,-67.5 236.5,-86.5 323.5,-86.5 323.5,-67.5 236.5,-67.5"/>
<text text-anchor="middle" x="280" y="-74.5" font-family="Helvetica,sans-Serif" font-size="10.00">ReferenceMap</text>
</a>
</g>
</g>
<!-- Node13&#45;&gt;Node1 -->
<g id="edge12" class="edge">
<title>Node13&#45;&gt;Node1</title>
<path fill="none" stroke="#9a32cd" stroke-dasharray="5,2" d="M266.62,-59.27C256.48,-46.6 242.96,-29.7 234.9,-19.63"/>
<polygon fill="#9a32cd" stroke="#9a32cd" points="264.01,-61.61 272.99,-67.23 269.47,-57.24 264.01,-61.61"/>
<text text-anchor="middle" x="288" y="-41" font-family="Helvetica,sans-Serif" font-size="10.00"> parameters</text>
</g>
<!-- Node14 -->
<g id="node14" class="node">
<title>Node14</title>
<g id="a_node14"><a xlink:href="classdrain_1_1SmartMap.html" target="_top" xlink:title=" ">
<polygon fill="white" stroke="black" points="213.5,-124.5 213.5,-143.5 356.5,-143.5 356.5,-124.5 213.5,-124.5"/>
<text text-anchor="middle" x="285" y="-131.5" font-family="Helvetica,sans-Serif" font-size="10.00">SmartMap&lt; Referencer &gt;</text>
</a>
</g>
</g>
<!-- Node14&#45;&gt;Node13 -->
<g id="edge13" class="edge">
<title>Node14&#45;&gt;Node13</title>
<path fill="none" stroke="midnightblue" d="M283.31,-114.42C282.46,-105.05 281.47,-94.14 280.79,-86.71"/>
<polygon fill="midnightblue" stroke="midnightblue" points="279.83,-114.76 284.22,-124.41 286.8,-114.13 279.83,-114.76"/>
</g>
<!-- Node15 -->
<g id="node15" class="node">
<title>Node15</title>
<g id="a_node15"><a xlink:title=" ">
<polygon fill="white" stroke="#bfbfbf" points="201.5,-191.5 201.5,-210.5 370.5,-210.5 370.5,-191.5 201.5,-191.5"/>
<text text-anchor="middle" x="286" y="-198.5" font-family="Helvetica,sans-Serif" font-size="10.00">map&lt; std::string, Referencer &gt;</text>
</a>
</g>
</g>
<!-- Node15&#45;&gt;Node14 -->
<g id="edge14" class="edge">
<title>Node15&#45;&gt;Node14</title>
<path fill="none" stroke="midnightblue" d="M285.71,-181.04C285.52,-168.67 285.28,-153.12 285.13,-143.63"/>
<polygon fill="midnightblue" stroke="midnightblue" points="282.21,-181.29 285.87,-191.23 289.21,-181.18 282.21,-181.29"/>
</g>
</g>
</svg>
