<?xml version="1.0" encoding="UTF-8" standalone="no"?>
<!DOCTYPE svg PUBLIC "-//W3C//DTD SVG 1.1//EN"
 "http://www.w3.org/Graphics/SVG/1.1/DTD/svg11.dtd">
<!-- Generated by graphviz version 2.43.0 (0)
 -->
<!-- Title: GaussianAverageOp Pages: 1 -->
<svg width="184pt" height="263pt"
 viewBox="0.00 0.00 184.00 263.00" xmlns="http://www.w3.org/2000/svg" xmlns:xlink="http://www.w3.org/1999/xlink">
<g id="graph0" class="graph" transform="scale(1 1) rotate(0) translate(4 259)">
<title>GaussianAverageOp</title>
<polygon fill="white" stroke="transparent" points="-4,4 -4,-259 180,-259 180,4 -4,4"/>
<!-- Node1 -->
<g id="node1" class="node">
<title>Node1</title>
<g id="a_node1"><a xlink:title="Sliding window averaging operator with optional weighting support.">
<polygon fill="#bfbfbf" stroke="black" points="30.5,-0.5 30.5,-19.5 145.5,-19.5 145.5,-0.5 30.5,-0.5"/>
<text text-anchor="middle" x="88" y="-7.5" font-family="Helvetica,sans-Serif" font-size="10.00">GaussianAverageOp</text>
</a>
</g>
</g>
<!-- Node2 -->
<g id="node2" class="node">
<title>Node2</title>
<g id="a_node2"><a xlink:href="classdrain_1_1image_1_1WindowOp.html" target="_top" xlink:title=" ">
<polygon fill="white" stroke="black" points="0,-56.5 0,-86.5 176,-86.5 176,-56.5 0,-56.5"/>
<text text-anchor="start" x="8" y="-74.5" font-family="Helvetica,sans-Serif" font-size="10.00">WindowOp&lt; Window&lt; Gaussian</text>
<text text-anchor="middle" x="88" y="-63.5" font-family="Helvetica,sans-Serif" font-size="10.00">WindowConf &gt; &gt;</text>
</a>
</g>
</g>
<!-- Node2&#45;&gt;Node1 -->
<g id="edge1" class="edge">
<title>Node2&#45;&gt;Node1</title>
<path fill="none" stroke="midnightblue" d="M88,-46.29C88,-36.86 88,-26.65 88,-19.66"/>
<polygon fill="midnightblue" stroke="midnightblue" points="84.5,-46.4 88,-56.4 91.5,-46.4 84.5,-46.4"/>
</g>
<!-- Node3 -->
<g id="node3" class="node">
<title>Node3</title>
<g id="a_node3"><a xlink:href="classdrain_1_1image_1_1ImageOp.html" target="_top" xlink:title="Base class for image processing functions.">
<polygon fill="white" stroke="black" points="57.5,-123.5 57.5,-142.5 118.5,-142.5 118.5,-123.5 57.5,-123.5"/>
<text text-anchor="middle" x="88" y="-130.5" font-family="Helvetica,sans-Serif" font-size="10.00">ImageOp</text>
</a>
</g>
</g>
<!-- Node3&#45;&gt;Node2 -->
<g id="edge2" class="edge">
<title>Node3&#45;&gt;Node2</title>
<path fill="none" stroke="midnightblue" d="M88,-113.23C88,-104.59 88,-94.5 88,-86.52"/>
<polygon fill="midnightblue" stroke="midnightblue" points="84.5,-113.48 88,-123.48 91.5,-113.48 84.5,-113.48"/>
</g>
<!-- Node4 -->
<g id="node4" class="node">
<title>Node4</title>
<g id="a_node4"><a xlink:href="classdrain_1_1image_1_1ImageMod.html" target="_top" xlink:title="Class for operations that modify an existing image instead of producing a new image.">
<polygon fill="white" stroke="black" points="54,-179.5 54,-198.5 122,-198.5 122,-179.5 54,-179.5"/>
<text text-anchor="middle" x="88" y="-186.5" font-family="Helvetica,sans-Serif" font-size="10.00">ImageMod</text>
</a>
</g>
</g>
<!-- Node4&#45;&gt;Node3 -->
<g id="edge3" class="edge">
<title>Node4&#45;&gt;Node3</title>
<path fill="none" stroke="midnightblue" d="M88,-168.8C88,-159.91 88,-149.78 88,-142.75"/>
<polygon fill="midnightblue" stroke="midnightblue" points="84.5,-169.08 88,-179.08 91.5,-169.08 84.5,-169.08"/>
</g>
<!-- Node5 -->
<g id="node5" class="node">
<title>Node5</title>
<g id="a_node5"><a xlink:href="classdrain_1_1BeanLike.html" target="_top" xlink:title="Something which has a name, a description and possibly some parameters of varying type.">
<polygon fill="white" stroke="black" points="57.5,-235.5 57.5,-254.5 118.5,-254.5 118.5,-235.5 57.5,-235.5"/>
<text text-anchor="middle" x="88" y="-242.5" font-family="Helvetica,sans-Serif" font-size="10.00">BeanLike</text>
</a>
</g>
</g>
<!-- Node5&#45;&gt;Node4 -->
<g id="edge4" class="edge">
<title>Node5&#45;&gt;Node4</title>
<path fill="none" stroke="midnightblue" d="M88,-224.8C88,-215.91 88,-205.78 88,-198.75"/>
<polygon fill="midnightblue" stroke="midnightblue" points="84.5,-225.08 88,-235.08 91.5,-225.08 84.5,-225.08"/>
</g>
</g>
</svg>
