<?xml version="1.0" encoding="UTF-8" standalone="no"?>
<!DOCTYPE svg PUBLIC "-//W3C//DTD SVG 1.1//EN"
 "http://www.w3.org/Graphics/SVG/1.1/DTD/svg11.dtd">
<!-- Generated by graphviz version 2.43.0 (0)
 -->
<!-- Title: SlidingStripeAverage&lt; SW &gt; Pages: 1 -->
<svg width="280pt" height="230pt"
 viewBox="0.00 0.00 280.00 230.00" xmlns="http://www.w3.org/2000/svg" xmlns:xlink="http://www.w3.org/1999/xlink">
<g id="graph0" class="graph" transform="scale(1 1) rotate(0) translate(4 226)">
<title>SlidingStripeAverage&lt; SW &gt;</title>
<polygon fill="white" stroke="transparent" points="-4,4 -4,-226 276,-226 276,4 -4,4"/>
<!-- Node1 -->
<g id="node1" class="node">
<title>Node1</title>
<g id="a_node1"><a xlink:title="Stripe window for computing averages.">
<polygon fill="#bfbfbf" stroke="black" points="0,-0.5 0,-30.5 118,-30.5 118,-0.5 0,-0.5"/>
<text text-anchor="start" x="8" y="-18.5" font-family="Helvetica,sans-Serif" font-size="10.00">SlidingStripeAverage</text>
<text text-anchor="middle" x="59" y="-7.5" font-family="Helvetica,sans-Serif" font-size="10.00">&lt; SW &gt;</text>
</a>
</g>
</g>
<!-- Node2 -->
<g id="node2" class="node">
<title>Node2</title>
<g id="a_node2"><a xlink:title=" ">
<polygon fill="white" stroke="#bfbfbf" points="27,-78.5 27,-97.5 59,-97.5 59,-78.5 27,-78.5"/>
<text text-anchor="middle" x="43" y="-85.5" font-family="Helvetica,sans-Serif" font-size="10.00">SW</text>
</a>
</g>
</g>
<!-- Node2&#45;&gt;Node1 -->
<g id="edge1" class="edge">
<title>Node2&#45;&gt;Node1</title>
<path fill="none" stroke="midnightblue" d="M47.18,-68.6C49.87,-56.72 53.33,-41.49 55.81,-30.58"/>
<polygon fill="midnightblue" stroke="midnightblue" points="43.76,-67.83 44.96,-78.36 50.59,-69.38 43.76,-67.83"/>
</g>
<!-- Node3 -->
<g id="node3" class="node">
<title>Node3</title>
<g id="a_node3"><a xlink:href="classdrain_1_1ValueScaling.html" target="_top" xlink:title="Linear scaling and physical range for image intensities.">
<polygon fill="white" stroke="black" points="77,-78.5 77,-97.5 157,-97.5 157,-78.5 77,-78.5"/>
<text text-anchor="middle" x="117" y="-85.5" font-family="Helvetica,sans-Serif" font-size="10.00">ValueScaling</text>
</a>
</g>
</g>
<!-- Node3&#45;&gt;Node1 -->
<g id="edge2" class="edge">
<title>Node3&#45;&gt;Node1</title>
<path fill="none" stroke="#9a32cd" stroke-dasharray="5,2" d="M103.34,-70.39C93.37,-58.28 80.02,-42.05 70.58,-30.58"/>
<polygon fill="#9a32cd" stroke="#9a32cd" points="100.83,-72.86 109.89,-78.36 106.24,-68.41 100.83,-72.86"/>
<text text-anchor="middle" x="113" y="-52" font-family="Helvetica,sans-Serif" font-size="10.00"> scaling</text>
</g>
<!-- Node4 -->
<g id="node4" class="node">
<title>Node4</title>
<g id="a_node4"><a xlink:href="classdrain_1_1UniTuple.html" target="_top" xlink:title=" ">
<polygon fill="white" stroke="black" points="13,-145.5 13,-164.5 139,-164.5 139,-145.5 13,-145.5"/>
<text text-anchor="middle" x="76" y="-152.5" font-family="Helvetica,sans-Serif" font-size="10.00">UniTuple&lt; double, 4 &gt;</text>
</a>
</g>
</g>
<!-- Node4&#45;&gt;Node3 -->
<g id="edge3" class="edge">
<title>Node4&#45;&gt;Node3</title>
<path fill="none" stroke="midnightblue" d="M87.02,-136.53C94.95,-123.95 105.33,-107.51 111.56,-97.63"/>
<polygon fill="midnightblue" stroke="midnightblue" points="83.9,-134.91 81.53,-145.23 89.82,-138.64 83.9,-134.91"/>
</g>
<!-- Node5 -->
<g id="node5" class="node">
<title>Node5</title>
<g id="a_node5"><a xlink:href="classdrain_1_1Range.html" target="_top" xlink:title=" ">
<polygon fill="white" stroke="black" points="157.5,-145.5 157.5,-164.5 260.5,-164.5 260.5,-145.5 157.5,-145.5"/>
<text text-anchor="middle" x="209" y="-152.5" font-family="Helvetica,sans-Serif" font-size="10.00">Range&lt; double &gt;</text>
</a>
</g>
</g>
<!-- Node5&#45;&gt;Node3 -->
<g id="edge4" class="edge">
<title>Node5&#45;&gt;Node3</title>
<path fill="none" stroke="#9a32cd" stroke-dasharray="5,2" d="M188.36,-139.42C170.18,-126.57 144.29,-108.28 129.21,-97.63"/>
<polygon fill="#9a32cd" stroke="#9a32cd" points="186.41,-142.32 196.59,-145.23 190.44,-136.6 186.41,-142.32"/>
<text text-anchor="middle" x="197" y="-119" font-family="Helvetica,sans-Serif" font-size="10.00"> physRange</text>
</g>
<!-- Node6 -->
<g id="node6" class="node">
<title>Node6</title>
<g id="a_node6"><a xlink:href="classdrain_1_1UniTuple.html" target="_top" xlink:title=" ">
<polygon fill="white" stroke="black" points="146,-202.5 146,-221.5 272,-221.5 272,-202.5 146,-202.5"/>
<text text-anchor="middle" x="209" y="-209.5" font-family="Helvetica,sans-Serif" font-size="10.00">UniTuple&lt; double, 2 &gt;</text>
</a>
</g>
</g>
<!-- Node6&#45;&gt;Node5 -->
<g id="edge5" class="edge">
<title>Node6&#45;&gt;Node5</title>
<path fill="none" stroke="midnightblue" d="M209,-192.12C209,-182.82 209,-172.06 209,-164.71"/>
<polygon fill="midnightblue" stroke="midnightblue" points="205.5,-192.41 209,-202.41 212.5,-192.41 205.5,-192.41"/>
</g>
</g>
</svg>
