<?xml version="1.0" encoding="UTF-8" standalone="no"?>
<!DOCTYPE svg PUBLIC "-//W3C//DTD SVG 1.1//EN"
 "http://www.w3.org/Graphics/SVG/1.1/DTD/svg11.dtd">
<!-- Generated by graphviz version 2.43.0 (0)
 -->
<!-- Title: CartesianBBoxReset Pages: 1 -->
<svg width="379pt" height="525pt"
 viewBox="0.00 0.00 378.50 525.00" xmlns="http://www.w3.org/2000/svg" xmlns:xlink="http://www.w3.org/1999/xlink">
<g id="graph0" class="graph" transform="scale(1 1) rotate(0) translate(4 521)">
<title>CartesianBBoxReset</title>
<polygon fill="white" stroke="transparent" points="-4,4 -4,-521 374.5,-521 374.5,4 -4,4"/>
<!-- Node1 -->
<g id="node1" class="node">
<title>Node1</title>
<g id="a_node1"><a xlink:title=" ">
<polygon fill="#bfbfbf" stroke="black" points="170,-0.5 170,-19.5 286,-19.5 286,-0.5 170,-0.5"/>
<text text-anchor="middle" x="228" y="-7.5" font-family="Helvetica,sans-Serif" font-size="10.00">CartesianBBoxReset</text>
</a>
</g>
</g>
<!-- Node2 -->
<g id="node2" class="node">
<title>Node2</title>
<g id="a_node2"><a xlink:href="classdrain_1_1BasicCommand.html" target="_top" xlink:title="Simple implementation of Command: adds name , description and parameters .">
<polygon fill="white" stroke="black" points="181.5,-57.5 181.5,-76.5 274.5,-76.5 274.5,-57.5 181.5,-57.5"/>
<text text-anchor="middle" x="228" y="-64.5" font-family="Helvetica,sans-Serif" font-size="10.00">BasicCommand</text>
</a>
</g>
</g>
<!-- Node2&#45;&gt;Node1 -->
<g id="edge1" class="edge">
<title>Node2&#45;&gt;Node1</title>
<path fill="none" stroke="midnightblue" d="M228,-47.12C228,-37.82 228,-27.06 228,-19.71"/>
<polygon fill="midnightblue" stroke="midnightblue" points="224.5,-47.41 228,-57.41 231.5,-47.41 224.5,-47.41"/>
</g>
<!-- Node3 -->
<g id="node3" class="node">
<title>Node3</title>
<g id="a_node3"><a xlink:href="classdrain_1_1Command.html" target="_top" xlink:title="Base class for commands: typically actions taking parameters but also plain variable assignments and ...">
<polygon fill="white" stroke="black" points="147.5,-124.5 147.5,-143.5 214.5,-143.5 214.5,-124.5 147.5,-124.5"/>
<text text-anchor="middle" x="181" y="-131.5" font-family="Helvetica,sans-Serif" font-size="10.00">Command</text>
</a>
</g>
</g>
<!-- Node3&#45;&gt;Node2 -->
<g id="edge2" class="edge">
<title>Node3&#45;&gt;Node2</title>
<path fill="none" stroke="midnightblue" d="M193.36,-115.9C202.49,-103.27 214.55,-86.6 221.76,-76.63"/>
<polygon fill="midnightblue" stroke="midnightblue" points="190.36,-114.08 187.34,-124.23 196.03,-118.18 190.36,-114.08"/>
</g>
<!-- Node4 -->
<g id="node4" class="node">
<title>Node4</title>
<g id="a_node4"><a xlink:href="classdrain_1_1Contextual.html" target="_top" xlink:title=" ">
<polygon fill="white" stroke="black" points="124,-181.5 124,-200.5 194,-200.5 194,-181.5 124,-181.5"/>
<text text-anchor="middle" x="159" y="-188.5" font-family="Helvetica,sans-Serif" font-size="10.00">Contextual</text>
</a>
</g>
</g>
<!-- Node4&#45;&gt;Node3 -->
<g id="edge3" class="edge">
<title>Node4&#45;&gt;Node3</title>
<path fill="none" stroke="midnightblue" d="M166.19,-172.03C169.99,-162.53 174.48,-151.3 177.51,-143.71"/>
<polygon fill="midnightblue" stroke="midnightblue" points="162.9,-170.82 162.44,-181.41 169.4,-173.42 162.9,-170.82"/>
</g>
<!-- Node5 -->
<g id="node5" class="node">
<title>Node5</title>
<g id="a_node5"><a xlink:href="classdrain_1_1Context.html" target="_top" xlink:title=" ">
<polygon fill="white" stroke="black" points="128.5,-248.5 128.5,-267.5 183.5,-267.5 183.5,-248.5 128.5,-248.5"/>
<text text-anchor="middle" x="156" y="-255.5" font-family="Helvetica,sans-Serif" font-size="10.00">Context</text>
</a>
</g>
</g>
<!-- Node5&#45;&gt;Node4 -->
<g id="edge4" class="edge">
<title>Node5&#45;&gt;Node4</title>
<path fill="none" stroke="#9a32cd" stroke-dasharray="5,2" d="M156.88,-238.04C157.45,-225.67 158.16,-210.12 158.6,-200.63"/>
<polygon fill="#9a32cd" stroke="#9a32cd" points="153.37,-238.08 156.4,-248.23 160.36,-238.41 153.37,-238.08"/>
<text text-anchor="middle" x="185" y="-222" font-family="Helvetica,sans-Serif" font-size="10.00"> contextPtr</text>
</g>
<!-- Node6 -->
<g id="node6" class="node">
<title>Node6</title>
<g id="a_node6"><a xlink:href="classdrain_1_1VariableMap.html" target="_top" xlink:title="A map of Variables.">
<polygon fill="white" stroke="black" points="39,-315.5 39,-334.5 117,-334.5 117,-315.5 39,-315.5"/>
<text text-anchor="middle" x="78" y="-322.5" font-family="Helvetica,sans-Serif" font-size="10.00">VariableMap</text>
</a>
</g>
</g>
<!-- Node6&#45;&gt;Node5 -->
<g id="edge5" class="edge">
<title>Node6&#45;&gt;Node5</title>
<path fill="none" stroke="#9a32cd" stroke-dasharray="5,2" d="M84.01,-306.04C87.03,-299.09 91.3,-291.51 97,-286 105.75,-277.55 117.62,-271.42 128.42,-267.16"/>
<polygon fill="#9a32cd" stroke="#9a32cd" points="80.71,-304.84 80.43,-315.44 87.26,-307.33 80.71,-304.84"/>
<text text-anchor="middle" x="124.5" y="-289" font-family="Helvetica,sans-Serif" font-size="10.00"> statusMap</text>
</g>
<!-- Node7 -->
<g id="node7" class="node">
<title>Node7</title>
<g id="a_node7"><a xlink:href="classdrain_1_1SmartMap.html" target="_top" xlink:title=" ">
<polygon fill="white" stroke="black" points="13,-378 13,-397 143,-397 143,-378 13,-378"/>
<text text-anchor="middle" x="78" y="-385" font-family="Helvetica,sans-Serif" font-size="10.00">SmartMap&lt; Variable &gt;</text>
</a>
</g>
</g>
<!-- Node7&#45;&gt;Node6 -->
<g id="edge6" class="edge">
<title>Node7&#45;&gt;Node6</title>
<path fill="none" stroke="midnightblue" d="M78,-367.5C78,-356.5 78,-343.18 78,-334.65"/>
<polygon fill="midnightblue" stroke="midnightblue" points="74.5,-367.83 78,-377.83 81.5,-367.83 74.5,-367.83"/>
</g>
<!-- Node8 -->
<g id="node8" class="node">
<title>Node8</title>
<g id="a_node8"><a xlink:title=" ">
<polygon fill="white" stroke="#bfbfbf" points="0,-440.5 0,-459.5 156,-459.5 156,-440.5 0,-440.5"/>
<text text-anchor="middle" x="78" y="-447.5" font-family="Helvetica,sans-Serif" font-size="10.00">map&lt; std::string, Variable &gt;</text>
</a>
</g>
</g>
<!-- Node8&#45;&gt;Node7 -->
<g id="edge7" class="edge">
<title>Node8&#45;&gt;Node7</title>
<path fill="none" stroke="midnightblue" d="M78,-430C78,-419 78,-405.68 78,-397.15"/>
<polygon fill="midnightblue" stroke="midnightblue" points="74.5,-430.33 78,-440.33 81.5,-430.33 74.5,-430.33"/>
</g>
<!-- Node9 -->
<g id="node9" class="node">
<title>Node9</title>
<g id="a_node9"><a xlink:href="classdrain_1_1Log.html" target="_top" xlink:title="Handler for notifications sent by a Logger.">
<polygon fill="white" stroke="black" points="139,-315.5 139,-334.5 173,-334.5 173,-315.5 139,-315.5"/>
<text text-anchor="middle" x="156" y="-322.5" font-family="Helvetica,sans-Serif" font-size="10.00">Log</text>
</a>
</g>
</g>
<!-- Node9&#45;&gt;Node5 -->
<g id="edge8" class="edge">
<title>Node9&#45;&gt;Node5</title>
<path fill="none" stroke="#9a32cd" stroke-dasharray="5,2" d="M156,-305.04C156,-292.67 156,-277.12 156,-267.63"/>
<polygon fill="#9a32cd" stroke="#9a32cd" points="152.5,-305.23 156,-315.23 159.5,-305.23 152.5,-305.23"/>
<text text-anchor="middle" x="165.5" y="-289" font-family="Helvetica,sans-Serif" font-size="10.00"> log</text>
</g>
<!-- Node10 -->
<g id="node10" class="node">
<title>Node10</title>
<g id="a_node10"><a xlink:href="classdrain_1_1StatusFlags.html" target="_top" xlink:title=" ">
<polygon fill="white" stroke="black" points="191,-315.5 191,-334.5 265,-334.5 265,-315.5 191,-315.5"/>
<text text-anchor="middle" x="228" y="-322.5" font-family="Helvetica,sans-Serif" font-size="10.00">StatusFlags</text>
</a>
</g>
</g>
<!-- Node10&#45;&gt;Node5 -->
<g id="edge9" class="edge">
<title>Node10&#45;&gt;Node5</title>
<path fill="none" stroke="#9a32cd" stroke-dasharray="5,2" d="M210.67,-308.36C196.52,-295.58 177.04,-277.99 165.56,-267.63"/>
<polygon fill="#9a32cd" stroke="#9a32cd" points="208.52,-311.13 218.29,-315.23 213.21,-305.93 208.52,-311.13"/>
<text text-anchor="middle" x="227" y="-289" font-family="Helvetica,sans-Serif" font-size="10.00"> statusFlags</text>
</g>
<!-- Node11 -->
<g id="node11" class="node">
<title>Node11</title>
<g id="a_node11"><a xlink:href="classdrain_1_1GlobalFlags.html" target="_top" xlink:title=" ">
<polygon fill="white" stroke="black" points="170,-372.5 170,-402.5 286,-402.5 286,-372.5 170,-372.5"/>
<text text-anchor="start" x="178" y="-390.5" font-family="Helvetica,sans-Serif" font-size="10.00">GlobalFlags&lt; status</text>
<text text-anchor="middle" x="228" y="-379.5" font-family="Helvetica,sans-Serif" font-size="10.00">_flag_id &gt;</text>
</a>
</g>
</g>
<!-- Node11&#45;&gt;Node10 -->
<g id="edge10" class="edge">
<title>Node11&#45;&gt;Node10</title>
<path fill="none" stroke="midnightblue" d="M228,-362.35C228,-352.51 228,-341.78 228,-334.54"/>
<polygon fill="midnightblue" stroke="midnightblue" points="224.5,-362.47 228,-372.47 231.5,-362.47 224.5,-362.47"/>
</g>
<!-- Node12 -->
<g id="node12" class="node">
<title>Node12</title>
<g id="a_node12"><a xlink:href="classdrain_1_1Flagger.html" target="_top" xlink:title="Bit vector accessible also with integer values associated with strings.">
<polygon fill="white" stroke="black" points="201.5,-440.5 201.5,-459.5 254.5,-459.5 254.5,-440.5 201.5,-440.5"/>
<text text-anchor="middle" x="228" y="-447.5" font-family="Helvetica,sans-Serif" font-size="10.00">Flagger</text>
</a>
</g>
</g>
<!-- Node12&#45;&gt;Node11 -->
<g id="edge11" class="edge">
<title>Node12&#45;&gt;Node11</title>
<path fill="none" stroke="midnightblue" d="M228,-430.22C228,-421.36 228,-410.96 228,-402.76"/>
<polygon fill="midnightblue" stroke="midnightblue" points="224.5,-430.33 228,-440.33 231.5,-430.33 224.5,-430.33"/>
</g>
<!-- Node13 -->
<g id="node13" class="node">
<title>Node13</title>
<g id="a_node13"><a xlink:href="classdrain_1_1FlagResolver.html" target="_top" xlink:title="Referencing a dictionary of binary values: {&quot;A&quot;,1: &quot;B&quot;:2, &quot;C&quot;: 4, &quot;D&quot;: 8, ...} resolves two&#45;way mappi...">
<polygon fill="white" stroke="black" points="188,-497.5 188,-516.5 268,-516.5 268,-497.5 188,-497.5"/>
<text text-anchor="middle" x="228" y="-504.5" font-family="Helvetica,sans-Serif" font-size="10.00">FlagResolver</text>
</a>
</g>
</g>
<!-- Node13&#45;&gt;Node12 -->
<g id="edge12" class="edge">
<title>Node13&#45;&gt;Node12</title>
<path fill="none" stroke="midnightblue" d="M228,-487.12C228,-477.82 228,-467.06 228,-459.71"/>
<polygon fill="midnightblue" stroke="midnightblue" points="224.5,-487.41 228,-497.41 231.5,-487.41 224.5,-487.41"/>
</g>
<!-- Node14 -->
<g id="node14" class="node">
<title>Node14</title>
<g id="a_node14"><a xlink:href="classdrain_1_1ReferenceMap.html" target="_top" xlink:title=" ">
<polygon fill="white" stroke="black" points="236.5,-124.5 236.5,-143.5 323.5,-143.5 323.5,-124.5 236.5,-124.5"/>
<text text-anchor="middle" x="280" y="-131.5" font-family="Helvetica,sans-Serif" font-size="10.00">ReferenceMap</text>
</a>
</g>
</g>
<!-- Node14&#45;&gt;Node2 -->
<g id="edge13" class="edge">
<title>Node14&#45;&gt;Node2</title>
<path fill="none" stroke="#9a32cd" stroke-dasharray="5,2" d="M266.62,-116.27C256.48,-103.6 242.96,-86.7 234.9,-76.63"/>
<polygon fill="#9a32cd" stroke="#9a32cd" points="264.01,-118.61 272.99,-124.23 269.47,-114.24 264.01,-118.61"/>
<text text-anchor="middle" x="288" y="-98" font-family="Helvetica,sans-Serif" font-size="10.00"> parameters</text>
</g>
<!-- Node15 -->
<g id="node15" class="node">
<title>Node15</title>
<g id="a_node15"><a xlink:href="classdrain_1_1SmartMap.html" target="_top" xlink:title=" ">
<polygon fill="white" stroke="black" points="213.5,-181.5 213.5,-200.5 356.5,-200.5 356.5,-181.5 213.5,-181.5"/>
<text text-anchor="middle" x="285" y="-188.5" font-family="Helvetica,sans-Serif" font-size="10.00">SmartMap&lt; Referencer &gt;</text>
</a>
</g>
</g>
<!-- Node15&#45;&gt;Node14 -->
<g id="edge14" class="edge">
<title>Node15&#45;&gt;Node14</title>
<path fill="none" stroke="midnightblue" d="M283.31,-171.42C282.46,-162.05 281.47,-151.14 280.79,-143.71"/>
<polygon fill="midnightblue" stroke="midnightblue" points="279.83,-171.76 284.22,-181.41 286.8,-171.13 279.83,-171.76"/>
</g>
<!-- Node16 -->
<g id="node16" class="node">
<title>Node16</title>
<g id="a_node16"><a xlink:title=" ">
<polygon fill="white" stroke="#bfbfbf" points="201.5,-248.5 201.5,-267.5 370.5,-267.5 370.5,-248.5 201.5,-248.5"/>
<text text-anchor="middle" x="286" y="-255.5" font-family="Helvetica,sans-Serif" font-size="10.00">map&lt; std::string, Referencer &gt;</text>
</a>
</g>
</g>
<!-- Node16&#45;&gt;Node15 -->
<g id="edge15" class="edge">
<title>Node16&#45;&gt;Node15</title>
<path fill="none" stroke="midnightblue" d="M285.71,-238.04C285.52,-225.67 285.28,-210.12 285.13,-200.63"/>
<polygon fill="midnightblue" stroke="midnightblue" points="282.21,-238.29 285.87,-248.23 289.21,-238.18 282.21,-238.29"/>
</g>
</g>
</svg>
