<?xml version="1.0" encoding="UTF-8" standalone="no"?>
<!DOCTYPE svg PUBLIC "-//W3C//DTD SVG 1.1//EN"
 "http://www.w3.org/Graphics/SVG/1.1/DTD/svg11.dtd">
<!-- Generated by graphviz version 2.43.0 (0)
 -->
<!-- Title: Functor Pages: 1 -->
<!--zoomable 674 -->
<svg id="main" version="1.1" xmlns="http://www.w3.org/2000/svg" xmlns:xlink="http://www.w3.org/1999/xlink" xml:space="preserve" onload="init(evt)">
<style type="text/css"><![CDATA[
.edge:hover path { stroke: red; }
.edge:hover polygon { stroke: red; fill: red; }
]]></style>
<script type="text/javascript"><![CDATA[
var edges = document.getElementsByTagName('g');
if (edges && edges.length) {
  for (var i=0;i<edges.length;i++) {
    if (edges[i].id.substr(0,4)=='edge') {
      edges[i].setAttribute('class','edge');
    }
  }
}
]]></script>
        <defs>
                <circle id="rim" cx="0" cy="0" r="7"/>
                <circle id="rim2" cx="0" cy="0" r="3.5"/>
                <g id="zoomPlus">
                        <use xlink:href="#rim" fill="#404040">
                                <set attributeName="fill" to="#808080" begin="zoomplus.mouseover" end="zoomplus.mouseout"/>
                        </use>
                        <path d="M-4,0h8M0,-4v8" fill="none" stroke="white" stroke-width="1.5" pointer-events="none"/>
                </g>
                <g id="zoomMin">
                        <use xlink:href="#rim" fill="#404040">
                                <set attributeName="fill" to="#808080" begin="zoomminus.mouseover" end="zoomminus.mouseout"/>
                        </use>
                        <path d="M-4,0h8" fill="none" stroke="white" stroke-width="1.5" pointer-events="none"/>
                </g>
                <g id="dirArrow">
                        <path fill="none" stroke="white" stroke-width="1.5" d="M0,-3.0v7 M-2.5,-0.5L0,-3.0L2.5,-0.5"/>
                </g>
               <g id="resetDef">
                       <use xlink:href="#rim2" fill="#404040">
                               <set attributeName="fill" to="#808080" begin="reset.mouseover" end="reset.mouseout"/>
                       </use>
               </g>
        </defs>

<script type="text/javascript">
var viewWidth = 607;
var viewHeight = 674;
var sectionId = 'dynsection-0';
</script>
<script xlink:href="svgpan.js"/>
<svg id="graph" class="graph">
<g id="viewport">
<title>Functor</title>
<polygon fill="white" stroke="transparent" points="-4,4 -4,-670 603,-670 603,4 -4,4"/>
<!-- Node1 -->
<g id="node1" class="node">
<title>Node1</title>
<g id="a_node1"><a xlink:title="Base class for sequential computations. Optional scaling utilities.">
<polygon fill="#bfbfbf" stroke="black" points="97,-342.5 97,-361.5 150,-361.5 150,-342.5 97,-342.5"/>
<text text-anchor="middle" x="123.5" y="-349.5" font-family="Helvetica,sans-Serif" font-size="10.00">Functor</text>
</a>
</g>
</g>
<!-- Node3 -->
<g id="node3" class="node">
<title>Node3</title>
<g id="a_node3"><a xlink:href="classdrain_1_1BinaryFunctor.html" target="_top" xlink:title=" ">
<polygon fill="white" stroke="black" points="186,-513.5 186,-532.5 270,-532.5 270,-513.5 186,-513.5"/>
<text text-anchor="middle" x="228" y="-520.5" font-family="Helvetica,sans-Serif" font-size="10.00">BinaryFunctor</text>
</a>
</g>
</g>
<!-- Node1&#45;&gt;Node3 -->
<g id="edge2" class="edge">
<title>Node1&#45;&gt;Node3</title>
<path fill="none" stroke="midnightblue" d="M135.45,-370.27C157.11,-406.41 204.78,-485.93 221.26,-513.42"/>
<polygon fill="midnightblue" stroke="midnightblue" points="138.45,-368.46 130.3,-361.68 132.44,-372.06 138.45,-368.46"/>
</g>
<!-- Node11 -->
<g id="node11" class="node">
<title>Node11</title>
<g id="a_node11"><a xlink:href="structdrain_1_1UnaryFunctor.html" target="_top" xlink:title=" ">
<polygon fill="white" stroke="black" points="187,-209.5 187,-228.5 269,-228.5 269,-209.5 187,-209.5"/>
<text text-anchor="middle" x="228" y="-216.5" font-family="Helvetica,sans-Serif" font-size="10.00">UnaryFunctor</text>
</a>
</g>
</g>
<!-- Node1&#45;&gt;Node11 -->
<g id="edge10" class="edge">
<title>Node1&#45;&gt;Node11</title>
<path fill="none" stroke="midnightblue" d="M138.21,-334.21C160.1,-305.8 202.23,-251.14 219.42,-228.84"/>
<polygon fill="midnightblue" stroke="midnightblue" points="135.2,-332.38 131.87,-342.43 140.75,-336.65 135.2,-332.38"/>
</g>
<!-- Node2 -->
<g id="node2" class="node">
<title>Node2</title>
<g id="a_node2"><a xlink:href="classdrain_1_1BeanLike.html" target="_top" xlink:title="Something which has a name, a description and possibly some parameters of varying type.">
<polygon fill="white" stroke="black" points="0,-342.5 0,-361.5 61,-361.5 61,-342.5 0,-342.5"/>
<text text-anchor="middle" x="30.5" y="-349.5" font-family="Helvetica,sans-Serif" font-size="10.00">BeanLike</text>
</a>
</g>
</g>
<!-- Node2&#45;&gt;Node1 -->
<g id="edge1" class="edge">
<title>Node2&#45;&gt;Node1</title>
<path fill="none" stroke="midnightblue" d="M71.06,-352C79.77,-352 88.78,-352 96.78,-352"/>
<polygon fill="midnightblue" stroke="midnightblue" points="71.05,-348.5 61.05,-352 71.05,-355.5 71.05,-348.5"/>
</g>
<!-- Node4 -->
<g id="node4" class="node">
<title>Node4</title>
<g id="a_node4"><a xlink:href="classdrain_1_1AdditionFunctor.html" target="_top" xlink:title="Adds a intensity values .">
<polygon fill="white" stroke="black" points="325.5,-646.5 325.5,-665.5 418.5,-665.5 418.5,-646.5 325.5,-646.5"/>
<text text-anchor="middle" x="372" y="-653.5" font-family="Helvetica,sans-Serif" font-size="10.00">AdditionFunctor</text>
</a>
</g>
</g>
<!-- Node3&#45;&gt;Node4 -->
<g id="edge3" class="edge">
<title>Node3&#45;&gt;Node4</title>
<path fill="none" stroke="midnightblue" d="M236.78,-541.89C248.21,-567.29 271.92,-612.12 306,-637 311.79,-641.23 318.52,-644.52 325.4,-647.08"/>
<polygon fill="midnightblue" stroke="midnightblue" points="239.95,-540.39 232.77,-532.61 233.52,-543.17 239.95,-540.39"/>
</g>
<!-- Node5 -->
<g id="node5" class="node">
<title>Node5</title>
<g id="a_node5"><a xlink:href="classdrain_1_1DivisionFunctor.html" target="_top" xlink:title="Divides image by another image.">
<polygon fill="white" stroke="black" points="326,-608.5 326,-627.5 418,-627.5 418,-608.5 326,-608.5"/>
<text text-anchor="middle" x="372" y="-615.5" font-family="Helvetica,sans-Serif" font-size="10.00">DivisionFunctor</text>
</a>
</g>
</g>
<!-- Node3&#45;&gt;Node5 -->
<g id="edge4" class="edge">
<title>Node3&#45;&gt;Node5</title>
<path fill="none" stroke="midnightblue" d="M242.64,-540.87C256.72,-558.13 280.22,-583.84 306,-599 312.49,-602.81 319.79,-605.91 327.1,-608.41"/>
<polygon fill="midnightblue" stroke="midnightblue" points="245.12,-538.37 236.17,-532.71 239.64,-542.72 245.12,-538.37"/>
</g>
<!-- Node6 -->
<g id="node6" class="node">
<title>Node6</title>
<g id="a_node6"><a xlink:href="classdrain_1_1MaximumFunctor.html" target="_top" xlink:title=" ">
<polygon fill="white" stroke="black" points="321,-570.5 321,-589.5 423,-589.5 423,-570.5 321,-570.5"/>
<text text-anchor="middle" x="372" y="-577.5" font-family="Helvetica,sans-Serif" font-size="10.00">MaximumFunctor</text>
</a>
</g>
</g>
<!-- Node3&#45;&gt;Node6 -->
<g id="edge5" class="edge">
<title>Node3&#45;&gt;Node6</title>
<path fill="none" stroke="midnightblue" d="M255.32,-537.41C269.97,-545.06 288.68,-554.25 306,-561 314.98,-564.5 324.88,-567.71 334.18,-570.45"/>
<polygon fill="midnightblue" stroke="midnightblue" points="256.82,-534.24 246.34,-532.65 253.54,-540.43 256.82,-534.24"/>
</g>
<!-- Node7 -->
<g id="node7" class="node">
<title>Node7</title>
<g id="a_node7"><a xlink:href="classdrain_1_1MinimumFunctor.html" target="_top" xlink:title="Minimum intensity. Prescaled input.">
<polygon fill="white" stroke="black" points="322.5,-532.5 322.5,-551.5 421.5,-551.5 421.5,-532.5 322.5,-532.5"/>
<text text-anchor="middle" x="372" y="-539.5" font-family="Helvetica,sans-Serif" font-size="10.00">MinimumFunctor</text>
</a>
</g>
</g>
<!-- Node3&#45;&gt;Node7 -->
<g id="edge6" class="edge">
<title>Node3&#45;&gt;Node7</title>
<path fill="none" stroke="midnightblue" d="M280.34,-529.87C294.09,-531.71 308.9,-533.69 322.49,-535.51"/>
<polygon fill="midnightblue" stroke="midnightblue" points="280.45,-526.35 270.07,-528.5 279.52,-533.29 280.45,-526.35"/>
</g>
<!-- Node8 -->
<g id="node8" class="node">
<title>Node8</title>
<g id="a_node8"><a xlink:href="classdrain_1_1MixerFunctor.html" target="_top" xlink:title="Blends an image to another with given proportion.">
<polygon fill="white" stroke="black" points="332,-494.5 332,-513.5 412,-513.5 412,-494.5 332,-494.5"/>
<text text-anchor="middle" x="372" y="-501.5" font-family="Helvetica,sans-Serif" font-size="10.00">MixerFunctor</text>
</a>
</g>
</g>
<!-- Node3&#45;&gt;Node8 -->
<g id="edge7" class="edge">
<title>Node3&#45;&gt;Node8</title>
<path fill="none" stroke="midnightblue" d="M280.41,-516.12C297.42,-513.85 316.05,-511.35 331.97,-509.22"/>
<polygon fill="midnightblue" stroke="midnightblue" points="279.52,-512.71 270.07,-517.5 280.45,-519.65 279.52,-512.71"/>
</g>
<!-- Node9 -->
<g id="node9" class="node">
<title>Node9</title>
<g id="a_node9"><a xlink:href="classdrain_1_1MultiplicationFunctor.html" target="_top" xlink:title="Multiplies two images, with optional post scaling and offset.">
<polygon fill="white" stroke="black" points="312.5,-456.5 312.5,-475.5 431.5,-475.5 431.5,-456.5 312.5,-456.5"/>
<text text-anchor="middle" x="372" y="-463.5" font-family="Helvetica,sans-Serif" font-size="10.00">MultiplicationFunctor</text>
</a>
</g>
</g>
<!-- Node3&#45;&gt;Node9 -->
<g id="edge8" class="edge">
<title>Node3&#45;&gt;Node9</title>
<path fill="none" stroke="midnightblue" d="M255.32,-508.59C269.97,-500.94 288.68,-491.75 306,-485 314.98,-481.5 324.88,-478.29 334.18,-475.55"/>
<polygon fill="midnightblue" stroke="midnightblue" points="253.54,-505.57 246.34,-513.35 256.82,-511.76 253.54,-505.57"/>
</g>
<!-- Node10 -->
<g id="node10" class="node">
<title>Node10</title>
<g id="a_node10"><a xlink:href="classdrain_1_1SubtractionFunctor.html" target="_top" xlink:title="Subtracts image from another image.">
<polygon fill="white" stroke="black" points="318,-418.5 318,-437.5 426,-437.5 426,-418.5 318,-418.5"/>
<text text-anchor="middle" x="372" y="-425.5" font-family="Helvetica,sans-Serif" font-size="10.00">SubtractionFunctor</text>
</a>
</g>
</g>
<!-- Node3&#45;&gt;Node10 -->
<g id="edge9" class="edge">
<title>Node3&#45;&gt;Node10</title>
<path fill="none" stroke="midnightblue" d="M242.64,-505.13C256.72,-487.87 280.22,-462.16 306,-447 312.49,-443.19 319.79,-440.09 327.1,-437.59"/>
<polygon fill="midnightblue" stroke="midnightblue" points="239.64,-503.28 236.17,-513.29 245.12,-507.63 239.64,-503.28"/>
</g>
<!-- Node12 -->
<g id="node12" class="node">
<title>Node12</title>
<g id="a_node12"><a xlink:href="classdrain_1_1BinaryThresholdFunctor.html" target="_top" xlink:title="Thresholds intensity values.">
<polygon fill="white" stroke="black" points="306,-380.5 306,-399.5 438,-399.5 438,-380.5 306,-380.5"/>
<text text-anchor="middle" x="372" y="-387.5" font-family="Helvetica,sans-Serif" font-size="10.00">BinaryThresholdFunctor</text>
</a>
</g>
</g>
<!-- Node11&#45;&gt;Node12 -->
<g id="edge11" class="edge">
<title>Node11&#45;&gt;Node12</title>
<path fill="none" stroke="midnightblue" d="M233.62,-238.96C242.19,-271.49 263.66,-335.83 306,-371 310.7,-374.91 316.18,-378.01 321.92,-380.48"/>
<polygon fill="midnightblue" stroke="midnightblue" points="236.92,-237.74 231.11,-228.88 230.13,-239.43 236.92,-237.74"/>
</g>
<!-- Node13 -->
<g id="node13" class="node">
<title>Node13</title>
<g id="a_node13"><a xlink:href="classdrain_1_1Fuzzifier.html" target="_top" xlink:title="A base class for fuzzy functions; also an unary functor.">
<polygon fill="white" stroke="black" points="329,-342.5 329,-361.5 415,-361.5 415,-342.5 329,-342.5"/>
<text text-anchor="middle" x="372" y="-349.5" font-family="Helvetica,sans-Serif" font-size="10.00">Fuzzifier&lt; T &gt;</text>
</a>
</g>
</g>
<!-- Node11&#45;&gt;Node13 -->
<g id="edge12" class="edge">
<title>Node11&#45;&gt;Node13</title>
<path fill="none" stroke="midnightblue" d="M236.78,-237.89C248.21,-263.29 271.92,-308.12 306,-333 312.74,-337.92 320.74,-341.57 328.79,-344.28"/>
<polygon fill="midnightblue" stroke="midnightblue" points="239.95,-236.39 232.77,-228.61 233.52,-239.17 239.95,-236.39"/>
</g>
<!-- Node21 -->
<g id="node21" class="node">
<title>Node21</title>
<g id="a_node21"><a xlink:href="structdrain_1_1IdentityFunctor.html" target="_top" xlink:title=" ">
<polygon fill="white" stroke="black" points="327,-304.5 327,-323.5 417,-323.5 417,-304.5 327,-304.5"/>
<text text-anchor="middle" x="372" y="-311.5" font-family="Helvetica,sans-Serif" font-size="10.00">IdentityFunctor</text>
</a>
</g>
</g>
<!-- Node11&#45;&gt;Node21 -->
<g id="edge20" class="edge">
<title>Node11&#45;&gt;Node21</title>
<path fill="none" stroke="midnightblue" d="M242.64,-236.87C256.72,-254.13 280.22,-279.84 306,-295 312.49,-298.81 319.79,-301.91 327.1,-304.41"/>
<polygon fill="midnightblue" stroke="midnightblue" points="245.12,-234.37 236.17,-228.71 239.64,-238.72 245.12,-234.37"/>
</g>
<!-- Node22 -->
<g id="node22" class="node">
<title>Node22</title>
<g id="a_node22"><a xlink:href="classdrain_1_1image_1_1CopyFunctor.html" target="_top" xlink:title=" ">
<polygon fill="white" stroke="black" points="333.5,-266.5 333.5,-285.5 410.5,-285.5 410.5,-266.5 333.5,-266.5"/>
<text text-anchor="middle" x="372" y="-273.5" font-family="Helvetica,sans-Serif" font-size="10.00">CopyFunctor</text>
</a>
</g>
</g>
<!-- Node11&#45;&gt;Node22 -->
<g id="edge21" class="edge">
<title>Node11&#45;&gt;Node22</title>
<path fill="none" stroke="midnightblue" d="M255.32,-233.41C269.97,-241.06 288.68,-250.25 306,-257 314.98,-260.5 324.88,-263.71 334.18,-266.45"/>
<polygon fill="midnightblue" stroke="midnightblue" points="256.82,-230.24 246.34,-228.65 253.54,-236.43 256.82,-230.24"/>
</g>
<!-- Node23 -->
<g id="node23" class="node">
<title>Node23</title>
<g id="a_node23"><a xlink:href="classdrain_1_1image_1_1GammaFunctor.html" target="_top" xlink:title="Gamma correction. Intensity is mapped as f&#39; = f^(gamma)">
<polygon fill="white" stroke="black" points="326,-228.5 326,-247.5 418,-247.5 418,-228.5 326,-228.5"/>
<text text-anchor="middle" x="372" y="-235.5" font-family="Helvetica,sans-Serif" font-size="10.00">GammaFunctor</text>
</a>
</g>
</g>
<!-- Node11&#45;&gt;Node23 -->
<g id="edge22" class="edge">
<title>Node11&#45;&gt;Node23</title>
<path fill="none" stroke="midnightblue" d="M279.52,-225.76C294.63,-227.78 311.1,-229.98 325.84,-231.96"/>
<polygon fill="midnightblue" stroke="midnightblue" points="279.69,-222.25 269.31,-224.39 278.76,-229.19 279.69,-222.25"/>
</g>
<!-- Node24 -->
<g id="node24" class="node">
<title>Node24</title>
<g id="a_node24"><a xlink:href="classdrain_1_1image_1_1QuantizatorFunctor.html" target="_top" xlink:title="TODO: CopyOP should be quite similar.">
<polygon fill="white" stroke="black" points="317,-190.5 317,-209.5 427,-209.5 427,-190.5 317,-190.5"/>
<text text-anchor="middle" x="372" y="-197.5" font-family="Helvetica,sans-Serif" font-size="10.00">QuantizatorFunctor</text>
</a>
</g>
</g>
<!-- Node11&#45;&gt;Node24 -->
<g id="edge23" class="edge">
<title>Node11&#45;&gt;Node24</title>
<path fill="none" stroke="midnightblue" d="M279.28,-212.27C291.43,-210.65 304.47,-208.9 316.8,-207.25"/>
<polygon fill="midnightblue" stroke="midnightblue" points="278.76,-208.81 269.31,-213.61 279.69,-215.75 278.76,-208.81"/>
</g>
<!-- Node25 -->
<g id="node25" class="node">
<title>Node25</title>
<g id="a_node25"><a xlink:href="classdrain_1_1RemappingFunctor.html" target="_top" xlink:title="Maps a single intensity value to another value.">
<polygon fill="white" stroke="black" points="318,-152.5 318,-171.5 426,-171.5 426,-152.5 318,-152.5"/>
<text text-anchor="middle" x="372" y="-159.5" font-family="Helvetica,sans-Serif" font-size="10.00">RemappingFunctor</text>
</a>
</g>
</g>
<!-- Node11&#45;&gt;Node25 -->
<g id="edge24" class="edge">
<title>Node11&#45;&gt;Node25</title>
<path fill="none" stroke="midnightblue" d="M255.32,-204.59C269.97,-196.94 288.68,-187.75 306,-181 314.98,-177.5 324.88,-174.29 334.18,-171.55"/>
<polygon fill="midnightblue" stroke="midnightblue" points="253.54,-201.57 246.34,-209.35 256.82,-207.76 253.54,-201.57"/>
</g>
<!-- Node26 -->
<g id="node26" class="node">
<title>Node26</title>
<g id="a_node26"><a xlink:href="classdrain_1_1ScalingFunctor.html" target="_top" xlink:title="Rescales intensities linearly: f&#39; = scale*f + offset.">
<polygon fill="white" stroke="black" points="328,-114.5 328,-133.5 416,-133.5 416,-114.5 328,-114.5"/>
<text text-anchor="middle" x="372" y="-121.5" font-family="Helvetica,sans-Serif" font-size="10.00">ScalingFunctor</text>
</a>
</g>
</g>
<!-- Node11&#45;&gt;Node26 -->
<g id="edge25" class="edge">
<title>Node11&#45;&gt;Node26</title>
<path fill="none" stroke="midnightblue" d="M242.64,-201.13C256.72,-183.87 280.22,-158.16 306,-143 312.69,-139.07 320.25,-135.9 327.79,-133.36"/>
<polygon fill="midnightblue" stroke="midnightblue" points="239.64,-199.28 236.17,-209.29 245.12,-203.63 239.64,-199.28"/>
</g>
<!-- Node28 -->
<g id="node28" class="node">
<title>Node28</title>
<g id="a_node28"><a xlink:href="classdrain_1_1ThresholdFunctor.html" target="_top" xlink:title="Thresholds intensity values.">
<polygon fill="white" stroke="black" points="321.5,-76.5 321.5,-95.5 422.5,-95.5 422.5,-76.5 321.5,-76.5"/>
<text text-anchor="middle" x="372" y="-83.5" font-family="Helvetica,sans-Serif" font-size="10.00">ThresholdFunctor</text>
</a>
</g>
</g>
<!-- Node11&#45;&gt;Node28 -->
<g id="edge27" class="edge">
<title>Node11&#45;&gt;Node28</title>
<path fill="none" stroke="midnightblue" d="M236.78,-200.11C248.21,-174.71 271.92,-129.88 306,-105 311.32,-101.12 317.42,-98.03 323.71,-95.56"/>
<polygon fill="midnightblue" stroke="midnightblue" points="233.52,-198.83 232.77,-209.39 239.95,-201.61 233.52,-198.83"/>
</g>
<!-- Node29 -->
<g id="node29" class="node">
<title>Node29</title>
<g id="a_node29"><a xlink:href="classdrain_1_1Fuzzifier.html" target="_top" xlink:title=" ">
<polygon fill="white" stroke="black" points="315.5,-38.5 315.5,-57.5 428.5,-57.5 428.5,-38.5 315.5,-38.5"/>
<text text-anchor="middle" x="372" y="-45.5" font-family="Helvetica,sans-Serif" font-size="10.00">Fuzzifier&lt; double &gt;</text>
</a>
</g>
</g>
<!-- Node11&#45;&gt;Node29 -->
<g id="edge28" class="edge">
<title>Node11&#45;&gt;Node29</title>
<path fill="none" stroke="midnightblue" d="M233.62,-199.04C242.19,-166.51 263.66,-102.17 306,-67 310.7,-63.09 316.18,-59.99 321.92,-57.52"/>
<polygon fill="midnightblue" stroke="midnightblue" points="230.13,-198.57 231.11,-209.12 236.92,-200.26 230.13,-198.57"/>
</g>
<!-- Node33 -->
<g id="node33" class="node">
<title>Node33</title>
<g id="a_node33"><a xlink:href="classrack_1_1DataMarker.html" target="_top" xlink:title="Simple class marking true data with a given constant value, typically a CLASS label.">
<polygon fill="white" stroke="black" points="335,-0.5 335,-19.5 409,-19.5 409,-0.5 335,-0.5"/>
<text text-anchor="middle" x="372" y="-7.5" font-family="Helvetica,sans-Serif" font-size="10.00">DataMarker</text>
</a>
</g>
</g>
<!-- Node11&#45;&gt;Node33 -->
<g id="edge32" class="edge">
<title>Node11&#45;&gt;Node33</title>
<path fill="none" stroke="midnightblue" d="M231.35,-199.08C236.98,-160.49 254.8,-75.29 306,-29 313.94,-21.82 324.44,-17.35 334.69,-14.56"/>
<polygon fill="midnightblue" stroke="midnightblue" points="227.82,-199.09 229.98,-209.46 234.76,-200.01 227.82,-199.09"/>
</g>
<!-- Node14 -->
<g id="node14" class="node">
<title>Node14</title>
<g id="a_node14"><a xlink:href="classdrain_1_1FuzzyBell.html" target="_top" xlink:title="A smooth symmetric peak function that resembles the Gaussian bell curve.">
<polygon fill="white" stroke="black" points="490.5,-456.5 490.5,-475.5 582.5,-475.5 582.5,-456.5 490.5,-456.5"/>
<text text-anchor="middle" x="536.5" y="-463.5" font-family="Helvetica,sans-Serif" font-size="10.00">FuzzyBell&lt; T &gt;</text>
</a>
</g>
</g>
<!-- Node13&#45;&gt;Node14 -->
<g id="edge13" class="edge">
<title>Node13&#45;&gt;Node14</title>
<path fill="none" stroke="midnightblue" d="M424.65,-362.53C429.46,-364.82 434.02,-367.61 438,-371 466.43,-395.26 445.75,-422.52 474,-447 478.73,-451.1 484.33,-454.31 490.2,-456.83"/>
<polygon fill="midnightblue" stroke="midnightblue" points="425.73,-359.19 415.15,-358.71 423.12,-365.68 425.73,-359.19"/>
</g>
<!-- Node15 -->
<g id="node15" class="node">
<title>Node15</title>
<g id="a_node15"><a xlink:href="classdrain_1_1FuzzyBell2.html" target="_top" xlink:title="A smooth symmetric peak function that resembles the Gaussian bell curve. Diminishes quicker than Fuzz...">
<polygon fill="white" stroke="black" points="487.5,-418.5 487.5,-437.5 585.5,-437.5 585.5,-418.5 487.5,-418.5"/>
<text text-anchor="middle" x="536.5" y="-425.5" font-family="Helvetica,sans-Serif" font-size="10.00">FuzzyBell2&lt; T &gt;</text>
</a>
</g>
</g>
<!-- Node13&#45;&gt;Node15 -->
<g id="edge14" class="edge">
<title>Node13&#45;&gt;Node15</title>
<path fill="none" stroke="midnightblue" d="M424.84,-364.38C429.43,-366.3 433.89,-368.49 438,-371 457.85,-383.13 454.24,-396.72 474,-409 480.17,-412.83 487.17,-415.95 494.18,-418.46"/>
<polygon fill="midnightblue" stroke="midnightblue" points="425.89,-361.04 415.3,-360.83 423.45,-367.6 425.89,-361.04"/>
</g>
<!-- Node16 -->
<g id="node16" class="node">
<title>Node16</title>
<g id="a_node16"><a xlink:href="classdrain_1_1FuzzySigmoid.html" target="_top" xlink:title="A smooth step function, by default from &#45;1.0 to +1.0.">
<polygon fill="white" stroke="black" points="480,-380.5 480,-399.5 593,-399.5 593,-380.5 480,-380.5"/>
<text text-anchor="middle" x="536.5" y="-387.5" font-family="Helvetica,sans-Serif" font-size="10.00">FuzzySigmoid&lt; T &gt;</text>
</a>
</g>
</g>
<!-- Node13&#45;&gt;Node16 -->
<g id="edge15" class="edge">
<title>Node13&#45;&gt;Node16</title>
<path fill="none" stroke="midnightblue" d="M423.87,-363.9C446.71,-369.24 473.3,-375.45 494.79,-380.48"/>
<polygon fill="midnightblue" stroke="midnightblue" points="424.54,-360.46 414.01,-361.59 422.95,-367.27 424.54,-360.46"/>
</g>
<!-- Node17 -->
<g id="node17" class="node">
<title>Node17</title>
<g id="a_node17"><a xlink:href="classdrain_1_1FuzzyStep.html" target="_top" xlink:title="A basic, linear transition from 0 to scale between (start) and (end) .">
<polygon fill="white" stroke="black" points="489,-342.5 489,-361.5 584,-361.5 584,-342.5 489,-342.5"/>
<text text-anchor="middle" x="536.5" y="-349.5" font-family="Helvetica,sans-Serif" font-size="10.00">FuzzyStep&lt; T &gt;</text>
</a>
</g>
</g>
<!-- Node13&#45;&gt;Node17 -->
<g id="edge16" class="edge">
<title>Node13&#45;&gt;Node17</title>
<path fill="none" stroke="midnightblue" d="M425.36,-352C445.79,-352 469.02,-352 488.87,-352"/>
<polygon fill="midnightblue" stroke="midnightblue" points="425.27,-348.5 415.27,-352 425.27,-355.5 425.27,-348.5"/>
</g>
<!-- Node18 -->
<g id="node18" class="node">
<title>Node18</title>
<g id="a_node18"><a xlink:href="classdrain_1_1FuzzyStepsoid.html" target="_top" xlink:title="A smooth step function between 0.0 and 1.0. Increasing (decreasing) with positive (negative) width....">
<polygon fill="white" stroke="black" points="479,-304.5 479,-323.5 594,-323.5 594,-304.5 479,-304.5"/>
<text text-anchor="middle" x="536.5" y="-311.5" font-family="Helvetica,sans-Serif" font-size="10.00">FuzzyStepsoid&lt; T &gt;</text>
</a>
</g>
</g>
<!-- Node13&#45;&gt;Node18 -->
<g id="edge17" class="edge">
<title>Node13&#45;&gt;Node18</title>
<path fill="none" stroke="midnightblue" d="M423.87,-340.1C446.71,-334.76 473.3,-328.55 494.79,-323.52"/>
<polygon fill="midnightblue" stroke="midnightblue" points="422.95,-336.73 414.01,-342.41 424.54,-343.54 422.95,-336.73"/>
</g>
<!-- Node19 -->
<g id="node19" class="node">
<title>Node19</title>
<g id="a_node19"><a xlink:href="classdrain_1_1FuzzyTriangle.html" target="_top" xlink:title="A basic triangular peak function with linear around the peak.">
<polygon fill="white" stroke="black" points="480.5,-266.5 480.5,-285.5 592.5,-285.5 592.5,-266.5 480.5,-266.5"/>
<text text-anchor="middle" x="536.5" y="-273.5" font-family="Helvetica,sans-Serif" font-size="10.00">FuzzyTriangle&lt; T &gt;</text>
</a>
</g>
</g>
<!-- Node13&#45;&gt;Node19 -->
<g id="edge18" class="edge">
<title>Node13&#45;&gt;Node19</title>
<path fill="none" stroke="midnightblue" d="M424.84,-339.62C429.43,-337.7 433.89,-335.51 438,-333 457.85,-320.87 454.24,-307.28 474,-295 480.17,-291.17 487.17,-288.05 494.18,-285.54"/>
<polygon fill="midnightblue" stroke="midnightblue" points="423.45,-336.4 415.3,-343.17 425.89,-342.96 423.45,-336.4"/>
</g>
<!-- Node20 -->
<g id="node20" class="node">
<title>Node20</title>
<g id="a_node20"><a xlink:href="classdrain_1_1FuzzyTwinPeaks.html" target="_top" xlink:title="A function taking shape of two peaks, with a zero in the middle .">
<polygon fill="white" stroke="black" points="474.5,-228.5 474.5,-247.5 598.5,-247.5 598.5,-228.5 474.5,-228.5"/>
<text text-anchor="middle" x="536.5" y="-235.5" font-family="Helvetica,sans-Serif" font-size="10.00">FuzzyTwinPeaks&lt; T &gt;</text>
</a>
</g>
</g>
<!-- Node13&#45;&gt;Node20 -->
<g id="edge19" class="edge">
<title>Node13&#45;&gt;Node20</title>
<path fill="none" stroke="midnightblue" d="M424.65,-341.47C429.46,-339.18 434.02,-336.39 438,-333 466.43,-308.74 445.75,-281.48 474,-257 478.48,-253.12 483.73,-250.03 489.26,-247.58"/>
<polygon fill="midnightblue" stroke="midnightblue" points="423.12,-338.32 415.15,-345.29 425.73,-344.81 423.12,-338.32"/>
</g>
<!-- Node27 -->
<g id="node27" class="node">
<title>Node27</title>
<g id="a_node27"><a xlink:href="classdrain_1_1NegateFunctor.html" target="_top" xlink:title="Inverts intensities: f&#39; = f_max &#45; f.">
<polygon fill="white" stroke="black" points="492.5,-114.5 492.5,-133.5 580.5,-133.5 580.5,-114.5 492.5,-114.5"/>
<text text-anchor="middle" x="536.5" y="-121.5" font-family="Helvetica,sans-Serif" font-size="10.00">NegateFunctor</text>
</a>
</g>
</g>
<!-- Node26&#45;&gt;Node27 -->
<g id="edge26" class="edge">
<title>Node26&#45;&gt;Node27</title>
<path fill="none" stroke="midnightblue" d="M426.38,-124C447.81,-124 472.19,-124 492.46,-124"/>
<polygon fill="midnightblue" stroke="midnightblue" points="426.12,-120.5 416.12,-124 426.12,-127.5 426.12,-120.5"/>
</g>
<!-- Node30 -->
<g id="node30" class="node">
<title>Node30</title>
<g id="a_node30"><a xlink:href="classdrain_1_1FuzzyBell2.html" target="_top" xlink:title=" ">
<polygon fill="white" stroke="black" points="474,-76.5 474,-95.5 599,-95.5 599,-76.5 474,-76.5"/>
<text text-anchor="middle" x="536.5" y="-83.5" font-family="Helvetica,sans-Serif" font-size="10.00">FuzzyBell2&lt; double &gt;</text>
</a>
</g>
</g>
<!-- Node29&#45;&gt;Node30 -->
<g id="edge29" class="edge">
<title>Node29&#45;&gt;Node30</title>
<path fill="none" stroke="midnightblue" d="M423.87,-59.9C446.71,-65.24 473.3,-71.45 494.79,-76.48"/>
<polygon fill="midnightblue" stroke="midnightblue" points="424.54,-56.46 414.01,-57.59 422.95,-63.27 424.54,-56.46"/>
</g>
<!-- Node31 -->
<g id="node31" class="node">
<title>Node31</title>
<g id="a_node31"><a xlink:href="classdrain_1_1FuzzyBell.html" target="_top" xlink:title=" ">
<polygon fill="white" stroke="black" points="477,-38.5 477,-57.5 596,-57.5 596,-38.5 477,-38.5"/>
<text text-anchor="middle" x="536.5" y="-45.5" font-family="Helvetica,sans-Serif" font-size="10.00">FuzzyBell&lt; double &gt;</text>
</a>
</g>
</g>
<!-- Node29&#45;&gt;Node31 -->
<g id="edge30" class="edge">
<title>Node29&#45;&gt;Node31</title>
<path fill="none" stroke="midnightblue" d="M439.27,-48C451.77,-48 464.75,-48 476.98,-48"/>
<polygon fill="midnightblue" stroke="midnightblue" points="438.92,-44.5 428.92,-48 438.92,-51.5 438.92,-44.5"/>
</g>
<!-- Node32 -->
<g id="node32" class="node">
<title>Node32</title>
<g id="a_node32"><a xlink:href="classdrain_1_1FuzzyStep.html" target="_top" xlink:title=" ">
<polygon fill="white" stroke="black" points="475.5,-0.5 475.5,-19.5 597.5,-19.5 597.5,-0.5 475.5,-0.5"/>
<text text-anchor="middle" x="536.5" y="-7.5" font-family="Helvetica,sans-Serif" font-size="10.00">FuzzyStep&lt; double &gt;</text>
</a>
</g>
</g>
<!-- Node29&#45;&gt;Node32 -->
<g id="edge31" class="edge">
<title>Node29&#45;&gt;Node32</title>
<path fill="none" stroke="midnightblue" d="M423.87,-36.1C446.71,-30.76 473.3,-24.55 494.79,-19.52"/>
<polygon fill="midnightblue" stroke="midnightblue" points="422.95,-32.73 414.01,-38.41 424.54,-39.54 422.95,-32.73"/>
</g>
</g>
</svg>
        <g id="navigator" transform="translate(0 0)" fill="#404254">
                <rect fill="#f2f5e9" fill-opacity="0.5" stroke="#606060" stroke-width=".5" x="0" y="0" width="60" height="60"/>
                <use id="zoomplus" xlink:href="#zoomPlus" x="17" y="9" onmousedown="handleZoom(evt,'in')"/>
                <use id="zoomminus" xlink:href="#zoomMin" x="42" y="9" onmousedown="handleZoom(evt,'out')"/>
                <use id="reset" xlink:href="#resetDef" x="30" y="36" onmousedown="handleReset()"/>
                <g id="arrowUp" xlink:href="#dirArrow" transform="translate(30 24)" onmousedown="handlePan(0,-1)">
                  <use xlink:href="#rim" fill="#404040">
                        <set attributeName="fill" to="#808080" begin="arrowUp.mouseover" end="arrowUp.mouseout"/>
                  </use>
                  <path fill="none" stroke="white" stroke-width="1.5" d="M0,-3.0v7 M-2.5,-0.5L0,-3.0L2.5,-0.5"/>
                </g>
                <g id="arrowRight" xlink:href="#dirArrow" transform="rotate(90) translate(36 -43)" onmousedown="handlePan(1,0)">
                  <use xlink:href="#rim" fill="#404040">
                        <set attributeName="fill" to="#808080" begin="arrowRight.mouseover" end="arrowRight.mouseout"/>
                  </use>
                  <path fill="none" stroke="white" stroke-width="1.5" d="M0,-3.0v7 M-2.5,-0.5L0,-3.0L2.5,-0.5"/>
                </g>
                <g id="arrowDown" xlink:href="#dirArrow" transform="rotate(180) translate(-30 -48)" onmousedown="handlePan(0,1)">
                  <use xlink:href="#rim" fill="#404040">
                        <set attributeName="fill" to="#808080" begin="arrowDown.mouseover" end="arrowDown.mouseout"/>
                  </use>
                  <path fill="none" stroke="white" stroke-width="1.5" d="M0,-3.0v7 M-2.5,-0.5L0,-3.0L2.5,-0.5"/>
                </g>
                <g id="arrowLeft" xlink:href="#dirArrow" transform="rotate(270) translate(-36 17)" onmousedown="handlePan(-1,0)">
                  <use xlink:href="#rim" fill="#404040">
                        <set attributeName="fill" to="#808080" begin="arrowLeft.mouseover" end="arrowLeft.mouseout"/>
                  </use>
                  <path fill="none" stroke="white" stroke-width="1.5" d="M0,-3.0v7 M-2.5,-0.5L0,-3.0L2.5,-0.5"/>
                </g>
        </g>
        <svg viewBox="0 0 15 15" width="100%" height="30px" preserveAspectRatio="xMaxYMin meet">
         <g id="arrow_out" transform="scale(0.3 0.3)">
          <a xlink:href="classdrain_1_1Functor__inherit__graph_org.svg" target="_base">
           <rect id="button" ry="5" rx="5" y="6" x="6" height="38" width="38"
                fill="#f2f5e9" fill-opacity="0.5" stroke="#606060" stroke-width="1.0"/>
           <path id="arrow"
             d="M 11.500037,31.436501 C 11.940474,20.09759 22.043105,11.32322 32.158766,21.979434 L 37.068811,17.246167 C 37.068811,17.246167 37.088388,32 37.088388,32 L 22.160133,31.978069 C 22.160133,31.978069 26.997745,27.140456 26.997745,27.140456 C 18.528582,18.264221 13.291696,25.230495 11.500037,31.436501 z"
             style="fill:#404040;"/>
          </a>
         </g>
        </svg>
</svg>
