<?xml version="1.0" encoding="UTF-8" standalone="no"?>
<!DOCTYPE svg PUBLIC "-//W3C//DTD SVG 1.1//EN"
 "http://www.w3.org/Graphics/SVG/1.1/DTD/svg11.dtd">
<!-- Generated by graphviz version 2.43.0 (0)
 -->
<!-- Title: DopplerWindow Pages: 1 -->
<!--zoomable 142 -->
<svg id="main" version="1.1" xmlns="http://www.w3.org/2000/svg" xmlns:xlink="http://www.w3.org/1999/xlink" xml:space="preserve" onload="init(evt)">
<style type="text/css"><![CDATA[
.edge:hover path { stroke: red; }
.edge:hover polygon { stroke: red; fill: red; }
]]></style>
<script type="text/javascript"><![CDATA[
var edges = document.getElementsByTagName('g');
if (edges && edges.length) {
  for (var i=0;i<edges.length;i++) {
    if (edges[i].id.substr(0,4)=='edge') {
      edges[i].setAttribute('class','edge');
    }
  }
}
]]></script>
        <defs>
                <circle id="rim" cx="0" cy="0" r="7"/>
                <circle id="rim2" cx="0" cy="0" r="3.5"/>
                <g id="zoomPlus">
                        <use xlink:href="#rim" fill="#404040">
                                <set attributeName="fill" to="#808080" begin="zoomplus.mouseover" end="zoomplus.mouseout"/>
                        </use>
                        <path d="M-4,0h8M0,-4v8" fill="none" stroke="white" stroke-width="1.5" pointer-events="none"/>
                </g>
                <g id="zoomMin">
                        <use xlink:href="#rim" fill="#404040">
                                <set attributeName="fill" to="#808080" begin="zoomminus.mouseover" end="zoomminus.mouseout"/>
                        </use>
                        <path d="M-4,0h8" fill="none" stroke="white" stroke-width="1.5" pointer-events="none"/>
                </g>
                <g id="dirArrow">
                        <path fill="none" stroke="white" stroke-width="1.5" d="M0,-3.0v7 M-2.5,-0.5L0,-3.0L2.5,-0.5"/>
                </g>
               <g id="resetDef">
                       <use xlink:href="#rim2" fill="#404040">
                               <set attributeName="fill" to="#808080" begin="reset.mouseover" end="reset.mouseout"/>
                       </use>
               </g>
        </defs>

<script type="text/javascript">
var viewWidth = 1014;
var viewHeight = 142;
var sectionId = 'dynsection-0';
</script>
<script xlink:href="svgpan.js"/>
<svg id="graph" class="graph">
<g id="viewport">
<title>DopplerWindow</title>
<polygon fill="white" stroke="transparent" points="-4,4 -4,-138 1010,-138 1010,4 -4,4"/>
<!-- Node1 -->
<g id="node1" class="node">
<title>Node1</title>
<g id="a_node1"><a xlink:title=" ">
<polygon fill="#bfbfbf" stroke="black" points="725,-57.5 725,-76.5 819,-76.5 819,-57.5 725,-57.5"/>
<text text-anchor="middle" x="772" y="-64.5" font-family="Helvetica,sans-Serif" font-size="10.00">DopplerWindow</text>
</a>
</g>
</g>
<!-- Node6 -->
<g id="node6" class="node">
<title>Node6</title>
<g id="a_node6"><a xlink:href="classrack_1_1DopplerAverageWindow.html" target="_top" xlink:title=" ">
<polygon fill="white" stroke="black" points="863.5,-114.5 863.5,-133.5 997.5,-133.5 997.5,-114.5 863.5,-114.5"/>
<text text-anchor="middle" x="930.5" y="-121.5" font-family="Helvetica,sans-Serif" font-size="10.00">DopplerAverageWindow</text>
</a>
</g>
</g>
<!-- Node1&#45;&gt;Node6 -->
<g id="edge5" class="edge">
<title>Node1&#45;&gt;Node6</title>
<path fill="none" stroke="midnightblue" d="M800.29,-81.19C815.99,-88.96 836.27,-98.34 855,-105 865.06,-108.58 876.11,-111.78 886.54,-114.48"/>
<polygon fill="midnightblue" stroke="midnightblue" points="801.66,-77.96 791.16,-76.6 798.52,-84.22 801.66,-77.96"/>
</g>
<!-- Node7 -->
<g id="node7" class="node">
<title>Node7</title>
<g id="a_node7"><a xlink:href="classrack_1_1DopplerAverageWindow2.html" target="_top" xlink:title="Smoothens Doppler field, providing quality computed as eccentricity.">
<polygon fill="white" stroke="black" points="860.5,-76.5 860.5,-95.5 1000.5,-95.5 1000.5,-76.5 860.5,-76.5"/>
<text text-anchor="middle" x="930.5" y="-83.5" font-family="Helvetica,sans-Serif" font-size="10.00">DopplerAverageWindow2</text>
</a>
</g>
</g>
<!-- Node1&#45;&gt;Node7 -->
<g id="edge6" class="edge">
<title>Node1&#45;&gt;Node7</title>
<path fill="none" stroke="midnightblue" d="M829.33,-73.84C839.35,-75.06 849.89,-76.34 860.22,-77.59"/>
<polygon fill="midnightblue" stroke="midnightblue" points="829.46,-70.33 819.11,-72.6 828.61,-77.28 829.46,-70.33"/>
</g>
<!-- Node8 -->
<g id="node8" class="node">
<title>Node8</title>
<g id="a_node8"><a xlink:href="classrack_1_1DopplerDevWindow.html" target="_top" xlink:title=" ">
<polygon fill="white" stroke="black" points="874,-38.5 874,-57.5 987,-57.5 987,-38.5 874,-38.5"/>
<text text-anchor="middle" x="930.5" y="-45.5" font-family="Helvetica,sans-Serif" font-size="10.00">DopplerDevWindow</text>
</a>
</g>
</g>
<!-- Node1&#45;&gt;Node8 -->
<g id="edge7" class="edge">
<title>Node1&#45;&gt;Node8</title>
<path fill="none" stroke="midnightblue" d="M829.4,-60.15C843.84,-58.4 859.35,-56.52 873.76,-54.77"/>
<polygon fill="midnightblue" stroke="midnightblue" points="828.61,-56.72 819.11,-61.4 829.46,-63.67 828.61,-56.72"/>
</g>
<!-- Node9 -->
<g id="node9" class="node">
<title>Node9</title>
<g id="a_node9"><a xlink:href="classrack_1_1DopplerEccentricityWindow.html" target="_top" xlink:title="Computes eccentrity of Doppler speeds mapped on a Nyquist&#45;normalized unit window.">
<polygon fill="white" stroke="black" points="855,-0.5 855,-19.5 1006,-19.5 1006,-0.5 855,-0.5"/>
<text text-anchor="middle" x="930.5" y="-7.5" font-family="Helvetica,sans-Serif" font-size="10.00">DopplerEccentricityWindow</text>
</a>
</g>
</g>
<!-- Node1&#45;&gt;Node9 -->
<g id="edge8" class="edge">
<title>Node1&#45;&gt;Node9</title>
<path fill="none" stroke="midnightblue" d="M800.29,-52.81C815.99,-45.04 836.27,-35.66 855,-29 865.06,-25.42 876.11,-22.22 886.54,-19.52"/>
<polygon fill="midnightblue" stroke="midnightblue" points="798.52,-49.78 791.16,-57.4 801.66,-56.04 798.52,-49.78"/>
</g>
<!-- Node2 -->
<g id="node2" class="node">
<title>Node2</title>
<g id="a_node2"><a xlink:href="classrack_1_1SlidingRadarWindow.html" target="_top" xlink:title=" ">
<polygon fill="white" stroke="black" points="551,-52 551,-82 689,-82 689,-52 551,-52"/>
<text text-anchor="start" x="559" y="-70" font-family="Helvetica,sans-Serif" font-size="10.00">SlidingRadarWindow</text>
<text text-anchor="middle" x="620" y="-59" font-family="Helvetica,sans-Serif" font-size="10.00">&lt; RadarWindowConfig &gt;</text>
</a>
</g>
</g>
<!-- Node2&#45;&gt;Node1 -->
<g id="edge1" class="edge">
<title>Node2&#45;&gt;Node1</title>
<path fill="none" stroke="midnightblue" d="M699.48,-67C708.06,-67 716.57,-67 724.57,-67"/>
<polygon fill="midnightblue" stroke="midnightblue" points="699.42,-63.5 689.42,-67 699.42,-70.5 699.42,-63.5"/>
</g>
<!-- Node3 -->
<g id="node3" class="node">
<title>Node3</title>
<g id="a_node3"><a xlink:href="classdrain_1_1image_1_1SlidingWindow.html" target="_top" xlink:title=" ">
<polygon fill="white" stroke="black" points="348,-52 348,-82 515,-82 515,-52 348,-52"/>
<text text-anchor="start" x="356" y="-70" font-family="Helvetica,sans-Serif" font-size="10.00">SlidingWindow&lt; RadarWindow</text>
<text text-anchor="middle" x="431.5" y="-59" font-family="Helvetica,sans-Serif" font-size="10.00">Config, RadarWindowCore &gt;</text>
</a>
</g>
</g>
<!-- Node3&#45;&gt;Node2 -->
<g id="edge2" class="edge">
<title>Node3&#45;&gt;Node2</title>
<path fill="none" stroke="midnightblue" d="M525.27,-67C533.93,-67 542.6,-67 550.98,-67"/>
<polygon fill="midnightblue" stroke="midnightblue" points="525.12,-63.5 515.12,-67 525.12,-70.5 525.12,-63.5"/>
</g>
<!-- Node4 -->
<g id="node4" class="node">
<title>Node4</title>
<g id="a_node4"><a xlink:href="classdrain_1_1image_1_1Window.html" target="_top" xlink:title=" ">
<polygon fill="white" stroke="black" points="143,-52 143,-82 312,-82 312,-52 143,-52"/>
<text text-anchor="start" x="151" y="-70" font-family="Helvetica,sans-Serif" font-size="10.00">Window&lt; RadarWindowConfig,</text>
<text text-anchor="middle" x="227.5" y="-59" font-family="Helvetica,sans-Serif" font-size="10.00"> RadarWindowCore &gt;</text>
</a>
</g>
</g>
<!-- Node4&#45;&gt;Node3 -->
<g id="edge3" class="edge">
<title>Node4&#45;&gt;Node3</title>
<path fill="none" stroke="midnightblue" d="M322.16,-67C330.76,-67 339.43,-67 347.92,-67"/>
<polygon fill="midnightblue" stroke="midnightblue" points="322.12,-63.5 312.12,-67 322.12,-70.5 322.12,-63.5"/>
</g>
<!-- Node5 -->
<g id="node5" class="node">
<title>Node5</title>
<g id="a_node5"><a xlink:title=" ">
<polygon fill="white" stroke="#bfbfbf" points="0,-57.5 0,-76.5 107,-76.5 107,-57.5 0,-57.5"/>
<text text-anchor="middle" x="53.5" y="-64.5" font-family="Helvetica,sans-Serif" font-size="10.00">RadarWindowCore</text>
</a>
</g>
</g>
<!-- Node5&#45;&gt;Node4 -->
<g id="edge4" class="edge">
<title>Node5&#45;&gt;Node4</title>
<path fill="none" stroke="midnightblue" d="M117.1,-67C125.5,-67 134.22,-67 142.91,-67"/>
<polygon fill="midnightblue" stroke="midnightblue" points="117.04,-63.5 107.04,-67 117.04,-70.5 117.04,-63.5"/>
</g>
</g>
</svg>
        <g id="navigator" transform="translate(0 0)" fill="#404254">
                <rect fill="#f2f5e9" fill-opacity="0.5" stroke="#606060" stroke-width=".5" x="0" y="0" width="60" height="60"/>
                <use id="zoomplus" xlink:href="#zoomPlus" x="17" y="9" onmousedown="handleZoom(evt,'in')"/>
                <use id="zoomminus" xlink:href="#zoomMin" x="42" y="9" onmousedown="handleZoom(evt,'out')"/>
                <use id="reset" xlink:href="#resetDef" x="30" y="36" onmousedown="handleReset()"/>
                <g id="arrowUp" xlink:href="#dirArrow" transform="translate(30 24)" onmousedown="handlePan(0,-1)">
                  <use xlink:href="#rim" fill="#404040">
                        <set attributeName="fill" to="#808080" begin="arrowUp.mouseover" end="arrowUp.mouseout"/>
                  </use>
                  <path fill="none" stroke="white" stroke-width="1.5" d="M0,-3.0v7 M-2.5,-0.5L0,-3.0L2.5,-0.5"/>
                </g>
                <g id="arrowRight" xlink:href="#dirArrow" transform="rotate(90) translate(36 -43)" onmousedown="handlePan(1,0)">
                  <use xlink:href="#rim" fill="#404040">
                        <set attributeName="fill" to="#808080" begin="arrowRight.mouseover" end="arrowRight.mouseout"/>
                  </use>
                  <path fill="none" stroke="white" stroke-width="1.5" d="M0,-3.0v7 M-2.5,-0.5L0,-3.0L2.5,-0.5"/>
                </g>
                <g id="arrowDown" xlink:href="#dirArrow" transform="rotate(180) translate(-30 -48)" onmousedown="handlePan(0,1)">
                  <use xlink:href="#rim" fill="#404040">
                        <set attributeName="fill" to="#808080" begin="arrowDown.mouseover" end="arrowDown.mouseout"/>
                  </use>
                  <path fill="none" stroke="white" stroke-width="1.5" d="M0,-3.0v7 M-2.5,-0.5L0,-3.0L2.5,-0.5"/>
                </g>
                <g id="arrowLeft" xlink:href="#dirArrow" transform="rotate(270) translate(-36 17)" onmousedown="handlePan(-1,0)">
                  <use xlink:href="#rim" fill="#404040">
                        <set attributeName="fill" to="#808080" begin="arrowLeft.mouseover" end="arrowLeft.mouseout"/>
                  </use>
                  <path fill="none" stroke="white" stroke-width="1.5" d="M0,-3.0v7 M-2.5,-0.5L0,-3.0L2.5,-0.5"/>
                </g>
        </g>
        <svg viewBox="0 0 15 15" width="100%" height="30px" preserveAspectRatio="xMaxYMin meet">
         <g id="arrow_out" transform="scale(0.3 0.3)">
          <a xlink:href="classrack_1_1DopplerWindow__inherit__graph_org.svg" target="_base">
           <rect id="button" ry="5" rx="5" y="6" x="6" height="38" width="38"
                fill="#f2f5e9" fill-opacity="0.5" stroke="#606060" stroke-width="1.0"/>
           <path id="arrow"
             d="M 11.500037,31.436501 C 11.940474,20.09759 22.043105,11.32322 32.158766,21.979434 L 37.068811,17.246167 C 37.068811,17.246167 37.088388,32 37.088388,32 L 22.160133,31.978069 C 22.160133,31.978069 26.997745,27.140456 26.997745,27.140456 C 18.528582,18.264221 13.291696,25.230495 11.500037,31.436501 z"
             style="fill:#404040;"/>
          </a>
         </g>
        </svg>
</svg>
