<?xml version="1.0" encoding="UTF-8" standalone="no"?>
<!DOCTYPE svg PUBLIC "-//W3C//DTD SVG 1.1//EN"
 "http://www.w3.org/Graphics/SVG/1.1/DTD/svg11.dtd">
<!-- Generated by graphviz version 2.43.0 (0)
 -->
<!-- Title: Path&lt; T, SEP, ALEAD, AREPEAT, ATRAIL &gt; Pages: 1 -->
<svg width="216pt" height="163pt"
 viewBox="0.00 0.00 216.00 163.00" xmlns="http://www.w3.org/2000/svg" xmlns:xlink="http://www.w3.org/1999/xlink">
<g id="graph0" class="graph" transform="scale(1 1) rotate(0) translate(4 159)">
<title>Path&lt; T, SEP, ALEAD, AREPEAT, ATRAIL &gt;</title>
<polygon fill="white" stroke="transparent" points="-4,4 -4,-159 212,-159 212,4 -4,4"/>
<!-- Node1 -->
<g id="node1" class="node">
<title>Node1</title>
<g id="a_node1"><a xlink:title=" ">
<polygon fill="#bfbfbf" stroke="black" points="0,-0.5 0,-30.5 121,-30.5 121,-0.5 0,-0.5"/>
<text text-anchor="start" x="8" y="-18.5" font-family="Helvetica,sans-Serif" font-size="10.00">Path&lt; T, SEP, ALEAD,</text>
<text text-anchor="middle" x="60.5" y="-7.5" font-family="Helvetica,sans-Serif" font-size="10.00"> AREPEAT, ATRAIL &gt;</text>
</a>
</g>
</g>
<!-- Node2 -->
<g id="node2" class="node">
<title>Node2</title>
<g id="a_node2"><a xlink:title=" ">
<polygon fill="white" stroke="#bfbfbf" points="14.5,-78.5 14.5,-97.5 74.5,-97.5 74.5,-78.5 14.5,-78.5"/>
<text text-anchor="middle" x="44.5" y="-85.5" font-family="Helvetica,sans-Serif" font-size="10.00">list&lt; T &gt;</text>
</a>
</g>
</g>
<!-- Node2&#45;&gt;Node1 -->
<g id="edge1" class="edge">
<title>Node2&#45;&gt;Node1</title>
<path fill="none" stroke="midnightblue" d="M48.68,-68.6C51.37,-56.72 54.83,-41.49 57.31,-30.58"/>
<polygon fill="midnightblue" stroke="midnightblue" points="45.26,-67.83 46.46,-78.36 52.09,-69.38 45.26,-67.83"/>
</g>
<!-- Node3 -->
<g id="node3" class="node">
<title>Node3</title>
<g id="a_node3"><a xlink:href="structdrain_1_1PathSeparatorPolicy.html" target="_top" xlink:title="Determines if separators will be stored in the path.">
<polygon fill="white" stroke="black" points="93,-78.5 93,-97.5 208,-97.5 208,-78.5 93,-78.5"/>
<text text-anchor="middle" x="150.5" y="-85.5" font-family="Helvetica,sans-Serif" font-size="10.00">PathSeparatorPolicy</text>
</a>
</g>
</g>
<!-- Node3&#45;&gt;Node1 -->
<g id="edge2" class="edge">
<title>Node3&#45;&gt;Node1</title>
<path fill="none" stroke="#9a32cd" stroke-dasharray="5,2" d="M131.51,-72.13C115.87,-59.87 93.83,-42.61 78.47,-30.58"/>
<polygon fill="#9a32cd" stroke="#9a32cd" points="129.43,-74.94 139.46,-78.36 133.75,-69.43 129.43,-74.94"/>
<text text-anchor="middle" x="138.5" y="-52" font-family="Helvetica,sans-Serif" font-size="10.00"> separator</text>
</g>
<!-- Node4 -->
<g id="node4" class="node">
<title>Node4</title>
<g id="a_node4"><a xlink:href="classdrain_1_1UniTuple.html" target="_top" xlink:title=" ">
<polygon fill="white" stroke="black" points="93.5,-135.5 93.5,-154.5 207.5,-154.5 207.5,-135.5 93.5,-135.5"/>
<text text-anchor="middle" x="150.5" y="-142.5" font-family="Helvetica,sans-Serif" font-size="10.00">UniTuple&lt; bool, 3 &gt;</text>
</a>
</g>
</g>
<!-- Node4&#45;&gt;Node3 -->
<g id="edge3" class="edge">
<title>Node4&#45;&gt;Node3</title>
<path fill="none" stroke="midnightblue" d="M150.5,-125.12C150.5,-115.82 150.5,-105.06 150.5,-97.71"/>
<polygon fill="midnightblue" stroke="midnightblue" points="147,-125.41 150.5,-135.41 154,-125.41 147,-125.41"/>
</g>
</g>
</svg>
