<?xml version="1.0" encoding="UTF-8" standalone="no"?>
<!DOCTYPE svg PUBLIC "-//W3C//DTD SVG 1.1//EN"
 "http://www.w3.org/Graphics/SVG/1.1/DTD/svg11.dtd">
<!-- Generated by graphviz version 2.43.0 (0)
 -->
<!-- Title: CopyOp Pages: 1 -->
<svg width="268pt" height="308pt"
 viewBox="0.00 0.00 267.50 308.00" xmlns="http://www.w3.org/2000/svg" xmlns:xlink="http://www.w3.org/1999/xlink">
<g id="graph0" class="graph" transform="scale(1 1) rotate(0) translate(4 304)">
<title>CopyOp</title>
<polygon fill="white" stroke="transparent" points="-4,4 -4,-304 263.5,-304 263.5,4 -4,4"/>
<!-- Node1 -->
<g id="node1" class="node">
<title>Node1</title>
<g id="a_node1"><a xlink:title=" ">
<polygon fill="#bfbfbf" stroke="black" points="129,-0.5 129,-19.5 184,-19.5 184,-0.5 129,-0.5"/>
<text text-anchor="middle" x="156.5" y="-7.5" font-family="Helvetica,sans-Serif" font-size="10.00">CopyOp</text>
</a>
</g>
</g>
<!-- Node2 -->
<g id="node2" class="node">
<title>Node2</title>
<g id="a_node2"><a xlink:href="classdrain_1_1image_1_1UnaryFunctorOp.html" target="_top" xlink:title=" ">
<polygon fill="white" stroke="black" points="67,-56.5 67,-75.5 246,-75.5 246,-56.5 67,-56.5"/>
<text text-anchor="middle" x="156.5" y="-63.5" font-family="Helvetica,sans-Serif" font-size="10.00">UnaryFunctorOp&lt; CopyFunctor &gt;</text>
</a>
</g>
</g>
<!-- Node2&#45;&gt;Node1 -->
<g id="edge1" class="edge">
<title>Node2&#45;&gt;Node1</title>
<path fill="none" stroke="midnightblue" d="M156.5,-45.8C156.5,-36.91 156.5,-26.78 156.5,-19.75"/>
<polygon fill="midnightblue" stroke="midnightblue" points="153,-46.08 156.5,-56.08 160,-46.08 153,-46.08"/>
</g>
<!-- Node3 -->
<g id="node3" class="node">
<title>Node3</title>
<g id="a_node3"><a xlink:href="classdrain_1_1image_1_1FunctorOp.html" target="_top" xlink:title=" ">
<polygon fill="white" stroke="black" points="82,-112.5 82,-131.5 231,-131.5 231,-112.5 82,-112.5"/>
<text text-anchor="middle" x="156.5" y="-119.5" font-family="Helvetica,sans-Serif" font-size="10.00">FunctorOp&lt; CopyFunctor &gt;</text>
</a>
</g>
</g>
<!-- Node3&#45;&gt;Node2 -->
<g id="edge2" class="edge">
<title>Node3&#45;&gt;Node2</title>
<path fill="none" stroke="midnightblue" d="M156.5,-101.8C156.5,-92.91 156.5,-82.78 156.5,-75.75"/>
<polygon fill="midnightblue" stroke="midnightblue" points="153,-102.08 156.5,-112.08 160,-102.08 153,-102.08"/>
</g>
<!-- Node4 -->
<g id="node4" class="node">
<title>Node4</title>
<g id="a_node4"><a xlink:href="structdrain_1_1image_1_1FunctorWrapper.html" target="_top" xlink:title=" ">
<polygon fill="white" stroke="black" points="0,-168.5 0,-187.5 177,-187.5 177,-168.5 0,-168.5"/>
<text text-anchor="middle" x="88.5" y="-175.5" font-family="Helvetica,sans-Serif" font-size="10.00">FunctorWrapper&lt; CopyFunctor &gt;</text>
</a>
</g>
</g>
<!-- Node4&#45;&gt;Node3 -->
<g id="edge3" class="edge">
<title>Node4&#45;&gt;Node3</title>
<path fill="none" stroke="midnightblue" d="M107.26,-162.1C119.5,-152.38 135.06,-140.03 145.38,-131.83"/>
<polygon fill="midnightblue" stroke="midnightblue" points="105.08,-159.36 99.43,-168.32 109.43,-164.85 105.08,-159.36"/>
</g>
<!-- Node5 -->
<g id="node5" class="node">
<title>Node5</title>
<g id="a_node5"><a xlink:href="classdrain_1_1image_1_1ImageOp.html" target="_top" xlink:title="Base class for image processing functions.">
<polygon fill="white" stroke="black" points="195,-168.5 195,-187.5 256,-187.5 256,-168.5 195,-168.5"/>
<text text-anchor="middle" x="225.5" y="-175.5" font-family="Helvetica,sans-Serif" font-size="10.00">ImageOp</text>
</a>
</g>
</g>
<!-- Node5&#45;&gt;Node3 -->
<g id="edge4" class="edge">
<title>Node5&#45;&gt;Node3</title>
<path fill="none" stroke="midnightblue" d="M206.46,-162.1C194.04,-152.38 178.26,-140.03 167.79,-131.83"/>
<polygon fill="midnightblue" stroke="midnightblue" points="204.38,-164.92 214.41,-168.32 208.7,-159.4 204.38,-164.92"/>
</g>
<!-- Node6 -->
<g id="node6" class="node">
<title>Node6</title>
<g id="a_node6"><a xlink:href="classdrain_1_1image_1_1ImageMod.html" target="_top" xlink:title="Class for operations that modify an existing image instead of producing a new image.">
<polygon fill="white" stroke="black" points="191.5,-224.5 191.5,-243.5 259.5,-243.5 259.5,-224.5 191.5,-224.5"/>
<text text-anchor="middle" x="225.5" y="-231.5" font-family="Helvetica,sans-Serif" font-size="10.00">ImageMod</text>
</a>
</g>
</g>
<!-- Node6&#45;&gt;Node5 -->
<g id="edge5" class="edge">
<title>Node6&#45;&gt;Node5</title>
<path fill="none" stroke="midnightblue" d="M225.5,-213.8C225.5,-204.91 225.5,-194.78 225.5,-187.75"/>
<polygon fill="midnightblue" stroke="midnightblue" points="222,-214.08 225.5,-224.08 229,-214.08 222,-214.08"/>
</g>
<!-- Node7 -->
<g id="node7" class="node">
<title>Node7</title>
<g id="a_node7"><a xlink:href="classdrain_1_1BeanLike.html" target="_top" xlink:title="Something which has a name, a description and possibly some parameters of varying type.">
<polygon fill="white" stroke="black" points="195,-280.5 195,-299.5 256,-299.5 256,-280.5 195,-280.5"/>
<text text-anchor="middle" x="225.5" y="-287.5" font-family="Helvetica,sans-Serif" font-size="10.00">BeanLike</text>
</a>
</g>
</g>
<!-- Node7&#45;&gt;Node6 -->
<g id="edge6" class="edge">
<title>Node7&#45;&gt;Node6</title>
<path fill="none" stroke="midnightblue" d="M225.5,-269.8C225.5,-260.91 225.5,-250.78 225.5,-243.75"/>
<polygon fill="midnightblue" stroke="midnightblue" points="222,-270.08 225.5,-280.08 229,-270.08 222,-270.08"/>
</g>
</g>
</svg>
