<?xml version="1.0" encoding="UTF-8" standalone="no"?>
<!DOCTYPE svg PUBLIC "-//W3C//DTD SVG 1.1//EN"
 "http://www.w3.org/Graphics/SVG/1.1/DTD/svg11.dtd">
<!-- Generated by graphviz version 2.43.0 (0)
 -->
<!-- Title: BankSuper&lt; T &gt; Pages: 1 -->
<svg width="489pt" height="137pt"
 viewBox="0.00 0.00 489.00 137.00" xmlns="http://www.w3.org/2000/svg" xmlns:xlink="http://www.w3.org/1999/xlink">
<g id="graph0" class="graph" transform="scale(1 1) rotate(0) translate(4 133)">
<title>BankSuper&lt; T &gt;</title>
<polygon fill="white" stroke="transparent" points="-4,4 -4,-133 485,-133 485,4 -4,4"/>
<!-- Node1 -->
<g id="node1" class="node">
<title>Node1</title>
<g id="a_node1"><a xlink:title=" ">
<polygon fill="#bfbfbf" stroke="black" points="383,-55 383,-74 481,-74 481,-55 383,-55"/>
<text text-anchor="middle" x="432" y="-62" font-family="Helvetica,sans-Serif" font-size="10.00">BankSuper&lt; T &gt;</text>
</a>
</g>
</g>
<!-- Node2 -->
<g id="node2" class="node">
<title>Node2</title>
<g id="a_node2"><a xlink:href="classdrain_1_1Bank.html" target="_top" xlink:title=" ">
<polygon fill="white" stroke="black" points="173,-102 173,-121 298,-121 298,-102 173,-102"/>
<text text-anchor="middle" x="235.5" y="-109" font-family="Helvetica,sans-Serif" font-size="10.00">Bank&lt; T, std::string &gt;</text>
</a>
</g>
</g>
<!-- Node2&#45;&gt;Node1 -->
<g id="edge1" class="edge">
<title>Node2&#45;&gt;Node1</title>
<path fill="none" stroke="midnightblue" d="M285.68,-99.62C318.4,-91.71 360.81,-81.46 391.37,-74.08"/>
<polygon fill="midnightblue" stroke="midnightblue" points="284.76,-96.24 275.86,-101.99 286.4,-103.04 284.76,-96.24"/>
</g>
<!-- Node3 -->
<g id="node3" class="node">
<title>Node3</title>
<g id="a_node3"><a xlink:title=" ">
<polygon fill="white" stroke="#bfbfbf" points="0,-98.5 0,-128.5 136,-128.5 136,-98.5 0,-98.5"/>
<text text-anchor="start" x="8" y="-116.5" font-family="Helvetica,sans-Serif" font-size="10.00">map&lt; std::string, Cloner</text>
<text text-anchor="middle" x="68" y="-105.5" font-family="Helvetica,sans-Serif" font-size="10.00">Base&lt; T &gt; * &gt;</text>
</a>
</g>
</g>
<!-- Node3&#45;&gt;Node2 -->
<g id="edge2" class="edge">
<title>Node3&#45;&gt;Node2</title>
<path fill="none" stroke="darkgreen" d="M146.59,-112.56C155.4,-112.46 164.28,-112.35 172.84,-112.25"/>
<polygon fill="darkgreen" stroke="darkgreen" points="146.27,-109.07 136.32,-112.69 146.36,-116.07 146.27,-109.07"/>
</g>
<!-- Node4 -->
<g id="node4" class="node">
<title>Node4</title>
<g id="a_node4"><a xlink:href="classdrain_1_1Dictionary2.html" target="_top" xlink:title=" ">
<polygon fill="white" stroke="black" points="181.5,-49.5 181.5,-79.5 289.5,-79.5 289.5,-49.5 181.5,-49.5"/>
<text text-anchor="start" x="189.5" y="-67.5" font-family="Helvetica,sans-Serif" font-size="10.00">Dictionary2&lt; char,</text>
<text text-anchor="middle" x="235.5" y="-56.5" font-family="Helvetica,sans-Serif" font-size="10.00"> std::string &gt;</text>
</a>
</g>
</g>
<!-- Node4&#45;&gt;Node1 -->
<g id="edge3" class="edge">
<title>Node4&#45;&gt;Node1</title>
<path fill="none" stroke="#9a32cd" stroke-dasharray="5,2" d="M299.79,-64.5C326.8,-64.5 357.81,-64.5 382.91,-64.5"/>
<polygon fill="#9a32cd" stroke="#9a32cd" points="299.65,-61 289.65,-64.5 299.65,-68 299.65,-61"/>
<text text-anchor="middle" x="340.5" y="-67.5" font-family="Helvetica,sans-Serif" font-size="10.00"> briefKeys</text>
</g>
<!-- Node5 -->
<g id="node5" class="node">
<title>Node5</title>
<g id="a_node5"><a xlink:title=" ">
<polygon fill="white" stroke="#bfbfbf" points="9,-49.5 9,-79.5 127,-79.5 127,-49.5 9,-49.5"/>
<text text-anchor="start" x="17" y="-67.5" font-family="Helvetica,sans-Serif" font-size="10.00">list&lt; std::pair&lt; char,</text>
<text text-anchor="middle" x="68" y="-56.5" font-family="Helvetica,sans-Serif" font-size="10.00"> std::string &gt; &gt;</text>
</a>
</g>
</g>
<!-- Node5&#45;&gt;Node4 -->
<g id="edge4" class="edge">
<title>Node5&#45;&gt;Node4</title>
<path fill="none" stroke="midnightblue" d="M137.39,-64.5C152.07,-64.5 167.37,-64.5 181.37,-64.5"/>
<polygon fill="midnightblue" stroke="midnightblue" points="137.35,-61 127.35,-64.5 137.35,-68 137.35,-61"/>
</g>
<!-- Node6 -->
<g id="node6" class="node">
<title>Node6</title>
<g id="a_node6"><a xlink:href="classdrain_1_1Dictionary2.html" target="_top" xlink:title=" ">
<polygon fill="white" stroke="black" points="179,-0.5 179,-30.5 292,-30.5 292,-0.5 179,-0.5"/>
<text text-anchor="start" x="187" y="-18.5" font-family="Helvetica,sans-Serif" font-size="10.00">Dictionary2&lt; key_t,</text>
<text text-anchor="middle" x="235.5" y="-7.5" font-family="Helvetica,sans-Serif" font-size="10.00"> value_t &gt;</text>
</a>
</g>
</g>
<!-- Node6&#45;&gt;Node1 -->
<g id="edge5" class="edge">
<title>Node6&#45;&gt;Node1</title>
<path fill="none" stroke="#9a32cd" stroke-dasharray="5,2" d="M302.3,-32.08C332.55,-39.7 367.34,-48.46 393.12,-54.96"/>
<polygon fill="#9a32cd" stroke="#9a32cd" points="302.79,-28.59 292.24,-29.54 301.08,-35.38 302.79,-28.59"/>
<text text-anchor="middle" x="340.5" y="-49.5" font-family="Helvetica,sans-Serif" font-size="10.00"> sections</text>
</g>
<!-- Node7 -->
<g id="node7" class="node">
<title>Node7</title>
<g id="a_node7"><a xlink:title=" ">
<polygon fill="white" stroke="#bfbfbf" points="12.5,-0.5 12.5,-30.5 123.5,-30.5 123.5,-0.5 12.5,-0.5"/>
<text text-anchor="start" x="20.5" y="-18.5" font-family="Helvetica,sans-Serif" font-size="10.00">list&lt; std::pair&lt; key</text>
<text text-anchor="middle" x="68" y="-7.5" font-family="Helvetica,sans-Serif" font-size="10.00">_t , value_t &gt; &gt;</text>
</a>
</g>
</g>
<!-- Node7&#45;&gt;Node6 -->
<g id="edge6" class="edge">
<title>Node7&#45;&gt;Node6</title>
<path fill="none" stroke="midnightblue" d="M133.79,-15.5C148.65,-15.5 164.33,-15.5 178.78,-15.5"/>
<polygon fill="midnightblue" stroke="midnightblue" points="133.65,-12 123.65,-15.5 133.65,-19 133.65,-12"/>
</g>
</g>
</svg>
