<?xml version="1.0" encoding="UTF-8" standalone="no"?>
<!DOCTYPE svg PUBLIC "-//W3C//DTD SVG 1.1//EN"
 "http://www.w3.org/Graphics/SVG/1.1/DTD/svg11.dtd">
<!-- Generated by graphviz version 2.43.0 (0)
 -->
<!-- Title: NodeXML Pages: 1 -->
<svg width="246pt" height="252pt"
 viewBox="0.00 0.00 245.50 252.00" xmlns="http://www.w3.org/2000/svg" xmlns:xlink="http://www.w3.org/1999/xlink">
<g id="graph0" class="graph" transform="scale(1 1) rotate(0) translate(4 248)">
<title>NodeXML</title>
<polygon fill="white" stroke="transparent" points="-4,4 -4,-248 241.5,-248 241.5,4 -4,4"/>
<!-- Node1 -->
<g id="node1" class="node">
<title>Node1</title>
<g id="a_node1"><a xlink:title=" ">
<polygon fill="#bfbfbf" stroke="black" points="83.5,-56.5 83.5,-75.5 146.5,-75.5 146.5,-56.5 83.5,-56.5"/>
<text text-anchor="middle" x="115" y="-63.5" font-family="Helvetica,sans-Serif" font-size="10.00">NodeXML</text>
</a>
</g>
</g>
<!-- Node5 -->
<g id="node5" class="node">
<title>Node5</title>
<g id="a_node5"><a xlink:href="classdrain_1_1image_1_1NodeSVG.html" target="_top" xlink:title=" ">
<polygon fill="white" stroke="black" points="0,-0.5 0,-19.5 62,-19.5 62,-0.5 0,-0.5"/>
<text text-anchor="middle" x="31" y="-7.5" font-family="Helvetica,sans-Serif" font-size="10.00">NodeSVG</text>
</a>
</g>
</g>
<!-- Node1&#45;&gt;Node5 -->
<g id="edge4" class="edge">
<title>Node1&#45;&gt;Node5</title>
<path fill="none" stroke="midnightblue" d="M93.07,-50.9C77.66,-41 57.55,-28.07 44.46,-19.65"/>
<polygon fill="midnightblue" stroke="midnightblue" points="91.2,-53.86 101.5,-56.32 94.98,-47.97 91.2,-53.86"/>
</g>
<!-- Node6 -->
<g id="node6" class="node">
<title>Node6</title>
<g id="a_node6"><a xlink:href="classNodeHTML.html" target="_top" xlink:title=" ">
<polygon fill="white" stroke="black" points="80,-0.5 80,-19.5 150,-19.5 150,-0.5 80,-0.5"/>
<text text-anchor="middle" x="115" y="-7.5" font-family="Helvetica,sans-Serif" font-size="10.00">NodeHTML</text>
</a>
</g>
</g>
<!-- Node1&#45;&gt;Node6 -->
<g id="edge5" class="edge">
<title>Node1&#45;&gt;Node6</title>
<path fill="none" stroke="midnightblue" d="M115,-45.8C115,-36.91 115,-26.78 115,-19.75"/>
<polygon fill="midnightblue" stroke="midnightblue" points="111.5,-46.08 115,-56.08 118.5,-46.08 111.5,-46.08"/>
</g>
<!-- Node7 -->
<g id="node7" class="node">
<title>Node7</title>
<g id="a_node7"><a xlink:href="classrack_1_1NodeGDAL.html" target="_top" xlink:title=" ">
<polygon fill="white" stroke="black" points="168.5,-0.5 168.5,-19.5 237.5,-19.5 237.5,-0.5 168.5,-0.5"/>
<text text-anchor="middle" x="203" y="-7.5" font-family="Helvetica,sans-Serif" font-size="10.00">NodeGDAL</text>
</a>
</g>
</g>
<!-- Node1&#45;&gt;Node7 -->
<g id="edge6" class="edge">
<title>Node1&#45;&gt;Node7</title>
<path fill="none" stroke="midnightblue" d="M137.98,-50.9C154.11,-41 175.18,-28.07 188.9,-19.65"/>
<polygon fill="midnightblue" stroke="midnightblue" points="135.83,-48.11 129.14,-56.32 139.49,-54.08 135.83,-48.11"/>
</g>
<!-- Node2 -->
<g id="node2" class="node">
<title>Node2</title>
<g id="a_node2"><a xlink:href="classdrain_1_1ReferenceMap.html" target="_top" xlink:title=" ">
<polygon fill="white" stroke="black" points="71.5,-112.5 71.5,-131.5 158.5,-131.5 158.5,-112.5 71.5,-112.5"/>
<text text-anchor="middle" x="115" y="-119.5" font-family="Helvetica,sans-Serif" font-size="10.00">ReferenceMap</text>
</a>
</g>
</g>
<!-- Node2&#45;&gt;Node1 -->
<g id="edge1" class="edge">
<title>Node2&#45;&gt;Node1</title>
<path fill="none" stroke="darkgreen" d="M115,-101.8C115,-92.91 115,-82.78 115,-75.75"/>
<polygon fill="darkgreen" stroke="darkgreen" points="111.5,-102.08 115,-112.08 118.5,-102.08 111.5,-102.08"/>
</g>
<!-- Node3 -->
<g id="node3" class="node">
<title>Node3</title>
<g id="a_node3"><a xlink:href="classdrain_1_1SmartMap.html" target="_top" xlink:title=" ">
<polygon fill="white" stroke="black" points="43.5,-168.5 43.5,-187.5 186.5,-187.5 186.5,-168.5 43.5,-168.5"/>
<text text-anchor="middle" x="115" y="-175.5" font-family="Helvetica,sans-Serif" font-size="10.00">SmartMap&lt; Referencer &gt;</text>
</a>
</g>
</g>
<!-- Node3&#45;&gt;Node2 -->
<g id="edge2" class="edge">
<title>Node3&#45;&gt;Node2</title>
<path fill="none" stroke="midnightblue" d="M115,-157.8C115,-148.91 115,-138.78 115,-131.75"/>
<polygon fill="midnightblue" stroke="midnightblue" points="111.5,-158.08 115,-168.08 118.5,-158.08 111.5,-158.08"/>
</g>
<!-- Node4 -->
<g id="node4" class="node">
<title>Node4</title>
<g id="a_node4"><a xlink:title=" ">
<polygon fill="white" stroke="#bfbfbf" points="30.5,-224.5 30.5,-243.5 199.5,-243.5 199.5,-224.5 30.5,-224.5"/>
<text text-anchor="middle" x="115" y="-231.5" font-family="Helvetica,sans-Serif" font-size="10.00">map&lt; std::string, Referencer &gt;</text>
</a>
</g>
</g>
<!-- Node4&#45;&gt;Node3 -->
<g id="edge3" class="edge">
<title>Node4&#45;&gt;Node3</title>
<path fill="none" stroke="midnightblue" d="M115,-213.8C115,-204.91 115,-194.78 115,-187.75"/>
<polygon fill="midnightblue" stroke="midnightblue" points="111.5,-214.08 115,-224.08 118.5,-214.08 111.5,-214.08"/>
</g>
</g>
</svg>
