<?xml version="1.0" encoding="UTF-8" standalone="no"?>
<!DOCTYPE svg PUBLIC "-//W3C//DTD SVG 1.1//EN"
 "http://www.w3.org/Graphics/SVG/1.1/DTD/svg11.dtd">
<!-- Generated by graphviz version 2.43.0 (0)
 -->
<!-- Title: SegmentAreaOp&lt; S, D, T &gt; Pages: 1 -->
<svg width="158pt" height="252pt"
 viewBox="0.00 0.00 158.00 252.00" xmlns="http://www.w3.org/2000/svg" xmlns:xlink="http://www.w3.org/1999/xlink">
<g id="graph0" class="graph" transform="scale(1 1) rotate(0) translate(4 248)">
<title>SegmentAreaOp&lt; S, D, T &gt;</title>
<polygon fill="white" stroke="transparent" points="-4,4 -4,-248 154,-248 154,4 -4,4"/>
<!-- Node1 -->
<g id="node1" class="node">
<title>Node1</title>
<g id="a_node1"><a xlink:title="Computes sizes of connected pixel areas.">
<polygon fill="#bfbfbf" stroke="black" points="0,-0.5 0,-19.5 150,-19.5 150,-0.5 0,-0.5"/>
<text text-anchor="middle" x="75" y="-7.5" font-family="Helvetica,sans-Serif" font-size="10.00">SegmentAreaOp&lt; S, D, T &gt;</text>
</a>
</g>
</g>
<!-- Node2 -->
<g id="node2" class="node">
<title>Node2</title>
<g id="a_node2"><a xlink:href="classdrain_1_1image_1_1SegmentOp.html" target="_top" xlink:title="A base class for computing statistics of segments. As segment is an area of connected pixels.">
<polygon fill="white" stroke="black" points="38,-56.5 38,-75.5 112,-75.5 112,-56.5 38,-56.5"/>
<text text-anchor="middle" x="75" y="-63.5" font-family="Helvetica,sans-Serif" font-size="10.00">SegmentOp</text>
</a>
</g>
</g>
<!-- Node2&#45;&gt;Node1 -->
<g id="edge1" class="edge">
<title>Node2&#45;&gt;Node1</title>
<path fill="none" stroke="midnightblue" d="M75,-45.8C75,-36.91 75,-26.78 75,-19.75"/>
<polygon fill="midnightblue" stroke="midnightblue" points="71.5,-46.08 75,-56.08 78.5,-46.08 71.5,-46.08"/>
</g>
<!-- Node3 -->
<g id="node3" class="node">
<title>Node3</title>
<g id="a_node3"><a xlink:href="classdrain_1_1image_1_1ImageOp.html" target="_top" xlink:title="Base class for image processing functions.">
<polygon fill="white" stroke="black" points="44.5,-112.5 44.5,-131.5 105.5,-131.5 105.5,-112.5 44.5,-112.5"/>
<text text-anchor="middle" x="75" y="-119.5" font-family="Helvetica,sans-Serif" font-size="10.00">ImageOp</text>
</a>
</g>
</g>
<!-- Node3&#45;&gt;Node2 -->
<g id="edge2" class="edge">
<title>Node3&#45;&gt;Node2</title>
<path fill="none" stroke="midnightblue" d="M75,-101.8C75,-92.91 75,-82.78 75,-75.75"/>
<polygon fill="midnightblue" stroke="midnightblue" points="71.5,-102.08 75,-112.08 78.5,-102.08 71.5,-102.08"/>
</g>
<!-- Node4 -->
<g id="node4" class="node">
<title>Node4</title>
<g id="a_node4"><a xlink:href="classdrain_1_1image_1_1ImageMod.html" target="_top" xlink:title="Class for operations that modify an existing image instead of producing a new image.">
<polygon fill="white" stroke="black" points="41,-168.5 41,-187.5 109,-187.5 109,-168.5 41,-168.5"/>
<text text-anchor="middle" x="75" y="-175.5" font-family="Helvetica,sans-Serif" font-size="10.00">ImageMod</text>
</a>
</g>
</g>
<!-- Node4&#45;&gt;Node3 -->
<g id="edge3" class="edge">
<title>Node4&#45;&gt;Node3</title>
<path fill="none" stroke="midnightblue" d="M75,-157.8C75,-148.91 75,-138.78 75,-131.75"/>
<polygon fill="midnightblue" stroke="midnightblue" points="71.5,-158.08 75,-168.08 78.5,-158.08 71.5,-158.08"/>
</g>
<!-- Node5 -->
<g id="node5" class="node">
<title>Node5</title>
<g id="a_node5"><a xlink:href="classdrain_1_1BeanLike.html" target="_top" xlink:title="Something which has a name, a description and possibly some parameters of varying type.">
<polygon fill="white" stroke="black" points="44.5,-224.5 44.5,-243.5 105.5,-243.5 105.5,-224.5 44.5,-224.5"/>
<text text-anchor="middle" x="75" y="-231.5" font-family="Helvetica,sans-Serif" font-size="10.00">BeanLike</text>
</a>
</g>
</g>
<!-- Node5&#45;&gt;Node4 -->
<g id="edge4" class="edge">
<title>Node5&#45;&gt;Node4</title>
<path fill="none" stroke="midnightblue" d="M75,-213.8C75,-204.91 75,-194.78 75,-187.75"/>
<polygon fill="midnightblue" stroke="midnightblue" points="71.5,-214.08 75,-224.08 78.5,-214.08 71.5,-214.08"/>
</g>
</g>
</svg>
