<?xml version="1.0" encoding="UTF-8" standalone="no"?>
<!DOCTYPE svg PUBLIC "-//W3C//DTD SVG 1.1//EN"
 "http://www.w3.org/Graphics/SVG/1.1/DTD/svg11.dtd">
<!-- Generated by graphviz version 2.43.0 (0)
 -->
<!-- Title: HighPassOp Pages: 1 -->
<svg width="83pt" height="196pt"
 viewBox="0.00 0.00 83.00 196.00" xmlns="http://www.w3.org/2000/svg" xmlns:xlink="http://www.w3.org/1999/xlink">
<g id="graph0" class="graph" transform="scale(1 1) rotate(0) translate(4 192)">
<title>HighPassOp</title>
<polygon fill="white" stroke="transparent" points="-4,4 -4,-192 79,-192 79,4 -4,4"/>
<!-- Node1 -->
<g id="node1" class="node">
<title>Node1</title>
<g id="a_node1"><a xlink:title="Finds details at one&#45;pixel scale, defined as difference of image and its low&#45;pass filtered copy.">
<polygon fill="#bfbfbf" stroke="black" points="0,-0.5 0,-19.5 75,-19.5 75,-0.5 0,-0.5"/>
<text text-anchor="middle" x="37.5" y="-7.5" font-family="Helvetica,sans-Serif" font-size="10.00">HighPassOp</text>
</a>
</g>
</g>
<!-- Node2 -->
<g id="node2" class="node">
<title>Node2</title>
<g id="a_node2"><a xlink:href="classdrain_1_1image_1_1ImageOp.html" target="_top" xlink:title="Base class for image processing functions.">
<polygon fill="white" stroke="black" points="7,-56.5 7,-75.5 68,-75.5 68,-56.5 7,-56.5"/>
<text text-anchor="middle" x="37.5" y="-63.5" font-family="Helvetica,sans-Serif" font-size="10.00">ImageOp</text>
</a>
</g>
</g>
<!-- Node2&#45;&gt;Node1 -->
<g id="edge1" class="edge">
<title>Node2&#45;&gt;Node1</title>
<path fill="none" stroke="midnightblue" d="M37.5,-45.8C37.5,-36.91 37.5,-26.78 37.5,-19.75"/>
<polygon fill="midnightblue" stroke="midnightblue" points="34,-46.08 37.5,-56.08 41,-46.08 34,-46.08"/>
</g>
<!-- Node3 -->
<g id="node3" class="node">
<title>Node3</title>
<g id="a_node3"><a xlink:href="classdrain_1_1image_1_1ImageMod.html" target="_top" xlink:title="Class for operations that modify an existing image instead of producing a new image.">
<polygon fill="white" stroke="black" points="3.5,-112.5 3.5,-131.5 71.5,-131.5 71.5,-112.5 3.5,-112.5"/>
<text text-anchor="middle" x="37.5" y="-119.5" font-family="Helvetica,sans-Serif" font-size="10.00">ImageMod</text>
</a>
</g>
</g>
<!-- Node3&#45;&gt;Node2 -->
<g id="edge2" class="edge">
<title>Node3&#45;&gt;Node2</title>
<path fill="none" stroke="midnightblue" d="M37.5,-101.8C37.5,-92.91 37.5,-82.78 37.5,-75.75"/>
<polygon fill="midnightblue" stroke="midnightblue" points="34,-102.08 37.5,-112.08 41,-102.08 34,-102.08"/>
</g>
<!-- Node4 -->
<g id="node4" class="node">
<title>Node4</title>
<g id="a_node4"><a xlink:href="classdrain_1_1BeanLike.html" target="_top" xlink:title="Something which has a name, a description and possibly some parameters of varying type.">
<polygon fill="white" stroke="black" points="7,-168.5 7,-187.5 68,-187.5 68,-168.5 7,-168.5"/>
<text text-anchor="middle" x="37.5" y="-175.5" font-family="Helvetica,sans-Serif" font-size="10.00">BeanLike</text>
</a>
</g>
</g>
<!-- Node4&#45;&gt;Node3 -->
<g id="edge3" class="edge">
<title>Node4&#45;&gt;Node3</title>
<path fill="none" stroke="midnightblue" d="M37.5,-157.8C37.5,-148.91 37.5,-138.78 37.5,-131.75"/>
<polygon fill="midnightblue" stroke="midnightblue" points="34,-158.08 37.5,-168.08 41,-158.08 34,-158.08"/>
</g>
</g>
</svg>
