<?xml version="1.0" encoding="UTF-8" standalone="no"?>
<!DOCTYPE svg PUBLIC "-//W3C//DTD SVG 1.1//EN"
 "http://www.w3.org/Graphics/SVG/1.1/DTD/svg11.dtd">
<!-- Generated by graphviz version 2.43.0 (0)
 -->
<!-- Title: ProductCommand&lt; OP &gt; Pages: 1 -->
<svg width="294pt" height="515pt"
 viewBox="0.00 0.00 294.00 515.00" xmlns="http://www.w3.org/2000/svg" xmlns:xlink="http://www.w3.org/1999/xlink">
<g id="graph0" class="graph" transform="scale(1 1) rotate(0) translate(4 511)">
<title>ProductCommand&lt; OP &gt;</title>
<polygon fill="white" stroke="transparent" points="-4,4 -4,-511 290,-511 290,4 -4,4"/>
<!-- Node1 -->
<g id="node1" class="node">
<title>Node1</title>
<g id="a_node1"><a xlink:title="Wrapper for meteorological products derived from VolumeOp.">
<polygon fill="#bfbfbf" stroke="black" points="86,-0.5 86,-19.5 226,-19.5 226,-0.5 86,-0.5"/>
<text text-anchor="middle" x="156" y="-7.5" font-family="Helvetica,sans-Serif" font-size="10.00">ProductCommand&lt; OP &gt;</text>
</a>
</g>
</g>
<!-- Node2 -->
<g id="node2" class="node">
<title>Node2</title>
<g id="a_node2"><a xlink:href="classdrain_1_1BeanCommand.html" target="_top" xlink:title=" ">
<polygon fill="white" stroke="black" points="92,-57.5 92,-76.5 220,-76.5 220,-57.5 92,-57.5"/>
<text text-anchor="middle" x="156" y="-64.5" font-family="Helvetica,sans-Serif" font-size="10.00">BeanCommand&lt; OP &gt;</text>
</a>
</g>
</g>
<!-- Node2&#45;&gt;Node1 -->
<g id="edge1" class="edge">
<title>Node2&#45;&gt;Node1</title>
<path fill="none" stroke="midnightblue" d="M156,-47.12C156,-37.82 156,-27.06 156,-19.71"/>
<polygon fill="midnightblue" stroke="midnightblue" points="152.5,-47.41 156,-57.41 159.5,-47.41 152.5,-47.41"/>
</g>
<!-- Node3 -->
<g id="node3" class="node">
<title>Node3</title>
<g id="a_node3"><a xlink:href="classdrain_1_1Command.html" target="_top" xlink:title="Base class for commands: typically actions taking parameters but also plain variable assignments and ...">
<polygon fill="white" stroke="black" points="122.5,-114.5 122.5,-133.5 189.5,-133.5 189.5,-114.5 122.5,-114.5"/>
<text text-anchor="middle" x="156" y="-121.5" font-family="Helvetica,sans-Serif" font-size="10.00">Command</text>
</a>
</g>
</g>
<!-- Node3&#45;&gt;Node2 -->
<g id="edge2" class="edge">
<title>Node3&#45;&gt;Node2</title>
<path fill="none" stroke="midnightblue" d="M156,-104.12C156,-94.82 156,-84.06 156,-76.71"/>
<polygon fill="midnightblue" stroke="midnightblue" points="152.5,-104.41 156,-114.41 159.5,-104.41 152.5,-104.41"/>
</g>
<!-- Node4 -->
<g id="node4" class="node">
<title>Node4</title>
<g id="a_node4"><a xlink:href="classdrain_1_1Contextual.html" target="_top" xlink:title=" ">
<polygon fill="white" stroke="black" points="121,-171.5 121,-190.5 191,-190.5 191,-171.5 121,-171.5"/>
<text text-anchor="middle" x="156" y="-178.5" font-family="Helvetica,sans-Serif" font-size="10.00">Contextual</text>
</a>
</g>
</g>
<!-- Node4&#45;&gt;Node3 -->
<g id="edge3" class="edge">
<title>Node4&#45;&gt;Node3</title>
<path fill="none" stroke="midnightblue" d="M156,-161.12C156,-151.82 156,-141.06 156,-133.71"/>
<polygon fill="midnightblue" stroke="midnightblue" points="152.5,-161.41 156,-171.41 159.5,-161.41 152.5,-161.41"/>
</g>
<!-- Node5 -->
<g id="node5" class="node">
<title>Node5</title>
<g id="a_node5"><a xlink:href="classdrain_1_1Context.html" target="_top" xlink:title=" ">
<polygon fill="white" stroke="black" points="128.5,-238.5 128.5,-257.5 183.5,-257.5 183.5,-238.5 128.5,-238.5"/>
<text text-anchor="middle" x="156" y="-245.5" font-family="Helvetica,sans-Serif" font-size="10.00">Context</text>
</a>
</g>
</g>
<!-- Node5&#45;&gt;Node4 -->
<g id="edge4" class="edge">
<title>Node5&#45;&gt;Node4</title>
<path fill="none" stroke="#9a32cd" stroke-dasharray="5,2" d="M156,-228.04C156,-215.67 156,-200.12 156,-190.63"/>
<polygon fill="#9a32cd" stroke="#9a32cd" points="152.5,-228.23 156,-238.23 159.5,-228.23 152.5,-228.23"/>
<text text-anchor="middle" x="183" y="-212" font-family="Helvetica,sans-Serif" font-size="10.00"> contextPtr</text>
</g>
<!-- Node6 -->
<g id="node6" class="node">
<title>Node6</title>
<g id="a_node6"><a xlink:href="classdrain_1_1VariableMap.html" target="_top" xlink:title="A map of Variables.">
<polygon fill="white" stroke="black" points="39,-305.5 39,-324.5 117,-324.5 117,-305.5 39,-305.5"/>
<text text-anchor="middle" x="78" y="-312.5" font-family="Helvetica,sans-Serif" font-size="10.00">VariableMap</text>
</a>
</g>
</g>
<!-- Node6&#45;&gt;Node5 -->
<g id="edge5" class="edge">
<title>Node6&#45;&gt;Node5</title>
<path fill="none" stroke="#9a32cd" stroke-dasharray="5,2" d="M84.01,-296.04C87.03,-289.09 91.3,-281.51 97,-276 105.75,-267.55 117.62,-261.42 128.42,-257.16"/>
<polygon fill="#9a32cd" stroke="#9a32cd" points="80.71,-294.84 80.43,-305.44 87.26,-297.33 80.71,-294.84"/>
<text text-anchor="middle" x="124.5" y="-279" font-family="Helvetica,sans-Serif" font-size="10.00"> statusMap</text>
</g>
<!-- Node7 -->
<g id="node7" class="node">
<title>Node7</title>
<g id="a_node7"><a xlink:href="classdrain_1_1SmartMap.html" target="_top" xlink:title=" ">
<polygon fill="white" stroke="black" points="13,-368 13,-387 143,-387 143,-368 13,-368"/>
<text text-anchor="middle" x="78" y="-375" font-family="Helvetica,sans-Serif" font-size="10.00">SmartMap&lt; Variable &gt;</text>
</a>
</g>
</g>
<!-- Node7&#45;&gt;Node6 -->
<g id="edge6" class="edge">
<title>Node7&#45;&gt;Node6</title>
<path fill="none" stroke="midnightblue" d="M78,-357.5C78,-346.5 78,-333.18 78,-324.65"/>
<polygon fill="midnightblue" stroke="midnightblue" points="74.5,-357.83 78,-367.83 81.5,-357.83 74.5,-357.83"/>
</g>
<!-- Node8 -->
<g id="node8" class="node">
<title>Node8</title>
<g id="a_node8"><a xlink:title=" ">
<polygon fill="white" stroke="#bfbfbf" points="0,-430.5 0,-449.5 156,-449.5 156,-430.5 0,-430.5"/>
<text text-anchor="middle" x="78" y="-437.5" font-family="Helvetica,sans-Serif" font-size="10.00">map&lt; std::string, Variable &gt;</text>
</a>
</g>
</g>
<!-- Node8&#45;&gt;Node7 -->
<g id="edge7" class="edge">
<title>Node8&#45;&gt;Node7</title>
<path fill="none" stroke="midnightblue" d="M78,-420C78,-409 78,-395.68 78,-387.15"/>
<polygon fill="midnightblue" stroke="midnightblue" points="74.5,-420.33 78,-430.33 81.5,-420.33 74.5,-420.33"/>
</g>
<!-- Node9 -->
<g id="node9" class="node">
<title>Node9</title>
<g id="a_node9"><a xlink:href="classdrain_1_1Log.html" target="_top" xlink:title="Handler for notifications sent by a Logger.">
<polygon fill="white" stroke="black" points="139,-305.5 139,-324.5 173,-324.5 173,-305.5 139,-305.5"/>
<text text-anchor="middle" x="156" y="-312.5" font-family="Helvetica,sans-Serif" font-size="10.00">Log</text>
</a>
</g>
</g>
<!-- Node9&#45;&gt;Node5 -->
<g id="edge8" class="edge">
<title>Node9&#45;&gt;Node5</title>
<path fill="none" stroke="#9a32cd" stroke-dasharray="5,2" d="M156,-295.04C156,-282.67 156,-267.12 156,-257.63"/>
<polygon fill="#9a32cd" stroke="#9a32cd" points="152.5,-295.23 156,-305.23 159.5,-295.23 152.5,-295.23"/>
<text text-anchor="middle" x="165.5" y="-279" font-family="Helvetica,sans-Serif" font-size="10.00"> log</text>
</g>
<!-- Node10 -->
<g id="node10" class="node">
<title>Node10</title>
<g id="a_node10"><a xlink:href="classdrain_1_1StatusFlags.html" target="_top" xlink:title=" ">
<polygon fill="white" stroke="black" points="191,-305.5 191,-324.5 265,-324.5 265,-305.5 191,-305.5"/>
<text text-anchor="middle" x="228" y="-312.5" font-family="Helvetica,sans-Serif" font-size="10.00">StatusFlags</text>
</a>
</g>
</g>
<!-- Node10&#45;&gt;Node5 -->
<g id="edge9" class="edge">
<title>Node10&#45;&gt;Node5</title>
<path fill="none" stroke="#9a32cd" stroke-dasharray="5,2" d="M210.67,-298.36C196.52,-285.58 177.04,-267.99 165.56,-257.63"/>
<polygon fill="#9a32cd" stroke="#9a32cd" points="208.52,-301.13 218.29,-305.23 213.21,-295.93 208.52,-301.13"/>
<text text-anchor="middle" x="226" y="-279" font-family="Helvetica,sans-Serif" font-size="10.00"> statusFlags</text>
</g>
<!-- Node11 -->
<g id="node11" class="node">
<title>Node11</title>
<g id="a_node11"><a xlink:href="classdrain_1_1GlobalFlags.html" target="_top" xlink:title=" ">
<polygon fill="white" stroke="black" points="170,-362.5 170,-392.5 286,-392.5 286,-362.5 170,-362.5"/>
<text text-anchor="start" x="178" y="-380.5" font-family="Helvetica,sans-Serif" font-size="10.00">GlobalFlags&lt; status</text>
<text text-anchor="middle" x="228" y="-369.5" font-family="Helvetica,sans-Serif" font-size="10.00">_flag_id &gt;</text>
</a>
</g>
</g>
<!-- Node11&#45;&gt;Node10 -->
<g id="edge10" class="edge">
<title>Node11&#45;&gt;Node10</title>
<path fill="none" stroke="midnightblue" d="M228,-352.35C228,-342.51 228,-331.78 228,-324.54"/>
<polygon fill="midnightblue" stroke="midnightblue" points="224.5,-352.47 228,-362.47 231.5,-352.47 224.5,-352.47"/>
</g>
<!-- Node12 -->
<g id="node12" class="node">
<title>Node12</title>
<g id="a_node12"><a xlink:href="classdrain_1_1Flagger.html" target="_top" xlink:title="Bit vector accessible also with integer values associated with strings.">
<polygon fill="white" stroke="black" points="201.5,-430.5 201.5,-449.5 254.5,-449.5 254.5,-430.5 201.5,-430.5"/>
<text text-anchor="middle" x="228" y="-437.5" font-family="Helvetica,sans-Serif" font-size="10.00">Flagger</text>
</a>
</g>
</g>
<!-- Node12&#45;&gt;Node11 -->
<g id="edge11" class="edge">
<title>Node12&#45;&gt;Node11</title>
<path fill="none" stroke="midnightblue" d="M228,-420.22C228,-411.36 228,-400.96 228,-392.76"/>
<polygon fill="midnightblue" stroke="midnightblue" points="224.5,-420.33 228,-430.33 231.5,-420.33 224.5,-420.33"/>
</g>
<!-- Node13 -->
<g id="node13" class="node">
<title>Node13</title>
<g id="a_node13"><a xlink:href="classdrain_1_1FlagResolver.html" target="_top" xlink:title="Referencing a dictionary of binary values: {&quot;A&quot;,1: &quot;B&quot;:2, &quot;C&quot;: 4, &quot;D&quot;: 8, ...} resolves two&#45;way mappi...">
<polygon fill="white" stroke="black" points="188,-487.5 188,-506.5 268,-506.5 268,-487.5 188,-487.5"/>
<text text-anchor="middle" x="228" y="-494.5" font-family="Helvetica,sans-Serif" font-size="10.00">FlagResolver</text>
</a>
</g>
</g>
<!-- Node13&#45;&gt;Node12 -->
<g id="edge12" class="edge">
<title>Node13&#45;&gt;Node12</title>
<path fill="none" stroke="midnightblue" d="M228,-477.12C228,-467.82 228,-457.06 228,-449.71"/>
<polygon fill="midnightblue" stroke="midnightblue" points="224.5,-477.41 228,-487.41 231.5,-477.41 224.5,-477.41"/>
</g>
</g>
</svg>
