<?xml version="1.0" encoding="UTF-8" standalone="no"?>
<!DOCTYPE svg PUBLIC "-//W3C//DTD SVG 1.1//EN"
 "http://www.w3.org/Graphics/SVG/1.1/DTD/svg11.dtd">
<!-- Generated by graphviz version 2.43.0 (0)
 -->
<!-- Title: WindowConfig Pages: 1 -->
<svg width="275pt" height="209pt"
 viewBox="0.00 0.00 275.00 209.00" xmlns="http://www.w3.org/2000/svg" xmlns:xlink="http://www.w3.org/1999/xlink">
<g id="graph0" class="graph" transform="scale(1 1) rotate(0) translate(4 205)">
<title>WindowConfig</title>
<polygon fill="white" stroke="transparent" points="-4,4 -4,-205 271,-205 271,4 -4,4"/>
<!-- Node1 -->
<g id="node1" class="node">
<title>Node1</title>
<g id="a_node1"><a xlink:title="Base class for configurations applied in image processing windows, e.g. for operators of type WindowO...">
<polygon fill="#bfbfbf" stroke="black" points="103.5,-0.5 103.5,-19.5 190.5,-19.5 190.5,-0.5 103.5,-0.5"/>
<text text-anchor="middle" x="147" y="-7.5" font-family="Helvetica,sans-Serif" font-size="10.00">WindowConfig</text>
</a>
</g>
</g>
<!-- Node2 -->
<g id="node2" class="node">
<title>Node2</title>
<g id="a_node2"><a xlink:href="classdrain_1_1VariableMap.html" target="_top" xlink:title="A map of Variables.">
<polygon fill="white" stroke="black" points="41,-67.5 41,-86.5 119,-86.5 119,-67.5 41,-67.5"/>
<text text-anchor="middle" x="80" y="-74.5" font-family="Helvetica,sans-Serif" font-size="10.00">VariableMap</text>
</a>
</g>
</g>
<!-- Node2&#45;&gt;Node1 -->
<g id="edge1" class="edge">
<title>Node2&#45;&gt;Node1</title>
<path fill="none" stroke="#9a32cd" stroke-dasharray="5,2" d="M81.14,-56.96C82.35,-50.37 84.66,-43.32 89,-38 95.88,-29.56 105.99,-23.63 115.85,-19.52"/>
<polygon fill="#9a32cd" stroke="#9a32cd" points="77.62,-56.88 79.97,-67.21 84.58,-57.67 77.62,-56.88"/>
<text text-anchor="middle" x="136" y="-41" font-family="Helvetica,sans-Serif" font-size="10.00"> functorParameters</text>
</g>
<!-- Node3 -->
<g id="node3" class="node">
<title>Node3</title>
<g id="a_node3"><a xlink:href="classdrain_1_1SmartMap.html" target="_top" xlink:title=" ">
<polygon fill="white" stroke="black" points="13,-124.5 13,-143.5 143,-143.5 143,-124.5 13,-124.5"/>
<text text-anchor="middle" x="78" y="-131.5" font-family="Helvetica,sans-Serif" font-size="10.00">SmartMap&lt; Variable &gt;</text>
</a>
</g>
</g>
<!-- Node3&#45;&gt;Node2 -->
<g id="edge2" class="edge">
<title>Node3&#45;&gt;Node2</title>
<path fill="none" stroke="midnightblue" d="M78.69,-114.12C79.02,-104.82 79.42,-94.06 79.68,-86.71"/>
<polygon fill="midnightblue" stroke="midnightblue" points="75.18,-114.29 78.31,-124.41 82.17,-114.54 75.18,-114.29"/>
</g>
<!-- Node4 -->
<g id="node4" class="node">
<title>Node4</title>
<g id="a_node4"><a xlink:title=" ">
<polygon fill="white" stroke="#bfbfbf" points="0,-181.5 0,-200.5 156,-200.5 156,-181.5 0,-181.5"/>
<text text-anchor="middle" x="78" y="-188.5" font-family="Helvetica,sans-Serif" font-size="10.00">map&lt; std::string, Variable &gt;</text>
</a>
</g>
</g>
<!-- Node4&#45;&gt;Node3 -->
<g id="edge3" class="edge">
<title>Node4&#45;&gt;Node3</title>
<path fill="none" stroke="midnightblue" d="M78,-171.12C78,-161.82 78,-151.06 78,-143.71"/>
<polygon fill="midnightblue" stroke="midnightblue" points="74.5,-171.41 78,-181.41 81.5,-171.41 74.5,-171.41"/>
</g>
<!-- Node5 -->
<g id="node5" class="node">
<title>Node5</title>
<g id="a_node5"><a xlink:href="classdrain_1_1Frame2D.html" target="_top" xlink:title=" ">
<polygon fill="white" stroke="black" points="165,-67.5 165,-86.5 261,-86.5 261,-67.5 165,-67.5"/>
<text text-anchor="middle" x="213" y="-74.5" font-family="Helvetica,sans-Serif" font-size="10.00">Frame2D&lt; int &gt;</text>
</a>
</g>
</g>
<!-- Node5&#45;&gt;Node1 -->
<g id="edge4" class="edge">
<title>Node5&#45;&gt;Node1</title>
<path fill="none" stroke="#9a32cd" stroke-dasharray="5,2" d="M203.19,-58.8C198.77,-51.89 193.16,-44.12 187,-38 179.75,-30.79 170.33,-24.33 162.45,-19.53"/>
<polygon fill="#9a32cd" stroke="#9a32cd" points="200.26,-60.72 208.43,-67.47 206.25,-57.1 200.26,-60.72"/>
<text text-anchor="middle" x="212.5" y="-41" font-family="Helvetica,sans-Serif" font-size="10.00"> frame</text>
</g>
<!-- Node6 -->
<g id="node6" class="node">
<title>Node6</title>
<g id="a_node6"><a xlink:href="classdrain_1_1UniTuple.html" target="_top" xlink:title=" ">
<polygon fill="white" stroke="black" points="161,-124.5 161,-143.5 267,-143.5 267,-124.5 161,-124.5"/>
<text text-anchor="middle" x="214" y="-131.5" font-family="Helvetica,sans-Serif" font-size="10.00">UniTuple&lt; int, 2 &gt;</text>
</a>
</g>
</g>
<!-- Node6&#45;&gt;Node5 -->
<g id="edge5" class="edge">
<title>Node6&#45;&gt;Node5</title>
<path fill="none" stroke="midnightblue" d="M213.66,-114.12C213.49,-104.82 213.29,-94.06 213.16,-86.71"/>
<polygon fill="midnightblue" stroke="midnightblue" points="210.16,-114.47 213.84,-124.41 217.16,-114.34 210.16,-114.47"/>
</g>
</g>
</svg>
