<?xml version="1.0" encoding="UTF-8" standalone="no"?>
<!DOCTYPE svg PUBLIC "-//W3C//DTD SVG 1.1//EN"
 "http://www.w3.org/Graphics/SVG/1.1/DTD/svg11.dtd">
<!-- Generated by graphviz version 2.43.0 (0)
 -->
<!-- Title: ODIM Pages: 1 -->
<svg width="553pt" height="317pt"
 viewBox="0.00 0.00 552.50 317.00" xmlns="http://www.w3.org/2000/svg" xmlns:xlink="http://www.w3.org/1999/xlink">
<g id="graph0" class="graph" transform="scale(1 1) rotate(0) translate(4 313)">
<title>ODIM</title>
<polygon fill="white" stroke="transparent" points="-4,4 -4,-313 548.5,-313 548.5,4 -4,4"/>
<!-- Node1 -->
<g id="node1" class="node">
<title>Node1</title>
<g id="a_node1"><a xlink:title="ODIM metadata (quantity, gain, offset, undetect, nodata, date, time)">
<polygon fill="#bfbfbf" stroke="black" points="372.5,-0.5 372.5,-19.5 416.5,-19.5 416.5,-0.5 372.5,-0.5"/>
<text text-anchor="middle" x="394.5" y="-7.5" font-family="Helvetica,sans-Serif" font-size="10.00">ODIM</text>
</a>
</g>
</g>
<!-- Node2 -->
<g id="node2" class="node">
<title>Node2</title>
<g id="a_node2"><a xlink:href="classrack_1_1EncodingODIM.html" target="_top" xlink:title="Structure for data storage type, scaling and marker codes. Does not contain quantity.">
<polygon fill="white" stroke="black" points="239.5,-67.5 239.5,-86.5 327.5,-86.5 327.5,-67.5 239.5,-67.5"/>
<text text-anchor="middle" x="283.5" y="-74.5" font-family="Helvetica,sans-Serif" font-size="10.00">EncodingODIM</text>
</a>
</g>
</g>
<!-- Node2&#45;&gt;Node1 -->
<g id="edge1" class="edge">
<title>Node2&#45;&gt;Node1</title>
<path fill="none" stroke="midnightblue" d="M307.21,-62.12C329.2,-49.24 361.24,-30.48 379.77,-19.63"/>
<polygon fill="midnightblue" stroke="midnightblue" points="305.33,-59.16 298.47,-67.23 308.87,-65.2 305.33,-59.16"/>
</g>
<!-- Node3 -->
<g id="node3" class="node">
<title>Node3</title>
<g id="a_node3"><a xlink:href="classdrain_1_1ReferenceMap.html" target="_top" xlink:title=" ">
<polygon fill="white" stroke="black" points="102,-156.5 102,-175.5 189,-175.5 189,-156.5 102,-156.5"/>
<text text-anchor="middle" x="145.5" y="-163.5" font-family="Helvetica,sans-Serif" font-size="10.00">ReferenceMap</text>
</a>
</g>
</g>
<!-- Node3&#45;&gt;Node2 -->
<g id="edge2" class="edge">
<title>Node3&#45;&gt;Node2</title>
<path fill="none" stroke="midnightblue" d="M167.54,-151.11C196.31,-132.96 245.83,-101.75 269.76,-86.66"/>
<polygon fill="midnightblue" stroke="midnightblue" points="165.58,-148.21 158.98,-156.5 169.31,-154.13 165.58,-148.21"/>
</g>
<!-- Node4 -->
<g id="node4" class="node">
<title>Node4</title>
<g id="a_node4"><a xlink:href="classdrain_1_1SmartMap.html" target="_top" xlink:title=" ">
<polygon fill="white" stroke="black" points="13,-232.5 13,-251.5 156,-251.5 156,-232.5 13,-232.5"/>
<text text-anchor="middle" x="84.5" y="-239.5" font-family="Helvetica,sans-Serif" font-size="10.00">SmartMap&lt; Referencer &gt;</text>
</a>
</g>
</g>
<!-- Node4&#45;&gt;Node3 -->
<g id="edge3" class="edge">
<title>Node4&#45;&gt;Node3</title>
<path fill="none" stroke="midnightblue" d="M98.33,-224.22C110.74,-209.17 128.46,-187.67 138.27,-175.77"/>
<polygon fill="midnightblue" stroke="midnightblue" points="95.4,-222.28 91.74,-232.22 100.8,-226.73 95.4,-222.28"/>
</g>
<!-- Node5 -->
<g id="node5" class="node">
<title>Node5</title>
<g id="a_node5"><a xlink:title=" ">
<polygon fill="white" stroke="#bfbfbf" points="0,-289.5 0,-308.5 169,-308.5 169,-289.5 0,-289.5"/>
<text text-anchor="middle" x="84.5" y="-296.5" font-family="Helvetica,sans-Serif" font-size="10.00">map&lt; std::string, Referencer &gt;</text>
</a>
</g>
</g>
<!-- Node5&#45;&gt;Node4 -->
<g id="edge4" class="edge">
<title>Node5&#45;&gt;Node4</title>
<path fill="none" stroke="midnightblue" d="M84.5,-279.12C84.5,-269.82 84.5,-259.06 84.5,-251.71"/>
<polygon fill="midnightblue" stroke="midnightblue" points="81,-279.41 84.5,-289.41 88,-279.41 81,-279.41"/>
</g>
<!-- Node6 -->
<g id="node6" class="node">
<title>Node6</title>
<g id="a_node6"><a xlink:href="classdrain_1_1ValueScaling.html" target="_top" xlink:title="Linear scaling and physical range for image intensities.">
<polygon fill="white" stroke="black" points="243.5,-156.5 243.5,-175.5 323.5,-175.5 323.5,-156.5 243.5,-156.5"/>
<text text-anchor="middle" x="283.5" y="-163.5" font-family="Helvetica,sans-Serif" font-size="10.00">ValueScaling</text>
</a>
</g>
</g>
<!-- Node6&#45;&gt;Node2 -->
<g id="edge5" class="edge">
<title>Node6&#45;&gt;Node2</title>
<path fill="none" stroke="#9a32cd" stroke-dasharray="5,2" d="M283.5,-146.19C283.5,-127.74 283.5,-100.41 283.5,-86.62"/>
<polygon fill="#9a32cd" stroke="#9a32cd" points="280,-146.34 283.5,-156.34 287,-146.34 280,-146.34"/>
<text text-anchor="middle" x="316.5" y="-130" font-family="Helvetica,sans-Serif" font-size="10.00"> scalingConst</text>
<text text-anchor="middle" x="316.5" y="-119" font-family="Helvetica,sans-Serif" font-size="10.00">scaling</text>
<text text-anchor="middle" x="316.5" y="-108" font-family="Helvetica,sans-Serif" font-size="10.00">ownScaling</text>
</g>
<!-- Node7 -->
<g id="node7" class="node">
<title>Node7</title>
<g id="a_node7"><a xlink:href="classdrain_1_1UniTuple.html" target="_top" xlink:title=" ">
<polygon fill="white" stroke="black" points="174.5,-232.5 174.5,-251.5 300.5,-251.5 300.5,-232.5 174.5,-232.5"/>
<text text-anchor="middle" x="237.5" y="-239.5" font-family="Helvetica,sans-Serif" font-size="10.00">UniTuple&lt; double, 4 &gt;</text>
</a>
</g>
</g>
<!-- Node7&#45;&gt;Node6 -->
<g id="edge6" class="edge">
<title>Node7&#45;&gt;Node6</title>
<path fill="none" stroke="midnightblue" d="M248.46,-223.37C257.78,-208.37 270.79,-187.44 278.05,-175.77"/>
<polygon fill="midnightblue" stroke="midnightblue" points="245.26,-221.88 242.96,-232.22 251.21,-225.58 245.26,-221.88"/>
</g>
<!-- Node8 -->
<g id="node8" class="node">
<title>Node8</title>
<g id="a_node8"><a xlink:href="classdrain_1_1Range.html" target="_top" xlink:title=" ">
<polygon fill="white" stroke="black" points="319,-232.5 319,-251.5 422,-251.5 422,-232.5 319,-232.5"/>
<text text-anchor="middle" x="370.5" y="-239.5" font-family="Helvetica,sans-Serif" font-size="10.00">Range&lt; double &gt;</text>
</a>
</g>
</g>
<!-- Node8&#45;&gt;Node6 -->
<g id="edge7" class="edge">
<title>Node8&#45;&gt;Node6</title>
<path fill="none" stroke="#9a32cd" stroke-dasharray="5,2" d="M334.87,-228.39C326.96,-224.55 319,-219.78 312.5,-214 300.32,-203.17 291.53,-186 287,-175.68"/>
<polygon fill="#9a32cd" stroke="#9a32cd" points="333.48,-231.61 344.04,-232.47 336.33,-225.21 333.48,-231.61"/>
<text text-anchor="middle" x="341.5" y="-201.5" font-family="Helvetica,sans-Serif" font-size="10.00"> physRange</text>
</g>
<!-- Node9 -->
<g id="node9" class="node">
<title>Node9</title>
<g id="a_node9"><a xlink:href="classdrain_1_1UniTuple.html" target="_top" xlink:title=" ">
<polygon fill="white" stroke="black" points="361.5,-289.5 361.5,-308.5 487.5,-308.5 487.5,-289.5 361.5,-289.5"/>
<text text-anchor="middle" x="424.5" y="-296.5" font-family="Helvetica,sans-Serif" font-size="10.00">UniTuple&lt; double, 2 &gt;</text>
</a>
</g>
</g>
<!-- Node9&#45;&gt;Node8 -->
<g id="edge8" class="edge">
<title>Node9&#45;&gt;Node8</title>
<path fill="none" stroke="midnightblue" d="M408.91,-282.12C399.19,-272.22 387.06,-259.86 379.06,-251.71"/>
<polygon fill="midnightblue" stroke="midnightblue" points="406.56,-284.72 416.06,-289.41 411.55,-279.82 406.56,-284.72"/>
</g>
<!-- Node10 -->
<g id="node10" class="node">
<title>Node10</title>
<g id="a_node10"><a xlink:href="structdrain_1_1Point2D.html" target="_top" xlink:title=" ">
<polygon fill="white" stroke="black" points="379.5,-194.5 379.5,-213.5 489.5,-213.5 489.5,-194.5 379.5,-194.5"/>
<text text-anchor="middle" x="434.5" y="-201.5" font-family="Helvetica,sans-Serif" font-size="10.00">Point2D&lt; double &gt;</text>
</a>
</g>
</g>
<!-- Node9&#45;&gt;Node10 -->
<g id="edge10" class="edge">
<title>Node9&#45;&gt;Node10</title>
<path fill="none" stroke="midnightblue" d="M427.16,-279.08C428.28,-270.78 429.54,-260.92 430.5,-252 431.94,-238.65 433.18,-223.11 433.88,-213.67"/>
<polygon fill="midnightblue" stroke="midnightblue" points="423.67,-278.81 425.77,-289.2 430.6,-279.77 423.67,-278.81"/>
</g>
<!-- Node10&#45;&gt;Node1 -->
<g id="edge9" class="edge">
<title>Node10&#45;&gt;Node1</title>
<path fill="none" stroke="#9a32cd" stroke-dasharray="5,2" d="M419.4,-186.44C417.09,-183.17 414.98,-179.62 413.5,-176 390.6,-119.94 392.48,-44.82 393.9,-19.64"/>
<polygon fill="#9a32cd" stroke="#9a32cd" points="416.74,-188.7 425.73,-194.3 422.19,-184.32 416.74,-188.7"/>
<text text-anchor="middle" x="428.5" y="-119" font-family="Helvetica,sans-Serif" font-size="10.00"> resolution</text>
</g>
<!-- Node11 -->
<g id="node11" class="node">
<title>Node11</title>
<g id="a_node11"><a xlink:href="classdrain_1_1Frame2D.html" target="_top" xlink:title=" ">
<polygon fill="white" stroke="black" points="424.5,-67.5 424.5,-86.5 536.5,-86.5 536.5,-67.5 424.5,-67.5"/>
<text text-anchor="middle" x="480.5" y="-74.5" font-family="Helvetica,sans-Serif" font-size="10.00">Frame2D&lt; size_t &gt;</text>
</a>
</g>
</g>
<!-- Node11&#45;&gt;Node1 -->
<g id="edge11" class="edge">
<title>Node11&#45;&gt;Node1</title>
<path fill="none" stroke="#9a32cd" stroke-dasharray="5,2" d="M460.74,-61.07C443.77,-48.24 419.88,-30.19 405.91,-19.63"/>
<polygon fill="#9a32cd" stroke="#9a32cd" points="458.81,-64 468.9,-67.23 463.03,-58.41 458.81,-64"/>
<text text-anchor="middle" x="456" y="-41" font-family="Helvetica,sans-Serif" font-size="10.00"> area</text>
</g>
<!-- Node12 -->
<g id="node12" class="node">
<title>Node12</title>
<g id="a_node12"><a xlink:href="classdrain_1_1UniTuple.html" target="_top" xlink:title=" ">
<polygon fill="white" stroke="black" points="422.5,-156.5 422.5,-175.5 544.5,-175.5 544.5,-156.5 422.5,-156.5"/>
<text text-anchor="middle" x="483.5" y="-163.5" font-family="Helvetica,sans-Serif" font-size="10.00">UniTuple&lt; size_t, 2 &gt;</text>
</a>
</g>
</g>
<!-- Node12&#45;&gt;Node11 -->
<g id="edge12" class="edge">
<title>Node12&#45;&gt;Node11</title>
<path fill="none" stroke="midnightblue" d="M482.85,-146.19C482.22,-127.74 481.27,-100.41 480.8,-86.62"/>
<polygon fill="midnightblue" stroke="midnightblue" points="479.36,-146.47 483.2,-156.34 486.35,-146.23 479.36,-146.47"/>
</g>
</g>
</svg>
