<?xml version="1.0" encoding="UTF-8" standalone="no"?>
<!DOCTYPE svg PUBLIC "-//W3C//DTD SVG 1.1//EN"
 "http://www.w3.org/Graphics/SVG/1.1/DTD/svg11.dtd">
<!-- Generated by graphviz version 2.43.0 (0)
 -->
<!-- Title: DistanceModel Pages: 1 -->
<svg width="273pt" height="309pt"
 viewBox="0.00 0.00 273.00 309.00" xmlns="http://www.w3.org/2000/svg" xmlns:xlink="http://www.w3.org/1999/xlink">
<g id="graph0" class="graph" transform="scale(1 1) rotate(0) translate(4 305)">
<title>DistanceModel</title>
<polygon fill="white" stroke="transparent" points="-4,4 -4,-305 269,-305 269,4 -4,4"/>
<!-- Node1 -->
<g id="node1" class="node">
<title>Node1</title>
<g id="a_node1"><a xlink:title="Base class for linear and exponential distances in rectangular pixel images.">
<polygon fill="#bfbfbf" stroke="black" points="101,-0.5 101,-19.5 190,-19.5 190,-0.5 101,-0.5"/>
<text text-anchor="middle" x="145.5" y="-7.5" font-family="Helvetica,sans-Serif" font-size="10.00">DistanceModel</text>
</a>
</g>
</g>
<!-- Node2 -->
<g id="node2" class="node">
<title>Node2</title>
<g id="a_node2"><a xlink:href="classdrain_1_1BeanLike.html" target="_top" xlink:title="Something which has a name, a description and possibly some parameters of varying type.">
<polygon fill="white" stroke="black" points="61,-100.5 61,-119.5 122,-119.5 122,-100.5 61,-100.5"/>
<text text-anchor="middle" x="91.5" y="-107.5" font-family="Helvetica,sans-Serif" font-size="10.00">BeanLike</text>
</a>
</g>
</g>
<!-- Node2&#45;&gt;Node1 -->
<g id="edge1" class="edge">
<title>Node2&#45;&gt;Node1</title>
<path fill="none" stroke="midnightblue" d="M101.21,-91.38C112.88,-70.2 132,-35.51 140.8,-19.54"/>
<polygon fill="midnightblue" stroke="midnightblue" points="98.05,-89.86 96.29,-100.3 104.18,-93.23 98.05,-89.86"/>
</g>
<!-- Node3 -->
<g id="node3" class="node">
<title>Node3</title>
<g id="a_node3"><a xlink:href="classdrain_1_1ReferenceMap.html" target="_top" xlink:title=" ">
<polygon fill="white" stroke="black" points="41,-167.5 41,-186.5 128,-186.5 128,-167.5 41,-167.5"/>
<text text-anchor="middle" x="84.5" y="-174.5" font-family="Helvetica,sans-Serif" font-size="10.00">ReferenceMap</text>
</a>
</g>
</g>
<!-- Node3&#45;&gt;Node2 -->
<g id="edge2" class="edge">
<title>Node3&#45;&gt;Node2</title>
<path fill="none" stroke="#9a32cd" stroke-dasharray="5,2" d="M86.54,-157.04C87.87,-144.67 89.55,-129.12 90.57,-119.63"/>
<polygon fill="#9a32cd" stroke="#9a32cd" points="83.03,-156.92 85.44,-167.23 89.99,-157.67 83.03,-156.92"/>
<text text-anchor="middle" x="118.5" y="-141" font-family="Helvetica,sans-Serif" font-size="10.00"> parameters</text>
</g>
<!-- Node4 -->
<g id="node4" class="node">
<title>Node4</title>
<g id="a_node4"><a xlink:href="classdrain_1_1SmartMap.html" target="_top" xlink:title=" ">
<polygon fill="white" stroke="black" points="13,-224.5 13,-243.5 156,-243.5 156,-224.5 13,-224.5"/>
<text text-anchor="middle" x="84.5" y="-231.5" font-family="Helvetica,sans-Serif" font-size="10.00">SmartMap&lt; Referencer &gt;</text>
</a>
</g>
</g>
<!-- Node4&#45;&gt;Node3 -->
<g id="edge3" class="edge">
<title>Node4&#45;&gt;Node3</title>
<path fill="none" stroke="midnightblue" d="M84.5,-214.12C84.5,-204.82 84.5,-194.06 84.5,-186.71"/>
<polygon fill="midnightblue" stroke="midnightblue" points="81,-214.41 84.5,-224.41 88,-214.41 81,-214.41"/>
</g>
<!-- Node5 -->
<g id="node5" class="node">
<title>Node5</title>
<g id="a_node5"><a xlink:title=" ">
<polygon fill="white" stroke="#bfbfbf" points="0,-281.5 0,-300.5 169,-300.5 169,-281.5 0,-281.5"/>
<text text-anchor="middle" x="84.5" y="-288.5" font-family="Helvetica,sans-Serif" font-size="10.00">map&lt; std::string, Referencer &gt;</text>
</a>
</g>
</g>
<!-- Node5&#45;&gt;Node4 -->
<g id="edge4" class="edge">
<title>Node5&#45;&gt;Node4</title>
<path fill="none" stroke="midnightblue" d="M84.5,-271.12C84.5,-261.82 84.5,-251.06 84.5,-243.71"/>
<polygon fill="midnightblue" stroke="midnightblue" points="81,-271.41 84.5,-281.41 88,-271.41 81,-271.41"/>
</g>
<!-- Node6 -->
<g id="node6" class="node">
<title>Node6</title>
<g id="a_node6"><a xlink:href="classdrain_1_1Bidirectional.html" target="_top" xlink:title=" ">
<polygon fill="white" stroke="black" points="142,-100.5 142,-119.5 265,-119.5 265,-100.5 142,-100.5"/>
<text text-anchor="middle" x="203.5" y="-107.5" font-family="Helvetica,sans-Serif" font-size="10.00">Bidirectional&lt; float &gt;</text>
</a>
</g>
</g>
<!-- Node6&#45;&gt;Node1 -->
<g id="edge5" class="edge">
<title>Node6&#45;&gt;Node1</title>
<path fill="none" stroke="#9a32cd" stroke-dasharray="5,2" d="M193.24,-91.67C180.72,-70.52 160.05,-35.58 150.55,-19.54"/>
<polygon fill="#9a32cd" stroke="#9a32cd" points="190.25,-93.48 198.35,-100.3 196.27,-89.91 190.25,-93.48"/>
<text text-anchor="middle" x="214" y="-74" font-family="Helvetica,sans-Serif" font-size="10.00"> vertDec</text>
<text text-anchor="middle" x="214" y="-63" font-family="Helvetica,sans-Serif" font-size="10.00">horzDec</text>
<text text-anchor="middle" x="214" y="-52" font-family="Helvetica,sans-Serif" font-size="10.00">vertRadius</text>
<text text-anchor="middle" x="214" y="-41" font-family="Helvetica,sans-Serif" font-size="10.00">horzRadius</text>
</g>
<!-- Node7 -->
<g id="node7" class="node">
<title>Node7</title>
<g id="a_node7"><a xlink:href="classdrain_1_1UniTuple.html" target="_top" xlink:title=" ">
<polygon fill="white" stroke="black" points="146.5,-167.5 146.5,-186.5 262.5,-186.5 262.5,-167.5 146.5,-167.5"/>
<text text-anchor="middle" x="204.5" y="-174.5" font-family="Helvetica,sans-Serif" font-size="10.00">UniTuple&lt; float, 2 &gt;</text>
</a>
</g>
</g>
<!-- Node7&#45;&gt;Node6 -->
<g id="edge6" class="edge">
<title>Node7&#45;&gt;Node6</title>
<path fill="none" stroke="midnightblue" d="M204.21,-157.04C204.02,-144.67 203.78,-129.12 203.63,-119.63"/>
<polygon fill="midnightblue" stroke="midnightblue" points="200.71,-157.29 204.37,-167.23 207.71,-157.18 200.71,-157.29"/>
</g>
</g>
</svg>
