<?xml version="1.0" encoding="UTF-8" standalone="no"?>
<!DOCTYPE svg PUBLIC "-//W3C//DTD SVG 1.1//EN"
 "http://www.w3.org/Graphics/SVG/1.1/DTD/svg11.dtd">
<!-- Generated by graphviz version 2.43.0 (0)
 -->
<!-- Title: RainRateDPOp Pages: 1 -->
<svg width="912pt" height="132pt"
 viewBox="0.00 0.00 912.00 132.00" xmlns="http://www.w3.org/2000/svg" xmlns:xlink="http://www.w3.org/1999/xlink">
<g id="graph0" class="graph" transform="scale(1 1) rotate(0) translate(4 128)">
<title>RainRateDPOp</title>
<polygon fill="white" stroke="transparent" points="-4,4 -4,-128 908,-128 908,4 -4,4"/>
<!-- Node1 -->
<g id="node1" class="node">
<title>Node1</title>
<g id="a_node1"><a xlink:title="Uses DBZ, ZDR and KDP to derive rain rate. Under construction.">
<polygon fill="#bfbfbf" stroke="black" points="816,-33 816,-52 904,-52 904,-33 816,-33"/>
<text text-anchor="middle" x="860" y="-40" font-family="Helvetica,sans-Serif" font-size="10.00">RainRateDPOp</text>
</a>
</g>
</g>
<!-- Node2 -->
<g id="node2" class="node">
<title>Node2</title>
<g id="a_node2"><a xlink:href="classrack_1_1PolarProductOp.html" target="_top" xlink:title="Base class for flat (2D) products computed in the polar coordinate system. Volume is used as input.">
<polygon fill="white" stroke="black" points="630.5,-57 630.5,-76 722.5,-76 722.5,-57 630.5,-57"/>
<text text-anchor="middle" x="676.5" y="-64" font-family="Helvetica,sans-Serif" font-size="10.00">PolarProductOp</text>
</a>
</g>
</g>
<!-- Node2&#45;&gt;Node1 -->
<g id="edge1" class="edge">
<title>Node2&#45;&gt;Node1</title>
<path fill="none" stroke="midnightblue" d="M732.88,-60.62C753.37,-58.29 776.77,-55.47 798,-52.5 803.74,-51.7 809.77,-50.79 815.72,-49.85"/>
<polygon fill="midnightblue" stroke="midnightblue" points="732.32,-57.16 722.77,-61.75 733.1,-64.11 732.32,-57.16"/>
</g>
<!-- Node3 -->
<g id="node3" class="node">
<title>Node3</title>
<g id="a_node3"><a xlink:href="classrack_1_1VolumeOp.html" target="_top" xlink:title=" ">
<polygon fill="white" stroke="black" points="361,-94 361,-113 503,-113 503,-94 361,-94"/>
<text text-anchor="middle" x="432" y="-101" font-family="Helvetica,sans-Serif" font-size="10.00">VolumeOp&lt; PolarODIM &gt;</text>
</a>
</g>
</g>
<!-- Node3&#45;&gt;Node2 -->
<g id="edge2" class="edge">
<title>Node3&#45;&gt;Node2</title>
<path fill="none" stroke="midnightblue" d="M513.18,-92.51C542.7,-88.32 576.4,-83.38 607,-78.5 614.51,-77.3 622.47,-75.97 630.21,-74.64"/>
<polygon fill="midnightblue" stroke="midnightblue" points="512.34,-89.09 502.92,-93.95 513.31,-96.02 512.34,-89.09"/>
</g>
<!-- Node4 -->
<g id="node4" class="node">
<title>Node4</title>
<g id="a_node4"><a xlink:href="classdrain_1_1image_1_1ProductOp.html" target="_top" xlink:title=" ">
<polygon fill="white" stroke="black" points="141,-93.5 141,-123.5 303,-123.5 303,-93.5 141,-93.5"/>
<text text-anchor="start" x="149" y="-111.5" font-family="Helvetica,sans-Serif" font-size="10.00">ProductOp&lt; const PolarODIM,</text>
<text text-anchor="middle" x="222" y="-100.5" font-family="Helvetica,sans-Serif" font-size="10.00"> PolarODIM &gt;</text>
</a>
</g>
</g>
<!-- Node4&#45;&gt;Node3 -->
<g id="edge3" class="edge">
<title>Node4&#45;&gt;Node3</title>
<path fill="none" stroke="midnightblue" d="M313.45,-106.33C329.3,-105.94 345.57,-105.55 360.76,-105.19"/>
<polygon fill="midnightblue" stroke="midnightblue" points="313.03,-102.83 303.12,-106.57 313.2,-109.83 313.03,-102.83"/>
</g>
<!-- Node5 -->
<g id="node5" class="node">
<title>Node5</title>
<g id="a_node5"><a xlink:href="classdrain_1_1image_1_1CoordinatePolicy.html" target="_top" xlink:title="Policies for coordinate underflows and overflows.">
<polygon fill="white" stroke="black" points="382.5,-50 382.5,-69 481.5,-69 481.5,-50 382.5,-50"/>
<text text-anchor="middle" x="432" y="-57" font-family="Helvetica,sans-Serif" font-size="10.00">CoordinatePolicy</text>
</a>
</g>
</g>
<!-- Node5&#45;&gt;Node2 -->
<g id="edge4" class="edge">
<title>Node5&#45;&gt;Node2</title>
<path fill="none" stroke="#9a32cd" stroke-dasharray="5,2" d="M492.03,-61.2C534.69,-62.44 591.45,-64.07 630.48,-65.2"/>
<polygon fill="#9a32cd" stroke="#9a32cd" points="491.88,-57.7 481.78,-60.91 491.68,-64.7 491.88,-57.7"/>
<text text-anchor="middle" x="564" y="-66.5" font-family="Helvetica,sans-Serif" font-size="10.00"> polarCoordPolicy</text>
</g>
<!-- Node6 -->
<g id="node6" class="node">
<title>Node6</title>
<g id="a_node6"><a xlink:href="classdrain_1_1UniTuple.html" target="_top" xlink:title=" ">
<polygon fill="white" stroke="black" points="163.5,-44.5 163.5,-74.5 280.5,-74.5 280.5,-44.5 163.5,-44.5"/>
<text text-anchor="start" x="171.5" y="-62.5" font-family="Helvetica,sans-Serif" font-size="10.00">UniTuple&lt; coord_pol</text>
<text text-anchor="middle" x="222" y="-51.5" font-family="Helvetica,sans-Serif" font-size="10.00">_t, 4 &gt;</text>
</a>
</g>
</g>
<!-- Node6&#45;&gt;Node5 -->
<g id="edge5" class="edge">
<title>Node6&#45;&gt;Node5</title>
<path fill="none" stroke="midnightblue" d="M291.01,-59.5C320.84,-59.5 355.18,-59.5 382.38,-59.5"/>
<polygon fill="midnightblue" stroke="midnightblue" points="290.66,-56 280.66,-59.5 290.66,-63 290.66,-56"/>
</g>
<!-- Node7 -->
<g id="node7" class="node">
<title>Node7</title>
<g id="a_node7"><a xlink:href="classdrain_1_1Dictionary2.html" target="_top" xlink:title="Two&#45;way mapping between strings and objects of template class T.">
<polygon fill="white" stroke="black" points="164.5,-6 164.5,-25 279.5,-25 279.5,-6 164.5,-6"/>
<text text-anchor="middle" x="222" y="-13" font-family="Helvetica,sans-Serif" font-size="10.00">Dictionary2&lt; K, V &gt;</text>
</a>
</g>
</g>
<!-- Node7&#45;&gt;Node5 -->
<g id="edge6" class="edge">
<title>Node7&#45;&gt;Node5</title>
<path fill="none" stroke="#9a32cd" stroke-dasharray="5,2" d="M278.27,-27.19C311.92,-34.31 354.36,-43.29 385.96,-49.97"/>
<polygon fill="#9a32cd" stroke="#9a32cd" points="278.64,-23.69 268.13,-25.05 277.19,-30.54 278.64,-23.69"/>
<text text-anchor="middle" x="332" y="-42.5" font-family="Helvetica,sans-Serif" font-size="10.00"> dict</text>
</g>
<!-- Node8 -->
<g id="node8" class="node">
<title>Node8</title>
<g id="a_node8"><a xlink:title=" ">
<polygon fill="white" stroke="#bfbfbf" points="0,-0.5 0,-30.5 104,-30.5 104,-0.5 0,-0.5"/>
<text text-anchor="start" x="8" y="-18.5" font-family="Helvetica,sans-Serif" font-size="10.00">list&lt; std::pair&lt; K,</text>
<text text-anchor="middle" x="52" y="-7.5" font-family="Helvetica,sans-Serif" font-size="10.00"> V &gt; &gt;</text>
</a>
</g>
</g>
<!-- Node8&#45;&gt;Node7 -->
<g id="edge7" class="edge">
<title>Node8&#45;&gt;Node7</title>
<path fill="none" stroke="midnightblue" d="M114.33,-15.5C130.71,-15.5 148.33,-15.5 164.43,-15.5"/>
<polygon fill="midnightblue" stroke="midnightblue" points="114.32,-12 104.32,-15.5 114.32,-19 114.32,-12"/>
</g>
<!-- Node9 -->
<g id="node9" class="node">
<title>Node9</title>
<g id="a_node9"><a xlink:href="classdrain_1_1Range.html" target="_top" xlink:title=" ">
<polygon fill="white" stroke="black" points="625,-9 625,-28 728,-28 728,-9 625,-9"/>
<text text-anchor="middle" x="676.5" y="-16" font-family="Helvetica,sans-Serif" font-size="10.00">Range&lt; double &gt;</text>
</a>
</g>
</g>
<!-- Node9&#45;&gt;Node1 -->
<g id="edge8" class="edge">
<title>Node9&#45;&gt;Node1</title>
<path fill="none" stroke="#9a32cd" stroke-dasharray="5,2" d="M738.28,-11.52C757.55,-10.76 778.82,-11.45 798,-15.5 813.86,-18.85 830.62,-26.61 842.55,-32.96"/>
<polygon fill="#9a32cd" stroke="#9a32cd" points="737.91,-8.03 728.1,-12.06 738.28,-15.02 737.91,-8.03"/>
<text text-anchor="middle" x="772" y="-40.5" font-family="Helvetica,sans-Serif" font-size="10.00"> kdpRange</text>
<text text-anchor="middle" x="772" y="-29.5" font-family="Helvetica,sans-Serif" font-size="10.00">zdrRange</text>
<text text-anchor="middle" x="772" y="-18.5" font-family="Helvetica,sans-Serif" font-size="10.00">dbzRange</text>
</g>
<!-- Node10 -->
<g id="node10" class="node">
<title>Node10</title>
<g id="a_node10"><a xlink:href="classdrain_1_1UniTuple.html" target="_top" xlink:title=" ">
<polygon fill="white" stroke="black" points="369,-9 369,-28 495,-28 495,-9 369,-9"/>
<text text-anchor="middle" x="432" y="-16" font-family="Helvetica,sans-Serif" font-size="10.00">UniTuple&lt; double, 2 &gt;</text>
</a>
</g>
</g>
<!-- Node10&#45;&gt;Node9 -->
<g id="edge9" class="edge">
<title>Node10&#45;&gt;Node9</title>
<path fill="none" stroke="midnightblue" d="M505.26,-18.5C543.81,-18.5 590.3,-18.5 624.95,-18.5"/>
<polygon fill="midnightblue" stroke="midnightblue" points="505.13,-15 495.13,-18.5 505.13,-22 505.13,-15"/>
</g>
</g>
</svg>
