<?xml version="1.0" encoding="UTF-8" standalone="no"?>
<!DOCTYPE svg PUBLIC "-//W3C//DTD SVG 1.1//EN"
 "http://www.w3.org/Graphics/SVG/1.1/DTD/svg11.dtd">
<!-- Generated by graphviz version 2.43.0 (0)
 -->
<!-- Title: CartesianSpread Pages: 1 -->
<svg width="105pt" height="196pt"
 viewBox="0.00 0.00 105.00 196.00" xmlns="http://www.w3.org/2000/svg" xmlns:xlink="http://www.w3.org/1999/xlink">
<g id="graph0" class="graph" transform="scale(1 1) rotate(0) translate(4 192)">
<title>CartesianSpread</title>
<polygon fill="white" stroke="transparent" points="-4,4 -4,-192 101,-192 101,4 -4,4"/>
<!-- Node1 -->
<g id="node1" class="node">
<title>Node1</title>
<g id="a_node1"><a xlink:title=" ">
<polygon fill="#bfbfbf" stroke="black" points="0,-0.5 0,-19.5 97,-19.5 97,-0.5 0,-0.5"/>
<text text-anchor="middle" x="48.5" y="-7.5" font-family="Helvetica,sans-Serif" font-size="10.00">CartesianSpread</text>
</a>
</g>
</g>
<!-- Node2 -->
<g id="node2" class="node">
<title>Node2</title>
<g id="a_node2"><a xlink:href="classdrain_1_1BasicCommand.html" target="_top" xlink:title="Simple implementation of Command: adds name , description and parameters .">
<polygon fill="white" stroke="black" points="2,-56.5 2,-75.5 95,-75.5 95,-56.5 2,-56.5"/>
<text text-anchor="middle" x="48.5" y="-63.5" font-family="Helvetica,sans-Serif" font-size="10.00">BasicCommand</text>
</a>
</g>
</g>
<!-- Node2&#45;&gt;Node1 -->
<g id="edge1" class="edge">
<title>Node2&#45;&gt;Node1</title>
<path fill="none" stroke="midnightblue" d="M48.5,-45.8C48.5,-36.91 48.5,-26.78 48.5,-19.75"/>
<polygon fill="midnightblue" stroke="midnightblue" points="45,-46.08 48.5,-56.08 52,-46.08 45,-46.08"/>
</g>
<!-- Node3 -->
<g id="node3" class="node">
<title>Node3</title>
<g id="a_node3"><a xlink:href="classdrain_1_1Command.html" target="_top" xlink:title="Base class for commands: typically actions taking parameters but also plain variable assignments and ...">
<polygon fill="white" stroke="black" points="15,-112.5 15,-131.5 82,-131.5 82,-112.5 15,-112.5"/>
<text text-anchor="middle" x="48.5" y="-119.5" font-family="Helvetica,sans-Serif" font-size="10.00">Command</text>
</a>
</g>
</g>
<!-- Node3&#45;&gt;Node2 -->
<g id="edge2" class="edge">
<title>Node3&#45;&gt;Node2</title>
<path fill="none" stroke="midnightblue" d="M48.5,-101.8C48.5,-92.91 48.5,-82.78 48.5,-75.75"/>
<polygon fill="midnightblue" stroke="midnightblue" points="45,-102.08 48.5,-112.08 52,-102.08 45,-102.08"/>
</g>
<!-- Node4 -->
<g id="node4" class="node">
<title>Node4</title>
<g id="a_node4"><a xlink:href="classdrain_1_1Contextual.html" target="_top" xlink:title=" ">
<polygon fill="white" stroke="black" points="13.5,-168.5 13.5,-187.5 83.5,-187.5 83.5,-168.5 13.5,-168.5"/>
<text text-anchor="middle" x="48.5" y="-175.5" font-family="Helvetica,sans-Serif" font-size="10.00">Contextual</text>
</a>
</g>
</g>
<!-- Node4&#45;&gt;Node3 -->
<g id="edge3" class="edge">
<title>Node4&#45;&gt;Node3</title>
<path fill="none" stroke="midnightblue" d="M48.5,-157.8C48.5,-148.91 48.5,-138.78 48.5,-131.75"/>
<polygon fill="midnightblue" stroke="midnightblue" points="45,-158.08 48.5,-168.08 52,-158.08 45,-158.08"/>
</g>
</g>
</svg>
