<?xml version="1.0" encoding="UTF-8" standalone="no"?>
<!DOCTYPE svg PUBLIC "-//W3C//DTD SVG 1.1//EN"
 "http://www.w3.org/Graphics/SVG/1.1/DTD/svg11.dtd">
<!-- Generated by graphviz version 2.43.0 (0)
 -->
<!-- Title: LaplaceOp Pages: 1 -->
<svg width="204pt" height="308pt"
 viewBox="0.00 0.00 204.00 308.00" xmlns="http://www.w3.org/2000/svg" xmlns:xlink="http://www.w3.org/1999/xlink">
<g id="graph0" class="graph" transform="scale(1 1) rotate(0) translate(4 304)">
<title>LaplaceOp</title>
<polygon fill="white" stroke="transparent" points="-4,4 -4,-304 200,-304 200,4 -4,4"/>
<!-- Node1 -->
<g id="node1" class="node">
<title>Node1</title>
<g id="a_node1"><a xlink:title="Computes second intensity derivatives.">
<polygon fill="#bfbfbf" stroke="black" points="64,-56.5 64,-75.5 132,-75.5 132,-56.5 64,-56.5"/>
<text text-anchor="middle" x="98" y="-63.5" font-family="Helvetica,sans-Serif" font-size="10.00">LaplaceOp</text>
</a>
</g>
</g>
<!-- Node6 -->
<g id="node6" class="node">
<title>Node6</title>
<g id="a_node6"><a xlink:href="classdrain_1_1image_1_1LaplaceHorzOp.html" target="_top" xlink:title="Computes second horizontal derivative, dx2.">
<polygon fill="white" stroke="black" points="0,-0.5 0,-19.5 90,-19.5 90,-0.5 0,-0.5"/>
<text text-anchor="middle" x="45" y="-7.5" font-family="Helvetica,sans-Serif" font-size="10.00">LaplaceHorzOp</text>
</a>
</g>
</g>
<!-- Node1&#45;&gt;Node6 -->
<g id="edge5" class="edge">
<title>Node1&#45;&gt;Node6</title>
<path fill="none" stroke="midnightblue" d="M82.02,-48.72C72.68,-39.2 61.25,-27.56 53.59,-19.75"/>
<polygon fill="midnightblue" stroke="midnightblue" points="79.75,-51.4 89.25,-56.08 84.74,-46.49 79.75,-51.4"/>
</g>
<!-- Node7 -->
<g id="node7" class="node">
<title>Node7</title>
<g id="a_node7"><a xlink:href="classdrain_1_1image_1_1LaplaceVertOp.html" target="_top" xlink:title="Computes second vertical derivative, dy2.">
<polygon fill="white" stroke="black" points="108,-0.5 108,-19.5 196,-19.5 196,-0.5 108,-0.5"/>
<text text-anchor="middle" x="152" y="-7.5" font-family="Helvetica,sans-Serif" font-size="10.00">LaplaceVertOp</text>
</a>
</g>
</g>
<!-- Node1&#45;&gt;Node7 -->
<g id="edge6" class="edge">
<title>Node1&#45;&gt;Node7</title>
<path fill="none" stroke="midnightblue" d="M114,-49C123.57,-39.43 135.36,-27.64 143.25,-19.75"/>
<polygon fill="midnightblue" stroke="midnightblue" points="111.51,-46.54 106.92,-56.08 116.46,-51.49 111.51,-46.54"/>
</g>
<!-- Node2 -->
<g id="node2" class="node">
<title>Node2</title>
<g id="a_node2"><a xlink:href="classdrain_1_1image_1_1DifferentialOp.html" target="_top" xlink:title="Virtual base class for horizontal and vertical intensity derivatives.">
<polygon fill="white" stroke="black" points="55,-112.5 55,-131.5 141,-131.5 141,-112.5 55,-112.5"/>
<text text-anchor="middle" x="98" y="-119.5" font-family="Helvetica,sans-Serif" font-size="10.00">DifferentialOp</text>
</a>
</g>
</g>
<!-- Node2&#45;&gt;Node1 -->
<g id="edge1" class="edge">
<title>Node2&#45;&gt;Node1</title>
<path fill="none" stroke="midnightblue" d="M98,-101.8C98,-92.91 98,-82.78 98,-75.75"/>
<polygon fill="midnightblue" stroke="midnightblue" points="94.5,-102.08 98,-112.08 101.5,-102.08 94.5,-102.08"/>
</g>
<!-- Node3 -->
<g id="node3" class="node">
<title>Node3</title>
<g id="a_node3"><a xlink:href="classdrain_1_1image_1_1ImageOp.html" target="_top" xlink:title="Base class for image processing functions.">
<polygon fill="white" stroke="black" points="67.5,-168.5 67.5,-187.5 128.5,-187.5 128.5,-168.5 67.5,-168.5"/>
<text text-anchor="middle" x="98" y="-175.5" font-family="Helvetica,sans-Serif" font-size="10.00">ImageOp</text>
</a>
</g>
</g>
<!-- Node3&#45;&gt;Node2 -->
<g id="edge2" class="edge">
<title>Node3&#45;&gt;Node2</title>
<path fill="none" stroke="midnightblue" d="M98,-157.8C98,-148.91 98,-138.78 98,-131.75"/>
<polygon fill="midnightblue" stroke="midnightblue" points="94.5,-158.08 98,-168.08 101.5,-158.08 94.5,-158.08"/>
</g>
<!-- Node4 -->
<g id="node4" class="node">
<title>Node4</title>
<g id="a_node4"><a xlink:href="classdrain_1_1image_1_1ImageMod.html" target="_top" xlink:title="Class for operations that modify an existing image instead of producing a new image.">
<polygon fill="white" stroke="black" points="64,-224.5 64,-243.5 132,-243.5 132,-224.5 64,-224.5"/>
<text text-anchor="middle" x="98" y="-231.5" font-family="Helvetica,sans-Serif" font-size="10.00">ImageMod</text>
</a>
</g>
</g>
<!-- Node4&#45;&gt;Node3 -->
<g id="edge3" class="edge">
<title>Node4&#45;&gt;Node3</title>
<path fill="none" stroke="midnightblue" d="M98,-213.8C98,-204.91 98,-194.78 98,-187.75"/>
<polygon fill="midnightblue" stroke="midnightblue" points="94.5,-214.08 98,-224.08 101.5,-214.08 94.5,-214.08"/>
</g>
<!-- Node5 -->
<g id="node5" class="node">
<title>Node5</title>
<g id="a_node5"><a xlink:href="classdrain_1_1BeanLike.html" target="_top" xlink:title="Something which has a name, a description and possibly some parameters of varying type.">
<polygon fill="white" stroke="black" points="67.5,-280.5 67.5,-299.5 128.5,-299.5 128.5,-280.5 67.5,-280.5"/>
<text text-anchor="middle" x="98" y="-287.5" font-family="Helvetica,sans-Serif" font-size="10.00">BeanLike</text>
</a>
</g>
</g>
<!-- Node5&#45;&gt;Node4 -->
<g id="edge4" class="edge">
<title>Node5&#45;&gt;Node4</title>
<path fill="none" stroke="midnightblue" d="M98,-269.8C98,-260.91 98,-250.78 98,-243.75"/>
<polygon fill="midnightblue" stroke="midnightblue" points="94.5,-270.08 98,-280.08 101.5,-270.08 94.5,-270.08"/>
</g>
</g>
</svg>
