<?xml version="1.0" encoding="UTF-8" standalone="no"?>
<!DOCTYPE svg PUBLIC "-//W3C//DTD SVG 1.1//EN"
 "http://www.w3.org/Graphics/SVG/1.1/DTD/svg11.dtd">
<!-- Generated by graphviz version 2.43.0 (0)
 -->
<!-- Title: RadarDataPicker&lt; OD &gt; Pages: 1 -->
<svg width="372pt" height="266pt"
 viewBox="0.00 0.00 372.00 266.00" xmlns="http://www.w3.org/2000/svg" xmlns:xlink="http://www.w3.org/1999/xlink">
<g id="graph0" class="graph" transform="scale(1 1) rotate(0) translate(4 262)">
<title>RadarDataPicker&lt; OD &gt;</title>
<polygon fill="white" stroke="transparent" points="-4,4 -4,-262 368,-262 368,4 -4,4"/>
<!-- Node1 -->
<g id="node1" class="node">
<title>Node1</title>
<g id="a_node1"><a xlink:title="Base class for utilities traversing radar data with Sampler.">
<polygon fill="#bfbfbf" stroke="black" points="119,-0.5 119,-19.5 254,-19.5 254,-0.5 119,-0.5"/>
<text text-anchor="middle" x="186.5" y="-7.5" font-family="Helvetica,sans-Serif" font-size="10.00">RadarDataPicker&lt; OD &gt;</text>
</a>
</g>
</g>
<!-- Node2 -->
<g id="node2" class="node">
<title>Node2</title>
<g id="a_node2"><a xlink:href="structdrain_1_1image_1_1SamplePicker.html" target="_top" xlink:title="Interprets data values for Sampler.">
<polygon fill="white" stroke="black" points="145,-57.5 145,-76.5 228,-76.5 228,-57.5 145,-57.5"/>
<text text-anchor="middle" x="186.5" y="-64.5" font-family="Helvetica,sans-Serif" font-size="10.00">SamplePicker</text>
</a>
</g>
</g>
<!-- Node2&#45;&gt;Node1 -->
<g id="edge1" class="edge">
<title>Node2&#45;&gt;Node1</title>
<path fill="none" stroke="midnightblue" d="M186.5,-47.12C186.5,-37.82 186.5,-27.06 186.5,-19.71"/>
<polygon fill="midnightblue" stroke="midnightblue" points="183,-47.41 186.5,-57.41 190,-47.41 183,-47.41"/>
</g>
<!-- Node3 -->
<g id="node3" class="node">
<title>Node3</title>
<g id="a_node3"><a xlink:href="classdrain_1_1ReferenceMap.html" target="_top" xlink:title=" ">
<polygon fill="white" stroke="black" points="88,-124.5 88,-143.5 175,-143.5 175,-124.5 88,-124.5"/>
<text text-anchor="middle" x="131.5" y="-131.5" font-family="Helvetica,sans-Serif" font-size="10.00">ReferenceMap</text>
</a>
</g>
</g>
<!-- Node3&#45;&gt;Node2 -->
<g id="edge2" class="edge">
<title>Node3&#45;&gt;Node2</title>
<path fill="none" stroke="#9a32cd" stroke-dasharray="5,2" d="M141.71,-115.46C145.94,-108.78 151.11,-101.28 156.5,-95 162.25,-88.3 169.61,-81.66 175.6,-76.64"/>
<polygon fill="#9a32cd" stroke="#9a32cd" points="138.48,-114.05 136.29,-124.41 144.47,-117.68 138.48,-114.05"/>
<text text-anchor="middle" x="188.5" y="-98" font-family="Helvetica,sans-Serif" font-size="10.00"> variableMap</text>
</g>
<!-- Node4 -->
<g id="node4" class="node">
<title>Node4</title>
<g id="a_node4"><a xlink:href="classdrain_1_1SmartMap.html" target="_top" xlink:title=" ">
<polygon fill="white" stroke="black" points="20,-181.5 20,-200.5 163,-200.5 163,-181.5 20,-181.5"/>
<text text-anchor="middle" x="91.5" y="-188.5" font-family="Helvetica,sans-Serif" font-size="10.00">SmartMap&lt; Referencer &gt;</text>
</a>
</g>
</g>
<!-- Node4&#45;&gt;Node3 -->
<g id="edge3" class="edge">
<title>Node4&#45;&gt;Node3</title>
<path fill="none" stroke="midnightblue" d="M103.69,-173.23C110.78,-163.49 119.41,-151.62 125.16,-143.71"/>
<polygon fill="midnightblue" stroke="midnightblue" points="100.8,-171.26 97.75,-181.41 106.46,-175.38 100.8,-171.26"/>
</g>
<!-- Node5 -->
<g id="node5" class="node">
<title>Node5</title>
<g id="a_node5"><a xlink:title=" ">
<polygon fill="white" stroke="#bfbfbf" points="0,-238.5 0,-257.5 169,-257.5 169,-238.5 0,-238.5"/>
<text text-anchor="middle" x="84.5" y="-245.5" font-family="Helvetica,sans-Serif" font-size="10.00">map&lt; std::string, Referencer &gt;</text>
</a>
</g>
</g>
<!-- Node5&#45;&gt;Node4 -->
<g id="edge4" class="edge">
<title>Node5&#45;&gt;Node4</title>
<path fill="none" stroke="midnightblue" d="M86.86,-228.42C88.06,-219.05 89.45,-208.14 90.39,-200.71"/>
<polygon fill="midnightblue" stroke="midnightblue" points="83.38,-228.04 85.59,-238.41 90.33,-228.93 83.38,-228.04"/>
</g>
<!-- Node6 -->
<g id="node6" class="node">
<title>Node6</title>
<g id="a_node6"><a xlink:href="classdrain_1_1FlexVariableMap.html" target="_top" xlink:title="A map of FlexVariable:s.">
<polygon fill="white" stroke="black" points="206,-124.5 206,-143.5 305,-143.5 305,-124.5 206,-124.5"/>
<text text-anchor="middle" x="255.5" y="-131.5" font-family="Helvetica,sans-Serif" font-size="10.00">FlexVariableMap</text>
</a>
</g>
</g>
<!-- Node6&#45;&gt;Node2 -->
<g id="edge5" class="edge">
<title>Node6&#45;&gt;Node2</title>
<path fill="none" stroke="#9a32cd" stroke-dasharray="5,2" d="M241.74,-116.97C235.49,-109.99 227.87,-101.85 220.5,-95 213.43,-88.43 204.93,-81.68 198.2,-76.57"/>
<polygon fill="#9a32cd" stroke="#9a32cd" points="239.12,-119.29 248.34,-124.5 244.38,-114.67 239.12,-119.29"/>
<text text-anchor="middle" x="254" y="-98" font-family="Helvetica,sans-Serif" font-size="10.00"> infoMap</text>
</g>
<!-- Node7 -->
<g id="node7" class="node">
<title>Node7</title>
<g id="a_node7"><a xlink:href="classdrain_1_1SmartMap.html" target="_top" xlink:title=" ">
<polygon fill="white" stroke="black" points="194,-181.5 194,-200.5 345,-200.5 345,-181.5 194,-181.5"/>
<text text-anchor="middle" x="269.5" y="-188.5" font-family="Helvetica,sans-Serif" font-size="10.00">SmartMap&lt; FlexVariable &gt;</text>
</a>
</g>
</g>
<!-- Node7&#45;&gt;Node6 -->
<g id="edge6" class="edge">
<title>Node7&#45;&gt;Node6</title>
<path fill="none" stroke="midnightblue" d="M264.77,-171.42C262.39,-162.05 259.61,-151.14 257.72,-143.71"/>
<polygon fill="midnightblue" stroke="midnightblue" points="261.45,-172.58 267.31,-181.41 268.24,-170.85 261.45,-172.58"/>
</g>
<!-- Node8 -->
<g id="node8" class="node">
<title>Node8</title>
<g id="a_node8"><a xlink:title=" ">
<polygon fill="white" stroke="#bfbfbf" points="187,-238.5 187,-257.5 364,-257.5 364,-238.5 187,-238.5"/>
<text text-anchor="middle" x="275.5" y="-245.5" font-family="Helvetica,sans-Serif" font-size="10.00">map&lt; std::string, FlexVariable &gt;</text>
</a>
</g>
</g>
<!-- Node8&#45;&gt;Node7 -->
<g id="edge7" class="edge">
<title>Node8&#45;&gt;Node7</title>
<path fill="none" stroke="midnightblue" d="M273.47,-228.42C272.45,-219.05 271.26,-208.14 270.45,-200.71"/>
<polygon fill="midnightblue" stroke="midnightblue" points="270,-228.84 274.56,-238.41 276.96,-228.09 270,-228.84"/>
</g>
</g>
</svg>
