<?xml version="1.0" encoding="UTF-8" standalone="no"?>
<!DOCTYPE svg PUBLIC "-//W3C//DTD SVG 1.1//EN"
 "http://www.w3.org/Graphics/SVG/1.1/DTD/svg11.dtd">
<!-- Generated by graphviz version 2.43.0 (0)
 -->
<!-- Title: LineOp Pages: 1 -->
<svg width="1167pt" height="132pt"
 viewBox="0.00 0.00 1167.00 132.00" xmlns="http://www.w3.org/2000/svg" xmlns:xlink="http://www.w3.org/1999/xlink">
<g id="graph0" class="graph" transform="scale(1 1) rotate(0) translate(4 128)">
<title>LineOp</title>
<polygon fill="white" stroke="transparent" points="-4,4 -4,-128 1163,-128 1163,4 -4,4"/>
<!-- Node1 -->
<g id="node1" class="node">
<title>Node1</title>
<g id="a_node1"><a xlink:title="Quick emitter detection based on subtracting a horizontal segment lengths by inversed vertical segmen...">
<polygon fill="#bfbfbf" stroke="black" points="1109,-69 1109,-88 1159,-88 1159,-69 1109,-69"/>
<text text-anchor="middle" x="1134" y="-76" font-family="Helvetica,sans-Serif" font-size="10.00">LineOp</text>
</a>
</g>
</g>
<!-- Node2 -->
<g id="node2" class="node">
<title>Node2</title>
<g id="a_node2"><a xlink:href="classrack_1_1DetectorOp.html" target="_top" xlink:title="Base class for anomaly detectors.">
<polygon fill="white" stroke="black" points="1000,-69 1000,-88 1072,-88 1072,-69 1000,-69"/>
<text text-anchor="middle" x="1036" y="-76" font-family="Helvetica,sans-Serif" font-size="10.00">DetectorOp</text>
</a>
</g>
</g>
<!-- Node2&#45;&gt;Node1 -->
<g id="edge1" class="edge">
<title>Node2&#45;&gt;Node1</title>
<path fill="none" stroke="midnightblue" d="M1082.41,-78.5C1091.55,-78.5 1100.83,-78.5 1108.9,-78.5"/>
<polygon fill="midnightblue" stroke="midnightblue" points="1082.2,-75 1072.2,-78.5 1082.2,-82 1082.2,-75"/>
</g>
<!-- Node3 -->
<g id="node3" class="node">
<title>Node3</title>
<g id="a_node3"><a xlink:href="classrack_1_1AndreOp.html" target="_top" xlink:title="The base class for removal operators.">
<polygon fill="white" stroke="black" points="904,-69 904,-88 963,-88 963,-69 904,-69"/>
<text text-anchor="middle" x="933.5" y="-76" font-family="Helvetica,sans-Serif" font-size="10.00">AndreOp</text>
</a>
</g>
</g>
<!-- Node3&#45;&gt;Node2 -->
<g id="edge2" class="edge">
<title>Node3&#45;&gt;Node2</title>
<path fill="none" stroke="midnightblue" d="M973.1,-78.5C981.94,-78.5 991.28,-78.5 999.96,-78.5"/>
<polygon fill="midnightblue" stroke="midnightblue" points="973.03,-75 963.03,-78.5 973.03,-82 973.03,-75"/>
</g>
<!-- Node4 -->
<g id="node4" class="node">
<title>Node4</title>
<g id="a_node4"><a xlink:href="classrack_1_1VolumeTraversalOp.html" target="_top" xlink:title="Base class for radar data processors.">
<polygon fill="white" stroke="black" points="754,-69 754,-88 867,-88 867,-69 754,-69"/>
<text text-anchor="middle" x="810.5" y="-76" font-family="Helvetica,sans-Serif" font-size="10.00">VolumeTraversalOp</text>
</a>
</g>
</g>
<!-- Node4&#45;&gt;Node3 -->
<g id="edge3" class="edge">
<title>Node4&#45;&gt;Node3</title>
<path fill="none" stroke="midnightblue" d="M877.16,-78.5C886.47,-78.5 895.61,-78.5 903.7,-78.5"/>
<polygon fill="midnightblue" stroke="midnightblue" points="877.04,-75 867.04,-78.5 877.04,-82 877.04,-75"/>
</g>
<!-- Node5 -->
<g id="node5" class="node">
<title>Node5</title>
<g id="a_node5"><a xlink:href="classrack_1_1PolarProductOp.html" target="_top" xlink:title="Base class for flat (2D) products computed in the polar coordinate system. Volume is used as input.">
<polygon fill="white" stroke="black" points="625,-69 625,-88 717,-88 717,-69 625,-69"/>
<text text-anchor="middle" x="671" y="-76" font-family="Helvetica,sans-Serif" font-size="10.00">PolarProductOp</text>
</a>
</g>
</g>
<!-- Node5&#45;&gt;Node4 -->
<g id="edge4" class="edge">
<title>Node5&#45;&gt;Node4</title>
<path fill="none" stroke="midnightblue" d="M727.15,-78.5C735.93,-78.5 745.01,-78.5 753.8,-78.5"/>
<polygon fill="midnightblue" stroke="midnightblue" points="727.02,-75 717.02,-78.5 727.02,-82 727.02,-75"/>
</g>
<!-- Node6 -->
<g id="node6" class="node">
<title>Node6</title>
<g id="a_node6"><a xlink:href="classrack_1_1VolumeOp.html" target="_top" xlink:title=" ">
<polygon fill="white" stroke="black" points="361,-93 361,-112 503,-112 503,-93 361,-93"/>
<text text-anchor="middle" x="432" y="-100" font-family="Helvetica,sans-Serif" font-size="10.00">VolumeOp&lt; PolarODIM &gt;</text>
</a>
</g>
</g>
<!-- Node6&#45;&gt;Node5 -->
<g id="edge5" class="edge">
<title>Node6&#45;&gt;Node5</title>
<path fill="none" stroke="midnightblue" d="M513.46,-94.35C550.59,-90.59 593.29,-86.27 624.71,-83.09"/>
<polygon fill="midnightblue" stroke="midnightblue" points="512.74,-90.91 503.15,-95.4 513.45,-97.87 512.74,-90.91"/>
</g>
<!-- Node7 -->
<g id="node7" class="node">
<title>Node7</title>
<g id="a_node7"><a xlink:href="classdrain_1_1image_1_1ProductOp.html" target="_top" xlink:title=" ">
<polygon fill="white" stroke="black" points="141,-93.5 141,-123.5 303,-123.5 303,-93.5 141,-93.5"/>
<text text-anchor="start" x="149" y="-111.5" font-family="Helvetica,sans-Serif" font-size="10.00">ProductOp&lt; const PolarODIM,</text>
<text text-anchor="middle" x="222" y="-100.5" font-family="Helvetica,sans-Serif" font-size="10.00"> PolarODIM &gt;</text>
</a>
</g>
</g>
<!-- Node7&#45;&gt;Node6 -->
<g id="edge6" class="edge">
<title>Node7&#45;&gt;Node6</title>
<path fill="none" stroke="midnightblue" d="M313.45,-105.89C329.3,-105.43 345.57,-104.96 360.76,-104.53"/>
<polygon fill="midnightblue" stroke="midnightblue" points="313.02,-102.4 303.12,-106.19 313.22,-109.4 313.02,-102.4"/>
</g>
<!-- Node8 -->
<g id="node8" class="node">
<title>Node8</title>
<g id="a_node8"><a xlink:href="classdrain_1_1image_1_1CoordinatePolicy.html" target="_top" xlink:title="Policies for coordinate underflows and overflows.">
<polygon fill="white" stroke="black" points="382.5,-50 382.5,-69 481.5,-69 481.5,-50 382.5,-50"/>
<text text-anchor="middle" x="432" y="-57" font-family="Helvetica,sans-Serif" font-size="10.00">CoordinatePolicy</text>
</a>
</g>
</g>
<!-- Node8&#45;&gt;Node5 -->
<g id="edge7" class="edge">
<title>Node8&#45;&gt;Node5</title>
<path fill="none" stroke="#9a32cd" stroke-dasharray="5,2" d="M491.99,-61.65C525.73,-63.19 568.8,-65.68 607,-69.5 612.83,-70.08 618.94,-70.81 624.97,-71.6"/>
<polygon fill="#9a32cd" stroke="#9a32cd" points="491.98,-58.15 481.84,-61.2 491.67,-65.14 491.98,-58.15"/>
<text text-anchor="middle" x="564" y="-72.5" font-family="Helvetica,sans-Serif" font-size="10.00"> polarCoordPolicy</text>
</g>
<!-- Node9 -->
<g id="node9" class="node">
<title>Node9</title>
<g id="a_node9"><a xlink:href="classdrain_1_1UniTuple.html" target="_top" xlink:title=" ">
<polygon fill="white" stroke="black" points="163.5,-44.5 163.5,-74.5 280.5,-74.5 280.5,-44.5 163.5,-44.5"/>
<text text-anchor="start" x="171.5" y="-62.5" font-family="Helvetica,sans-Serif" font-size="10.00">UniTuple&lt; coord_pol</text>
<text text-anchor="middle" x="222" y="-51.5" font-family="Helvetica,sans-Serif" font-size="10.00">_t, 4 &gt;</text>
</a>
</g>
</g>
<!-- Node9&#45;&gt;Node8 -->
<g id="edge8" class="edge">
<title>Node9&#45;&gt;Node8</title>
<path fill="none" stroke="midnightblue" d="M291.01,-59.5C320.84,-59.5 355.18,-59.5 382.38,-59.5"/>
<polygon fill="midnightblue" stroke="midnightblue" points="290.66,-56 280.66,-59.5 290.66,-63 290.66,-56"/>
</g>
<!-- Node10 -->
<g id="node10" class="node">
<title>Node10</title>
<g id="a_node10"><a xlink:href="classdrain_1_1Dictionary2.html" target="_top" xlink:title="Two&#45;way mapping between strings and objects of template class T.">
<polygon fill="white" stroke="black" points="164.5,-6 164.5,-25 279.5,-25 279.5,-6 164.5,-6"/>
<text text-anchor="middle" x="222" y="-13" font-family="Helvetica,sans-Serif" font-size="10.00">Dictionary2&lt; K, V &gt;</text>
</a>
</g>
</g>
<!-- Node10&#45;&gt;Node8 -->
<g id="edge9" class="edge">
<title>Node10&#45;&gt;Node8</title>
<path fill="none" stroke="#9a32cd" stroke-dasharray="5,2" d="M278.27,-27.19C311.92,-34.31 354.36,-43.29 385.96,-49.97"/>
<polygon fill="#9a32cd" stroke="#9a32cd" points="278.64,-23.69 268.13,-25.05 277.19,-30.54 278.64,-23.69"/>
<text text-anchor="middle" x="332" y="-43.5" font-family="Helvetica,sans-Serif" font-size="10.00"> dict</text>
</g>
<!-- Node11 -->
<g id="node11" class="node">
<title>Node11</title>
<g id="a_node11"><a xlink:title=" ">
<polygon fill="white" stroke="#bfbfbf" points="0,-0.5 0,-30.5 104,-30.5 104,-0.5 0,-0.5"/>
<text text-anchor="start" x="8" y="-18.5" font-family="Helvetica,sans-Serif" font-size="10.00">list&lt; std::pair&lt; K,</text>
<text text-anchor="middle" x="52" y="-7.5" font-family="Helvetica,sans-Serif" font-size="10.00"> V &gt; &gt;</text>
</a>
</g>
</g>
<!-- Node11&#45;&gt;Node10 -->
<g id="edge10" class="edge">
<title>Node11&#45;&gt;Node10</title>
<path fill="none" stroke="midnightblue" d="M114.33,-15.5C130.71,-15.5 148.33,-15.5 164.43,-15.5"/>
<polygon fill="midnightblue" stroke="midnightblue" points="114.32,-12 104.32,-15.5 114.32,-19 114.32,-12"/>
</g>
</g>
</svg>
