<?xml version="1.0" encoding="UTF-8" standalone="no"?>
<!DOCTYPE svg PUBLIC "-//W3C//DTD SVG 1.1//EN"
 "http://www.w3.org/Graphics/SVG/1.1/DTD/svg11.dtd">
<!-- Generated by graphviz version 2.43.0 (0)
 -->
<!-- Title: Histogram2 Pages: 1 -->
<svg width="278pt" height="231pt"
 viewBox="0.00 0.00 277.50 231.00" xmlns="http://www.w3.org/2000/svg" xmlns:xlink="http://www.w3.org/1999/xlink">
<g id="graph0" class="graph" transform="scale(1 1) rotate(0) translate(4 227)">
<title>Histogram2</title>
<polygon fill="white" stroke="transparent" points="-4,4 -4,-227 273.5,-227 273.5,4 -4,4"/>
<!-- Node1 -->
<g id="node1" class="node">
<title>Node1</title>
<g id="a_node1"><a xlink:title=" ">
<polygon fill="#bfbfbf" stroke="black" points="35.5,-0.5 35.5,-19.5 109.5,-19.5 109.5,-0.5 35.5,-0.5"/>
<text text-anchor="middle" x="72.5" y="-7.5" font-family="Helvetica,sans-Serif" font-size="10.00">Histogram2</text>
</a>
</g>
</g>
<!-- Node2 -->
<g id="node2" class="node">
<title>Node2</title>
<g id="a_node2"><a xlink:href="classdrain_1_1ImageCodeMap.html" target="_top" xlink:title=" ">
<polygon fill="white" stroke="black" points="8.5,-57.5 8.5,-76.5 136.5,-76.5 136.5,-57.5 8.5,-57.5"/>
<text text-anchor="middle" x="72.5" y="-64.5" font-family="Helvetica,sans-Serif" font-size="10.00">ImageCodeMap&lt; int &gt;</text>
</a>
</g>
</g>
<!-- Node2&#45;&gt;Node1 -->
<g id="edge1" class="edge">
<title>Node2&#45;&gt;Node1</title>
<path fill="none" stroke="midnightblue" d="M72.5,-47.12C72.5,-37.82 72.5,-27.06 72.5,-19.71"/>
<polygon fill="midnightblue" stroke="midnightblue" points="69,-47.41 72.5,-57.41 76,-47.41 69,-47.41"/>
</g>
<!-- Node3 -->
<g id="node3" class="node">
<title>Node3</title>
<g id="a_node3"><a xlink:title=" ">
<polygon fill="white" stroke="#bfbfbf" points="0,-130 0,-149 113,-149 113,-130 0,-130"/>
<text text-anchor="middle" x="56.5" y="-137" font-family="Helvetica,sans-Serif" font-size="10.00">map&lt; double, int &gt;</text>
</a>
</g>
</g>
<!-- Node3&#45;&gt;Node2 -->
<g id="edge2" class="edge">
<title>Node3&#45;&gt;Node2</title>
<path fill="none" stroke="midnightblue" d="M60.73,-119.86C63.9,-105.9 68.09,-87.43 70.52,-76.72"/>
<polygon fill="midnightblue" stroke="midnightblue" points="57.26,-119.33 58.46,-129.86 64.09,-120.88 57.26,-119.33"/>
</g>
<!-- Node4 -->
<g id="node4" class="node">
<title>Node4</title>
<g id="a_node4"><a xlink:href="classdrain_1_1LookUp.html" target="_top" xlink:title=" ">
<polygon fill="white" stroke="black" points="131.5,-124.5 131.5,-154.5 269.5,-154.5 269.5,-124.5 131.5,-124.5"/>
<text text-anchor="start" x="139.5" y="-142.5" font-family="Helvetica,sans-Serif" font-size="10.00">LookUp&lt; typename cont</text>
<text text-anchor="middle" x="200.5" y="-131.5" font-family="Helvetica,sans-Serif" font-size="10.00">_t::const_iterator &gt;</text>
</a>
</g>
</g>
<!-- Node4&#45;&gt;Node2 -->
<g id="edge3" class="edge">
<title>Node4&#45;&gt;Node2</title>
<path fill="none" stroke="#9a32cd" stroke-dasharray="5,2" d="M165.94,-119.47C140.53,-105.47 107.21,-87.12 87.99,-76.53"/>
<polygon fill="#9a32cd" stroke="#9a32cd" points="164.46,-122.64 174.9,-124.4 167.83,-116.51 164.46,-122.64"/>
<text text-anchor="middle" x="158.5" y="-98" font-family="Helvetica,sans-Serif" font-size="10.00"> lookUp</text>
</g>
<!-- Node5 -->
<g id="node5" class="node">
<title>Node5</title>
<g id="a_node5"><a xlink:title=" ">
<polygon fill="white" stroke="#bfbfbf" points="134.5,-192.5 134.5,-222.5 266.5,-222.5 266.5,-192.5 134.5,-192.5"/>
<text text-anchor="start" x="142.5" y="-210.5" font-family="Helvetica,sans-Serif" font-size="10.00">vector&lt; typename cont</text>
<text text-anchor="middle" x="200.5" y="-199.5" font-family="Helvetica,sans-Serif" font-size="10.00">_t::const_iterator &gt;</text>
</a>
</g>
</g>
<!-- Node5&#45;&gt;Node4 -->
<g id="edge4" class="edge">
<title>Node5&#45;&gt;Node4</title>
<path fill="none" stroke="midnightblue" d="M200.5,-182.03C200.5,-172.86 200.5,-162.74 200.5,-154.79"/>
<polygon fill="midnightblue" stroke="midnightblue" points="197,-182.18 200.5,-192.18 204,-182.18 197,-182.18"/>
</g>
</g>
</svg>
