<?xml version="1.0" encoding="UTF-8" standalone="no"?>
<!DOCTYPE svg PUBLIC "-//W3C//DTD SVG 1.1//EN"
 "http://www.w3.org/Graphics/SVG/1.1/DTD/svg11.dtd">
<!-- Generated by graphviz version 2.43.0 (0)
 -->
<!-- Title: MultiThresholdOp Pages: 1 -->
<svg width="271pt" height="401pt"
 viewBox="0.00 0.00 270.50 401.00" xmlns="http://www.w3.org/2000/svg" xmlns:xlink="http://www.w3.org/1999/xlink">
<g id="graph0" class="graph" transform="scale(1 1) rotate(0) translate(4 397)">
<title>MultiThresholdOp</title>
<polygon fill="white" stroke="transparent" points="-4,4 -4,-397 266.5,-397 266.5,4 -4,4"/>
<!-- Node1 -->
<g id="node1" class="node">
<title>Node1</title>
<g id="a_node1"><a xlink:title=" ">
<polygon fill="#bfbfbf" stroke="black" points="88,-0.5 88,-19.5 191,-19.5 191,-0.5 88,-0.5"/>
<text text-anchor="middle" x="139.5" y="-7.5" font-family="Helvetica,sans-Serif" font-size="10.00">MultiThresholdOp</text>
</a>
</g>
</g>
<!-- Node2 -->
<g id="node2" class="node">
<title>Node2</title>
<g id="a_node2"><a xlink:href="classdrain_1_1image_1_1ImageOp.html" target="_top" xlink:title="Base class for image processing functions.">
<polygon fill="white" stroke="black" points="60,-78.5 60,-97.5 121,-97.5 121,-78.5 60,-78.5"/>
<text text-anchor="middle" x="90.5" y="-85.5" font-family="Helvetica,sans-Serif" font-size="10.00">ImageOp</text>
</a>
</g>
</g>
<!-- Node2&#45;&gt;Node1 -->
<g id="edge1" class="edge">
<title>Node2&#45;&gt;Node1</title>
<path fill="none" stroke="midnightblue" d="M101.74,-69.57C111.81,-53.95 126.15,-31.7 133.94,-19.62"/>
<polygon fill="midnightblue" stroke="midnightblue" points="98.6,-67.98 96.12,-78.28 104.48,-71.77 98.6,-67.98"/>
</g>
<!-- Node3 -->
<g id="node3" class="node">
<title>Node3</title>
<g id="a_node3"><a xlink:href="classdrain_1_1image_1_1ImageMod.html" target="_top" xlink:title="Class for operations that modify an existing image instead of producing a new image.">
<polygon fill="white" stroke="black" points="50.5,-135.5 50.5,-154.5 118.5,-154.5 118.5,-135.5 50.5,-135.5"/>
<text text-anchor="middle" x="84.5" y="-142.5" font-family="Helvetica,sans-Serif" font-size="10.00">ImageMod</text>
</a>
</g>
</g>
<!-- Node3&#45;&gt;Node2 -->
<g id="edge2" class="edge">
<title>Node3&#45;&gt;Node2</title>
<path fill="none" stroke="midnightblue" d="M86.53,-125.42C87.55,-116.05 88.74,-105.14 89.55,-97.71"/>
<polygon fill="midnightblue" stroke="midnightblue" points="83.04,-125.09 85.44,-135.41 90,-125.84 83.04,-125.09"/>
</g>
<!-- Node4 -->
<g id="node4" class="node">
<title>Node4</title>
<g id="a_node4"><a xlink:href="classdrain_1_1BeanLike.html" target="_top" xlink:title="Something which has a name, a description and possibly some parameters of varying type.">
<polygon fill="white" stroke="black" points="54,-192.5 54,-211.5 115,-211.5 115,-192.5 54,-192.5"/>
<text text-anchor="middle" x="84.5" y="-199.5" font-family="Helvetica,sans-Serif" font-size="10.00">BeanLike</text>
</a>
</g>
</g>
<!-- Node4&#45;&gt;Node3 -->
<g id="edge3" class="edge">
<title>Node4&#45;&gt;Node3</title>
<path fill="none" stroke="midnightblue" d="M84.5,-182.12C84.5,-172.82 84.5,-162.06 84.5,-154.71"/>
<polygon fill="midnightblue" stroke="midnightblue" points="81,-182.41 84.5,-192.41 88,-182.41 81,-182.41"/>
</g>
<!-- Node5 -->
<g id="node5" class="node">
<title>Node5</title>
<g id="a_node5"><a xlink:href="classdrain_1_1ReferenceMap.html" target="_top" xlink:title=" ">
<polygon fill="white" stroke="black" points="41,-259.5 41,-278.5 128,-278.5 128,-259.5 41,-259.5"/>
<text text-anchor="middle" x="84.5" y="-266.5" font-family="Helvetica,sans-Serif" font-size="10.00">ReferenceMap</text>
</a>
</g>
</g>
<!-- Node5&#45;&gt;Node4 -->
<g id="edge4" class="edge">
<title>Node5&#45;&gt;Node4</title>
<path fill="none" stroke="#9a32cd" stroke-dasharray="5,2" d="M84.5,-249.04C84.5,-236.67 84.5,-221.12 84.5,-211.63"/>
<polygon fill="#9a32cd" stroke="#9a32cd" points="81,-249.23 84.5,-259.23 88,-249.23 81,-249.23"/>
<text text-anchor="middle" x="114.5" y="-233" font-family="Helvetica,sans-Serif" font-size="10.00"> parameters</text>
</g>
<!-- Node6 -->
<g id="node6" class="node">
<title>Node6</title>
<g id="a_node6"><a xlink:href="classdrain_1_1SmartMap.html" target="_top" xlink:title=" ">
<polygon fill="white" stroke="black" points="13,-316.5 13,-335.5 156,-335.5 156,-316.5 13,-316.5"/>
<text text-anchor="middle" x="84.5" y="-323.5" font-family="Helvetica,sans-Serif" font-size="10.00">SmartMap&lt; Referencer &gt;</text>
</a>
</g>
</g>
<!-- Node6&#45;&gt;Node5 -->
<g id="edge5" class="edge">
<title>Node6&#45;&gt;Node5</title>
<path fill="none" stroke="midnightblue" d="M84.5,-306.12C84.5,-296.82 84.5,-286.06 84.5,-278.71"/>
<polygon fill="midnightblue" stroke="midnightblue" points="81,-306.41 84.5,-316.41 88,-306.41 81,-306.41"/>
</g>
<!-- Node7 -->
<g id="node7" class="node">
<title>Node7</title>
<g id="a_node7"><a xlink:title=" ">
<polygon fill="white" stroke="#bfbfbf" points="0,-373.5 0,-392.5 169,-392.5 169,-373.5 0,-373.5"/>
<text text-anchor="middle" x="84.5" y="-380.5" font-family="Helvetica,sans-Serif" font-size="10.00">map&lt; std::string, Referencer &gt;</text>
</a>
</g>
</g>
<!-- Node7&#45;&gt;Node6 -->
<g id="edge6" class="edge">
<title>Node7&#45;&gt;Node6</title>
<path fill="none" stroke="midnightblue" d="M84.5,-363.12C84.5,-353.82 84.5,-343.06 84.5,-335.71"/>
<polygon fill="midnightblue" stroke="midnightblue" points="81,-363.41 84.5,-373.41 88,-363.41 81,-363.41"/>
</g>
<!-- Node8 -->
<g id="node8" class="node">
<title>Node8</title>
<g id="a_node8"><a xlink:href="classdrain_1_1Range.html" target="_top" xlink:title=" ">
<polygon fill="white" stroke="black" points="146,-78.5 146,-97.5 249,-97.5 249,-78.5 146,-78.5"/>
<text text-anchor="middle" x="197.5" y="-85.5" font-family="Helvetica,sans-Serif" font-size="10.00">Range&lt; double &gt;</text>
</a>
</g>
</g>
<!-- Node8&#45;&gt;Node1 -->
<g id="edge7" class="edge">
<title>Node8&#45;&gt;Node1</title>
<path fill="none" stroke="#9a32cd" stroke-dasharray="5,2" d="M184.53,-70.01C172.6,-54.37 155.38,-31.81 146.08,-19.62"/>
<polygon fill="#9a32cd" stroke="#9a32cd" points="182,-72.46 190.85,-78.28 187.56,-68.21 182,-72.46"/>
<text text-anchor="middle" x="191" y="-52" font-family="Helvetica,sans-Serif" font-size="10.00"> target</text>
<text text-anchor="middle" x="191" y="-41" font-family="Helvetica,sans-Serif" font-size="10.00">range</text>
</g>
<!-- Node9 -->
<g id="node9" class="node">
<title>Node9</title>
<g id="a_node9"><a xlink:href="classdrain_1_1UniTuple.html" target="_top" xlink:title=" ">
<polygon fill="white" stroke="black" points="136.5,-135.5 136.5,-154.5 262.5,-154.5 262.5,-135.5 136.5,-135.5"/>
<text text-anchor="middle" x="199.5" y="-142.5" font-family="Helvetica,sans-Serif" font-size="10.00">UniTuple&lt; double, 2 &gt;</text>
</a>
</g>
</g>
<!-- Node9&#45;&gt;Node8 -->
<g id="edge8" class="edge">
<title>Node9&#45;&gt;Node8</title>
<path fill="none" stroke="midnightblue" d="M198.81,-125.12C198.48,-115.82 198.08,-105.06 197.82,-97.71"/>
<polygon fill="midnightblue" stroke="midnightblue" points="195.33,-125.54 199.19,-135.41 202.32,-125.29 195.33,-125.54"/>
</g>
</g>
</svg>
