<?xml version="1.0" encoding="UTF-8" standalone="no"?>
<!DOCTYPE svg PUBLIC "-//W3C//DTD SVG 1.1//EN"
 "http://www.w3.org/Graphics/SVG/1.1/DTD/svg11.dtd">
<!-- Generated by graphviz version 2.43.0 (0)
 -->
<!-- Title: Window&lt; C, R &gt; Pages: 1 -->
<!--zoomable 451 -->
<svg id="main" version="1.1" xmlns="http://www.w3.org/2000/svg" xmlns:xlink="http://www.w3.org/1999/xlink" xml:space="preserve" onload="init(evt)">
<style type="text/css"><![CDATA[
.edge:hover path { stroke: red; }
.edge:hover polygon { stroke: red; fill: red; }
]]></style>
<script type="text/javascript"><![CDATA[
var edges = document.getElementsByTagName('g');
if (edges && edges.length) {
  for (var i=0;i<edges.length;i++) {
    if (edges[i].id.substr(0,4)=='edge') {
      edges[i].setAttribute('class','edge');
    }
  }
}
]]></script>
        <defs>
                <circle id="rim" cx="0" cy="0" r="7"/>
                <circle id="rim2" cx="0" cy="0" r="3.5"/>
                <g id="zoomPlus">
                        <use xlink:href="#rim" fill="#404040">
                                <set attributeName="fill" to="#808080" begin="zoomplus.mouseover" end="zoomplus.mouseout"/>
                        </use>
                        <path d="M-4,0h8M0,-4v8" fill="none" stroke="white" stroke-width="1.5" pointer-events="none"/>
                </g>
                <g id="zoomMin">
                        <use xlink:href="#rim" fill="#404040">
                                <set attributeName="fill" to="#808080" begin="zoomminus.mouseover" end="zoomminus.mouseout"/>
                        </use>
                        <path d="M-4,0h8" fill="none" stroke="white" stroke-width="1.5" pointer-events="none"/>
                </g>
                <g id="dirArrow">
                        <path fill="none" stroke="white" stroke-width="1.5" d="M0,-3.0v7 M-2.5,-0.5L0,-3.0L2.5,-0.5"/>
                </g>
               <g id="resetDef">
                       <use xlink:href="#rim2" fill="#404040">
                               <set attributeName="fill" to="#808080" begin="reset.mouseover" end="reset.mouseout"/>
                       </use>
               </g>
        </defs>

<script type="text/javascript">
var viewWidth = 2508;
var viewHeight = 451;
var sectionId = 'dynsection-1';
</script>
<script xlink:href="svgpan.js"/>
<svg id="graph" class="graph">
<g id="viewport">
<title>Window&lt; C, R &gt;</title>
<polygon fill="white" stroke="transparent" points="-4,4 -4,-447 2504,-447 2504,4 -4,4"/>
<!-- Node1 -->
<g id="node1" class="node">
<title>Node1</title>
<g id="a_node1"><a xlink:title="Base class for windows applied by WIndowOp&#39;s.">
<polygon fill="#bfbfbf" stroke="black" points="2402,-163.5 2402,-182.5 2500,-182.5 2500,-163.5 2402,-163.5"/>
<text text-anchor="middle" x="2451" y="-170.5" font-family="Helvetica,sans-Serif" font-size="10.00">Window&lt; C, R &gt;</text>
</a>
</g>
</g>
<!-- Node2 -->
<g id="node2" class="node">
<title>Node2</title>
<g id="a_node2"><a xlink:href="classdrain_1_1image_1_1WindowCore.html" target="_top" xlink:title="Container for source data (input) and destination data (output). May also contain metadata of them.">
<polygon fill="white" stroke="black" points="2141.5,-339.5 2141.5,-358.5 2219.5,-358.5 2219.5,-339.5 2141.5,-339.5"/>
<text text-anchor="middle" x="2180.5" y="-346.5" font-family="Helvetica,sans-Serif" font-size="10.00">WindowCore</text>
</a>
</g>
</g>
<!-- Node2&#45;&gt;Node1 -->
<g id="edge1" class="edge">
<title>Node2&#45;&gt;Node1</title>
<path fill="none" stroke="midnightblue" d="M2229.67,-337.2C2273.36,-324.71 2337.81,-301.66 2384,-265 2413.72,-241.42 2436.14,-201.1 2445.38,-182.69"/>
<polygon fill="midnightblue" stroke="midnightblue" points="2228.55,-333.88 2219.85,-339.93 2230.43,-340.62 2228.55,-333.88"/>
</g>
<!-- Node3 -->
<g id="node3" class="node">
<title>Node3</title>
<g id="a_node3"><a xlink:href="classdrain_1_1image_1_1WindowCoreBase.html" target="_top" xlink:title="Provides splitting frames.">
<polygon fill="white" stroke="black" points="1857,-339.5 1857,-358.5 1959,-358.5 1959,-339.5 1857,-339.5"/>
<text text-anchor="middle" x="1908" y="-346.5" font-family="Helvetica,sans-Serif" font-size="10.00">WindowCoreBase</text>
</a>
</g>
</g>
<!-- Node3&#45;&gt;Node2 -->
<g id="edge2" class="edge">
<title>Node3&#45;&gt;Node2</title>
<path fill="none" stroke="midnightblue" d="M1969.45,-349C2022.03,-349 2096.62,-349 2141.31,-349"/>
<polygon fill="midnightblue" stroke="midnightblue" points="1969.25,-345.5 1959.25,-349 1969.25,-352.5 1969.25,-345.5"/>
</g>
<!-- Node4 -->
<g id="node4" class="node">
<title>Node4</title>
<g id="a_node4"><a xlink:href="classdrain_1_1image_1_1ImageView.html" target="_top" xlink:title="ImageFrame that also has channels.">
<polygon fill="white" stroke="black" points="1872.5,-377.5 1872.5,-396.5 1943.5,-396.5 1943.5,-377.5 1872.5,-377.5"/>
<text text-anchor="middle" x="1908" y="-384.5" font-family="Helvetica,sans-Serif" font-size="10.00">ImageView</text>
</a>
</g>
</g>
<!-- Node4&#45;&gt;Node2 -->
<g id="edge3" class="edge">
<title>Node4&#45;&gt;Node2</title>
<path fill="none" stroke="#9a32cd" stroke-dasharray="5,2" d="M1953.53,-380.74C2005.86,-373.39 2091.81,-361.32 2141.25,-354.37"/>
<polygon fill="#9a32cd" stroke="#9a32cd" points="1952.95,-377.29 1943.53,-382.15 1953.92,-384.22 1952.95,-377.29"/>
<text text-anchor="middle" x="2024" y="-390" font-family="Helvetica,sans-Serif" font-size="10.00"> src</text>
<text text-anchor="middle" x="2024" y="-379" font-family="Helvetica,sans-Serif" font-size="10.00">dst</text>
</g>
<!-- Node5 -->
<g id="node5" class="node">
<title>Node5</title>
<g id="a_node5"><a xlink:href="classdrain_1_1image_1_1MultiChannel.html" target="_top" xlink:title="Multi&#45;channel ImageFrame.">
<polygon fill="white" stroke="black" points="1711.5,-364.5 1711.5,-383.5 1792.5,-383.5 1792.5,-364.5 1711.5,-364.5"/>
<text text-anchor="middle" x="1752" y="-371.5" font-family="Helvetica,sans-Serif" font-size="10.00">MultiChannel</text>
</a>
</g>
</g>
<!-- Node5&#45;&gt;Node4 -->
<g id="edge4" class="edge">
<title>Node5&#45;&gt;Node4</title>
<path fill="none" stroke="midnightblue" d="M1802.82,-378.21C1825.56,-380.13 1851.93,-382.35 1872.45,-384.08"/>
<polygon fill="midnightblue" stroke="midnightblue" points="1802.92,-374.7 1792.66,-377.35 1802.33,-381.68 1802.92,-374.7"/>
</g>
<!-- Node6 -->
<g id="node6" class="node">
<title>Node6</title>
<g id="a_node6"><a xlink:href="classdrain_1_1image_1_1ImageFrame.html" target="_top" xlink:title="Image with static geometry.">
<polygon fill="white" stroke="black" points="1471,-311.5 1471,-330.5 1549,-330.5 1549,-311.5 1471,-311.5"/>
<text text-anchor="middle" x="1510" y="-318.5" font-family="Helvetica,sans-Serif" font-size="10.00">ImageFrame</text>
</a>
</g>
</g>
<!-- Node6&#45;&gt;Node5 -->
<g id="edge5" class="edge">
<title>Node6&#45;&gt;Node5</title>
<path fill="none" stroke="midnightblue" d="M1559.05,-331.61C1603.68,-341.47 1669.36,-355.97 1711.15,-365.2"/>
<polygon fill="midnightblue" stroke="midnightblue" points="1559.55,-328.14 1549.03,-329.4 1558.04,-334.97 1559.55,-328.14"/>
</g>
<!-- Node7 -->
<g id="node7" class="node">
<title>Node7</title>
<g id="a_node7"><a xlink:href="classdrain_1_1image_1_1ImageLike.html" target="_top" xlink:title="A base class for images.">
<polygon fill="white" stroke="black" points="1224,-309.5 1224,-328.5 1291,-328.5 1291,-309.5 1224,-309.5"/>
<text text-anchor="middle" x="1257.5" y="-316.5" font-family="Helvetica,sans-Serif" font-size="10.00">ImageLike</text>
</a>
</g>
</g>
<!-- Node7&#45;&gt;Node6 -->
<g id="edge6" class="edge">
<title>Node7&#45;&gt;Node6</title>
<path fill="none" stroke="midnightblue" d="M1301.25,-319.34C1348.9,-319.72 1425.24,-320.33 1470.92,-320.7"/>
<polygon fill="midnightblue" stroke="midnightblue" points="1301.28,-315.84 1291.25,-319.26 1301.22,-322.84 1301.28,-315.84"/>
</g>
<!-- Node8 -->
<g id="node8" class="node">
<title>Node8</title>
<g id="a_node8"><a xlink:href="classdrain_1_1image_1_1ImageConf.html" target="_top" xlink:title="Struct for image (excluding data)">
<polygon fill="white" stroke="black" points="935.5,-307.5 935.5,-326.5 1005.5,-326.5 1005.5,-307.5 935.5,-307.5"/>
<text text-anchor="middle" x="970.5" y="-314.5" font-family="Helvetica,sans-Serif" font-size="10.00">ImageConf</text>
</a>
</g>
</g>
<!-- Node8&#45;&gt;Node7 -->
<g id="edge7" class="edge">
<title>Node8&#45;&gt;Node7</title>
<path fill="none" stroke="#9a32cd" stroke-dasharray="5,2" d="M1015.83,-317.31C1073.37,-317.71 1172.45,-318.41 1223.69,-318.77"/>
<polygon fill="#9a32cd" stroke="#9a32cd" points="1015.62,-313.81 1005.59,-317.24 1015.57,-320.81 1015.62,-313.81"/>
<text text-anchor="middle" x="1120.5" y="-321" font-family="Helvetica,sans-Serif" font-size="10.00"> conf</text>
</g>
<!-- Node9 -->
<g id="node9" class="node">
<title>Node9</title>
<g id="a_node9"><a xlink:href="classdrain_1_1image_1_1Encoding.html" target="_top" xlink:title=" ">
<polygon fill="white" stroke="black" points="646,-300.5 646,-319.5 707,-319.5 707,-300.5 646,-300.5"/>
<text text-anchor="middle" x="676.5" y="-307.5" font-family="Helvetica,sans-Serif" font-size="10.00">Encoding</text>
</a>
</g>
</g>
<!-- Node9&#45;&gt;Node8 -->
<g id="edge8" class="edge">
<title>Node9&#45;&gt;Node8</title>
<path fill="none" stroke="midnightblue" d="M717.3,-310.95C775.01,-312.34 880.96,-314.88 935.33,-316.18"/>
<polygon fill="midnightblue" stroke="midnightblue" points="717.19,-307.45 707.11,-310.71 717.02,-314.45 717.19,-307.45"/>
</g>
<!-- Node10 -->
<g id="node10" class="node">
<title>Node10</title>
<g id="a_node10"><a xlink:href="classdrain_1_1ValueScaling.html" target="_top" xlink:title="Linear scaling and physical range for image intensities.">
<polygon fill="white" stroke="black" points="404,-266.5 404,-285.5 484,-285.5 484,-266.5 404,-266.5"/>
<text text-anchor="middle" x="444" y="-273.5" font-family="Helvetica,sans-Serif" font-size="10.00">ValueScaling</text>
</a>
</g>
</g>
<!-- Node10&#45;&gt;Node9 -->
<g id="edge9" class="edge">
<title>Node10&#45;&gt;Node9</title>
<path fill="none" stroke="midnightblue" d="M494.15,-283.25C540.16,-290.04 607.4,-299.95 645.76,-305.61"/>
<polygon fill="midnightblue" stroke="midnightblue" points="494.5,-279.76 484.1,-281.77 493.48,-286.69 494.5,-279.76"/>
</g>
<!-- Node11 -->
<g id="node11" class="node">
<title>Node11</title>
<g id="a_node11"><a xlink:href="classdrain_1_1UniTuple.html" target="_top" xlink:title=" ">
<polygon fill="white" stroke="black" points="163,-304.5 163,-323.5 289,-323.5 289,-304.5 163,-304.5"/>
<text text-anchor="middle" x="226" y="-311.5" font-family="Helvetica,sans-Serif" font-size="10.00">UniTuple&lt; double, 4 &gt;</text>
</a>
</g>
</g>
<!-- Node11&#45;&gt;Node10 -->
<g id="edge10" class="edge">
<title>Node11&#45;&gt;Node10</title>
<path fill="none" stroke="midnightblue" d="M296.09,-302.83C318.13,-299.17 342.61,-295.02 365,-291 377.62,-288.73 391.37,-286.14 403.75,-283.74"/>
<polygon fill="midnightblue" stroke="midnightblue" points="295.45,-299.39 286.15,-304.47 296.59,-306.3 295.45,-299.39"/>
</g>
<!-- Node12 -->
<g id="node12" class="node">
<title>Node12</title>
<g id="a_node12"><a xlink:href="classdrain_1_1Range.html" target="_top" xlink:title=" ">
<polygon fill="white" stroke="black" points="174.5,-266.5 174.5,-285.5 277.5,-285.5 277.5,-266.5 174.5,-266.5"/>
<text text-anchor="middle" x="226" y="-273.5" font-family="Helvetica,sans-Serif" font-size="10.00">Range&lt; double &gt;</text>
</a>
</g>
</g>
<!-- Node12&#45;&gt;Node10 -->
<g id="edge11" class="edge">
<title>Node12&#45;&gt;Node10</title>
<path fill="none" stroke="#9a32cd" stroke-dasharray="5,2" d="M287.86,-276C325.03,-276 371.46,-276 403.8,-276"/>
<polygon fill="#9a32cd" stroke="#9a32cd" points="287.64,-272.5 277.64,-276 287.64,-279.5 287.64,-272.5"/>
<text text-anchor="middle" x="336" y="-279" font-family="Helvetica,sans-Serif" font-size="10.00"> physRange</text>
</g>
<!-- Node13 -->
<g id="node13" class="node">
<title>Node13</title>
<g id="a_node13"><a xlink:href="classdrain_1_1UniTuple.html" target="_top" xlink:title=" ">
<polygon fill="white" stroke="black" points="0,-266.5 0,-285.5 126,-285.5 126,-266.5 0,-266.5"/>
<text text-anchor="middle" x="63" y="-273.5" font-family="Helvetica,sans-Serif" font-size="10.00">UniTuple&lt; double, 2 &gt;</text>
</a>
</g>
</g>
<!-- Node13&#45;&gt;Node12 -->
<g id="edge12" class="edge">
<title>Node13&#45;&gt;Node12</title>
<path fill="none" stroke="midnightblue" d="M136.44,-276C149.24,-276 162.33,-276 174.37,-276"/>
<polygon fill="midnightblue" stroke="midnightblue" points="136.25,-272.5 126.25,-276 136.25,-279.5 136.25,-272.5"/>
</g>
<!-- Node14 -->
<g id="node14" class="node">
<title>Node14</title>
<g id="a_node14"><a xlink:href="classdrain_1_1Caster.html" target="_top" xlink:title=" ">
<polygon fill="white" stroke="black" points="420,-304.5 420,-323.5 468,-323.5 468,-304.5 420,-304.5"/>
<text text-anchor="middle" x="444" y="-311.5" font-family="Helvetica,sans-Serif" font-size="10.00">Caster</text>
</a>
</g>
</g>
<!-- Node14&#45;&gt;Node9 -->
<g id="edge13" class="edge">
<title>Node14&#45;&gt;Node9</title>
<path fill="none" stroke="#9a32cd" stroke-dasharray="5,2" d="M478.25,-312.49C492.09,-311.92 508.32,-311.33 523,-311 565.75,-310.04 615.25,-309.89 645.98,-309.91"/>
<polygon fill="#9a32cd" stroke="#9a32cd" points="478.05,-308.99 468.2,-312.91 478.34,-315.99 478.05,-308.99"/>
<text text-anchor="middle" x="546.5" y="-314" font-family="Helvetica,sans-Serif" font-size="10.00"> caster</text>
</g>
<!-- Node25 -->
<g id="node25" class="node">
<title>Node25</title>
<g id="a_node25"><a xlink:href="classdrain_1_1Castable.html" target="_top" xlink:title=" ">
<polygon fill="white" stroke="black" points="647,-388.5 647,-407.5 706,-407.5 706,-388.5 647,-388.5"/>
<text text-anchor="middle" x="676.5" y="-395.5" font-family="Helvetica,sans-Serif" font-size="10.00">Castable</text>
</a>
</g>
</g>
<!-- Node14&#45;&gt;Node25 -->
<g id="edge26" class="edge">
<title>Node14&#45;&gt;Node25</title>
<path fill="none" stroke="#9a32cd" stroke-dasharray="5,2" d="M477.95,-320.12C487.32,-322.96 497.11,-327.07 505,-333 516.53,-341.67 511.21,-351.7 523,-360 560.37,-386.31 614.12,-394.46 646.82,-396.95"/>
<polygon fill="#9a32cd" stroke="#9a32cd" points="478.62,-316.68 468.06,-317.52 476.84,-323.45 478.62,-316.68"/>
<text text-anchor="middle" x="546.5" y="-385" font-family="Helvetica,sans-Serif" font-size="10.00"> caster</text>
</g>
<!-- Node15 -->
<g id="node15" class="node">
<title>Node15</title>
<g id="a_node15"><a xlink:href="classdrain_1_1image_1_1Geometry.html" target="_top" xlink:title=" ">
<polygon fill="white" stroke="black" points="644,-346.5 644,-365.5 709,-365.5 709,-346.5 644,-346.5"/>
<text text-anchor="middle" x="676.5" y="-353.5" font-family="Helvetica,sans-Serif" font-size="10.00">Geometry</text>
</a>
</g>
</g>
<!-- Node15&#45;&gt;Node8 -->
<g id="edge14" class="edge">
<title>Node15&#45;&gt;Node8</title>
<path fill="none" stroke="midnightblue" d="M718.97,-350.46C777.06,-342.7 881.58,-328.74 935.41,-321.55"/>
<polygon fill="midnightblue" stroke="midnightblue" points="718.48,-347 709.03,-351.79 719.4,-353.93 718.48,-347"/>
</g>
<!-- Node16 -->
<g id="node16" class="node">
<title>Node16</title>
<g id="a_node16"><a xlink:href="classdrain_1_1UniTuple.html" target="_top" xlink:title=" ">
<polygon fill="white" stroke="black" points="383,-380.5 383,-399.5 505,-399.5 505,-380.5 383,-380.5"/>
<text text-anchor="middle" x="444" y="-387.5" font-family="Helvetica,sans-Serif" font-size="10.00">UniTuple&lt; size_t, 4 &gt;</text>
</a>
</g>
</g>
<!-- Node16&#45;&gt;Node15 -->
<g id="edge15" class="edge">
<title>Node16&#45;&gt;Node15</title>
<path fill="none" stroke="midnightblue" d="M515.37,-379.62C558.26,-373.29 610.97,-365.52 643.91,-360.66"/>
<polygon fill="midnightblue" stroke="midnightblue" points="514.64,-376.19 505.26,-381.11 515.66,-383.11 514.64,-376.19"/>
</g>
<!-- Node17 -->
<g id="node17" class="node">
<title>Node17</title>
<g id="a_node17"><a xlink:href="classdrain_1_1Frame2D.html" target="_top" xlink:title=" ">
<polygon fill="white" stroke="black" points="388,-342.5 388,-361.5 500,-361.5 500,-342.5 388,-342.5"/>
<text text-anchor="middle" x="444" y="-349.5" font-family="Helvetica,sans-Serif" font-size="10.00">Frame2D&lt; size_t &gt;</text>
</a>
</g>
</g>
<!-- Node17&#45;&gt;Node15 -->
<g id="edge16" class="edge">
<title>Node17&#45;&gt;Node15</title>
<path fill="none" stroke="#9a32cd" stroke-dasharray="5,2" d="M510.35,-345.7C514.63,-345.42 518.87,-345.18 523,-345 543.87,-344.07 549.14,-343.92 570,-345 594.83,-346.29 622.81,-349.28 643.71,-351.82"/>
<polygon fill="#9a32cd" stroke="#9a32cd" points="510.08,-342.21 500.35,-346.42 510.58,-349.2 510.08,-342.21"/>
<text text-anchor="middle" x="546.5" y="-348" font-family="Helvetica,sans-Serif" font-size="10.00"> area</text>
</g>
<!-- Node18 -->
<g id="node18" class="node">
<title>Node18</title>
<g id="a_node18"><a xlink:href="classdrain_1_1UniTuple.html" target="_top" xlink:title=" ">
<polygon fill="white" stroke="black" points="165,-384.5 165,-403.5 287,-403.5 287,-384.5 165,-384.5"/>
<text text-anchor="middle" x="226" y="-391.5" font-family="Helvetica,sans-Serif" font-size="10.00">UniTuple&lt; size_t, 2 &gt;</text>
</a>
</g>
</g>
<!-- Node18&#45;&gt;Node17 -->
<g id="edge17" class="edge">
<title>Node18&#45;&gt;Node17</title>
<path fill="none" stroke="midnightblue" d="M286.22,-382.49C320,-375.92 361.85,-367.78 393.81,-361.57"/>
<polygon fill="midnightblue" stroke="midnightblue" points="285.16,-379.13 276.01,-384.47 286.5,-386 285.16,-379.13"/>
</g>
<!-- Node19 -->
<g id="node19" class="node">
<title>Node19</title>
<g id="a_node19"><a xlink:href="classdrain_1_1image_1_1ChannelGeometry.html" target="_top" xlink:title=" ">
<polygon fill="white" stroke="black" points="391.5,-423.5 391.5,-442.5 496.5,-442.5 496.5,-423.5 391.5,-423.5"/>
<text text-anchor="middle" x="444" y="-430.5" font-family="Helvetica,sans-Serif" font-size="10.00">ChannelGeometry</text>
</a>
</g>
</g>
<!-- Node18&#45;&gt;Node19 -->
<g id="edge19" class="edge">
<title>Node18&#45;&gt;Node19</title>
<path fill="none" stroke="midnightblue" d="M290.06,-405.39C322.29,-411.21 361.03,-418.2 391.45,-423.69"/>
<polygon fill="midnightblue" stroke="midnightblue" points="290.3,-401.87 279.84,-403.54 289.06,-408.76 290.3,-401.87"/>
</g>
<!-- Node19&#45;&gt;Node15 -->
<g id="edge18" class="edge">
<title>Node19&#45;&gt;Node15</title>
<path fill="none" stroke="#9a32cd" stroke-dasharray="5,2" d="M506.68,-435.5C528.4,-433.59 551.89,-428.07 570,-415 584.51,-404.53 574.11,-390.28 588,-379 603.73,-366.23 625.82,-360.49 643.88,-357.93"/>
<polygon fill="#9a32cd" stroke="#9a32cd" points="506.28,-432.01 496.52,-436.15 506.72,-439 506.28,-432.01"/>
<text text-anchor="middle" x="546.5" y="-435" font-family="Helvetica,sans-Serif" font-size="10.00"> channels</text>
</g>
<!-- Node20 -->
<g id="node20" class="node">
<title>Node20</title>
<g id="a_node20"><a xlink:href="classdrain_1_1image_1_1CoordinatePolicy.html" target="_top" xlink:title="Policies for coordinate underflows and overflows.">
<polygon fill="white" stroke="black" points="627,-225.5 627,-244.5 726,-244.5 726,-225.5 627,-225.5"/>
<text text-anchor="middle" x="676.5" y="-232.5" font-family="Helvetica,sans-Serif" font-size="10.00">CoordinatePolicy</text>
</a>
</g>
</g>
<!-- Node20&#45;&gt;Node8 -->
<g id="edge20" class="edge">
<title>Node20&#45;&gt;Node8</title>
<path fill="none" stroke="#9a32cd" stroke-dasharray="5,2" d="M721.28,-247.29C779.88,-263.75 882.6,-292.6 935.65,-307.49"/>
<polygon fill="#9a32cd" stroke="#9a32cd" points="722.14,-243.9 711.57,-244.57 720.25,-250.64 722.14,-243.9"/>
<text text-anchor="middle" x="825.5" y="-292" font-family="Helvetica,sans-Serif" font-size="10.00"> coordinatePolicy</text>
</g>
<!-- Node46 -->
<g id="node46" class="node">
<title>Node46</title>
<g id="a_node46"><a xlink:href="classdrain_1_1image_1_1CoordinateHandler2D.html" target="_top" xlink:title=" ">
<polygon fill="white" stroke="black" points="2119.5,-163.5 2119.5,-182.5 2241.5,-182.5 2241.5,-163.5 2119.5,-163.5"/>
<text text-anchor="middle" x="2180.5" y="-170.5" font-family="Helvetica,sans-Serif" font-size="10.00">CoordinateHandler2D</text>
</a>
</g>
</g>
<!-- Node20&#45;&gt;Node46 -->
<g id="edge52" class="edge">
<title>Node20&#45;&gt;Node46</title>
<path fill="none" stroke="#9a32cd" stroke-dasharray="5,2" d="M736.31,-235C795.27,-235 888.68,-235 969.5,-235 969.5,-235 969.5,-235 1909,-235 1981.6,-235 2007.53,-249.25 2071,-214 2082.04,-207.87 2078.2,-198.56 2089,-192 2098.19,-186.41 2108.77,-182.45 2119.38,-179.64"/>
<polygon fill="#9a32cd" stroke="#9a32cd" points="736.07,-231.5 726.07,-235 736.07,-238.5 736.07,-231.5"/>
<text text-anchor="middle" x="1510" y="-238" font-family="Helvetica,sans-Serif" font-size="10.00"> policy</text>
</g>
<!-- Node21 -->
<g id="node21" class="node">
<title>Node21</title>
<g id="a_node21"><a xlink:href="classdrain_1_1UniTuple.html" target="_top" xlink:title=" ">
<polygon fill="white" stroke="black" points="385.5,-176 385.5,-206 502.5,-206 502.5,-176 385.5,-176"/>
<text text-anchor="start" x="393.5" y="-194" font-family="Helvetica,sans-Serif" font-size="10.00">UniTuple&lt; coord_pol</text>
<text text-anchor="middle" x="444" y="-183" font-family="Helvetica,sans-Serif" font-size="10.00">_t, 4 &gt;</text>
</a>
</g>
</g>
<!-- Node21&#45;&gt;Node20 -->
<g id="edge21" class="edge">
<title>Node21&#45;&gt;Node20</title>
<path fill="none" stroke="midnightblue" d="M512.67,-203.92C549.28,-210.91 593.66,-219.38 626.84,-225.71"/>
<polygon fill="midnightblue" stroke="midnightblue" points="513.05,-200.43 502.57,-201.99 511.74,-207.3 513.05,-200.43"/>
</g>
<!-- Node22 -->
<g id="node22" class="node">
<title>Node22</title>
<g id="a_node22"><a xlink:href="classdrain_1_1Dictionary2.html" target="_top" xlink:title="Two&#45;way mapping between strings and objects of template class T.">
<polygon fill="white" stroke="black" points="386.5,-225.5 386.5,-244.5 501.5,-244.5 501.5,-225.5 386.5,-225.5"/>
<text text-anchor="middle" x="444" y="-232.5" font-family="Helvetica,sans-Serif" font-size="10.00">Dictionary2&lt; K, V &gt;</text>
</a>
</g>
</g>
<!-- Node22&#45;&gt;Node20 -->
<g id="edge22" class="edge">
<title>Node22&#45;&gt;Node20</title>
<path fill="none" stroke="#9a32cd" stroke-dasharray="5,2" d="M511.82,-235C548.6,-235 593.41,-235 626.85,-235"/>
<polygon fill="#9a32cd" stroke="#9a32cd" points="511.68,-231.5 501.68,-235 511.68,-238.5 511.68,-231.5"/>
<text text-anchor="middle" x="546.5" y="-238" font-family="Helvetica,sans-Serif" font-size="10.00"> dict</text>
</g>
<!-- Node23 -->
<g id="node23" class="node">
<title>Node23</title>
<g id="a_node23"><a xlink:title=" ">
<polygon fill="white" stroke="#bfbfbf" points="174,-217 174,-247 278,-247 278,-217 174,-217"/>
<text text-anchor="start" x="182" y="-235" font-family="Helvetica,sans-Serif" font-size="10.00">list&lt; std::pair&lt; K,</text>
<text text-anchor="middle" x="226" y="-224" font-family="Helvetica,sans-Serif" font-size="10.00"> V &gt; &gt;</text>
</a>
</g>
</g>
<!-- Node23&#45;&gt;Node22 -->
<g id="edge23" class="edge">
<title>Node23&#45;&gt;Node22</title>
<path fill="none" stroke="midnightblue" d="M288.39,-232.85C319.23,-233.28 356.35,-233.8 386.48,-234.22"/>
<polygon fill="midnightblue" stroke="midnightblue" points="288.24,-229.35 278.19,-232.71 288.14,-236.35 288.24,-229.35"/>
</g>
<!-- Node24 -->
<g id="node24" class="node">
<title>Node24</title>
<g id="a_node24"><a xlink:href="classdrain_1_1CastableIterator.html" target="_top" xlink:title=" ">
<polygon fill="white" stroke="black" points="1073,-365.5 1073,-384.5 1168,-384.5 1168,-365.5 1073,-365.5"/>
<text text-anchor="middle" x="1120.5" y="-372.5" font-family="Helvetica,sans-Serif" font-size="10.00">CastableIterator</text>
</a>
</g>
</g>
<!-- Node24&#45;&gt;Node6 -->
<g id="edge24" class="edge">
<title>Node24&#45;&gt;Node6</title>
<path fill="none" stroke="#9a32cd" stroke-dasharray="5,2" d="M1178.15,-367.11C1258.2,-355.95 1402.29,-335.87 1470.81,-326.32"/>
<polygon fill="#9a32cd" stroke="#9a32cd" points="1177.66,-363.64 1168.24,-368.49 1178.63,-370.57 1177.66,-363.64"/>
<text text-anchor="middle" x="1257.5" y="-379" font-family="Helvetica,sans-Serif" font-size="10.00"> segmentEnd</text>
<text text-anchor="middle" x="1257.5" y="-368" font-family="Helvetica,sans-Serif" font-size="10.00">segmentBegin</text>
</g>
<!-- Node25&#45;&gt;Node24 -->
<g id="edge25" class="edge">
<title>Node25&#45;&gt;Node24</title>
<path fill="none" stroke="darkgreen" d="M716.46,-395.97C797.82,-391.74 985.47,-381.97 1072.99,-377.42"/>
<polygon fill="darkgreen" stroke="darkgreen" points="715.96,-392.49 706.16,-396.51 716.33,-399.48 715.96,-392.49"/>
</g>
<!-- Node26 -->
<g id="node26" class="node">
<title>Node26</title>
<g id="a_node26"><a xlink:href="classdrain_1_1FlexVariableMap.html" target="_top" xlink:title="A map of FlexVariable:s.">
<polygon fill="white" stroke="black" points="1208,-187.5 1208,-206.5 1307,-206.5 1307,-187.5 1208,-187.5"/>
<text text-anchor="middle" x="1257.5" y="-194.5" font-family="Helvetica,sans-Serif" font-size="10.00">FlexVariableMap</text>
</a>
</g>
</g>
<!-- Node26&#45;&gt;Node6 -->
<g id="edge27" class="edge">
<title>Node26&#45;&gt;Node6</title>
<path fill="none" stroke="#9a32cd" stroke-dasharray="5,2" d="M1282.78,-212.03C1315.76,-232.08 1376.96,-267.95 1432,-293 1447.28,-299.95 1464.83,-306.44 1479.32,-311.42"/>
<polygon fill="#9a32cd" stroke="#9a32cd" points="1284.22,-208.81 1273.86,-206.58 1280.57,-214.78 1284.22,-208.81"/>
<text text-anchor="middle" x="1380.5" y="-298" font-family="Helvetica,sans-Serif" font-size="10.00"> propertiesPtr</text>
<text text-anchor="middle" x="1380.5" y="-287" font-family="Helvetica,sans-Serif" font-size="10.00">properties</text>
</g>
<!-- Node27 -->
<g id="node27" class="node">
<title>Node27</title>
<g id="a_node27"><a xlink:href="classdrain_1_1SmartMap.html" target="_top" xlink:title=" ">
<polygon fill="white" stroke="black" points="895,-187.5 895,-206.5 1046,-206.5 1046,-187.5 895,-187.5"/>
<text text-anchor="middle" x="970.5" y="-194.5" font-family="Helvetica,sans-Serif" font-size="10.00">SmartMap&lt; FlexVariable &gt;</text>
</a>
</g>
</g>
<!-- Node27&#45;&gt;Node26 -->
<g id="edge28" class="edge">
<title>Node27&#45;&gt;Node26</title>
<path fill="none" stroke="midnightblue" d="M1056.07,-197C1105.6,-197 1166.38,-197 1207.94,-197"/>
<polygon fill="midnightblue" stroke="midnightblue" points="1056.01,-193.5 1046.01,-197 1056.01,-200.5 1056.01,-193.5"/>
</g>
<!-- Node28 -->
<g id="node28" class="node">
<title>Node28</title>
<g id="a_node28"><a xlink:title=" ">
<polygon fill="white" stroke="#bfbfbf" points="588,-187.5 588,-206.5 765,-206.5 765,-187.5 588,-187.5"/>
<text text-anchor="middle" x="676.5" y="-194.5" font-family="Helvetica,sans-Serif" font-size="10.00">map&lt; std::string, FlexVariable &gt;</text>
</a>
</g>
</g>
<!-- Node28&#45;&gt;Node27 -->
<g id="edge29" class="edge">
<title>Node28&#45;&gt;Node27</title>
<path fill="none" stroke="midnightblue" d="M775.42,-197C814.38,-197 858.48,-197 894.78,-197"/>
<polygon fill="midnightblue" stroke="midnightblue" points="775.11,-193.5 765.11,-197 775.11,-200.5 775.11,-193.5"/>
</g>
<!-- Node29 -->
<g id="node29" class="node">
<title>Node29</title>
<g id="a_node29"><a xlink:href="classdrain_1_1Range.html" target="_top" xlink:title=" ">
<polygon fill="white" stroke="black" points="1866.5,-110.5 1866.5,-129.5 1949.5,-129.5 1949.5,-110.5 1866.5,-110.5"/>
<text text-anchor="middle" x="1908" y="-117.5" font-family="Helvetica,sans-Serif" font-size="10.00">Range&lt; int &gt;</text>
</a>
</g>
</g>
<!-- Node29&#45;&gt;Node1 -->
<g id="edge30" class="edge">
<title>Node29&#45;&gt;Node1</title>
<path fill="none" stroke="#9a32cd" stroke-dasharray="5,2" d="M1960.14,-118.59C2030.64,-117.35 2161.53,-117.59 2272,-132 2323.41,-138.71 2381.76,-153.57 2417.21,-163.44"/>
<polygon fill="#9a32cd" stroke="#9a32cd" points="1959.7,-115.1 1949.77,-118.79 1959.83,-122.1 1959.7,-115.1"/>
<text text-anchor="middle" x="2180.5" y="-146" font-family="Helvetica,sans-Serif" font-size="10.00"> jRange</text>
<text text-anchor="middle" x="2180.5" y="-135" font-family="Helvetica,sans-Serif" font-size="10.00">iRange</text>
</g>
<!-- Node29&#45;&gt;Node46 -->
<g id="edge50" class="edge">
<title>Node29&#45;&gt;Node46</title>
<path fill="none" stroke="#9a32cd" stroke-dasharray="5,2" d="M1959.74,-128.03C1991.74,-133.28 2033.89,-140.52 2071,-148 2094.12,-152.66 2119.84,-158.55 2140.44,-163.45"/>
<polygon fill="#9a32cd" stroke="#9a32cd" points="1960.16,-124.55 1949.73,-126.4 1959.04,-131.46 1960.16,-124.55"/>
<text text-anchor="middle" x="2024" y="-162" font-family="Helvetica,sans-Serif" font-size="10.00"> yRange</text>
<text text-anchor="middle" x="2024" y="-151" font-family="Helvetica,sans-Serif" font-size="10.00">xRange</text>
</g>
<!-- Node30 -->
<g id="node30" class="node">
<title>Node30</title>
<g id="a_node30"><a xlink:href="classdrain_1_1UniTuple.html" target="_top" xlink:title=" ">
<polygon fill="white" stroke="black" points="1699,-110.5 1699,-129.5 1805,-129.5 1805,-110.5 1699,-110.5"/>
<text text-anchor="middle" x="1752" y="-117.5" font-family="Helvetica,sans-Serif" font-size="10.00">UniTuple&lt; int, 2 &gt;</text>
</a>
</g>
</g>
<!-- Node30&#45;&gt;Node29 -->
<g id="edge31" class="edge">
<title>Node30&#45;&gt;Node29</title>
<path fill="none" stroke="midnightblue" d="M1815.58,-120C1832.62,-120 1850.62,-120 1866.11,-120"/>
<polygon fill="midnightblue" stroke="midnightblue" points="1815.14,-116.5 1805.14,-120 1815.14,-123.5 1815.14,-116.5"/>
</g>
<!-- Node44 -->
<g id="node44" class="node">
<title>Node44</title>
<g id="a_node44"><a xlink:href="classdrain_1_1Frame2D.html" target="_top" xlink:title=" ">
<polygon fill="white" stroke="black" points="1860,-165.5 1860,-184.5 1956,-184.5 1956,-165.5 1860,-165.5"/>
<text text-anchor="middle" x="1908" y="-172.5" font-family="Helvetica,sans-Serif" font-size="10.00">Frame2D&lt; int &gt;</text>
</a>
</g>
</g>
<!-- Node30&#45;&gt;Node44 -->
<g id="edge46" class="edge">
<title>Node30&#45;&gt;Node44</title>
<path fill="none" stroke="midnightblue" d="M1789.6,-133.07C1817.45,-143.02 1855.14,-156.48 1880.22,-165.44"/>
<polygon fill="midnightblue" stroke="midnightblue" points="1790.42,-129.65 1779.82,-129.58 1788.06,-136.24 1790.42,-129.65"/>
</g>
<!-- Node45 -->
<g id="node45" class="node">
<title>Node45</title>
<g id="a_node45"><a xlink:href="structdrain_1_1Point2D.html" target="_top" xlink:title=" ">
<polygon fill="white" stroke="black" points="1979,-51.5 1979,-70.5 2069,-70.5 2069,-51.5 1979,-51.5"/>
<text text-anchor="middle" x="2024" y="-58.5" font-family="Helvetica,sans-Serif" font-size="10.00">Point2D&lt; int &gt;</text>
</a>
</g>
</g>
<!-- Node30&#45;&gt;Node45 -->
<g id="edge48" class="edge">
<title>Node30&#45;&gt;Node45</title>
<path fill="none" stroke="midnightblue" d="M1806.47,-108.32C1857.12,-97.25 1932.25,-80.83 1979.38,-70.53"/>
<polygon fill="midnightblue" stroke="midnightblue" points="1805.7,-104.9 1796.68,-110.46 1807.2,-111.74 1805.7,-104.9"/>
</g>
<!-- Node31 -->
<g id="node31" class="node">
<title>Node31</title>
<g id="a_node31"><a xlink:href="structdrain_1_1UnaryFunctor.html" target="_top" xlink:title=" ">
<polygon fill="white" stroke="black" points="2139.5,-0.5 2139.5,-19.5 2221.5,-19.5 2221.5,-0.5 2139.5,-0.5"/>
<text text-anchor="middle" x="2180.5" y="-7.5" font-family="Helvetica,sans-Serif" font-size="10.00">UnaryFunctor</text>
</a>
</g>
</g>
<!-- Node31&#45;&gt;Node1 -->
<g id="edge32" class="edge">
<title>Node31&#45;&gt;Node1</title>
<path fill="none" stroke="#9a32cd" stroke-dasharray="5,2" d="M2231.89,-2.23C2276.06,1.77 2339.91,0.44 2384,-31 2430.04,-63.83 2444.83,-137.05 2448.76,-163.36"/>
<polygon fill="#9a32cd" stroke="#9a32cd" points="2231.26,1.22 2221.67,-3.28 2231.98,-5.74 2231.26,1.22"/>
<text text-anchor="middle" x="2337" y="-34" font-family="Helvetica,sans-Serif" font-size="10.00"> myFunctor</text>
</g>
<!-- Node32 -->
<g id="node32" class="node">
<title>Node32</title>
<g id="a_node32"><a xlink:href="classdrain_1_1Functor.html" target="_top" xlink:title="Base class for sequential computations. Optional scaling utilities.">
<polygon fill="white" stroke="black" points="1881.5,-0.5 1881.5,-19.5 1934.5,-19.5 1934.5,-0.5 1881.5,-0.5"/>
<text text-anchor="middle" x="1908" y="-7.5" font-family="Helvetica,sans-Serif" font-size="10.00">Functor</text>
</a>
</g>
</g>
<!-- Node32&#45;&gt;Node31 -->
<g id="edge33" class="edge">
<title>Node32&#45;&gt;Node31</title>
<path fill="none" stroke="midnightblue" d="M1945.05,-10C1995.46,-10 2086.72,-10 2139.28,-10"/>
<polygon fill="midnightblue" stroke="midnightblue" points="1944.94,-6.5 1934.94,-10 1944.94,-13.5 1944.94,-6.5"/>
</g>
<!-- Node33 -->
<g id="node33" class="node">
<title>Node33</title>
<g id="a_node33"><a xlink:href="classdrain_1_1BeanLike.html" target="_top" xlink:title="Something which has a name, a description and possibly some parameters of varying type.">
<polygon fill="white" stroke="black" points="1721.5,-0.5 1721.5,-19.5 1782.5,-19.5 1782.5,-0.5 1721.5,-0.5"/>
<text text-anchor="middle" x="1752" y="-7.5" font-family="Helvetica,sans-Serif" font-size="10.00">BeanLike</text>
</a>
</g>
</g>
<!-- Node33&#45;&gt;Node32 -->
<g id="edge34" class="edge">
<title>Node33&#45;&gt;Node32</title>
<path fill="none" stroke="midnightblue" d="M1792.94,-10C1820.89,-10 1857.39,-10 1881.48,-10"/>
<polygon fill="midnightblue" stroke="midnightblue" points="1792.69,-6.5 1782.69,-10 1792.69,-13.5 1792.69,-6.5"/>
</g>
<!-- Node34 -->
<g id="node34" class="node">
<title>Node34</title>
<g id="a_node34"><a xlink:href="classdrain_1_1ReferenceMap.html" target="_top" xlink:title=" ">
<polygon fill="white" stroke="black" points="1466.5,-0.5 1466.5,-19.5 1553.5,-19.5 1553.5,-0.5 1466.5,-0.5"/>
<text text-anchor="middle" x="1510" y="-7.5" font-family="Helvetica,sans-Serif" font-size="10.00">ReferenceMap</text>
</a>
</g>
</g>
<!-- Node34&#45;&gt;Node33 -->
<g id="edge35" class="edge">
<title>Node34&#45;&gt;Node33</title>
<path fill="none" stroke="#9a32cd" stroke-dasharray="5,2" d="M1563.91,-10C1612.25,-10 1682.01,-10 1721.26,-10"/>
<polygon fill="#9a32cd" stroke="#9a32cd" points="1563.63,-6.5 1553.63,-10 1563.63,-13.5 1563.63,-6.5"/>
<text text-anchor="middle" x="1636" y="-13" font-family="Helvetica,sans-Serif" font-size="10.00"> parameters</text>
</g>
<!-- Node35 -->
<g id="node35" class="node">
<title>Node35</title>
<g id="a_node35"><a xlink:href="classdrain_1_1SmartMap.html" target="_top" xlink:title=" ">
<polygon fill="white" stroke="black" points="1186,-0.5 1186,-19.5 1329,-19.5 1329,-0.5 1186,-0.5"/>
<text text-anchor="middle" x="1257.5" y="-7.5" font-family="Helvetica,sans-Serif" font-size="10.00">SmartMap&lt; Referencer &gt;</text>
</a>
</g>
</g>
<!-- Node35&#45;&gt;Node34 -->
<g id="edge36" class="edge">
<title>Node35&#45;&gt;Node34</title>
<path fill="none" stroke="midnightblue" d="M1339.54,-10C1381.73,-10 1431.59,-10 1466.26,-10"/>
<polygon fill="midnightblue" stroke="midnightblue" points="1339.28,-6.5 1329.28,-10 1339.28,-13.5 1339.28,-6.5"/>
</g>
<!-- Node36 -->
<g id="node36" class="node">
<title>Node36</title>
<g id="a_node36"><a xlink:title=" ">
<polygon fill="white" stroke="#bfbfbf" points="886,-0.5 886,-19.5 1055,-19.5 1055,-0.5 886,-0.5"/>
<text text-anchor="middle" x="970.5" y="-7.5" font-family="Helvetica,sans-Serif" font-size="10.00">map&lt; std::string, Referencer &gt;</text>
</a>
</g>
</g>
<!-- Node36&#45;&gt;Node35 -->
<g id="edge37" class="edge">
<title>Node36&#45;&gt;Node35</title>
<path fill="none" stroke="midnightblue" d="M1065.21,-10C1104.53,-10 1149.48,-10 1185.92,-10"/>
<polygon fill="midnightblue" stroke="midnightblue" points="1065.08,-6.5 1055.08,-10 1065.08,-13.5 1065.08,-6.5"/>
</g>
<!-- Node37 -->
<g id="node37" class="node">
<title>Node37</title>
<g id="a_node37"><a xlink:href="classdrain_1_1UniCloner.html" target="_top" xlink:title=" ">
<polygon fill="white" stroke="black" points="2089,-269.5 2089,-288.5 2272,-288.5 2272,-269.5 2089,-269.5"/>
<text text-anchor="middle" x="2180.5" y="-276.5" font-family="Helvetica,sans-Serif" font-size="10.00">UniCloner&lt; drain::UnaryFunctor &gt;</text>
</a>
</g>
</g>
<!-- Node37&#45;&gt;Node1 -->
<g id="edge38" class="edge">
<title>Node37&#45;&gt;Node1</title>
<path fill="none" stroke="#9a32cd" stroke-dasharray="5,2" d="M2232.19,-266.92C2274,-256.03 2334.3,-238.18 2384,-215 2403.45,-205.93 2424.03,-192.06 2436.94,-182.76"/>
<polygon fill="#9a32cd" stroke="#9a32cd" points="2231.05,-263.59 2222.24,-269.47 2232.79,-270.37 2231.05,-263.59"/>
<text text-anchor="middle" x="2337" y="-253" font-family="Helvetica,sans-Serif" font-size="10.00"> unicloner</text>
</g>
<!-- Node38 -->
<g id="node38" class="node">
<title>Node38</title>
<g id="a_node38"><a xlink:href="classdrain_1_1Bank.html" target="_top" xlink:title=" ">
<polygon fill="white" stroke="black" points="1866.5,-301.5 1866.5,-320.5 1949.5,-320.5 1949.5,-301.5 1866.5,-301.5"/>
<text text-anchor="middle" x="1908" y="-308.5" font-family="Helvetica,sans-Serif" font-size="10.00">Bank&lt; T, K &gt;</text>
</a>
</g>
</g>
<!-- Node38&#45;&gt;Node37 -->
<g id="edge39" class="edge">
<title>Node38&#45;&gt;Node37</title>
<path fill="none" stroke="#9a32cd" stroke-dasharray="5,2" d="M1959.9,-304.98C1999.09,-300.34 2054,-293.85 2099.11,-288.51"/>
<polygon fill="#9a32cd" stroke="#9a32cd" points="1959.31,-301.52 1949.79,-306.17 1960.13,-308.48 1959.31,-301.52"/>
<text text-anchor="middle" x="2024" y="-306" font-family="Helvetica,sans-Serif" font-size="10.00"> bank</text>
</g>
<!-- Node39 -->
<g id="node39" class="node">
<title>Node39</title>
<g id="a_node39"><a xlink:title=" ">
<polygon fill="white" stroke="#bfbfbf" points="1684,-302 1684,-332 1820,-332 1820,-302 1684,-302"/>
<text text-anchor="start" x="1692" y="-320" font-family="Helvetica,sans-Serif" font-size="10.00">map&lt; std::string, Cloner</text>
<text text-anchor="middle" x="1752" y="-309" font-family="Helvetica,sans-Serif" font-size="10.00">Base&lt; T &gt; * &gt;</text>
</a>
</g>
</g>
<!-- Node39&#45;&gt;Node38 -->
<g id="edge40" class="edge">
<title>Node39&#45;&gt;Node38</title>
<path fill="none" stroke="darkgreen" d="M1830.1,-314C1842.6,-313.51 1855.1,-313.02 1866.27,-312.59"/>
<polygon fill="darkgreen" stroke="darkgreen" points="1829.95,-310.5 1820.1,-314.39 1830.23,-317.49 1829.95,-310.5"/>
</g>
<!-- Node40 -->
<g id="node40" class="node">
<title>Node40</title>
<g id="a_node40"><a xlink:href="classdrain_1_1image_1_1WindowConfig.html" target="_top" xlink:title="Base class for configurations applied in image processing windows, e.g. for operators of type WindowO...">
<polygon fill="white" stroke="black" points="2137,-201.5 2137,-220.5 2224,-220.5 2224,-201.5 2137,-201.5"/>
<text text-anchor="middle" x="2180.5" y="-208.5" font-family="Helvetica,sans-Serif" font-size="10.00">WindowConfig</text>
</a>
</g>
</g>
<!-- Node40&#45;&gt;Node1 -->
<g id="edge41" class="edge">
<title>Node40&#45;&gt;Node1</title>
<path fill="none" stroke="#9a32cd" stroke-dasharray="5,2" d="M2234.36,-206.07C2275.33,-201.92 2333.44,-195.34 2384,-187 2391.74,-185.72 2399.95,-184.15 2407.86,-182.54"/>
<polygon fill="#9a32cd" stroke="#9a32cd" points="2233.93,-202.59 2224.33,-207.07 2234.62,-209.56 2233.93,-202.59"/>
<text text-anchor="middle" x="2337" y="-203" font-family="Helvetica,sans-Serif" font-size="10.00"> conf</text>
</g>
<!-- Node41 -->
<g id="node41" class="node">
<title>Node41</title>
<g id="a_node41"><a xlink:href="classdrain_1_1VariableMap.html" target="_top" xlink:title="A map of Variables.">
<polygon fill="white" stroke="black" points="1869,-263.5 1869,-282.5 1947,-282.5 1947,-263.5 1869,-263.5"/>
<text text-anchor="middle" x="1908" y="-270.5" font-family="Helvetica,sans-Serif" font-size="10.00">VariableMap</text>
</a>
</g>
</g>
<!-- Node41&#45;&gt;Node40 -->
<g id="edge42" class="edge">
<title>Node41&#45;&gt;Node40</title>
<path fill="none" stroke="#9a32cd" stroke-dasharray="5,2" d="M1957.14,-267.82C1989.59,-263.78 2033.22,-257.28 2071,-248 2100.57,-240.74 2133.55,-228.94 2155.3,-220.62"/>
<polygon fill="#9a32cd" stroke="#9a32cd" points="1956.52,-264.37 1947.01,-269.05 1957.36,-271.32 1956.52,-264.37"/>
<text text-anchor="middle" x="2024" y="-268" font-family="Helvetica,sans-Serif" font-size="10.00"> functorParameters</text>
</g>
<!-- Node42 -->
<g id="node42" class="node">
<title>Node42</title>
<g id="a_node42"><a xlink:href="classdrain_1_1SmartMap.html" target="_top" xlink:title=" ">
<polygon fill="white" stroke="black" points="1687,-263.5 1687,-282.5 1817,-282.5 1817,-263.5 1687,-263.5"/>
<text text-anchor="middle" x="1752" y="-270.5" font-family="Helvetica,sans-Serif" font-size="10.00">SmartMap&lt; Variable &gt;</text>
</a>
</g>
</g>
<!-- Node42&#45;&gt;Node41 -->
<g id="edge43" class="edge">
<title>Node42&#45;&gt;Node41</title>
<path fill="none" stroke="midnightblue" d="M1827.73,-273C1841.96,-273 1856.28,-273 1868.77,-273"/>
<polygon fill="midnightblue" stroke="midnightblue" points="1827.42,-269.5 1817.42,-273 1827.42,-276.5 1827.42,-269.5"/>
</g>
<!-- Node43 -->
<g id="node43" class="node">
<title>Node43</title>
<g id="a_node43"><a xlink:title=" ">
<polygon fill="white" stroke="#bfbfbf" points="1432,-264.5 1432,-283.5 1588,-283.5 1588,-264.5 1432,-264.5"/>
<text text-anchor="middle" x="1510" y="-271.5" font-family="Helvetica,sans-Serif" font-size="10.00">map&lt; std::string, Variable &gt;</text>
</a>
</g>
</g>
<!-- Node43&#45;&gt;Node42 -->
<g id="edge44" class="edge">
<title>Node43&#45;&gt;Node42</title>
<path fill="none" stroke="midnightblue" d="M1598.46,-273.64C1627.66,-273.51 1659.64,-273.38 1686.74,-273.27"/>
<polygon fill="midnightblue" stroke="midnightblue" points="1598.24,-270.14 1588.26,-273.68 1598.27,-277.14 1598.24,-270.14"/>
</g>
<!-- Node44&#45;&gt;Node40 -->
<g id="edge45" class="edge">
<title>Node44&#45;&gt;Node40</title>
<path fill="none" stroke="#9a32cd" stroke-dasharray="5,2" d="M1966.32,-185.35C1969.93,-185.93 1973.51,-186.49 1977,-187 2031.99,-195.1 2095.69,-202.29 2136.74,-206.64"/>
<polygon fill="#9a32cd" stroke="#9a32cd" points="1966.57,-181.85 1956.13,-183.67 1965.43,-188.75 1966.57,-181.85"/>
<text text-anchor="middle" x="2024" y="-202" font-family="Helvetica,sans-Serif" font-size="10.00"> frame</text>
</g>
<!-- Node44&#45;&gt;Node46 -->
<g id="edge51" class="edge">
<title>Node44&#45;&gt;Node46</title>
<path fill="none" stroke="#9a32cd" stroke-dasharray="5,2" d="M1966.28,-174.58C2011.19,-174.24 2073.51,-173.78 2119.18,-173.45"/>
<polygon fill="#9a32cd" stroke="#9a32cd" points="1966.09,-171.08 1956.12,-174.65 1966.14,-178.08 1966.09,-171.08"/>
<text text-anchor="middle" x="2024" y="-178" font-family="Helvetica,sans-Serif" font-size="10.00"> area</text>
</g>
<!-- Node45&#45;&gt;Node1 -->
<g id="edge47" class="edge">
<title>Node45&#45;&gt;Node1</title>
<path fill="none" stroke="#9a32cd" stroke-dasharray="5,2" d="M2079.08,-51.23C2153.43,-40.73 2288.8,-32.39 2384,-89 2414.61,-107.2 2436.43,-145.35 2445.43,-163.29"/>
<polygon fill="#9a32cd" stroke="#9a32cd" points="2078.39,-47.79 2069.01,-52.72 2079.41,-54.72 2078.39,-47.79"/>
<text text-anchor="middle" x="2180.5" y="-53" font-family="Helvetica,sans-Serif" font-size="10.00"> location</text>
</g>
<!-- Node46&#45;&gt;Node1 -->
<g id="edge49" class="edge">
<title>Node46&#45;&gt;Node1</title>
<path fill="none" stroke="#9a32cd" stroke-dasharray="5,2" d="M2251.9,-173C2299.02,-173 2359.84,-173 2401.58,-173"/>
<polygon fill="#9a32cd" stroke="#9a32cd" points="2251.76,-169.5 2241.76,-173 2251.76,-176.5 2251.76,-169.5"/>
<text text-anchor="middle" x="2337" y="-176" font-family="Helvetica,sans-Serif" font-size="10.00"> coordinateHandler</text>
</g>
</g>
</svg>
        <g id="navigator" transform="translate(0 0)" fill="#404254">
                <rect fill="#f2f5e9" fill-opacity="0.5" stroke="#606060" stroke-width=".5" x="0" y="0" width="60" height="60"/>
                <use id="zoomplus" xlink:href="#zoomPlus" x="17" y="9" onmousedown="handleZoom(evt,'in')"/>
                <use id="zoomminus" xlink:href="#zoomMin" x="42" y="9" onmousedown="handleZoom(evt,'out')"/>
                <use id="reset" xlink:href="#resetDef" x="30" y="36" onmousedown="handleReset()"/>
                <g id="arrowUp" xlink:href="#dirArrow" transform="translate(30 24)" onmousedown="handlePan(0,-1)">
                  <use xlink:href="#rim" fill="#404040">
                        <set attributeName="fill" to="#808080" begin="arrowUp.mouseover" end="arrowUp.mouseout"/>
                  </use>
                  <path fill="none" stroke="white" stroke-width="1.5" d="M0,-3.0v7 M-2.5,-0.5L0,-3.0L2.5,-0.5"/>
                </g>
                <g id="arrowRight" xlink:href="#dirArrow" transform="rotate(90) translate(36 -43)" onmousedown="handlePan(1,0)">
                  <use xlink:href="#rim" fill="#404040">
                        <set attributeName="fill" to="#808080" begin="arrowRight.mouseover" end="arrowRight.mouseout"/>
                  </use>
                  <path fill="none" stroke="white" stroke-width="1.5" d="M0,-3.0v7 M-2.5,-0.5L0,-3.0L2.5,-0.5"/>
                </g>
                <g id="arrowDown" xlink:href="#dirArrow" transform="rotate(180) translate(-30 -48)" onmousedown="handlePan(0,1)">
                  <use xlink:href="#rim" fill="#404040">
                        <set attributeName="fill" to="#808080" begin="arrowDown.mouseover" end="arrowDown.mouseout"/>
                  </use>
                  <path fill="none" stroke="white" stroke-width="1.5" d="M0,-3.0v7 M-2.5,-0.5L0,-3.0L2.5,-0.5"/>
                </g>
                <g id="arrowLeft" xlink:href="#dirArrow" transform="rotate(270) translate(-36 17)" onmousedown="handlePan(-1,0)">
                  <use xlink:href="#rim" fill="#404040">
                        <set attributeName="fill" to="#808080" begin="arrowLeft.mouseover" end="arrowLeft.mouseout"/>
                  </use>
                  <path fill="none" stroke="white" stroke-width="1.5" d="M0,-3.0v7 M-2.5,-0.5L0,-3.0L2.5,-0.5"/>
                </g>
        </g>
        <svg viewBox="0 0 15 15" width="100%" height="30px" preserveAspectRatio="xMaxYMin meet">
         <g id="arrow_out" transform="scale(0.3 0.3)">
          <a xlink:href="classdrain_1_1image_1_1Window__coll__graph_org.svg" target="_base">
           <rect id="button" ry="5" rx="5" y="6" x="6" height="38" width="38"
                fill="#f2f5e9" fill-opacity="0.5" stroke="#606060" stroke-width="1.0"/>
           <path id="arrow"
             d="M 11.500037,31.436501 C 11.940474,20.09759 22.043105,11.32322 32.158766,21.979434 L 37.068811,17.246167 C 37.068811,17.246167 37.088388,32 37.088388,32 L 22.160133,31.978069 C 22.160133,31.978069 26.997745,27.140456 26.997745,27.140456 C 18.528582,18.264221 13.291696,25.230495 11.500037,31.436501 z"
             style="fill:#404040;"/>
          </a>
         </g>
        </svg>
</svg>
