<?xml version="1.0" encoding="UTF-8" standalone="no"?>
<!DOCTYPE svg PUBLIC "-//W3C//DTD SVG 1.1//EN"
 "http://www.w3.org/Graphics/SVG/1.1/DTD/svg11.dtd">
<!-- Generated by graphviz version 2.43.0 (0)
 -->
<!-- Title: RackContext Pages: 1 -->
<svg width="488pt" height="140pt"
 viewBox="0.00 0.00 488.00 140.00" xmlns="http://www.w3.org/2000/svg" xmlns:xlink="http://www.w3.org/1999/xlink">
<g id="graph0" class="graph" transform="scale(1 1) rotate(0) translate(4 136)">
<title>RackContext</title>
<polygon fill="white" stroke="transparent" points="-4,4 -4,-136 484,-136 484,4 -4,4"/>
<!-- Node1 -->
<g id="node1" class="node">
<title>Node1</title>
<g id="a_node1"><a xlink:title="Resources provided separately for each thread.">
<polygon fill="#bfbfbf" stroke="black" points="199.5,-0.5 199.5,-19.5 278.5,-19.5 278.5,-0.5 199.5,-0.5"/>
<text text-anchor="middle" x="239" y="-7.5" font-family="Helvetica,sans-Serif" font-size="10.00">RackContext</text>
</a>
</g>
</g>
<!-- Node2 -->
<g id="node2" class="node">
<title>Node2</title>
<g id="a_node2"><a xlink:href="structrack_1_1ProductConf.html" target="_top" xlink:title="Shared properties for meteorological products and Cartesian products (composites and single&#45;radar ima...">
<polygon fill="white" stroke="black" points="0,-56.5 0,-75.5 76,-75.5 76,-56.5 0,-56.5"/>
<text text-anchor="middle" x="38" y="-63.5" font-family="Helvetica,sans-Serif" font-size="10.00">ProductConf</text>
</a>
</g>
</g>
<!-- Node2&#45;&gt;Node1 -->
<g id="edge1" class="edge">
<title>Node2&#45;&gt;Node1</title>
<path fill="none" stroke="midnightblue" d="M79.58,-53.83C117.53,-43.63 172.81,-28.78 207.3,-19.52"/>
<polygon fill="midnightblue" stroke="midnightblue" points="78.6,-50.47 69.85,-56.44 80.41,-57.23 78.6,-50.47"/>
</g>
<!-- Node3 -->
<g id="node3" class="node">
<title>Node3</title>
<g id="a_node3"><a xlink:href="classdrain_1_1SmartContext.html" target="_top" xlink:title=" ">
<polygon fill="white" stroke="black" points="94,-56.5 94,-75.5 178,-75.5 178,-56.5 94,-56.5"/>
<text text-anchor="middle" x="136" y="-63.5" font-family="Helvetica,sans-Serif" font-size="10.00">SmartContext</text>
</a>
</g>
</g>
<!-- Node3&#45;&gt;Node1 -->
<g id="edge2" class="edge">
<title>Node3&#45;&gt;Node1</title>
<path fill="none" stroke="midnightblue" d="M161.58,-51.59C180.62,-41.61 206.06,-28.27 222.49,-19.65"/>
<polygon fill="midnightblue" stroke="midnightblue" points="159.78,-48.58 152.55,-56.32 163.03,-54.78 159.78,-48.58"/>
</g>
<!-- Node4 -->
<g id="node4" class="node">
<title>Node4</title>
<g id="a_node4"><a xlink:href="classdrain_1_1Context.html" target="_top" xlink:title=" ">
<polygon fill="white" stroke="black" points="68.5,-112.5 68.5,-131.5 123.5,-131.5 123.5,-112.5 68.5,-112.5"/>
<text text-anchor="middle" x="96" y="-119.5" font-family="Helvetica,sans-Serif" font-size="10.00">Context</text>
</a>
</g>
</g>
<!-- Node4&#45;&gt;Node3 -->
<g id="edge3" class="edge">
<title>Node4&#45;&gt;Node3</title>
<path fill="none" stroke="midnightblue" d="M108.7,-103.86C115.63,-94.5 123.91,-83.33 129.52,-75.75"/>
<polygon fill="midnightblue" stroke="midnightblue" points="105.75,-101.96 102.61,-112.08 111.37,-106.13 105.75,-101.96"/>
</g>
<!-- Node5 -->
<g id="node5" class="node">
<title>Node5</title>
<g id="a_node5"><a xlink:href="classdrain_1_1ContextKit.html" target="_top" xlink:title="Utilities.">
<polygon fill="white" stroke="black" points="142,-112.5 142,-131.5 210,-131.5 210,-112.5 142,-112.5"/>
<text text-anchor="middle" x="176" y="-119.5" font-family="Helvetica,sans-Serif" font-size="10.00">ContextKit</text>
</a>
</g>
</g>
<!-- Node5&#45;&gt;Node3 -->
<g id="edge4" class="edge">
<title>Node5&#45;&gt;Node3</title>
<path fill="none" stroke="midnightblue" d="M163.3,-103.86C156.37,-94.5 148.09,-83.33 142.48,-75.75"/>
<polygon fill="midnightblue" stroke="midnightblue" points="160.63,-106.13 169.39,-112.08 166.25,-101.96 160.63,-106.13"/>
</g>
<!-- Node6 -->
<g id="node6" class="node">
<title>Node6</title>
<g id="a_node6"><a xlink:href="classrack_1_1ImageContext.html" target="_top" xlink:title=" ">
<polygon fill="white" stroke="black" points="196,-56.5 196,-75.5 282,-75.5 282,-56.5 196,-56.5"/>
<text text-anchor="middle" x="239" y="-63.5" font-family="Helvetica,sans-Serif" font-size="10.00">ImageContext</text>
</a>
</g>
</g>
<!-- Node6&#45;&gt;Node1 -->
<g id="edge5" class="edge">
<title>Node6&#45;&gt;Node1</title>
<path fill="none" stroke="midnightblue" d="M239,-45.8C239,-36.91 239,-26.78 239,-19.75"/>
<polygon fill="midnightblue" stroke="midnightblue" points="235.5,-46.08 239,-56.08 242.5,-46.08 235.5,-46.08"/>
</g>
<!-- Node7 -->
<g id="node7" class="node">
<title>Node7</title>
<g id="a_node7"><a xlink:href="classrack_1_1AndreContext.html" target="_top" xlink:title=" ">
<polygon fill="white" stroke="black" points="300.5,-56.5 300.5,-75.5 383.5,-75.5 383.5,-56.5 300.5,-56.5"/>
<text text-anchor="middle" x="342" y="-63.5" font-family="Helvetica,sans-Serif" font-size="10.00">AndreContext</text>
</a>
</g>
</g>
<!-- Node7&#45;&gt;Node1 -->
<g id="edge6" class="edge">
<title>Node7&#45;&gt;Node1</title>
<path fill="none" stroke="midnightblue" d="M316.42,-51.59C297.38,-41.61 271.94,-28.27 255.51,-19.65"/>
<polygon fill="midnightblue" stroke="midnightblue" points="314.97,-54.78 325.45,-56.32 318.22,-48.58 314.97,-54.78"/>
</g>
<!-- Node8 -->
<g id="node8" class="node">
<title>Node8</title>
<g id="a_node8"><a xlink:href="classrack_1_1Hdf5Context.html" target="_top" xlink:title=" ">
<polygon fill="white" stroke="black" points="402,-56.5 402,-75.5 480,-75.5 480,-56.5 402,-56.5"/>
<text text-anchor="middle" x="441" y="-63.5" font-family="Helvetica,sans-Serif" font-size="10.00">Hdf5Context</text>
</a>
</g>
</g>
<!-- Node8&#45;&gt;Node1 -->
<g id="edge7" class="edge">
<title>Node8&#45;&gt;Node1</title>
<path fill="none" stroke="midnightblue" d="M399.21,-53.83C361.07,-43.63 305.52,-28.78 270.86,-19.52"/>
<polygon fill="midnightblue" stroke="midnightblue" points="398.43,-57.24 408.99,-56.44 400.24,-50.48 398.43,-57.24"/>
</g>
</g>
</svg>
