<?xml version="1.0" encoding="UTF-8" standalone="no"?>
<!DOCTYPE svg PUBLIC "-//W3C//DTD SVG 1.1//EN"
 "http://www.w3.org/Graphics/SVG/1.1/DTD/svg11.dtd">
<!-- Generated by graphviz version 2.43.0 (0)
 -->
<!-- Title: Histogram Pages: 1 -->
<svg width="359pt" height="219pt"
 viewBox="0.00 0.00 359.00 219.00" xmlns="http://www.w3.org/2000/svg" xmlns:xlink="http://www.w3.org/1999/xlink">
<g id="graph0" class="graph" transform="scale(1 1) rotate(0) translate(4 215)">
<title>Histogram</title>
<polygon fill="white" stroke="transparent" points="-4,4 -4,-215 355,-215 355,4 -4,4"/>
<!-- Node1 -->
<g id="node1" class="node">
<title>Node1</title>
<g id="a_node1"><a xlink:title="Class for computing a histogram and some statistics: average, min, max, mean, std....">
<polygon fill="#bfbfbf" stroke="black" points="51,-0.5 51,-19.5 119,-19.5 119,-0.5 51,-0.5"/>
<text text-anchor="middle" x="85" y="-7.5" font-family="Helvetica,sans-Serif" font-size="10.00">Histogram</text>
</a>
</g>
</g>
<!-- Node2 -->
<g id="node2" class="node">
<title>Node2</title>
<g id="a_node2"><a xlink:title=" ">
<polygon fill="white" stroke="#bfbfbf" points="0,-67.5 0,-86.5 138,-86.5 138,-67.5 0,-67.5"/>
<text text-anchor="middle" x="69" y="-74.5" font-family="Helvetica,sans-Serif" font-size="10.00">vector&lt; unsigned long &gt;</text>
</a>
</g>
</g>
<!-- Node2&#45;&gt;Node1 -->
<g id="edge1" class="edge">
<title>Node2&#45;&gt;Node1</title>
<path fill="none" stroke="darkgreen" d="M73.57,-57.41C76.63,-44.99 80.52,-29.22 82.88,-19.63"/>
<polygon fill="darkgreen" stroke="darkgreen" points="70.15,-56.69 71.16,-67.23 76.95,-58.36 70.15,-56.69"/>
</g>
<!-- Node3 -->
<g id="node3" class="node">
<title>Node3</title>
<g id="a_node3"><a xlink:href="classdrain_1_1ValueScaling.html" target="_top" xlink:title="Linear scaling and physical range for image intensities.">
<polygon fill="white" stroke="black" points="156,-67.5 156,-86.5 236,-86.5 236,-67.5 156,-67.5"/>
<text text-anchor="middle" x="196" y="-74.5" font-family="Helvetica,sans-Serif" font-size="10.00">ValueScaling</text>
</a>
</g>
</g>
<!-- Node3&#45;&gt;Node1 -->
<g id="edge2" class="edge">
<title>Node3&#45;&gt;Node1</title>
<path fill="none" stroke="#9a32cd" stroke-dasharray="5,2" d="M172.29,-62.12C150.3,-49.24 118.26,-30.48 99.73,-19.63"/>
<polygon fill="#9a32cd" stroke="#9a32cd" points="170.63,-65.2 181.03,-67.23 174.17,-59.16 170.63,-65.2"/>
<text text-anchor="middle" x="167" y="-41" font-family="Helvetica,sans-Serif" font-size="10.00"> scaling</text>
</g>
<!-- Node4 -->
<g id="node4" class="node">
<title>Node4</title>
<g id="a_node4"><a xlink:href="classdrain_1_1UniTuple.html" target="_top" xlink:title=" ">
<polygon fill="white" stroke="black" points="92,-134.5 92,-153.5 218,-153.5 218,-134.5 92,-134.5"/>
<text text-anchor="middle" x="155" y="-141.5" font-family="Helvetica,sans-Serif" font-size="10.00">UniTuple&lt; double, 4 &gt;</text>
</a>
</g>
</g>
<!-- Node4&#45;&gt;Node3 -->
<g id="edge3" class="edge">
<title>Node4&#45;&gt;Node3</title>
<path fill="none" stroke="midnightblue" d="M166.02,-125.53C173.95,-112.95 184.33,-96.51 190.56,-86.63"/>
<polygon fill="midnightblue" stroke="midnightblue" points="162.9,-123.91 160.53,-134.23 168.82,-127.64 162.9,-123.91"/>
</g>
<!-- Node5 -->
<g id="node5" class="node">
<title>Node5</title>
<g id="a_node5"><a xlink:href="classdrain_1_1Range.html" target="_top" xlink:title=" ">
<polygon fill="white" stroke="black" points="236.5,-134.5 236.5,-153.5 339.5,-153.5 339.5,-134.5 236.5,-134.5"/>
<text text-anchor="middle" x="288" y="-141.5" font-family="Helvetica,sans-Serif" font-size="10.00">Range&lt; double &gt;</text>
</a>
</g>
</g>
<!-- Node5&#45;&gt;Node3 -->
<g id="edge4" class="edge">
<title>Node5&#45;&gt;Node3</title>
<path fill="none" stroke="#9a32cd" stroke-dasharray="5,2" d="M267.36,-128.42C249.18,-115.57 223.29,-97.28 208.21,-86.63"/>
<polygon fill="#9a32cd" stroke="#9a32cd" points="265.41,-131.32 275.59,-134.23 269.44,-125.6 265.41,-131.32"/>
<text text-anchor="middle" x="276" y="-108" font-family="Helvetica,sans-Serif" font-size="10.00"> physRange</text>
</g>
<!-- Node6 -->
<g id="node6" class="node">
<title>Node6</title>
<g id="a_node6"><a xlink:href="classdrain_1_1UniTuple.html" target="_top" xlink:title=" ">
<polygon fill="white" stroke="black" points="225,-191.5 225,-210.5 351,-210.5 351,-191.5 225,-191.5"/>
<text text-anchor="middle" x="288" y="-198.5" font-family="Helvetica,sans-Serif" font-size="10.00">UniTuple&lt; double, 2 &gt;</text>
</a>
</g>
</g>
<!-- Node6&#45;&gt;Node5 -->
<g id="edge5" class="edge">
<title>Node6&#45;&gt;Node5</title>
<path fill="none" stroke="midnightblue" d="M288,-181.12C288,-171.82 288,-161.06 288,-153.71"/>
<polygon fill="midnightblue" stroke="midnightblue" points="284.5,-181.41 288,-191.41 291.5,-181.41 284.5,-181.41"/>
</g>
</g>
</svg>
