<?xml version="1.0" encoding="UTF-8" standalone="no"?>
<!DOCTYPE svg PUBLIC "-//W3C//DTD SVG 1.1//EN"
 "http://www.w3.org/Graphics/SVG/1.1/DTD/svg11.dtd">
<!-- Generated by graphviz version 2.43.0 (0)
 -->
<!-- Title: RainRateOp Pages: 1 -->
<svg width="1660pt" height="275pt"
 viewBox="0.00 0.00 1660.00 274.50" xmlns="http://www.w3.org/2000/svg" xmlns:xlink="http://www.w3.org/1999/xlink">
<g id="graph0" class="graph" transform="scale(1 1) rotate(0) translate(4 270.5)">
<title>RainRateOp</title>
<polygon fill="white" stroke="transparent" points="-4,4 -4,-270.5 1656,-270.5 1656,4 -4,4"/>
<!-- Node1 -->
<g id="node1" class="node">
<title>Node1</title>
<g id="a_node1"><a xlink:title="Computes rain rate from dBZ.">
<polygon fill="#bfbfbf" stroke="black" points="1578,-113.5 1578,-132.5 1652,-132.5 1652,-113.5 1578,-113.5"/>
<text text-anchor="middle" x="1615" y="-120.5" font-family="Helvetica,sans-Serif" font-size="10.00">RainRateOp</text>
</a>
</g>
</g>
<!-- Node2 -->
<g id="node2" class="node">
<title>Node2</title>
<g id="a_node2"><a xlink:href="classrack_1_1PolarProductOp.html" target="_top" xlink:title="Base class for flat (2D) products computed in the polar coordinate system. Volume is used as input.">
<polygon fill="white" stroke="black" points="1375,-227.5 1375,-246.5 1467,-246.5 1467,-227.5 1375,-227.5"/>
<text text-anchor="middle" x="1421" y="-234.5" font-family="Helvetica,sans-Serif" font-size="10.00">PolarProductOp</text>
</a>
</g>
</g>
<!-- Node2&#45;&gt;Node1 -->
<g id="edge1" class="edge">
<title>Node2&#45;&gt;Node1</title>
<path fill="none" stroke="midnightblue" d="M1477.13,-233.24C1504.07,-229.17 1535.81,-220.86 1560,-204 1586.34,-185.64 1603.33,-149.91 1610.34,-132.71"/>
<polygon fill="midnightblue" stroke="midnightblue" points="1476.5,-229.79 1467.06,-234.6 1477.44,-236.73 1476.5,-229.79"/>
</g>
<!-- Node3 -->
<g id="node3" class="node">
<title>Node3</title>
<g id="a_node3"><a xlink:href="classrack_1_1VolumeOp.html" target="_top" xlink:title=" ">
<polygon fill="white" stroke="black" points="1111,-240.5 1111,-259.5 1253,-259.5 1253,-240.5 1111,-240.5"/>
<text text-anchor="middle" x="1182" y="-247.5" font-family="Helvetica,sans-Serif" font-size="10.00">VolumeOp&lt; PolarODIM &gt;</text>
</a>
</g>
</g>
<!-- Node3&#45;&gt;Node2 -->
<g id="edge2" class="edge">
<title>Node3&#45;&gt;Node2</title>
<path fill="none" stroke="midnightblue" d="M1263.46,-245.59C1300.59,-243.55 1343.29,-241.21 1374.71,-239.48"/>
<polygon fill="midnightblue" stroke="midnightblue" points="1262.94,-242.11 1253.15,-246.15 1263.32,-249.1 1262.94,-242.11"/>
</g>
<!-- Node4 -->
<g id="node4" class="node">
<title>Node4</title>
<g id="a_node4"><a xlink:href="classdrain_1_1image_1_1ProductOp.html" target="_top" xlink:title=" ">
<polygon fill="white" stroke="black" points="891,-236 891,-266 1053,-266 1053,-236 891,-236"/>
<text text-anchor="start" x="899" y="-254" font-family="Helvetica,sans-Serif" font-size="10.00">ProductOp&lt; const PolarODIM,</text>
<text text-anchor="middle" x="972" y="-243" font-family="Helvetica,sans-Serif" font-size="10.00"> PolarODIM &gt;</text>
</a>
</g>
</g>
<!-- Node4&#45;&gt;Node3 -->
<g id="edge3" class="edge">
<title>Node4&#45;&gt;Node3</title>
<path fill="none" stroke="midnightblue" d="M1063.45,-250.57C1079.3,-250.49 1095.57,-250.41 1110.76,-250.34"/>
<polygon fill="midnightblue" stroke="midnightblue" points="1063.1,-247.07 1053.12,-250.61 1063.14,-254.07 1063.1,-247.07"/>
</g>
<!-- Node5 -->
<g id="node5" class="node">
<title>Node5</title>
<g id="a_node5"><a xlink:href="classdrain_1_1image_1_1CoordinatePolicy.html" target="_top" xlink:title="Policies for coordinate underflows and overflows.">
<polygon fill="white" stroke="black" points="1132.5,-192.5 1132.5,-211.5 1231.5,-211.5 1231.5,-192.5 1132.5,-192.5"/>
<text text-anchor="middle" x="1182" y="-199.5" font-family="Helvetica,sans-Serif" font-size="10.00">CoordinatePolicy</text>
</a>
</g>
</g>
<!-- Node5&#45;&gt;Node2 -->
<g id="edge4" class="edge">
<title>Node5&#45;&gt;Node2</title>
<path fill="none" stroke="#9a32cd" stroke-dasharray="5,2" d="M1242.02,-208.96C1275.76,-213.14 1318.83,-218.85 1357,-225 1362.83,-225.94 1368.94,-227 1374.97,-228.1"/>
<polygon fill="#9a32cd" stroke="#9a32cd" points="1242.21,-205.45 1231.86,-207.71 1241.36,-212.4 1242.21,-205.45"/>
<text text-anchor="middle" x="1314" y="-228" font-family="Helvetica,sans-Serif" font-size="10.00"> polarCoordPolicy</text>
</g>
<!-- Node6 -->
<g id="node6" class="node">
<title>Node6</title>
<g id="a_node6"><a xlink:href="classdrain_1_1UniTuple.html" target="_top" xlink:title=" ">
<polygon fill="white" stroke="black" points="913.5,-187 913.5,-217 1030.5,-217 1030.5,-187 913.5,-187"/>
<text text-anchor="start" x="921.5" y="-205" font-family="Helvetica,sans-Serif" font-size="10.00">UniTuple&lt; coord_pol</text>
<text text-anchor="middle" x="972" y="-194" font-family="Helvetica,sans-Serif" font-size="10.00">_t, 4 &gt;</text>
</a>
</g>
</g>
<!-- Node6&#45;&gt;Node5 -->
<g id="edge5" class="edge">
<title>Node6&#45;&gt;Node5</title>
<path fill="none" stroke="midnightblue" d="M1041.01,-202C1070.84,-202 1105.18,-202 1132.38,-202"/>
<polygon fill="midnightblue" stroke="midnightblue" points="1040.66,-198.5 1030.66,-202 1040.66,-205.5 1040.66,-198.5"/>
</g>
<!-- Node7 -->
<g id="node7" class="node">
<title>Node7</title>
<g id="a_node7"><a xlink:href="classdrain_1_1Dictionary2.html" target="_top" xlink:title="Two&#45;way mapping between strings and objects of template class T.">
<polygon fill="white" stroke="black" points="914.5,-148.5 914.5,-167.5 1029.5,-167.5 1029.5,-148.5 914.5,-148.5"/>
<text text-anchor="middle" x="972" y="-155.5" font-family="Helvetica,sans-Serif" font-size="10.00">Dictionary2&lt; K, V &gt;</text>
</a>
</g>
</g>
<!-- Node7&#45;&gt;Node5 -->
<g id="edge6" class="edge">
<title>Node7&#45;&gt;Node5</title>
<path fill="none" stroke="#9a32cd" stroke-dasharray="5,2" d="M1028.27,-169.69C1061.92,-176.81 1104.36,-185.79 1135.96,-192.47"/>
<polygon fill="#9a32cd" stroke="#9a32cd" points="1028.64,-166.19 1018.13,-167.55 1027.19,-173.04 1028.64,-166.19"/>
<text text-anchor="middle" x="1082" y="-185" font-family="Helvetica,sans-Serif" font-size="10.00"> dict</text>
</g>
<!-- Node8 -->
<g id="node8" class="node">
<title>Node8</title>
<g id="a_node8"><a xlink:title=" ">
<polygon fill="white" stroke="#bfbfbf" points="667,-143 667,-173 771,-173 771,-143 667,-143"/>
<text text-anchor="start" x="675" y="-161" font-family="Helvetica,sans-Serif" font-size="10.00">list&lt; std::pair&lt; K,</text>
<text text-anchor="middle" x="719" y="-150" font-family="Helvetica,sans-Serif" font-size="10.00"> V &gt; &gt;</text>
</a>
</g>
</g>
<!-- Node8&#45;&gt;Node7 -->
<g id="edge7" class="edge">
<title>Node8&#45;&gt;Node7</title>
<path fill="none" stroke="midnightblue" d="M781.14,-158C821.73,-158 874.64,-158 914.29,-158"/>
<polygon fill="midnightblue" stroke="midnightblue" points="781.1,-154.5 771.1,-158 781.1,-161.5 781.1,-154.5"/>
</g>
<!-- Node9 -->
<g id="node9" class="node">
<title>Node9</title>
<g id="a_node9"><a xlink:href="classrack_1_1PrecipZZDR.html" target="_top" xlink:title=" ">
<polygon fill="white" stroke="black" points="1384,-189.5 1384,-208.5 1458,-208.5 1458,-189.5 1384,-189.5"/>
<text text-anchor="middle" x="1421" y="-196.5" font-family="Helvetica,sans-Serif" font-size="10.00">PrecipZZDR</text>
</a>
</g>
</g>
<!-- Node9&#45;&gt;Node1 -->
<g id="edge8" class="edge">
<title>Node9&#45;&gt;Node1</title>
<path fill="none" stroke="#9a32cd" stroke-dasharray="5,2" d="M1468.24,-193.12C1495.89,-188.37 1531.14,-180.07 1560,-166 1577.45,-157.49 1594.44,-142.53 1604.56,-132.69"/>
<polygon fill="#9a32cd" stroke="#9a32cd" points="1467.36,-189.72 1458.05,-194.78 1468.48,-196.63 1467.36,-189.72"/>
<text text-anchor="middle" x="1522.5" y="-192" font-family="Helvetica,sans-Serif" font-size="10.00"> precipZZDR</text>
</g>
<!-- Node10 -->
<g id="node10" class="node">
<title>Node10</title>
<g id="a_node10"><a xlink:href="classrack_1_1DoubleParamPrecip.html" target="_top" xlink:title=" ">
<polygon fill="white" stroke="black" points="1125.5,-151.5 1125.5,-170.5 1238.5,-170.5 1238.5,-151.5 1125.5,-151.5"/>
<text text-anchor="middle" x="1182" y="-158.5" font-family="Helvetica,sans-Serif" font-size="10.00">DoubleParamPrecip</text>
</a>
</g>
</g>
<!-- Node10&#45;&gt;Node9 -->
<g id="edge9" class="edge">
<title>Node10&#45;&gt;Node9</title>
<path fill="none" stroke="midnightblue" d="M1248.55,-171.51C1292.26,-178.52 1348.07,-187.47 1383.93,-193.22"/>
<polygon fill="midnightblue" stroke="midnightblue" points="1248.99,-168.04 1238.57,-169.91 1247.89,-174.95 1248.99,-168.04"/>
</g>
<!-- Node21 -->
<g id="node21" class="node">
<title>Node21</title>
<g id="a_node21"><a xlink:href="classrack_1_1PrecipKDPZDR.html" target="_top" xlink:title=" ">
<polygon fill="white" stroke="black" points="1377,-151.5 1377,-170.5 1465,-170.5 1465,-151.5 1377,-151.5"/>
<text text-anchor="middle" x="1421" y="-158.5" font-family="Helvetica,sans-Serif" font-size="10.00">PrecipKDPZDR</text>
</a>
</g>
</g>
<!-- Node10&#45;&gt;Node21 -->
<g id="edge24" class="edge">
<title>Node10&#45;&gt;Node21</title>
<path fill="none" stroke="midnightblue" d="M1248.73,-161C1289.69,-161 1341.21,-161 1376.99,-161"/>
<polygon fill="midnightblue" stroke="midnightblue" points="1248.57,-157.5 1238.57,-161 1248.57,-164.5 1248.57,-157.5"/>
</g>
<!-- Node11 -->
<g id="node11" class="node">
<title>Node11</title>
<g id="a_node11"><a xlink:href="classrack_1_1Precip.html" target="_top" xlink:title=" ">
<polygon fill="white" stroke="black" points="695.5,-64.5 695.5,-83.5 742.5,-83.5 742.5,-64.5 695.5,-64.5"/>
<text text-anchor="middle" x="719" y="-71.5" font-family="Helvetica,sans-Serif" font-size="10.00">Precip</text>
</a>
</g>
</g>
<!-- Node11&#45;&gt;Node10 -->
<g id="edge10" class="edge">
<title>Node11&#45;&gt;Node10</title>
<path fill="none" stroke="midnightblue" d="M752.7,-80.75C764.17,-83.08 777.15,-85.69 789,-88 910.29,-111.6 1053.02,-137.78 1128.32,-151.47"/>
<polygon fill="midnightblue" stroke="midnightblue" points="753.17,-77.27 742.67,-78.69 751.76,-84.13 753.17,-77.27"/>
</g>
<!-- Node18 -->
<g id="node18" class="node">
<title>Node18</title>
<g id="a_node18"><a xlink:href="classrack_1_1SingleParamPrecip.html" target="_top" xlink:title=" ">
<polygon fill="white" stroke="black" points="918,-64.5 918,-83.5 1026,-83.5 1026,-64.5 918,-64.5"/>
<text text-anchor="middle" x="972" y="-71.5" font-family="Helvetica,sans-Serif" font-size="10.00">SingleParamPrecip</text>
</a>
</g>
</g>
<!-- Node11&#45;&gt;Node18 -->
<g id="edge18" class="edge">
<title>Node11&#45;&gt;Node18</title>
<path fill="none" stroke="midnightblue" d="M752.92,-74C794.8,-74 867.69,-74 917.58,-74"/>
<polygon fill="midnightblue" stroke="midnightblue" points="752.72,-70.5 742.72,-74 752.72,-77.5 752.72,-70.5"/>
</g>
<!-- Node12 -->
<g id="node12" class="node">
<title>Node12</title>
<g id="a_node12"><a xlink:href="classdrain_1_1BeanLike.html" target="_top" xlink:title="Something which has a name, a description and possibly some parameters of varying type.">
<polygon fill="white" stroke="black" points="569,-30.5 569,-49.5 630,-49.5 630,-30.5 569,-30.5"/>
<text text-anchor="middle" x="599.5" y="-37.5" font-family="Helvetica,sans-Serif" font-size="10.00">BeanLike</text>
</a>
</g>
</g>
<!-- Node12&#45;&gt;Node11 -->
<g id="edge11" class="edge">
<title>Node12&#45;&gt;Node11</title>
<path fill="none" stroke="midnightblue" d="M639.79,-51.37C658.28,-56.72 679.67,-62.91 695.41,-67.46"/>
<polygon fill="midnightblue" stroke="midnightblue" points="640.73,-48 630.15,-48.58 638.78,-54.72 640.73,-48"/>
</g>
<!-- Node22 -->
<g id="node22" class="node">
<title>Node22</title>
<g id="a_node22"><a xlink:href="classrack_1_1FreezingLevel.html" target="_top" xlink:title=" ">
<polygon fill="white" stroke="black" points="789,-10.5 789,-29.5 873,-29.5 873,-10.5 789,-10.5"/>
<text text-anchor="middle" x="831" y="-17.5" font-family="Helvetica,sans-Serif" font-size="10.00">FreezingLevel</text>
</a>
</g>
</g>
<!-- Node12&#45;&gt;Node22 -->
<g id="edge26" class="edge">
<title>Node12&#45;&gt;Node22</title>
<path fill="none" stroke="midnightblue" d="M640.07,-36.55C681.67,-32.93 746.82,-27.25 788.96,-23.58"/>
<polygon fill="midnightblue" stroke="midnightblue" points="639.69,-33.07 630.03,-37.43 640.3,-40.04 639.69,-33.07"/>
</g>
<!-- Node13 -->
<g id="node13" class="node">
<title>Node13</title>
<g id="a_node13"><a xlink:href="classdrain_1_1ReferenceMap.html" target="_top" xlink:title=" ">
<polygon fill="white" stroke="black" points="386,-30.5 386,-49.5 473,-49.5 473,-30.5 386,-30.5"/>
<text text-anchor="middle" x="429.5" y="-37.5" font-family="Helvetica,sans-Serif" font-size="10.00">ReferenceMap</text>
</a>
</g>
</g>
<!-- Node13&#45;&gt;Node12 -->
<g id="edge12" class="edge">
<title>Node13&#45;&gt;Node12</title>
<path fill="none" stroke="#9a32cd" stroke-dasharray="5,2" d="M483.46,-40C511.7,-40 545.38,-40 568.98,-40"/>
<polygon fill="#9a32cd" stroke="#9a32cd" points="483.33,-36.5 473.33,-40 483.33,-43.5 483.33,-36.5"/>
<text text-anchor="middle" x="521" y="-43" font-family="Helvetica,sans-Serif" font-size="10.00"> parameters</text>
</g>
<!-- Node14 -->
<g id="node14" class="node">
<title>Node14</title>
<g id="a_node14"><a xlink:href="classdrain_1_1SmartMap.html" target="_top" xlink:title=" ">
<polygon fill="white" stroke="black" points="206,-30.5 206,-49.5 349,-49.5 349,-30.5 206,-30.5"/>
<text text-anchor="middle" x="277.5" y="-37.5" font-family="Helvetica,sans-Serif" font-size="10.00">SmartMap&lt; Referencer &gt;</text>
</a>
</g>
</g>
<!-- Node14&#45;&gt;Node13 -->
<g id="edge13" class="edge">
<title>Node14&#45;&gt;Node13</title>
<path fill="none" stroke="midnightblue" d="M359.34,-40C368.38,-40 377.31,-40 385.6,-40"/>
<polygon fill="midnightblue" stroke="midnightblue" points="359.11,-36.5 349.11,-40 359.11,-43.5 359.11,-36.5"/>
</g>
<!-- Node15 -->
<g id="node15" class="node">
<title>Node15</title>
<g id="a_node15"><a xlink:title=" ">
<polygon fill="white" stroke="#bfbfbf" points="0,-30.5 0,-49.5 169,-49.5 169,-30.5 0,-30.5"/>
<text text-anchor="middle" x="84.5" y="-37.5" font-family="Helvetica,sans-Serif" font-size="10.00">map&lt; std::string, Referencer &gt;</text>
</a>
</g>
</g>
<!-- Node15&#45;&gt;Node14 -->
<g id="edge14" class="edge">
<title>Node15&#45;&gt;Node14</title>
<path fill="none" stroke="midnightblue" d="M179.35,-40C188.29,-40 197.25,-40 205.92,-40"/>
<polygon fill="midnightblue" stroke="midnightblue" points="179.28,-36.5 169.28,-40 179.28,-43.5 179.28,-36.5"/>
</g>
<!-- Node16 -->
<g id="node16" class="node">
<title>Node16</title>
<g id="a_node16"><a xlink:href="classrack_1_1PrecipZrain.html" target="_top" xlink:title=" ">
<polygon fill="white" stroke="black" points="1385,-113.5 1385,-132.5 1457,-132.5 1457,-113.5 1385,-113.5"/>
<text text-anchor="middle" x="1421" y="-120.5" font-family="Helvetica,sans-Serif" font-size="10.00">PrecipZrain</text>
</a>
</g>
</g>
<!-- Node16&#45;&gt;Node1 -->
<g id="edge15" class="edge">
<title>Node16&#45;&gt;Node1</title>
<path fill="none" stroke="#9a32cd" stroke-dasharray="5,2" d="M1467.27,-123C1500.97,-123 1546.37,-123 1577.7,-123"/>
<polygon fill="#9a32cd" stroke="#9a32cd" points="1467.22,-119.5 1457.22,-123 1467.22,-126.5 1467.22,-119.5"/>
<text text-anchor="middle" x="1522.5" y="-126" font-family="Helvetica,sans-Serif" font-size="10.00"> precipZrain</text>
</g>
<!-- Node17 -->
<g id="node17" class="node">
<title>Node17</title>
<g id="a_node17"><a xlink:href="classrack_1_1PrecipZ.html" target="_top" xlink:title=" ">
<polygon fill="white" stroke="black" points="1155.5,-75.5 1155.5,-94.5 1208.5,-94.5 1208.5,-75.5 1155.5,-75.5"/>
<text text-anchor="middle" x="1182" y="-82.5" font-family="Helvetica,sans-Serif" font-size="10.00">PrecipZ</text>
</a>
</g>
</g>
<!-- Node17&#45;&gt;Node16 -->
<g id="edge16" class="edge">
<title>Node17&#45;&gt;Node16</title>
<path fill="none" stroke="midnightblue" d="M1218.97,-90.77C1263.83,-97.96 1340.04,-110.18 1384.62,-117.33"/>
<polygon fill="midnightblue" stroke="midnightblue" points="1219.24,-87.27 1208.81,-89.14 1218.13,-94.18 1219.24,-87.27"/>
</g>
<!-- Node20 -->
<g id="node20" class="node">
<title>Node20</title>
<g id="a_node20"><a xlink:href="classrack_1_1PrecipZsnow.html" target="_top" xlink:title=" ">
<polygon fill="white" stroke="black" points="1381.5,-75.5 1381.5,-94.5 1460.5,-94.5 1460.5,-75.5 1381.5,-75.5"/>
<text text-anchor="middle" x="1421" y="-82.5" font-family="Helvetica,sans-Serif" font-size="10.00">PrecipZsnow</text>
</a>
</g>
</g>
<!-- Node17&#45;&gt;Node20 -->
<g id="edge22" class="edge">
<title>Node17&#45;&gt;Node20</title>
<path fill="none" stroke="midnightblue" d="M1219,-85C1262.77,-85 1336.36,-85 1381.31,-85"/>
<polygon fill="midnightblue" stroke="midnightblue" points="1218.81,-81.5 1208.81,-85 1218.81,-88.5 1218.81,-81.5"/>
</g>
<!-- Node18&#45;&gt;Node17 -->
<g id="edge17" class="edge">
<title>Node18&#45;&gt;Node17</title>
<path fill="none" stroke="midnightblue" d="M1036.23,-77.34C1076.2,-79.46 1125.73,-82.08 1155.27,-83.64"/>
<polygon fill="midnightblue" stroke="midnightblue" points="1036.2,-73.84 1026.03,-76.8 1035.83,-80.83 1036.2,-73.84"/>
</g>
<!-- Node19 -->
<g id="node19" class="node">
<title>Node19</title>
<g id="a_node19"><a xlink:href="classrack_1_1PrecipKDP.html" target="_top" xlink:title=" ">
<polygon fill="white" stroke="black" points="1280.5,-36.5 1280.5,-55.5 1347.5,-55.5 1347.5,-36.5 1280.5,-36.5"/>
<text text-anchor="middle" x="1314" y="-43.5" font-family="Helvetica,sans-Serif" font-size="10.00">PrecipKDP</text>
</a>
</g>
</g>
<!-- Node18&#45;&gt;Node19 -->
<g id="edge20" class="edge">
<title>Node18&#45;&gt;Node19</title>
<path fill="none" stroke="midnightblue" d="M1036.47,-68.77C1108.78,-62.82 1224.15,-53.32 1280.25,-48.7"/>
<polygon fill="midnightblue" stroke="midnightblue" points="1035.8,-65.32 1026.12,-69.62 1036.38,-72.29 1035.8,-65.32"/>
</g>
<!-- Node19&#45;&gt;Node1 -->
<g id="edge19" class="edge">
<title>Node19&#45;&gt;Node1</title>
<path fill="none" stroke="#9a32cd" stroke-dasharray="5,2" d="M1358.05,-45.13C1388.74,-45.33 1430.8,-47.3 1467,-55 1510.2,-64.19 1520.32,-70.62 1560,-90 1574.02,-96.85 1589.1,-106.25 1599.75,-113.27"/>
<polygon fill="#9a32cd" stroke="#9a32cd" points="1357.7,-41.63 1347.7,-45.12 1357.7,-48.63 1357.7,-41.63"/>
<text text-anchor="middle" x="1421" y="-58" font-family="Helvetica,sans-Serif" font-size="10.00"> precipKDP</text>
</g>
<!-- Node20&#45;&gt;Node1 -->
<g id="edge21" class="edge">
<title>Node20&#45;&gt;Node1</title>
<path fill="none" stroke="#9a32cd" stroke-dasharray="5,2" d="M1470.76,-91.84C1497.28,-95.88 1530.59,-101.48 1560,-108 1567.12,-109.58 1574.71,-111.52 1581.87,-113.48"/>
<polygon fill="#9a32cd" stroke="#9a32cd" points="1470.99,-88.33 1460.58,-90.31 1469.95,-95.26 1470.99,-88.33"/>
<text text-anchor="middle" x="1522.5" y="-111" font-family="Helvetica,sans-Serif" font-size="10.00"> precipZsnow</text>
</g>
<!-- Node21&#45;&gt;Node1 -->
<g id="edge23" class="edge">
<title>Node21&#45;&gt;Node1</title>
<path fill="none" stroke="#9a32cd" stroke-dasharray="5,2" d="M1475,-152.82C1500.75,-148.58 1532.09,-143.03 1560,-137 1566.15,-135.67 1572.66,-134.11 1578.95,-132.53"/>
<polygon fill="#9a32cd" stroke="#9a32cd" points="1474.37,-149.38 1465.07,-154.44 1475.5,-156.29 1474.37,-149.38"/>
<text text-anchor="middle" x="1522.5" y="-154" font-family="Helvetica,sans-Serif" font-size="10.00"> precipKDPZDR</text>
</g>
<!-- Node22&#45;&gt;Node1 -->
<g id="edge25" class="edge">
<title>Node22&#45;&gt;Node1</title>
<path fill="none" stroke="#9a32cd" stroke-dasharray="5,2" d="M883.3,-13.46C933.58,-7.63 1012.43,0 1081,0 1081,0 1081,0 1422,0 1488.19,0 1506.87,-16.53 1560,-56 1581.59,-72.04 1599.51,-98.65 1608.26,-113.03"/>
<polygon fill="#9a32cd" stroke="#9a32cd" points="882.85,-9.99 873.33,-14.64 883.67,-16.94 882.85,-9.99"/>
<text text-anchor="middle" x="1182" y="-3" font-family="Helvetica,sans-Serif" font-size="10.00"> freezingLevel</text>
</g>
</g>
</svg>
