<?xml version="1.0" encoding="UTF-8" standalone="no"?>
<!DOCTYPE svg PUBLIC "-//W3C//DTD SVG 1.1//EN"
 "http://www.w3.org/Graphics/SVG/1.1/DTD/svg11.dtd">
<!-- Generated by graphviz version 2.43.0 (0)
 -->
<!-- Title: AndreOp Pages: 1 -->
<!--zoomable 807 -->
<svg id="main" version="1.1" xmlns="http://www.w3.org/2000/svg" xmlns:xlink="http://www.w3.org/1999/xlink" xml:space="preserve" onload="init(evt)">
<style type="text/css"><![CDATA[
.edge:hover path { stroke: red; }
.edge:hover polygon { stroke: red; fill: red; }
]]></style>
<script type="text/javascript"><![CDATA[
var edges = document.getElementsByTagName('g');
if (edges && edges.length) {
  for (var i=0;i<edges.length;i++) {
    if (edges[i].id.substr(0,4)=='edge') {
      edges[i].setAttribute('class','edge');
    }
  }
}
]]></script>
        <defs>
                <circle id="rim" cx="0" cy="0" r="7"/>
                <circle id="rim2" cx="0" cy="0" r="3.5"/>
                <g id="zoomPlus">
                        <use xlink:href="#rim" fill="#404040">
                                <set attributeName="fill" to="#808080" begin="zoomplus.mouseover" end="zoomplus.mouseout"/>
                        </use>
                        <path d="M-4,0h8M0,-4v8" fill="none" stroke="white" stroke-width="1.5" pointer-events="none"/>
                </g>
                <g id="zoomMin">
                        <use xlink:href="#rim" fill="#404040">
                                <set attributeName="fill" to="#808080" begin="zoomminus.mouseover" end="zoomminus.mouseout"/>
                        </use>
                        <path d="M-4,0h8" fill="none" stroke="white" stroke-width="1.5" pointer-events="none"/>
                </g>
                <g id="dirArrow">
                        <path fill="none" stroke="white" stroke-width="1.5" d="M0,-3.0v7 M-2.5,-0.5L0,-3.0L2.5,-0.5"/>
                </g>
               <g id="resetDef">
                       <use xlink:href="#rim2" fill="#404040">
                               <set attributeName="fill" to="#808080" begin="reset.mouseover" end="reset.mouseout"/>
                       </use>
               </g>
        </defs>

<script type="text/javascript">
var viewWidth = 1099;
var viewHeight = 807;
var sectionId = 'dynsection-0';
</script>
<script xlink:href="svgpan.js"/>
<svg id="graph" class="graph">
<g id="viewport">
<title>AndreOp</title>
<polygon fill="white" stroke="transparent" points="-4,4 -4,-803 1095,-803 1095,4 -4,4"/>
<!-- Node1 -->
<g id="node1" class="node">
<title>Node1</title>
<g id="a_node1"><a xlink:title="The base class for removal operators.">
<polygon fill="#bfbfbf" stroke="black" points="653,-228.5 653,-247.5 712,-247.5 712,-228.5 653,-228.5"/>
<text text-anchor="middle" x="682.5" y="-235.5" font-family="Helvetica,sans-Serif" font-size="10.00">AndreOp</text>
</a>
</g>
</g>
<!-- Node6 -->
<g id="node6" class="node">
<title>Node6</title>
<g id="a_node6"><a xlink:href="classrack_1_1DetectorOp.html" target="_top" xlink:title="Base class for anomaly detectors.">
<polygon fill="white" stroke="black" points="749,-418.5 749,-437.5 821,-437.5 821,-418.5 749,-418.5"/>
<text text-anchor="middle" x="785" y="-425.5" font-family="Helvetica,sans-Serif" font-size="10.00">DetectorOp</text>
</a>
</g>
</g>
<!-- Node1&#45;&gt;Node6 -->
<g id="edge5" class="edge">
<title>Node1&#45;&gt;Node6</title>
<path fill="none" stroke="midnightblue" d="M693.32,-256.56C714.27,-296.18 762.76,-387.85 778.77,-418.11"/>
<polygon fill="midnightblue" stroke="midnightblue" points="696.39,-254.89 688.62,-247.68 690.2,-258.16 696.39,-254.89"/>
</g>
<!-- Node28 -->
<g id="node28" class="node">
<title>Node28</title>
<g id="a_node28"><a xlink:href="classrack_1_1RemoverOp.html" target="_top" xlink:title="The simplest possible anomaly removal operator and the base class for more complex ones.">
<polygon fill="white" stroke="black" points="748,-57.5 748,-76.5 822,-76.5 822,-57.5 748,-57.5"/>
<text text-anchor="middle" x="785" y="-64.5" font-family="Helvetica,sans-Serif" font-size="10.00">RemoverOp</text>
</a>
</g>
</g>
<!-- Node1&#45;&gt;Node28 -->
<g id="edge27" class="edge">
<title>Node1&#45;&gt;Node28</title>
<path fill="none" stroke="midnightblue" d="M694.51,-219.27C715.87,-182.92 762.28,-103.96 778.37,-76.58"/>
<polygon fill="midnightblue" stroke="midnightblue" points="691.24,-217.92 689.19,-228.32 697.28,-221.47 691.24,-217.92"/>
</g>
<!-- Node2 -->
<g id="node2" class="node">
<title>Node2</title>
<g id="a_node2"><a xlink:href="classrack_1_1VolumeTraversalOp.html" target="_top" xlink:title="Base class for radar data processors.">
<polygon fill="white" stroke="black" points="504,-228.5 504,-247.5 617,-247.5 617,-228.5 504,-228.5"/>
<text text-anchor="middle" x="560.5" y="-235.5" font-family="Helvetica,sans-Serif" font-size="10.00">VolumeTraversalOp</text>
</a>
</g>
</g>
<!-- Node2&#45;&gt;Node1 -->
<g id="edge1" class="edge">
<title>Node2&#45;&gt;Node1</title>
<path fill="none" stroke="midnightblue" d="M627.44,-238C636.4,-238 645.19,-238 652.98,-238"/>
<polygon fill="midnightblue" stroke="midnightblue" points="627.28,-234.5 617.28,-238 627.28,-241.5 627.28,-234.5"/>
</g>
<!-- Node3 -->
<g id="node3" class="node">
<title>Node3</title>
<g id="a_node3"><a xlink:href="classrack_1_1PolarProductOp.html" target="_top" xlink:title="Base class for flat (2D) products computed in the polar coordinate system. Volume is used as input.">
<polygon fill="white" stroke="black" points="376,-228.5 376,-247.5 468,-247.5 468,-228.5 376,-228.5"/>
<text text-anchor="middle" x="422" y="-235.5" font-family="Helvetica,sans-Serif" font-size="10.00">PolarProductOp</text>
</a>
</g>
</g>
<!-- Node3&#45;&gt;Node2 -->
<g id="edge2" class="edge">
<title>Node3&#45;&gt;Node2</title>
<path fill="none" stroke="midnightblue" d="M478.11,-238C486.48,-238 495.13,-238 503.52,-238"/>
<polygon fill="midnightblue" stroke="midnightblue" points="478.07,-234.5 468.07,-238 478.07,-241.5 478.07,-234.5"/>
</g>
<!-- Node4 -->
<g id="node4" class="node">
<title>Node4</title>
<g id="a_node4"><a xlink:href="classrack_1_1VolumeOp.html" target="_top" xlink:title=" ">
<polygon fill="white" stroke="black" points="198,-228.5 198,-247.5 340,-247.5 340,-228.5 198,-228.5"/>
<text text-anchor="middle" x="269" y="-235.5" font-family="Helvetica,sans-Serif" font-size="10.00">VolumeOp&lt; PolarODIM &gt;</text>
</a>
</g>
</g>
<!-- Node4&#45;&gt;Node3 -->
<g id="edge3" class="edge">
<title>Node4&#45;&gt;Node3</title>
<path fill="none" stroke="midnightblue" d="M350.48,-238C359.23,-238 367.89,-238 375.98,-238"/>
<polygon fill="midnightblue" stroke="midnightblue" points="350.2,-234.5 340.2,-238 350.2,-241.5 350.2,-234.5"/>
</g>
<!-- Node5 -->
<g id="node5" class="node">
<title>Node5</title>
<g id="a_node5"><a xlink:href="classdrain_1_1image_1_1ProductOp.html" target="_top" xlink:title=" ">
<polygon fill="white" stroke="black" points="0,-223 0,-253 162,-253 162,-223 0,-223"/>
<text text-anchor="start" x="8" y="-241" font-family="Helvetica,sans-Serif" font-size="10.00">ProductOp&lt; const PolarODIM,</text>
<text text-anchor="middle" x="81" y="-230" font-family="Helvetica,sans-Serif" font-size="10.00"> PolarODIM &gt;</text>
</a>
</g>
</g>
<!-- Node5&#45;&gt;Node4 -->
<g id="edge4" class="edge">
<title>Node5&#45;&gt;Node4</title>
<path fill="none" stroke="midnightblue" d="M172.32,-238C180.94,-238 189.59,-238 197.97,-238"/>
<polygon fill="midnightblue" stroke="midnightblue" points="172.23,-234.5 162.23,-238 172.23,-241.5 172.23,-234.5"/>
</g>
<!-- Node7 -->
<g id="node7" class="node">
<title>Node7</title>
<g id="a_node7"><a xlink:href="classrack_1_1AttenuationOp.html" target="_top" xlink:title="Computes attenuation caused by precipitation.">
<polygon fill="white" stroke="black" points="872.5,-779.5 872.5,-798.5 959.5,-798.5 959.5,-779.5 872.5,-779.5"/>
<text text-anchor="middle" x="916" y="-786.5" font-family="Helvetica,sans-Serif" font-size="10.00">AttenuationOp</text>
</a>
</g>
</g>
<!-- Node6&#45;&gt;Node7 -->
<g id="edge6" class="edge">
<title>Node6&#45;&gt;Node7</title>
<path fill="none" stroke="midnightblue" d="M787.6,-447.68C793.29,-513.02 814.57,-721.3 858,-770 861.96,-774.44 866.98,-777.84 872.39,-780.45"/>
<polygon fill="midnightblue" stroke="midnightblue" points="791.07,-447.2 786.74,-437.53 784.1,-447.79 791.07,-447.2"/>
</g>
<!-- Node8 -->
<g id="node8" class="node">
<title>Node8</title>
<g id="a_node8"><a xlink:href="classrack_1_1BiometeorOp.html" target="_top" xlink:title=" ">
<polygon fill="white" stroke="black" points="875.5,-741.5 875.5,-760.5 956.5,-760.5 956.5,-741.5 875.5,-741.5"/>
<text text-anchor="middle" x="916" y="-748.5" font-family="Helvetica,sans-Serif" font-size="10.00">BiometeorOp</text>
</a>
</g>
</g>
<!-- Node6&#45;&gt;Node8 -->
<g id="edge7" class="edge">
<title>Node6&#45;&gt;Node8</title>
<path fill="none" stroke="midnightblue" d="M788.18,-447.82C795.21,-508.4 819.14,-689.51 858,-732 862.72,-737.16 868.87,-740.92 875.38,-743.66"/>
<polygon fill="midnightblue" stroke="midnightblue" points="791.63,-447.22 787.03,-437.68 784.68,-448.01 791.63,-447.22"/>
</g>
<!-- Node11 -->
<g id="node11" class="node">
<title>Node11</title>
<g id="a_node11"><a xlink:href="classrack_1_1BiometOp.html" target="_top" xlink:title="Detects birds and insects.">
<polygon fill="white" stroke="black" points="883.5,-703.5 883.5,-722.5 948.5,-722.5 948.5,-703.5 883.5,-703.5"/>
<text text-anchor="middle" x="916" y="-710.5" font-family="Helvetica,sans-Serif" font-size="10.00">BiometOp</text>
</a>
</g>
</g>
<!-- Node6&#45;&gt;Node11 -->
<g id="edge10" class="edge">
<title>Node6&#45;&gt;Node11</title>
<path fill="none" stroke="midnightblue" d="M785.41,-447.59C785.05,-496.09 790.95,-622.99 858,-694 864.73,-701.13 874.2,-705.58 883.5,-708.37"/>
<polygon fill="midnightblue" stroke="midnightblue" points="788.91,-447.56 785.59,-437.5 781.91,-447.44 788.91,-447.56"/>
</g>
<!-- Node12 -->
<g id="node12" class="node">
<title>Node12</title>
<g id="a_node12"><a xlink:href="classrack_1_1CCorOp.html" target="_top" xlink:title=" ">
<polygon fill="white" stroke="black" points="889.5,-665.5 889.5,-684.5 942.5,-684.5 942.5,-665.5 889.5,-665.5"/>
<text text-anchor="middle" x="916" y="-672.5" font-family="Helvetica,sans-Serif" font-size="10.00">CCorOp</text>
</a>
</g>
</g>
<!-- Node6&#45;&gt;Node12 -->
<g id="edge11" class="edge">
<title>Node6&#45;&gt;Node12</title>
<path fill="none" stroke="midnightblue" d="M786.49,-447.99C788.67,-491.8 800,-597.07 858,-656 866.27,-664.4 878.34,-669.09 889.25,-671.7"/>
<polygon fill="midnightblue" stroke="midnightblue" points="789.98,-447.65 786.1,-437.79 782.99,-447.92 789.98,-447.65"/>
</g>
<!-- Node13 -->
<g id="node13" class="node">
<title>Node13</title>
<g id="a_node13"><a xlink:href="classrack_1_1ClutterOp.html" target="_top" xlink:title="Based on pre&#45;computed clutter map, scales the clutter probability for desired sweeps.">
<polygon fill="white" stroke="black" points="884.5,-627.5 884.5,-646.5 947.5,-646.5 947.5,-627.5 884.5,-627.5"/>
<text text-anchor="middle" x="916" y="-634.5" font-family="Helvetica,sans-Serif" font-size="10.00">ClutterOp</text>
</a>
</g>
</g>
<!-- Node6&#45;&gt;Node13 -->
<g id="edge12" class="edge">
<title>Node6&#45;&gt;Node13</title>
<path fill="none" stroke="midnightblue" d="M788.01,-448.27C792.9,-486.77 808.89,-570.84 858,-618 865.22,-624.94 875.04,-629.34 884.5,-632.14"/>
<polygon fill="midnightblue" stroke="midnightblue" points="791.44,-447.41 786.82,-437.88 784.48,-448.21 791.44,-447.41"/>
</g>
<!-- Node14 -->
<g id="node14" class="node">
<title>Node14</title>
<g id="a_node14"><a xlink:href="classrack_1_1DefaultOp.html" target="_top" xlink:title="Simply, &quot;detects&quot; precipitation ie sets its probability.">
<polygon fill="white" stroke="black" points="883,-589.5 883,-608.5 949,-608.5 949,-589.5 883,-589.5"/>
<text text-anchor="middle" x="916" y="-596.5" font-family="Helvetica,sans-Serif" font-size="10.00">DefaultOp</text>
</a>
</g>
</g>
<!-- Node6&#45;&gt;Node14 -->
<g id="edge13" class="edge">
<title>Node6&#45;&gt;Node14</title>
<path fill="none" stroke="midnightblue" d="M790.08,-447.77C797.75,-480.02 817.34,-543.97 858,-580 864.95,-586.16 873.95,-590.33 882.75,-593.15"/>
<polygon fill="midnightblue" stroke="midnightblue" points="793.45,-446.78 787.85,-437.78 786.61,-448.3 793.45,-446.78"/>
</g>
<!-- Node15 -->
<g id="node15" class="node">
<title>Node15</title>
<g id="a_node15"><a xlink:href="classrack_1_1DopplerNoiseOp.html" target="_top" xlink:title="Detects suspicious variance in Doppler speed (VRAD).">
<polygon fill="white" stroke="black" points="868,-551.5 868,-570.5 964,-570.5 964,-551.5 868,-551.5"/>
<text text-anchor="middle" x="916" y="-558.5" font-family="Helvetica,sans-Serif" font-size="10.00">DopplerNoiseOp</text>
</a>
</g>
</g>
<!-- Node6&#45;&gt;Node15 -->
<g id="edge14" class="edge">
<title>Node6&#45;&gt;Node15</title>
<path fill="none" stroke="midnightblue" d="M793.22,-447.05C803.73,-472.3 825.59,-516.61 858,-542 862.93,-545.86 868.67,-548.95 874.59,-551.43"/>
<polygon fill="midnightblue" stroke="midnightblue" points="796.37,-445.5 789.41,-437.51 789.87,-448.09 796.37,-445.5"/>
</g>
<!-- Node16 -->
<g id="node16" class="node">
<title>Node16</title>
<g id="a_node16"><a xlink:href="classrack_1_1EmitterOp.html" target="_top" xlink:title="A quick emitter detection based on subtracting horizontal window medians by vertical ones.">
<polygon fill="white" stroke="black" points="883,-513.5 883,-532.5 949,-532.5 949,-513.5 883,-513.5"/>
<text text-anchor="middle" x="916" y="-520.5" font-family="Helvetica,sans-Serif" font-size="10.00">EmitterOp</text>
</a>
</g>
</g>
<!-- Node6&#45;&gt;Node16 -->
<g id="edge15" class="edge">
<title>Node6&#45;&gt;Node16</title>
<path fill="none" stroke="midnightblue" d="M798.62,-445.7C811.69,-462.84 833.59,-488.45 858,-504 865.57,-508.82 874.48,-512.54 882.99,-515.37"/>
<polygon fill="midnightblue" stroke="midnightblue" points="801.39,-443.56 792.62,-437.61 795.76,-447.73 801.39,-443.56"/>
</g>
<!-- Node17 -->
<g id="node17" class="node">
<title>Node17</title>
<g id="a_node17"><a xlink:href="classrack_1_1HydroClassBasedOp.html" target="_top" xlink:title="Sets probabilities of non&#45;meteorological echoes based on precomputed hydrometeor classification.">
<polygon fill="white" stroke="black" points="858,-475.5 858,-494.5 974,-494.5 974,-475.5 858,-475.5"/>
<text text-anchor="middle" x="916" y="-482.5" font-family="Helvetica,sans-Serif" font-size="10.00">HydroClassBasedOp</text>
</a>
</g>
</g>
<!-- Node6&#45;&gt;Node17 -->
<g id="edge16" class="edge">
<title>Node6&#45;&gt;Node17</title>
<path fill="none" stroke="midnightblue" d="M811,-442.49C824.63,-450.06 841.95,-459.14 858,-466 866.06,-469.44 874.96,-472.67 883.3,-475.46"/>
<polygon fill="midnightblue" stroke="midnightblue" points="812.64,-439.4 802.21,-437.54 809.21,-445.5 812.64,-439.4"/>
</g>
<!-- Node18 -->
<g id="node18" class="node">
<title>Node18</title>
<g id="a_node18"><a xlink:href="classrack_1_1JammingOp.html" target="_top" xlink:title="A detector for widespread electromagnetic interference.">
<polygon fill="white" stroke="black" points="879,-437.5 879,-456.5 953,-456.5 953,-437.5 879,-437.5"/>
<text text-anchor="middle" x="916" y="-444.5" font-family="Helvetica,sans-Serif" font-size="10.00">JammingOp</text>
</a>
</g>
</g>
<!-- Node6&#45;&gt;Node18 -->
<g id="edge17" class="edge">
<title>Node6&#45;&gt;Node18</title>
<path fill="none" stroke="midnightblue" d="M831.23,-434.66C846.84,-436.96 864.11,-439.5 878.89,-441.68"/>
<polygon fill="midnightblue" stroke="midnightblue" points="831.65,-431.19 821.25,-433.19 830.63,-438.11 831.65,-431.19"/>
</g>
<!-- Node19 -->
<g id="node19" class="node">
<title>Node19</title>
<g id="a_node19"><a xlink:href="classrack_1_1LineOp.html" target="_top" xlink:title="Quick emitter detection based on subtracting a horizontal segment lengths by inversed vertical segmen...">
<polygon fill="white" stroke="black" points="891,-399.5 891,-418.5 941,-418.5 941,-399.5 891,-399.5"/>
<text text-anchor="middle" x="916" y="-406.5" font-family="Helvetica,sans-Serif" font-size="10.00">LineOp</text>
</a>
</g>
</g>
<!-- Node6&#45;&gt;Node19 -->
<g id="edge18" class="edge">
<title>Node6&#45;&gt;Node19</title>
<path fill="none" stroke="midnightblue" d="M831.15,-421.35C851.22,-418.39 874.05,-415.03 890.81,-412.56"/>
<polygon fill="midnightblue" stroke="midnightblue" points="830.63,-417.89 821.25,-422.81 831.65,-424.81 830.63,-417.89"/>
</g>
<!-- Node20 -->
<g id="node20" class="node">
<title>Node20</title>
<g id="a_node20"><a xlink:href="classrack_1_1NonMetOp.html" target="_top" xlink:title="Marks bins with low RhoHV value as probable anomalies.">
<polygon fill="white" stroke="black" points="882,-361.5 882,-380.5 950,-380.5 950,-361.5 882,-361.5"/>
<text text-anchor="middle" x="916" y="-368.5" font-family="Helvetica,sans-Serif" font-size="10.00">NonMetOp</text>
</a>
</g>
</g>
<!-- Node6&#45;&gt;Node20 -->
<g id="edge19" class="edge">
<title>Node6&#45;&gt;Node20</title>
<path fill="none" stroke="midnightblue" d="M811,-413.51C824.63,-405.94 841.95,-396.86 858,-390 866.06,-386.56 874.96,-383.33 883.3,-380.54"/>
<polygon fill="midnightblue" stroke="midnightblue" points="809.21,-410.5 802.21,-418.46 812.64,-416.6 809.21,-410.5"/>
</g>
<!-- Node21 -->
<g id="node21" class="node">
<title>Node21</title>
<g id="a_node21"><a xlink:href="classrack_1_1PrecipOp.html" target="_top" xlink:title="Simply, &quot;detects&quot; precipitation ie sets its probability.">
<polygon fill="white" stroke="black" points="886,-323.5 886,-342.5 946,-342.5 946,-323.5 886,-323.5"/>
<text text-anchor="middle" x="916" y="-330.5" font-family="Helvetica,sans-Serif" font-size="10.00">PrecipOp</text>
</a>
</g>
</g>
<!-- Node6&#45;&gt;Node21 -->
<g id="edge20" class="edge">
<title>Node6&#45;&gt;Node21</title>
<path fill="none" stroke="midnightblue" d="M798.62,-410.3C811.69,-393.16 833.59,-367.55 858,-352 866.45,-346.62 876.57,-342.6 885.93,-339.68"/>
<polygon fill="midnightblue" stroke="midnightblue" points="795.76,-408.27 792.62,-418.39 801.39,-412.44 795.76,-408.27"/>
</g>
<!-- Node22 -->
<g id="node22" class="node">
<title>Node22</title>
<g id="a_node22"><a xlink:href="classrack_1_1ShipOp.html" target="_top" xlink:title="Detects ships.">
<polygon fill="white" stroke="black" points="890.5,-285.5 890.5,-304.5 941.5,-304.5 941.5,-285.5 890.5,-285.5"/>
<text text-anchor="middle" x="916" y="-292.5" font-family="Helvetica,sans-Serif" font-size="10.00">ShipOp</text>
</a>
</g>
</g>
<!-- Node6&#45;&gt;Node22 -->
<g id="edge21" class="edge">
<title>Node6&#45;&gt;Node22</title>
<path fill="none" stroke="midnightblue" d="M793.22,-408.95C803.73,-383.7 825.59,-339.39 858,-314 867.36,-306.67 879.69,-302.1 890.48,-299.28"/>
<polygon fill="midnightblue" stroke="midnightblue" points="789.87,-407.91 789.41,-418.49 796.37,-410.5 789.87,-407.91"/>
</g>
<!-- Node23 -->
<g id="node23" class="node">
<title>Node23</title>
<g id="a_node23"><a xlink:href="classrack_1_1SpeckleOp.html" target="_top" xlink:title=" ">
<polygon fill="white" stroke="black" points="882,-247.5 882,-266.5 950,-266.5 950,-247.5 882,-247.5"/>
<text text-anchor="middle" x="916" y="-254.5" font-family="Helvetica,sans-Serif" font-size="10.00">SpeckleOp</text>
</a>
</g>
</g>
<!-- Node6&#45;&gt;Node23 -->
<g id="edge22" class="edge">
<title>Node6&#45;&gt;Node23</title>
<path fill="none" stroke="midnightblue" d="M790.08,-408.23C797.75,-375.98 817.34,-312.03 858,-276 864.71,-270.05 873.35,-265.95 881.86,-263.14"/>
<polygon fill="midnightblue" stroke="midnightblue" points="786.61,-407.7 787.85,-418.22 793.45,-409.22 786.61,-407.7"/>
</g>
<!-- Node24 -->
<g id="node24" class="node">
<title>Node24</title>
<g id="a_node24"><a xlink:href="classrack_1_1SunOp.html" target="_top" xlink:title="Detects birds and insects.">
<polygon fill="white" stroke="black" points="892,-209.5 892,-228.5 940,-228.5 940,-209.5 892,-209.5"/>
<text text-anchor="middle" x="916" y="-216.5" font-family="Helvetica,sans-Serif" font-size="10.00">SunOp</text>
</a>
</g>
</g>
<!-- Node6&#45;&gt;Node24 -->
<g id="edge23" class="edge">
<title>Node6&#45;&gt;Node24</title>
<path fill="none" stroke="midnightblue" d="M788.01,-407.73C792.9,-369.23 808.89,-285.16 858,-238 867.1,-229.26 880.34,-224.53 891.76,-221.98"/>
<polygon fill="midnightblue" stroke="midnightblue" points="784.48,-407.79 786.82,-418.12 791.44,-408.59 784.48,-407.79"/>
</g>
<!-- Node25 -->
<g id="node25" class="node">
<title>Node25</title>
<g id="a_node25"><a xlink:href="classrack_1_1TestOp.html" target="_top" xlink:title=" ">
<polygon fill="white" stroke="black" points="891,-171.5 891,-190.5 941,-190.5 941,-171.5 891,-171.5"/>
<text text-anchor="middle" x="916" y="-178.5" font-family="Helvetica,sans-Serif" font-size="10.00">TestOp</text>
</a>
</g>
</g>
<!-- Node6&#45;&gt;Node25 -->
<g id="edge24" class="edge">
<title>Node6&#45;&gt;Node25</title>
<path fill="none" stroke="midnightblue" d="M786.49,-408.01C788.67,-364.2 800,-258.93 858,-200 866.71,-191.15 879.64,-186.43 890.98,-183.9"/>
<polygon fill="midnightblue" stroke="midnightblue" points="782.99,-408.08 786.1,-418.21 789.98,-408.35 782.99,-408.08"/>
</g>
<!-- Node26 -->
<g id="node26" class="node">
<title>Node26</title>
<g id="a_node26"><a xlink:href="classrack_1_1TimeOp.html" target="_top" xlink:title="A radio interference detector.">
<polygon fill="white" stroke="black" points="889,-133.5 889,-152.5 943,-152.5 943,-133.5 889,-133.5"/>
<text text-anchor="middle" x="916" y="-140.5" font-family="Helvetica,sans-Serif" font-size="10.00">TimeOp</text>
</a>
</g>
</g>
<!-- Node6&#45;&gt;Node26 -->
<g id="edge25" class="edge">
<title>Node6&#45;&gt;Node26</title>
<path fill="none" stroke="midnightblue" d="M785.41,-408.41C785.05,-359.91 790.95,-233.01 858,-162 866.02,-153.51 877.93,-148.81 888.8,-146.21"/>
<polygon fill="midnightblue" stroke="midnightblue" points="781.91,-408.56 785.59,-418.5 788.91,-408.44 781.91,-408.56"/>
</g>
<!-- Node27 -->
<g id="node27" class="node">
<title>Node27</title>
<g id="a_node27"><a xlink:href="classrack_1_1ZDRvarOp.html" target="_top" xlink:title=" ">
<polygon fill="white" stroke="black" points="882.5,-95.5 882.5,-114.5 949.5,-114.5 949.5,-95.5 882.5,-95.5"/>
<text text-anchor="middle" x="916" y="-102.5" font-family="Helvetica,sans-Serif" font-size="10.00">ZDRvarOp</text>
</a>
</g>
</g>
<!-- Node6&#45;&gt;Node27 -->
<g id="edge26" class="edge">
<title>Node6&#45;&gt;Node27</title>
<path fill="none" stroke="midnightblue" d="M788.18,-408.18C795.21,-347.6 819.14,-166.49 858,-124 864.41,-117 873.46,-112.57 882.47,-109.77"/>
<polygon fill="midnightblue" stroke="midnightblue" points="784.68,-407.99 787.03,-418.32 791.63,-408.78 784.68,-407.99"/>
</g>
<!-- Node9 -->
<g id="node9" class="node">
<title>Node9</title>
<g id="a_node9"><a xlink:href="classrack_1_1BirdOp.html" target="_top" xlink:title=" ">
<polygon fill="white" stroke="black" points="1025.5,-760.5 1025.5,-779.5 1075.5,-779.5 1075.5,-760.5 1025.5,-760.5"/>
<text text-anchor="middle" x="1050.5" y="-767.5" font-family="Helvetica,sans-Serif" font-size="10.00">BirdOp</text>
</a>
</g>
</g>
<!-- Node8&#45;&gt;Node9 -->
<g id="edge8" class="edge">
<title>Node8&#45;&gt;Node9</title>
<path fill="none" stroke="midnightblue" d="M966.67,-758.12C986.66,-760.99 1008.81,-764.17 1025.17,-766.51"/>
<polygon fill="midnightblue" stroke="midnightblue" points="967.15,-754.66 956.75,-756.7 966.16,-761.58 967.15,-754.66"/>
</g>
<!-- Node10 -->
<g id="node10" class="node">
<title>Node10</title>
<g id="a_node10"><a xlink:href="classrack_1_1InsectOp.html" target="_top" xlink:title=" ">
<polygon fill="white" stroke="black" points="1021,-722.5 1021,-741.5 1080,-741.5 1080,-722.5 1021,-722.5"/>
<text text-anchor="middle" x="1050.5" y="-729.5" font-family="Helvetica,sans-Serif" font-size="10.00">InsectOp</text>
</a>
</g>
</g>
<!-- Node8&#45;&gt;Node10 -->
<g id="edge9" class="edge">
<title>Node8&#45;&gt;Node10</title>
<path fill="none" stroke="midnightblue" d="M966.66,-743.88C984.9,-741.26 1004.93,-738.39 1020.72,-736.13"/>
<polygon fill="midnightblue" stroke="midnightblue" points="966.16,-740.42 956.75,-745.3 967.15,-747.34 966.16,-740.42"/>
</g>
<!-- Node29 -->
<g id="node29" class="node">
<title>Node29</title>
<g id="a_node29"><a xlink:href="classrack_1_1DamperOp.html" target="_top" xlink:title=" ">
<polygon fill="white" stroke="black" points="881.5,-57.5 881.5,-76.5 950.5,-76.5 950.5,-57.5 881.5,-57.5"/>
<text text-anchor="middle" x="916" y="-64.5" font-family="Helvetica,sans-Serif" font-size="10.00">DamperOp</text>
</a>
</g>
</g>
<!-- Node28&#45;&gt;Node29 -->
<g id="edge28" class="edge">
<title>Node28&#45;&gt;Node29</title>
<path fill="none" stroke="midnightblue" d="M832.57,-67C848.65,-67 866.35,-67 881.21,-67"/>
<polygon fill="midnightblue" stroke="midnightblue" points="832.28,-63.5 822.28,-67 832.28,-70.5 832.28,-63.5"/>
</g>
<!-- Node30 -->
<g id="node30" class="node">
<title>Node30</title>
<g id="a_node30"><a xlink:href="classrack_1_1GapFillOpBase.html" target="_top" xlink:title="The base class for operators removing detected anomalies by overriding low&#45;quality pixels with neighb...">
<polygon fill="white" stroke="black" points="872.5,-19.5 872.5,-38.5 959.5,-38.5 959.5,-19.5 872.5,-19.5"/>
<text text-anchor="middle" x="916" y="-26.5" font-family="Helvetica,sans-Serif" font-size="10.00">GapFillOpBase</text>
</a>
</g>
</g>
<!-- Node28&#45;&gt;Node30 -->
<g id="edge29" class="edge">
<title>Node28&#45;&gt;Node30</title>
<path fill="none" stroke="midnightblue" d="M828.55,-54.46C846.1,-49.3 866.11,-43.4 882.46,-38.59"/>
<polygon fill="midnightblue" stroke="midnightblue" points="827.16,-51.23 818.55,-57.41 829.13,-57.94 827.16,-51.23"/>
</g>
<!-- Node31 -->
<g id="node31" class="node">
<title>Node31</title>
<g id="a_node31"><a xlink:href="classrack_1_1GapFillOp.html" target="_top" xlink:title="A simple gap filler based on distance transformation.">
<polygon fill="white" stroke="black" points="1019,-38.5 1019,-57.5 1082,-57.5 1082,-38.5 1019,-38.5"/>
<text text-anchor="middle" x="1050.5" y="-45.5" font-family="Helvetica,sans-Serif" font-size="10.00">GapFillOp</text>
</a>
</g>
</g>
<!-- Node30&#45;&gt;Node31 -->
<g id="edge30" class="edge">
<title>Node30&#45;&gt;Node31</title>
<path fill="none" stroke="midnightblue" d="M969.79,-36.57C986.38,-38.95 1004.15,-41.5 1018.69,-43.58"/>
<polygon fill="midnightblue" stroke="midnightblue" points="970.05,-33.07 959.65,-35.12 969.06,-40 970.05,-33.07"/>
</g>
<!-- Node32 -->
<g id="node32" class="node">
<title>Node32</title>
<g id="a_node32"><a xlink:href="classrack_1_1GapFillRecOp.html" target="_top" xlink:title="Recursive, &#39;splinic&#39; gap filler based on fast averaging.">
<polygon fill="white" stroke="black" points="1010,-0.5 1010,-19.5 1091,-19.5 1091,-0.5 1010,-0.5"/>
<text text-anchor="middle" x="1050.5" y="-7.5" font-family="Helvetica,sans-Serif" font-size="10.00">GapFillRecOp</text>
</a>
</g>
</g>
<!-- Node30&#45;&gt;Node32 -->
<g id="edge31" class="edge">
<title>Node30&#45;&gt;Node32</title>
<path fill="none" stroke="midnightblue" d="M969.65,-21.45C982.97,-19.54 997.06,-17.52 1009.63,-15.72"/>
<polygon fill="midnightblue" stroke="midnightblue" points="969.06,-18 959.65,-22.88 970.05,-24.93 969.06,-18"/>
</g>
</g>
</svg>
        <g id="navigator" transform="translate(0 0)" fill="#404254">
                <rect fill="#f2f5e9" fill-opacity="0.5" stroke="#606060" stroke-width=".5" x="0" y="0" width="60" height="60"/>
                <use id="zoomplus" xlink:href="#zoomPlus" x="17" y="9" onmousedown="handleZoom(evt,'in')"/>
                <use id="zoomminus" xlink:href="#zoomMin" x="42" y="9" onmousedown="handleZoom(evt,'out')"/>
                <use id="reset" xlink:href="#resetDef" x="30" y="36" onmousedown="handleReset()"/>
                <g id="arrowUp" xlink:href="#dirArrow" transform="translate(30 24)" onmousedown="handlePan(0,-1)">
                  <use xlink:href="#rim" fill="#404040">
                        <set attributeName="fill" to="#808080" begin="arrowUp.mouseover" end="arrowUp.mouseout"/>
                  </use>
                  <path fill="none" stroke="white" stroke-width="1.5" d="M0,-3.0v7 M-2.5,-0.5L0,-3.0L2.5,-0.5"/>
                </g>
                <g id="arrowRight" xlink:href="#dirArrow" transform="rotate(90) translate(36 -43)" onmousedown="handlePan(1,0)">
                  <use xlink:href="#rim" fill="#404040">
                        <set attributeName="fill" to="#808080" begin="arrowRight.mouseover" end="arrowRight.mouseout"/>
                  </use>
                  <path fill="none" stroke="white" stroke-width="1.5" d="M0,-3.0v7 M-2.5,-0.5L0,-3.0L2.5,-0.5"/>
                </g>
                <g id="arrowDown" xlink:href="#dirArrow" transform="rotate(180) translate(-30 -48)" onmousedown="handlePan(0,1)">
                  <use xlink:href="#rim" fill="#404040">
                        <set attributeName="fill" to="#808080" begin="arrowDown.mouseover" end="arrowDown.mouseout"/>
                  </use>
                  <path fill="none" stroke="white" stroke-width="1.5" d="M0,-3.0v7 M-2.5,-0.5L0,-3.0L2.5,-0.5"/>
                </g>
                <g id="arrowLeft" xlink:href="#dirArrow" transform="rotate(270) translate(-36 17)" onmousedown="handlePan(-1,0)">
                  <use xlink:href="#rim" fill="#404040">
                        <set attributeName="fill" to="#808080" begin="arrowLeft.mouseover" end="arrowLeft.mouseout"/>
                  </use>
                  <path fill="none" stroke="white" stroke-width="1.5" d="M0,-3.0v7 M-2.5,-0.5L0,-3.0L2.5,-0.5"/>
                </g>
        </g>
        <svg viewBox="0 0 15 15" width="100%" height="30px" preserveAspectRatio="xMaxYMin meet">
         <g id="arrow_out" transform="scale(0.3 0.3)">
          <a xlink:href="classrack_1_1AndreOp__inherit__graph_org.svg" target="_base">
           <rect id="button" ry="5" rx="5" y="6" x="6" height="38" width="38"
                fill="#f2f5e9" fill-opacity="0.5" stroke="#606060" stroke-width="1.0"/>
           <path id="arrow"
             d="M 11.500037,31.436501 C 11.940474,20.09759 22.043105,11.32322 32.158766,21.979434 L 37.068811,17.246167 C 37.068811,17.246167 37.088388,32 37.088388,32 L 22.160133,31.978069 C 22.160133,31.978069 26.997745,27.140456 26.997745,27.140456 C 18.528582,18.264221 13.291696,25.230495 11.500037,31.436501 z"
             style="fill:#404040;"/>
          </a>
         </g>
        </svg>
</svg>
