<?xml version="1.0" encoding="UTF-8" standalone="no"?>
<!DOCTYPE svg PUBLIC "-//W3C//DTD SVG 1.1//EN"
 "http://www.w3.org/Graphics/SVG/1.1/DTD/svg11.dtd">
<!-- Generated by graphviz version 2.43.0 (0)
 -->
<!-- Title: SlidingStripe&lt; C, R, DIR &gt; Pages: 1 -->
<svg width="1182pt" height="897pt"
 viewBox="0.00 0.00 1181.50 897.00" xmlns="http://www.w3.org/2000/svg" xmlns:xlink="http://www.w3.org/1999/xlink">
<g id="graph0" class="graph" transform="scale(1 1) rotate(0) translate(4 893)">
<title>SlidingStripe&lt; C, R, DIR &gt;</title>
<polygon fill="white" stroke="transparent" points="-4,4 -4,-893 1177.5,-893 1177.5,4 -4,4"/>
<!-- Node1 -->
<g id="node1" class="node">
<title>Node1</title>
<g id="a_node1"><a xlink:title="A horizontal, one&#45;dimensional SlidingWindow (Nx1).">
<polygon fill="#bfbfbf" stroke="black" points="587,-0.5 587,-30.5 699,-30.5 699,-0.5 587,-0.5"/>
<text text-anchor="start" x="595" y="-18.5" font-family="Helvetica,sans-Serif" font-size="10.00">SlidingStripe&lt; C, R,</text>
<text text-anchor="middle" x="643" y="-7.5" font-family="Helvetica,sans-Serif" font-size="10.00"> DIR &gt;</text>
</a>
</g>
</g>
<!-- Node2 -->
<g id="node2" class="node">
<title>Node2</title>
<g id="a_node2"><a xlink:href="classdrain_1_1image_1_1SlidingWindow.html" target="_top" xlink:title=" ">
<polygon fill="white" stroke="black" points="556.5,-69.5 556.5,-99.5 729.5,-99.5 729.5,-69.5 556.5,-69.5"/>
<text text-anchor="start" x="564.5" y="-87.5" font-family="Helvetica,sans-Serif" font-size="10.00">SlidingWindow&lt; WindowConfig,</text>
<text text-anchor="middle" x="643" y="-76.5" font-family="Helvetica,sans-Serif" font-size="10.00"> WindowCore &gt;</text>
</a>
</g>
</g>
<!-- Node2&#45;&gt;Node1 -->
<g id="edge1" class="edge">
<title>Node2&#45;&gt;Node1</title>
<path fill="none" stroke="midnightblue" d="M643,-59.14C643,-49.58 643,-38.95 643,-30.69"/>
<polygon fill="midnightblue" stroke="midnightblue" points="639.5,-59.29 643,-69.29 646.5,-59.29 639.5,-59.29"/>
</g>
<!-- Node2&#45;&gt;Node2 -->
<g id="edge55" class="edge">
<title>Node2&#45;&gt;Node2</title>
<path fill="none" stroke="#9a32cd" stroke-dasharray="5,2" d="M740.13,-88.55C744.78,-87.53 747.5,-86.18 747.5,-84.5 747.5,-81.81 740.53,-79.97 729.89,-78.98"/>
<polygon fill="#9a32cd" stroke="#9a32cd" points="739.29,-85.13 729.89,-90.02 740.28,-92.06 739.29,-85.13"/>
<text text-anchor="middle" x="776" y="-93" font-family="Helvetica,sans-Serif" font-size="10.00"> fill</text>
<text text-anchor="middle" x="776" y="-82" font-family="Helvetica,sans-Serif" font-size="10.00">updateVert</text>
<text text-anchor="middle" x="776" y="-71" font-family="Helvetica,sans-Serif" font-size="10.00">updateHorz</text>
</g>
<!-- Node3 -->
<g id="node3" class="node">
<title>Node3</title>
<g id="a_node3"><a xlink:href="classdrain_1_1image_1_1Window.html" target="_top" xlink:title=" ">
<polygon fill="white" stroke="black" points="477,-139.5 477,-169.5 617,-169.5 617,-139.5 477,-139.5"/>
<text text-anchor="start" x="485" y="-157.5" font-family="Helvetica,sans-Serif" font-size="10.00">Window&lt; WindowConfig,</text>
<text text-anchor="middle" x="547" y="-146.5" font-family="Helvetica,sans-Serif" font-size="10.00"> WindowCore &gt;</text>
</a>
</g>
</g>
<!-- Node3&#45;&gt;Node2 -->
<g id="edge2" class="edge">
<title>Node3&#45;&gt;Node2</title>
<path fill="none" stroke="midnightblue" d="M575.06,-133.62C590.48,-122.7 609.24,-109.41 623.13,-99.57"/>
<polygon fill="midnightblue" stroke="midnightblue" points="573.03,-130.77 566.89,-139.41 577.07,-136.49 573.03,-130.77"/>
</g>
<!-- Node4 -->
<g id="node4" class="node">
<title>Node4</title>
<g id="a_node4"><a xlink:href="classdrain_1_1image_1_1WindowCore.html" target="_top" xlink:title="Container for source data (input) and destination data (output). May also contain metadata of them.">
<polygon fill="white" stroke="black" points="693,-219.5 693,-238.5 771,-238.5 771,-219.5 693,-219.5"/>
<text text-anchor="middle" x="732" y="-226.5" font-family="Helvetica,sans-Serif" font-size="10.00">WindowCore</text>
</a>
</g>
</g>
<!-- Node4&#45;&gt;Node3 -->
<g id="edge3" class="edge">
<title>Node4&#45;&gt;Node3</title>
<path fill="none" stroke="midnightblue" d="M686.52,-216.76C670.06,-212.21 651.48,-206.48 635,-200 613.01,-191.36 589.16,-179.1 571.84,-169.64"/>
<polygon fill="midnightblue" stroke="midnightblue" points="685.88,-220.22 696.45,-219.45 687.71,-213.46 685.88,-220.22"/>
</g>
<!-- Node5 -->
<g id="node5" class="node">
<title>Node5</title>
<g id="a_node5"><a xlink:href="classdrain_1_1image_1_1WindowCoreBase.html" target="_top" xlink:title="Provides splitting frames.">
<polygon fill="white" stroke="black" points="630,-298.5 630,-317.5 732,-317.5 732,-298.5 630,-298.5"/>
<text text-anchor="middle" x="681" y="-305.5" font-family="Helvetica,sans-Serif" font-size="10.00">WindowCoreBase</text>
</a>
</g>
</g>
<!-- Node5&#45;&gt;Node4 -->
<g id="edge4" class="edge">
<title>Node5&#45;&gt;Node4</title>
<path fill="none" stroke="midnightblue" d="M692.18,-290.12C702.66,-274.3 717.91,-251.27 726.17,-238.81"/>
<polygon fill="midnightblue" stroke="midnightblue" points="689.26,-288.2 686.65,-298.47 695.09,-292.06 689.26,-288.2"/>
</g>
<!-- Node6 -->
<g id="node6" class="node">
<title>Node6</title>
<g id="a_node6"><a xlink:href="classdrain_1_1image_1_1ImageView.html" target="_top" xlink:title="ImageFrame that also has channels.">
<polygon fill="white" stroke="black" points="750.5,-298.5 750.5,-317.5 821.5,-317.5 821.5,-298.5 750.5,-298.5"/>
<text text-anchor="middle" x="786" y="-305.5" font-family="Helvetica,sans-Serif" font-size="10.00">ImageView</text>
</a>
</g>
</g>
<!-- Node6&#45;&gt;Node4 -->
<g id="edge5" class="edge">
<title>Node6&#45;&gt;Node4</title>
<path fill="none" stroke="#9a32cd" stroke-dasharray="5,2" d="M774.16,-290.12C763.07,-274.3 746.92,-251.27 738.18,-238.81"/>
<polygon fill="#9a32cd" stroke="#9a32cd" points="771.41,-292.29 780.01,-298.47 777.14,-288.27 771.41,-292.29"/>
<text text-anchor="middle" x="775" y="-272" font-family="Helvetica,sans-Serif" font-size="10.00"> src</text>
<text text-anchor="middle" x="775" y="-261" font-family="Helvetica,sans-Serif" font-size="10.00">dst</text>
</g>
<!-- Node7 -->
<g id="node7" class="node">
<title>Node7</title>
<g id="a_node7"><a xlink:href="classdrain_1_1image_1_1MultiChannel.html" target="_top" xlink:title="Multi&#45;channel ImageFrame.">
<polygon fill="white" stroke="black" points="676.5,-361 676.5,-380 757.5,-380 757.5,-361 676.5,-361"/>
<text text-anchor="middle" x="717" y="-368" font-family="Helvetica,sans-Serif" font-size="10.00">MultiChannel</text>
</a>
</g>
</g>
<!-- Node7&#45;&gt;Node6 -->
<g id="edge6" class="edge">
<title>Node7&#45;&gt;Node6</title>
<path fill="none" stroke="midnightblue" d="M734.43,-354.22C747.62,-342.65 765.28,-327.17 776.13,-317.65"/>
<polygon fill="midnightblue" stroke="midnightblue" points="732.1,-351.61 726.89,-360.83 736.71,-356.87 732.1,-351.61"/>
</g>
<!-- Node8 -->
<g id="node8" class="node">
<title>Node8</title>
<g id="a_node8"><a xlink:href="classdrain_1_1image_1_1ImageFrame.html" target="_top" xlink:title="Image with static geometry.">
<polygon fill="white" stroke="black" points="600,-433.5 600,-452.5 678,-452.5 678,-433.5 600,-433.5"/>
<text text-anchor="middle" x="639" y="-440.5" font-family="Helvetica,sans-Serif" font-size="10.00">ImageFrame</text>
</a>
</g>
</g>
<!-- Node8&#45;&gt;Node7 -->
<g id="edge7" class="edge">
<title>Node8&#45;&gt;Node7</title>
<path fill="none" stroke="midnightblue" d="M656.05,-426.58C671.78,-412.37 694.57,-391.77 707.36,-380.22"/>
<polygon fill="midnightblue" stroke="midnightblue" points="653.64,-424.05 648.56,-433.36 658.33,-429.25 653.64,-424.05"/>
</g>
<!-- Node9 -->
<g id="node9" class="node">
<title>Node9</title>
<g id="a_node9"><a xlink:href="classdrain_1_1image_1_1ImageLike.html" target="_top" xlink:title="A base class for images.">
<polygon fill="white" stroke="black" points="702.5,-512.5 702.5,-531.5 769.5,-531.5 769.5,-512.5 702.5,-512.5"/>
<text text-anchor="middle" x="736" y="-519.5" font-family="Helvetica,sans-Serif" font-size="10.00">ImageLike</text>
</a>
</g>
</g>
<!-- Node9&#45;&gt;Node8 -->
<g id="edge8" class="edge">
<title>Node9&#45;&gt;Node8</title>
<path fill="none" stroke="midnightblue" d="M717.15,-506.04C697.1,-490.12 666.07,-465.49 649.8,-452.57"/>
<polygon fill="midnightblue" stroke="midnightblue" points="715.24,-508.99 725.25,-512.47 719.59,-503.51 715.24,-508.99"/>
</g>
<!-- Node10 -->
<g id="node10" class="node">
<title>Node10</title>
<g id="a_node10"><a xlink:href="classdrain_1_1image_1_1ImageConf.html" target="_top" xlink:title="Struct for image (excluding data)">
<polygon fill="white" stroke="black" points="701,-589.5 701,-608.5 771,-608.5 771,-589.5 701,-589.5"/>
<text text-anchor="middle" x="736" y="-596.5" font-family="Helvetica,sans-Serif" font-size="10.00">ImageConf</text>
</a>
</g>
</g>
<!-- Node10&#45;&gt;Node9 -->
<g id="edge9" class="edge">
<title>Node10&#45;&gt;Node9</title>
<path fill="none" stroke="#9a32cd" stroke-dasharray="5,2" d="M736,-579.02C736,-563.74 736,-542.98 736,-531.5"/>
<polygon fill="#9a32cd" stroke="#9a32cd" points="732.5,-579.4 736,-589.4 739.5,-579.4 732.5,-579.4"/>
<text text-anchor="middle" x="748.5" y="-558.5" font-family="Helvetica,sans-Serif" font-size="10.00"> conf</text>
</g>
<!-- Node11 -->
<g id="node11" class="node">
<title>Node11</title>
<g id="a_node11"><a xlink:href="classdrain_1_1image_1_1Encoding.html" target="_top" xlink:title=" ">
<polygon fill="white" stroke="black" points="715.5,-656.5 715.5,-675.5 776.5,-675.5 776.5,-656.5 715.5,-656.5"/>
<text text-anchor="middle" x="746" y="-663.5" font-family="Helvetica,sans-Serif" font-size="10.00">Encoding</text>
</a>
</g>
</g>
<!-- Node11&#45;&gt;Node10 -->
<g id="edge10" class="edge">
<title>Node11&#45;&gt;Node10</title>
<path fill="none" stroke="midnightblue" d="M743.08,-646.04C741.18,-633.67 738.79,-618.12 737.33,-608.63"/>
<polygon fill="midnightblue" stroke="midnightblue" points="739.67,-646.88 744.65,-656.23 746.59,-645.82 739.67,-646.88"/>
</g>
<!-- Node12 -->
<g id="node12" class="node">
<title>Node12</title>
<g id="a_node12"><a xlink:href="classdrain_1_1ValueScaling.html" target="_top" xlink:title="Linear scaling and physical range for image intensities.">
<polygon fill="white" stroke="black" points="700,-729 700,-748 780,-748 780,-729 700,-729"/>
<text text-anchor="middle" x="740" y="-736" font-family="Helvetica,sans-Serif" font-size="10.00">ValueScaling</text>
</a>
</g>
</g>
<!-- Node12&#45;&gt;Node11 -->
<g id="edge11" class="edge">
<title>Node12&#45;&gt;Node11</title>
<path fill="none" stroke="midnightblue" d="M741.59,-718.86C742.77,-704.9 744.35,-686.43 745.26,-675.72"/>
<polygon fill="midnightblue" stroke="midnightblue" points="738.1,-718.59 740.74,-728.86 745.07,-719.19 738.1,-718.59"/>
</g>
<!-- Node13 -->
<g id="node13" class="node">
<title>Node13</title>
<g id="a_node13"><a xlink:href="classdrain_1_1UniTuple.html" target="_top" xlink:title=" ">
<polygon fill="white" stroke="black" points="721,-807 721,-826 847,-826 847,-807 721,-807"/>
<text text-anchor="middle" x="784" y="-814" font-family="Helvetica,sans-Serif" font-size="10.00">UniTuple&lt; double, 4 &gt;</text>
</a>
</g>
</g>
<!-- Node13&#45;&gt;Node12 -->
<g id="edge12" class="edge">
<title>Node13&#45;&gt;Node12</title>
<path fill="none" stroke="midnightblue" d="M773.91,-798.07C764.86,-782.45 751.98,-760.2 744.99,-748.12"/>
<polygon fill="midnightblue" stroke="midnightblue" points="770.91,-799.88 778.95,-806.78 776.97,-796.37 770.91,-799.88"/>
</g>
<!-- Node14 -->
<g id="node14" class="node">
<title>Node14</title>
<g id="a_node14"><a xlink:href="classdrain_1_1Range.html" target="_top" xlink:title=" ">
<polygon fill="white" stroke="black" points="599.5,-807 599.5,-826 702.5,-826 702.5,-807 599.5,-807"/>
<text text-anchor="middle" x="651" y="-814" font-family="Helvetica,sans-Serif" font-size="10.00">Range&lt; double &gt;</text>
</a>
</g>
</g>
<!-- Node14&#45;&gt;Node12 -->
<g id="edge13" class="edge">
<title>Node14&#45;&gt;Node12</title>
<path fill="none" stroke="#9a32cd" stroke-dasharray="5,2" d="M666.77,-799.76C675.47,-791.29 686.59,-780.81 697,-772 707,-763.54 718.92,-754.61 727.67,-748.26"/>
<polygon fill="#9a32cd" stroke="#9a32cd" points="664.23,-797.36 659.55,-806.86 669.14,-802.35 664.23,-797.36"/>
<text text-anchor="middle" x="726" y="-775" font-family="Helvetica,sans-Serif" font-size="10.00"> physRange</text>
</g>
<!-- Node15 -->
<g id="node15" class="node">
<title>Node15</title>
<g id="a_node15"><a xlink:href="classdrain_1_1UniTuple.html" target="_top" xlink:title=" ">
<polygon fill="white" stroke="black" points="588,-869.5 588,-888.5 714,-888.5 714,-869.5 588,-869.5"/>
<text text-anchor="middle" x="651" y="-876.5" font-family="Helvetica,sans-Serif" font-size="10.00">UniTuple&lt; double, 2 &gt;</text>
</a>
</g>
</g>
<!-- Node15&#45;&gt;Node14 -->
<g id="edge14" class="edge">
<title>Node15&#45;&gt;Node14</title>
<path fill="none" stroke="midnightblue" d="M651,-859C651,-848 651,-834.68 651,-826.15"/>
<polygon fill="midnightblue" stroke="midnightblue" points="647.5,-859.33 651,-869.33 654.5,-859.33 647.5,-859.33"/>
</g>
<!-- Node16 -->
<g id="node16" class="node">
<title>Node16</title>
<g id="a_node16"><a xlink:href="classdrain_1_1Caster.html" target="_top" xlink:title=" ">
<polygon fill="white" stroke="black" points="622,-729 622,-748 670,-748 670,-729 622,-729"/>
<text text-anchor="middle" x="646" y="-736" font-family="Helvetica,sans-Serif" font-size="10.00">Caster</text>
</a>
</g>
</g>
<!-- Node16&#45;&gt;Node11 -->
<g id="edge15" class="edge">
<title>Node16&#45;&gt;Node11</title>
<path fill="none" stroke="#9a32cd" stroke-dasharray="5,2" d="M665.12,-722.61C676.31,-714.04 690.79,-703.18 704,-694 713.25,-687.57 723.94,-680.71 732.22,-675.51"/>
<polygon fill="#9a32cd" stroke="#9a32cd" points="662.73,-720.04 656.94,-728.92 667,-725.58 662.73,-720.04"/>
<text text-anchor="middle" x="721" y="-697" font-family="Helvetica,sans-Serif" font-size="10.00"> caster</text>
</g>
<!-- Node27 -->
<g id="node27" class="node">
<title>Node27</title>
<g id="a_node27"><a xlink:href="classdrain_1_1Castable.html" target="_top" xlink:title=" ">
<polygon fill="white" stroke="black" points="610.5,-656.5 610.5,-675.5 669.5,-675.5 669.5,-656.5 610.5,-656.5"/>
<text text-anchor="middle" x="640" y="-663.5" font-family="Helvetica,sans-Serif" font-size="10.00">Castable</text>
</a>
</g>
</g>
<!-- Node16&#45;&gt;Node27 -->
<g id="edge28" class="edge">
<title>Node16&#45;&gt;Node27</title>
<path fill="none" stroke="#9a32cd" stroke-dasharray="5,2" d="M642.71,-718.77C642.03,-714.28 641.4,-709.48 641,-705 640.1,-695.01 639.92,-683.49 639.92,-675.77"/>
<polygon fill="#9a32cd" stroke="#9a32cd" points="639.31,-719.68 644.39,-728.98 646.22,-718.55 639.31,-719.68"/>
<text text-anchor="middle" x="658" y="-697" font-family="Helvetica,sans-Serif" font-size="10.00"> caster</text>
</g>
<!-- Node17 -->
<g id="node17" class="node">
<title>Node17</title>
<g id="a_node17"><a xlink:href="classdrain_1_1image_1_1Geometry.html" target="_top" xlink:title=" ">
<polygon fill="white" stroke="black" points="897.5,-656.5 897.5,-675.5 962.5,-675.5 962.5,-656.5 897.5,-656.5"/>
<text text-anchor="middle" x="930" y="-663.5" font-family="Helvetica,sans-Serif" font-size="10.00">Geometry</text>
</a>
</g>
</g>
<!-- Node17&#45;&gt;Node10 -->
<g id="edge16" class="edge">
<title>Node17&#45;&gt;Node10</title>
<path fill="none" stroke="midnightblue" d="M894.49,-653.1C856.02,-640.21 795.61,-619.97 761.56,-608.56"/>
<polygon fill="midnightblue" stroke="midnightblue" points="893.64,-656.51 904.24,-656.37 895.87,-649.87 893.64,-656.51"/>
</g>
<!-- Node18 -->
<g id="node18" class="node">
<title>Node18</title>
<g id="a_node18"><a xlink:href="classdrain_1_1UniTuple.html" target="_top" xlink:title=" ">
<polygon fill="white" stroke="black" points="928,-729 928,-748 1050,-748 1050,-729 928,-729"/>
<text text-anchor="middle" x="989" y="-736" font-family="Helvetica,sans-Serif" font-size="10.00">UniTuple&lt; size_t, 4 &gt;</text>
</a>
</g>
</g>
<!-- Node18&#45;&gt;Node17 -->
<g id="edge17" class="edge">
<title>Node18&#45;&gt;Node17</title>
<path fill="none" stroke="midnightblue" d="M975.11,-720.9C963.26,-706.74 946.7,-686.96 937.29,-675.72"/>
<polygon fill="midnightblue" stroke="midnightblue" points="972.66,-723.43 981.77,-728.86 978.03,-718.94 972.66,-723.43"/>
</g>
<!-- Node19 -->
<g id="node19" class="node">
<title>Node19</title>
<g id="a_node19"><a xlink:href="classdrain_1_1Frame2D.html" target="_top" xlink:title=" ">
<polygon fill="white" stroke="black" points="798,-729 798,-748 910,-748 910,-729 798,-729"/>
<text text-anchor="middle" x="854" y="-736" font-family="Helvetica,sans-Serif" font-size="10.00">Frame2D&lt; size_t &gt;</text>
</a>
</g>
</g>
<!-- Node19&#45;&gt;Node17 -->
<g id="edge18" class="edge">
<title>Node19&#45;&gt;Node17</title>
<path fill="none" stroke="#9a32cd" stroke-dasharray="5,2" d="M871.04,-721.69C886.35,-707.49 908.26,-687.17 920.6,-675.72"/>
<polygon fill="#9a32cd" stroke="#9a32cd" points="868.27,-719.49 863.32,-728.86 873.03,-724.62 868.27,-719.49"/>
<text text-anchor="middle" x="910.5" y="-697" font-family="Helvetica,sans-Serif" font-size="10.00"> area</text>
</g>
<!-- Node20 -->
<g id="node20" class="node">
<title>Node20</title>
<g id="a_node20"><a xlink:href="classdrain_1_1UniTuple.html" target="_top" xlink:title=" ">
<polygon fill="white" stroke="black" points="984,-807 984,-826 1106,-826 1106,-807 984,-807"/>
<text text-anchor="middle" x="1045" y="-814" font-family="Helvetica,sans-Serif" font-size="10.00">UniTuple&lt; size_t, 2 &gt;</text>
</a>
</g>
</g>
<!-- Node20&#45;&gt;Node19 -->
<g id="edge19" class="edge">
<title>Node20&#45;&gt;Node19</title>
<path fill="none" stroke="midnightblue" d="M1013.69,-803.04C974.71,-787.53 909.17,-761.45 875.46,-748.04"/>
<polygon fill="midnightblue" stroke="midnightblue" points="1012.88,-806.48 1023.46,-806.93 1015.46,-799.98 1012.88,-806.48"/>
</g>
<!-- Node21 -->
<g id="node21" class="node">
<title>Node21</title>
<g id="a_node21"><a xlink:href="classdrain_1_1image_1_1ChannelGeometry.html" target="_top" xlink:title=" ">
<polygon fill="white" stroke="black" points="1068.5,-729 1068.5,-748 1173.5,-748 1173.5,-729 1068.5,-729"/>
<text text-anchor="middle" x="1121" y="-736" font-family="Helvetica,sans-Serif" font-size="10.00">ChannelGeometry</text>
</a>
</g>
</g>
<!-- Node20&#45;&gt;Node21 -->
<g id="edge21" class="edge">
<title>Node20&#45;&gt;Node21</title>
<path fill="none" stroke="midnightblue" d="M1061.12,-799.38C1076.78,-783.72 1099.96,-760.54 1112.38,-748.12"/>
<polygon fill="midnightblue" stroke="midnightblue" points="1058.31,-797.24 1053.72,-806.78 1063.26,-802.19 1058.31,-797.24"/>
</g>
<!-- Node21&#45;&gt;Node17 -->
<g id="edge20" class="edge">
<title>Node21&#45;&gt;Node17</title>
<path fill="none" stroke="#9a32cd" stroke-dasharray="5,2" d="M1088.27,-725.42C1049.77,-711.21 986.87,-687.99 953.12,-675.53"/>
<polygon fill="#9a32cd" stroke="#9a32cd" points="1087.37,-728.82 1097.96,-729 1089.79,-722.25 1087.37,-728.82"/>
<text text-anchor="middle" x="1054.5" y="-697" font-family="Helvetica,sans-Serif" font-size="10.00"> channels</text>
</g>
<!-- Node22 -->
<g id="node22" class="node">
<title>Node22</title>
<g id="a_node22"><a xlink:href="classdrain_1_1image_1_1CoordinatePolicy.html" target="_top" xlink:title="Policies for coordinate underflows and overflows.">
<polygon fill="white" stroke="black" points="298.5,-656.5 298.5,-675.5 397.5,-675.5 397.5,-656.5 298.5,-656.5"/>
<text text-anchor="middle" x="348" y="-663.5" font-family="Helvetica,sans-Serif" font-size="10.00">CoordinatePolicy</text>
</a>
</g>
</g>
<!-- Node22&#45;&gt;Node10 -->
<g id="edge22" class="edge">
<title>Node22&#45;&gt;Node10</title>
<path fill="none" stroke="#9a32cd" stroke-dasharray="5,2" d="M407.44,-655.04C489.33,-641.32 634.27,-617.04 700.81,-605.9"/>
<polygon fill="#9a32cd" stroke="#9a32cd" points="406.82,-651.6 397.53,-656.7 407.98,-658.5 406.82,-651.6"/>
<text text-anchor="middle" x="607.5" y="-630" font-family="Helvetica,sans-Serif" font-size="10.00"> coordinatePolicy</text>
</g>
<!-- Node48 -->
<g id="node48" class="node">
<title>Node48</title>
<g id="a_node48"><a xlink:href="classdrain_1_1image_1_1CoordinateHandler2D.html" target="_top" xlink:title=" ">
<polygon fill="white" stroke="black" points="362,-219.5 362,-238.5 484,-238.5 484,-219.5 362,-219.5"/>
<text text-anchor="middle" x="423" y="-226.5" font-family="Helvetica,sans-Serif" font-size="10.00">CoordinateHandler2D</text>
</a>
</g>
</g>
<!-- Node22&#45;&gt;Node48 -->
<g id="edge54" class="edge">
<title>Node22&#45;&gt;Node48</title>
<path fill="none" stroke="#9a32cd" stroke-dasharray="5,2" d="M348,-646.13C348,-633.16 348,-615.54 348,-600 348,-600 348,-600 348,-307 348,-274.53 382.65,-250.63 404.84,-238.65"/>
<polygon fill="#9a32cd" stroke="#9a32cd" points="344.5,-646.17 348,-656.17 351.5,-646.17 344.5,-646.17"/>
<text text-anchor="middle" x="364.5" y="-440.5" font-family="Helvetica,sans-Serif" font-size="10.00"> policy</text>
</g>
<!-- Node23 -->
<g id="node23" class="node">
<title>Node23</title>
<g id="a_node23"><a xlink:href="classdrain_1_1UniTuple.html" target="_top" xlink:title=" ">
<polygon fill="white" stroke="black" points="332.5,-723.5 332.5,-753.5 449.5,-753.5 449.5,-723.5 332.5,-723.5"/>
<text text-anchor="start" x="340.5" y="-741.5" font-family="Helvetica,sans-Serif" font-size="10.00">UniTuple&lt; coord_pol</text>
<text text-anchor="middle" x="391" y="-730.5" font-family="Helvetica,sans-Serif" font-size="10.00">_t, 4 &gt;</text>
</a>
</g>
</g>
<!-- Node23&#45;&gt;Node22 -->
<g id="edge23" class="edge">
<title>Node23&#45;&gt;Node22</title>
<path fill="none" stroke="midnightblue" d="M377.05,-714.63C369,-701.42 359.33,-685.57 353.42,-675.89"/>
<polygon fill="midnightblue" stroke="midnightblue" points="374.1,-716.52 382.3,-723.23 380.08,-712.87 374.1,-716.52"/>
</g>
<!-- Node24 -->
<g id="node24" class="node">
<title>Node24</title>
<g id="a_node24"><a xlink:href="classdrain_1_1Dictionary2.html" target="_top" xlink:title="Two&#45;way mapping between strings and objects of template class T.">
<polygon fill="white" stroke="black" points="199.5,-729 199.5,-748 314.5,-748 314.5,-729 199.5,-729"/>
<text text-anchor="middle" x="257" y="-736" font-family="Helvetica,sans-Serif" font-size="10.00">Dictionary2&lt; K, V &gt;</text>
</a>
</g>
</g>
<!-- Node24&#45;&gt;Node22 -->
<g id="edge24" class="edge">
<title>Node24&#45;&gt;Node22</title>
<path fill="none" stroke="#9a32cd" stroke-dasharray="5,2" d="M276.39,-722.47C294.76,-708.25 321.69,-687.38 336.75,-675.72"/>
<polygon fill="#9a32cd" stroke="#9a32cd" points="273.92,-719.96 268.16,-728.86 278.21,-725.5 273.92,-719.96"/>
<text text-anchor="middle" x="322" y="-697" font-family="Helvetica,sans-Serif" font-size="10.00"> dict</text>
</g>
<!-- Node25 -->
<g id="node25" class="node">
<title>Node25</title>
<g id="a_node25"><a xlink:title=" ">
<polygon fill="white" stroke="#bfbfbf" points="205,-801.5 205,-831.5 309,-831.5 309,-801.5 205,-801.5"/>
<text text-anchor="start" x="213" y="-819.5" font-family="Helvetica,sans-Serif" font-size="10.00">list&lt; std::pair&lt; K,</text>
<text text-anchor="middle" x="257" y="-808.5" font-family="Helvetica,sans-Serif" font-size="10.00"> V &gt; &gt;</text>
</a>
</g>
</g>
<!-- Node25&#45;&gt;Node24 -->
<g id="edge25" class="edge">
<title>Node25&#45;&gt;Node24</title>
<path fill="none" stroke="midnightblue" d="M257,-791.17C257,-776.4 257,-758.45 257,-748.06"/>
<polygon fill="midnightblue" stroke="midnightblue" points="253.5,-791.2 257,-801.2 260.5,-791.21 253.5,-791.2"/>
</g>
<!-- Node26 -->
<g id="node26" class="node">
<title>Node26</title>
<g id="a_node26"><a xlink:href="classdrain_1_1CastableIterator.html" target="_top" xlink:title=" ">
<polygon fill="white" stroke="black" points="565.5,-551.5 565.5,-570.5 660.5,-570.5 660.5,-551.5 565.5,-551.5"/>
<text text-anchor="middle" x="613" y="-558.5" font-family="Helvetica,sans-Serif" font-size="10.00">CastableIterator</text>
</a>
</g>
</g>
<!-- Node26&#45;&gt;Node8 -->
<g id="edge26" class="edge">
<title>Node26&#45;&gt;Node8</title>
<path fill="none" stroke="#9a32cd" stroke-dasharray="5,2" d="M616.65,-541.36C618.49,-532.2 620.79,-521 623,-511 627.65,-489.98 633.67,-465.4 636.84,-452.65"/>
<polygon fill="#9a32cd" stroke="#9a32cd" points="613.19,-540.82 614.68,-551.31 620.06,-542.18 613.19,-540.82"/>
<text text-anchor="middle" x="658.5" y="-525" font-family="Helvetica,sans-Serif" font-size="10.00"> segmentEnd</text>
<text text-anchor="middle" x="658.5" y="-514" font-family="Helvetica,sans-Serif" font-size="10.00">segmentBegin</text>
</g>
<!-- Node27&#45;&gt;Node26 -->
<g id="edge27" class="edge">
<title>Node27&#45;&gt;Node26</title>
<path fill="none" stroke="darkgreen" d="M630.64,-647.27C629.28,-644.23 628,-641.07 627,-638 619.26,-614.28 615.38,-584.91 613.83,-570.62"/>
<polygon fill="darkgreen" stroke="darkgreen" points="627.5,-648.81 635.05,-656.25 633.79,-645.73 627.5,-648.81"/>
</g>
<!-- Node28 -->
<g id="node28" class="node">
<title>Node28</title>
<g id="a_node28"><a xlink:href="classdrain_1_1FlexVariableMap.html" target="_top" xlink:title="A map of FlexVariable:s.">
<polygon fill="white" stroke="black" points="465.5,-512.5 465.5,-531.5 564.5,-531.5 564.5,-512.5 465.5,-512.5"/>
<text text-anchor="middle" x="515" y="-519.5" font-family="Helvetica,sans-Serif" font-size="10.00">FlexVariableMap</text>
</a>
</g>
</g>
<!-- Node28&#45;&gt;Node8 -->
<g id="edge29" class="edge">
<title>Node28&#45;&gt;Node8</title>
<path fill="none" stroke="#9a32cd" stroke-dasharray="5,2" d="M516.98,-502.25C519.05,-491.68 523.3,-479.03 532,-471 550.24,-454.18 577.4,-447.47 599.8,-444.94"/>
<polygon fill="#9a32cd" stroke="#9a32cd" points="513.5,-501.82 515.51,-512.23 520.43,-502.84 513.5,-501.82"/>
<text text-anchor="middle" x="565.5" y="-485" font-family="Helvetica,sans-Serif" font-size="10.00"> propertiesPtr</text>
<text text-anchor="middle" x="565.5" y="-474" font-family="Helvetica,sans-Serif" font-size="10.00">properties</text>
</g>
<!-- Node29 -->
<g id="node29" class="node">
<title>Node29</title>
<g id="a_node29"><a xlink:href="classdrain_1_1SmartMap.html" target="_top" xlink:title=" ">
<polygon fill="white" stroke="black" points="430.5,-589.5 430.5,-608.5 581.5,-608.5 581.5,-589.5 430.5,-589.5"/>
<text text-anchor="middle" x="506" y="-596.5" font-family="Helvetica,sans-Serif" font-size="10.00">SmartMap&lt; FlexVariable &gt;</text>
</a>
</g>
</g>
<!-- Node29&#45;&gt;Node28 -->
<g id="edge30" class="edge">
<title>Node29&#45;&gt;Node28</title>
<path fill="none" stroke="midnightblue" d="M508.28,-579.02C510.11,-563.74 512.6,-542.98 513.98,-531.5"/>
<polygon fill="midnightblue" stroke="midnightblue" points="504.75,-579.05 507.03,-589.4 511.7,-579.88 504.75,-579.05"/>
</g>
<!-- Node30 -->
<g id="node30" class="node">
<title>Node30</title>
<g id="a_node30"><a xlink:title=" ">
<polygon fill="white" stroke="#bfbfbf" points="415.5,-656.5 415.5,-675.5 592.5,-675.5 592.5,-656.5 415.5,-656.5"/>
<text text-anchor="middle" x="504" y="-663.5" font-family="Helvetica,sans-Serif" font-size="10.00">map&lt; std::string, FlexVariable &gt;</text>
</a>
</g>
</g>
<!-- Node30&#45;&gt;Node29 -->
<g id="edge31" class="edge">
<title>Node30&#45;&gt;Node29</title>
<path fill="none" stroke="midnightblue" d="M504.58,-646.04C504.96,-633.67 505.44,-618.12 505.73,-608.63"/>
<polygon fill="midnightblue" stroke="midnightblue" points="501.08,-646.13 504.27,-656.23 508.08,-646.35 501.08,-646.13"/>
</g>
<!-- Node31 -->
<g id="node31" class="node">
<title>Node31</title>
<g id="a_node31"><a xlink:href="classdrain_1_1Range.html" target="_top" xlink:title=" ">
<polygon fill="white" stroke="black" points="490.5,-298.5 490.5,-317.5 573.5,-317.5 573.5,-298.5 490.5,-298.5"/>
<text text-anchor="middle" x="532" y="-305.5" font-family="Helvetica,sans-Serif" font-size="10.00">Range&lt; int &gt;</text>
</a>
</g>
</g>
<!-- Node31&#45;&gt;Node3 -->
<g id="edge32" class="edge">
<title>Node31&#45;&gt;Node3</title>
<path fill="none" stroke="#9a32cd" stroke-dasharray="5,2" d="M533.2,-288.37C534.42,-270.35 536.49,-242.27 539,-218 540.71,-201.46 543.21,-182.53 544.96,-169.87"/>
<polygon fill="#9a32cd" stroke="#9a32cd" points="529.7,-288.19 532.54,-298.4 536.69,-288.65 529.7,-288.19"/>
<text text-anchor="middle" x="557.5" y="-232" font-family="Helvetica,sans-Serif" font-size="10.00"> jRange</text>
<text text-anchor="middle" x="557.5" y="-221" font-family="Helvetica,sans-Serif" font-size="10.00">iRange</text>
</g>
<!-- Node31&#45;&gt;Node48 -->
<g id="edge52" class="edge">
<title>Node31&#45;&gt;Node48</title>
<path fill="none" stroke="#9a32cd" stroke-dasharray="5,2" d="M501.17,-294.22C492.72,-290.17 483.75,-285.33 476,-280 473.58,-278.33 446.7,-252.69 432.18,-238.8"/>
<polygon fill="#9a32cd" stroke="#9a32cd" points="499.86,-297.47 510.41,-298.45 502.78,-291.11 499.86,-297.47"/>
<text text-anchor="middle" x="496" y="-272" font-family="Helvetica,sans-Serif" font-size="10.00"> yRange</text>
<text text-anchor="middle" x="496" y="-261" font-family="Helvetica,sans-Serif" font-size="10.00">xRange</text>
</g>
<!-- Node32 -->
<g id="node32" class="node">
<title>Node32</title>
<g id="a_node32"><a xlink:href="classdrain_1_1UniTuple.html" target="_top" xlink:title=" ">
<polygon fill="white" stroke="black" points="479,-361 479,-380 585,-380 585,-361 479,-361"/>
<text text-anchor="middle" x="532" y="-368" font-family="Helvetica,sans-Serif" font-size="10.00">UniTuple&lt; int, 2 &gt;</text>
</a>
</g>
</g>
<!-- Node32&#45;&gt;Node31 -->
<g id="edge33" class="edge">
<title>Node32&#45;&gt;Node31</title>
<path fill="none" stroke="midnightblue" d="M532,-350.5C532,-339.5 532,-326.18 532,-317.65"/>
<polygon fill="midnightblue" stroke="midnightblue" points="528.5,-350.83 532,-360.83 535.5,-350.83 528.5,-350.83"/>
</g>
<!-- Node46 -->
<g id="node46" class="node">
<title>Node46</title>
<g id="a_node46"><a xlink:href="classdrain_1_1Frame2D.html" target="_top" xlink:title=" ">
<polygon fill="white" stroke="black" points="376,-298.5 376,-317.5 472,-317.5 472,-298.5 376,-298.5"/>
<text text-anchor="middle" x="424" y="-305.5" font-family="Helvetica,sans-Serif" font-size="10.00">Frame2D&lt; int &gt;</text>
</a>
</g>
</g>
<!-- Node32&#45;&gt;Node46 -->
<g id="edge48" class="edge">
<title>Node32&#45;&gt;Node46</title>
<path fill="none" stroke="midnightblue" d="M507.6,-355.83C486.7,-344.12 457.24,-327.62 439.45,-317.65"/>
<polygon fill="midnightblue" stroke="midnightblue" points="506.09,-359 516.53,-360.83 509.51,-352.89 506.09,-359"/>
</g>
<!-- Node47 -->
<g id="node47" class="node">
<title>Node47</title>
<g id="a_node47"><a xlink:href="structdrain_1_1Point2D.html" target="_top" xlink:title=" ">
<polygon fill="white" stroke="black" points="585,-219.5 585,-238.5 675,-238.5 675,-219.5 585,-219.5"/>
<text text-anchor="middle" x="630" y="-226.5" font-family="Helvetica,sans-Serif" font-size="10.00">Point2D&lt; int &gt;</text>
</a>
</g>
</g>
<!-- Node32&#45;&gt;Node47 -->
<g id="edge50" class="edge">
<title>Node32&#45;&gt;Node47</title>
<path fill="none" stroke="midnightblue" d="M549.99,-353.79C560.41,-344.12 573.33,-331.1 583,-318 602.74,-291.24 619.31,-255.12 626.36,-238.73"/>
<polygon fill="midnightblue" stroke="midnightblue" points="547.35,-351.46 542.28,-360.76 552.04,-356.65 547.35,-351.46"/>
</g>
<!-- Node33 -->
<g id="node33" class="node">
<title>Node33</title>
<g id="a_node33"><a xlink:href="structdrain_1_1UnaryFunctor.html" target="_top" xlink:title=" ">
<polygon fill="white" stroke="black" points="809,-219.5 809,-238.5 891,-238.5 891,-219.5 809,-219.5"/>
<text text-anchor="middle" x="850" y="-226.5" font-family="Helvetica,sans-Serif" font-size="10.00">UnaryFunctor</text>
</a>
</g>
</g>
<!-- Node33&#45;&gt;Node3 -->
<g id="edge34" class="edge">
<title>Node33&#45;&gt;Node3</title>
<path fill="none" stroke="#9a32cd" stroke-dasharray="5,2" d="M804.55,-217.12C751.52,-204.44 663.71,-183.43 605.6,-169.52"/>
<polygon fill="#9a32cd" stroke="#9a32cd" points="803.81,-220.55 814.35,-219.47 805.44,-213.74 803.81,-220.55"/>
<text text-anchor="middle" x="752.5" y="-192" font-family="Helvetica,sans-Serif" font-size="10.00"> myFunctor</text>
</g>
<!-- Node34 -->
<g id="node34" class="node">
<title>Node34</title>
<g id="a_node34"><a xlink:href="classdrain_1_1Functor.html" target="_top" xlink:title="Base class for sequential computations. Optional scaling utilities.">
<polygon fill="white" stroke="black" points="843.5,-298.5 843.5,-317.5 896.5,-317.5 896.5,-298.5 843.5,-298.5"/>
<text text-anchor="middle" x="870" y="-305.5" font-family="Helvetica,sans-Serif" font-size="10.00">Functor</text>
</a>
</g>
</g>
<!-- Node34&#45;&gt;Node33 -->
<g id="edge35" class="edge">
<title>Node34&#45;&gt;Node33</title>
<path fill="none" stroke="midnightblue" d="M865.27,-288.77C861.17,-273.02 855.43,-250.92 852.29,-238.81"/>
<polygon fill="midnightblue" stroke="midnightblue" points="861.88,-289.67 867.78,-298.47 868.66,-287.91 861.88,-289.67"/>
</g>
<!-- Node35 -->
<g id="node35" class="node">
<title>Node35</title>
<g id="a_node35"><a xlink:href="classdrain_1_1BeanLike.html" target="_top" xlink:title="Something which has a name, a description and possibly some parameters of varying type.">
<polygon fill="white" stroke="black" points="841.5,-361 841.5,-380 902.5,-380 902.5,-361 841.5,-361"/>
<text text-anchor="middle" x="872" y="-368" font-family="Helvetica,sans-Serif" font-size="10.00">BeanLike</text>
</a>
</g>
</g>
<!-- Node35&#45;&gt;Node34 -->
<g id="edge36" class="edge">
<title>Node35&#45;&gt;Node34</title>
<path fill="none" stroke="midnightblue" d="M871.37,-350.5C871.01,-339.5 870.57,-326.18 870.29,-317.65"/>
<polygon fill="midnightblue" stroke="midnightblue" points="867.88,-350.95 871.71,-360.83 874.88,-350.72 867.88,-350.95"/>
</g>
<!-- Node36 -->
<g id="node36" class="node">
<title>Node36</title>
<g id="a_node36"><a xlink:href="classdrain_1_1ReferenceMap.html" target="_top" xlink:title=" ">
<polygon fill="white" stroke="black" points="829.5,-433.5 829.5,-452.5 916.5,-452.5 916.5,-433.5 829.5,-433.5"/>
<text text-anchor="middle" x="873" y="-440.5" font-family="Helvetica,sans-Serif" font-size="10.00">ReferenceMap</text>
</a>
</g>
</g>
<!-- Node36&#45;&gt;Node35 -->
<g id="edge37" class="edge">
<title>Node36&#45;&gt;Node35</title>
<path fill="none" stroke="#9a32cd" stroke-dasharray="5,2" d="M872.73,-422.94C872.53,-409.03 872.27,-390.82 872.12,-380.22"/>
<polygon fill="#9a32cd" stroke="#9a32cd" points="869.24,-423.41 872.88,-433.36 876.24,-423.31 869.24,-423.41"/>
<text text-anchor="middle" x="902" y="-407" font-family="Helvetica,sans-Serif" font-size="10.00"> parameters</text>
</g>
<!-- Node37 -->
<g id="node37" class="node">
<title>Node37</title>
<g id="a_node37"><a xlink:href="classdrain_1_1SmartMap.html" target="_top" xlink:title=" ">
<polygon fill="white" stroke="black" points="802.5,-512.5 802.5,-531.5 945.5,-531.5 945.5,-512.5 802.5,-512.5"/>
<text text-anchor="middle" x="874" y="-519.5" font-family="Helvetica,sans-Serif" font-size="10.00">SmartMap&lt; Referencer &gt;</text>
</a>
</g>
</g>
<!-- Node37&#45;&gt;Node36 -->
<g id="edge38" class="edge">
<title>Node37&#45;&gt;Node36</title>
<path fill="none" stroke="midnightblue" d="M873.76,-502.31C873.55,-486.59 873.27,-464.81 873.11,-452.81"/>
<polygon fill="midnightblue" stroke="midnightblue" points="870.26,-502.51 873.89,-512.47 877.26,-502.42 870.26,-502.51"/>
</g>
<!-- Node38 -->
<g id="node38" class="node">
<title>Node38</title>
<g id="a_node38"><a xlink:title=" ">
<polygon fill="white" stroke="#bfbfbf" points="789.5,-589.5 789.5,-608.5 958.5,-608.5 958.5,-589.5 789.5,-589.5"/>
<text text-anchor="middle" x="874" y="-596.5" font-family="Helvetica,sans-Serif" font-size="10.00">map&lt; std::string, Referencer &gt;</text>
</a>
</g>
</g>
<!-- Node38&#45;&gt;Node37 -->
<g id="edge39" class="edge">
<title>Node38&#45;&gt;Node37</title>
<path fill="none" stroke="midnightblue" d="M874,-579.02C874,-563.74 874,-542.98 874,-531.5"/>
<polygon fill="midnightblue" stroke="midnightblue" points="870.5,-579.4 874,-589.4 877.5,-579.4 870.5,-579.4"/>
</g>
<!-- Node39 -->
<g id="node39" class="node">
<title>Node39</title>
<g id="a_node39"><a xlink:href="classdrain_1_1UniCloner.html" target="_top" xlink:title=" ">
<polygon fill="white" stroke="black" points="26.5,-219.5 26.5,-238.5 209.5,-238.5 209.5,-219.5 26.5,-219.5"/>
<text text-anchor="middle" x="118" y="-226.5" font-family="Helvetica,sans-Serif" font-size="10.00">UniCloner&lt; drain::UnaryFunctor &gt;</text>
</a>
</g>
</g>
<!-- Node39&#45;&gt;Node3 -->
<g id="edge40" class="edge">
<title>Node39&#45;&gt;Node3</title>
<path fill="none" stroke="#9a32cd" stroke-dasharray="5,2" d="M166.19,-217.3C204.71,-208.96 260.17,-197.41 309,-189 365.23,-179.31 429.3,-170.41 476.79,-164.23"/>
<polygon fill="#9a32cd" stroke="#9a32cd" points="165.31,-213.91 156.28,-219.46 166.8,-220.75 165.31,-213.91"/>
<text text-anchor="middle" x="333.5" y="-192" font-family="Helvetica,sans-Serif" font-size="10.00"> unicloner</text>
</g>
<!-- Node40 -->
<g id="node40" class="node">
<title>Node40</title>
<g id="a_node40"><a xlink:href="classdrain_1_1Bank.html" target="_top" xlink:title=" ">
<polygon fill="white" stroke="black" points="50.5,-298.5 50.5,-317.5 133.5,-317.5 133.5,-298.5 50.5,-298.5"/>
<text text-anchor="middle" x="92" y="-305.5" font-family="Helvetica,sans-Serif" font-size="10.00">Bank&lt; T, K &gt;</text>
</a>
</g>
</g>
<!-- Node40&#45;&gt;Node39 -->
<g id="edge41" class="edge">
<title>Node40&#45;&gt;Node39</title>
<path fill="none" stroke="#9a32cd" stroke-dasharray="5,2" d="M98.16,-288.77C103.48,-273.02 110.93,-250.92 115.03,-238.81"/>
<polygon fill="#9a32cd" stroke="#9a32cd" points="94.76,-287.87 94.88,-298.47 101.4,-290.11 94.76,-287.87"/>
<text text-anchor="middle" x="123" y="-266.5" font-family="Helvetica,sans-Serif" font-size="10.00"> bank</text>
</g>
<!-- Node41 -->
<g id="node41" class="node">
<title>Node41</title>
<g id="a_node41"><a xlink:title=" ">
<polygon fill="white" stroke="#bfbfbf" points="0,-355.5 0,-385.5 136,-385.5 136,-355.5 0,-355.5"/>
<text text-anchor="start" x="8" y="-373.5" font-family="Helvetica,sans-Serif" font-size="10.00">map&lt; std::string, Cloner</text>
<text text-anchor="middle" x="68" y="-362.5" font-family="Helvetica,sans-Serif" font-size="10.00">Base&lt; T &gt; * &gt;</text>
</a>
</g>
</g>
<!-- Node41&#45;&gt;Node40 -->
<g id="edge42" class="edge">
<title>Node41&#45;&gt;Node40</title>
<path fill="none" stroke="darkgreen" d="M77.33,-345.98C81.3,-335.97 85.68,-324.93 88.61,-317.54"/>
<polygon fill="darkgreen" stroke="darkgreen" points="74,-344.88 73.57,-355.47 80.51,-347.46 74,-344.88"/>
</g>
<!-- Node42 -->
<g id="node42" class="node">
<title>Node42</title>
<g id="a_node42"><a xlink:href="classdrain_1_1image_1_1WindowConfig.html" target="_top" xlink:title="Base class for configurations applied in image processing windows, e.g. for operators of type WindowO...">
<polygon fill="white" stroke="black" points="256.5,-219.5 256.5,-238.5 343.5,-238.5 343.5,-219.5 256.5,-219.5"/>
<text text-anchor="middle" x="300" y="-226.5" font-family="Helvetica,sans-Serif" font-size="10.00">WindowConfig</text>
</a>
</g>
</g>
<!-- Node42&#45;&gt;Node3 -->
<g id="edge43" class="edge">
<title>Node42&#45;&gt;Node3</title>
<path fill="none" stroke="#9a32cd" stroke-dasharray="5,2" d="M325.67,-215.08C343.16,-206.7 367.05,-196.06 389,-189 417.3,-179.91 449.25,-172.6 476.98,-167.16"/>
<polygon fill="#9a32cd" stroke="#9a32cd" points="324.12,-211.94 316.66,-219.47 327.19,-218.24 324.12,-211.94"/>
<text text-anchor="middle" x="401.5" y="-192" font-family="Helvetica,sans-Serif" font-size="10.00"> conf</text>
</g>
<!-- Node43 -->
<g id="node43" class="node">
<title>Node43</title>
<g id="a_node43"><a xlink:href="classdrain_1_1VariableMap.html" target="_top" xlink:title="A map of Variables.">
<polygon fill="white" stroke="black" points="159,-298.5 159,-317.5 237,-317.5 237,-298.5 159,-298.5"/>
<text text-anchor="middle" x="198" y="-305.5" font-family="Helvetica,sans-Serif" font-size="10.00">VariableMap</text>
</a>
</g>
</g>
<!-- Node43&#45;&gt;Node42 -->
<g id="edge44" class="edge">
<title>Node43&#45;&gt;Node42</title>
<path fill="none" stroke="#9a32cd" stroke-dasharray="5,2" d="M186.04,-289.72C180.63,-279.6 176.87,-267.06 184,-258 193.04,-246.52 227.31,-239.2 256.28,-234.93"/>
<polygon fill="#9a32cd" stroke="#9a32cd" points="183.21,-291.81 191.43,-298.5 189.17,-288.14 183.21,-291.81"/>
<text text-anchor="middle" x="231" y="-266.5" font-family="Helvetica,sans-Serif" font-size="10.00"> functorParameters</text>
</g>
<!-- Node44 -->
<g id="node44" class="node">
<title>Node44</title>
<g id="a_node44"><a xlink:href="classdrain_1_1SmartMap.html" target="_top" xlink:title=" ">
<polygon fill="white" stroke="black" points="154,-361 154,-380 284,-380 284,-361 154,-361"/>
<text text-anchor="middle" x="219" y="-368" font-family="Helvetica,sans-Serif" font-size="10.00">SmartMap&lt; Variable &gt;</text>
</a>
</g>
</g>
<!-- Node44&#45;&gt;Node43 -->
<g id="edge45" class="edge">
<title>Node44&#45;&gt;Node43</title>
<path fill="none" stroke="midnightblue" d="M212.65,-351.19C208.78,-340.06 204.03,-326.36 201,-317.65"/>
<polygon fill="midnightblue" stroke="midnightblue" points="209.41,-352.53 215.99,-360.83 216.02,-350.24 209.41,-352.53"/>
</g>
<!-- Node45 -->
<g id="node45" class="node">
<title>Node45</title>
<g id="a_node45"><a xlink:title=" ">
<polygon fill="white" stroke="#bfbfbf" points="141,-433.5 141,-452.5 297,-452.5 297,-433.5 141,-433.5"/>
<text text-anchor="middle" x="219" y="-440.5" font-family="Helvetica,sans-Serif" font-size="10.00">map&lt; std::string, Variable &gt;</text>
</a>
</g>
</g>
<!-- Node45&#45;&gt;Node44 -->
<g id="edge46" class="edge">
<title>Node45&#45;&gt;Node44</title>
<path fill="none" stroke="midnightblue" d="M219,-422.94C219,-409.03 219,-390.82 219,-380.22"/>
<polygon fill="midnightblue" stroke="midnightblue" points="215.5,-423.36 219,-433.36 222.5,-423.36 215.5,-423.36"/>
</g>
<!-- Node46&#45;&gt;Node42 -->
<g id="edge47" class="edge">
<title>Node46&#45;&gt;Node42</title>
<path fill="none" stroke="#9a32cd" stroke-dasharray="5,2" d="M401.61,-293.09C376.06,-277.23 335.07,-251.78 313.81,-238.57"/>
<polygon fill="#9a32cd" stroke="#9a32cd" points="399.91,-296.16 410.26,-298.47 403.61,-290.22 399.91,-296.16"/>
<text text-anchor="middle" x="397.5" y="-266.5" font-family="Helvetica,sans-Serif" font-size="10.00"> frame</text>
</g>
<!-- Node46&#45;&gt;Node48 -->
<g id="edge53" class="edge">
<title>Node46&#45;&gt;Node48</title>
<path fill="none" stroke="#9a32cd" stroke-dasharray="5,2" d="M423.76,-288.31C423.55,-272.59 423.27,-250.81 423.11,-238.81"/>
<polygon fill="#9a32cd" stroke="#9a32cd" points="420.26,-288.51 423.89,-298.47 427.26,-288.42 420.26,-288.51"/>
<text text-anchor="middle" x="436.5" y="-266.5" font-family="Helvetica,sans-Serif" font-size="10.00"> area</text>
</g>
<!-- Node47&#45;&gt;Node2 -->
<g id="edge56" class="edge">
<title>Node47&#45;&gt;Node2</title>
<path fill="none" stroke="#9a32cd" stroke-dasharray="5,2" d="M677.07,-216.51C691.93,-211.87 705.63,-206.15 710,-200 734.39,-165.62 689.67,-121.89 662.19,-99.74"/>
<polygon fill="#9a32cd" stroke="#9a32cd" points="675.84,-213.23 667.23,-219.4 677.81,-219.94 675.84,-213.23"/>
<text text-anchor="middle" x="748" y="-163" font-family="Helvetica,sans-Serif" font-size="10.00"> locationTrail</text>
<text text-anchor="middle" x="748" y="-152" font-family="Helvetica,sans-Serif" font-size="10.00">locationLead</text>
<text text-anchor="middle" x="748" y="-141" font-family="Helvetica,sans-Serif" font-size="10.00">locationTmp</text>
</g>
<!-- Node47&#45;&gt;Node3 -->
<g id="edge49" class="edge">
<title>Node47&#45;&gt;Node3</title>
<path fill="none" stroke="#9a32cd" stroke-dasharray="5,2" d="M586.59,-215.5C578.31,-211.58 570.28,-206.51 564,-200 556.08,-191.78 551.76,-179.5 549.46,-169.91"/>
<polygon fill="#9a32cd" stroke="#9a32cd" points="585.4,-218.8 595.97,-219.46 588.12,-212.35 585.4,-218.8"/>
<text text-anchor="middle" x="585.5" y="-192" font-family="Helvetica,sans-Serif" font-size="10.00"> location</text>
</g>
<!-- Node48&#45;&gt;Node3 -->
<g id="edge51" class="edge">
<title>Node48&#45;&gt;Node3</title>
<path fill="none" stroke="#9a32cd" stroke-dasharray="5,2" d="M417.85,-209.19C417.06,-202.22 417.67,-194.64 422,-189 429.32,-179.46 452.35,-172.05 476.69,-166.64"/>
<polygon fill="#9a32cd" stroke="#9a32cd" points="414.48,-210.18 419.9,-219.29 421.34,-208.79 414.48,-210.18"/>
<text text-anchor="middle" x="469" y="-192" font-family="Helvetica,sans-Serif" font-size="10.00"> coordinateHandler</text>
</g>
</g>
</svg>
