<?xml version="1.0" encoding="UTF-8" standalone="no"?>
<!DOCTYPE svg PUBLIC "-//W3C//DTD SVG 1.1//EN"
 "http://www.w3.org/Graphics/SVG/1.1/DTD/svg11.dtd">
<!-- Generated by graphviz version 2.43.0 (0)
 -->
<!-- Title: SlidingWindowHistogramOp Pages: 1 -->
<svg width="211pt" height="330pt"
 viewBox="0.00 0.00 211.00 330.00" xmlns="http://www.w3.org/2000/svg" xmlns:xlink="http://www.w3.org/1999/xlink">
<g id="graph0" class="graph" transform="scale(1 1) rotate(0) translate(4 326)">
<title>SlidingWindowHistogramOp</title>
<polygon fill="white" stroke="transparent" points="-4,4 -4,-326 207,-326 207,4 -4,4"/>
<!-- Node1 -->
<g id="node1" class="node">
<title>Node1</title>
<g id="a_node1"><a xlink:title="Window histogram for computing [asmdvNX] = iAverage, sum, median, stddev, variance,...">
<polygon fill="#bfbfbf" stroke="black" points="25,-0.5 25,-19.5 178,-19.5 178,-0.5 25,-0.5"/>
<text text-anchor="middle" x="101.5" y="-7.5" font-family="Helvetica,sans-Serif" font-size="10.00">SlidingWindowHistogramOp</text>
</a>
</g>
</g>
<!-- Node2 -->
<g id="node2" class="node">
<title>Node2</title>
<g id="a_node2"><a xlink:href="classdrain_1_1image_1_1SlidingWindowOp.html" target="_top" xlink:title=" ">
<polygon fill="white" stroke="black" points="19.5,-56.5 19.5,-86.5 183.5,-86.5 183.5,-56.5 19.5,-56.5"/>
<text text-anchor="start" x="27.5" y="-74.5" font-family="Helvetica,sans-Serif" font-size="10.00">SlidingWindowOp&lt; Sliding</text>
<text text-anchor="middle" x="101.5" y="-63.5" font-family="Helvetica,sans-Serif" font-size="10.00">WindowHistogramWeighted &gt;</text>
</a>
</g>
</g>
<!-- Node2&#45;&gt;Node1 -->
<g id="edge1" class="edge">
<title>Node2&#45;&gt;Node1</title>
<path fill="none" stroke="midnightblue" d="M101.5,-46.29C101.5,-36.86 101.5,-26.65 101.5,-19.66"/>
<polygon fill="midnightblue" stroke="midnightblue" points="98,-46.4 101.5,-56.4 105,-46.4 98,-46.4"/>
</g>
<!-- Node3 -->
<g id="node3" class="node">
<title>Node3</title>
<g id="a_node3"><a xlink:href="classdrain_1_1image_1_1WindowOp.html" target="_top" xlink:title=" ">
<polygon fill="white" stroke="black" points="0,-123.5 0,-153.5 203,-153.5 203,-123.5 0,-123.5"/>
<text text-anchor="start" x="8" y="-141.5" font-family="Helvetica,sans-Serif" font-size="10.00">WindowOp&lt; SlidingWindowHistogram</text>
<text text-anchor="middle" x="101.5" y="-130.5" font-family="Helvetica,sans-Serif" font-size="10.00">Weighted &gt;</text>
</a>
</g>
</g>
<!-- Node3&#45;&gt;Node2 -->
<g id="edge2" class="edge">
<title>Node3&#45;&gt;Node2</title>
<path fill="none" stroke="midnightblue" d="M101.5,-113.11C101.5,-104.15 101.5,-94.32 101.5,-86.58"/>
<polygon fill="midnightblue" stroke="midnightblue" points="98,-113.4 101.5,-123.4 105,-113.4 98,-113.4"/>
</g>
<!-- Node4 -->
<g id="node4" class="node">
<title>Node4</title>
<g id="a_node4"><a xlink:href="classdrain_1_1image_1_1ImageOp.html" target="_top" xlink:title="Base class for image processing functions.">
<polygon fill="white" stroke="black" points="71,-190.5 71,-209.5 132,-209.5 132,-190.5 71,-190.5"/>
<text text-anchor="middle" x="101.5" y="-197.5" font-family="Helvetica,sans-Serif" font-size="10.00">ImageOp</text>
</a>
</g>
</g>
<!-- Node4&#45;&gt;Node3 -->
<g id="edge3" class="edge">
<title>Node4&#45;&gt;Node3</title>
<path fill="none" stroke="midnightblue" d="M101.5,-180.23C101.5,-171.59 101.5,-161.5 101.5,-153.52"/>
<polygon fill="midnightblue" stroke="midnightblue" points="98,-180.48 101.5,-190.48 105,-180.48 98,-180.48"/>
</g>
<!-- Node5 -->
<g id="node5" class="node">
<title>Node5</title>
<g id="a_node5"><a xlink:href="classdrain_1_1image_1_1ImageMod.html" target="_top" xlink:title="Class for operations that modify an existing image instead of producing a new image.">
<polygon fill="white" stroke="black" points="67.5,-246.5 67.5,-265.5 135.5,-265.5 135.5,-246.5 67.5,-246.5"/>
<text text-anchor="middle" x="101.5" y="-253.5" font-family="Helvetica,sans-Serif" font-size="10.00">ImageMod</text>
</a>
</g>
</g>
<!-- Node5&#45;&gt;Node4 -->
<g id="edge4" class="edge">
<title>Node5&#45;&gt;Node4</title>
<path fill="none" stroke="midnightblue" d="M101.5,-235.8C101.5,-226.91 101.5,-216.78 101.5,-209.75"/>
<polygon fill="midnightblue" stroke="midnightblue" points="98,-236.08 101.5,-246.08 105,-236.08 98,-236.08"/>
</g>
<!-- Node6 -->
<g id="node6" class="node">
<title>Node6</title>
<g id="a_node6"><a xlink:href="classdrain_1_1BeanLike.html" target="_top" xlink:title="Something which has a name, a description and possibly some parameters of varying type.">
<polygon fill="white" stroke="black" points="71,-302.5 71,-321.5 132,-321.5 132,-302.5 71,-302.5"/>
<text text-anchor="middle" x="101.5" y="-309.5" font-family="Helvetica,sans-Serif" font-size="10.00">BeanLike</text>
</a>
</g>
</g>
<!-- Node6&#45;&gt;Node5 -->
<g id="edge5" class="edge">
<title>Node6&#45;&gt;Node5</title>
<path fill="none" stroke="midnightblue" d="M101.5,-291.8C101.5,-282.91 101.5,-272.78 101.5,-265.75"/>
<polygon fill="midnightblue" stroke="midnightblue" points="98,-292.08 101.5,-302.08 105,-292.08 98,-292.08"/>
</g>
</g>
</svg>
