<?xml version="1.0" encoding="UTF-8" standalone="no"?>
<!DOCTYPE svg PUBLIC "-//W3C//DTD SVG 1.1//EN"
 "http://www.w3.org/Graphics/SVG/1.1/DTD/svg11.dtd">
<!-- Generated by graphviz version 2.43.0 (0)
 -->
<!-- Title: RecomposeOp Pages: 1 -->
<svg width="95pt" height="196pt"
 viewBox="0.00 0.00 95.00 196.00" xmlns="http://www.w3.org/2000/svg" xmlns:xlink="http://www.w3.org/1999/xlink">
<g id="graph0" class="graph" transform="scale(1 1) rotate(0) translate(4 192)">
<title>RecomposeOp</title>
<polygon fill="white" stroke="transparent" points="-4,4 -4,-192 91,-192 91,4 -4,4"/>
<!-- Node1 -->
<g id="node1" class="node">
<title>Node1</title>
<g id="a_node1"><a xlink:title="Create vertical image composed of separate views.">
<polygon fill="#bfbfbf" stroke="black" points="0,-0.5 0,-19.5 87,-19.5 87,-0.5 0,-0.5"/>
<text text-anchor="middle" x="43.5" y="-7.5" font-family="Helvetica,sans-Serif" font-size="10.00">RecomposeOp</text>
</a>
</g>
</g>
<!-- Node2 -->
<g id="node2" class="node">
<title>Node2</title>
<g id="a_node2"><a xlink:href="classdrain_1_1image_1_1ImageOp.html" target="_top" xlink:title="Base class for image processing functions.">
<polygon fill="white" stroke="black" points="13,-56.5 13,-75.5 74,-75.5 74,-56.5 13,-56.5"/>
<text text-anchor="middle" x="43.5" y="-63.5" font-family="Helvetica,sans-Serif" font-size="10.00">ImageOp</text>
</a>
</g>
</g>
<!-- Node2&#45;&gt;Node1 -->
<g id="edge1" class="edge">
<title>Node2&#45;&gt;Node1</title>
<path fill="none" stroke="midnightblue" d="M43.5,-45.8C43.5,-36.91 43.5,-26.78 43.5,-19.75"/>
<polygon fill="midnightblue" stroke="midnightblue" points="40,-46.08 43.5,-56.08 47,-46.08 40,-46.08"/>
</g>
<!-- Node3 -->
<g id="node3" class="node">
<title>Node3</title>
<g id="a_node3"><a xlink:href="classdrain_1_1image_1_1ImageMod.html" target="_top" xlink:title="Class for operations that modify an existing image instead of producing a new image.">
<polygon fill="white" stroke="black" points="9.5,-112.5 9.5,-131.5 77.5,-131.5 77.5,-112.5 9.5,-112.5"/>
<text text-anchor="middle" x="43.5" y="-119.5" font-family="Helvetica,sans-Serif" font-size="10.00">ImageMod</text>
</a>
</g>
</g>
<!-- Node3&#45;&gt;Node2 -->
<g id="edge2" class="edge">
<title>Node3&#45;&gt;Node2</title>
<path fill="none" stroke="midnightblue" d="M43.5,-101.8C43.5,-92.91 43.5,-82.78 43.5,-75.75"/>
<polygon fill="midnightblue" stroke="midnightblue" points="40,-102.08 43.5,-112.08 47,-102.08 40,-102.08"/>
</g>
<!-- Node4 -->
<g id="node4" class="node">
<title>Node4</title>
<g id="a_node4"><a xlink:href="classdrain_1_1BeanLike.html" target="_top" xlink:title="Something which has a name, a description and possibly some parameters of varying type.">
<polygon fill="white" stroke="black" points="13,-168.5 13,-187.5 74,-187.5 74,-168.5 13,-168.5"/>
<text text-anchor="middle" x="43.5" y="-175.5" font-family="Helvetica,sans-Serif" font-size="10.00">BeanLike</text>
</a>
</g>
</g>
<!-- Node4&#45;&gt;Node3 -->
<g id="edge3" class="edge">
<title>Node4&#45;&gt;Node3</title>
<path fill="none" stroke="midnightblue" d="M43.5,-157.8C43.5,-148.91 43.5,-138.78 43.5,-131.75"/>
<polygon fill="midnightblue" stroke="midnightblue" points="40,-158.08 43.5,-168.08 47,-158.08 40,-158.08"/>
</g>
</g>
</svg>
