<?xml version="1.0" encoding="UTF-8" standalone="no"?>
<!DOCTYPE svg PUBLIC "-//W3C//DTD SVG 1.1//EN"
 "http://www.w3.org/Graphics/SVG/1.1/DTD/svg11.dtd">
<!-- Generated by graphviz version 2.43.0 (0)
 -->
<!-- Title: SlidingStripeAverageWeighted&lt; SW &gt; Pages: 1 -->
<svg width="303pt" height="298pt"
 viewBox="0.00 0.00 303.00 298.00" xmlns="http://www.w3.org/2000/svg" xmlns:xlink="http://www.w3.org/1999/xlink">
<g id="graph0" class="graph" transform="scale(1 1) rotate(0) translate(4 294)">
<title>SlidingStripeAverageWeighted&lt; SW &gt;</title>
<polygon fill="white" stroke="transparent" points="-4,4 -4,-294 299,-294 299,4 -4,4"/>
<!-- Node1 -->
<g id="node1" class="node">
<title>Node1</title>
<g id="a_node1"><a xlink:title="Stripe window for computing weight averages.">
<polygon fill="#bfbfbf" stroke="black" points="0,-0.5 0,-30.5 164,-30.5 164,-0.5 0,-0.5"/>
<text text-anchor="start" x="8" y="-18.5" font-family="Helvetica,sans-Serif" font-size="10.00">SlidingStripeAverageWeighted</text>
<text text-anchor="middle" x="82" y="-7.5" font-family="Helvetica,sans-Serif" font-size="10.00">&lt; SW &gt;</text>
</a>
</g>
</g>
<!-- Node2 -->
<g id="node2" class="node">
<title>Node2</title>
<g id="a_node2"><a xlink:href="classdrain_1_1image_1_1SlidingStripeAverage.html" target="_top" xlink:title="Stripe window for computing averages.">
<polygon fill="white" stroke="black" points="23,-68.5 23,-98.5 141,-98.5 141,-68.5 23,-68.5"/>
<text text-anchor="start" x="31" y="-86.5" font-family="Helvetica,sans-Serif" font-size="10.00">SlidingStripeAverage</text>
<text text-anchor="middle" x="82" y="-75.5" font-family="Helvetica,sans-Serif" font-size="10.00">&lt; SW &gt;</text>
</a>
</g>
</g>
<!-- Node2&#45;&gt;Node1 -->
<g id="edge1" class="edge">
<title>Node2&#45;&gt;Node1</title>
<path fill="none" stroke="midnightblue" d="M82,-58.03C82,-48.86 82,-38.74 82,-30.79"/>
<polygon fill="midnightblue" stroke="midnightblue" points="78.5,-58.18 82,-68.18 85.5,-58.18 78.5,-58.18"/>
</g>
<!-- Node3 -->
<g id="node3" class="node">
<title>Node3</title>
<g id="a_node3"><a xlink:title=" ">
<polygon fill="white" stroke="#bfbfbf" points="50,-146.5 50,-165.5 82,-165.5 82,-146.5 50,-146.5"/>
<text text-anchor="middle" x="66" y="-153.5" font-family="Helvetica,sans-Serif" font-size="10.00">SW</text>
</a>
</g>
</g>
<!-- Node3&#45;&gt;Node2 -->
<g id="edge2" class="edge">
<title>Node3&#45;&gt;Node2</title>
<path fill="none" stroke="midnightblue" d="M70.18,-136.6C72.87,-124.72 76.33,-109.49 78.81,-98.58"/>
<polygon fill="midnightblue" stroke="midnightblue" points="66.76,-135.83 67.96,-146.36 73.59,-137.38 66.76,-135.83"/>
</g>
<!-- Node4 -->
<g id="node4" class="node">
<title>Node4</title>
<g id="a_node4"><a xlink:href="classdrain_1_1ValueScaling.html" target="_top" xlink:title="Linear scaling and physical range for image intensities.">
<polygon fill="white" stroke="black" points="100,-146.5 100,-165.5 180,-165.5 180,-146.5 100,-146.5"/>
<text text-anchor="middle" x="140" y="-153.5" font-family="Helvetica,sans-Serif" font-size="10.00">ValueScaling</text>
</a>
</g>
</g>
<!-- Node4&#45;&gt;Node2 -->
<g id="edge3" class="edge">
<title>Node4&#45;&gt;Node2</title>
<path fill="none" stroke="#9a32cd" stroke-dasharray="5,2" d="M126.34,-138.39C116.37,-126.28 103.02,-110.05 93.58,-98.58"/>
<polygon fill="#9a32cd" stroke="#9a32cd" points="123.83,-140.86 132.89,-146.36 129.24,-136.41 123.83,-140.86"/>
<text text-anchor="middle" x="136" y="-120" font-family="Helvetica,sans-Serif" font-size="10.00"> scaling</text>
</g>
<!-- Node5 -->
<g id="node5" class="node">
<title>Node5</title>
<g id="a_node5"><a xlink:href="classdrain_1_1UniTuple.html" target="_top" xlink:title=" ">
<polygon fill="white" stroke="black" points="36,-213.5 36,-232.5 162,-232.5 162,-213.5 36,-213.5"/>
<text text-anchor="middle" x="99" y="-220.5" font-family="Helvetica,sans-Serif" font-size="10.00">UniTuple&lt; double, 4 &gt;</text>
</a>
</g>
</g>
<!-- Node5&#45;&gt;Node4 -->
<g id="edge4" class="edge">
<title>Node5&#45;&gt;Node4</title>
<path fill="none" stroke="midnightblue" d="M110.02,-204.53C117.95,-191.95 128.33,-175.51 134.56,-165.63"/>
<polygon fill="midnightblue" stroke="midnightblue" points="106.9,-202.91 104.53,-213.23 112.82,-206.64 106.9,-202.91"/>
</g>
<!-- Node6 -->
<g id="node6" class="node">
<title>Node6</title>
<g id="a_node6"><a xlink:href="classdrain_1_1Range.html" target="_top" xlink:title=" ">
<polygon fill="white" stroke="black" points="180.5,-213.5 180.5,-232.5 283.5,-232.5 283.5,-213.5 180.5,-213.5"/>
<text text-anchor="middle" x="232" y="-220.5" font-family="Helvetica,sans-Serif" font-size="10.00">Range&lt; double &gt;</text>
</a>
</g>
</g>
<!-- Node6&#45;&gt;Node4 -->
<g id="edge5" class="edge">
<title>Node6&#45;&gt;Node4</title>
<path fill="none" stroke="#9a32cd" stroke-dasharray="5,2" d="M211.36,-207.42C193.18,-194.57 167.29,-176.28 152.21,-165.63"/>
<polygon fill="#9a32cd" stroke="#9a32cd" points="209.41,-210.32 219.59,-213.23 213.44,-204.6 209.41,-210.32"/>
<text text-anchor="middle" x="220" y="-187" font-family="Helvetica,sans-Serif" font-size="10.00"> physRange</text>
</g>
<!-- Node7 -->
<g id="node7" class="node">
<title>Node7</title>
<g id="a_node7"><a xlink:href="classdrain_1_1UniTuple.html" target="_top" xlink:title=" ">
<polygon fill="white" stroke="black" points="169,-270.5 169,-289.5 295,-289.5 295,-270.5 169,-270.5"/>
<text text-anchor="middle" x="232" y="-277.5" font-family="Helvetica,sans-Serif" font-size="10.00">UniTuple&lt; double, 2 &gt;</text>
</a>
</g>
</g>
<!-- Node7&#45;&gt;Node6 -->
<g id="edge6" class="edge">
<title>Node7&#45;&gt;Node6</title>
<path fill="none" stroke="midnightblue" d="M232,-260.12C232,-250.82 232,-240.06 232,-232.71"/>
<polygon fill="midnightblue" stroke="midnightblue" points="228.5,-260.41 232,-270.41 235.5,-260.41 228.5,-260.41"/>
</g>
</g>
</svg>
