<?xml version="1.0" encoding="UTF-8" standalone="no"?>
<!DOCTYPE svg PUBLIC "-//W3C//DTD SVG 1.1//EN"
 "http://www.w3.org/Graphics/SVG/1.1/DTD/svg11.dtd">
<!-- Generated by graphviz version 2.43.0 (0)
 -->
<!-- Title: SingleParamPrecip Pages: 1 -->
<svg width="206pt" height="252pt"
 viewBox="0.00 0.00 206.00 252.00" xmlns="http://www.w3.org/2000/svg" xmlns:xlink="http://www.w3.org/1999/xlink">
<g id="graph0" class="graph" transform="scale(1 1) rotate(0) translate(4 248)">
<title>SingleParamPrecip</title>
<polygon fill="white" stroke="transparent" points="-4,4 -4,-248 202,-248 202,4 -4,4"/>
<!-- Node1 -->
<g id="node1" class="node">
<title>Node1</title>
<g id="a_node1"><a xlink:title=" ">
<polygon fill="#bfbfbf" stroke="black" points="18.5,-112.5 18.5,-131.5 126.5,-131.5 126.5,-112.5 18.5,-112.5"/>
<text text-anchor="middle" x="72.5" y="-119.5" font-family="Helvetica,sans-Serif" font-size="10.00">SingleParamPrecip</text>
</a>
</g>
</g>
<!-- Node4 -->
<g id="node4" class="node">
<title>Node4</title>
<g id="a_node4"><a xlink:href="classrack_1_1PrecipKDP.html" target="_top" xlink:title=" ">
<polygon fill="white" stroke="black" points="0,-56.5 0,-75.5 67,-75.5 67,-56.5 0,-56.5"/>
<text text-anchor="middle" x="33.5" y="-63.5" font-family="Helvetica,sans-Serif" font-size="10.00">PrecipKDP</text>
</a>
</g>
</g>
<!-- Node1&#45;&gt;Node4 -->
<g id="edge3" class="edge">
<title>Node1&#45;&gt;Node4</title>
<path fill="none" stroke="midnightblue" d="M60.12,-103.86C53.36,-94.5 45.29,-83.33 39.82,-75.75"/>
<polygon fill="midnightblue" stroke="midnightblue" points="57.37,-106.03 66.06,-112.08 63.04,-101.93 57.37,-106.03"/>
</g>
<!-- Node5 -->
<g id="node5" class="node">
<title>Node5</title>
<g id="a_node5"><a xlink:href="classrack_1_1PrecipZ.html" target="_top" xlink:title=" ">
<polygon fill="white" stroke="black" points="85,-56.5 85,-75.5 138,-75.5 138,-56.5 85,-56.5"/>
<text text-anchor="middle" x="111.5" y="-63.5" font-family="Helvetica,sans-Serif" font-size="10.00">PrecipZ</text>
</a>
</g>
</g>
<!-- Node1&#45;&gt;Node5 -->
<g id="edge4" class="edge">
<title>Node1&#45;&gt;Node5</title>
<path fill="none" stroke="midnightblue" d="M84.88,-103.86C91.64,-94.5 99.71,-83.33 105.18,-75.75"/>
<polygon fill="midnightblue" stroke="midnightblue" points="81.96,-101.93 78.94,-112.08 87.63,-106.03 81.96,-101.93"/>
</g>
<!-- Node2 -->
<g id="node2" class="node">
<title>Node2</title>
<g id="a_node2"><a xlink:href="classrack_1_1Precip.html" target="_top" xlink:title=" ">
<polygon fill="white" stroke="black" points="49,-168.5 49,-187.5 96,-187.5 96,-168.5 49,-168.5"/>
<text text-anchor="middle" x="72.5" y="-175.5" font-family="Helvetica,sans-Serif" font-size="10.00">Precip</text>
</a>
</g>
</g>
<!-- Node2&#45;&gt;Node1 -->
<g id="edge1" class="edge">
<title>Node2&#45;&gt;Node1</title>
<path fill="none" stroke="midnightblue" d="M72.5,-157.8C72.5,-148.91 72.5,-138.78 72.5,-131.75"/>
<polygon fill="midnightblue" stroke="midnightblue" points="69,-158.08 72.5,-168.08 76,-158.08 69,-158.08"/>
</g>
<!-- Node3 -->
<g id="node3" class="node">
<title>Node3</title>
<g id="a_node3"><a xlink:href="classdrain_1_1BeanLike.html" target="_top" xlink:title="Something which has a name, a description and possibly some parameters of varying type.">
<polygon fill="white" stroke="black" points="42,-224.5 42,-243.5 103,-243.5 103,-224.5 42,-224.5"/>
<text text-anchor="middle" x="72.5" y="-231.5" font-family="Helvetica,sans-Serif" font-size="10.00">BeanLike</text>
</a>
</g>
</g>
<!-- Node3&#45;&gt;Node2 -->
<g id="edge2" class="edge">
<title>Node3&#45;&gt;Node2</title>
<path fill="none" stroke="midnightblue" d="M72.5,-213.8C72.5,-204.91 72.5,-194.78 72.5,-187.75"/>
<polygon fill="midnightblue" stroke="midnightblue" points="69,-214.08 72.5,-224.08 76,-214.08 69,-214.08"/>
</g>
<!-- Node6 -->
<g id="node6" class="node">
<title>Node6</title>
<g id="a_node6"><a xlink:href="classrack_1_1PrecipZrain.html" target="_top" xlink:title=" ">
<polygon fill="white" stroke="black" points="28.5,-0.5 28.5,-19.5 100.5,-19.5 100.5,-0.5 28.5,-0.5"/>
<text text-anchor="middle" x="64.5" y="-7.5" font-family="Helvetica,sans-Serif" font-size="10.00">PrecipZrain</text>
</a>
</g>
</g>
<!-- Node5&#45;&gt;Node6 -->
<g id="edge5" class="edge">
<title>Node5&#45;&gt;Node6</title>
<path fill="none" stroke="midnightblue" d="M97.08,-48.43C88.84,-38.97 78.85,-27.48 72.12,-19.75"/>
<polygon fill="midnightblue" stroke="midnightblue" points="94.53,-50.84 103.74,-56.08 99.81,-46.24 94.53,-50.84"/>
</g>
<!-- Node7 -->
<g id="node7" class="node">
<title>Node7</title>
<g id="a_node7"><a xlink:href="classrack_1_1PrecipZsnow.html" target="_top" xlink:title=" ">
<polygon fill="white" stroke="black" points="119,-0.5 119,-19.5 198,-19.5 198,-0.5 119,-0.5"/>
<text text-anchor="middle" x="158.5" y="-7.5" font-family="Helvetica,sans-Serif" font-size="10.00">PrecipZsnow</text>
</a>
</g>
</g>
<!-- Node5&#45;&gt;Node7 -->
<g id="edge6" class="edge">
<title>Node5&#45;&gt;Node7</title>
<path fill="none" stroke="midnightblue" d="M125.92,-48.43C134.16,-38.97 144.15,-27.48 150.88,-19.75"/>
<polygon fill="midnightblue" stroke="midnightblue" points="123.19,-46.24 119.26,-56.08 128.47,-50.84 123.19,-46.24"/>
</g>
</g>
</svg>
