<?xml version="1.0" encoding="UTF-8" standalone="no"?>
<!DOCTYPE svg PUBLIC "-//W3C//DTD SVG 1.1//EN"
 "http://www.w3.org/Graphics/SVG/1.1/DTD/svg11.dtd">
<!-- Generated by graphviz version 2.43.0 (0)
 -->
<!-- Title: Variable Pages: 1 -->
<svg width="149pt" height="230pt"
 viewBox="0.00 0.00 149.00 230.00" xmlns="http://www.w3.org/2000/svg" xmlns:xlink="http://www.w3.org/1999/xlink">
<g id="graph0" class="graph" transform="scale(1 1) rotate(0) translate(4 226)">
<title>Variable</title>
<polygon fill="white" stroke="transparent" points="-4,4 -4,-226 145,-226 145,4 -4,4"/>
<!-- Node1 -->
<g id="node1" class="node">
<title>Node1</title>
<g id="a_node1"><a xlink:title=" ">
<polygon fill="#bfbfbf" stroke="black" points="5,-0.5 5,-19.5 62,-19.5 62,-0.5 5,-0.5"/>
<text text-anchor="middle" x="33.5" y="-7.5" font-family="Helvetica,sans-Serif" font-size="10.00">Variable</text>
</a>
</g>
</g>
<!-- Node2 -->
<g id="node2" class="node">
<title>Node2</title>
<g id="a_node2"><a xlink:href="classdrain_1_1Castable.html" target="_top" xlink:title=" ">
<polygon fill="white" stroke="black" points="0,-135.5 0,-154.5 59,-154.5 59,-135.5 0,-135.5"/>
<text text-anchor="middle" x="29.5" y="-142.5" font-family="Helvetica,sans-Serif" font-size="10.00">Castable</text>
</a>
</g>
</g>
<!-- Node2&#45;&gt;Node1 -->
<g id="edge1" class="edge">
<title>Node2&#45;&gt;Node1</title>
<path fill="none" stroke="midnightblue" d="M30.07,-125.13C30.95,-95.88 32.6,-40.76 33.24,-19.59"/>
<polygon fill="midnightblue" stroke="midnightblue" points="26.56,-125.17 29.76,-135.27 33.56,-125.38 26.56,-125.17"/>
</g>
<!-- Node4 -->
<g id="node4" class="node">
<title>Node4</title>
<g id="a_node4"><a xlink:href="classdrain_1_1CastableIterator.html" target="_top" xlink:title=" ">
<polygon fill="white" stroke="black" points="46,-78.5 46,-97.5 141,-97.5 141,-78.5 46,-78.5"/>
<text text-anchor="middle" x="93.5" y="-85.5" font-family="Helvetica,sans-Serif" font-size="10.00">CastableIterator</text>
</a>
</g>
</g>
<!-- Node2&#45;&gt;Node4 -->
<g id="edge4" class="edge">
<title>Node2&#45;&gt;Node4</title>
<path fill="none" stroke="darkgreen" d="M47.29,-128.71C58.92,-118.72 73.69,-106.02 83.36,-97.71"/>
<polygon fill="darkgreen" stroke="darkgreen" points="44.8,-126.23 39.5,-135.41 49.37,-131.54 44.8,-126.23"/>
</g>
<!-- Node3 -->
<g id="node3" class="node">
<title>Node3</title>
<g id="a_node3"><a xlink:href="classdrain_1_1Caster.html" target="_top" xlink:title=" ">
<polygon fill="white" stroke="black" points="5.5,-202.5 5.5,-221.5 53.5,-221.5 53.5,-202.5 5.5,-202.5"/>
<text text-anchor="middle" x="29.5" y="-209.5" font-family="Helvetica,sans-Serif" font-size="10.00">Caster</text>
</a>
</g>
</g>
<!-- Node3&#45;&gt;Node2 -->
<g id="edge2" class="edge">
<title>Node3&#45;&gt;Node2</title>
<path fill="none" stroke="#9a32cd" stroke-dasharray="5,2" d="M29.5,-192.04C29.5,-179.67 29.5,-164.12 29.5,-154.63"/>
<polygon fill="#9a32cd" stroke="#9a32cd" points="26,-192.23 29.5,-202.23 33,-192.23 26,-192.23"/>
<text text-anchor="middle" x="46.5" y="-176" font-family="Helvetica,sans-Serif" font-size="10.00"> caster</text>
</g>
<!-- Node4&#45;&gt;Node1 -->
<g id="edge3" class="edge">
<title>Node4&#45;&gt;Node1</title>
<path fill="none" stroke="#9a32cd" stroke-dasharray="5,2" d="M80.08,-70.01C67.74,-54.37 49.93,-31.81 40.3,-19.62"/>
<polygon fill="#9a32cd" stroke="#9a32cd" points="77.67,-72.6 86.62,-78.28 83.17,-68.26 77.67,-72.6"/>
<text text-anchor="middle" x="95.5" y="-52" font-family="Helvetica,sans-Serif" font-size="10.00"> dataEnd</text>
<text text-anchor="middle" x="95.5" y="-41" font-family="Helvetica,sans-Serif" font-size="10.00">dataBegin</text>
</g>
</g>
</svg>
