<?xml version="1.0" encoding="UTF-8" standalone="no"?>
<!DOCTYPE svg PUBLIC "-//W3C//DTD SVG 1.1//EN"
 "http://www.w3.org/Graphics/SVG/1.1/DTD/svg11.dtd">
<!-- Generated by graphviz version 2.43.0 (0)
 -->
<!-- Title: ODIMNodeValidator Pages: 1 -->
<svg width="218pt" height="308pt"
 viewBox="0.00 0.00 218.00 308.00" xmlns="http://www.w3.org/2000/svg" xmlns:xlink="http://www.w3.org/1999/xlink">
<g id="graph0" class="graph" transform="scale(1 1) rotate(0) translate(4 304)">
<title>ODIMNodeValidator</title>
<polygon fill="white" stroke="transparent" points="-4,4 -4,-304 214,-304 214,4 -4,4"/>
<!-- Node1 -->
<g id="node1" class="node">
<title>Node1</title>
<g id="a_node1"><a xlink:title=" ">
<polygon fill="#bfbfbf" stroke="black" points="13,-0.5 13,-19.5 126,-19.5 126,-0.5 13,-0.5"/>
<text text-anchor="middle" x="69.5" y="-7.5" font-family="Helvetica,sans-Serif" font-size="10.00">ODIMNodeValidator</text>
</a>
</g>
</g>
<!-- Node2 -->
<g id="node2" class="node">
<title>Node2</title>
<g id="a_node2"><a xlink:href="classdrain_1_1RegExp.html" target="_top" xlink:title=" ">
<polygon fill="white" stroke="black" points="0,-78.5 0,-97.5 53,-97.5 53,-78.5 0,-78.5"/>
<text text-anchor="middle" x="26.5" y="-85.5" font-family="Helvetica,sans-Serif" font-size="10.00">RegExp</text>
</a>
</g>
</g>
<!-- Node2&#45;&gt;Node1 -->
<g id="edge1" class="edge">
<title>Node2&#45;&gt;Node1</title>
<path fill="none" stroke="#9a32cd" stroke-dasharray="5,2" d="M22.87,-68.27C21.97,-58.65 22.43,-47.07 27.5,-38 31.99,-29.98 39.96,-23.97 47.76,-19.69"/>
<polygon fill="#9a32cd" stroke="#9a32cd" points="19.45,-69.02 24.37,-78.4 26.37,-68 19.45,-69.02"/>
<text text-anchor="middle" x="59.5" y="-52" font-family="Helvetica,sans-Serif" font-size="10.00"> pathRegExp</text>
<text text-anchor="middle" x="59.5" y="-41" font-family="Helvetica,sans-Serif" font-size="10.00">valueRegExp</text>
</g>
<!-- Node3 -->
<g id="node3" class="node">
<title>Node3</title>
<g id="a_node3"><a xlink:href="classdrain_1_1Variable.html" target="_top" xlink:title=" ">
<polygon fill="white" stroke="black" points="85,-78.5 85,-97.5 142,-97.5 142,-78.5 85,-78.5"/>
<text text-anchor="middle" x="113.5" y="-85.5" font-family="Helvetica,sans-Serif" font-size="10.00">Variable</text>
</a>
</g>
</g>
<!-- Node3&#45;&gt;Node1 -->
<g id="edge2" class="edge">
<title>Node3&#45;&gt;Node1</title>
<path fill="none" stroke="#9a32cd" stroke-dasharray="5,2" d="M106.64,-68.75C102.76,-59.28 97.48,-47.69 91.5,-38 87.44,-31.41 81.94,-24.66 77.45,-19.56"/>
<polygon fill="#9a32cd" stroke="#9a32cd" points="103.49,-70.31 110.4,-78.34 110.01,-67.75 103.49,-70.31"/>
<text text-anchor="middle" x="127" y="-52" font-family="Helvetica,sans-Serif" font-size="10.00"> basetype</text>
<text text-anchor="middle" x="127" y="-41" font-family="Helvetica,sans-Serif" font-size="10.00">required</text>
</g>
<!-- Node4 -->
<g id="node4" class="node">
<title>Node4</title>
<g id="a_node4"><a xlink:href="classdrain_1_1Castable.html" target="_top" xlink:title=" ">
<polygon fill="white" stroke="black" points="69,-213.5 69,-232.5 128,-232.5 128,-213.5 69,-213.5"/>
<text text-anchor="middle" x="98.5" y="-220.5" font-family="Helvetica,sans-Serif" font-size="10.00">Castable</text>
</a>
</g>
</g>
<!-- Node4&#45;&gt;Node3 -->
<g id="edge3" class="edge">
<title>Node4&#45;&gt;Node3</title>
<path fill="none" stroke="midnightblue" d="M100.42,-203.28C101.79,-190.06 103.7,-171.94 105.5,-156 107.86,-135.05 110.86,-110.44 112.43,-97.67"/>
<polygon fill="midnightblue" stroke="midnightblue" points="96.91,-203.15 99.37,-213.45 103.88,-203.86 96.91,-203.15"/>
</g>
<!-- Node6 -->
<g id="node6" class="node">
<title>Node6</title>
<g id="a_node6"><a xlink:href="classdrain_1_1CastableIterator.html" target="_top" xlink:title=" ">
<polygon fill="white" stroke="black" points="115,-156.5 115,-175.5 210,-175.5 210,-156.5 115,-156.5"/>
<text text-anchor="middle" x="162.5" y="-163.5" font-family="Helvetica,sans-Serif" font-size="10.00">CastableIterator</text>
</a>
</g>
</g>
<!-- Node4&#45;&gt;Node6 -->
<g id="edge6" class="edge">
<title>Node4&#45;&gt;Node6</title>
<path fill="none" stroke="darkgreen" d="M116.29,-206.71C127.92,-196.72 142.69,-184.02 152.36,-175.71"/>
<polygon fill="darkgreen" stroke="darkgreen" points="113.8,-204.23 108.5,-213.41 118.37,-209.54 113.8,-204.23"/>
</g>
<!-- Node5 -->
<g id="node5" class="node">
<title>Node5</title>
<g id="a_node5"><a xlink:href="classdrain_1_1Caster.html" target="_top" xlink:title=" ">
<polygon fill="white" stroke="black" points="74.5,-280.5 74.5,-299.5 122.5,-299.5 122.5,-280.5 74.5,-280.5"/>
<text text-anchor="middle" x="98.5" y="-287.5" font-family="Helvetica,sans-Serif" font-size="10.00">Caster</text>
</a>
</g>
</g>
<!-- Node5&#45;&gt;Node4 -->
<g id="edge4" class="edge">
<title>Node5&#45;&gt;Node4</title>
<path fill="none" stroke="#9a32cd" stroke-dasharray="5,2" d="M98.5,-270.04C98.5,-257.67 98.5,-242.12 98.5,-232.63"/>
<polygon fill="#9a32cd" stroke="#9a32cd" points="95,-270.23 98.5,-280.23 102,-270.23 95,-270.23"/>
<text text-anchor="middle" x="115.5" y="-254" font-family="Helvetica,sans-Serif" font-size="10.00"> caster</text>
</g>
<!-- Node6&#45;&gt;Node3 -->
<g id="edge5" class="edge">
<title>Node6&#45;&gt;Node3</title>
<path fill="none" stroke="#9a32cd" stroke-dasharray="5,2" d="M151.26,-147.57C141.19,-131.95 126.85,-109.7 119.06,-97.62"/>
<polygon fill="#9a32cd" stroke="#9a32cd" points="148.52,-149.77 156.88,-156.28 154.4,-145.98 148.52,-149.77"/>
<text text-anchor="middle" x="168.5" y="-130" font-family="Helvetica,sans-Serif" font-size="10.00"> dataEnd</text>
<text text-anchor="middle" x="168.5" y="-119" font-family="Helvetica,sans-Serif" font-size="10.00">dataBegin</text>
</g>
</g>
</svg>
