<?xml version="1.0" encoding="UTF-8" standalone="no"?>
<!DOCTYPE svg PUBLIC "-//W3C//DTD SVG 1.1//EN"
 "http://www.w3.org/Graphics/SVG/1.1/DTD/svg11.dtd">
<!-- Generated by graphviz version 2.43.0 (0)
 -->
<!-- Title: Legend Pages: 1 -->
<svg width="314pt" height="242pt"
 viewBox="0.00 0.00 313.50 242.00" xmlns="http://www.w3.org/2000/svg" xmlns:xlink="http://www.w3.org/1999/xlink">
<g id="graph0" class="graph" transform="scale(1 1) rotate(0) translate(4 238)">
<title>Legend</title>
<polygon fill="white" stroke="transparent" points="-4,4 -4,-238 309.5,-238 309.5,4 -4,4"/>
<!-- Node1 -->
<g id="node1" class="node">
<title>Node1</title>
<g id="a_node1"><a xlink:title=" ">
<polygon fill="#bfbfbf" stroke="black" points="64.5,-0.5 64.5,-19.5 116.5,-19.5 116.5,-0.5 64.5,-0.5"/>
<text text-anchor="middle" x="90.5" y="-7.5" font-family="Helvetica,sans-Serif" font-size="10.00">Legend</text>
</a>
</g>
</g>
<!-- Node2 -->
<g id="node2" class="node">
<title>Node2</title>
<g id="a_node2"><a xlink:href="classdrain_1_1ImageCodeMap.html" target="_top" xlink:title=" ">
<polygon fill="white" stroke="black" points="28,-57.5 28,-87.5 153,-87.5 153,-57.5 28,-57.5"/>
<text text-anchor="start" x="36" y="-75.5" font-family="Helvetica,sans-Serif" font-size="10.00">ImageCodeMap&lt; std::</text>
<text text-anchor="middle" x="90.5" y="-64.5" font-family="Helvetica,sans-Serif" font-size="10.00">string &gt;</text>
</a>
</g>
</g>
<!-- Node2&#45;&gt;Node1 -->
<g id="edge1" class="edge">
<title>Node2&#45;&gt;Node1</title>
<path fill="none" stroke="midnightblue" d="M90.5,-47.35C90.5,-37.51 90.5,-26.78 90.5,-19.54"/>
<polygon fill="midnightblue" stroke="midnightblue" points="87,-47.47 90.5,-57.47 94,-47.47 87,-47.47"/>
</g>
<!-- Node3 -->
<g id="node3" class="node">
<title>Node3</title>
<g id="a_node3"><a xlink:title=" ">
<polygon fill="white" stroke="#bfbfbf" points="0,-141 0,-160 149,-160 149,-141 0,-141"/>
<text text-anchor="middle" x="74.5" y="-148" font-family="Helvetica,sans-Serif" font-size="10.00">map&lt; double, std::string &gt;</text>
</a>
</g>
</g>
<!-- Node3&#45;&gt;Node2 -->
<g id="edge2" class="edge">
<title>Node3&#45;&gt;Node2</title>
<path fill="none" stroke="midnightblue" d="M78.44,-130.78C81.26,-117.4 84.99,-99.69 87.55,-87.52"/>
<polygon fill="midnightblue" stroke="midnightblue" points="74.97,-130.28 76.34,-140.78 81.82,-131.72 74.97,-130.28"/>
</g>
<!-- Node4 -->
<g id="node4" class="node">
<title>Node4</title>
<g id="a_node4"><a xlink:href="classdrain_1_1LookUp.html" target="_top" xlink:title=" ">
<polygon fill="white" stroke="black" points="167.5,-135.5 167.5,-165.5 305.5,-165.5 305.5,-135.5 167.5,-135.5"/>
<text text-anchor="start" x="175.5" y="-153.5" font-family="Helvetica,sans-Serif" font-size="10.00">LookUp&lt; typename cont</text>
<text text-anchor="middle" x="236.5" y="-142.5" font-family="Helvetica,sans-Serif" font-size="10.00">_t::const_iterator &gt;</text>
</a>
</g>
</g>
<!-- Node4&#45;&gt;Node2 -->
<g id="edge3" class="edge">
<title>Node4&#45;&gt;Node2</title>
<path fill="none" stroke="#9a32cd" stroke-dasharray="5,2" d="M200.33,-130.67C174.67,-117.32 140.79,-99.68 117.47,-87.54"/>
<polygon fill="#9a32cd" stroke="#9a32cd" points="198.89,-133.87 209.38,-135.38 202.13,-127.66 198.89,-133.87"/>
<text text-anchor="middle" x="190.5" y="-109" font-family="Helvetica,sans-Serif" font-size="10.00"> lookUp</text>
</g>
<!-- Node5 -->
<g id="node5" class="node">
<title>Node5</title>
<g id="a_node5"><a xlink:title=" ">
<polygon fill="white" stroke="#bfbfbf" points="170.5,-203.5 170.5,-233.5 302.5,-233.5 302.5,-203.5 170.5,-203.5"/>
<text text-anchor="start" x="178.5" y="-221.5" font-family="Helvetica,sans-Serif" font-size="10.00">vector&lt; typename cont</text>
<text text-anchor="middle" x="236.5" y="-210.5" font-family="Helvetica,sans-Serif" font-size="10.00">_t::const_iterator &gt;</text>
</a>
</g>
</g>
<!-- Node5&#45;&gt;Node4 -->
<g id="edge4" class="edge">
<title>Node5&#45;&gt;Node4</title>
<path fill="none" stroke="midnightblue" d="M236.5,-193.03C236.5,-183.86 236.5,-173.74 236.5,-165.79"/>
<polygon fill="midnightblue" stroke="midnightblue" points="233,-193.18 236.5,-203.18 240,-193.18 233,-193.18"/>
</g>
</g>
</svg>
