<?xml version="1.0" encoding="UTF-8" standalone="no"?>
<!DOCTYPE svg PUBLIC "-//W3C//DTD SVG 1.1//EN"
 "http://www.w3.org/Graphics/SVG/1.1/DTD/svg11.dtd">
<!-- Generated by graphviz version 2.43.0 (0)
 -->
<!-- Title: WindowConfig Pages: 1 -->
<svg width="553pt" height="140pt"
 viewBox="0.00 0.00 553.00 140.00" xmlns="http://www.w3.org/2000/svg" xmlns:xlink="http://www.w3.org/1999/xlink">
<g id="graph0" class="graph" transform="scale(1 1) rotate(0) translate(4 136)">
<title>WindowConfig</title>
<polygon fill="white" stroke="transparent" points="-4,4 -4,-136 549,-136 549,4 -4,4"/>
<!-- Node1 -->
<g id="node1" class="node">
<title>Node1</title>
<g id="a_node1"><a xlink:title="Base class for configurations applied in image processing windows, e.g. for operators of type WindowO...">
<polygon fill="#bfbfbf" stroke="black" points="237,-112.5 237,-131.5 324,-131.5 324,-112.5 237,-112.5"/>
<text text-anchor="middle" x="280.5" y="-119.5" font-family="Helvetica,sans-Serif" font-size="10.00">WindowConfig</text>
</a>
</g>
</g>
<!-- Node2 -->
<g id="node2" class="node">
<title>Node2</title>
<g id="a_node2"><a xlink:href="classdrain_1_1image_1_1GaussianWindowConf.html" target="_top" xlink:title="Extends WindowConfig with radius.">
<polygon fill="white" stroke="black" points="0,-56.5 0,-75.5 123,-75.5 123,-56.5 0,-56.5"/>
<text text-anchor="middle" x="61.5" y="-63.5" font-family="Helvetica,sans-Serif" font-size="10.00">GaussianWindowConf</text>
</a>
</g>
</g>
<!-- Node1&#45;&gt;Node2 -->
<g id="edge1" class="edge">
<title>Node1&#45;&gt;Node2</title>
<path fill="none" stroke="midnightblue" d="M235.99,-110.02C194.62,-99.82 133.86,-84.84 96.04,-75.52"/>
<polygon fill="midnightblue" stroke="midnightblue" points="235.25,-113.45 245.8,-112.44 236.93,-106.65 235.25,-113.45"/>
</g>
<!-- Node3 -->
<g id="node3" class="node">
<title>Node3</title>
<g id="a_node3"><a xlink:href="classdrain_1_1image_1_1HistogramWindowConfig.html" target="_top" xlink:title=" ">
<polygon fill="white" stroke="black" points="141.5,-56.5 141.5,-75.5 279.5,-75.5 279.5,-56.5 141.5,-56.5"/>
<text text-anchor="middle" x="210.5" y="-63.5" font-family="Helvetica,sans-Serif" font-size="10.00">HistogramWindowConfig</text>
</a>
</g>
</g>
<!-- Node1&#45;&gt;Node3 -->
<g id="edge2" class="edge">
<title>Node1&#45;&gt;Node3</title>
<path fill="none" stroke="midnightblue" d="M261.19,-106.1C248.59,-96.38 232.57,-84.03 221.95,-75.83"/>
<polygon fill="midnightblue" stroke="midnightblue" points="259.2,-108.99 269.25,-112.32 263.47,-103.44 259.2,-108.99"/>
</g>
<!-- Node4 -->
<g id="node4" class="node">
<title>Node4</title>
<g id="a_node4"><a xlink:href="classdrain_1_1image_1_1OpticalFlowConfig.html" target="_top" xlink:title="Consider using SlidingStripeOpticalFlow instead.">
<polygon fill="white" stroke="black" points="297.5,-56.5 297.5,-75.5 403.5,-75.5 403.5,-56.5 297.5,-56.5"/>
<text text-anchor="middle" x="350.5" y="-63.5" font-family="Helvetica,sans-Serif" font-size="10.00">OpticalFlowConfig</text>
</a>
</g>
</g>
<!-- Node1&#45;&gt;Node4 -->
<g id="edge3" class="edge">
<title>Node1&#45;&gt;Node4</title>
<path fill="none" stroke="midnightblue" d="M299.81,-106.1C312.41,-96.38 328.43,-84.03 339.05,-75.83"/>
<polygon fill="midnightblue" stroke="midnightblue" points="297.53,-103.44 291.75,-112.32 301.8,-108.99 297.53,-103.44"/>
</g>
<!-- Node5 -->
<g id="node5" class="node">
<title>Node5</title>
<g id="a_node5"><a xlink:href="classrack_1_1RadarWindowConfig.html" target="_top" xlink:title=" ">
<polygon fill="white" stroke="black" points="421.5,-56.5 421.5,-75.5 537.5,-75.5 537.5,-56.5 421.5,-56.5"/>
<text text-anchor="middle" x="479.5" y="-63.5" font-family="Helvetica,sans-Serif" font-size="10.00">RadarWindowConfig</text>
</a>
</g>
</g>
<!-- Node1&#45;&gt;Node5 -->
<g id="edge4" class="edge">
<title>Node1&#45;&gt;Node5</title>
<path fill="none" stroke="midnightblue" d="M322.15,-109.7C359.71,-99.51 414.11,-84.74 448.12,-75.52"/>
<polygon fill="midnightblue" stroke="midnightblue" points="320.77,-106.45 312.03,-112.44 322.6,-113.2 320.77,-106.45"/>
</g>
<!-- Node6 -->
<g id="node6" class="node">
<title>Node6</title>
<g id="a_node6"><a xlink:href="classrack_1_1DopplerInversionConfig.html" target="_top" xlink:title=" ">
<polygon fill="white" stroke="black" points="414,-0.5 414,-19.5 545,-19.5 545,-0.5 414,-0.5"/>
<text text-anchor="middle" x="479.5" y="-7.5" font-family="Helvetica,sans-Serif" font-size="10.00">DopplerInversionConfig</text>
</a>
</g>
</g>
<!-- Node5&#45;&gt;Node6 -->
<g id="edge5" class="edge">
<title>Node5&#45;&gt;Node6</title>
<path fill="none" stroke="midnightblue" d="M479.5,-45.8C479.5,-36.91 479.5,-26.78 479.5,-19.75"/>
<polygon fill="midnightblue" stroke="midnightblue" points="476,-46.08 479.5,-56.08 483,-46.08 476,-46.08"/>
</g>
</g>
</svg>
