<?xml version="1.0" encoding="UTF-8" standalone="no"?>
<!DOCTYPE svg PUBLIC "-//W3C//DTD SVG 1.1//EN"
 "http://www.w3.org/Graphics/SVG/1.1/DTD/svg11.dtd">
<!-- Generated by graphviz version 2.43.0 (0)
 -->
<!-- Title: DetectorOp Pages: 1 -->
<!--zoomable 712 -->
<svg id="main" version="1.1" xmlns="http://www.w3.org/2000/svg" xmlns:xlink="http://www.w3.org/1999/xlink" xml:space="preserve" onload="init(evt)">
<style type="text/css"><![CDATA[
.edge:hover path { stroke: red; }
.edge:hover polygon { stroke: red; fill: red; }
]]></style>
<script type="text/javascript"><![CDATA[
var edges = document.getElementsByTagName('g');
if (edges && edges.length) {
  for (var i=0;i<edges.length;i++) {
    if (edges[i].id.substr(0,4)=='edge') {
      edges[i].setAttribute('class','edge');
    }
  }
}
]]></script>
        <defs>
                <circle id="rim" cx="0" cy="0" r="7"/>
                <circle id="rim2" cx="0" cy="0" r="3.5"/>
                <g id="zoomPlus">
                        <use xlink:href="#rim" fill="#404040">
                                <set attributeName="fill" to="#808080" begin="zoomplus.mouseover" end="zoomplus.mouseout"/>
                        </use>
                        <path d="M-4,0h8M0,-4v8" fill="none" stroke="white" stroke-width="1.5" pointer-events="none"/>
                </g>
                <g id="zoomMin">
                        <use xlink:href="#rim" fill="#404040">
                                <set attributeName="fill" to="#808080" begin="zoomminus.mouseover" end="zoomminus.mouseout"/>
                        </use>
                        <path d="M-4,0h8" fill="none" stroke="white" stroke-width="1.5" pointer-events="none"/>
                </g>
                <g id="dirArrow">
                        <path fill="none" stroke="white" stroke-width="1.5" d="M0,-3.0v7 M-2.5,-0.5L0,-3.0L2.5,-0.5"/>
                </g>
               <g id="resetDef">
                       <use xlink:href="#rim2" fill="#404040">
                               <set attributeName="fill" to="#808080" begin="reset.mouseover" end="reset.mouseout"/>
                       </use>
               </g>
        </defs>

<script type="text/javascript">
var viewWidth = 1075;
var viewHeight = 712;
var sectionId = 'dynsection-0';
</script>
<script xlink:href="svgpan.js"/>
<svg id="graph" class="graph">
<g id="viewport">
<title>DetectorOp</title>
<polygon fill="white" stroke="transparent" points="-4,4 -4,-708 1071,-708 1071,4 -4,4"/>
<!-- Node1 -->
<g id="node1" class="node">
<title>Node1</title>
<g id="a_node1"><a xlink:title="Base class for anomaly detectors.">
<polygon fill="#bfbfbf" stroke="black" points="748,-342.5 748,-361.5 820,-361.5 820,-342.5 748,-342.5"/>
<text text-anchor="middle" x="784" y="-349.5" font-family="Helvetica,sans-Serif" font-size="10.00">DetectorOp</text>
</a>
</g>
</g>
<!-- Node7 -->
<g id="node7" class="node">
<title>Node7</title>
<g id="a_node7"><a xlink:href="classrack_1_1AttenuationOp.html" target="_top" xlink:title="Computes attenuation caused by precipitation.">
<polygon fill="white" stroke="black" points="870.5,-684.5 870.5,-703.5 957.5,-703.5 957.5,-684.5 870.5,-684.5"/>
<text text-anchor="middle" x="914" y="-691.5" font-family="Helvetica,sans-Serif" font-size="10.00">AttenuationOp</text>
</a>
</g>
</g>
<!-- Node1&#45;&gt;Node7 -->
<g id="edge6" class="edge">
<title>Node1&#45;&gt;Node7</title>
<path fill="none" stroke="midnightblue" d="M786.81,-371.81C792.96,-434.85 814.97,-629.4 856,-675 859.98,-679.42 865.01,-682.81 870.43,-685.42"/>
<polygon fill="midnightblue" stroke="midnightblue" points="790.28,-371.26 785.85,-361.63 783.31,-371.92 790.28,-371.26"/>
</g>
<!-- Node8 -->
<g id="node8" class="node">
<title>Node8</title>
<g id="a_node8"><a xlink:href="classrack_1_1BiometeorOp.html" target="_top" xlink:title=" ">
<polygon fill="white" stroke="black" points="873.5,-646.5 873.5,-665.5 954.5,-665.5 954.5,-646.5 873.5,-646.5"/>
<text text-anchor="middle" x="914" y="-653.5" font-family="Helvetica,sans-Serif" font-size="10.00">BiometeorOp</text>
</a>
</g>
</g>
<!-- Node1&#45;&gt;Node8 -->
<g id="edge7" class="edge">
<title>Node1&#45;&gt;Node8</title>
<path fill="none" stroke="midnightblue" d="M787.43,-371.71C794.94,-429.61 819.48,-597.53 856,-637 860.75,-642.13 866.91,-645.88 873.43,-648.61"/>
<polygon fill="midnightblue" stroke="midnightblue" points="790.89,-371.15 786.16,-361.67 783.94,-372.03 790.89,-371.15"/>
</g>
<!-- Node11 -->
<g id="node11" class="node">
<title>Node11</title>
<g id="a_node11"><a xlink:href="classrack_1_1BiometOp.html" target="_top" xlink:title="Detects birds and insects.">
<polygon fill="white" stroke="black" points="881.5,-608.5 881.5,-627.5 946.5,-627.5 946.5,-608.5 881.5,-608.5"/>
<text text-anchor="middle" x="914" y="-615.5" font-family="Helvetica,sans-Serif" font-size="10.00">BiometOp</text>
</a>
</g>
</g>
<!-- Node1&#45;&gt;Node11 -->
<g id="edge10" class="edge">
<title>Node1&#45;&gt;Node11</title>
<path fill="none" stroke="midnightblue" d="M784.82,-371.73C785.48,-417.9 793.65,-533.98 856,-599 862.71,-606 872.07,-610.42 881.27,-613.22"/>
<polygon fill="midnightblue" stroke="midnightblue" points="788.32,-371.56 784.78,-361.57 781.32,-371.58 788.32,-371.56"/>
</g>
<!-- Node12 -->
<g id="node12" class="node">
<title>Node12</title>
<g id="a_node12"><a xlink:href="classrack_1_1CCorOp.html" target="_top" xlink:title=" ">
<polygon fill="white" stroke="black" points="887.5,-570.5 887.5,-589.5 940.5,-589.5 940.5,-570.5 887.5,-570.5"/>
<text text-anchor="middle" x="914" y="-577.5" font-family="Helvetica,sans-Serif" font-size="10.00">CCorOp</text>
</a>
</g>
</g>
<!-- Node1&#45;&gt;Node12 -->
<g id="edge11" class="edge">
<title>Node1&#45;&gt;Node12</title>
<path fill="none" stroke="midnightblue" d="M786.07,-372C789.34,-413.16 802.6,-507.9 856,-561 864.36,-569.31 876.44,-573.99 887.34,-576.62"/>
<polygon fill="midnightblue" stroke="midnightblue" points="789.55,-371.64 785.38,-361.9 782.57,-372.11 789.55,-371.64"/>
</g>
<!-- Node13 -->
<g id="node13" class="node">
<title>Node13</title>
<g id="a_node13"><a xlink:href="classrack_1_1ClutterOp.html" target="_top" xlink:title="Based on pre&#45;computed clutter map, scales the clutter probability for desired sweeps.">
<polygon fill="white" stroke="black" points="882.5,-532.5 882.5,-551.5 945.5,-551.5 945.5,-532.5 882.5,-532.5"/>
<text text-anchor="middle" x="914" y="-539.5" font-family="Helvetica,sans-Serif" font-size="10.00">ClutterOp</text>
</a>
</g>
</g>
<!-- Node1&#45;&gt;Node13 -->
<g id="edge12" class="edge">
<title>Node1&#45;&gt;Node13</title>
<path fill="none" stroke="midnightblue" d="M787.77,-371.72C793.76,-407.04 811.2,-481.3 856,-523 863.25,-529.75 872.97,-534.11 882.33,-536.92"/>
<polygon fill="midnightblue" stroke="midnightblue" points="791.21,-371.05 786.21,-361.71 784.29,-372.13 791.21,-371.05"/>
</g>
<!-- Node14 -->
<g id="node14" class="node">
<title>Node14</title>
<g id="a_node14"><a xlink:href="classrack_1_1DefaultOp.html" target="_top" xlink:title="Simply, &quot;detects&quot; precipitation ie sets its probability.">
<polygon fill="white" stroke="black" points="881,-494.5 881,-513.5 947,-513.5 947,-494.5 881,-494.5"/>
<text text-anchor="middle" x="914" y="-501.5" font-family="Helvetica,sans-Serif" font-size="10.00">DefaultOp</text>
</a>
</g>
</g>
<!-- Node1&#45;&gt;Node14 -->
<g id="edge13" class="edge">
<title>Node1&#45;&gt;Node14</title>
<path fill="none" stroke="midnightblue" d="M790.28,-371.32C799.12,-400.15 819.64,-454.31 856,-485 863.09,-490.99 872.14,-495.11 880.93,-497.94"/>
<polygon fill="midnightblue" stroke="midnightblue" points="793.61,-370.23 787.45,-361.61 786.88,-372.19 793.61,-370.23"/>
</g>
<!-- Node15 -->
<g id="node15" class="node">
<title>Node15</title>
<g id="a_node15"><a xlink:href="classrack_1_1DopplerNoiseOp.html" target="_top" xlink:title="Detects suspicious variance in Doppler speed (VRAD).">
<polygon fill="white" stroke="black" points="866,-456.5 866,-475.5 962,-475.5 962,-456.5 866,-456.5"/>
<text text-anchor="middle" x="914" y="-463.5" font-family="Helvetica,sans-Serif" font-size="10.00">DopplerNoiseOp</text>
</a>
</g>
</g>
<!-- Node1&#45;&gt;Node15 -->
<g id="edge14" class="edge">
<title>Node1&#45;&gt;Node15</title>
<path fill="none" stroke="midnightblue" d="M794.39,-370.65C806.05,-392.03 827.9,-426.71 856,-447 861.33,-450.85 867.49,-453.95 873.74,-456.45"/>
<polygon fill="midnightblue" stroke="midnightblue" points="797.38,-368.83 789.63,-361.61 791.19,-372.09 797.38,-368.83"/>
</g>
<!-- Node16 -->
<g id="node16" class="node">
<title>Node16</title>
<g id="a_node16"><a xlink:href="classrack_1_1EmitterOp.html" target="_top" xlink:title="A quick emitter detection based on subtracting horizontal window medians by vertical ones.">
<polygon fill="white" stroke="black" points="881,-418.5 881,-437.5 947,-437.5 947,-418.5 881,-418.5"/>
<text text-anchor="middle" x="914" y="-425.5" font-family="Helvetica,sans-Serif" font-size="10.00">EmitterOp</text>
</a>
</g>
</g>
<!-- Node1&#45;&gt;Node16 -->
<g id="edge15" class="edge">
<title>Node1&#45;&gt;Node16</title>
<path fill="none" stroke="midnightblue" d="M802.38,-368.9C816.02,-381.41 836,-398.1 856,-409 863.69,-413.19 872.47,-416.68 880.8,-419.47"/>
<polygon fill="midnightblue" stroke="midnightblue" points="804.44,-366.04 794.75,-361.75 799.65,-371.14 804.44,-366.04"/>
</g>
<!-- Node17 -->
<g id="node17" class="node">
<title>Node17</title>
<g id="a_node17"><a xlink:href="classrack_1_1HydroClassBasedOp.html" target="_top" xlink:title="Sets probabilities of non&#45;meteorological echoes based on precomputed hydrometeor classification.">
<polygon fill="white" stroke="black" points="856,-380.5 856,-399.5 972,-399.5 972,-380.5 856,-380.5"/>
<text text-anchor="middle" x="914" y="-387.5" font-family="Helvetica,sans-Serif" font-size="10.00">HydroClassBasedOp</text>
</a>
</g>
</g>
<!-- Node1&#45;&gt;Node17 -->
<g id="edge16" class="edge">
<title>Node1&#45;&gt;Node17</title>
<path fill="none" stroke="midnightblue" d="M827.22,-364.54C844.64,-369.7 864.49,-375.6 880.71,-380.41"/>
<polygon fill="midnightblue" stroke="midnightblue" points="827.88,-361.08 817.3,-361.59 825.89,-367.79 827.88,-361.08"/>
</g>
<!-- Node18 -->
<g id="node18" class="node">
<title>Node18</title>
<g id="a_node18"><a xlink:href="classrack_1_1JammingOp.html" target="_top" xlink:title="A detector for widespread electromagnetic interference.">
<polygon fill="white" stroke="black" points="877,-342.5 877,-361.5 951,-361.5 951,-342.5 877,-342.5"/>
<text text-anchor="middle" x="914" y="-349.5" font-family="Helvetica,sans-Serif" font-size="10.00">JammingOp</text>
</a>
</g>
</g>
<!-- Node1&#45;&gt;Node18 -->
<g id="edge17" class="edge">
<title>Node1&#45;&gt;Node18</title>
<path fill="none" stroke="midnightblue" d="M830.56,-352C845.78,-352 862.51,-352 876.91,-352"/>
<polygon fill="midnightblue" stroke="midnightblue" points="830.32,-348.5 820.32,-352 830.32,-355.5 830.32,-348.5"/>
</g>
<!-- Node19 -->
<g id="node19" class="node">
<title>Node19</title>
<g id="a_node19"><a xlink:href="classrack_1_1LineOp.html" target="_top" xlink:title="Quick emitter detection based on subtracting a horizontal segment lengths by inversed vertical segmen...">
<polygon fill="white" stroke="black" points="889,-304.5 889,-323.5 939,-323.5 939,-304.5 889,-304.5"/>
<text text-anchor="middle" x="914" y="-311.5" font-family="Helvetica,sans-Serif" font-size="10.00">LineOp</text>
</a>
</g>
</g>
<!-- Node1&#45;&gt;Node19 -->
<g id="edge18" class="edge">
<title>Node1&#45;&gt;Node19</title>
<path fill="none" stroke="midnightblue" d="M827.03,-339.52C847.51,-333.44 871.4,-326.35 888.79,-321.19"/>
<polygon fill="midnightblue" stroke="midnightblue" points="825.89,-336.21 817.3,-342.41 827.88,-342.92 825.89,-336.21"/>
</g>
<!-- Node20 -->
<g id="node20" class="node">
<title>Node20</title>
<g id="a_node20"><a xlink:href="classrack_1_1NonMetOp.html" target="_top" xlink:title="Marks bins with low RhoHV value as probable anomalies.">
<polygon fill="white" stroke="black" points="880,-266.5 880,-285.5 948,-285.5 948,-266.5 880,-266.5"/>
<text text-anchor="middle" x="914" y="-273.5" font-family="Helvetica,sans-Serif" font-size="10.00">NonMetOp</text>
</a>
</g>
</g>
<!-- Node1&#45;&gt;Node20 -->
<g id="edge19" class="edge">
<title>Node1&#45;&gt;Node20</title>
<path fill="none" stroke="midnightblue" d="M802.38,-335.1C816.02,-322.59 836,-305.9 856,-295 863.42,-290.96 871.85,-287.57 879.91,-284.83"/>
<polygon fill="midnightblue" stroke="midnightblue" points="799.65,-332.86 794.75,-342.25 804.44,-337.96 799.65,-332.86"/>
</g>
<!-- Node21 -->
<g id="node21" class="node">
<title>Node21</title>
<g id="a_node21"><a xlink:href="classrack_1_1PrecipOp.html" target="_top" xlink:title="Simply, &quot;detects&quot; precipitation ie sets its probability.">
<polygon fill="white" stroke="black" points="884,-228.5 884,-247.5 944,-247.5 944,-228.5 884,-228.5"/>
<text text-anchor="middle" x="914" y="-235.5" font-family="Helvetica,sans-Serif" font-size="10.00">PrecipOp</text>
</a>
</g>
</g>
<!-- Node1&#45;&gt;Node21 -->
<g id="edge20" class="edge">
<title>Node1&#45;&gt;Node21</title>
<path fill="none" stroke="midnightblue" d="M794.39,-333.35C806.05,-311.97 827.9,-277.29 856,-257 864.2,-251.08 874.37,-246.91 883.84,-244.03"/>
<polygon fill="midnightblue" stroke="midnightblue" points="791.19,-331.91 789.63,-342.39 797.38,-335.17 791.19,-331.91"/>
</g>
<!-- Node22 -->
<g id="node22" class="node">
<title>Node22</title>
<g id="a_node22"><a xlink:href="classrack_1_1ShipOp.html" target="_top" xlink:title="Detects ships.">
<polygon fill="white" stroke="black" points="888.5,-190.5 888.5,-209.5 939.5,-209.5 939.5,-190.5 888.5,-190.5"/>
<text text-anchor="middle" x="914" y="-197.5" font-family="Helvetica,sans-Serif" font-size="10.00">ShipOp</text>
</a>
</g>
</g>
<!-- Node1&#45;&gt;Node22 -->
<g id="edge21" class="edge">
<title>Node1&#45;&gt;Node22</title>
<path fill="none" stroke="midnightblue" d="M790.28,-332.68C799.12,-303.85 819.64,-249.69 856,-219 865.09,-211.33 877.38,-206.72 888.23,-203.97"/>
<polygon fill="midnightblue" stroke="midnightblue" points="786.88,-331.81 787.45,-342.39 793.61,-333.77 786.88,-331.81"/>
</g>
<!-- Node23 -->
<g id="node23" class="node">
<title>Node23</title>
<g id="a_node23"><a xlink:href="classrack_1_1SpeckleOp.html" target="_top" xlink:title=" ">
<polygon fill="white" stroke="black" points="880,-152.5 880,-171.5 948,-171.5 948,-152.5 880,-152.5"/>
<text text-anchor="middle" x="914" y="-159.5" font-family="Helvetica,sans-Serif" font-size="10.00">SpeckleOp</text>
</a>
</g>
</g>
<!-- Node1&#45;&gt;Node23 -->
<g id="edge22" class="edge">
<title>Node1&#45;&gt;Node23</title>
<path fill="none" stroke="midnightblue" d="M787.77,-332.28C793.76,-296.96 811.2,-222.7 856,-181 862.64,-174.82 871.35,-170.64 879.96,-167.83"/>
<polygon fill="midnightblue" stroke="midnightblue" points="784.29,-331.87 786.21,-342.29 791.21,-332.95 784.29,-331.87"/>
</g>
<!-- Node24 -->
<g id="node24" class="node">
<title>Node24</title>
<g id="a_node24"><a xlink:href="classrack_1_1SunOp.html" target="_top" xlink:title="Detects birds and insects.">
<polygon fill="white" stroke="black" points="890,-114.5 890,-133.5 938,-133.5 938,-114.5 890,-114.5"/>
<text text-anchor="middle" x="914" y="-121.5" font-family="Helvetica,sans-Serif" font-size="10.00">SunOp</text>
</a>
</g>
</g>
<!-- Node1&#45;&gt;Node24 -->
<g id="edge23" class="edge">
<title>Node1&#45;&gt;Node24</title>
<path fill="none" stroke="midnightblue" d="M786.07,-332C789.34,-290.84 802.6,-196.1 856,-143 865.02,-134.03 878.39,-129.29 889.92,-126.79"/>
<polygon fill="midnightblue" stroke="midnightblue" points="782.57,-331.89 785.38,-342.1 789.55,-332.36 782.57,-331.89"/>
</g>
<!-- Node25 -->
<g id="node25" class="node">
<title>Node25</title>
<g id="a_node25"><a xlink:href="classrack_1_1TestOp.html" target="_top" xlink:title=" ">
<polygon fill="white" stroke="black" points="889,-76.5 889,-95.5 939,-95.5 939,-76.5 889,-76.5"/>
<text text-anchor="middle" x="914" y="-83.5" font-family="Helvetica,sans-Serif" font-size="10.00">TestOp</text>
</a>
</g>
</g>
<!-- Node1&#45;&gt;Node25 -->
<g id="edge24" class="edge">
<title>Node1&#45;&gt;Node25</title>
<path fill="none" stroke="midnightblue" d="M784.82,-332.27C785.48,-286.1 793.65,-170.02 856,-105 864.59,-96.04 877.51,-91.31 888.88,-88.8"/>
<polygon fill="midnightblue" stroke="midnightblue" points="781.32,-332.42 784.78,-342.43 788.32,-332.44 781.32,-332.42"/>
</g>
<!-- Node26 -->
<g id="node26" class="node">
<title>Node26</title>
<g id="a_node26"><a xlink:href="classrack_1_1TimeOp.html" target="_top" xlink:title="A radio interference detector.">
<polygon fill="white" stroke="black" points="887,-38.5 887,-57.5 941,-57.5 941,-38.5 887,-38.5"/>
<text text-anchor="middle" x="914" y="-45.5" font-family="Helvetica,sans-Serif" font-size="10.00">TimeOp</text>
</a>
</g>
</g>
<!-- Node1&#45;&gt;Node26 -->
<g id="edge25" class="edge">
<title>Node1&#45;&gt;Node26</title>
<path fill="none" stroke="midnightblue" d="M787.43,-332.29C794.94,-274.39 819.48,-106.47 856,-67 863.93,-58.42 875.84,-53.72 886.72,-51.13"/>
<polygon fill="midnightblue" stroke="midnightblue" points="783.94,-331.97 786.16,-342.33 790.89,-332.85 783.94,-331.97"/>
</g>
<!-- Node27 -->
<g id="node27" class="node">
<title>Node27</title>
<g id="a_node27"><a xlink:href="classrack_1_1ZDRvarOp.html" target="_top" xlink:title=" ">
<polygon fill="white" stroke="black" points="880.5,-0.5 880.5,-19.5 947.5,-19.5 947.5,-0.5 880.5,-0.5"/>
<text text-anchor="middle" x="914" y="-7.5" font-family="Helvetica,sans-Serif" font-size="10.00">ZDRvarOp</text>
</a>
</g>
</g>
<!-- Node1&#45;&gt;Node27 -->
<g id="edge26" class="edge">
<title>Node1&#45;&gt;Node27</title>
<path fill="none" stroke="midnightblue" d="M786.81,-332.19C792.96,-269.15 814.97,-74.6 856,-29 862.35,-21.94 871.39,-17.5 880.4,-14.71"/>
<polygon fill="midnightblue" stroke="midnightblue" points="783.31,-332.08 785.85,-342.37 790.28,-332.74 783.31,-332.08"/>
</g>
<!-- Node2 -->
<g id="node2" class="node">
<title>Node2</title>
<g id="a_node2"><a xlink:href="classrack_1_1AndreOp.html" target="_top" xlink:title="The base class for removal operators.">
<polygon fill="white" stroke="black" points="653,-342.5 653,-361.5 712,-361.5 712,-342.5 653,-342.5"/>
<text text-anchor="middle" x="682.5" y="-349.5" font-family="Helvetica,sans-Serif" font-size="10.00">AndreOp</text>
</a>
</g>
</g>
<!-- Node2&#45;&gt;Node1 -->
<g id="edge1" class="edge">
<title>Node2&#45;&gt;Node1</title>
<path fill="none" stroke="midnightblue" d="M722.04,-352C730.51,-352 739.43,-352 747.76,-352"/>
<polygon fill="midnightblue" stroke="midnightblue" points="722.01,-348.5 712.01,-352 722.01,-355.5 722.01,-348.5"/>
</g>
<!-- Node3 -->
<g id="node3" class="node">
<title>Node3</title>
<g id="a_node3"><a xlink:href="classrack_1_1VolumeTraversalOp.html" target="_top" xlink:title="Base class for radar data processors.">
<polygon fill="white" stroke="black" points="504,-342.5 504,-361.5 617,-361.5 617,-342.5 504,-342.5"/>
<text text-anchor="middle" x="560.5" y="-349.5" font-family="Helvetica,sans-Serif" font-size="10.00">VolumeTraversalOp</text>
</a>
</g>
</g>
<!-- Node3&#45;&gt;Node2 -->
<g id="edge2" class="edge">
<title>Node3&#45;&gt;Node2</title>
<path fill="none" stroke="midnightblue" d="M627.44,-352C636.4,-352 645.19,-352 652.98,-352"/>
<polygon fill="midnightblue" stroke="midnightblue" points="627.28,-348.5 617.28,-352 627.28,-355.5 627.28,-348.5"/>
</g>
<!-- Node4 -->
<g id="node4" class="node">
<title>Node4</title>
<g id="a_node4"><a xlink:href="classrack_1_1PolarProductOp.html" target="_top" xlink:title="Base class for flat (2D) products computed in the polar coordinate system. Volume is used as input.">
<polygon fill="white" stroke="black" points="376,-342.5 376,-361.5 468,-361.5 468,-342.5 376,-342.5"/>
<text text-anchor="middle" x="422" y="-349.5" font-family="Helvetica,sans-Serif" font-size="10.00">PolarProductOp</text>
</a>
</g>
</g>
<!-- Node4&#45;&gt;Node3 -->
<g id="edge3" class="edge">
<title>Node4&#45;&gt;Node3</title>
<path fill="none" stroke="midnightblue" d="M478.11,-352C486.48,-352 495.13,-352 503.52,-352"/>
<polygon fill="midnightblue" stroke="midnightblue" points="478.07,-348.5 468.07,-352 478.07,-355.5 478.07,-348.5"/>
</g>
<!-- Node5 -->
<g id="node5" class="node">
<title>Node5</title>
<g id="a_node5"><a xlink:href="classrack_1_1VolumeOp.html" target="_top" xlink:title=" ">
<polygon fill="white" stroke="black" points="198,-342.5 198,-361.5 340,-361.5 340,-342.5 198,-342.5"/>
<text text-anchor="middle" x="269" y="-349.5" font-family="Helvetica,sans-Serif" font-size="10.00">VolumeOp&lt; PolarODIM &gt;</text>
</a>
</g>
</g>
<!-- Node5&#45;&gt;Node4 -->
<g id="edge4" class="edge">
<title>Node5&#45;&gt;Node4</title>
<path fill="none" stroke="midnightblue" d="M350.48,-352C359.23,-352 367.89,-352 375.98,-352"/>
<polygon fill="midnightblue" stroke="midnightblue" points="350.2,-348.5 340.2,-352 350.2,-355.5 350.2,-348.5"/>
</g>
<!-- Node6 -->
<g id="node6" class="node">
<title>Node6</title>
<g id="a_node6"><a xlink:href="classdrain_1_1image_1_1ProductOp.html" target="_top" xlink:title=" ">
<polygon fill="white" stroke="black" points="0,-337 0,-367 162,-367 162,-337 0,-337"/>
<text text-anchor="start" x="8" y="-355" font-family="Helvetica,sans-Serif" font-size="10.00">ProductOp&lt; const PolarODIM,</text>
<text text-anchor="middle" x="81" y="-344" font-family="Helvetica,sans-Serif" font-size="10.00"> PolarODIM &gt;</text>
</a>
</g>
</g>
<!-- Node6&#45;&gt;Node5 -->
<g id="edge5" class="edge">
<title>Node6&#45;&gt;Node5</title>
<path fill="none" stroke="midnightblue" d="M172.32,-352C180.94,-352 189.59,-352 197.97,-352"/>
<polygon fill="midnightblue" stroke="midnightblue" points="172.23,-348.5 162.23,-352 172.23,-355.5 172.23,-348.5"/>
</g>
<!-- Node9 -->
<g id="node9" class="node">
<title>Node9</title>
<g id="a_node9"><a xlink:href="classrack_1_1BirdOp.html" target="_top" xlink:title=" ">
<polygon fill="white" stroke="black" points="1012.5,-665.5 1012.5,-684.5 1062.5,-684.5 1062.5,-665.5 1012.5,-665.5"/>
<text text-anchor="middle" x="1037.5" y="-672.5" font-family="Helvetica,sans-Serif" font-size="10.00">BirdOp</text>
</a>
</g>
</g>
<!-- Node8&#45;&gt;Node9 -->
<g id="edge8" class="edge">
<title>Node8&#45;&gt;Node9</title>
<path fill="none" stroke="midnightblue" d="M964.79,-663.79C981.17,-666.35 998.64,-669.08 1012.24,-671.21"/>
<polygon fill="midnightblue" stroke="midnightblue" points="965.2,-660.31 954.78,-662.22 964.12,-667.22 965.2,-660.31"/>
</g>
<!-- Node10 -->
<g id="node10" class="node">
<title>Node10</title>
<g id="a_node10"><a xlink:href="classrack_1_1InsectOp.html" target="_top" xlink:title=" ">
<polygon fill="white" stroke="black" points="1008,-627.5 1008,-646.5 1067,-646.5 1067,-627.5 1008,-627.5"/>
<text text-anchor="middle" x="1037.5" y="-634.5" font-family="Helvetica,sans-Serif" font-size="10.00">InsectOp</text>
</a>
</g>
</g>
<!-- Node8&#45;&gt;Node10 -->
<g id="edge9" class="edge">
<title>Node8&#45;&gt;Node10</title>
<path fill="none" stroke="midnightblue" d="M964.74,-648.22C979.4,-645.93 994.94,-643.5 1007.8,-641.49"/>
<polygon fill="midnightblue" stroke="midnightblue" points="964.12,-644.78 954.78,-649.78 965.2,-651.69 964.12,-644.78"/>
</g>
</g>
</svg>
        <g id="navigator" transform="translate(0 0)" fill="#404254">
                <rect fill="#f2f5e9" fill-opacity="0.5" stroke="#606060" stroke-width=".5" x="0" y="0" width="60" height="60"/>
                <use id="zoomplus" xlink:href="#zoomPlus" x="17" y="9" onmousedown="handleZoom(evt,'in')"/>
                <use id="zoomminus" xlink:href="#zoomMin" x="42" y="9" onmousedown="handleZoom(evt,'out')"/>
                <use id="reset" xlink:href="#resetDef" x="30" y="36" onmousedown="handleReset()"/>
                <g id="arrowUp" xlink:href="#dirArrow" transform="translate(30 24)" onmousedown="handlePan(0,-1)">
                  <use xlink:href="#rim" fill="#404040">
                        <set attributeName="fill" to="#808080" begin="arrowUp.mouseover" end="arrowUp.mouseout"/>
                  </use>
                  <path fill="none" stroke="white" stroke-width="1.5" d="M0,-3.0v7 M-2.5,-0.5L0,-3.0L2.5,-0.5"/>
                </g>
                <g id="arrowRight" xlink:href="#dirArrow" transform="rotate(90) translate(36 -43)" onmousedown="handlePan(1,0)">
                  <use xlink:href="#rim" fill="#404040">
                        <set attributeName="fill" to="#808080" begin="arrowRight.mouseover" end="arrowRight.mouseout"/>
                  </use>
                  <path fill="none" stroke="white" stroke-width="1.5" d="M0,-3.0v7 M-2.5,-0.5L0,-3.0L2.5,-0.5"/>
                </g>
                <g id="arrowDown" xlink:href="#dirArrow" transform="rotate(180) translate(-30 -48)" onmousedown="handlePan(0,1)">
                  <use xlink:href="#rim" fill="#404040">
                        <set attributeName="fill" to="#808080" begin="arrowDown.mouseover" end="arrowDown.mouseout"/>
                  </use>
                  <path fill="none" stroke="white" stroke-width="1.5" d="M0,-3.0v7 M-2.5,-0.5L0,-3.0L2.5,-0.5"/>
                </g>
                <g id="arrowLeft" xlink:href="#dirArrow" transform="rotate(270) translate(-36 17)" onmousedown="handlePan(-1,0)">
                  <use xlink:href="#rim" fill="#404040">
                        <set attributeName="fill" to="#808080" begin="arrowLeft.mouseover" end="arrowLeft.mouseout"/>
                  </use>
                  <path fill="none" stroke="white" stroke-width="1.5" d="M0,-3.0v7 M-2.5,-0.5L0,-3.0L2.5,-0.5"/>
                </g>
        </g>
        <svg viewBox="0 0 15 15" width="100%" height="30px" preserveAspectRatio="xMaxYMin meet">
         <g id="arrow_out" transform="scale(0.3 0.3)">
          <a xlink:href="classrack_1_1DetectorOp__inherit__graph_org.svg" target="_base">
           <rect id="button" ry="5" rx="5" y="6" x="6" height="38" width="38"
                fill="#f2f5e9" fill-opacity="0.5" stroke="#606060" stroke-width="1.0"/>
           <path id="arrow"
             d="M 11.500037,31.436501 C 11.940474,20.09759 22.043105,11.32322 32.158766,21.979434 L 37.068811,17.246167 C 37.068811,17.246167 37.088388,32 37.088388,32 L 22.160133,31.978069 C 22.160133,31.978069 26.997745,27.140456 26.997745,27.140456 C 18.528582,18.264221 13.291696,25.230495 11.500037,31.436501 z"
             style="fill:#404040;"/>
          </a>
         </g>
        </svg>
</svg>
