<?xml version="1.0" encoding="UTF-8" standalone="no"?>
<!DOCTYPE svg PUBLIC "-//W3C//DTD SVG 1.1//EN"
 "http://www.w3.org/Graphics/SVG/1.1/DTD/svg11.dtd">
<!-- Generated by graphviz version 2.43.0 (0)
 -->
<!-- Title: SlidingOpticalFlowWeighted Pages: 1 -->
<svg width="167pt" height="397pt"
 viewBox="0.00 0.00 167.00 397.00" xmlns="http://www.w3.org/2000/svg" xmlns:xlink="http://www.w3.org/1999/xlink">
<g id="graph0" class="graph" transform="scale(1 1) rotate(0) translate(4 393)">
<title>SlidingOpticalFlowWeighted</title>
<polygon fill="white" stroke="transparent" points="-4,4 -4,-393 163,-393 163,4 -4,4"/>
<!-- Node1 -->
<g id="node1" class="node">
<title>Node1</title>
<g id="a_node1"><a xlink:title=" ">
<polygon fill="#bfbfbf" stroke="black" points="2.5,-0.5 2.5,-19.5 156.5,-19.5 156.5,-0.5 2.5,-0.5"/>
<text text-anchor="middle" x="79.5" y="-7.5" font-family="Helvetica,sans-Serif" font-size="10.00">SlidingOpticalFlowWeighted</text>
</a>
</g>
</g>
<!-- Node2 -->
<g id="node2" class="node">
<title>Node2</title>
<g id="a_node2"><a xlink:href="classdrain_1_1image_1_1SlidingOpticalFlow.html" target="_top" xlink:title=" ">
<polygon fill="white" stroke="black" points="17,-56.5 17,-86.5 142,-86.5 142,-56.5 17,-56.5"/>
<text text-anchor="start" x="25" y="-74.5" font-family="Helvetica,sans-Serif" font-size="10.00">SlidingOpticalFlow</text>
<text text-anchor="middle" x="79.5" y="-63.5" font-family="Helvetica,sans-Serif" font-size="10.00">&lt; OpticalFlowCore1 &gt;</text>
</a>
</g>
</g>
<!-- Node2&#45;&gt;Node1 -->
<g id="edge1" class="edge">
<title>Node2&#45;&gt;Node1</title>
<path fill="none" stroke="midnightblue" d="M79.5,-46.29C79.5,-36.86 79.5,-26.65 79.5,-19.66"/>
<polygon fill="midnightblue" stroke="midnightblue" points="76,-46.4 79.5,-56.4 83,-46.4 76,-46.4"/>
</g>
<!-- Node3 -->
<g id="node3" class="node">
<title>Node3</title>
<g id="a_node3"><a xlink:href="classdrain_1_1image_1_1SlidingWindow.html" target="_top" xlink:title=" ">
<polygon fill="white" stroke="black" points="0.5,-123.5 0.5,-153.5 158.5,-153.5 158.5,-123.5 0.5,-123.5"/>
<text text-anchor="start" x="8.5" y="-141.5" font-family="Helvetica,sans-Serif" font-size="10.00">SlidingWindow&lt; OpticalFlow</text>
<text text-anchor="middle" x="79.5" y="-130.5" font-family="Helvetica,sans-Serif" font-size="10.00">Config, OpticalFlowCore1 &gt;</text>
</a>
</g>
</g>
<!-- Node3&#45;&gt;Node2 -->
<g id="edge2" class="edge">
<title>Node3&#45;&gt;Node2</title>
<path fill="none" stroke="midnightblue" d="M79.5,-113.11C79.5,-104.15 79.5,-94.32 79.5,-86.58"/>
<polygon fill="midnightblue" stroke="midnightblue" points="76,-113.4 79.5,-123.4 83,-113.4 76,-113.4"/>
</g>
<!-- Node4 -->
<g id="node4" class="node">
<title>Node4</title>
<g id="a_node4"><a xlink:href="classdrain_1_1image_1_1Window.html" target="_top" xlink:title=" ">
<polygon fill="white" stroke="black" points="0,-190.5 0,-220.5 159,-220.5 159,-190.5 0,-190.5"/>
<text text-anchor="start" x="8" y="-208.5" font-family="Helvetica,sans-Serif" font-size="10.00">Window&lt; OpticalFlowConfig,</text>
<text text-anchor="middle" x="79.5" y="-197.5" font-family="Helvetica,sans-Serif" font-size="10.00"> OpticalFlowCore1 &gt;</text>
</a>
</g>
</g>
<!-- Node4&#45;&gt;Node3 -->
<g id="edge3" class="edge">
<title>Node4&#45;&gt;Node3</title>
<path fill="none" stroke="midnightblue" d="M79.5,-180.11C79.5,-171.15 79.5,-161.32 79.5,-153.58"/>
<polygon fill="midnightblue" stroke="midnightblue" points="76,-180.4 79.5,-190.4 83,-180.4 76,-180.4"/>
</g>
<!-- Node5 -->
<g id="node5" class="node">
<title>Node5</title>
<g id="a_node5"><a xlink:href="classdrain_1_1image_1_1OpticalFlowCore1.html" target="_top" xlink:title=" ">
<polygon fill="white" stroke="black" points="28,-257.5 28,-276.5 131,-276.5 131,-257.5 28,-257.5"/>
<text text-anchor="middle" x="79.5" y="-264.5" font-family="Helvetica,sans-Serif" font-size="10.00">OpticalFlowCore1</text>
</a>
</g>
</g>
<!-- Node5&#45;&gt;Node4 -->
<g id="edge4" class="edge">
<title>Node5&#45;&gt;Node4</title>
<path fill="none" stroke="midnightblue" d="M79.5,-247.23C79.5,-238.59 79.5,-228.5 79.5,-220.52"/>
<polygon fill="midnightblue" stroke="midnightblue" points="76,-247.48 79.5,-257.48 83,-247.48 76,-247.48"/>
</g>
<!-- Node6 -->
<g id="node6" class="node">
<title>Node6</title>
<g id="a_node6"><a xlink:href="classdrain_1_1image_1_1OpticalFlowCore.html" target="_top" xlink:title=" ">
<polygon fill="white" stroke="black" points="31,-313.5 31,-332.5 128,-332.5 128,-313.5 31,-313.5"/>
<text text-anchor="middle" x="79.5" y="-320.5" font-family="Helvetica,sans-Serif" font-size="10.00">OpticalFlowCore</text>
</a>
</g>
</g>
<!-- Node6&#45;&gt;Node5 -->
<g id="edge5" class="edge">
<title>Node6&#45;&gt;Node5</title>
<path fill="none" stroke="midnightblue" d="M79.5,-302.8C79.5,-293.91 79.5,-283.78 79.5,-276.75"/>
<polygon fill="midnightblue" stroke="midnightblue" points="76,-303.08 79.5,-313.08 83,-303.08 76,-303.08"/>
</g>
<!-- Node7 -->
<g id="node7" class="node">
<title>Node7</title>
<g id="a_node7"><a xlink:href="classdrain_1_1image_1_1WindowCoreBase.html" target="_top" xlink:title="Provides splitting frames.">
<polygon fill="white" stroke="black" points="28.5,-369.5 28.5,-388.5 130.5,-388.5 130.5,-369.5 28.5,-369.5"/>
<text text-anchor="middle" x="79.5" y="-376.5" font-family="Helvetica,sans-Serif" font-size="10.00">WindowCoreBase</text>
</a>
</g>
</g>
<!-- Node7&#45;&gt;Node6 -->
<g id="edge6" class="edge">
<title>Node7&#45;&gt;Node6</title>
<path fill="none" stroke="midnightblue" d="M79.5,-358.8C79.5,-349.91 79.5,-339.78 79.5,-332.75"/>
<polygon fill="midnightblue" stroke="midnightblue" points="76,-359.08 79.5,-369.08 83,-359.08 76,-359.08"/>
</g>
</g>
</svg>
