<?xml version="1.0" encoding="UTF-8" standalone="no"?>
<!DOCTYPE svg PUBLIC "-//W3C//DTD SVG 1.1//EN"
 "http://www.w3.org/Graphics/SVG/1.1/DTD/svg11.dtd">
<!-- Generated by graphviz version 2.43.0 (0)
 -->
<!-- Title: Palette2 Pages: 1 -->
<svg width="330pt" height="231pt"
 viewBox="0.00 0.00 330.00 231.00" xmlns="http://www.w3.org/2000/svg" xmlns:xlink="http://www.w3.org/1999/xlink">
<g id="graph0" class="graph" transform="scale(1 1) rotate(0) translate(4 227)">
<title>Palette2</title>
<polygon fill="white" stroke="transparent" points="-4,4 -4,-227 326,-227 326,4 -4,4"/>
<!-- Node1 -->
<g id="node1" class="node">
<title>Node1</title>
<g id="a_node1"><a xlink:title=" ">
<polygon fill="#bfbfbf" stroke="black" points="104.5,-0.5 104.5,-19.5 161.5,-19.5 161.5,-0.5 104.5,-0.5"/>
<text text-anchor="middle" x="133" y="-7.5" font-family="Helvetica,sans-Serif" font-size="10.00">Palette2</text>
</a>
</g>
</g>
<!-- Node2 -->
<g id="node2" class="node">
<title>Node2</title>
<g id="a_node2"><a xlink:href="classdrain_1_1ImageCodeMap.html" target="_top" xlink:title=" ">
<polygon fill="white" stroke="black" points="42,-57.5 42,-76.5 224,-76.5 224,-57.5 42,-57.5"/>
<text text-anchor="middle" x="133" y="-64.5" font-family="Helvetica,sans-Serif" font-size="10.00">ImageCodeMap&lt; PaletteEntry2 &gt;</text>
</a>
</g>
</g>
<!-- Node2&#45;&gt;Node1 -->
<g id="edge1" class="edge">
<title>Node2&#45;&gt;Node1</title>
<path fill="none" stroke="midnightblue" d="M133,-47.12C133,-37.82 133,-27.06 133,-19.71"/>
<polygon fill="midnightblue" stroke="midnightblue" points="129.5,-47.41 133,-57.41 136.5,-47.41 129.5,-47.41"/>
</g>
<!-- Node3 -->
<g id="node3" class="node">
<title>Node3</title>
<g id="a_node3"><a xlink:title=" ">
<polygon fill="white" stroke="#bfbfbf" points="0,-130 0,-149 166,-149 166,-130 0,-130"/>
<text text-anchor="middle" x="83" y="-137" font-family="Helvetica,sans-Serif" font-size="10.00">map&lt; double, PaletteEntry2 &gt;</text>
</a>
</g>
</g>
<!-- Node3&#45;&gt;Node2 -->
<g id="edge2" class="edge">
<title>Node3&#45;&gt;Node2</title>
<path fill="none" stroke="midnightblue" d="M95.06,-121.5C105.08,-107.37 118.92,-87.85 126.82,-76.72"/>
<polygon fill="midnightblue" stroke="midnightblue" points="92.06,-119.67 89.13,-129.86 97.77,-123.72 92.06,-119.67"/>
</g>
<!-- Node4 -->
<g id="node4" class="node">
<title>Node4</title>
<g id="a_node4"><a xlink:href="classdrain_1_1LookUp.html" target="_top" xlink:title=" ">
<polygon fill="white" stroke="black" points="184,-124.5 184,-154.5 322,-154.5 322,-124.5 184,-124.5"/>
<text text-anchor="start" x="192" y="-142.5" font-family="Helvetica,sans-Serif" font-size="10.00">LookUp&lt; typename cont</text>
<text text-anchor="middle" x="253" y="-131.5" font-family="Helvetica,sans-Serif" font-size="10.00">_t::const_iterator &gt;</text>
</a>
</g>
</g>
<!-- Node4&#45;&gt;Node2 -->
<g id="edge3" class="edge">
<title>Node4&#45;&gt;Node2</title>
<path fill="none" stroke="#9a32cd" stroke-dasharray="5,2" d="M220.29,-119.28C196.51,-105.31 165.46,-87.07 147.53,-76.53"/>
<polygon fill="#9a32cd" stroke="#9a32cd" points="218.61,-122.35 229,-124.4 222.16,-116.32 218.61,-122.35"/>
<text text-anchor="middle" x="215" y="-98" font-family="Helvetica,sans-Serif" font-size="10.00"> lookUp</text>
</g>
<!-- Node5 -->
<g id="node5" class="node">
<title>Node5</title>
<g id="a_node5"><a xlink:title=" ">
<polygon fill="white" stroke="#bfbfbf" points="187,-192.5 187,-222.5 319,-222.5 319,-192.5 187,-192.5"/>
<text text-anchor="start" x="195" y="-210.5" font-family="Helvetica,sans-Serif" font-size="10.00">vector&lt; typename cont</text>
<text text-anchor="middle" x="253" y="-199.5" font-family="Helvetica,sans-Serif" font-size="10.00">_t::const_iterator &gt;</text>
</a>
</g>
</g>
<!-- Node5&#45;&gt;Node4 -->
<g id="edge4" class="edge">
<title>Node5&#45;&gt;Node4</title>
<path fill="none" stroke="midnightblue" d="M253,-182.03C253,-172.86 253,-162.74 253,-154.79"/>
<polygon fill="midnightblue" stroke="midnightblue" points="249.5,-182.18 253,-192.18 256.5,-182.18 249.5,-182.18"/>
</g>
</g>
</svg>
