<?xml version="1.0" encoding="UTF-8" standalone="no"?>
<!DOCTYPE svg PUBLIC "-//W3C//DTD SVG 1.1//EN"
 "http://www.w3.org/Graphics/SVG/1.1/DTD/svg11.dtd">
<!-- Generated by graphviz version 2.43.0 (0)
 -->
<!-- Title: QualityDataSupport&lt; DT &gt; Pages: 1 -->
<svg width="194pt" height="95pt"
 viewBox="0.00 0.00 194.00 95.00" xmlns="http://www.w3.org/2000/svg" xmlns:xlink="http://www.w3.org/1999/xlink">
<g id="graph0" class="graph" transform="scale(1 1) rotate(0) translate(4 91)">
<title>QualityDataSupport&lt; DT &gt;</title>
<polygon fill="white" stroke="transparent" points="-4,4 -4,-91 190,-91 190,4 -4,4"/>
<!-- Node1 -->
<g id="node1" class="node">
<title>Node1</title>
<g id="a_node1"><a xlink:title="Base class providing quality support for Dataand DataSet">
<polygon fill="#bfbfbf" stroke="black" points="32.5,-56.5 32.5,-86.5 145.5,-86.5 145.5,-56.5 32.5,-56.5"/>
<text text-anchor="start" x="40.5" y="-74.5" font-family="Helvetica,sans-Serif" font-size="10.00">QualityDataSupport</text>
<text text-anchor="middle" x="89" y="-63.5" font-family="Helvetica,sans-Serif" font-size="10.00">&lt; DT &gt;</text>
</a>
</g>
</g>
<!-- Node2 -->
<g id="node2" class="node">
<title>Node2</title>
<g id="a_node2"><a xlink:href="classrack_1_1Data.html" target="_top" xlink:title="Data structure consisting of plain data and an optional quality data.">
<polygon fill="white" stroke="black" points="0,-0.5 0,-19.5 76,-19.5 76,-0.5 0,-0.5"/>
<text text-anchor="middle" x="38" y="-7.5" font-family="Helvetica,sans-Serif" font-size="10.00">Data&lt; DT &gt;</text>
</a>
</g>
</g>
<!-- Node1&#45;&gt;Node2 -->
<g id="edge1" class="edge">
<title>Node1&#45;&gt;Node2</title>
<path fill="none" stroke="midnightblue" d="M70.32,-48.7C61.69,-38.64 51.93,-27.26 45.42,-19.66"/>
<polygon fill="midnightblue" stroke="midnightblue" points="67.75,-51.08 76.91,-56.4 73.06,-46.53 67.75,-51.08"/>
</g>
<!-- Node3 -->
<g id="node3" class="node">
<title>Node3</title>
<g id="a_node3"><a xlink:href="classrack_1_1DataSet.html" target="_top" xlink:title="A map of radar data, indexed by quantity code (DBZH, VRAD, etc).">
<polygon fill="white" stroke="black" points="94,-0.5 94,-19.5 186,-19.5 186,-0.5 94,-0.5"/>
<text text-anchor="middle" x="140" y="-7.5" font-family="Helvetica,sans-Serif" font-size="10.00">DataSet&lt; DT &gt;</text>
</a>
</g>
</g>
<!-- Node1&#45;&gt;Node3 -->
<g id="edge2" class="edge">
<title>Node1&#45;&gt;Node3</title>
<path fill="none" stroke="midnightblue" d="M107.68,-48.7C116.31,-38.64 126.07,-27.26 132.58,-19.66"/>
<polygon fill="midnightblue" stroke="midnightblue" points="104.94,-46.53 101.09,-56.4 110.25,-51.08 104.94,-46.53"/>
</g>
</g>
</svg>
