<?xml version="1.0" encoding="UTF-8" standalone="no"?>
<!DOCTYPE svg PUBLIC "-//W3C//DTD SVG 1.1//EN"
 "http://www.w3.org/Graphics/SVG/1.1/DTD/svg11.dtd">
<!-- Generated by graphviz version 2.43.0 (0)
 -->
<!-- Title: Data&lt; DT &gt; Pages: 1 -->
<svg width="247pt" height="151pt"
 viewBox="0.00 0.00 246.50 151.00" xmlns="http://www.w3.org/2000/svg" xmlns:xlink="http://www.w3.org/1999/xlink">
<g id="graph0" class="graph" transform="scale(1 1) rotate(0) translate(4 147)">
<title>Data&lt; DT &gt;</title>
<polygon fill="white" stroke="transparent" points="-4,4 -4,-147 242.5,-147 242.5,4 -4,4"/>
<!-- Node1 -->
<g id="node1" class="node">
<title>Node1</title>
<g id="a_node1"><a xlink:title="Data structure consisting of plain data and an optional quality data.">
<polygon fill="#bfbfbf" stroke="black" points="81,-0.5 81,-19.5 157,-19.5 157,-0.5 81,-0.5"/>
<text text-anchor="middle" x="119" y="-7.5" font-family="Helvetica,sans-Serif" font-size="10.00">Data&lt; DT &gt;</text>
</a>
</g>
</g>
<!-- Node2 -->
<g id="node2" class="node">
<title>Node2</title>
<g id="a_node2"><a xlink:href="classrack_1_1PlainData.html" target="_top" xlink:title="Essential class for storing radar data.">
<polygon fill="white" stroke="black" points="7,-62 7,-81 107,-81 107,-62 7,-62"/>
<text text-anchor="middle" x="57" y="-69" font-family="Helvetica,sans-Serif" font-size="10.00">PlainData&lt; DT &gt;</text>
</a>
</g>
</g>
<!-- Node2&#45;&gt;Node1 -->
<g id="edge1" class="edge">
<title>Node2&#45;&gt;Node1</title>
<path fill="none" stroke="midnightblue" d="M73.33,-54.82C85.11,-43.52 100.56,-28.69 110.13,-19.51"/>
<polygon fill="midnightblue" stroke="midnightblue" points="70.67,-52.53 65.88,-61.98 75.52,-57.58 70.67,-52.53"/>
</g>
<!-- Node3 -->
<g id="node3" class="node">
<title>Node3</title>
<g id="a_node3"><a xlink:href="classrack_1_1TreeWrapper.html" target="_top" xlink:title="Base class for all kinds of radar data.">
<polygon fill="white" stroke="black" points="0,-123.5 0,-142.5 114,-142.5 114,-123.5 0,-123.5"/>
<text text-anchor="middle" x="57" y="-130.5" font-family="Helvetica,sans-Serif" font-size="10.00">TreeWrapper&lt; DT &gt;</text>
</a>
</g>
</g>
<!-- Node3&#45;&gt;Node2 -->
<g id="edge2" class="edge">
<title>Node3&#45;&gt;Node2</title>
<path fill="none" stroke="midnightblue" d="M57,-113.32C57,-102.5 57,-89.4 57,-81.01"/>
<polygon fill="midnightblue" stroke="midnightblue" points="53.5,-113.48 57,-123.48 60.5,-113.48 53.5,-113.48"/>
</g>
<!-- Node4 -->
<g id="node4" class="node">
<title>Node4</title>
<g id="a_node4"><a xlink:href="classrack_1_1QualityDataSupport.html" target="_top" xlink:title="Base class providing quality support for Dataand DataSet">
<polygon fill="white" stroke="black" points="125.5,-56.5 125.5,-86.5 238.5,-86.5 238.5,-56.5 125.5,-56.5"/>
<text text-anchor="start" x="133.5" y="-74.5" font-family="Helvetica,sans-Serif" font-size="10.00">QualityDataSupport</text>
<text text-anchor="middle" x="182" y="-63.5" font-family="Helvetica,sans-Serif" font-size="10.00">&lt; DT &gt;</text>
</a>
</g>
</g>
<!-- Node4&#45;&gt;Node1 -->
<g id="edge3" class="edge">
<title>Node4&#45;&gt;Node1</title>
<path fill="none" stroke="midnightblue" d="M159.55,-49.3C148.74,-39.09 136.37,-27.41 128.17,-19.66"/>
<polygon fill="midnightblue" stroke="midnightblue" points="157.4,-52.08 167.07,-56.4 162.2,-46.99 157.4,-52.08"/>
</g>
</g>
</svg>
