<?xml version="1.0" encoding="UTF-8" standalone="no"?>
<!DOCTYPE svg PUBLIC "-//W3C//DTD SVG 1.1//EN"
 "http://www.w3.org/Graphics/SVG/1.1/DTD/svg11.dtd">
<!-- Generated by graphviz version 2.43.0 (0)
 -->
<!-- Title: NonMetOp Pages: 1 -->
<!--zoomable 132 -->
<svg id="main" version="1.1" xmlns="http://www.w3.org/2000/svg" xmlns:xlink="http://www.w3.org/1999/xlink" xml:space="preserve" onload="init(evt)">
<style type="text/css"><![CDATA[
.edge:hover path { stroke: red; }
.edge:hover polygon { stroke: red; fill: red; }
]]></style>
<script type="text/javascript"><![CDATA[
var edges = document.getElementsByTagName('g');
if (edges && edges.length) {
  for (var i=0;i<edges.length;i++) {
    if (edges[i].id.substr(0,4)=='edge') {
      edges[i].setAttribute('class','edge');
    }
  }
}
]]></script>
        <defs>
                <circle id="rim" cx="0" cy="0" r="7"/>
                <circle id="rim2" cx="0" cy="0" r="3.5"/>
                <g id="zoomPlus">
                        <use xlink:href="#rim" fill="#404040">
                                <set attributeName="fill" to="#808080" begin="zoomplus.mouseover" end="zoomplus.mouseout"/>
                        </use>
                        <path d="M-4,0h8M0,-4v8" fill="none" stroke="white" stroke-width="1.5" pointer-events="none"/>
                </g>
                <g id="zoomMin">
                        <use xlink:href="#rim" fill="#404040">
                                <set attributeName="fill" to="#808080" begin="zoomminus.mouseover" end="zoomminus.mouseout"/>
                        </use>
                        <path d="M-4,0h8" fill="none" stroke="white" stroke-width="1.5" pointer-events="none"/>
                </g>
                <g id="dirArrow">
                        <path fill="none" stroke="white" stroke-width="1.5" d="M0,-3.0v7 M-2.5,-0.5L0,-3.0L2.5,-0.5"/>
                </g>
               <g id="resetDef">
                       <use xlink:href="#rim2" fill="#404040">
                               <set attributeName="fill" to="#808080" begin="reset.mouseover" end="reset.mouseout"/>
                       </use>
               </g>
        </defs>

<script type="text/javascript">
var viewWidth = 1331;
var viewHeight = 132;
var sectionId = 'dynsection-1';
</script>
<script xlink:href="svgpan.js"/>
<svg id="graph" class="graph">
<g id="viewport">
<title>NonMetOp</title>
<polygon fill="white" stroke="transparent" points="-4,4 -4,-128 1327,-128 1327,4 -4,4"/>
<!-- Node1 -->
<g id="node1" class="node">
<title>Node1</title>
<g id="a_node1"><a xlink:title="Marks bins with low RhoHV value as probable anomalies.">
<polygon fill="#bfbfbf" stroke="black" points="1255,-50 1255,-69 1323,-69 1323,-50 1255,-50"/>
<text text-anchor="middle" x="1289" y="-57" font-family="Helvetica,sans-Serif" font-size="10.00">NonMetOp</text>
</a>
</g>
</g>
<!-- Node2 -->
<g id="node2" class="node">
<title>Node2</title>
<g id="a_node2"><a xlink:href="classrack_1_1DetectorOp.html" target="_top" xlink:title="Base class for anomaly detectors.">
<polygon fill="white" stroke="black" points="1082.5,-69 1082.5,-88 1154.5,-88 1154.5,-69 1082.5,-69"/>
<text text-anchor="middle" x="1118.5" y="-76" font-family="Helvetica,sans-Serif" font-size="10.00">DetectorOp</text>
</a>
</g>
</g>
<!-- Node2&#45;&gt;Node1 -->
<g id="edge1" class="edge">
<title>Node2&#45;&gt;Node1</title>
<path fill="none" stroke="midnightblue" d="M1164.89,-73.38C1193.21,-70.19 1229.04,-66.15 1254.73,-63.25"/>
<polygon fill="midnightblue" stroke="midnightblue" points="1164.37,-69.92 1154.82,-74.52 1165.15,-76.87 1164.37,-69.92"/>
</g>
<!-- Node3 -->
<g id="node3" class="node">
<title>Node3</title>
<g id="a_node3"><a xlink:href="classrack_1_1AndreOp.html" target="_top" xlink:title="The base class for removal operators.">
<polygon fill="white" stroke="black" points="937.5,-69 937.5,-88 996.5,-88 996.5,-69 937.5,-69"/>
<text text-anchor="middle" x="967" y="-76" font-family="Helvetica,sans-Serif" font-size="10.00">AndreOp</text>
</a>
</g>
</g>
<!-- Node3&#45;&gt;Node2 -->
<g id="edge2" class="edge">
<title>Node3&#45;&gt;Node2</title>
<path fill="none" stroke="midnightblue" d="M1007.08,-78.5C1030.43,-78.5 1059.85,-78.5 1082.45,-78.5"/>
<polygon fill="midnightblue" stroke="midnightblue" points="1006.83,-75 996.83,-78.5 1006.83,-82 1006.83,-75"/>
</g>
<!-- Node4 -->
<g id="node4" class="node">
<title>Node4</title>
<g id="a_node4"><a xlink:href="classrack_1_1VolumeTraversalOp.html" target="_top" xlink:title="Base class for radar data processors.">
<polygon fill="white" stroke="black" points="754,-69 754,-88 867,-88 867,-69 754,-69"/>
<text text-anchor="middle" x="810.5" y="-76" font-family="Helvetica,sans-Serif" font-size="10.00">VolumeTraversalOp</text>
</a>
</g>
</g>
<!-- Node4&#45;&gt;Node3 -->
<g id="edge3" class="edge">
<title>Node4&#45;&gt;Node3</title>
<path fill="none" stroke="midnightblue" d="M877.42,-78.5C898.31,-78.5 920.33,-78.5 937.19,-78.5"/>
<polygon fill="midnightblue" stroke="midnightblue" points="877.28,-75 867.28,-78.5 877.28,-82 877.28,-75"/>
</g>
<!-- Node5 -->
<g id="node5" class="node">
<title>Node5</title>
<g id="a_node5"><a xlink:href="classrack_1_1PolarProductOp.html" target="_top" xlink:title="Base class for flat (2D) products computed in the polar coordinate system. Volume is used as input.">
<polygon fill="white" stroke="black" points="625,-69 625,-88 717,-88 717,-69 625,-69"/>
<text text-anchor="middle" x="671" y="-76" font-family="Helvetica,sans-Serif" font-size="10.00">PolarProductOp</text>
</a>
</g>
</g>
<!-- Node5&#45;&gt;Node4 -->
<g id="edge4" class="edge">
<title>Node5&#45;&gt;Node4</title>
<path fill="none" stroke="midnightblue" d="M727.15,-78.5C735.93,-78.5 745.01,-78.5 753.8,-78.5"/>
<polygon fill="midnightblue" stroke="midnightblue" points="727.02,-75 717.02,-78.5 727.02,-82 727.02,-75"/>
</g>
<!-- Node6 -->
<g id="node6" class="node">
<title>Node6</title>
<g id="a_node6"><a xlink:href="classrack_1_1VolumeOp.html" target="_top" xlink:title=" ">
<polygon fill="white" stroke="black" points="361,-93 361,-112 503,-112 503,-93 361,-93"/>
<text text-anchor="middle" x="432" y="-100" font-family="Helvetica,sans-Serif" font-size="10.00">VolumeOp&lt; PolarODIM &gt;</text>
</a>
</g>
</g>
<!-- Node6&#45;&gt;Node5 -->
<g id="edge5" class="edge">
<title>Node6&#45;&gt;Node5</title>
<path fill="none" stroke="midnightblue" d="M513.46,-94.35C550.59,-90.59 593.29,-86.27 624.71,-83.09"/>
<polygon fill="midnightblue" stroke="midnightblue" points="512.74,-90.91 503.15,-95.4 513.45,-97.87 512.74,-90.91"/>
</g>
<!-- Node7 -->
<g id="node7" class="node">
<title>Node7</title>
<g id="a_node7"><a xlink:href="classdrain_1_1image_1_1ProductOp.html" target="_top" xlink:title=" ">
<polygon fill="white" stroke="black" points="141,-93.5 141,-123.5 303,-123.5 303,-93.5 141,-93.5"/>
<text text-anchor="start" x="149" y="-111.5" font-family="Helvetica,sans-Serif" font-size="10.00">ProductOp&lt; const PolarODIM,</text>
<text text-anchor="middle" x="222" y="-100.5" font-family="Helvetica,sans-Serif" font-size="10.00"> PolarODIM &gt;</text>
</a>
</g>
</g>
<!-- Node7&#45;&gt;Node6 -->
<g id="edge6" class="edge">
<title>Node7&#45;&gt;Node6</title>
<path fill="none" stroke="midnightblue" d="M313.45,-105.89C329.3,-105.43 345.57,-104.96 360.76,-104.53"/>
<polygon fill="midnightblue" stroke="midnightblue" points="313.02,-102.4 303.12,-106.19 313.22,-109.4 313.02,-102.4"/>
</g>
<!-- Node8 -->
<g id="node8" class="node">
<title>Node8</title>
<g id="a_node8"><a xlink:href="classdrain_1_1image_1_1CoordinatePolicy.html" target="_top" xlink:title="Policies for coordinate underflows and overflows.">
<polygon fill="white" stroke="black" points="382.5,-50 382.5,-69 481.5,-69 481.5,-50 382.5,-50"/>
<text text-anchor="middle" x="432" y="-57" font-family="Helvetica,sans-Serif" font-size="10.00">CoordinatePolicy</text>
</a>
</g>
</g>
<!-- Node8&#45;&gt;Node5 -->
<g id="edge7" class="edge">
<title>Node8&#45;&gt;Node5</title>
<path fill="none" stroke="#9a32cd" stroke-dasharray="5,2" d="M491.99,-61.65C525.73,-63.19 568.8,-65.68 607,-69.5 612.83,-70.08 618.94,-70.81 624.97,-71.6"/>
<polygon fill="#9a32cd" stroke="#9a32cd" points="491.98,-58.15 481.84,-61.2 491.67,-65.14 491.98,-58.15"/>
<text text-anchor="middle" x="564" y="-72.5" font-family="Helvetica,sans-Serif" font-size="10.00"> polarCoordPolicy</text>
</g>
<!-- Node9 -->
<g id="node9" class="node">
<title>Node9</title>
<g id="a_node9"><a xlink:href="classdrain_1_1UniTuple.html" target="_top" xlink:title=" ">
<polygon fill="white" stroke="black" points="163.5,-44.5 163.5,-74.5 280.5,-74.5 280.5,-44.5 163.5,-44.5"/>
<text text-anchor="start" x="171.5" y="-62.5" font-family="Helvetica,sans-Serif" font-size="10.00">UniTuple&lt; coord_pol</text>
<text text-anchor="middle" x="222" y="-51.5" font-family="Helvetica,sans-Serif" font-size="10.00">_t, 4 &gt;</text>
</a>
</g>
</g>
<!-- Node9&#45;&gt;Node8 -->
<g id="edge8" class="edge">
<title>Node9&#45;&gt;Node8</title>
<path fill="none" stroke="midnightblue" d="M291.01,-59.5C320.84,-59.5 355.18,-59.5 382.38,-59.5"/>
<polygon fill="midnightblue" stroke="midnightblue" points="290.66,-56 280.66,-59.5 290.66,-63 290.66,-56"/>
</g>
<!-- Node10 -->
<g id="node10" class="node">
<title>Node10</title>
<g id="a_node10"><a xlink:href="classdrain_1_1Dictionary2.html" target="_top" xlink:title="Two&#45;way mapping between strings and objects of template class T.">
<polygon fill="white" stroke="black" points="164.5,-6 164.5,-25 279.5,-25 279.5,-6 164.5,-6"/>
<text text-anchor="middle" x="222" y="-13" font-family="Helvetica,sans-Serif" font-size="10.00">Dictionary2&lt; K, V &gt;</text>
</a>
</g>
</g>
<!-- Node10&#45;&gt;Node8 -->
<g id="edge9" class="edge">
<title>Node10&#45;&gt;Node8</title>
<path fill="none" stroke="#9a32cd" stroke-dasharray="5,2" d="M278.27,-27.19C311.92,-34.31 354.36,-43.29 385.96,-49.97"/>
<polygon fill="#9a32cd" stroke="#9a32cd" points="278.64,-23.69 268.13,-25.05 277.19,-30.54 278.64,-23.69"/>
<text text-anchor="middle" x="332" y="-43.5" font-family="Helvetica,sans-Serif" font-size="10.00"> dict</text>
</g>
<!-- Node11 -->
<g id="node11" class="node">
<title>Node11</title>
<g id="a_node11"><a xlink:title=" ">
<polygon fill="white" stroke="#bfbfbf" points="0,-0.5 0,-30.5 104,-30.5 104,-0.5 0,-0.5"/>
<text text-anchor="start" x="8" y="-18.5" font-family="Helvetica,sans-Serif" font-size="10.00">list&lt; std::pair&lt; K,</text>
<text text-anchor="middle" x="52" y="-7.5" font-family="Helvetica,sans-Serif" font-size="10.00"> V &gt; &gt;</text>
</a>
</g>
</g>
<!-- Node11&#45;&gt;Node10 -->
<g id="edge10" class="edge">
<title>Node11&#45;&gt;Node10</title>
<path fill="none" stroke="midnightblue" d="M114.33,-15.5C130.71,-15.5 148.33,-15.5 164.43,-15.5"/>
<polygon fill="midnightblue" stroke="midnightblue" points="114.32,-12 104.32,-15.5 114.32,-19 114.32,-12"/>
</g>
<!-- Node12 -->
<g id="node12" class="node">
<title>Node12</title>
<g id="a_node12"><a xlink:href="classdrain_1_1Range.html" target="_top" xlink:title=" ">
<polygon fill="white" stroke="black" points="1067,-31 1067,-50 1170,-50 1170,-31 1067,-31"/>
<text text-anchor="middle" x="1118.5" y="-38" font-family="Helvetica,sans-Serif" font-size="10.00">Range&lt; double &gt;</text>
</a>
</g>
</g>
<!-- Node12&#45;&gt;Node1 -->
<g id="edge11" class="edge">
<title>Node12&#45;&gt;Node1</title>
<path fill="none" stroke="#9a32cd" stroke-dasharray="5,2" d="M1180.39,-45.47C1198.62,-47.16 1218.65,-49.2 1237,-51.5 1242.78,-52.22 1248.91,-53.09 1254.85,-53.99"/>
<polygon fill="#9a32cd" stroke="#9a32cd" points="1180.46,-41.97 1170.18,-44.55 1179.83,-48.94 1180.46,-41.97"/>
<text text-anchor="middle" x="1212.5" y="-54.5" font-family="Helvetica,sans-Serif" font-size="10.00"> threshold</text>
</g>
<!-- Node13 -->
<g id="node13" class="node">
<title>Node13</title>
<g id="a_node13"><a xlink:href="classdrain_1_1UniTuple.html" target="_top" xlink:title=" ">
<polygon fill="white" stroke="black" points="904,-31 904,-50 1030,-50 1030,-31 904,-31"/>
<text text-anchor="middle" x="967" y="-38" font-family="Helvetica,sans-Serif" font-size="10.00">UniTuple&lt; double, 2 &gt;</text>
</a>
</g>
</g>
<!-- Node13&#45;&gt;Node12 -->
<g id="edge12" class="edge">
<title>Node13&#45;&gt;Node12</title>
<path fill="none" stroke="midnightblue" d="M1040.18,-40.5C1049.15,-40.5 1058.17,-40.5 1066.72,-40.5"/>
<polygon fill="midnightblue" stroke="midnightblue" points="1040.1,-37 1030.1,-40.5 1040.1,-44 1040.1,-37"/>
</g>
</g>
</svg>
        <g id="navigator" transform="translate(0 0)" fill="#404254">
                <rect fill="#f2f5e9" fill-opacity="0.5" stroke="#606060" stroke-width=".5" x="0" y="0" width="60" height="60"/>
                <use id="zoomplus" xlink:href="#zoomPlus" x="17" y="9" onmousedown="handleZoom(evt,'in')"/>
                <use id="zoomminus" xlink:href="#zoomMin" x="42" y="9" onmousedown="handleZoom(evt,'out')"/>
                <use id="reset" xlink:href="#resetDef" x="30" y="36" onmousedown="handleReset()"/>
                <g id="arrowUp" xlink:href="#dirArrow" transform="translate(30 24)" onmousedown="handlePan(0,-1)">
                  <use xlink:href="#rim" fill="#404040">
                        <set attributeName="fill" to="#808080" begin="arrowUp.mouseover" end="arrowUp.mouseout"/>
                  </use>
                  <path fill="none" stroke="white" stroke-width="1.5" d="M0,-3.0v7 M-2.5,-0.5L0,-3.0L2.5,-0.5"/>
                </g>
                <g id="arrowRight" xlink:href="#dirArrow" transform="rotate(90) translate(36 -43)" onmousedown="handlePan(1,0)">
                  <use xlink:href="#rim" fill="#404040">
                        <set attributeName="fill" to="#808080" begin="arrowRight.mouseover" end="arrowRight.mouseout"/>
                  </use>
                  <path fill="none" stroke="white" stroke-width="1.5" d="M0,-3.0v7 M-2.5,-0.5L0,-3.0L2.5,-0.5"/>
                </g>
                <g id="arrowDown" xlink:href="#dirArrow" transform="rotate(180) translate(-30 -48)" onmousedown="handlePan(0,1)">
                  <use xlink:href="#rim" fill="#404040">
                        <set attributeName="fill" to="#808080" begin="arrowDown.mouseover" end="arrowDown.mouseout"/>
                  </use>
                  <path fill="none" stroke="white" stroke-width="1.5" d="M0,-3.0v7 M-2.5,-0.5L0,-3.0L2.5,-0.5"/>
                </g>
                <g id="arrowLeft" xlink:href="#dirArrow" transform="rotate(270) translate(-36 17)" onmousedown="handlePan(-1,0)">
                  <use xlink:href="#rim" fill="#404040">
                        <set attributeName="fill" to="#808080" begin="arrowLeft.mouseover" end="arrowLeft.mouseout"/>
                  </use>
                  <path fill="none" stroke="white" stroke-width="1.5" d="M0,-3.0v7 M-2.5,-0.5L0,-3.0L2.5,-0.5"/>
                </g>
        </g>
        <svg viewBox="0 0 15 15" width="100%" height="30px" preserveAspectRatio="xMaxYMin meet">
         <g id="arrow_out" transform="scale(0.3 0.3)">
          <a xlink:href="classrack_1_1NonMetOp__coll__graph_org.svg" target="_base">
           <rect id="button" ry="5" rx="5" y="6" x="6" height="38" width="38"
                fill="#f2f5e9" fill-opacity="0.5" stroke="#606060" stroke-width="1.0"/>
           <path id="arrow"
             d="M 11.500037,31.436501 C 11.940474,20.09759 22.043105,11.32322 32.158766,21.979434 L 37.068811,17.246167 C 37.068811,17.246167 37.088388,32 37.088388,32 L 22.160133,31.978069 C 22.160133,31.978069 26.997745,27.140456 26.997745,27.140456 C 18.528582,18.264221 13.291696,25.230495 11.500037,31.436501 z"
             style="fill:#404040;"/>
          </a>
         </g>
        </svg>
</svg>
