<?xml version="1.0" encoding="UTF-8" standalone="no"?>
<!DOCTYPE svg PUBLIC "-//W3C//DTD SVG 1.1//EN"
 "http://www.w3.org/Graphics/SVG/1.1/DTD/svg11.dtd">
<!-- Generated by graphviz version 2.43.0 (0)
 -->
<!-- Title: BinaryFunctorOpCloner&lt; F &gt; Pages: 1 -->
<svg width="185pt" height="218pt"
 viewBox="0.00 0.00 185.00 218.00" xmlns="http://www.w3.org/2000/svg" xmlns:xlink="http://www.w3.org/1999/xlink">
<g id="graph0" class="graph" transform="scale(1 1) rotate(0) translate(4 214)">
<title>BinaryFunctorOpCloner&lt; F &gt;</title>
<polygon fill="white" stroke="transparent" points="-4,4 -4,-214 181,-214 181,4 -4,4"/>
<!-- Node1 -->
<g id="node1" class="node">
<title>Node1</title>
<g id="a_node1"><a xlink:title=" ">
<polygon fill="#bfbfbf" stroke="black" points="9.5,-0.5 9.5,-19.5 167.5,-19.5 167.5,-0.5 9.5,-0.5"/>
<text text-anchor="middle" x="88.5" y="-7.5" font-family="Helvetica,sans-Serif" font-size="10.00">BinaryFunctorOpCloner&lt; F &gt;</text>
</a>
</g>
</g>
<!-- Node2 -->
<g id="node2" class="node">
<title>Node2</title>
<g id="a_node2"><a xlink:href="classdrain_1_1image_1_1ImageOpCloner.html" target="_top" xlink:title=" ">
<polygon fill="white" stroke="black" points="3,-56.5 3,-86.5 174,-86.5 174,-56.5 3,-56.5"/>
<text text-anchor="start" x="11" y="-74.5" font-family="Helvetica,sans-Serif" font-size="10.00">ImageOpCloner&lt; BinaryFunctor</text>
<text text-anchor="middle" x="88.5" y="-63.5" font-family="Helvetica,sans-Serif" font-size="10.00">Op&lt; F &gt; &gt;</text>
</a>
</g>
</g>
<!-- Node2&#45;&gt;Node1 -->
<g id="edge1" class="edge">
<title>Node2&#45;&gt;Node1</title>
<path fill="none" stroke="midnightblue" d="M88.5,-46.29C88.5,-36.86 88.5,-26.65 88.5,-19.66"/>
<polygon fill="midnightblue" stroke="midnightblue" points="85,-46.4 88.5,-56.4 92,-46.4 85,-46.4"/>
</g>
<!-- Node3 -->
<g id="node3" class="node">
<title>Node3</title>
<g id="a_node3"><a xlink:href="structdrain_1_1Cloner.html" target="_top" xlink:title=" ">
<polygon fill="white" stroke="black" points="0,-123.5 0,-153.5 177,-153.5 177,-123.5 0,-123.5"/>
<text text-anchor="start" x="8" y="-141.5" font-family="Helvetica,sans-Serif" font-size="10.00">Cloner&lt; ImageOp, BinaryFunctor</text>
<text text-anchor="middle" x="88.5" y="-130.5" font-family="Helvetica,sans-Serif" font-size="10.00">Op&lt; F &gt; &gt;</text>
</a>
</g>
</g>
<!-- Node3&#45;&gt;Node2 -->
<g id="edge2" class="edge">
<title>Node3&#45;&gt;Node2</title>
<path fill="none" stroke="midnightblue" d="M88.5,-113.11C88.5,-104.15 88.5,-94.32 88.5,-86.58"/>
<polygon fill="midnightblue" stroke="midnightblue" points="85,-113.4 88.5,-123.4 92,-113.4 85,-113.4"/>
</g>
<!-- Node4 -->
<g id="node4" class="node">
<title>Node4</title>
<g id="a_node4"><a xlink:href="structdrain_1_1ClonerBase.html" target="_top" xlink:title=" ">
<polygon fill="white" stroke="black" points="19,-190.5 19,-209.5 158,-209.5 158,-190.5 19,-190.5"/>
<text text-anchor="middle" x="88.5" y="-197.5" font-family="Helvetica,sans-Serif" font-size="10.00">ClonerBase&lt; ImageOp &gt;</text>
</a>
</g>
</g>
<!-- Node4&#45;&gt;Node3 -->
<g id="edge3" class="edge">
<title>Node4&#45;&gt;Node3</title>
<path fill="none" stroke="midnightblue" d="M88.5,-180.23C88.5,-171.59 88.5,-161.5 88.5,-153.52"/>
<polygon fill="midnightblue" stroke="midnightblue" points="85,-180.48 88.5,-190.48 92,-180.48 85,-180.48"/>
</g>
</g>
</svg>
