<?xml version="1.0" encoding="UTF-8" standalone="no"?>
<!DOCTYPE svg PUBLIC "-//W3C//DTD SVG 1.1//EN"
 "http://www.w3.org/Graphics/SVG/1.1/DTD/svg11.dtd">
<!-- Generated by graphviz version 2.43.0 (0)
 -->
<!-- Title: ODIMPathMatcher Pages: 1 -->
<svg width="308pt" height="209pt"
 viewBox="0.00 0.00 308.00 209.00" xmlns="http://www.w3.org/2000/svg" xmlns:xlink="http://www.w3.org/1999/xlink">
<g id="graph0" class="graph" transform="scale(1 1) rotate(0) translate(4 205)">
<title>ODIMPathMatcher</title>
<polygon fill="white" stroke="transparent" points="-4,4 -4,-205 304,-205 304,4 -4,4"/>
<!-- Node1 -->
<g id="node1" class="node">
<title>Node1</title>
<g id="a_node1"><a xlink:title="Structure for testing if a path matches a given sequence of path elements.">
<polygon fill="#bfbfbf" stroke="black" points="47,-0.5 47,-19.5 152,-19.5 152,-0.5 47,-0.5"/>
<text text-anchor="middle" x="99.5" y="-7.5" font-family="Helvetica,sans-Serif" font-size="10.00">ODIMPathMatcher</text>
</a>
</g>
</g>
<!-- Node2 -->
<g id="node2" class="node">
<title>Node2</title>
<g id="a_node2"><a xlink:href="classdrain_1_1Path.html" target="_top" xlink:title=" ">
<polygon fill="white" stroke="black" points="12.5,-57.5 12.5,-76.5 186.5,-76.5 186.5,-57.5 12.5,-57.5"/>
<text text-anchor="middle" x="99.5" y="-64.5" font-family="Helvetica,sans-Serif" font-size="10.00">Path&lt; ODIMPathElemMatcher &gt;</text>
</a>
</g>
</g>
<!-- Node2&#45;&gt;Node1 -->
<g id="edge1" class="edge">
<title>Node2&#45;&gt;Node1</title>
<path fill="none" stroke="midnightblue" d="M99.5,-47.12C99.5,-37.82 99.5,-27.06 99.5,-19.71"/>
<polygon fill="midnightblue" stroke="midnightblue" points="96,-47.41 99.5,-57.41 103,-47.41 96,-47.41"/>
</g>
<!-- Node3 -->
<g id="node3" class="node">
<title>Node3</title>
<g id="a_node3"><a xlink:title=" ">
<polygon fill="white" stroke="#bfbfbf" points="0,-124.5 0,-143.5 167,-143.5 167,-124.5 0,-124.5"/>
<text text-anchor="middle" x="83.5" y="-131.5" font-family="Helvetica,sans-Serif" font-size="10.00">list&lt; ODIMPathElemMatcher &gt;</text>
</a>
</g>
</g>
<!-- Node3&#45;&gt;Node2 -->
<g id="edge2" class="edge">
<title>Node3&#45;&gt;Node2</title>
<path fill="none" stroke="midnightblue" d="M88.07,-114.41C91.13,-101.99 95.02,-86.22 97.38,-76.63"/>
<polygon fill="midnightblue" stroke="midnightblue" points="84.65,-113.69 85.66,-124.23 91.45,-115.36 84.65,-113.69"/>
</g>
<!-- Node4 -->
<g id="node4" class="node">
<title>Node4</title>
<g id="a_node4"><a xlink:href="structdrain_1_1PathSeparatorPolicy.html" target="_top" xlink:title="Determines if separators will be stored in the path.">
<polygon fill="white" stroke="black" points="185,-124.5 185,-143.5 300,-143.5 300,-124.5 185,-124.5"/>
<text text-anchor="middle" x="242.5" y="-131.5" font-family="Helvetica,sans-Serif" font-size="10.00">PathSeparatorPolicy</text>
</a>
</g>
</g>
<!-- Node4&#45;&gt;Node2 -->
<g id="edge3" class="edge">
<title>Node4&#45;&gt;Node2</title>
<path fill="none" stroke="#9a32cd" stroke-dasharray="5,2" d="M214.15,-120.11C185.83,-107.24 143.07,-87.81 118.57,-76.67"/>
<polygon fill="#9a32cd" stroke="#9a32cd" points="212.96,-123.42 223.51,-124.37 215.86,-117.04 212.96,-123.42"/>
<text text-anchor="middle" x="204.5" y="-98" font-family="Helvetica,sans-Serif" font-size="10.00"> separator</text>
</g>
<!-- Node5 -->
<g id="node5" class="node">
<title>Node5</title>
<g id="a_node5"><a xlink:href="classdrain_1_1UniTuple.html" target="_top" xlink:title=" ">
<polygon fill="white" stroke="black" points="185.5,-181.5 185.5,-200.5 299.5,-200.5 299.5,-181.5 185.5,-181.5"/>
<text text-anchor="middle" x="242.5" y="-188.5" font-family="Helvetica,sans-Serif" font-size="10.00">UniTuple&lt; bool, 3 &gt;</text>
</a>
</g>
</g>
<!-- Node5&#45;&gt;Node4 -->
<g id="edge4" class="edge">
<title>Node5&#45;&gt;Node4</title>
<path fill="none" stroke="midnightblue" d="M242.5,-171.12C242.5,-161.82 242.5,-151.06 242.5,-143.71"/>
<polygon fill="midnightblue" stroke="midnightblue" points="239,-171.41 242.5,-181.41 246,-171.41 239,-171.41"/>
</g>
</g>
</svg>
