<?xml version="1.0" encoding="UTF-8" standalone="no"?>
<!DOCTYPE svg PUBLIC "-//W3C//DTD SVG 1.1//EN"
 "http://www.w3.org/Graphics/SVG/1.1/DTD/svg11.dtd">
<!-- Generated by graphviz version 2.43.0 (0)
 -->
<!-- Title: DopplerInversionConfig Pages: 1 -->
<svg width="275pt" height="323pt"
 viewBox="0.00 0.00 275.00 323.00" xmlns="http://www.w3.org/2000/svg" xmlns:xlink="http://www.w3.org/1999/xlink">
<g id="graph0" class="graph" transform="scale(1 1) rotate(0) translate(4 319)">
<title>DopplerInversionConfig</title>
<polygon fill="white" stroke="transparent" points="-4,4 -4,-319 271,-319 271,4 -4,4"/>
<!-- Node1 -->
<g id="node1" class="node">
<title>Node1</title>
<g id="a_node1"><a xlink:title=" ">
<polygon fill="#bfbfbf" stroke="black" points="81.5,-0.5 81.5,-19.5 212.5,-19.5 212.5,-0.5 81.5,-0.5"/>
<text text-anchor="middle" x="147" y="-7.5" font-family="Helvetica,sans-Serif" font-size="10.00">DopplerInversionConfig</text>
</a>
</g>
</g>
<!-- Node2 -->
<g id="node2" class="node">
<title>Node2</title>
<g id="a_node2"><a xlink:href="classrack_1_1RadarWindowConfig.html" target="_top" xlink:title=" ">
<polygon fill="white" stroke="black" points="89,-57.5 89,-76.5 205,-76.5 205,-57.5 89,-57.5"/>
<text text-anchor="middle" x="147" y="-64.5" font-family="Helvetica,sans-Serif" font-size="10.00">RadarWindowConfig</text>
</a>
</g>
</g>
<!-- Node2&#45;&gt;Node1 -->
<g id="edge1" class="edge">
<title>Node2&#45;&gt;Node1</title>
<path fill="none" stroke="midnightblue" d="M147,-47.12C147,-37.82 147,-27.06 147,-19.71"/>
<polygon fill="midnightblue" stroke="midnightblue" points="143.5,-47.41 147,-57.41 150.5,-47.41 143.5,-47.41"/>
</g>
<!-- Node3 -->
<g id="node3" class="node">
<title>Node3</title>
<g id="a_node3"><a xlink:href="classdrain_1_1image_1_1WindowConfig.html" target="_top" xlink:title="Base class for configurations applied in image processing windows, e.g. for operators of type WindowO...">
<polygon fill="white" stroke="black" points="103.5,-114.5 103.5,-133.5 190.5,-133.5 190.5,-114.5 103.5,-114.5"/>
<text text-anchor="middle" x="147" y="-121.5" font-family="Helvetica,sans-Serif" font-size="10.00">WindowConfig</text>
</a>
</g>
</g>
<!-- Node3&#45;&gt;Node2 -->
<g id="edge2" class="edge">
<title>Node3&#45;&gt;Node2</title>
<path fill="none" stroke="midnightblue" d="M147,-104.12C147,-94.82 147,-84.06 147,-76.71"/>
<polygon fill="midnightblue" stroke="midnightblue" points="143.5,-104.41 147,-114.41 150.5,-104.41 143.5,-104.41"/>
</g>
<!-- Node4 -->
<g id="node4" class="node">
<title>Node4</title>
<g id="a_node4"><a xlink:href="classdrain_1_1VariableMap.html" target="_top" xlink:title="A map of Variables.">
<polygon fill="white" stroke="black" points="41,-181.5 41,-200.5 119,-200.5 119,-181.5 41,-181.5"/>
<text text-anchor="middle" x="80" y="-188.5" font-family="Helvetica,sans-Serif" font-size="10.00">VariableMap</text>
</a>
</g>
</g>
<!-- Node4&#45;&gt;Node3 -->
<g id="edge3" class="edge">
<title>Node4&#45;&gt;Node3</title>
<path fill="none" stroke="#9a32cd" stroke-dasharray="5,2" d="M81.14,-170.96C82.35,-164.37 84.66,-157.32 89,-152 95.88,-143.56 105.99,-137.63 115.85,-133.52"/>
<polygon fill="#9a32cd" stroke="#9a32cd" points="77.62,-170.88 79.97,-181.21 84.58,-171.67 77.62,-170.88"/>
<text text-anchor="middle" x="136" y="-155" font-family="Helvetica,sans-Serif" font-size="10.00"> functorParameters</text>
</g>
<!-- Node5 -->
<g id="node5" class="node">
<title>Node5</title>
<g id="a_node5"><a xlink:href="classdrain_1_1SmartMap.html" target="_top" xlink:title=" ">
<polygon fill="white" stroke="black" points="13,-238.5 13,-257.5 143,-257.5 143,-238.5 13,-238.5"/>
<text text-anchor="middle" x="78" y="-245.5" font-family="Helvetica,sans-Serif" font-size="10.00">SmartMap&lt; Variable &gt;</text>
</a>
</g>
</g>
<!-- Node5&#45;&gt;Node4 -->
<g id="edge4" class="edge">
<title>Node5&#45;&gt;Node4</title>
<path fill="none" stroke="midnightblue" d="M78.69,-228.12C79.02,-218.82 79.42,-208.06 79.68,-200.71"/>
<polygon fill="midnightblue" stroke="midnightblue" points="75.18,-228.29 78.31,-238.41 82.17,-228.54 75.18,-228.29"/>
</g>
<!-- Node6 -->
<g id="node6" class="node">
<title>Node6</title>
<g id="a_node6"><a xlink:title=" ">
<polygon fill="white" stroke="#bfbfbf" points="0,-295.5 0,-314.5 156,-314.5 156,-295.5 0,-295.5"/>
<text text-anchor="middle" x="78" y="-302.5" font-family="Helvetica,sans-Serif" font-size="10.00">map&lt; std::string, Variable &gt;</text>
</a>
</g>
</g>
<!-- Node6&#45;&gt;Node5 -->
<g id="edge5" class="edge">
<title>Node6&#45;&gt;Node5</title>
<path fill="none" stroke="midnightblue" d="M78,-285.12C78,-275.82 78,-265.06 78,-257.71"/>
<polygon fill="midnightblue" stroke="midnightblue" points="74.5,-285.41 78,-295.41 81.5,-285.41 74.5,-285.41"/>
</g>
<!-- Node7 -->
<g id="node7" class="node">
<title>Node7</title>
<g id="a_node7"><a xlink:href="classdrain_1_1Frame2D.html" target="_top" xlink:title=" ">
<polygon fill="white" stroke="black" points="165,-181.5 165,-200.5 261,-200.5 261,-181.5 165,-181.5"/>
<text text-anchor="middle" x="213" y="-188.5" font-family="Helvetica,sans-Serif" font-size="10.00">Frame2D&lt; int &gt;</text>
</a>
</g>
</g>
<!-- Node7&#45;&gt;Node3 -->
<g id="edge6" class="edge">
<title>Node7&#45;&gt;Node3</title>
<path fill="none" stroke="#9a32cd" stroke-dasharray="5,2" d="M203.19,-172.8C198.77,-165.89 193.16,-158.12 187,-152 179.75,-144.79 170.33,-138.33 162.45,-133.53"/>
<polygon fill="#9a32cd" stroke="#9a32cd" points="200.26,-174.72 208.43,-181.47 206.25,-171.1 200.26,-174.72"/>
<text text-anchor="middle" x="212.5" y="-155" font-family="Helvetica,sans-Serif" font-size="10.00"> frame</text>
</g>
<!-- Node8 -->
<g id="node8" class="node">
<title>Node8</title>
<g id="a_node8"><a xlink:href="classdrain_1_1UniTuple.html" target="_top" xlink:title=" ">
<polygon fill="white" stroke="black" points="161,-238.5 161,-257.5 267,-257.5 267,-238.5 161,-238.5"/>
<text text-anchor="middle" x="214" y="-245.5" font-family="Helvetica,sans-Serif" font-size="10.00">UniTuple&lt; int, 2 &gt;</text>
</a>
</g>
</g>
<!-- Node8&#45;&gt;Node7 -->
<g id="edge7" class="edge">
<title>Node8&#45;&gt;Node7</title>
<path fill="none" stroke="midnightblue" d="M213.66,-228.12C213.49,-218.82 213.29,-208.06 213.16,-200.71"/>
<polygon fill="midnightblue" stroke="midnightblue" points="210.16,-228.47 213.84,-238.41 217.16,-228.34 210.16,-228.47"/>
</g>
</g>
</svg>
