<?xml version="1.0" encoding="UTF-8" standalone="no"?>
<!DOCTYPE svg PUBLIC "-//W3C//DTD SVG 1.1//EN"
 "http://www.w3.org/Graphics/SVG/1.1/DTD/svg11.dtd">
<!-- Generated by graphviz version 2.43.0 (0)
 -->
<!-- Title: MaximumFunctor Pages: 1 -->
<svg width="110pt" height="196pt"
 viewBox="0.00 0.00 110.00 196.00" xmlns="http://www.w3.org/2000/svg" xmlns:xlink="http://www.w3.org/1999/xlink">
<g id="graph0" class="graph" transform="scale(1 1) rotate(0) translate(4 192)">
<title>MaximumFunctor</title>
<polygon fill="white" stroke="transparent" points="-4,4 -4,-192 106,-192 106,4 -4,4"/>
<!-- Node1 -->
<g id="node1" class="node">
<title>Node1</title>
<g id="a_node1"><a xlink:title=" ">
<polygon fill="#bfbfbf" stroke="black" points="0,-0.5 0,-19.5 102,-19.5 102,-0.5 0,-0.5"/>
<text text-anchor="middle" x="51" y="-7.5" font-family="Helvetica,sans-Serif" font-size="10.00">MaximumFunctor</text>
</a>
</g>
</g>
<!-- Node2 -->
<g id="node2" class="node">
<title>Node2</title>
<g id="a_node2"><a xlink:href="classdrain_1_1BinaryFunctor.html" target="_top" xlink:title=" ">
<polygon fill="white" stroke="black" points="9,-56.5 9,-75.5 93,-75.5 93,-56.5 9,-56.5"/>
<text text-anchor="middle" x="51" y="-63.5" font-family="Helvetica,sans-Serif" font-size="10.00">BinaryFunctor</text>
</a>
</g>
</g>
<!-- Node2&#45;&gt;Node1 -->
<g id="edge1" class="edge">
<title>Node2&#45;&gt;Node1</title>
<path fill="none" stroke="midnightblue" d="M51,-45.8C51,-36.91 51,-26.78 51,-19.75"/>
<polygon fill="midnightblue" stroke="midnightblue" points="47.5,-46.08 51,-56.08 54.5,-46.08 47.5,-46.08"/>
</g>
<!-- Node3 -->
<g id="node3" class="node">
<title>Node3</title>
<g id="a_node3"><a xlink:href="classdrain_1_1Functor.html" target="_top" xlink:title="Base class for sequential computations. Optional scaling utilities.">
<polygon fill="white" stroke="black" points="24.5,-112.5 24.5,-131.5 77.5,-131.5 77.5,-112.5 24.5,-112.5"/>
<text text-anchor="middle" x="51" y="-119.5" font-family="Helvetica,sans-Serif" font-size="10.00">Functor</text>
</a>
</g>
</g>
<!-- Node3&#45;&gt;Node2 -->
<g id="edge2" class="edge">
<title>Node3&#45;&gt;Node2</title>
<path fill="none" stroke="midnightblue" d="M51,-101.8C51,-92.91 51,-82.78 51,-75.75"/>
<polygon fill="midnightblue" stroke="midnightblue" points="47.5,-102.08 51,-112.08 54.5,-102.08 47.5,-102.08"/>
</g>
<!-- Node4 -->
<g id="node4" class="node">
<title>Node4</title>
<g id="a_node4"><a xlink:href="classdrain_1_1BeanLike.html" target="_top" xlink:title="Something which has a name, a description and possibly some parameters of varying type.">
<polygon fill="white" stroke="black" points="20.5,-168.5 20.5,-187.5 81.5,-187.5 81.5,-168.5 20.5,-168.5"/>
<text text-anchor="middle" x="51" y="-175.5" font-family="Helvetica,sans-Serif" font-size="10.00">BeanLike</text>
</a>
</g>
</g>
<!-- Node4&#45;&gt;Node3 -->
<g id="edge3" class="edge">
<title>Node4&#45;&gt;Node3</title>
<path fill="none" stroke="midnightblue" d="M51,-157.8C51,-148.91 51,-138.78 51,-131.75"/>
<polygon fill="midnightblue" stroke="midnightblue" points="47.5,-158.08 51,-168.08 54.5,-158.08 47.5,-158.08"/>
</g>
</g>
</svg>
