<?xml version="1.0" encoding="UTF-8" standalone="no"?>
<!DOCTYPE svg PUBLIC "-//W3C//DTD SVG 1.1//EN"
 "http://www.w3.org/Graphics/SVG/1.1/DTD/svg11.dtd">
<!-- Generated by graphviz version 2.43.0 (0)
 -->
<!-- Title: DistanceOp Pages: 1 -->
<svg width="139pt" height="319pt"
 viewBox="0.00 0.00 139.00 319.00" xmlns="http://www.w3.org/2000/svg" xmlns:xlink="http://www.w3.org/1999/xlink">
<g id="graph0" class="graph" transform="scale(1 1) rotate(0) translate(4 315)">
<title>DistanceOp</title>
<polygon fill="white" stroke="transparent" points="-4,4 -4,-315 135,-315 135,4 -4,4"/>
<!-- Node1 -->
<g id="node1" class="node">
<title>Node1</title>
<g id="a_node1"><a xlink:title="Computes the distance between intensity vectors.">
<polygon fill="#bfbfbf" stroke="black" points="29,-0.5 29,-19.5 102,-19.5 102,-0.5 29,-0.5"/>
<text text-anchor="middle" x="65.5" y="-7.5" font-family="Helvetica,sans-Serif" font-size="10.00">DistanceOp</text>
</a>
</g>
</g>
<!-- Node2 -->
<g id="node2" class="node">
<title>Node2</title>
<g id="a_node2"><a xlink:href="classdrain_1_1image_1_1BinaryPixelVectorOp.html" target="_top" xlink:title=" ">
<polygon fill="white" stroke="black" points="0,-56.5 0,-86.5 131,-86.5 131,-56.5 0,-56.5"/>
<text text-anchor="start" x="8" y="-74.5" font-family="Helvetica,sans-Serif" font-size="10.00">BinaryPixelVectorOp</text>
<text text-anchor="middle" x="65.5" y="-63.5" font-family="Helvetica,sans-Serif" font-size="10.00">&lt; SubtractionFunctor &gt;</text>
</a>
</g>
</g>
<!-- Node2&#45;&gt;Node1 -->
<g id="edge1" class="edge">
<title>Node2&#45;&gt;Node1</title>
<path fill="none" stroke="midnightblue" d="M65.5,-46.29C65.5,-36.86 65.5,-26.65 65.5,-19.66"/>
<polygon fill="midnightblue" stroke="midnightblue" points="62,-46.4 65.5,-56.4 69,-46.4 62,-46.4"/>
</g>
<!-- Node3 -->
<g id="node3" class="node">
<title>Node3</title>
<g id="a_node3"><a xlink:href="classdrain_1_1image_1_1PixelVectorOp.html" target="_top" xlink:title="A base class for operations between of multi&#45;channel pixels (intensity vectors) of two images.">
<polygon fill="white" stroke="black" points="22.5,-123.5 22.5,-142.5 108.5,-142.5 108.5,-123.5 22.5,-123.5"/>
<text text-anchor="middle" x="65.5" y="-130.5" font-family="Helvetica,sans-Serif" font-size="10.00">PixelVectorOp</text>
</a>
</g>
</g>
<!-- Node3&#45;&gt;Node2 -->
<g id="edge2" class="edge">
<title>Node3&#45;&gt;Node2</title>
<path fill="none" stroke="midnightblue" d="M65.5,-113.23C65.5,-104.59 65.5,-94.5 65.5,-86.52"/>
<polygon fill="midnightblue" stroke="midnightblue" points="62,-113.48 65.5,-123.48 69,-113.48 62,-113.48"/>
</g>
<!-- Node4 -->
<g id="node4" class="node">
<title>Node4</title>
<g id="a_node4"><a xlink:href="classdrain_1_1image_1_1ImageOp.html" target="_top" xlink:title="Base class for image processing functions.">
<polygon fill="white" stroke="black" points="35,-179.5 35,-198.5 96,-198.5 96,-179.5 35,-179.5"/>
<text text-anchor="middle" x="65.5" y="-186.5" font-family="Helvetica,sans-Serif" font-size="10.00">ImageOp</text>
</a>
</g>
</g>
<!-- Node4&#45;&gt;Node3 -->
<g id="edge3" class="edge">
<title>Node4&#45;&gt;Node3</title>
<path fill="none" stroke="midnightblue" d="M65.5,-168.8C65.5,-159.91 65.5,-149.78 65.5,-142.75"/>
<polygon fill="midnightblue" stroke="midnightblue" points="62,-169.08 65.5,-179.08 69,-169.08 62,-169.08"/>
</g>
<!-- Node5 -->
<g id="node5" class="node">
<title>Node5</title>
<g id="a_node5"><a xlink:href="classdrain_1_1image_1_1ImageMod.html" target="_top" xlink:title="Class for operations that modify an existing image instead of producing a new image.">
<polygon fill="white" stroke="black" points="31.5,-235.5 31.5,-254.5 99.5,-254.5 99.5,-235.5 31.5,-235.5"/>
<text text-anchor="middle" x="65.5" y="-242.5" font-family="Helvetica,sans-Serif" font-size="10.00">ImageMod</text>
</a>
</g>
</g>
<!-- Node5&#45;&gt;Node4 -->
<g id="edge4" class="edge">
<title>Node5&#45;&gt;Node4</title>
<path fill="none" stroke="midnightblue" d="M65.5,-224.8C65.5,-215.91 65.5,-205.78 65.5,-198.75"/>
<polygon fill="midnightblue" stroke="midnightblue" points="62,-225.08 65.5,-235.08 69,-225.08 62,-225.08"/>
</g>
<!-- Node6 -->
<g id="node6" class="node">
<title>Node6</title>
<g id="a_node6"><a xlink:href="classdrain_1_1BeanLike.html" target="_top" xlink:title="Something which has a name, a description and possibly some parameters of varying type.">
<polygon fill="white" stroke="black" points="35,-291.5 35,-310.5 96,-310.5 96,-291.5 35,-291.5"/>
<text text-anchor="middle" x="65.5" y="-298.5" font-family="Helvetica,sans-Serif" font-size="10.00">BeanLike</text>
</a>
</g>
</g>
<!-- Node6&#45;&gt;Node5 -->
<g id="edge5" class="edge">
<title>Node6&#45;&gt;Node5</title>
<path fill="none" stroke="midnightblue" d="M65.5,-280.8C65.5,-271.91 65.5,-261.78 65.5,-254.75"/>
<polygon fill="midnightblue" stroke="midnightblue" points="62,-281.08 65.5,-291.08 69,-281.08 62,-281.08"/>
</g>
</g>
</svg>
