<?xml version="1.0" encoding="UTF-8" standalone="no"?>
<!DOCTYPE svg PUBLIC "-//W3C//DTD SVG 1.1//EN"
 "http://www.w3.org/Graphics/SVG/1.1/DTD/svg11.dtd">
<!-- Generated by graphviz version 2.43.0 (0)
 -->
<!-- Title: FlowAverageWindow Pages: 1 -->
<svg width="181pt" height="442pt"
 viewBox="0.00 0.00 181.00 442.00" xmlns="http://www.w3.org/2000/svg" xmlns:xlink="http://www.w3.org/1999/xlink">
<g id="graph0" class="graph" transform="scale(1 1) rotate(0) translate(4 438)">
<title>FlowAverageWindow</title>
<polygon fill="white" stroke="transparent" points="-4,4 -4,-438 177,-438 177,4 -4,4"/>
<!-- Node1 -->
<g id="node1" class="node">
<title>Node1</title>
<g id="a_node1"><a xlink:title="Window average that preserves the magnitude.">
<polygon fill="#bfbfbf" stroke="black" points="27,-56.5 27,-75.5 146,-75.5 146,-56.5 27,-56.5"/>
<text text-anchor="middle" x="86.5" y="-63.5" font-family="Helvetica,sans-Serif" font-size="10.00">FlowAverageWindow</text>
</a>
</g>
</g>
<!-- Node8 -->
<g id="node8" class="node">
<title>Node8</title>
<g id="a_node8"><a xlink:href="classdrain_1_1image_1_1FlowAverageWindowWeighted.html" target="_top" xlink:title=" ">
<polygon fill="white" stroke="black" points="4,-0.5 4,-19.5 169,-19.5 169,-0.5 4,-0.5"/>
<text text-anchor="middle" x="86.5" y="-7.5" font-family="Helvetica,sans-Serif" font-size="10.00">FlowAverageWindowWeighted</text>
</a>
</g>
</g>
<!-- Node1&#45;&gt;Node8 -->
<g id="edge7" class="edge">
<title>Node1&#45;&gt;Node8</title>
<path fill="none" stroke="midnightblue" d="M86.5,-45.8C86.5,-36.91 86.5,-26.78 86.5,-19.75"/>
<polygon fill="midnightblue" stroke="midnightblue" points="83,-46.08 86.5,-56.08 90,-46.08 83,-46.08"/>
</g>
<!-- Node2 -->
<g id="node2" class="node">
<title>Node2</title>
<g id="a_node2"><a xlink:href="classdrain_1_1image_1_1SlidingWindow.html" target="_top" xlink:title=" ">
<polygon fill="white" stroke="black" points="0,-112.5 0,-142.5 173,-142.5 173,-112.5 0,-112.5"/>
<text text-anchor="start" x="8" y="-130.5" font-family="Helvetica,sans-Serif" font-size="10.00">SlidingWindow&lt; WindowConfig,</text>
<text text-anchor="middle" x="86.5" y="-119.5" font-family="Helvetica,sans-Serif" font-size="10.00"> MultiChannelWindowCore &gt;</text>
</a>
</g>
</g>
<!-- Node2&#45;&gt;Node1 -->
<g id="edge1" class="edge">
<title>Node2&#45;&gt;Node1</title>
<path fill="none" stroke="midnightblue" d="M86.5,-102.29C86.5,-92.86 86.5,-82.65 86.5,-75.66"/>
<polygon fill="midnightblue" stroke="midnightblue" points="83,-102.4 86.5,-112.4 90,-102.4 83,-102.4"/>
</g>
<!-- Node3 -->
<g id="node3" class="node">
<title>Node3</title>
<g id="a_node3"><a xlink:href="classdrain_1_1image_1_1Window.html" target="_top" xlink:title=" ">
<polygon fill="white" stroke="black" points="8,-179.5 8,-209.5 165,-209.5 165,-179.5 8,-179.5"/>
<text text-anchor="start" x="16" y="-197.5" font-family="Helvetica,sans-Serif" font-size="10.00">Window&lt; WindowConfig,</text>
<text text-anchor="middle" x="86.5" y="-186.5" font-family="Helvetica,sans-Serif" font-size="10.00"> MultiChannelWindowCore &gt;</text>
</a>
</g>
</g>
<!-- Node3&#45;&gt;Node2 -->
<g id="edge2" class="edge">
<title>Node3&#45;&gt;Node2</title>
<path fill="none" stroke="midnightblue" d="M86.5,-169.11C86.5,-160.15 86.5,-150.32 86.5,-142.58"/>
<polygon fill="midnightblue" stroke="midnightblue" points="83,-169.4 86.5,-179.4 90,-169.4 83,-169.4"/>
</g>
<!-- Node4 -->
<g id="node4" class="node">
<title>Node4</title>
<g id="a_node4"><a xlink:href="classdrain_1_1image_1_1MultiChannelWindowCore.html" target="_top" xlink:title=" ">
<polygon fill="white" stroke="black" points="15,-246.5 15,-265.5 158,-265.5 158,-246.5 15,-246.5"/>
<text text-anchor="middle" x="86.5" y="-253.5" font-family="Helvetica,sans-Serif" font-size="10.00">MultiChannelWindowCore</text>
</a>
</g>
</g>
<!-- Node4&#45;&gt;Node3 -->
<g id="edge3" class="edge">
<title>Node4&#45;&gt;Node3</title>
<path fill="none" stroke="midnightblue" d="M86.5,-236.23C86.5,-227.59 86.5,-217.5 86.5,-209.52"/>
<polygon fill="midnightblue" stroke="midnightblue" points="83,-236.48 86.5,-246.48 90,-236.48 83,-236.48"/>
</g>
<!-- Node5 -->
<g id="node5" class="node">
<title>Node5</title>
<g id="a_node5"><a xlink:href="classdrain_1_1image_1_1WeightedWindowCore.html" target="_top" xlink:title=" ">
<polygon fill="white" stroke="black" points="24,-302.5 24,-321.5 149,-321.5 149,-302.5 24,-302.5"/>
<text text-anchor="middle" x="86.5" y="-309.5" font-family="Helvetica,sans-Serif" font-size="10.00">WeightedWindowCore</text>
</a>
</g>
</g>
<!-- Node5&#45;&gt;Node4 -->
<g id="edge4" class="edge">
<title>Node5&#45;&gt;Node4</title>
<path fill="none" stroke="midnightblue" d="M86.5,-291.8C86.5,-282.91 86.5,-272.78 86.5,-265.75"/>
<polygon fill="midnightblue" stroke="midnightblue" points="83,-292.08 86.5,-302.08 90,-292.08 83,-292.08"/>
</g>
<!-- Node6 -->
<g id="node6" class="node">
<title>Node6</title>
<g id="a_node6"><a xlink:href="classdrain_1_1image_1_1WindowCore.html" target="_top" xlink:title="Container for source data (input) and destination data (output). May also contain metadata of them.">
<polygon fill="white" stroke="black" points="47.5,-358.5 47.5,-377.5 125.5,-377.5 125.5,-358.5 47.5,-358.5"/>
<text text-anchor="middle" x="86.5" y="-365.5" font-family="Helvetica,sans-Serif" font-size="10.00">WindowCore</text>
</a>
</g>
</g>
<!-- Node6&#45;&gt;Node5 -->
<g id="edge5" class="edge">
<title>Node6&#45;&gt;Node5</title>
<path fill="none" stroke="midnightblue" d="M86.5,-347.8C86.5,-338.91 86.5,-328.78 86.5,-321.75"/>
<polygon fill="midnightblue" stroke="midnightblue" points="83,-348.08 86.5,-358.08 90,-348.08 83,-348.08"/>
</g>
<!-- Node7 -->
<g id="node7" class="node">
<title>Node7</title>
<g id="a_node7"><a xlink:href="classdrain_1_1image_1_1WindowCoreBase.html" target="_top" xlink:title="Provides splitting frames.">
<polygon fill="white" stroke="black" points="35.5,-414.5 35.5,-433.5 137.5,-433.5 137.5,-414.5 35.5,-414.5"/>
<text text-anchor="middle" x="86.5" y="-421.5" font-family="Helvetica,sans-Serif" font-size="10.00">WindowCoreBase</text>
</a>
</g>
</g>
<!-- Node7&#45;&gt;Node6 -->
<g id="edge6" class="edge">
<title>Node7&#45;&gt;Node6</title>
<path fill="none" stroke="midnightblue" d="M86.5,-403.8C86.5,-394.91 86.5,-384.78 86.5,-377.75"/>
<polygon fill="midnightblue" stroke="midnightblue" points="83,-404.08 86.5,-414.08 90,-404.08 83,-404.08"/>
</g>
</g>
</svg>
