<?xml version="1.0" encoding="UTF-8" standalone="no"?>
<!DOCTYPE svg PUBLIC "-//W3C//DTD SVG 1.1//EN"
 "http://www.w3.org/Graphics/SVG/1.1/DTD/svg11.dtd">
<!-- Generated by graphviz version 2.43.0 (0)
 -->
<!-- Title: ImageCodeMap&lt; T &gt; Pages: 1 -->
<svg width="270pt" height="174pt"
 viewBox="0.00 0.00 270.00 174.00" xmlns="http://www.w3.org/2000/svg" xmlns:xlink="http://www.w3.org/1999/xlink">
<g id="graph0" class="graph" transform="scale(1 1) rotate(0) translate(4 170)">
<title>ImageCodeMap&lt; T &gt;</title>
<polygon fill="white" stroke="transparent" points="-4,4 -4,-170 266,-170 266,4 -4,4"/>
<!-- Node1 -->
<g id="node1" class="node">
<title>Node1</title>
<g id="a_node1"><a xlink:title=" ">
<polygon fill="#bfbfbf" stroke="black" points="35,-0.5 35,-19.5 157,-19.5 157,-0.5 35,-0.5"/>
<text text-anchor="middle" x="96" y="-7.5" font-family="Helvetica,sans-Serif" font-size="10.00">ImageCodeMap&lt; T &gt;</text>
</a>
</g>
</g>
<!-- Node2 -->
<g id="node2" class="node">
<title>Node2</title>
<g id="a_node2"><a xlink:title=" ">
<polygon fill="white" stroke="#bfbfbf" points="0,-73 0,-92 106,-92 106,-73 0,-73"/>
<text text-anchor="middle" x="53" y="-80" font-family="Helvetica,sans-Serif" font-size="10.00">map&lt; double, T &gt;</text>
</a>
</g>
</g>
<!-- Node2&#45;&gt;Node1 -->
<g id="edge1" class="edge">
<title>Node2&#45;&gt;Node1</title>
<path fill="none" stroke="midnightblue" d="M63.62,-64.09C72.21,-50 83.96,-30.74 90.68,-19.72"/>
<polygon fill="midnightblue" stroke="midnightblue" points="60.49,-62.5 58.27,-72.86 66.47,-66.14 60.49,-62.5"/>
</g>
<!-- Node3 -->
<g id="node3" class="node">
<title>Node3</title>
<g id="a_node3"><a xlink:href="classdrain_1_1LookUp.html" target="_top" xlink:title=" ">
<polygon fill="white" stroke="black" points="124,-67.5 124,-97.5 262,-97.5 262,-67.5 124,-67.5"/>
<text text-anchor="start" x="132" y="-85.5" font-family="Helvetica,sans-Serif" font-size="10.00">LookUp&lt; typename cont</text>
<text text-anchor="middle" x="193" y="-74.5" font-family="Helvetica,sans-Serif" font-size="10.00">_t::const_iterator &gt;</text>
</a>
</g>
</g>
<!-- Node3&#45;&gt;Node1 -->
<g id="edge2" class="edge">
<title>Node3&#45;&gt;Node1</title>
<path fill="none" stroke="#9a32cd" stroke-dasharray="5,2" d="M165.09,-61.22C146.17,-47.47 122.12,-29.98 107.96,-19.69"/>
<polygon fill="#9a32cd" stroke="#9a32cd" points="163.22,-64.19 173.37,-67.23 167.34,-58.52 163.22,-64.19"/>
<text text-anchor="middle" x="166" y="-41" font-family="Helvetica,sans-Serif" font-size="10.00"> lookUp</text>
</g>
<!-- Node4 -->
<g id="node4" class="node">
<title>Node4</title>
<g id="a_node4"><a xlink:title=" ">
<polygon fill="white" stroke="#bfbfbf" points="127,-135.5 127,-165.5 259,-165.5 259,-135.5 127,-135.5"/>
<text text-anchor="start" x="135" y="-153.5" font-family="Helvetica,sans-Serif" font-size="10.00">vector&lt; typename cont</text>
<text text-anchor="middle" x="193" y="-142.5" font-family="Helvetica,sans-Serif" font-size="10.00">_t::const_iterator &gt;</text>
</a>
</g>
</g>
<!-- Node4&#45;&gt;Node3 -->
<g id="edge3" class="edge">
<title>Node4&#45;&gt;Node3</title>
<path fill="none" stroke="midnightblue" d="M193,-125.03C193,-115.86 193,-105.74 193,-97.79"/>
<polygon fill="midnightblue" stroke="midnightblue" points="189.5,-125.18 193,-135.18 196.5,-125.18 189.5,-125.18"/>
</g>
</g>
</svg>
