<?xml version="1.0" encoding="UTF-8" standalone="no"?>
<!DOCTYPE svg PUBLIC "-//W3C//DTD SVG 1.1//EN"
 "http://www.w3.org/Graphics/SVG/1.1/DTD/svg11.dtd">
<!-- Generated by graphviz version 2.43.0 (0)
 -->
<!-- Title: TreeWrapper&lt; DT &gt; Pages: 1 -->
<svg width="224pt" height="140pt"
 viewBox="0.00 0.00 224.00 140.00" xmlns="http://www.w3.org/2000/svg" xmlns:xlink="http://www.w3.org/1999/xlink">
<g id="graph0" class="graph" transform="scale(1 1) rotate(0) translate(4 136)">
<title>TreeWrapper&lt; DT &gt;</title>
<polygon fill="white" stroke="transparent" points="-4,4 -4,-136 220,-136 220,4 -4,4"/>
<!-- Node1 -->
<g id="node1" class="node">
<title>Node1</title>
<g id="a_node1"><a xlink:title="Base class for all kinds of radar data.">
<polygon fill="#bfbfbf" stroke="black" points="51,-112.5 51,-131.5 165,-131.5 165,-112.5 51,-112.5"/>
<text text-anchor="middle" x="108" y="-119.5" font-family="Helvetica,sans-Serif" font-size="10.00">TreeWrapper&lt; DT &gt;</text>
</a>
</g>
</g>
<!-- Node2 -->
<g id="node2" class="node">
<title>Node2</title>
<g id="a_node2"><a xlink:href="classrack_1_1PlainData.html" target="_top" xlink:title="Essential class for storing radar data.">
<polygon fill="white" stroke="black" points="0,-56.5 0,-75.5 100,-75.5 100,-56.5 0,-56.5"/>
<text text-anchor="middle" x="50" y="-63.5" font-family="Helvetica,sans-Serif" font-size="10.00">PlainData&lt; DT &gt;</text>
</a>
</g>
</g>
<!-- Node1&#45;&gt;Node2 -->
<g id="edge1" class="edge">
<title>Node1&#45;&gt;Node2</title>
<path fill="none" stroke="midnightblue" d="M91.09,-105.25C80.8,-95.67 68.03,-83.79 59.49,-75.83"/>
<polygon fill="midnightblue" stroke="midnightblue" points="88.98,-108.07 98.68,-112.32 93.75,-102.95 88.98,-108.07"/>
</g>
<!-- Node4 -->
<g id="node4" class="node">
<title>Node4</title>
<g id="a_node4"><a xlink:href="classrack_1_1RootData.html" target="_top" xlink:title=" ">
<polygon fill="white" stroke="black" points="118,-56.5 118,-75.5 216,-75.5 216,-56.5 118,-56.5"/>
<text text-anchor="middle" x="167" y="-63.5" font-family="Helvetica,sans-Serif" font-size="10.00">RootData&lt; DT &gt;</text>
</a>
</g>
</g>
<!-- Node1&#45;&gt;Node4 -->
<g id="edge3" class="edge">
<title>Node1&#45;&gt;Node4</title>
<path fill="none" stroke="midnightblue" d="M124.89,-105.54C135.41,-95.91 148.57,-83.87 157.35,-75.83"/>
<polygon fill="midnightblue" stroke="midnightblue" points="122.49,-102.99 117.48,-112.32 127.22,-108.15 122.49,-102.99"/>
</g>
<!-- Node3 -->
<g id="node3" class="node">
<title>Node3</title>
<g id="a_node3"><a xlink:href="classrack_1_1Data.html" target="_top" xlink:title="Data structure consisting of plain data and an optional quality data.">
<polygon fill="white" stroke="black" points="12,-0.5 12,-19.5 88,-19.5 88,-0.5 12,-0.5"/>
<text text-anchor="middle" x="50" y="-7.5" font-family="Helvetica,sans-Serif" font-size="10.00">Data&lt; DT &gt;</text>
</a>
</g>
</g>
<!-- Node2&#45;&gt;Node3 -->
<g id="edge2" class="edge">
<title>Node2&#45;&gt;Node3</title>
<path fill="none" stroke="midnightblue" d="M50,-45.8C50,-36.91 50,-26.78 50,-19.75"/>
<polygon fill="midnightblue" stroke="midnightblue" points="46.5,-46.08 50,-56.08 53.5,-46.08 46.5,-46.08"/>
</g>
</g>
</svg>
