<?xml version="1.0" encoding="UTF-8" standalone="no"?>
<!DOCTYPE svg PUBLIC "-//W3C//DTD SVG 1.1//EN"
 "http://www.w3.org/Graphics/SVG/1.1/DTD/svg11.dtd">
<!-- Generated by graphviz version 2.43.0 (0)
 -->
<!-- Title: GaussianAverageOp Pages: 1 -->
<svg width="2837pt" height="377pt"
 viewBox="0.00 0.00 2837.00 377.00" xmlns="http://www.w3.org/2000/svg" xmlns:xlink="http://www.w3.org/1999/xlink">
<g id="graph0" class="graph" transform="scale(1 1) rotate(0) translate(4 373)">
<title>GaussianAverageOp</title>
<polygon fill="white" stroke="transparent" points="-4,4 -4,-373 2833,-373 2833,4 -4,4"/>
<!-- Node1 -->
<g id="node1" class="node">
<title>Node1</title>
<g id="a_node1"><a xlink:title="Sliding window averaging operator with optional weighting support.">
<polygon fill="#bfbfbf" stroke="black" points="2714,-110.5 2714,-129.5 2829,-129.5 2829,-110.5 2714,-110.5"/>
<text text-anchor="middle" x="2771.5" y="-117.5" font-family="Helvetica,sans-Serif" font-size="10.00">GaussianAverageOp</text>
</a>
</g>
</g>
<!-- Node2 -->
<g id="node2" class="node">
<title>Node2</title>
<g id="a_node2"><a xlink:href="classdrain_1_1image_1_1WindowOp.html" target="_top" xlink:title=" ">
<polygon fill="white" stroke="black" points="2501,-105 2501,-135 2677,-135 2677,-105 2501,-105"/>
<text text-anchor="start" x="2509" y="-123" font-family="Helvetica,sans-Serif" font-size="10.00">WindowOp&lt; Window&lt; Gaussian</text>
<text text-anchor="middle" x="2589" y="-112" font-family="Helvetica,sans-Serif" font-size="10.00">WindowConf &gt; &gt;</text>
</a>
</g>
</g>
<!-- Node2&#45;&gt;Node1 -->
<g id="edge1" class="edge">
<title>Node2&#45;&gt;Node1</title>
<path fill="none" stroke="midnightblue" d="M2687.36,-120C2696.44,-120 2705.43,-120 2713.95,-120"/>
<polygon fill="midnightblue" stroke="midnightblue" points="2687.08,-116.5 2677.08,-120 2687.08,-123.5 2687.08,-116.5"/>
</g>
<!-- Node3 -->
<g id="node3" class="node">
<title>Node3</title>
<g id="a_node3"><a xlink:href="classdrain_1_1image_1_1ImageOp.html" target="_top" xlink:title="Base class for image processing functions.">
<polygon fill="white" stroke="black" points="2176,-20.5 2176,-39.5 2237,-39.5 2237,-20.5 2176,-20.5"/>
<text text-anchor="middle" x="2206.5" y="-27.5" font-family="Helvetica,sans-Serif" font-size="10.00">ImageOp</text>
</a>
</g>
</g>
<!-- Node3&#45;&gt;Node2 -->
<g id="edge2" class="edge">
<title>Node3&#45;&gt;Node2</title>
<path fill="none" stroke="midnightblue" d="M2247,-39.34C2312.74,-54.89 2445.16,-86.21 2524.25,-104.92"/>
<polygon fill="midnightblue" stroke="midnightblue" points="2247.58,-35.88 2237.04,-36.99 2245.97,-42.7 2247.58,-35.88"/>
</g>
<!-- Node4 -->
<g id="node4" class="node">
<title>Node4</title>
<g id="a_node4"><a xlink:href="classdrain_1_1image_1_1ImageMod.html" target="_top" xlink:title="Class for operations that modify an existing image instead of producing a new image.">
<polygon fill="white" stroke="black" points="1801,-4.5 1801,-23.5 1869,-23.5 1869,-4.5 1801,-4.5"/>
<text text-anchor="middle" x="1835" y="-11.5" font-family="Helvetica,sans-Serif" font-size="10.00">ImageMod</text>
</a>
</g>
</g>
<!-- Node4&#45;&gt;Node3 -->
<g id="edge3" class="edge">
<title>Node4&#45;&gt;Node3</title>
<path fill="none" stroke="midnightblue" d="M1879.3,-15.87C1955.34,-19.17 2110.97,-25.91 2175.96,-28.72"/>
<polygon fill="midnightblue" stroke="midnightblue" points="1879.26,-12.37 1869.12,-15.43 1878.96,-19.36 1879.26,-12.37"/>
</g>
<!-- Node5 -->
<g id="node5" class="node">
<title>Node5</title>
<g id="a_node5"><a xlink:href="classdrain_1_1BeanLike.html" target="_top" xlink:title="Something which has a name, a description and possibly some parameters of varying type.">
<polygon fill="white" stroke="black" points="1545.5,-0.5 1545.5,-19.5 1606.5,-19.5 1606.5,-0.5 1545.5,-0.5"/>
<text text-anchor="middle" x="1576" y="-7.5" font-family="Helvetica,sans-Serif" font-size="10.00">BeanLike</text>
</a>
</g>
</g>
<!-- Node5&#45;&gt;Node4 -->
<g id="edge4" class="edge">
<title>Node5&#45;&gt;Node4</title>
<path fill="none" stroke="midnightblue" d="M1616.96,-10.62C1667.56,-11.41 1753.8,-12.75 1800.9,-13.48"/>
<polygon fill="midnightblue" stroke="midnightblue" points="1616.79,-7.12 1606.73,-10.46 1616.68,-14.12 1616.79,-7.12"/>
</g>
<!-- Node46 -->
<g id="node45" class="node">
<title>Node46</title>
<g id="a_node45"><a xlink:href="classdrain_1_1Functor.html" target="_top" xlink:title="Base class for sequential computations. Optional scaling utilities.">
<polygon fill="white" stroke="black" points="1808.5,-52.5 1808.5,-71.5 1861.5,-71.5 1861.5,-52.5 1808.5,-52.5"/>
<text text-anchor="middle" x="1835" y="-59.5" font-family="Helvetica,sans-Serif" font-size="10.00">Functor</text>
</a>
</g>
</g>
<!-- Node5&#45;&gt;Node46 -->
<g id="edge48" class="edge">
<title>Node5&#45;&gt;Node46</title>
<path fill="none" stroke="midnightblue" d="M1616.85,-18.06C1670.25,-28.87 1763.47,-47.73 1808.38,-56.82"/>
<polygon fill="midnightblue" stroke="midnightblue" points="1617.23,-14.57 1606.73,-16.02 1615.84,-21.43 1617.23,-14.57"/>
</g>
<!-- Node6 -->
<g id="node6" class="node">
<title>Node6</title>
<g id="a_node6"><a xlink:href="classdrain_1_1ReferenceMap.html" target="_top" xlink:title=" ">
<polygon fill="white" stroke="black" points="1303.5,-0.5 1303.5,-19.5 1390.5,-19.5 1390.5,-0.5 1303.5,-0.5"/>
<text text-anchor="middle" x="1347" y="-7.5" font-family="Helvetica,sans-Serif" font-size="10.00">ReferenceMap</text>
</a>
</g>
</g>
<!-- Node6&#45;&gt;Node5 -->
<g id="edge5" class="edge">
<title>Node6&#45;&gt;Node5</title>
<path fill="none" stroke="#9a32cd" stroke-dasharray="5,2" d="M1400.87,-10C1445.88,-10 1508.91,-10 1545.5,-10"/>
<polygon fill="#9a32cd" stroke="#9a32cd" points="1400.7,-6.5 1390.7,-10 1400.7,-13.5 1400.7,-6.5"/>
<text text-anchor="middle" x="1460" y="-13" font-family="Helvetica,sans-Serif" font-size="10.00"> parameters</text>
</g>
<!-- Node7 -->
<g id="node7" class="node">
<title>Node7</title>
<g id="a_node7"><a xlink:href="classdrain_1_1SmartMap.html" target="_top" xlink:title=" ">
<polygon fill="white" stroke="black" points="1029.5,-0.5 1029.5,-19.5 1172.5,-19.5 1172.5,-0.5 1029.5,-0.5"/>
<text text-anchor="middle" x="1101" y="-7.5" font-family="Helvetica,sans-Serif" font-size="10.00">SmartMap&lt; Referencer &gt;</text>
</a>
</g>
</g>
<!-- Node7&#45;&gt;Node6 -->
<g id="edge6" class="edge">
<title>Node7&#45;&gt;Node6</title>
<path fill="none" stroke="midnightblue" d="M1182.64,-10C1222.87,-10 1269.9,-10 1303.14,-10"/>
<polygon fill="midnightblue" stroke="midnightblue" points="1182.57,-6.5 1172.57,-10 1182.57,-13.5 1182.57,-6.5"/>
</g>
<!-- Node8 -->
<g id="node8" class="node">
<title>Node8</title>
<g id="a_node8"><a xlink:title=" ">
<polygon fill="white" stroke="#bfbfbf" points="723,-0.5 723,-19.5 892,-19.5 892,-0.5 723,-0.5"/>
<text text-anchor="middle" x="807.5" y="-7.5" font-family="Helvetica,sans-Serif" font-size="10.00">map&lt; std::string, Referencer &gt;</text>
</a>
</g>
</g>
<!-- Node8&#45;&gt;Node7 -->
<g id="edge7" class="edge">
<title>Node8&#45;&gt;Node7</title>
<path fill="none" stroke="midnightblue" d="M902.1,-10C943.37,-10 991.06,-10 1029.28,-10"/>
<polygon fill="midnightblue" stroke="midnightblue" points="902.03,-6.5 892.03,-10 902.03,-13.5 902.03,-6.5"/>
</g>
<!-- Node9 -->
<g id="node9" class="node">
<title>Node9</title>
<g id="a_node9"><a xlink:href="classdrain_1_1image_1_1Window.html" target="_top" xlink:title=" ">
<polygon fill="white" stroke="black" points="2255,-163.5 2255,-182.5 2440,-182.5 2440,-163.5 2255,-163.5"/>
<text text-anchor="middle" x="2347.5" y="-170.5" font-family="Helvetica,sans-Serif" font-size="10.00">Window&lt; GaussianWindowConf &gt;</text>
</a>
</g>
</g>
<!-- Node9&#45;&gt;Node2 -->
<g id="edge8" class="edge">
<title>Node9&#45;&gt;Node2</title>
<path fill="none" stroke="#9a32cd" stroke-dasharray="5,2" d="M2401.57,-161.25C2436.43,-153.54 2482.35,-143.38 2519.89,-135.07"/>
<polygon fill="#9a32cd" stroke="#9a32cd" points="2400.6,-157.89 2391.59,-163.46 2402.11,-164.72 2400.6,-157.89"/>
<text text-anchor="middle" x="2470.5" y="-151" font-family="Helvetica,sans-Serif" font-size="10.00"> conf</text>
</g>
<!-- Node10 -->
<g id="node10" class="node">
<title>Node10</title>
<g id="a_node10"><a xlink:href="classdrain_1_1image_1_1WindowCore.html" target="_top" xlink:title="Container for source data (input) and destination data (output). May also contain metadata of them.">
<polygon fill="white" stroke="black" points="2027.5,-311.5 2027.5,-330.5 2105.5,-330.5 2105.5,-311.5 2027.5,-311.5"/>
<text text-anchor="middle" x="2066.5" y="-318.5" font-family="Helvetica,sans-Serif" font-size="10.00">WindowCore</text>
</a>
</g>
</g>
<!-- Node10&#45;&gt;Node9 -->
<g id="edge9" class="edge">
<title>Node10&#45;&gt;Node9</title>
<path fill="none" stroke="midnightblue" d="M2115.63,-322.88C2151.15,-322.27 2199.61,-317.14 2237,-297 2288.58,-269.22 2327.49,-206.97 2341.17,-182.83"/>
<polygon fill="midnightblue" stroke="midnightblue" points="2115.49,-319.38 2105.51,-322.94 2115.53,-326.38 2115.49,-319.38"/>
</g>
<!-- Node11 -->
<g id="node11" class="node">
<title>Node11</title>
<g id="a_node11"><a xlink:href="classdrain_1_1image_1_1WindowCoreBase.html" target="_top" xlink:title="Provides splitting frames.">
<polygon fill="white" stroke="black" points="1784,-349.5 1784,-368.5 1886,-368.5 1886,-349.5 1784,-349.5"/>
<text text-anchor="middle" x="1835" y="-356.5" font-family="Helvetica,sans-Serif" font-size="10.00">WindowCoreBase</text>
</a>
</g>
</g>
<!-- Node11&#45;&gt;Node10 -->
<g id="edge10" class="edge">
<title>Node11&#45;&gt;Node10</title>
<path fill="none" stroke="midnightblue" d="M1896.16,-353.27C1915.64,-351.09 1937.29,-348.31 1957,-345 1980.5,-341.05 2006.57,-335.33 2027.27,-330.46"/>
<polygon fill="midnightblue" stroke="midnightblue" points="1895.76,-349.79 1886.2,-354.36 1896.52,-356.75 1895.76,-349.79"/>
</g>
<!-- Node12 -->
<g id="node12" class="node">
<title>Node12</title>
<g id="a_node12"><a xlink:href="classdrain_1_1image_1_1ImageView.html" target="_top" xlink:title="ImageFrame that also has channels.">
<polygon fill="white" stroke="black" points="1799.5,-311.5 1799.5,-330.5 1870.5,-330.5 1870.5,-311.5 1799.5,-311.5"/>
<text text-anchor="middle" x="1835" y="-318.5" font-family="Helvetica,sans-Serif" font-size="10.00">ImageView</text>
</a>
</g>
</g>
<!-- Node12&#45;&gt;Node10 -->
<g id="edge11" class="edge">
<title>Node12&#45;&gt;Node10</title>
<path fill="none" stroke="#9a32cd" stroke-dasharray="5,2" d="M1880.96,-321C1923.6,-321 1986.97,-321 2027.25,-321"/>
<polygon fill="#9a32cd" stroke="#9a32cd" points="1880.86,-317.5 1870.86,-321 1880.86,-324.5 1880.86,-317.5"/>
<text text-anchor="middle" x="1935.5" y="-335" font-family="Helvetica,sans-Serif" font-size="10.00"> src</text>
<text text-anchor="middle" x="1935.5" y="-324" font-family="Helvetica,sans-Serif" font-size="10.00">dst</text>
</g>
<!-- Node13 -->
<g id="node13" class="node">
<title>Node13</title>
<g id="a_node13"><a xlink:href="classdrain_1_1image_1_1MultiChannel.html" target="_top" xlink:title="Multi&#45;channel ImageFrame.">
<polygon fill="white" stroke="black" points="1535.5,-301.5 1535.5,-320.5 1616.5,-320.5 1616.5,-301.5 1535.5,-301.5"/>
<text text-anchor="middle" x="1576" y="-308.5" font-family="Helvetica,sans-Serif" font-size="10.00">MultiChannel</text>
</a>
</g>
</g>
<!-- Node13&#45;&gt;Node12 -->
<g id="edge12" class="edge">
<title>Node13&#45;&gt;Node12</title>
<path fill="none" stroke="midnightblue" d="M1626.68,-312.93C1677.4,-314.91 1754.83,-317.92 1799.31,-319.65"/>
<polygon fill="midnightblue" stroke="midnightblue" points="1626.72,-309.43 1616.59,-312.54 1626.45,-316.43 1626.72,-309.43"/>
</g>
<!-- Node14 -->
<g id="node14" class="node">
<title>Node14</title>
<g id="a_node14"><a xlink:href="classdrain_1_1image_1_1ImageFrame.html" target="_top" xlink:title="Image with static geometry.">
<polygon fill="white" stroke="black" points="1308,-227.5 1308,-246.5 1386,-246.5 1386,-227.5 1308,-227.5"/>
<text text-anchor="middle" x="1347" y="-234.5" font-family="Helvetica,sans-Serif" font-size="10.00">ImageFrame</text>
</a>
</g>
</g>
<!-- Node14&#45;&gt;Node13 -->
<g id="edge13" class="edge">
<title>Node14&#45;&gt;Node13</title>
<path fill="none" stroke="midnightblue" d="M1370.46,-252.21C1386.43,-262.35 1408.73,-275.21 1430,-283 1464.43,-295.61 1505.64,-302.87 1535.31,-306.82"/>
<polygon fill="midnightblue" stroke="midnightblue" points="1372.14,-249.12 1361.84,-246.6 1368.32,-254.99 1372.14,-249.12"/>
</g>
<!-- Node15 -->
<g id="node15" class="node">
<title>Node15</title>
<g id="a_node15"><a xlink:href="classdrain_1_1image_1_1ImageLike.html" target="_top" xlink:title="A base class for images.">
<polygon fill="white" stroke="black" points="1067.5,-177.5 1067.5,-196.5 1134.5,-196.5 1134.5,-177.5 1067.5,-177.5"/>
<text text-anchor="middle" x="1101" y="-184.5" font-family="Helvetica,sans-Serif" font-size="10.00">ImageLike</text>
</a>
</g>
</g>
<!-- Node15&#45;&gt;Node14 -->
<g id="edge14" class="edge">
<title>Node15&#45;&gt;Node14</title>
<path fill="none" stroke="midnightblue" d="M1144.64,-195.74C1190.77,-205.19 1263.65,-220.13 1307.93,-229.2"/>
<polygon fill="midnightblue" stroke="midnightblue" points="1145.15,-192.27 1134.65,-193.69 1143.75,-199.13 1145.15,-192.27"/>
</g>
<!-- Node16 -->
<g id="node16" class="node">
<title>Node16</title>
<g id="a_node16"><a xlink:href="classdrain_1_1image_1_1ImageConf.html" target="_top" xlink:title="Struct for image (excluding data)">
<polygon fill="white" stroke="black" points="772.5,-175.5 772.5,-194.5 842.5,-194.5 842.5,-175.5 772.5,-175.5"/>
<text text-anchor="middle" x="807.5" y="-182.5" font-family="Helvetica,sans-Serif" font-size="10.00">ImageConf</text>
</a>
</g>
</g>
<!-- Node16&#45;&gt;Node15 -->
<g id="edge15" class="edge">
<title>Node16&#45;&gt;Node15</title>
<path fill="none" stroke="#9a32cd" stroke-dasharray="5,2" d="M852.62,-185.3C911.53,-185.71 1014.53,-186.41 1067.1,-186.77"/>
<polygon fill="#9a32cd" stroke="#9a32cd" points="852.53,-181.8 842.51,-185.23 852.48,-188.8 852.53,-181.8"/>
<text text-anchor="middle" x="957.5" y="-189" font-family="Helvetica,sans-Serif" font-size="10.00"> conf</text>
</g>
<!-- Node17 -->
<g id="node17" class="node">
<title>Node17</title>
<g id="a_node17"><a xlink:href="classdrain_1_1image_1_1Encoding.html" target="_top" xlink:title=" ">
<polygon fill="white" stroke="black" points="483,-265.5 483,-284.5 544,-284.5 544,-265.5 483,-265.5"/>
<text text-anchor="middle" x="513.5" y="-272.5" font-family="Helvetica,sans-Serif" font-size="10.00">Encoding</text>
</a>
</g>
</g>
<!-- Node17&#45;&gt;Node16 -->
<g id="edge16" class="edge">
<title>Node17&#45;&gt;Node16</title>
<path fill="none" stroke="midnightblue" d="M554.3,-267.41C569.35,-264.27 586.56,-260.34 602,-256 668.03,-237.44 743.84,-209.26 781.94,-194.61"/>
<polygon fill="midnightblue" stroke="midnightblue" points="553.38,-264.03 544.28,-269.46 554.78,-270.89 553.38,-264.03"/>
</g>
<!-- Node18 -->
<g id="node18" class="node">
<title>Node18</title>
<g id="a_node18"><a xlink:href="classdrain_1_1ValueScaling.html" target="_top" xlink:title="Linear scaling and physical range for image intensities.">
<polygon fill="white" stroke="black" points="241,-291.5 241,-310.5 321,-310.5 321,-291.5 241,-291.5"/>
<text text-anchor="middle" x="281" y="-298.5" font-family="Helvetica,sans-Serif" font-size="10.00">ValueScaling</text>
</a>
</g>
</g>
<!-- Node18&#45;&gt;Node17 -->
<g id="edge17" class="edge">
<title>Node18&#45;&gt;Node17</title>
<path fill="none" stroke="midnightblue" d="M331.15,-295.46C377.16,-290.27 444.4,-282.68 482.76,-278.35"/>
<polygon fill="midnightblue" stroke="midnightblue" points="330.65,-291.99 321.1,-296.59 331.43,-298.95 330.65,-291.99"/>
</g>
<!-- Node19 -->
<g id="node19" class="node">
<title>Node19</title>
<g id="a_node19"><a xlink:href="classdrain_1_1UniTuple.html" target="_top" xlink:title=" ">
<polygon fill="white" stroke="black" points="0,-310.5 0,-329.5 126,-329.5 126,-310.5 0,-310.5"/>
<text text-anchor="middle" x="63" y="-317.5" font-family="Helvetica,sans-Serif" font-size="10.00">UniTuple&lt; double, 4 &gt;</text>
</a>
</g>
</g>
<!-- Node19&#45;&gt;Node18 -->
<g id="edge18" class="edge">
<title>Node19&#45;&gt;Node18</title>
<path fill="none" stroke="midnightblue" d="M136.36,-313.63C171.32,-310.56 211.9,-306.99 240.99,-304.43"/>
<polygon fill="midnightblue" stroke="midnightblue" points="135.84,-310.17 126.19,-314.53 136.45,-317.14 135.84,-310.17"/>
</g>
<!-- Node20 -->
<g id="node20" class="node">
<title>Node20</title>
<g id="a_node20"><a xlink:href="classdrain_1_1Range.html" target="_top" xlink:title=" ">
<polygon fill="white" stroke="red" points="11.5,-272.5 11.5,-291.5 114.5,-291.5 114.5,-272.5 11.5,-272.5"/>
<text text-anchor="middle" x="63" y="-279.5" font-family="Helvetica,sans-Serif" font-size="10.00">Range&lt; double &gt;</text>
</a>
</g>
</g>
<!-- Node20&#45;&gt;Node18 -->
<g id="edge19" class="edge">
<title>Node20&#45;&gt;Node18</title>
<path fill="none" stroke="#9a32cd" stroke-dasharray="5,2" d="M124.87,-286.55C148.91,-288.43 176.76,-290.7 202,-293 214.61,-294.15 228.35,-295.52 240.74,-296.8"/>
<polygon fill="#9a32cd" stroke="#9a32cd" points="125.06,-283.06 114.82,-285.77 124.52,-290.04 125.06,-283.06"/>
<text text-anchor="middle" x="173" y="-296" font-family="Helvetica,sans-Serif" font-size="10.00"> physRange</text>
</g>
<!-- Node22 -->
<g id="node21" class="node">
<title>Node22</title>
<g id="a_node21"><a xlink:href="classdrain_1_1Caster.html" target="_top" xlink:title=" ">
<polygon fill="white" stroke="black" points="257,-250.5 257,-269.5 305,-269.5 305,-250.5 257,-250.5"/>
<text text-anchor="middle" x="281" y="-257.5" font-family="Helvetica,sans-Serif" font-size="10.00">Caster</text>
</a>
</g>
</g>
<!-- Node22&#45;&gt;Node17 -->
<g id="edge20" class="edge">
<title>Node22&#45;&gt;Node17</title>
<path fill="none" stroke="#9a32cd" stroke-dasharray="5,2" d="M315.51,-262.18C360.57,-265.11 439.99,-270.28 482.94,-273.08"/>
<polygon fill="#9a32cd" stroke="#9a32cd" points="315.58,-258.68 305.37,-261.52 315.12,-265.66 315.58,-258.68"/>
<text text-anchor="middle" x="383.5" y="-270" font-family="Helvetica,sans-Serif" font-size="10.00"> caster</text>
</g>
<!-- Node33 -->
<g id="node32" class="node">
<title>Node33</title>
<g id="a_node32"><a xlink:href="classdrain_1_1Castable.html" target="_top" xlink:title=" ">
<polygon fill="white" stroke="black" points="484,-227.5 484,-246.5 543,-246.5 543,-227.5 484,-227.5"/>
<text text-anchor="middle" x="513.5" y="-234.5" font-family="Helvetica,sans-Serif" font-size="10.00">Castable</text>
</a>
</g>
</g>
<!-- Node22&#45;&gt;Node33 -->
<g id="edge33" class="edge">
<title>Node22&#45;&gt;Node33</title>
<path fill="none" stroke="#9a32cd" stroke-dasharray="5,2" d="M315.22,-255.42C329.05,-253.6 345.29,-251.57 360,-250 403.07,-245.41 453.12,-241.39 483.8,-239.08"/>
<polygon fill="#9a32cd" stroke="#9a32cd" points="314.63,-251.97 305.18,-256.77 315.55,-258.91 314.63,-251.97"/>
<text text-anchor="middle" x="383.5" y="-253" font-family="Helvetica,sans-Serif" font-size="10.00"> caster</text>
</g>
<!-- Node23 -->
<g id="node22" class="node">
<title>Node23</title>
<g id="a_node22"><a xlink:href="classdrain_1_1image_1_1Geometry.html" target="_top" xlink:title=" ">
<polygon fill="white" stroke="black" points="481,-172.5 481,-191.5 546,-191.5 546,-172.5 481,-172.5"/>
<text text-anchor="middle" x="513.5" y="-179.5" font-family="Helvetica,sans-Serif" font-size="10.00">Geometry</text>
</a>
</g>
</g>
<!-- Node23&#45;&gt;Node16 -->
<g id="edge21" class="edge">
<title>Node23&#45;&gt;Node16</title>
<path fill="none" stroke="midnightblue" d="M556.33,-182.43C614.49,-183.03 718.69,-184.1 772.41,-184.65"/>
<polygon fill="midnightblue" stroke="midnightblue" points="556.06,-178.93 546.03,-182.32 555.99,-185.93 556.06,-178.93"/>
</g>
<!-- Node24 -->
<g id="node23" class="node">
<title>Node24</title>
<g id="a_node23"><a xlink:href="classdrain_1_1UniTuple.html" target="_top" xlink:title=" ">
<polygon fill="white" stroke="black" points="220,-209.5 220,-228.5 342,-228.5 342,-209.5 220,-209.5"/>
<text text-anchor="middle" x="281" y="-216.5" font-family="Helvetica,sans-Serif" font-size="10.00">UniTuple&lt; size_t, 4 &gt;</text>
</a>
</g>
</g>
<!-- Node24&#45;&gt;Node23 -->
<g id="edge22" class="edge">
<title>Node24&#45;&gt;Node23</title>
<path fill="none" stroke="midnightblue" d="M351.23,-207.89C394.35,-200.96 447.75,-192.39 480.98,-187.06"/>
<polygon fill="midnightblue" stroke="midnightblue" points="350.68,-204.43 341.36,-209.47 351.79,-211.34 350.68,-204.43"/>
</g>
<!-- Node25 -->
<g id="node24" class="node">
<title>Node25</title>
<g id="a_node24"><a xlink:href="classdrain_1_1Frame2D.html" target="_top" xlink:title=" ">
<polygon fill="white" stroke="black" points="225,-133.5 225,-152.5 337,-152.5 337,-133.5 225,-133.5"/>
<text text-anchor="middle" x="281" y="-140.5" font-family="Helvetica,sans-Serif" font-size="10.00">Frame2D&lt; size_t &gt;</text>
</a>
</g>
</g>
<!-- Node25&#45;&gt;Node23 -->
<g id="edge23" class="edge">
<title>Node25&#45;&gt;Node23</title>
<path fill="none" stroke="#9a32cd" stroke-dasharray="5,2" d="M347.19,-154.03C390.89,-161.42 446.5,-170.83 480.79,-176.64"/>
<polygon fill="#9a32cd" stroke="#9a32cd" points="347.65,-150.56 337.21,-152.34 346.49,-157.46 347.65,-150.56"/>
<text text-anchor="middle" x="383.5" y="-166" font-family="Helvetica,sans-Serif" font-size="10.00"> area</text>
</g>
<!-- Node26 -->
<g id="node25" class="node">
<title>Node26</title>
<g id="a_node25"><a xlink:href="classdrain_1_1UniTuple.html" target="_top" xlink:title=" ">
<polygon fill="white" stroke="black" points="2,-149.5 2,-168.5 124,-168.5 124,-149.5 2,-149.5"/>
<text text-anchor="middle" x="63" y="-156.5" font-family="Helvetica,sans-Serif" font-size="10.00">UniTuple&lt; size_t, 2 &gt;</text>
</a>
</g>
</g>
<!-- Node26&#45;&gt;Node25 -->
<g id="edge24" class="edge">
<title>Node26&#45;&gt;Node25</title>
<path fill="none" stroke="midnightblue" d="M134.37,-153.79C163.77,-151.61 197.42,-149.12 224.96,-147.08"/>
<polygon fill="midnightblue" stroke="midnightblue" points="133.88,-150.31 124.17,-154.54 134.4,-157.29 133.88,-150.31"/>
</g>
<!-- Node27 -->
<g id="node26" class="node">
<title>Node27</title>
<g id="a_node26"><a xlink:href="classdrain_1_1image_1_1ChannelGeometry.html" target="_top" xlink:title=" ">
<polygon fill="white" stroke="black" points="228.5,-171.5 228.5,-190.5 333.5,-190.5 333.5,-171.5 228.5,-171.5"/>
<text text-anchor="middle" x="281" y="-178.5" font-family="Helvetica,sans-Serif" font-size="10.00">ChannelGeometry</text>
</a>
</g>
</g>
<!-- Node26&#45;&gt;Node27 -->
<g id="edge26" class="edge">
<title>Node26&#45;&gt;Node27</title>
<path fill="none" stroke="midnightblue" d="M134.34,-166.16C164.92,-169.28 200.09,-172.86 228.22,-175.73"/>
<polygon fill="midnightblue" stroke="midnightblue" points="134.47,-162.66 124.17,-165.13 133.76,-169.62 134.47,-162.66"/>
</g>
<!-- Node27&#45;&gt;Node23 -->
<g id="edge25" class="edge">
<title>Node27&#45;&gt;Node23</title>
<path fill="none" stroke="#9a32cd" stroke-dasharray="5,2" d="M343.79,-181.27C387.98,-181.46 445.62,-181.71 480.81,-181.86"/>
<polygon fill="#9a32cd" stroke="#9a32cd" points="343.74,-177.77 333.73,-181.22 343.71,-184.77 343.74,-177.77"/>
<text text-anchor="middle" x="383.5" y="-184" font-family="Helvetica,sans-Serif" font-size="10.00"> channels</text>
</g>
<!-- Node28 -->
<g id="node27" class="node">
<title>Node28</title>
<g id="a_node27"><a xlink:href="classdrain_1_1image_1_1CoordinatePolicy.html" target="_top" xlink:title="Policies for coordinate underflows and overflows.">
<polygon fill="white" stroke="black" points="464,-89.5 464,-108.5 563,-108.5 563,-89.5 464,-89.5"/>
<text text-anchor="middle" x="513.5" y="-96.5" font-family="Helvetica,sans-Serif" font-size="10.00">CoordinatePolicy</text>
</a>
</g>
</g>
<!-- Node28&#45;&gt;Node16 -->
<g id="edge27" class="edge">
<title>Node28&#45;&gt;Node16</title>
<path fill="none" stroke="#9a32cd" stroke-dasharray="5,2" d="M556.58,-111.39C615.37,-128.71 720.84,-159.77 773.99,-175.43"/>
<polygon fill="#9a32cd" stroke="#9a32cd" points="557.45,-108 546.86,-108.53 555.47,-114.71 557.45,-108"/>
<text text-anchor="middle" x="662.5" y="-157" font-family="Helvetica,sans-Serif" font-size="10.00"> coordinatePolicy</text>
</g>
<!-- Node51 -->
<g id="node50" class="node">
<title>Node51</title>
<g id="a_node50"><a xlink:href="classdrain_1_1image_1_1CoordinateHandler2D.html" target="_top" xlink:title=" ">
<polygon fill="white" stroke="black" points="1774,-177.5 1774,-196.5 1896,-196.5 1896,-177.5 1774,-177.5"/>
<text text-anchor="middle" x="1835" y="-184.5" font-family="Helvetica,sans-Serif" font-size="10.00">CoordinateHandler2D</text>
</a>
</g>
</g>
<!-- Node28&#45;&gt;Node51 -->
<g id="edge57" class="edge">
<title>Node28&#45;&gt;Node51</title>
<path fill="none" stroke="#9a32cd" stroke-dasharray="5,2" d="M573.31,-98.68C632.27,-98.39 725.68,-98 806.5,-98 806.5,-98 806.5,-98 1461,-98 1526.63,-98 1702.96,-73.35 1756,-112 1774.41,-125.42 1758.41,-143.38 1774,-160 1781.19,-167.67 1790.96,-173.31 1800.53,-177.39"/>
<polygon fill="#9a32cd" stroke="#9a32cd" points="573.05,-95.18 563.07,-98.73 573.08,-102.18 573.05,-95.18"/>
<text text-anchor="middle" x="1230.5" y="-101" font-family="Helvetica,sans-Serif" font-size="10.00"> policy</text>
</g>
<!-- Node29 -->
<g id="node28" class="node">
<title>Node29</title>
<g id="a_node28"><a xlink:href="classdrain_1_1UniTuple.html" target="_top" xlink:title=" ">
<polygon fill="white" stroke="black" points="222.5,-84 222.5,-114 339.5,-114 339.5,-84 222.5,-84"/>
<text text-anchor="start" x="230.5" y="-102" font-family="Helvetica,sans-Serif" font-size="10.00">UniTuple&lt; coord_pol</text>
<text text-anchor="middle" x="281" y="-91" font-family="Helvetica,sans-Serif" font-size="10.00">_t, 4 &gt;</text>
</a>
</g>
</g>
<!-- Node29&#45;&gt;Node28 -->
<g id="edge28" class="edge">
<title>Node29&#45;&gt;Node28</title>
<path fill="none" stroke="midnightblue" d="M349.67,-99C386.28,-99 430.66,-99 463.84,-99"/>
<polygon fill="midnightblue" stroke="midnightblue" points="349.57,-95.5 339.57,-99 349.57,-102.5 349.57,-95.5"/>
</g>
<!-- Node30 -->
<g id="node29" class="node">
<title>Node30</title>
<g id="a_node29"><a xlink:href="classdrain_1_1Dictionary2.html" target="_top" xlink:title="Two&#45;way mapping between strings and objects of template class T.">
<polygon fill="white" stroke="black" points="223.5,-45.5 223.5,-64.5 338.5,-64.5 338.5,-45.5 223.5,-45.5"/>
<text text-anchor="middle" x="281" y="-52.5" font-family="Helvetica,sans-Serif" font-size="10.00">Dictionary2&lt; K, V &gt;</text>
</a>
</g>
</g>
<!-- Node30&#45;&gt;Node28 -->
<g id="edge29" class="edge">
<title>Node30&#45;&gt;Node28</title>
<path fill="none" stroke="#9a32cd" stroke-dasharray="5,2" d="M341.91,-66.44C379.83,-73.67 428.22,-82.91 463.77,-89.7"/>
<polygon fill="#9a32cd" stroke="#9a32cd" points="342.49,-62.98 332.02,-64.55 341.18,-69.86 342.49,-62.98"/>
<text text-anchor="middle" x="383.5" y="-81" font-family="Helvetica,sans-Serif" font-size="10.00"> dict</text>
</g>
<!-- Node31 -->
<g id="node30" class="node">
<title>Node31</title>
<g id="a_node30"><a xlink:title=" ">
<polygon fill="white" stroke="#bfbfbf" points="11,-40 11,-70 115,-70 115,-40 11,-40"/>
<text text-anchor="start" x="19" y="-58" font-family="Helvetica,sans-Serif" font-size="10.00">list&lt; std::pair&lt; K,</text>
<text text-anchor="middle" x="63" y="-47" font-family="Helvetica,sans-Serif" font-size="10.00"> V &gt; &gt;</text>
</a>
</g>
</g>
<!-- Node31&#45;&gt;Node30 -->
<g id="edge30" class="edge">
<title>Node31&#45;&gt;Node30</title>
<path fill="none" stroke="midnightblue" d="M125.39,-55C156.23,-55 193.35,-55 223.48,-55"/>
<polygon fill="midnightblue" stroke="midnightblue" points="125.19,-51.5 115.19,-55 125.19,-58.5 125.19,-51.5"/>
</g>
<!-- Node32 -->
<g id="node31" class="node">
<title>Node32</title>
<g id="a_node31"><a xlink:href="classdrain_1_1CastableIterator.html" target="_top" xlink:title=" ">
<polygon fill="white" stroke="black" points="910,-227.5 910,-246.5 1005,-246.5 1005,-227.5 910,-227.5"/>
<text text-anchor="middle" x="957.5" y="-234.5" font-family="Helvetica,sans-Serif" font-size="10.00">CastableIterator</text>
</a>
</g>
</g>
<!-- Node32&#45;&gt;Node14 -->
<g id="edge31" class="edge">
<title>Node32&#45;&gt;Node14</title>
<path fill="none" stroke="#9a32cd" stroke-dasharray="5,2" d="M1015.64,-237C1095.79,-237 1239.43,-237 1307.81,-237"/>
<polygon fill="#9a32cd" stroke="#9a32cd" points="1015.24,-233.5 1005.24,-237 1015.24,-240.5 1015.24,-233.5"/>
<text text-anchor="middle" x="1101" y="-251" font-family="Helvetica,sans-Serif" font-size="10.00"> segmentEnd</text>
<text text-anchor="middle" x="1101" y="-240" font-family="Helvetica,sans-Serif" font-size="10.00">segmentBegin</text>
</g>
<!-- Node33&#45;&gt;Node32 -->
<g id="edge32" class="edge">
<title>Node33&#45;&gt;Node32</title>
<path fill="none" stroke="darkgreen" d="M553.46,-237C634.82,-237 822.47,-237 909.99,-237"/>
<polygon fill="darkgreen" stroke="darkgreen" points="553.16,-233.5 543.16,-237 553.16,-240.5 553.16,-233.5"/>
</g>
<!-- Node34 -->
<g id="node33" class="node">
<title>Node34</title>
<g id="a_node33"><a xlink:href="classdrain_1_1FlexVariableMap.html" target="_top" xlink:title="A map of FlexVariable:s.">
<polygon fill="white" stroke="black" points="1051.5,-43.5 1051.5,-62.5 1150.5,-62.5 1150.5,-43.5 1051.5,-43.5"/>
<text text-anchor="middle" x="1101" y="-50.5" font-family="Helvetica,sans-Serif" font-size="10.00">FlexVariableMap</text>
</a>
</g>
</g>
<!-- Node34&#45;&gt;Node14 -->
<g id="edge34" class="edge">
<title>Node34&#45;&gt;Node14</title>
<path fill="none" stroke="#9a32cd" stroke-dasharray="5,2" d="M1138.87,-40.68C1175.37,-31.04 1230.49,-23.78 1264,-54 1291.23,-78.55 1258.5,-189.86 1282,-218 1288.54,-225.83 1298.14,-230.52 1307.93,-233.31"/>
<polygon fill="#9a32cd" stroke="#9a32cd" points="1137.78,-37.35 1129.11,-43.43 1139.68,-44.09 1137.78,-37.35"/>
<text text-anchor="middle" x="1230.5" y="-68" font-family="Helvetica,sans-Serif" font-size="10.00"> propertiesPtr</text>
<text text-anchor="middle" x="1230.5" y="-57" font-family="Helvetica,sans-Serif" font-size="10.00">properties</text>
</g>
<!-- Node35 -->
<g id="node34" class="node">
<title>Node35</title>
<g id="a_node34"><a xlink:href="classdrain_1_1SmartMap.html" target="_top" xlink:title=" ">
<polygon fill="white" stroke="black" points="732,-43.5 732,-62.5 883,-62.5 883,-43.5 732,-43.5"/>
<text text-anchor="middle" x="807.5" y="-50.5" font-family="Helvetica,sans-Serif" font-size="10.00">SmartMap&lt; FlexVariable &gt;</text>
</a>
</g>
</g>
<!-- Node35&#45;&gt;Node34 -->
<g id="edge35" class="edge">
<title>Node35&#45;&gt;Node34</title>
<path fill="none" stroke="midnightblue" d="M893.27,-53C944.56,-53 1008.13,-53 1051.13,-53"/>
<polygon fill="midnightblue" stroke="midnightblue" points="893.19,-49.5 883.19,-53 893.19,-56.5 893.19,-49.5"/>
</g>
<!-- Node36 -->
<g id="node35" class="node">
<title>Node36</title>
<g id="a_node35"><a xlink:title=" ">
<polygon fill="white" stroke="#bfbfbf" points="425,-43.5 425,-62.5 602,-62.5 602,-43.5 425,-43.5"/>
<text text-anchor="middle" x="513.5" y="-50.5" font-family="Helvetica,sans-Serif" font-size="10.00">map&lt; std::string, FlexVariable &gt;</text>
</a>
</g>
</g>
<!-- Node36&#45;&gt;Node35 -->
<g id="edge36" class="edge">
<title>Node36&#45;&gt;Node35</title>
<path fill="none" stroke="midnightblue" d="M612.42,-53C651.38,-53 695.48,-53 731.78,-53"/>
<polygon fill="midnightblue" stroke="midnightblue" points="612.11,-49.5 602.11,-53 612.11,-56.5 612.11,-49.5"/>
</g>
<!-- Node37 -->
<g id="node36" class="node">
<title>Node37</title>
<g id="a_node36"><a xlink:href="classdrain_1_1Range.html" target="_top" xlink:title=" ">
<polygon fill="white" stroke="black" points="1534.5,-214.5 1534.5,-233.5 1617.5,-233.5 1617.5,-214.5 1534.5,-214.5"/>
<text text-anchor="middle" x="1576" y="-221.5" font-family="Helvetica,sans-Serif" font-size="10.00">Range&lt; int &gt;</text>
</a>
</g>
</g>
<!-- Node37&#45;&gt;Node9 -->
<g id="edge37" class="edge">
<title>Node37&#45;&gt;Node9</title>
<path fill="none" stroke="#9a32cd" stroke-dasharray="5,2" d="M1627.95,-233.78C1639.13,-235.54 1650.93,-237.09 1662,-238 1703.64,-241.41 1714.27,-240.07 1756,-238 1970.58,-227.35 2023.9,-217.31 2237,-190 2253.89,-187.84 2272.19,-185.14 2288.9,-182.53"/>
<polygon fill="#9a32cd" stroke="#9a32cd" points="1628.34,-230.3 1617.9,-232.12 1627.2,-237.2 1628.34,-230.3"/>
<text text-anchor="middle" x="1935.5" y="-242" font-family="Helvetica,sans-Serif" font-size="10.00"> jRange</text>
<text text-anchor="middle" x="1935.5" y="-231" font-family="Helvetica,sans-Serif" font-size="10.00">iRange</text>
</g>
<!-- Node37&#45;&gt;Node51 -->
<g id="edge55" class="edge">
<title>Node37&#45;&gt;Node51</title>
<path fill="none" stroke="#9a32cd" stroke-dasharray="5,2" d="M1627.75,-217.1C1663.6,-212.18 1712.77,-205.34 1756,-199 1761.83,-198.14 1767.9,-197.24 1773.97,-196.32"/>
<polygon fill="#9a32cd" stroke="#9a32cd" points="1626.98,-213.68 1617.54,-218.5 1627.93,-220.61 1626.98,-213.68"/>
<text text-anchor="middle" x="1709" y="-226" font-family="Helvetica,sans-Serif" font-size="10.00"> yRange</text>
<text text-anchor="middle" x="1709" y="-215" font-family="Helvetica,sans-Serif" font-size="10.00">xRange</text>
</g>
<!-- Node38 -->
<g id="node37" class="node">
<title>Node38</title>
<g id="a_node37"><a xlink:href="classdrain_1_1UniTuple.html" target="_top" xlink:title=" ">
<polygon fill="white" stroke="black" points="1294,-189.5 1294,-208.5 1400,-208.5 1400,-189.5 1294,-189.5"/>
<text text-anchor="middle" x="1347" y="-196.5" font-family="Helvetica,sans-Serif" font-size="10.00">UniTuple&lt; int, 2 &gt;</text>
</a>
</g>
</g>
<!-- Node38&#45;&gt;Node37 -->
<g id="edge38" class="edge">
<title>Node38&#45;&gt;Node37</title>
<path fill="none" stroke="midnightblue" d="M1410.16,-205.85C1449.77,-210.21 1499.94,-215.73 1534.47,-219.54"/>
<polygon fill="midnightblue" stroke="midnightblue" points="1410.4,-202.35 1400.08,-204.74 1409.64,-209.31 1410.4,-202.35"/>
</g>
<!-- Node44 -->
<g id="node43" class="node">
<title>Node44</title>
<g id="a_node43"><a xlink:href="classdrain_1_1Frame2D.html" target="_top" xlink:title=" ">
<polygon fill="white" stroke="black" points="1528,-176.5 1528,-195.5 1624,-195.5 1624,-176.5 1528,-176.5"/>
<text text-anchor="middle" x="1576" y="-183.5" font-family="Helvetica,sans-Serif" font-size="10.00">Frame2D&lt; int &gt;</text>
</a>
</g>
</g>
<!-- Node38&#45;&gt;Node44 -->
<g id="edge45" class="edge">
<title>Node38&#45;&gt;Node44</title>
<path fill="none" stroke="midnightblue" d="M1410.28,-195.43C1447.38,-193.31 1493.73,-190.65 1527.8,-188.7"/>
<polygon fill="midnightblue" stroke="midnightblue" points="1409.86,-191.95 1400.08,-196.02 1410.26,-198.94 1409.86,-191.95"/>
</g>
<!-- Node50 -->
<g id="node49" class="node">
<title>Node50</title>
<g id="a_node49"><a xlink:href="structdrain_1_1Point2D.html" target="_top" xlink:title=" ">
<polygon fill="white" stroke="black" points="1664,-273.5 1664,-292.5 1754,-292.5 1754,-273.5 1664,-273.5"/>
<text text-anchor="middle" x="1709" y="-280.5" font-family="Helvetica,sans-Serif" font-size="10.00">Point2D&lt; int &gt;</text>
</a>
</g>
</g>
<!-- Node38&#45;&gt;Node50 -->
<g id="edge53" class="edge">
<title>Node38&#45;&gt;Node50</title>
<path fill="none" stroke="midnightblue" d="M1391.83,-211.49C1398.61,-213.57 1405.52,-215.78 1412,-218 1420.12,-220.78 1421.8,-222.47 1430,-225 1510.81,-249.89 1608.11,-267.46 1663.54,-276.35"/>
<polygon fill="midnightblue" stroke="midnightblue" points="1392.63,-208.08 1382.04,-208.54 1390.61,-214.78 1392.63,-208.08"/>
</g>
<!-- Node39 -->
<g id="node38" class="node">
<title>Node39</title>
<g id="a_node38"><a xlink:href="classdrain_1_1image_1_1GaussianWindowConf.html" target="_top" xlink:title="Extends WindowConfig with radius.">
<polygon fill="white" stroke="black" points="2005,-131.5 2005,-150.5 2128,-150.5 2128,-131.5 2005,-131.5"/>
<text text-anchor="middle" x="2066.5" y="-138.5" font-family="Helvetica,sans-Serif" font-size="10.00">GaussianWindowConf</text>
</a>
</g>
</g>
<!-- Node39&#45;&gt;Node9 -->
<g id="edge39" class="edge">
<title>Node39&#45;&gt;Node9</title>
<path fill="none" stroke="#9a32cd" stroke-dasharray="5,2" d="M2138.04,-149.09C2176.24,-153.47 2223.64,-158.91 2263.59,-163.49"/>
<polygon fill="#9a32cd" stroke="#9a32cd" points="2138.37,-145.61 2128.04,-147.94 2137.57,-152.56 2138.37,-145.61"/>
<text text-anchor="middle" x="2206.5" y="-162" font-family="Helvetica,sans-Serif" font-size="10.00"> conf</text>
</g>
<!-- Node40 -->
<g id="node39" class="node">
<title>Node40</title>
<g id="a_node39"><a xlink:href="classdrain_1_1image_1_1WindowConfig.html" target="_top" xlink:title="Base class for configurations applied in image processing windows, e.g. for operators of type WindowO...">
<polygon fill="white" stroke="black" points="1791.5,-131.5 1791.5,-150.5 1878.5,-150.5 1878.5,-131.5 1791.5,-131.5"/>
<text text-anchor="middle" x="1835" y="-138.5" font-family="Helvetica,sans-Serif" font-size="10.00">WindowConfig</text>
</a>
</g>
</g>
<!-- Node40&#45;&gt;Node39 -->
<g id="edge40" class="edge">
<title>Node40&#45;&gt;Node39</title>
<path fill="none" stroke="midnightblue" d="M1889.01,-141C1923.61,-141 1968.9,-141 2004.93,-141"/>
<polygon fill="midnightblue" stroke="midnightblue" points="1888.63,-137.5 1878.63,-141 1888.63,-144.5 1888.63,-137.5"/>
</g>
<!-- Node41 -->
<g id="node40" class="node">
<title>Node41</title>
<g id="a_node40"><a xlink:href="classdrain_1_1VariableMap.html" target="_top" xlink:title="A map of Variables.">
<polygon fill="white" stroke="black" points="1537,-126.5 1537,-145.5 1615,-145.5 1615,-126.5 1537,-126.5"/>
<text text-anchor="middle" x="1576" y="-133.5" font-family="Helvetica,sans-Serif" font-size="10.00">VariableMap</text>
</a>
</g>
</g>
<!-- Node41&#45;&gt;Node40 -->
<g id="edge41" class="edge">
<title>Node41&#45;&gt;Node40</title>
<path fill="none" stroke="#9a32cd" stroke-dasharray="5,2" d="M1625.12,-125.33C1637.1,-123.12 1649.97,-121.12 1662,-120 1703.6,-116.12 1714.58,-114.52 1756,-120 1772.82,-122.22 1791.17,-127.04 1805.84,-131.5"/>
<polygon fill="#9a32cd" stroke="#9a32cd" points="1624.45,-121.9 1615.29,-127.23 1625.77,-128.77 1624.45,-121.9"/>
<text text-anchor="middle" x="1709" y="-123" font-family="Helvetica,sans-Serif" font-size="10.00"> functorParameters</text>
</g>
<!-- Node42 -->
<g id="node41" class="node">
<title>Node42</title>
<g id="a_node41"><a xlink:href="classdrain_1_1SmartMap.html" target="_top" xlink:title=" ">
<polygon fill="white" stroke="black" points="1282,-126.5 1282,-145.5 1412,-145.5 1412,-126.5 1282,-126.5"/>
<text text-anchor="middle" x="1347" y="-133.5" font-family="Helvetica,sans-Serif" font-size="10.00">SmartMap&lt; Variable &gt;</text>
</a>
</g>
</g>
<!-- Node42&#45;&gt;Node41 -->
<g id="edge42" class="edge">
<title>Node42&#45;&gt;Node41</title>
<path fill="none" stroke="midnightblue" d="M1422.24,-136C1460.57,-136 1505.71,-136 1536.94,-136"/>
<polygon fill="midnightblue" stroke="midnightblue" points="1422.14,-132.5 1412.14,-136 1422.14,-139.5 1422.14,-132.5"/>
</g>
<!-- Node43 -->
<g id="node42" class="node">
<title>Node43</title>
<g id="a_node42"><a xlink:title=" ">
<polygon fill="white" stroke="#bfbfbf" points="1023,-126.5 1023,-145.5 1179,-145.5 1179,-126.5 1023,-126.5"/>
<text text-anchor="middle" x="1101" y="-133.5" font-family="Helvetica,sans-Serif" font-size="10.00">map&lt; std::string, Variable &gt;</text>
</a>
</g>
</g>
<!-- Node43&#45;&gt;Node42 -->
<g id="edge43" class="edge">
<title>Node43&#45;&gt;Node42</title>
<path fill="none" stroke="midnightblue" d="M1189.43,-136C1219.98,-136 1253.69,-136 1281.97,-136"/>
<polygon fill="midnightblue" stroke="midnightblue" points="1189.2,-132.5 1179.2,-136 1189.2,-139.5 1189.2,-132.5"/>
</g>
<!-- Node44&#45;&gt;Node40 -->
<g id="edge44" class="edge">
<title>Node44&#45;&gt;Node40</title>
<path fill="none" stroke="#9a32cd" stroke-dasharray="5,2" d="M1634.17,-175.89C1643.47,-174.26 1653,-172.58 1662,-171 1706.04,-163.27 1756.43,-154.49 1791.23,-148.44"/>
<polygon fill="#9a32cd" stroke="#9a32cd" points="1633.45,-172.47 1624.21,-177.65 1634.66,-179.36 1633.45,-172.47"/>
<text text-anchor="middle" x="1709" y="-174" font-family="Helvetica,sans-Serif" font-size="10.00"> frame</text>
</g>
<!-- Node44&#45;&gt;Node51 -->
<g id="edge56" class="edge">
<title>Node44&#45;&gt;Node51</title>
<path fill="none" stroke="#9a32cd" stroke-dasharray="5,2" d="M1634.33,-186.22C1675.71,-186.38 1731.47,-186.6 1773.55,-186.76"/>
<polygon fill="#9a32cd" stroke="#9a32cd" points="1634.15,-182.72 1624.14,-186.18 1634.12,-189.72 1634.15,-182.72"/>
<text text-anchor="middle" x="1709" y="-189" font-family="Helvetica,sans-Serif" font-size="10.00"> area</text>
</g>
<!-- Node45 -->
<g id="node44" class="node">
<title>Node45</title>
<g id="a_node44"><a xlink:href="structdrain_1_1UnaryFunctor.html" target="_top" xlink:title=" ">
<polygon fill="white" stroke="black" points="2025.5,-54.5 2025.5,-73.5 2107.5,-73.5 2107.5,-54.5 2025.5,-54.5"/>
<text text-anchor="middle" x="2066.5" y="-61.5" font-family="Helvetica,sans-Serif" font-size="10.00">UnaryFunctor</text>
</a>
</g>
</g>
<!-- Node45&#45;&gt;Node9 -->
<g id="edge46" class="edge">
<title>Node45&#45;&gt;Node9</title>
<path fill="none" stroke="#9a32cd" stroke-dasharray="5,2" d="M2117.67,-74.15C2130.85,-77.07 2145.02,-80.44 2158,-84 2193.65,-93.78 2203.25,-94.93 2237,-110 2272.65,-125.92 2311.66,-150.16 2332.13,-163.45"/>
<polygon fill="#9a32cd" stroke="#9a32cd" points="2118.32,-70.71 2107.81,-72 2116.84,-77.55 2118.32,-70.71"/>
<text text-anchor="middle" x="2206.5" y="-113" font-family="Helvetica,sans-Serif" font-size="10.00"> myFunctor</text>
</g>
<!-- Node46&#45;&gt;Node45 -->
<g id="edge47" class="edge">
<title>Node46&#45;&gt;Node45</title>
<path fill="none" stroke="midnightblue" d="M1872.13,-62.31C1913.83,-62.68 1982.22,-63.27 2025.5,-63.65"/>
<polygon fill="midnightblue" stroke="midnightblue" points="1871.91,-58.81 1861.88,-62.23 1871.85,-65.81 1871.91,-58.81"/>
</g>
<!-- Node47 -->
<g id="node46" class="node">
<title>Node47</title>
<g id="a_node46"><a xlink:href="classdrain_1_1UniCloner.html" target="_top" xlink:title=" ">
<polygon fill="white" stroke="black" points="1975,-93.5 1975,-112.5 2158,-112.5 2158,-93.5 1975,-93.5"/>
<text text-anchor="middle" x="2066.5" y="-100.5" font-family="Helvetica,sans-Serif" font-size="10.00">UniCloner&lt; drain::UnaryFunctor &gt;</text>
</a>
</g>
</g>
<!-- Node47&#45;&gt;Node9 -->
<g id="edge49" class="edge">
<title>Node47&#45;&gt;Node9</title>
<path fill="none" stroke="#9a32cd" stroke-dasharray="5,2" d="M2123.06,-114.62C2134.61,-117.05 2146.7,-119.6 2158,-122 2193.13,-129.47 2202.26,-129.89 2237,-139 2264.92,-146.32 2296.34,-156.26 2318.34,-163.5"/>
<polygon fill="#9a32cd" stroke="#9a32cd" points="2123.59,-111.15 2113.08,-112.52 2122.15,-118 2123.59,-111.15"/>
<text text-anchor="middle" x="2206.5" y="-142" font-family="Helvetica,sans-Serif" font-size="10.00"> unicloner</text>
</g>
<!-- Node48 -->
<g id="node47" class="node">
<title>Node48</title>
<g id="a_node47"><a xlink:href="classdrain_1_1Bank.html" target="_top" xlink:title=" ">
<polygon fill="white" stroke="black" points="1793.5,-92.5 1793.5,-111.5 1876.5,-111.5 1876.5,-92.5 1793.5,-92.5"/>
<text text-anchor="middle" x="1835" y="-99.5" font-family="Helvetica,sans-Serif" font-size="10.00">Bank&lt; T, K &gt;</text>
</a>
</g>
</g>
<!-- Node48&#45;&gt;Node47 -->
<g id="edge50" class="edge">
<title>Node48&#45;&gt;Node47</title>
<path fill="none" stroke="#9a32cd" stroke-dasharray="5,2" d="M1886.82,-102.22C1912.72,-102.33 1945,-102.47 1974.98,-102.61"/>
<polygon fill="#9a32cd" stroke="#9a32cd" points="1886.52,-98.72 1876.5,-102.18 1886.49,-105.72 1886.52,-98.72"/>
<text text-anchor="middle" x="1935.5" y="-105" font-family="Helvetica,sans-Serif" font-size="10.00"> bank</text>
</g>
<!-- Node49 -->
<g id="node48" class="node">
<title>Node49</title>
<g id="a_node48"><a xlink:title=" ">
<polygon fill="white" stroke="#bfbfbf" points="1508,-39 1508,-69 1644,-69 1644,-39 1508,-39"/>
<text text-anchor="start" x="1516" y="-57" font-family="Helvetica,sans-Serif" font-size="10.00">map&lt; std::string, Cloner</text>
<text text-anchor="middle" x="1576" y="-46" font-family="Helvetica,sans-Serif" font-size="10.00">Base&lt; T &gt; * &gt;</text>
</a>
</g>
</g>
<!-- Node49&#45;&gt;Node48 -->
<g id="edge51" class="edge">
<title>Node49&#45;&gt;Node48</title>
<path fill="none" stroke="darkgreen" d="M1654.17,-58.22C1686.03,-61.09 1723.12,-65.92 1756,-74 1764.34,-76.05 1765.95,-78.03 1774,-81 1784.46,-84.86 1796,-88.95 1806.15,-92.47"/>
<polygon fill="darkgreen" stroke="darkgreen" points="1654.29,-54.71 1644.03,-57.35 1653.69,-61.69 1654.29,-54.71"/>
</g>
<!-- Node50&#45;&gt;Node9 -->
<g id="edge52" class="edge">
<title>Node50&#45;&gt;Node9</title>
<path fill="none" stroke="#9a32cd" stroke-dasharray="5,2" d="M1764.27,-289.52C1862.06,-299.18 2072.92,-310.39 2237,-252 2279.4,-236.91 2319.8,-200.02 2337.34,-182.51"/>
<polygon fill="#9a32cd" stroke="#9a32cd" points="1764.62,-286.04 1754.32,-288.5 1763.91,-293 1764.62,-286.04"/>
<text text-anchor="middle" x="1935.5" y="-300" font-family="Helvetica,sans-Serif" font-size="10.00"> location</text>
</g>
<!-- Node51&#45;&gt;Node9 -->
<g id="edge54" class="edge">
<title>Node51&#45;&gt;Node9</title>
<path fill="none" stroke="#9a32cd" stroke-dasharray="5,2" d="M1906.24,-185.07C1996.88,-182.59 2154.79,-178.26 2254.81,-175.51"/>
<polygon fill="#9a32cd" stroke="#9a32cd" points="1905.96,-181.58 1896.06,-185.35 1906.15,-188.58 1905.96,-181.58"/>
<text text-anchor="middle" x="2066.5" y="-186" font-family="Helvetica,sans-Serif" font-size="10.00"> coordinateHandler</text>
</g>
</g>
</svg>
