<?xml version="1.0" encoding="UTF-8" standalone="no"?>
<!DOCTYPE svg PUBLIC "-//W3C//DTD SVG 1.1//EN"
 "http://www.w3.org/Graphics/SVG/1.1/DTD/svg11.dtd">
<!-- Generated by graphviz version 2.43.0 (0)
 -->
<!-- Title: GeoFrame Pages: 1 -->
<svg width="151pt" height="218pt"
 viewBox="0.00 0.00 151.00 218.00" xmlns="http://www.w3.org/2000/svg" xmlns:xlink="http://www.w3.org/1999/xlink">
<g id="graph0" class="graph" transform="scale(1 1) rotate(0) translate(4 214)">
<title>GeoFrame</title>
<polygon fill="white" stroke="transparent" points="-4,4 -4,-214 147,-214 147,4 -4,4"/>
<!-- Node1 -->
<g id="node1" class="node">
<title>Node1</title>
<g id="a_node1"><a xlink:title="Array with georeferencing support.">
<polygon fill="#bfbfbf" stroke="black" points="38,-190.5 38,-209.5 105,-209.5 105,-190.5 38,-190.5"/>
<text text-anchor="middle" x="71.5" y="-197.5" font-family="Helvetica,sans-Serif" font-size="10.00">GeoFrame</text>
</a>
</g>
</g>
<!-- Node2 -->
<g id="node2" class="node">
<title>Node2</title>
<g id="a_node2"><a xlink:href="classdrain_1_1image_1_1AccumulatorGeo.html" target="_top" xlink:title=" ">
<polygon fill="white" stroke="black" points="22.5,-134.5 22.5,-153.5 120.5,-153.5 120.5,-134.5 22.5,-134.5"/>
<text text-anchor="middle" x="71.5" y="-141.5" font-family="Helvetica,sans-Serif" font-size="10.00">AccumulatorGeo</text>
</a>
</g>
</g>
<!-- Node1&#45;&gt;Node2 -->
<g id="edge1" class="edge">
<title>Node1&#45;&gt;Node2</title>
<path fill="none" stroke="midnightblue" d="M71.5,-179.8C71.5,-170.91 71.5,-160.78 71.5,-153.75"/>
<polygon fill="midnightblue" stroke="midnightblue" points="68,-180.08 71.5,-190.08 75,-180.08 68,-180.08"/>
</g>
<!-- Node3 -->
<g id="node3" class="node">
<title>Node3</title>
<g id="a_node3"><a xlink:href="classrack_1_1RadarAccumulator.html" target="_top" xlink:title=" ">
<polygon fill="white" stroke="black" points="0,-56.5 0,-97.5 143,-97.5 143,-56.5 0,-56.5"/>
<text text-anchor="start" x="8" y="-85.5" font-family="Helvetica,sans-Serif" font-size="10.00">RadarAccumulator&lt; drain</text>
<text text-anchor="start" x="8" y="-74.5" font-family="Helvetica,sans-Serif" font-size="10.00">::image::AccumulatorGeo,</text>
<text text-anchor="middle" x="71.5" y="-63.5" font-family="Helvetica,sans-Serif" font-size="10.00"> CartesianODIM &gt;</text>
</a>
</g>
</g>
<!-- Node2&#45;&gt;Node3 -->
<g id="edge2" class="edge">
<title>Node2&#45;&gt;Node3</title>
<path fill="none" stroke="midnightblue" d="M71.5,-124.04C71.5,-115.71 71.5,-105.94 71.5,-97.54"/>
<polygon fill="midnightblue" stroke="midnightblue" points="68,-124.23 71.5,-134.23 75,-124.23 68,-124.23"/>
</g>
<!-- Node4 -->
<g id="node4" class="node">
<title>Node4</title>
<g id="a_node4"><a xlink:href="classrack_1_1Composite.html" target="_top" xlink:title="Cartesian composite (mosaic) of data from several radars.">
<polygon fill="white" stroke="black" points="37,-0.5 37,-19.5 106,-19.5 106,-0.5 37,-0.5"/>
<text text-anchor="middle" x="71.5" y="-7.5" font-family="Helvetica,sans-Serif" font-size="10.00">Composite</text>
</a>
</g>
</g>
<!-- Node3&#45;&gt;Node4 -->
<g id="edge3" class="edge">
<title>Node3&#45;&gt;Node4</title>
<path fill="none" stroke="midnightblue" d="M71.5,-46.26C71.5,-36.56 71.5,-26.52 71.5,-19.65"/>
<polygon fill="midnightblue" stroke="midnightblue" points="68,-46.5 71.5,-56.5 75,-46.5 68,-46.5"/>
</g>
</g>
</svg>
