<?xml version="1.0" encoding="UTF-8" standalone="no"?>
<!DOCTYPE svg PUBLIC "-//W3C//DTD SVG 1.1//EN"
 "http://www.w3.org/Graphics/SVG/1.1/DTD/svg11.dtd">
<!-- Generated by graphviz version 2.43.0 (0)
 -->
<!-- Title: ImageMod Pages: 1 -->
<svg width="553pt" height="1480pt"
 viewBox="0.00 0.00 553.00 1480.00" xmlns="http://www.w3.org/2000/svg" xmlns:xlink="http://www.w3.org/1999/xlink">
<g id="graph0" class="graph" transform="scale(1 1) rotate(0) translate(4 1476)">
<title>ImageMod</title>
<polygon fill="white" stroke="transparent" points="-4,4 -4,-1476 549,-1476 549,4 -4,4"/>
<!-- Node1 -->
<g id="node1" class="node">
<title>Node1</title>
<g id="a_node1"><a xlink:title="Class for operations that modify an existing image instead of producing a new image.">
<polygon fill="#bfbfbf" stroke="black" points="97,-841 97,-860 165,-860 165,-841 97,-841"/>
<text text-anchor="middle" x="131" y="-848" font-family="Helvetica,sans-Serif" font-size="10.00">ImageMod</text>
</a>
</g>
</g>
<!-- Node3 -->
<g id="node3" class="node">
<title>Node3</title>
<g id="a_node3"><a xlink:href="classdrain_1_1image_1_1ImageBox.html" target="_top" xlink:title="Plots a single value in an image. The value will be scaled; notice that alpha channel is scaled by de...">
<polygon fill="white" stroke="black" points="220.5,-1031 220.5,-1050 286.5,-1050 286.5,-1031 220.5,-1031"/>
<text text-anchor="middle" x="253.5" y="-1038" font-family="Helvetica,sans-Serif" font-size="10.00">ImageBox</text>
</a>
</g>
</g>
<!-- Node1&#45;&gt;Node3 -->
<g id="edge2" class="edge">
<title>Node1&#45;&gt;Node3</title>
<path fill="none" stroke="midnightblue" d="M134.65,-870.07C140.41,-905.16 157.26,-979.05 201,-1021.5 206.4,-1026.74 213.38,-1030.56 220.43,-1033.33"/>
<polygon fill="midnightblue" stroke="midnightblue" points="138.11,-869.5 133.15,-860.13 131.19,-870.54 138.11,-869.5"/>
</g>
<!-- Node4 -->
<g id="node4" class="node">
<title>Node4</title>
<g id="a_node4"><a xlink:href="classdrain_1_1image_1_1ImageChannels.html" target="_top" xlink:title=" ">
<polygon fill="white" stroke="black" points="207.5,-993 207.5,-1012 299.5,-1012 299.5,-993 207.5,-993"/>
<text text-anchor="middle" x="253.5" y="-1000" font-family="Helvetica,sans-Serif" font-size="10.00">ImageChannels</text>
</a>
</g>
</g>
<!-- Node1&#45;&gt;Node4 -->
<g id="edge3" class="edge">
<title>Node1&#45;&gt;Node4</title>
<path fill="none" stroke="midnightblue" d="M137.09,-869.67C145.65,-898.3 165.54,-952.22 201,-983.5 205.36,-987.35 210.57,-990.44 215.97,-992.92"/>
<polygon fill="midnightblue" stroke="midnightblue" points="140.46,-868.7 134.36,-860.03 133.72,-870.61 140.46,-868.7"/>
</g>
<!-- Node5 -->
<g id="node5" class="node">
<title>Node5</title>
<g id="a_node5"><a xlink:href="classdrain_1_1image_1_1ImageCoordPolicy.html" target="_top" xlink:title=" ">
<polygon fill="white" stroke="black" points="201,-955 201,-974 306,-974 306,-955 201,-955"/>
<text text-anchor="middle" x="253.5" y="-962" font-family="Helvetica,sans-Serif" font-size="10.00">ImageCoordPolicy</text>
</a>
</g>
</g>
<!-- Node1&#45;&gt;Node5 -->
<g id="edge4" class="edge">
<title>Node1&#45;&gt;Node5</title>
<path fill="none" stroke="midnightblue" d="M141.11,-869C152.43,-890.24 173.64,-924.79 201,-945.5 206.01,-949.3 211.87,-952.4 217.79,-954.91"/>
<polygon fill="midnightblue" stroke="midnightblue" points="144.18,-867.32 136.49,-860.02 137.95,-870.52 144.18,-867.32"/>
</g>
<!-- Node6 -->
<g id="node6" class="node">
<title>Node6</title>
<g id="a_node6"><a xlink:href="classdrain_1_1image_1_1ImageEncoding.html" target="_top" xlink:title="Changes the type of a target image.">
<polygon fill="white" stroke="black" points="207.5,-917 207.5,-936 299.5,-936 299.5,-917 207.5,-917"/>
<text text-anchor="middle" x="253.5" y="-924" font-family="Helvetica,sans-Serif" font-size="10.00">ImageEncoding</text>
</a>
</g>
</g>
<!-- Node1&#45;&gt;Node6 -->
<g id="edge5" class="edge">
<title>Node1&#45;&gt;Node6</title>
<path fill="none" stroke="midnightblue" d="M148.9,-867.25C162.17,-879.68 181.59,-896.34 201,-907.5 207.36,-911.16 214.55,-914.34 221.5,-916.99"/>
<polygon fill="midnightblue" stroke="midnightblue" points="151.13,-864.54 141.49,-860.15 146.29,-869.6 151.13,-864.54"/>
</g>
<!-- Node7 -->
<g id="node7" class="node">
<title>Node7</title>
<g id="a_node7"><a xlink:href="classdrain_1_1image_1_1ImageFill.html" target="_top" xlink:title=" ">
<polygon fill="white" stroke="black" points="223,-879 223,-898 284,-898 284,-879 223,-879"/>
<text text-anchor="middle" x="253.5" y="-886" font-family="Helvetica,sans-Serif" font-size="10.00">ImageFill</text>
</a>
</g>
</g>
<!-- Node1&#45;&gt;Node7 -->
<g id="edge6" class="edge">
<title>Node1&#45;&gt;Node7</title>
<path fill="none" stroke="midnightblue" d="M172.37,-863.23C188.91,-868.45 207.71,-874.37 222.94,-879.18"/>
<polygon fill="midnightblue" stroke="midnightblue" points="173,-859.76 162.41,-860.09 170.89,-866.43 173,-859.76"/>
</g>
<!-- Node8 -->
<g id="node8" class="node">
<title>Node8</title>
<g id="a_node8"><a xlink:href="classdrain_1_1image_1_1ImageGeometry.html" target="_top" xlink:title=" ">
<polygon fill="white" stroke="black" points="205.5,-841 205.5,-860 301.5,-860 301.5,-841 205.5,-841"/>
<text text-anchor="middle" x="253.5" y="-848" font-family="Helvetica,sans-Serif" font-size="10.00">ImageGeometry</text>
</a>
</g>
</g>
<!-- Node1&#45;&gt;Node8 -->
<g id="edge7" class="edge">
<title>Node1&#45;&gt;Node8</title>
<path fill="none" stroke="midnightblue" d="M175.48,-850.5C185.19,-850.5 195.53,-850.5 205.38,-850.5"/>
<polygon fill="midnightblue" stroke="midnightblue" points="175.25,-847 165.25,-850.5 175.25,-854 175.25,-847"/>
</g>
<!-- Node9 -->
<g id="node9" class="node">
<title>Node9</title>
<g id="a_node9"><a xlink:href="classdrain_1_1image_1_1ImageHistogram.html" target="_top" xlink:title=" ">
<polygon fill="white" stroke="black" points="204.5,-803 204.5,-822 302.5,-822 302.5,-803 204.5,-803"/>
<text text-anchor="middle" x="253.5" y="-810" font-family="Helvetica,sans-Serif" font-size="10.00">ImageHistogram</text>
</a>
</g>
</g>
<!-- Node1&#45;&gt;Node9 -->
<g id="edge8" class="edge">
<title>Node1&#45;&gt;Node9</title>
<path fill="none" stroke="midnightblue" d="M172.21,-837.82C188.49,-832.69 206.98,-826.86 222.1,-822.09"/>
<polygon fill="midnightblue" stroke="midnightblue" points="170.89,-834.57 162.41,-840.91 173,-841.24 170.89,-834.57"/>
</g>
<!-- Node10 -->
<g id="node10" class="node">
<title>Node10</title>
<g id="a_node10"><a xlink:href="classdrain_1_1image_1_1ImageOp.html" target="_top" xlink:title="Base class for image processing functions.">
<polygon fill="white" stroke="red" points="223,-765 223,-784 284,-784 284,-765 223,-765"/>
<text text-anchor="middle" x="253.5" y="-772" font-family="Helvetica,sans-Serif" font-size="10.00">ImageOp</text>
</a>
</g>
</g>
<!-- Node1&#45;&gt;Node10 -->
<g id="edge9" class="edge">
<title>Node1&#45;&gt;Node10</title>
<path fill="none" stroke="midnightblue" d="M148.9,-833.75C162.17,-821.32 181.59,-804.66 201,-793.5 207.77,-789.6 215.49,-786.25 222.86,-783.5"/>
<polygon fill="midnightblue" stroke="midnightblue" points="146.29,-831.4 141.49,-840.85 151.13,-836.46 146.29,-831.4"/>
</g>
<!-- Node101 -->
<g id="node47" class="node">
<title>Node101</title>
<g id="a_node47"><a xlink:href="classdrain_1_1image_1_1ImagePlot.html" target="_top" xlink:title="Plots a single value in an image. The value will be scaled; notice that alpha channel is scaled by de...">
<polygon fill="white" stroke="black" points="220.5,-727 220.5,-746 286.5,-746 286.5,-727 220.5,-727"/>
<text text-anchor="middle" x="253.5" y="-734" font-family="Helvetica,sans-Serif" font-size="10.00">ImagePlot</text>
</a>
</g>
</g>
<!-- Node1&#45;&gt;Node101 -->
<g id="edge46" class="edge">
<title>Node1&#45;&gt;Node101</title>
<path fill="none" stroke="midnightblue" d="M141.11,-832C152.43,-810.76 173.64,-776.21 201,-755.5 206.77,-751.13 213.66,-747.68 220.49,-744.99"/>
<polygon fill="midnightblue" stroke="midnightblue" points="137.95,-830.48 136.49,-840.98 144.18,-833.68 137.95,-830.48"/>
</g>
<!-- Node102 -->
<g id="node48" class="node">
<title>Node102</title>
<g id="a_node48"><a xlink:href="classdrain_1_1image_1_1ImagePlotFile.html" target="_top" xlink:title=" ">
<polygon fill="white" stroke="black" points="212,-689 212,-708 295,-708 295,-689 212,-689"/>
<text text-anchor="middle" x="253.5" y="-696" font-family="Helvetica,sans-Serif" font-size="10.00">ImagePlotFile</text>
</a>
</g>
</g>
<!-- Node1&#45;&gt;Node102 -->
<g id="edge47" class="edge">
<title>Node1&#45;&gt;Node102</title>
<path fill="none" stroke="midnightblue" d="M137.09,-831.33C145.65,-802.7 165.54,-748.78 201,-717.5 205.36,-713.65 210.57,-710.56 215.97,-708.08"/>
<polygon fill="midnightblue" stroke="midnightblue" points="133.72,-830.39 134.36,-840.97 140.46,-832.3 133.72,-830.39"/>
</g>
<!-- Node103 -->
<g id="node49" class="node">
<title>Node103</title>
<g id="a_node49"><a xlink:href="classdrain_1_1image_1_1ImageSampler.html" target="_top" xlink:title="Traverses image, returning samples.">
<polygon fill="white" stroke="black" points="209.5,-651 209.5,-670 297.5,-670 297.5,-651 209.5,-651"/>
<text text-anchor="middle" x="253.5" y="-658" font-family="Helvetica,sans-Serif" font-size="10.00">ImageSampler</text>
</a>
</g>
</g>
<!-- Node1&#45;&gt;Node103 -->
<g id="edge48" class="edge">
<title>Node1&#45;&gt;Node103</title>
<path fill="none" stroke="midnightblue" d="M134.65,-830.93C140.41,-795.84 157.26,-721.95 201,-679.5 204.97,-675.65 209.78,-672.57 214.85,-670.11"/>
<polygon fill="midnightblue" stroke="midnightblue" points="131.19,-830.46 133.15,-840.87 138.11,-831.5 131.19,-830.46"/>
</g>
<!-- Node2 -->
<g id="node2" class="node">
<title>Node2</title>
<g id="a_node2"><a xlink:href="classdrain_1_1BeanLike.html" target="_top" xlink:title="Something which has a name, a description and possibly some parameters of varying type.">
<polygon fill="white" stroke="black" points="0,-841 0,-860 61,-860 61,-841 0,-841"/>
<text text-anchor="middle" x="30.5" y="-848" font-family="Helvetica,sans-Serif" font-size="10.00">BeanLike</text>
</a>
</g>
</g>
<!-- Node2&#45;&gt;Node1 -->
<g id="edge1" class="edge">
<title>Node2&#45;&gt;Node1</title>
<path fill="none" stroke="midnightblue" d="M71.12,-850.5C79.59,-850.5 88.46,-850.5 96.67,-850.5"/>
<polygon fill="midnightblue" stroke="midnightblue" points="71.05,-847 61.05,-850.5 71.05,-854 71.05,-847"/>
</g>
<!-- Node11 -->
<g id="node11" class="node">
<title>Node11</title>
<g id="a_node11"><a xlink:href="classdrain_1_1image_1_1DistanceTransformOp.html" target="_top" xlink:title=" ">
<polygon fill="white" stroke="red" points="358.5,-1441.5 358.5,-1471.5 528.5,-1471.5 528.5,-1441.5 358.5,-1441.5"/>
<text text-anchor="start" x="366.5" y="-1459.5" font-family="Helvetica,sans-Serif" font-size="10.00">DistanceTransformOp</text>
<text text-anchor="middle" x="443.5" y="-1448.5" font-family="Helvetica,sans-Serif" font-size="10.00">&lt; DistanceModelExponential &gt;</text>
</a>
</g>
</g>
<!-- Node10&#45;&gt;Node11 -->
<g id="edge10" class="edge">
<title>Node10&#45;&gt;Node11</title>
<path fill="none" stroke="midnightblue" d="M293.7,-783.22C298.47,-785.81 302.79,-789.16 306,-793.5 390.57,-907.85 250.78,-1323.38 342,-1432.5 346.6,-1438 352.22,-1442.38 358.42,-1445.83"/>
<polygon fill="midnightblue" stroke="midnightblue" points="294.71,-779.84 284.14,-779.13 291.96,-786.28 294.71,-779.84"/>
</g>
<!-- Node15 -->
<g id="node12" class="node">
<title>Node15</title>
<g id="a_node12"><a xlink:href="classdrain_1_1image_1_1DistanceTransformOp.html" target="_top" xlink:title=" ">
<polygon fill="white" stroke="red" points="372.5,-1392.5 372.5,-1422.5 514.5,-1422.5 514.5,-1392.5 372.5,-1392.5"/>
<text text-anchor="start" x="380.5" y="-1410.5" font-family="Helvetica,sans-Serif" font-size="10.00">DistanceTransformOp</text>
<text text-anchor="middle" x="443.5" y="-1399.5" font-family="Helvetica,sans-Serif" font-size="10.00">&lt; DistanceModelLinear &gt;</text>
</a>
</g>
</g>
<!-- Node10&#45;&gt;Node15 -->
<g id="edge11" class="edge">
<title>Node10&#45;&gt;Node15</title>
<path fill="none" stroke="midnightblue" d="M293.69,-783.24C298.46,-785.82 302.78,-789.17 306,-793.5 384.23,-898.74 258.12,-1281.7 342,-1382.5 349.88,-1391.97 360.74,-1398.16 372.41,-1402.15"/>
<polygon fill="midnightblue" stroke="midnightblue" points="294.69,-779.86 284.12,-779.15 291.94,-786.3 294.69,-779.86"/>
</g>
<!-- Node19 -->
<g id="node13" class="node">
<title>Node19</title>
<g id="a_node13"><a xlink:href="classdrain_1_1image_1_1CatenatorOp.html" target="_top" xlink:title="Operator for concatenating images vertically or as channels.">
<polygon fill="white" stroke="red" points="404.5,-1354 404.5,-1373 482.5,-1373 482.5,-1354 404.5,-1354"/>
<text text-anchor="middle" x="443.5" y="-1361" font-family="Helvetica,sans-Serif" font-size="10.00">CatenatorOp</text>
</a>
</g>
</g>
<!-- Node10&#45;&gt;Node19 -->
<g id="edge12" class="edge">
<title>Node10&#45;&gt;Node19</title>
<path fill="none" stroke="midnightblue" d="M293.67,-783.25C298.44,-785.83 302.77,-789.17 306,-793.5 379.41,-891.83 260.67,-1252.62 342,-1344.5 357.18,-1361.65 382.58,-1366.34 404.05,-1366.77"/>
<polygon fill="midnightblue" stroke="midnightblue" points="294.67,-779.87 284.1,-779.16 291.92,-786.31 294.67,-779.87"/>
</g>
<!-- Node22 -->
<g id="node14" class="node">
<title>Node22</title>
<g id="a_node14"><a xlink:href="classdrain_1_1image_1_1CropOp.html" target="_top" xlink:title=" ">
<polygon fill="white" stroke="black" points="417,-1316 417,-1335 470,-1335 470,-1316 417,-1316"/>
<text text-anchor="middle" x="443.5" y="-1323" font-family="Helvetica,sans-Serif" font-size="10.00">CropOp</text>
</a>
</g>
</g>
<!-- Node10&#45;&gt;Node22 -->
<g id="edge13" class="edge">
<title>Node10&#45;&gt;Node22</title>
<path fill="none" stroke="midnightblue" d="M293.65,-783.26C298.43,-785.84 302.76,-789.18 306,-793.5 374.59,-884.91 266.05,-1221.11 342,-1306.5 360.41,-1327.2 393.7,-1329.73 416.9,-1328.54"/>
<polygon fill="midnightblue" stroke="midnightblue" points="294.65,-779.88 284.08,-779.18 291.9,-786.32 294.65,-779.88"/>
</g>
<!-- Node23 -->
<g id="node15" class="node">
<title>Node23</title>
<g id="a_node15"><a xlink:href="classdrain_1_1image_1_1DifferentialOp.html" target="_top" xlink:title="Virtual base class for horizontal and vertical intensity derivatives.">
<polygon fill="white" stroke="red" points="400.5,-1278 400.5,-1297 486.5,-1297 486.5,-1278 400.5,-1278"/>
<text text-anchor="middle" x="443.5" y="-1285" font-family="Helvetica,sans-Serif" font-size="10.00">DifferentialOp</text>
</a>
</g>
</g>
<!-- Node10&#45;&gt;Node23 -->
<g id="edge14" class="edge">
<title>Node10&#45;&gt;Node23</title>
<path fill="none" stroke="midnightblue" d="M293.63,-783.28C298.41,-785.86 302.75,-789.19 306,-793.5 369.77,-878 271.42,-1189.6 342,-1268.5 356.38,-1284.58 379.75,-1289.68 400.34,-1290.59"/>
<polygon fill="midnightblue" stroke="midnightblue" points="294.63,-779.9 284.05,-779.2 291.88,-786.34 294.63,-779.9"/>
</g>
<!-- Node30 -->
<g id="node16" class="node">
<title>Node30</title>
<g id="a_node16"><a xlink:href="classdrain_1_1image_1_1DistanceTransformOp.html" target="_top" xlink:title=" ">
<polygon fill="white" stroke="red" points="368,-1240 368,-1259 519,-1259 519,-1240 368,-1240"/>
<text text-anchor="middle" x="443.5" y="-1247" font-family="Helvetica,sans-Serif" font-size="10.00">DistanceTransformOp&lt; T &gt;</text>
</a>
</g>
</g>
<!-- Node10&#45;&gt;Node30 -->
<g id="edge15" class="edge">
<title>Node10&#45;&gt;Node30</title>
<path fill="none" stroke="midnightblue" d="M293.6,-783.3C298.39,-785.87 302.73,-789.2 306,-793.5 364.95,-871.08 276.8,-1158.09 342,-1230.5 348.95,-1238.22 357.97,-1243.4 367.76,-1246.81"/>
<polygon fill="midnightblue" stroke="midnightblue" points="294.6,-779.92 284.03,-779.22 291.85,-786.36 294.6,-779.92"/>
</g>
<!-- Node32 -->
<g id="node17" class="node">
<title>Node32</title>
<g id="a_node17"><a xlink:href="classdrain_1_1image_1_1FloodFillOp.html" target="_top" xlink:title="A fill operation for one color.">
<polygon fill="white" stroke="black" points="408,-1202 408,-1221 479,-1221 479,-1202 408,-1202"/>
<text text-anchor="middle" x="443.5" y="-1209" font-family="Helvetica,sans-Serif" font-size="10.00">FloodFillOp</text>
</a>
</g>
</g>
<!-- Node10&#45;&gt;Node32 -->
<g id="edge16" class="edge">
<title>Node10&#45;&gt;Node32</title>
<path fill="none" stroke="midnightblue" d="M293.73,-783.4C298.46,-785.96 302.75,-789.26 306,-793.5 360.14,-864.17 282.17,-1126.57 342,-1192.5 358.23,-1210.38 385.58,-1214.63 407.65,-1214.68"/>
<polygon fill="midnightblue" stroke="midnightblue" points="294.83,-780.07 284.26,-779.33 292.07,-786.5 294.83,-780.07"/>
</g>
<!-- Node33 -->
<g id="node18" class="node">
<title>Node33</title>
<g id="a_node18"><a xlink:href="classdrain_1_1image_1_1FunctorOp.html" target="_top" xlink:title="Class for using simple function objects (like std::functor) for sequential pixel iteration.">
<polygon fill="white" stroke="red" points="396,-1164 396,-1183 491,-1183 491,-1164 396,-1164"/>
<text text-anchor="middle" x="443.5" y="-1171" font-family="Helvetica,sans-Serif" font-size="10.00">FunctorOp&lt; F &gt;</text>
</a>
</g>
</g>
<!-- Node10&#45;&gt;Node33 -->
<g id="edge17" class="edge">
<title>Node10&#45;&gt;Node33</title>
<path fill="none" stroke="midnightblue" d="M293.69,-783.43C298.42,-785.99 302.73,-789.27 306,-793.5 355.33,-857.27 287.54,-1095.06 342,-1154.5 355.49,-1169.23 376.54,-1174.68 395.89,-1176.17"/>
<polygon fill="midnightblue" stroke="midnightblue" points="294.79,-780.1 284.22,-779.36 292.03,-786.53 294.79,-780.1"/>
</g>
<!-- Node38 -->
<g id="node19" class="node">
<title>Node38</title>
<g id="a_node19"><a xlink:href="classdrain_1_1image_1_1HighBoostOp.html" target="_top" xlink:title="Enhances details by mixing original image and result of HighPassOp op.">
<polygon fill="white" stroke="black" points="403.5,-1126 403.5,-1145 483.5,-1145 483.5,-1126 403.5,-1126"/>
<text text-anchor="middle" x="443.5" y="-1133" font-family="Helvetica,sans-Serif" font-size="10.00">HighBoostOp</text>
</a>
</g>
</g>
<!-- Node10&#45;&gt;Node38 -->
<g id="edge18" class="edge">
<title>Node10&#45;&gt;Node38</title>
<path fill="none" stroke="midnightblue" d="M293.65,-783.47C298.39,-786.02 302.71,-789.29 306,-793.5 395.04,-907.24 243.81,-1010.56 342,-1116.5 357.33,-1133.04 382.18,-1137.84 403.34,-1138.49"/>
<polygon fill="midnightblue" stroke="midnightblue" points="294.74,-780.13 284.17,-779.4 291.98,-786.56 294.74,-780.13"/>
</g>
<!-- Node39 -->
<g id="node20" class="node">
<title>Node39</title>
<g id="a_node20"><a xlink:href="classdrain_1_1image_1_1HighPassOp.html" target="_top" xlink:title="Finds details at one&#45;pixel scale, defined as difference of image and its low&#45;pass filtered copy.">
<polygon fill="white" stroke="black" points="406,-1088 406,-1107 481,-1107 481,-1088 406,-1088"/>
<text text-anchor="middle" x="443.5" y="-1095" font-family="Helvetica,sans-Serif" font-size="10.00">HighPassOp</text>
</a>
</g>
</g>
<!-- Node10&#45;&gt;Node39 -->
<g id="edge19" class="edge">
<title>Node10&#45;&gt;Node39</title>
<path fill="none" stroke="midnightblue" d="M293.59,-783.51C298.34,-786.06 302.68,-789.32 306,-793.5 385.43,-893.45 254.53,-985.5 342,-1078.5 358.06,-1095.57 384.28,-1100.09 405.91,-1100.46"/>
<polygon fill="midnightblue" stroke="midnightblue" points="294.68,-780.17 284.11,-779.45 291.92,-786.61 294.68,-780.17"/>
</g>
<!-- Node40 -->
<g id="node21" class="node">
<title>Node40</title>
<g id="a_node21"><a xlink:href="classdrain_1_1image_1_1ImpulseResponseOpBase.html" target="_top" xlink:title=" ">
<polygon fill="white" stroke="red" points="359,-1050 359,-1069 528,-1069 528,-1050 359,-1050"/>
<text text-anchor="middle" x="443.5" y="-1057" font-family="Helvetica,sans-Serif" font-size="10.00">ImpulseResponseOpBase&lt; T &gt;</text>
</a>
</g>
</g>
<!-- Node10&#45;&gt;Node40 -->
<g id="edge20" class="edge">
<title>Node10&#45;&gt;Node40</title>
<path fill="none" stroke="midnightblue" d="M293.52,-783.57C298.28,-786.11 302.64,-789.35 306,-793.5 375.85,-879.69 265.22,-960.42 342,-1040.5 346.79,-1045.5 352.46,-1049.42 358.62,-1052.46"/>
<polygon fill="midnightblue" stroke="midnightblue" points="294.6,-780.23 284.03,-779.52 291.85,-786.66 294.6,-780.23"/>
</g>
<!-- Node42 -->
<g id="node22" class="node">
<title>Node42</title>
<g id="a_node22"><a xlink:href="classdrain_1_1image_1_1MarginalStatisticOp.html" target="_top" xlink:title="Computes horizontal or vertical intensity statistics: iAverage, sum, ...">
<polygon fill="white" stroke="black" points="387,-1012 387,-1031 500,-1031 500,-1012 387,-1012"/>
<text text-anchor="middle" x="443.5" y="-1019" font-family="Helvetica,sans-Serif" font-size="10.00">MarginalStatisticOp</text>
</a>
</g>
</g>
<!-- Node10&#45;&gt;Node42 -->
<g id="edge21" class="edge">
<title>Node10&#45;&gt;Node42</title>
<path fill="none" stroke="midnightblue" d="M293.57,-783.73C298.29,-786.24 302.62,-789.44 306,-793.5 366.29,-865.96 275.89,-935.31 342,-1002.5 353.71,-1014.4 370.37,-1020.12 386.76,-1022.6"/>
<polygon fill="midnightblue" stroke="midnightblue" points="294.76,-780.43 284.19,-779.7 291.99,-786.86 294.76,-780.43"/>
</g>
<!-- Node43 -->
<g id="node23" class="node">
<title>Node43</title>
<g id="a_node23"><a xlink:href="classdrain_1_1image_1_1MotionExtrapolatorOp.html" target="_top" xlink:title=" ">
<polygon fill="white" stroke="black" points="381.5,-974 381.5,-993 505.5,-993 505.5,-974 381.5,-974"/>
<text text-anchor="middle" x="443.5" y="-981" font-family="Helvetica,sans-Serif" font-size="10.00">MotionExtrapolatorOp</text>
</a>
</g>
</g>
<!-- Node10&#45;&gt;Node43 -->
<g id="edge22" class="edge">
<title>Node10&#45;&gt;Node43</title>
<path fill="none" stroke="midnightblue" d="M293.44,-783.85C298.17,-786.34 302.55,-789.5 306,-793.5 356.77,-852.28 286.52,-910.15 342,-964.5 352.53,-974.81 366.79,-980.44 381.27,-983.33"/>
<polygon fill="midnightblue" stroke="midnightblue" points="294.61,-780.54 284.04,-779.83 291.85,-786.98 294.61,-780.54"/>
</g>
<!-- Node44 -->
<g id="node24" class="node">
<title>Node44</title>
<g id="a_node24"><a xlink:href="classdrain_1_1image_1_1MultiThresholdOp.html" target="_top" xlink:title=" ">
<polygon fill="white" stroke="black" points="392,-936 392,-955 495,-955 495,-936 392,-936"/>
<text text-anchor="middle" x="443.5" y="-943" font-family="Helvetica,sans-Serif" font-size="10.00">MultiThresholdOp</text>
</a>
</g>
</g>
<!-- Node10&#45;&gt;Node44 -->
<g id="edge23" class="edge">
<title>Node10&#45;&gt;Node44</title>
<path fill="none" stroke="midnightblue" d="M293.39,-784.11C298.09,-786.57 302.47,-789.64 306,-793.5 347.33,-838.69 297.05,-884.91 342,-926.5 355.36,-938.86 374.13,-944.37 391.84,-946.53"/>
<polygon fill="midnightblue" stroke="midnightblue" points="294.65,-780.85 284.08,-780.12 291.89,-787.28 294.65,-780.85"/>
</g>
<!-- Node45 -->
<g id="node25" class="node">
<title>Node45</title>
<g id="a_node25"><a xlink:href="classdrain_1_1image_1_1NegateOp.html" target="_top" xlink:title=" ">
<polygon fill="white" stroke="black" points="411,-898 411,-917 476,-917 476,-898 411,-898"/>
<text text-anchor="middle" x="443.5" y="-905" font-family="Helvetica,sans-Serif" font-size="10.00">NegateOp</text>
</a>
</g>
</g>
<!-- Node10&#45;&gt;Node45 -->
<g id="edge24" class="edge">
<title>Node10&#45;&gt;Node45</title>
<path fill="none" stroke="midnightblue" d="M293.72,-784.79C298.23,-787.13 302.46,-789.99 306,-793.5 338.07,-825.29 307.4,-859.49 342,-888.5 360.91,-904.36 388.92,-908.6 410.56,-909.16"/>
<polygon fill="midnightblue" stroke="midnightblue" points="294.8,-781.44 284.23,-780.68 292.02,-787.86 294.8,-781.44"/>
</g>
<!-- Node46 -->
<g id="node26" class="node">
<title>Node46</title>
<g id="a_node26"><a xlink:href="classdrain_1_1image_1_1PaletteOp.html" target="_top" xlink:title="Colorizes an image of 1 channel to an image of N channels by using a palette image as a lookup table.">
<polygon fill="white" stroke="black" points="411,-860 411,-879 476,-879 476,-860 411,-860"/>
<text text-anchor="middle" x="443.5" y="-867" font-family="Helvetica,sans-Serif" font-size="10.00">PaletteOp</text>
</a>
</g>
</g>
<!-- Node10&#45;&gt;Node46 -->
<g id="edge25" class="edge">
<title>Node10&#45;&gt;Node46</title>
<path fill="none" stroke="midnightblue" d="M293.4,-785.65C297.9,-787.84 302.22,-790.44 306,-793.5 329.29,-812.35 317.22,-833.65 342,-850.5 362.12,-864.18 389.48,-868.66 410.58,-869.87"/>
<polygon fill="midnightblue" stroke="midnightblue" points="294.61,-782.36 284.04,-781.69 291.89,-788.81 294.61,-782.36"/>
</g>
<!-- Node47 -->
<g id="node27" class="node">
<title>Node47</title>
<g id="a_node27"><a xlink:href="classdrain_1_1image_1_1PixelVectorOp.html" target="_top" xlink:title="A base class for operations between of multi&#45;channel pixels (intensity vectors) of two images.">
<polygon fill="white" stroke="red" points="400.5,-822 400.5,-841 486.5,-841 486.5,-822 400.5,-822"/>
<text text-anchor="middle" x="443.5" y="-829" font-family="Helvetica,sans-Serif" font-size="10.00">PixelVectorOp</text>
</a>
</g>
</g>
<!-- Node10&#45;&gt;Node47 -->
<g id="edge26" class="edge">
<title>Node10&#45;&gt;Node47</title>
<path fill="none" stroke="midnightblue" d="M292.13,-787.72C296.84,-789.57 301.56,-791.52 306,-793.5 322.52,-800.87 324.92,-806.53 342,-812.5 360.61,-819 381.97,-823.44 400.21,-826.38"/>
<polygon fill="midnightblue" stroke="midnightblue" points="293.16,-784.37 282.57,-784.09 290.67,-790.91 293.16,-784.37"/>
</g>
<!-- Node55 -->
<g id="node28" class="node">
<title>Node55</title>
<g id="a_node28"><a xlink:href="classdrain_1_1image_1_1QuadTreeOp.html" target="_top" xlink:title="QuadTrees the image, stretching the image correspondingly.">
<polygon fill="white" stroke="black" points="405.5,-784 405.5,-803 481.5,-803 481.5,-784 405.5,-784"/>
<text text-anchor="middle" x="443.5" y="-791" font-family="Helvetica,sans-Serif" font-size="10.00">QuadTreeOp</text>
</a>
</g>
</g>
<!-- Node10&#45;&gt;Node55 -->
<g id="edge27" class="edge">
<title>Node10&#45;&gt;Node55</title>
<path fill="none" stroke="midnightblue" d="M294.44,-778.54C327.26,-781.85 373.4,-786.52 405.42,-789.75"/>
<polygon fill="midnightblue" stroke="midnightblue" points="294.59,-775.03 284.29,-777.51 293.89,-782 294.59,-775.03"/>
</g>
<!-- Node56 -->
<g id="node29" class="node">
<title>Node56</title>
<g id="a_node29"><a xlink:href="classdrain_1_1image_1_1QualityMixerOp.html" target="_top" xlink:title="Overwrites pixels of destination image in locations where destination weight is lower.">
<polygon fill="white" stroke="black" points="397,-746 397,-765 490,-765 490,-746 397,-746"/>
<text text-anchor="middle" x="443.5" y="-753" font-family="Helvetica,sans-Serif" font-size="10.00">QualityMixerOp</text>
</a>
</g>
</g>
<!-- Node10&#45;&gt;Node56 -->
<g id="edge28" class="edge">
<title>Node10&#45;&gt;Node56</title>
<path fill="none" stroke="midnightblue" d="M294.39,-770.47C324.34,-767.44 365.42,-763.29 396.72,-760.13"/>
<polygon fill="midnightblue" stroke="midnightblue" points="293.89,-767 284.29,-771.49 294.59,-773.97 293.89,-767"/>
</g>
<!-- Node57 -->
<g id="node30" class="node">
<title>Node57</title>
<g id="a_node30"><a xlink:href="classdrain_1_1image_1_1QualityOp.html" target="_top" xlink:title=" ">
<polygon fill="white" stroke="red" points="411,-708 411,-727 476,-727 476,-708 411,-708"/>
<text text-anchor="middle" x="443.5" y="-715" font-family="Helvetica,sans-Serif" font-size="10.00">QualityOp</text>
</a>
</g>
</g>
<!-- Node10&#45;&gt;Node57 -->
<g id="edge29" class="edge">
<title>Node10&#45;&gt;Node57</title>
<path fill="none" stroke="midnightblue" d="M292.13,-761.28C296.84,-759.43 301.56,-757.48 306,-755.5 322.52,-748.13 324.92,-742.47 342,-736.5 364.29,-728.71 390.55,-723.88 410.63,-721.05"/>
<polygon fill="midnightblue" stroke="midnightblue" points="290.67,-758.09 282.57,-764.91 293.16,-764.63 290.67,-758.09"/>
</g>
<!-- Node60 -->
<g id="node31" class="node">
<title>Node60</title>
<g id="a_node31"><a xlink:href="classdrain_1_1image_1_1RecomposeOp.html" target="_top" xlink:title="Create vertical image composed of separate views.">
<polygon fill="white" stroke="black" points="400,-670 400,-689 487,-689 487,-670 400,-670"/>
<text text-anchor="middle" x="443.5" y="-677" font-family="Helvetica,sans-Serif" font-size="10.00">RecomposeOp</text>
</a>
</g>
</g>
<!-- Node10&#45;&gt;Node60 -->
<g id="edge30" class="edge">
<title>Node10&#45;&gt;Node60</title>
<path fill="none" stroke="midnightblue" d="M293.4,-763.35C297.9,-761.16 302.22,-758.56 306,-755.5 329.29,-736.65 317.22,-715.35 342,-698.5 358.89,-687.02 380.88,-682.02 399.99,-679.99"/>
<polygon fill="midnightblue" stroke="midnightblue" points="291.89,-760.19 284.04,-767.31 294.61,-766.64 291.89,-760.19"/>
</g>
<!-- Node61 -->
<g id="node32" class="node">
<title>Node61</title>
<g id="a_node32"><a xlink:href="classdrain_1_1image_1_1ResizeOp.html" target="_top" xlink:title="Resizes the image, stretching the image correspondingly.">
<polygon fill="white" stroke="black" points="412.5,-632 412.5,-651 474.5,-651 474.5,-632 412.5,-632"/>
<text text-anchor="middle" x="443.5" y="-639" font-family="Helvetica,sans-Serif" font-size="10.00">ResizeOp</text>
</a>
</g>
</g>
<!-- Node10&#45;&gt;Node61 -->
<g id="edge31" class="edge">
<title>Node10&#45;&gt;Node61</title>
<path fill="none" stroke="midnightblue" d="M293.72,-764.21C298.23,-761.87 302.46,-759.01 306,-755.5 338.07,-723.71 307.4,-689.51 342,-660.5 361.46,-644.19 390.54,-640.17 412.42,-639.8"/>
<polygon fill="midnightblue" stroke="midnightblue" points="292.02,-761.14 284.23,-768.32 294.8,-767.56 292.02,-761.14"/>
</g>
<!-- Node62 -->
<g id="node33" class="node">
<title>Node62</title>
<g id="a_node33"><a xlink:href="classdrain_1_1image_1_1RunLengthOp.html" target="_top" xlink:title="Base class for RunLengthHorzOp and RunLengthVertOp.">
<polygon fill="white" stroke="red" points="402.5,-594 402.5,-613 484.5,-613 484.5,-594 402.5,-594"/>
<text text-anchor="middle" x="443.5" y="-601" font-family="Helvetica,sans-Serif" font-size="10.00">RunLengthOp</text>
</a>
</g>
</g>
<!-- Node10&#45;&gt;Node62 -->
<g id="edge32" class="edge">
<title>Node10&#45;&gt;Node62</title>
<path fill="none" stroke="midnightblue" d="M293.39,-764.89C298.09,-762.43 302.47,-759.36 306,-755.5 347.33,-710.31 297.05,-664.09 342,-622.5 358.03,-607.67 381.86,-602.7 402.29,-601.54"/>
<polygon fill="midnightblue" stroke="midnightblue" points="291.89,-761.72 284.08,-768.88 294.65,-768.15 291.89,-761.72"/>
</g>
<!-- Node65 -->
<g id="node34" class="node">
<title>Node65</title>
<g id="a_node34"><a xlink:href="classdrain_1_1image_1_1SegmentOp.html" target="_top" xlink:title="A base class for computing statistics of segments. As segment is an area of connected pixels.">
<polygon fill="white" stroke="red" points="406.5,-556 406.5,-575 480.5,-575 480.5,-556 406.5,-556"/>
<text text-anchor="middle" x="443.5" y="-563" font-family="Helvetica,sans-Serif" font-size="10.00">SegmentOp</text>
</a>
</g>
</g>
<!-- Node10&#45;&gt;Node65 -->
<g id="edge33" class="edge">
<title>Node10&#45;&gt;Node65</title>
<path fill="none" stroke="midnightblue" d="M293.44,-765.15C298.17,-762.66 302.55,-759.5 306,-755.5 356.77,-696.72 286.52,-638.85 342,-584.5 358.74,-568.1 384.94,-563.56 406.39,-563.01"/>
<polygon fill="midnightblue" stroke="midnightblue" points="291.85,-762.02 284.04,-769.17 294.61,-768.46 291.85,-762.02"/>
</g>
<!-- Node68 -->
<g id="node35" class="node">
<title>Node68</title>
<g id="a_node35"><a xlink:href="classdrain_1_1image_1_1TransposeOp.html" target="_top" xlink:title="Transpose operator. Swaps the intensities over the diagonal exis.">
<polygon fill="white" stroke="black" points="403.5,-518 403.5,-537 483.5,-537 483.5,-518 403.5,-518"/>
<text text-anchor="middle" x="443.5" y="-525" font-family="Helvetica,sans-Serif" font-size="10.00">TransposeOp</text>
</a>
</g>
</g>
<!-- Node10&#45;&gt;Node68 -->
<g id="edge34" class="edge">
<title>Node10&#45;&gt;Node68</title>
<path fill="none" stroke="midnightblue" d="M293.57,-765.27C298.29,-762.76 302.62,-759.56 306,-755.5 366.29,-683.04 275.89,-613.69 342,-546.5 357.69,-530.55 382.28,-525.7 403.21,-524.88"/>
<polygon fill="midnightblue" stroke="midnightblue" points="291.99,-762.14 284.19,-769.3 294.76,-768.57 291.99,-762.14"/>
</g>
<!-- Node69 -->
<g id="node36" class="node">
<title>Node69</title>
<g id="a_node36"><a xlink:href="classdrain_1_1image_1_1WindowOp.html" target="_top" xlink:title=" ">
<polygon fill="white" stroke="red" points="393,-480 393,-499 494,-499 494,-480 393,-480"/>
<text text-anchor="middle" x="443.5" y="-487" font-family="Helvetica,sans-Serif" font-size="10.00">WindowOp&lt; W &gt;</text>
</a>
</g>
</g>
<!-- Node10&#45;&gt;Node69 -->
<g id="edge35" class="edge">
<title>Node10&#45;&gt;Node69</title>
<path fill="none" stroke="midnightblue" d="M293.52,-765.43C298.28,-762.89 302.64,-759.65 306,-755.5 375.85,-669.31 265.22,-588.58 342,-508.5 355.03,-494.91 374.5,-489.32 392.84,-487.43"/>
<polygon fill="midnightblue" stroke="midnightblue" points="291.85,-762.34 284.03,-769.48 294.6,-768.77 291.85,-762.34"/>
</g>
<!-- Node71 -->
<g id="node37" class="node">
<title>Node71</title>
<g id="a_node37"><a xlink:href="classdrain_1_1image_1_1FunctorOp.html" target="_top" xlink:title=" ">
<polygon fill="white" stroke="red" points="369,-442 369,-461 518,-461 518,-442 369,-442"/>
<text text-anchor="middle" x="443.5" y="-449" font-family="Helvetica,sans-Serif" font-size="10.00">FunctorOp&lt; CopyFunctor &gt;</text>
</a>
</g>
</g>
<!-- Node10&#45;&gt;Node71 -->
<g id="edge36" class="edge">
<title>Node10&#45;&gt;Node71</title>
<path fill="none" stroke="midnightblue" d="M293.59,-765.49C298.34,-762.94 302.68,-759.68 306,-755.5 385.43,-655.55 254.53,-563.5 342,-470.5 349.3,-462.74 358.7,-457.57 368.81,-454.21"/>
<polygon fill="midnightblue" stroke="midnightblue" points="291.92,-762.39 284.11,-769.55 294.68,-768.83 291.92,-762.39"/>
</g>
<!-- Node74 -->
<g id="node38" class="node">
<title>Node74</title>
<g id="a_node38"><a xlink:href="classdrain_1_1image_1_1FunctorOp.html" target="_top" xlink:title=" ">
<polygon fill="white" stroke="red" points="364.5,-392.5 364.5,-422.5 522.5,-422.5 522.5,-392.5 364.5,-392.5"/>
<text text-anchor="start" x="372.5" y="-410.5" font-family="Helvetica,sans-Serif" font-size="10.00">FunctorOp&lt; drain::FuzzyStep</text>
<text text-anchor="middle" x="443.5" y="-399.5" font-family="Helvetica,sans-Serif" font-size="10.00">&lt; double &gt; &gt;</text>
</a>
</g>
</g>
<!-- Node10&#45;&gt;Node74 -->
<g id="edge37" class="edge">
<title>Node10&#45;&gt;Node74</title>
<path fill="none" stroke="midnightblue" d="M293.65,-765.53C298.39,-762.98 302.71,-759.71 306,-755.5 395.04,-641.76 246.86,-541.19 342,-432.5 348.16,-425.46 355.96,-420.26 364.49,-416.42"/>
<polygon fill="midnightblue" stroke="midnightblue" points="291.98,-762.44 284.17,-769.6 294.74,-768.87 291.98,-762.44"/>
</g>
<!-- Node77 -->
<g id="node39" class="node">
<title>Node77</title>
<g id="a_node39"><a xlink:href="classdrain_1_1image_1_1WindowOp.html" target="_top" xlink:title=" ">
<polygon fill="white" stroke="red" points="352.5,-343.5 352.5,-373.5 534.5,-373.5 534.5,-343.5 352.5,-343.5"/>
<text text-anchor="start" x="360.5" y="-361.5" font-family="Helvetica,sans-Serif" font-size="10.00">WindowOp&lt; FlowAverageWindow</text>
<text text-anchor="middle" x="443.5" y="-350.5" font-family="Helvetica,sans-Serif" font-size="10.00">Weighted &gt;</text>
</a>
</g>
</g>
<!-- Node10&#45;&gt;Node77 -->
<g id="edge38" class="edge">
<title>Node10&#45;&gt;Node77</title>
<path fill="none" stroke="midnightblue" d="M293.7,-765.58C298.43,-763.02 302.74,-759.73 306,-755.5 356.85,-689.55 287.32,-445.31 342,-382.5 345.06,-378.98 348.54,-375.93 352.32,-373.29"/>
<polygon fill="midnightblue" stroke="midnightblue" points="292.04,-762.48 284.24,-769.65 294.81,-768.91 292.04,-762.48"/>
</g>
<!-- Node80 -->
<g id="node40" class="node">
<title>Node80</title>
<g id="a_node40"><a xlink:href="classdrain_1_1image_1_1WindowOp.html" target="_top" xlink:title=" ">
<polygon fill="white" stroke="red" points="366.5,-294.5 366.5,-324.5 520.5,-324.5 520.5,-294.5 366.5,-294.5"/>
<text text-anchor="start" x="374.5" y="-312.5" font-family="Helvetica,sans-Serif" font-size="10.00">WindowOp&lt; GaussianStripe</text>
<text text-anchor="middle" x="443.5" y="-301.5" font-family="Helvetica,sans-Serif" font-size="10.00">&lt; WindowCore &gt; &gt;</text>
</a>
</g>
</g>
<!-- Node10&#45;&gt;Node80 -->
<g id="edge39" class="edge">
<title>Node10&#45;&gt;Node80</title>
<path fill="none" stroke="midnightblue" d="M293.59,-765.69C298.38,-763.12 302.73,-759.8 306,-755.5 363.05,-680.64 280.6,-404.83 342,-333.5 348.55,-325.89 357.05,-320.46 366.32,-316.62"/>
<polygon fill="midnightblue" stroke="midnightblue" points="291.84,-762.63 284.01,-769.77 294.59,-769.07 291.84,-762.63"/>
</g>
<!-- Node82 -->
<g id="node41" class="node">
<title>Node82</title>
<g id="a_node41"><a xlink:href="classdrain_1_1image_1_1WindowOp.html" target="_top" xlink:title=" ">
<polygon fill="white" stroke="red" points="369.5,-245.5 369.5,-275.5 517.5,-275.5 517.5,-245.5 369.5,-245.5"/>
<text text-anchor="start" x="377.5" y="-263.5" font-family="Helvetica,sans-Serif" font-size="10.00">WindowOp&lt; SlidingOptical</text>
<text text-anchor="middle" x="443.5" y="-252.5" font-family="Helvetica,sans-Serif" font-size="10.00">FlowWeighted &gt;</text>
</a>
</g>
</g>
<!-- Node10&#45;&gt;Node82 -->
<g id="edge40" class="edge">
<title>Node10&#45;&gt;Node82</title>
<path fill="none" stroke="midnightblue" d="M293.63,-765.72C298.41,-763.14 302.75,-759.81 306,-755.5 369.26,-671.73 273.87,-364.36 342,-284.5 349.22,-276.04 358.84,-270.27 369.27,-266.38"/>
<polygon fill="midnightblue" stroke="midnightblue" points="291.88,-762.66 284.05,-769.8 294.62,-769.1 291.88,-762.66"/>
</g>
<!-- Node85 -->
<g id="node42" class="node">
<title>Node85</title>
<g id="a_node42"><a xlink:href="classdrain_1_1image_1_1WindowOp.html" target="_top" xlink:title=" ">
<polygon fill="white" stroke="red" points="369.5,-196.5 369.5,-226.5 517.5,-226.5 517.5,-196.5 369.5,-196.5"/>
<text text-anchor="start" x="377.5" y="-214.5" font-family="Helvetica,sans-Serif" font-size="10.00">WindowOp&lt; SlidingOptical</text>
<text text-anchor="middle" x="443.5" y="-203.5" font-family="Helvetica,sans-Serif" font-size="10.00">FlowWeighted2 &gt;</text>
</a>
</g>
</g>
<!-- Node10&#45;&gt;Node85 -->
<g id="edge41" class="edge">
<title>Node10&#45;&gt;Node85</title>
<path fill="none" stroke="midnightblue" d="M293.65,-765.74C298.43,-763.16 302.76,-759.82 306,-755.5 375.47,-662.82 267.14,-323.89 342,-235.5 349.25,-226.94 358.94,-221.14 369.47,-217.24"/>
<polygon fill="midnightblue" stroke="midnightblue" points="291.91,-762.68 284.08,-769.83 294.65,-769.12 291.91,-762.68"/>
</g>
<!-- Node88 -->
<g id="node43" class="node">
<title>Node88</title>
<g id="a_node43"><a xlink:href="classdrain_1_1image_1_1WindowOp.html" target="_top" xlink:title=" ">
<polygon fill="white" stroke="red" points="342,-147.5 342,-177.5 545,-177.5 545,-147.5 342,-147.5"/>
<text text-anchor="start" x="350" y="-165.5" font-family="Helvetica,sans-Serif" font-size="10.00">WindowOp&lt; SlidingWindowHistogram</text>
<text text-anchor="middle" x="443.5" y="-154.5" font-family="Helvetica,sans-Serif" font-size="10.00">Weighted &gt;</text>
</a>
</g>
</g>
<!-- Node10&#45;&gt;Node88 -->
<g id="edge42" class="edge">
<title>Node10&#45;&gt;Node88</title>
<path fill="none" stroke="midnightblue" d="M293.68,-765.76C298.45,-763.18 302.77,-759.83 306,-755.5 381.69,-653.9 260.4,-283.42 342,-186.5 344.77,-183.21 347.91,-180.32 351.32,-177.79"/>
<polygon fill="midnightblue" stroke="midnightblue" points="291.93,-762.7 284.11,-769.84 294.68,-769.14 291.93,-762.7"/>
</g>
<!-- Node91 -->
<g id="node44" class="node">
<title>Node91</title>
<g id="a_node44"><a xlink:href="classdrain_1_1image_1_1WindowOp.html" target="_top" xlink:title=" ">
<polygon fill="white" stroke="red" points="349.5,-98.5 349.5,-128.5 537.5,-128.5 537.5,-98.5 349.5,-98.5"/>
<text text-anchor="start" x="357.5" y="-116.5" font-family="Helvetica,sans-Serif" font-size="10.00">WindowOp&lt; SlidingWindowMedian</text>
<text text-anchor="middle" x="443.5" y="-105.5" font-family="Helvetica,sans-Serif" font-size="10.00">Weighted &gt;</text>
</a>
</g>
</g>
<!-- Node10&#45;&gt;Node91 -->
<g id="edge43" class="edge">
<title>Node10&#45;&gt;Node91</title>
<path fill="none" stroke="midnightblue" d="M293.7,-765.77C298.47,-763.19 302.78,-759.84 306,-755.5 387.91,-644.98 253.66,-242.96 342,-137.5 344.76,-134.2 347.89,-131.31 351.3,-128.78"/>
<polygon fill="midnightblue" stroke="midnightblue" points="291.95,-762.71 284.13,-769.86 294.7,-769.15 291.95,-762.71"/>
</g>
<!-- Node94 -->
<g id="node45" class="node">
<title>Node94</title>
<g id="a_node45"><a xlink:href="classdrain_1_1image_1_1WindowOp.html" target="_top" xlink:title=" ">
<polygon fill="white" stroke="red" points="355.5,-49.5 355.5,-79.5 531.5,-79.5 531.5,-49.5 355.5,-49.5"/>
<text text-anchor="start" x="363.5" y="-67.5" font-family="Helvetica,sans-Serif" font-size="10.00">WindowOp&lt; Window&lt; Gaussian</text>
<text text-anchor="middle" x="443.5" y="-56.5" font-family="Helvetica,sans-Serif" font-size="10.00">WindowConf &gt; &gt;</text>
</a>
</g>
</g>
<!-- Node10&#45;&gt;Node94 -->
<g id="edge44" class="edge">
<title>Node10&#45;&gt;Node94</title>
<path fill="none" stroke="midnightblue" d="M293.71,-765.79C298.48,-763.2 302.79,-759.85 306,-755.5 394.13,-636.05 246.93,-202.49 342,-88.5 345.79,-83.95 350.28,-80.18 355.21,-77.06"/>
<polygon fill="midnightblue" stroke="midnightblue" points="291.97,-762.73 284.15,-769.87 294.72,-769.16 291.97,-762.73"/>
</g>
<!-- Node96 -->
<g id="node46" class="node">
<title>Node96</title>
<g id="a_node46"><a xlink:href="classdrain_1_1image_1_1WindowOp.html" target="_top" xlink:title=" ">
<polygon fill="white" stroke="red" points="358.5,-0.5 358.5,-30.5 528.5,-30.5 528.5,-0.5 358.5,-0.5"/>
<text text-anchor="start" x="366.5" y="-18.5" font-family="Helvetica,sans-Serif" font-size="10.00">WindowOp&lt; Window&lt; Window</text>
<text text-anchor="middle" x="443.5" y="-7.5" font-family="Helvetica,sans-Serif" font-size="10.00">Config &gt; &gt;</text>
</a>
</g>
</g>
<!-- Node10&#45;&gt;Node96 -->
<g id="edge45" class="edge">
<title>Node10&#45;&gt;Node96</title>
<path fill="none" stroke="midnightblue" d="M293.73,-765.8C298.5,-763.21 302.8,-759.85 306,-755.5 400.35,-627.13 240.19,-162.03 342,-39.5 346.59,-33.98 352.19,-29.6 358.39,-26.14"/>
<polygon fill="midnightblue" stroke="midnightblue" points="291.98,-762.74 284.16,-769.89 294.74,-769.17 291.98,-762.74"/>
</g>
</g>
</svg>
