<?xml version="1.0" encoding="UTF-8" standalone="no"?>
<!DOCTYPE svg PUBLIC "-//W3C//DTD SVG 1.1//EN"
 "http://www.w3.org/Graphics/SVG/1.1/DTD/svg11.dtd">
<!-- Generated by graphviz version 2.43.0 (0)
 -->
<!-- Title: CmdOpticalFlowBase Pages: 1 -->
<svg width="166pt" height="263pt"
 viewBox="0.00 0.00 166.00 263.00" xmlns="http://www.w3.org/2000/svg" xmlns:xlink="http://www.w3.org/1999/xlink">
<g id="graph0" class="graph" transform="scale(1 1) rotate(0) translate(4 259)">
<title>CmdOpticalFlowBase</title>
<polygon fill="white" stroke="transparent" points="-4,4 -4,-259 162,-259 162,4 -4,4"/>
<!-- Node1 -->
<g id="node1" class="node">
<title>Node1</title>
<g id="a_node1"><a xlink:title="Utility for creating a Command that runs FastOpticalFlowOp operator.">
<polygon fill="#bfbfbf" stroke="black" points="18.5,-56.5 18.5,-75.5 139.5,-75.5 139.5,-56.5 18.5,-56.5"/>
<text text-anchor="middle" x="79" y="-63.5" font-family="Helvetica,sans-Serif" font-size="10.00">CmdOpticalFlowBase</text>
</a>
</g>
</g>
<!-- Node5 -->
<g id="node5" class="node">
<title>Node5</title>
<g id="a_node5"><a xlink:href="classrack_1_1CartesianOpticalFlow.html" target="_top" xlink:title=" ">
<polygon fill="white" stroke="black" points="18.5,-0.5 18.5,-19.5 139.5,-19.5 139.5,-0.5 18.5,-0.5"/>
<text text-anchor="middle" x="79" y="-7.5" font-family="Helvetica,sans-Serif" font-size="10.00">CartesianOpticalFlow</text>
</a>
</g>
</g>
<!-- Node1&#45;&gt;Node5 -->
<g id="edge4" class="edge">
<title>Node1&#45;&gt;Node5</title>
<path fill="none" stroke="midnightblue" d="M79,-45.8C79,-36.91 79,-26.78 79,-19.75"/>
<polygon fill="midnightblue" stroke="midnightblue" points="75.5,-46.08 79,-56.08 82.5,-46.08 75.5,-46.08"/>
</g>
<!-- Node2 -->
<g id="node2" class="node">
<title>Node2</title>
<g id="a_node2"><a xlink:href="classdrain_1_1BeanCommand.html" target="_top" xlink:title=" ">
<polygon fill="white" stroke="black" points="0,-112.5 0,-142.5 158,-142.5 158,-112.5 0,-112.5"/>
<text text-anchor="start" x="8" y="-130.5" font-family="Helvetica,sans-Serif" font-size="10.00">BeanCommand&lt; FastOptical</text>
<text text-anchor="middle" x="79" y="-119.5" font-family="Helvetica,sans-Serif" font-size="10.00">Flow2Op &gt;</text>
</a>
</g>
</g>
<!-- Node2&#45;&gt;Node1 -->
<g id="edge1" class="edge">
<title>Node2&#45;&gt;Node1</title>
<path fill="none" stroke="midnightblue" d="M79,-102.29C79,-92.86 79,-82.65 79,-75.66"/>
<polygon fill="midnightblue" stroke="midnightblue" points="75.5,-102.4 79,-112.4 82.5,-102.4 75.5,-102.4"/>
</g>
<!-- Node3 -->
<g id="node3" class="node">
<title>Node3</title>
<g id="a_node3"><a xlink:href="classdrain_1_1Command.html" target="_top" xlink:title="Base class for commands: typically actions taking parameters but also plain variable assignments and ...">
<polygon fill="white" stroke="black" points="45.5,-179.5 45.5,-198.5 112.5,-198.5 112.5,-179.5 45.5,-179.5"/>
<text text-anchor="middle" x="79" y="-186.5" font-family="Helvetica,sans-Serif" font-size="10.00">Command</text>
</a>
</g>
</g>
<!-- Node3&#45;&gt;Node2 -->
<g id="edge2" class="edge">
<title>Node3&#45;&gt;Node2</title>
<path fill="none" stroke="midnightblue" d="M79,-169.23C79,-160.59 79,-150.5 79,-142.52"/>
<polygon fill="midnightblue" stroke="midnightblue" points="75.5,-169.48 79,-179.48 82.5,-169.48 75.5,-169.48"/>
</g>
<!-- Node4 -->
<g id="node4" class="node">
<title>Node4</title>
<g id="a_node4"><a xlink:href="classdrain_1_1Contextual.html" target="_top" xlink:title=" ">
<polygon fill="white" stroke="black" points="44,-235.5 44,-254.5 114,-254.5 114,-235.5 44,-235.5"/>
<text text-anchor="middle" x="79" y="-242.5" font-family="Helvetica,sans-Serif" font-size="10.00">Contextual</text>
</a>
</g>
</g>
<!-- Node4&#45;&gt;Node3 -->
<g id="edge3" class="edge">
<title>Node4&#45;&gt;Node3</title>
<path fill="none" stroke="midnightblue" d="M79,-224.8C79,-215.91 79,-205.78 79,-198.75"/>
<polygon fill="midnightblue" stroke="midnightblue" points="75.5,-225.08 79,-235.08 82.5,-225.08 75.5,-225.08"/>
</g>
</g>
</svg>
