<?xml version="1.0" encoding="UTF-8" standalone="no"?>
<!DOCTYPE svg PUBLIC "-//W3C//DTD SVG 1.1//EN"
 "http://www.w3.org/Graphics/SVG/1.1/DTD/svg11.dtd">
<!-- Generated by graphviz version 2.43.0 (0)
 -->
<!-- Title: Geometry Pages: 1 -->
<svg width="384pt" height="152pt"
 viewBox="0.00 0.00 383.50 152.00" xmlns="http://www.w3.org/2000/svg" xmlns:xlink="http://www.w3.org/1999/xlink">
<g id="graph0" class="graph" transform="scale(1 1) rotate(0) translate(4 148)">
<title>Geometry</title>
<polygon fill="white" stroke="transparent" points="-4,4 -4,-148 379.5,-148 379.5,4 -4,4"/>
<!-- Node1 -->
<g id="node1" class="node">
<title>Node1</title>
<g id="a_node1"><a xlink:title=" ">
<polygon fill="#bfbfbf" stroke="black" points="163.5,-0.5 163.5,-19.5 228.5,-19.5 228.5,-0.5 163.5,-0.5"/>
<text text-anchor="middle" x="196" y="-7.5" font-family="Helvetica,sans-Serif" font-size="10.00">Geometry</text>
</a>
</g>
</g>
<!-- Node2 -->
<g id="node2" class="node">
<title>Node2</title>
<g id="a_node2"><a xlink:href="classdrain_1_1UniTuple.html" target="_top" xlink:title=" ">
<polygon fill="white" stroke="black" points="0,-67.5 0,-86.5 122,-86.5 122,-67.5 0,-67.5"/>
<text text-anchor="middle" x="61" y="-74.5" font-family="Helvetica,sans-Serif" font-size="10.00">UniTuple&lt; size_t, 4 &gt;</text>
</a>
</g>
</g>
<!-- Node2&#45;&gt;Node1 -->
<g id="edge1" class="edge">
<title>Node2&#45;&gt;Node1</title>
<path fill="none" stroke="midnightblue" d="M88.12,-62.94C114.86,-50.07 154.97,-30.76 178,-19.67"/>
<polygon fill="midnightblue" stroke="midnightblue" points="86.42,-59.88 78.93,-67.37 89.46,-66.18 86.42,-59.88"/>
</g>
<!-- Node3 -->
<g id="node3" class="node">
<title>Node3</title>
<g id="a_node3"><a xlink:href="classdrain_1_1Frame2D.html" target="_top" xlink:title=" ">
<polygon fill="white" stroke="black" points="140,-67.5 140,-86.5 252,-86.5 252,-67.5 140,-67.5"/>
<text text-anchor="middle" x="196" y="-74.5" font-family="Helvetica,sans-Serif" font-size="10.00">Frame2D&lt; size_t &gt;</text>
</a>
</g>
</g>
<!-- Node3&#45;&gt;Node1 -->
<g id="edge2" class="edge">
<title>Node3&#45;&gt;Node1</title>
<path fill="none" stroke="#9a32cd" stroke-dasharray="5,2" d="M196,-57.04C196,-44.67 196,-29.12 196,-19.63"/>
<polygon fill="#9a32cd" stroke="#9a32cd" points="192.5,-57.23 196,-67.23 199.5,-57.23 192.5,-57.23"/>
<text text-anchor="middle" x="208.5" y="-41" font-family="Helvetica,sans-Serif" font-size="10.00"> area</text>
</g>
<!-- Node4 -->
<g id="node4" class="node">
<title>Node4</title>
<g id="a_node4"><a xlink:href="classdrain_1_1UniTuple.html" target="_top" xlink:title=" ">
<polygon fill="white" stroke="black" points="198,-124.5 198,-143.5 320,-143.5 320,-124.5 198,-124.5"/>
<text text-anchor="middle" x="259" y="-131.5" font-family="Helvetica,sans-Serif" font-size="10.00">UniTuple&lt; size_t, 2 &gt;</text>
</a>
</g>
</g>
<!-- Node4&#45;&gt;Node3 -->
<g id="edge3" class="edge">
<title>Node4&#45;&gt;Node3</title>
<path fill="none" stroke="midnightblue" d="M241.48,-117.71C230.04,-107.72 215.5,-95.02 205.98,-86.71"/>
<polygon fill="midnightblue" stroke="midnightblue" points="239.32,-120.47 249.16,-124.41 243.92,-115.19 239.32,-120.47"/>
</g>
<!-- Node5 -->
<g id="node5" class="node">
<title>Node5</title>
<g id="a_node5"><a xlink:href="classdrain_1_1image_1_1ChannelGeometry.html" target="_top" xlink:title=" ">
<polygon fill="white" stroke="black" points="270.5,-67.5 270.5,-86.5 375.5,-86.5 375.5,-67.5 270.5,-67.5"/>
<text text-anchor="middle" x="323" y="-74.5" font-family="Helvetica,sans-Serif" font-size="10.00">ChannelGeometry</text>
</a>
</g>
</g>
<!-- Node4&#45;&gt;Node5 -->
<g id="edge5" class="edge">
<title>Node4&#45;&gt;Node5</title>
<path fill="none" stroke="midnightblue" d="M276.79,-117.71C288.42,-107.72 303.19,-95.02 312.86,-86.71"/>
<polygon fill="midnightblue" stroke="midnightblue" points="274.3,-115.23 269,-124.41 278.87,-120.54 274.3,-115.23"/>
</g>
<!-- Node5&#45;&gt;Node1 -->
<g id="edge4" class="edge">
<title>Node5&#45;&gt;Node1</title>
<path fill="none" stroke="#9a32cd" stroke-dasharray="5,2" d="M297.16,-62.77C272,-49.9 234.51,-30.71 212.93,-19.67"/>
<polygon fill="#9a32cd" stroke="#9a32cd" points="295.64,-65.93 306.14,-67.37 298.83,-59.7 295.64,-65.93"/>
<text text-anchor="middle" x="291.5" y="-41" font-family="Helvetica,sans-Serif" font-size="10.00"> channels</text>
</g>
</g>
</svg>
