<?xml version="1.0" encoding="UTF-8" standalone="no"?>
<!DOCTYPE svg PUBLIC "-//W3C//DTD SVG 1.1//EN"
 "http://www.w3.org/Graphics/SVG/1.1/DTD/svg11.dtd">
<!-- Generated by graphviz version 2.43.0 (0)
 -->
<!-- Title: CmdBaseSelective Pages: 1 -->
<svg width="247pt" height="308pt"
 viewBox="0.00 0.00 247.00 308.00" xmlns="http://www.w3.org/2000/svg" xmlns:xlink="http://www.w3.org/1999/xlink">
<g id="graph0" class="graph" transform="scale(1 1) rotate(0) translate(4 304)">
<title>CmdBaseSelective</title>
<polygon fill="white" stroke="transparent" points="-4,4 -4,-304 243,-304 243,4 -4,4"/>
<!-- Node1 -->
<g id="node1" class="node">
<title>Node1</title>
<g id="a_node1"><a xlink:title=" ">
<polygon fill="#bfbfbf" stroke="black" points="66.5,-56.5 66.5,-75.5 174.5,-75.5 174.5,-56.5 66.5,-56.5"/>
<text text-anchor="middle" x="120.5" y="-63.5" font-family="Helvetica,sans-Serif" font-size="10.00">CmdBaseSelective</text>
</a>
</g>
</g>
<!-- Node6 -->
<g id="node6" class="node">
<title>Node6</title>
<g id="a_node6"><a xlink:href="classrack_1_1CmdDelete.html" target="_top" xlink:title=" ">
<polygon fill="white" stroke="black" points="0,-0.5 0,-19.5 71,-19.5 71,-0.5 0,-0.5"/>
<text text-anchor="middle" x="35.5" y="-7.5" font-family="Helvetica,sans-Serif" font-size="10.00">CmdDelete</text>
</a>
</g>
</g>
<!-- Node1&#45;&gt;Node6 -->
<g id="edge5" class="edge">
<title>Node1&#45;&gt;Node6</title>
<path fill="none" stroke="midnightblue" d="M98.31,-50.9C82.72,-41 62.37,-28.07 49.12,-19.65"/>
<polygon fill="midnightblue" stroke="midnightblue" points="96.53,-53.92 106.84,-56.32 100.28,-48.01 96.53,-53.92"/>
</g>
<!-- Node7 -->
<g id="node7" class="node">
<title>Node7</title>
<g id="a_node7"><a xlink:href="classrack_1_1CmdKeep.html" target="_top" xlink:title=" ">
<polygon fill="white" stroke="black" points="89,-0.5 89,-19.5 152,-19.5 152,-0.5 89,-0.5"/>
<text text-anchor="middle" x="120.5" y="-7.5" font-family="Helvetica,sans-Serif" font-size="10.00">CmdKeep</text>
</a>
</g>
</g>
<!-- Node1&#45;&gt;Node7 -->
<g id="edge6" class="edge">
<title>Node1&#45;&gt;Node7</title>
<path fill="none" stroke="midnightblue" d="M120.5,-45.8C120.5,-36.91 120.5,-26.78 120.5,-19.75"/>
<polygon fill="midnightblue" stroke="midnightblue" points="117,-46.08 120.5,-56.08 124,-46.08 117,-46.08"/>
</g>
<!-- Node8 -->
<g id="node8" class="node">
<title>Node8</title>
<g id="a_node8"><a xlink:href="classrack_1_1CmdSelect.html" target="_top" xlink:title="Tool for selecting data for next command(s), based on paths, quantities and elevations.">
<polygon fill="white" stroke="black" points="170,-0.5 170,-19.5 239,-19.5 239,-0.5 170,-0.5"/>
<text text-anchor="middle" x="204.5" y="-7.5" font-family="Helvetica,sans-Serif" font-size="10.00">CmdSelect</text>
</a>
</g>
</g>
<!-- Node1&#45;&gt;Node8 -->
<g id="edge7" class="edge">
<title>Node1&#45;&gt;Node8</title>
<path fill="none" stroke="midnightblue" d="M142.43,-50.9C157.84,-41 177.95,-28.07 191.04,-19.65"/>
<polygon fill="midnightblue" stroke="midnightblue" points="140.52,-47.97 134,-56.32 144.3,-53.86 140.52,-47.97"/>
</g>
<!-- Node2 -->
<g id="node2" class="node">
<title>Node2</title>
<g id="a_node2"><a xlink:href="classdrain_1_1SimpleCommand.html" target="_top" xlink:title=" ">
<polygon fill="white" stroke="black" points="62,-112.5 62,-131.5 179,-131.5 179,-112.5 62,-112.5"/>
<text text-anchor="middle" x="120.5" y="-119.5" font-family="Helvetica,sans-Serif" font-size="10.00">SimpleCommand&lt;&gt;</text>
</a>
</g>
</g>
<!-- Node2&#45;&gt;Node1 -->
<g id="edge1" class="edge">
<title>Node2&#45;&gt;Node1</title>
<path fill="none" stroke="midnightblue" d="M120.5,-101.8C120.5,-92.91 120.5,-82.78 120.5,-75.75"/>
<polygon fill="midnightblue" stroke="midnightblue" points="117,-102.08 120.5,-112.08 124,-102.08 117,-102.08"/>
</g>
<!-- Node3 -->
<g id="node3" class="node">
<title>Node3</title>
<g id="a_node3"><a xlink:href="classdrain_1_1BasicCommand.html" target="_top" xlink:title="Simple implementation of Command: adds name , description and parameters .">
<polygon fill="white" stroke="black" points="74,-168.5 74,-187.5 167,-187.5 167,-168.5 74,-168.5"/>
<text text-anchor="middle" x="120.5" y="-175.5" font-family="Helvetica,sans-Serif" font-size="10.00">BasicCommand</text>
</a>
</g>
</g>
<!-- Node3&#45;&gt;Node2 -->
<g id="edge2" class="edge">
<title>Node3&#45;&gt;Node2</title>
<path fill="none" stroke="midnightblue" d="M120.5,-157.8C120.5,-148.91 120.5,-138.78 120.5,-131.75"/>
<polygon fill="midnightblue" stroke="midnightblue" points="117,-158.08 120.5,-168.08 124,-158.08 117,-158.08"/>
</g>
<!-- Node4 -->
<g id="node4" class="node">
<title>Node4</title>
<g id="a_node4"><a xlink:href="classdrain_1_1Command.html" target="_top" xlink:title="Base class for commands: typically actions taking parameters but also plain variable assignments and ...">
<polygon fill="white" stroke="black" points="87,-224.5 87,-243.5 154,-243.5 154,-224.5 87,-224.5"/>
<text text-anchor="middle" x="120.5" y="-231.5" font-family="Helvetica,sans-Serif" font-size="10.00">Command</text>
</a>
</g>
</g>
<!-- Node4&#45;&gt;Node3 -->
<g id="edge3" class="edge">
<title>Node4&#45;&gt;Node3</title>
<path fill="none" stroke="midnightblue" d="M120.5,-213.8C120.5,-204.91 120.5,-194.78 120.5,-187.75"/>
<polygon fill="midnightblue" stroke="midnightblue" points="117,-214.08 120.5,-224.08 124,-214.08 117,-214.08"/>
</g>
<!-- Node5 -->
<g id="node5" class="node">
<title>Node5</title>
<g id="a_node5"><a xlink:href="classdrain_1_1Contextual.html" target="_top" xlink:title=" ">
<polygon fill="white" stroke="black" points="85.5,-280.5 85.5,-299.5 155.5,-299.5 155.5,-280.5 85.5,-280.5"/>
<text text-anchor="middle" x="120.5" y="-287.5" font-family="Helvetica,sans-Serif" font-size="10.00">Contextual</text>
</a>
</g>
</g>
<!-- Node5&#45;&gt;Node4 -->
<g id="edge4" class="edge">
<title>Node5&#45;&gt;Node4</title>
<path fill="none" stroke="midnightblue" d="M120.5,-269.8C120.5,-260.91 120.5,-250.78 120.5,-243.75"/>
<polygon fill="midnightblue" stroke="midnightblue" points="117,-270.08 120.5,-280.08 124,-270.08 117,-270.08"/>
</g>
</g>
</svg>
