<?xml version="1.0" encoding="UTF-8" standalone="no"?>
<!DOCTYPE svg PUBLIC "-//W3C//DTD SVG 1.1//EN"
 "http://www.w3.org/Graphics/SVG/1.1/DTD/svg11.dtd">
<!-- Generated by graphviz version 2.43.0 (0)
 -->
<!-- Title: ProductOp&lt; MS, MD &gt; Pages: 1 -->
<svg width="528pt" height="478pt"
 viewBox="0.00 0.00 527.50 478.00" xmlns="http://www.w3.org/2000/svg" xmlns:xlink="http://www.w3.org/1999/xlink">
<g id="graph0" class="graph" transform="scale(1 1) rotate(0) translate(4 474)">
<title>ProductOp&lt; MS, MD &gt;</title>
<polygon fill="white" stroke="transparent" points="-4,4 -4,-474 523.5,-474 523.5,4 -4,4"/>
<!-- Node1 -->
<g id="node1" class="node">
<title>Node1</title>
<g id="a_node1"><a xlink:title="Polar and Cartesian products.">
<polygon fill="#bfbfbf" stroke="black" points="131,-0.5 131,-19.5 258,-19.5 258,-0.5 131,-0.5"/>
<text text-anchor="middle" x="194.5" y="-7.5" font-family="Helvetica,sans-Serif" font-size="10.00">ProductOp&lt; MS, MD &gt;</text>
</a>
</g>
</g>
<!-- Node2 -->
<g id="node2" class="node">
<title>Node2</title>
<g id="a_node2"><a xlink:href="classrack_1_1ProductBase.html" target="_top" xlink:title="Base class for radar data processors. Input can be in polar or Cartesian coordinates.">
<polygon fill="white" stroke="black" points="156,-57.5 156,-76.5 233,-76.5 233,-57.5 156,-57.5"/>
<text text-anchor="middle" x="194.5" y="-64.5" font-family="Helvetica,sans-Serif" font-size="10.00">ProductBase</text>
</a>
</g>
</g>
<!-- Node2&#45;&gt;Node1 -->
<g id="edge1" class="edge">
<title>Node2&#45;&gt;Node1</title>
<path fill="none" stroke="midnightblue" d="M194.5,-47.12C194.5,-37.82 194.5,-27.06 194.5,-19.71"/>
<polygon fill="midnightblue" stroke="midnightblue" points="191,-47.41 194.5,-57.41 198,-47.41 191,-47.41"/>
</g>
<!-- Node3 -->
<g id="node3" class="node">
<title>Node3</title>
<g id="a_node3"><a xlink:href="structrack_1_1ProductConf.html" target="_top" xlink:title="Shared properties for meteorological products and Cartesian products (composites and single&#45;radar ima...">
<polygon fill="white" stroke="black" points="224.5,-114.5 224.5,-133.5 300.5,-133.5 300.5,-114.5 224.5,-114.5"/>
<text text-anchor="middle" x="262.5" y="-121.5" font-family="Helvetica,sans-Serif" font-size="10.00">ProductConf</text>
</a>
</g>
</g>
<!-- Node3&#45;&gt;Node2 -->
<g id="edge2" class="edge">
<title>Node3&#45;&gt;Node2</title>
<path fill="none" stroke="midnightblue" d="M243.95,-108C231.54,-97.96 215.65,-85.1 205.27,-76.71"/>
<polygon fill="midnightblue" stroke="midnightblue" points="241.9,-110.84 251.88,-114.41 246.3,-105.4 241.9,-110.84"/>
</g>
<!-- Node4 -->
<g id="node4" class="node">
<title>Node4</title>
<g id="a_node4"><a xlink:href="classrack_1_1DataSelector.html" target="_top" xlink:title="Tool for selecting datasets based on paths, quantities and min/max elevations.">
<polygon fill="white" stroke="black" points="222.5,-181.5 222.5,-200.5 302.5,-200.5 302.5,-181.5 222.5,-181.5"/>
<text text-anchor="middle" x="262.5" y="-188.5" font-family="Helvetica,sans-Serif" font-size="10.00">DataSelector</text>
</a>
</g>
</g>
<!-- Node4&#45;&gt;Node3 -->
<g id="edge3" class="edge">
<title>Node4&#45;&gt;Node3</title>
<path fill="none" stroke="#9a32cd" stroke-dasharray="5,2" d="M262.5,-171.04C262.5,-158.67 262.5,-143.12 262.5,-133.63"/>
<polygon fill="#9a32cd" stroke="#9a32cd" points="259,-171.23 262.5,-181.23 266,-171.23 259,-171.23"/>
<text text-anchor="middle" x="295" y="-155" font-family="Helvetica,sans-Serif" font-size="10.00"> dataSelector</text>
</g>
<!-- Node5 -->
<g id="node5" class="node">
<title>Node5</title>
<g id="a_node5"><a xlink:href="classdrain_1_1BeanLike.html" target="_top" xlink:title="Something which has a name, a description and possibly some parameters of varying type.">
<polygon fill="white" stroke="black" points="128,-259.5 128,-278.5 189,-278.5 189,-259.5 128,-259.5"/>
<text text-anchor="middle" x="158.5" y="-266.5" font-family="Helvetica,sans-Serif" font-size="10.00">BeanLike</text>
</a>
</g>
</g>
<!-- Node5&#45;&gt;Node2 -->
<g id="edge17" class="edge">
<title>Node5&#45;&gt;Node2</title>
<path fill="none" stroke="midnightblue" d="M161.83,-249.48C169.37,-207.63 187.46,-107.09 192.92,-76.79"/>
<polygon fill="midnightblue" stroke="midnightblue" points="158.37,-248.94 160.05,-259.41 165.26,-250.18 158.37,-248.94"/>
</g>
<!-- Node5&#45;&gt;Node4 -->
<g id="edge4" class="edge">
<title>Node5&#45;&gt;Node4</title>
<path fill="none" stroke="midnightblue" d="M186.26,-254.55C193.7,-250.53 201.59,-245.89 208.5,-241 226.07,-228.57 244.11,-211.04 254.26,-200.66"/>
<polygon fill="midnightblue" stroke="midnightblue" points="184.44,-251.55 177.18,-259.27 187.67,-257.76 184.44,-251.55"/>
</g>
<!-- Node6 -->
<g id="node6" class="node">
<title>Node6</title>
<g id="a_node6"><a xlink:href="classdrain_1_1ReferenceMap.html" target="_top" xlink:title=" ">
<polygon fill="white" stroke="black" points="41,-326.5 41,-345.5 128,-345.5 128,-326.5 41,-326.5"/>
<text text-anchor="middle" x="84.5" y="-333.5" font-family="Helvetica,sans-Serif" font-size="10.00">ReferenceMap</text>
</a>
</g>
</g>
<!-- Node6&#45;&gt;Node2 -->
<g id="edge18" class="edge">
<title>Node6&#45;&gt;Node2</title>
<path fill="none" stroke="#9a32cd" stroke-dasharray="5,2" d="M82.73,-316.15C81.66,-303.19 80.5,-285.57 80.5,-270 80.5,-270 80.5,-270 80.5,-123 80.5,-88.72 122.83,-75.79 155.9,-70.93"/>
<polygon fill="#9a32cd" stroke="#9a32cd" points="79.25,-316.53 83.61,-326.18 86.22,-315.91 79.25,-316.53"/>
<text text-anchor="middle" x="123.5" y="-188.5" font-family="Helvetica,sans-Serif" font-size="10.00"> allowedEncoding</text>
</g>
<!-- Node6&#45;&gt;Node5 -->
<g id="edge5" class="edge">
<title>Node6&#45;&gt;Node5</title>
<path fill="none" stroke="#9a32cd" stroke-dasharray="5,2" d="M102.31,-319.36C116.86,-306.58 136.88,-288.99 148.68,-278.63"/>
<polygon fill="#9a32cd" stroke="#9a32cd" points="99.68,-317 94.48,-326.23 104.3,-322.26 99.68,-317"/>
<text text-anchor="middle" x="156.5" y="-300" font-family="Helvetica,sans-Serif" font-size="10.00"> parameters</text>
</g>
<!-- Node7 -->
<g id="node7" class="node">
<title>Node7</title>
<g id="a_node7"><a xlink:href="classdrain_1_1SmartMap.html" target="_top" xlink:title=" ">
<polygon fill="white" stroke="black" points="13,-393.5 13,-412.5 156,-412.5 156,-393.5 13,-393.5"/>
<text text-anchor="middle" x="84.5" y="-400.5" font-family="Helvetica,sans-Serif" font-size="10.00">SmartMap&lt; Referencer &gt;</text>
</a>
</g>
</g>
<!-- Node7&#45;&gt;Node6 -->
<g id="edge6" class="edge">
<title>Node7&#45;&gt;Node6</title>
<path fill="none" stroke="midnightblue" d="M84.5,-383.04C84.5,-370.67 84.5,-355.12 84.5,-345.63"/>
<polygon fill="midnightblue" stroke="midnightblue" points="81,-383.23 84.5,-393.23 88,-383.23 81,-383.23"/>
</g>
<!-- Node8 -->
<g id="node8" class="node">
<title>Node8</title>
<g id="a_node8"><a xlink:title=" ">
<polygon fill="white" stroke="#bfbfbf" points="0,-450.5 0,-469.5 169,-469.5 169,-450.5 0,-450.5"/>
<text text-anchor="middle" x="84.5" y="-457.5" font-family="Helvetica,sans-Serif" font-size="10.00">map&lt; std::string, Referencer &gt;</text>
</a>
</g>
</g>
<!-- Node8&#45;&gt;Node7 -->
<g id="edge7" class="edge">
<title>Node8&#45;&gt;Node7</title>
<path fill="none" stroke="midnightblue" d="M84.5,-440.12C84.5,-430.82 84.5,-420.06 84.5,-412.71"/>
<polygon fill="midnightblue" stroke="midnightblue" points="81,-440.41 84.5,-450.41 88,-440.41 81,-440.41"/>
</g>
<!-- Node9 -->
<g id="node9" class="node">
<title>Node9</title>
<g id="a_node9"><a xlink:href="classrack_1_1ODIMPathMatcher.html" target="_top" xlink:title="Structure for testing if a path matches a given sequence of path elements.">
<polygon fill="white" stroke="black" points="207,-259.5 207,-278.5 312,-278.5 312,-259.5 207,-259.5"/>
<text text-anchor="middle" x="259.5" y="-266.5" font-family="Helvetica,sans-Serif" font-size="10.00">ODIMPathMatcher</text>
</a>
</g>
</g>
<!-- Node9&#45;&gt;Node4 -->
<g id="edge8" class="edge">
<title>Node9&#45;&gt;Node4</title>
<path fill="none" stroke="#9a32cd" stroke-dasharray="5,2" d="M260.24,-249.22C260.85,-233.7 261.7,-212.36 262.16,-200.62"/>
<polygon fill="#9a32cd" stroke="#9a32cd" points="256.74,-249.15 259.84,-259.28 263.74,-249.43 256.74,-249.15"/>
<text text-anchor="middle" x="294" y="-227.5" font-family="Helvetica,sans-Serif" font-size="10.00"> pathMatcher</text>
</g>
<!-- Node10 -->
<g id="node10" class="node">
<title>Node10</title>
<g id="a_node10"><a xlink:href="classdrain_1_1Path.html" target="_top" xlink:title=" ">
<polygon fill="white" stroke="black" points="172.5,-326.5 172.5,-345.5 346.5,-345.5 346.5,-326.5 172.5,-326.5"/>
<text text-anchor="middle" x="259.5" y="-333.5" font-family="Helvetica,sans-Serif" font-size="10.00">Path&lt; ODIMPathElemMatcher &gt;</text>
</a>
</g>
</g>
<!-- Node10&#45;&gt;Node9 -->
<g id="edge9" class="edge">
<title>Node10&#45;&gt;Node9</title>
<path fill="none" stroke="midnightblue" d="M259.5,-316.04C259.5,-303.67 259.5,-288.12 259.5,-278.63"/>
<polygon fill="midnightblue" stroke="midnightblue" points="256,-316.23 259.5,-326.23 263,-316.23 256,-316.23"/>
</g>
<!-- Node11 -->
<g id="node11" class="node">
<title>Node11</title>
<g id="a_node11"><a xlink:title=" ">
<polygon fill="white" stroke="#bfbfbf" points="175,-393.5 175,-412.5 342,-412.5 342,-393.5 175,-393.5"/>
<text text-anchor="middle" x="258.5" y="-400.5" font-family="Helvetica,sans-Serif" font-size="10.00">list&lt; ODIMPathElemMatcher &gt;</text>
</a>
</g>
</g>
<!-- Node11&#45;&gt;Node10 -->
<g id="edge10" class="edge">
<title>Node11&#45;&gt;Node10</title>
<path fill="none" stroke="midnightblue" d="M258.79,-383.04C258.98,-370.67 259.22,-355.12 259.37,-345.63"/>
<polygon fill="midnightblue" stroke="midnightblue" points="255.29,-383.18 258.63,-393.23 262.29,-383.29 255.29,-383.18"/>
</g>
<!-- Node12 -->
<g id="node12" class="node">
<title>Node12</title>
<g id="a_node12"><a xlink:href="structdrain_1_1PathSeparatorPolicy.html" target="_top" xlink:title="Determines if separators will be stored in the path.">
<polygon fill="white" stroke="black" points="360,-393.5 360,-412.5 475,-412.5 475,-393.5 360,-393.5"/>
<text text-anchor="middle" x="417.5" y="-400.5" font-family="Helvetica,sans-Serif" font-size="10.00">PathSeparatorPolicy</text>
</a>
</g>
</g>
<!-- Node12&#45;&gt;Node10 -->
<g id="edge11" class="edge">
<title>Node12&#45;&gt;Node10</title>
<path fill="none" stroke="#9a32cd" stroke-dasharray="5,2" d="M386.99,-389.45C355.71,-376.58 307.88,-356.9 280.57,-345.67"/>
<polygon fill="#9a32cd" stroke="#9a32cd" points="385.94,-392.8 396.52,-393.37 388.6,-386.33 385.94,-392.8"/>
<text text-anchor="middle" x="372.5" y="-367" font-family="Helvetica,sans-Serif" font-size="10.00"> separator</text>
</g>
<!-- Node13 -->
<g id="node13" class="node">
<title>Node13</title>
<g id="a_node13"><a xlink:href="classdrain_1_1UniTuple.html" target="_top" xlink:title=" ">
<polygon fill="white" stroke="black" points="360.5,-450.5 360.5,-469.5 474.5,-469.5 474.5,-450.5 360.5,-450.5"/>
<text text-anchor="middle" x="417.5" y="-457.5" font-family="Helvetica,sans-Serif" font-size="10.00">UniTuple&lt; bool, 3 &gt;</text>
</a>
</g>
</g>
<!-- Node13&#45;&gt;Node12 -->
<g id="edge12" class="edge">
<title>Node13&#45;&gt;Node12</title>
<path fill="none" stroke="midnightblue" d="M417.5,-440.12C417.5,-430.82 417.5,-420.06 417.5,-412.71"/>
<polygon fill="midnightblue" stroke="midnightblue" points="414,-440.41 417.5,-450.41 421,-440.41 414,-440.41"/>
</g>
<!-- Node14 -->
<g id="node14" class="node">
<title>Node14</title>
<g id="a_node14"><a xlink:href="classdrain_1_1RegExp.html" target="_top" xlink:title=" ">
<polygon fill="white" stroke="black" points="330,-259.5 330,-278.5 383,-278.5 383,-259.5 330,-259.5"/>
<text text-anchor="middle" x="356.5" y="-266.5" font-family="Helvetica,sans-Serif" font-size="10.00">RegExp</text>
</a>
</g>
</g>
<!-- Node14&#45;&gt;Node4 -->
<g id="edge13" class="edge">
<title>Node14&#45;&gt;Node4</title>
<path fill="none" stroke="#9a32cd" stroke-dasharray="5,2" d="M350.35,-249.59C346.15,-239.41 339.66,-227.2 330.5,-219 321.13,-210.61 308.84,-204.67 297.29,-200.54"/>
<polygon fill="#9a32cd" stroke="#9a32cd" points="347.16,-251.05 353.92,-259.2 353.72,-248.61 347.16,-251.05"/>
<text text-anchor="middle" x="386" y="-233" font-family="Helvetica,sans-Serif" font-size="10.00"> quantityRegExp</text>
<text text-anchor="middle" x="386" y="-222" font-family="Helvetica,sans-Serif" font-size="10.00">qualityRegExp</text>
</g>
<!-- Node15 -->
<g id="node15" class="node">
<title>Node15</title>
<g id="a_node15"><a xlink:href="classdrain_1_1Range.html" target="_top" xlink:title=" ">
<polygon fill="white" stroke="black" points="405,-259.5 405,-278.5 508,-278.5 508,-259.5 405,-259.5"/>
<text text-anchor="middle" x="456.5" y="-266.5" font-family="Helvetica,sans-Serif" font-size="10.00">Range&lt; double &gt;</text>
</a>
</g>
</g>
<!-- Node15&#45;&gt;Node4 -->
<g id="edge14" class="edge">
<title>Node15&#45;&gt;Node4</title>
<path fill="none" stroke="#9a32cd" stroke-dasharray="5,2" d="M451.27,-249.46C447.31,-238.86 440.75,-226.27 430.5,-219 386.86,-188.07 364.26,-209.83 311.5,-201 308.6,-200.51 305.61,-200 302.59,-199.47"/>
<polygon fill="#9a32cd" stroke="#9a32cd" points="447.99,-250.69 454.41,-259.12 454.65,-248.53 447.99,-250.69"/>
<text text-anchor="middle" x="466.5" y="-227.5" font-family="Helvetica,sans-Serif" font-size="10.00"> elangle</text>
</g>
<!-- Node16 -->
<g id="node16" class="node">
<title>Node16</title>
<g id="a_node16"><a xlink:href="classdrain_1_1UniTuple.html" target="_top" xlink:title=" ">
<polygon fill="white" stroke="black" points="393.5,-326.5 393.5,-345.5 519.5,-345.5 519.5,-326.5 393.5,-326.5"/>
<text text-anchor="middle" x="456.5" y="-333.5" font-family="Helvetica,sans-Serif" font-size="10.00">UniTuple&lt; double, 2 &gt;</text>
</a>
</g>
</g>
<!-- Node16&#45;&gt;Node15 -->
<g id="edge15" class="edge">
<title>Node16&#45;&gt;Node15</title>
<path fill="none" stroke="midnightblue" d="M456.5,-316.04C456.5,-303.67 456.5,-288.12 456.5,-278.63"/>
<polygon fill="midnightblue" stroke="midnightblue" points="453,-316.23 456.5,-326.23 460,-316.23 453,-316.23"/>
</g>
<!-- Node17 -->
<g id="node17" class="node">
<title>Node17</title>
<g id="a_node17"><a xlink:href="classrack_1_1ODIMPathElem.html" target="_top" xlink:title=" ">
<polygon fill="white" stroke="black" points="320.5,-181.5 320.5,-200.5 410.5,-200.5 410.5,-181.5 320.5,-181.5"/>
<text text-anchor="middle" x="365.5" y="-188.5" font-family="Helvetica,sans-Serif" font-size="10.00">ODIMPathElem</text>
</a>
</g>
</g>
<!-- Node17&#45;&gt;Node3 -->
<g id="edge16" class="edge">
<title>Node17&#45;&gt;Node3</title>
<path fill="none" stroke="#9a32cd" stroke-dasharray="5,2" d="M353.53,-173.4C347.57,-166.06 339.86,-157.81 331.5,-152 319.98,-144 305.76,-137.92 293.23,-133.57"/>
<polygon fill="#9a32cd" stroke="#9a32cd" points="350.79,-175.58 359.65,-181.38 356.34,-171.32 350.79,-175.58"/>
<text text-anchor="middle" x="381.5" y="-155" font-family="Helvetica,sans-Serif" font-size="10.00"> appendResults</text>
</g>
</g>
</svg>
