<?xml version="1.0" encoding="UTF-8" standalone="no"?>
<!DOCTYPE svg PUBLIC "-//W3C//DTD SVG 1.1//EN"
 "http://www.w3.org/Graphics/SVG/1.1/DTD/svg11.dtd">
<!-- Generated by graphviz version 2.43.0 (0)
 -->
<!-- Title: Precip Pages: 1 -->
<svg width="177pt" height="266pt"
 viewBox="0.00 0.00 177.00 266.00" xmlns="http://www.w3.org/2000/svg" xmlns:xlink="http://www.w3.org/1999/xlink">
<g id="graph0" class="graph" transform="scale(1 1) rotate(0) translate(4 262)">
<title>Precip</title>
<polygon fill="white" stroke="transparent" points="-4,4 -4,-262 173,-262 173,4 -4,4"/>
<!-- Node1 -->
<g id="node1" class="node">
<title>Node1</title>
<g id="a_node1"><a xlink:title=" ">
<polygon fill="#bfbfbf" stroke="black" points="61,-0.5 61,-19.5 108,-19.5 108,-0.5 61,-0.5"/>
<text text-anchor="middle" x="84.5" y="-7.5" font-family="Helvetica,sans-Serif" font-size="10.00">Precip</text>
</a>
</g>
</g>
<!-- Node2 -->
<g id="node2" class="node">
<title>Node2</title>
<g id="a_node2"><a xlink:href="classdrain_1_1BeanLike.html" target="_top" xlink:title="Something which has a name, a description and possibly some parameters of varying type.">
<polygon fill="white" stroke="black" points="54,-57.5 54,-76.5 115,-76.5 115,-57.5 54,-57.5"/>
<text text-anchor="middle" x="84.5" y="-64.5" font-family="Helvetica,sans-Serif" font-size="10.00">BeanLike</text>
</a>
</g>
</g>
<!-- Node2&#45;&gt;Node1 -->
<g id="edge1" class="edge">
<title>Node2&#45;&gt;Node1</title>
<path fill="none" stroke="midnightblue" d="M84.5,-47.12C84.5,-37.82 84.5,-27.06 84.5,-19.71"/>
<polygon fill="midnightblue" stroke="midnightblue" points="81,-47.41 84.5,-57.41 88,-47.41 81,-47.41"/>
</g>
<!-- Node3 -->
<g id="node3" class="node">
<title>Node3</title>
<g id="a_node3"><a xlink:href="classdrain_1_1ReferenceMap.html" target="_top" xlink:title=" ">
<polygon fill="white" stroke="black" points="41,-124.5 41,-143.5 128,-143.5 128,-124.5 41,-124.5"/>
<text text-anchor="middle" x="84.5" y="-131.5" font-family="Helvetica,sans-Serif" font-size="10.00">ReferenceMap</text>
</a>
</g>
</g>
<!-- Node3&#45;&gt;Node2 -->
<g id="edge2" class="edge">
<title>Node3&#45;&gt;Node2</title>
<path fill="none" stroke="#9a32cd" stroke-dasharray="5,2" d="M84.5,-114.04C84.5,-101.67 84.5,-86.12 84.5,-76.63"/>
<polygon fill="#9a32cd" stroke="#9a32cd" points="81,-114.23 84.5,-124.23 88,-114.23 81,-114.23"/>
<text text-anchor="middle" x="114.5" y="-98" font-family="Helvetica,sans-Serif" font-size="10.00"> parameters</text>
</g>
<!-- Node4 -->
<g id="node4" class="node">
<title>Node4</title>
<g id="a_node4"><a xlink:href="classdrain_1_1SmartMap.html" target="_top" xlink:title=" ">
<polygon fill="white" stroke="black" points="13,-181.5 13,-200.5 156,-200.5 156,-181.5 13,-181.5"/>
<text text-anchor="middle" x="84.5" y="-188.5" font-family="Helvetica,sans-Serif" font-size="10.00">SmartMap&lt; Referencer &gt;</text>
</a>
</g>
</g>
<!-- Node4&#45;&gt;Node3 -->
<g id="edge3" class="edge">
<title>Node4&#45;&gt;Node3</title>
<path fill="none" stroke="midnightblue" d="M84.5,-171.12C84.5,-161.82 84.5,-151.06 84.5,-143.71"/>
<polygon fill="midnightblue" stroke="midnightblue" points="81,-171.41 84.5,-181.41 88,-171.41 81,-171.41"/>
</g>
<!-- Node5 -->
<g id="node5" class="node">
<title>Node5</title>
<g id="a_node5"><a xlink:title=" ">
<polygon fill="white" stroke="#bfbfbf" points="0,-238.5 0,-257.5 169,-257.5 169,-238.5 0,-238.5"/>
<text text-anchor="middle" x="84.5" y="-245.5" font-family="Helvetica,sans-Serif" font-size="10.00">map&lt; std::string, Referencer &gt;</text>
</a>
</g>
</g>
<!-- Node5&#45;&gt;Node4 -->
<g id="edge4" class="edge">
<title>Node5&#45;&gt;Node4</title>
<path fill="none" stroke="midnightblue" d="M84.5,-228.12C84.5,-218.82 84.5,-208.06 84.5,-200.71"/>
<polygon fill="midnightblue" stroke="midnightblue" points="81,-228.41 84.5,-238.41 88,-228.41 81,-228.41"/>
</g>
</g>
</svg>
