<?xml version="1.0" encoding="UTF-8" standalone="no"?>
<!DOCTYPE svg PUBLIC "-//W3C//DTD SVG 1.1//EN"
 "http://www.w3.org/Graphics/SVG/1.1/DTD/svg11.dtd">
<!-- Generated by graphviz version 2.43.0 (0)
 -->
<!-- Title: GaussianStripeWeighted&lt; DIR &gt; Pages: 1 -->
<svg width="184pt" height="341pt"
 viewBox="0.00 0.00 184.00 341.00" xmlns="http://www.w3.org/2000/svg" xmlns:xlink="http://www.w3.org/1999/xlink">
<g id="graph0" class="graph" transform="scale(1 1) rotate(0) translate(4 337)">
<title>GaussianStripeWeighted&lt; DIR &gt;</title>
<polygon fill="white" stroke="transparent" points="-4,4 -4,-337 180,-337 180,4 -4,4"/>
<!-- Node1 -->
<g id="node1" class="node">
<title>Node1</title>
<g id="a_node1"><a xlink:title=" ">
<polygon fill="#bfbfbf" stroke="black" points="19.5,-0.5 19.5,-30.5 156.5,-30.5 156.5,-0.5 19.5,-0.5"/>
<text text-anchor="start" x="27.5" y="-18.5" font-family="Helvetica,sans-Serif" font-size="10.00">GaussianStripeWeighted</text>
<text text-anchor="middle" x="88" y="-7.5" font-family="Helvetica,sans-Serif" font-size="10.00">&lt; DIR &gt;</text>
</a>
</g>
</g>
<!-- Node2 -->
<g id="node2" class="node">
<title>Node2</title>
<g id="a_node2"><a xlink:href="classdrain_1_1image_1_1GaussianStripe.html" target="_top" xlink:title=" ">
<polygon fill="white" stroke="black" points="18.5,-67.5 18.5,-97.5 157.5,-97.5 157.5,-67.5 18.5,-67.5"/>
<text text-anchor="start" x="26.5" y="-85.5" font-family="Helvetica,sans-Serif" font-size="10.00">GaussianStripe&lt; true,</text>
<text text-anchor="middle" x="88" y="-74.5" font-family="Helvetica,sans-Serif" font-size="10.00"> WeightedWindowCore &gt;</text>
</a>
</g>
</g>
<!-- Node2&#45;&gt;Node1 -->
<g id="edge1" class="edge">
<title>Node2&#45;&gt;Node1</title>
<path fill="none" stroke="midnightblue" d="M88,-57.11C88,-48.15 88,-38.32 88,-30.58"/>
<polygon fill="midnightblue" stroke="midnightblue" points="84.5,-57.4 88,-67.4 91.5,-57.4 84.5,-57.4"/>
</g>
<!-- Node3 -->
<g id="node3" class="node">
<title>Node3</title>
<g id="a_node3"><a xlink:href="classdrain_1_1image_1_1Window.html" target="_top" xlink:title=" ">
<polygon fill="white" stroke="black" points="0,-134.5 0,-164.5 176,-164.5 176,-134.5 0,-134.5"/>
<text text-anchor="start" x="8" y="-152.5" font-family="Helvetica,sans-Serif" font-size="10.00">Window&lt; GaussianWindowConf,</text>
<text text-anchor="middle" x="88" y="-141.5" font-family="Helvetica,sans-Serif" font-size="10.00"> WeightedWindowCore &gt;</text>
</a>
</g>
</g>
<!-- Node3&#45;&gt;Node2 -->
<g id="edge2" class="edge">
<title>Node3&#45;&gt;Node2</title>
<path fill="none" stroke="midnightblue" d="M88,-124.11C88,-115.15 88,-105.32 88,-97.58"/>
<polygon fill="midnightblue" stroke="midnightblue" points="84.5,-124.4 88,-134.4 91.5,-124.4 84.5,-124.4"/>
</g>
<!-- Node4 -->
<g id="node4" class="node">
<title>Node4</title>
<g id="a_node4"><a xlink:href="classdrain_1_1image_1_1WeightedWindowCore.html" target="_top" xlink:title=" ">
<polygon fill="white" stroke="black" points="25.5,-201.5 25.5,-220.5 150.5,-220.5 150.5,-201.5 25.5,-201.5"/>
<text text-anchor="middle" x="88" y="-208.5" font-family="Helvetica,sans-Serif" font-size="10.00">WeightedWindowCore</text>
</a>
</g>
</g>
<!-- Node4&#45;&gt;Node3 -->
<g id="edge3" class="edge">
<title>Node4&#45;&gt;Node3</title>
<path fill="none" stroke="midnightblue" d="M88,-191.23C88,-182.59 88,-172.5 88,-164.52"/>
<polygon fill="midnightblue" stroke="midnightblue" points="84.5,-191.48 88,-201.48 91.5,-191.48 84.5,-191.48"/>
</g>
<!-- Node5 -->
<g id="node5" class="node">
<title>Node5</title>
<g id="a_node5"><a xlink:href="classdrain_1_1image_1_1WindowCore.html" target="_top" xlink:title="Container for source data (input) and destination data (output). May also contain metadata of them.">
<polygon fill="white" stroke="black" points="49,-257.5 49,-276.5 127,-276.5 127,-257.5 49,-257.5"/>
<text text-anchor="middle" x="88" y="-264.5" font-family="Helvetica,sans-Serif" font-size="10.00">WindowCore</text>
</a>
</g>
</g>
<!-- Node5&#45;&gt;Node4 -->
<g id="edge4" class="edge">
<title>Node5&#45;&gt;Node4</title>
<path fill="none" stroke="midnightblue" d="M88,-246.8C88,-237.91 88,-227.78 88,-220.75"/>
<polygon fill="midnightblue" stroke="midnightblue" points="84.5,-247.08 88,-257.08 91.5,-247.08 84.5,-247.08"/>
</g>
<!-- Node6 -->
<g id="node6" class="node">
<title>Node6</title>
<g id="a_node6"><a xlink:href="classdrain_1_1image_1_1WindowCoreBase.html" target="_top" xlink:title="Provides splitting frames.">
<polygon fill="white" stroke="black" points="37,-313.5 37,-332.5 139,-332.5 139,-313.5 37,-313.5"/>
<text text-anchor="middle" x="88" y="-320.5" font-family="Helvetica,sans-Serif" font-size="10.00">WindowCoreBase</text>
</a>
</g>
</g>
<!-- Node6&#45;&gt;Node5 -->
<g id="edge5" class="edge">
<title>Node6&#45;&gt;Node5</title>
<path fill="none" stroke="midnightblue" d="M88,-302.8C88,-293.91 88,-283.78 88,-276.75"/>
<polygon fill="midnightblue" stroke="midnightblue" points="84.5,-303.08 88,-313.08 91.5,-303.08 84.5,-303.08"/>
</g>
</g>
</svg>
