<?xml version="1.0" encoding="UTF-8" standalone="no"?>
<!DOCTYPE svg PUBLIC "-//W3C//DTD SVG 1.1//EN"
 "http://www.w3.org/Graphics/SVG/1.1/DTD/svg11.dtd">
<!-- Generated by graphviz version 2.43.0 (0)
 -->
<!-- Title: PolarSector Pages: 1 -->
<svg width="405pt" height="287pt"
 viewBox="0.00 0.00 404.50 287.00" xmlns="http://www.w3.org/2000/svg" xmlns:xlink="http://www.w3.org/1999/xlink">
<g id="graph0" class="graph" transform="scale(1 1) rotate(0) translate(4 283)">
<title>PolarSector</title>
<polygon fill="white" stroke="transparent" points="-4,4 -4,-283 400.5,-283 400.5,4 -4,4"/>
<!-- Node1 -->
<g id="node1" class="node">
<title>Node1</title>
<g id="a_node1"><a xlink:title=" ">
<polygon fill="#bfbfbf" stroke="black" points="163.5,-0.5 163.5,-19.5 235.5,-19.5 235.5,-0.5 163.5,-0.5"/>
<text text-anchor="middle" x="199.5" y="-7.5" font-family="Helvetica,sans-Serif" font-size="10.00">PolarSector</text>
</a>
</g>
</g>
<!-- Node2 -->
<g id="node2" class="node">
<title>Node2</title>
<g id="a_node2"><a xlink:href="classdrain_1_1BeanLike.html" target="_top" xlink:title="Something which has a name, a description and possibly some parameters of varying type.">
<polygon fill="white" stroke="black" points="73,-78.5 73,-97.5 134,-97.5 134,-78.5 73,-78.5"/>
<text text-anchor="middle" x="103.5" y="-85.5" font-family="Helvetica,sans-Serif" font-size="10.00">BeanLike</text>
</a>
</g>
</g>
<!-- Node2&#45;&gt;Node1 -->
<g id="edge1" class="edge">
<title>Node2&#45;&gt;Node1</title>
<path fill="none" stroke="midnightblue" d="M122.52,-71.94C142.3,-56.28 172.56,-32.33 188.62,-19.62"/>
<polygon fill="midnightblue" stroke="midnightblue" points="120.18,-69.33 114.51,-78.28 124.53,-74.82 120.18,-69.33"/>
</g>
<!-- Node3 -->
<g id="node3" class="node">
<title>Node3</title>
<g id="a_node3"><a xlink:href="classdrain_1_1ReferenceMap.html" target="_top" xlink:title=" ">
<polygon fill="white" stroke="black" points="41,-145.5 41,-164.5 128,-164.5 128,-145.5 41,-145.5"/>
<text text-anchor="middle" x="84.5" y="-152.5" font-family="Helvetica,sans-Serif" font-size="10.00">ReferenceMap</text>
</a>
</g>
</g>
<!-- Node3&#45;&gt;Node2 -->
<g id="edge2" class="edge">
<title>Node3&#45;&gt;Node2</title>
<path fill="none" stroke="#9a32cd" stroke-dasharray="5,2" d="M89.93,-135.41C93.56,-122.99 98.18,-107.22 100.98,-97.63"/>
<polygon fill="#9a32cd" stroke="#9a32cd" points="86.51,-134.65 87.06,-145.23 93.23,-136.62 86.51,-134.65"/>
<text text-anchor="middle" x="125.5" y="-119" font-family="Helvetica,sans-Serif" font-size="10.00"> parameters</text>
</g>
<!-- Node4 -->
<g id="node4" class="node">
<title>Node4</title>
<g id="a_node4"><a xlink:href="classdrain_1_1SmartMap.html" target="_top" xlink:title=" ">
<polygon fill="white" stroke="black" points="13,-202.5 13,-221.5 156,-221.5 156,-202.5 13,-202.5"/>
<text text-anchor="middle" x="84.5" y="-209.5" font-family="Helvetica,sans-Serif" font-size="10.00">SmartMap&lt; Referencer &gt;</text>
</a>
</g>
</g>
<!-- Node4&#45;&gt;Node3 -->
<g id="edge3" class="edge">
<title>Node4&#45;&gt;Node3</title>
<path fill="none" stroke="midnightblue" d="M84.5,-192.12C84.5,-182.82 84.5,-172.06 84.5,-164.71"/>
<polygon fill="midnightblue" stroke="midnightblue" points="81,-192.41 84.5,-202.41 88,-192.41 81,-192.41"/>
</g>
<!-- Node5 -->
<g id="node5" class="node">
<title>Node5</title>
<g id="a_node5"><a xlink:title=" ">
<polygon fill="white" stroke="#bfbfbf" points="0,-259.5 0,-278.5 169,-278.5 169,-259.5 0,-259.5"/>
<text text-anchor="middle" x="84.5" y="-266.5" font-family="Helvetica,sans-Serif" font-size="10.00">map&lt; std::string, Referencer &gt;</text>
</a>
</g>
</g>
<!-- Node5&#45;&gt;Node4 -->
<g id="edge4" class="edge">
<title>Node5&#45;&gt;Node4</title>
<path fill="none" stroke="midnightblue" d="M84.5,-249.12C84.5,-239.82 84.5,-229.06 84.5,-221.71"/>
<polygon fill="midnightblue" stroke="midnightblue" points="81,-249.41 84.5,-259.41 88,-249.41 81,-249.41"/>
</g>
<!-- Node6 -->
<g id="node6" class="node">
<title>Node6</title>
<g id="a_node6"><a xlink:href="classdrain_1_1Range.html" target="_top" xlink:title=" ">
<polygon fill="white" stroke="black" points="158,-78.5 158,-97.5 241,-97.5 241,-78.5 158,-78.5"/>
<text text-anchor="middle" x="199.5" y="-85.5" font-family="Helvetica,sans-Serif" font-size="10.00">Range&lt; int &gt;</text>
</a>
</g>
</g>
<!-- Node6&#45;&gt;Node1 -->
<g id="edge5" class="edge">
<title>Node6&#45;&gt;Node1</title>
<path fill="none" stroke="#9a32cd" stroke-dasharray="5,2" d="M199.5,-68.22C199.5,-52.7 199.5,-31.36 199.5,-19.62"/>
<polygon fill="#9a32cd" stroke="#9a32cd" points="196,-68.28 199.5,-78.28 203,-68.28 196,-68.28"/>
<text text-anchor="middle" x="224" y="-52" font-family="Helvetica,sans-Serif" font-size="10.00"> binRange</text>
<text text-anchor="middle" x="224" y="-41" font-family="Helvetica,sans-Serif" font-size="10.00">rayRange</text>
</g>
<!-- Node7 -->
<g id="node7" class="node">
<title>Node7</title>
<g id="a_node7"><a xlink:href="classdrain_1_1UniTuple.html" target="_top" xlink:title=" ">
<polygon fill="white" stroke="black" points="146.5,-145.5 146.5,-164.5 252.5,-164.5 252.5,-145.5 146.5,-145.5"/>
<text text-anchor="middle" x="199.5" y="-152.5" font-family="Helvetica,sans-Serif" font-size="10.00">UniTuple&lt; int, 2 &gt;</text>
</a>
</g>
</g>
<!-- Node7&#45;&gt;Node6 -->
<g id="edge6" class="edge">
<title>Node7&#45;&gt;Node6</title>
<path fill="none" stroke="midnightblue" d="M199.5,-135.04C199.5,-122.67 199.5,-107.12 199.5,-97.63"/>
<polygon fill="midnightblue" stroke="midnightblue" points="196,-135.23 199.5,-145.23 203,-135.23 196,-135.23"/>
</g>
<!-- Node8 -->
<g id="node8" class="node">
<title>Node8</title>
<g id="a_node8"><a xlink:href="classdrain_1_1Range.html" target="_top" xlink:title=" ">
<polygon fill="white" stroke="black" points="271,-78.5 271,-97.5 374,-97.5 374,-78.5 271,-78.5"/>
<text text-anchor="middle" x="322.5" y="-85.5" font-family="Helvetica,sans-Serif" font-size="10.00">Range&lt; double &gt;</text>
</a>
</g>
</g>
<!-- Node8&#45;&gt;Node1 -->
<g id="edge7" class="edge">
<title>Node8&#45;&gt;Node1</title>
<path fill="none" stroke="#9a32cd" stroke-dasharray="5,2" d="M302.72,-72.04C288.97,-61.92 270.02,-48.53 252.5,-38 241.35,-31.3 228.33,-24.65 217.99,-19.63"/>
<polygon fill="#9a32cd" stroke="#9a32cd" points="300.83,-75 310.95,-78.16 305.01,-69.38 300.83,-75"/>
<text text-anchor="middle" x="323" y="-52" font-family="Helvetica,sans-Serif" font-size="10.00"> azmRange</text>
<text text-anchor="middle" x="323" y="-41" font-family="Helvetica,sans-Serif" font-size="10.00">distanceRange</text>
</g>
<!-- Node9 -->
<g id="node9" class="node">
<title>Node9</title>
<g id="a_node9"><a xlink:href="classdrain_1_1UniTuple.html" target="_top" xlink:title=" ">
<polygon fill="white" stroke="black" points="270.5,-145.5 270.5,-164.5 396.5,-164.5 396.5,-145.5 270.5,-145.5"/>
<text text-anchor="middle" x="333.5" y="-152.5" font-family="Helvetica,sans-Serif" font-size="10.00">UniTuple&lt; double, 2 &gt;</text>
</a>
</g>
</g>
<!-- Node9&#45;&gt;Node8 -->
<g id="edge8" class="edge">
<title>Node9&#45;&gt;Node8</title>
<path fill="none" stroke="midnightblue" d="M330.29,-135.04C328.2,-122.67 325.57,-107.12 323.96,-97.63"/>
<polygon fill="midnightblue" stroke="midnightblue" points="326.9,-135.96 332.02,-145.23 333.8,-134.79 326.9,-135.96"/>
</g>
</g>
</svg>
