<?xml version="1.0" encoding="UTF-8" standalone="no"?>
<!DOCTYPE svg PUBLIC "-//W3C//DTD SVG 1.1//EN"
 "http://www.w3.org/Graphics/SVG/1.1/DTD/svg11.dtd">
<!-- Generated by graphviz version 2.43.0 (0)
 -->
<!-- Title: FuzzyStep&lt; T &gt; Pages: 1 -->
<svg width="103pt" height="252pt"
 viewBox="0.00 0.00 103.00 252.00" xmlns="http://www.w3.org/2000/svg" xmlns:xlink="http://www.w3.org/1999/xlink">
<g id="graph0" class="graph" transform="scale(1 1) rotate(0) translate(4 248)">
<title>FuzzyStep&lt; T &gt;</title>
<polygon fill="white" stroke="transparent" points="-4,4 -4,-248 99,-248 99,4 -4,4"/>
<!-- Node1 -->
<g id="node1" class="node">
<title>Node1</title>
<g id="a_node1"><a xlink:title="A basic, linear transition from 0 to scale between (start) and (end) .">
<polygon fill="#bfbfbf" stroke="black" points="0,-0.5 0,-19.5 95,-19.5 95,-0.5 0,-0.5"/>
<text text-anchor="middle" x="47.5" y="-7.5" font-family="Helvetica,sans-Serif" font-size="10.00">FuzzyStep&lt; T &gt;</text>
</a>
</g>
</g>
<!-- Node2 -->
<g id="node2" class="node">
<title>Node2</title>
<g id="a_node2"><a xlink:href="classdrain_1_1Fuzzifier.html" target="_top" xlink:title="A base class for fuzzy functions; also an unary functor.">
<polygon fill="white" stroke="black" points="4.5,-56.5 4.5,-75.5 90.5,-75.5 90.5,-56.5 4.5,-56.5"/>
<text text-anchor="middle" x="47.5" y="-63.5" font-family="Helvetica,sans-Serif" font-size="10.00">Fuzzifier&lt; T &gt;</text>
</a>
</g>
</g>
<!-- Node2&#45;&gt;Node1 -->
<g id="edge1" class="edge">
<title>Node2&#45;&gt;Node1</title>
<path fill="none" stroke="midnightblue" d="M47.5,-45.8C47.5,-36.91 47.5,-26.78 47.5,-19.75"/>
<polygon fill="midnightblue" stroke="midnightblue" points="44,-46.08 47.5,-56.08 51,-46.08 44,-46.08"/>
</g>
<!-- Node3 -->
<g id="node3" class="node">
<title>Node3</title>
<g id="a_node3"><a xlink:href="structdrain_1_1UnaryFunctor.html" target="_top" xlink:title=" ">
<polygon fill="white" stroke="black" points="6.5,-112.5 6.5,-131.5 88.5,-131.5 88.5,-112.5 6.5,-112.5"/>
<text text-anchor="middle" x="47.5" y="-119.5" font-family="Helvetica,sans-Serif" font-size="10.00">UnaryFunctor</text>
</a>
</g>
</g>
<!-- Node3&#45;&gt;Node2 -->
<g id="edge2" class="edge">
<title>Node3&#45;&gt;Node2</title>
<path fill="none" stroke="midnightblue" d="M47.5,-101.8C47.5,-92.91 47.5,-82.78 47.5,-75.75"/>
<polygon fill="midnightblue" stroke="midnightblue" points="44,-102.08 47.5,-112.08 51,-102.08 44,-102.08"/>
</g>
<!-- Node4 -->
<g id="node4" class="node">
<title>Node4</title>
<g id="a_node4"><a xlink:href="classdrain_1_1Functor.html" target="_top" xlink:title="Base class for sequential computations. Optional scaling utilities.">
<polygon fill="white" stroke="black" points="21,-168.5 21,-187.5 74,-187.5 74,-168.5 21,-168.5"/>
<text text-anchor="middle" x="47.5" y="-175.5" font-family="Helvetica,sans-Serif" font-size="10.00">Functor</text>
</a>
</g>
</g>
<!-- Node4&#45;&gt;Node3 -->
<g id="edge3" class="edge">
<title>Node4&#45;&gt;Node3</title>
<path fill="none" stroke="midnightblue" d="M47.5,-157.8C47.5,-148.91 47.5,-138.78 47.5,-131.75"/>
<polygon fill="midnightblue" stroke="midnightblue" points="44,-158.08 47.5,-168.08 51,-158.08 44,-158.08"/>
</g>
<!-- Node5 -->
<g id="node5" class="node">
<title>Node5</title>
<g id="a_node5"><a xlink:href="classdrain_1_1BeanLike.html" target="_top" xlink:title="Something which has a name, a description and possibly some parameters of varying type.">
<polygon fill="white" stroke="black" points="17,-224.5 17,-243.5 78,-243.5 78,-224.5 17,-224.5"/>
<text text-anchor="middle" x="47.5" y="-231.5" font-family="Helvetica,sans-Serif" font-size="10.00">BeanLike</text>
</a>
</g>
</g>
<!-- Node5&#45;&gt;Node4 -->
<g id="edge4" class="edge">
<title>Node5&#45;&gt;Node4</title>
<path fill="none" stroke="midnightblue" d="M47.5,-213.8C47.5,-204.91 47.5,-194.78 47.5,-187.75"/>
<polygon fill="midnightblue" stroke="midnightblue" points="44,-214.08 47.5,-224.08 51,-214.08 44,-214.08"/>
</g>
</g>
</svg>
