<?xml version="1.0" encoding="UTF-8" standalone="no"?>
<!DOCTYPE svg PUBLIC "-//W3C//DTD SVG 1.1//EN"
 "http://www.w3.org/Graphics/SVG/1.1/DTD/svg11.dtd">
<!-- Generated by graphviz version 2.43.0 (0)
 -->
<!-- Title: RadarFunctorOp&lt; F &gt; Pages: 1 -->
<svg width="591pt" height="574pt"
 viewBox="0.00 0.00 590.50 574.00" xmlns="http://www.w3.org/2000/svg" xmlns:xlink="http://www.w3.org/1999/xlink">
<g id="graph0" class="graph" transform="scale(1 1) rotate(0) translate(4 570)">
<title>RadarFunctorOp&lt; F &gt;</title>
<polygon fill="white" stroke="transparent" points="-4,4 -4,-570 586.5,-570 586.5,4 -4,4"/>
<!-- Node1 -->
<g id="node1" class="node">
<title>Node1</title>
<g id="a_node1"><a xlink:title="Convenience (abbreviation)">
<polygon fill="#bfbfbf" stroke="black" points="323,-0.5 323,-19.5 446,-19.5 446,-0.5 323,-0.5"/>
<text text-anchor="middle" x="384.5" y="-7.5" font-family="Helvetica,sans-Serif" font-size="10.00">RadarFunctorOp&lt; F &gt;</text>
</a>
</g>
</g>
<!-- Node2 -->
<g id="node2" class="node">
<title>Node2</title>
<g id="a_node2"><a xlink:href="classrack_1_1RadarFunctorBase.html" target="_top" xlink:title=" ">
<polygon fill="white" stroke="black" points="378,-95.5 378,-114.5 483,-114.5 483,-95.5 378,-95.5"/>
<text text-anchor="middle" x="430.5" y="-102.5" font-family="Helvetica,sans-Serif" font-size="10.00">RadarFunctorBase</text>
</a>
</g>
</g>
<!-- Node2&#45;&gt;Node1 -->
<g id="edge1" class="edge">
<title>Node2&#45;&gt;Node1</title>
<path fill="none" stroke="midnightblue" d="M421.78,-86.1C417.5,-77.32 412.25,-66.6 407.5,-57 401.09,-44.03 393.58,-29.06 388.93,-19.81"/>
<polygon fill="midnightblue" stroke="midnightblue" points="418.75,-87.87 426.28,-95.33 425.05,-84.8 418.75,-87.87"/>
</g>
<!-- Node3 -->
<g id="node3" class="node">
<title>Node3</title>
<g id="a_node3"><a xlink:href="classrack_1_1PolarODIM.html" target="_top" xlink:title="Metadata structure for single&#45;radar data (polar scans, volumes and products).">
<polygon fill="white" stroke="black" points="398.5,-200.5 398.5,-219.5 466.5,-219.5 466.5,-200.5 398.5,-200.5"/>
<text text-anchor="middle" x="432.5" y="-207.5" font-family="Helvetica,sans-Serif" font-size="10.00">PolarODIM</text>
</a>
</g>
</g>
<!-- Node3&#45;&gt;Node2 -->
<g id="edge2" class="edge">
<title>Node3&#45;&gt;Node2</title>
<path fill="none" stroke="#9a32cd" stroke-dasharray="5,2" d="M432.13,-189.94C431.69,-167.53 430.99,-131.31 430.67,-114.76"/>
<polygon fill="#9a32cd" stroke="#9a32cd" points="428.64,-190.29 432.33,-200.22 435.63,-190.15 428.64,-190.29"/>
<text text-anchor="middle" x="454" y="-174" font-family="Helvetica,sans-Serif" font-size="10.00"> odimSrc</text>
</g>
<!-- Node4 -->
<g id="node4" class="node">
<title>Node4</title>
<g id="a_node4"><a xlink:href="classrack_1_1ODIM.html" target="_top" xlink:title="ODIM metadata (quantity, gain, offset, undetect, nodata, date, time)">
<polygon fill="white" stroke="black" points="410.5,-257.5 410.5,-276.5 454.5,-276.5 454.5,-257.5 410.5,-257.5"/>
<text text-anchor="middle" x="432.5" y="-264.5" font-family="Helvetica,sans-Serif" font-size="10.00">ODIM</text>
</a>
</g>
</g>
<!-- Node4&#45;&gt;Node3 -->
<g id="edge3" class="edge">
<title>Node4&#45;&gt;Node3</title>
<path fill="none" stroke="midnightblue" d="M432.5,-247.12C432.5,-237.82 432.5,-227.06 432.5,-219.71"/>
<polygon fill="midnightblue" stroke="midnightblue" points="429,-247.41 432.5,-257.41 436,-247.41 429,-247.41"/>
</g>
<!-- Node5 -->
<g id="node5" class="node">
<title>Node5</title>
<g id="a_node5"><a xlink:href="classrack_1_1EncodingODIM.html" target="_top" xlink:title="Structure for data storage type, scaling and marker codes. Does not contain quantity.">
<polygon fill="white" stroke="black" points="293.5,-324.5 293.5,-343.5 381.5,-343.5 381.5,-324.5 293.5,-324.5"/>
<text text-anchor="middle" x="337.5" y="-331.5" font-family="Helvetica,sans-Serif" font-size="10.00">EncodingODIM</text>
</a>
</g>
</g>
<!-- Node5&#45;&gt;Node4 -->
<g id="edge4" class="edge">
<title>Node5&#45;&gt;Node4</title>
<path fill="none" stroke="midnightblue" d="M358.81,-318.42C377.59,-305.57 404.32,-287.28 419.89,-276.63"/>
<polygon fill="midnightblue" stroke="midnightblue" points="356.59,-315.7 350.31,-324.23 360.54,-321.48 356.59,-315.7"/>
</g>
<!-- Node6 -->
<g id="node6" class="node">
<title>Node6</title>
<g id="a_node6"><a xlink:href="classdrain_1_1ReferenceMap.html" target="_top" xlink:title=" ">
<polygon fill="white" stroke="black" points="166,-413.5 166,-432.5 253,-432.5 253,-413.5 166,-413.5"/>
<text text-anchor="middle" x="209.5" y="-420.5" font-family="Helvetica,sans-Serif" font-size="10.00">ReferenceMap</text>
</a>
</g>
</g>
<!-- Node6&#45;&gt;Node5 -->
<g id="edge5" class="edge">
<title>Node6&#45;&gt;Node5</title>
<path fill="none" stroke="midnightblue" d="M244.85,-409.71C254.49,-405.67 264.7,-400.72 273.5,-395 296.49,-380.06 318.79,-356.47 330.01,-343.78"/>
<polygon fill="midnightblue" stroke="midnightblue" points="243.46,-406.49 235.46,-413.45 246.05,-413 243.46,-406.49"/>
</g>
<!-- Node21 -->
<g id="node21" class="node">
<title>Node21</title>
<g id="a_node21"><a xlink:href="classdrain_1_1BeanLike.html" target="_top" xlink:title="Something which has a name, a description and possibly some parameters of varying type.">
<polygon fill="white" stroke="black" points="179,-324.5 179,-343.5 240,-343.5 240,-324.5 179,-324.5"/>
<text text-anchor="middle" x="209.5" y="-331.5" font-family="Helvetica,sans-Serif" font-size="10.00">BeanLike</text>
</a>
</g>
</g>
<!-- Node6&#45;&gt;Node21 -->
<g id="edge22" class="edge">
<title>Node6&#45;&gt;Node21</title>
<path fill="none" stroke="#9a32cd" stroke-dasharray="5,2" d="M209.5,-403.19C209.5,-384.74 209.5,-357.41 209.5,-343.62"/>
<polygon fill="#9a32cd" stroke="#9a32cd" points="206,-403.34 209.5,-413.34 213,-403.34 206,-403.34"/>
<text text-anchor="middle" x="239.5" y="-376" font-family="Helvetica,sans-Serif" font-size="10.00"> parameters</text>
</g>
<!-- Node7 -->
<g id="node7" class="node">
<title>Node7</title>
<g id="a_node7"><a xlink:href="classdrain_1_1SmartMap.html" target="_top" xlink:title=" ">
<polygon fill="white" stroke="black" points="13,-489.5 13,-508.5 156,-508.5 156,-489.5 13,-489.5"/>
<text text-anchor="middle" x="84.5" y="-496.5" font-family="Helvetica,sans-Serif" font-size="10.00">SmartMap&lt; Referencer &gt;</text>
</a>
</g>
</g>
<!-- Node7&#45;&gt;Node6 -->
<g id="edge6" class="edge">
<title>Node7&#45;&gt;Node6</title>
<path fill="none" stroke="midnightblue" d="M108.05,-484.06C133.65,-468.9 173.77,-445.15 195.08,-432.54"/>
<polygon fill="midnightblue" stroke="midnightblue" points="106.15,-481.11 99.33,-489.22 109.72,-487.14 106.15,-481.11"/>
</g>
<!-- Node8 -->
<g id="node8" class="node">
<title>Node8</title>
<g id="a_node8"><a xlink:title=" ">
<polygon fill="white" stroke="#bfbfbf" points="0,-546.5 0,-565.5 169,-565.5 169,-546.5 0,-546.5"/>
<text text-anchor="middle" x="84.5" y="-553.5" font-family="Helvetica,sans-Serif" font-size="10.00">map&lt; std::string, Referencer &gt;</text>
</a>
</g>
</g>
<!-- Node8&#45;&gt;Node7 -->
<g id="edge7" class="edge">
<title>Node8&#45;&gt;Node7</title>
<path fill="none" stroke="midnightblue" d="M84.5,-536.12C84.5,-526.82 84.5,-516.06 84.5,-508.71"/>
<polygon fill="midnightblue" stroke="midnightblue" points="81,-536.41 84.5,-546.41 88,-536.41 81,-536.41"/>
</g>
<!-- Node9 -->
<g id="node9" class="node">
<title>Node9</title>
<g id="a_node9"><a xlink:href="classdrain_1_1ValueScaling.html" target="_top" xlink:title="Linear scaling and physical range for image intensities.">
<polygon fill="white" stroke="black" points="297.5,-413.5 297.5,-432.5 377.5,-432.5 377.5,-413.5 297.5,-413.5"/>
<text text-anchor="middle" x="337.5" y="-420.5" font-family="Helvetica,sans-Serif" font-size="10.00">ValueScaling</text>
</a>
</g>
</g>
<!-- Node9&#45;&gt;Node5 -->
<g id="edge8" class="edge">
<title>Node9&#45;&gt;Node5</title>
<path fill="none" stroke="#9a32cd" stroke-dasharray="5,2" d="M337.5,-403.19C337.5,-384.74 337.5,-357.41 337.5,-343.62"/>
<polygon fill="#9a32cd" stroke="#9a32cd" points="334,-403.34 337.5,-413.34 341,-403.34 334,-403.34"/>
<text text-anchor="middle" x="370.5" y="-387" font-family="Helvetica,sans-Serif" font-size="10.00"> scalingConst</text>
<text text-anchor="middle" x="370.5" y="-376" font-family="Helvetica,sans-Serif" font-size="10.00">scaling</text>
<text text-anchor="middle" x="370.5" y="-365" font-family="Helvetica,sans-Serif" font-size="10.00">ownScaling</text>
</g>
<!-- Node10 -->
<g id="node10" class="node">
<title>Node10</title>
<g id="a_node10"><a xlink:href="classdrain_1_1UniTuple.html" target="_top" xlink:title=" ">
<polygon fill="white" stroke="black" points="295.5,-489.5 295.5,-508.5 421.5,-508.5 421.5,-489.5 295.5,-489.5"/>
<text text-anchor="middle" x="358.5" y="-496.5" font-family="Helvetica,sans-Serif" font-size="10.00">UniTuple&lt; double, 4 &gt;</text>
</a>
</g>
</g>
<!-- Node10&#45;&gt;Node9 -->
<g id="edge9" class="edge">
<title>Node10&#45;&gt;Node9</title>
<path fill="none" stroke="midnightblue" d="M353.25,-479.51C349.01,-464.57 343.24,-444.22 339.99,-432.77"/>
<polygon fill="midnightblue" stroke="midnightblue" points="349.91,-480.56 356.01,-489.22 356.65,-478.64 349.91,-480.56"/>
</g>
<!-- Node11 -->
<g id="node11" class="node">
<title>Node11</title>
<g id="a_node11"><a xlink:href="classdrain_1_1Range.html" target="_top" xlink:title=" ">
<polygon fill="white" stroke="black" points="174,-489.5 174,-508.5 277,-508.5 277,-489.5 174,-489.5"/>
<text text-anchor="middle" x="225.5" y="-496.5" font-family="Helvetica,sans-Serif" font-size="10.00">Range&lt; double &gt;</text>
</a>
</g>
</g>
<!-- Node11&#45;&gt;Node9 -->
<g id="edge10" class="edge">
<title>Node11&#45;&gt;Node9</title>
<path fill="none" stroke="#9a32cd" stroke-dasharray="5,2" d="M242.91,-482.6C254.3,-472.91 269.76,-460.49 284.5,-451 295.27,-444.07 308.04,-437.52 318.35,-432.6"/>
<polygon fill="#9a32cd" stroke="#9a32cd" points="240.34,-480.19 235.06,-489.38 244.92,-485.48 240.34,-480.19"/>
<text text-anchor="middle" x="313.5" y="-458.5" font-family="Helvetica,sans-Serif" font-size="10.00"> physRange</text>
</g>
<!-- Node12 -->
<g id="node12" class="node">
<title>Node12</title>
<g id="a_node12"><a xlink:href="classdrain_1_1UniTuple.html" target="_top" xlink:title=" ">
<polygon fill="white" stroke="black" points="324.5,-546.5 324.5,-565.5 450.5,-565.5 450.5,-546.5 324.5,-546.5"/>
<text text-anchor="middle" x="387.5" y="-553.5" font-family="Helvetica,sans-Serif" font-size="10.00">UniTuple&lt; double, 2 &gt;</text>
</a>
</g>
</g>
<!-- Node12&#45;&gt;Node11 -->
<g id="edge11" class="edge">
<title>Node12&#45;&gt;Node11</title>
<path fill="none" stroke="midnightblue" d="M352.33,-543.06C321.65,-532.64 277.91,-517.79 250.63,-508.53"/>
<polygon fill="midnightblue" stroke="midnightblue" points="351.59,-546.51 362.19,-546.41 353.84,-539.88 351.59,-546.51"/>
</g>
<!-- Node13 -->
<g id="node13" class="node">
<title>Node13</title>
<g id="a_node13"><a xlink:href="structdrain_1_1Point2D.html" target="_top" xlink:title=" ">
<polygon fill="white" stroke="black" points="383.5,-451.5 383.5,-470.5 493.5,-470.5 493.5,-451.5 383.5,-451.5"/>
<text text-anchor="middle" x="438.5" y="-458.5" font-family="Helvetica,sans-Serif" font-size="10.00">Point2D&lt; double &gt;</text>
</a>
</g>
</g>
<!-- Node12&#45;&gt;Node13 -->
<g id="edge13" class="edge">
<title>Node12&#45;&gt;Node13</title>
<path fill="none" stroke="midnightblue" d="M406.2,-539.68C414.95,-531.49 424.7,-520.7 430.5,-509 436.6,-496.69 438.15,-480.58 438.49,-470.78"/>
<polygon fill="midnightblue" stroke="midnightblue" points="403.76,-537.17 398.59,-546.42 408.4,-542.41 403.76,-537.17"/>
</g>
<!-- Node13&#45;&gt;Node4 -->
<g id="edge12" class="edge">
<title>Node13&#45;&gt;Node4</title>
<path fill="none" stroke="#9a32cd" stroke-dasharray="5,2" d="M437.91,-441.11C436.64,-400.47 433.69,-306.05 432.78,-276.8"/>
<polygon fill="#9a32cd" stroke="#9a32cd" points="434.42,-441.37 438.23,-451.25 441.41,-441.15 434.42,-441.37"/>
<text text-anchor="middle" x="462.5" y="-376" font-family="Helvetica,sans-Serif" font-size="10.00"> resolution</text>
</g>
<!-- Node14 -->
<g id="node14" class="node">
<title>Node14</title>
<g id="a_node14"><a xlink:href="classdrain_1_1Frame2D.html" target="_top" xlink:title=" ">
<polygon fill="white" stroke="black" points="462.5,-324.5 462.5,-343.5 574.5,-343.5 574.5,-324.5 462.5,-324.5"/>
<text text-anchor="middle" x="518.5" y="-331.5" font-family="Helvetica,sans-Serif" font-size="10.00">Frame2D&lt; size_t &gt;</text>
</a>
</g>
</g>
<!-- Node14&#45;&gt;Node4 -->
<g id="edge14" class="edge">
<title>Node14&#45;&gt;Node4</title>
<path fill="none" stroke="#9a32cd" stroke-dasharray="5,2" d="M498.74,-318.07C481.77,-305.24 457.88,-287.19 443.91,-276.63"/>
<polygon fill="#9a32cd" stroke="#9a32cd" points="496.81,-321 506.9,-324.23 501.03,-315.41 496.81,-321"/>
<text text-anchor="middle" x="494" y="-298" font-family="Helvetica,sans-Serif" font-size="10.00"> area</text>
</g>
<!-- Node15 -->
<g id="node15" class="node">
<title>Node15</title>
<g id="a_node15"><a xlink:href="classdrain_1_1UniTuple.html" target="_top" xlink:title=" ">
<polygon fill="white" stroke="black" points="460.5,-413.5 460.5,-432.5 582.5,-432.5 582.5,-413.5 460.5,-413.5"/>
<text text-anchor="middle" x="521.5" y="-420.5" font-family="Helvetica,sans-Serif" font-size="10.00">UniTuple&lt; size_t, 2 &gt;</text>
</a>
</g>
</g>
<!-- Node15&#45;&gt;Node14 -->
<g id="edge15" class="edge">
<title>Node15&#45;&gt;Node14</title>
<path fill="none" stroke="midnightblue" d="M520.85,-403.19C520.22,-384.74 519.27,-357.41 518.8,-343.62"/>
<polygon fill="midnightblue" stroke="midnightblue" points="517.36,-403.47 521.2,-413.34 524.35,-403.23 517.36,-403.47"/>
</g>
<!-- Node16 -->
<g id="node16" class="node">
<title>Node16</title>
<g id="a_node16"><a xlink:href="classdrain_1_1image_1_1UnaryFunctorOp.html" target="_top" xlink:title=" ">
<polygon fill="white" stroke="black" points="274.5,-57.5 274.5,-76.5 398.5,-76.5 398.5,-57.5 274.5,-57.5"/>
<text text-anchor="middle" x="336.5" y="-64.5" font-family="Helvetica,sans-Serif" font-size="10.00">UnaryFunctorOp&lt; F &gt;</text>
</a>
</g>
</g>
<!-- Node16&#45;&gt;Node1 -->
<g id="edge16" class="edge">
<title>Node16&#45;&gt;Node1</title>
<path fill="none" stroke="midnightblue" d="M350.61,-49.83C359.21,-39.98 369.85,-27.78 376.89,-19.71"/>
<polygon fill="midnightblue" stroke="midnightblue" points="347.94,-47.57 344,-57.41 353.21,-52.17 347.94,-47.57"/>
</g>
<!-- Node17 -->
<g id="node17" class="node">
<title>Node17</title>
<g id="a_node17"><a xlink:href="classdrain_1_1image_1_1FunctorOp.html" target="_top" xlink:title="Class for using simple function objects (like std::functor) for sequential pixel iteration.">
<polygon fill="white" stroke="black" points="272,-133.5 272,-152.5 367,-152.5 367,-133.5 272,-133.5"/>
<text text-anchor="middle" x="319.5" y="-140.5" font-family="Helvetica,sans-Serif" font-size="10.00">FunctorOp&lt; F &gt;</text>
</a>
</g>
</g>
<!-- Node17&#45;&gt;Node16 -->
<g id="edge17" class="edge">
<title>Node17&#45;&gt;Node16</title>
<path fill="none" stroke="midnightblue" d="M323.85,-123.07C327.27,-108.18 331.88,-88.11 334.49,-76.77"/>
<polygon fill="midnightblue" stroke="midnightblue" points="320.34,-122.69 321.52,-133.22 327.17,-124.26 320.34,-122.69"/>
</g>
<!-- Node18 -->
<g id="node18" class="node">
<title>Node18</title>
<g id="a_node18"><a xlink:href="structdrain_1_1image_1_1FunctorWrapper.html" target="_top" xlink:title="Helper class that only ensures that functor is initialized before ImageOp.">
<polygon fill="white" stroke="black" points="258.5,-200.5 258.5,-219.5 380.5,-219.5 380.5,-200.5 258.5,-200.5"/>
<text text-anchor="middle" x="319.5" y="-207.5" font-family="Helvetica,sans-Serif" font-size="10.00">FunctorWrapper&lt; F &gt;</text>
</a>
</g>
</g>
<!-- Node18&#45;&gt;Node17 -->
<g id="edge18" class="edge">
<title>Node18&#45;&gt;Node17</title>
<path fill="none" stroke="midnightblue" d="M319.5,-190.04C319.5,-177.67 319.5,-162.12 319.5,-152.63"/>
<polygon fill="midnightblue" stroke="midnightblue" points="316,-190.23 319.5,-200.23 323,-190.23 316,-190.23"/>
</g>
<!-- Node19 -->
<g id="node19" class="node">
<title>Node19</title>
<g id="a_node19"><a xlink:href="classdrain_1_1image_1_1ImageOp.html" target="_top" xlink:title="Base class for image processing functions.">
<polygon fill="white" stroke="black" points="179,-200.5 179,-219.5 240,-219.5 240,-200.5 179,-200.5"/>
<text text-anchor="middle" x="209.5" y="-207.5" font-family="Helvetica,sans-Serif" font-size="10.00">ImageOp</text>
</a>
</g>
</g>
<!-- Node19&#45;&gt;Node17 -->
<g id="edge19" class="edge">
<title>Node19&#45;&gt;Node17</title>
<path fill="none" stroke="midnightblue" d="M233,-195.12C254.79,-182.24 286.54,-163.48 304.9,-152.63"/>
<polygon fill="midnightblue" stroke="midnightblue" points="231.16,-192.13 224.34,-200.23 234.72,-198.16 231.16,-192.13"/>
</g>
<!-- Node20 -->
<g id="node20" class="node">
<title>Node20</title>
<g id="a_node20"><a xlink:href="classdrain_1_1image_1_1ImageMod.html" target="_top" xlink:title="Class for operations that modify an existing image instead of producing a new image.">
<polygon fill="white" stroke="black" points="175.5,-257.5 175.5,-276.5 243.5,-276.5 243.5,-257.5 175.5,-257.5"/>
<text text-anchor="middle" x="209.5" y="-264.5" font-family="Helvetica,sans-Serif" font-size="10.00">ImageMod</text>
</a>
</g>
</g>
<!-- Node20&#45;&gt;Node19 -->
<g id="edge20" class="edge">
<title>Node20&#45;&gt;Node19</title>
<path fill="none" stroke="midnightblue" d="M209.5,-247.12C209.5,-237.82 209.5,-227.06 209.5,-219.71"/>
<polygon fill="midnightblue" stroke="midnightblue" points="206,-247.41 209.5,-257.41 213,-247.41 206,-247.41"/>
</g>
<!-- Node21&#45;&gt;Node20 -->
<g id="edge21" class="edge">
<title>Node21&#45;&gt;Node20</title>
<path fill="none" stroke="midnightblue" d="M209.5,-314.04C209.5,-301.67 209.5,-286.12 209.5,-276.63"/>
<polygon fill="midnightblue" stroke="midnightblue" points="206,-314.23 209.5,-324.23 213,-314.23 206,-314.23"/>
</g>
</g>
</svg>
