<?xml version="1.0" encoding="UTF-8" standalone="no"?>
<!DOCTYPE svg PUBLIC "-//W3C//DTD SVG 1.1//EN"
 "http://www.w3.org/Graphics/SVG/1.1/DTD/svg11.dtd">
<!-- Generated by graphviz version 2.43.0 (0)
 -->
<!-- Title: SlidingOpticalFlow&lt; R &gt; Pages: 1 -->
<svg width="1419pt" height="997pt"
 viewBox="0.00 0.00 1418.50 997.00" xmlns="http://www.w3.org/2000/svg" xmlns:xlink="http://www.w3.org/1999/xlink">
<g id="graph0" class="graph" transform="scale(1 1) rotate(0) translate(4 993)">
<title>SlidingOpticalFlow&lt; R &gt;</title>
<polygon fill="white" stroke="transparent" points="-4,4 -4,-993 1414.5,-993 1414.5,4 -4,4"/>
<!-- Node1 -->
<g id="node1" class="node">
<title>Node1</title>
<g id="a_node1"><a xlink:title=" ">
<polygon fill="#bfbfbf" stroke="black" points="183.5,-0.5 183.5,-19.5 320.5,-19.5 320.5,-0.5 183.5,-0.5"/>
<text text-anchor="middle" x="252" y="-7.5" font-family="Helvetica,sans-Serif" font-size="10.00">SlidingOpticalFlow&lt; R &gt;</text>
</a>
</g>
</g>
<!-- Node2 -->
<g id="node2" class="node">
<title>Node2</title>
<g id="a_node2"><a xlink:href="classdrain_1_1image_1_1SlidingWindow.html" target="_top" xlink:title=" ">
<polygon fill="white" stroke="black" points="173,-58.5 173,-88.5 331,-88.5 331,-58.5 173,-58.5"/>
<text text-anchor="start" x="181" y="-76.5" font-family="Helvetica,sans-Serif" font-size="10.00">SlidingWindow&lt; OpticalFlow</text>
<text text-anchor="middle" x="252" y="-65.5" font-family="Helvetica,sans-Serif" font-size="10.00">Config, OpticalFlowCore1 &gt;</text>
</a>
</g>
</g>
<!-- Node2&#45;&gt;Node1 -->
<g id="edge1" class="edge">
<title>Node2&#45;&gt;Node1</title>
<path fill="none" stroke="midnightblue" d="M252,-47.95C252,-37.95 252,-27.04 252,-19.68"/>
<polygon fill="midnightblue" stroke="midnightblue" points="248.5,-48.24 252,-58.24 255.5,-48.24 248.5,-48.24"/>
</g>
<!-- Node2&#45;&gt;Node2 -->
<g id="edge58" class="edge">
<title>Node2&#45;&gt;Node2</title>
<path fill="none" stroke="#9a32cd" stroke-dasharray="5,2" d="M341.16,-77.77C346.07,-76.73 349,-75.31 349,-73.5 349,-70.68 341.87,-68.79 331.16,-67.84"/>
<polygon fill="#9a32cd" stroke="#9a32cd" points="340.59,-74.32 331.16,-79.16 341.55,-81.25 340.59,-74.32"/>
<text text-anchor="middle" x="377.5" y="-82" font-family="Helvetica,sans-Serif" font-size="10.00"> fill</text>
<text text-anchor="middle" x="377.5" y="-71" font-family="Helvetica,sans-Serif" font-size="10.00">updateVert</text>
<text text-anchor="middle" x="377.5" y="-60" font-family="Helvetica,sans-Serif" font-size="10.00">updateHorz</text>
</g>
<!-- Node3 -->
<g id="node3" class="node">
<title>Node3</title>
<g id="a_node3"><a xlink:href="classdrain_1_1image_1_1Window.html" target="_top" xlink:title=" ">
<polygon fill="white" stroke="black" points="305.5,-128.5 305.5,-158.5 464.5,-158.5 464.5,-128.5 305.5,-128.5"/>
<text text-anchor="start" x="313.5" y="-146.5" font-family="Helvetica,sans-Serif" font-size="10.00">Window&lt; OpticalFlowConfig,</text>
<text text-anchor="middle" x="385" y="-135.5" font-family="Helvetica,sans-Serif" font-size="10.00"> OpticalFlowCore1 &gt;</text>
</a>
</g>
</g>
<!-- Node3&#45;&gt;Node2 -->
<g id="edge2" class="edge">
<title>Node3&#45;&gt;Node2</title>
<path fill="none" stroke="midnightblue" d="M348.48,-123.83C326.69,-112.69 299.49,-98.78 279.52,-88.57"/>
<polygon fill="midnightblue" stroke="midnightblue" points="346.95,-126.97 357.44,-128.41 350.13,-120.74 346.95,-126.97"/>
</g>
<!-- Node4 -->
<g id="node4" class="node">
<title>Node4</title>
<g id="a_node4"><a xlink:href="classdrain_1_1image_1_1OpticalFlowCore1.html" target="_top" xlink:title=" ">
<polygon fill="white" stroke="black" points="821.5,-207.5 821.5,-226.5 924.5,-226.5 924.5,-207.5 821.5,-207.5"/>
<text text-anchor="middle" x="873" y="-214.5" font-family="Helvetica,sans-Serif" font-size="10.00">OpticalFlowCore1</text>
</a>
</g>
</g>
<!-- Node4&#45;&gt;Node3 -->
<g id="edge3" class="edge">
<title>Node4&#45;&gt;Node3</title>
<path fill="none" stroke="midnightblue" d="M818.09,-205.66C774.08,-197.56 710.7,-186.3 655,-178 591.11,-168.47 518.44,-159.57 464.59,-153.33"/>
<polygon fill="midnightblue" stroke="midnightblue" points="817.54,-209.12 828.01,-207.49 818.82,-202.23 817.54,-209.12"/>
</g>
<!-- Node5 -->
<g id="node5" class="node">
<title>Node5</title>
<g id="a_node5"><a xlink:href="classdrain_1_1image_1_1OpticalFlowCore.html" target="_top" xlink:title=" ">
<polygon fill="white" stroke="black" points="797.5,-292 797.5,-311 894.5,-311 894.5,-292 797.5,-292"/>
<text text-anchor="middle" x="846" y="-299" font-family="Helvetica,sans-Serif" font-size="10.00">OpticalFlowCore</text>
</a>
</g>
</g>
<!-- Node5&#45;&gt;Node4 -->
<g id="edge4" class="edge">
<title>Node5&#45;&gt;Node4</title>
<path fill="none" stroke="midnightblue" d="M851.92,-282.43C857.58,-265.11 865.89,-239.74 870.19,-226.6"/>
<polygon fill="midnightblue" stroke="midnightblue" points="848.57,-281.39 848.79,-291.98 855.22,-283.57 848.57,-281.39"/>
</g>
<!-- Node6 -->
<g id="node6" class="node">
<title>Node6</title>
<g id="a_node6"><a xlink:href="classdrain_1_1image_1_1WindowCoreBase.html" target="_top" xlink:title="Provides splitting frames.">
<polygon fill="white" stroke="black" points="775,-404 775,-423 877,-423 877,-404 775,-404"/>
<text text-anchor="middle" x="826" y="-411" font-family="Helvetica,sans-Serif" font-size="10.00">WindowCoreBase</text>
</a>
</g>
</g>
<!-- Node6&#45;&gt;Node5 -->
<g id="edge5" class="edge">
<title>Node6&#45;&gt;Node5</title>
<path fill="none" stroke="midnightblue" d="M829.39,-393.85C833.77,-369.75 841.22,-328.81 844.44,-311.09"/>
<polygon fill="midnightblue" stroke="midnightblue" points="825.91,-393.4 827.57,-403.87 832.8,-394.66 825.91,-393.4"/>
</g>
<!-- Node7 -->
<g id="node7" class="node">
<title>Node7</title>
<g id="a_node7"><a xlink:href="classdrain_1_1image_1_1ImageView.html" target="_top" xlink:title="ImageFrame that also has channels.">
<polygon fill="white" stroke="black" points="895.5,-404 895.5,-423 966.5,-423 966.5,-404 895.5,-404"/>
<text text-anchor="middle" x="931" y="-411" font-family="Helvetica,sans-Serif" font-size="10.00">ImageView</text>
</a>
</g>
</g>
<!-- Node7&#45;&gt;Node4 -->
<g id="edge33" class="edge">
<title>Node7&#45;&gt;Node4</title>
<path fill="none" stroke="#9a32cd" stroke-dasharray="5,2" d="M928.65,-393.94C925.1,-368.74 917.34,-322.53 904,-285 896.36,-263.5 884.36,-239.51 877.75,-226.88"/>
<polygon fill="#9a32cd" stroke="#9a32cd" points="925.19,-394.49 929.99,-403.93 932.13,-393.56 925.19,-394.49"/>
<text text-anchor="middle" x="921.5" y="-310" font-family="Helvetica,sans-Serif" font-size="10.00"> Dx</text>
<text text-anchor="middle" x="921.5" y="-299" font-family="Helvetica,sans-Serif" font-size="10.00">Dy</text>
<text text-anchor="middle" x="921.5" y="-288" font-family="Helvetica,sans-Serif" font-size="10.00">Dt</text>
</g>
<!-- Node7&#45;&gt;Node5 -->
<g id="edge6" class="edge">
<title>Node7&#45;&gt;Node5</title>
<path fill="none" stroke="#9a32cd" stroke-dasharray="5,2" d="M891.32,-399.81C881.5,-394.98 871.85,-388.53 865,-380 848.51,-359.48 846.03,-326.73 845.85,-311.21"/>
<polygon fill="#9a32cd" stroke="#9a32cd" points="890.13,-403.11 900.69,-403.94 892.95,-396.7 890.13,-403.11"/>
<text text-anchor="middle" x="891" y="-372" font-family="Helvetica,sans-Serif" font-size="10.00"> srcWeight</text>
<text text-anchor="middle" x="891" y="-361" font-family="Helvetica,sans-Serif" font-size="10.00">dstWeight</text>
<text text-anchor="middle" x="891" y="-350" font-family="Helvetica,sans-Serif" font-size="10.00">vField</text>
<text text-anchor="middle" x="891" y="-339" font-family="Helvetica,sans-Serif" font-size="10.00">uField</text>
</g>
<!-- Node8 -->
<g id="node8" class="node">
<title>Node8</title>
<g id="a_node8"><a xlink:href="classdrain_1_1image_1_1MultiChannel.html" target="_top" xlink:title="Multi&#45;channel ImageFrame.">
<polygon fill="white" stroke="black" points="870.5,-476.5 870.5,-495.5 951.5,-495.5 951.5,-476.5 870.5,-476.5"/>
<text text-anchor="middle" x="911" y="-483.5" font-family="Helvetica,sans-Serif" font-size="10.00">MultiChannel</text>
</a>
</g>
</g>
<!-- Node8&#45;&gt;Node7 -->
<g id="edge7" class="edge">
<title>Node8&#45;&gt;Node7</title>
<path fill="none" stroke="midnightblue" d="M916.29,-466.36C920.25,-452.4 925.49,-433.93 928.53,-423.22"/>
<polygon fill="midnightblue" stroke="midnightblue" points="912.81,-465.78 913.45,-476.36 919.55,-467.69 912.81,-465.78"/>
</g>
<!-- Node9 -->
<g id="node9" class="node">
<title>Node9</title>
<g id="a_node9"><a xlink:href="classdrain_1_1image_1_1ImageFrame.html" target="_top" xlink:title="Image with static geometry.">
<polygon fill="white" stroke="black" points="840,-533.5 840,-552.5 918,-552.5 918,-533.5 840,-533.5"/>
<text text-anchor="middle" x="879" y="-540.5" font-family="Helvetica,sans-Serif" font-size="10.00">ImageFrame</text>
</a>
</g>
</g>
<!-- Node9&#45;&gt;Node8 -->
<g id="edge8" class="edge">
<title>Node9&#45;&gt;Node8</title>
<path fill="none" stroke="midnightblue" d="M889.1,-524.64C894.7,-515.01 901.42,-503.46 905.93,-495.71"/>
<polygon fill="midnightblue" stroke="midnightblue" points="886,-523 884,-533.41 892.05,-526.52 886,-523"/>
</g>
<!-- Node10 -->
<g id="node10" class="node">
<title>Node10</title>
<g id="a_node10"><a xlink:href="classdrain_1_1image_1_1ImageLike.html" target="_top" xlink:title="A base class for images.">
<polygon fill="white" stroke="black" points="956.5,-612.5 956.5,-631.5 1023.5,-631.5 1023.5,-612.5 956.5,-612.5"/>
<text text-anchor="middle" x="990" y="-619.5" font-family="Helvetica,sans-Serif" font-size="10.00">ImageLike</text>
</a>
</g>
</g>
<!-- Node10&#45;&gt;Node9 -->
<g id="edge9" class="edge">
<title>Node10&#45;&gt;Node9</title>
<path fill="none" stroke="midnightblue" d="M969.35,-606.67C946.44,-590.78 910.23,-565.66 891.36,-552.57"/>
<polygon fill="midnightblue" stroke="midnightblue" points="967.49,-609.64 977.7,-612.47 971.48,-603.89 967.49,-609.64"/>
</g>
<!-- Node11 -->
<g id="node11" class="node">
<title>Node11</title>
<g id="a_node11"><a xlink:href="classdrain_1_1image_1_1ImageConf.html" target="_top" xlink:title="Struct for image (excluding data)">
<polygon fill="white" stroke="black" points="950,-689.5 950,-708.5 1020,-708.5 1020,-689.5 950,-689.5"/>
<text text-anchor="middle" x="985" y="-696.5" font-family="Helvetica,sans-Serif" font-size="10.00">ImageConf</text>
</a>
</g>
</g>
<!-- Node11&#45;&gt;Node10 -->
<g id="edge10" class="edge">
<title>Node11&#45;&gt;Node10</title>
<path fill="none" stroke="#9a32cd" stroke-dasharray="5,2" d="M986.27,-679.02C987.28,-663.74 988.67,-642.98 989.43,-631.5"/>
<polygon fill="#9a32cd" stroke="#9a32cd" points="982.75,-679.19 985.57,-689.4 989.73,-679.65 982.75,-679.19"/>
<text text-anchor="middle" x="1000.5" y="-658.5" font-family="Helvetica,sans-Serif" font-size="10.00"> conf</text>
</g>
<!-- Node12 -->
<g id="node12" class="node">
<title>Node12</title>
<g id="a_node12"><a xlink:href="classdrain_1_1image_1_1Encoding.html" target="_top" xlink:title=" ">
<polygon fill="white" stroke="black" points="952.5,-756.5 952.5,-775.5 1013.5,-775.5 1013.5,-756.5 952.5,-756.5"/>
<text text-anchor="middle" x="983" y="-763.5" font-family="Helvetica,sans-Serif" font-size="10.00">Encoding</text>
</a>
</g>
</g>
<!-- Node12&#45;&gt;Node11 -->
<g id="edge11" class="edge">
<title>Node12&#45;&gt;Node11</title>
<path fill="none" stroke="midnightblue" d="M983.58,-746.04C983.96,-733.67 984.44,-718.12 984.73,-708.63"/>
<polygon fill="midnightblue" stroke="midnightblue" points="980.08,-746.13 983.27,-756.23 987.08,-746.35 980.08,-746.13"/>
</g>
<!-- Node13 -->
<g id="node13" class="node">
<title>Node13</title>
<g id="a_node13"><a xlink:href="classdrain_1_1ValueScaling.html" target="_top" xlink:title="Linear scaling and physical range for image intensities.">
<polygon fill="white" stroke="black" points="937,-829 937,-848 1017,-848 1017,-829 937,-829"/>
<text text-anchor="middle" x="977" y="-836" font-family="Helvetica,sans-Serif" font-size="10.00">ValueScaling</text>
</a>
</g>
</g>
<!-- Node13&#45;&gt;Node12 -->
<g id="edge12" class="edge">
<title>Node13&#45;&gt;Node12</title>
<path fill="none" stroke="midnightblue" d="M978.59,-818.86C979.77,-804.9 981.35,-786.43 982.26,-775.72"/>
<polygon fill="midnightblue" stroke="midnightblue" points="975.1,-818.59 977.74,-828.86 982.07,-819.19 975.1,-818.59"/>
</g>
<!-- Node14 -->
<g id="node14" class="node">
<title>Node14</title>
<g id="a_node14"><a xlink:href="classdrain_1_1UniTuple.html" target="_top" xlink:title=" ">
<polygon fill="white" stroke="black" points="974,-907 974,-926 1100,-926 1100,-907 974,-907"/>
<text text-anchor="middle" x="1037" y="-914" font-family="Helvetica,sans-Serif" font-size="10.00">UniTuple&lt; double, 4 &gt;</text>
</a>
</g>
</g>
<!-- Node14&#45;&gt;Node13 -->
<g id="edge13" class="edge">
<title>Node14&#45;&gt;Node13</title>
<path fill="none" stroke="midnightblue" d="M1023.58,-898.51C1011.24,-882.87 993.43,-860.31 983.8,-848.12"/>
<polygon fill="midnightblue" stroke="midnightblue" points="1021.17,-901.1 1030.12,-906.78 1026.67,-896.76 1021.17,-901.1"/>
</g>
<!-- Node15 -->
<g id="node15" class="node">
<title>Node15</title>
<g id="a_node15"><a xlink:href="classdrain_1_1Range.html" target="_top" xlink:title=" ">
<polygon fill="white" stroke="black" points="852.5,-907 852.5,-926 955.5,-926 955.5,-907 852.5,-907"/>
<text text-anchor="middle" x="904" y="-914" font-family="Helvetica,sans-Serif" font-size="10.00">Range&lt; double &gt;</text>
</a>
</g>
</g>
<!-- Node15&#45;&gt;Node13 -->
<g id="edge14" class="edge">
<title>Node15&#45;&gt;Node13</title>
<path fill="none" stroke="#9a32cd" stroke-dasharray="5,2" d="M917.18,-898.99C924.03,-890.67 932.7,-880.55 941,-872 949.21,-863.54 959.21,-854.62 966.58,-848.26"/>
<polygon fill="#9a32cd" stroke="#9a32cd" points="914.36,-896.9 910.78,-906.87 919.8,-901.31 914.36,-896.9"/>
<text text-anchor="middle" x="970" y="-875" font-family="Helvetica,sans-Serif" font-size="10.00"> physRange</text>
</g>
<!-- Node16 -->
<g id="node16" class="node">
<title>Node16</title>
<g id="a_node16"><a xlink:href="classdrain_1_1UniTuple.html" target="_top" xlink:title=" ">
<polygon fill="white" stroke="black" points="841,-969.5 841,-988.5 967,-988.5 967,-969.5 841,-969.5"/>
<text text-anchor="middle" x="904" y="-976.5" font-family="Helvetica,sans-Serif" font-size="10.00">UniTuple&lt; double, 2 &gt;</text>
</a>
</g>
</g>
<!-- Node16&#45;&gt;Node15 -->
<g id="edge15" class="edge">
<title>Node16&#45;&gt;Node15</title>
<path fill="none" stroke="midnightblue" d="M904,-959C904,-948 904,-934.68 904,-926.15"/>
<polygon fill="midnightblue" stroke="midnightblue" points="900.5,-959.33 904,-969.33 907.5,-959.33 900.5,-959.33"/>
</g>
<!-- Node17 -->
<g id="node17" class="node">
<title>Node17</title>
<g id="a_node17"><a xlink:href="classdrain_1_1Caster.html" target="_top" xlink:title=" ">
<polygon fill="white" stroke="black" points="859,-829 859,-848 907,-848 907,-829 859,-829"/>
<text text-anchor="middle" x="883" y="-836" font-family="Helvetica,sans-Serif" font-size="10.00">Caster</text>
</a>
</g>
</g>
<!-- Node17&#45;&gt;Node12 -->
<g id="edge16" class="edge">
<title>Node17&#45;&gt;Node12</title>
<path fill="none" stroke="#9a32cd" stroke-dasharray="5,2" d="M902.12,-822.61C913.31,-814.04 927.79,-803.18 941,-794 950.25,-787.57 960.94,-780.71 969.22,-775.51"/>
<polygon fill="#9a32cd" stroke="#9a32cd" points="899.73,-820.04 893.94,-828.92 904,-825.58 899.73,-820.04"/>
<text text-anchor="middle" x="958" y="-797" font-family="Helvetica,sans-Serif" font-size="10.00"> caster</text>
</g>
<!-- Node28 -->
<g id="node28" class="node">
<title>Node28</title>
<g id="a_node28"><a xlink:href="classdrain_1_1Castable.html" target="_top" xlink:title=" ">
<polygon fill="white" stroke="black" points="847.5,-756.5 847.5,-775.5 906.5,-775.5 906.5,-756.5 847.5,-756.5"/>
<text text-anchor="middle" x="877" y="-763.5" font-family="Helvetica,sans-Serif" font-size="10.00">Castable</text>
</a>
</g>
</g>
<!-- Node17&#45;&gt;Node28 -->
<g id="edge29" class="edge">
<title>Node17&#45;&gt;Node28</title>
<path fill="none" stroke="#9a32cd" stroke-dasharray="5,2" d="M879.71,-818.77C879.03,-814.28 878.4,-809.48 878,-805 877.1,-795.01 876.92,-783.49 876.92,-775.77"/>
<polygon fill="#9a32cd" stroke="#9a32cd" points="876.31,-819.68 881.39,-828.98 883.22,-818.55 876.31,-819.68"/>
<text text-anchor="middle" x="895" y="-797" font-family="Helvetica,sans-Serif" font-size="10.00"> caster</text>
</g>
<!-- Node18 -->
<g id="node18" class="node">
<title>Node18</title>
<g id="a_node18"><a xlink:href="classdrain_1_1image_1_1Geometry.html" target="_top" xlink:title=" ">
<polygon fill="white" stroke="black" points="1153.5,-756.5 1153.5,-775.5 1218.5,-775.5 1218.5,-756.5 1153.5,-756.5"/>
<text text-anchor="middle" x="1186" y="-763.5" font-family="Helvetica,sans-Serif" font-size="10.00">Geometry</text>
</a>
</g>
</g>
<!-- Node18&#45;&gt;Node11 -->
<g id="edge17" class="edge">
<title>Node18&#45;&gt;Node11</title>
<path fill="none" stroke="midnightblue" d="M1149.71,-753.27C1109.89,-740.39 1046.91,-720.02 1011.48,-708.56"/>
<polygon fill="midnightblue" stroke="midnightblue" points="1148.72,-756.62 1159.31,-756.37 1150.87,-749.96 1148.72,-756.62"/>
</g>
<!-- Node19 -->
<g id="node19" class="node">
<title>Node19</title>
<g id="a_node19"><a xlink:href="classdrain_1_1UniTuple.html" target="_top" xlink:title=" ">
<polygon fill="white" stroke="black" points="1165,-829 1165,-848 1287,-848 1287,-829 1165,-829"/>
<text text-anchor="middle" x="1226" y="-836" font-family="Helvetica,sans-Serif" font-size="10.00">UniTuple&lt; size_t, 4 &gt;</text>
</a>
</g>
</g>
<!-- Node19&#45;&gt;Node18 -->
<g id="edge18" class="edge">
<title>Node19&#45;&gt;Node18</title>
<path fill="none" stroke="midnightblue" d="M1216.12,-820.09C1208.13,-806 1197.2,-786.74 1190.94,-775.72"/>
<polygon fill="midnightblue" stroke="midnightblue" points="1213.12,-821.88 1221.1,-828.86 1219.2,-818.43 1213.12,-821.88"/>
</g>
<!-- Node20 -->
<g id="node20" class="node">
<title>Node20</title>
<g id="a_node20"><a xlink:href="classdrain_1_1Frame2D.html" target="_top" xlink:title=" ">
<polygon fill="white" stroke="black" points="1035,-829 1035,-848 1147,-848 1147,-829 1035,-829"/>
<text text-anchor="middle" x="1091" y="-836" font-family="Helvetica,sans-Serif" font-size="10.00">Frame2D&lt; size_t &gt;</text>
</a>
</g>
</g>
<!-- Node20&#45;&gt;Node18 -->
<g id="edge19" class="edge">
<title>Node20&#45;&gt;Node18</title>
<path fill="none" stroke="#9a32cd" stroke-dasharray="5,2" d="M1110.73,-822.86C1129.9,-808.63 1158.39,-787.49 1174.26,-775.72"/>
<polygon fill="#9a32cd" stroke="#9a32cd" points="1108.59,-820.09 1102.65,-828.86 1112.76,-825.71 1108.59,-820.09"/>
<text text-anchor="middle" x="1159.5" y="-797" font-family="Helvetica,sans-Serif" font-size="10.00"> area</text>
</g>
<!-- Node21 -->
<g id="node21" class="node">
<title>Node21</title>
<g id="a_node21"><a xlink:href="classdrain_1_1UniTuple.html" target="_top" xlink:title=" ">
<polygon fill="white" stroke="black" points="1237,-907 1237,-926 1359,-926 1359,-907 1237,-907"/>
<text text-anchor="middle" x="1298" y="-914" font-family="Helvetica,sans-Serif" font-size="10.00">UniTuple&lt; size_t, 2 &gt;</text>
</a>
</g>
</g>
<!-- Node21&#45;&gt;Node20 -->
<g id="edge20" class="edge">
<title>Node21&#45;&gt;Node20</title>
<path fill="none" stroke="midnightblue" d="M1265.14,-903.44C1223.04,-887.98 1151.11,-861.57 1114.26,-848.04"/>
<polygon fill="midnightblue" stroke="midnightblue" points="1264.06,-906.77 1274.66,-906.93 1266.48,-900.2 1264.06,-906.77"/>
</g>
<!-- Node22 -->
<g id="node22" class="node">
<title>Node22</title>
<g id="a_node22"><a xlink:href="classdrain_1_1image_1_1ChannelGeometry.html" target="_top" xlink:title=" ">
<polygon fill="white" stroke="black" points="1305.5,-829 1305.5,-848 1410.5,-848 1410.5,-829 1305.5,-829"/>
<text text-anchor="middle" x="1358" y="-836" font-family="Helvetica,sans-Serif" font-size="10.00">ChannelGeometry</text>
</a>
</g>
</g>
<!-- Node21&#45;&gt;Node22 -->
<g id="edge22" class="edge">
<title>Node21&#45;&gt;Node22</title>
<path fill="none" stroke="midnightblue" d="M1311.42,-898.51C1323.76,-882.87 1341.57,-860.31 1351.2,-848.12"/>
<polygon fill="midnightblue" stroke="midnightblue" points="1308.33,-896.76 1304.88,-906.78 1313.83,-901.1 1308.33,-896.76"/>
</g>
<!-- Node22&#45;&gt;Node18 -->
<g id="edge21" class="edge">
<title>Node22&#45;&gt;Node18</title>
<path fill="none" stroke="#9a32cd" stroke-dasharray="5,2" d="M1327.63,-825.05C1292.9,-810.82 1236.95,-787.88 1206.82,-775.53"/>
<polygon fill="#9a32cd" stroke="#9a32cd" points="1326.67,-828.44 1337.25,-829 1329.33,-821.96 1326.67,-828.44"/>
<text text-anchor="middle" x="1300.5" y="-797" font-family="Helvetica,sans-Serif" font-size="10.00"> channels</text>
</g>
<!-- Node23 -->
<g id="node23" class="node">
<title>Node23</title>
<g id="a_node23"><a xlink:href="classdrain_1_1image_1_1CoordinatePolicy.html" target="_top" xlink:title="Policies for coordinate underflows and overflows.">
<polygon fill="white" stroke="black" points="466.5,-756.5 466.5,-775.5 565.5,-775.5 565.5,-756.5 466.5,-756.5"/>
<text text-anchor="middle" x="516" y="-763.5" font-family="Helvetica,sans-Serif" font-size="10.00">CoordinatePolicy</text>
</a>
</g>
</g>
<!-- Node23&#45;&gt;Node11 -->
<g id="edge23" class="edge">
<title>Node23&#45;&gt;Node11</title>
<path fill="none" stroke="#9a32cd" stroke-dasharray="5,2" d="M575.9,-756.7C675.07,-742.95 870.29,-715.9 949.93,-704.86"/>
<polygon fill="#9a32cd" stroke="#9a32cd" points="575.17,-753.27 565.75,-758.11 576.13,-760.2 575.17,-753.27"/>
<text text-anchor="middle" x="820.5" y="-730" font-family="Helvetica,sans-Serif" font-size="10.00"> coordinatePolicy</text>
</g>
<!-- Node50 -->
<g id="node50" class="node">
<title>Node50</title>
<g id="a_node50"><a xlink:href="classdrain_1_1image_1_1CoordinateHandler2D.html" target="_top" xlink:title=" ">
<polygon fill="white" stroke="black" points="385,-292 385,-311 507,-311 507,-292 385,-292"/>
<text text-anchor="middle" x="446" y="-299" font-family="Helvetica,sans-Serif" font-size="10.00">CoordinateHandler2D</text>
</a>
</g>
</g>
<!-- Node23&#45;&gt;Node50 -->
<g id="edge57" class="edge">
<title>Node23&#45;&gt;Node50</title>
<path fill="none" stroke="#9a32cd" stroke-dasharray="5,2" d="M486.29,-751.58C467.22,-740.71 446,-723.37 446,-700 446,-700 446,-700 446,-412.5 446,-374.69 446,-329.56 446,-311.06"/>
<polygon fill="#9a32cd" stroke="#9a32cd" points="484.9,-754.8 495.38,-756.39 488.18,-748.62 484.9,-754.8"/>
<text text-anchor="middle" x="462.5" y="-540.5" font-family="Helvetica,sans-Serif" font-size="10.00"> policy</text>
</g>
<!-- Node24 -->
<g id="node24" class="node">
<title>Node24</title>
<g id="a_node24"><a xlink:href="classdrain_1_1UniTuple.html" target="_top" xlink:title=" ">
<polygon fill="white" stroke="black" points="500.5,-823.5 500.5,-853.5 617.5,-853.5 617.5,-823.5 500.5,-823.5"/>
<text text-anchor="start" x="508.5" y="-841.5" font-family="Helvetica,sans-Serif" font-size="10.00">UniTuple&lt; coord_pol</text>
<text text-anchor="middle" x="559" y="-830.5" font-family="Helvetica,sans-Serif" font-size="10.00">_t, 4 &gt;</text>
</a>
</g>
</g>
<!-- Node24&#45;&gt;Node23 -->
<g id="edge24" class="edge">
<title>Node24&#45;&gt;Node23</title>
<path fill="none" stroke="midnightblue" d="M545.05,-814.63C537,-801.42 527.33,-785.57 521.42,-775.89"/>
<polygon fill="midnightblue" stroke="midnightblue" points="542.1,-816.52 550.3,-823.23 548.08,-812.87 542.1,-816.52"/>
</g>
<!-- Node25 -->
<g id="node25" class="node">
<title>Node25</title>
<g id="a_node25"><a xlink:href="classdrain_1_1Dictionary2.html" target="_top" xlink:title="Two&#45;way mapping between strings and objects of template class T.">
<polygon fill="white" stroke="black" points="367.5,-829 367.5,-848 482.5,-848 482.5,-829 367.5,-829"/>
<text text-anchor="middle" x="425" y="-836" font-family="Helvetica,sans-Serif" font-size="10.00">Dictionary2&lt; K, V &gt;</text>
</a>
</g>
</g>
<!-- Node25&#45;&gt;Node23 -->
<g id="edge25" class="edge">
<title>Node25&#45;&gt;Node23</title>
<path fill="none" stroke="#9a32cd" stroke-dasharray="5,2" d="M444.39,-822.47C462.76,-808.25 489.69,-787.38 504.75,-775.72"/>
<polygon fill="#9a32cd" stroke="#9a32cd" points="441.92,-819.96 436.16,-828.86 446.21,-825.5 441.92,-819.96"/>
<text text-anchor="middle" x="490" y="-797" font-family="Helvetica,sans-Serif" font-size="10.00"> dict</text>
</g>
<!-- Node26 -->
<g id="node26" class="node">
<title>Node26</title>
<g id="a_node26"><a xlink:title=" ">
<polygon fill="white" stroke="#bfbfbf" points="373,-901.5 373,-931.5 477,-931.5 477,-901.5 373,-901.5"/>
<text text-anchor="start" x="381" y="-919.5" font-family="Helvetica,sans-Serif" font-size="10.00">list&lt; std::pair&lt; K,</text>
<text text-anchor="middle" x="425" y="-908.5" font-family="Helvetica,sans-Serif" font-size="10.00"> V &gt; &gt;</text>
</a>
</g>
</g>
<!-- Node26&#45;&gt;Node25 -->
<g id="edge26" class="edge">
<title>Node26&#45;&gt;Node25</title>
<path fill="none" stroke="midnightblue" d="M425,-891.17C425,-876.4 425,-858.45 425,-848.06"/>
<polygon fill="midnightblue" stroke="midnightblue" points="421.5,-891.2 425,-901.2 428.5,-891.21 421.5,-891.2"/>
</g>
<!-- Node27 -->
<g id="node27" class="node">
<title>Node27</title>
<g id="a_node27"><a xlink:href="classdrain_1_1CastableIterator.html" target="_top" xlink:title=" ">
<polygon fill="white" stroke="black" points="820.5,-651.5 820.5,-670.5 915.5,-670.5 915.5,-651.5 820.5,-651.5"/>
<text text-anchor="middle" x="868" y="-658.5" font-family="Helvetica,sans-Serif" font-size="10.00">CastableIterator</text>
</a>
</g>
</g>
<!-- Node27&#45;&gt;Node9 -->
<g id="edge27" class="edge">
<title>Node27&#45;&gt;Node9</title>
<path fill="none" stroke="#9a32cd" stroke-dasharray="5,2" d="M869.8,-641.02C872.22,-615.46 876.44,-571.04 878.19,-552.5"/>
<polygon fill="#9a32cd" stroke="#9a32cd" points="866.29,-641 868.83,-651.28 873.26,-641.66 866.29,-641"/>
<text text-anchor="middle" x="907.5" y="-625" font-family="Helvetica,sans-Serif" font-size="10.00"> segmentEnd</text>
<text text-anchor="middle" x="907.5" y="-614" font-family="Helvetica,sans-Serif" font-size="10.00">segmentBegin</text>
</g>
<!-- Node28&#45;&gt;Node27 -->
<g id="edge28" class="edge">
<title>Node28&#45;&gt;Node27</title>
<path fill="none" stroke="darkgreen" d="M875.36,-746.25C873.41,-723.87 870.22,-687.39 868.77,-670.76"/>
<polygon fill="darkgreen" stroke="darkgreen" points="871.88,-746.56 876.23,-756.22 878.85,-745.95 871.88,-746.56"/>
</g>
<!-- Node29 -->
<g id="node29" class="node">
<title>Node29</title>
<g id="a_node29"><a xlink:href="classdrain_1_1FlexVariableMap.html" target="_top" xlink:title="A map of FlexVariable:s.">
<polygon fill="white" stroke="black" points="722.5,-612.5 722.5,-631.5 821.5,-631.5 821.5,-612.5 722.5,-612.5"/>
<text text-anchor="middle" x="772" y="-619.5" font-family="Helvetica,sans-Serif" font-size="10.00">FlexVariableMap</text>
</a>
</g>
</g>
<!-- Node29&#45;&gt;Node9 -->
<g id="edge30" class="edge">
<title>Node29&#45;&gt;Node9</title>
<path fill="none" stroke="#9a32cd" stroke-dasharray="5,2" d="M772.92,-602.09C774.39,-591.66 777.89,-579.18 786,-571 800.08,-556.79 821.16,-549.95 839.7,-546.71"/>
<polygon fill="#9a32cd" stroke="#9a32cd" points="769.41,-602.05 771.99,-612.33 776.38,-602.68 769.41,-602.05"/>
<text text-anchor="middle" x="819.5" y="-585" font-family="Helvetica,sans-Serif" font-size="10.00"> propertiesPtr</text>
<text text-anchor="middle" x="819.5" y="-574" font-family="Helvetica,sans-Serif" font-size="10.00">properties</text>
</g>
<!-- Node30 -->
<g id="node30" class="node">
<title>Node30</title>
<g id="a_node30"><a xlink:href="classdrain_1_1SmartMap.html" target="_top" xlink:title=" ">
<polygon fill="white" stroke="black" points="680.5,-689.5 680.5,-708.5 831.5,-708.5 831.5,-689.5 680.5,-689.5"/>
<text text-anchor="middle" x="756" y="-696.5" font-family="Helvetica,sans-Serif" font-size="10.00">SmartMap&lt; FlexVariable &gt;</text>
</a>
</g>
</g>
<!-- Node30&#45;&gt;Node29 -->
<g id="edge31" class="edge">
<title>Node30&#45;&gt;Node29</title>
<path fill="none" stroke="midnightblue" d="M759.95,-679.47C763.22,-664.15 767.71,-643.09 770.19,-631.5"/>
<polygon fill="midnightblue" stroke="midnightblue" points="756.5,-678.89 757.84,-689.4 763.34,-680.35 756.5,-678.89"/>
</g>
<!-- Node31 -->
<g id="node31" class="node">
<title>Node31</title>
<g id="a_node31"><a xlink:title=" ">
<polygon fill="white" stroke="#bfbfbf" points="652.5,-756.5 652.5,-775.5 829.5,-775.5 829.5,-756.5 652.5,-756.5"/>
<text text-anchor="middle" x="741" y="-763.5" font-family="Helvetica,sans-Serif" font-size="10.00">map&lt; std::string, FlexVariable &gt;</text>
</a>
</g>
</g>
<!-- Node31&#45;&gt;Node30 -->
<g id="edge32" class="edge">
<title>Node31&#45;&gt;Node30</title>
<path fill="none" stroke="midnightblue" d="M745.29,-746.41C748.16,-733.99 751.8,-718.22 754.01,-708.63"/>
<polygon fill="midnightblue" stroke="midnightblue" points="741.86,-745.7 743.02,-756.23 748.68,-747.28 741.86,-745.7"/>
</g>
<!-- Node32 -->
<g id="node32" class="node">
<title>Node32</title>
<g id="a_node32"><a xlink:href="classdrain_1_1Range.html" target="_top" xlink:title=" ">
<polygon fill="white" stroke="black" points="329.5,-404 329.5,-423 412.5,-423 412.5,-404 329.5,-404"/>
<text text-anchor="middle" x="371" y="-411" font-family="Helvetica,sans-Serif" font-size="10.00">Range&lt; int &gt;</text>
</a>
</g>
</g>
<!-- Node32&#45;&gt;Node3 -->
<g id="edge34" class="edge">
<title>Node32&#45;&gt;Node3</title>
<path fill="none" stroke="#9a32cd" stroke-dasharray="5,2" d="M370.61,-393.2C370.39,-377.72 370.29,-355.46 371,-336 373.42,-269.71 380.54,-190.76 383.59,-158.89"/>
<polygon fill="#9a32cd" stroke="#9a32cd" points="367.12,-393.61 370.79,-403.55 374.12,-393.49 367.12,-393.61"/>
<text text-anchor="middle" x="395.5" y="-259" font-family="Helvetica,sans-Serif" font-size="10.00"> jRange</text>
<text text-anchor="middle" x="395.5" y="-248" font-family="Helvetica,sans-Serif" font-size="10.00">iRange</text>
</g>
<!-- Node32&#45;&gt;Node50 -->
<g id="edge55" class="edge">
<title>Node32&#45;&gt;Node50</title>
<path fill="none" stroke="#9a32cd" stroke-dasharray="5,2" d="M372.35,-393.43C374.37,-376.83 379.41,-352.85 392,-336 400.32,-324.86 413.53,-316.58 424.8,-311.03"/>
<polygon fill="#9a32cd" stroke="#9a32cd" points="368.85,-393.28 371.38,-403.57 375.81,-393.94 368.85,-393.28"/>
<text text-anchor="middle" x="412" y="-361" font-family="Helvetica,sans-Serif" font-size="10.00"> yRange</text>
<text text-anchor="middle" x="412" y="-350" font-family="Helvetica,sans-Serif" font-size="10.00">xRange</text>
</g>
<!-- Node33 -->
<g id="node33" class="node">
<title>Node33</title>
<g id="a_node33"><a xlink:href="classdrain_1_1UniTuple.html" target="_top" xlink:title=" ">
<polygon fill="white" stroke="black" points="210,-476.5 210,-495.5 316,-495.5 316,-476.5 210,-476.5"/>
<text text-anchor="middle" x="263" y="-483.5" font-family="Helvetica,sans-Serif" font-size="10.00">UniTuple&lt; int, 2 &gt;</text>
</a>
</g>
</g>
<!-- Node33&#45;&gt;Node32 -->
<g id="edge35" class="edge">
<title>Node33&#45;&gt;Node32</title>
<path fill="none" stroke="midnightblue" d="M284.84,-470.74C306.64,-456.51 339.45,-435.09 357.65,-423.22"/>
<polygon fill="midnightblue" stroke="midnightblue" points="282.7,-467.96 276.24,-476.36 286.53,-473.82 282.7,-467.96"/>
</g>
<!-- Node48 -->
<g id="node48" class="node">
<title>Node48</title>
<g id="a_node48"><a xlink:href="classdrain_1_1Frame2D.html" target="_top" xlink:title=" ">
<polygon fill="white" stroke="black" points="215,-404 215,-423 311,-423 311,-404 215,-404"/>
<text text-anchor="middle" x="263" y="-411" font-family="Helvetica,sans-Serif" font-size="10.00">Frame2D&lt; int &gt;</text>
</a>
</g>
</g>
<!-- Node33&#45;&gt;Node48 -->
<g id="edge51" class="edge">
<title>Node33&#45;&gt;Node48</title>
<path fill="none" stroke="midnightblue" d="M263,-465.94C263,-452.03 263,-433.82 263,-423.22"/>
<polygon fill="midnightblue" stroke="midnightblue" points="259.5,-466.36 263,-476.36 266.5,-466.36 259.5,-466.36"/>
</g>
<!-- Node49 -->
<g id="node49" class="node">
<title>Node49</title>
<g id="a_node49"><a xlink:href="structdrain_1_1Point2D.html" target="_top" xlink:title=" ">
<polygon fill="white" stroke="black" points="117,-207.5 117,-226.5 207,-226.5 207,-207.5 117,-207.5"/>
<text text-anchor="middle" x="162" y="-214.5" font-family="Helvetica,sans-Serif" font-size="10.00">Point2D&lt; int &gt;</text>
</a>
</g>
</g>
<!-- Node33&#45;&gt;Node49 -->
<g id="edge53" class="edge">
<title>Node33&#45;&gt;Node49</title>
<path fill="none" stroke="midnightblue" d="M242.36,-469.91C229.94,-459.73 214.86,-445.22 206,-429 167.26,-358.06 162.57,-256.62 162.05,-226.65"/>
<polygon fill="midnightblue" stroke="midnightblue" points="240.4,-472.82 250.43,-476.24 244.72,-467.31 240.4,-472.82"/>
</g>
<!-- Node34 -->
<g id="node34" class="node">
<title>Node34</title>
<g id="a_node34"><a xlink:href="structdrain_1_1UnaryFunctor.html" target="_top" xlink:title=" ">
<polygon fill="white" stroke="black" points="520,-207.5 520,-226.5 602,-226.5 602,-207.5 520,-207.5"/>
<text text-anchor="middle" x="561" y="-214.5" font-family="Helvetica,sans-Serif" font-size="10.00">UnaryFunctor</text>
</a>
</g>
</g>
<!-- Node34&#45;&gt;Node3 -->
<g id="edge36" class="edge">
<title>Node34&#45;&gt;Node3</title>
<path fill="none" stroke="#9a32cd" stroke-dasharray="5,2" d="M530.37,-203.56C499.48,-191.01 451.88,-171.67 419.64,-158.57"/>
<polygon fill="#9a32cd" stroke="#9a32cd" points="529.19,-206.85 539.77,-207.38 531.82,-200.37 529.19,-206.85"/>
<text text-anchor="middle" x="521.5" y="-181" font-family="Helvetica,sans-Serif" font-size="10.00"> myFunctor</text>
</g>
<!-- Node35 -->
<g id="node35" class="node">
<title>Node35</title>
<g id="a_node35"><a xlink:href="classdrain_1_1Functor.html" target="_top" xlink:title="Base class for sequential computations. Optional scaling utilities.">
<polygon fill="white" stroke="black" points="537.5,-292 537.5,-311 590.5,-311 590.5,-292 537.5,-292"/>
<text text-anchor="middle" x="564" y="-299" font-family="Helvetica,sans-Serif" font-size="10.00">Functor</text>
</a>
</g>
</g>
<!-- Node35&#45;&gt;Node34 -->
<g id="edge37" class="edge">
<title>Node35&#45;&gt;Node34</title>
<path fill="none" stroke="midnightblue" d="M563.32,-281.93C562.7,-264.63 561.79,-239.61 561.31,-226.6"/>
<polygon fill="midnightblue" stroke="midnightblue" points="559.83,-282.12 563.69,-291.98 566.82,-281.86 559.83,-282.12"/>
</g>
<!-- Node36 -->
<g id="node36" class="node">
<title>Node36</title>
<g id="a_node36"><a xlink:href="classdrain_1_1BeanLike.html" target="_top" xlink:title="Something which has a name, a description and possibly some parameters of varying type.">
<polygon fill="white" stroke="black" points="534.5,-404 534.5,-423 595.5,-423 595.5,-404 534.5,-404"/>
<text text-anchor="middle" x="565" y="-411" font-family="Helvetica,sans-Serif" font-size="10.00">BeanLike</text>
</a>
</g>
</g>
<!-- Node36&#45;&gt;Node35 -->
<g id="edge38" class="edge">
<title>Node36&#45;&gt;Node35</title>
<path fill="none" stroke="midnightblue" d="M564.83,-393.85C564.61,-369.75 564.24,-328.81 564.08,-311.09"/>
<polygon fill="midnightblue" stroke="midnightblue" points="561.33,-393.9 564.92,-403.87 568.33,-393.84 561.33,-393.9"/>
</g>
<!-- Node37 -->
<g id="node37" class="node">
<title>Node37</title>
<g id="a_node37"><a xlink:href="classdrain_1_1ReferenceMap.html" target="_top" xlink:title=" ">
<polygon fill="white" stroke="black" points="522.5,-476.5 522.5,-495.5 609.5,-495.5 609.5,-476.5 522.5,-476.5"/>
<text text-anchor="middle" x="566" y="-483.5" font-family="Helvetica,sans-Serif" font-size="10.00">ReferenceMap</text>
</a>
</g>
</g>
<!-- Node37&#45;&gt;Node36 -->
<g id="edge39" class="edge">
<title>Node37&#45;&gt;Node36</title>
<path fill="none" stroke="#9a32cd" stroke-dasharray="5,2" d="M565.73,-465.94C565.53,-452.03 565.27,-433.82 565.12,-423.22"/>
<polygon fill="#9a32cd" stroke="#9a32cd" points="562.24,-466.41 565.88,-476.36 569.24,-466.31 562.24,-466.41"/>
<text text-anchor="middle" x="596" y="-450" font-family="Helvetica,sans-Serif" font-size="10.00"> parameters</text>
</g>
<!-- Node38 -->
<g id="node38" class="node">
<title>Node38</title>
<g id="a_node38"><a xlink:href="classdrain_1_1SmartMap.html" target="_top" xlink:title=" ">
<polygon fill="white" stroke="black" points="497.5,-533.5 497.5,-552.5 640.5,-552.5 640.5,-533.5 497.5,-533.5"/>
<text text-anchor="middle" x="569" y="-540.5" font-family="Helvetica,sans-Serif" font-size="10.00">SmartMap&lt; Referencer &gt;</text>
</a>
</g>
</g>
<!-- Node38&#45;&gt;Node37 -->
<g id="edge40" class="edge">
<title>Node38&#45;&gt;Node37</title>
<path fill="none" stroke="midnightblue" d="M567.97,-523.12C567.46,-513.82 566.88,-503.06 566.48,-495.71"/>
<polygon fill="midnightblue" stroke="midnightblue" points="564.49,-523.61 568.53,-533.41 571.48,-523.23 564.49,-523.61"/>
</g>
<!-- Node39 -->
<g id="node39" class="node">
<title>Node39</title>
<g id="a_node39"><a xlink:title=" ">
<polygon fill="white" stroke="#bfbfbf" points="484.5,-612.5 484.5,-631.5 653.5,-631.5 653.5,-612.5 484.5,-612.5"/>
<text text-anchor="middle" x="569" y="-619.5" font-family="Helvetica,sans-Serif" font-size="10.00">map&lt; std::string, Referencer &gt;</text>
</a>
</g>
</g>
<!-- Node39&#45;&gt;Node38 -->
<g id="edge41" class="edge">
<title>Node39&#45;&gt;Node38</title>
<path fill="none" stroke="midnightblue" d="M569,-602.31C569,-586.59 569,-564.81 569,-552.81"/>
<polygon fill="midnightblue" stroke="midnightblue" points="565.5,-602.47 569,-612.47 572.5,-602.47 565.5,-602.47"/>
</g>
<!-- Node40 -->
<g id="node40" class="node">
<title>Node40</title>
<g id="a_node40"><a xlink:href="classdrain_1_1UniCloner.html" target="_top" xlink:title=" ">
<polygon fill="white" stroke="black" points="620.5,-207.5 620.5,-226.5 803.5,-226.5 803.5,-207.5 620.5,-207.5"/>
<text text-anchor="middle" x="712" y="-214.5" font-family="Helvetica,sans-Serif" font-size="10.00">UniCloner&lt; drain::UnaryFunctor &gt;</text>
</a>
</g>
</g>
<!-- Node40&#45;&gt;Node3 -->
<g id="edge42" class="edge">
<title>Node40&#45;&gt;Node3</title>
<path fill="none" stroke="#9a32cd" stroke-dasharray="5,2" d="M668.08,-205.03C636.21,-197.19 592.03,-186.55 553,-178 522.21,-171.25 488.11,-164.35 458.73,-158.58"/>
<polygon fill="#9a32cd" stroke="#9a32cd" points="667.42,-208.47 677.97,-207.47 669.1,-201.68 667.42,-208.47"/>
<text text-anchor="middle" x="626.5" y="-181" font-family="Helvetica,sans-Serif" font-size="10.00"> unicloner</text>
</g>
<!-- Node41 -->
<g id="node41" class="node">
<title>Node41</title>
<g id="a_node41"><a xlink:href="classdrain_1_1Bank.html" target="_top" xlink:title=" ">
<polygon fill="white" stroke="black" points="650.5,-292 650.5,-311 733.5,-311 733.5,-292 650.5,-292"/>
<text text-anchor="middle" x="692" y="-299" font-family="Helvetica,sans-Serif" font-size="10.00">Bank&lt; T, K &gt;</text>
</a>
</g>
</g>
<!-- Node41&#45;&gt;Node40 -->
<g id="edge43" class="edge">
<title>Node41&#45;&gt;Node40</title>
<path fill="none" stroke="#9a32cd" stroke-dasharray="5,2" d="M696.5,-281.93C700.69,-264.63 706.76,-239.61 709.92,-226.6"/>
<polygon fill="#9a32cd" stroke="#9a32cd" points="693.02,-281.44 694.07,-291.98 699.82,-283.09 693.02,-281.44"/>
<text text-anchor="middle" x="718" y="-253.5" font-family="Helvetica,sans-Serif" font-size="10.00"> bank</text>
</g>
<!-- Node42 -->
<g id="node42" class="node">
<title>Node42</title>
<g id="a_node42"><a xlink:title=" ">
<polygon fill="white" stroke="#bfbfbf" points="621,-398.5 621,-428.5 757,-428.5 757,-398.5 621,-398.5"/>
<text text-anchor="start" x="629" y="-416.5" font-family="Helvetica,sans-Serif" font-size="10.00">map&lt; std::string, Cloner</text>
<text text-anchor="middle" x="689" y="-405.5" font-family="Helvetica,sans-Serif" font-size="10.00">Base&lt; T &gt; * &gt;</text>
</a>
</g>
</g>
<!-- Node42&#45;&gt;Node41 -->
<g id="edge44" class="edge">
<title>Node42&#45;&gt;Node41</title>
<path fill="none" stroke="darkgreen" d="M689.67,-387.85C690.34,-363.47 691.32,-327.51 691.76,-311.16"/>
<polygon fill="darkgreen" stroke="darkgreen" points="686.17,-388.03 689.39,-398.12 693.16,-388.22 686.17,-388.03"/>
</g>
<!-- Node43 -->
<g id="node43" class="node">
<title>Node43</title>
<g id="a_node43"><a xlink:href="classdrain_1_1image_1_1OpticalFlowConfig.html" target="_top" xlink:title="Consider using SlidingStripeOpticalFlow instead.">
<polygon fill="white" stroke="black" points="225,-207.5 225,-226.5 331,-226.5 331,-207.5 225,-207.5"/>
<text text-anchor="middle" x="278" y="-214.5" font-family="Helvetica,sans-Serif" font-size="10.00">OpticalFlowConfig</text>
</a>
</g>
</g>
<!-- Node43&#45;&gt;Node3 -->
<g id="edge45" class="edge">
<title>Node43&#45;&gt;Node3</title>
<path fill="none" stroke="#9a32cd" stroke-dasharray="5,2" d="M293.52,-200.17C301.11,-192.91 310.62,-184.5 320,-178 330.44,-170.77 342.64,-164.08 353.63,-158.61"/>
<polygon fill="#9a32cd" stroke="#9a32cd" points="290.8,-197.93 286.14,-207.45 295.72,-202.92 290.8,-197.93"/>
<text text-anchor="middle" x="332.5" y="-181" font-family="Helvetica,sans-Serif" font-size="10.00"> conf</text>
</g>
<!-- Node44 -->
<g id="node44" class="node">
<title>Node44</title>
<g id="a_node44"><a xlink:href="classdrain_1_1image_1_1WindowConfig.html" target="_top" xlink:title="Base class for configurations applied in image processing windows, e.g. for operators of type WindowO...">
<polygon fill="white" stroke="black" points="217.5,-292 217.5,-311 304.5,-311 304.5,-292 217.5,-292"/>
<text text-anchor="middle" x="261" y="-299" font-family="Helvetica,sans-Serif" font-size="10.00">WindowConfig</text>
</a>
</g>
</g>
<!-- Node44&#45;&gt;Node43 -->
<g id="edge46" class="edge">
<title>Node44&#45;&gt;Node43</title>
<path fill="none" stroke="midnightblue" d="M264.83,-281.93C268.39,-264.63 273.55,-239.61 276.23,-226.6"/>
<polygon fill="midnightblue" stroke="midnightblue" points="261.35,-281.48 262.76,-291.98 268.2,-282.89 261.35,-281.48"/>
</g>
<!-- Node45 -->
<g id="node45" class="node">
<title>Node45</title>
<g id="a_node45"><a xlink:href="classdrain_1_1VariableMap.html" target="_top" xlink:title="A map of Variables.">
<polygon fill="white" stroke="black" points="39,-404 39,-423 117,-423 117,-404 39,-404"/>
<text text-anchor="middle" x="78" y="-411" font-family="Helvetica,sans-Serif" font-size="10.00">VariableMap</text>
</a>
</g>
</g>
<!-- Node45&#45;&gt;Node44 -->
<g id="edge47" class="edge">
<title>Node45&#45;&gt;Node44</title>
<path fill="none" stroke="#9a32cd" stroke-dasharray="5,2" d="M92.34,-396.42C108.33,-379.34 135.7,-352.57 164,-336 183.06,-324.84 206.42,-316.63 225.43,-311.13"/>
<polygon fill="#9a32cd" stroke="#9a32cd" points="89.63,-394.2 85.45,-403.94 94.79,-398.93 89.63,-394.2"/>
<text text-anchor="middle" x="211" y="-355.5" font-family="Helvetica,sans-Serif" font-size="10.00"> functorParameters</text>
</g>
<!-- Node46 -->
<g id="node46" class="node">
<title>Node46</title>
<g id="a_node46"><a xlink:href="classdrain_1_1SmartMap.html" target="_top" xlink:title=" ">
<polygon fill="white" stroke="black" points="13,-476.5 13,-495.5 143,-495.5 143,-476.5 13,-476.5"/>
<text text-anchor="middle" x="78" y="-483.5" font-family="Helvetica,sans-Serif" font-size="10.00">SmartMap&lt; Variable &gt;</text>
</a>
</g>
</g>
<!-- Node46&#45;&gt;Node45 -->
<g id="edge48" class="edge">
<title>Node46&#45;&gt;Node45</title>
<path fill="none" stroke="midnightblue" d="M78,-465.94C78,-452.03 78,-433.82 78,-423.22"/>
<polygon fill="midnightblue" stroke="midnightblue" points="74.5,-466.36 78,-476.36 81.5,-466.36 74.5,-466.36"/>
</g>
<!-- Node47 -->
<g id="node47" class="node">
<title>Node47</title>
<g id="a_node47"><a xlink:title=" ">
<polygon fill="white" stroke="#bfbfbf" points="0,-533.5 0,-552.5 156,-552.5 156,-533.5 0,-533.5"/>
<text text-anchor="middle" x="78" y="-540.5" font-family="Helvetica,sans-Serif" font-size="10.00">map&lt; std::string, Variable &gt;</text>
</a>
</g>
</g>
<!-- Node47&#45;&gt;Node46 -->
<g id="edge49" class="edge">
<title>Node47&#45;&gt;Node46</title>
<path fill="none" stroke="midnightblue" d="M78,-523.12C78,-513.82 78,-503.06 78,-495.71"/>
<polygon fill="midnightblue" stroke="midnightblue" points="74.5,-523.41 78,-533.41 81.5,-523.41 74.5,-523.41"/>
</g>
<!-- Node48&#45;&gt;Node44 -->
<g id="edge50" class="edge">
<title>Node48&#45;&gt;Node44</title>
<path fill="none" stroke="#9a32cd" stroke-dasharray="5,2" d="M262.37,-393.73C262.23,-389.23 262.1,-384.44 262,-380 261.45,-354.98 261.17,-325.4 261.06,-311.1"/>
<polygon fill="#9a32cd" stroke="#9a32cd" points="258.87,-394.07 262.7,-403.95 265.87,-393.84 258.87,-394.07"/>
<text text-anchor="middle" x="278.5" y="-355.5" font-family="Helvetica,sans-Serif" font-size="10.00"> frame</text>
</g>
<!-- Node48&#45;&gt;Node50 -->
<g id="edge56" class="edge">
<title>Node48&#45;&gt;Node50</title>
<path fill="none" stroke="#9a32cd" stroke-dasharray="5,2" d="M278.6,-396.62C298.29,-376.87 331.33,-344.67 346,-336 365.23,-324.63 388.84,-316.49 408.29,-311.08"/>
<polygon fill="#9a32cd" stroke="#9a32cd" points="276.1,-394.18 271.55,-403.75 281.07,-399.11 276.1,-394.18"/>
<text text-anchor="middle" x="358.5" y="-355.5" font-family="Helvetica,sans-Serif" font-size="10.00"> area</text>
</g>
<!-- Node49&#45;&gt;Node2 -->
<g id="edge59" class="edge">
<title>Node49&#45;&gt;Node2</title>
<path fill="none" stroke="#9a32cd" stroke-dasharray="5,2" d="M173.02,-198.67C191.04,-170.34 226.46,-114.66 243.04,-88.59"/>
<polygon fill="#9a32cd" stroke="#9a32cd" points="170.04,-196.83 167.63,-207.15 175.95,-200.59 170.04,-196.83"/>
<text text-anchor="middle" x="251" y="-152" font-family="Helvetica,sans-Serif" font-size="10.00"> locationTrail</text>
<text text-anchor="middle" x="251" y="-141" font-family="Helvetica,sans-Serif" font-size="10.00">locationLead</text>
<text text-anchor="middle" x="251" y="-130" font-family="Helvetica,sans-Serif" font-size="10.00">locationTmp</text>
</g>
<!-- Node49&#45;&gt;Node3 -->
<g id="edge52" class="edge">
<title>Node49&#45;&gt;Node3</title>
<path fill="none" stroke="#9a32cd" stroke-dasharray="5,2" d="M191.49,-203.61C210.79,-195.73 236.66,-185.63 260,-178 281.78,-170.88 306.05,-164.12 327.37,-158.55"/>
<polygon fill="#9a32cd" stroke="#9a32cd" points="189.95,-200.45 182.04,-207.5 192.62,-206.92 189.95,-200.45"/>
<text text-anchor="middle" x="281.5" y="-181" font-family="Helvetica,sans-Serif" font-size="10.00"> location</text>
</g>
<!-- Node50&#45;&gt;Node3 -->
<g id="edge54" class="edge">
<title>Node50&#45;&gt;Node3</title>
<path fill="none" stroke="#9a32cd" stroke-dasharray="5,2" d="M438.83,-282.41C432.94,-267.54 424.4,-245.91 417,-227 407.6,-202.96 396.75,-174.95 390.41,-158.52"/>
<polygon fill="#9a32cd" stroke="#9a32cd" points="435.65,-283.9 442.59,-291.91 442.16,-281.32 435.65,-283.9"/>
<text text-anchor="middle" x="464" y="-214.5" font-family="Helvetica,sans-Serif" font-size="10.00"> coordinateHandler</text>
</g>
</g>
</svg>
