<?xml version="1.0" encoding="UTF-8" standalone="no"?>
<!DOCTYPE svg PUBLIC "-//W3C//DTD SVG 1.1//EN"
 "http://www.w3.org/Graphics/SVG/1.1/DTD/svg11.dtd">
<!-- Generated by graphviz version 2.43.0 (0)
 -->
<!-- Title: CommandBank Pages: 1 -->
<svg width="661pt" height="137pt"
 viewBox="0.00 0.00 661.00 137.00" xmlns="http://www.w3.org/2000/svg" xmlns:xlink="http://www.w3.org/1999/xlink">
<g id="graph0" class="graph" transform="scale(1 1) rotate(0) translate(4 133)">
<title>CommandBank</title>
<polygon fill="white" stroke="transparent" points="-4,4 -4,-133 657,-133 657,4 -4,4"/>
<!-- Node1 -->
<g id="node1" class="node">
<title>Node1</title>
<g id="a_node1"><a xlink:title="Container and execution tools for commands derived from Command.">
<polygon fill="#bfbfbf" stroke="black" points="561,-55 561,-74 653,-74 653,-55 561,-55"/>
<text text-anchor="middle" x="607" y="-62" font-family="Helvetica,sans-Serif" font-size="10.00">CommandBank</text>
</a>
</g>
</g>
<!-- Node2 -->
<g id="node2" class="node">
<title>Node2</title>
<g id="a_node2"><a xlink:href="classdrain_1_1BankSuper.html" target="_top" xlink:title=" ">
<polygon fill="white" stroke="black" points="382,-55 382,-74 524,-74 524,-55 382,-55"/>
<text text-anchor="middle" x="453" y="-62" font-family="Helvetica,sans-Serif" font-size="10.00">BankSuper&lt; Command &gt;</text>
</a>
</g>
</g>
<!-- Node2&#45;&gt;Node1 -->
<g id="edge1" class="edge">
<title>Node2&#45;&gt;Node1</title>
<path fill="none" stroke="midnightblue" d="M534.44,-64.5C543.5,-64.5 552.46,-64.5 560.83,-64.5"/>
<polygon fill="midnightblue" stroke="midnightblue" points="534.22,-61 524.22,-64.5 534.22,-68 534.22,-61"/>
</g>
<!-- Node3 -->
<g id="node3" class="node">
<title>Node3</title>
<g id="a_node3"><a xlink:href="classdrain_1_1Bank.html" target="_top" xlink:title=" ">
<polygon fill="white" stroke="black" points="173,-98.5 173,-128.5 297,-128.5 297,-98.5 173,-98.5"/>
<text text-anchor="start" x="181" y="-116.5" font-family="Helvetica,sans-Serif" font-size="10.00">Bank&lt; Command, std</text>
<text text-anchor="middle" x="235" y="-105.5" font-family="Helvetica,sans-Serif" font-size="10.00">::string &gt;</text>
</a>
</g>
</g>
<!-- Node3&#45;&gt;Node2 -->
<g id="edge2" class="edge">
<title>Node3&#45;&gt;Node2</title>
<path fill="none" stroke="midnightblue" d="M306.94,-97.41C341.02,-89.68 380.7,-80.68 409.93,-74.04"/>
<polygon fill="midnightblue" stroke="midnightblue" points="306.01,-94.03 297.03,-99.66 307.56,-100.86 306.01,-94.03"/>
</g>
<!-- Node4 -->
<g id="node4" class="node">
<title>Node4</title>
<g id="a_node4"><a xlink:title=" ">
<polygon fill="white" stroke="#bfbfbf" points="0,-98.5 0,-128.5 136,-128.5 136,-98.5 0,-98.5"/>
<text text-anchor="start" x="8" y="-116.5" font-family="Helvetica,sans-Serif" font-size="10.00">map&lt; std::string, Cloner</text>
<text text-anchor="middle" x="68" y="-105.5" font-family="Helvetica,sans-Serif" font-size="10.00">Base&lt; Command &gt; * &gt;</text>
</a>
</g>
</g>
<!-- Node4&#45;&gt;Node3 -->
<g id="edge3" class="edge">
<title>Node4&#45;&gt;Node3</title>
<path fill="none" stroke="darkgreen" d="M146.15,-113.5C155.09,-113.5 164.11,-113.5 172.79,-113.5"/>
<polygon fill="darkgreen" stroke="darkgreen" points="146.11,-110 136.11,-113.5 146.11,-117 146.11,-110"/>
</g>
<!-- Node5 -->
<g id="node5" class="node">
<title>Node5</title>
<g id="a_node5"><a xlink:href="classdrain_1_1Dictionary2.html" target="_top" xlink:title=" ">
<polygon fill="white" stroke="black" points="181,-49.5 181,-79.5 289,-79.5 289,-49.5 181,-49.5"/>
<text text-anchor="start" x="189" y="-67.5" font-family="Helvetica,sans-Serif" font-size="10.00">Dictionary2&lt; char,</text>
<text text-anchor="middle" x="235" y="-56.5" font-family="Helvetica,sans-Serif" font-size="10.00"> std::string &gt;</text>
</a>
</g>
</g>
<!-- Node5&#45;&gt;Node2 -->
<g id="edge4" class="edge">
<title>Node5&#45;&gt;Node2</title>
<path fill="none" stroke="#9a32cd" stroke-dasharray="5,2" d="M299.21,-64.5C325.16,-64.5 355.31,-64.5 381.93,-64.5"/>
<polygon fill="#9a32cd" stroke="#9a32cd" points="299.12,-61 289.12,-64.5 299.12,-68 299.12,-61"/>
<text text-anchor="middle" x="339.5" y="-67.5" font-family="Helvetica,sans-Serif" font-size="10.00"> briefKeys</text>
</g>
<!-- Node6 -->
<g id="node6" class="node">
<title>Node6</title>
<g id="a_node6"><a xlink:title=" ">
<polygon fill="white" stroke="#bfbfbf" points="9,-49.5 9,-79.5 127,-79.5 127,-49.5 9,-49.5"/>
<text text-anchor="start" x="17" y="-67.5" font-family="Helvetica,sans-Serif" font-size="10.00">list&lt; std::pair&lt; char,</text>
<text text-anchor="middle" x="68" y="-56.5" font-family="Helvetica,sans-Serif" font-size="10.00"> std::string &gt; &gt;</text>
</a>
</g>
</g>
<!-- Node6&#45;&gt;Node5 -->
<g id="edge5" class="edge">
<title>Node6&#45;&gt;Node5</title>
<path fill="none" stroke="midnightblue" d="M137.55,-64.5C151.98,-64.5 166.99,-64.5 180.76,-64.5"/>
<polygon fill="midnightblue" stroke="midnightblue" points="137.17,-61 127.17,-64.5 137.17,-68 137.17,-61"/>
</g>
<!-- Node7 -->
<g id="node7" class="node">
<title>Node7</title>
<g id="a_node7"><a xlink:href="classdrain_1_1Dictionary2.html" target="_top" xlink:title=" ">
<polygon fill="white" stroke="black" points="178.5,-0.5 178.5,-30.5 291.5,-30.5 291.5,-0.5 178.5,-0.5"/>
<text text-anchor="start" x="186.5" y="-18.5" font-family="Helvetica,sans-Serif" font-size="10.00">Dictionary2&lt; key_t,</text>
<text text-anchor="middle" x="235" y="-7.5" font-family="Helvetica,sans-Serif" font-size="10.00"> value_t &gt;</text>
</a>
</g>
</g>
<!-- Node7&#45;&gt;Node2 -->
<g id="edge6" class="edge">
<title>Node7&#45;&gt;Node2</title>
<path fill="none" stroke="#9a32cd" stroke-dasharray="5,2" d="M301.81,-30.43C336.95,-38.4 379.15,-47.97 409.87,-54.94"/>
<polygon fill="#9a32cd" stroke="#9a32cd" points="302.15,-26.92 291.63,-28.12 300.6,-33.74 302.15,-26.92"/>
<text text-anchor="middle" x="339.5" y="-46.5" font-family="Helvetica,sans-Serif" font-size="10.00"> sections</text>
</g>
<!-- Node8 -->
<g id="node8" class="node">
<title>Node8</title>
<g id="a_node8"><a xlink:title=" ">
<polygon fill="white" stroke="#bfbfbf" points="12.5,-0.5 12.5,-30.5 123.5,-30.5 123.5,-0.5 12.5,-0.5"/>
<text text-anchor="start" x="20.5" y="-18.5" font-family="Helvetica,sans-Serif" font-size="10.00">list&lt; std::pair&lt; key</text>
<text text-anchor="middle" x="68" y="-7.5" font-family="Helvetica,sans-Serif" font-size="10.00">_t , value_t &gt; &gt;</text>
</a>
</g>
</g>
<!-- Node8&#45;&gt;Node7 -->
<g id="edge7" class="edge">
<title>Node8&#45;&gt;Node7</title>
<path fill="none" stroke="midnightblue" d="M133.98,-15.5C148.69,-15.5 164.17,-15.5 178.45,-15.5"/>
<polygon fill="midnightblue" stroke="midnightblue" points="133.94,-12 123.94,-15.5 133.94,-19 133.94,-12"/>
</g>
</g>
</svg>
