<?xml version="1.0" encoding="UTF-8" standalone="no"?>
<!DOCTYPE svg PUBLIC "-//W3C//DTD SVG 1.1//EN"
 "http://www.w3.org/Graphics/SVG/1.1/DTD/svg11.dtd">
<!-- Generated by graphviz version 2.43.0 (0)
 -->
<!-- Title: Contextual Pages: 1 -->
<svg width="294pt" height="344pt"
 viewBox="0.00 0.00 294.00 344.00" xmlns="http://www.w3.org/2000/svg" xmlns:xlink="http://www.w3.org/1999/xlink">
<g id="graph0" class="graph" transform="scale(1 1) rotate(0) translate(4 340)">
<title>Contextual</title>
<polygon fill="white" stroke="transparent" points="-4,4 -4,-340 290,-340 290,4 -4,4"/>
<!-- Node1 -->
<g id="node1" class="node">
<title>Node1</title>
<g id="a_node1"><a xlink:title=" ">
<polygon fill="#bfbfbf" stroke="black" points="121,-0.5 121,-19.5 191,-19.5 191,-0.5 121,-0.5"/>
<text text-anchor="middle" x="156" y="-7.5" font-family="Helvetica,sans-Serif" font-size="10.00">Contextual</text>
</a>
</g>
</g>
<!-- Node2 -->
<g id="node2" class="node">
<title>Node2</title>
<g id="a_node2"><a xlink:href="classdrain_1_1Context.html" target="_top" xlink:title=" ">
<polygon fill="white" stroke="black" points="128.5,-67.5 128.5,-86.5 183.5,-86.5 183.5,-67.5 128.5,-67.5"/>
<text text-anchor="middle" x="156" y="-74.5" font-family="Helvetica,sans-Serif" font-size="10.00">Context</text>
</a>
</g>
</g>
<!-- Node2&#45;&gt;Node1 -->
<g id="edge1" class="edge">
<title>Node2&#45;&gt;Node1</title>
<path fill="none" stroke="#9a32cd" stroke-dasharray="5,2" d="M156,-57.04C156,-44.67 156,-29.12 156,-19.63"/>
<polygon fill="#9a32cd" stroke="#9a32cd" points="152.5,-57.23 156,-67.23 159.5,-57.23 152.5,-57.23"/>
<text text-anchor="middle" x="183" y="-41" font-family="Helvetica,sans-Serif" font-size="10.00"> contextPtr</text>
</g>
<!-- Node3 -->
<g id="node3" class="node">
<title>Node3</title>
<g id="a_node3"><a xlink:href="classdrain_1_1VariableMap.html" target="_top" xlink:title="A map of Variables.">
<polygon fill="white" stroke="black" points="39,-134.5 39,-153.5 117,-153.5 117,-134.5 39,-134.5"/>
<text text-anchor="middle" x="78" y="-141.5" font-family="Helvetica,sans-Serif" font-size="10.00">VariableMap</text>
</a>
</g>
</g>
<!-- Node3&#45;&gt;Node2 -->
<g id="edge2" class="edge">
<title>Node3&#45;&gt;Node2</title>
<path fill="none" stroke="#9a32cd" stroke-dasharray="5,2" d="M84.01,-125.04C87.03,-118.09 91.3,-110.51 97,-105 105.75,-96.55 117.62,-90.42 128.42,-86.16"/>
<polygon fill="#9a32cd" stroke="#9a32cd" points="80.71,-123.84 80.43,-134.44 87.26,-126.33 80.71,-123.84"/>
<text text-anchor="middle" x="124.5" y="-108" font-family="Helvetica,sans-Serif" font-size="10.00"> statusMap</text>
</g>
<!-- Node4 -->
<g id="node4" class="node">
<title>Node4</title>
<g id="a_node4"><a xlink:href="classdrain_1_1SmartMap.html" target="_top" xlink:title=" ">
<polygon fill="white" stroke="black" points="13,-197 13,-216 143,-216 143,-197 13,-197"/>
<text text-anchor="middle" x="78" y="-204" font-family="Helvetica,sans-Serif" font-size="10.00">SmartMap&lt; Variable &gt;</text>
</a>
</g>
</g>
<!-- Node4&#45;&gt;Node3 -->
<g id="edge3" class="edge">
<title>Node4&#45;&gt;Node3</title>
<path fill="none" stroke="midnightblue" d="M78,-186.5C78,-175.5 78,-162.18 78,-153.65"/>
<polygon fill="midnightblue" stroke="midnightblue" points="74.5,-186.83 78,-196.83 81.5,-186.83 74.5,-186.83"/>
</g>
<!-- Node5 -->
<g id="node5" class="node">
<title>Node5</title>
<g id="a_node5"><a xlink:title=" ">
<polygon fill="white" stroke="#bfbfbf" points="0,-259.5 0,-278.5 156,-278.5 156,-259.5 0,-259.5"/>
<text text-anchor="middle" x="78" y="-266.5" font-family="Helvetica,sans-Serif" font-size="10.00">map&lt; std::string, Variable &gt;</text>
</a>
</g>
</g>
<!-- Node5&#45;&gt;Node4 -->
<g id="edge4" class="edge">
<title>Node5&#45;&gt;Node4</title>
<path fill="none" stroke="midnightblue" d="M78,-249C78,-238 78,-224.68 78,-216.15"/>
<polygon fill="midnightblue" stroke="midnightblue" points="74.5,-249.33 78,-259.33 81.5,-249.33 74.5,-249.33"/>
</g>
<!-- Node6 -->
<g id="node6" class="node">
<title>Node6</title>
<g id="a_node6"><a xlink:href="classdrain_1_1Log.html" target="_top" xlink:title="Handler for notifications sent by a Logger.">
<polygon fill="white" stroke="black" points="139,-134.5 139,-153.5 173,-153.5 173,-134.5 139,-134.5"/>
<text text-anchor="middle" x="156" y="-141.5" font-family="Helvetica,sans-Serif" font-size="10.00">Log</text>
</a>
</g>
</g>
<!-- Node6&#45;&gt;Node2 -->
<g id="edge5" class="edge">
<title>Node6&#45;&gt;Node2</title>
<path fill="none" stroke="#9a32cd" stroke-dasharray="5,2" d="M156,-124.04C156,-111.67 156,-96.12 156,-86.63"/>
<polygon fill="#9a32cd" stroke="#9a32cd" points="152.5,-124.23 156,-134.23 159.5,-124.23 152.5,-124.23"/>
<text text-anchor="middle" x="165.5" y="-108" font-family="Helvetica,sans-Serif" font-size="10.00"> log</text>
</g>
<!-- Node7 -->
<g id="node7" class="node">
<title>Node7</title>
<g id="a_node7"><a xlink:href="classdrain_1_1StatusFlags.html" target="_top" xlink:title=" ">
<polygon fill="white" stroke="black" points="191,-134.5 191,-153.5 265,-153.5 265,-134.5 191,-134.5"/>
<text text-anchor="middle" x="228" y="-141.5" font-family="Helvetica,sans-Serif" font-size="10.00">StatusFlags</text>
</a>
</g>
</g>
<!-- Node7&#45;&gt;Node2 -->
<g id="edge6" class="edge">
<title>Node7&#45;&gt;Node2</title>
<path fill="none" stroke="#9a32cd" stroke-dasharray="5,2" d="M210.67,-127.36C196.52,-114.58 177.04,-96.99 165.56,-86.63"/>
<polygon fill="#9a32cd" stroke="#9a32cd" points="208.52,-130.13 218.29,-134.23 213.21,-124.93 208.52,-130.13"/>
<text text-anchor="middle" x="226" y="-108" font-family="Helvetica,sans-Serif" font-size="10.00"> statusFlags</text>
</g>
<!-- Node8 -->
<g id="node8" class="node">
<title>Node8</title>
<g id="a_node8"><a xlink:href="classdrain_1_1GlobalFlags.html" target="_top" xlink:title=" ">
<polygon fill="white" stroke="black" points="170,-191.5 170,-221.5 286,-221.5 286,-191.5 170,-191.5"/>
<text text-anchor="start" x="178" y="-209.5" font-family="Helvetica,sans-Serif" font-size="10.00">GlobalFlags&lt; status</text>
<text text-anchor="middle" x="228" y="-198.5" font-family="Helvetica,sans-Serif" font-size="10.00">_flag_id &gt;</text>
</a>
</g>
</g>
<!-- Node8&#45;&gt;Node7 -->
<g id="edge7" class="edge">
<title>Node8&#45;&gt;Node7</title>
<path fill="none" stroke="midnightblue" d="M228,-181.35C228,-171.51 228,-160.78 228,-153.54"/>
<polygon fill="midnightblue" stroke="midnightblue" points="224.5,-181.47 228,-191.47 231.5,-181.47 224.5,-181.47"/>
</g>
<!-- Node9 -->
<g id="node9" class="node">
<title>Node9</title>
<g id="a_node9"><a xlink:href="classdrain_1_1Flagger.html" target="_top" xlink:title="Bit vector accessible also with integer values associated with strings.">
<polygon fill="white" stroke="black" points="201.5,-259.5 201.5,-278.5 254.5,-278.5 254.5,-259.5 201.5,-259.5"/>
<text text-anchor="middle" x="228" y="-266.5" font-family="Helvetica,sans-Serif" font-size="10.00">Flagger</text>
</a>
</g>
</g>
<!-- Node9&#45;&gt;Node8 -->
<g id="edge8" class="edge">
<title>Node9&#45;&gt;Node8</title>
<path fill="none" stroke="midnightblue" d="M228,-249.22C228,-240.36 228,-229.96 228,-221.76"/>
<polygon fill="midnightblue" stroke="midnightblue" points="224.5,-249.33 228,-259.33 231.5,-249.33 224.5,-249.33"/>
</g>
<!-- Node10 -->
<g id="node10" class="node">
<title>Node10</title>
<g id="a_node10"><a xlink:href="classdrain_1_1FlagResolver.html" target="_top" xlink:title="Referencing a dictionary of binary values: {&quot;A&quot;,1: &quot;B&quot;:2, &quot;C&quot;: 4, &quot;D&quot;: 8, ...} resolves two&#45;way mappi...">
<polygon fill="white" stroke="black" points="188,-316.5 188,-335.5 268,-335.5 268,-316.5 188,-316.5"/>
<text text-anchor="middle" x="228" y="-323.5" font-family="Helvetica,sans-Serif" font-size="10.00">FlagResolver</text>
</a>
</g>
</g>
<!-- Node10&#45;&gt;Node9 -->
<g id="edge9" class="edge">
<title>Node10&#45;&gt;Node9</title>
<path fill="none" stroke="midnightblue" d="M228,-306.12C228,-296.82 228,-286.06 228,-278.71"/>
<polygon fill="midnightblue" stroke="midnightblue" points="224.5,-306.41 228,-316.41 231.5,-306.41 224.5,-306.41"/>
</g>
</g>
</svg>
