<?xml version="1.0" encoding="UTF-8" standalone="no"?>
<!DOCTYPE svg PUBLIC "-//W3C//DTD SVG 1.1//EN"
 "http://www.w3.org/Graphics/SVG/1.1/DTD/svg11.dtd">
<!-- Generated by graphviz version 2.43.0 (0)
 -->
<!-- Title: CartesianDataPicker Pages: 1 -->
<!--zoomable 339 -->
<svg id="main" version="1.1" xmlns="http://www.w3.org/2000/svg" xmlns:xlink="http://www.w3.org/1999/xlink" xml:space="preserve" onload="init(evt)">
<style type="text/css"><![CDATA[
.edge:hover path { stroke: red; }
.edge:hover polygon { stroke: red; fill: red; }
]]></style>
<script type="text/javascript"><![CDATA[
var edges = document.getElementsByTagName('g');
if (edges && edges.length) {
  for (var i=0;i<edges.length;i++) {
    if (edges[i].id.substr(0,4)=='edge') {
      edges[i].setAttribute('class','edge');
    }
  }
}
]]></script>
        <defs>
                <circle id="rim" cx="0" cy="0" r="7"/>
                <circle id="rim2" cx="0" cy="0" r="3.5"/>
                <g id="zoomPlus">
                        <use xlink:href="#rim" fill="#404040">
                                <set attributeName="fill" to="#808080" begin="zoomplus.mouseover" end="zoomplus.mouseout"/>
                        </use>
                        <path d="M-4,0h8M0,-4v8" fill="none" stroke="white" stroke-width="1.5" pointer-events="none"/>
                </g>
                <g id="zoomMin">
                        <use xlink:href="#rim" fill="#404040">
                                <set attributeName="fill" to="#808080" begin="zoomminus.mouseover" end="zoomminus.mouseout"/>
                        </use>
                        <path d="M-4,0h8" fill="none" stroke="white" stroke-width="1.5" pointer-events="none"/>
                </g>
                <g id="dirArrow">
                        <path fill="none" stroke="white" stroke-width="1.5" d="M0,-3.0v7 M-2.5,-0.5L0,-3.0L2.5,-0.5"/>
                </g>
               <g id="resetDef">
                       <use xlink:href="#rim2" fill="#404040">
                               <set attributeName="fill" to="#808080" begin="reset.mouseover" end="reset.mouseout"/>
                       </use>
               </g>
        </defs>

<script type="text/javascript">
var viewWidth = 1409;
var viewHeight = 339;
var sectionId = 'dynsection-1';
</script>
<script xlink:href="svgpan.js"/>
<svg id="graph" class="graph">
<g id="viewport">
<title>CartesianDataPicker</title>
<polygon fill="white" stroke="transparent" points="-4,4 -4,-334.5 1405,-334.5 1405,4 -4,4"/>
<!-- Node1 -->
<g id="node1" class="node">
<title>Node1</title>
<g id="a_node1"><a xlink:title=" ">
<polygon fill="#bfbfbf" stroke="black" points="1285,-189.5 1285,-208.5 1401,-208.5 1401,-189.5 1285,-189.5"/>
<text text-anchor="middle" x="1343" y="-196.5" font-family="Helvetica,sans-Serif" font-size="10.00">CartesianDataPicker</text>
</a>
</g>
</g>
<!-- Node2 -->
<g id="node2" class="node">
<title>Node2</title>
<g id="a_node2"><a xlink:href="classrack_1_1RadarDataPicker.html" target="_top" xlink:title=" ">
<polygon fill="white" stroke="black" points="1093,-146 1093,-176 1248,-176 1248,-146 1093,-146"/>
<text text-anchor="start" x="1101" y="-164" font-family="Helvetica,sans-Serif" font-size="10.00">RadarDataPicker&lt; Cartesian</text>
<text text-anchor="middle" x="1170.5" y="-153" font-family="Helvetica,sans-Serif" font-size="10.00">ODIM &gt;</text>
</a>
</g>
</g>
<!-- Node2&#45;&gt;Node1 -->
<g id="edge1" class="edge">
<title>Node2&#45;&gt;Node1</title>
<path fill="none" stroke="midnightblue" d="M1249.01,-178.28C1266.33,-182.14 1284.08,-186.09 1299.37,-189.5"/>
<polygon fill="midnightblue" stroke="midnightblue" points="1249.41,-174.78 1238.89,-176.02 1247.89,-181.61 1249.41,-174.78"/>
</g>
<!-- Node3 -->
<g id="node3" class="node">
<title>Node3</title>
<g id="a_node3"><a xlink:href="structdrain_1_1image_1_1SamplePicker.html" target="_top" xlink:title="Interprets data values for Sampler.">
<polygon fill="white" stroke="black" points="699.5,-36.5 699.5,-55.5 782.5,-55.5 782.5,-36.5 699.5,-36.5"/>
<text text-anchor="middle" x="741" y="-43.5" font-family="Helvetica,sans-Serif" font-size="10.00">SamplePicker</text>
</a>
</g>
</g>
<!-- Node3&#45;&gt;Node2 -->
<g id="edge2" class="edge">
<title>Node3&#45;&gt;Node2</title>
<path fill="none" stroke="midnightblue" d="M787.45,-58.23C866.24,-79.42 1027.97,-122.93 1113.54,-145.95"/>
<polygon fill="midnightblue" stroke="midnightblue" points="787.91,-54.73 777.35,-55.51 786.1,-61.49 787.91,-54.73"/>
</g>
<!-- Node4 -->
<g id="node4" class="node">
<title>Node4</title>
<g id="a_node4"><a xlink:href="classdrain_1_1ReferenceMap.html" target="_top" xlink:title=" ">
<polygon fill="white" stroke="black" points="476.5,-38.5 476.5,-57.5 563.5,-57.5 563.5,-38.5 476.5,-38.5"/>
<text text-anchor="middle" x="520" y="-45.5" font-family="Helvetica,sans-Serif" font-size="10.00">ReferenceMap</text>
</a>
</g>
</g>
<!-- Node4&#45;&gt;Node3 -->
<g id="edge3" class="edge">
<title>Node4&#45;&gt;Node3</title>
<path fill="none" stroke="#9a32cd" stroke-dasharray="5,2" d="M573.69,-47.28C582.15,-47.18 590.82,-47.08 599,-47 632.78,-46.66 671.11,-46.4 699.28,-46.23"/>
<polygon fill="#9a32cd" stroke="#9a32cd" points="573.46,-43.79 563.51,-47.41 573.55,-50.79 573.46,-43.79"/>
<text text-anchor="middle" x="633" y="-50" font-family="Helvetica,sans-Serif" font-size="10.00"> variableMap</text>
</g>
<!-- Node12 -->
<g id="node12" class="node">
<title>Node12</title>
<g id="a_node12"><a xlink:href="classrack_1_1EncodingODIM.html" target="_top" xlink:title="Structure for data storage type, scaling and marker codes. Does not contain quantity.">
<polygon fill="white" stroke="black" points="697,-95.5 697,-114.5 785,-114.5 785,-95.5 697,-95.5"/>
<text text-anchor="middle" x="741" y="-102.5" font-family="Helvetica,sans-Serif" font-size="10.00">EncodingODIM</text>
</a>
</g>
</g>
<!-- Node4&#45;&gt;Node12 -->
<g id="edge12" class="edge">
<title>Node4&#45;&gt;Node12</title>
<path fill="none" stroke="midnightblue" d="M567.55,-60.12C608.04,-70.65 665.91,-85.72 703.22,-95.43"/>
<polygon fill="midnightblue" stroke="midnightblue" points="568.21,-56.67 557.66,-57.54 566.45,-63.45 568.21,-56.67"/>
</g>
<!-- Node5 -->
<g id="node5" class="node">
<title>Node5</title>
<g id="a_node5"><a xlink:href="classdrain_1_1SmartMap.html" target="_top" xlink:title=" ">
<polygon fill="white" stroke="black" points="218,-38.5 218,-57.5 361,-57.5 361,-38.5 218,-38.5"/>
<text text-anchor="middle" x="289.5" y="-45.5" font-family="Helvetica,sans-Serif" font-size="10.00">SmartMap&lt; Referencer &gt;</text>
</a>
</g>
</g>
<!-- Node5&#45;&gt;Node4 -->
<g id="edge4" class="edge">
<title>Node5&#45;&gt;Node4</title>
<path fill="none" stroke="midnightblue" d="M371.54,-48C406.84,-48 446.77,-48 476.17,-48"/>
<polygon fill="midnightblue" stroke="midnightblue" points="371.23,-44.5 361.23,-48 371.23,-51.5 371.23,-44.5"/>
</g>
<!-- Node6 -->
<g id="node6" class="node">
<title>Node6</title>
<g id="a_node6"><a xlink:title=" ">
<polygon fill="white" stroke="#bfbfbf" points="4,-38.5 4,-57.5 173,-57.5 173,-38.5 4,-38.5"/>
<text text-anchor="middle" x="88.5" y="-45.5" font-family="Helvetica,sans-Serif" font-size="10.00">map&lt; std::string, Referencer &gt;</text>
</a>
</g>
</g>
<!-- Node6&#45;&gt;Node5 -->
<g id="edge5" class="edge">
<title>Node6&#45;&gt;Node5</title>
<path fill="none" stroke="midnightblue" d="M183.21,-48C194.84,-48 206.58,-48 217.79,-48"/>
<polygon fill="midnightblue" stroke="midnightblue" points="183.03,-44.5 173.03,-48 183.03,-51.5 183.03,-44.5"/>
</g>
<!-- Node7 -->
<g id="node7" class="node">
<title>Node7</title>
<g id="a_node7"><a xlink:href="classdrain_1_1FlexVariableMap.html" target="_top" xlink:title="A map of FlexVariable:s.">
<polygon fill="white" stroke="black" points="470.5,-0.5 470.5,-19.5 569.5,-19.5 569.5,-0.5 470.5,-0.5"/>
<text text-anchor="middle" x="520" y="-7.5" font-family="Helvetica,sans-Serif" font-size="10.00">FlexVariableMap</text>
</a>
</g>
</g>
<!-- Node7&#45;&gt;Node3 -->
<g id="edge6" class="edge">
<title>Node7&#45;&gt;Node3</title>
<path fill="none" stroke="#9a32cd" stroke-dasharray="5,2" d="M579.74,-17.63C606.43,-21.31 638.37,-26 667,-31 677.45,-32.82 688.7,-35.02 699.16,-37.16"/>
<polygon fill="#9a32cd" stroke="#9a32cd" points="580.16,-14.16 569.78,-16.27 579.22,-21.09 580.16,-14.16"/>
<text text-anchor="middle" x="633" y="-34" font-family="Helvetica,sans-Serif" font-size="10.00"> infoMap</text>
</g>
<!-- Node8 -->
<g id="node8" class="node">
<title>Node8</title>
<g id="a_node8"><a xlink:href="classdrain_1_1SmartMap.html" target="_top" xlink:title=" ">
<polygon fill="white" stroke="black" points="214,-0.5 214,-19.5 365,-19.5 365,-0.5 214,-0.5"/>
<text text-anchor="middle" x="289.5" y="-7.5" font-family="Helvetica,sans-Serif" font-size="10.00">SmartMap&lt; FlexVariable &gt;</text>
</a>
</g>
</g>
<!-- Node8&#45;&gt;Node7 -->
<g id="edge7" class="edge">
<title>Node8&#45;&gt;Node7</title>
<path fill="none" stroke="midnightblue" d="M375.26,-10C407.25,-10 442.54,-10 470.16,-10"/>
<polygon fill="midnightblue" stroke="midnightblue" points="375,-6.5 365,-10 375,-13.5 375,-6.5"/>
</g>
<!-- Node9 -->
<g id="node9" class="node">
<title>Node9</title>
<g id="a_node9"><a xlink:title=" ">
<polygon fill="white" stroke="#bfbfbf" points="0,-0.5 0,-19.5 177,-19.5 177,-0.5 0,-0.5"/>
<text text-anchor="middle" x="88.5" y="-7.5" font-family="Helvetica,sans-Serif" font-size="10.00">map&lt; std::string, FlexVariable &gt;</text>
</a>
</g>
</g>
<!-- Node9&#45;&gt;Node8 -->
<g id="edge8" class="edge">
<title>Node9&#45;&gt;Node8</title>
<path fill="none" stroke="midnightblue" d="M187.21,-10C196.2,-10 205.22,-10 213.96,-10"/>
<polygon fill="midnightblue" stroke="midnightblue" points="187.07,-6.5 177.07,-10 187.07,-13.5 187.07,-6.5"/>
</g>
<!-- Node10 -->
<g id="node10" class="node">
<title>Node10</title>
<g id="a_node10"><a xlink:href="classrack_1_1CartesianODIM.html" target="_top" xlink:title="Metadata structure for Cartesian radar data products (single&#45;radar or composites).">
<polygon fill="white" stroke="black" points="939,-151.5 939,-170.5 1029,-170.5 1029,-151.5 939,-151.5"/>
<text text-anchor="middle" x="984" y="-158.5" font-family="Helvetica,sans-Serif" font-size="10.00">CartesianODIM</text>
</a>
</g>
</g>
<!-- Node10&#45;&gt;Node2 -->
<g id="edge9" class="edge">
<title>Node10&#45;&gt;Node2</title>
<path fill="none" stroke="#9a32cd" stroke-dasharray="5,2" d="M1039.34,-161C1056.11,-161 1074.89,-161 1092.87,-161"/>
<polygon fill="#9a32cd" stroke="#9a32cd" points="1039.19,-157.5 1029.19,-161 1039.19,-164.5 1039.19,-157.5"/>
<text text-anchor="middle" x="1061" y="-164" font-family="Helvetica,sans-Serif" font-size="10.00"> odim</text>
</g>
<!-- Node11 -->
<g id="node11" class="node">
<title>Node11</title>
<g id="a_node11"><a xlink:href="classrack_1_1ODIM.html" target="_top" xlink:title="ODIM metadata (quantity, gain, offset, undetect, nodata, date, time)">
<polygon fill="white" stroke="black" points="858,-151.5 858,-170.5 902,-170.5 902,-151.5 858,-151.5"/>
<text text-anchor="middle" x="880" y="-158.5" font-family="Helvetica,sans-Serif" font-size="10.00">ODIM</text>
</a>
</g>
</g>
<!-- Node11&#45;&gt;Node10 -->
<g id="edge10" class="edge">
<title>Node11&#45;&gt;Node10</title>
<path fill="none" stroke="midnightblue" d="M912.21,-161C920.59,-161 929.82,-161 938.76,-161"/>
<polygon fill="midnightblue" stroke="midnightblue" points="912.13,-157.5 902.13,-161 912.13,-164.5 912.13,-157.5"/>
</g>
<!-- Node12&#45;&gt;Node11 -->
<g id="edge11" class="edge">
<title>Node12&#45;&gt;Node11</title>
<path fill="none" stroke="midnightblue" d="M774.94,-118.46C800.75,-129.02 835.88,-143.38 858,-152.42"/>
<polygon fill="midnightblue" stroke="midnightblue" points="776.13,-115.17 765.55,-114.63 773.48,-121.65 776.13,-115.17"/>
</g>
<!-- Node13 -->
<g id="node13" class="node">
<title>Node13</title>
<g id="a_node13"><a xlink:href="classdrain_1_1ValueScaling.html" target="_top" xlink:title="Linear scaling and physical range for image intensities.">
<polygon fill="white" stroke="black" points="480,-95.5 480,-114.5 560,-114.5 560,-95.5 480,-95.5"/>
<text text-anchor="middle" x="520" y="-102.5" font-family="Helvetica,sans-Serif" font-size="10.00">ValueScaling</text>
</a>
</g>
</g>
<!-- Node13&#45;&gt;Node12 -->
<g id="edge13" class="edge">
<title>Node13&#45;&gt;Node12</title>
<path fill="none" stroke="#9a32cd" stroke-dasharray="5,2" d="M570.47,-105C608.44,-105 660.34,-105 696.68,-105"/>
<polygon fill="#9a32cd" stroke="#9a32cd" points="570.15,-101.5 560.15,-105 570.15,-108.5 570.15,-101.5"/>
<text text-anchor="middle" x="633" y="-130" font-family="Helvetica,sans-Serif" font-size="10.00"> scalingConst</text>
<text text-anchor="middle" x="633" y="-119" font-family="Helvetica,sans-Serif" font-size="10.00">scaling</text>
<text text-anchor="middle" x="633" y="-108" font-family="Helvetica,sans-Serif" font-size="10.00">ownScaling</text>
</g>
<!-- Node14 -->
<g id="node14" class="node">
<title>Node14</title>
<g id="a_node14"><a xlink:href="classdrain_1_1UniTuple.html" target="_top" xlink:title=" ">
<polygon fill="white" stroke="black" points="226.5,-114.5 226.5,-133.5 352.5,-133.5 352.5,-114.5 226.5,-114.5"/>
<text text-anchor="middle" x="289.5" y="-121.5" font-family="Helvetica,sans-Serif" font-size="10.00">UniTuple&lt; double, 4 &gt;</text>
</a>
</g>
</g>
<!-- Node14&#45;&gt;Node13 -->
<g id="edge14" class="edge">
<title>Node14&#45;&gt;Node13</title>
<path fill="none" stroke="midnightblue" d="M362.83,-117.99C401.58,-114.76 447.8,-110.92 479.86,-108.25"/>
<polygon fill="midnightblue" stroke="midnightblue" points="362.31,-114.52 352.64,-118.83 362.89,-121.49 362.31,-114.52"/>
</g>
<!-- Node24 -->
<g id="node24" class="node">
<title>Node24</title>
<g id="a_node24"><a xlink:href="structdrain_1_1Rectangle.html" target="_top" xlink:title=" ">
<polygon fill="white" stroke="black" points="459.5,-227.5 459.5,-246.5 580.5,-246.5 580.5,-227.5 459.5,-227.5"/>
<text text-anchor="middle" x="520" y="-234.5" font-family="Helvetica,sans-Serif" font-size="10.00">Rectangle&lt; double &gt;</text>
</a>
</g>
</g>
<!-- Node14&#45;&gt;Node24 -->
<g id="edge26" class="edge">
<title>Node14&#45;&gt;Node24</title>
<path fill="none" stroke="midnightblue" d="M346.72,-136.43C352.98,-138.38 359.18,-140.56 365,-143 401.41,-158.27 412.93,-161.24 441,-189 451.79,-199.67 447.03,-208.69 459,-218 464,-221.89 469.82,-224.99 475.82,-227.47"/>
<polygon fill="midnightblue" stroke="midnightblue" points="347.48,-133.01 336.9,-133.58 345.52,-139.73 347.48,-133.01"/>
</g>
<!-- Node15 -->
<g id="node15" class="node">
<title>Node15</title>
<g id="a_node15"><a xlink:href="classdrain_1_1Range.html" target="_top" xlink:title=" ">
<polygon fill="white" stroke="black" points="238,-76.5 238,-95.5 341,-95.5 341,-76.5 238,-76.5"/>
<text text-anchor="middle" x="289.5" y="-83.5" font-family="Helvetica,sans-Serif" font-size="10.00">Range&lt; double &gt;</text>
</a>
</g>
</g>
<!-- Node15&#45;&gt;Node13 -->
<g id="edge15" class="edge">
<title>Node15&#45;&gt;Node13</title>
<path fill="none" stroke="#9a32cd" stroke-dasharray="5,2" d="M351.29,-89.37C378.72,-91.06 411.52,-93.32 441,-96 453.63,-97.15 467.37,-98.65 479.76,-100.1"/>
<polygon fill="#9a32cd" stroke="#9a32cd" points="351.25,-85.86 341.06,-88.75 350.83,-92.84 351.25,-85.86"/>
<text text-anchor="middle" x="412" y="-99" font-family="Helvetica,sans-Serif" font-size="10.00"> physRange</text>
</g>
<!-- Node16 -->
<g id="node16" class="node">
<title>Node16</title>
<g id="a_node16"><a xlink:href="classdrain_1_1UniTuple.html" target="_top" xlink:title=" ">
<polygon fill="white" stroke="black" points="25.5,-95.5 25.5,-114.5 151.5,-114.5 151.5,-95.5 25.5,-95.5"/>
<text text-anchor="middle" x="88.5" y="-102.5" font-family="Helvetica,sans-Serif" font-size="10.00">UniTuple&lt; double, 2 &gt;</text>
</a>
</g>
</g>
<!-- Node16&#45;&gt;Node15 -->
<g id="edge16" class="edge">
<title>Node16&#45;&gt;Node15</title>
<path fill="none" stroke="midnightblue" d="M161.89,-98.09C187.08,-95.68 214.77,-93.04 237.81,-90.84"/>
<polygon fill="midnightblue" stroke="midnightblue" points="161.27,-94.63 151.65,-99.07 161.93,-101.6 161.27,-94.63"/>
</g>
<!-- Node17 -->
<g id="node17" class="node">
<title>Node17</title>
<g id="a_node17"><a xlink:href="structdrain_1_1Point2D.html" target="_top" xlink:title=" ">
<polygon fill="white" stroke="black" points="234.5,-152.5 234.5,-171.5 344.5,-171.5 344.5,-152.5 234.5,-152.5"/>
<text text-anchor="middle" x="289.5" y="-159.5" font-family="Helvetica,sans-Serif" font-size="10.00">Point2D&lt; double &gt;</text>
</a>
</g>
</g>
<!-- Node16&#45;&gt;Node17 -->
<g id="edge18" class="edge">
<title>Node16&#45;&gt;Node17</title>
<path fill="none" stroke="midnightblue" d="M128.95,-117.55C153.37,-125.2 185.41,-134.99 214,-143 225.57,-146.24 238.21,-149.55 249.74,-152.48"/>
<polygon fill="midnightblue" stroke="midnightblue" points="129.91,-114.19 119.32,-114.53 127.81,-120.87 129.91,-114.19"/>
</g>
<!-- Node17&#45;&gt;Node11 -->
<g id="edge17" class="edge">
<title>Node17&#45;&gt;Node11</title>
<path fill="none" stroke="#9a32cd" stroke-dasharray="5,2" d="M354.82,-161.89C485.66,-161.67 777.3,-161.17 857.97,-161.04"/>
<polygon fill="#9a32cd" stroke="#9a32cd" points="354.54,-158.39 344.55,-161.91 354.55,-165.39 354.54,-158.39"/>
<text text-anchor="middle" x="633" y="-164" font-family="Helvetica,sans-Serif" font-size="10.00"> resolution</text>
</g>
<!-- Node17&#45;&gt;Node24 -->
<g id="edge27" class="edge">
<title>Node17&#45;&gt;Node24</title>
<path fill="none" stroke="#9a32cd" stroke-dasharray="5,2" d="M328.35,-174.75C362.47,-186.2 414.03,-203.41 459,-218 468.56,-221.1 479,-224.43 488.45,-227.42"/>
<polygon fill="#9a32cd" stroke="#9a32cd" points="329.38,-171.4 318.78,-171.54 327.15,-178.04 329.38,-171.4"/>
<text text-anchor="middle" x="412" y="-226" font-family="Helvetica,sans-Serif" font-size="10.00"> lowerLeft</text>
<text text-anchor="middle" x="412" y="-215" font-family="Helvetica,sans-Serif" font-size="10.00">upperRight</text>
</g>
<!-- Node18 -->
<g id="node18" class="node">
<title>Node18</title>
<g id="a_node18"><a xlink:href="classdrain_1_1Frame2D.html" target="_top" xlink:title=" ">
<polygon fill="white" stroke="black" points="685,-189.5 685,-208.5 797,-208.5 797,-189.5 685,-189.5"/>
<text text-anchor="middle" x="741" y="-196.5" font-family="Helvetica,sans-Serif" font-size="10.00">Frame2D&lt; size_t &gt;</text>
</a>
</g>
</g>
<!-- Node18&#45;&gt;Node11 -->
<g id="edge19" class="edge">
<title>Node18&#45;&gt;Node11</title>
<path fill="none" stroke="#9a32cd" stroke-dasharray="5,2" d="M792.11,-186.96C807.53,-183.05 824.52,-178.55 840,-174 845.75,-172.31 851.93,-170.33 857.63,-168.43"/>
<polygon fill="#9a32cd" stroke="#9a32cd" points="791.08,-183.61 782.23,-189.43 792.78,-190.4 791.08,-183.61"/>
<text text-anchor="middle" x="827.5" y="-183" font-family="Helvetica,sans-Serif" font-size="10.00"> area</text>
</g>
<!-- Node19 -->
<g id="node19" class="node">
<title>Node19</title>
<g id="a_node19"><a xlink:href="classdrain_1_1UniTuple.html" target="_top" xlink:title=" ">
<polygon fill="white" stroke="black" points="459,-189.5 459,-208.5 581,-208.5 581,-189.5 459,-189.5"/>
<text text-anchor="middle" x="520" y="-196.5" font-family="Helvetica,sans-Serif" font-size="10.00">UniTuple&lt; size_t, 2 &gt;</text>
</a>
</g>
</g>
<!-- Node19&#45;&gt;Node18 -->
<g id="edge20" class="edge">
<title>Node19&#45;&gt;Node18</title>
<path fill="none" stroke="midnightblue" d="M591.22,-199C621.53,-199 656.48,-199 684.88,-199"/>
<polygon fill="midnightblue" stroke="midnightblue" points="591.13,-195.5 581.13,-199 591.13,-202.5 591.13,-195.5"/>
</g>
<!-- Node20 -->
<g id="node20" class="node">
<title>Node20</title>
<g id="a_node20"><a xlink:href="classdrain_1_1image_1_1GeoFrame.html" target="_top" xlink:title="Array with georeferencing support.">
<polygon fill="white" stroke="black" points="707.5,-227.5 707.5,-246.5 774.5,-246.5 774.5,-227.5 707.5,-227.5"/>
<text text-anchor="middle" x="741" y="-234.5" font-family="Helvetica,sans-Serif" font-size="10.00">GeoFrame</text>
</a>
</g>
</g>
<!-- Node20&#45;&gt;Node1 -->
<g id="edge21" class="edge">
<title>Node20&#45;&gt;Node1</title>
<path fill="none" stroke="#9a32cd" stroke-dasharray="5,2" d="M784.9,-233.21C811.88,-231.14 847.45,-229 879,-229 879,-229 879,-229 1171.5,-229 1219.44,-229 1273.83,-217.35 1308.02,-208.57"/>
<polygon fill="#9a32cd" stroke="#9a32cd" points="784.32,-229.74 774.63,-234.02 784.88,-236.72 784.32,-229.74"/>
<text text-anchor="middle" x="984" y="-232" font-family="Helvetica,sans-Serif" font-size="10.00"> frame</text>
</g>
<!-- Node21 -->
<g id="node21" class="node">
<title>Node21</title>
<g id="a_node21"><a xlink:href="classdrain_1_1Proj4.html" target="_top" xlink:title=" ">
<polygon fill="white" stroke="black" points="499.5,-305.5 499.5,-324.5 540.5,-324.5 540.5,-305.5 499.5,-305.5"/>
<text text-anchor="middle" x="520" y="-312.5" font-family="Helvetica,sans-Serif" font-size="10.00">Proj4</text>
</a>
</g>
</g>
<!-- Node21&#45;&gt;Node20 -->
<g id="edge22" class="edge">
<title>Node21&#45;&gt;Node20</title>
<path fill="none" stroke="#9a32cd" stroke-dasharray="5,2" d="M551.09,-314.82C581.47,-313.65 629.18,-309.08 667,-293 692.87,-282 717.67,-259.66 730.65,-246.77"/>
<polygon fill="#9a32cd" stroke="#9a32cd" points="550.63,-311.33 540.74,-315.11 550.83,-318.32 550.63,-311.33"/>
<text text-anchor="middle" x="633" y="-313" font-family="Helvetica,sans-Serif" font-size="10.00"> projR2M</text>
</g>
<!-- Node22 -->
<g id="node22" class="node">
<title>Node22</title>
<g id="a_node22"><a xlink:href="classdrain_1_1Dictionary2.html" target="_top" xlink:title=" ">
<polygon fill="white" stroke="black" points="230.5,-300 230.5,-330 348.5,-330 348.5,-300 230.5,-300"/>
<text text-anchor="start" x="238.5" y="-318" font-family="Helvetica,sans-Serif" font-size="10.00">Dictionary2&lt; int, std</text>
<text text-anchor="middle" x="289.5" y="-307" font-family="Helvetica,sans-Serif" font-size="10.00">::string &gt;</text>
</a>
</g>
</g>
<!-- Node22&#45;&gt;Node21 -->
<g id="edge23" class="edge">
<title>Node22&#45;&gt;Node21</title>
<path fill="none" stroke="#9a32cd" stroke-dasharray="5,2" d="M358.83,-315C407.09,-315 468.45,-315 499.34,-315"/>
<polygon fill="#9a32cd" stroke="#9a32cd" points="358.75,-311.5 348.75,-315 358.75,-318.5 358.75,-311.5"/>
<text text-anchor="middle" x="412" y="-318" font-family="Helvetica,sans-Serif" font-size="10.00"> epsgDict</text>
</g>
<!-- Node23 -->
<g id="node23" class="node">
<title>Node23</title>
<g id="a_node23"><a xlink:title=" ">
<polygon fill="white" stroke="#bfbfbf" points="33.5,-300 33.5,-330 143.5,-330 143.5,-300 33.5,-300"/>
<text text-anchor="start" x="41.5" y="-318" font-family="Helvetica,sans-Serif" font-size="10.00">list&lt; std::pair&lt; int,</text>
<text text-anchor="middle" x="88.5" y="-307" font-family="Helvetica,sans-Serif" font-size="10.00"> std::string &gt; &gt;</text>
</a>
</g>
</g>
<!-- Node23&#45;&gt;Node22 -->
<g id="edge24" class="edge">
<title>Node23&#45;&gt;Node22</title>
<path fill="none" stroke="midnightblue" d="M153.91,-315C178.46,-315 206.27,-315 230.21,-315"/>
<polygon fill="midnightblue" stroke="midnightblue" points="153.61,-311.5 143.61,-315 153.61,-318.5 153.61,-311.5"/>
</g>
<!-- Node24&#45;&gt;Node20 -->
<g id="edge25" class="edge">
<title>Node24&#45;&gt;Node20</title>
<path fill="none" stroke="#9a32cd" stroke-dasharray="5,2" d="M590.81,-237C629.83,-237 676.63,-237 707.27,-237"/>
<polygon fill="#9a32cd" stroke="#9a32cd" points="590.55,-233.5 580.55,-237 590.55,-240.5 590.55,-233.5"/>
<text text-anchor="middle" x="633" y="-284" font-family="Helvetica,sans-Serif" font-size="10.00"> extentNative</text>
<text text-anchor="middle" x="633" y="-273" font-family="Helvetica,sans-Serif" font-size="10.00">extentR</text>
<text text-anchor="middle" x="633" y="-262" font-family="Helvetica,sans-Serif" font-size="10.00">dataExtentD</text>
<text text-anchor="middle" x="633" y="-251" font-family="Helvetica,sans-Serif" font-size="10.00">extentD</text>
<text text-anchor="middle" x="633" y="-240" font-family="Helvetica,sans-Serif" font-size="10.00">dataOverlapD</text>
</g>
</g>
</svg>
        <g id="navigator" transform="translate(0 0)" fill="#404254">
                <rect fill="#f2f5e9" fill-opacity="0.5" stroke="#606060" stroke-width=".5" x="0" y="0" width="60" height="60"/>
                <use id="zoomplus" xlink:href="#zoomPlus" x="17" y="9" onmousedown="handleZoom(evt,'in')"/>
                <use id="zoomminus" xlink:href="#zoomMin" x="42" y="9" onmousedown="handleZoom(evt,'out')"/>
                <use id="reset" xlink:href="#resetDef" x="30" y="36" onmousedown="handleReset()"/>
                <g id="arrowUp" xlink:href="#dirArrow" transform="translate(30 24)" onmousedown="handlePan(0,-1)">
                  <use xlink:href="#rim" fill="#404040">
                        <set attributeName="fill" to="#808080" begin="arrowUp.mouseover" end="arrowUp.mouseout"/>
                  </use>
                  <path fill="none" stroke="white" stroke-width="1.5" d="M0,-3.0v7 M-2.5,-0.5L0,-3.0L2.5,-0.5"/>
                </g>
                <g id="arrowRight" xlink:href="#dirArrow" transform="rotate(90) translate(36 -43)" onmousedown="handlePan(1,0)">
                  <use xlink:href="#rim" fill="#404040">
                        <set attributeName="fill" to="#808080" begin="arrowRight.mouseover" end="arrowRight.mouseout"/>
                  </use>
                  <path fill="none" stroke="white" stroke-width="1.5" d="M0,-3.0v7 M-2.5,-0.5L0,-3.0L2.5,-0.5"/>
                </g>
                <g id="arrowDown" xlink:href="#dirArrow" transform="rotate(180) translate(-30 -48)" onmousedown="handlePan(0,1)">
                  <use xlink:href="#rim" fill="#404040">
                        <set attributeName="fill" to="#808080" begin="arrowDown.mouseover" end="arrowDown.mouseout"/>
                  </use>
                  <path fill="none" stroke="white" stroke-width="1.5" d="M0,-3.0v7 M-2.5,-0.5L0,-3.0L2.5,-0.5"/>
                </g>
                <g id="arrowLeft" xlink:href="#dirArrow" transform="rotate(270) translate(-36 17)" onmousedown="handlePan(-1,0)">
                  <use xlink:href="#rim" fill="#404040">
                        <set attributeName="fill" to="#808080" begin="arrowLeft.mouseover" end="arrowLeft.mouseout"/>
                  </use>
                  <path fill="none" stroke="white" stroke-width="1.5" d="M0,-3.0v7 M-2.5,-0.5L0,-3.0L2.5,-0.5"/>
                </g>
        </g>
        <svg viewBox="0 0 15 15" width="100%" height="30px" preserveAspectRatio="xMaxYMin meet">
         <g id="arrow_out" transform="scale(0.3 0.3)">
          <a xlink:href="classrack_1_1CartesianDataPicker__coll__graph_org.svg" target="_base">
           <rect id="button" ry="5" rx="5" y="6" x="6" height="38" width="38"
                fill="#f2f5e9" fill-opacity="0.5" stroke="#606060" stroke-width="1.0"/>
           <path id="arrow"
             d="M 11.500037,31.436501 C 11.940474,20.09759 22.043105,11.32322 32.158766,21.979434 L 37.068811,17.246167 C 37.068811,17.246167 37.088388,32 37.088388,32 L 22.160133,31.978069 C 22.160133,31.978069 26.997745,27.140456 26.997745,27.140456 C 18.528582,18.264221 13.291696,25.230495 11.500037,31.436501 z"
             style="fill:#404040;"/>
          </a>
         </g>
        </svg>
</svg>
