<?xml version="1.0" encoding="UTF-8" standalone="no"?>
<!DOCTYPE svg PUBLIC "-//W3C//DTD SVG 1.1//EN"
 "http://www.w3.org/Graphics/SVG/1.1/DTD/svg11.dtd">
<!-- Generated by graphviz version 2.43.0 (0)
 -->
<!-- Title: FlowAverageOp Pages: 1 -->
<svg width="1350pt" height="953pt"
 viewBox="0.00 0.00 1350.00 953.00" xmlns="http://www.w3.org/2000/svg" xmlns:xlink="http://www.w3.org/1999/xlink">
<g id="graph0" class="graph" transform="scale(1 1) rotate(0) translate(4 949)">
<title>FlowAverageOp</title>
<polygon fill="white" stroke="transparent" points="-4,4 -4,-949 1346,-949 1346,4 -4,4"/>
<!-- Node1 -->
<g id="node1" class="node">
<title>Node1</title>
<g id="a_node1"><a xlink:title="Window average that preserves the magnitude.">
<polygon fill="#bfbfbf" stroke="black" points="471,-0.5 471,-19.5 564,-19.5 564,-0.5 471,-0.5"/>
<text text-anchor="middle" x="517.5" y="-7.5" font-family="Helvetica,sans-Serif" font-size="10.00">FlowAverageOp</text>
</a>
</g>
</g>
<!-- Node2 -->
<g id="node2" class="node">
<title>Node2</title>
<g id="a_node2"><a xlink:href="classdrain_1_1image_1_1SlidingWindowOp.html" target="_top" xlink:title=" ">
<polygon fill="white" stroke="black" points="429.5,-57.5 429.5,-87.5 605.5,-87.5 605.5,-57.5 429.5,-57.5"/>
<text text-anchor="start" x="437.5" y="-75.5" font-family="Helvetica,sans-Serif" font-size="10.00">SlidingWindowOp&lt; FlowAverage</text>
<text text-anchor="middle" x="517.5" y="-64.5" font-family="Helvetica,sans-Serif" font-size="10.00">WindowWeighted &gt;</text>
</a>
</g>
</g>
<!-- Node2&#45;&gt;Node1 -->
<g id="edge1" class="edge">
<title>Node2&#45;&gt;Node1</title>
<path fill="none" stroke="midnightblue" d="M517.5,-47.35C517.5,-37.51 517.5,-26.78 517.5,-19.54"/>
<polygon fill="midnightblue" stroke="midnightblue" points="514,-47.47 517.5,-57.47 521,-47.47 514,-47.47"/>
</g>
<!-- Node3 -->
<g id="node3" class="node">
<title>Node3</title>
<g id="a_node3"><a xlink:href="classdrain_1_1image_1_1WindowOp.html" target="_top" xlink:title=" ">
<polygon fill="white" stroke="black" points="426.5,-125.5 426.5,-155.5 608.5,-155.5 608.5,-125.5 426.5,-125.5"/>
<text text-anchor="start" x="434.5" y="-143.5" font-family="Helvetica,sans-Serif" font-size="10.00">WindowOp&lt; FlowAverageWindow</text>
<text text-anchor="middle" x="517.5" y="-132.5" font-family="Helvetica,sans-Serif" font-size="10.00">Weighted &gt;</text>
</a>
</g>
</g>
<!-- Node3&#45;&gt;Node2 -->
<g id="edge2" class="edge">
<title>Node3&#45;&gt;Node2</title>
<path fill="none" stroke="midnightblue" d="M517.5,-115.03C517.5,-105.86 517.5,-95.74 517.5,-87.79"/>
<polygon fill="midnightblue" stroke="midnightblue" points="514,-115.18 517.5,-125.18 521,-115.18 514,-115.18"/>
</g>
<!-- Node4 -->
<g id="node4" class="node">
<title>Node4</title>
<g id="a_node4"><a xlink:href="classdrain_1_1image_1_1ImageOp.html" target="_top" xlink:title="Base class for image processing functions.">
<polygon fill="white" stroke="black" points="285,-448.5 285,-467.5 346,-467.5 346,-448.5 285,-448.5"/>
<text text-anchor="middle" x="315.5" y="-455.5" font-family="Helvetica,sans-Serif" font-size="10.00">ImageOp</text>
</a>
</g>
</g>
<!-- Node4&#45;&gt;Node3 -->
<g id="edge3" class="edge">
<title>Node4&#45;&gt;Node3</title>
<path fill="none" stroke="midnightblue" d="M355.98,-448.55C410.7,-435.95 501.5,-410.32 501.5,-379 501.5,-379 501.5,-379 501.5,-212 501.5,-192.04 507.67,-169.68 512.35,-155.6"/>
<polygon fill="midnightblue" stroke="midnightblue" points="355.2,-445.14 346.21,-450.75 356.74,-451.97 355.2,-445.14"/>
</g>
<!-- Node5 -->
<g id="node5" class="node">
<title>Node5</title>
<g id="a_node5"><a xlink:href="classdrain_1_1image_1_1ImageMod.html" target="_top" xlink:title="Class for operations that modify an existing image instead of producing a new image.">
<polygon fill="white" stroke="black" points="48.5,-572 48.5,-591 116.5,-591 116.5,-572 48.5,-572"/>
<text text-anchor="middle" x="82.5" y="-579" font-family="Helvetica,sans-Serif" font-size="10.00">ImageMod</text>
</a>
</g>
</g>
<!-- Node5&#45;&gt;Node4 -->
<g id="edge4" class="edge">
<title>Node5&#45;&gt;Node4</title>
<path fill="none" stroke="midnightblue" d="M104.41,-566.46C135.33,-546.97 193.89,-511.28 246.5,-486 260.99,-479.04 277.78,-472.44 291.17,-467.5"/>
<polygon fill="midnightblue" stroke="midnightblue" points="102.31,-563.65 95.74,-571.96 106.06,-569.56 102.31,-563.65"/>
</g>
<!-- Node6 -->
<g id="node6" class="node">
<title>Node6</title>
<g id="a_node6"><a xlink:href="classdrain_1_1BeanLike.html" target="_top" xlink:title="Something which has a name, a description and possibly some parameters of varying type.">
<polygon fill="white" stroke="black" points="54,-650 54,-669 115,-669 115,-650 54,-650"/>
<text text-anchor="middle" x="84.5" y="-657" font-family="Helvetica,sans-Serif" font-size="10.00">BeanLike</text>
</a>
</g>
</g>
<!-- Node6&#45;&gt;Node5 -->
<g id="edge5" class="edge">
<title>Node6&#45;&gt;Node5</title>
<path fill="none" stroke="midnightblue" d="M84.01,-639.72C83.6,-624.2 83.04,-602.86 82.73,-591.12"/>
<polygon fill="midnightblue" stroke="midnightblue" points="80.51,-639.88 84.27,-649.78 87.51,-639.69 80.51,-639.88"/>
</g>
<!-- Node52 -->
<g id="node35" class="node">
<title>Node52</title>
<g id="a_node35"><a xlink:href="classdrain_1_1Functor.html" target="_top" xlink:title="Base class for sequential computations. Optional scaling utilities.">
<polygon fill="white" stroke="black" points="135,-572 135,-591 188,-591 188,-572 135,-572"/>
<text text-anchor="middle" x="161.5" y="-579" font-family="Helvetica,sans-Serif" font-size="10.00">Functor</text>
</a>
</g>
</g>
<!-- Node6&#45;&gt;Node52 -->
<g id="edge39" class="edge">
<title>Node6&#45;&gt;Node52</title>
<path fill="none" stroke="midnightblue" d="M100.84,-642.38C116.7,-626.72 140.18,-603.54 152.77,-591.12"/>
<polygon fill="midnightblue" stroke="midnightblue" points="97.99,-640.27 93.33,-649.78 102.91,-645.25 97.99,-640.27"/>
</g>
<!-- Node7 -->
<g id="node7" class="node">
<title>Node7</title>
<g id="a_node7"><a xlink:href="classdrain_1_1ReferenceMap.html" target="_top" xlink:title=" ">
<polygon fill="white" stroke="black" points="41,-739 41,-758 128,-758 128,-739 41,-739"/>
<text text-anchor="middle" x="84.5" y="-746" font-family="Helvetica,sans-Serif" font-size="10.00">ReferenceMap</text>
</a>
</g>
</g>
<!-- Node7&#45;&gt;Node6 -->
<g id="edge6" class="edge">
<title>Node7&#45;&gt;Node6</title>
<path fill="none" stroke="#9a32cd" stroke-dasharray="5,2" d="M84.5,-728.69C84.5,-710.24 84.5,-682.91 84.5,-669.12"/>
<polygon fill="#9a32cd" stroke="#9a32cd" points="81,-728.84 84.5,-738.84 88,-728.84 81,-728.84"/>
<text text-anchor="middle" x="114.5" y="-701.5" font-family="Helvetica,sans-Serif" font-size="10.00"> parameters</text>
</g>
<!-- Node8 -->
<g id="node8" class="node">
<title>Node8</title>
<g id="a_node8"><a xlink:href="classdrain_1_1SmartMap.html" target="_top" xlink:title=" ">
<polygon fill="white" stroke="black" points="13,-811.5 13,-830.5 156,-830.5 156,-811.5 13,-811.5"/>
<text text-anchor="middle" x="84.5" y="-818.5" font-family="Helvetica,sans-Serif" font-size="10.00">SmartMap&lt; Referencer &gt;</text>
</a>
</g>
</g>
<!-- Node8&#45;&gt;Node7 -->
<g id="edge7" class="edge">
<title>Node8&#45;&gt;Node7</title>
<path fill="none" stroke="midnightblue" d="M84.5,-800.94C84.5,-787.03 84.5,-768.82 84.5,-758.22"/>
<polygon fill="midnightblue" stroke="midnightblue" points="81,-801.36 84.5,-811.36 88,-801.36 81,-801.36"/>
</g>
<!-- Node9 -->
<g id="node9" class="node">
<title>Node9</title>
<g id="a_node9"><a xlink:title=" ">
<polygon fill="white" stroke="#bfbfbf" points="0,-868.5 0,-887.5 169,-887.5 169,-868.5 0,-868.5"/>
<text text-anchor="middle" x="84.5" y="-875.5" font-family="Helvetica,sans-Serif" font-size="10.00">map&lt; std::string, Referencer &gt;</text>
</a>
</g>
</g>
<!-- Node9&#45;&gt;Node8 -->
<g id="edge8" class="edge">
<title>Node9&#45;&gt;Node8</title>
<path fill="none" stroke="midnightblue" d="M84.5,-858.12C84.5,-848.82 84.5,-838.06 84.5,-830.71"/>
<polygon fill="midnightblue" stroke="midnightblue" points="81,-858.41 84.5,-868.41 88,-858.41 81,-858.41"/>
</g>
<!-- Node10 -->
<g id="node10" class="node">
<title>Node10</title>
<g id="a_node10"><a xlink:href="classdrain_1_1image_1_1FlowAverageWindowWeighted.html" target="_top" xlink:title=" ">
<polygon fill="white" stroke="black" points="617,-203.5 617,-222.5 782,-222.5 782,-203.5 617,-203.5"/>
<text text-anchor="middle" x="699.5" y="-210.5" font-family="Helvetica,sans-Serif" font-size="10.00">FlowAverageWindowWeighted</text>
</a>
</g>
</g>
<!-- Node10&#45;&gt;Node3 -->
<g id="edge9" class="edge">
<title>Node10&#45;&gt;Node3</title>
<path fill="none" stroke="#9a32cd" stroke-dasharray="5,2" d="M667.86,-199.74C636.03,-187.41 587.01,-168.42 553.66,-155.51"/>
<polygon fill="#9a32cd" stroke="#9a32cd" points="666.96,-203.15 677.55,-203.5 669.49,-196.62 666.96,-203.15"/>
<text text-anchor="middle" x="637" y="-177" font-family="Helvetica,sans-Serif" font-size="10.00"> conf</text>
</g>
<!-- Node11 -->
<g id="node11" class="node">
<title>Node11</title>
<g id="a_node11"><a xlink:href="classdrain_1_1image_1_1FlowAverageWindow.html" target="_top" xlink:title="Window average that preserves the magnitude.">
<polygon fill="white" stroke="black" points="728,-260.5 728,-279.5 847,-279.5 847,-260.5 728,-260.5"/>
<text text-anchor="middle" x="787.5" y="-267.5" font-family="Helvetica,sans-Serif" font-size="10.00">FlowAverageWindow</text>
</a>
</g>
</g>
<!-- Node11&#45;&gt;Node10 -->
<g id="edge10" class="edge">
<title>Node11&#45;&gt;Node10</title>
<path fill="none" stroke="midnightblue" d="M764.82,-254.82C748.47,-244.61 726.94,-231.15 713.15,-222.53"/>
<polygon fill="midnightblue" stroke="midnightblue" points="763.41,-258.07 773.75,-260.41 767.13,-252.14 763.41,-258.07"/>
</g>
<!-- Node12 -->
<g id="node12" class="node">
<title>Node12</title>
<g id="a_node12"><a xlink:href="classdrain_1_1image_1_1SlidingWindow.html" target="_top" xlink:title=" ">
<polygon fill="white" stroke="black" points="701,-328.5 701,-358.5 874,-358.5 874,-328.5 701,-328.5"/>
<text text-anchor="start" x="709" y="-346.5" font-family="Helvetica,sans-Serif" font-size="10.00">SlidingWindow&lt; WindowConfig,</text>
<text text-anchor="middle" x="787.5" y="-335.5" font-family="Helvetica,sans-Serif" font-size="10.00"> MultiChannelWindowCore &gt;</text>
</a>
</g>
</g>
<!-- Node12&#45;&gt;Node11 -->
<g id="edge11" class="edge">
<title>Node12&#45;&gt;Node11</title>
<path fill="none" stroke="midnightblue" d="M787.5,-318.36C787.5,-305.01 787.5,-289.25 787.5,-279.7"/>
<polygon fill="midnightblue" stroke="midnightblue" points="784,-318.37 787.5,-328.37 791,-318.37 784,-318.37"/>
</g>
<!-- Node12&#45;&gt;Node12 -->
<g id="edge59" class="edge">
<title>Node12&#45;&gt;Node12</title>
<path fill="none" stroke="#9a32cd" stroke-dasharray="5,2" d="M884.63,-347.55C889.28,-346.53 892,-345.18 892,-343.5 892,-340.81 885.03,-338.97 874.39,-337.98"/>
<polygon fill="#9a32cd" stroke="#9a32cd" points="883.79,-344.13 874.39,-349.02 884.78,-351.06 883.79,-344.13"/>
<text text-anchor="middle" x="920.5" y="-352" font-family="Helvetica,sans-Serif" font-size="10.00"> fill</text>
<text text-anchor="middle" x="920.5" y="-341" font-family="Helvetica,sans-Serif" font-size="10.00">updateVert</text>
<text text-anchor="middle" x="920.5" y="-330" font-family="Helvetica,sans-Serif" font-size="10.00">updateHorz</text>
</g>
<!-- Node13 -->
<g id="node13" class="node">
<title>Node13</title>
<g id="a_node13"><a xlink:href="classdrain_1_1image_1_1Window.html" target="_top" xlink:title=" ">
<polygon fill="white" stroke="black" points="709,-398.5 709,-428.5 866,-428.5 866,-398.5 709,-398.5"/>
<text text-anchor="start" x="717" y="-416.5" font-family="Helvetica,sans-Serif" font-size="10.00">Window&lt; WindowConfig,</text>
<text text-anchor="middle" x="787.5" y="-405.5" font-family="Helvetica,sans-Serif" font-size="10.00"> MultiChannelWindowCore &gt;</text>
</a>
</g>
</g>
<!-- Node13&#45;&gt;Node12 -->
<g id="edge12" class="edge">
<title>Node13&#45;&gt;Node12</title>
<path fill="none" stroke="midnightblue" d="M787.5,-388.27C787.5,-378.31 787.5,-367.14 787.5,-358.57"/>
<polygon fill="midnightblue" stroke="midnightblue" points="784,-388.41 787.5,-398.41 791,-388.41 784,-388.41"/>
</g>
<!-- Node14 -->
<g id="node14" class="node">
<title>Node14</title>
<g id="a_node14"><a xlink:href="classdrain_1_1image_1_1MultiChannelWindowCore.html" target="_top" xlink:title=" ">
<polygon fill="white" stroke="black" points="373,-487.5 373,-506.5 516,-506.5 516,-487.5 373,-487.5"/>
<text text-anchor="middle" x="444.5" y="-494.5" font-family="Helvetica,sans-Serif" font-size="10.00">MultiChannelWindowCore</text>
</a>
</g>
</g>
<!-- Node14&#45;&gt;Node13 -->
<g id="edge13" class="edge">
<title>Node14&#45;&gt;Node13</title>
<path fill="none" stroke="midnightblue" d="M490.37,-485.1C551.84,-470.5 661.02,-444.55 728.53,-428.51"/>
<polygon fill="midnightblue" stroke="midnightblue" points="489.48,-481.72 480.56,-487.43 491.1,-488.53 489.48,-481.72"/>
</g>
<!-- Node15 -->
<g id="node15" class="node">
<title>Node15</title>
<g id="a_node15"><a xlink:href="classdrain_1_1image_1_1WeightedWindowCore.html" target="_top" xlink:title=" ">
<polygon fill="white" stroke="black" points="206,-572 206,-591 331,-591 331,-572 206,-572"/>
<text text-anchor="middle" x="268.5" y="-579" font-family="Helvetica,sans-Serif" font-size="10.00">WeightedWindowCore</text>
</a>
</g>
</g>
<!-- Node15&#45;&gt;Node14 -->
<g id="edge14" class="edge">
<title>Node15&#45;&gt;Node14</title>
<path fill="none" stroke="midnightblue" d="M296.16,-567.53C332.48,-550.51 395.22,-521.1 426.16,-506.6"/>
<polygon fill="midnightblue" stroke="midnightblue" points="294.24,-564.57 286.67,-571.98 297.21,-570.91 294.24,-564.57"/>
</g>
<!-- Node16 -->
<g id="node16" class="node">
<title>Node16</title>
<g id="a_node16"><a xlink:href="classdrain_1_1image_1_1WindowCore.html" target="_top" xlink:title="Container for source data (input) and destination data (output). May also contain metadata of them.">
<polygon fill="white" stroke="black" points="188.5,-650 188.5,-669 266.5,-669 266.5,-650 188.5,-650"/>
<text text-anchor="middle" x="227.5" y="-657" font-family="Helvetica,sans-Serif" font-size="10.00">WindowCore</text>
</a>
</g>
</g>
<!-- Node16&#45;&gt;Node15 -->
<g id="edge15" class="edge">
<title>Node16&#45;&gt;Node15</title>
<path fill="none" stroke="midnightblue" d="M237.14,-640.62C245.56,-625.03 257.39,-603.09 263.85,-591.12"/>
<polygon fill="midnightblue" stroke="midnightblue" points="233.87,-639.32 232.2,-649.78 240.03,-642.64 233.87,-639.32"/>
</g>
<!-- Node17 -->
<g id="node17" class="node">
<title>Node17</title>
<g id="a_node17"><a xlink:href="classdrain_1_1image_1_1WindowCoreBase.html" target="_top" xlink:title="Provides splitting frames.">
<polygon fill="white" stroke="black" points="146.5,-739 146.5,-758 248.5,-758 248.5,-739 146.5,-739"/>
<text text-anchor="middle" x="197.5" y="-746" font-family="Helvetica,sans-Serif" font-size="10.00">WindowCoreBase</text>
</a>
</g>
</g>
<!-- Node17&#45;&gt;Node16 -->
<g id="edge16" class="edge">
<title>Node17&#45;&gt;Node16</title>
<path fill="none" stroke="midnightblue" d="M203.81,-729.21C210.17,-710.75 219.73,-683.04 224.53,-669.12"/>
<polygon fill="midnightblue" stroke="midnightblue" points="200.44,-728.25 200.49,-738.84 207.05,-730.53 200.44,-728.25"/>
</g>
<!-- Node18 -->
<g id="node18" class="node">
<title>Node18</title>
<g id="a_node18"><a xlink:href="classdrain_1_1image_1_1ImageView.html" target="_top" xlink:title="ImageFrame that also has channels.">
<polygon fill="white" stroke="black" points="267,-739 267,-758 338,-758 338,-739 267,-739"/>
<text text-anchor="middle" x="302.5" y="-746" font-family="Helvetica,sans-Serif" font-size="10.00">ImageView</text>
</a>
</g>
</g>
<!-- Node18&#45;&gt;Node15 -->
<g id="edge21" class="edge">
<title>Node18&#45;&gt;Node15</title>
<path fill="none" stroke="#9a32cd" stroke-dasharray="5,2" d="M298.59,-728.54C291.22,-692.75 275.51,-616.53 270.25,-591.02"/>
<polygon fill="#9a32cd" stroke="#9a32cd" points="295.23,-729.54 300.67,-738.63 302.08,-728.13 295.23,-729.54"/>
<text text-anchor="middle" x="313.5" y="-662.5" font-family="Helvetica,sans-Serif" font-size="10.00"> srcWeight</text>
<text text-anchor="middle" x="313.5" y="-651.5" font-family="Helvetica,sans-Serif" font-size="10.00">dstWeight</text>
</g>
<!-- Node18&#45;&gt;Node16 -->
<g id="edge17" class="edge">
<title>Node18&#45;&gt;Node16</title>
<path fill="none" stroke="#9a32cd" stroke-dasharray="5,2" d="M286.42,-731.87C281.21,-726.62 275.5,-720.67 270.5,-715 256.79,-699.45 242.09,-680.2 233.92,-669.23"/>
<polygon fill="#9a32cd" stroke="#9a32cd" points="283.97,-734.37 293.54,-738.92 288.9,-729.4 283.97,-734.37"/>
<text text-anchor="middle" x="279.5" y="-707" font-family="Helvetica,sans-Serif" font-size="10.00"> src</text>
<text text-anchor="middle" x="279.5" y="-696" font-family="Helvetica,sans-Serif" font-size="10.00">dst</text>
</g>
<!-- Node19 -->
<g id="node19" class="node">
<title>Node19</title>
<g id="a_node19"><a xlink:href="classdrain_1_1image_1_1MultiChannel.html" target="_top" xlink:title="Multi&#45;channel ImageFrame.">
<polygon fill="white" stroke="black" points="262,-811.5 262,-830.5 343,-830.5 343,-811.5 262,-811.5"/>
<text text-anchor="middle" x="302.5" y="-818.5" font-family="Helvetica,sans-Serif" font-size="10.00">MultiChannel</text>
</a>
</g>
</g>
<!-- Node19&#45;&gt;Node18 -->
<g id="edge18" class="edge">
<title>Node19&#45;&gt;Node18</title>
<path fill="none" stroke="midnightblue" d="M302.5,-800.94C302.5,-787.03 302.5,-768.82 302.5,-758.22"/>
<polygon fill="midnightblue" stroke="midnightblue" points="299,-801.36 302.5,-811.36 306,-801.36 299,-801.36"/>
</g>
<!-- Node20 -->
<g id="node20" class="node">
<title>Node20</title>
<g id="a_node20"><a xlink:href="classdrain_1_1image_1_1ImageFrame.html" target="_top" xlink:title="Image with static geometry.">
<polygon fill="white" stroke="red" points="263.5,-868.5 263.5,-887.5 341.5,-887.5 341.5,-868.5 263.5,-868.5"/>
<text text-anchor="middle" x="302.5" y="-875.5" font-family="Helvetica,sans-Serif" font-size="10.00">ImageFrame</text>
</a>
</g>
</g>
<!-- Node20&#45;&gt;Node19 -->
<g id="edge19" class="edge">
<title>Node20&#45;&gt;Node19</title>
<path fill="none" stroke="midnightblue" d="M302.5,-858.12C302.5,-848.82 302.5,-838.06 302.5,-830.71"/>
<polygon fill="midnightblue" stroke="midnightblue" points="299,-858.41 302.5,-868.41 306,-858.41 299,-858.41"/>
</g>
<!-- Node21 -->
<g id="node21" class="node">
<title>Node21</title>
<g id="a_node21"><a xlink:href="classdrain_1_1image_1_1ImageLike.html" target="_top" xlink:title="A base class for images.">
<polygon fill="white" stroke="red" points="269,-925.5 269,-944.5 336,-944.5 336,-925.5 269,-925.5"/>
<text text-anchor="middle" x="302.5" y="-932.5" font-family="Helvetica,sans-Serif" font-size="10.00">ImageLike</text>
</a>
</g>
</g>
<!-- Node21&#45;&gt;Node20 -->
<g id="edge20" class="edge">
<title>Node21&#45;&gt;Node20</title>
<path fill="none" stroke="midnightblue" d="M302.5,-915.12C302.5,-905.82 302.5,-895.06 302.5,-887.71"/>
<polygon fill="midnightblue" stroke="midnightblue" points="299,-915.41 302.5,-925.41 306,-915.41 299,-915.41"/>
</g>
<!-- Node43 -->
<g id="node22" class="node">
<title>Node43</title>
<g id="a_node22"><a xlink:href="classdrain_1_1image_1_1ImageTray.html" target="_top" xlink:title=" ">
<polygon fill="white" stroke="black" points="349.5,-566.5 349.5,-596.5 483.5,-596.5 483.5,-566.5 349.5,-566.5"/>
<text text-anchor="start" x="357.5" y="-584.5" font-family="Helvetica,sans-Serif" font-size="10.00">ImageTray&lt; const drain</text>
<text text-anchor="middle" x="416.5" y="-573.5" font-family="Helvetica,sans-Serif" font-size="10.00">::image::Channel &gt;</text>
</a>
</g>
</g>
<!-- Node43&#45;&gt;Node14 -->
<g id="edge22" class="edge">
<title>Node43&#45;&gt;Node14</title>
<path fill="none" stroke="#9a32cd" stroke-dasharray="5,2" d="M424.67,-556.43C430.35,-539.68 437.6,-518.34 441.57,-506.64"/>
<polygon fill="#9a32cd" stroke="#9a32cd" points="421.28,-555.54 421.38,-566.13 427.91,-557.78 421.28,-555.54"/>
<text text-anchor="middle" x="454" y="-534.5" font-family="Helvetica,sans-Serif" font-size="10.00"> srcTray</text>
</g>
<!-- Node44 -->
<g id="node23" class="node">
<title>Node44</title>
<g id="a_node23"><a xlink:href="classdrain_1_1image_1_1Tray.html" target="_top" xlink:title=" ">
<polygon fill="white" stroke="black" points="378,-644.5 378,-674.5 487,-674.5 487,-644.5 378,-644.5"/>
<text text-anchor="start" x="386" y="-662.5" font-family="Helvetica,sans-Serif" font-size="10.00">Tray&lt; const drain::</text>
<text text-anchor="middle" x="432.5" y="-651.5" font-family="Helvetica,sans-Serif" font-size="10.00">image::Channel &gt;</text>
</a>
</g>
</g>
<!-- Node44&#45;&gt;Node43 -->
<g id="edge23" class="edge">
<title>Node44&#45;&gt;Node43</title>
<path fill="none" stroke="midnightblue" d="M435.3,-634.16C435.42,-627.85 435,-621.11 433.5,-615 431.95,-608.69 428.94,-602.25 425.87,-596.79"/>
<polygon fill="midnightblue" stroke="midnightblue" points="431.81,-634 434.69,-644.19 438.79,-634.42 431.81,-634"/>
</g>
<!-- Node44&#45;&gt;Node43 -->
<g id="edge29" class="edge">
<title>Node44&#45;&gt;Node43</title>
<path fill="none" stroke="#9a32cd" stroke-dasharray="5,2" d="M405.46,-637.09C402.64,-633.69 400.2,-629.97 398.5,-626 394.32,-616.23 399.03,-605.17 404.68,-596.64"/>
<polygon fill="#9a32cd" stroke="#9a32cd" points="403.05,-639.63 412.51,-644.41 408.09,-634.78 403.05,-639.63"/>
<text text-anchor="middle" x="414" y="-618" font-family="Helvetica,sans-Serif" font-size="10.00"> alpha</text>
</g>
<!-- Node45 -->
<g id="node24" class="node">
<title>Node45</title>
<g id="a_node24"><a xlink:title=" ">
<polygon fill="white" stroke="#bfbfbf" points="358,-733.5 358,-763.5 507,-763.5 507,-733.5 358,-733.5"/>
<text text-anchor="start" x="366" y="-751.5" font-family="Helvetica,sans-Serif" font-size="10.00">map&lt; size_t, const</text>
<text text-anchor="middle" x="432.5" y="-740.5" font-family="Helvetica,sans-Serif" font-size="10.00"> drain::image::Channel &amp; &gt;</text>
</a>
</g>
</g>
<!-- Node45&#45;&gt;Node44 -->
<g id="edge24" class="edge">
<title>Node45&#45;&gt;Node44</title>
<path fill="none" stroke="midnightblue" d="M432.5,-723.09C432.5,-707.44 432.5,-687.68 432.5,-674.6"/>
<polygon fill="midnightblue" stroke="midnightblue" points="429,-723.13 432.5,-733.13 436,-723.13 429,-723.13"/>
</g>
<!-- Node29 -->
<g id="node25" class="node">
<title>Node29</title>
<g id="a_node25"><a xlink:href="classdrain_1_1image_1_1Geometry.html" target="_top" xlink:title=" ">
<polygon fill="white" stroke="black" points="525,-739 525,-758 590,-758 590,-739 525,-739"/>
<text text-anchor="middle" x="557.5" y="-746" font-family="Helvetica,sans-Serif" font-size="10.00">Geometry</text>
</a>
</g>
</g>
<!-- Node29&#45;&gt;Node44 -->
<g id="edge25" class="edge">
<title>Node29&#45;&gt;Node44</title>
<path fill="none" stroke="#9a32cd" stroke-dasharray="5,2" d="M533.21,-733.67C523.78,-728.1 512.99,-721.47 503.5,-715 484.62,-702.14 464.02,-686.07 449.89,-674.73"/>
<polygon fill="#9a32cd" stroke="#9a32cd" points="531.68,-736.83 542.08,-738.84 535.21,-730.78 531.68,-736.83"/>
<text text-anchor="middle" x="529" y="-701.5" font-family="Helvetica,sans-Serif" font-size="10.00"> geometry</text>
</g>
<!-- Node47 -->
<g id="node30" class="node">
<title>Node47</title>
<g id="a_node30"><a xlink:href="classdrain_1_1image_1_1Tray.html" target="_top" xlink:title=" ">
<polygon fill="white" stroke="black" points="506.5,-644.5 506.5,-674.5 616.5,-674.5 616.5,-644.5 506.5,-644.5"/>
<text text-anchor="start" x="514.5" y="-662.5" font-family="Helvetica,sans-Serif" font-size="10.00">Tray&lt; drain::image</text>
<text text-anchor="middle" x="561.5" y="-651.5" font-family="Helvetica,sans-Serif" font-size="10.00">::Channel &gt;</text>
</a>
</g>
</g>
<!-- Node29&#45;&gt;Node47 -->
<g id="edge33" class="edge">
<title>Node29&#45;&gt;Node47</title>
<path fill="none" stroke="#9a32cd" stroke-dasharray="5,2" d="M558.38,-728.41C559.13,-712.15 560.18,-689.16 560.85,-674.55"/>
<polygon fill="#9a32cd" stroke="#9a32cd" points="554.86,-728.69 557.9,-738.84 561.85,-729.01 554.86,-728.69"/>
<text text-anchor="middle" x="585" y="-701.5" font-family="Helvetica,sans-Serif" font-size="10.00"> geometry</text>
</g>
<!-- Node30 -->
<g id="node26" class="node">
<title>Node30</title>
<g id="a_node26"><a xlink:href="classdrain_1_1UniTuple.html" target="_top" xlink:title=" ">
<polygon fill="white" stroke="black" points="361.5,-811.5 361.5,-830.5 483.5,-830.5 483.5,-811.5 361.5,-811.5"/>
<text text-anchor="middle" x="422.5" y="-818.5" font-family="Helvetica,sans-Serif" font-size="10.00">UniTuple&lt; size_t, 4 &gt;</text>
</a>
</g>
</g>
<!-- Node30&#45;&gt;Node29 -->
<g id="edge26" class="edge">
<title>Node30&#45;&gt;Node29</title>
<path fill="none" stroke="midnightblue" d="M447.75,-806.81C475.1,-792.53 517.91,-770.17 541.16,-758.03"/>
<polygon fill="midnightblue" stroke="midnightblue" points="446.03,-803.76 438.78,-811.5 449.27,-809.97 446.03,-803.76"/>
</g>
<!-- Node31 -->
<g id="node27" class="node">
<title>Node31</title>
<g id="a_node27"><a xlink:href="classdrain_1_1Frame2D.html" target="_top" xlink:title=" ">
<polygon fill="white" stroke="red" points="501.5,-811.5 501.5,-830.5 613.5,-830.5 613.5,-811.5 501.5,-811.5"/>
<text text-anchor="middle" x="557.5" y="-818.5" font-family="Helvetica,sans-Serif" font-size="10.00">Frame2D&lt; size_t &gt;</text>
</a>
</g>
</g>
<!-- Node31&#45;&gt;Node29 -->
<g id="edge27" class="edge">
<title>Node31&#45;&gt;Node29</title>
<path fill="none" stroke="#9a32cd" stroke-dasharray="5,2" d="M557.5,-800.94C557.5,-787.03 557.5,-768.82 557.5,-758.22"/>
<polygon fill="#9a32cd" stroke="#9a32cd" points="554,-801.36 557.5,-811.36 561,-801.36 554,-801.36"/>
<text text-anchor="middle" x="570" y="-785" font-family="Helvetica,sans-Serif" font-size="10.00"> area</text>
</g>
<!-- Node33 -->
<g id="node28" class="node">
<title>Node33</title>
<g id="a_node28"><a xlink:href="classdrain_1_1image_1_1ChannelGeometry.html" target="_top" xlink:title=" ">
<polygon fill="white" stroke="red" points="632,-811.5 632,-830.5 737,-830.5 737,-811.5 632,-811.5"/>
<text text-anchor="middle" x="684.5" y="-818.5" font-family="Helvetica,sans-Serif" font-size="10.00">ChannelGeometry</text>
</a>
</g>
</g>
<!-- Node33&#45;&gt;Node29 -->
<g id="edge28" class="edge">
<title>Node33&#45;&gt;Node29</title>
<path fill="none" stroke="#9a32cd" stroke-dasharray="5,2" d="M660.18,-806.5C634.56,-792.28 594.98,-770.3 573.2,-758.22"/>
<polygon fill="#9a32cd" stroke="#9a32cd" points="658.49,-809.56 668.93,-811.36 661.88,-803.44 658.49,-809.56"/>
<text text-anchor="middle" x="655" y="-785" font-family="Helvetica,sans-Serif" font-size="10.00"> channels</text>
</g>
<!-- Node46 -->
<g id="node29" class="node">
<title>Node46</title>
<g id="a_node29"><a xlink:href="classdrain_1_1image_1_1ImageTray.html" target="_top" xlink:title=" ">
<polygon fill="white" stroke="black" points="502,-566.5 502,-596.5 643,-596.5 643,-566.5 502,-566.5"/>
<text text-anchor="start" x="510" y="-584.5" font-family="Helvetica,sans-Serif" font-size="10.00">ImageTray&lt; drain::image</text>
<text text-anchor="middle" x="572.5" y="-573.5" font-family="Helvetica,sans-Serif" font-size="10.00">::Channel &gt;</text>
</a>
</g>
</g>
<!-- Node46&#45;&gt;Node14 -->
<g id="edge30" class="edge">
<title>Node46&#45;&gt;Node14</title>
<path fill="none" stroke="#9a32cd" stroke-dasharray="5,2" d="M541.9,-560.78C515.21,-543.58 477.76,-519.44 457.98,-506.69"/>
<polygon fill="#9a32cd" stroke="#9a32cd" points="540.19,-563.84 550.5,-566.32 543.99,-557.96 540.19,-563.84"/>
<text text-anchor="middle" x="539.5" y="-534.5" font-family="Helvetica,sans-Serif" font-size="10.00"> dstTray</text>
</g>
<!-- Node47&#45;&gt;Node46 -->
<g id="edge31" class="edge">
<title>Node47&#45;&gt;Node46</title>
<path fill="none" stroke="midnightblue" d="M572.98,-634.85C574.01,-631.93 574.9,-628.93 575.5,-626 577.49,-616.36 576.68,-605.29 575.41,-596.74"/>
<polygon fill="midnightblue" stroke="midnightblue" points="569.64,-633.77 569.08,-644.35 576.12,-636.43 569.64,-633.77"/>
</g>
<!-- Node47&#45;&gt;Node46 -->
<g id="edge34" class="edge">
<title>Node47&#45;&gt;Node46</title>
<path fill="none" stroke="#9a32cd" stroke-dasharray="5,2" d="M542.62,-635.71C539.31,-629.1 537.7,-621.83 540.5,-615 543.32,-608.11 548.39,-601.9 553.66,-596.8"/>
<polygon fill="#9a32cd" stroke="#9a32cd" points="539.67,-637.59 547.95,-644.2 545.6,-633.87 539.67,-637.59"/>
<text text-anchor="middle" x="556" y="-618" font-family="Helvetica,sans-Serif" font-size="10.00"> alpha</text>
</g>
<!-- Node48 -->
<g id="node31" class="node">
<title>Node48</title>
<g id="a_node31"><a xlink:title=" ">
<polygon fill="white" stroke="#bfbfbf" points="608,-733.5 608,-763.5 729,-763.5 729,-733.5 608,-733.5"/>
<text text-anchor="start" x="616" y="-751.5" font-family="Helvetica,sans-Serif" font-size="10.00">map&lt; size_t, drain</text>
<text text-anchor="middle" x="668.5" y="-740.5" font-family="Helvetica,sans-Serif" font-size="10.00">::image::Channel &amp; &gt;</text>
</a>
</g>
</g>
<!-- Node48&#45;&gt;Node47 -->
<g id="edge32" class="edge">
<title>Node48&#45;&gt;Node47</title>
<path fill="none" stroke="midnightblue" d="M649.07,-725.56C639.24,-715.09 626.81,-702.76 614.5,-693 606.04,-686.3 596.1,-679.87 587.13,-674.53"/>
<polygon fill="midnightblue" stroke="midnightblue" points="646.68,-728.13 656.03,-733.12 651.83,-723.39 646.68,-728.13"/>
</g>
<!-- Node49 -->
<g id="node32" class="node">
<title>Node49</title>
<g id="a_node32"><a xlink:href="classdrain_1_1Range.html" target="_top" xlink:title=" ">
<polygon fill="white" stroke="black" points="859,-572 859,-591 942,-591 942,-572 859,-572"/>
<text text-anchor="middle" x="900.5" y="-579" font-family="Helvetica,sans-Serif" font-size="10.00">Range&lt; int &gt;</text>
</a>
</g>
</g>
<!-- Node49&#45;&gt;Node13 -->
<g id="edge35" class="edge">
<title>Node49&#45;&gt;Node13</title>
<path fill="none" stroke="#9a32cd" stroke-dasharray="5,2" d="M890.44,-562.84C875.43,-536.92 845.76,-487.37 816.5,-448 811.64,-441.46 805.83,-434.59 800.69,-428.79"/>
<polygon fill="#9a32cd" stroke="#9a32cd" points="887.6,-564.91 895.61,-571.84 893.66,-561.43 887.6,-564.91"/>
<text text-anchor="middle" x="875" y="-500" font-family="Helvetica,sans-Serif" font-size="10.00"> jRange</text>
<text text-anchor="middle" x="875" y="-489" font-family="Helvetica,sans-Serif" font-size="10.00">iRange</text>
</g>
<!-- Node62 -->
<g id="node45" class="node">
<title>Node62</title>
<g id="a_node45"><a xlink:href="classdrain_1_1image_1_1CoordinateHandler2D.html" target="_top" xlink:title=" ">
<polygon fill="white" stroke="black" points="922.5,-487.5 922.5,-506.5 1044.5,-506.5 1044.5,-487.5 922.5,-487.5"/>
<text text-anchor="middle" x="983.5" y="-494.5" font-family="Helvetica,sans-Serif" font-size="10.00">CoordinateHandler2D</text>
</a>
</g>
</g>
<!-- Node49&#45;&gt;Node62 -->
<g id="edge52" class="edge">
<title>Node49&#45;&gt;Node62</title>
<path fill="none" stroke="#9a32cd" stroke-dasharray="5,2" d="M895.85,-561.99C894.1,-550.56 894.06,-536.2 901.5,-526 908.15,-516.88 917.94,-510.71 928.46,-506.53"/>
<polygon fill="#9a32cd" stroke="#9a32cd" points="892.42,-562.71 897.86,-571.8 899.28,-561.3 892.42,-562.71"/>
<text text-anchor="middle" x="921.5" y="-540" font-family="Helvetica,sans-Serif" font-size="10.00"> yRange</text>
<text text-anchor="middle" x="921.5" y="-529" font-family="Helvetica,sans-Serif" font-size="10.00">xRange</text>
</g>
<!-- Node50 -->
<g id="node33" class="node">
<title>Node50</title>
<g id="a_node33"><a xlink:href="classdrain_1_1UniTuple.html" target="_top" xlink:title=" ">
<polygon fill="white" stroke="black" points="955.5,-650 955.5,-669 1061.5,-669 1061.5,-650 955.5,-650"/>
<text text-anchor="middle" x="1008.5" y="-657" font-family="Helvetica,sans-Serif" font-size="10.00">UniTuple&lt; int, 2 &gt;</text>
</a>
</g>
</g>
<!-- Node50&#45;&gt;Node49 -->
<g id="edge36" class="edge">
<title>Node50&#45;&gt;Node49</title>
<path fill="none" stroke="midnightblue" d="M987.7,-643.86C965.46,-628.22 930.97,-603.94 912.74,-591.12"/>
<polygon fill="midnightblue" stroke="midnightblue" points="985.92,-646.89 996.11,-649.78 989.95,-641.16 985.92,-646.89"/>
</g>
<!-- Node60 -->
<g id="node43" class="node">
<title>Node60</title>
<g id="a_node43"><a xlink:href="classdrain_1_1Frame2D.html" target="_top" xlink:title=" ">
<polygon fill="white" stroke="black" points="960.5,-572 960.5,-591 1056.5,-591 1056.5,-572 960.5,-572"/>
<text text-anchor="middle" x="1008.5" y="-579" font-family="Helvetica,sans-Serif" font-size="10.00">Frame2D&lt; int &gt;</text>
</a>
</g>
</g>
<!-- Node50&#45;&gt;Node60 -->
<g id="edge48" class="edge">
<title>Node50&#45;&gt;Node60</title>
<path fill="none" stroke="midnightblue" d="M1008.5,-639.72C1008.5,-624.2 1008.5,-602.86 1008.5,-591.12"/>
<polygon fill="midnightblue" stroke="midnightblue" points="1005,-639.78 1008.5,-649.78 1012,-639.78 1005,-639.78"/>
</g>
<!-- Node61 -->
<g id="node44" class="node">
<title>Node61</title>
<g id="a_node44"><a xlink:href="structdrain_1_1Point2D.html" target="_top" xlink:title=" ">
<polygon fill="white" stroke="black" points="1062.5,-487.5 1062.5,-506.5 1152.5,-506.5 1152.5,-487.5 1062.5,-487.5"/>
<text text-anchor="middle" x="1107.5" y="-494.5" font-family="Helvetica,sans-Serif" font-size="10.00">Point2D&lt; int &gt;</text>
</a>
</g>
</g>
<!-- Node50&#45;&gt;Node61 -->
<g id="edge50" class="edge">
<title>Node50&#45;&gt;Node61</title>
<path fill="none" stroke="midnightblue" d="M1025.9,-642.87C1038.17,-631.16 1054.34,-614.24 1065.5,-597 1075.85,-581.01 1096.37,-527.64 1104.29,-506.62"/>
<polygon fill="midnightblue" stroke="midnightblue" points="1023.42,-640.4 1018.49,-649.77 1028.19,-645.52 1023.42,-640.4"/>
</g>
<!-- Node51 -->
<g id="node34" class="node">
<title>Node51</title>
<g id="a_node34"><a xlink:href="structdrain_1_1UnaryFunctor.html" target="_top" xlink:title=" ">
<polygon fill="white" stroke="black" points="255.5,-487.5 255.5,-506.5 337.5,-506.5 337.5,-487.5 255.5,-487.5"/>
<text text-anchor="middle" x="296.5" y="-494.5" font-family="Helvetica,sans-Serif" font-size="10.00">UnaryFunctor</text>
</a>
</g>
</g>
<!-- Node51&#45;&gt;Node13 -->
<g id="edge37" class="edge">
<title>Node51&#45;&gt;Node13</title>
<path fill="none" stroke="#9a32cd" stroke-dasharray="5,2" d="M338.74,-484.89C380.77,-474.17 447.22,-458.12 505.5,-448 573.75,-436.14 652.03,-427.21 708.77,-421.56"/>
<polygon fill="#9a32cd" stroke="#9a32cd" points="337.68,-481.55 328.86,-487.43 339.42,-488.33 337.68,-481.55"/>
<text text-anchor="middle" x="533" y="-455.5" font-family="Helvetica,sans-Serif" font-size="10.00"> myFunctor</text>
</g>
<!-- Node52&#45;&gt;Node51 -->
<g id="edge38" class="edge">
<title>Node52&#45;&gt;Node51</title>
<path fill="none" stroke="midnightblue" d="M184.17,-566.65C212.21,-549.51 259.11,-520.85 282.43,-506.6"/>
<polygon fill="midnightblue" stroke="midnightblue" points="182.15,-563.78 175.44,-571.98 185.8,-569.75 182.15,-563.78"/>
</g>
<!-- Node53 -->
<g id="node36" class="node">
<title>Node53</title>
<g id="a_node36"><a xlink:href="classdrain_1_1UniCloner.html" target="_top" xlink:title=" ">
<polygon fill="white" stroke="black" points="543,-487.5 543,-506.5 726,-506.5 726,-487.5 543,-487.5"/>
<text text-anchor="middle" x="634.5" y="-494.5" font-family="Helvetica,sans-Serif" font-size="10.00">UniCloner&lt; drain::UnaryFunctor &gt;</text>
</a>
</g>
</g>
<!-- Node53&#45;&gt;Node13 -->
<g id="edge40" class="edge">
<title>Node53&#45;&gt;Node13</title>
<path fill="none" stroke="#9a32cd" stroke-dasharray="5,2" d="M659.73,-482.56C687.75,-467.64 732.76,-443.66 761.2,-428.51"/>
<polygon fill="#9a32cd" stroke="#9a32cd" points="657.76,-479.64 650.58,-487.43 661.06,-485.82 657.76,-479.64"/>
<text text-anchor="middle" x="744" y="-455.5" font-family="Helvetica,sans-Serif" font-size="10.00"> unicloner</text>
</g>
<!-- Node54 -->
<g id="node37" class="node">
<title>Node54</title>
<g id="a_node37"><a xlink:href="classdrain_1_1Bank.html" target="_top" xlink:title=" ">
<polygon fill="white" stroke="black" points="661,-572 661,-591 744,-591 744,-572 661,-572"/>
<text text-anchor="middle" x="702.5" y="-579" font-family="Helvetica,sans-Serif" font-size="10.00">Bank&lt; T, K &gt;</text>
</a>
</g>
</g>
<!-- Node54&#45;&gt;Node53 -->
<g id="edge41" class="edge">
<title>Node54&#45;&gt;Node53</title>
<path fill="none" stroke="#9a32cd" stroke-dasharray="5,2" d="M688.8,-563.88C674.52,-546.56 652.72,-520.11 641.58,-506.6"/>
<polygon fill="#9a32cd" stroke="#9a32cd" points="686.42,-566.49 695.48,-571.98 691.82,-562.04 686.42,-566.49"/>
<text text-anchor="middle" x="688.5" y="-534.5" font-family="Helvetica,sans-Serif" font-size="10.00"> bank</text>
</g>
<!-- Node55 -->
<g id="node38" class="node">
<title>Node55</title>
<g id="a_node38"><a xlink:title=" ">
<polygon fill="white" stroke="#bfbfbf" points="634.5,-644.5 634.5,-674.5 770.5,-674.5 770.5,-644.5 634.5,-644.5"/>
<text text-anchor="start" x="642.5" y="-662.5" font-family="Helvetica,sans-Serif" font-size="10.00">map&lt; std::string, Cloner</text>
<text text-anchor="middle" x="702.5" y="-651.5" font-family="Helvetica,sans-Serif" font-size="10.00">Base&lt; T &gt; * &gt;</text>
</a>
</g>
</g>
<!-- Node55&#45;&gt;Node54 -->
<g id="edge42" class="edge">
<title>Node55&#45;&gt;Node54</title>
<path fill="none" stroke="darkgreen" d="M702.5,-634.17C702.5,-619.4 702.5,-601.45 702.5,-591.06"/>
<polygon fill="darkgreen" stroke="darkgreen" points="699,-634.2 702.5,-644.2 706,-634.21 699,-634.2"/>
</g>
<!-- Node56 -->
<g id="node39" class="node">
<title>Node56</title>
<g id="a_node39"><a xlink:href="classdrain_1_1image_1_1WindowConfig.html" target="_top" xlink:title="Base class for configurations applied in image processing windows, e.g. for operators of type WindowO...">
<polygon fill="white" stroke="black" points="744,-487.5 744,-506.5 831,-506.5 831,-487.5 744,-487.5"/>
<text text-anchor="middle" x="787.5" y="-494.5" font-family="Helvetica,sans-Serif" font-size="10.00">WindowConfig</text>
</a>
</g>
</g>
<!-- Node56&#45;&gt;Node13 -->
<g id="edge43" class="edge">
<title>Node56&#45;&gt;Node13</title>
<path fill="none" stroke="#9a32cd" stroke-dasharray="5,2" d="M787.5,-477.23C787.5,-462.41 787.5,-442.05 787.5,-428.6"/>
<polygon fill="#9a32cd" stroke="#9a32cd" points="784,-477.28 787.5,-487.28 791,-477.28 784,-477.28"/>
<text text-anchor="middle" x="800" y="-455.5" font-family="Helvetica,sans-Serif" font-size="10.00"> conf</text>
</g>
<!-- Node57 -->
<g id="node40" class="node">
<title>Node57</title>
<g id="a_node40"><a xlink:href="classdrain_1_1VariableMap.html" target="_top" xlink:title="A map of Variables.">
<polygon fill="white" stroke="black" points="762.5,-572 762.5,-591 840.5,-591 840.5,-572 762.5,-572"/>
<text text-anchor="middle" x="801.5" y="-579" font-family="Helvetica,sans-Serif" font-size="10.00">VariableMap</text>
</a>
</g>
</g>
<!-- Node57&#45;&gt;Node56 -->
<g id="edge44" class="edge">
<title>Node57&#45;&gt;Node56</title>
<path fill="none" stroke="#9a32cd" stroke-dasharray="5,2" d="M775.29,-566.06C768.96,-561.21 763.02,-555.17 759.5,-548 755.19,-539.22 755.76,-535.03 759.5,-526 762.71,-518.25 769.22,-511.53 775.15,-506.61"/>
<polygon fill="#9a32cd" stroke="#9a32cd" points="773.72,-569.23 783.97,-571.94 777.65,-563.43 773.72,-569.23"/>
<text text-anchor="middle" x="806.5" y="-534.5" font-family="Helvetica,sans-Serif" font-size="10.00"> functorParameters</text>
</g>
<!-- Node58 -->
<g id="node41" class="node">
<title>Node58</title>
<g id="a_node41"><a xlink:href="classdrain_1_1SmartMap.html" target="_top" xlink:title=" ">
<polygon fill="white" stroke="black" points="788.5,-650 788.5,-669 918.5,-669 918.5,-650 788.5,-650"/>
<text text-anchor="middle" x="853.5" y="-657" font-family="Helvetica,sans-Serif" font-size="10.00">SmartMap&lt; Variable &gt;</text>
</a>
</g>
</g>
<!-- Node58&#45;&gt;Node57 -->
<g id="edge45" class="edge">
<title>Node58&#45;&gt;Node57</title>
<path fill="none" stroke="midnightblue" d="M841.87,-641.51C831.17,-625.87 815.74,-603.31 807.4,-591.12"/>
<polygon fill="midnightblue" stroke="midnightblue" points="839,-643.51 847.53,-649.78 844.78,-639.55 839,-643.51"/>
</g>
<!-- Node59 -->
<g id="node42" class="node">
<title>Node59</title>
<g id="a_node42"><a xlink:title=" ">
<polygon fill="white" stroke="#bfbfbf" points="775.5,-739 775.5,-758 931.5,-758 931.5,-739 775.5,-739"/>
<text text-anchor="middle" x="853.5" y="-746" font-family="Helvetica,sans-Serif" font-size="10.00">map&lt; std::string, Variable &gt;</text>
</a>
</g>
</g>
<!-- Node59&#45;&gt;Node58 -->
<g id="edge46" class="edge">
<title>Node59&#45;&gt;Node58</title>
<path fill="none" stroke="midnightblue" d="M853.5,-728.69C853.5,-710.24 853.5,-682.91 853.5,-669.12"/>
<polygon fill="midnightblue" stroke="midnightblue" points="850,-728.84 853.5,-738.84 857,-728.84 850,-728.84"/>
</g>
<!-- Node60&#45;&gt;Node56 -->
<g id="edge47" class="edge">
<title>Node60&#45;&gt;Node56</title>
<path fill="none" stroke="#9a32cd" stroke-dasharray="5,2" d="M984.84,-566.26C976.78,-560.96 967.93,-554.61 960.5,-548 950.85,-539.42 952.72,-532.41 941.5,-526 939.07,-524.61 875.8,-513.38 831.12,-505.57"/>
<polygon fill="#9a32cd" stroke="#9a32cd" points="983.17,-569.35 993.49,-571.77 986.93,-563.45 983.17,-569.35"/>
<text text-anchor="middle" x="977" y="-534.5" font-family="Helvetica,sans-Serif" font-size="10.00"> frame</text>
</g>
<!-- Node60&#45;&gt;Node62 -->
<g id="edge53" class="edge">
<title>Node60&#45;&gt;Node62</title>
<path fill="none" stroke="#9a32cd" stroke-dasharray="5,2" d="M1006,-561.93C1004.26,-551.23 1001.51,-537.65 997.5,-526 995.17,-519.22 991.52,-511.98 988.53,-506.57"/>
<polygon fill="#9a32cd" stroke="#9a32cd" points="1002.54,-562.44 1007.47,-571.82 1009.46,-561.41 1002.54,-562.44"/>
<text text-anchor="middle" x="1015" y="-534.5" font-family="Helvetica,sans-Serif" font-size="10.00"> area</text>
</g>
<!-- Node61&#45;&gt;Node12 -->
<g id="edge58" class="edge">
<title>Node61&#45;&gt;Node12</title>
<path fill="none" stroke="#9a32cd" stroke-dasharray="5,2" d="M1104.45,-477.24C1101.95,-467.37 1097.48,-455.75 1089.5,-448 1031.27,-391.41 940.78,-365.7 874.03,-354.05"/>
<polygon fill="#9a32cd" stroke="#9a32cd" points="1101.08,-478.23 1106.5,-487.33 1107.94,-476.84 1101.08,-478.23"/>
<text text-anchor="middle" x="1099.5" y="-422" font-family="Helvetica,sans-Serif" font-size="10.00"> locationTrail</text>
<text text-anchor="middle" x="1099.5" y="-411" font-family="Helvetica,sans-Serif" font-size="10.00">locationLead</text>
<text text-anchor="middle" x="1099.5" y="-400" font-family="Helvetica,sans-Serif" font-size="10.00">locationTmp</text>
</g>
<!-- Node61&#45;&gt;Node13 -->
<g id="edge49" class="edge">
<title>Node61&#45;&gt;Node13</title>
<path fill="none" stroke="#9a32cd" stroke-dasharray="5,2" d="M1076.62,-483.32C1066.77,-478.89 1055.98,-473.6 1046.5,-468 1033.65,-460.4 1033.31,-453.68 1019.5,-448 970.86,-427.98 912.2,-419.64 866.03,-416.28"/>
<polygon fill="#9a32cd" stroke="#9a32cd" points="1075.5,-486.65 1086.06,-487.45 1078.3,-480.24 1075.5,-486.65"/>
<text text-anchor="middle" x="1068" y="-455.5" font-family="Helvetica,sans-Serif" font-size="10.00"> location</text>
</g>
<!-- Node62&#45;&gt;Node13 -->
<g id="edge51" class="edge">
<title>Node62&#45;&gt;Node13</title>
<path fill="none" stroke="#9a32cd" stroke-dasharray="5,2" d="M956.73,-483.04C931.62,-470.95 895.86,-453.92 881.5,-448 864.84,-441.13 846.21,-434.31 829.95,-428.64"/>
<polygon fill="#9a32cd" stroke="#9a32cd" points="955.24,-486.2 965.76,-487.4 958.28,-479.9 955.24,-486.2"/>
<text text-anchor="middle" x="971.5" y="-455.5" font-family="Helvetica,sans-Serif" font-size="10.00"> coordinateHandler</text>
</g>
<!-- Node34 -->
<g id="node46" class="node">
<title>Node34</title>
<g id="a_node46"><a xlink:href="classdrain_1_1image_1_1CoordinatePolicy.html" target="_top" xlink:title="Policies for coordinate underflows and overflows.">
<polygon fill="white" stroke="black" points="1113,-572 1113,-591 1212,-591 1212,-572 1113,-572"/>
<text text-anchor="middle" x="1162.5" y="-579" font-family="Helvetica,sans-Serif" font-size="10.00">CoordinatePolicy</text>
</a>
</g>
</g>
<!-- Node34&#45;&gt;Node62 -->
<g id="edge54" class="edge">
<title>Node34&#45;&gt;Node62</title>
<path fill="none" stroke="#9a32cd" stroke-dasharray="5,2" d="M1134.84,-567.75C1097.98,-550.76 1033.75,-521.16 1002.15,-506.6"/>
<polygon fill="#9a32cd" stroke="#9a32cd" points="1133.47,-570.97 1144.02,-571.98 1136.4,-564.62 1133.47,-570.97"/>
<text text-anchor="middle" x="1105" y="-534.5" font-family="Helvetica,sans-Serif" font-size="10.00"> policy</text>
</g>
<!-- Node35 -->
<g id="node47" class="node">
<title>Node35</title>
<g id="a_node47"><a xlink:href="classdrain_1_1UniTuple.html" target="_top" xlink:title=" ">
<polygon fill="white" stroke="black" points="1092,-644.5 1092,-674.5 1209,-674.5 1209,-644.5 1092,-644.5"/>
<text text-anchor="start" x="1100" y="-662.5" font-family="Helvetica,sans-Serif" font-size="10.00">UniTuple&lt; coord_pol</text>
<text text-anchor="middle" x="1150.5" y="-651.5" font-family="Helvetica,sans-Serif" font-size="10.00">_t, 4 &gt;</text>
</a>
</g>
</g>
<!-- Node35&#45;&gt;Node34 -->
<g id="edge55" class="edge">
<title>Node35&#45;&gt;Node34</title>
<path fill="none" stroke="midnightblue" d="M1154.34,-634.17C1156.67,-619.4 1159.51,-601.45 1161.15,-591.06"/>
<polygon fill="midnightblue" stroke="midnightblue" points="1150.86,-633.78 1152.76,-644.2 1157.77,-634.87 1150.86,-633.78"/>
</g>
<!-- Node36 -->
<g id="node48" class="node">
<title>Node36</title>
<g id="a_node48"><a xlink:href="classdrain_1_1Dictionary2.html" target="_top" xlink:title="Two&#45;way mapping between strings and objects of template class T.">
<polygon fill="white" stroke="black" points="1227,-650 1227,-669 1342,-669 1342,-650 1227,-650"/>
<text text-anchor="middle" x="1284.5" y="-657" font-family="Helvetica,sans-Serif" font-size="10.00">Dictionary2&lt; K, V &gt;</text>
</a>
</g>
</g>
<!-- Node36&#45;&gt;Node34 -->
<g id="edge56" class="edge">
<title>Node36&#45;&gt;Node34</title>
<path fill="none" stroke="#9a32cd" stroke-dasharray="5,2" d="M1262,-644.48C1236.93,-628.86 1197.19,-604.11 1176.33,-591.12"/>
<polygon fill="#9a32cd" stroke="#9a32cd" points="1260.17,-647.47 1270.51,-649.78 1263.87,-641.52 1260.17,-647.47"/>
<text text-anchor="middle" x="1241.5" y="-618" font-family="Helvetica,sans-Serif" font-size="10.00"> dict</text>
</g>
<!-- Node37 -->
<g id="node49" class="node">
<title>Node37</title>
<g id="a_node49"><a xlink:title=" ">
<polygon fill="white" stroke="#bfbfbf" points="1232.5,-733.5 1232.5,-763.5 1336.5,-763.5 1336.5,-733.5 1232.5,-733.5"/>
<text text-anchor="start" x="1240.5" y="-751.5" font-family="Helvetica,sans-Serif" font-size="10.00">list&lt; std::pair&lt; K,</text>
<text text-anchor="middle" x="1284.5" y="-740.5" font-family="Helvetica,sans-Serif" font-size="10.00"> V &gt; &gt;</text>
</a>
</g>
</g>
<!-- Node37&#45;&gt;Node36 -->
<g id="edge57" class="edge">
<title>Node37&#45;&gt;Node36</title>
<path fill="none" stroke="midnightblue" d="M1284.5,-723.06C1284.5,-705.13 1284.5,-681.8 1284.5,-669.31"/>
<polygon fill="midnightblue" stroke="midnightblue" points="1281,-723.13 1284.5,-733.13 1288,-723.13 1281,-723.13"/>
</g>
<!-- Node63 -->
<g id="node50" class="node">
<title>Node63</title>
<g id="a_node50"><a xlink:href="classdrain_1_1typeLimiter.html" target="_top" xlink:title=" ">
<polygon fill="white" stroke="black" points="967.5,-334 967.5,-353 1095.5,-353 1095.5,-334 967.5,-334"/>
<text text-anchor="middle" x="1031.5" y="-341" font-family="Helvetica,sans-Serif" font-size="10.00">typeLimiter&lt; double &gt;</text>
</a>
</g>
</g>
<!-- Node63&#45;&gt;Node11 -->
<g id="edge60" class="edge">
<title>Node63&#45;&gt;Node11</title>
<path fill="none" stroke="#9a32cd" stroke-dasharray="5,2" d="M992.44,-331.06C943.43,-316.69 860.49,-292.39 816.66,-279.54"/>
<polygon fill="#9a32cd" stroke="#9a32cd" points="991.49,-334.42 1002.07,-333.88 993.46,-327.7 991.49,-334.42"/>
<text text-anchor="middle" x="934.5" y="-301" font-family="Helvetica,sans-Serif" font-size="10.00"> limiter</text>
</g>
</g>
</svg>
