<?xml version="1.0" encoding="UTF-8" standalone="no"?>
<!DOCTYPE svg PUBLIC "-//W3C//DTD SVG 1.1//EN"
 "http://www.w3.org/Graphics/SVG/1.1/DTD/svg11.dtd">
<!-- Generated by graphviz version 2.43.0 (0)
 -->
<!-- Title: RadarWindowCore Pages: 1 -->
<!--zoomable 443 -->
<svg id="main" version="1.1" xmlns="http://www.w3.org/2000/svg" xmlns:xlink="http://www.w3.org/1999/xlink" xml:space="preserve" onload="init(evt)">
<style type="text/css"><![CDATA[
.edge:hover path { stroke: red; }
.edge:hover polygon { stroke: red; fill: red; }
]]></style>
<script type="text/javascript"><![CDATA[
var edges = document.getElementsByTagName('g');
if (edges && edges.length) {
  for (var i=0;i<edges.length;i++) {
    if (edges[i].id.substr(0,4)=='edge') {
      edges[i].setAttribute('class','edge');
    }
  }
}
]]></script>
        <defs>
                <circle id="rim" cx="0" cy="0" r="7"/>
                <circle id="rim2" cx="0" cy="0" r="3.5"/>
                <g id="zoomPlus">
                        <use xlink:href="#rim" fill="#404040">
                                <set attributeName="fill" to="#808080" begin="zoomplus.mouseover" end="zoomplus.mouseout"/>
                        </use>
                        <path d="M-4,0h8M0,-4v8" fill="none" stroke="white" stroke-width="1.5" pointer-events="none"/>
                </g>
                <g id="zoomMin">
                        <use xlink:href="#rim" fill="#404040">
                                <set attributeName="fill" to="#808080" begin="zoomminus.mouseover" end="zoomminus.mouseout"/>
                        </use>
                        <path d="M-4,0h8" fill="none" stroke="white" stroke-width="1.5" pointer-events="none"/>
                </g>
                <g id="dirArrow">
                        <path fill="none" stroke="white" stroke-width="1.5" d="M0,-3.0v7 M-2.5,-0.5L0,-3.0L2.5,-0.5"/>
                </g>
               <g id="resetDef">
                       <use xlink:href="#rim2" fill="#404040">
                               <set attributeName="fill" to="#808080" begin="reset.mouseover" end="reset.mouseout"/>
                       </use>
               </g>
        </defs>

<script type="text/javascript">
var viewWidth = 2283;
var viewHeight = 443;
var sectionId = 'dynsection-1';
</script>
<script xlink:href="svgpan.js"/>
<svg id="graph" class="graph">
<g id="viewport">
<title>RadarWindowCore</title>
<polygon fill="white" stroke="transparent" points="-4,4 -4,-438.5 2279,-438.5 2279,4 -4,4"/>
<!-- Node1 -->
<g id="node1" class="node">
<title>Node1</title>
<g id="a_node1"><a xlink:title=" ">
<polygon fill="#bfbfbf" stroke="black" points="2168,-209.5 2168,-228.5 2275,-228.5 2275,-209.5 2168,-209.5"/>
<text text-anchor="middle" x="2221.5" y="-216.5" font-family="Helvetica,sans-Serif" font-size="10.00">RadarWindowCore</text>
</a>
</g>
</g>
<!-- Node2 -->
<g id="node2" class="node">
<title>Node2</title>
<g id="a_node2"><a xlink:href="classdrain_1_1image_1_1WeightedWindowCore.html" target="_top" xlink:title=" ">
<polygon fill="white" stroke="black" points="2006,-258.5 2006,-277.5 2131,-277.5 2131,-258.5 2006,-258.5"/>
<text text-anchor="middle" x="2068.5" y="-265.5" font-family="Helvetica,sans-Serif" font-size="10.00">WeightedWindowCore</text>
</a>
</g>
</g>
<!-- Node2&#45;&gt;Node1 -->
<g id="edge1" class="edge">
<title>Node2&#45;&gt;Node1</title>
<path fill="none" stroke="midnightblue" d="M2108.79,-255.25C2134.54,-246.9 2167.63,-236.16 2191.1,-228.54"/>
<polygon fill="midnightblue" stroke="midnightblue" points="2107.4,-252.02 2098.97,-258.44 2109.56,-258.68 2107.4,-252.02"/>
</g>
<!-- Node3 -->
<g id="node3" class="node">
<title>Node3</title>
<g id="a_node3"><a xlink:href="classdrain_1_1image_1_1WindowCore.html" target="_top" xlink:title="Container for source data (input) and destination data (output). May also contain metadata of them.">
<polygon fill="white" stroke="black" points="1891,-258.5 1891,-277.5 1969,-277.5 1969,-258.5 1891,-258.5"/>
<text text-anchor="middle" x="1930" y="-265.5" font-family="Helvetica,sans-Serif" font-size="10.00">WindowCore</text>
</a>
</g>
</g>
<!-- Node3&#45;&gt;Node2 -->
<g id="edge2" class="edge">
<title>Node3&#45;&gt;Node2</title>
<path fill="none" stroke="midnightblue" d="M1979.26,-268C1987.87,-268 1996.95,-268 2005.88,-268"/>
<polygon fill="midnightblue" stroke="midnightblue" points="1979.02,-264.5 1969.02,-268 1979.02,-271.5 1979.02,-264.5"/>
</g>
<!-- Node4 -->
<g id="node4" class="node">
<title>Node4</title>
<g id="a_node4"><a xlink:href="classdrain_1_1image_1_1WindowCoreBase.html" target="_top" xlink:title="Provides splitting frames.">
<polygon fill="white" stroke="black" points="1735,-243.5 1735,-262.5 1837,-262.5 1837,-243.5 1735,-243.5"/>
<text text-anchor="middle" x="1786" y="-250.5" font-family="Helvetica,sans-Serif" font-size="10.00">WindowCoreBase</text>
</a>
</g>
</g>
<!-- Node4&#45;&gt;Node3 -->
<g id="edge3" class="edge">
<title>Node4&#45;&gt;Node3</title>
<path fill="none" stroke="midnightblue" d="M1847.2,-259.36C1862.05,-260.93 1877.53,-262.56 1890.99,-263.98"/>
<polygon fill="midnightblue" stroke="midnightblue" points="1847.38,-255.86 1837.06,-258.29 1846.64,-262.82 1847.38,-255.86"/>
</g>
<!-- Node5 -->
<g id="node5" class="node">
<title>Node5</title>
<g id="a_node5"><a xlink:href="classdrain_1_1image_1_1ImageView.html" target="_top" xlink:title="ImageFrame that also has channels.">
<polygon fill="white" stroke="black" points="1750.5,-313.5 1750.5,-332.5 1821.5,-332.5 1821.5,-313.5 1750.5,-313.5"/>
<text text-anchor="middle" x="1786" y="-320.5" font-family="Helvetica,sans-Serif" font-size="10.00">ImageView</text>
</a>
</g>
</g>
<!-- Node5&#45;&gt;Node2 -->
<g id="edge31" class="edge">
<title>Node5&#45;&gt;Node2</title>
<path fill="none" stroke="#9a32cd" stroke-dasharray="5,2" d="M1831.68,-316.13C1845,-313.97 1859.61,-311.5 1873,-309 1925.58,-299.18 1985.79,-286.22 2025.12,-277.53"/>
<polygon fill="#9a32cd" stroke="#9a32cd" points="1831.12,-312.68 1821.79,-317.71 1832.22,-319.59 1831.12,-312.68"/>
<text text-anchor="middle" x="1930" y="-320" font-family="Helvetica,sans-Serif" font-size="10.00"> srcWeight</text>
<text text-anchor="middle" x="1930" y="-309" font-family="Helvetica,sans-Serif" font-size="10.00">dstWeight</text>
</g>
<!-- Node5&#45;&gt;Node3 -->
<g id="edge4" class="edge">
<title>Node5&#45;&gt;Node3</title>
<path fill="none" stroke="#9a32cd" stroke-dasharray="5,2" d="M1811.42,-308.27C1824.09,-301.1 1840.01,-292.8 1855,-287 1866.38,-282.6 1879.14,-278.91 1890.81,-275.98"/>
<polygon fill="#9a32cd" stroke="#9a32cd" points="1809.34,-305.43 1802.44,-313.47 1812.85,-311.49 1809.34,-305.43"/>
<text text-anchor="middle" x="1864" y="-301" font-family="Helvetica,sans-Serif" font-size="10.00"> src</text>
<text text-anchor="middle" x="1864" y="-290" font-family="Helvetica,sans-Serif" font-size="10.00">dst</text>
</g>
<!-- Node6 -->
<g id="node6" class="node">
<title>Node6</title>
<g id="a_node6"><a xlink:href="classdrain_1_1image_1_1MultiChannel.html" target="_top" xlink:title="Multi&#45;channel ImageFrame.">
<polygon fill="white" stroke="black" points="1617,-316.5 1617,-335.5 1698,-335.5 1698,-316.5 1617,-316.5"/>
<text text-anchor="middle" x="1657.5" y="-323.5" font-family="Helvetica,sans-Serif" font-size="10.00">MultiChannel</text>
</a>
</g>
</g>
<!-- Node6&#45;&gt;Node5 -->
<g id="edge5" class="edge">
<title>Node6&#45;&gt;Node5</title>
<path fill="none" stroke="midnightblue" d="M1708.19,-324.82C1722.23,-324.49 1737.2,-324.13 1750.17,-323.83"/>
<polygon fill="midnightblue" stroke="midnightblue" points="1708.09,-321.32 1698.18,-325.06 1708.26,-328.32 1708.09,-321.32"/>
</g>
<!-- Node7 -->
<g id="node7" class="node">
<title>Node7</title>
<g id="a_node7"><a xlink:href="classdrain_1_1image_1_1ImageFrame.html" target="_top" xlink:title="Image with static geometry.">
<polygon fill="white" stroke="black" points="1502,-318.5 1502,-337.5 1580,-337.5 1580,-318.5 1502,-318.5"/>
<text text-anchor="middle" x="1541" y="-325.5" font-family="Helvetica,sans-Serif" font-size="10.00">ImageFrame</text>
</a>
</g>
</g>
<!-- Node7&#45;&gt;Node6 -->
<g id="edge6" class="edge">
<title>Node7&#45;&gt;Node6</title>
<path fill="none" stroke="midnightblue" d="M1590.36,-327.16C1599.23,-327 1608.4,-326.84 1616.97,-326.69"/>
<polygon fill="midnightblue" stroke="midnightblue" points="1590.06,-323.66 1580.13,-327.33 1590.19,-330.66 1590.06,-323.66"/>
</g>
<!-- Node8 -->
<g id="node8" class="node">
<title>Node8</title>
<g id="a_node8"><a xlink:href="classdrain_1_1image_1_1ImageLike.html" target="_top" xlink:title="A base class for images.">
<polygon fill="white" stroke="black" points="1315,-273.5 1315,-292.5 1382,-292.5 1382,-273.5 1315,-273.5"/>
<text text-anchor="middle" x="1348.5" y="-280.5" font-family="Helvetica,sans-Serif" font-size="10.00">ImageLike</text>
</a>
</g>
</g>
<!-- Node8&#45;&gt;Node7 -->
<g id="edge7" class="edge">
<title>Node8&#45;&gt;Node7</title>
<path fill="none" stroke="midnightblue" d="M1392.03,-293.05C1424.92,-300.82 1470.04,-311.47 1501.79,-318.97"/>
<polygon fill="midnightblue" stroke="midnightblue" points="1392.78,-289.63 1382.25,-290.74 1391.18,-296.44 1392.78,-289.63"/>
</g>
<!-- Node9 -->
<g id="node9" class="node">
<title>Node9</title>
<g id="a_node9"><a xlink:href="classdrain_1_1image_1_1ImageConf.html" target="_top" xlink:title="Struct for image (excluding data)">
<polygon fill="white" stroke="black" points="1057.5,-270.5 1057.5,-289.5 1127.5,-289.5 1127.5,-270.5 1057.5,-270.5"/>
<text text-anchor="middle" x="1092.5" y="-277.5" font-family="Helvetica,sans-Serif" font-size="10.00">ImageConf</text>
</a>
</g>
</g>
<!-- Node9&#45;&gt;Node8 -->
<g id="edge8" class="edge">
<title>Node9&#45;&gt;Node8</title>
<path fill="none" stroke="#9a32cd" stroke-dasharray="5,2" d="M1138.06,-280.53C1188.67,-281.12 1270.02,-282.08 1314.99,-282.62"/>
<polygon fill="#9a32cd" stroke="#9a32cd" points="1137.8,-277.02 1127.76,-280.4 1137.71,-284.02 1137.8,-277.02"/>
<text text-anchor="middle" x="1233.5" y="-286" font-family="Helvetica,sans-Serif" font-size="10.00"> conf</text>
</g>
<!-- Node10 -->
<g id="node10" class="node">
<title>Node10</title>
<g id="a_node10"><a xlink:href="classdrain_1_1image_1_1Encoding.html" target="_top" xlink:title=" ">
<polygon fill="white" stroke="black" points="777,-230.5 777,-249.5 838,-249.5 838,-230.5 777,-230.5"/>
<text text-anchor="middle" x="807.5" y="-237.5" font-family="Helvetica,sans-Serif" font-size="10.00">Encoding</text>
</a>
</g>
</g>
<!-- Node10&#45;&gt;Node9 -->
<g id="edge9" class="edge">
<title>Node10&#45;&gt;Node9</title>
<path fill="none" stroke="midnightblue" d="M848.47,-245.65C904.33,-253.55 1004.79,-267.74 1057.34,-275.17"/>
<polygon fill="midnightblue" stroke="midnightblue" points="848.64,-242.14 838.25,-244.21 847.66,-249.07 848.64,-242.14"/>
</g>
<!-- Node11 -->
<g id="node11" class="node">
<title>Node11</title>
<g id="a_node11"><a xlink:href="classdrain_1_1ValueScaling.html" target="_top" xlink:title="Linear scaling and physical range for image intensities.">
<polygon fill="white" stroke="black" points="516,-53.5 516,-72.5 596,-72.5 596,-53.5 516,-53.5"/>
<text text-anchor="middle" x="556" y="-60.5" font-family="Helvetica,sans-Serif" font-size="10.00">ValueScaling</text>
</a>
</g>
</g>
<!-- Node11&#45;&gt;Node10 -->
<g id="edge10" class="edge">
<title>Node11&#45;&gt;Node10</title>
<path fill="none" stroke="midnightblue" d="M575.52,-79.84C590.99,-93.61 613.84,-113.3 635,-129 689.69,-169.58 758.81,-211.73 789.96,-230.26"/>
<polygon fill="midnightblue" stroke="midnightblue" points="577.52,-76.93 567.75,-72.86 572.85,-82.14 577.52,-76.93"/>
</g>
<!-- Node32 -->
<g id="node32" class="node">
<title>Node32</title>
<g id="a_node32"><a xlink:href="classrack_1_1EncodingODIM.html" target="_top" xlink:title="Structure for data storage type, scaling and marker codes. Does not contain quantity.">
<polygon fill="white" stroke="black" points="763.5,-48.5 763.5,-67.5 851.5,-67.5 851.5,-48.5 763.5,-48.5"/>
<text text-anchor="middle" x="807.5" y="-55.5" font-family="Helvetica,sans-Serif" font-size="10.00">EncodingODIM</text>
</a>
</g>
</g>
<!-- Node11&#45;&gt;Node32 -->
<g id="edge38" class="edge">
<title>Node11&#45;&gt;Node32</title>
<path fill="none" stroke="#9a32cd" stroke-dasharray="5,2" d="M606.38,-60.13C615.87,-59.67 625.74,-59.26 635,-59 678.75,-57.75 728.81,-57.61 763.5,-57.71"/>
<polygon fill="#9a32cd" stroke="#9a32cd" points="606.08,-56.64 596.27,-60.64 606.43,-63.63 606.08,-56.64"/>
<text text-anchor="middle" x="668" y="-84" font-family="Helvetica,sans-Serif" font-size="10.00"> scalingConst</text>
<text text-anchor="middle" x="668" y="-73" font-family="Helvetica,sans-Serif" font-size="10.00">scaling</text>
<text text-anchor="middle" x="668" y="-62" font-family="Helvetica,sans-Serif" font-size="10.00">ownScaling</text>
</g>
<!-- Node12 -->
<g id="node12" class="node">
<title>Node12</title>
<g id="a_node12"><a xlink:href="classdrain_1_1UniTuple.html" target="_top" xlink:title=" ">
<polygon fill="white" stroke="black" points="214.5,-76.5 214.5,-95.5 340.5,-95.5 340.5,-76.5 214.5,-76.5"/>
<text text-anchor="middle" x="277.5" y="-83.5" font-family="Helvetica,sans-Serif" font-size="10.00">UniTuple&lt; double, 4 &gt;</text>
</a>
</g>
</g>
<!-- Node12&#45;&gt;Node11 -->
<g id="edge11" class="edge">
<title>Node12&#45;&gt;Node11</title>
<path fill="none" stroke="midnightblue" d="M351.05,-81.66C388.67,-79.21 435.34,-75.87 477,-72 489.62,-70.83 503.37,-69.32 515.76,-67.87"/>
<polygon fill="midnightblue" stroke="midnightblue" points="350.45,-78.19 340.7,-82.33 350.9,-85.18 350.45,-78.19"/>
</g>
<!-- Node13 -->
<g id="node13" class="node">
<title>Node13</title>
<g id="a_node13"><a xlink:href="classdrain_1_1Range.html" target="_top" xlink:title=" ">
<polygon fill="white" stroke="black" points="226,-38.5 226,-57.5 329,-57.5 329,-38.5 226,-38.5"/>
<text text-anchor="middle" x="277.5" y="-45.5" font-family="Helvetica,sans-Serif" font-size="10.00">Range&lt; double &gt;</text>
</a>
</g>
</g>
<!-- Node13&#45;&gt;Node11 -->
<g id="edge12" class="edge">
<title>Node13&#45;&gt;Node11</title>
<path fill="none" stroke="#9a32cd" stroke-dasharray="5,2" d="M339.3,-51.3C393.02,-54.21 469.78,-58.38 515.77,-60.87"/>
<polygon fill="#9a32cd" stroke="#9a32cd" points="339.39,-47.8 329.21,-50.75 339.01,-54.79 339.39,-47.8"/>
<text text-anchor="middle" x="422" y="-62" font-family="Helvetica,sans-Serif" font-size="10.00"> physRange</text>
</g>
<!-- Node14 -->
<g id="node14" class="node">
<title>Node14</title>
<g id="a_node14"><a xlink:href="classdrain_1_1UniTuple.html" target="_top" xlink:title=" ">
<polygon fill="white" stroke="black" points="21.5,-95.5 21.5,-114.5 147.5,-114.5 147.5,-95.5 21.5,-95.5"/>
<text text-anchor="middle" x="84.5" y="-102.5" font-family="Helvetica,sans-Serif" font-size="10.00">UniTuple&lt; double, 2 &gt;</text>
</a>
</g>
</g>
<!-- Node14&#45;&gt;Node13 -->
<g id="edge13" class="edge">
<title>Node14&#45;&gt;Node13</title>
<path fill="none" stroke="midnightblue" d="M124.24,-92.33C147.81,-84.73 178.55,-75.02 206,-67 216.95,-63.8 228.91,-60.5 239.83,-57.57"/>
<polygon fill="midnightblue" stroke="midnightblue" points="123.05,-89.03 114.61,-95.44 125.21,-95.69 123.05,-89.03"/>
</g>
<!-- Node36 -->
<g id="node36" class="node">
<title>Node36</title>
<g id="a_node36"><a xlink:href="structdrain_1_1Point2D.html" target="_top" xlink:title=" ">
<polygon fill="white" stroke="black" points="367,-109.5 367,-128.5 477,-128.5 477,-109.5 367,-109.5"/>
<text text-anchor="middle" x="422" y="-116.5" font-family="Helvetica,sans-Serif" font-size="10.00">Point2D&lt; double &gt;</text>
</a>
</g>
</g>
<!-- Node14&#45;&gt;Node36 -->
<g id="edge40" class="edge">
<title>Node14&#45;&gt;Node36</title>
<path fill="none" stroke="midnightblue" d="M158.04,-108.03C220.78,-110.64 310.08,-114.37 366.78,-116.74"/>
<polygon fill="midnightblue" stroke="midnightblue" points="157.96,-104.52 147.82,-107.6 157.66,-111.51 157.96,-104.52"/>
</g>
<!-- Node15 -->
<g id="node15" class="node">
<title>Node15</title>
<g id="a_node15"><a xlink:href="classdrain_1_1Caster.html" target="_top" xlink:title=" ">
<polygon fill="white" stroke="black" points="532,-283.5 532,-302.5 580,-302.5 580,-283.5 532,-283.5"/>
<text text-anchor="middle" x="556" y="-290.5" font-family="Helvetica,sans-Serif" font-size="10.00">Caster</text>
</a>
</g>
</g>
<!-- Node15&#45;&gt;Node10 -->
<g id="edge14" class="edge">
<title>Node15&#45;&gt;Node10</title>
<path fill="none" stroke="#9a32cd" stroke-dasharray="5,2" d="M590.07,-285.97C638.94,-275.59 729.71,-256.31 776.65,-246.34"/>
<polygon fill="#9a32cd" stroke="#9a32cd" points="589.08,-282.61 580.03,-288.11 590.53,-289.45 589.08,-282.61"/>
<text text-anchor="middle" x="668" y="-279" font-family="Helvetica,sans-Serif" font-size="10.00"> caster</text>
</g>
<!-- Node26 -->
<g id="node26" class="node">
<title>Node26</title>
<g id="a_node26"><a xlink:href="classdrain_1_1Castable.html" target="_top" xlink:title=" ">
<polygon fill="white" stroke="black" points="778,-327.5 778,-346.5 837,-346.5 837,-327.5 778,-327.5"/>
<text text-anchor="middle" x="807.5" y="-334.5" font-family="Helvetica,sans-Serif" font-size="10.00">Castable</text>
</a>
</g>
</g>
<!-- Node15&#45;&gt;Node26 -->
<g id="edge27" class="edge">
<title>Node15&#45;&gt;Node26</title>
<path fill="none" stroke="#9a32cd" stroke-dasharray="5,2" d="M590.01,-301.88C598.93,-304.7 608.48,-308.12 617,-312 625.53,-315.89 626.09,-320.1 635,-323 683.29,-338.73 743.07,-339.74 777.79,-338.65"/>
<polygon fill="#9a32cd" stroke="#9a32cd" points="590.87,-298.48 580.28,-298.95 588.85,-305.18 590.87,-298.48"/>
<text text-anchor="middle" x="668" y="-339" font-family="Helvetica,sans-Serif" font-size="10.00"> caster</text>
</g>
<!-- Node16 -->
<g id="node16" class="node">
<title>Node16</title>
<g id="a_node16"><a xlink:href="classdrain_1_1image_1_1Geometry.html" target="_top" xlink:title=" ">
<polygon fill="white" stroke="black" points="775,-268.5 775,-287.5 840,-287.5 840,-268.5 775,-268.5"/>
<text text-anchor="middle" x="807.5" y="-275.5" font-family="Helvetica,sans-Serif" font-size="10.00">Geometry</text>
</a>
</g>
</g>
<!-- Node16&#45;&gt;Node9 -->
<g id="edge15" class="edge">
<title>Node16&#45;&gt;Node9</title>
<path fill="none" stroke="midnightblue" d="M850.46,-278.3C906.72,-278.69 1005.52,-279.39 1057.43,-279.76"/>
<polygon fill="midnightblue" stroke="midnightblue" points="850.16,-274.79 840.14,-278.22 850.11,-281.79 850.16,-274.79"/>
</g>
<!-- Node17 -->
<g id="node17" class="node">
<title>Node17</title>
<g id="a_node17"><a xlink:href="classdrain_1_1UniTuple.html" target="_top" xlink:title=" ">
<polygon fill="white" stroke="black" points="495,-245.5 495,-264.5 617,-264.5 617,-245.5 495,-245.5"/>
<text text-anchor="middle" x="556" y="-252.5" font-family="Helvetica,sans-Serif" font-size="10.00">UniTuple&lt; size_t, 4 &gt;</text>
</a>
</g>
</g>
<!-- Node17&#45;&gt;Node16 -->
<g id="edge16" class="edge">
<title>Node17&#45;&gt;Node16</title>
<path fill="none" stroke="midnightblue" d="M627.23,-263.21C629.85,-263.49 632.45,-263.75 635,-264 683.76,-268.8 740.43,-273.2 774.86,-275.74"/>
<polygon fill="midnightblue" stroke="midnightblue" points="627.34,-259.71 617.02,-262.13 626.6,-266.67 627.34,-259.71"/>
</g>
<!-- Node18 -->
<g id="node18" class="node">
<title>Node18</title>
<g id="a_node18"><a xlink:href="classdrain_1_1Frame2D.html" target="_top" xlink:title=" ">
<polygon fill="white" stroke="black" points="500,-207.5 500,-226.5 612,-226.5 612,-207.5 500,-207.5"/>
<text text-anchor="middle" x="556" y="-214.5" font-family="Helvetica,sans-Serif" font-size="10.00">Frame2D&lt; size_t &gt;</text>
</a>
</g>
</g>
<!-- Node18&#45;&gt;Node16 -->
<g id="edge17" class="edge">
<title>Node18&#45;&gt;Node16</title>
<path fill="none" stroke="#9a32cd" stroke-dasharray="5,2" d="M622.25,-227.36C647.34,-232.41 675.96,-239.49 701,-249 709.56,-252.25 710.44,-255.77 719,-259 736.89,-265.74 757.79,-270.39 774.68,-273.4"/>
<polygon fill="#9a32cd" stroke="#9a32cd" points="622.59,-223.86 612.1,-225.39 621.25,-230.73 622.59,-223.86"/>
<text text-anchor="middle" x="668" y="-252" font-family="Helvetica,sans-Serif" font-size="10.00"> area</text>
</g>
<!-- Node31 -->
<g id="node31" class="node">
<title>Node31</title>
<g id="a_node31"><a xlink:href="classrack_1_1ODIM.html" target="_top" xlink:title="ODIM metadata (quantity, gain, offset, undetect, nodata, date, time)">
<polygon fill="white" stroke="black" points="1070.5,-127.5 1070.5,-146.5 1114.5,-146.5 1114.5,-127.5 1070.5,-127.5"/>
<text text-anchor="middle" x="1092.5" y="-134.5" font-family="Helvetica,sans-Serif" font-size="10.00">ODIM</text>
</a>
</g>
</g>
<!-- Node18&#45;&gt;Node31 -->
<g id="edge41" class="edge">
<title>Node18&#45;&gt;Node31</title>
<path fill="none" stroke="#9a32cd" stroke-dasharray="5,2" d="M622.41,-207.21C743.22,-189.13 995.85,-151.32 1070.38,-140.16"/>
<polygon fill="#9a32cd" stroke="#9a32cd" points="621.56,-203.8 612.19,-208.74 622.6,-210.72 621.56,-203.8"/>
<text text-anchor="middle" x="807.5" y="-196" font-family="Helvetica,sans-Serif" font-size="10.00"> area</text>
</g>
<!-- Node19 -->
<g id="node19" class="node">
<title>Node19</title>
<g id="a_node19"><a xlink:href="classdrain_1_1UniTuple.html" target="_top" xlink:title=" ">
<polygon fill="white" stroke="black" points="216.5,-242.5 216.5,-261.5 338.5,-261.5 338.5,-242.5 216.5,-242.5"/>
<text text-anchor="middle" x="277.5" y="-249.5" font-family="Helvetica,sans-Serif" font-size="10.00">UniTuple&lt; size_t, 2 &gt;</text>
</a>
</g>
</g>
<!-- Node19&#45;&gt;Node18 -->
<g id="edge18" class="edge">
<title>Node19&#45;&gt;Node18</title>
<path fill="none" stroke="midnightblue" d="M348.93,-243.09C395.84,-237.15 456.59,-229.46 499.96,-223.97"/>
<polygon fill="midnightblue" stroke="midnightblue" points="348.32,-239.63 338.84,-244.36 349.2,-246.58 348.32,-239.63"/>
</g>
<!-- Node20 -->
<g id="node20" class="node">
<title>Node20</title>
<g id="a_node20"><a xlink:href="classdrain_1_1image_1_1ChannelGeometry.html" target="_top" xlink:title=" ">
<polygon fill="white" stroke="black" points="503.5,-321.5 503.5,-340.5 608.5,-340.5 608.5,-321.5 503.5,-321.5"/>
<text text-anchor="middle" x="556" y="-328.5" font-family="Helvetica,sans-Serif" font-size="10.00">ChannelGeometry</text>
</a>
</g>
</g>
<!-- Node19&#45;&gt;Node20 -->
<g id="edge20" class="edge">
<title>Node19&#45;&gt;Node20</title>
<path fill="none" stroke="midnightblue" d="M321.69,-264.34C376.93,-280.12 471.43,-307.12 521.53,-321.44"/>
<polygon fill="midnightblue" stroke="midnightblue" points="322.43,-260.91 311.85,-261.53 320.51,-267.64 322.43,-260.91"/>
</g>
<!-- Node20&#45;&gt;Node16 -->
<g id="edge19" class="edge">
<title>Node20&#45;&gt;Node16</title>
<path fill="none" stroke="#9a32cd" stroke-dasharray="5,2" d="M599.95,-318.79C611.3,-315.74 623.58,-312.6 635,-310 683.43,-298.98 740.2,-288.95 774.74,-283.16"/>
<polygon fill="#9a32cd" stroke="#9a32cd" points="598.99,-315.42 590.26,-321.43 600.83,-322.18 598.99,-315.42"/>
<text text-anchor="middle" x="668" y="-313" font-family="Helvetica,sans-Serif" font-size="10.00"> channels</text>
</g>
<!-- Node21 -->
<g id="node21" class="node">
<title>Node21</title>
<g id="a_node21"><a xlink:href="classdrain_1_1image_1_1CoordinatePolicy.html" target="_top" xlink:title="Policies for coordinate underflows and overflows.">
<polygon fill="white" stroke="black" points="758,-365.5 758,-384.5 857,-384.5 857,-365.5 758,-365.5"/>
<text text-anchor="middle" x="807.5" y="-372.5" font-family="Helvetica,sans-Serif" font-size="10.00">CoordinatePolicy</text>
</a>
</g>
</g>
<!-- Node21&#45;&gt;Node9 -->
<g id="edge21" class="edge">
<title>Node21&#45;&gt;Node9</title>
<path fill="none" stroke="#9a32cd" stroke-dasharray="5,2" d="M867.38,-363.54C877.01,-361.29 886.83,-358.76 896,-356 960.86,-336.48 1034.67,-305.21 1070.19,-289.56"/>
<polygon fill="#9a32cd" stroke="#9a32cd" points="866.43,-360.17 857.44,-365.79 867.97,-367 866.43,-360.17"/>
<text text-anchor="middle" x="956.5" y="-352" font-family="Helvetica,sans-Serif" font-size="10.00"> coordinatePolicy</text>
</g>
<!-- Node22 -->
<g id="node22" class="node">
<title>Node22</title>
<g id="a_node22"><a xlink:href="classdrain_1_1UniTuple.html" target="_top" xlink:title=" ">
<polygon fill="white" stroke="black" points="497.5,-360 497.5,-390 614.5,-390 614.5,-360 497.5,-360"/>
<text text-anchor="start" x="505.5" y="-378" font-family="Helvetica,sans-Serif" font-size="10.00">UniTuple&lt; coord_pol</text>
<text text-anchor="middle" x="556" y="-367" font-family="Helvetica,sans-Serif" font-size="10.00">_t, 4 &gt;</text>
</a>
</g>
</g>
<!-- Node22&#45;&gt;Node21 -->
<g id="edge22" class="edge">
<title>Node22&#45;&gt;Node21</title>
<path fill="none" stroke="midnightblue" d="M624.71,-375C666.72,-375 719.72,-375 757.64,-375"/>
<polygon fill="midnightblue" stroke="midnightblue" points="624.55,-371.5 614.55,-375 624.55,-378.5 624.55,-371.5"/>
</g>
<!-- Node23 -->
<g id="node23" class="node">
<title>Node23</title>
<g id="a_node23"><a xlink:href="classdrain_1_1Dictionary2.html" target="_top" xlink:title="Two&#45;way mapping between strings and objects of template class T.">
<polygon fill="white" stroke="black" points="498.5,-409.5 498.5,-428.5 613.5,-428.5 613.5,-409.5 498.5,-409.5"/>
<text text-anchor="middle" x="556" y="-416.5" font-family="Helvetica,sans-Serif" font-size="10.00">Dictionary2&lt; K, V &gt;</text>
</a>
</g>
</g>
<!-- Node23&#45;&gt;Node21 -->
<g id="edge23" class="edge">
<title>Node23&#45;&gt;Node21</title>
<path fill="none" stroke="#9a32cd" stroke-dasharray="5,2" d="M621.14,-407.69C663.8,-400.17 718.94,-390.44 757.96,-383.56"/>
<polygon fill="#9a32cd" stroke="#9a32cd" points="620.38,-404.27 611.14,-409.45 621.59,-411.16 620.38,-404.27"/>
<text text-anchor="middle" x="668" y="-407" font-family="Helvetica,sans-Serif" font-size="10.00"> dict</text>
</g>
<!-- Node24 -->
<g id="node24" class="node">
<title>Node24</title>
<g id="a_node24"><a xlink:title=" ">
<polygon fill="white" stroke="#bfbfbf" points="225.5,-404 225.5,-434 329.5,-434 329.5,-404 225.5,-404"/>
<text text-anchor="start" x="233.5" y="-422" font-family="Helvetica,sans-Serif" font-size="10.00">list&lt; std::pair&lt; K,</text>
<text text-anchor="middle" x="277.5" y="-411" font-family="Helvetica,sans-Serif" font-size="10.00"> V &gt; &gt;</text>
</a>
</g>
</g>
<!-- Node24&#45;&gt;Node23 -->
<g id="edge24" class="edge">
<title>Node24&#45;&gt;Node23</title>
<path fill="none" stroke="midnightblue" d="M339.64,-419C386.92,-419 451.88,-419 498.06,-419"/>
<polygon fill="midnightblue" stroke="midnightblue" points="339.54,-415.5 329.54,-419 339.54,-422.5 339.54,-415.5"/>
</g>
<!-- Node25 -->
<g id="node25" class="node">
<title>Node25</title>
<g id="a_node25"><a xlink:href="classdrain_1_1CastableIterator.html" target="_top" xlink:title=" ">
<polygon fill="white" stroke="black" points="1186,-321.5 1186,-340.5 1281,-340.5 1281,-321.5 1186,-321.5"/>
<text text-anchor="middle" x="1233.5" y="-328.5" font-family="Helvetica,sans-Serif" font-size="10.00">CastableIterator</text>
</a>
</g>
</g>
<!-- Node25&#45;&gt;Node7 -->
<g id="edge25" class="edge">
<title>Node25&#45;&gt;Node7</title>
<path fill="none" stroke="#9a32cd" stroke-dasharray="5,2" d="M1291.54,-330.44C1353,-329.84 1449.1,-328.89 1501.96,-328.37"/>
<polygon fill="#9a32cd" stroke="#9a32cd" points="1291.2,-326.94 1281.23,-330.54 1291.27,-333.94 1291.2,-326.94"/>
<text text-anchor="middle" x="1348.5" y="-345" font-family="Helvetica,sans-Serif" font-size="10.00"> segmentEnd</text>
<text text-anchor="middle" x="1348.5" y="-334" font-family="Helvetica,sans-Serif" font-size="10.00">segmentBegin</text>
</g>
<!-- Node26&#45;&gt;Node25 -->
<g id="edge26" class="edge">
<title>Node26&#45;&gt;Node25</title>
<path fill="none" stroke="darkgreen" d="M847.7,-336.45C926.08,-335.34 1101.78,-332.85 1185.89,-331.66"/>
<polygon fill="darkgreen" stroke="darkgreen" points="847.26,-332.95 837.31,-336.59 847.36,-339.95 847.26,-332.95"/>
</g>
<!-- Node27 -->
<g id="node27" class="node">
<title>Node27</title>
<g id="a_node27"><a xlink:href="classdrain_1_1FlexVariableMap.html" target="_top" xlink:title="A map of FlexVariable:s.">
<polygon fill="white" stroke="black" points="1299,-369.5 1299,-388.5 1398,-388.5 1398,-369.5 1299,-369.5"/>
<text text-anchor="middle" x="1348.5" y="-376.5" font-family="Helvetica,sans-Serif" font-size="10.00">FlexVariableMap</text>
</a>
</g>
</g>
<!-- Node27&#45;&gt;Node7 -->
<g id="edge28" class="edge">
<title>Node27&#45;&gt;Node7</title>
<path fill="none" stroke="#9a32cd" stroke-dasharray="5,2" d="M1395.33,-366.73C1428.79,-357.77 1473.51,-345.8 1504.33,-337.55"/>
<polygon fill="#9a32cd" stroke="#9a32cd" points="1394.09,-363.44 1385.33,-369.41 1395.9,-370.2 1394.09,-363.44"/>
<text text-anchor="middle" x="1450" y="-375" font-family="Helvetica,sans-Serif" font-size="10.00"> propertiesPtr</text>
<text text-anchor="middle" x="1450" y="-364" font-family="Helvetica,sans-Serif" font-size="10.00">properties</text>
</g>
<!-- Node28 -->
<g id="node28" class="node">
<title>Node28</title>
<g id="a_node28"><a xlink:href="classdrain_1_1SmartMap.html" target="_top" xlink:title=" ">
<polygon fill="white" stroke="black" points="1017,-384.5 1017,-403.5 1168,-403.5 1168,-384.5 1017,-384.5"/>
<text text-anchor="middle" x="1092.5" y="-391.5" font-family="Helvetica,sans-Serif" font-size="10.00">SmartMap&lt; FlexVariable &gt;</text>
</a>
</g>
</g>
<!-- Node28&#45;&gt;Node27 -->
<g id="edge29" class="edge">
<title>Node28&#45;&gt;Node27</title>
<path fill="none" stroke="midnightblue" d="M1178.37,-388.99C1218.43,-386.62 1264.79,-383.88 1298.83,-381.87"/>
<polygon fill="midnightblue" stroke="midnightblue" points="1178.11,-385.5 1168.33,-389.58 1178.52,-392.48 1178.11,-385.5"/>
</g>
<!-- Node29 -->
<g id="node29" class="node">
<title>Node29</title>
<g id="a_node29"><a xlink:title=" ">
<polygon fill="white" stroke="#bfbfbf" points="719,-403.5 719,-422.5 896,-422.5 896,-403.5 719,-403.5"/>
<text text-anchor="middle" x="807.5" y="-410.5" font-family="Helvetica,sans-Serif" font-size="10.00">map&lt; std::string, FlexVariable &gt;</text>
</a>
</g>
</g>
<!-- Node29&#45;&gt;Node28 -->
<g id="edge30" class="edge">
<title>Node29&#45;&gt;Node28</title>
<path fill="none" stroke="midnightblue" d="M906.2,-406.44C942.41,-404.01 982.86,-401.29 1016.71,-399.02"/>
<polygon fill="midnightblue" stroke="midnightblue" points="905.85,-402.96 896.1,-407.12 906.32,-409.94 905.85,-402.96"/>
</g>
<!-- Node30 -->
<g id="node30" class="node">
<title>Node30</title>
<g id="a_node30"><a xlink:href="classrack_1_1PolarODIM.html" target="_top" xlink:title="Metadata structure for single&#45;radar data (polar scans, volumes and products).">
<polygon fill="white" stroke="black" points="1416,-183.5 1416,-202.5 1484,-202.5 1484,-183.5 1416,-183.5"/>
<text text-anchor="middle" x="1450" y="-190.5" font-family="Helvetica,sans-Serif" font-size="10.00">PolarODIM</text>
</a>
</g>
</g>
<!-- Node30&#45;&gt;Node1 -->
<g id="edge32" class="edge">
<title>Node30&#45;&gt;Node1</title>
<path fill="none" stroke="#9a32cd" stroke-dasharray="5,2" d="M1494.46,-199.32C1523.67,-203.03 1563.07,-207 1598,-207 1598,-207 1598,-207 2069.5,-207 2102.24,-207 2138.85,-209.84 2167.82,-212.75"/>
<polygon fill="#9a32cd" stroke="#9a32cd" points="1494.56,-195.81 1484.19,-197.98 1493.65,-202.75 1494.56,-195.81"/>
<text text-anchor="middle" x="1786" y="-210" font-family="Helvetica,sans-Serif" font-size="10.00"> odimSrc</text>
</g>
<!-- Node31&#45;&gt;Node30 -->
<g id="edge33" class="edge">
<title>Node31&#45;&gt;Node30</title>
<path fill="none" stroke="midnightblue" d="M1124.57,-141.89C1191.19,-152.39 1347.28,-176.98 1415.78,-187.77"/>
<polygon fill="midnightblue" stroke="midnightblue" points="1125.1,-138.43 1114.67,-140.34 1124.01,-145.35 1125.1,-138.43"/>
</g>
<!-- Node32&#45;&gt;Node31 -->
<g id="edge34" class="edge">
<title>Node32&#45;&gt;Node31</title>
<path fill="none" stroke="midnightblue" d="M861.74,-67.32C900.28,-74.65 953.39,-85.95 999,-100 1024.13,-107.74 1052.02,-119.33 1070.55,-127.47"/>
<polygon fill="midnightblue" stroke="midnightblue" points="862.24,-63.85 851.77,-65.45 860.95,-70.73 862.24,-63.85"/>
</g>
<!-- Node33 -->
<g id="node33" class="node">
<title>Node33</title>
<g id="a_node33"><a xlink:href="classdrain_1_1ReferenceMap.html" target="_top" xlink:title=" ">
<polygon fill="white" stroke="black" points="512.5,-9.5 512.5,-28.5 599.5,-28.5 599.5,-9.5 512.5,-9.5"/>
<text text-anchor="middle" x="556" y="-16.5" font-family="Helvetica,sans-Serif" font-size="10.00">ReferenceMap</text>
</a>
</g>
</g>
<!-- Node33&#45;&gt;Node32 -->
<g id="edge35" class="edge">
<title>Node33&#45;&gt;Node32</title>
<path fill="none" stroke="midnightblue" d="M609.61,-27.22C655.26,-34.36 720.56,-44.57 763.23,-51.24"/>
<polygon fill="midnightblue" stroke="midnightblue" points="610.03,-23.75 599.61,-25.66 608.95,-30.66 610.03,-23.75"/>
</g>
<!-- Node34 -->
<g id="node34" class="node">
<title>Node34</title>
<g id="a_node34"><a xlink:href="classdrain_1_1SmartMap.html" target="_top" xlink:title=" ">
<polygon fill="white" stroke="black" points="206,-0.5 206,-19.5 349,-19.5 349,-0.5 206,-0.5"/>
<text text-anchor="middle" x="277.5" y="-7.5" font-family="Helvetica,sans-Serif" font-size="10.00">SmartMap&lt; Referencer &gt;</text>
</a>
</g>
</g>
<!-- Node34&#45;&gt;Node33 -->
<g id="edge36" class="edge">
<title>Node34&#45;&gt;Node33</title>
<path fill="none" stroke="midnightblue" d="M359.5,-12.64C409.54,-14.27 471.72,-16.29 512.34,-17.61"/>
<polygon fill="midnightblue" stroke="midnightblue" points="359.46,-9.13 349.35,-12.31 359.23,-16.13 359.46,-9.13"/>
</g>
<!-- Node35 -->
<g id="node35" class="node">
<title>Node35</title>
<g id="a_node35"><a xlink:title=" ">
<polygon fill="white" stroke="#bfbfbf" points="0,-0.5 0,-19.5 169,-19.5 169,-0.5 0,-0.5"/>
<text text-anchor="middle" x="84.5" y="-7.5" font-family="Helvetica,sans-Serif" font-size="10.00">map&lt; std::string, Referencer &gt;</text>
</a>
</g>
</g>
<!-- Node35&#45;&gt;Node34 -->
<g id="edge37" class="edge">
<title>Node35&#45;&gt;Node34</title>
<path fill="none" stroke="midnightblue" d="M179.35,-10C188.29,-10 197.25,-10 205.92,-10"/>
<polygon fill="midnightblue" stroke="midnightblue" points="179.28,-6.5 169.28,-10 179.28,-13.5 179.28,-6.5"/>
</g>
<!-- Node36&#45;&gt;Node31 -->
<g id="edge39" class="edge">
<title>Node36&#45;&gt;Node31</title>
<path fill="none" stroke="#9a32cd" stroke-dasharray="5,2" d="M487.25,-120.73C632.65,-124.65 981.2,-134.03 1070.42,-136.43"/>
<polygon fill="#9a32cd" stroke="#9a32cd" points="487.23,-117.23 477.14,-120.46 487.04,-124.23 487.23,-117.23"/>
<text text-anchor="middle" x="668" y="-130" font-family="Helvetica,sans-Serif" font-size="10.00"> resolution</text>
</g>
</g>
</svg>
        <g id="navigator" transform="translate(0 0)" fill="#404254">
                <rect fill="#f2f5e9" fill-opacity="0.5" stroke="#606060" stroke-width=".5" x="0" y="0" width="60" height="60"/>
                <use id="zoomplus" xlink:href="#zoomPlus" x="17" y="9" onmousedown="handleZoom(evt,'in')"/>
                <use id="zoomminus" xlink:href="#zoomMin" x="42" y="9" onmousedown="handleZoom(evt,'out')"/>
                <use id="reset" xlink:href="#resetDef" x="30" y="36" onmousedown="handleReset()"/>
                <g id="arrowUp" xlink:href="#dirArrow" transform="translate(30 24)" onmousedown="handlePan(0,-1)">
                  <use xlink:href="#rim" fill="#404040">
                        <set attributeName="fill" to="#808080" begin="arrowUp.mouseover" end="arrowUp.mouseout"/>
                  </use>
                  <path fill="none" stroke="white" stroke-width="1.5" d="M0,-3.0v7 M-2.5,-0.5L0,-3.0L2.5,-0.5"/>
                </g>
                <g id="arrowRight" xlink:href="#dirArrow" transform="rotate(90) translate(36 -43)" onmousedown="handlePan(1,0)">
                  <use xlink:href="#rim" fill="#404040">
                        <set attributeName="fill" to="#808080" begin="arrowRight.mouseover" end="arrowRight.mouseout"/>
                  </use>
                  <path fill="none" stroke="white" stroke-width="1.5" d="M0,-3.0v7 M-2.5,-0.5L0,-3.0L2.5,-0.5"/>
                </g>
                <g id="arrowDown" xlink:href="#dirArrow" transform="rotate(180) translate(-30 -48)" onmousedown="handlePan(0,1)">
                  <use xlink:href="#rim" fill="#404040">
                        <set attributeName="fill" to="#808080" begin="arrowDown.mouseover" end="arrowDown.mouseout"/>
                  </use>
                  <path fill="none" stroke="white" stroke-width="1.5" d="M0,-3.0v7 M-2.5,-0.5L0,-3.0L2.5,-0.5"/>
                </g>
                <g id="arrowLeft" xlink:href="#dirArrow" transform="rotate(270) translate(-36 17)" onmousedown="handlePan(-1,0)">
                  <use xlink:href="#rim" fill="#404040">
                        <set attributeName="fill" to="#808080" begin="arrowLeft.mouseover" end="arrowLeft.mouseout"/>
                  </use>
                  <path fill="none" stroke="white" stroke-width="1.5" d="M0,-3.0v7 M-2.5,-0.5L0,-3.0L2.5,-0.5"/>
                </g>
        </g>
        <svg viewBox="0 0 15 15" width="100%" height="30px" preserveAspectRatio="xMaxYMin meet">
         <g id="arrow_out" transform="scale(0.3 0.3)">
          <a xlink:href="classrack_1_1RadarWindowCore__coll__graph_org.svg" target="_base">
           <rect id="button" ry="5" rx="5" y="6" x="6" height="38" width="38"
                fill="#f2f5e9" fill-opacity="0.5" stroke="#606060" stroke-width="1.0"/>
           <path id="arrow"
             d="M 11.500037,31.436501 C 11.940474,20.09759 22.043105,11.32322 32.158766,21.979434 L 37.068811,17.246167 C 37.068811,17.246167 37.088388,32 37.088388,32 L 22.160133,31.978069 C 22.160133,31.978069 26.997745,27.140456 26.997745,27.140456 C 18.528582,18.264221 13.291696,25.230495 11.500037,31.436501 z"
             style="fill:#404040;"/>
          </a>
         </g>
        </svg>
</svg>
