<?xml version="1.0" encoding="UTF-8" standalone="no"?>
<!DOCTYPE svg PUBLIC "-//W3C//DTD SVG 1.1//EN"
 "http://www.w3.org/Graphics/SVG/1.1/DTD/svg11.dtd">
<!-- Generated by graphviz version 2.43.0 (0)
 -->
<!-- Title: WindowOp&lt; W &gt; Pages: 1 -->
<!--zoomable 409 -->
<svg id="main" version="1.1" xmlns="http://www.w3.org/2000/svg" xmlns:xlink="http://www.w3.org/1999/xlink" xml:space="preserve" onload="init(evt)">
<style type="text/css"><![CDATA[
.edge:hover path { stroke: red; }
.edge:hover polygon { stroke: red; fill: red; }
]]></style>
<script type="text/javascript"><![CDATA[
var edges = document.getElementsByTagName('g');
if (edges && edges.length) {
  for (var i=0;i<edges.length;i++) {
    if (edges[i].id.substr(0,4)=='edge') {
      edges[i].setAttribute('class','edge');
    }
  }
}
]]></script>
        <defs>
                <circle id="rim" cx="0" cy="0" r="7"/>
                <circle id="rim2" cx="0" cy="0" r="3.5"/>
                <g id="zoomPlus">
                        <use xlink:href="#rim" fill="#404040">
                                <set attributeName="fill" to="#808080" begin="zoomplus.mouseover" end="zoomplus.mouseout"/>
                        </use>
                        <path d="M-4,0h8M0,-4v8" fill="none" stroke="white" stroke-width="1.5" pointer-events="none"/>
                </g>
                <g id="zoomMin">
                        <use xlink:href="#rim" fill="#404040">
                                <set attributeName="fill" to="#808080" begin="zoomminus.mouseover" end="zoomminus.mouseout"/>
                        </use>
                        <path d="M-4,0h8" fill="none" stroke="white" stroke-width="1.5" pointer-events="none"/>
                </g>
                <g id="dirArrow">
                        <path fill="none" stroke="white" stroke-width="1.5" d="M0,-3.0v7 M-2.5,-0.5L0,-3.0L2.5,-0.5"/>
                </g>
               <g id="resetDef">
                       <use xlink:href="#rim2" fill="#404040">
                               <set attributeName="fill" to="#808080" begin="reset.mouseover" end="reset.mouseout"/>
                       </use>
               </g>
        </defs>

<script type="text/javascript">
var viewWidth = 2721;
var viewHeight = 409;
var sectionId = 'dynsection-1';
</script>
<script xlink:href="svgpan.js"/>
<svg id="graph" class="graph">
<g id="viewport">
<title>WindowOp&lt; W &gt;</title>
<polygon fill="white" stroke="transparent" points="-4,4 -4,-405 2717,-405 2717,4 -4,4"/>
<!-- Node1 -->
<g id="node1" class="node">
<title>Node1</title>
<g id="a_node1"><a xlink:title=" ">
<polygon fill="#bfbfbf" stroke="black" points="2612,-132.5 2612,-151.5 2713,-151.5 2713,-132.5 2612,-132.5"/>
<text text-anchor="middle" x="2662.5" y="-139.5" font-family="Helvetica,sans-Serif" font-size="10.00">WindowOp&lt; W &gt;</text>
</a>
</g>
</g>
<!-- Node2 -->
<g id="node2" class="node">
<title>Node2</title>
<g id="a_node2"><a xlink:href="classdrain_1_1image_1_1ImageOp.html" target="_top" xlink:title="Base class for image processing functions.">
<polygon fill="white" stroke="black" points="2306.5,-24.5 2306.5,-43.5 2367.5,-43.5 2367.5,-24.5 2306.5,-24.5"/>
<text text-anchor="middle" x="2337" y="-31.5" font-family="Helvetica,sans-Serif" font-size="10.00">ImageOp</text>
</a>
</g>
</g>
<!-- Node2&#45;&gt;Node1 -->
<g id="edge1" class="edge">
<title>Node2&#45;&gt;Node1</title>
<path fill="none" stroke="midnightblue" d="M2376.27,-46.78C2441.91,-68.69 2574.52,-112.96 2632.86,-132.44"/>
<polygon fill="midnightblue" stroke="midnightblue" points="2377.3,-43.43 2366.71,-43.58 2375.09,-50.07 2377.3,-43.43"/>
</g>
<!-- Node3 -->
<g id="node3" class="node">
<title>Node3</title>
<g id="a_node3"><a xlink:href="classdrain_1_1image_1_1ImageMod.html" target="_top" xlink:title="Class for operations that modify an existing image instead of producing a new image.">
<polygon fill="white" stroke="black" points="1874,-0.5 1874,-19.5 1942,-19.5 1942,-0.5 1874,-0.5"/>
<text text-anchor="middle" x="1908" y="-7.5" font-family="Helvetica,sans-Serif" font-size="10.00">ImageMod</text>
</a>
</g>
</g>
<!-- Node3&#45;&gt;Node2 -->
<g id="edge2" class="edge">
<title>Node3&#45;&gt;Node2</title>
<path fill="none" stroke="midnightblue" d="M1952.18,-12.43C2038.89,-17.3 2232.22,-28.17 2306.32,-32.33"/>
<polygon fill="midnightblue" stroke="midnightblue" points="1952.33,-8.93 1942.15,-11.86 1951.94,-15.92 1952.33,-8.93"/>
</g>
<!-- Node4 -->
<g id="node4" class="node">
<title>Node4</title>
<g id="a_node4"><a xlink:href="classdrain_1_1BeanLike.html" target="_top" xlink:title="Something which has a name, a description and possibly some parameters of varying type.">
<polygon fill="white" stroke="black" points="1721.5,-15.5 1721.5,-34.5 1782.5,-34.5 1782.5,-15.5 1721.5,-15.5"/>
<text text-anchor="middle" x="1752" y="-22.5" font-family="Helvetica,sans-Serif" font-size="10.00">BeanLike</text>
</a>
</g>
</g>
<!-- Node4&#45;&gt;Node3 -->
<g id="edge3" class="edge">
<title>Node4&#45;&gt;Node3</title>
<path fill="none" stroke="midnightblue" d="M1792.67,-21.14C1817.87,-18.68 1850.11,-15.54 1873.93,-13.22"/>
<polygon fill="midnightblue" stroke="midnightblue" points="1792.31,-17.65 1782.69,-22.11 1792.98,-24.62 1792.31,-17.65"/>
</g>
<!-- Node39 -->
<g id="node39" class="node">
<title>Node39</title>
<g id="a_node39"><a xlink:href="classdrain_1_1Functor.html" target="_top" xlink:title="Base class for sequential computations. Optional scaling utilities.">
<polygon fill="white" stroke="black" points="1881.5,-38.5 1881.5,-57.5 1934.5,-57.5 1934.5,-38.5 1881.5,-38.5"/>
<text text-anchor="middle" x="1908" y="-45.5" font-family="Helvetica,sans-Serif" font-size="10.00">Functor</text>
</a>
</g>
</g>
<!-- Node4&#45;&gt;Node39 -->
<g id="edge41" class="edge">
<title>Node4&#45;&gt;Node39</title>
<path fill="none" stroke="midnightblue" d="M1792.94,-30.97C1820.89,-35.14 1857.39,-40.59 1881.48,-44.19"/>
<polygon fill="midnightblue" stroke="midnightblue" points="1793.1,-27.45 1782.69,-29.43 1792.07,-34.37 1793.1,-27.45"/>
</g>
<!-- Node5 -->
<g id="node5" class="node">
<title>Node5</title>
<g id="a_node5"><a xlink:href="classdrain_1_1ReferenceMap.html" target="_top" xlink:title=" ">
<polygon fill="white" stroke="black" points="1466.5,-15.5 1466.5,-34.5 1553.5,-34.5 1553.5,-15.5 1466.5,-15.5"/>
<text text-anchor="middle" x="1510" y="-22.5" font-family="Helvetica,sans-Serif" font-size="10.00">ReferenceMap</text>
</a>
</g>
</g>
<!-- Node5&#45;&gt;Node4 -->
<g id="edge4" class="edge">
<title>Node5&#45;&gt;Node4</title>
<path fill="none" stroke="#9a32cd" stroke-dasharray="5,2" d="M1563.91,-25C1612.25,-25 1682.01,-25 1721.26,-25"/>
<polygon fill="#9a32cd" stroke="#9a32cd" points="1563.63,-21.5 1553.63,-25 1563.63,-28.5 1563.63,-21.5"/>
<text text-anchor="middle" x="1636" y="-28" font-family="Helvetica,sans-Serif" font-size="10.00"> parameters</text>
</g>
<!-- Node6 -->
<g id="node6" class="node">
<title>Node6</title>
<g id="a_node6"><a xlink:href="classdrain_1_1SmartMap.html" target="_top" xlink:title=" ">
<polygon fill="white" stroke="black" points="1186,-15.5 1186,-34.5 1329,-34.5 1329,-15.5 1186,-15.5"/>
<text text-anchor="middle" x="1257.5" y="-22.5" font-family="Helvetica,sans-Serif" font-size="10.00">SmartMap&lt; Referencer &gt;</text>
</a>
</g>
</g>
<!-- Node6&#45;&gt;Node5 -->
<g id="edge5" class="edge">
<title>Node6&#45;&gt;Node5</title>
<path fill="none" stroke="midnightblue" d="M1339.54,-25C1381.73,-25 1431.59,-25 1466.26,-25"/>
<polygon fill="midnightblue" stroke="midnightblue" points="1339.28,-21.5 1329.28,-25 1339.28,-28.5 1339.28,-21.5"/>
</g>
<!-- Node7 -->
<g id="node7" class="node">
<title>Node7</title>
<g id="a_node7"><a xlink:title=" ">
<polygon fill="white" stroke="#bfbfbf" points="886,-15.5 886,-34.5 1055,-34.5 1055,-15.5 886,-15.5"/>
<text text-anchor="middle" x="970.5" y="-22.5" font-family="Helvetica,sans-Serif" font-size="10.00">map&lt; std::string, Referencer &gt;</text>
</a>
</g>
</g>
<!-- Node7&#45;&gt;Node6 -->
<g id="edge6" class="edge">
<title>Node7&#45;&gt;Node6</title>
<path fill="none" stroke="midnightblue" d="M1065.21,-25C1104.53,-25 1149.48,-25 1185.92,-25"/>
<polygon fill="midnightblue" stroke="midnightblue" points="1065.08,-21.5 1055.08,-25 1065.08,-28.5 1065.08,-21.5"/>
</g>
<!-- Node8 -->
<g id="node8" class="node">
<title>Node8</title>
<g id="a_node8"><a xlink:href="classdrain_1_1image_1_1Window.html" target="_top" xlink:title=" ">
<polygon fill="white" stroke="black" points="2402,-181.5 2402,-200.5 2551,-200.5 2551,-181.5 2402,-181.5"/>
<text text-anchor="middle" x="2476.5" y="-188.5" font-family="Helvetica,sans-Serif" font-size="10.00">Window&lt; WindowConfig &gt;</text>
</a>
</g>
</g>
<!-- Node8&#45;&gt;Node1 -->
<g id="edge7" class="edge">
<title>Node8&#45;&gt;Node1</title>
<path fill="none" stroke="#9a32cd" stroke-dasharray="5,2" d="M2523.31,-178.8C2554.96,-170.37 2596.45,-159.32 2625.68,-151.54"/>
<polygon fill="#9a32cd" stroke="#9a32cd" points="2522.18,-175.48 2513.41,-181.44 2523.98,-182.24 2522.18,-175.48"/>
<text text-anchor="middle" x="2581.5" y="-169" font-family="Helvetica,sans-Serif" font-size="10.00"> conf</text>
</g>
<!-- Node9 -->
<g id="node9" class="node">
<title>Node9</title>
<g id="a_node9"><a xlink:href="classdrain_1_1image_1_1WindowCore.html" target="_top" xlink:title="Container for source data (input) and destination data (output). May also contain metadata of them.">
<polygon fill="white" stroke="black" points="2141.5,-361.5 2141.5,-380.5 2219.5,-380.5 2219.5,-361.5 2141.5,-361.5"/>
<text text-anchor="middle" x="2180.5" y="-368.5" font-family="Helvetica,sans-Serif" font-size="10.00">WindowCore</text>
</a>
</g>
</g>
<!-- Node9&#45;&gt;Node8 -->
<g id="edge8" class="edge">
<title>Node9&#45;&gt;Node8</title>
<path fill="none" stroke="midnightblue" d="M2229.66,-373C2273.43,-372.51 2338,-365.82 2384,-335 2435.18,-300.71 2463.6,-227.08 2472.45,-200.67"/>
<polygon fill="midnightblue" stroke="midnightblue" points="2229.55,-369.5 2219.56,-373 2229.56,-376.5 2229.55,-369.5"/>
</g>
<!-- Node10 -->
<g id="node10" class="node">
<title>Node10</title>
<g id="a_node10"><a xlink:href="classdrain_1_1image_1_1WindowCoreBase.html" target="_top" xlink:title="Provides splitting frames.">
<polygon fill="white" stroke="black" points="1857,-381.5 1857,-400.5 1959,-400.5 1959,-381.5 1857,-381.5"/>
<text text-anchor="middle" x="1908" y="-388.5" font-family="Helvetica,sans-Serif" font-size="10.00">WindowCoreBase</text>
</a>
</g>
</g>
<!-- Node10&#45;&gt;Node9 -->
<g id="edge9" class="edge">
<title>Node10&#45;&gt;Node9</title>
<path fill="none" stroke="midnightblue" d="M1969.45,-386.53C2022.03,-382.64 2096.62,-377.13 2141.31,-373.82"/>
<polygon fill="midnightblue" stroke="midnightblue" points="1968.96,-383.06 1959.25,-387.29 1969.48,-390.04 1968.96,-383.06"/>
</g>
<!-- Node11 -->
<g id="node11" class="node">
<title>Node11</title>
<g id="a_node11"><a xlink:href="classdrain_1_1image_1_1ImageView.html" target="_top" xlink:title="ImageFrame that also has channels.">
<polygon fill="white" stroke="black" points="1872.5,-328.5 1872.5,-347.5 1943.5,-347.5 1943.5,-328.5 1872.5,-328.5"/>
<text text-anchor="middle" x="1908" y="-335.5" font-family="Helvetica,sans-Serif" font-size="10.00">ImageView</text>
</a>
</g>
</g>
<!-- Node11&#45;&gt;Node9 -->
<g id="edge10" class="edge">
<title>Node11&#45;&gt;Node9</title>
<path fill="none" stroke="#9a32cd" stroke-dasharray="5,2" d="M1953.64,-341.26C1986.23,-343.86 2031.44,-347.89 2071,-353 2094.48,-356.03 2120.67,-360.35 2141.44,-364"/>
<polygon fill="#9a32cd" stroke="#9a32cd" points="1953.77,-337.76 1943.53,-340.47 1953.22,-344.74 1953.77,-337.76"/>
<text text-anchor="middle" x="2024" y="-367" font-family="Helvetica,sans-Serif" font-size="10.00"> src</text>
<text text-anchor="middle" x="2024" y="-356" font-family="Helvetica,sans-Serif" font-size="10.00">dst</text>
</g>
<!-- Node12 -->
<g id="node12" class="node">
<title>Node12</title>
<g id="a_node12"><a xlink:href="classdrain_1_1image_1_1MultiChannel.html" target="_top" xlink:title="Multi&#45;channel ImageFrame.">
<polygon fill="white" stroke="black" points="1711.5,-291.5 1711.5,-310.5 1792.5,-310.5 1792.5,-291.5 1711.5,-291.5"/>
<text text-anchor="middle" x="1752" y="-298.5" font-family="Helvetica,sans-Serif" font-size="10.00">MultiChannel</text>
</a>
</g>
</g>
<!-- Node12&#45;&gt;Node11 -->
<g id="edge11" class="edge">
<title>Node12&#45;&gt;Node11</title>
<path fill="none" stroke="midnightblue" d="M1802.51,-312.9C1825.32,-318.38 1851.84,-324.75 1872.45,-329.7"/>
<polygon fill="midnightblue" stroke="midnightblue" points="1803.2,-309.46 1792.66,-310.53 1801.56,-316.27 1803.2,-309.46"/>
</g>
<!-- Node13 -->
<g id="node13" class="node">
<title>Node13</title>
<g id="a_node13"><a xlink:href="classdrain_1_1image_1_1ImageFrame.html" target="_top" xlink:title="Image with static geometry.">
<polygon fill="white" stroke="black" points="1471,-222.5 1471,-241.5 1549,-241.5 1549,-222.5 1471,-222.5"/>
<text text-anchor="middle" x="1510" y="-229.5" font-family="Helvetica,sans-Serif" font-size="10.00">ImageFrame</text>
</a>
</g>
</g>
<!-- Node13&#45;&gt;Node12 -->
<g id="edge12" class="edge">
<title>Node13&#45;&gt;Node12</title>
<path fill="none" stroke="midnightblue" d="M1553.99,-244.36C1600.96,-257.86 1675.16,-279.2 1717.84,-291.47"/>
<polygon fill="midnightblue" stroke="midnightblue" points="1554.7,-240.92 1544.12,-241.52 1552.76,-247.65 1554.7,-240.92"/>
</g>
<!-- Node14 -->
<g id="node14" class="node">
<title>Node14</title>
<g id="a_node14"><a xlink:href="classdrain_1_1image_1_1ImageLike.html" target="_top" xlink:title="A base class for images.">
<polygon fill="white" stroke="black" points="1224,-197.5 1224,-216.5 1291,-216.5 1291,-197.5 1224,-197.5"/>
<text text-anchor="middle" x="1257.5" y="-204.5" font-family="Helvetica,sans-Serif" font-size="10.00">ImageLike</text>
</a>
</g>
</g>
<!-- Node14&#45;&gt;Node13 -->
<g id="edge13" class="edge">
<title>Node14&#45;&gt;Node13</title>
<path fill="none" stroke="midnightblue" d="M1301.25,-211.27C1348.9,-216.02 1425.24,-223.64 1470.92,-228.2"/>
<polygon fill="midnightblue" stroke="midnightblue" points="1301.55,-207.78 1291.25,-210.27 1300.85,-214.74 1301.55,-207.78"/>
</g>
<!-- Node15 -->
<g id="node15" class="node">
<title>Node15</title>
<g id="a_node15"><a xlink:href="classdrain_1_1image_1_1ImageConf.html" target="_top" xlink:title="Struct for image (excluding data)">
<polygon fill="white" stroke="black" points="935.5,-196.5 935.5,-215.5 1005.5,-215.5 1005.5,-196.5 935.5,-196.5"/>
<text text-anchor="middle" x="970.5" y="-203.5" font-family="Helvetica,sans-Serif" font-size="10.00">ImageConf</text>
</a>
</g>
</g>
<!-- Node15&#45;&gt;Node14 -->
<g id="edge14" class="edge">
<title>Node15&#45;&gt;Node14</title>
<path fill="none" stroke="#9a32cd" stroke-dasharray="5,2" d="M1015.83,-206.16C1073.37,-206.36 1172.45,-206.71 1223.69,-206.88"/>
<polygon fill="#9a32cd" stroke="#9a32cd" points="1015.61,-202.65 1005.59,-206.12 1015.58,-209.65 1015.61,-202.65"/>
<text text-anchor="middle" x="1120.5" y="-209" font-family="Helvetica,sans-Serif" font-size="10.00"> conf</text>
</g>
<!-- Node16 -->
<g id="node16" class="node">
<title>Node16</title>
<g id="a_node16"><a xlink:href="classdrain_1_1image_1_1Encoding.html" target="_top" xlink:title=" ">
<polygon fill="white" stroke="black" points="646,-289.5 646,-308.5 707,-308.5 707,-289.5 646,-289.5"/>
<text text-anchor="middle" x="676.5" y="-296.5" font-family="Helvetica,sans-Serif" font-size="10.00">Encoding</text>
</a>
</g>
</g>
<!-- Node16&#45;&gt;Node15 -->
<g id="edge15" class="edge">
<title>Node16&#45;&gt;Node15</title>
<path fill="none" stroke="midnightblue" d="M717.34,-291.52C732.38,-288.39 749.59,-284.44 765,-280 831.94,-260.71 908.61,-230.79 946.22,-215.58"/>
<polygon fill="midnightblue" stroke="midnightblue" points="716.42,-288.13 707.31,-293.55 717.81,-294.99 716.42,-288.13"/>
</g>
<!-- Node17 -->
<g id="node17" class="node">
<title>Node17</title>
<g id="a_node17"><a xlink:href="classdrain_1_1ValueScaling.html" target="_top" xlink:title="Linear scaling and physical range for image intensities.">
<polygon fill="white" stroke="black" points="404,-315.5 404,-334.5 484,-334.5 484,-315.5 404,-315.5"/>
<text text-anchor="middle" x="444" y="-322.5" font-family="Helvetica,sans-Serif" font-size="10.00">ValueScaling</text>
</a>
</g>
</g>
<!-- Node17&#45;&gt;Node16 -->
<g id="edge16" class="edge">
<title>Node17&#45;&gt;Node16</title>
<path fill="none" stroke="midnightblue" d="M494.15,-319.46C540.16,-314.27 607.4,-306.68 645.76,-302.35"/>
<polygon fill="midnightblue" stroke="midnightblue" points="493.65,-315.99 484.1,-320.59 494.43,-322.95 493.65,-315.99"/>
</g>
<!-- Node18 -->
<g id="node18" class="node">
<title>Node18</title>
<g id="a_node18"><a xlink:href="classdrain_1_1UniTuple.html" target="_top" xlink:title=" ">
<polygon fill="white" stroke="black" points="163,-331.5 163,-350.5 289,-350.5 289,-331.5 163,-331.5"/>
<text text-anchor="middle" x="226" y="-338.5" font-family="Helvetica,sans-Serif" font-size="10.00">UniTuple&lt; double, 4 &gt;</text>
</a>
</g>
</g>
<!-- Node18&#45;&gt;Node17 -->
<g id="edge17" class="edge">
<title>Node18&#45;&gt;Node17</title>
<path fill="none" stroke="midnightblue" d="M299.36,-335.64C334.32,-333.05 374.9,-330.04 403.99,-327.89"/>
<polygon fill="midnightblue" stroke="midnightblue" points="298.9,-332.16 289.19,-336.39 299.42,-339.15 298.9,-332.16"/>
</g>
<!-- Node19 -->
<g id="node19" class="node">
<title>Node19</title>
<g id="a_node19"><a xlink:href="classdrain_1_1Range.html" target="_top" xlink:title=" ">
<polygon fill="white" stroke="black" points="174.5,-293.5 174.5,-312.5 277.5,-312.5 277.5,-293.5 174.5,-293.5"/>
<text text-anchor="middle" x="226" y="-300.5" font-family="Helvetica,sans-Serif" font-size="10.00">Range&lt; double &gt;</text>
</a>
</g>
</g>
<!-- Node19&#45;&gt;Node17 -->
<g id="edge18" class="edge">
<title>Node19&#45;&gt;Node17</title>
<path fill="none" stroke="#9a32cd" stroke-dasharray="5,2" d="M287.87,-308.46C311.91,-310.68 339.77,-313.36 365,-316 377.61,-317.32 391.35,-318.87 403.74,-320.31"/>
<polygon fill="#9a32cd" stroke="#9a32cd" points="288.1,-304.96 277.82,-307.53 287.46,-311.93 288.1,-304.96"/>
<text text-anchor="middle" x="336" y="-319" font-family="Helvetica,sans-Serif" font-size="10.00"> physRange</text>
</g>
<!-- Node20 -->
<g id="node20" class="node">
<title>Node20</title>
<g id="a_node20"><a xlink:href="classdrain_1_1UniTuple.html" target="_top" xlink:title=" ">
<polygon fill="white" stroke="black" points="0,-293.5 0,-312.5 126,-312.5 126,-293.5 0,-293.5"/>
<text text-anchor="middle" x="63" y="-300.5" font-family="Helvetica,sans-Serif" font-size="10.00">UniTuple&lt; double, 2 &gt;</text>
</a>
</g>
</g>
<!-- Node20&#45;&gt;Node19 -->
<g id="edge19" class="edge">
<title>Node20&#45;&gt;Node19</title>
<path fill="none" stroke="midnightblue" d="M136.44,-303C149.24,-303 162.33,-303 174.37,-303"/>
<polygon fill="midnightblue" stroke="midnightblue" points="136.25,-299.5 126.25,-303 136.25,-306.5 136.25,-299.5"/>
</g>
<!-- Node21 -->
<g id="node21" class="node">
<title>Node21</title>
<g id="a_node21"><a xlink:href="classdrain_1_1Caster.html" target="_top" xlink:title=" ">
<polygon fill="white" stroke="black" points="420,-275.5 420,-294.5 468,-294.5 468,-275.5 420,-275.5"/>
<text text-anchor="middle" x="444" y="-282.5" font-family="Helvetica,sans-Serif" font-size="10.00">Caster</text>
</a>
</g>
</g>
<!-- Node21&#45;&gt;Node16 -->
<g id="edge20" class="edge">
<title>Node21&#45;&gt;Node16</title>
<path fill="none" stroke="#9a32cd" stroke-dasharray="5,2" d="M478.51,-287.04C523.57,-289.77 602.99,-294.6 645.94,-297.2"/>
<polygon fill="#9a32cd" stroke="#9a32cd" points="478.56,-283.53 468.37,-286.42 478.14,-290.52 478.56,-283.53"/>
<text text-anchor="middle" x="546.5" y="-295" font-family="Helvetica,sans-Serif" font-size="10.00"> caster</text>
</g>
<!-- Node32 -->
<g id="node32" class="node">
<title>Node32</title>
<g id="a_node32"><a xlink:href="classdrain_1_1Castable.html" target="_top" xlink:title=" ">
<polygon fill="white" stroke="black" points="647,-251.5 647,-270.5 706,-270.5 706,-251.5 647,-251.5"/>
<text text-anchor="middle" x="676.5" y="-258.5" font-family="Helvetica,sans-Serif" font-size="10.00">Castable</text>
</a>
</g>
</g>
<!-- Node21&#45;&gt;Node32 -->
<g id="edge33" class="edge">
<title>Node21&#45;&gt;Node32</title>
<path fill="none" stroke="#9a32cd" stroke-dasharray="5,2" d="M478.21,-279.91C492.04,-277.89 508.27,-275.66 523,-274 566.04,-269.13 616.09,-265.19 646.78,-262.97"/>
<polygon fill="#9a32cd" stroke="#9a32cd" points="477.55,-276.47 468.17,-281.39 478.57,-283.39 477.55,-276.47"/>
<text text-anchor="middle" x="546.5" y="-277" font-family="Helvetica,sans-Serif" font-size="10.00"> caster</text>
</g>
<!-- Node22 -->
<g id="node22" class="node">
<title>Node22</title>
<g id="a_node22"><a xlink:href="classdrain_1_1image_1_1Geometry.html" target="_top" xlink:title=" ">
<polygon fill="white" stroke="black" points="644,-196.5 644,-215.5 709,-215.5 709,-196.5 644,-196.5"/>
<text text-anchor="middle" x="676.5" y="-203.5" font-family="Helvetica,sans-Serif" font-size="10.00">Geometry</text>
</a>
</g>
</g>
<!-- Node22&#45;&gt;Node15 -->
<g id="edge21" class="edge">
<title>Node22&#45;&gt;Node15</title>
<path fill="none" stroke="midnightblue" d="M719.33,-206C777.49,-206 881.69,-206 935.41,-206"/>
<polygon fill="midnightblue" stroke="midnightblue" points="719.03,-202.5 709.03,-206 719.03,-209.5 719.03,-202.5"/>
</g>
<!-- Node23 -->
<g id="node23" class="node">
<title>Node23</title>
<g id="a_node23"><a xlink:href="classdrain_1_1UniTuple.html" target="_top" xlink:title=" ">
<polygon fill="white" stroke="black" points="383,-234.5 383,-253.5 505,-253.5 505,-234.5 383,-234.5"/>
<text text-anchor="middle" x="444" y="-241.5" font-family="Helvetica,sans-Serif" font-size="10.00">UniTuple&lt; size_t, 4 &gt;</text>
</a>
</g>
</g>
<!-- Node23&#45;&gt;Node22 -->
<g id="edge22" class="edge">
<title>Node23&#45;&gt;Node22</title>
<path fill="none" stroke="midnightblue" d="M512.78,-232.83C556.11,-225.68 610.28,-216.75 643.89,-211.21"/>
<polygon fill="midnightblue" stroke="midnightblue" points="512.16,-229.38 502.87,-234.46 513.3,-236.29 512.16,-229.38"/>
</g>
<!-- Node24 -->
<g id="node24" class="node">
<title>Node24</title>
<g id="a_node24"><a xlink:href="classdrain_1_1Frame2D.html" target="_top" xlink:title=" ">
<polygon fill="white" stroke="black" points="388,-158.5 388,-177.5 500,-177.5 500,-158.5 388,-158.5"/>
<text text-anchor="middle" x="444" y="-165.5" font-family="Helvetica,sans-Serif" font-size="10.00">Frame2D&lt; size_t &gt;</text>
</a>
</g>
</g>
<!-- Node24&#45;&gt;Node22 -->
<g id="edge23" class="edge">
<title>Node24&#45;&gt;Node22</title>
<path fill="none" stroke="#9a32cd" stroke-dasharray="5,2" d="M510.19,-178.75C553.89,-185.95 609.5,-195.12 643.79,-200.77"/>
<polygon fill="#9a32cd" stroke="#9a32cd" points="510.65,-175.28 500.21,-177.1 509.51,-182.18 510.65,-175.28"/>
<text text-anchor="middle" x="546.5" y="-191" font-family="Helvetica,sans-Serif" font-size="10.00"> area</text>
</g>
<!-- Node25 -->
<g id="node25" class="node">
<title>Node25</title>
<g id="a_node25"><a xlink:href="classdrain_1_1UniTuple.html" target="_top" xlink:title=" ">
<polygon fill="white" stroke="black" points="165,-174.5 165,-193.5 287,-193.5 287,-174.5 165,-174.5"/>
<text text-anchor="middle" x="226" y="-181.5" font-family="Helvetica,sans-Serif" font-size="10.00">UniTuple&lt; size_t, 2 &gt;</text>
</a>
</g>
</g>
<!-- Node25&#45;&gt;Node24 -->
<g id="edge24" class="edge">
<title>Node25&#45;&gt;Node24</title>
<path fill="none" stroke="midnightblue" d="M297.37,-178.79C326.77,-176.61 360.42,-174.12 387.96,-172.08"/>
<polygon fill="midnightblue" stroke="midnightblue" points="296.88,-175.31 287.17,-179.54 297.4,-182.29 296.88,-175.31"/>
</g>
<!-- Node26 -->
<g id="node26" class="node">
<title>Node26</title>
<g id="a_node26"><a xlink:href="classdrain_1_1image_1_1ChannelGeometry.html" target="_top" xlink:title=" ">
<polygon fill="white" stroke="black" points="391.5,-196.5 391.5,-215.5 496.5,-215.5 496.5,-196.5 391.5,-196.5"/>
<text text-anchor="middle" x="444" y="-203.5" font-family="Helvetica,sans-Serif" font-size="10.00">ChannelGeometry</text>
</a>
</g>
</g>
<!-- Node25&#45;&gt;Node26 -->
<g id="edge26" class="edge">
<title>Node25&#45;&gt;Node26</title>
<path fill="none" stroke="midnightblue" d="M297.34,-191.16C327.92,-194.28 363.09,-197.86 391.22,-200.73"/>
<polygon fill="midnightblue" stroke="midnightblue" points="297.47,-187.66 287.17,-190.13 296.76,-194.62 297.47,-187.66"/>
</g>
<!-- Node26&#45;&gt;Node22 -->
<g id="edge25" class="edge">
<title>Node26&#45;&gt;Node22</title>
<path fill="none" stroke="#9a32cd" stroke-dasharray="5,2" d="M506.79,-206C550.98,-206 608.62,-206 643.81,-206"/>
<polygon fill="#9a32cd" stroke="#9a32cd" points="506.73,-202.5 496.73,-206 506.73,-209.5 506.73,-202.5"/>
<text text-anchor="middle" x="546.5" y="-209" font-family="Helvetica,sans-Serif" font-size="10.00"> channels</text>
</g>
<!-- Node27 -->
<g id="node27" class="node">
<title>Node27</title>
<g id="a_node27"><a xlink:href="classdrain_1_1image_1_1CoordinatePolicy.html" target="_top" xlink:title="Policies for coordinate underflows and overflows.">
<polygon fill="white" stroke="black" points="627,-114.5 627,-133.5 726,-133.5 726,-114.5 627,-114.5"/>
<text text-anchor="middle" x="676.5" y="-121.5" font-family="Helvetica,sans-Serif" font-size="10.00">CoordinatePolicy</text>
</a>
</g>
</g>
<!-- Node27&#45;&gt;Node15 -->
<g id="edge27" class="edge">
<title>Node27&#45;&gt;Node15</title>
<path fill="none" stroke="#9a32cd" stroke-dasharray="5,2" d="M721.28,-136.29C779.88,-152.75 882.6,-181.6 935.65,-196.49"/>
<polygon fill="#9a32cd" stroke="#9a32cd" points="722.14,-132.9 711.57,-133.57 720.25,-139.64 722.14,-132.9"/>
<text text-anchor="middle" x="825.5" y="-180" font-family="Helvetica,sans-Serif" font-size="10.00"> coordinatePolicy</text>
</g>
<!-- Node49 -->
<g id="node49" class="node">
<title>Node49</title>
<g id="a_node49"><a xlink:href="classdrain_1_1image_1_1CoordinateHandler2D.html" target="_top" xlink:title=" ">
<polygon fill="white" stroke="black" points="2119.5,-240.5 2119.5,-259.5 2241.5,-259.5 2241.5,-240.5 2119.5,-240.5"/>
<text text-anchor="middle" x="2180.5" y="-247.5" font-family="Helvetica,sans-Serif" font-size="10.00">CoordinateHandler2D</text>
</a>
</g>
</g>
<!-- Node27&#45;&gt;Node49 -->
<g id="edge56" class="edge">
<title>Node27&#45;&gt;Node49</title>
<path fill="none" stroke="#9a32cd" stroke-dasharray="5,2" d="M736.31,-124C795.27,-124 888.68,-124 969.5,-124 969.5,-124 969.5,-124 1909,-124 1981.27,-124 2017.29,-89.65 2071,-138 2102.29,-166.17 2059.47,-201 2089,-231 2097.22,-239.35 2108.11,-244.49 2119.48,-247.56"/>
<polygon fill="#9a32cd" stroke="#9a32cd" points="736.07,-120.5 726.07,-124 736.07,-127.5 736.07,-120.5"/>
<text text-anchor="middle" x="1510" y="-127" font-family="Helvetica,sans-Serif" font-size="10.00"> policy</text>
</g>
<!-- Node28 -->
<g id="node28" class="node">
<title>Node28</title>
<g id="a_node28"><a xlink:href="classdrain_1_1UniTuple.html" target="_top" xlink:title=" ">
<polygon fill="white" stroke="black" points="385.5,-109 385.5,-139 502.5,-139 502.5,-109 385.5,-109"/>
<text text-anchor="start" x="393.5" y="-127" font-family="Helvetica,sans-Serif" font-size="10.00">UniTuple&lt; coord_pol</text>
<text text-anchor="middle" x="444" y="-116" font-family="Helvetica,sans-Serif" font-size="10.00">_t, 4 &gt;</text>
</a>
</g>
</g>
<!-- Node28&#45;&gt;Node27 -->
<g id="edge28" class="edge">
<title>Node28&#45;&gt;Node27</title>
<path fill="none" stroke="midnightblue" d="M512.67,-124C549.28,-124 593.66,-124 626.84,-124"/>
<polygon fill="midnightblue" stroke="midnightblue" points="512.57,-120.5 502.57,-124 512.57,-127.5 512.57,-120.5"/>
</g>
<!-- Node29 -->
<g id="node29" class="node">
<title>Node29</title>
<g id="a_node29"><a xlink:href="classdrain_1_1Dictionary2.html" target="_top" xlink:title="Two&#45;way mapping between strings and objects of template class T.">
<polygon fill="white" stroke="black" points="386.5,-70.5 386.5,-89.5 501.5,-89.5 501.5,-70.5 386.5,-70.5"/>
<text text-anchor="middle" x="444" y="-77.5" font-family="Helvetica,sans-Serif" font-size="10.00">Dictionary2&lt; K, V &gt;</text>
</a>
</g>
</g>
<!-- Node29&#45;&gt;Node27 -->
<g id="edge29" class="edge">
<title>Node29&#45;&gt;Node27</title>
<path fill="none" stroke="#9a32cd" stroke-dasharray="5,2" d="M504.91,-91.44C542.83,-98.67 591.22,-107.91 626.77,-114.7"/>
<polygon fill="#9a32cd" stroke="#9a32cd" points="505.49,-87.98 495.02,-89.55 504.18,-94.86 505.49,-87.98"/>
<text text-anchor="middle" x="546.5" y="-106" font-family="Helvetica,sans-Serif" font-size="10.00"> dict</text>
</g>
<!-- Node30 -->
<g id="node30" class="node">
<title>Node30</title>
<g id="a_node30"><a xlink:title=" ">
<polygon fill="white" stroke="#bfbfbf" points="174,-65 174,-95 278,-95 278,-65 174,-65"/>
<text text-anchor="start" x="182" y="-83" font-family="Helvetica,sans-Serif" font-size="10.00">list&lt; std::pair&lt; K,</text>
<text text-anchor="middle" x="226" y="-72" font-family="Helvetica,sans-Serif" font-size="10.00"> V &gt; &gt;</text>
</a>
</g>
</g>
<!-- Node30&#45;&gt;Node29 -->
<g id="edge30" class="edge">
<title>Node30&#45;&gt;Node29</title>
<path fill="none" stroke="midnightblue" d="M288.39,-80C319.23,-80 356.35,-80 386.48,-80"/>
<polygon fill="midnightblue" stroke="midnightblue" points="288.19,-76.5 278.19,-80 288.19,-83.5 288.19,-76.5"/>
</g>
<!-- Node31 -->
<g id="node31" class="node">
<title>Node31</title>
<g id="a_node31"><a xlink:href="classdrain_1_1CastableIterator.html" target="_top" xlink:title=" ">
<polygon fill="white" stroke="black" points="1073,-246.5 1073,-265.5 1168,-265.5 1168,-246.5 1073,-246.5"/>
<text text-anchor="middle" x="1120.5" y="-253.5" font-family="Helvetica,sans-Serif" font-size="10.00">CastableIterator</text>
</a>
</g>
</g>
<!-- Node31&#45;&gt;Node13 -->
<g id="edge31" class="edge">
<title>Node31&#45;&gt;Node13</title>
<path fill="none" stroke="#9a32cd" stroke-dasharray="5,2" d="M1178.64,-252.46C1258.79,-247.5 1402.43,-238.6 1470.81,-234.37"/>
<polygon fill="#9a32cd" stroke="#9a32cd" points="1178.01,-248.99 1168.24,-253.11 1178.44,-255.98 1178.01,-248.99"/>
<text text-anchor="middle" x="1257.5" y="-265" font-family="Helvetica,sans-Serif" font-size="10.00"> segmentEnd</text>
<text text-anchor="middle" x="1257.5" y="-254" font-family="Helvetica,sans-Serif" font-size="10.00">segmentBegin</text>
</g>
<!-- Node32&#45;&gt;Node31 -->
<g id="edge32" class="edge">
<title>Node32&#45;&gt;Node31</title>
<path fill="none" stroke="darkgreen" d="M716.46,-260.56C797.82,-259.64 985.47,-257.52 1072.99,-256.53"/>
<polygon fill="darkgreen" stroke="darkgreen" points="716.12,-257.06 706.16,-260.68 716.2,-264.06 716.12,-257.06"/>
</g>
<!-- Node33 -->
<g id="node33" class="node">
<title>Node33</title>
<g id="a_node33"><a xlink:href="classdrain_1_1FlexVariableMap.html" target="_top" xlink:title="A map of FlexVariable:s.">
<polygon fill="white" stroke="black" points="1208,-76.5 1208,-95.5 1307,-95.5 1307,-76.5 1208,-76.5"/>
<text text-anchor="middle" x="1257.5" y="-83.5" font-family="Helvetica,sans-Serif" font-size="10.00">FlexVariableMap</text>
</a>
</g>
</g>
<!-- Node33&#45;&gt;Node13 -->
<g id="edge34" class="edge">
<title>Node33&#45;&gt;Node13</title>
<path fill="none" stroke="#9a32cd" stroke-dasharray="5,2" d="M1283.72,-100.7C1334.9,-130.53 1449.71,-197.44 1492.5,-222.39"/>
<polygon fill="#9a32cd" stroke="#9a32cd" points="1285.34,-97.59 1274.94,-95.58 1281.81,-103.64 1285.34,-97.59"/>
<text text-anchor="middle" x="1380.5" y="-190" font-family="Helvetica,sans-Serif" font-size="10.00"> propertiesPtr</text>
<text text-anchor="middle" x="1380.5" y="-179" font-family="Helvetica,sans-Serif" font-size="10.00">properties</text>
</g>
<!-- Node34 -->
<g id="node34" class="node">
<title>Node34</title>
<g id="a_node34"><a xlink:href="classdrain_1_1SmartMap.html" target="_top" xlink:title=" ">
<polygon fill="white" stroke="black" points="895,-76.5 895,-95.5 1046,-95.5 1046,-76.5 895,-76.5"/>
<text text-anchor="middle" x="970.5" y="-83.5" font-family="Helvetica,sans-Serif" font-size="10.00">SmartMap&lt; FlexVariable &gt;</text>
</a>
</g>
</g>
<!-- Node34&#45;&gt;Node33 -->
<g id="edge35" class="edge">
<title>Node34&#45;&gt;Node33</title>
<path fill="none" stroke="midnightblue" d="M1056.07,-86C1105.6,-86 1166.38,-86 1207.94,-86"/>
<polygon fill="midnightblue" stroke="midnightblue" points="1056.01,-82.5 1046.01,-86 1056.01,-89.5 1056.01,-82.5"/>
</g>
<!-- Node35 -->
<g id="node35" class="node">
<title>Node35</title>
<g id="a_node35"><a xlink:title=" ">
<polygon fill="white" stroke="#bfbfbf" points="588,-76.5 588,-95.5 765,-95.5 765,-76.5 588,-76.5"/>
<text text-anchor="middle" x="676.5" y="-83.5" font-family="Helvetica,sans-Serif" font-size="10.00">map&lt; std::string, FlexVariable &gt;</text>
</a>
</g>
</g>
<!-- Node35&#45;&gt;Node34 -->
<g id="edge36" class="edge">
<title>Node35&#45;&gt;Node34</title>
<path fill="none" stroke="midnightblue" d="M775.42,-86C814.38,-86 858.48,-86 894.78,-86"/>
<polygon fill="midnightblue" stroke="midnightblue" points="775.11,-82.5 765.11,-86 775.11,-89.5 775.11,-82.5"/>
</g>
<!-- Node36 -->
<g id="node36" class="node">
<title>Node36</title>
<g id="a_node36"><a xlink:href="classdrain_1_1Range.html" target="_top" xlink:title=" ">
<polygon fill="white" stroke="black" points="1866.5,-274.5 1866.5,-293.5 1949.5,-293.5 1949.5,-274.5 1866.5,-274.5"/>
<text text-anchor="middle" x="1908" y="-281.5" font-family="Helvetica,sans-Serif" font-size="10.00">Range&lt; int &gt;</text>
</a>
</g>
</g>
<!-- Node36&#45;&gt;Node8 -->
<g id="edge37" class="edge">
<title>Node36&#45;&gt;Node8</title>
<path fill="none" stroke="#9a32cd" stroke-dasharray="5,2" d="M1952.6,-295.83C1960.65,-297.56 1969.04,-299.08 1977,-300 2018.5,-304.82 2029.34,-303.19 2071,-300 2211.46,-289.23 2252.68,-300.99 2384,-250 2415.36,-237.82 2447.35,-214.05 2463.93,-200.7"/>
<polygon fill="#9a32cd" stroke="#9a32cd" points="1953.15,-292.36 1942.62,-293.53 1951.59,-299.18 1953.15,-292.36"/>
<text text-anchor="middle" x="2180.5" y="-312" font-family="Helvetica,sans-Serif" font-size="10.00"> jRange</text>
<text text-anchor="middle" x="2180.5" y="-301" font-family="Helvetica,sans-Serif" font-size="10.00">iRange</text>
</g>
<!-- Node36&#45;&gt;Node49 -->
<g id="edge54" class="edge">
<title>Node36&#45;&gt;Node49</title>
<path fill="none" stroke="#9a32cd" stroke-dasharray="5,2" d="M1959.97,-277.59C2005.23,-271.9 2071.43,-263.58 2119.29,-257.57"/>
<polygon fill="#9a32cd" stroke="#9a32cd" points="1959.27,-274.15 1949.79,-278.87 1960.15,-281.1 1959.27,-274.15"/>
<text text-anchor="middle" x="2024" y="-288" font-family="Helvetica,sans-Serif" font-size="10.00"> yRange</text>
<text text-anchor="middle" x="2024" y="-277" font-family="Helvetica,sans-Serif" font-size="10.00">xRange</text>
</g>
<!-- Node37 -->
<g id="node37" class="node">
<title>Node37</title>
<g id="a_node37"><a xlink:href="classdrain_1_1UniTuple.html" target="_top" xlink:title=" ">
<polygon fill="white" stroke="black" points="1699,-234.5 1699,-253.5 1805,-253.5 1805,-234.5 1699,-234.5"/>
<text text-anchor="middle" x="1752" y="-241.5" font-family="Helvetica,sans-Serif" font-size="10.00">UniTuple&lt; int, 2 &gt;</text>
</a>
</g>
</g>
<!-- Node37&#45;&gt;Node36 -->
<g id="edge38" class="edge">
<title>Node37&#45;&gt;Node36</title>
<path fill="none" stroke="midnightblue" d="M1799.65,-256.12C1822.35,-262.01 1849.23,-268.99 1870.41,-274.5"/>
<polygon fill="midnightblue" stroke="midnightblue" points="1800.45,-252.71 1789.89,-253.58 1798.69,-259.48 1800.45,-252.71"/>
</g>
<!-- Node47 -->
<g id="node47" class="node">
<title>Node47</title>
<g id="a_node47"><a xlink:href="classdrain_1_1Frame2D.html" target="_top" xlink:title=" ">
<polygon fill="white" stroke="black" points="1860,-234.5 1860,-253.5 1956,-253.5 1956,-234.5 1860,-234.5"/>
<text text-anchor="middle" x="1908" y="-241.5" font-family="Helvetica,sans-Serif" font-size="10.00">Frame2D&lt; int &gt;</text>
</a>
</g>
</g>
<!-- Node37&#45;&gt;Node47 -->
<g id="edge50" class="edge">
<title>Node37&#45;&gt;Node47</title>
<path fill="none" stroke="midnightblue" d="M1815.28,-244C1830.15,-244 1845.78,-244 1859.83,-244"/>
<polygon fill="midnightblue" stroke="midnightblue" points="1815.14,-240.5 1805.14,-244 1815.14,-247.5 1815.14,-240.5"/>
</g>
<!-- Node48 -->
<g id="node48" class="node">
<title>Node48</title>
<g id="a_node48"><a xlink:href="structdrain_1_1Point2D.html" target="_top" xlink:title=" ">
<polygon fill="white" stroke="black" points="1979,-173.5 1979,-192.5 2069,-192.5 2069,-173.5 1979,-173.5"/>
<text text-anchor="middle" x="2024" y="-180.5" font-family="Helvetica,sans-Serif" font-size="10.00">Point2D&lt; int &gt;</text>
</a>
</g>
</g>
<!-- Node37&#45;&gt;Node48 -->
<g id="edge52" class="edge">
<title>Node37&#45;&gt;Node48</title>
<path fill="none" stroke="midnightblue" d="M1805.05,-232.24C1856.16,-220.69 1933.19,-203.29 1980.66,-192.56"/>
<polygon fill="midnightblue" stroke="midnightblue" points="1804.17,-228.85 1795.19,-234.47 1805.71,-235.68 1804.17,-228.85"/>
</g>
<!-- Node38 -->
<g id="node38" class="node">
<title>Node38</title>
<g id="a_node38"><a xlink:href="structdrain_1_1UnaryFunctor.html" target="_top" xlink:title=" ">
<polygon fill="white" stroke="black" points="2139.5,-58.5 2139.5,-77.5 2221.5,-77.5 2221.5,-58.5 2139.5,-58.5"/>
<text text-anchor="middle" x="2180.5" y="-65.5" font-family="Helvetica,sans-Serif" font-size="10.00">UnaryFunctor</text>
</a>
</g>
</g>
<!-- Node38&#45;&gt;Node8 -->
<g id="edge39" class="edge">
<title>Node38&#45;&gt;Node8</title>
<path fill="none" stroke="#9a32cd" stroke-dasharray="5,2" d="M2231.88,-69.4C2275.48,-72.81 2338.51,-83.26 2384,-114 2395.64,-121.87 2392.07,-130.06 2402,-140 2419.01,-157.03 2442.37,-172.14 2458.15,-181.4"/>
<polygon fill="#9a32cd" stroke="#9a32cd" points="2232,-65.9 2221.78,-68.7 2231.52,-72.88 2232,-65.9"/>
<text text-anchor="middle" x="2337" y="-117" font-family="Helvetica,sans-Serif" font-size="10.00"> myFunctor</text>
</g>
<!-- Node39&#45;&gt;Node38 -->
<g id="edge40" class="edge">
<title>Node39&#45;&gt;Node38</title>
<path fill="none" stroke="midnightblue" d="M1945.05,-50.67C1995.46,-54.39 2086.72,-61.14 2139.28,-65.03"/>
<polygon fill="midnightblue" stroke="midnightblue" points="1945.17,-47.16 1934.94,-49.92 1944.65,-54.15 1945.17,-47.16"/>
</g>
<!-- Node40 -->
<g id="node40" class="node">
<title>Node40</title>
<g id="a_node40"><a xlink:href="classdrain_1_1UniCloner.html" target="_top" xlink:title=" ">
<polygon fill="white" stroke="black" points="2089,-110.5 2089,-129.5 2272,-129.5 2272,-110.5 2089,-110.5"/>
<text text-anchor="middle" x="2180.5" y="-117.5" font-family="Helvetica,sans-Serif" font-size="10.00">UniCloner&lt; drain::UnaryFunctor &gt;</text>
</a>
</g>
</g>
<!-- Node40&#45;&gt;Node8 -->
<g id="edge42" class="edge">
<title>Node40&#45;&gt;Node8</title>
<path fill="none" stroke="#9a32cd" stroke-dasharray="5,2" d="M2282.29,-127.87C2315.16,-132.03 2351.55,-138.37 2384,-148 2411.43,-156.14 2441.02,-171.34 2458.91,-181.32"/>
<polygon fill="#9a32cd" stroke="#9a32cd" points="2282.55,-124.37 2272.2,-126.64 2281.71,-131.32 2282.55,-124.37"/>
<text text-anchor="middle" x="2337" y="-151" font-family="Helvetica,sans-Serif" font-size="10.00"> unicloner</text>
</g>
<!-- Node41 -->
<g id="node41" class="node">
<title>Node41</title>
<g id="a_node41"><a xlink:href="classdrain_1_1Bank.html" target="_top" xlink:title=" ">
<polygon fill="white" stroke="black" points="1866.5,-76.5 1866.5,-95.5 1949.5,-95.5 1949.5,-76.5 1866.5,-76.5"/>
<text text-anchor="middle" x="1908" y="-83.5" font-family="Helvetica,sans-Serif" font-size="10.00">Bank&lt; T, K &gt;</text>
</a>
</g>
</g>
<!-- Node41&#45;&gt;Node40 -->
<g id="edge43" class="edge">
<title>Node41&#45;&gt;Node40</title>
<path fill="none" stroke="#9a32cd" stroke-dasharray="5,2" d="M1959.76,-88.62C1991.77,-90.63 2033.92,-93.94 2071,-99 2092.58,-101.94 2116.35,-106.41 2136.13,-110.46"/>
<polygon fill="#9a32cd" stroke="#9a32cd" points="1959.94,-85.13 1949.75,-88.01 1959.52,-92.11 1959.94,-85.13"/>
<text text-anchor="middle" x="2024" y="-102" font-family="Helvetica,sans-Serif" font-size="10.00"> bank</text>
</g>
<!-- Node42 -->
<g id="node42" class="node">
<title>Node42</title>
<g id="a_node42"><a xlink:title=" ">
<polygon fill="white" stroke="#bfbfbf" points="1684,-65 1684,-95 1820,-95 1820,-65 1684,-65"/>
<text text-anchor="start" x="1692" y="-83" font-family="Helvetica,sans-Serif" font-size="10.00">map&lt; std::string, Cloner</text>
<text text-anchor="middle" x="1752" y="-72" font-family="Helvetica,sans-Serif" font-size="10.00">Base&lt; T &gt; * &gt;</text>
</a>
</g>
</g>
<!-- Node42&#45;&gt;Node41 -->
<g id="edge44" class="edge">
<title>Node42&#45;&gt;Node41</title>
<path fill="none" stroke="darkgreen" d="M1830.1,-83C1842.6,-83.49 1855.1,-83.98 1866.27,-84.41"/>
<polygon fill="darkgreen" stroke="darkgreen" points="1830.23,-79.51 1820.1,-82.61 1829.95,-86.5 1830.23,-79.51"/>
</g>
<!-- Node43 -->
<g id="node43" class="node">
<title>Node43</title>
<g id="a_node43"><a xlink:href="classdrain_1_1image_1_1WindowConfig.html" target="_top" xlink:title="Base class for configurations applied in image processing windows, e.g. for operators of type WindowO...">
<polygon fill="white" stroke="black" points="2137,-202.5 2137,-221.5 2224,-221.5 2224,-202.5 2137,-202.5"/>
<text text-anchor="middle" x="2180.5" y="-209.5" font-family="Helvetica,sans-Serif" font-size="10.00">WindowConfig</text>
</a>
</g>
</g>
<!-- Node43&#45;&gt;Node8 -->
<g id="edge45" class="edge">
<title>Node43&#45;&gt;Node8</title>
<path fill="none" stroke="#9a32cd" stroke-dasharray="5,2" d="M2234.47,-208.22C2281.23,-204.88 2349.87,-199.97 2401.96,-196.25"/>
<polygon fill="#9a32cd" stroke="#9a32cd" points="2233.98,-204.74 2224.25,-208.95 2234.47,-211.72 2233.98,-204.74"/>
<text text-anchor="middle" x="2337" y="-206" font-family="Helvetica,sans-Serif" font-size="10.00"> conf</text>
</g>
<!-- Node44 -->
<g id="node44" class="node">
<title>Node44</title>
<g id="a_node44"><a xlink:href="classdrain_1_1VariableMap.html" target="_top" xlink:title="A map of Variables.">
<polygon fill="white" stroke="black" points="1869,-153.5 1869,-172.5 1947,-172.5 1947,-153.5 1869,-153.5"/>
<text text-anchor="middle" x="1908" y="-160.5" font-family="Helvetica,sans-Serif" font-size="10.00">VariableMap</text>
</a>
</g>
</g>
<!-- Node44&#45;&gt;Node43 -->
<g id="edge46" class="edge">
<title>Node44&#45;&gt;Node43</title>
<path fill="none" stroke="#9a32cd" stroke-dasharray="5,2" d="M1945.83,-150.66C1980.56,-141.38 2032.85,-133.69 2071,-156 2085.09,-164.24 2076.1,-178.01 2089,-188 2102.62,-198.55 2120.48,-204.48 2136.73,-207.8"/>
<polygon fill="#9a32cd" stroke="#9a32cd" points="1944.75,-147.33 1936.08,-153.43 1946.66,-154.06 1944.75,-147.33"/>
<text text-anchor="middle" x="2024" y="-159" font-family="Helvetica,sans-Serif" font-size="10.00"> functorParameters</text>
</g>
<!-- Node45 -->
<g id="node45" class="node">
<title>Node45</title>
<g id="a_node45"><a xlink:href="classdrain_1_1SmartMap.html" target="_top" xlink:title=" ">
<polygon fill="white" stroke="black" points="1687,-153.5 1687,-172.5 1817,-172.5 1817,-153.5 1687,-153.5"/>
<text text-anchor="middle" x="1752" y="-160.5" font-family="Helvetica,sans-Serif" font-size="10.00">SmartMap&lt; Variable &gt;</text>
</a>
</g>
</g>
<!-- Node45&#45;&gt;Node44 -->
<g id="edge47" class="edge">
<title>Node45&#45;&gt;Node44</title>
<path fill="none" stroke="midnightblue" d="M1827.73,-163C1841.96,-163 1856.28,-163 1868.77,-163"/>
<polygon fill="midnightblue" stroke="midnightblue" points="1827.42,-159.5 1817.42,-163 1827.42,-166.5 1827.42,-159.5"/>
</g>
<!-- Node46 -->
<g id="node46" class="node">
<title>Node46</title>
<g id="a_node46"><a xlink:title=" ">
<polygon fill="white" stroke="#bfbfbf" points="1432,-153.5 1432,-172.5 1588,-172.5 1588,-153.5 1432,-153.5"/>
<text text-anchor="middle" x="1510" y="-160.5" font-family="Helvetica,sans-Serif" font-size="10.00">map&lt; std::string, Variable &gt;</text>
</a>
</g>
</g>
<!-- Node46&#45;&gt;Node45 -->
<g id="edge48" class="edge">
<title>Node46&#45;&gt;Node45</title>
<path fill="none" stroke="midnightblue" d="M1598.46,-163C1627.66,-163 1659.64,-163 1686.74,-163"/>
<polygon fill="midnightblue" stroke="midnightblue" points="1598.26,-159.5 1588.26,-163 1598.26,-166.5 1598.26,-159.5"/>
</g>
<!-- Node47&#45;&gt;Node43 -->
<g id="edge49" class="edge">
<title>Node47&#45;&gt;Node43</title>
<path fill="none" stroke="#9a32cd" stroke-dasharray="5,2" d="M1961.59,-232.55C1966.78,-231.61 1971.99,-230.74 1977,-230 2031.82,-221.95 2095.57,-217 2136.67,-214.38"/>
<polygon fill="#9a32cd" stroke="#9a32cd" points="1960.84,-229.13 1951.67,-234.44 1962.15,-236.01 1960.84,-229.13"/>
<text text-anchor="middle" x="2024" y="-233" font-family="Helvetica,sans-Serif" font-size="10.00"> frame</text>
</g>
<!-- Node47&#45;&gt;Node49 -->
<g id="edge55" class="edge">
<title>Node47&#45;&gt;Node49</title>
<path fill="none" stroke="#9a32cd" stroke-dasharray="5,2" d="M1966.28,-245.27C2011.19,-246.27 2073.51,-247.65 2119.18,-248.66"/>
<polygon fill="#9a32cd" stroke="#9a32cd" points="1966.19,-241.77 1956.12,-245.05 1966.04,-248.77 1966.19,-241.77"/>
<text text-anchor="middle" x="2024" y="-250" font-family="Helvetica,sans-Serif" font-size="10.00"> area</text>
</g>
<!-- Node48&#45;&gt;Node8 -->
<g id="edge51" class="edge">
<title>Node48&#45;&gt;Node8</title>
<path fill="none" stroke="#9a32cd" stroke-dasharray="5,2" d="M2079.12,-182.09C2082.46,-182.06 2085.78,-182.03 2089,-182 2170.33,-181.36 2190.69,-180.2 2272,-182 2314.96,-182.95 2362.98,-185.02 2401.58,-186.94"/>
<polygon fill="#9a32cd" stroke="#9a32cd" points="2079.02,-178.6 2069.07,-182.22 2079.11,-185.6 2079.02,-178.6"/>
<text text-anchor="middle" x="2180.5" y="-185" font-family="Helvetica,sans-Serif" font-size="10.00"> location</text>
</g>
<!-- Node49&#45;&gt;Node8 -->
<g id="edge53" class="edge">
<title>Node49&#45;&gt;Node8</title>
<path fill="none" stroke="#9a32cd" stroke-dasharray="5,2" d="M2251.68,-241.2C2290.85,-235.72 2340.4,-227.83 2384,-218 2405.17,-213.23 2428.63,-206.27 2446.5,-200.61"/>
<polygon fill="#9a32cd" stroke="#9a32cd" points="2251.13,-237.75 2241.7,-242.58 2252.08,-244.68 2251.13,-237.75"/>
<text text-anchor="middle" x="2337" y="-238" font-family="Helvetica,sans-Serif" font-size="10.00"> coordinateHandler</text>
</g>
</g>
</svg>
        <g id="navigator" transform="translate(0 0)" fill="#404254">
                <rect fill="#f2f5e9" fill-opacity="0.5" stroke="#606060" stroke-width=".5" x="0" y="0" width="60" height="60"/>
                <use id="zoomplus" xlink:href="#zoomPlus" x="17" y="9" onmousedown="handleZoom(evt,'in')"/>
                <use id="zoomminus" xlink:href="#zoomMin" x="42" y="9" onmousedown="handleZoom(evt,'out')"/>
                <use id="reset" xlink:href="#resetDef" x="30" y="36" onmousedown="handleReset()"/>
                <g id="arrowUp" xlink:href="#dirArrow" transform="translate(30 24)" onmousedown="handlePan(0,-1)">
                  <use xlink:href="#rim" fill="#404040">
                        <set attributeName="fill" to="#808080" begin="arrowUp.mouseover" end="arrowUp.mouseout"/>
                  </use>
                  <path fill="none" stroke="white" stroke-width="1.5" d="M0,-3.0v7 M-2.5,-0.5L0,-3.0L2.5,-0.5"/>
                </g>
                <g id="arrowRight" xlink:href="#dirArrow" transform="rotate(90) translate(36 -43)" onmousedown="handlePan(1,0)">
                  <use xlink:href="#rim" fill="#404040">
                        <set attributeName="fill" to="#808080" begin="arrowRight.mouseover" end="arrowRight.mouseout"/>
                  </use>
                  <path fill="none" stroke="white" stroke-width="1.5" d="M0,-3.0v7 M-2.5,-0.5L0,-3.0L2.5,-0.5"/>
                </g>
                <g id="arrowDown" xlink:href="#dirArrow" transform="rotate(180) translate(-30 -48)" onmousedown="handlePan(0,1)">
                  <use xlink:href="#rim" fill="#404040">
                        <set attributeName="fill" to="#808080" begin="arrowDown.mouseover" end="arrowDown.mouseout"/>
                  </use>
                  <path fill="none" stroke="white" stroke-width="1.5" d="M0,-3.0v7 M-2.5,-0.5L0,-3.0L2.5,-0.5"/>
                </g>
                <g id="arrowLeft" xlink:href="#dirArrow" transform="rotate(270) translate(-36 17)" onmousedown="handlePan(-1,0)">
                  <use xlink:href="#rim" fill="#404040">
                        <set attributeName="fill" to="#808080" begin="arrowLeft.mouseover" end="arrowLeft.mouseout"/>
                  </use>
                  <path fill="none" stroke="white" stroke-width="1.5" d="M0,-3.0v7 M-2.5,-0.5L0,-3.0L2.5,-0.5"/>
                </g>
        </g>
        <svg viewBox="0 0 15 15" width="100%" height="30px" preserveAspectRatio="xMaxYMin meet">
         <g id="arrow_out" transform="scale(0.3 0.3)">
          <a xlink:href="classdrain_1_1image_1_1WindowOp__coll__graph_org.svg" target="_base">
           <rect id="button" ry="5" rx="5" y="6" x="6" height="38" width="38"
                fill="#f2f5e9" fill-opacity="0.5" stroke="#606060" stroke-width="1.0"/>
           <path id="arrow"
             d="M 11.500037,31.436501 C 11.940474,20.09759 22.043105,11.32322 32.158766,21.979434 L 37.068811,17.246167 C 37.068811,17.246167 37.088388,32 37.088388,32 L 22.160133,31.978069 C 22.160133,31.978069 26.997745,27.140456 26.997745,27.140456 C 18.528582,18.264221 13.291696,25.230495 11.500037,31.436501 z"
             style="fill:#404040;"/>
          </a>
         </g>
        </svg>
</svg>
