<?xml version="1.0" encoding="UTF-8" standalone="no"?>
<!DOCTYPE svg PUBLIC "-//W3C//DTD SVG 1.1//EN"
 "http://www.w3.org/Graphics/SVG/1.1/DTD/svg11.dtd">
<!-- Generated by graphviz version 2.43.0 (0)
 -->
<!-- Title: SegmentProberConf&lt; S, D &gt; Pages: 1 -->
<svg width="281pt" height="220pt"
 viewBox="0.00 0.00 281.00 220.00" xmlns="http://www.w3.org/2000/svg" xmlns:xlink="http://www.w3.org/1999/xlink">
<g id="graph0" class="graph" transform="scale(1 1) rotate(0) translate(4 216)">
<title>SegmentProberConf&lt; S, D &gt;</title>
<polygon fill="white" stroke="transparent" points="-4,4 -4,-216 277,-216 277,4 -4,4"/>
<!-- Node1 -->
<g id="node1" class="node">
<title>Node1</title>
<g id="a_node1"><a xlink:title="Container for parameters of SegmentProber.">
<polygon fill="#bfbfbf" stroke="black" points="96.5,-0.5 96.5,-30.5 218.5,-30.5 218.5,-0.5 96.5,-0.5"/>
<text text-anchor="start" x="104.5" y="-18.5" font-family="Helvetica,sans-Serif" font-size="10.00">SegmentProberConf&lt;</text>
<text text-anchor="middle" x="157.5" y="-7.5" font-family="Helvetica,sans-Serif" font-size="10.00"> S, D &gt;</text>
</a>
</g>
</g>
<!-- Node2 -->
<g id="node2" class="node">
<title>Node2</title>
<g id="a_node2"><a xlink:href="classdrain_1_1ReferenceMap.html" target="_top" xlink:title=" ">
<polygon fill="white" stroke="black" points="65,-78.5 65,-97.5 152,-97.5 152,-78.5 65,-78.5"/>
<text text-anchor="middle" x="108.5" y="-85.5" font-family="Helvetica,sans-Serif" font-size="10.00">ReferenceMap</text>
</a>
</g>
</g>
<!-- Node2&#45;&gt;Node1 -->
<g id="edge1" class="edge">
<title>Node2&#45;&gt;Node1</title>
<path fill="none" stroke="midnightblue" d="M120.29,-70.04C128.68,-57.97 139.82,-41.94 147.72,-30.58"/>
<polygon fill="midnightblue" stroke="midnightblue" points="117.34,-68.15 114.51,-78.36 123.09,-72.14 117.34,-68.15"/>
</g>
<!-- Node3 -->
<g id="node3" class="node">
<title>Node3</title>
<g id="a_node3"><a xlink:href="classdrain_1_1SmartMap.html" target="_top" xlink:title=" ">
<polygon fill="white" stroke="black" points="13,-135.5 13,-154.5 156,-154.5 156,-135.5 13,-135.5"/>
<text text-anchor="middle" x="84.5" y="-142.5" font-family="Helvetica,sans-Serif" font-size="10.00">SmartMap&lt; Referencer &gt;</text>
</a>
</g>
</g>
<!-- Node3&#45;&gt;Node2 -->
<g id="edge2" class="edge">
<title>Node3&#45;&gt;Node2</title>
<path fill="none" stroke="midnightblue" d="M92.34,-126.03C96.49,-116.53 101.39,-105.3 104.7,-97.71"/>
<polygon fill="midnightblue" stroke="midnightblue" points="89.04,-124.84 88.25,-135.41 95.46,-127.64 89.04,-124.84"/>
</g>
<!-- Node4 -->
<g id="node4" class="node">
<title>Node4</title>
<g id="a_node4"><a xlink:title=" ">
<polygon fill="white" stroke="#bfbfbf" points="0,-192.5 0,-211.5 169,-211.5 169,-192.5 0,-192.5"/>
<text text-anchor="middle" x="84.5" y="-199.5" font-family="Helvetica,sans-Serif" font-size="10.00">map&lt; std::string, Referencer &gt;</text>
</a>
</g>
</g>
<!-- Node4&#45;&gt;Node3 -->
<g id="edge3" class="edge">
<title>Node4&#45;&gt;Node3</title>
<path fill="none" stroke="midnightblue" d="M84.5,-182.12C84.5,-172.82 84.5,-162.06 84.5,-154.71"/>
<polygon fill="midnightblue" stroke="midnightblue" points="81,-182.41 84.5,-192.41 88,-182.41 81,-182.41"/>
</g>
<!-- Node5 -->
<g id="node5" class="node">
<title>Node5</title>
<g id="a_node5"><a xlink:href="classdrain_1_1Range.html" target="_top" xlink:title=" ">
<polygon fill="white" stroke="black" points="180.5,-78.5 180.5,-97.5 256.5,-97.5 256.5,-78.5 180.5,-78.5"/>
<text text-anchor="middle" x="218.5" y="-85.5" font-family="Helvetica,sans-Serif" font-size="10.00">Range&lt; S &gt;</text>
</a>
</g>
</g>
<!-- Node5&#45;&gt;Node1 -->
<g id="edge4" class="edge">
<title>Node5&#45;&gt;Node1</title>
<path fill="none" stroke="#9a32cd" stroke-dasharray="5,2" d="M204.43,-70.74C193.93,-58.6 179.7,-42.16 169.68,-30.58"/>
<polygon fill="#9a32cd" stroke="#9a32cd" points="201.83,-73.08 211.02,-78.36 207.12,-68.5 201.83,-73.08"/>
<text text-anchor="middle" x="212" y="-52" font-family="Helvetica,sans-Serif" font-size="10.00"> anchor</text>
</g>
<!-- Node6 -->
<g id="node6" class="node">
<title>Node6</title>
<g id="a_node6"><a xlink:href="classdrain_1_1UniTuple.html" target="_top" xlink:title=" ">
<polygon fill="white" stroke="black" points="174,-135.5 174,-154.5 273,-154.5 273,-135.5 174,-135.5"/>
<text text-anchor="middle" x="223.5" y="-142.5" font-family="Helvetica,sans-Serif" font-size="10.00">UniTuple&lt; S, 2 &gt;</text>
</a>
</g>
</g>
<!-- Node6&#45;&gt;Node5 -->
<g id="edge5" class="edge">
<title>Node6&#45;&gt;Node5</title>
<path fill="none" stroke="midnightblue" d="M221.81,-125.42C220.96,-116.05 219.97,-105.14 219.29,-97.71"/>
<polygon fill="midnightblue" stroke="midnightblue" points="218.33,-125.76 222.72,-135.41 225.3,-125.13 218.33,-125.76"/>
</g>
</g>
</svg>
