<?xml version="1.0" encoding="UTF-8" standalone="no"?>
<!DOCTYPE svg PUBLIC "-//W3C//DTD SVG 1.1//EN"
 "http://www.w3.org/Graphics/SVG/1.1/DTD/svg11.dtd">
<!-- Generated by graphviz version 2.43.0 (0)
 -->
<!-- Title: BinaryFunctorOp&lt; F &gt; Pages: 1 -->
<svg width="264pt" height="437pt"
 viewBox="0.00 0.00 263.50 437.00" xmlns="http://www.w3.org/2000/svg" xmlns:xlink="http://www.w3.org/1999/xlink">
<g id="graph0" class="graph" transform="scale(1 1) rotate(0) translate(4 433)">
<title>BinaryFunctorOp&lt; F &gt;</title>
<polygon fill="white" stroke="transparent" points="-4,4 -4,-433 259.5,-433 259.5,4 -4,4"/>
<!-- Node1 -->
<g id="node1" class="node">
<title>Node1</title>
<g id="a_node1"><a xlink:title="Class for using two&#45;parameter function objects (like std::functor) for sequential and spatial pixel i...">
<polygon fill="#bfbfbf" stroke="black" points="10,-0.5 10,-19.5 136,-19.5 136,-0.5 10,-0.5"/>
<text text-anchor="middle" x="73" y="-7.5" font-family="Helvetica,sans-Serif" font-size="10.00">BinaryFunctorOp&lt; F &gt;</text>
</a>
</g>
</g>
<!-- Node2 -->
<g id="node2" class="node">
<title>Node2</title>
<g id="a_node2"><a xlink:href="classdrain_1_1image_1_1FunctorOp.html" target="_top" xlink:title="Class for using simple function objects (like std::functor) for sequential pixel iteration.">
<polygon fill="white" stroke="black" points="25.5,-57.5 25.5,-76.5 120.5,-76.5 120.5,-57.5 25.5,-57.5"/>
<text text-anchor="middle" x="73" y="-64.5" font-family="Helvetica,sans-Serif" font-size="10.00">FunctorOp&lt; F &gt;</text>
</a>
</g>
</g>
<!-- Node2&#45;&gt;Node1 -->
<g id="edge1" class="edge">
<title>Node2&#45;&gt;Node1</title>
<path fill="none" stroke="midnightblue" d="M73,-47.12C73,-37.82 73,-27.06 73,-19.71"/>
<polygon fill="midnightblue" stroke="midnightblue" points="69.5,-47.41 73,-57.41 76.5,-47.41 69.5,-47.41"/>
</g>
<!-- Node3 -->
<g id="node3" class="node">
<title>Node3</title>
<g id="a_node3"><a xlink:href="structdrain_1_1image_1_1FunctorWrapper.html" target="_top" xlink:title="Helper class that only ensures that functor is initialized before ImageOp.">
<polygon fill="white" stroke="black" points="0,-114.5 0,-133.5 122,-133.5 122,-114.5 0,-114.5"/>
<text text-anchor="middle" x="61" y="-121.5" font-family="Helvetica,sans-Serif" font-size="10.00">FunctorWrapper&lt; F &gt;</text>
</a>
</g>
</g>
<!-- Node3&#45;&gt;Node2 -->
<g id="edge2" class="edge">
<title>Node3&#45;&gt;Node2</title>
<path fill="none" stroke="midnightblue" d="M65.05,-104.42C67.1,-95.05 69.48,-84.14 71.1,-76.71"/>
<polygon fill="midnightblue" stroke="midnightblue" points="61.59,-103.89 62.88,-114.41 68.43,-105.38 61.59,-103.89"/>
</g>
<!-- Node4 -->
<g id="node4" class="node">
<title>Node4</title>
<g id="a_node4"><a xlink:href="classdrain_1_1image_1_1ImageOp.html" target="_top" xlink:title="Base class for image processing functions.">
<polygon fill="white" stroke="black" points="140.5,-114.5 140.5,-133.5 201.5,-133.5 201.5,-114.5 140.5,-114.5"/>
<text text-anchor="middle" x="171" y="-121.5" font-family="Helvetica,sans-Serif" font-size="10.00">ImageOp</text>
</a>
</g>
</g>
<!-- Node4&#45;&gt;Node2 -->
<g id="edge3" class="edge">
<title>Node4&#45;&gt;Node2</title>
<path fill="none" stroke="midnightblue" d="M146.76,-109.39C128.43,-99.11 103.84,-85.31 88.2,-76.53"/>
<polygon fill="midnightblue" stroke="midnightblue" points="145.25,-112.56 155.69,-114.41 148.68,-106.46 145.25,-112.56"/>
</g>
<!-- Node5 -->
<g id="node5" class="node">
<title>Node5</title>
<g id="a_node5"><a xlink:href="classdrain_1_1image_1_1ImageMod.html" target="_top" xlink:title="Class for operations that modify an existing image instead of producing a new image.">
<polygon fill="white" stroke="black" points="137,-171.5 137,-190.5 205,-190.5 205,-171.5 137,-171.5"/>
<text text-anchor="middle" x="171" y="-178.5" font-family="Helvetica,sans-Serif" font-size="10.00">ImageMod</text>
</a>
</g>
</g>
<!-- Node5&#45;&gt;Node4 -->
<g id="edge4" class="edge">
<title>Node5&#45;&gt;Node4</title>
<path fill="none" stroke="midnightblue" d="M171,-161.12C171,-151.82 171,-141.06 171,-133.71"/>
<polygon fill="midnightblue" stroke="midnightblue" points="167.5,-161.41 171,-171.41 174.5,-161.41 167.5,-161.41"/>
</g>
<!-- Node6 -->
<g id="node6" class="node">
<title>Node6</title>
<g id="a_node6"><a xlink:href="classdrain_1_1BeanLike.html" target="_top" xlink:title="Something which has a name, a description and possibly some parameters of varying type.">
<polygon fill="white" stroke="black" points="140.5,-228.5 140.5,-247.5 201.5,-247.5 201.5,-228.5 140.5,-228.5"/>
<text text-anchor="middle" x="171" y="-235.5" font-family="Helvetica,sans-Serif" font-size="10.00">BeanLike</text>
</a>
</g>
</g>
<!-- Node6&#45;&gt;Node5 -->
<g id="edge5" class="edge">
<title>Node6&#45;&gt;Node5</title>
<path fill="none" stroke="midnightblue" d="M171,-218.12C171,-208.82 171,-198.06 171,-190.71"/>
<polygon fill="midnightblue" stroke="midnightblue" points="167.5,-218.41 171,-228.41 174.5,-218.41 167.5,-218.41"/>
</g>
<!-- Node7 -->
<g id="node7" class="node">
<title>Node7</title>
<g id="a_node7"><a xlink:href="classdrain_1_1ReferenceMap.html" target="_top" xlink:title=" ">
<polygon fill="white" stroke="black" points="127.5,-295.5 127.5,-314.5 214.5,-314.5 214.5,-295.5 127.5,-295.5"/>
<text text-anchor="middle" x="171" y="-302.5" font-family="Helvetica,sans-Serif" font-size="10.00">ReferenceMap</text>
</a>
</g>
</g>
<!-- Node7&#45;&gt;Node6 -->
<g id="edge6" class="edge">
<title>Node7&#45;&gt;Node6</title>
<path fill="none" stroke="#9a32cd" stroke-dasharray="5,2" d="M171,-285.04C171,-272.67 171,-257.12 171,-247.63"/>
<polygon fill="#9a32cd" stroke="#9a32cd" points="167.5,-285.23 171,-295.23 174.5,-285.23 167.5,-285.23"/>
<text text-anchor="middle" x="201" y="-269" font-family="Helvetica,sans-Serif" font-size="10.00"> parameters</text>
</g>
<!-- Node8 -->
<g id="node8" class="node">
<title>Node8</title>
<g id="a_node8"><a xlink:href="classdrain_1_1SmartMap.html" target="_top" xlink:title=" ">
<polygon fill="white" stroke="black" points="99.5,-352.5 99.5,-371.5 242.5,-371.5 242.5,-352.5 99.5,-352.5"/>
<text text-anchor="middle" x="171" y="-359.5" font-family="Helvetica,sans-Serif" font-size="10.00">SmartMap&lt; Referencer &gt;</text>
</a>
</g>
</g>
<!-- Node8&#45;&gt;Node7 -->
<g id="edge7" class="edge">
<title>Node8&#45;&gt;Node7</title>
<path fill="none" stroke="midnightblue" d="M171,-342.12C171,-332.82 171,-322.06 171,-314.71"/>
<polygon fill="midnightblue" stroke="midnightblue" points="167.5,-342.41 171,-352.41 174.5,-342.41 167.5,-342.41"/>
</g>
<!-- Node9 -->
<g id="node9" class="node">
<title>Node9</title>
<g id="a_node9"><a xlink:title=" ">
<polygon fill="white" stroke="#bfbfbf" points="86.5,-409.5 86.5,-428.5 255.5,-428.5 255.5,-409.5 86.5,-409.5"/>
<text text-anchor="middle" x="171" y="-416.5" font-family="Helvetica,sans-Serif" font-size="10.00">map&lt; std::string, Referencer &gt;</text>
</a>
</g>
</g>
<!-- Node9&#45;&gt;Node8 -->
<g id="edge8" class="edge">
<title>Node9&#45;&gt;Node8</title>
<path fill="none" stroke="midnightblue" d="M171,-399.12C171,-389.82 171,-379.06 171,-371.71"/>
<polygon fill="midnightblue" stroke="midnightblue" points="167.5,-399.41 171,-409.41 174.5,-399.41 167.5,-399.41"/>
</g>
</g>
</svg>
