<?xml version="1.0" encoding="UTF-8" standalone="no"?>
<!DOCTYPE svg PUBLIC "-//W3C//DTD SVG 1.1//EN"
 "http://www.w3.org/Graphics/SVG/1.1/DTD/svg11.dtd">
<!-- Generated by graphviz version 2.43.0 (0)
 -->
<!-- Title: SegmentStatisticsOp Pages: 1 -->
<svg width="1581pt" height="189pt"
 viewBox="0.00 0.00 1581.00 189.46" xmlns="http://www.w3.org/2000/svg" xmlns:xlink="http://www.w3.org/1999/xlink">
<g id="graph0" class="graph" transform="scale(1 1) rotate(0) translate(4 185.46)">
<title>SegmentStatisticsOp</title>
<polygon fill="white" stroke="transparent" points="-4,4 -4,-185.46 1577,-185.46 1577,4 -4,4"/>
<!-- Node1 -->
<g id="node1" class="node">
<title>Node1</title>
<g id="a_node1"><a xlink:title="Computes statistics of segments: area, centroid, horizontality, verticality, variance and elongation....">
<polygon fill="#bfbfbf" stroke="black" points="1454,-76.5 1454,-95.5 1573,-95.5 1573,-76.5 1454,-76.5"/>
<text text-anchor="middle" x="1513.5" y="-83.5" font-family="Helvetica,sans-Serif" font-size="10.00">SegmentStatisticsOp</text>
</a>
</g>
</g>
<!-- Node2 -->
<g id="node2" class="node">
<title>Node2</title>
<g id="a_node2"><a xlink:href="classdrain_1_1image_1_1SegmentOp.html" target="_top" xlink:title="A base class for computing statistics of segments. As segment is an area of connected pixels.">
<polygon fill="white" stroke="black" points="1343,-76.5 1343,-95.5 1417,-95.5 1417,-76.5 1343,-76.5"/>
<text text-anchor="middle" x="1380" y="-83.5" font-family="Helvetica,sans-Serif" font-size="10.00">SegmentOp</text>
</a>
</g>
</g>
<!-- Node2&#45;&gt;Node1 -->
<g id="edge1" class="edge">
<title>Node2&#45;&gt;Node1</title>
<path fill="none" stroke="midnightblue" d="M1427.43,-86C1435.98,-86 1445.01,-86 1453.86,-86"/>
<polygon fill="midnightblue" stroke="midnightblue" points="1427.28,-82.5 1417.28,-86 1427.28,-89.5 1427.28,-82.5"/>
</g>
<!-- Node3 -->
<g id="node3" class="node">
<title>Node3</title>
<g id="a_node3"><a xlink:href="classdrain_1_1image_1_1ImageOp.html" target="_top" xlink:title="Base class for image processing functions.">
<polygon fill="white" stroke="black" points="984,-160.5 984,-179.5 1045,-179.5 1045,-160.5 984,-160.5"/>
<text text-anchor="middle" x="1014.5" y="-167.5" font-family="Helvetica,sans-Serif" font-size="10.00">ImageOp</text>
</a>
</g>
</g>
<!-- Node3&#45;&gt;Node2 -->
<g id="edge2" class="edge">
<title>Node3&#45;&gt;Node2</title>
<path fill="none" stroke="midnightblue" d="M1055.15,-175.9C1116.49,-183.12 1236.56,-189.56 1325,-146 1347.63,-134.85 1365.13,-109.72 1373.53,-95.78"/>
<polygon fill="midnightblue" stroke="midnightblue" points="1055.46,-172.41 1045.11,-174.65 1054.6,-179.36 1055.46,-172.41"/>
</g>
<!-- Node4 -->
<g id="node4" class="node">
<title>Node4</title>
<g id="a_node4"><a xlink:href="classdrain_1_1image_1_1ImageMod.html" target="_top" xlink:title="Class for operations that modify an existing image instead of producing a new image.">
<polygon fill="white" stroke="black" points="701,-160.5 701,-179.5 769,-179.5 769,-160.5 701,-160.5"/>
<text text-anchor="middle" x="735" y="-167.5" font-family="Helvetica,sans-Serif" font-size="10.00">ImageMod</text>
</a>
</g>
</g>
<!-- Node4&#45;&gt;Node3 -->
<g id="edge3" class="edge">
<title>Node4&#45;&gt;Node3</title>
<path fill="none" stroke="midnightblue" d="M779.31,-170C836.15,-170 934.45,-170 983.65,-170"/>
<polygon fill="midnightblue" stroke="midnightblue" points="779.2,-166.5 769.2,-170 779.2,-173.5 779.2,-166.5"/>
</g>
<!-- Node5 -->
<g id="node5" class="node">
<title>Node5</title>
<g id="a_node5"><a xlink:href="classdrain_1_1BeanLike.html" target="_top" xlink:title="Something which has a name, a description and possibly some parameters of varying type.">
<polygon fill="white" stroke="black" points="569,-140.5 569,-159.5 630,-159.5 630,-140.5 569,-140.5"/>
<text text-anchor="middle" x="599.5" y="-147.5" font-family="Helvetica,sans-Serif" font-size="10.00">BeanLike</text>
</a>
</g>
</g>
<!-- Node5&#45;&gt;Node4 -->
<g id="edge4" class="edge">
<title>Node5&#45;&gt;Node4</title>
<path fill="none" stroke="midnightblue" d="M640.13,-155.94C659.41,-158.83 682.33,-162.26 700.7,-165.01"/>
<polygon fill="midnightblue" stroke="midnightblue" points="640.54,-152.46 630.13,-154.44 639.5,-159.38 640.54,-152.46"/>
</g>
<!-- Node10 -->
<g id="node10" class="node">
<title>Node10</title>
<g id="a_node10"><a xlink:href="classdrain_1_1Functor.html" target="_top" xlink:title="Base class for sequential computations. Optional scaling utilities.">
<polygon fill="white" stroke="black" points="708.5,-122.5 708.5,-141.5 761.5,-141.5 761.5,-122.5 708.5,-122.5"/>
<text text-anchor="middle" x="735" y="-129.5" font-family="Helvetica,sans-Serif" font-size="10.00">Functor</text>
</a>
</g>
</g>
<!-- Node5&#45;&gt;Node10 -->
<g id="edge10" class="edge">
<title>Node5&#45;&gt;Node10</title>
<path fill="none" stroke="midnightblue" d="M640.16,-144.65C662.11,-141.69 688.78,-138.1 708.06,-135.5"/>
<polygon fill="midnightblue" stroke="midnightblue" points="639.57,-141.2 630.13,-146.01 640.51,-148.14 639.57,-141.2"/>
</g>
<!-- Node6 -->
<g id="node6" class="node">
<title>Node6</title>
<g id="a_node6"><a xlink:href="classdrain_1_1ReferenceMap.html" target="_top" xlink:title=" ">
<polygon fill="white" stroke="black" points="386,-140.5 386,-159.5 473,-159.5 473,-140.5 386,-140.5"/>
<text text-anchor="middle" x="429.5" y="-147.5" font-family="Helvetica,sans-Serif" font-size="10.00">ReferenceMap</text>
</a>
</g>
</g>
<!-- Node6&#45;&gt;Node5 -->
<g id="edge5" class="edge">
<title>Node6&#45;&gt;Node5</title>
<path fill="none" stroke="#9a32cd" stroke-dasharray="5,2" d="M483.46,-150C511.7,-150 545.38,-150 568.98,-150"/>
<polygon fill="#9a32cd" stroke="#9a32cd" points="483.33,-146.5 473.33,-150 483.33,-153.5 483.33,-146.5"/>
<text text-anchor="middle" x="521" y="-153" font-family="Helvetica,sans-Serif" font-size="10.00"> parameters</text>
</g>
<!-- Node7 -->
<g id="node7" class="node">
<title>Node7</title>
<g id="a_node7"><a xlink:href="classdrain_1_1SmartMap.html" target="_top" xlink:title=" ">
<polygon fill="white" stroke="black" points="206,-140.5 206,-159.5 349,-159.5 349,-140.5 206,-140.5"/>
<text text-anchor="middle" x="277.5" y="-147.5" font-family="Helvetica,sans-Serif" font-size="10.00">SmartMap&lt; Referencer &gt;</text>
</a>
</g>
</g>
<!-- Node7&#45;&gt;Node6 -->
<g id="edge6" class="edge">
<title>Node7&#45;&gt;Node6</title>
<path fill="none" stroke="midnightblue" d="M359.34,-150C368.38,-150 377.31,-150 385.6,-150"/>
<polygon fill="midnightblue" stroke="midnightblue" points="359.11,-146.5 349.11,-150 359.11,-153.5 359.11,-146.5"/>
</g>
<!-- Node8 -->
<g id="node8" class="node">
<title>Node8</title>
<g id="a_node8"><a xlink:title=" ">
<polygon fill="white" stroke="#bfbfbf" points="0,-140.5 0,-159.5 169,-159.5 169,-140.5 0,-140.5"/>
<text text-anchor="middle" x="84.5" y="-147.5" font-family="Helvetica,sans-Serif" font-size="10.00">map&lt; std::string, Referencer &gt;</text>
</a>
</g>
</g>
<!-- Node8&#45;&gt;Node7 -->
<g id="edge7" class="edge">
<title>Node8&#45;&gt;Node7</title>
<path fill="none" stroke="midnightblue" d="M179.35,-150C188.29,-150 197.25,-150 205.92,-150"/>
<polygon fill="midnightblue" stroke="midnightblue" points="179.28,-146.5 169.28,-150 179.28,-153.5 179.28,-146.5"/>
</g>
<!-- Node9 -->
<g id="node9" class="node">
<title>Node9</title>
<g id="a_node9"><a xlink:href="structdrain_1_1UnaryFunctor.html" target="_top" xlink:title=" ">
<polygon fill="white" stroke="black" points="862,-122.5 862,-141.5 944,-141.5 944,-122.5 862,-122.5"/>
<text text-anchor="middle" x="903" y="-129.5" font-family="Helvetica,sans-Serif" font-size="10.00">UnaryFunctor</text>
</a>
</g>
</g>
<!-- Node9&#45;&gt;Node2 -->
<g id="edge8" class="edge">
<title>Node9&#45;&gt;Node2</title>
<path fill="none" stroke="#9a32cd" stroke-dasharray="5,2" d="M954.28,-131.49C1033.63,-129.98 1192.5,-124.05 1325,-101 1332.76,-99.65 1341.02,-97.65 1348.68,-95.55"/>
<polygon fill="#9a32cd" stroke="#9a32cd" points="954.02,-128 944.08,-131.67 954.14,-135 954.02,-128"/>
<text text-anchor="middle" x="1154.5" y="-130" font-family="Helvetica,sans-Serif" font-size="10.00"> functor</text>
</g>
<!-- Node14 -->
<g id="node14" class="node">
<title>Node14</title>
<g id="a_node14"><a xlink:href="structdrain_1_1IdentityFunctor.html" target="_top" xlink:title=" ">
<polygon fill="white" stroke="black" points="1109.5,-76.5 1109.5,-95.5 1199.5,-95.5 1199.5,-76.5 1109.5,-76.5"/>
<text text-anchor="middle" x="1154.5" y="-83.5" font-family="Helvetica,sans-Serif" font-size="10.00">IdentityFunctor</text>
</a>
</g>
</g>
<!-- Node9&#45;&gt;Node14 -->
<g id="edge15" class="edge">
<title>Node9&#45;&gt;Node14</title>
<path fill="none" stroke="midnightblue" d="M954.01,-122.78C999.44,-114.4 1065.8,-102.17 1109.31,-94.15"/>
<polygon fill="midnightblue" stroke="midnightblue" points="953.29,-119.35 944.09,-124.61 954.56,-126.24 953.29,-119.35"/>
</g>
<!-- Node10&#45;&gt;Node9 -->
<g id="edge9" class="edge">
<title>Node10&#45;&gt;Node9</title>
<path fill="none" stroke="midnightblue" d="M771.93,-132C798.4,-132 834.42,-132 861.85,-132"/>
<polygon fill="midnightblue" stroke="midnightblue" points="771.57,-128.5 761.57,-132 771.57,-135.5 771.57,-128.5"/>
</g>
<!-- Node11 -->
<g id="node11" class="node">
<title>Node11</title>
<g id="a_node11"><a xlink:href="classdrain_1_1UniCloner.html" target="_top" xlink:title=" ">
<polygon fill="white" stroke="black" points="1063,-38.5 1063,-57.5 1246,-57.5 1246,-38.5 1063,-38.5"/>
<text text-anchor="middle" x="1154.5" y="-45.5" font-family="Helvetica,sans-Serif" font-size="10.00">UniCloner&lt; drain::UnaryFunctor &gt;</text>
</a>
</g>
</g>
<!-- Node11&#45;&gt;Node2 -->
<g id="edge11" class="edge">
<title>Node11&#45;&gt;Node2</title>
<path fill="none" stroke="#9a32cd" stroke-dasharray="5,2" d="M1252.64,-58.87C1276.41,-62.16 1301.71,-66.21 1325,-71 1332.34,-72.51 1340.15,-74.47 1347.48,-76.47"/>
<polygon fill="#9a32cd" stroke="#9a32cd" points="1252.93,-55.38 1242.55,-57.5 1251.99,-62.31 1252.93,-55.38"/>
<text text-anchor="middle" x="1294.5" y="-74" font-family="Helvetica,sans-Serif" font-size="10.00"> unicloner</text>
</g>
<!-- Node12 -->
<g id="node12" class="node">
<title>Node12</title>
<g id="a_node12"><a xlink:href="classdrain_1_1Bank.html" target="_top" xlink:title=" ">
<polygon fill="white" stroke="black" points="861.5,-38.5 861.5,-57.5 944.5,-57.5 944.5,-38.5 861.5,-38.5"/>
<text text-anchor="middle" x="903" y="-45.5" font-family="Helvetica,sans-Serif" font-size="10.00">Bank&lt; T, K &gt;</text>
</a>
</g>
</g>
<!-- Node12&#45;&gt;Node11 -->
<g id="edge12" class="edge">
<title>Node12&#45;&gt;Node11</title>
<path fill="none" stroke="#9a32cd" stroke-dasharray="5,2" d="M954.79,-48C985.85,-48 1026.48,-48 1062.91,-48"/>
<polygon fill="#9a32cd" stroke="#9a32cd" points="954.64,-44.5 944.64,-48 954.64,-51.5 954.64,-44.5"/>
<text text-anchor="middle" x="1014.5" y="-51" font-family="Helvetica,sans-Serif" font-size="10.00"> bank</text>
</g>
<!-- Node13 -->
<g id="node13" class="node">
<title>Node13</title>
<g id="a_node13"><a xlink:title=" ">
<polygon fill="white" stroke="#bfbfbf" points="667,-33 667,-63 803,-63 803,-33 667,-33"/>
<text text-anchor="start" x="675" y="-51" font-family="Helvetica,sans-Serif" font-size="10.00">map&lt; std::string, Cloner</text>
<text text-anchor="middle" x="735" y="-40" font-family="Helvetica,sans-Serif" font-size="10.00">Base&lt; T &gt; * &gt;</text>
</a>
</g>
</g>
<!-- Node13&#45;&gt;Node12 -->
<g id="edge13" class="edge">
<title>Node13&#45;&gt;Node12</title>
<path fill="none" stroke="darkgreen" d="M813.33,-48C829.97,-48 846.91,-48 861.47,-48"/>
<polygon fill="darkgreen" stroke="darkgreen" points="813.04,-44.5 803.04,-48 813.04,-51.5 813.04,-44.5"/>
</g>
<!-- Node14&#45;&gt;Node2 -->
<g id="edge14" class="edge">
<title>Node14&#45;&gt;Node2</title>
<path fill="none" stroke="#9a32cd" stroke-dasharray="5,2" d="M1209.82,-86C1251.08,-86 1306.68,-86 1342.68,-86"/>
<polygon fill="#9a32cd" stroke="#9a32cd" points="1209.66,-82.5 1199.66,-86 1209.66,-89.5 1209.66,-82.5"/>
<text text-anchor="middle" x="1294.5" y="-89" font-family="Helvetica,sans-Serif" font-size="10.00"> identityFtor</text>
</g>
<!-- Node15 -->
<g id="node15" class="node">
<title>Node15</title>
<g id="a_node15"><a xlink:href="classdrain_1_1Range.html" target="_top" xlink:title=" ">
<polygon fill="white" stroke="black" points="1103,-0.5 1103,-19.5 1206,-19.5 1206,-0.5 1103,-0.5"/>
<text text-anchor="middle" x="1154.5" y="-7.5" font-family="Helvetica,sans-Serif" font-size="10.00">Range&lt; double &gt;</text>
</a>
</g>
</g>
<!-- Node15&#45;&gt;Node2 -->
<g id="edge16" class="edge">
<title>Node15&#45;&gt;Node2</title>
<path fill="none" stroke="#9a32cd" stroke-dasharray="5,2" d="M1216.32,-15.9C1249.55,-20.74 1290.79,-29.45 1325,-45 1342.15,-52.79 1358.95,-66.86 1369.15,-76.31"/>
<polygon fill="#9a32cd" stroke="#9a32cd" points="1216.66,-12.42 1206.28,-14.52 1215.71,-19.35 1216.66,-12.42"/>
<text text-anchor="middle" x="1294.5" y="-48" font-family="Helvetica,sans-Serif" font-size="10.00"> intensity</text>
</g>
<!-- Node16 -->
<g id="node16" class="node">
<title>Node16</title>
<g id="a_node16"><a xlink:href="classdrain_1_1UniTuple.html" target="_top" xlink:title=" ">
<polygon fill="white" stroke="black" points="840,-0.5 840,-19.5 966,-19.5 966,-0.5 840,-0.5"/>
<text text-anchor="middle" x="903" y="-7.5" font-family="Helvetica,sans-Serif" font-size="10.00">UniTuple&lt; double, 2 &gt;</text>
</a>
</g>
</g>
<!-- Node16&#45;&gt;Node15 -->
<g id="edge17" class="edge">
<title>Node16&#45;&gt;Node15</title>
<path fill="none" stroke="midnightblue" d="M976.41,-10C1016.95,-10 1066.5,-10 1102.86,-10"/>
<polygon fill="midnightblue" stroke="midnightblue" points="976.32,-6.5 966.32,-10 976.32,-13.5 976.32,-6.5"/>
</g>
</g>
</svg>
