<?xml version="1.0" encoding="UTF-8" standalone="no"?>
<!DOCTYPE svg PUBLIC "-//W3C//DTD SVG 1.1//EN"
 "http://www.w3.org/Graphics/SVG/1.1/DTD/svg11.dtd">
<!-- Generated by graphviz version 2.43.0 (0)
 -->
<!-- Title: GaussianWindowConf Pages: 1 -->
<svg width="275pt" height="266pt"
 viewBox="0.00 0.00 275.00 266.00" xmlns="http://www.w3.org/2000/svg" xmlns:xlink="http://www.w3.org/1999/xlink">
<g id="graph0" class="graph" transform="scale(1 1) rotate(0) translate(4 262)">
<title>GaussianWindowConf</title>
<polygon fill="white" stroke="transparent" points="-4,4 -4,-262 271,-262 271,4 -4,4"/>
<!-- Node1 -->
<g id="node1" class="node">
<title>Node1</title>
<g id="a_node1"><a xlink:title="Extends WindowConfig with radius.">
<polygon fill="#bfbfbf" stroke="black" points="85.5,-0.5 85.5,-19.5 208.5,-19.5 208.5,-0.5 85.5,-0.5"/>
<text text-anchor="middle" x="147" y="-7.5" font-family="Helvetica,sans-Serif" font-size="10.00">GaussianWindowConf</text>
</a>
</g>
</g>
<!-- Node2 -->
<g id="node2" class="node">
<title>Node2</title>
<g id="a_node2"><a xlink:href="classdrain_1_1image_1_1WindowConfig.html" target="_top" xlink:title="Base class for configurations applied in image processing windows, e.g. for operators of type WindowO...">
<polygon fill="white" stroke="black" points="103.5,-57.5 103.5,-76.5 190.5,-76.5 190.5,-57.5 103.5,-57.5"/>
<text text-anchor="middle" x="147" y="-64.5" font-family="Helvetica,sans-Serif" font-size="10.00">WindowConfig</text>
</a>
</g>
</g>
<!-- Node2&#45;&gt;Node1 -->
<g id="edge1" class="edge">
<title>Node2&#45;&gt;Node1</title>
<path fill="none" stroke="midnightblue" d="M147,-47.12C147,-37.82 147,-27.06 147,-19.71"/>
<polygon fill="midnightblue" stroke="midnightblue" points="143.5,-47.41 147,-57.41 150.5,-47.41 143.5,-47.41"/>
</g>
<!-- Node3 -->
<g id="node3" class="node">
<title>Node3</title>
<g id="a_node3"><a xlink:href="classdrain_1_1VariableMap.html" target="_top" xlink:title="A map of Variables.">
<polygon fill="white" stroke="black" points="41,-124.5 41,-143.5 119,-143.5 119,-124.5 41,-124.5"/>
<text text-anchor="middle" x="80" y="-131.5" font-family="Helvetica,sans-Serif" font-size="10.00">VariableMap</text>
</a>
</g>
</g>
<!-- Node3&#45;&gt;Node2 -->
<g id="edge2" class="edge">
<title>Node3&#45;&gt;Node2</title>
<path fill="none" stroke="#9a32cd" stroke-dasharray="5,2" d="M81.14,-113.96C82.35,-107.37 84.66,-100.32 89,-95 95.88,-86.56 105.99,-80.63 115.85,-76.52"/>
<polygon fill="#9a32cd" stroke="#9a32cd" points="77.62,-113.88 79.97,-124.21 84.58,-114.67 77.62,-113.88"/>
<text text-anchor="middle" x="136" y="-98" font-family="Helvetica,sans-Serif" font-size="10.00"> functorParameters</text>
</g>
<!-- Node4 -->
<g id="node4" class="node">
<title>Node4</title>
<g id="a_node4"><a xlink:href="classdrain_1_1SmartMap.html" target="_top" xlink:title=" ">
<polygon fill="white" stroke="black" points="13,-181.5 13,-200.5 143,-200.5 143,-181.5 13,-181.5"/>
<text text-anchor="middle" x="78" y="-188.5" font-family="Helvetica,sans-Serif" font-size="10.00">SmartMap&lt; Variable &gt;</text>
</a>
</g>
</g>
<!-- Node4&#45;&gt;Node3 -->
<g id="edge3" class="edge">
<title>Node4&#45;&gt;Node3</title>
<path fill="none" stroke="midnightblue" d="M78.69,-171.12C79.02,-161.82 79.42,-151.06 79.68,-143.71"/>
<polygon fill="midnightblue" stroke="midnightblue" points="75.18,-171.29 78.31,-181.41 82.17,-171.54 75.18,-171.29"/>
</g>
<!-- Node5 -->
<g id="node5" class="node">
<title>Node5</title>
<g id="a_node5"><a xlink:title=" ">
<polygon fill="white" stroke="#bfbfbf" points="0,-238.5 0,-257.5 156,-257.5 156,-238.5 0,-238.5"/>
<text text-anchor="middle" x="78" y="-245.5" font-family="Helvetica,sans-Serif" font-size="10.00">map&lt; std::string, Variable &gt;</text>
</a>
</g>
</g>
<!-- Node5&#45;&gt;Node4 -->
<g id="edge4" class="edge">
<title>Node5&#45;&gt;Node4</title>
<path fill="none" stroke="midnightblue" d="M78,-228.12C78,-218.82 78,-208.06 78,-200.71"/>
<polygon fill="midnightblue" stroke="midnightblue" points="74.5,-228.41 78,-238.41 81.5,-228.41 74.5,-228.41"/>
</g>
<!-- Node6 -->
<g id="node6" class="node">
<title>Node6</title>
<g id="a_node6"><a xlink:href="classdrain_1_1Frame2D.html" target="_top" xlink:title=" ">
<polygon fill="white" stroke="black" points="165,-124.5 165,-143.5 261,-143.5 261,-124.5 165,-124.5"/>
<text text-anchor="middle" x="213" y="-131.5" font-family="Helvetica,sans-Serif" font-size="10.00">Frame2D&lt; int &gt;</text>
</a>
</g>
</g>
<!-- Node6&#45;&gt;Node2 -->
<g id="edge5" class="edge">
<title>Node6&#45;&gt;Node2</title>
<path fill="none" stroke="#9a32cd" stroke-dasharray="5,2" d="M203.19,-115.8C198.77,-108.89 193.16,-101.12 187,-95 179.75,-87.79 170.33,-81.33 162.45,-76.53"/>
<polygon fill="#9a32cd" stroke="#9a32cd" points="200.26,-117.72 208.43,-124.47 206.25,-114.1 200.26,-117.72"/>
<text text-anchor="middle" x="212.5" y="-98" font-family="Helvetica,sans-Serif" font-size="10.00"> frame</text>
</g>
<!-- Node7 -->
<g id="node7" class="node">
<title>Node7</title>
<g id="a_node7"><a xlink:href="classdrain_1_1UniTuple.html" target="_top" xlink:title=" ">
<polygon fill="white" stroke="black" points="161,-181.5 161,-200.5 267,-200.5 267,-181.5 161,-181.5"/>
<text text-anchor="middle" x="214" y="-188.5" font-family="Helvetica,sans-Serif" font-size="10.00">UniTuple&lt; int, 2 &gt;</text>
</a>
</g>
</g>
<!-- Node7&#45;&gt;Node6 -->
<g id="edge6" class="edge">
<title>Node7&#45;&gt;Node6</title>
<path fill="none" stroke="midnightblue" d="M213.66,-171.12C213.49,-161.82 213.29,-151.06 213.16,-143.71"/>
<polygon fill="midnightblue" stroke="midnightblue" points="210.16,-171.47 213.84,-181.41 217.16,-171.34 210.16,-171.47"/>
</g>
</g>
</svg>
