<?xml version="1.0" encoding="UTF-8" standalone="no"?>
<!DOCTYPE svg PUBLIC "-//W3C//DTD SVG 1.1//EN"
 "http://www.w3.org/Graphics/SVG/1.1/DTD/svg11.dtd">
<!-- Generated by graphviz version 2.43.0 (0)
 -->
<!-- Title: SegmentStatisticsProber&lt; T, D &gt; Pages: 1 -->
<!--zoomable 332 -->
<svg id="main" version="1.1" xmlns="http://www.w3.org/2000/svg" xmlns:xlink="http://www.w3.org/1999/xlink" xml:space="preserve" onload="init(evt)">
<style type="text/css"><![CDATA[
.edge:hover path { stroke: red; }
.edge:hover polygon { stroke: red; fill: red; }
]]></style>
<script type="text/javascript"><![CDATA[
var edges = document.getElementsByTagName('g');
if (edges && edges.length) {
  for (var i=0;i<edges.length;i++) {
    if (edges[i].id.substr(0,4)=='edge') {
      edges[i].setAttribute('class','edge');
    }
  }
}
]]></script>
        <defs>
                <circle id="rim" cx="0" cy="0" r="7"/>
                <circle id="rim2" cx="0" cy="0" r="3.5"/>
                <g id="zoomPlus">
                        <use xlink:href="#rim" fill="#404040">
                                <set attributeName="fill" to="#808080" begin="zoomplus.mouseover" end="zoomplus.mouseout"/>
                        </use>
                        <path d="M-4,0h8M0,-4v8" fill="none" stroke="white" stroke-width="1.5" pointer-events="none"/>
                </g>
                <g id="zoomMin">
                        <use xlink:href="#rim" fill="#404040">
                                <set attributeName="fill" to="#808080" begin="zoomminus.mouseover" end="zoomminus.mouseout"/>
                        </use>
                        <path d="M-4,0h8" fill="none" stroke="white" stroke-width="1.5" pointer-events="none"/>
                </g>
                <g id="dirArrow">
                        <path fill="none" stroke="white" stroke-width="1.5" d="M0,-3.0v7 M-2.5,-0.5L0,-3.0L2.5,-0.5"/>
                </g>
               <g id="resetDef">
                       <use xlink:href="#rim2" fill="#404040">
                               <set attributeName="fill" to="#808080" begin="reset.mouseover" end="reset.mouseout"/>
                       </use>
               </g>
        </defs>

<script type="text/javascript">
var viewWidth = 2093;
var viewHeight = 332;
var sectionId = 'dynsection-1';
</script>
<script xlink:href="svgpan.js"/>
<svg id="graph" class="graph">
<g id="viewport">
<title>SegmentStatisticsProber&lt; T, D &gt;</title>
<polygon fill="white" stroke="transparent" points="-4,4 -4,-328 2089,-328 2089,4 -4,4"/>
<!-- Node1 -->
<g id="node1" class="node">
<title>Node1</title>
<g id="a_node1"><a xlink:title="A helper class applied by FloodFillOp and SegmentAreaOp.">
<polygon fill="#bfbfbf" stroke="black" points="1948,-100 1948,-130 2085,-130 2085,-100 1948,-100"/>
<text text-anchor="start" x="1956" y="-118" font-family="Helvetica,sans-Serif" font-size="10.00">SegmentStatisticsProber</text>
<text text-anchor="middle" x="2016.5" y="-107" font-family="Helvetica,sans-Serif" font-size="10.00">&lt; T, D &gt;</text>
</a>
</g>
</g>
<!-- Node2 -->
<g id="node2" class="node">
<title>Node2</title>
<g id="a_node2"><a xlink:href="classdrain_1_1image_1_1SegmentProber.html" target="_top" xlink:title=" ">
<polygon fill="white" stroke="black" points="1739,-130.5 1739,-171.5 1864,-171.5 1864,-130.5 1739,-130.5"/>
<text text-anchor="start" x="1747" y="-159.5" font-family="Helvetica,sans-Serif" font-size="10.00">SegmentProber&lt; T, D,</text>
<text text-anchor="start" x="1747" y="-148.5" font-family="Helvetica,sans-Serif" font-size="10.00"> SegmentProberConf&lt;</text>
<text text-anchor="middle" x="1801.5" y="-137.5" font-family="Helvetica,sans-Serif" font-size="10.00"> T, D &gt; &gt;</text>
</a>
</g>
</g>
<!-- Node2&#45;&gt;Node1 -->
<g id="edge1" class="edge">
<title>Node2&#45;&gt;Node1</title>
<path fill="none" stroke="midnightblue" d="M1874.11,-138.9C1897.87,-134.88 1924.23,-130.43 1947.69,-126.46"/>
<polygon fill="midnightblue" stroke="midnightblue" points="1873.39,-135.47 1864.11,-140.59 1874.55,-142.37 1873.39,-135.47"/>
</g>
<!-- Node3 -->
<g id="node3" class="node">
<title>Node3</title>
<g id="a_node3"><a xlink:href="classdrain_1_1image_1_1SegmentProberConf.html" target="_top" xlink:title=" ">
<polygon fill="white" stroke="black" points="1556,-200 1556,-230 1678,-230 1678,-200 1556,-200"/>
<text text-anchor="start" x="1564" y="-218" font-family="Helvetica,sans-Serif" font-size="10.00">SegmentProberConf&lt;</text>
<text text-anchor="middle" x="1617" y="-207" font-family="Helvetica,sans-Serif" font-size="10.00"> T, D &gt;</text>
</a>
</g>
</g>
<!-- Node3&#45;&gt;Node2 -->
<g id="edge2" class="edge">
<title>Node3&#45;&gt;Node2</title>
<path fill="none" stroke="#9a32cd" stroke-dasharray="5,2" d="M1670.41,-196.62C1692.71,-188.8 1718.8,-179.65 1741.75,-171.6"/>
<polygon fill="#9a32cd" stroke="#9a32cd" points="1669.07,-193.38 1660.79,-199.99 1671.38,-199.99 1669.07,-193.38"/>
<text text-anchor="middle" x="1708.5" y="-190" font-family="Helvetica,sans-Serif" font-size="10.00"> conf</text>
</g>
<!-- Node4 -->
<g id="node4" class="node">
<title>Node4</title>
<g id="a_node4"><a xlink:href="classdrain_1_1ReferenceMap.html" target="_top" xlink:title=" ">
<polygon fill="white" stroke="black" points="1432,-216.5 1432,-235.5 1519,-235.5 1519,-216.5 1432,-216.5"/>
<text text-anchor="middle" x="1475.5" y="-223.5" font-family="Helvetica,sans-Serif" font-size="10.00">ReferenceMap</text>
</a>
</g>
</g>
<!-- Node4&#45;&gt;Node3 -->
<g id="edge3" class="edge">
<title>Node4&#45;&gt;Node3</title>
<path fill="none" stroke="midnightblue" d="M1529.16,-221.85C1537.9,-221.16 1547.02,-220.44 1555.93,-219.74"/>
<polygon fill="midnightblue" stroke="midnightblue" points="1528.81,-218.36 1519.11,-222.64 1529.36,-225.34 1528.81,-218.36"/>
</g>
<!-- Node5 -->
<g id="node5" class="node">
<title>Node5</title>
<g id="a_node5"><a xlink:href="classdrain_1_1SmartMap.html" target="_top" xlink:title=" ">
<polygon fill="white" stroke="black" points="1186,-237.5 1186,-256.5 1329,-256.5 1329,-237.5 1186,-237.5"/>
<text text-anchor="middle" x="1257.5" y="-244.5" font-family="Helvetica,sans-Serif" font-size="10.00">SmartMap&lt; Referencer &gt;</text>
</a>
</g>
</g>
<!-- Node5&#45;&gt;Node4 -->
<g id="edge4" class="edge">
<title>Node5&#45;&gt;Node4</title>
<path fill="none" stroke="midnightblue" d="M1339.28,-239.15C1370.66,-236.1 1405.31,-232.73 1431.68,-230.16"/>
<polygon fill="midnightblue" stroke="midnightblue" points="1338.84,-235.67 1329.23,-240.12 1339.52,-242.64 1338.84,-235.67"/>
</g>
<!-- Node6 -->
<g id="node6" class="node">
<title>Node6</title>
<g id="a_node6"><a xlink:title=" ">
<polygon fill="white" stroke="#bfbfbf" points="886,-237.5 886,-256.5 1055,-256.5 1055,-237.5 886,-237.5"/>
<text text-anchor="middle" x="970.5" y="-244.5" font-family="Helvetica,sans-Serif" font-size="10.00">map&lt; std::string, Referencer &gt;</text>
</a>
</g>
</g>
<!-- Node6&#45;&gt;Node5 -->
<g id="edge5" class="edge">
<title>Node6&#45;&gt;Node5</title>
<path fill="none" stroke="midnightblue" d="M1065.21,-247C1104.53,-247 1149.48,-247 1185.92,-247"/>
<polygon fill="midnightblue" stroke="midnightblue" points="1065.08,-243.5 1055.08,-247 1065.08,-250.5 1065.08,-243.5"/>
</g>
<!-- Node7 -->
<g id="node7" class="node">
<title>Node7</title>
<g id="a_node7"><a xlink:href="classdrain_1_1image_1_1Channel.html" target="_top" xlink:title="Image with static geometry.">
<polygon fill="white" stroke="black" points="1589,-141.5 1589,-160.5 1645,-160.5 1645,-141.5 1589,-141.5"/>
<text text-anchor="middle" x="1617" y="-148.5" font-family="Helvetica,sans-Serif" font-size="10.00">Channel</text>
</a>
</g>
</g>
<!-- Node7&#45;&gt;Node2 -->
<g id="edge6" class="edge">
<title>Node7&#45;&gt;Node2</title>
<path fill="none" stroke="#9a32cd" stroke-dasharray="5,2" d="M1655.44,-151C1679.48,-151 1711.26,-151 1738.94,-151"/>
<polygon fill="#9a32cd" stroke="#9a32cd" points="1655.32,-147.5 1645.32,-151 1655.32,-154.5 1655.32,-147.5"/>
<text text-anchor="middle" x="1708.5" y="-165" font-family="Helvetica,sans-Serif" font-size="10.00"> src</text>
<text text-anchor="middle" x="1708.5" y="-154" font-family="Helvetica,sans-Serif" font-size="10.00">dst</text>
</g>
<!-- Node8 -->
<g id="node8" class="node">
<title>Node8</title>
<g id="a_node8"><a xlink:href="classdrain_1_1image_1_1ImageFrame.html" target="_top" xlink:title="Image with static geometry.">
<polygon fill="white" stroke="black" points="1436.5,-141.5 1436.5,-160.5 1514.5,-160.5 1514.5,-141.5 1436.5,-141.5"/>
<text text-anchor="middle" x="1475.5" y="-148.5" font-family="Helvetica,sans-Serif" font-size="10.00">ImageFrame</text>
</a>
</g>
</g>
<!-- Node8&#45;&gt;Node7 -->
<g id="edge7" class="edge">
<title>Node8&#45;&gt;Node7</title>
<path fill="none" stroke="midnightblue" d="M1524.88,-151C1546.35,-151 1570.81,-151 1588.98,-151"/>
<polygon fill="midnightblue" stroke="midnightblue" points="1524.62,-147.5 1514.62,-151 1524.62,-154.5 1524.62,-147.5"/>
</g>
<!-- Node9 -->
<g id="node9" class="node">
<title>Node9</title>
<g id="a_node9"><a xlink:href="classdrain_1_1image_1_1ImageLike.html" target="_top" xlink:title="A base class for images.">
<polygon fill="white" stroke="black" points="1224,-141.5 1224,-160.5 1291,-160.5 1291,-141.5 1224,-141.5"/>
<text text-anchor="middle" x="1257.5" y="-148.5" font-family="Helvetica,sans-Serif" font-size="10.00">ImageLike</text>
</a>
</g>
</g>
<!-- Node9&#45;&gt;Node8 -->
<g id="edge8" class="edge">
<title>Node9&#45;&gt;Node8</title>
<path fill="none" stroke="midnightblue" d="M1301.39,-151C1340.73,-151 1398.47,-151 1436.28,-151"/>
<polygon fill="midnightblue" stroke="midnightblue" points="1301.31,-147.5 1291.31,-151 1301.31,-154.5 1301.31,-147.5"/>
</g>
<!-- Node10 -->
<g id="node10" class="node">
<title>Node10</title>
<g id="a_node10"><a xlink:href="classdrain_1_1image_1_1ImageConf.html" target="_top" xlink:title="Struct for image (excluding data)">
<polygon fill="white" stroke="black" points="935.5,-151.5 935.5,-170.5 1005.5,-170.5 1005.5,-151.5 935.5,-151.5"/>
<text text-anchor="middle" x="970.5" y="-158.5" font-family="Helvetica,sans-Serif" font-size="10.00">ImageConf</text>
</a>
</g>
</g>
<!-- Node10&#45;&gt;Node9 -->
<g id="edge9" class="edge">
<title>Node10&#45;&gt;Node9</title>
<path fill="none" stroke="#9a32cd" stroke-dasharray="5,2" d="M1015.83,-159.44C1073.37,-157.43 1172.45,-153.95 1223.69,-152.15"/>
<polygon fill="#9a32cd" stroke="#9a32cd" points="1015.47,-155.96 1005.59,-159.8 1015.71,-162.95 1015.47,-155.96"/>
<text text-anchor="middle" x="1120.5" y="-161" font-family="Helvetica,sans-Serif" font-size="10.00"> conf</text>
</g>
<!-- Node11 -->
<g id="node11" class="node">
<title>Node11</title>
<g id="a_node11"><a xlink:href="classdrain_1_1image_1_1Encoding.html" target="_top" xlink:title=" ">
<polygon fill="white" stroke="black" points="646,-262.5 646,-281.5 707,-281.5 707,-262.5 646,-262.5"/>
<text text-anchor="middle" x="676.5" y="-269.5" font-family="Helvetica,sans-Serif" font-size="10.00">Encoding</text>
</a>
</g>
</g>
<!-- Node11&#45;&gt;Node10 -->
<g id="edge10" class="edge">
<title>Node11&#45;&gt;Node10</title>
<path fill="none" stroke="midnightblue" d="M716.84,-260.11C731.98,-255.35 749.38,-249.66 765,-244 832.37,-219.59 910.43,-186.55 947.62,-170.52"/>
<polygon fill="midnightblue" stroke="midnightblue" points="715.76,-256.78 707.26,-263.09 717.84,-263.46 715.76,-256.78"/>
</g>
<!-- Node12 -->
<g id="node12" class="node">
<title>Node12</title>
<g id="a_node12"><a xlink:href="classdrain_1_1ValueScaling.html" target="_top" xlink:title="Linear scaling and physical range for image intensities.">
<polygon fill="white" stroke="black" points="404,-288.5 404,-307.5 484,-307.5 484,-288.5 404,-288.5"/>
<text text-anchor="middle" x="444" y="-295.5" font-family="Helvetica,sans-Serif" font-size="10.00">ValueScaling</text>
</a>
</g>
</g>
<!-- Node12&#45;&gt;Node11 -->
<g id="edge11" class="edge">
<title>Node12&#45;&gt;Node11</title>
<path fill="none" stroke="midnightblue" d="M494.15,-292.46C540.16,-287.27 607.4,-279.68 645.76,-275.35"/>
<polygon fill="midnightblue" stroke="midnightblue" points="493.65,-288.99 484.1,-293.59 494.43,-295.95 493.65,-288.99"/>
</g>
<!-- Node13 -->
<g id="node13" class="node">
<title>Node13</title>
<g id="a_node13"><a xlink:href="classdrain_1_1UniTuple.html" target="_top" xlink:title=" ">
<polygon fill="white" stroke="black" points="163,-304.5 163,-323.5 289,-323.5 289,-304.5 163,-304.5"/>
<text text-anchor="middle" x="226" y="-311.5" font-family="Helvetica,sans-Serif" font-size="10.00">UniTuple&lt; double, 4 &gt;</text>
</a>
</g>
</g>
<!-- Node13&#45;&gt;Node12 -->
<g id="edge12" class="edge">
<title>Node13&#45;&gt;Node12</title>
<path fill="none" stroke="midnightblue" d="M299.36,-308.64C334.32,-306.05 374.9,-303.04 403.99,-300.89"/>
<polygon fill="midnightblue" stroke="midnightblue" points="298.9,-305.16 289.19,-309.39 299.42,-312.15 298.9,-305.16"/>
</g>
<!-- Node14 -->
<g id="node14" class="node">
<title>Node14</title>
<g id="a_node14"><a xlink:href="classdrain_1_1Range.html" target="_top" xlink:title=" ">
<polygon fill="white" stroke="black" points="174.5,-266.5 174.5,-285.5 277.5,-285.5 277.5,-266.5 174.5,-266.5"/>
<text text-anchor="middle" x="226" y="-273.5" font-family="Helvetica,sans-Serif" font-size="10.00">Range&lt; double &gt;</text>
</a>
</g>
</g>
<!-- Node14&#45;&gt;Node12 -->
<g id="edge13" class="edge">
<title>Node14&#45;&gt;Node12</title>
<path fill="none" stroke="#9a32cd" stroke-dasharray="5,2" d="M287.87,-281.46C311.91,-283.68 339.77,-286.36 365,-289 377.61,-290.32 391.35,-291.87 403.74,-293.31"/>
<polygon fill="#9a32cd" stroke="#9a32cd" points="288.1,-277.96 277.82,-280.53 287.46,-284.93 288.1,-277.96"/>
<text text-anchor="middle" x="336" y="-292" font-family="Helvetica,sans-Serif" font-size="10.00"> physRange</text>
</g>
<!-- Node15 -->
<g id="node15" class="node">
<title>Node15</title>
<g id="a_node15"><a xlink:href="classdrain_1_1UniTuple.html" target="_top" xlink:title=" ">
<polygon fill="white" stroke="black" points="0,-266.5 0,-285.5 126,-285.5 126,-266.5 0,-266.5"/>
<text text-anchor="middle" x="63" y="-273.5" font-family="Helvetica,sans-Serif" font-size="10.00">UniTuple&lt; double, 2 &gt;</text>
</a>
</g>
</g>
<!-- Node15&#45;&gt;Node14 -->
<g id="edge14" class="edge">
<title>Node15&#45;&gt;Node14</title>
<path fill="none" stroke="midnightblue" d="M136.44,-276C149.24,-276 162.33,-276 174.37,-276"/>
<polygon fill="midnightblue" stroke="midnightblue" points="136.25,-272.5 126.25,-276 136.25,-279.5 136.25,-272.5"/>
</g>
<!-- Node16 -->
<g id="node16" class="node">
<title>Node16</title>
<g id="a_node16"><a xlink:href="classdrain_1_1Caster.html" target="_top" xlink:title=" ">
<polygon fill="white" stroke="black" points="420,-250.5 420,-269.5 468,-269.5 468,-250.5 420,-250.5"/>
<text text-anchor="middle" x="444" y="-257.5" font-family="Helvetica,sans-Serif" font-size="10.00">Caster</text>
</a>
</g>
</g>
<!-- Node16&#45;&gt;Node11 -->
<g id="edge15" class="edge">
<title>Node16&#45;&gt;Node11</title>
<path fill="none" stroke="#9a32cd" stroke-dasharray="5,2" d="M478.51,-261.74C523.57,-264.09 602.99,-268.23 645.94,-270.46"/>
<polygon fill="#9a32cd" stroke="#9a32cd" points="478.54,-258.24 468.37,-261.22 478.17,-265.23 478.54,-258.24"/>
<text text-anchor="middle" x="546.5" y="-269" font-family="Helvetica,sans-Serif" font-size="10.00"> caster</text>
</g>
<!-- Node27 -->
<g id="node27" class="node">
<title>Node27</title>
<g id="a_node27"><a xlink:href="classdrain_1_1Castable.html" target="_top" xlink:title=" ">
<polygon fill="white" stroke="black" points="647,-215.5 647,-234.5 706,-234.5 706,-215.5 647,-215.5"/>
<text text-anchor="middle" x="676.5" y="-222.5" font-family="Helvetica,sans-Serif" font-size="10.00">Castable</text>
</a>
</g>
</g>
<!-- Node16&#45;&gt;Node27 -->
<g id="edge28" class="edge">
<title>Node16&#45;&gt;Node27</title>
<path fill="none" stroke="#9a32cd" stroke-dasharray="5,2" d="M478.28,-254.95C523.57,-248.07 603.85,-235.88 646.69,-229.38"/>
<polygon fill="#9a32cd" stroke="#9a32cd" points="477.73,-251.49 468.37,-256.45 478.78,-258.41 477.73,-251.49"/>
<text text-anchor="middle" x="546.5" y="-250" font-family="Helvetica,sans-Serif" font-size="10.00"> caster</text>
</g>
<!-- Node17 -->
<g id="node17" class="node">
<title>Node17</title>
<g id="a_node17"><a xlink:href="classdrain_1_1image_1_1Geometry.html" target="_top" xlink:title=" ">
<polygon fill="white" stroke="black" points="644,-169.5 644,-188.5 709,-188.5 709,-169.5 644,-169.5"/>
<text text-anchor="middle" x="676.5" y="-176.5" font-family="Helvetica,sans-Serif" font-size="10.00">Geometry</text>
</a>
</g>
</g>
<!-- Node17&#45;&gt;Node10 -->
<g id="edge16" class="edge">
<title>Node17&#45;&gt;Node10</title>
<path fill="none" stroke="midnightblue" d="M719.33,-176.42C777.49,-172.84 881.69,-166.41 935.41,-163.1"/>
<polygon fill="midnightblue" stroke="midnightblue" points="718.79,-172.95 709.03,-177.06 719.22,-179.93 718.79,-172.95"/>
</g>
<!-- Node18 -->
<g id="node18" class="node">
<title>Node18</title>
<g id="a_node18"><a xlink:href="classdrain_1_1UniTuple.html" target="_top" xlink:title=" ">
<polygon fill="white" stroke="black" points="383,-211.5 383,-230.5 505,-230.5 505,-211.5 383,-211.5"/>
<text text-anchor="middle" x="444" y="-218.5" font-family="Helvetica,sans-Serif" font-size="10.00">UniTuple&lt; size_t, 4 &gt;</text>
</a>
</g>
</g>
<!-- Node18&#45;&gt;Node17 -->
<g id="edge17" class="edge">
<title>Node18&#45;&gt;Node17</title>
<path fill="none" stroke="midnightblue" d="M507.37,-209.64C551.54,-201.59 608.95,-191.13 643.97,-184.74"/>
<polygon fill="midnightblue" stroke="midnightblue" points="506.51,-206.23 497.3,-211.47 507.77,-213.12 506.51,-206.23"/>
</g>
<!-- Node19 -->
<g id="node19" class="node">
<title>Node19</title>
<g id="a_node19"><a xlink:href="classdrain_1_1Frame2D.html" target="_top" xlink:title=" ">
<polygon fill="white" stroke="black" points="388,-173.5 388,-192.5 500,-192.5 500,-173.5 388,-173.5"/>
<text text-anchor="middle" x="444" y="-180.5" font-family="Helvetica,sans-Serif" font-size="10.00">Frame2D&lt; size_t &gt;</text>
</a>
</g>
</g>
<!-- Node19&#45;&gt;Node17 -->
<g id="edge18" class="edge">
<title>Node19&#45;&gt;Node17</title>
<path fill="none" stroke="#9a32cd" stroke-dasharray="5,2" d="M510.73,-180.32C514.88,-180.2 519,-180.09 523,-180 564.82,-179.06 613.11,-178.9 643.95,-178.91"/>
<polygon fill="#9a32cd" stroke="#9a32cd" points="510.27,-176.83 500.39,-180.65 510.49,-183.83 510.27,-176.83"/>
<text text-anchor="middle" x="546.5" y="-183" font-family="Helvetica,sans-Serif" font-size="10.00"> area</text>
</g>
<!-- Node20 -->
<g id="node20" class="node">
<title>Node20</title>
<g id="a_node20"><a xlink:href="classdrain_1_1UniTuple.html" target="_top" xlink:title=" ">
<polygon fill="white" stroke="black" points="165,-155.5 165,-174.5 287,-174.5 287,-155.5 165,-155.5"/>
<text text-anchor="middle" x="226" y="-162.5" font-family="Helvetica,sans-Serif" font-size="10.00">UniTuple&lt; size_t, 2 &gt;</text>
</a>
</g>
</g>
<!-- Node20&#45;&gt;Node19 -->
<g id="edge19" class="edge">
<title>Node20&#45;&gt;Node19</title>
<path fill="none" stroke="midnightblue" d="M297.37,-170.86C326.77,-173.31 360.42,-176.12 387.96,-178.41"/>
<polygon fill="midnightblue" stroke="midnightblue" points="297.42,-167.36 287.17,-170.01 296.84,-174.33 297.42,-167.36"/>
</g>
<!-- Node21 -->
<g id="node21" class="node">
<title>Node21</title>
<g id="a_node21"><a xlink:href="classdrain_1_1image_1_1ChannelGeometry.html" target="_top" xlink:title=" ">
<polygon fill="white" stroke="black" points="391.5,-135.5 391.5,-154.5 496.5,-154.5 496.5,-135.5 391.5,-135.5"/>
<text text-anchor="middle" x="444" y="-142.5" font-family="Helvetica,sans-Serif" font-size="10.00">ChannelGeometry</text>
</a>
</g>
</g>
<!-- Node20&#45;&gt;Node21 -->
<g id="edge21" class="edge">
<title>Node20&#45;&gt;Node21</title>
<path fill="none" stroke="midnightblue" d="M297.34,-158.49C327.92,-155.66 363.09,-152.4 391.22,-149.79"/>
<polygon fill="midnightblue" stroke="midnightblue" points="296.8,-155.02 287.17,-159.43 297.45,-161.99 296.8,-155.02"/>
</g>
<!-- Node21&#45;&gt;Node17 -->
<g id="edge20" class="edge">
<title>Node21&#45;&gt;Node17</title>
<path fill="none" stroke="#9a32cd" stroke-dasharray="5,2" d="M506.79,-154.11C550.98,-160.63 608.62,-169.14 643.81,-174.33"/>
<polygon fill="#9a32cd" stroke="#9a32cd" points="507.13,-150.63 496.73,-152.63 506.11,-157.55 507.13,-150.63"/>
<text text-anchor="middle" x="546.5" y="-167" font-family="Helvetica,sans-Serif" font-size="10.00"> channels</text>
</g>
<!-- Node22 -->
<g id="node22" class="node">
<title>Node22</title>
<g id="a_node22"><a xlink:href="classdrain_1_1image_1_1CoordinatePolicy.html" target="_top" xlink:title="Policies for coordinate underflows and overflows.">
<polygon fill="white" stroke="black" points="627,-114.5 627,-133.5 726,-133.5 726,-114.5 627,-114.5"/>
<text text-anchor="middle" x="676.5" y="-121.5" font-family="Helvetica,sans-Serif" font-size="10.00">CoordinatePolicy</text>
</a>
</g>
</g>
<!-- Node22&#45;&gt;Node10 -->
<g id="edge22" class="edge">
<title>Node22&#45;&gt;Node10</title>
<path fill="none" stroke="#9a32cd" stroke-dasharray="5,2" d="M736.1,-131.42C795.87,-139 886.59,-150.49 935.46,-156.69"/>
<polygon fill="#9a32cd" stroke="#9a32cd" points="736.41,-127.94 726.05,-130.15 735.53,-134.88 736.41,-127.94"/>
<text text-anchor="middle" x="825.5" y="-151" font-family="Helvetica,sans-Serif" font-size="10.00"> coordinatePolicy</text>
</g>
<!-- Node31 -->
<g id="node31" class="node">
<title>Node31</title>
<g id="a_node31"><a xlink:href="classdrain_1_1image_1_1CoordinateHandler2D.html" target="_top" xlink:title=" ">
<polygon fill="white" stroke="black" points="909.5,-42.5 909.5,-61.5 1031.5,-61.5 1031.5,-42.5 909.5,-42.5"/>
<text text-anchor="middle" x="970.5" y="-49.5" font-family="Helvetica,sans-Serif" font-size="10.00">CoordinateHandler2D</text>
</a>
</g>
</g>
<!-- Node22&#45;&gt;Node31 -->
<g id="edge37" class="edge">
<title>Node22&#45;&gt;Node31</title>
<path fill="none" stroke="#9a32cd" stroke-dasharray="5,2" d="M733.03,-112.29C743.66,-109.95 754.69,-107.46 765,-105 824.76,-90.77 893.87,-72.47 934.51,-61.52"/>
<polygon fill="#9a32cd" stroke="#9a32cd" points="732.02,-108.93 722.99,-114.48 733.51,-115.77 732.02,-108.93"/>
<text text-anchor="middle" x="825.5" y="-103" font-family="Helvetica,sans-Serif" font-size="10.00"> policy</text>
</g>
<!-- Node23 -->
<g id="node23" class="node">
<title>Node23</title>
<g id="a_node23"><a xlink:href="classdrain_1_1UniTuple.html" target="_top" xlink:title=" ">
<polygon fill="white" stroke="black" points="385.5,-86 385.5,-116 502.5,-116 502.5,-86 385.5,-86"/>
<text text-anchor="start" x="393.5" y="-104" font-family="Helvetica,sans-Serif" font-size="10.00">UniTuple&lt; coord_pol</text>
<text text-anchor="middle" x="444" y="-93" font-family="Helvetica,sans-Serif" font-size="10.00">_t, 4 &gt;</text>
</a>
</g>
</g>
<!-- Node23&#45;&gt;Node22 -->
<g id="edge23" class="edge">
<title>Node23&#45;&gt;Node22</title>
<path fill="none" stroke="midnightblue" d="M512.67,-107.75C549.28,-111.41 593.66,-115.83 626.84,-119.14"/>
<polygon fill="midnightblue" stroke="midnightblue" points="512.87,-104.25 502.57,-106.74 512.17,-111.22 512.87,-104.25"/>
</g>
<!-- Node24 -->
<g id="node24" class="node">
<title>Node24</title>
<g id="a_node24"><a xlink:href="classdrain_1_1Dictionary2.html" target="_top" xlink:title="Two&#45;way mapping between strings and objects of template class T.">
<polygon fill="white" stroke="black" points="386.5,-47.5 386.5,-66.5 501.5,-66.5 501.5,-47.5 386.5,-47.5"/>
<text text-anchor="middle" x="444" y="-54.5" font-family="Helvetica,sans-Serif" font-size="10.00">Dictionary2&lt; K, V &gt;</text>
</a>
</g>
</g>
<!-- Node24&#45;&gt;Node22 -->
<g id="edge24" class="edge">
<title>Node24&#45;&gt;Node22</title>
<path fill="none" stroke="#9a32cd" stroke-dasharray="5,2" d="M493.52,-69.16C517.03,-75.71 545.42,-84.58 570,-95 578.43,-98.57 579.44,-101.77 588,-105 600.22,-109.61 613.84,-113.23 626.63,-116.03"/>
<polygon fill="#9a32cd" stroke="#9a32cd" points="494.33,-65.76 483.76,-66.5 492.49,-72.51 494.33,-65.76"/>
<text text-anchor="middle" x="546.5" y="-98" font-family="Helvetica,sans-Serif" font-size="10.00"> dict</text>
</g>
<!-- Node25 -->
<g id="node25" class="node">
<title>Node25</title>
<g id="a_node25"><a xlink:title=" ">
<polygon fill="white" stroke="#bfbfbf" points="174,-42 174,-72 278,-72 278,-42 174,-42"/>
<text text-anchor="start" x="182" y="-60" font-family="Helvetica,sans-Serif" font-size="10.00">list&lt; std::pair&lt; K,</text>
<text text-anchor="middle" x="226" y="-49" font-family="Helvetica,sans-Serif" font-size="10.00"> V &gt; &gt;</text>
</a>
</g>
</g>
<!-- Node25&#45;&gt;Node24 -->
<g id="edge25" class="edge">
<title>Node25&#45;&gt;Node24</title>
<path fill="none" stroke="midnightblue" d="M288.39,-57C319.23,-57 356.35,-57 386.48,-57"/>
<polygon fill="midnightblue" stroke="midnightblue" points="288.19,-53.5 278.19,-57 288.19,-60.5 288.19,-53.5"/>
</g>
<!-- Node26 -->
<g id="node26" class="node">
<title>Node26</title>
<g id="a_node26"><a xlink:href="classdrain_1_1CastableIterator.html" target="_top" xlink:title=" ">
<polygon fill="white" stroke="black" points="1073,-191.5 1073,-210.5 1168,-210.5 1168,-191.5 1073,-191.5"/>
<text text-anchor="middle" x="1120.5" y="-198.5" font-family="Helvetica,sans-Serif" font-size="10.00">CastableIterator</text>
</a>
</g>
</g>
<!-- Node26&#45;&gt;Node8 -->
<g id="edge26" class="edge">
<title>Node26&#45;&gt;Node8</title>
<path fill="none" stroke="#9a32cd" stroke-dasharray="5,2" d="M1178.33,-195.79C1237.46,-189.95 1332.61,-179.39 1414,-165 1421.22,-163.72 1428.87,-162.14 1436.22,-160.5"/>
<polygon fill="#9a32cd" stroke="#9a32cd" points="1177.69,-192.33 1168.08,-196.79 1178.37,-199.3 1177.69,-192.33"/>
<text text-anchor="middle" x="1257.5" y="-209" font-family="Helvetica,sans-Serif" font-size="10.00"> segmentEnd</text>
<text text-anchor="middle" x="1257.5" y="-198" font-family="Helvetica,sans-Serif" font-size="10.00">segmentBegin</text>
</g>
<!-- Node27&#45;&gt;Node26 -->
<g id="edge27" class="edge">
<title>Node27&#45;&gt;Node26</title>
<path fill="none" stroke="darkgreen" d="M716.46,-222.88C797.82,-218.47 985.47,-208.28 1072.99,-203.53"/>
<polygon fill="darkgreen" stroke="darkgreen" points="715.96,-219.41 706.16,-223.44 716.34,-226.4 715.96,-219.41"/>
</g>
<!-- Node28 -->
<g id="node28" class="node">
<title>Node28</title>
<g id="a_node28"><a xlink:href="classdrain_1_1FlexVariableMap.html" target="_top" xlink:title="A map of FlexVariable:s.">
<polygon fill="white" stroke="black" points="1208,-100.5 1208,-119.5 1307,-119.5 1307,-100.5 1208,-100.5"/>
<text text-anchor="middle" x="1257.5" y="-107.5" font-family="Helvetica,sans-Serif" font-size="10.00">FlexVariableMap</text>
</a>
</g>
</g>
<!-- Node28&#45;&gt;Node8 -->
<g id="edge29" class="edge">
<title>Node28&#45;&gt;Node8</title>
<path fill="none" stroke="#9a32cd" stroke-dasharray="5,2" d="M1317.27,-111.38C1346.69,-113.15 1382.63,-116.95 1414,-125 1428.73,-128.78 1444.48,-135.65 1456.22,-141.38"/>
<polygon fill="#9a32cd" stroke="#9a32cd" points="1317.32,-107.88 1307.15,-110.84 1316.95,-114.87 1317.32,-107.88"/>
<text text-anchor="middle" x="1380.5" y="-139" font-family="Helvetica,sans-Serif" font-size="10.00"> propertiesPtr</text>
<text text-anchor="middle" x="1380.5" y="-128" font-family="Helvetica,sans-Serif" font-size="10.00">properties</text>
</g>
<!-- Node29 -->
<g id="node29" class="node">
<title>Node29</title>
<g id="a_node29"><a xlink:href="classdrain_1_1SmartMap.html" target="_top" xlink:title=" ">
<polygon fill="white" stroke="black" points="895,-84.5 895,-103.5 1046,-103.5 1046,-84.5 895,-84.5"/>
<text text-anchor="middle" x="970.5" y="-91.5" font-family="Helvetica,sans-Serif" font-size="10.00">SmartMap&lt; FlexVariable &gt;</text>
</a>
</g>
</g>
<!-- Node29&#45;&gt;Node28 -->
<g id="edge30" class="edge">
<title>Node29&#45;&gt;Node28</title>
<path fill="none" stroke="midnightblue" d="M1056.07,-98.75C1105.6,-101.53 1166.38,-104.94 1207.94,-107.27"/>
<polygon fill="midnightblue" stroke="midnightblue" points="1056.19,-95.25 1046.01,-98.18 1055.8,-102.24 1056.19,-95.25"/>
</g>
<!-- Node30 -->
<g id="node30" class="node">
<title>Node30</title>
<g id="a_node30"><a xlink:title=" ">
<polygon fill="white" stroke="#bfbfbf" points="588,-76.5 588,-95.5 765,-95.5 765,-76.5 588,-76.5"/>
<text text-anchor="middle" x="676.5" y="-83.5" font-family="Helvetica,sans-Serif" font-size="10.00">map&lt; std::string, FlexVariable &gt;</text>
</a>
</g>
</g>
<!-- Node30&#45;&gt;Node29 -->
<g id="edge31" class="edge">
<title>Node30&#45;&gt;Node29</title>
<path fill="none" stroke="midnightblue" d="M775.42,-88.68C814.38,-89.75 858.48,-90.96 894.78,-91.95"/>
<polygon fill="midnightblue" stroke="midnightblue" points="775.2,-85.18 765.11,-88.4 775.01,-92.17 775.2,-85.18"/>
</g>
<!-- Node31&#45;&gt;Node2 -->
<g id="edge32" class="edge">
<title>Node31&#45;&gt;Node2</title>
<path fill="none" stroke="#9a32cd" stroke-dasharray="5,2" d="M1041.6,-57.36C1099.26,-61.31 1183.13,-66 1256.5,-66 1256.5,-66 1256.5,-66 1618,-66 1621.8,-66 1704.75,-105.27 1757.49,-130.42"/>
<polygon fill="#9a32cd" stroke="#9a32cd" points="1041.73,-53.86 1031.51,-56.66 1041.24,-60.85 1041.73,-53.86"/>
<text text-anchor="middle" x="1475.5" y="-69" font-family="Helvetica,sans-Serif" font-size="10.00"> handler</text>
</g>
<!-- Node32 -->
<g id="node32" class="node">
<title>Node32</title>
<g id="a_node32"><a xlink:href="classdrain_1_1Range.html" target="_top" xlink:title=" ">
<polygon fill="white" stroke="black" points="635,-38.5 635,-57.5 718,-57.5 718,-38.5 635,-38.5"/>
<text text-anchor="middle" x="676.5" y="-45.5" font-family="Helvetica,sans-Serif" font-size="10.00">Range&lt; int &gt;</text>
</a>
</g>
</g>
<!-- Node32&#45;&gt;Node31 -->
<g id="edge33" class="edge">
<title>Node32&#45;&gt;Node31</title>
<path fill="none" stroke="#9a32cd" stroke-dasharray="5,2" d="M728.4,-48.41C766.77,-48.75 820.69,-49.29 868,-50 881.39,-50.2 895.78,-50.46 909.39,-50.72"/>
<polygon fill="#9a32cd" stroke="#9a32cd" points="728.04,-44.9 718.01,-48.32 727.98,-51.9 728.04,-44.9"/>
<text text-anchor="middle" x="825.5" y="-64" font-family="Helvetica,sans-Serif" font-size="10.00"> yRange</text>
<text text-anchor="middle" x="825.5" y="-53" font-family="Helvetica,sans-Serif" font-size="10.00">xRange</text>
</g>
<!-- Node33 -->
<g id="node33" class="node">
<title>Node33</title>
<g id="a_node33"><a xlink:href="classdrain_1_1UniTuple.html" target="_top" xlink:title=" ">
<polygon fill="white" stroke="black" points="391,-8.5 391,-27.5 497,-27.5 497,-8.5 391,-8.5"/>
<text text-anchor="middle" x="444" y="-15.5" font-family="Helvetica,sans-Serif" font-size="10.00">UniTuple&lt; int, 2 &gt;</text>
</a>
</g>
</g>
<!-- Node33&#45;&gt;Node32 -->
<g id="edge34" class="edge">
<title>Node33&#45;&gt;Node32</title>
<path fill="none" stroke="midnightblue" d="M507.06,-26.08C547.6,-31.35 599.39,-38.09 634.77,-42.7"/>
<polygon fill="midnightblue" stroke="midnightblue" points="507.38,-22.59 497.02,-24.77 506.48,-29.53 507.38,-22.59"/>
</g>
<!-- Node34 -->
<g id="node34" class="node">
<title>Node34</title>
<g id="a_node34"><a xlink:href="classdrain_1_1Frame2D.html" target="_top" xlink:title=" ">
<polygon fill="white" stroke="black" points="628.5,-0.5 628.5,-19.5 724.5,-19.5 724.5,-0.5 628.5,-0.5"/>
<text text-anchor="middle" x="676.5" y="-7.5" font-family="Helvetica,sans-Serif" font-size="10.00">Frame2D&lt; int &gt;</text>
</a>
</g>
</g>
<!-- Node33&#45;&gt;Node34 -->
<g id="edge36" class="edge">
<title>Node33&#45;&gt;Node34</title>
<path fill="none" stroke="midnightblue" d="M507.48,-15.83C545.57,-14.51 593.48,-12.85 628.38,-11.64"/>
<polygon fill="midnightblue" stroke="midnightblue" points="506.89,-12.35 497.02,-16.19 507.13,-19.35 506.89,-12.35"/>
</g>
<!-- Node34&#45;&gt;Node31 -->
<g id="edge35" class="edge">
<title>Node34&#45;&gt;Node31</title>
<path fill="none" stroke="#9a32cd" stroke-dasharray="5,2" d="M734.89,-16.47C772.75,-20.92 823.41,-27.24 868,-34 884.54,-36.51 902.54,-39.58 918.73,-42.48"/>
<polygon fill="#9a32cd" stroke="#9a32cd" points="734.9,-12.95 724.56,-15.26 734.09,-19.9 734.9,-12.95"/>
<text text-anchor="middle" x="825.5" y="-37" font-family="Helvetica,sans-Serif" font-size="10.00"> area</text>
</g>
<!-- Node35 -->
<g id="node35" class="node">
<title>Node35</title>
<g id="a_node35"><a xlink:href="classdrain_1_1image_1_1SegmentStatistics.html" target="_top" xlink:title="A structure for accumulating coordinates and computing statistics thereof: area, centroid,...">
<polygon fill="white" stroke="black" points="1749,-92.5 1749,-111.5 1854,-111.5 1854,-92.5 1749,-92.5"/>
<text text-anchor="middle" x="1801.5" y="-99.5" font-family="Helvetica,sans-Serif" font-size="10.00">SegmentStatistics</text>
</a>
</g>
</g>
<!-- Node35&#45;&gt;Node1 -->
<g id="edge38" class="edge">
<title>Node35&#45;&gt;Node1</title>
<path fill="none" stroke="#9a32cd" stroke-dasharray="5,2" d="M1864.25,-105.77C1890.46,-107.37 1921.08,-109.24 1947.9,-110.87"/>
<polygon fill="#9a32cd" stroke="#9a32cd" points="1864.26,-102.26 1854.06,-105.15 1863.83,-109.25 1864.26,-102.26"/>
<text text-anchor="middle" x="1906" y="-113" font-family="Helvetica,sans-Serif" font-size="10.00"> statistics</text>
</g>
</g>
</svg>
        <g id="navigator" transform="translate(0 0)" fill="#404254">
                <rect fill="#f2f5e9" fill-opacity="0.5" stroke="#606060" stroke-width=".5" x="0" y="0" width="60" height="60"/>
                <use id="zoomplus" xlink:href="#zoomPlus" x="17" y="9" onmousedown="handleZoom(evt,'in')"/>
                <use id="zoomminus" xlink:href="#zoomMin" x="42" y="9" onmousedown="handleZoom(evt,'out')"/>
                <use id="reset" xlink:href="#resetDef" x="30" y="36" onmousedown="handleReset()"/>
                <g id="arrowUp" xlink:href="#dirArrow" transform="translate(30 24)" onmousedown="handlePan(0,-1)">
                  <use xlink:href="#rim" fill="#404040">
                        <set attributeName="fill" to="#808080" begin="arrowUp.mouseover" end="arrowUp.mouseout"/>
                  </use>
                  <path fill="none" stroke="white" stroke-width="1.5" d="M0,-3.0v7 M-2.5,-0.5L0,-3.0L2.5,-0.5"/>
                </g>
                <g id="arrowRight" xlink:href="#dirArrow" transform="rotate(90) translate(36 -43)" onmousedown="handlePan(1,0)">
                  <use xlink:href="#rim" fill="#404040">
                        <set attributeName="fill" to="#808080" begin="arrowRight.mouseover" end="arrowRight.mouseout"/>
                  </use>
                  <path fill="none" stroke="white" stroke-width="1.5" d="M0,-3.0v7 M-2.5,-0.5L0,-3.0L2.5,-0.5"/>
                </g>
                <g id="arrowDown" xlink:href="#dirArrow" transform="rotate(180) translate(-30 -48)" onmousedown="handlePan(0,1)">
                  <use xlink:href="#rim" fill="#404040">
                        <set attributeName="fill" to="#808080" begin="arrowDown.mouseover" end="arrowDown.mouseout"/>
                  </use>
                  <path fill="none" stroke="white" stroke-width="1.5" d="M0,-3.0v7 M-2.5,-0.5L0,-3.0L2.5,-0.5"/>
                </g>
                <g id="arrowLeft" xlink:href="#dirArrow" transform="rotate(270) translate(-36 17)" onmousedown="handlePan(-1,0)">
                  <use xlink:href="#rim" fill="#404040">
                        <set attributeName="fill" to="#808080" begin="arrowLeft.mouseover" end="arrowLeft.mouseout"/>
                  </use>
                  <path fill="none" stroke="white" stroke-width="1.5" d="M0,-3.0v7 M-2.5,-0.5L0,-3.0L2.5,-0.5"/>
                </g>
        </g>
        <svg viewBox="0 0 15 15" width="100%" height="30px" preserveAspectRatio="xMaxYMin meet">
         <g id="arrow_out" transform="scale(0.3 0.3)">
          <a xlink:href="classdrain_1_1image_1_1SegmentStatisticsProber__coll__graph_org.svg" target="_base">
           <rect id="button" ry="5" rx="5" y="6" x="6" height="38" width="38"
                fill="#f2f5e9" fill-opacity="0.5" stroke="#606060" stroke-width="1.0"/>
           <path id="arrow"
             d="M 11.500037,31.436501 C 11.940474,20.09759 22.043105,11.32322 32.158766,21.979434 L 37.068811,17.246167 C 37.068811,17.246167 37.088388,32 37.088388,32 L 22.160133,31.978069 C 22.160133,31.978069 26.997745,27.140456 26.997745,27.140456 C 18.528582,18.264221 13.291696,25.230495 11.500037,31.436501 z"
             style="fill:#404040;"/>
          </a>
         </g>
        </svg>
</svg>
