<?xml version="1.0" encoding="UTF-8" standalone="no"?>
<!DOCTYPE svg PUBLIC "-//W3C//DTD SVG 1.1//EN"
 "http://www.w3.org/Graphics/SVG/1.1/DTD/svg11.dtd">
<!-- Generated by graphviz version 2.43.0 (0)
 -->
<!-- Title: FileGeoTIFF Pages: 1 -->
<svg width="152pt" height="174pt"
 viewBox="0.00 0.00 152.00 174.00" xmlns="http://www.w3.org/2000/svg" xmlns:xlink="http://www.w3.org/1999/xlink">
<g id="graph0" class="graph" transform="scale(1 1) rotate(0) translate(4 170)">
<title>FileGeoTIFF</title>
<polygon fill="white" stroke="transparent" points="-4,4 -4,-170 148,-170 148,4 -4,4"/>
<!-- Node1 -->
<g id="node1" class="node">
<title>Node1</title>
<g id="a_node1"><a xlink:title="For writing images in GeoTIFF format. Reading not supported currently.">
<polygon fill="#bfbfbf" stroke="black" points="22,-0.5 22,-19.5 96,-19.5 96,-0.5 22,-0.5"/>
<text text-anchor="middle" x="59" y="-7.5" font-family="Helvetica,sans-Serif" font-size="10.00">FileGeoTIFF</text>
</a>
</g>
</g>
<!-- Node2 -->
<g id="node2" class="node">
<title>Node2</title>
<g id="a_node2"><a xlink:href="classdrain_1_1Dictionary2.html" target="_top" xlink:title=" ">
<polygon fill="white" stroke="black" points="0,-67.5 0,-97.5 118,-97.5 118,-67.5 0,-67.5"/>
<text text-anchor="start" x="8" y="-85.5" font-family="Helvetica,sans-Serif" font-size="10.00">Dictionary2&lt; int, std</text>
<text text-anchor="middle" x="59" y="-74.5" font-family="Helvetica,sans-Serif" font-size="10.00">::string &gt;</text>
</a>
</g>
</g>
<!-- Node2&#45;&gt;Node1 -->
<g id="edge1" class="edge">
<title>Node2&#45;&gt;Node1</title>
<path fill="none" stroke="#9a32cd" stroke-dasharray="5,2" d="M59,-57.09C59,-44.21 59,-29.2 59,-19.89"/>
<polygon fill="#9a32cd" stroke="#9a32cd" points="55.5,-57.23 59,-67.23 62.5,-57.23 55.5,-57.23"/>
<text text-anchor="middle" x="101.5" y="-41" font-family="Helvetica,sans-Serif" font-size="10.00"> compressionDict</text>
</g>
<!-- Node3 -->
<g id="node3" class="node">
<title>Node3</title>
<g id="a_node3"><a xlink:title=" ">
<polygon fill="white" stroke="#bfbfbf" points="4,-135.5 4,-165.5 114,-165.5 114,-135.5 4,-135.5"/>
<text text-anchor="start" x="12" y="-153.5" font-family="Helvetica,sans-Serif" font-size="10.00">list&lt; std::pair&lt; int,</text>
<text text-anchor="middle" x="59" y="-142.5" font-family="Helvetica,sans-Serif" font-size="10.00"> std::string &gt; &gt;</text>
</a>
</g>
</g>
<!-- Node3&#45;&gt;Node2 -->
<g id="edge2" class="edge">
<title>Node3&#45;&gt;Node2</title>
<path fill="none" stroke="midnightblue" d="M59,-125.03C59,-115.86 59,-105.74 59,-97.79"/>
<polygon fill="midnightblue" stroke="midnightblue" points="55.5,-125.18 59,-135.18 62.5,-125.18 55.5,-125.18"/>
</g>
</g>
</svg>
