<?xml version="1.0" encoding="UTF-8" standalone="no"?>
<!DOCTYPE svg PUBLIC "-//W3C//DTD SVG 1.1//EN"
 "http://www.w3.org/Graphics/SVG/1.1/DTD/svg11.dtd">
<!-- Generated by graphviz version 2.43.0 (0)
 -->
<!-- Title: SlidingWindow&lt; C, R &gt; Pages: 1 -->
<svg width="148pt" height="207pt"
 viewBox="0.00 0.00 148.00 207.00" xmlns="http://www.w3.org/2000/svg" xmlns:xlink="http://www.w3.org/1999/xlink">
<g id="graph0" class="graph" transform="scale(1 1) rotate(0) translate(4 203)">
<title>SlidingWindow&lt; C, R &gt;</title>
<polygon fill="white" stroke="transparent" points="-4,4 -4,-203 144,-203 144,4 -4,4"/>
<!-- Node1 -->
<g id="node1" class="node">
<title>Node1</title>
<g id="a_node1"><a xlink:title=" ">
<polygon fill="#bfbfbf" stroke="black" points="4.5,-0.5 4.5,-19.5 135.5,-19.5 135.5,-0.5 4.5,-0.5"/>
<text text-anchor="middle" x="70" y="-7.5" font-family="Helvetica,sans-Serif" font-size="10.00">SlidingWindow&lt; C, R &gt;</text>
</a>
</g>
</g>
<!-- Node2 -->
<g id="node2" class="node">
<title>Node2</title>
<g id="a_node2"><a xlink:href="classdrain_1_1image_1_1Window.html" target="_top" xlink:title=" ">
<polygon fill="white" stroke="black" points="0,-56.5 0,-86.5 140,-86.5 140,-56.5 0,-56.5"/>
<text text-anchor="start" x="8" y="-74.5" font-family="Helvetica,sans-Serif" font-size="10.00">Window&lt; WindowConfig,</text>
<text text-anchor="middle" x="70" y="-63.5" font-family="Helvetica,sans-Serif" font-size="10.00"> WindowCore &gt;</text>
</a>
</g>
</g>
<!-- Node2&#45;&gt;Node1 -->
<g id="edge1" class="edge">
<title>Node2&#45;&gt;Node1</title>
<path fill="none" stroke="midnightblue" d="M70,-46.29C70,-36.86 70,-26.65 70,-19.66"/>
<polygon fill="midnightblue" stroke="midnightblue" points="66.5,-46.4 70,-56.4 73.5,-46.4 66.5,-46.4"/>
</g>
<!-- Node3 -->
<g id="node3" class="node">
<title>Node3</title>
<g id="a_node3"><a xlink:href="classdrain_1_1image_1_1WindowCore.html" target="_top" xlink:title="Container for source data (input) and destination data (output). May also contain metadata of them.">
<polygon fill="white" stroke="black" points="31,-123.5 31,-142.5 109,-142.5 109,-123.5 31,-123.5"/>
<text text-anchor="middle" x="70" y="-130.5" font-family="Helvetica,sans-Serif" font-size="10.00">WindowCore</text>
</a>
</g>
</g>
<!-- Node3&#45;&gt;Node2 -->
<g id="edge2" class="edge">
<title>Node3&#45;&gt;Node2</title>
<path fill="none" stroke="midnightblue" d="M70,-113.23C70,-104.59 70,-94.5 70,-86.52"/>
<polygon fill="midnightblue" stroke="midnightblue" points="66.5,-113.48 70,-123.48 73.5,-113.48 66.5,-113.48"/>
</g>
<!-- Node4 -->
<g id="node4" class="node">
<title>Node4</title>
<g id="a_node4"><a xlink:href="classdrain_1_1image_1_1WindowCoreBase.html" target="_top" xlink:title="Provides splitting frames.">
<polygon fill="white" stroke="black" points="19,-179.5 19,-198.5 121,-198.5 121,-179.5 19,-179.5"/>
<text text-anchor="middle" x="70" y="-186.5" font-family="Helvetica,sans-Serif" font-size="10.00">WindowCoreBase</text>
</a>
</g>
</g>
<!-- Node4&#45;&gt;Node3 -->
<g id="edge3" class="edge">
<title>Node4&#45;&gt;Node3</title>
<path fill="none" stroke="midnightblue" d="M70,-168.8C70,-159.91 70,-149.78 70,-142.75"/>
<polygon fill="midnightblue" stroke="midnightblue" points="66.5,-169.08 70,-179.08 73.5,-169.08 66.5,-169.08"/>
</g>
</g>
</svg>
