<?xml version="1.0" encoding="UTF-8" standalone="no"?>
<!DOCTYPE svg PUBLIC "-//W3C//DTD SVG 1.1//EN"
 "http://www.w3.org/Graphics/SVG/1.1/DTD/svg11.dtd">
<!-- Generated by graphviz version 2.43.0 (0)
 -->
<!-- Title: ProductBase Pages: 1 -->
<svg width="528pt" height="421pt"
 viewBox="0.00 0.00 527.50 421.00" xmlns="http://www.w3.org/2000/svg" xmlns:xlink="http://www.w3.org/1999/xlink">
<g id="graph0" class="graph" transform="scale(1 1) rotate(0) translate(4 417)">
<title>ProductBase</title>
<polygon fill="white" stroke="transparent" points="-4,4 -4,-417 523.5,-417 523.5,4 -4,4"/>
<!-- Node1 -->
<g id="node1" class="node">
<title>Node1</title>
<g id="a_node1"><a xlink:title="Base class for radar data processors. Input can be in polar or Cartesian coordinates.">
<polygon fill="#bfbfbf" stroke="black" points="156,-0.5 156,-19.5 233,-19.5 233,-0.5 156,-0.5"/>
<text text-anchor="middle" x="194.5" y="-7.5" font-family="Helvetica,sans-Serif" font-size="10.00">ProductBase</text>
</a>
</g>
</g>
<!-- Node2 -->
<g id="node2" class="node">
<title>Node2</title>
<g id="a_node2"><a xlink:href="structrack_1_1ProductConf.html" target="_top" xlink:title="Shared properties for meteorological products and Cartesian products (composites and single&#45;radar ima...">
<polygon fill="white" stroke="black" points="224.5,-57.5 224.5,-76.5 300.5,-76.5 300.5,-57.5 224.5,-57.5"/>
<text text-anchor="middle" x="262.5" y="-64.5" font-family="Helvetica,sans-Serif" font-size="10.00">ProductConf</text>
</a>
</g>
</g>
<!-- Node2&#45;&gt;Node1 -->
<g id="edge1" class="edge">
<title>Node2&#45;&gt;Node1</title>
<path fill="none" stroke="midnightblue" d="M243.95,-51C231.54,-40.96 215.65,-28.1 205.27,-19.71"/>
<polygon fill="midnightblue" stroke="midnightblue" points="241.9,-53.84 251.88,-57.41 246.3,-48.4 241.9,-53.84"/>
</g>
<!-- Node3 -->
<g id="node3" class="node">
<title>Node3</title>
<g id="a_node3"><a xlink:href="classrack_1_1DataSelector.html" target="_top" xlink:title="Tool for selecting datasets based on paths, quantities and min/max elevations.">
<polygon fill="white" stroke="black" points="222.5,-124.5 222.5,-143.5 302.5,-143.5 302.5,-124.5 222.5,-124.5"/>
<text text-anchor="middle" x="262.5" y="-131.5" font-family="Helvetica,sans-Serif" font-size="10.00">DataSelector</text>
</a>
</g>
</g>
<!-- Node3&#45;&gt;Node2 -->
<g id="edge2" class="edge">
<title>Node3&#45;&gt;Node2</title>
<path fill="none" stroke="#9a32cd" stroke-dasharray="5,2" d="M262.5,-114.04C262.5,-101.67 262.5,-86.12 262.5,-76.63"/>
<polygon fill="#9a32cd" stroke="#9a32cd" points="259,-114.23 262.5,-124.23 266,-114.23 259,-114.23"/>
<text text-anchor="middle" x="295" y="-98" font-family="Helvetica,sans-Serif" font-size="10.00"> dataSelector</text>
</g>
<!-- Node4 -->
<g id="node4" class="node">
<title>Node4</title>
<g id="a_node4"><a xlink:href="classdrain_1_1BeanLike.html" target="_top" xlink:title="Something which has a name, a description and possibly some parameters of varying type.">
<polygon fill="white" stroke="black" points="128,-202.5 128,-221.5 189,-221.5 189,-202.5 128,-202.5"/>
<text text-anchor="middle" x="158.5" y="-209.5" font-family="Helvetica,sans-Serif" font-size="10.00">BeanLike</text>
</a>
</g>
</g>
<!-- Node4&#45;&gt;Node1 -->
<g id="edge16" class="edge">
<title>Node4&#45;&gt;Node1</title>
<path fill="none" stroke="midnightblue" d="M161.83,-192.48C169.37,-150.63 187.46,-50.09 192.92,-19.79"/>
<polygon fill="midnightblue" stroke="midnightblue" points="158.37,-191.94 160.05,-202.41 165.26,-193.18 158.37,-191.94"/>
</g>
<!-- Node4&#45;&gt;Node3 -->
<g id="edge3" class="edge">
<title>Node4&#45;&gt;Node3</title>
<path fill="none" stroke="midnightblue" d="M186.26,-197.55C193.7,-193.53 201.59,-188.89 208.5,-184 226.07,-171.57 244.11,-154.04 254.26,-143.66"/>
<polygon fill="midnightblue" stroke="midnightblue" points="184.44,-194.55 177.18,-202.27 187.67,-200.76 184.44,-194.55"/>
</g>
<!-- Node5 -->
<g id="node5" class="node">
<title>Node5</title>
<g id="a_node5"><a xlink:href="classdrain_1_1ReferenceMap.html" target="_top" xlink:title=" ">
<polygon fill="white" stroke="black" points="41,-269.5 41,-288.5 128,-288.5 128,-269.5 41,-269.5"/>
<text text-anchor="middle" x="84.5" y="-276.5" font-family="Helvetica,sans-Serif" font-size="10.00">ReferenceMap</text>
</a>
</g>
</g>
<!-- Node5&#45;&gt;Node1 -->
<g id="edge17" class="edge">
<title>Node5&#45;&gt;Node1</title>
<path fill="none" stroke="#9a32cd" stroke-dasharray="5,2" d="M82.73,-259.15C81.66,-246.19 80.5,-228.57 80.5,-213 80.5,-213 80.5,-213 80.5,-66 80.5,-31.72 122.83,-18.79 155.9,-13.93"/>
<polygon fill="#9a32cd" stroke="#9a32cd" points="79.25,-259.53 83.61,-269.18 86.22,-258.91 79.25,-259.53"/>
<text text-anchor="middle" x="123.5" y="-131.5" font-family="Helvetica,sans-Serif" font-size="10.00"> allowedEncoding</text>
</g>
<!-- Node5&#45;&gt;Node4 -->
<g id="edge4" class="edge">
<title>Node5&#45;&gt;Node4</title>
<path fill="none" stroke="#9a32cd" stroke-dasharray="5,2" d="M102.31,-262.36C116.86,-249.58 136.88,-231.99 148.68,-221.63"/>
<polygon fill="#9a32cd" stroke="#9a32cd" points="99.68,-260 94.48,-269.23 104.3,-265.26 99.68,-260"/>
<text text-anchor="middle" x="156.5" y="-243" font-family="Helvetica,sans-Serif" font-size="10.00"> parameters</text>
</g>
<!-- Node6 -->
<g id="node6" class="node">
<title>Node6</title>
<g id="a_node6"><a xlink:href="classdrain_1_1SmartMap.html" target="_top" xlink:title=" ">
<polygon fill="white" stroke="black" points="13,-336.5 13,-355.5 156,-355.5 156,-336.5 13,-336.5"/>
<text text-anchor="middle" x="84.5" y="-343.5" font-family="Helvetica,sans-Serif" font-size="10.00">SmartMap&lt; Referencer &gt;</text>
</a>
</g>
</g>
<!-- Node6&#45;&gt;Node5 -->
<g id="edge5" class="edge">
<title>Node6&#45;&gt;Node5</title>
<path fill="none" stroke="midnightblue" d="M84.5,-326.04C84.5,-313.67 84.5,-298.12 84.5,-288.63"/>
<polygon fill="midnightblue" stroke="midnightblue" points="81,-326.23 84.5,-336.23 88,-326.23 81,-326.23"/>
</g>
<!-- Node7 -->
<g id="node7" class="node">
<title>Node7</title>
<g id="a_node7"><a xlink:title=" ">
<polygon fill="white" stroke="#bfbfbf" points="0,-393.5 0,-412.5 169,-412.5 169,-393.5 0,-393.5"/>
<text text-anchor="middle" x="84.5" y="-400.5" font-family="Helvetica,sans-Serif" font-size="10.00">map&lt; std::string, Referencer &gt;</text>
</a>
</g>
</g>
<!-- Node7&#45;&gt;Node6 -->
<g id="edge6" class="edge">
<title>Node7&#45;&gt;Node6</title>
<path fill="none" stroke="midnightblue" d="M84.5,-383.12C84.5,-373.82 84.5,-363.06 84.5,-355.71"/>
<polygon fill="midnightblue" stroke="midnightblue" points="81,-383.41 84.5,-393.41 88,-383.41 81,-383.41"/>
</g>
<!-- Node8 -->
<g id="node8" class="node">
<title>Node8</title>
<g id="a_node8"><a xlink:href="classrack_1_1ODIMPathMatcher.html" target="_top" xlink:title="Structure for testing if a path matches a given sequence of path elements.">
<polygon fill="white" stroke="black" points="207,-202.5 207,-221.5 312,-221.5 312,-202.5 207,-202.5"/>
<text text-anchor="middle" x="259.5" y="-209.5" font-family="Helvetica,sans-Serif" font-size="10.00">ODIMPathMatcher</text>
</a>
</g>
</g>
<!-- Node8&#45;&gt;Node3 -->
<g id="edge7" class="edge">
<title>Node8&#45;&gt;Node3</title>
<path fill="none" stroke="#9a32cd" stroke-dasharray="5,2" d="M260.24,-192.22C260.85,-176.7 261.7,-155.36 262.16,-143.62"/>
<polygon fill="#9a32cd" stroke="#9a32cd" points="256.74,-192.15 259.84,-202.28 263.74,-192.43 256.74,-192.15"/>
<text text-anchor="middle" x="294" y="-170.5" font-family="Helvetica,sans-Serif" font-size="10.00"> pathMatcher</text>
</g>
<!-- Node9 -->
<g id="node9" class="node">
<title>Node9</title>
<g id="a_node9"><a xlink:href="classdrain_1_1Path.html" target="_top" xlink:title=" ">
<polygon fill="white" stroke="black" points="172.5,-269.5 172.5,-288.5 346.5,-288.5 346.5,-269.5 172.5,-269.5"/>
<text text-anchor="middle" x="259.5" y="-276.5" font-family="Helvetica,sans-Serif" font-size="10.00">Path&lt; ODIMPathElemMatcher &gt;</text>
</a>
</g>
</g>
<!-- Node9&#45;&gt;Node8 -->
<g id="edge8" class="edge">
<title>Node9&#45;&gt;Node8</title>
<path fill="none" stroke="midnightblue" d="M259.5,-259.04C259.5,-246.67 259.5,-231.12 259.5,-221.63"/>
<polygon fill="midnightblue" stroke="midnightblue" points="256,-259.23 259.5,-269.23 263,-259.23 256,-259.23"/>
</g>
<!-- Node10 -->
<g id="node10" class="node">
<title>Node10</title>
<g id="a_node10"><a xlink:title=" ">
<polygon fill="white" stroke="#bfbfbf" points="175,-336.5 175,-355.5 342,-355.5 342,-336.5 175,-336.5"/>
<text text-anchor="middle" x="258.5" y="-343.5" font-family="Helvetica,sans-Serif" font-size="10.00">list&lt; ODIMPathElemMatcher &gt;</text>
</a>
</g>
</g>
<!-- Node10&#45;&gt;Node9 -->
<g id="edge9" class="edge">
<title>Node10&#45;&gt;Node9</title>
<path fill="none" stroke="midnightblue" d="M258.79,-326.04C258.98,-313.67 259.22,-298.12 259.37,-288.63"/>
<polygon fill="midnightblue" stroke="midnightblue" points="255.29,-326.18 258.63,-336.23 262.29,-326.29 255.29,-326.18"/>
</g>
<!-- Node11 -->
<g id="node11" class="node">
<title>Node11</title>
<g id="a_node11"><a xlink:href="structdrain_1_1PathSeparatorPolicy.html" target="_top" xlink:title="Determines if separators will be stored in the path.">
<polygon fill="white" stroke="black" points="360,-336.5 360,-355.5 475,-355.5 475,-336.5 360,-336.5"/>
<text text-anchor="middle" x="417.5" y="-343.5" font-family="Helvetica,sans-Serif" font-size="10.00">PathSeparatorPolicy</text>
</a>
</g>
</g>
<!-- Node11&#45;&gt;Node9 -->
<g id="edge10" class="edge">
<title>Node11&#45;&gt;Node9</title>
<path fill="none" stroke="#9a32cd" stroke-dasharray="5,2" d="M386.99,-332.45C355.71,-319.58 307.88,-299.9 280.57,-288.67"/>
<polygon fill="#9a32cd" stroke="#9a32cd" points="385.94,-335.8 396.52,-336.37 388.6,-329.33 385.94,-335.8"/>
<text text-anchor="middle" x="372.5" y="-310" font-family="Helvetica,sans-Serif" font-size="10.00"> separator</text>
</g>
<!-- Node12 -->
<g id="node12" class="node">
<title>Node12</title>
<g id="a_node12"><a xlink:href="classdrain_1_1UniTuple.html" target="_top" xlink:title=" ">
<polygon fill="white" stroke="black" points="360.5,-393.5 360.5,-412.5 474.5,-412.5 474.5,-393.5 360.5,-393.5"/>
<text text-anchor="middle" x="417.5" y="-400.5" font-family="Helvetica,sans-Serif" font-size="10.00">UniTuple&lt; bool, 3 &gt;</text>
</a>
</g>
</g>
<!-- Node12&#45;&gt;Node11 -->
<g id="edge11" class="edge">
<title>Node12&#45;&gt;Node11</title>
<path fill="none" stroke="midnightblue" d="M417.5,-383.12C417.5,-373.82 417.5,-363.06 417.5,-355.71"/>
<polygon fill="midnightblue" stroke="midnightblue" points="414,-383.41 417.5,-393.41 421,-383.41 414,-383.41"/>
</g>
<!-- Node13 -->
<g id="node13" class="node">
<title>Node13</title>
<g id="a_node13"><a xlink:href="classdrain_1_1RegExp.html" target="_top" xlink:title=" ">
<polygon fill="white" stroke="black" points="330,-202.5 330,-221.5 383,-221.5 383,-202.5 330,-202.5"/>
<text text-anchor="middle" x="356.5" y="-209.5" font-family="Helvetica,sans-Serif" font-size="10.00">RegExp</text>
</a>
</g>
</g>
<!-- Node13&#45;&gt;Node3 -->
<g id="edge12" class="edge">
<title>Node13&#45;&gt;Node3</title>
<path fill="none" stroke="#9a32cd" stroke-dasharray="5,2" d="M350.35,-192.59C346.15,-182.41 339.66,-170.2 330.5,-162 321.13,-153.61 308.84,-147.67 297.29,-143.54"/>
<polygon fill="#9a32cd" stroke="#9a32cd" points="347.16,-194.05 353.92,-202.2 353.72,-191.61 347.16,-194.05"/>
<text text-anchor="middle" x="386" y="-176" font-family="Helvetica,sans-Serif" font-size="10.00"> quantityRegExp</text>
<text text-anchor="middle" x="386" y="-165" font-family="Helvetica,sans-Serif" font-size="10.00">qualityRegExp</text>
</g>
<!-- Node14 -->
<g id="node14" class="node">
<title>Node14</title>
<g id="a_node14"><a xlink:href="classdrain_1_1Range.html" target="_top" xlink:title=" ">
<polygon fill="white" stroke="black" points="405,-202.5 405,-221.5 508,-221.5 508,-202.5 405,-202.5"/>
<text text-anchor="middle" x="456.5" y="-209.5" font-family="Helvetica,sans-Serif" font-size="10.00">Range&lt; double &gt;</text>
</a>
</g>
</g>
<!-- Node14&#45;&gt;Node3 -->
<g id="edge13" class="edge">
<title>Node14&#45;&gt;Node3</title>
<path fill="none" stroke="#9a32cd" stroke-dasharray="5,2" d="M451.27,-192.46C447.31,-181.86 440.75,-169.27 430.5,-162 386.86,-131.07 364.26,-152.83 311.5,-144 308.6,-143.51 305.61,-143 302.59,-142.47"/>
<polygon fill="#9a32cd" stroke="#9a32cd" points="447.99,-193.69 454.41,-202.12 454.65,-191.53 447.99,-193.69"/>
<text text-anchor="middle" x="466.5" y="-170.5" font-family="Helvetica,sans-Serif" font-size="10.00"> elangle</text>
</g>
<!-- Node15 -->
<g id="node15" class="node">
<title>Node15</title>
<g id="a_node15"><a xlink:href="classdrain_1_1UniTuple.html" target="_top" xlink:title=" ">
<polygon fill="white" stroke="black" points="393.5,-269.5 393.5,-288.5 519.5,-288.5 519.5,-269.5 393.5,-269.5"/>
<text text-anchor="middle" x="456.5" y="-276.5" font-family="Helvetica,sans-Serif" font-size="10.00">UniTuple&lt; double, 2 &gt;</text>
</a>
</g>
</g>
<!-- Node15&#45;&gt;Node14 -->
<g id="edge14" class="edge">
<title>Node15&#45;&gt;Node14</title>
<path fill="none" stroke="midnightblue" d="M456.5,-259.04C456.5,-246.67 456.5,-231.12 456.5,-221.63"/>
<polygon fill="midnightblue" stroke="midnightblue" points="453,-259.23 456.5,-269.23 460,-259.23 453,-259.23"/>
</g>
<!-- Node16 -->
<g id="node16" class="node">
<title>Node16</title>
<g id="a_node16"><a xlink:href="classrack_1_1ODIMPathElem.html" target="_top" xlink:title=" ">
<polygon fill="white" stroke="black" points="320.5,-124.5 320.5,-143.5 410.5,-143.5 410.5,-124.5 320.5,-124.5"/>
<text text-anchor="middle" x="365.5" y="-131.5" font-family="Helvetica,sans-Serif" font-size="10.00">ODIMPathElem</text>
</a>
</g>
</g>
<!-- Node16&#45;&gt;Node2 -->
<g id="edge15" class="edge">
<title>Node16&#45;&gt;Node2</title>
<path fill="none" stroke="#9a32cd" stroke-dasharray="5,2" d="M353.53,-116.4C347.57,-109.06 339.86,-100.81 331.5,-95 319.98,-87 305.76,-80.92 293.23,-76.57"/>
<polygon fill="#9a32cd" stroke="#9a32cd" points="350.79,-118.58 359.65,-124.38 356.34,-114.32 350.79,-118.58"/>
<text text-anchor="middle" x="381.5" y="-98" font-family="Helvetica,sans-Serif" font-size="10.00"> appendResults</text>
</g>
</g>
</svg>
