<?xml version="1.0" encoding="UTF-8" standalone="no"?>
<!DOCTYPE svg PUBLIC "-//W3C//DTD SVG 1.1//EN"
 "http://www.w3.org/Graphics/SVG/1.1/DTD/svg11.dtd">
<!-- Generated by graphviz version 2.43.0 (0)
 -->
<!-- Title: DatasetSelector Pages: 1 -->
<svg width="509pt" height="354pt"
 viewBox="0.00 0.00 508.50 354.00" xmlns="http://www.w3.org/2000/svg" xmlns:xlink="http://www.w3.org/1999/xlink">
<g id="graph0" class="graph" transform="scale(1 1) rotate(0) translate(4 350)">
<title>DatasetSelector</title>
<polygon fill="white" stroke="transparent" points="-4,4 -4,-350 504.5,-350 504.5,4 -4,4"/>
<!-- Node1 -->
<g id="node1" class="node">
<title>Node1</title>
<g id="a_node1"><a xlink:title=" ">
<polygon fill="#bfbfbf" stroke="black" points="241,-0.5 241,-19.5 336,-19.5 336,-0.5 241,-0.5"/>
<text text-anchor="middle" x="288.5" y="-7.5" font-family="Helvetica,sans-Serif" font-size="10.00">DatasetSelector</text>
</a>
</g>
</g>
<!-- Node2 -->
<g id="node2" class="node">
<title>Node2</title>
<g id="a_node2"><a xlink:href="classrack_1_1DataSelector.html" target="_top" xlink:title="Tool for selecting datasets based on paths, quantities and min/max elevations.">
<polygon fill="white" stroke="black" points="248.5,-57.5 248.5,-76.5 328.5,-76.5 328.5,-57.5 248.5,-57.5"/>
<text text-anchor="middle" x="288.5" y="-64.5" font-family="Helvetica,sans-Serif" font-size="10.00">DataSelector</text>
</a>
</g>
</g>
<!-- Node2&#45;&gt;Node1 -->
<g id="edge1" class="edge">
<title>Node2&#45;&gt;Node1</title>
<path fill="none" stroke="midnightblue" d="M288.5,-47.12C288.5,-37.82 288.5,-27.06 288.5,-19.71"/>
<polygon fill="midnightblue" stroke="midnightblue" points="285,-47.41 288.5,-57.41 292,-47.41 285,-47.41"/>
</g>
<!-- Node3 -->
<g id="node3" class="node">
<title>Node3</title>
<g id="a_node3"><a xlink:href="classdrain_1_1BeanLike.html" target="_top" xlink:title="Something which has a name, a description and possibly some parameters of varying type.">
<polygon fill="white" stroke="black" points="94,-135.5 94,-154.5 155,-154.5 155,-135.5 94,-135.5"/>
<text text-anchor="middle" x="124.5" y="-142.5" font-family="Helvetica,sans-Serif" font-size="10.00">BeanLike</text>
</a>
</g>
</g>
<!-- Node3&#45;&gt;Node2 -->
<g id="edge2" class="edge">
<title>Node3&#45;&gt;Node2</title>
<path fill="none" stroke="midnightblue" d="M152.22,-131.16C185.68,-115.65 241.04,-89.99 269.82,-76.66"/>
<polygon fill="midnightblue" stroke="midnightblue" points="150.6,-128.05 142.99,-135.43 153.54,-134.4 150.6,-128.05"/>
</g>
<!-- Node4 -->
<g id="node4" class="node">
<title>Node4</title>
<g id="a_node4"><a xlink:href="classdrain_1_1ReferenceMap.html" target="_top" xlink:title=" ">
<polygon fill="white" stroke="black" points="59,-202.5 59,-221.5 146,-221.5 146,-202.5 59,-202.5"/>
<text text-anchor="middle" x="102.5" y="-209.5" font-family="Helvetica,sans-Serif" font-size="10.00">ReferenceMap</text>
</a>
</g>
</g>
<!-- Node4&#45;&gt;Node3 -->
<g id="edge3" class="edge">
<title>Node4&#45;&gt;Node3</title>
<path fill="none" stroke="#9a32cd" stroke-dasharray="5,2" d="M108.79,-192.41C113,-179.99 118.33,-164.22 121.58,-154.63"/>
<polygon fill="#9a32cd" stroke="#9a32cd" points="105.36,-191.64 105.47,-202.23 111.99,-193.88 105.36,-191.64"/>
<text text-anchor="middle" x="145.5" y="-176" font-family="Helvetica,sans-Serif" font-size="10.00"> parameters</text>
</g>
<!-- Node5 -->
<g id="node5" class="node">
<title>Node5</title>
<g id="a_node5"><a xlink:href="classdrain_1_1SmartMap.html" target="_top" xlink:title=" ">
<polygon fill="white" stroke="black" points="13,-269.5 13,-288.5 156,-288.5 156,-269.5 13,-269.5"/>
<text text-anchor="middle" x="84.5" y="-276.5" font-family="Helvetica,sans-Serif" font-size="10.00">SmartMap&lt; Referencer &gt;</text>
</a>
</g>
</g>
<!-- Node5&#45;&gt;Node4 -->
<g id="edge4" class="edge">
<title>Node5&#45;&gt;Node4</title>
<path fill="none" stroke="midnightblue" d="M89.65,-259.41C93.09,-246.99 97.46,-231.22 100.11,-221.63"/>
<polygon fill="midnightblue" stroke="midnightblue" points="86.22,-258.66 86.93,-269.23 92.97,-260.53 86.22,-258.66"/>
</g>
<!-- Node6 -->
<g id="node6" class="node">
<title>Node6</title>
<g id="a_node6"><a xlink:title=" ">
<polygon fill="white" stroke="#bfbfbf" points="0,-326.5 0,-345.5 169,-345.5 169,-326.5 0,-326.5"/>
<text text-anchor="middle" x="84.5" y="-333.5" font-family="Helvetica,sans-Serif" font-size="10.00">map&lt; std::string, Referencer &gt;</text>
</a>
</g>
</g>
<!-- Node6&#45;&gt;Node5 -->
<g id="edge5" class="edge">
<title>Node6&#45;&gt;Node5</title>
<path fill="none" stroke="midnightblue" d="M84.5,-316.12C84.5,-306.82 84.5,-296.06 84.5,-288.71"/>
<polygon fill="midnightblue" stroke="midnightblue" points="81,-316.41 84.5,-326.41 88,-316.41 81,-316.41"/>
</g>
<!-- Node7 -->
<g id="node7" class="node">
<title>Node7</title>
<g id="a_node7"><a xlink:href="classrack_1_1ODIMPathMatcher.html" target="_top" xlink:title="Structure for testing if a path matches a given sequence of path elements.">
<polygon fill="white" stroke="black" points="188,-135.5 188,-154.5 293,-154.5 293,-135.5 188,-135.5"/>
<text text-anchor="middle" x="240.5" y="-142.5" font-family="Helvetica,sans-Serif" font-size="10.00">ODIMPathMatcher</text>
</a>
</g>
</g>
<!-- Node7&#45;&gt;Node2 -->
<g id="edge6" class="edge">
<title>Node7&#45;&gt;Node2</title>
<path fill="none" stroke="#9a32cd" stroke-dasharray="5,2" d="M239.14,-125.1C239.31,-115.43 240.93,-103.87 246.5,-95 251.48,-87.07 259.73,-81.03 267.61,-76.69"/>
<polygon fill="#9a32cd" stroke="#9a32cd" points="235.65,-125.42 239.45,-135.3 242.64,-125.2 235.65,-125.42"/>
<text text-anchor="middle" x="279" y="-103.5" font-family="Helvetica,sans-Serif" font-size="10.00"> pathMatcher</text>
</g>
<!-- Node8 -->
<g id="node8" class="node">
<title>Node8</title>
<g id="a_node8"><a xlink:href="classdrain_1_1Path.html" target="_top" xlink:title=" ">
<polygon fill="white" stroke="black" points="170.5,-202.5 170.5,-221.5 344.5,-221.5 344.5,-202.5 170.5,-202.5"/>
<text text-anchor="middle" x="257.5" y="-209.5" font-family="Helvetica,sans-Serif" font-size="10.00">Path&lt; ODIMPathElemMatcher &gt;</text>
</a>
</g>
</g>
<!-- Node8&#45;&gt;Node7 -->
<g id="edge7" class="edge">
<title>Node8&#45;&gt;Node7</title>
<path fill="none" stroke="midnightblue" d="M252.64,-192.41C249.39,-179.99 245.26,-164.22 242.76,-154.63"/>
<polygon fill="midnightblue" stroke="midnightblue" points="249.29,-193.44 255.21,-202.23 256.06,-191.67 249.29,-193.44"/>
</g>
<!-- Node9 -->
<g id="node9" class="node">
<title>Node9</title>
<g id="a_node9"><a xlink:title=" ">
<polygon fill="white" stroke="#bfbfbf" points="174,-269.5 174,-288.5 341,-288.5 341,-269.5 174,-269.5"/>
<text text-anchor="middle" x="257.5" y="-276.5" font-family="Helvetica,sans-Serif" font-size="10.00">list&lt; ODIMPathElemMatcher &gt;</text>
</a>
</g>
</g>
<!-- Node9&#45;&gt;Node8 -->
<g id="edge8" class="edge">
<title>Node9&#45;&gt;Node8</title>
<path fill="none" stroke="midnightblue" d="M257.5,-259.04C257.5,-246.67 257.5,-231.12 257.5,-221.63"/>
<polygon fill="midnightblue" stroke="midnightblue" points="254,-259.23 257.5,-269.23 261,-259.23 254,-259.23"/>
</g>
<!-- Node10 -->
<g id="node10" class="node">
<title>Node10</title>
<g id="a_node10"><a xlink:href="structdrain_1_1PathSeparatorPolicy.html" target="_top" xlink:title="Determines if separators will be stored in the path.">
<polygon fill="white" stroke="black" points="359,-269.5 359,-288.5 474,-288.5 474,-269.5 359,-269.5"/>
<text text-anchor="middle" x="416.5" y="-276.5" font-family="Helvetica,sans-Serif" font-size="10.00">PathSeparatorPolicy</text>
</a>
</g>
</g>
<!-- Node10&#45;&gt;Node8 -->
<g id="edge9" class="edge">
<title>Node10&#45;&gt;Node8</title>
<path fill="none" stroke="#9a32cd" stroke-dasharray="5,2" d="M385.77,-265.44C354.19,-252.53 305.88,-232.78 278.45,-221.56"/>
<polygon fill="#9a32cd" stroke="#9a32cd" points="384.81,-268.82 395.39,-269.37 387.45,-262.34 384.81,-268.82"/>
<text text-anchor="middle" x="372.5" y="-243" font-family="Helvetica,sans-Serif" font-size="10.00"> separator</text>
</g>
<!-- Node11 -->
<g id="node11" class="node">
<title>Node11</title>
<g id="a_node11"><a xlink:href="classdrain_1_1UniTuple.html" target="_top" xlink:title=" ">
<polygon fill="white" stroke="black" points="359.5,-326.5 359.5,-345.5 473.5,-345.5 473.5,-326.5 359.5,-326.5"/>
<text text-anchor="middle" x="416.5" y="-333.5" font-family="Helvetica,sans-Serif" font-size="10.00">UniTuple&lt; bool, 3 &gt;</text>
</a>
</g>
</g>
<!-- Node11&#45;&gt;Node10 -->
<g id="edge10" class="edge">
<title>Node11&#45;&gt;Node10</title>
<path fill="none" stroke="midnightblue" d="M416.5,-316.12C416.5,-306.82 416.5,-296.06 416.5,-288.71"/>
<polygon fill="midnightblue" stroke="midnightblue" points="413,-316.41 416.5,-326.41 420,-316.41 413,-316.41"/>
</g>
<!-- Node12 -->
<g id="node12" class="node">
<title>Node12</title>
<g id="a_node12"><a xlink:href="classdrain_1_1RegExp.html" target="_top" xlink:title=" ">
<polygon fill="white" stroke="black" points="311,-135.5 311,-154.5 364,-154.5 364,-135.5 311,-135.5"/>
<text text-anchor="middle" x="337.5" y="-142.5" font-family="Helvetica,sans-Serif" font-size="10.00">RegExp</text>
</a>
</g>
</g>
<!-- Node12&#45;&gt;Node2 -->
<g id="edge11" class="edge">
<title>Node12&#45;&gt;Node2</title>
<path fill="none" stroke="#9a32cd" stroke-dasharray="5,2" d="M329.17,-126.09C324.46,-116.56 318.18,-104.83 311.5,-95 307.07,-88.48 301.32,-81.73 296.68,-76.61"/>
<polygon fill="#9a32cd" stroke="#9a32cd" points="326.14,-127.85 333.62,-135.35 332.45,-124.82 326.14,-127.85"/>
<text text-anchor="middle" x="365" y="-109" font-family="Helvetica,sans-Serif" font-size="10.00"> quantityRegExp</text>
<text text-anchor="middle" x="365" y="-98" font-family="Helvetica,sans-Serif" font-size="10.00">qualityRegExp</text>
</g>
<!-- Node13 -->
<g id="node13" class="node">
<title>Node13</title>
<g id="a_node13"><a xlink:href="classdrain_1_1Range.html" target="_top" xlink:title=" ">
<polygon fill="white" stroke="black" points="386,-135.5 386,-154.5 489,-154.5 489,-135.5 386,-135.5"/>
<text text-anchor="middle" x="437.5" y="-142.5" font-family="Helvetica,sans-Serif" font-size="10.00">Range&lt; double &gt;</text>
</a>
</g>
</g>
<!-- Node13&#45;&gt;Node2 -->
<g id="edge12" class="edge">
<title>Node13&#45;&gt;Node2</title>
<path fill="none" stroke="#9a32cd" stroke-dasharray="5,2" d="M431.33,-125.69C426.86,-115.18 419.79,-102.59 409.5,-95 386.2,-77.81 353.99,-71.23 328.65,-68.86"/>
<polygon fill="#9a32cd" stroke="#9a32cd" points="428.13,-127.14 434.94,-135.25 434.68,-124.66 428.13,-127.14"/>
<text text-anchor="middle" x="447.5" y="-103.5" font-family="Helvetica,sans-Serif" font-size="10.00"> elangle</text>
</g>
<!-- Node14 -->
<g id="node14" class="node">
<title>Node14</title>
<g id="a_node14"><a xlink:href="classdrain_1_1UniTuple.html" target="_top" xlink:title=" ">
<polygon fill="white" stroke="black" points="374.5,-202.5 374.5,-221.5 500.5,-221.5 500.5,-202.5 374.5,-202.5"/>
<text text-anchor="middle" x="437.5" y="-209.5" font-family="Helvetica,sans-Serif" font-size="10.00">UniTuple&lt; double, 2 &gt;</text>
</a>
</g>
</g>
<!-- Node14&#45;&gt;Node13 -->
<g id="edge13" class="edge">
<title>Node14&#45;&gt;Node13</title>
<path fill="none" stroke="midnightblue" d="M437.5,-192.04C437.5,-179.67 437.5,-164.12 437.5,-154.63"/>
<polygon fill="midnightblue" stroke="midnightblue" points="434,-192.23 437.5,-202.23 441,-192.23 434,-192.23"/>
</g>
</g>
</svg>
