<?xml version="1.0" encoding="UTF-8" standalone="no"?>
<!DOCTYPE svg PUBLIC "-//W3C//DTD SVG 1.1//EN"
 "http://www.w3.org/Graphics/SVG/1.1/DTD/svg11.dtd">
<!-- Generated by graphviz version 2.43.0 (0)
 -->
<!-- Title: CartesianModule Pages: 1 -->
<svg width="163pt" height="162pt"
 viewBox="0.00 0.00 163.00 162.00" xmlns="http://www.w3.org/2000/svg" xmlns:xlink="http://www.w3.org/1999/xlink">
<g id="graph0" class="graph" transform="scale(1 1) rotate(0) translate(4 158)">
<title>CartesianModule</title>
<polygon fill="white" stroke="transparent" points="-4,4 -4,-158 159,-158 159,4 -4,4"/>
<!-- Node1 -->
<g id="node1" class="node">
<title>Node1</title>
<g id="a_node1"><a xlink:title="drain::Commands for conversions to Cartesian coordinate system, including radar image composites.">
<polygon fill="#bfbfbf" stroke="black" points="28,-0.5 28,-19.5 127,-19.5 127,-0.5 28,-0.5"/>
<text text-anchor="middle" x="77.5" y="-7.5" font-family="Helvetica,sans-Serif" font-size="10.00">CartesianModule</text>
</a>
</g>
</g>
<!-- Node2 -->
<g id="node2" class="node">
<title>Node2</title>
<g id="a_node2"><a xlink:href="classdrain_1_1CommandModule.html" target="_top" xlink:title=" ">
<polygon fill="white" stroke="black" points="13.5,-56.5 13.5,-86.5 141.5,-86.5 141.5,-56.5 13.5,-56.5"/>
<text text-anchor="start" x="21.5" y="-74.5" font-family="Helvetica,sans-Serif" font-size="10.00">CommandModule&lt; &#39;c&#39;,</text>
<text text-anchor="middle" x="77.5" y="-63.5" font-family="Helvetica,sans-Serif" font-size="10.00"> CartesianSection &gt;</text>
</a>
</g>
</g>
<!-- Node2&#45;&gt;Node1 -->
<g id="edge1" class="edge">
<title>Node2&#45;&gt;Node1</title>
<path fill="none" stroke="#8b1a1a" d="M77.5,-46.29C77.5,-36.86 77.5,-26.65 77.5,-19.66"/>
<polygon fill="#8b1a1a" stroke="#8b1a1a" points="74,-46.4 77.5,-56.4 81,-46.4 74,-46.4"/>
</g>
<!-- Node3 -->
<g id="node3" class="node">
<title>Node3</title>
<g id="a_node3"><a xlink:href="classdrain_1_1CommandInstaller.html" target="_top" xlink:title=" ">
<polygon fill="white" stroke="black" points="0,-123.5 0,-153.5 155,-153.5 155,-123.5 0,-123.5"/>
<text text-anchor="start" x="8" y="-141.5" font-family="Helvetica,sans-Serif" font-size="10.00">CommandInstaller&lt; PREFIX,</text>
<text text-anchor="middle" x="77.5" y="-130.5" font-family="Helvetica,sans-Serif" font-size="10.00"> CartesianSection &gt;</text>
</a>
</g>
</g>
<!-- Node3&#45;&gt;Node2 -->
<g id="edge2" class="edge">
<title>Node3&#45;&gt;Node2</title>
<path fill="none" stroke="darkgreen" d="M77.5,-113.11C77.5,-104.15 77.5,-94.32 77.5,-86.58"/>
<polygon fill="darkgreen" stroke="darkgreen" points="74,-113.4 77.5,-123.4 81,-113.4 74,-113.4"/>
</g>
</g>
</svg>
