<?xml version="1.0" encoding="UTF-8" standalone="no"?>
<!DOCTYPE svg PUBLIC "-//W3C//DTD SVG 1.1//EN"
 "http://www.w3.org/Graphics/SVG/1.1/DTD/svg11.dtd">
<!-- Generated by graphviz version 2.43.0 (0)
 -->
<!-- Title: UniCloner&lt; B &gt; Pages: 1 -->
<svg width="144pt" height="163pt"
 viewBox="0.00 0.00 144.00 163.00" xmlns="http://www.w3.org/2000/svg" xmlns:xlink="http://www.w3.org/1999/xlink">
<g id="graph0" class="graph" transform="scale(1 1) rotate(0) translate(4 159)">
<title>UniCloner&lt; B &gt;</title>
<polygon fill="white" stroke="transparent" points="-4,4 -4,-159 140,-159 140,4 -4,4"/>
<!-- Node1 -->
<g id="node1" class="node">
<title>Node1</title>
<g id="a_node1"><a xlink:title="Creates an entry of desired type and destroys it upon exit.">
<polygon fill="#bfbfbf" stroke="black" points="21,-0.5 21,-19.5 115,-19.5 115,-0.5 21,-0.5"/>
<text text-anchor="middle" x="68" y="-7.5" font-family="Helvetica,sans-Serif" font-size="10.00">UniCloner&lt; B &gt;</text>
</a>
</g>
</g>
<!-- Node2 -->
<g id="node2" class="node">
<title>Node2</title>
<g id="a_node2"><a xlink:href="classdrain_1_1Bank.html" target="_top" xlink:title=" ">
<polygon fill="white" stroke="black" points="26.5,-67.5 26.5,-86.5 109.5,-86.5 109.5,-67.5 26.5,-67.5"/>
<text text-anchor="middle" x="68" y="-74.5" font-family="Helvetica,sans-Serif" font-size="10.00">Bank&lt; T, K &gt;</text>
</a>
</g>
</g>
<!-- Node2&#45;&gt;Node1 -->
<g id="edge1" class="edge">
<title>Node2&#45;&gt;Node1</title>
<path fill="none" stroke="#9a32cd" stroke-dasharray="5,2" d="M68,-57.04C68,-44.67 68,-29.12 68,-19.63"/>
<polygon fill="#9a32cd" stroke="#9a32cd" points="64.5,-57.23 68,-67.23 71.5,-57.23 64.5,-57.23"/>
<text text-anchor="middle" x="82" y="-41" font-family="Helvetica,sans-Serif" font-size="10.00"> bank</text>
</g>
<!-- Node3 -->
<g id="node3" class="node">
<title>Node3</title>
<g id="a_node3"><a xlink:title=" ">
<polygon fill="white" stroke="#bfbfbf" points="0,-124.5 0,-154.5 136,-154.5 136,-124.5 0,-124.5"/>
<text text-anchor="start" x="8" y="-142.5" font-family="Helvetica,sans-Serif" font-size="10.00">map&lt; std::string, Cloner</text>
<text text-anchor="middle" x="68" y="-131.5" font-family="Helvetica,sans-Serif" font-size="10.00">Base&lt; T &gt; * &gt;</text>
</a>
</g>
</g>
<!-- Node3&#45;&gt;Node2 -->
<g id="edge2" class="edge">
<title>Node3&#45;&gt;Node2</title>
<path fill="none" stroke="darkgreen" d="M68,-114.35C68,-104.51 68,-93.78 68,-86.54"/>
<polygon fill="darkgreen" stroke="darkgreen" points="64.5,-114.47 68,-124.47 71.5,-114.47 64.5,-114.47"/>
</g>
</g>
</svg>
