<?xml version="1.0" encoding="UTF-8" standalone="no"?>
<!DOCTYPE svg PUBLIC "-//W3C//DTD SVG 1.1//EN"
 "http://www.w3.org/Graphics/SVG/1.1/DTD/svg11.dtd">
<!-- Generated by graphviz version 2.43.0 (0)
 -->
<!-- Title: DopplerAvgExpOp Pages: 1 -->
<svg width="1177pt" height="244pt"
 viewBox="0.00 0.00 1177.00 243.50" xmlns="http://www.w3.org/2000/svg" xmlns:xlink="http://www.w3.org/1999/xlink">
<g id="graph0" class="graph" transform="scale(1 1) rotate(0) translate(4 239.5)">
<title>DopplerAvgExpOp</title>
<polygon fill="white" stroke="transparent" points="-4,4 -4,-239.5 1173,-239.5 1173,4 -4,4"/>
<!-- Node1 -->
<g id="node1" class="node">
<title>Node1</title>
<g id="a_node1"><a xlink:title=" ">
<polygon fill="#bfbfbf" stroke="black" points="1065,-104.5 1065,-123.5 1169,-123.5 1169,-104.5 1065,-104.5"/>
<text text-anchor="middle" x="1117" y="-111.5" font-family="Helvetica,sans-Serif" font-size="10.00">DopplerAvgExpOp</text>
</a>
</g>
</g>
<!-- Node2 -->
<g id="node2" class="node">
<title>Node2</title>
<g id="a_node2"><a xlink:href="classrack_1_1PolarProductOp.html" target="_top" xlink:title="Base class for flat (2D) products computed in the polar coordinate system. Volume is used as input.">
<polygon fill="white" stroke="black" points="910,-142.5 910,-161.5 1002,-161.5 1002,-142.5 910,-142.5"/>
<text text-anchor="middle" x="956" y="-149.5" font-family="Helvetica,sans-Serif" font-size="10.00">PolarProductOp</text>
</a>
</g>
</g>
<!-- Node2&#45;&gt;Node1 -->
<g id="edge1" class="edge">
<title>Node2&#45;&gt;Node1</title>
<path fill="none" stroke="midnightblue" d="M1007.08,-140.03C1029.36,-134.71 1055.23,-128.52 1076.17,-123.52"/>
<polygon fill="midnightblue" stroke="midnightblue" points="1006.03,-136.68 997.12,-142.41 1007.66,-143.49 1006.03,-136.68"/>
</g>
<!-- Node3 -->
<g id="node3" class="node">
<title>Node3</title>
<g id="a_node3"><a xlink:href="classrack_1_1VolumeOp.html" target="_top" xlink:title=" ">
<polygon fill="white" stroke="black" points="644,-198.5 644,-217.5 786,-217.5 786,-198.5 644,-198.5"/>
<text text-anchor="middle" x="715" y="-205.5" font-family="Helvetica,sans-Serif" font-size="10.00">VolumeOp&lt; PolarODIM &gt;</text>
</a>
</g>
</g>
<!-- Node3&#45;&gt;Node2 -->
<g id="edge2" class="edge">
<title>Node3&#45;&gt;Node2</title>
<path fill="none" stroke="midnightblue" d="M766.73,-196.11C810.74,-185.8 873.6,-171.07 914.35,-161.52"/>
<polygon fill="midnightblue" stroke="midnightblue" points="765.75,-192.75 756.81,-198.44 767.35,-199.56 765.75,-192.75"/>
</g>
<!-- Node4 -->
<g id="node4" class="node">
<title>Node4</title>
<g id="a_node4"><a xlink:href="classdrain_1_1image_1_1ProductOp.html" target="_top" xlink:title=" ">
<polygon fill="white" stroke="black" points="386,-205 386,-235 548,-235 548,-205 386,-205"/>
<text text-anchor="start" x="394" y="-223" font-family="Helvetica,sans-Serif" font-size="10.00">ProductOp&lt; const PolarODIM,</text>
<text text-anchor="middle" x="467" y="-212" font-family="Helvetica,sans-Serif" font-size="10.00"> PolarODIM &gt;</text>
</a>
</g>
</g>
<!-- Node4&#45;&gt;Node3 -->
<g id="edge3" class="edge">
<title>Node4&#45;&gt;Node3</title>
<path fill="none" stroke="midnightblue" d="M558.47,-215.59C586.64,-214.21 617.27,-212.72 643.83,-211.42"/>
<polygon fill="midnightblue" stroke="midnightblue" points="558.03,-212.1 548.21,-216.09 558.37,-219.1 558.03,-212.1"/>
</g>
<!-- Node5 -->
<g id="node5" class="node">
<title>Node5</title>
<g id="a_node5"><a xlink:href="classdrain_1_1image_1_1CoordinatePolicy.html" target="_top" xlink:title="Policies for coordinate underflows and overflows.">
<polygon fill="white" stroke="black" points="665.5,-142.5 665.5,-161.5 764.5,-161.5 764.5,-142.5 665.5,-142.5"/>
<text text-anchor="middle" x="715" y="-149.5" font-family="Helvetica,sans-Serif" font-size="10.00">CoordinatePolicy</text>
</a>
</g>
</g>
<!-- Node5&#45;&gt;Node2 -->
<g id="edge4" class="edge">
<title>Node5&#45;&gt;Node2</title>
<path fill="none" stroke="#9a32cd" stroke-dasharray="5,2" d="M774.66,-152C816.3,-152 871.37,-152 909.65,-152"/>
<polygon fill="#9a32cd" stroke="#9a32cd" points="774.65,-148.5 764.65,-152 774.65,-155.5 774.65,-148.5"/>
<text text-anchor="middle" x="847" y="-155" font-family="Helvetica,sans-Serif" font-size="10.00"> polarCoordPolicy</text>
</g>
<!-- Node6 -->
<g id="node6" class="node">
<title>Node6</title>
<g id="a_node6"><a xlink:href="classdrain_1_1UniTuple.html" target="_top" xlink:title=" ">
<polygon fill="white" stroke="black" points="408.5,-156 408.5,-186 525.5,-186 525.5,-156 408.5,-156"/>
<text text-anchor="start" x="416.5" y="-174" font-family="Helvetica,sans-Serif" font-size="10.00">UniTuple&lt; coord_pol</text>
<text text-anchor="middle" x="467" y="-163" font-family="Helvetica,sans-Serif" font-size="10.00">_t, 4 &gt;</text>
</a>
</g>
</g>
<!-- Node6&#45;&gt;Node5 -->
<g id="edge5" class="edge">
<title>Node6&#45;&gt;Node5</title>
<path fill="none" stroke="midnightblue" d="M535.88,-165.76C576.96,-162.58 628.37,-158.61 665.39,-155.75"/>
<polygon fill="midnightblue" stroke="midnightblue" points="535.38,-162.29 525.68,-166.55 535.92,-169.26 535.38,-162.29"/>
</g>
<!-- Node7 -->
<g id="node7" class="node">
<title>Node7</title>
<g id="a_node7"><a xlink:href="classdrain_1_1Dictionary2.html" target="_top" xlink:title="Two&#45;way mapping between strings and objects of template class T.">
<polygon fill="white" stroke="black" points="409.5,-117.5 409.5,-136.5 524.5,-136.5 524.5,-117.5 409.5,-117.5"/>
<text text-anchor="middle" x="467" y="-124.5" font-family="Helvetica,sans-Serif" font-size="10.00">Dictionary2&lt; K, V &gt;</text>
</a>
</g>
</g>
<!-- Node7&#45;&gt;Node5 -->
<g id="edge6" class="edge">
<title>Node7&#45;&gt;Node5</title>
<path fill="none" stroke="#9a32cd" stroke-dasharray="5,2" d="M534.72,-133.78C576,-137.98 628.05,-143.27 665.42,-147.06"/>
<polygon fill="#9a32cd" stroke="#9a32cd" points="535.05,-130.3 524.75,-132.77 534.34,-137.26 535.05,-130.3"/>
<text text-anchor="middle" x="596" y="-145" font-family="Helvetica,sans-Serif" font-size="10.00"> dict</text>
</g>
<!-- Node8 -->
<g id="node8" class="node">
<title>Node8</title>
<g id="a_node8"><a xlink:title=" ">
<polygon fill="white" stroke="#bfbfbf" points="225.5,-113 225.5,-143 329.5,-143 329.5,-113 225.5,-113"/>
<text text-anchor="start" x="233.5" y="-131" font-family="Helvetica,sans-Serif" font-size="10.00">list&lt; std::pair&lt; K,</text>
<text text-anchor="middle" x="277.5" y="-120" font-family="Helvetica,sans-Serif" font-size="10.00"> V &gt; &gt;</text>
</a>
</g>
</g>
<!-- Node8&#45;&gt;Node7 -->
<g id="edge7" class="edge">
<title>Node8&#45;&gt;Node7</title>
<path fill="none" stroke="midnightblue" d="M339.78,-127.67C362.13,-127.55 387.28,-127.42 409.22,-127.3"/>
<polygon fill="midnightblue" stroke="midnightblue" points="339.72,-124.17 329.74,-127.73 339.75,-131.17 339.72,-124.17"/>
</g>
<!-- Node9 -->
<g id="node9" class="node">
<title>Node9</title>
<g id="a_node9"><a xlink:href="structdrain_1_1image_1_1ImpulseAvgConf.html" target="_top" xlink:title=" ">
<polygon fill="white" stroke="black" points="908,-76.5 908,-95.5 1004,-95.5 1004,-76.5 908,-76.5"/>
<text text-anchor="middle" x="956" y="-83.5" font-family="Helvetica,sans-Serif" font-size="10.00">ImpulseAvgConf</text>
</a>
</g>
</g>
<!-- Node9&#45;&gt;Node1 -->
<g id="edge8" class="edge">
<title>Node9&#45;&gt;Node1</title>
<path fill="none" stroke="#9a32cd" stroke-dasharray="5,2" d="M1014.33,-96.1C1030.8,-99 1048.66,-102.14 1064.75,-104.97"/>
<polygon fill="#9a32cd" stroke="#9a32cd" points="1014.73,-92.61 1004.27,-94.33 1013.52,-99.51 1014.73,-92.61"/>
<text text-anchor="middle" x="1034.5" y="-104" font-family="Helvetica,sans-Serif" font-size="10.00"> conf</text>
</g>
<!-- Node10 -->
<g id="node10" class="node">
<title>Node10</title>
<g id="a_node10"><a xlink:href="classdrain_1_1BeanLike.html" target="_top" xlink:title="Something which has a name, a description and possibly some parameters of varying type.">
<polygon fill="white" stroke="black" points="684.5,-76.5 684.5,-95.5 745.5,-95.5 745.5,-76.5 684.5,-76.5"/>
<text text-anchor="middle" x="715" y="-83.5" font-family="Helvetica,sans-Serif" font-size="10.00">BeanLike</text>
</a>
</g>
</g>
<!-- Node10&#45;&gt;Node9 -->
<g id="edge9" class="edge">
<title>Node10&#45;&gt;Node9</title>
<path fill="none" stroke="midnightblue" d="M755.89,-86C797.76,-86 863.55,-86 907.94,-86"/>
<polygon fill="midnightblue" stroke="midnightblue" points="755.79,-82.5 745.79,-86 755.79,-89.5 755.79,-82.5"/>
</g>
<!-- Node11 -->
<g id="node11" class="node">
<title>Node11</title>
<g id="a_node11"><a xlink:href="classdrain_1_1ReferenceMap.html" target="_top" xlink:title=" ">
<polygon fill="white" stroke="black" points="423.5,-76.5 423.5,-95.5 510.5,-95.5 510.5,-76.5 423.5,-76.5"/>
<text text-anchor="middle" x="467" y="-83.5" font-family="Helvetica,sans-Serif" font-size="10.00">ReferenceMap</text>
</a>
</g>
</g>
<!-- Node11&#45;&gt;Node10 -->
<g id="edge10" class="edge">
<title>Node11&#45;&gt;Node10</title>
<path fill="none" stroke="#9a32cd" stroke-dasharray="5,2" d="M520.85,-86C570.77,-86 643.86,-86 684.31,-86"/>
<polygon fill="#9a32cd" stroke="#9a32cd" points="520.57,-82.5 510.57,-86 520.57,-89.5 520.57,-82.5"/>
<text text-anchor="middle" x="596" y="-89" font-family="Helvetica,sans-Serif" font-size="10.00"> parameters</text>
</g>
<!-- Node12 -->
<g id="node12" class="node">
<title>Node12</title>
<g id="a_node12"><a xlink:href="classdrain_1_1SmartMap.html" target="_top" xlink:title=" ">
<polygon fill="white" stroke="black" points="206,-74.5 206,-93.5 349,-93.5 349,-74.5 206,-74.5"/>
<text text-anchor="middle" x="277.5" y="-81.5" font-family="Helvetica,sans-Serif" font-size="10.00">SmartMap&lt; Referencer &gt;</text>
</a>
</g>
</g>
<!-- Node12&#45;&gt;Node11 -->
<g id="edge11" class="edge">
<title>Node12&#45;&gt;Node11</title>
<path fill="none" stroke="midnightblue" d="M359.19,-84.86C381.31,-85.1 404.42,-85.34 423.46,-85.55"/>
<polygon fill="midnightblue" stroke="midnightblue" points="359.16,-81.36 349.12,-84.75 359.08,-88.36 359.16,-81.36"/>
</g>
<!-- Node13 -->
<g id="node13" class="node">
<title>Node13</title>
<g id="a_node13"><a xlink:title=" ">
<polygon fill="white" stroke="#bfbfbf" points="0,-74.5 0,-93.5 169,-93.5 169,-74.5 0,-74.5"/>
<text text-anchor="middle" x="84.5" y="-81.5" font-family="Helvetica,sans-Serif" font-size="10.00">map&lt; std::string, Referencer &gt;</text>
</a>
</g>
</g>
<!-- Node13&#45;&gt;Node12 -->
<g id="edge12" class="edge">
<title>Node13&#45;&gt;Node12</title>
<path fill="none" stroke="midnightblue" d="M179.35,-84C188.29,-84 197.25,-84 205.92,-84"/>
<polygon fill="midnightblue" stroke="midnightblue" points="179.28,-80.5 169.28,-84 179.28,-87.5 179.28,-80.5"/>
</g>
<!-- Node14 -->
<g id="node14" class="node">
<title>Node14</title>
<g id="a_node14"><a xlink:href="structdrain_1_1image_1_1Decay4.html" target="_top" xlink:title=" ">
<polygon fill="white" stroke="black" points="660.5,-38.5 660.5,-57.5 769.5,-57.5 769.5,-38.5 660.5,-38.5"/>
<text text-anchor="middle" x="715" y="-45.5" font-family="Helvetica,sans-Serif" font-size="10.00">Decay4&lt; double &gt;</text>
</a>
</g>
</g>
<!-- Node14&#45;&gt;Node9 -->
<g id="edge13" class="edge">
<title>Node14&#45;&gt;Node9</title>
<path fill="none" stroke="#9a32cd" stroke-dasharray="5,2" d="M779.5,-54.92C812.57,-58.89 853.59,-64.41 890,-71 898.55,-72.55 907.67,-74.48 916.29,-76.43"/>
<polygon fill="#9a32cd" stroke="#9a32cd" points="779.85,-51.44 769.51,-53.74 779.03,-58.39 779.85,-51.44"/>
<text text-anchor="middle" x="847" y="-74" font-family="Helvetica,sans-Serif" font-size="10.00"> decays</text>
</g>
<!-- Node15 -->
<g id="node15" class="node">
<title>Node15</title>
<g id="a_node15"><a xlink:href="classdrain_1_1UniTuple.html" target="_top" xlink:title=" ">
<polygon fill="white" stroke="black" points="404,-38.5 404,-57.5 530,-57.5 530,-38.5 404,-38.5"/>
<text text-anchor="middle" x="467" y="-45.5" font-family="Helvetica,sans-Serif" font-size="10.00">UniTuple&lt; double, 4 &gt;</text>
</a>
</g>
</g>
<!-- Node15&#45;&gt;Node14 -->
<g id="edge14" class="edge">
<title>Node15&#45;&gt;Node14</title>
<path fill="none" stroke="midnightblue" d="M540.17,-48C578.61,-48 625.08,-48 660.3,-48"/>
<polygon fill="midnightblue" stroke="midnightblue" points="540.08,-44.5 530.08,-48 540.08,-51.5 540.08,-44.5"/>
</g>
<!-- Node16 -->
<g id="node16" class="node">
<title>Node16</title>
<g id="a_node16"><a xlink:href="classdrain_1_1image_1_1Decay2.html" target="_top" xlink:title=" ">
<polygon fill="white" stroke="black" points="412.5,-0.5 412.5,-19.5 521.5,-19.5 521.5,-0.5 412.5,-0.5"/>
<text text-anchor="middle" x="467" y="-7.5" font-family="Helvetica,sans-Serif" font-size="10.00">Decay2&lt; double &gt;</text>
</a>
</g>
</g>
<!-- Node16&#45;&gt;Node14 -->
<g id="edge15" class="edge">
<title>Node16&#45;&gt;Node14</title>
<path fill="none" stroke="#9a32cd" stroke-dasharray="5,2" d="M531.74,-11.77C560.69,-13.36 595.26,-16.36 626,-22 646.84,-25.83 669.78,-32.69 687.01,-38.41"/>
<polygon fill="#9a32cd" stroke="#9a32cd" points="531.91,-8.28 521.75,-11.27 531.56,-15.27 531.91,-8.28"/>
<text text-anchor="middle" x="596" y="-36" font-family="Helvetica,sans-Serif" font-size="10.00"> vert</text>
<text text-anchor="middle" x="596" y="-25" font-family="Helvetica,sans-Serif" font-size="10.00">horz</text>
</g>
<!-- Node17 -->
<g id="node17" class="node">
<title>Node17</title>
<g id="a_node17"><a xlink:href="classdrain_1_1UniTuple.html" target="_top" xlink:title=" ">
<polygon fill="white" stroke="black" points="214.5,-0.5 214.5,-19.5 340.5,-19.5 340.5,-0.5 214.5,-0.5"/>
<text text-anchor="middle" x="277.5" y="-7.5" font-family="Helvetica,sans-Serif" font-size="10.00">UniTuple&lt; double, 2 &gt;</text>
</a>
</g>
</g>
<!-- Node17&#45;&gt;Node16 -->
<g id="edge16" class="edge">
<title>Node17&#45;&gt;Node16</title>
<path fill="none" stroke="midnightblue" d="M350.91,-10C371.4,-10 393.32,-10 412.47,-10"/>
<polygon fill="midnightblue" stroke="midnightblue" points="350.67,-6.5 340.67,-10 350.67,-13.5 350.67,-6.5"/>
</g>
</g>
</svg>
