<?xml version="1.0" encoding="UTF-8" standalone="no"?>
<!DOCTYPE svg PUBLIC "-//W3C//DTD SVG 1.1//EN"
 "http://www.w3.org/Graphics/SVG/1.1/DTD/svg11.dtd">
<!-- Generated by graphviz version 2.43.0 (0)
 -->
<!-- Title: CmdImageBox Pages: 1 -->
<!--zoomable 557 -->
<svg id="main" version="1.1" xmlns="http://www.w3.org/2000/svg" xmlns:xlink="http://www.w3.org/1999/xlink" xml:space="preserve" onload="init(evt)">
<style type="text/css"><![CDATA[
.edge:hover path { stroke: red; }
.edge:hover polygon { stroke: red; fill: red; }
]]></style>
<script type="text/javascript"><![CDATA[
var edges = document.getElementsByTagName('g');
if (edges && edges.length) {
  for (var i=0;i<edges.length;i++) {
    if (edges[i].id.substr(0,4)=='edge') {
      edges[i].setAttribute('class','edge');
    }
  }
}
]]></script>
        <defs>
                <circle id="rim" cx="0" cy="0" r="7"/>
                <circle id="rim2" cx="0" cy="0" r="3.5"/>
                <g id="zoomPlus">
                        <use xlink:href="#rim" fill="#404040">
                                <set attributeName="fill" to="#808080" begin="zoomplus.mouseover" end="zoomplus.mouseout"/>
                        </use>
                        <path d="M-4,0h8M0,-4v8" fill="none" stroke="white" stroke-width="1.5" pointer-events="none"/>
                </g>
                <g id="zoomMin">
                        <use xlink:href="#rim" fill="#404040">
                                <set attributeName="fill" to="#808080" begin="zoomminus.mouseover" end="zoomminus.mouseout"/>
                        </use>
                        <path d="M-4,0h8" fill="none" stroke="white" stroke-width="1.5" pointer-events="none"/>
                </g>
                <g id="dirArrow">
                        <path fill="none" stroke="white" stroke-width="1.5" d="M0,-3.0v7 M-2.5,-0.5L0,-3.0L2.5,-0.5"/>
                </g>
               <g id="resetDef">
                       <use xlink:href="#rim2" fill="#404040">
                               <set attributeName="fill" to="#808080" begin="reset.mouseover" end="reset.mouseout"/>
                       </use>
               </g>
        </defs>

<script type="text/javascript">
var viewWidth = 471;
var viewHeight = 557;
var sectionId = 'dynsection-1';
</script>
<script xlink:href="svgpan.js"/>
<svg id="graph" class="graph">
<g id="viewport">
<title>CmdImageBox</title>
<polygon fill="white" stroke="transparent" points="-4,4 -4,-553 467,-553 467,4 -4,4"/>
<!-- Node1 -->
<g id="node1" class="node">
<title>Node1</title>
<g id="a_node1"><a xlink:title=" ">
<polygon fill="#bfbfbf" stroke="black" points="214.5,-0.5 214.5,-19.5 303.5,-19.5 303.5,-0.5 214.5,-0.5"/>
<text text-anchor="middle" x="259" y="-7.5" font-family="Helvetica,sans-Serif" font-size="10.00">CmdImageBox</text>
</a>
</g>
</g>
<!-- Node2 -->
<g id="node2" class="node">
<title>Node2</title>
<g id="a_node2"><a xlink:href="classdrain_1_1BeanCommand.html" target="_top" xlink:title=" ">
<polygon fill="white" stroke="black" points="195,-57.5 195,-87.5 323,-87.5 323,-57.5 195,-57.5"/>
<text text-anchor="start" x="203" y="-75.5" font-family="Helvetica,sans-Serif" font-size="10.00">BeanCommand&lt; drain</text>
<text text-anchor="middle" x="259" y="-64.5" font-family="Helvetica,sans-Serif" font-size="10.00">::image::ImageBox &gt;</text>
</a>
</g>
</g>
<!-- Node2&#45;&gt;Node1 -->
<g id="edge1" class="edge">
<title>Node2&#45;&gt;Node1</title>
<path fill="none" stroke="midnightblue" d="M259,-47.35C259,-37.51 259,-26.78 259,-19.54"/>
<polygon fill="midnightblue" stroke="midnightblue" points="255.5,-47.47 259,-57.47 262.5,-47.47 255.5,-47.47"/>
</g>
<!-- Node3 -->
<g id="node3" class="node">
<title>Node3</title>
<g id="a_node3"><a xlink:href="classdrain_1_1Command.html" target="_top" xlink:title="Base class for commands: typically actions taking parameters but also plain variable assignments and ...">
<polygon fill="white" stroke="black" points="183.5,-135.5 183.5,-154.5 250.5,-154.5 250.5,-135.5 183.5,-135.5"/>
<text text-anchor="middle" x="217" y="-142.5" font-family="Helvetica,sans-Serif" font-size="10.00">Command</text>
</a>
</g>
</g>
<!-- Node3&#45;&gt;Node2 -->
<g id="edge2" class="edge">
<title>Node3&#45;&gt;Node2</title>
<path fill="none" stroke="midnightblue" d="M227.32,-126.68C234.48,-114.65 243.91,-98.83 250.61,-87.58"/>
<polygon fill="midnightblue" stroke="midnightblue" points="224.26,-124.97 222.15,-135.36 230.27,-128.56 224.26,-124.97"/>
</g>
<!-- Node4 -->
<g id="node4" class="node">
<title>Node4</title>
<g id="a_node4"><a xlink:href="classdrain_1_1Contextual.html" target="_top" xlink:title=" ">
<polygon fill="white" stroke="black" points="174,-213.5 174,-232.5 244,-232.5 244,-213.5 174,-213.5"/>
<text text-anchor="middle" x="209" y="-220.5" font-family="Helvetica,sans-Serif" font-size="10.00">Contextual</text>
</a>
</g>
</g>
<!-- Node4&#45;&gt;Node3 -->
<g id="edge3" class="edge">
<title>Node4&#45;&gt;Node3</title>
<path fill="none" stroke="midnightblue" d="M210.98,-203.22C212.61,-187.7 214.86,-166.36 216.09,-154.62"/>
<polygon fill="midnightblue" stroke="midnightblue" points="207.48,-202.97 209.92,-213.28 214.45,-203.7 207.48,-202.97"/>
</g>
<!-- Node5 -->
<g id="node5" class="node">
<title>Node5</title>
<g id="a_node5"><a xlink:href="classdrain_1_1Context.html" target="_top" xlink:title=" ">
<polygon fill="white" stroke="black" points="153.5,-280.5 153.5,-299.5 208.5,-299.5 208.5,-280.5 153.5,-280.5"/>
<text text-anchor="middle" x="181" y="-287.5" font-family="Helvetica,sans-Serif" font-size="10.00">Context</text>
</a>
</g>
</g>
<!-- Node5&#45;&gt;Node4 -->
<g id="edge4" class="edge">
<title>Node5&#45;&gt;Node4</title>
<path fill="none" stroke="#9a32cd" stroke-dasharray="5,2" d="M188.84,-270.79C194.22,-258.31 201.11,-242.31 205.28,-232.63"/>
<polygon fill="#9a32cd" stroke="#9a32cd" points="185.52,-269.66 184.78,-280.23 191.95,-272.43 185.52,-269.66"/>
<text text-anchor="middle" x="224" y="-254" font-family="Helvetica,sans-Serif" font-size="10.00"> contextPtr</text>
</g>
<!-- Node6 -->
<g id="node6" class="node">
<title>Node6</title>
<g id="a_node6"><a xlink:href="classdrain_1_1VariableMap.html" target="_top" xlink:title="A map of Variables.">
<polygon fill="white" stroke="black" points="39,-347.5 39,-366.5 117,-366.5 117,-347.5 39,-347.5"/>
<text text-anchor="middle" x="78" y="-354.5" font-family="Helvetica,sans-Serif" font-size="10.00">VariableMap</text>
</a>
</g>
</g>
<!-- Node6&#45;&gt;Node5 -->
<g id="edge5" class="edge">
<title>Node6&#45;&gt;Node5</title>
<path fill="none" stroke="#9a32cd" stroke-dasharray="5,2" d="M88.03,-338.78C92.97,-331.54 99.48,-323.53 107,-318 120.66,-307.95 138.45,-301.3 153.16,-297.12"/>
<polygon fill="#9a32cd" stroke="#9a32cd" points="85.04,-336.97 82.66,-347.3 90.96,-340.7 85.04,-336.97"/>
<text text-anchor="middle" x="134.5" y="-321" font-family="Helvetica,sans-Serif" font-size="10.00"> statusMap</text>
</g>
<!-- Node7 -->
<g id="node7" class="node">
<title>Node7</title>
<g id="a_node7"><a xlink:href="classdrain_1_1SmartMap.html" target="_top" xlink:title=" ">
<polygon fill="white" stroke="black" points="13,-410 13,-429 143,-429 143,-410 13,-410"/>
<text text-anchor="middle" x="78" y="-417" font-family="Helvetica,sans-Serif" font-size="10.00">SmartMap&lt; Variable &gt;</text>
</a>
</g>
</g>
<!-- Node7&#45;&gt;Node6 -->
<g id="edge6" class="edge">
<title>Node7&#45;&gt;Node6</title>
<path fill="none" stroke="midnightblue" d="M78,-399.5C78,-388.5 78,-375.18 78,-366.65"/>
<polygon fill="midnightblue" stroke="midnightblue" points="74.5,-399.83 78,-409.83 81.5,-399.83 74.5,-399.83"/>
</g>
<!-- Node8 -->
<g id="node8" class="node">
<title>Node8</title>
<g id="a_node8"><a xlink:title=" ">
<polygon fill="white" stroke="#bfbfbf" points="0,-472.5 0,-491.5 156,-491.5 156,-472.5 0,-472.5"/>
<text text-anchor="middle" x="78" y="-479.5" font-family="Helvetica,sans-Serif" font-size="10.00">map&lt; std::string, Variable &gt;</text>
</a>
</g>
</g>
<!-- Node8&#45;&gt;Node7 -->
<g id="edge7" class="edge">
<title>Node8&#45;&gt;Node7</title>
<path fill="none" stroke="midnightblue" d="M78,-462C78,-451 78,-437.68 78,-429.15"/>
<polygon fill="midnightblue" stroke="midnightblue" points="74.5,-462.33 78,-472.33 81.5,-462.33 74.5,-462.33"/>
</g>
<!-- Node9 -->
<g id="node9" class="node">
<title>Node9</title>
<g id="a_node9"><a xlink:href="classdrain_1_1Log.html" target="_top" xlink:title="Handler for notifications sent by a Logger.">
<polygon fill="white" stroke="black" points="137,-347.5 137,-366.5 171,-366.5 171,-347.5 137,-347.5"/>
<text text-anchor="middle" x="154" y="-354.5" font-family="Helvetica,sans-Serif" font-size="10.00">Log</text>
</a>
</g>
</g>
<!-- Node9&#45;&gt;Node5 -->
<g id="edge8" class="edge">
<title>Node9&#45;&gt;Node5</title>
<path fill="none" stroke="#9a32cd" stroke-dasharray="5,2" d="M161.56,-337.79C166.75,-325.31 173.39,-309.31 177.42,-299.63"/>
<polygon fill="#9a32cd" stroke="#9a32cd" points="158.25,-336.66 157.64,-347.23 164.71,-339.34 158.25,-336.66"/>
<text text-anchor="middle" x="179.5" y="-321" font-family="Helvetica,sans-Serif" font-size="10.00"> log</text>
</g>
<!-- Node10 -->
<g id="node10" class="node">
<title>Node10</title>
<g id="a_node10"><a xlink:href="classdrain_1_1StatusFlags.html" target="_top" xlink:title=" ">
<polygon fill="white" stroke="black" points="189,-347.5 189,-366.5 263,-366.5 263,-347.5 189,-347.5"/>
<text text-anchor="middle" x="226" y="-354.5" font-family="Helvetica,sans-Serif" font-size="10.00">StatusFlags</text>
</a>
</g>
</g>
<!-- Node10&#45;&gt;Node5 -->
<g id="edge9" class="edge">
<title>Node10&#45;&gt;Node5</title>
<path fill="none" stroke="#9a32cd" stroke-dasharray="5,2" d="M214.16,-338.9C205.42,-326.27 193.88,-309.6 186.97,-299.63"/>
<polygon fill="#9a32cd" stroke="#9a32cd" points="211.36,-341 219.93,-347.23 217.12,-337.02 211.36,-341"/>
<text text-anchor="middle" x="237" y="-321" font-family="Helvetica,sans-Serif" font-size="10.00"> statusFlags</text>
</g>
<!-- Node11 -->
<g id="node11" class="node">
<title>Node11</title>
<g id="a_node11"><a xlink:href="classdrain_1_1GlobalFlags.html" target="_top" xlink:title=" ">
<polygon fill="white" stroke="black" points="164,-404.5 164,-434.5 280,-434.5 280,-404.5 164,-404.5"/>
<text text-anchor="start" x="172" y="-422.5" font-family="Helvetica,sans-Serif" font-size="10.00">GlobalFlags&lt; status</text>
<text text-anchor="middle" x="222" y="-411.5" font-family="Helvetica,sans-Serif" font-size="10.00">_flag_id &gt;</text>
</a>
</g>
</g>
<!-- Node11&#45;&gt;Node10 -->
<g id="edge10" class="edge">
<title>Node11&#45;&gt;Node10</title>
<path fill="none" stroke="midnightblue" d="M223.6,-394.35C224.25,-384.51 224.96,-373.78 225.44,-366.54"/>
<polygon fill="midnightblue" stroke="midnightblue" points="220.1,-394.26 222.93,-404.47 227.08,-394.72 220.1,-394.26"/>
</g>
<!-- Node12 -->
<g id="node12" class="node">
<title>Node12</title>
<g id="a_node12"><a xlink:href="classdrain_1_1Flagger.html" target="_top" xlink:title="Bit vector accessible also with integer values associated with strings.">
<polygon fill="white" stroke="black" points="195.5,-472.5 195.5,-491.5 248.5,-491.5 248.5,-472.5 195.5,-472.5"/>
<text text-anchor="middle" x="222" y="-479.5" font-family="Helvetica,sans-Serif" font-size="10.00">Flagger</text>
</a>
</g>
</g>
<!-- Node12&#45;&gt;Node11 -->
<g id="edge11" class="edge">
<title>Node12&#45;&gt;Node11</title>
<path fill="none" stroke="midnightblue" d="M222,-462.22C222,-453.36 222,-442.96 222,-434.76"/>
<polygon fill="midnightblue" stroke="midnightblue" points="218.5,-462.33 222,-472.33 225.5,-462.33 218.5,-462.33"/>
</g>
<!-- Node13 -->
<g id="node13" class="node">
<title>Node13</title>
<g id="a_node13"><a xlink:href="classdrain_1_1FlagResolver.html" target="_top" xlink:title="Referencing a dictionary of binary values: {&quot;A&quot;,1: &quot;B&quot;:2, &quot;C&quot;: 4, &quot;D&quot;: 8, ...} resolves two&#45;way mappi...">
<polygon fill="white" stroke="black" points="182,-529.5 182,-548.5 262,-548.5 262,-529.5 182,-529.5"/>
<text text-anchor="middle" x="222" y="-536.5" font-family="Helvetica,sans-Serif" font-size="10.00">FlagResolver</text>
</a>
</g>
</g>
<!-- Node13&#45;&gt;Node12 -->
<g id="edge12" class="edge">
<title>Node13&#45;&gt;Node12</title>
<path fill="none" stroke="midnightblue" d="M222,-519.12C222,-509.82 222,-499.06 222,-491.71"/>
<polygon fill="midnightblue" stroke="midnightblue" points="218.5,-519.41 222,-529.41 225.5,-519.41 218.5,-519.41"/>
</g>
<!-- Node14 -->
<g id="node14" class="node">
<title>Node14</title>
<g id="a_node14"><a xlink:href="classdrain_1_1image_1_1ImageBox.html" target="_top" xlink:title="Plots a single value in an image. The value will be scaled; notice that alpha channel is scaled by de...">
<polygon fill="white" stroke="black" points="275,-135.5 275,-154.5 341,-154.5 341,-135.5 275,-135.5"/>
<text text-anchor="middle" x="308" y="-142.5" font-family="Helvetica,sans-Serif" font-size="10.00">ImageBox</text>
</a>
</g>
</g>
<!-- Node14&#45;&gt;Node2 -->
<g id="edge13" class="edge">
<title>Node14&#45;&gt;Node2</title>
<path fill="none" stroke="#9a32cd" stroke-dasharray="5,2" d="M296.21,-127.04C287.82,-114.97 276.68,-98.94 268.78,-87.58"/>
<polygon fill="#9a32cd" stroke="#9a32cd" points="293.41,-129.14 301.99,-135.36 299.16,-125.15 293.41,-129.14"/>
<text text-anchor="middle" x="302" y="-109" font-family="Helvetica,sans-Serif" font-size="10.00"> bean</text>
</g>
<!-- Node15 -->
<g id="node15" class="node">
<title>Node15</title>
<g id="a_node15"><a xlink:href="classdrain_1_1image_1_1ImageMod.html" target="_top" xlink:title="Class for operations that modify an existing image instead of producing a new image.">
<polygon fill="white" stroke="black" points="274,-213.5 274,-232.5 342,-232.5 342,-213.5 274,-213.5"/>
<text text-anchor="middle" x="308" y="-220.5" font-family="Helvetica,sans-Serif" font-size="10.00">ImageMod</text>
</a>
</g>
</g>
<!-- Node15&#45;&gt;Node14 -->
<g id="edge14" class="edge">
<title>Node15&#45;&gt;Node14</title>
<path fill="none" stroke="midnightblue" d="M308,-203.22C308,-187.7 308,-166.36 308,-154.62"/>
<polygon fill="midnightblue" stroke="midnightblue" points="304.5,-203.28 308,-213.28 311.5,-203.28 304.5,-203.28"/>
</g>
<!-- Node16 -->
<g id="node16" class="node">
<title>Node16</title>
<g id="a_node16"><a xlink:href="classdrain_1_1BeanLike.html" target="_top" xlink:title="Something which has a name, a description and possibly some parameters of varying type.">
<polygon fill="white" stroke="black" points="277.5,-280.5 277.5,-299.5 338.5,-299.5 338.5,-280.5 277.5,-280.5"/>
<text text-anchor="middle" x="308" y="-287.5" font-family="Helvetica,sans-Serif" font-size="10.00">BeanLike</text>
</a>
</g>
</g>
<!-- Node16&#45;&gt;Node15 -->
<g id="edge15" class="edge">
<title>Node16&#45;&gt;Node15</title>
<path fill="none" stroke="midnightblue" d="M308,-270.04C308,-257.67 308,-242.12 308,-232.63"/>
<polygon fill="midnightblue" stroke="midnightblue" points="304.5,-270.23 308,-280.23 311.5,-270.23 304.5,-270.23"/>
</g>
<!-- Node17 -->
<g id="node17" class="node">
<title>Node17</title>
<g id="a_node17"><a xlink:href="classdrain_1_1ReferenceMap.html" target="_top" xlink:title=" ">
<polygon fill="white" stroke="black" points="304.5,-347.5 304.5,-366.5 391.5,-366.5 391.5,-347.5 304.5,-347.5"/>
<text text-anchor="middle" x="348" y="-354.5" font-family="Helvetica,sans-Serif" font-size="10.00">ReferenceMap</text>
</a>
</g>
</g>
<!-- Node17&#45;&gt;Node16 -->
<g id="edge16" class="edge">
<title>Node17&#45;&gt;Node16</title>
<path fill="none" stroke="#9a32cd" stroke-dasharray="5,2" d="M337.25,-338.53C329.51,-325.95 319.39,-309.51 313.31,-299.63"/>
<polygon fill="#9a32cd" stroke="#9a32cd" points="334.38,-340.55 342.61,-347.23 340.35,-336.88 334.38,-340.55"/>
<text text-anchor="middle" x="361" y="-321" font-family="Helvetica,sans-Serif" font-size="10.00"> parameters</text>
</g>
<!-- Node18 -->
<g id="node18" class="node">
<title>Node18</title>
<g id="a_node18"><a xlink:href="classdrain_1_1SmartMap.html" target="_top" xlink:title=" ">
<polygon fill="white" stroke="black" points="298.5,-410 298.5,-429 441.5,-429 441.5,-410 298.5,-410"/>
<text text-anchor="middle" x="370" y="-417" font-family="Helvetica,sans-Serif" font-size="10.00">SmartMap&lt; Referencer &gt;</text>
</a>
</g>
</g>
<!-- Node18&#45;&gt;Node17 -->
<g id="edge17" class="edge">
<title>Node18&#45;&gt;Node17</title>
<path fill="none" stroke="midnightblue" d="M363.34,-400.19C359.3,-389.06 354.31,-375.36 351.15,-366.65"/>
<polygon fill="midnightblue" stroke="midnightblue" points="360.14,-401.63 366.85,-409.83 366.72,-399.24 360.14,-401.63"/>
</g>
<!-- Node19 -->
<g id="node19" class="node">
<title>Node19</title>
<g id="a_node19"><a xlink:title=" ">
<polygon fill="white" stroke="#bfbfbf" points="285.5,-472.5 285.5,-491.5 454.5,-491.5 454.5,-472.5 285.5,-472.5"/>
<text text-anchor="middle" x="370" y="-479.5" font-family="Helvetica,sans-Serif" font-size="10.00">map&lt; std::string, Referencer &gt;</text>
</a>
</g>
</g>
<!-- Node19&#45;&gt;Node18 -->
<g id="edge18" class="edge">
<title>Node19&#45;&gt;Node18</title>
<path fill="none" stroke="midnightblue" d="M370,-462C370,-451 370,-437.68 370,-429.15"/>
<polygon fill="midnightblue" stroke="midnightblue" points="366.5,-462.33 370,-472.33 373.5,-462.33 366.5,-462.33"/>
</g>
<!-- Node20 -->
<g id="node20" class="node">
<title>Node20</title>
<g id="a_node20"><a xlink:href="classdrain_1_1Range.html" target="_top" xlink:title=" ">
<polygon fill="white" stroke="black" points="364.5,-213.5 364.5,-232.5 447.5,-232.5 447.5,-213.5 364.5,-213.5"/>
<text text-anchor="middle" x="406" y="-220.5" font-family="Helvetica,sans-Serif" font-size="10.00">Range&lt; int &gt;</text>
</a>
</g>
</g>
<!-- Node20&#45;&gt;Node14 -->
<g id="edge19" class="edge">
<title>Node20&#45;&gt;Node14</title>
<path fill="none" stroke="#9a32cd" stroke-dasharray="5,2" d="M386.85,-207.15C366.67,-191.5 335.57,-167.38 319.11,-154.62"/>
<polygon fill="#9a32cd" stroke="#9a32cd" points="384.71,-209.92 394.76,-213.28 389,-204.39 384.71,-209.92"/>
<text text-anchor="middle" x="387.5" y="-187" font-family="Helvetica,sans-Serif" font-size="10.00"> jRange</text>
<text text-anchor="middle" x="387.5" y="-176" font-family="Helvetica,sans-Serif" font-size="10.00">iRange</text>
</g>
<!-- Node21 -->
<g id="node21" class="node">
<title>Node21</title>
<g id="a_node21"><a xlink:href="classdrain_1_1UniTuple.html" target="_top" xlink:title=" ">
<polygon fill="white" stroke="black" points="357,-280.5 357,-299.5 463,-299.5 463,-280.5 357,-280.5"/>
<text text-anchor="middle" x="410" y="-287.5" font-family="Helvetica,sans-Serif" font-size="10.00">UniTuple&lt; int, 2 &gt;</text>
</a>
</g>
</g>
<!-- Node21&#45;&gt;Node20 -->
<g id="edge20" class="edge">
<title>Node21&#45;&gt;Node20</title>
<path fill="none" stroke="midnightblue" d="M408.83,-270.04C408.07,-257.67 407.12,-242.12 406.53,-232.63"/>
<polygon fill="midnightblue" stroke="midnightblue" points="405.35,-270.47 409.46,-280.23 412.34,-270.04 405.35,-270.47"/>
</g>
</g>
</svg>
        <g id="navigator" transform="translate(0 0)" fill="#404254">
                <rect fill="#f2f5e9" fill-opacity="0.5" stroke="#606060" stroke-width=".5" x="0" y="0" width="60" height="60"/>
                <use id="zoomplus" xlink:href="#zoomPlus" x="17" y="9" onmousedown="handleZoom(evt,'in')"/>
                <use id="zoomminus" xlink:href="#zoomMin" x="42" y="9" onmousedown="handleZoom(evt,'out')"/>
                <use id="reset" xlink:href="#resetDef" x="30" y="36" onmousedown="handleReset()"/>
                <g id="arrowUp" xlink:href="#dirArrow" transform="translate(30 24)" onmousedown="handlePan(0,-1)">
                  <use xlink:href="#rim" fill="#404040">
                        <set attributeName="fill" to="#808080" begin="arrowUp.mouseover" end="arrowUp.mouseout"/>
                  </use>
                  <path fill="none" stroke="white" stroke-width="1.5" d="M0,-3.0v7 M-2.5,-0.5L0,-3.0L2.5,-0.5"/>
                </g>
                <g id="arrowRight" xlink:href="#dirArrow" transform="rotate(90) translate(36 -43)" onmousedown="handlePan(1,0)">
                  <use xlink:href="#rim" fill="#404040">
                        <set attributeName="fill" to="#808080" begin="arrowRight.mouseover" end="arrowRight.mouseout"/>
                  </use>
                  <path fill="none" stroke="white" stroke-width="1.5" d="M0,-3.0v7 M-2.5,-0.5L0,-3.0L2.5,-0.5"/>
                </g>
                <g id="arrowDown" xlink:href="#dirArrow" transform="rotate(180) translate(-30 -48)" onmousedown="handlePan(0,1)">
                  <use xlink:href="#rim" fill="#404040">
                        <set attributeName="fill" to="#808080" begin="arrowDown.mouseover" end="arrowDown.mouseout"/>
                  </use>
                  <path fill="none" stroke="white" stroke-width="1.5" d="M0,-3.0v7 M-2.5,-0.5L0,-3.0L2.5,-0.5"/>
                </g>
                <g id="arrowLeft" xlink:href="#dirArrow" transform="rotate(270) translate(-36 17)" onmousedown="handlePan(-1,0)">
                  <use xlink:href="#rim" fill="#404040">
                        <set attributeName="fill" to="#808080" begin="arrowLeft.mouseover" end="arrowLeft.mouseout"/>
                  </use>
                  <path fill="none" stroke="white" stroke-width="1.5" d="M0,-3.0v7 M-2.5,-0.5L0,-3.0L2.5,-0.5"/>
                </g>
        </g>
        <svg viewBox="0 0 15 15" width="100%" height="30px" preserveAspectRatio="xMaxYMin meet">
         <g id="arrow_out" transform="scale(0.3 0.3)">
          <a xlink:href="classrack_1_1CmdImageBox__coll__graph_org.svg" target="_base">
           <rect id="button" ry="5" rx="5" y="6" x="6" height="38" width="38"
                fill="#f2f5e9" fill-opacity="0.5" stroke="#606060" stroke-width="1.0"/>
           <path id="arrow"
             d="M 11.500037,31.436501 C 11.940474,20.09759 22.043105,11.32322 32.158766,21.979434 L 37.068811,17.246167 C 37.068811,17.246167 37.088388,32 37.088388,32 L 22.160133,31.978069 C 22.160133,31.978069 26.997745,27.140456 26.997745,27.140456 C 18.528582,18.264221 13.291696,25.230495 11.500037,31.436501 z"
             style="fill:#404040;"/>
          </a>
         </g>
        </svg>
</svg>
