<?xml version="1.0" encoding="UTF-8" standalone="no"?>
<!DOCTYPE svg PUBLIC "-//W3C//DTD SVG 1.1//EN"
 "http://www.w3.org/Graphics/SVG/1.1/DTD/svg11.dtd">
<!-- Generated by graphviz version 2.43.0 (0)
 -->
<!-- Title: DistanceModelExponential Pages: 1 -->
<svg width="273pt" height="366pt"
 viewBox="0.00 0.00 273.00 366.00" xmlns="http://www.w3.org/2000/svg" xmlns:xlink="http://www.w3.org/1999/xlink">
<g id="graph0" class="graph" transform="scale(1 1) rotate(0) translate(4 362)">
<title>DistanceModelExponential</title>
<polygon fill="white" stroke="transparent" points="-4,4 -4,-362 269,-362 269,4 -4,4"/>
<!-- Node1 -->
<g id="node1" class="node">
<title>Node1</title>
<g id="a_node1"><a xlink:title=" ">
<polygon fill="#bfbfbf" stroke="black" points="72,-0.5 72,-19.5 219,-19.5 219,-0.5 72,-0.5"/>
<text text-anchor="middle" x="145.5" y="-7.5" font-family="Helvetica,sans-Serif" font-size="10.00">DistanceModelExponential</text>
</a>
</g>
</g>
<!-- Node2 -->
<g id="node2" class="node">
<title>Node2</title>
<g id="a_node2"><a xlink:href="classdrain_1_1image_1_1DistanceModel.html" target="_top" xlink:title="Base class for linear and exponential distances in rectangular pixel images.">
<polygon fill="white" stroke="black" points="101,-57.5 101,-76.5 190,-76.5 190,-57.5 101,-57.5"/>
<text text-anchor="middle" x="145.5" y="-64.5" font-family="Helvetica,sans-Serif" font-size="10.00">DistanceModel</text>
</a>
</g>
</g>
<!-- Node2&#45;&gt;Node1 -->
<g id="edge1" class="edge">
<title>Node2&#45;&gt;Node1</title>
<path fill="none" stroke="midnightblue" d="M145.5,-47.12C145.5,-37.82 145.5,-27.06 145.5,-19.71"/>
<polygon fill="midnightblue" stroke="midnightblue" points="142,-47.41 145.5,-57.41 149,-47.41 142,-47.41"/>
</g>
<!-- Node3 -->
<g id="node3" class="node">
<title>Node3</title>
<g id="a_node3"><a xlink:href="classdrain_1_1BeanLike.html" target="_top" xlink:title="Something which has a name, a description and possibly some parameters of varying type.">
<polygon fill="white" stroke="black" points="61,-157.5 61,-176.5 122,-176.5 122,-157.5 61,-157.5"/>
<text text-anchor="middle" x="91.5" y="-164.5" font-family="Helvetica,sans-Serif" font-size="10.00">BeanLike</text>
</a>
</g>
</g>
<!-- Node3&#45;&gt;Node2 -->
<g id="edge2" class="edge">
<title>Node3&#45;&gt;Node2</title>
<path fill="none" stroke="midnightblue" d="M101.21,-148.38C112.88,-127.2 132,-92.51 140.8,-76.54"/>
<polygon fill="midnightblue" stroke="midnightblue" points="98.05,-146.86 96.29,-157.3 104.18,-150.23 98.05,-146.86"/>
</g>
<!-- Node4 -->
<g id="node4" class="node">
<title>Node4</title>
<g id="a_node4"><a xlink:href="classdrain_1_1ReferenceMap.html" target="_top" xlink:title=" ">
<polygon fill="white" stroke="black" points="41,-224.5 41,-243.5 128,-243.5 128,-224.5 41,-224.5"/>
<text text-anchor="middle" x="84.5" y="-231.5" font-family="Helvetica,sans-Serif" font-size="10.00">ReferenceMap</text>
</a>
</g>
</g>
<!-- Node4&#45;&gt;Node3 -->
<g id="edge3" class="edge">
<title>Node4&#45;&gt;Node3</title>
<path fill="none" stroke="#9a32cd" stroke-dasharray="5,2" d="M86.54,-214.04C87.87,-201.67 89.55,-186.12 90.57,-176.63"/>
<polygon fill="#9a32cd" stroke="#9a32cd" points="83.03,-213.92 85.44,-224.23 89.99,-214.67 83.03,-213.92"/>
<text text-anchor="middle" x="118.5" y="-198" font-family="Helvetica,sans-Serif" font-size="10.00"> parameters</text>
</g>
<!-- Node5 -->
<g id="node5" class="node">
<title>Node5</title>
<g id="a_node5"><a xlink:href="classdrain_1_1SmartMap.html" target="_top" xlink:title=" ">
<polygon fill="white" stroke="black" points="13,-281.5 13,-300.5 156,-300.5 156,-281.5 13,-281.5"/>
<text text-anchor="middle" x="84.5" y="-288.5" font-family="Helvetica,sans-Serif" font-size="10.00">SmartMap&lt; Referencer &gt;</text>
</a>
</g>
</g>
<!-- Node5&#45;&gt;Node4 -->
<g id="edge4" class="edge">
<title>Node5&#45;&gt;Node4</title>
<path fill="none" stroke="midnightblue" d="M84.5,-271.12C84.5,-261.82 84.5,-251.06 84.5,-243.71"/>
<polygon fill="midnightblue" stroke="midnightblue" points="81,-271.41 84.5,-281.41 88,-271.41 81,-271.41"/>
</g>
<!-- Node6 -->
<g id="node6" class="node">
<title>Node6</title>
<g id="a_node6"><a xlink:title=" ">
<polygon fill="white" stroke="#bfbfbf" points="0,-338.5 0,-357.5 169,-357.5 169,-338.5 0,-338.5"/>
<text text-anchor="middle" x="84.5" y="-345.5" font-family="Helvetica,sans-Serif" font-size="10.00">map&lt; std::string, Referencer &gt;</text>
</a>
</g>
</g>
<!-- Node6&#45;&gt;Node5 -->
<g id="edge5" class="edge">
<title>Node6&#45;&gt;Node5</title>
<path fill="none" stroke="midnightblue" d="M84.5,-328.12C84.5,-318.82 84.5,-308.06 84.5,-300.71"/>
<polygon fill="midnightblue" stroke="midnightblue" points="81,-328.41 84.5,-338.41 88,-328.41 81,-328.41"/>
</g>
<!-- Node7 -->
<g id="node7" class="node">
<title>Node7</title>
<g id="a_node7"><a xlink:href="classdrain_1_1Bidirectional.html" target="_top" xlink:title=" ">
<polygon fill="white" stroke="black" points="142,-157.5 142,-176.5 265,-176.5 265,-157.5 142,-157.5"/>
<text text-anchor="middle" x="203.5" y="-164.5" font-family="Helvetica,sans-Serif" font-size="10.00">Bidirectional&lt; float &gt;</text>
</a>
</g>
</g>
<!-- Node7&#45;&gt;Node2 -->
<g id="edge6" class="edge">
<title>Node7&#45;&gt;Node2</title>
<path fill="none" stroke="#9a32cd" stroke-dasharray="5,2" d="M193.24,-148.67C180.72,-127.52 160.05,-92.58 150.55,-76.54"/>
<polygon fill="#9a32cd" stroke="#9a32cd" points="190.25,-150.48 198.35,-157.3 196.27,-146.91 190.25,-150.48"/>
<text text-anchor="middle" x="214" y="-131" font-family="Helvetica,sans-Serif" font-size="10.00"> vertDec</text>
<text text-anchor="middle" x="214" y="-120" font-family="Helvetica,sans-Serif" font-size="10.00">horzDec</text>
<text text-anchor="middle" x="214" y="-109" font-family="Helvetica,sans-Serif" font-size="10.00">vertRadius</text>
<text text-anchor="middle" x="214" y="-98" font-family="Helvetica,sans-Serif" font-size="10.00">horzRadius</text>
</g>
<!-- Node8 -->
<g id="node8" class="node">
<title>Node8</title>
<g id="a_node8"><a xlink:href="classdrain_1_1UniTuple.html" target="_top" xlink:title=" ">
<polygon fill="white" stroke="black" points="146.5,-224.5 146.5,-243.5 262.5,-243.5 262.5,-224.5 146.5,-224.5"/>
<text text-anchor="middle" x="204.5" y="-231.5" font-family="Helvetica,sans-Serif" font-size="10.00">UniTuple&lt; float, 2 &gt;</text>
</a>
</g>
</g>
<!-- Node8&#45;&gt;Node7 -->
<g id="edge7" class="edge">
<title>Node8&#45;&gt;Node7</title>
<path fill="none" stroke="midnightblue" d="M204.21,-214.04C204.02,-201.67 203.78,-186.12 203.63,-176.63"/>
<polygon fill="midnightblue" stroke="midnightblue" points="200.71,-214.29 204.37,-224.23 207.71,-214.18 200.71,-214.29"/>
</g>
</g>
</svg>
