<?xml version="1.0" encoding="UTF-8" standalone="no"?>
<!DOCTYPE svg PUBLIC "-//W3C//DTD SVG 1.1//EN"
 "http://www.w3.org/Graphics/SVG/1.1/DTD/svg11.dtd">
<!-- Generated by graphviz version 2.43.0 (0)
 -->
<!-- Title: ODIM Pages: 1 -->
<svg width="417pt" height="420pt"
 viewBox="0.00 0.00 416.50 420.00" xmlns="http://www.w3.org/2000/svg" xmlns:xlink="http://www.w3.org/1999/xlink">
<g id="graph0" class="graph" transform="scale(1 1) rotate(0) translate(4 416)">
<title>ODIM</title>
<polygon fill="white" stroke="transparent" points="-4,4 -4,-416 412.5,-416 412.5,4 -4,4"/>
<!-- Node1 -->
<g id="node1" class="node">
<title>Node1</title>
<g id="a_node1"><a xlink:title="ODIM metadata (quantity, gain, offset, undetect, nodata, date, time)">
<polygon fill="#bfbfbf" stroke="black" points="120,-168.5 120,-187.5 164,-187.5 164,-168.5 120,-168.5"/>
<text text-anchor="middle" x="142" y="-175.5" font-family="Helvetica,sans-Serif" font-size="10.00">ODIM</text>
</a>
</g>
</g>
<!-- Node6 -->
<g id="node6" class="node">
<title>Node6</title>
<g id="a_node6"><a xlink:href="classrack_1_1CartesianODIM.html" target="_top" xlink:title="Metadata structure for Cartesian radar data products (single&#45;radar or composites).">
<polygon fill="white" stroke="black" points="0,-112.5 0,-131.5 90,-131.5 90,-112.5 0,-112.5"/>
<text text-anchor="middle" x="45" y="-119.5" font-family="Helvetica,sans-Serif" font-size="10.00">CartesianODIM</text>
</a>
</g>
</g>
<!-- Node1&#45;&gt;Node6 -->
<g id="edge5" class="edge">
<title>Node1&#45;&gt;Node6</title>
<path fill="none" stroke="midnightblue" d="M117.66,-163.45C99.76,-153.48 75.95,-140.23 60.55,-131.65"/>
<polygon fill="midnightblue" stroke="midnightblue" points="115.98,-166.52 126.42,-168.32 119.38,-160.4 115.98,-166.52"/>
</g>
<!-- Node7 -->
<g id="node7" class="node">
<title>Node7</title>
<g id="a_node7"><a xlink:href="classrack_1_1PolarODIM.html" target="_top" xlink:title="Metadata structure for single&#45;radar data (polar scans, volumes and products).">
<polygon fill="white" stroke="black" points="108,-112.5 108,-131.5 176,-131.5 176,-112.5 108,-112.5"/>
<text text-anchor="middle" x="142" y="-119.5" font-family="Helvetica,sans-Serif" font-size="10.00">PolarODIM</text>
</a>
</g>
</g>
<!-- Node1&#45;&gt;Node7 -->
<g id="edge6" class="edge">
<title>Node1&#45;&gt;Node7</title>
<path fill="none" stroke="midnightblue" d="M142,-157.8C142,-148.91 142,-138.78 142,-131.75"/>
<polygon fill="midnightblue" stroke="midnightblue" points="138.5,-158.08 142,-168.08 145.5,-158.08 138.5,-158.08"/>
</g>
<!-- Node10 -->
<g id="node10" class="node">
<title>Node10</title>
<g id="a_node10"><a xlink:href="classrack_1_1VerticalCrossSectionODIM.html" target="_top" xlink:title=" ">
<polygon fill="white" stroke="black" points="194,-112.5 194,-131.5 338,-131.5 338,-112.5 194,-112.5"/>
<text text-anchor="middle" x="266" y="-119.5" font-family="Helvetica,sans-Serif" font-size="10.00">VerticalCrossSectionODIM</text>
</a>
</g>
</g>
<!-- Node1&#45;&gt;Node10 -->
<g id="edge9" class="edge">
<title>Node1&#45;&gt;Node10</title>
<path fill="none" stroke="midnightblue" d="M171.01,-164.37C194.23,-154.26 226.16,-140.35 246.44,-131.52"/>
<polygon fill="midnightblue" stroke="midnightblue" points="169.42,-161.24 161.65,-168.44 172.21,-167.66 169.42,-161.24"/>
</g>
<!-- Node2 -->
<g id="node2" class="node">
<title>Node2</title>
<g id="a_node2"><a xlink:href="classrack_1_1EncodingODIM.html" target="_top" xlink:title="Structure for data storage type, scaling and marker codes. Does not contain quantity.">
<polygon fill="white" stroke="black" points="98,-224.5 98,-243.5 186,-243.5 186,-224.5 98,-224.5"/>
<text text-anchor="middle" x="142" y="-231.5" font-family="Helvetica,sans-Serif" font-size="10.00">EncodingODIM</text>
</a>
</g>
</g>
<!-- Node2&#45;&gt;Node1 -->
<g id="edge1" class="edge">
<title>Node2&#45;&gt;Node1</title>
<path fill="none" stroke="midnightblue" d="M142,-213.8C142,-204.91 142,-194.78 142,-187.75"/>
<polygon fill="midnightblue" stroke="midnightblue" points="138.5,-214.08 142,-224.08 145.5,-214.08 138.5,-214.08"/>
</g>
<!-- Node3 -->
<g id="node3" class="node">
<title>Node3</title>
<g id="a_node3"><a xlink:href="classdrain_1_1ReferenceMap.html" target="_top" xlink:title=" ">
<polygon fill="white" stroke="black" points="98.5,-280.5 98.5,-299.5 185.5,-299.5 185.5,-280.5 98.5,-280.5"/>
<text text-anchor="middle" x="142" y="-287.5" font-family="Helvetica,sans-Serif" font-size="10.00">ReferenceMap</text>
</a>
</g>
</g>
<!-- Node3&#45;&gt;Node2 -->
<g id="edge2" class="edge">
<title>Node3&#45;&gt;Node2</title>
<path fill="none" stroke="midnightblue" d="M142,-269.8C142,-260.91 142,-250.78 142,-243.75"/>
<polygon fill="midnightblue" stroke="midnightblue" points="138.5,-270.08 142,-280.08 145.5,-270.08 138.5,-270.08"/>
</g>
<!-- Node4 -->
<g id="node4" class="node">
<title>Node4</title>
<g id="a_node4"><a xlink:href="classdrain_1_1SmartMap.html" target="_top" xlink:title=" ">
<polygon fill="white" stroke="black" points="70.5,-336.5 70.5,-355.5 213.5,-355.5 213.5,-336.5 70.5,-336.5"/>
<text text-anchor="middle" x="142" y="-343.5" font-family="Helvetica,sans-Serif" font-size="10.00">SmartMap&lt; Referencer &gt;</text>
</a>
</g>
</g>
<!-- Node4&#45;&gt;Node3 -->
<g id="edge3" class="edge">
<title>Node4&#45;&gt;Node3</title>
<path fill="none" stroke="midnightblue" d="M142,-325.8C142,-316.91 142,-306.78 142,-299.75"/>
<polygon fill="midnightblue" stroke="midnightblue" points="138.5,-326.08 142,-336.08 145.5,-326.08 138.5,-326.08"/>
</g>
<!-- Node5 -->
<g id="node5" class="node">
<title>Node5</title>
<g id="a_node5"><a xlink:title=" ">
<polygon fill="white" stroke="#bfbfbf" points="57.5,-392.5 57.5,-411.5 226.5,-411.5 226.5,-392.5 57.5,-392.5"/>
<text text-anchor="middle" x="142" y="-399.5" font-family="Helvetica,sans-Serif" font-size="10.00">map&lt; std::string, Referencer &gt;</text>
</a>
</g>
</g>
<!-- Node5&#45;&gt;Node4 -->
<g id="edge4" class="edge">
<title>Node5&#45;&gt;Node4</title>
<path fill="none" stroke="midnightblue" d="M142,-381.8C142,-372.91 142,-362.78 142,-355.75"/>
<polygon fill="midnightblue" stroke="midnightblue" points="138.5,-382.08 142,-392.08 145.5,-382.08 138.5,-382.08"/>
</g>
<!-- Node8 -->
<g id="node8" class="node">
<title>Node8</title>
<g id="a_node8"><a xlink:href="classrack_1_1EncodingBag.html" target="_top" xlink:title="Consider long names, and then addShortKeys()">
<polygon fill="white" stroke="black" points="102,-56.5 102,-75.5 182,-75.5 182,-56.5 102,-56.5"/>
<text text-anchor="middle" x="142" y="-63.5" font-family="Helvetica,sans-Serif" font-size="10.00">EncodingBag</text>
</a>
</g>
</g>
<!-- Node7&#45;&gt;Node8 -->
<g id="edge7" class="edge">
<title>Node7&#45;&gt;Node8</title>
<path fill="none" stroke="midnightblue" d="M142,-101.8C142,-92.91 142,-82.78 142,-75.75"/>
<polygon fill="midnightblue" stroke="midnightblue" points="138.5,-102.08 142,-112.08 145.5,-102.08 138.5,-102.08"/>
</g>
<!-- Node9 -->
<g id="node9" class="node">
<title>Node9</title>
<g id="a_node9"><a xlink:href="classrack_1_1CmdEncoding.html" target="_top" xlink:title="Facility for validating and storing desired technical (non&#45;meteorological) user parameters.">
<polygon fill="white" stroke="black" points="100.5,-0.5 100.5,-19.5 183.5,-19.5 183.5,-0.5 100.5,-0.5"/>
<text text-anchor="middle" x="142" y="-7.5" font-family="Helvetica,sans-Serif" font-size="10.00">CmdEncoding</text>
</a>
</g>
</g>
<!-- Node8&#45;&gt;Node9 -->
<g id="edge8" class="edge">
<title>Node8&#45;&gt;Node9</title>
<path fill="none" stroke="darkgreen" d="M142,-45.8C142,-36.91 142,-26.78 142,-19.75"/>
<polygon fill="darkgreen" stroke="darkgreen" points="138.5,-46.08 142,-56.08 145.5,-46.08 138.5,-46.08"/>
</g>
<!-- Node11 -->
<g id="node11" class="node">
<title>Node11</title>
<g id="a_node11"><a xlink:href="classrack_1_1RhiODIM.html" target="_top" xlink:title=" ">
<polygon fill="white" stroke="black" points="218.5,-56.5 218.5,-75.5 277.5,-75.5 277.5,-56.5 218.5,-56.5"/>
<text text-anchor="middle" x="248" y="-63.5" font-family="Helvetica,sans-Serif" font-size="10.00">RhiODIM</text>
</a>
</g>
</g>
<!-- Node10&#45;&gt;Node11 -->
<g id="edge10" class="edge">
<title>Node10&#45;&gt;Node11</title>
<path fill="none" stroke="midnightblue" d="M259.8,-102.4C256.79,-93.36 253.31,-82.94 250.92,-75.75"/>
<polygon fill="midnightblue" stroke="midnightblue" points="256.54,-103.7 263.03,-112.08 263.19,-101.49 256.54,-103.7"/>
</g>
<!-- Node12 -->
<g id="node12" class="node">
<title>Node12</title>
<g id="a_node12"><a xlink:href="classrack_1_1VerticalProfileODIM.html" target="_top" xlink:title=" ">
<polygon fill="white" stroke="black" points="295.5,-56.5 295.5,-75.5 408.5,-75.5 408.5,-56.5 295.5,-56.5"/>
<text text-anchor="middle" x="352" y="-63.5" font-family="Helvetica,sans-Serif" font-size="10.00">VerticalProfileODIM</text>
</a>
</g>
</g>
<!-- Node10&#45;&gt;Node12 -->
<g id="edge11" class="edge">
<title>Node10&#45;&gt;Node12</title>
<path fill="none" stroke="midnightblue" d="M288.45,-106.9C304.22,-97 324.81,-84.07 338.22,-75.65"/>
<polygon fill="midnightblue" stroke="midnightblue" points="286.43,-104.04 279.82,-112.32 290.15,-109.97 286.43,-104.04"/>
</g>
</g>
</svg>
