<?xml version="1.0" encoding="UTF-8" standalone="no"?>
<!DOCTYPE svg PUBLIC "-//W3C//DTD SVG 1.1//EN"
 "http://www.w3.org/Graphics/SVG/1.1/DTD/svg11.dtd">
<!-- Generated by graphviz version 2.43.0 (0)
 -->
<!-- Title: DopplerSegmentProber Pages: 1 -->
<!--zoomable 531 -->
<svg id="main" version="1.1" xmlns="http://www.w3.org/2000/svg" xmlns:xlink="http://www.w3.org/1999/xlink" xml:space="preserve" onload="init(evt)">
<style type="text/css"><![CDATA[
.edge:hover path { stroke: red; }
.edge:hover polygon { stroke: red; fill: red; }
]]></style>
<script type="text/javascript"><![CDATA[
var edges = document.getElementsByTagName('g');
if (edges && edges.length) {
  for (var i=0;i<edges.length;i++) {
    if (edges[i].id.substr(0,4)=='edge') {
      edges[i].setAttribute('class','edge');
    }
  }
}
]]></script>
        <defs>
                <circle id="rim" cx="0" cy="0" r="7"/>
                <circle id="rim2" cx="0" cy="0" r="3.5"/>
                <g id="zoomPlus">
                        <use xlink:href="#rim" fill="#404040">
                                <set attributeName="fill" to="#808080" begin="zoomplus.mouseover" end="zoomplus.mouseout"/>
                        </use>
                        <path d="M-4,0h8M0,-4v8" fill="none" stroke="white" stroke-width="1.5" pointer-events="none"/>
                </g>
                <g id="zoomMin">
                        <use xlink:href="#rim" fill="#404040">
                                <set attributeName="fill" to="#808080" begin="zoomminus.mouseover" end="zoomminus.mouseout"/>
                        </use>
                        <path d="M-4,0h8" fill="none" stroke="white" stroke-width="1.5" pointer-events="none"/>
                </g>
                <g id="dirArrow">
                        <path fill="none" stroke="white" stroke-width="1.5" d="M0,-3.0v7 M-2.5,-0.5L0,-3.0L2.5,-0.5"/>
                </g>
               <g id="resetDef">
                       <use xlink:href="#rim2" fill="#404040">
                               <set attributeName="fill" to="#808080" begin="reset.mouseover" end="reset.mouseout"/>
                       </use>
               </g>
        </defs>

<script type="text/javascript">
var viewWidth = 2094;
var viewHeight = 531;
var sectionId = 'dynsection-1';
</script>
<script xlink:href="svgpan.js"/>
<svg id="graph" class="graph">
<g id="viewport">
<title>DopplerSegmentProber</title>
<polygon fill="white" stroke="transparent" points="-4,4 -4,-527 2090,-527 2090,4 -4,4"/>
<!-- Node1 -->
<g id="node1" class="node">
<title>Node1</title>
<g id="a_node1"><a xlink:title=" ">
<polygon fill="#bfbfbf" stroke="black" points="1956,-292.5 1956,-311.5 2086,-311.5 2086,-292.5 1956,-292.5"/>
<text text-anchor="middle" x="2021" y="-299.5" font-family="Helvetica,sans-Serif" font-size="10.00">DopplerSegmentProber</text>
</a>
</g>
</g>
<!-- Node2 -->
<g id="node2" class="node">
<title>Node2</title>
<g id="a_node2"><a xlink:href="classdrain_1_1image_1_1SegmentProber.html" target="_top" xlink:title=" ">
<polygon fill="white" stroke="black" points="1727,-276 1727,-328 1894,-328 1894,-276 1727,-276"/>
<text text-anchor="start" x="1735" y="-316" font-family="Helvetica,sans-Serif" font-size="10.00">SegmentProber&lt; double,</text>
<text text-anchor="start" x="1735" y="-305" font-family="Helvetica,sans-Serif" font-size="10.00"> double, drain::image</text>
<text text-anchor="start" x="1735" y="-294" font-family="Helvetica,sans-Serif" font-size="10.00">::SegmentProberConf&lt; double,</text>
<text text-anchor="middle" x="1810.5" y="-283" font-family="Helvetica,sans-Serif" font-size="10.00"> double &gt; &gt;</text>
</a>
</g>
</g>
<!-- Node2&#45;&gt;Node1 -->
<g id="edge1" class="edge">
<title>Node2&#45;&gt;Node1</title>
<path fill="none" stroke="midnightblue" d="M1904.36,-302C1921.71,-302 1939.48,-302 1955.73,-302"/>
<polygon fill="midnightblue" stroke="midnightblue" points="1904.2,-298.5 1894.2,-302 1904.2,-305.5 1904.2,-298.5"/>
</g>
<!-- Node3 -->
<g id="node3" class="node">
<title>Node3</title>
<g id="a_node3"><a xlink:href="classdrain_1_1image_1_1Channel.html" target="_top" xlink:title="Image with static geometry.">
<polygon fill="white" stroke="black" points="1617,-249.5 1617,-268.5 1673,-268.5 1673,-249.5 1617,-249.5"/>
<text text-anchor="middle" x="1645" y="-256.5" font-family="Helvetica,sans-Serif" font-size="10.00">Channel</text>
</a>
</g>
</g>
<!-- Node3&#45;&gt;Node2 -->
<g id="edge2" class="edge">
<title>Node3&#45;&gt;Node2</title>
<path fill="none" stroke="#9a32cd" stroke-dasharray="5,2" d="M1683.35,-268.82C1696.43,-272.26 1711.69,-276.28 1726.98,-280.3"/>
<polygon fill="#9a32cd" stroke="#9a32cd" points="1683.93,-265.36 1673.37,-266.2 1682.15,-272.13 1683.93,-265.36"/>
<text text-anchor="middle" x="1700" y="-290" font-family="Helvetica,sans-Serif" font-size="10.00"> src</text>
<text text-anchor="middle" x="1700" y="-279" font-family="Helvetica,sans-Serif" font-size="10.00">dst</text>
</g>
<!-- Node4 -->
<g id="node4" class="node">
<title>Node4</title>
<g id="a_node4"><a xlink:href="classdrain_1_1image_1_1ImageFrame.html" target="_top" xlink:title="Image with static geometry.">
<polygon fill="white" stroke="black" points="1502,-182.5 1502,-201.5 1580,-201.5 1580,-182.5 1502,-182.5"/>
<text text-anchor="middle" x="1541" y="-189.5" font-family="Helvetica,sans-Serif" font-size="10.00">ImageFrame</text>
</a>
</g>
</g>
<!-- Node4&#45;&gt;Node3 -->
<g id="edge3" class="edge">
<title>Node4&#45;&gt;Node3</title>
<path fill="none" stroke="midnightblue" d="M1565.05,-207.14C1584.79,-220.1 1612.61,-238.38 1629.41,-249.42"/>
<polygon fill="midnightblue" stroke="midnightblue" points="1566.89,-204.16 1556.61,-201.6 1563.05,-210.02 1566.89,-204.16"/>
</g>
<!-- Node5 -->
<g id="node5" class="node">
<title>Node5</title>
<g id="a_node5"><a xlink:href="classdrain_1_1image_1_1ImageLike.html" target="_top" xlink:title="A base class for images.">
<polygon fill="white" stroke="black" points="1315,-219.5 1315,-238.5 1382,-238.5 1382,-219.5 1315,-219.5"/>
<text text-anchor="middle" x="1348.5" y="-226.5" font-family="Helvetica,sans-Serif" font-size="10.00">ImageLike</text>
</a>
</g>
</g>
<!-- Node5&#45;&gt;Node4 -->
<g id="edge4" class="edge">
<title>Node5&#45;&gt;Node4</title>
<path fill="none" stroke="midnightblue" d="M1392.46,-220.66C1425.31,-214.28 1470.18,-205.56 1501.79,-199.42"/>
<polygon fill="midnightblue" stroke="midnightblue" points="1391.4,-217.3 1382.25,-222.64 1392.73,-224.17 1391.4,-217.3"/>
</g>
<!-- Node6 -->
<g id="node6" class="node">
<title>Node6</title>
<g id="a_node6"><a xlink:href="classdrain_1_1image_1_1ImageConf.html" target="_top" xlink:title="Struct for image (excluding data)">
<polygon fill="white" stroke="black" points="1057.5,-216.5 1057.5,-235.5 1127.5,-235.5 1127.5,-216.5 1057.5,-216.5"/>
<text text-anchor="middle" x="1092.5" y="-223.5" font-family="Helvetica,sans-Serif" font-size="10.00">ImageConf</text>
</a>
</g>
</g>
<!-- Node6&#45;&gt;Node5 -->
<g id="edge5" class="edge">
<title>Node6&#45;&gt;Node5</title>
<path fill="none" stroke="#9a32cd" stroke-dasharray="5,2" d="M1138.06,-226.53C1188.67,-227.12 1270.02,-228.08 1314.99,-228.62"/>
<polygon fill="#9a32cd" stroke="#9a32cd" points="1137.8,-223.02 1127.76,-226.4 1137.71,-230.02 1137.8,-223.02"/>
<text text-anchor="middle" x="1233.5" y="-232" font-family="Helvetica,sans-Serif" font-size="10.00"> conf</text>
</g>
<!-- Node7 -->
<g id="node7" class="node">
<title>Node7</title>
<g id="a_node7"><a xlink:href="classdrain_1_1image_1_1Encoding.html" target="_top" xlink:title=" ">
<polygon fill="white" stroke="black" points="777,-214.5 777,-233.5 838,-233.5 838,-214.5 777,-214.5"/>
<text text-anchor="middle" x="807.5" y="-221.5" font-family="Helvetica,sans-Serif" font-size="10.00">Encoding</text>
</a>
</g>
</g>
<!-- Node7&#45;&gt;Node6 -->
<g id="edge6" class="edge">
<title>Node7&#45;&gt;Node6</title>
<path fill="none" stroke="midnightblue" d="M848.47,-224.28C904.33,-224.68 1004.79,-225.39 1057.34,-225.76"/>
<polygon fill="midnightblue" stroke="midnightblue" points="848.28,-220.78 838.25,-224.21 848.23,-227.78 848.28,-220.78"/>
</g>
<!-- Node8 -->
<g id="node8" class="node">
<title>Node8</title>
<g id="a_node8"><a xlink:href="classdrain_1_1ValueScaling.html" target="_top" xlink:title="Linear scaling and physical range for image intensities.">
<polygon fill="white" stroke="black" points="516,-247.5 516,-266.5 596,-266.5 596,-247.5 516,-247.5"/>
<text text-anchor="middle" x="556" y="-254.5" font-family="Helvetica,sans-Serif" font-size="10.00">ValueScaling</text>
</a>
</g>
</g>
<!-- Node8&#45;&gt;Node7 -->
<g id="edge7" class="edge">
<title>Node8&#45;&gt;Node7</title>
<path fill="none" stroke="midnightblue" d="M606.37,-250.47C657.2,-243.75 734.77,-233.49 776.85,-227.92"/>
<polygon fill="midnightblue" stroke="midnightblue" points="605.71,-247.03 596.26,-251.81 606.63,-253.97 605.71,-247.03"/>
</g>
<!-- Node37 -->
<g id="node37" class="node">
<title>Node37</title>
<g id="a_node37"><a xlink:href="classrack_1_1EncodingODIM.html" target="_top" xlink:title="Structure for data storage type, scaling and marker codes. Does not contain quantity.">
<polygon fill="white" stroke="black" points="763.5,-276.5 763.5,-295.5 851.5,-295.5 851.5,-276.5 763.5,-276.5"/>
<text text-anchor="middle" x="807.5" y="-283.5" font-family="Helvetica,sans-Serif" font-size="10.00">EncodingODIM</text>
</a>
</g>
</g>
<!-- Node8&#45;&gt;Node37 -->
<g id="edge43" class="edge">
<title>Node8&#45;&gt;Node37</title>
<path fill="none" stroke="#9a32cd" stroke-dasharray="5,2" d="M606.59,-253.74C634.46,-252.72 669.8,-252.79 701,-257 728.3,-260.68 758.52,-269.5 779.59,-276.45"/>
<polygon fill="#9a32cd" stroke="#9a32cd" points="606.15,-250.25 596.3,-254.18 606.44,-257.25 606.15,-250.25"/>
<text text-anchor="middle" x="668" y="-282" font-family="Helvetica,sans-Serif" font-size="10.00"> scalingConst</text>
<text text-anchor="middle" x="668" y="-271" font-family="Helvetica,sans-Serif" font-size="10.00">scaling</text>
<text text-anchor="middle" x="668" y="-260" font-family="Helvetica,sans-Serif" font-size="10.00">ownScaling</text>
</g>
<!-- Node9 -->
<g id="node9" class="node">
<title>Node9</title>
<g id="a_node9"><a xlink:href="classdrain_1_1UniTuple.html" target="_top" xlink:title=" ">
<polygon fill="white" stroke="black" points="214.5,-247.5 214.5,-266.5 340.5,-266.5 340.5,-247.5 214.5,-247.5"/>
<text text-anchor="middle" x="277.5" y="-254.5" font-family="Helvetica,sans-Serif" font-size="10.00">UniTuple&lt; double, 4 &gt;</text>
</a>
</g>
</g>
<!-- Node9&#45;&gt;Node8 -->
<g id="edge8" class="edge">
<title>Node9&#45;&gt;Node8</title>
<path fill="none" stroke="midnightblue" d="M350.86,-257C403.58,-257 472.99,-257 515.77,-257"/>
<polygon fill="midnightblue" stroke="midnightblue" points="350.55,-253.5 340.55,-257 350.55,-260.5 350.55,-253.5"/>
</g>
<!-- Node10 -->
<g id="node10" class="node">
<title>Node10</title>
<g id="a_node10"><a xlink:href="classdrain_1_1Range.html" target="_top" xlink:title=" ">
<polygon fill="white" stroke="black" points="226,-345.5 226,-364.5 329,-364.5 329,-345.5 226,-345.5"/>
<text text-anchor="middle" x="277.5" y="-352.5" font-family="Helvetica,sans-Serif" font-size="10.00">Range&lt; double &gt;</text>
</a>
</g>
</g>
<!-- Node10&#45;&gt;Node8 -->
<g id="edge9" class="edge">
<title>Node10&#45;&gt;Node8</title>
<path fill="none" stroke="#9a32cd" stroke-dasharray="5,2" d="M315.09,-342.03C371.37,-322.08 477.93,-284.32 527.87,-266.61"/>
<polygon fill="#9a32cd" stroke="#9a32cd" points="313.77,-338.79 305.52,-345.42 316.11,-345.38 313.77,-338.79"/>
<text text-anchor="middle" x="422" y="-326" font-family="Helvetica,sans-Serif" font-size="10.00"> physRange</text>
</g>
<!-- Node31 -->
<g id="node31" class="node">
<title>Node31</title>
<g id="a_node31"><a xlink:href="classdrain_1_1image_1_1SegmentProberConf.html" target="_top" xlink:title=" ">
<polygon fill="white" stroke="black" points="746.5,-315 746.5,-345 868.5,-345 868.5,-315 746.5,-315"/>
<text text-anchor="start" x="754.5" y="-333" font-family="Helvetica,sans-Serif" font-size="10.00">SegmentProberConf&lt;</text>
<text text-anchor="middle" x="807.5" y="-322" font-family="Helvetica,sans-Serif" font-size="10.00"> double, double &gt;</text>
</a>
</g>
</g>
<!-- Node10&#45;&gt;Node31 -->
<g id="edge38" class="edge">
<title>Node10&#45;&gt;Node31</title>
<path fill="none" stroke="#9a32cd" stroke-dasharray="5,2" d="M339.25,-352.12C441.08,-347.3 645.01,-337.65 746.4,-332.85"/>
<polygon fill="#9a32cd" stroke="#9a32cd" points="338.95,-348.63 329.13,-352.6 339.28,-355.63 338.95,-348.63"/>
<text text-anchor="middle" x="556" y="-347" font-family="Helvetica,sans-Serif" font-size="10.00"> anchor</text>
</g>
<!-- Node11 -->
<g id="node11" class="node">
<title>Node11</title>
<g id="a_node11"><a xlink:href="classdrain_1_1UniTuple.html" target="_top" xlink:title=" ">
<polygon fill="white" stroke="black" points="21.5,-364.5 21.5,-383.5 147.5,-383.5 147.5,-364.5 21.5,-364.5"/>
<text text-anchor="middle" x="84.5" y="-371.5" font-family="Helvetica,sans-Serif" font-size="10.00">UniTuple&lt; double, 2 &gt;</text>
</a>
</g>
</g>
<!-- Node11&#45;&gt;Node10 -->
<g id="edge10" class="edge">
<title>Node11&#45;&gt;Node10</title>
<path fill="none" stroke="midnightblue" d="M157.49,-366.84C180.29,-364.57 204.99,-362.11 225.95,-360.03"/>
<polygon fill="midnightblue" stroke="midnightblue" points="157.12,-363.36 147.51,-367.83 157.81,-370.32 157.12,-363.36"/>
</g>
<!-- Node38 -->
<g id="node38" class="node">
<title>Node38</title>
<g id="a_node38"><a xlink:href="structdrain_1_1Point2D.html" target="_top" xlink:title=" ">
<polygon fill="white" stroke="black" points="367,-384.5 367,-403.5 477,-403.5 477,-384.5 367,-384.5"/>
<text text-anchor="middle" x="422" y="-391.5" font-family="Helvetica,sans-Serif" font-size="10.00">Point2D&lt; double &gt;</text>
</a>
</g>
</g>
<!-- Node11&#45;&gt;Node38 -->
<g id="edge45" class="edge">
<title>Node11&#45;&gt;Node38</title>
<path fill="none" stroke="midnightblue" d="M158.04,-378.32C220.78,-382.06 310.08,-387.39 366.78,-390.77"/>
<polygon fill="midnightblue" stroke="midnightblue" points="158.01,-374.82 147.82,-377.71 157.59,-381.8 158.01,-374.82"/>
</g>
<!-- Node12 -->
<g id="node12" class="node">
<title>Node12</title>
<g id="a_node12"><a xlink:href="classdrain_1_1Caster.html" target="_top" xlink:title=" ">
<polygon fill="white" stroke="black" points="532,-171.5 532,-190.5 580,-190.5 580,-171.5 532,-171.5"/>
<text text-anchor="middle" x="556" y="-178.5" font-family="Helvetica,sans-Serif" font-size="10.00">Caster</text>
</a>
</g>
</g>
<!-- Node12&#45;&gt;Node7 -->
<g id="edge11" class="edge">
<title>Node12&#45;&gt;Node7</title>
<path fill="none" stroke="#9a32cd" stroke-dasharray="5,2" d="M590.07,-186.7C638.94,-195.12 729.71,-210.77 776.65,-218.86"/>
<polygon fill="#9a32cd" stroke="#9a32cd" points="590.47,-183.22 580.03,-184.97 589.29,-190.12 590.47,-183.22"/>
<text text-anchor="middle" x="668" y="-209" font-family="Helvetica,sans-Serif" font-size="10.00"> caster</text>
</g>
<!-- Node23 -->
<g id="node23" class="node">
<title>Node23</title>
<g id="a_node23"><a xlink:href="classdrain_1_1Castable.html" target="_top" xlink:title=" ">
<polygon fill="white" stroke="black" points="778,-172.5 778,-191.5 837,-191.5 837,-172.5 778,-172.5"/>
<text text-anchor="middle" x="807.5" y="-179.5" font-family="Helvetica,sans-Serif" font-size="10.00">Castable</text>
</a>
</g>
</g>
<!-- Node12&#45;&gt;Node23 -->
<g id="edge24" class="edge">
<title>Node12&#45;&gt;Node23</title>
<path fill="none" stroke="#9a32cd" stroke-dasharray="5,2" d="M590.03,-172.68C603.83,-169.61 620.1,-166.51 635,-165 685.31,-159.89 743.93,-168.94 777.97,-175.68"/>
<polygon fill="#9a32cd" stroke="#9a32cd" points="588.97,-169.34 580.02,-175 590.55,-176.16 588.97,-169.34"/>
<text text-anchor="middle" x="668" y="-168" font-family="Helvetica,sans-Serif" font-size="10.00"> caster</text>
</g>
<!-- Node13 -->
<g id="node13" class="node">
<title>Node13</title>
<g id="a_node13"><a xlink:href="classdrain_1_1image_1_1Geometry.html" target="_top" xlink:title=" ">
<polygon fill="white" stroke="black" points="775,-483.5 775,-502.5 840,-502.5 840,-483.5 775,-483.5"/>
<text text-anchor="middle" x="807.5" y="-490.5" font-family="Helvetica,sans-Serif" font-size="10.00">Geometry</text>
</a>
</g>
</g>
<!-- Node13&#45;&gt;Node6 -->
<g id="edge12" class="edge">
<title>Node13&#45;&gt;Node6</title>
<path fill="none" stroke="midnightblue" d="M849.84,-487.19C865.23,-483.65 882.28,-478 896,-469 995.15,-403.97 1067.73,-272.37 1086.64,-235.69"/>
<polygon fill="midnightblue" stroke="midnightblue" points="849.1,-483.76 840.02,-489.22 850.52,-490.62 849.1,-483.76"/>
</g>
<!-- Node14 -->
<g id="node14" class="node">
<title>Node14</title>
<g id="a_node14"><a xlink:href="classdrain_1_1UniTuple.html" target="_top" xlink:title=" ">
<polygon fill="white" stroke="black" points="495,-503.5 495,-522.5 617,-522.5 617,-503.5 495,-503.5"/>
<text text-anchor="middle" x="556" y="-510.5" font-family="Helvetica,sans-Serif" font-size="10.00">UniTuple&lt; size_t, 4 &gt;</text>
</a>
</g>
</g>
<!-- Node14&#45;&gt;Node13 -->
<g id="edge13" class="edge">
<title>Node14&#45;&gt;Node13</title>
<path fill="none" stroke="midnightblue" d="M627.2,-507.37C675.65,-503.49 737.77,-498.51 774.72,-495.55"/>
<polygon fill="midnightblue" stroke="midnightblue" points="626.77,-503.9 617.08,-508.18 627.33,-510.87 626.77,-503.9"/>
</g>
<!-- Node15 -->
<g id="node15" class="node">
<title>Node15</title>
<g id="a_node15"><a xlink:href="classdrain_1_1Frame2D.html" target="_top" xlink:title=" ">
<polygon fill="white" stroke="black" points="500,-460.5 500,-479.5 612,-479.5 612,-460.5 500,-460.5"/>
<text text-anchor="middle" x="556" y="-467.5" font-family="Helvetica,sans-Serif" font-size="10.00">Frame2D&lt; size_t &gt;</text>
</a>
</g>
</g>
<!-- Node15&#45;&gt;Node13 -->
<g id="edge14" class="edge">
<title>Node15&#45;&gt;Node13</title>
<path fill="none" stroke="#9a32cd" stroke-dasharray="5,2" d="M622.29,-476.02C671.41,-480.55 736.6,-486.56 774.8,-490.08"/>
<polygon fill="#9a32cd" stroke="#9a32cd" points="622.34,-472.51 612.06,-475.08 621.7,-479.48 622.34,-472.51"/>
<text text-anchor="middle" x="668" y="-485" font-family="Helvetica,sans-Serif" font-size="10.00"> area</text>
</g>
<!-- Node36 -->
<g id="node36" class="node">
<title>Node36</title>
<g id="a_node36"><a xlink:href="classrack_1_1ODIM.html" target="_top" xlink:title="ODIM metadata (quantity, gain, offset, undetect, nodata, date, time)">
<polygon fill="white" stroke="black" points="1070.5,-383.5 1070.5,-402.5 1114.5,-402.5 1114.5,-383.5 1070.5,-383.5"/>
<text text-anchor="middle" x="1092.5" y="-390.5" font-family="Helvetica,sans-Serif" font-size="10.00">ODIM</text>
</a>
</g>
</g>
<!-- Node15&#45;&gt;Node36 -->
<g id="edge46" class="edge">
<title>Node15&#45;&gt;Node36</title>
<path fill="none" stroke="#9a32cd" stroke-dasharray="5,2" d="M622.35,-461.28C708.67,-449.66 865.37,-428.2 999,-408 1023.45,-404.3 1051.48,-399.71 1070.21,-396.58"/>
<polygon fill="#9a32cd" stroke="#9a32cd" points="621.63,-457.84 612.18,-462.65 622.56,-464.78 621.63,-457.84"/>
<text text-anchor="middle" x="807.5" y="-450" font-family="Helvetica,sans-Serif" font-size="10.00"> area</text>
</g>
<!-- Node16 -->
<g id="node16" class="node">
<title>Node16</title>
<g id="a_node16"><a xlink:href="classdrain_1_1UniTuple.html" target="_top" xlink:title=" ">
<polygon fill="white" stroke="black" points="216.5,-441.5 216.5,-460.5 338.5,-460.5 338.5,-441.5 216.5,-441.5"/>
<text text-anchor="middle" x="277.5" y="-448.5" font-family="Helvetica,sans-Serif" font-size="10.00">UniTuple&lt; size_t, 2 &gt;</text>
</a>
</g>
</g>
<!-- Node16&#45;&gt;Node15 -->
<g id="edge15" class="edge">
<title>Node16&#45;&gt;Node15</title>
<path fill="none" stroke="midnightblue" d="M348.93,-455.84C395.84,-459.06 456.59,-463.24 499.96,-466.22"/>
<polygon fill="midnightblue" stroke="midnightblue" points="349.05,-452.34 338.84,-455.15 348.57,-459.32 349.05,-452.34"/>
</g>
<!-- Node17 -->
<g id="node17" class="node">
<title>Node17</title>
<g id="a_node17"><a xlink:href="classdrain_1_1image_1_1ChannelGeometry.html" target="_top" xlink:title=" ">
<polygon fill="white" stroke="black" points="503.5,-422.5 503.5,-441.5 608.5,-441.5 608.5,-422.5 503.5,-422.5"/>
<text text-anchor="middle" x="556" y="-429.5" font-family="Helvetica,sans-Serif" font-size="10.00">ChannelGeometry</text>
</a>
</g>
</g>
<!-- Node16&#45;&gt;Node17 -->
<g id="edge17" class="edge">
<title>Node16&#45;&gt;Node17</title>
<path fill="none" stroke="midnightblue" d="M348.86,-446.16C396.95,-442.86 459.6,-438.56 503.16,-435.56"/>
<polygon fill="midnightblue" stroke="midnightblue" points="348.57,-442.68 338.84,-446.85 349.05,-449.66 348.57,-442.68"/>
</g>
<!-- Node17&#45;&gt;Node13 -->
<g id="edge16" class="edge">
<title>Node17&#45;&gt;Node13</title>
<path fill="none" stroke="#9a32cd" stroke-dasharray="5,2" d="M618.81,-442.55C644.47,-447.53 674.41,-454.12 701,-462 709.23,-464.44 710.85,-466.31 719,-469 737.25,-475.03 757.97,-480.77 774.67,-485.12"/>
<polygon fill="#9a32cd" stroke="#9a32cd" points="619.31,-439.08 608.83,-440.65 618,-445.96 619.31,-439.08"/>
<text text-anchor="middle" x="668" y="-465" font-family="Helvetica,sans-Serif" font-size="10.00"> channels</text>
</g>
<!-- Node18 -->
<g id="node18" class="node">
<title>Node18</title>
<g id="a_node18"><a xlink:href="classdrain_1_1image_1_1CoordinatePolicy.html" target="_top" xlink:title="Policies for coordinate underflows and overflows.">
<polygon fill="white" stroke="black" points="758,-55.5 758,-74.5 857,-74.5 857,-55.5 758,-55.5"/>
<text text-anchor="middle" x="807.5" y="-62.5" font-family="Helvetica,sans-Serif" font-size="10.00">CoordinatePolicy</text>
</a>
</g>
</g>
<!-- Node18&#45;&gt;Node6 -->
<g id="edge18" class="edge">
<title>Node18&#45;&gt;Node6</title>
<path fill="none" stroke="#9a32cd" stroke-dasharray="5,2" d="M867.28,-59.54C908.33,-58.9 962.16,-64.77 999,-94 1015.87,-107.39 1005.85,-120.57 1017,-139 1035.84,-170.13 1065.82,-201.21 1081.38,-216.41"/>
<polygon fill="#9a32cd" stroke="#9a32cd" points="867.03,-56.05 857.14,-59.84 867.24,-63.05 867.03,-56.05"/>
<text text-anchor="middle" x="956.5" y="-97" font-family="Helvetica,sans-Serif" font-size="10.00"> coordinatePolicy</text>
</g>
<!-- Node27 -->
<g id="node27" class="node">
<title>Node27</title>
<g id="a_node27"><a xlink:href="classdrain_1_1image_1_1CoordinateHandler2D.html" target="_top" xlink:title=" ">
<polygon fill="white" stroke="black" points="1031.5,-110.5 1031.5,-129.5 1153.5,-129.5 1153.5,-110.5 1031.5,-110.5"/>
<text text-anchor="middle" x="1092.5" y="-117.5" font-family="Helvetica,sans-Serif" font-size="10.00">CoordinateHandler2D</text>
</a>
</g>
</g>
<!-- Node18&#45;&gt;Node27 -->
<g id="edge33" class="edge">
<title>Node18&#45;&gt;Node27</title>
<path fill="none" stroke="#9a32cd" stroke-dasharray="5,2" d="M838.67,-51.71C877.95,-36.54 947.65,-17.09 999,-44 1011.45,-50.52 1006.99,-60.13 1017,-70 1033.97,-86.73 1057.27,-101.32 1073.27,-110.36"/>
<polygon fill="#9a32cd" stroke="#9a32cd" points="837.35,-48.47 829.37,-55.44 839.95,-54.96 837.35,-48.47"/>
<text text-anchor="middle" x="956.5" y="-47" font-family="Helvetica,sans-Serif" font-size="10.00"> policy</text>
</g>
<!-- Node19 -->
<g id="node19" class="node">
<title>Node19</title>
<g id="a_node19"><a xlink:href="classdrain_1_1UniTuple.html" target="_top" xlink:title=" ">
<polygon fill="white" stroke="black" points="497.5,-55 497.5,-85 614.5,-85 614.5,-55 497.5,-55"/>
<text text-anchor="start" x="505.5" y="-73" font-family="Helvetica,sans-Serif" font-size="10.00">UniTuple&lt; coord_pol</text>
<text text-anchor="middle" x="556" y="-62" font-family="Helvetica,sans-Serif" font-size="10.00">_t, 4 &gt;</text>
</a>
</g>
</g>
<!-- Node19&#45;&gt;Node18 -->
<g id="edge19" class="edge">
<title>Node19&#45;&gt;Node18</title>
<path fill="none" stroke="midnightblue" d="M624.71,-68.64C666.72,-67.8 719.72,-66.74 757.64,-65.98"/>
<polygon fill="midnightblue" stroke="midnightblue" points="624.48,-65.15 614.55,-68.85 624.62,-72.15 624.48,-65.15"/>
</g>
<!-- Node20 -->
<g id="node20" class="node">
<title>Node20</title>
<g id="a_node20"><a xlink:href="classdrain_1_1Dictionary2.html" target="_top" xlink:title="Two&#45;way mapping between strings and objects of template class T.">
<polygon fill="white" stroke="black" points="498.5,-16.5 498.5,-35.5 613.5,-35.5 613.5,-16.5 498.5,-16.5"/>
<text text-anchor="middle" x="556" y="-23.5" font-family="Helvetica,sans-Serif" font-size="10.00">Dictionary2&lt; K, V &gt;</text>
</a>
</g>
</g>
<!-- Node20&#45;&gt;Node18 -->
<g id="edge20" class="edge">
<title>Node20&#45;&gt;Node18</title>
<path fill="none" stroke="#9a32cd" stroke-dasharray="5,2" d="M623.53,-36.4C665.74,-43 719.41,-51.39 757.69,-57.37"/>
<polygon fill="#9a32cd" stroke="#9a32cd" points="624.04,-32.94 613.62,-34.85 622.95,-39.85 624.04,-32.94"/>
<text text-anchor="middle" x="668" y="-51" font-family="Helvetica,sans-Serif" font-size="10.00"> dict</text>
</g>
<!-- Node21 -->
<g id="node21" class="node">
<title>Node21</title>
<g id="a_node21"><a xlink:title=" ">
<polygon fill="white" stroke="#bfbfbf" points="225.5,-11 225.5,-41 329.5,-41 329.5,-11 225.5,-11"/>
<text text-anchor="start" x="233.5" y="-29" font-family="Helvetica,sans-Serif" font-size="10.00">list&lt; std::pair&lt; K,</text>
<text text-anchor="middle" x="277.5" y="-18" font-family="Helvetica,sans-Serif" font-size="10.00"> V &gt; &gt;</text>
</a>
</g>
</g>
<!-- Node21&#45;&gt;Node20 -->
<g id="edge21" class="edge">
<title>Node21&#45;&gt;Node20</title>
<path fill="none" stroke="midnightblue" d="M339.64,-26C386.92,-26 451.88,-26 498.06,-26"/>
<polygon fill="midnightblue" stroke="midnightblue" points="339.54,-22.5 329.54,-26 339.54,-29.5 339.54,-22.5"/>
</g>
<!-- Node22 -->
<g id="node22" class="node">
<title>Node22</title>
<g id="a_node22"><a xlink:href="classdrain_1_1CastableIterator.html" target="_top" xlink:title=" ">
<polygon fill="white" stroke="black" points="1186,-170.5 1186,-189.5 1281,-189.5 1281,-170.5 1186,-170.5"/>
<text text-anchor="middle" x="1233.5" y="-177.5" font-family="Helvetica,sans-Serif" font-size="10.00">CastableIterator</text>
</a>
</g>
</g>
<!-- Node22&#45;&gt;Node4 -->
<g id="edge22" class="edge">
<title>Node22&#45;&gt;Node4</title>
<path fill="none" stroke="#9a32cd" stroke-dasharray="5,2" d="M1291.54,-182.24C1353,-184.65 1449.1,-188.43 1501.96,-190.51"/>
<polygon fill="#9a32cd" stroke="#9a32cd" points="1291.36,-178.73 1281.23,-181.84 1291.09,-185.73 1291.36,-178.73"/>
<text text-anchor="middle" x="1348.5" y="-201" font-family="Helvetica,sans-Serif" font-size="10.00"> segmentEnd</text>
<text text-anchor="middle" x="1348.5" y="-190" font-family="Helvetica,sans-Serif" font-size="10.00">segmentBegin</text>
</g>
<!-- Node23&#45;&gt;Node22 -->
<g id="edge23" class="edge">
<title>Node23&#45;&gt;Node22</title>
<path fill="none" stroke="darkgreen" d="M847.7,-181.82C926.08,-181.45 1101.78,-180.62 1185.89,-180.22"/>
<polygon fill="darkgreen" stroke="darkgreen" points="847.29,-178.32 837.31,-181.86 847.33,-185.32 847.29,-178.32"/>
</g>
<!-- Node24 -->
<g id="node24" class="node">
<title>Node24</title>
<g id="a_node24"><a xlink:href="classdrain_1_1FlexVariableMap.html" target="_top" xlink:title="A map of FlexVariable:s.">
<polygon fill="white" stroke="black" points="1299,-76.5 1299,-95.5 1398,-95.5 1398,-76.5 1299,-76.5"/>
<text text-anchor="middle" x="1348.5" y="-83.5" font-family="Helvetica,sans-Serif" font-size="10.00">FlexVariableMap</text>
</a>
</g>
</g>
<!-- Node24&#45;&gt;Node4 -->
<g id="edge25" class="edge">
<title>Node24&#45;&gt;Node4</title>
<path fill="none" stroke="#9a32cd" stroke-dasharray="5,2" d="M1389.16,-99.02C1416.84,-109 1454.05,-124.23 1484,-143 1502.17,-154.39 1520.32,-171.61 1530.84,-182.31"/>
<polygon fill="#9a32cd" stroke="#9a32cd" points="1390.01,-95.61 1379.42,-95.59 1387.68,-102.21 1390.01,-95.61"/>
<text text-anchor="middle" x="1450" y="-157" font-family="Helvetica,sans-Serif" font-size="10.00"> propertiesPtr</text>
<text text-anchor="middle" x="1450" y="-146" font-family="Helvetica,sans-Serif" font-size="10.00">properties</text>
</g>
<!-- Node25 -->
<g id="node25" class="node">
<title>Node25</title>
<g id="a_node25"><a xlink:href="classdrain_1_1SmartMap.html" target="_top" xlink:title=" ">
<polygon fill="white" stroke="black" points="1017,-41.5 1017,-60.5 1168,-60.5 1168,-41.5 1017,-41.5"/>
<text text-anchor="middle" x="1092.5" y="-48.5" font-family="Helvetica,sans-Serif" font-size="10.00">SmartMap&lt; FlexVariable &gt;</text>
</a>
</g>
</g>
<!-- Node25&#45;&gt;Node24 -->
<g id="edge26" class="edge">
<title>Node25&#45;&gt;Node24</title>
<path fill="none" stroke="midnightblue" d="M1172.63,-61.9C1213.98,-67.6 1263.27,-74.39 1298.96,-79.31"/>
<polygon fill="midnightblue" stroke="midnightblue" points="1172.96,-58.42 1162.57,-60.52 1172,-65.35 1172.96,-58.42"/>
</g>
<!-- Node26 -->
<g id="node26" class="node">
<title>Node26</title>
<g id="a_node26"><a xlink:title=" ">
<polygon fill="white" stroke="#bfbfbf" points="719,-0.5 719,-19.5 896,-19.5 896,-0.5 719,-0.5"/>
<text text-anchor="middle" x="807.5" y="-7.5" font-family="Helvetica,sans-Serif" font-size="10.00">map&lt; std::string, FlexVariable &gt;</text>
</a>
</g>
</g>
<!-- Node26&#45;&gt;Node25 -->
<g id="edge27" class="edge">
<title>Node26&#45;&gt;Node25</title>
<path fill="none" stroke="midnightblue" d="M906.26,-13.22C936.19,-15.27 969.09,-18.6 999,-24 1021.39,-28.04 1046.1,-35.41 1064.34,-41.43"/>
<polygon fill="midnightblue" stroke="midnightblue" points="906.44,-9.73 896.24,-12.58 905.99,-16.71 906.44,-9.73"/>
</g>
<!-- Node27&#45;&gt;Node2 -->
<g id="edge28" class="edge">
<title>Node27&#45;&gt;Node2</title>
<path fill="none" stroke="#9a32cd" stroke-dasharray="5,2" d="M1163.77,-124.25C1214.74,-126.98 1285.36,-130 1347.5,-130 1347.5,-130 1347.5,-130 1646,-130 1716.35,-130 1674.23,-219.48 1727,-266 1731.1,-269.62 1735.63,-272.92 1740.38,-275.92"/>
<polygon fill="#9a32cd" stroke="#9a32cd" points="1163.69,-120.74 1153.52,-123.7 1163.31,-127.73 1163.69,-120.74"/>
<text text-anchor="middle" x="1541" y="-133" font-family="Helvetica,sans-Serif" font-size="10.00"> handler</text>
</g>
<!-- Node28 -->
<g id="node28" class="node">
<title>Node28</title>
<g id="a_node28"><a xlink:href="classdrain_1_1Range.html" target="_top" xlink:title=" ">
<polygon fill="white" stroke="black" points="766,-134.5 766,-153.5 849,-153.5 849,-134.5 766,-134.5"/>
<text text-anchor="middle" x="807.5" y="-141.5" font-family="Helvetica,sans-Serif" font-size="10.00">Range&lt; int &gt;</text>
</a>
</g>
</g>
<!-- Node28&#45;&gt;Node27 -->
<g id="edge29" class="edge">
<title>Node28&#45;&gt;Node27</title>
<path fill="none" stroke="#9a32cd" stroke-dasharray="5,2" d="M859.26,-139.7C907.5,-135.6 980.09,-129.45 1031.24,-125.11"/>
<polygon fill="#9a32cd" stroke="#9a32cd" points="858.72,-136.23 849.05,-140.56 859.31,-143.2 858.72,-136.23"/>
<text text-anchor="middle" x="956.5" y="-149" font-family="Helvetica,sans-Serif" font-size="10.00"> yRange</text>
<text text-anchor="middle" x="956.5" y="-138" font-family="Helvetica,sans-Serif" font-size="10.00">xRange</text>
</g>
<!-- Node29 -->
<g id="node29" class="node">
<title>Node29</title>
<g id="a_node29"><a xlink:href="classdrain_1_1UniTuple.html" target="_top" xlink:title=" ">
<polygon fill="white" stroke="black" points="503,-115.5 503,-134.5 609,-134.5 609,-115.5 503,-115.5"/>
<text text-anchor="middle" x="556" y="-122.5" font-family="Helvetica,sans-Serif" font-size="10.00">UniTuple&lt; int, 2 &gt;</text>
</a>
</g>
</g>
<!-- Node29&#45;&gt;Node28 -->
<g id="edge30" class="edge">
<title>Node29&#45;&gt;Node28</title>
<path fill="none" stroke="midnightblue" d="M619.42,-129.75C665.22,-133.24 726.1,-137.88 765.78,-140.9"/>
<polygon fill="midnightblue" stroke="midnightblue" points="619.54,-126.25 609.3,-128.98 619.01,-133.23 619.54,-126.25"/>
</g>
<!-- Node30 -->
<g id="node30" class="node">
<title>Node30</title>
<g id="a_node30"><a xlink:href="classdrain_1_1Frame2D.html" target="_top" xlink:title=" ">
<polygon fill="white" stroke="black" points="759.5,-96.5 759.5,-115.5 855.5,-115.5 855.5,-96.5 759.5,-96.5"/>
<text text-anchor="middle" x="807.5" y="-103.5" font-family="Helvetica,sans-Serif" font-size="10.00">Frame2D&lt; int &gt;</text>
</a>
</g>
</g>
<!-- Node29&#45;&gt;Node30 -->
<g id="edge32" class="edge">
<title>Node29&#45;&gt;Node30</title>
<path fill="none" stroke="midnightblue" d="M619.46,-120.24C662.83,-116.94 719.72,-112.61 759.32,-109.59"/>
<polygon fill="midnightblue" stroke="midnightblue" points="619.01,-116.77 609.3,-121.02 619.54,-123.75 619.01,-116.77"/>
</g>
<!-- Node30&#45;&gt;Node27 -->
<g id="edge31" class="edge">
<title>Node30&#45;&gt;Node27</title>
<path fill="none" stroke="#9a32cd" stroke-dasharray="5,2" d="M865.82,-106.99C903.66,-107.84 954.31,-109.37 999,-112 1009.46,-112.62 1020.57,-113.44 1031.33,-114.31"/>
<polygon fill="#9a32cd" stroke="#9a32cd" points="865.58,-103.48 855.5,-106.76 865.43,-110.48 865.58,-103.48"/>
<text text-anchor="middle" x="956.5" y="-115" font-family="Helvetica,sans-Serif" font-size="10.00"> area</text>
</g>
<!-- Node31&#45;&gt;Node2 -->
<g id="edge34" class="edge">
<title>Node31&#45;&gt;Node2</title>
<path fill="none" stroke="#9a32cd" stroke-dasharray="5,2" d="M878.69,-327.3C935.95,-325.33 1018.94,-323 1091.5,-323 1091.5,-323 1091.5,-323 1646,-323 1672.33,-323 1700.85,-320.29 1726.59,-316.81"/>
<polygon fill="#9a32cd" stroke="#9a32cd" points="878.54,-323.8 868.66,-327.65 878.78,-330.8 878.54,-323.8"/>
<text text-anchor="middle" x="1450" y="-326" font-family="Helvetica,sans-Serif" font-size="10.00"> conf</text>
</g>
<!-- Node32 -->
<g id="node32" class="node">
<title>Node32</title>
<g id="a_node32"><a xlink:href="classdrain_1_1ReferenceMap.html" target="_top" xlink:title=" ">
<polygon fill="white" stroke="black" points="512.5,-295.5 512.5,-314.5 599.5,-314.5 599.5,-295.5 512.5,-295.5"/>
<text text-anchor="middle" x="556" y="-302.5" font-family="Helvetica,sans-Serif" font-size="10.00">ReferenceMap</text>
</a>
</g>
</g>
<!-- Node32&#45;&gt;Node31 -->
<g id="edge35" class="edge">
<title>Node32&#45;&gt;Node31</title>
<path fill="none" stroke="midnightblue" d="M609.68,-310.28C649.64,-314.28 704.61,-319.79 746.31,-323.97"/>
<polygon fill="midnightblue" stroke="midnightblue" points="609.91,-306.78 599.61,-309.27 609.21,-313.75 609.91,-306.78"/>
</g>
<!-- Node32&#45;&gt;Node37 -->
<g id="edge42" class="edge">
<title>Node32&#45;&gt;Node37</title>
<path fill="none" stroke="midnightblue" d="M609.61,-300.99C655.26,-297.52 720.56,-292.54 763.23,-289.29"/>
<polygon fill="midnightblue" stroke="midnightblue" points="609.31,-297.51 599.61,-301.76 609.84,-304.49 609.31,-297.51"/>
</g>
<!-- Node33 -->
<g id="node33" class="node">
<title>Node33</title>
<g id="a_node33"><a xlink:href="classdrain_1_1SmartMap.html" target="_top" xlink:title=" ">
<polygon fill="white" stroke="black" points="206,-286.5 206,-305.5 349,-305.5 349,-286.5 206,-286.5"/>
<text text-anchor="middle" x="277.5" y="-293.5" font-family="Helvetica,sans-Serif" font-size="10.00">SmartMap&lt; Referencer &gt;</text>
</a>
</g>
</g>
<!-- Node33&#45;&gt;Node32 -->
<g id="edge36" class="edge">
<title>Node33&#45;&gt;Node32</title>
<path fill="none" stroke="midnightblue" d="M359.5,-298.64C409.54,-300.27 471.72,-302.29 512.34,-303.61"/>
<polygon fill="midnightblue" stroke="midnightblue" points="359.46,-295.13 349.35,-298.31 359.23,-302.13 359.46,-295.13"/>
</g>
<!-- Node34 -->
<g id="node34" class="node">
<title>Node34</title>
<g id="a_node34"><a xlink:title=" ">
<polygon fill="white" stroke="#bfbfbf" points="0,-286.5 0,-305.5 169,-305.5 169,-286.5 0,-286.5"/>
<text text-anchor="middle" x="84.5" y="-293.5" font-family="Helvetica,sans-Serif" font-size="10.00">map&lt; std::string, Referencer &gt;</text>
</a>
</g>
</g>
<!-- Node34&#45;&gt;Node33 -->
<g id="edge37" class="edge">
<title>Node34&#45;&gt;Node33</title>
<path fill="none" stroke="midnightblue" d="M179.35,-296C188.29,-296 197.25,-296 205.92,-296"/>
<polygon fill="midnightblue" stroke="midnightblue" points="179.28,-292.5 169.28,-296 179.28,-299.5 179.28,-292.5"/>
</g>
<!-- Node35 -->
<g id="node35" class="node">
<title>Node35</title>
<g id="a_node35"><a xlink:href="classrack_1_1PolarODIM.html" target="_top" xlink:title="Metadata structure for single&#45;radar data (polar scans, volumes and products).">
<polygon fill="white" stroke="black" points="1416,-362.5 1416,-381.5 1484,-381.5 1484,-362.5 1416,-362.5"/>
<text text-anchor="middle" x="1450" y="-369.5" font-family="Helvetica,sans-Serif" font-size="10.00">PolarODIM</text>
</a>
</g>
</g>
<!-- Node35&#45;&gt;Node1 -->
<g id="edge39" class="edge">
<title>Node35&#45;&gt;Node1</title>
<path fill="none" stroke="#9a32cd" stroke-dasharray="5,2" d="M1494.57,-371.55C1523.82,-371.28 1563.22,-371 1598,-371 1598,-371 1598,-371 1811.5,-371 1886.23,-371 1968.75,-330.55 2003.32,-311.59"/>
<polygon fill="#9a32cd" stroke="#9a32cd" points="1494.24,-368.05 1484.28,-371.64 1494.31,-375.05 1494.24,-368.05"/>
<text text-anchor="middle" x="1645" y="-374" font-family="Helvetica,sans-Serif" font-size="10.00"> srcODIM</text>
</g>
<!-- Node36&#45;&gt;Node35 -->
<g id="edge40" class="edge">
<title>Node36&#45;&gt;Node35</title>
<path fill="none" stroke="midnightblue" d="M1124.98,-391.14C1191.83,-387.19 1347.42,-378 1415.78,-373.96"/>
<polygon fill="midnightblue" stroke="midnightblue" points="1124.45,-387.67 1114.67,-391.75 1124.86,-394.65 1124.45,-387.67"/>
</g>
<!-- Node37&#45;&gt;Node36 -->
<g id="edge41" class="edge">
<title>Node37&#45;&gt;Node36</title>
<path fill="none" stroke="midnightblue" d="M861.59,-296.4C873.05,-299.12 885.02,-302.34 896,-306 963.49,-328.49 1039.41,-366.02 1073.38,-383.5"/>
<polygon fill="midnightblue" stroke="midnightblue" points="862.21,-292.95 851.68,-294.13 860.65,-299.77 862.21,-292.95"/>
</g>
<!-- Node38&#45;&gt;Node36 -->
<g id="edge44" class="edge">
<title>Node38&#45;&gt;Node36</title>
<path fill="none" stroke="#9a32cd" stroke-dasharray="5,2" d="M487.25,-393.9C632.65,-393.69 981.2,-393.16 1070.42,-393.03"/>
<polygon fill="#9a32cd" stroke="#9a32cd" points="487.13,-390.4 477.14,-393.92 487.15,-397.4 487.13,-390.4"/>
<text text-anchor="middle" x="668" y="-396" font-family="Helvetica,sans-Serif" font-size="10.00"> resolution</text>
</g>
<!-- Node39 -->
<g id="node39" class="node">
<title>Node39</title>
<g id="a_node39"><a xlink:href="classdrain_1_1typeLimiter.html" target="_top" xlink:title=" ">
<polygon fill="white" stroke="black" points="1746.5,-237.5 1746.5,-256.5 1874.5,-256.5 1874.5,-237.5 1746.5,-237.5"/>
<text text-anchor="middle" x="1810.5" y="-244.5" font-family="Helvetica,sans-Serif" font-size="10.00">typeLimiter&lt; double &gt;</text>
</a>
</g>
</g>
<!-- Node39&#45;&gt;Node1 -->
<g id="edge47" class="edge">
<title>Node39&#45;&gt;Node1</title>
<path fill="none" stroke="#9a32cd" stroke-dasharray="5,2" d="M1862.18,-259.01C1872.71,-261.58 1883.73,-264.33 1894,-267 1925.64,-275.23 1961.55,-285.27 1986.92,-292.49"/>
<polygon fill="#9a32cd" stroke="#9a32cd" points="1862.81,-255.56 1852.27,-256.6 1861.16,-262.36 1862.81,-255.56"/>
<text text-anchor="middle" x="1925" y="-281" font-family="Helvetica,sans-Serif" font-size="10.00"> limit</text>
</g>
</g>
</svg>
        <g id="navigator" transform="translate(0 0)" fill="#404254">
                <rect fill="#f2f5e9" fill-opacity="0.5" stroke="#606060" stroke-width=".5" x="0" y="0" width="60" height="60"/>
                <use id="zoomplus" xlink:href="#zoomPlus" x="17" y="9" onmousedown="handleZoom(evt,'in')"/>
                <use id="zoomminus" xlink:href="#zoomMin" x="42" y="9" onmousedown="handleZoom(evt,'out')"/>
                <use id="reset" xlink:href="#resetDef" x="30" y="36" onmousedown="handleReset()"/>
                <g id="arrowUp" xlink:href="#dirArrow" transform="translate(30 24)" onmousedown="handlePan(0,-1)">
                  <use xlink:href="#rim" fill="#404040">
                        <set attributeName="fill" to="#808080" begin="arrowUp.mouseover" end="arrowUp.mouseout"/>
                  </use>
                  <path fill="none" stroke="white" stroke-width="1.5" d="M0,-3.0v7 M-2.5,-0.5L0,-3.0L2.5,-0.5"/>
                </g>
                <g id="arrowRight" xlink:href="#dirArrow" transform="rotate(90) translate(36 -43)" onmousedown="handlePan(1,0)">
                  <use xlink:href="#rim" fill="#404040">
                        <set attributeName="fill" to="#808080" begin="arrowRight.mouseover" end="arrowRight.mouseout"/>
                  </use>
                  <path fill="none" stroke="white" stroke-width="1.5" d="M0,-3.0v7 M-2.5,-0.5L0,-3.0L2.5,-0.5"/>
                </g>
                <g id="arrowDown" xlink:href="#dirArrow" transform="rotate(180) translate(-30 -48)" onmousedown="handlePan(0,1)">
                  <use xlink:href="#rim" fill="#404040">
                        <set attributeName="fill" to="#808080" begin="arrowDown.mouseover" end="arrowDown.mouseout"/>
                  </use>
                  <path fill="none" stroke="white" stroke-width="1.5" d="M0,-3.0v7 M-2.5,-0.5L0,-3.0L2.5,-0.5"/>
                </g>
                <g id="arrowLeft" xlink:href="#dirArrow" transform="rotate(270) translate(-36 17)" onmousedown="handlePan(-1,0)">
                  <use xlink:href="#rim" fill="#404040">
                        <set attributeName="fill" to="#808080" begin="arrowLeft.mouseover" end="arrowLeft.mouseout"/>
                  </use>
                  <path fill="none" stroke="white" stroke-width="1.5" d="M0,-3.0v7 M-2.5,-0.5L0,-3.0L2.5,-0.5"/>
                </g>
        </g>
        <svg viewBox="0 0 15 15" width="100%" height="30px" preserveAspectRatio="xMaxYMin meet">
         <g id="arrow_out" transform="scale(0.3 0.3)">
          <a xlink:href="classrack_1_1DopplerSegmentProber__coll__graph_org.svg" target="_base">
           <rect id="button" ry="5" rx="5" y="6" x="6" height="38" width="38"
                fill="#f2f5e9" fill-opacity="0.5" stroke="#606060" stroke-width="1.0"/>
           <path id="arrow"
             d="M 11.500037,31.436501 C 11.940474,20.09759 22.043105,11.32322 32.158766,21.979434 L 37.068811,17.246167 C 37.068811,17.246167 37.088388,32 37.088388,32 L 22.160133,31.978069 C 22.160133,31.978069 26.997745,27.140456 26.997745,27.140456 C 18.528582,18.264221 13.291696,25.230495 11.500037,31.436501 z"
             style="fill:#404040;"/>
          </a>
         </g>
        </svg>
</svg>
