<?xml version="1.0" encoding="UTF-8" standalone="no"?>
<!DOCTYPE svg PUBLIC "-//W3C//DTD SVG 1.1//EN"
 "http://www.w3.org/Graphics/SVG/1.1/DTD/svg11.dtd">
<!-- Generated by graphviz version 2.43.0 (0)
 -->
<!-- Title: CumulativeProductOp Pages: 1 -->
<svg width="246pt" height="263pt"
 viewBox="0.00 0.00 246.00 263.00" xmlns="http://www.w3.org/2000/svg" xmlns:xlink="http://www.w3.org/1999/xlink">
<g id="graph0" class="graph" transform="scale(1 1) rotate(0) translate(4 259)">
<title>CumulativeProductOp</title>
<polygon fill="white" stroke="transparent" points="-4,4 -4,-259 242,-259 242,4 -4,4"/>
<!-- Node1 -->
<g id="node1" class="node">
<title>Node1</title>
<g id="a_node1"><a xlink:title="Base class for flat (2D) products computed in the polar coordinate system.">
<polygon fill="#bfbfbf" stroke="black" points="49.5,-56.5 49.5,-75.5 172.5,-75.5 172.5,-56.5 49.5,-56.5"/>
<text text-anchor="middle" x="111" y="-63.5" font-family="Helvetica,sans-Serif" font-size="10.00">CumulativeProductOp</text>
</a>
</g>
</g>
<!-- Node5 -->
<g id="node5" class="node">
<title>Node5</title>
<g id="a_node5"><a xlink:href="classrack_1_1CappiOp.html" target="_top" xlink:title="Pseudo&#45;CAPPI: the constant altitude planar position indicator product.">
<polygon fill="white" stroke="black" points="0,-0.5 0,-19.5 58,-19.5 58,-0.5 0,-0.5"/>
<text text-anchor="middle" x="29" y="-7.5" font-family="Helvetica,sans-Serif" font-size="10.00">CappiOp</text>
</a>
</g>
</g>
<!-- Node1&#45;&gt;Node5 -->
<g id="edge4" class="edge">
<title>Node1&#45;&gt;Node5</title>
<path fill="none" stroke="midnightblue" d="M89.17,-50.62C74.19,-40.76 54.8,-27.99 42.14,-19.65"/>
<polygon fill="midnightblue" stroke="midnightblue" points="87.55,-53.75 97.83,-56.32 91.4,-47.9 87.55,-53.75"/>
</g>
<!-- Node6 -->
<g id="node6" class="node">
<title>Node6</title>
<g id="a_node6"><a xlink:href="classrack_1_1EchoTopOp.html" target="_top" xlink:title="Height of echo exceeding a reflectivity threshold.">
<polygon fill="white" stroke="black" points="76,-0.5 76,-19.5 146,-19.5 146,-0.5 76,-0.5"/>
<text text-anchor="middle" x="111" y="-7.5" font-family="Helvetica,sans-Serif" font-size="10.00">EchoTopOp</text>
</a>
</g>
</g>
<!-- Node1&#45;&gt;Node6 -->
<g id="edge5" class="edge">
<title>Node1&#45;&gt;Node6</title>
<path fill="none" stroke="midnightblue" d="M111,-45.8C111,-36.91 111,-26.78 111,-19.75"/>
<polygon fill="midnightblue" stroke="midnightblue" points="107.5,-46.08 111,-56.08 114.5,-46.08 107.5,-46.08"/>
</g>
<!-- Node7 -->
<g id="node7" class="node">
<title>Node7</title>
<g id="a_node7"><a xlink:href="classrack_1_1MaxEchoOp.html" target="_top" xlink:title="The maximum dBZ value in each a vertical column.">
<polygon fill="white" stroke="black" points="164,-0.5 164,-19.5 238,-19.5 238,-0.5 164,-0.5"/>
<text text-anchor="middle" x="201" y="-7.5" font-family="Helvetica,sans-Serif" font-size="10.00">MaxEchoOp</text>
</a>
</g>
</g>
<!-- Node1&#45;&gt;Node7 -->
<g id="edge6" class="edge">
<title>Node1&#45;&gt;Node7</title>
<path fill="none" stroke="midnightblue" d="M134.04,-51.18C150.6,-41.24 172.42,-28.15 186.58,-19.65"/>
<polygon fill="midnightblue" stroke="midnightblue" points="132.23,-48.18 125.46,-56.32 135.84,-54.18 132.23,-48.18"/>
</g>
<!-- Node2 -->
<g id="node2" class="node">
<title>Node2</title>
<g id="a_node2"><a xlink:href="classrack_1_1PolarProductOp.html" target="_top" xlink:title="Base class for flat (2D) products computed in the polar coordinate system. Volume is used as input.">
<polygon fill="white" stroke="black" points="65,-112.5 65,-131.5 157,-131.5 157,-112.5 65,-112.5"/>
<text text-anchor="middle" x="111" y="-119.5" font-family="Helvetica,sans-Serif" font-size="10.00">PolarProductOp</text>
</a>
</g>
</g>
<!-- Node2&#45;&gt;Node1 -->
<g id="edge1" class="edge">
<title>Node2&#45;&gt;Node1</title>
<path fill="none" stroke="midnightblue" d="M111,-101.8C111,-92.91 111,-82.78 111,-75.75"/>
<polygon fill="midnightblue" stroke="midnightblue" points="107.5,-102.08 111,-112.08 114.5,-102.08 107.5,-102.08"/>
</g>
<!-- Node3 -->
<g id="node3" class="node">
<title>Node3</title>
<g id="a_node3"><a xlink:href="classrack_1_1VolumeOp.html" target="_top" xlink:title=" ">
<polygon fill="white" stroke="black" points="40,-168.5 40,-187.5 182,-187.5 182,-168.5 40,-168.5"/>
<text text-anchor="middle" x="111" y="-175.5" font-family="Helvetica,sans-Serif" font-size="10.00">VolumeOp&lt; PolarODIM &gt;</text>
</a>
</g>
</g>
<!-- Node3&#45;&gt;Node2 -->
<g id="edge2" class="edge">
<title>Node3&#45;&gt;Node2</title>
<path fill="none" stroke="midnightblue" d="M111,-157.8C111,-148.91 111,-138.78 111,-131.75"/>
<polygon fill="midnightblue" stroke="midnightblue" points="107.5,-158.08 111,-168.08 114.5,-158.08 107.5,-158.08"/>
</g>
<!-- Node4 -->
<g id="node4" class="node">
<title>Node4</title>
<g id="a_node4"><a xlink:href="classdrain_1_1image_1_1ProductOp.html" target="_top" xlink:title=" ">
<polygon fill="white" stroke="black" points="30,-224.5 30,-254.5 192,-254.5 192,-224.5 30,-224.5"/>
<text text-anchor="start" x="38" y="-242.5" font-family="Helvetica,sans-Serif" font-size="10.00">ProductOp&lt; const PolarODIM,</text>
<text text-anchor="middle" x="111" y="-231.5" font-family="Helvetica,sans-Serif" font-size="10.00"> PolarODIM &gt;</text>
</a>
</g>
</g>
<!-- Node4&#45;&gt;Node3 -->
<g id="edge3" class="edge">
<title>Node4&#45;&gt;Node3</title>
<path fill="none" stroke="midnightblue" d="M111,-214.29C111,-204.86 111,-194.65 111,-187.66"/>
<polygon fill="midnightblue" stroke="midnightblue" points="107.5,-214.4 111,-224.4 114.5,-214.4 107.5,-214.4"/>
</g>
</g>
</svg>
