<?xml version="1.0" encoding="UTF-8" standalone="no"?>
<!DOCTYPE svg PUBLIC "-//W3C//DTD SVG 1.1//EN"
 "http://www.w3.org/Graphics/SVG/1.1/DTD/svg11.dtd">
<!-- Generated by graphviz version 2.43.0 (0)
 -->
<!-- Title: SlidingOpticalFlowWeighted Pages: 1 -->
<svg width="1419pt" height="1008pt"
 viewBox="0.00 0.00 1418.50 1008.00" xmlns="http://www.w3.org/2000/svg" xmlns:xlink="http://www.w3.org/1999/xlink">
<g id="graph0" class="graph" transform="scale(1 1) rotate(0) translate(4 1004)">
<title>SlidingOpticalFlowWeighted</title>
<polygon fill="white" stroke="transparent" points="-4,4 -4,-1004 1414.5,-1004 1414.5,4 -4,4"/>
<!-- Node1 -->
<g id="node1" class="node">
<title>Node1</title>
<g id="a_node1"><a xlink:title=" ">
<polygon fill="#bfbfbf" stroke="black" points="175,-0.5 175,-19.5 329,-19.5 329,-0.5 175,-0.5"/>
<text text-anchor="middle" x="252" y="-7.5" font-family="Helvetica,sans-Serif" font-size="10.00">SlidingOpticalFlowWeighted</text>
</a>
</g>
</g>
<!-- Node2 -->
<g id="node2" class="node">
<title>Node2</title>
<g id="a_node2"><a xlink:href="classdrain_1_1image_1_1SlidingOpticalFlow.html" target="_top" xlink:title=" ">
<polygon fill="white" stroke="black" points="189.5,-57.5 189.5,-87.5 314.5,-87.5 314.5,-57.5 189.5,-57.5"/>
<text text-anchor="start" x="197.5" y="-75.5" font-family="Helvetica,sans-Serif" font-size="10.00">SlidingOpticalFlow</text>
<text text-anchor="middle" x="252" y="-64.5" font-family="Helvetica,sans-Serif" font-size="10.00">&lt; OpticalFlowCore1 &gt;</text>
</a>
</g>
</g>
<!-- Node2&#45;&gt;Node1 -->
<g id="edge1" class="edge">
<title>Node2&#45;&gt;Node1</title>
<path fill="none" stroke="midnightblue" d="M252,-47.35C252,-37.51 252,-26.78 252,-19.54"/>
<polygon fill="midnightblue" stroke="midnightblue" points="248.5,-47.47 252,-57.47 255.5,-47.47 248.5,-47.47"/>
</g>
<!-- Node3 -->
<g id="node3" class="node">
<title>Node3</title>
<g id="a_node3"><a xlink:href="classdrain_1_1image_1_1SlidingWindow.html" target="_top" xlink:title=" ">
<polygon fill="white" stroke="black" points="173,-126.5 173,-156.5 331,-156.5 331,-126.5 173,-126.5"/>
<text text-anchor="start" x="181" y="-144.5" font-family="Helvetica,sans-Serif" font-size="10.00">SlidingWindow&lt; OpticalFlow</text>
<text text-anchor="middle" x="252" y="-133.5" font-family="Helvetica,sans-Serif" font-size="10.00">Config, OpticalFlowCore1 &gt;</text>
</a>
</g>
</g>
<!-- Node3&#45;&gt;Node2 -->
<g id="edge2" class="edge">
<title>Node3&#45;&gt;Node2</title>
<path fill="none" stroke="midnightblue" d="M252,-116.14C252,-106.58 252,-95.95 252,-87.69"/>
<polygon fill="midnightblue" stroke="midnightblue" points="248.5,-116.29 252,-126.29 255.5,-116.29 248.5,-116.29"/>
</g>
<!-- Node3&#45;&gt;Node3 -->
<g id="edge58" class="edge">
<title>Node3&#45;&gt;Node3</title>
<path fill="none" stroke="#9a32cd" stroke-dasharray="5,2" d="M341.16,-145.77C346.07,-144.73 349,-143.31 349,-141.5 349,-138.68 341.87,-136.79 331.16,-135.84"/>
<polygon fill="#9a32cd" stroke="#9a32cd" points="340.59,-142.32 331.16,-147.16 341.55,-149.25 340.59,-142.32"/>
<text text-anchor="middle" x="377.5" y="-150" font-family="Helvetica,sans-Serif" font-size="10.00"> fill</text>
<text text-anchor="middle" x="377.5" y="-139" font-family="Helvetica,sans-Serif" font-size="10.00">updateVert</text>
<text text-anchor="middle" x="377.5" y="-128" font-family="Helvetica,sans-Serif" font-size="10.00">updateHorz</text>
</g>
<!-- Node4 -->
<g id="node4" class="node">
<title>Node4</title>
<g id="a_node4"><a xlink:href="classdrain_1_1image_1_1Window.html" target="_top" xlink:title=" ">
<polygon fill="white" stroke="black" points="305.5,-196.5 305.5,-226.5 464.5,-226.5 464.5,-196.5 305.5,-196.5"/>
<text text-anchor="start" x="313.5" y="-214.5" font-family="Helvetica,sans-Serif" font-size="10.00">Window&lt; OpticalFlowConfig,</text>
<text text-anchor="middle" x="385" y="-203.5" font-family="Helvetica,sans-Serif" font-size="10.00"> OpticalFlowCore1 &gt;</text>
</a>
</g>
</g>
<!-- Node4&#45;&gt;Node3 -->
<g id="edge3" class="edge">
<title>Node4&#45;&gt;Node3</title>
<path fill="none" stroke="midnightblue" d="M348.48,-191.83C326.69,-180.69 299.49,-166.78 279.52,-156.57"/>
<polygon fill="midnightblue" stroke="midnightblue" points="346.95,-194.97 357.44,-196.41 350.13,-188.74 346.95,-194.97"/>
</g>
<!-- Node5 -->
<g id="node5" class="node">
<title>Node5</title>
<g id="a_node5"><a xlink:href="classdrain_1_1image_1_1OpticalFlowCore1.html" target="_top" xlink:title=" ">
<polygon fill="white" stroke="black" points="821.5,-275.5 821.5,-294.5 924.5,-294.5 924.5,-275.5 821.5,-275.5"/>
<text text-anchor="middle" x="873" y="-282.5" font-family="Helvetica,sans-Serif" font-size="10.00">OpticalFlowCore1</text>
</a>
</g>
</g>
<!-- Node5&#45;&gt;Node4 -->
<g id="edge4" class="edge">
<title>Node5&#45;&gt;Node4</title>
<path fill="none" stroke="midnightblue" d="M818.09,-273.66C774.08,-265.56 710.7,-254.3 655,-246 591.11,-236.47 518.44,-227.57 464.59,-221.33"/>
<polygon fill="midnightblue" stroke="midnightblue" points="817.54,-277.12 828.01,-275.49 818.82,-270.23 817.54,-277.12"/>
</g>
<!-- Node6 -->
<g id="node6" class="node">
<title>Node6</title>
<g id="a_node6"><a xlink:href="classdrain_1_1image_1_1OpticalFlowCore.html" target="_top" xlink:title=" ">
<polygon fill="white" stroke="black" points="797.5,-360 797.5,-379 894.5,-379 894.5,-360 797.5,-360"/>
<text text-anchor="middle" x="846" y="-367" font-family="Helvetica,sans-Serif" font-size="10.00">OpticalFlowCore</text>
</a>
</g>
</g>
<!-- Node6&#45;&gt;Node5 -->
<g id="edge5" class="edge">
<title>Node6&#45;&gt;Node5</title>
<path fill="none" stroke="midnightblue" d="M851.92,-350.43C857.58,-333.11 865.89,-307.74 870.19,-294.6"/>
<polygon fill="midnightblue" stroke="midnightblue" points="848.57,-349.39 848.79,-359.98 855.22,-351.57 848.57,-349.39"/>
</g>
<!-- Node7 -->
<g id="node7" class="node">
<title>Node7</title>
<g id="a_node7"><a xlink:href="classdrain_1_1image_1_1WindowCoreBase.html" target="_top" xlink:title="Provides splitting frames.">
<polygon fill="white" stroke="black" points="775,-472 775,-491 877,-491 877,-472 775,-472"/>
<text text-anchor="middle" x="826" y="-479" font-family="Helvetica,sans-Serif" font-size="10.00">WindowCoreBase</text>
</a>
</g>
</g>
<!-- Node7&#45;&gt;Node6 -->
<g id="edge6" class="edge">
<title>Node7&#45;&gt;Node6</title>
<path fill="none" stroke="midnightblue" d="M829.39,-461.85C833.77,-437.75 841.22,-396.81 844.44,-379.09"/>
<polygon fill="midnightblue" stroke="midnightblue" points="825.91,-461.4 827.57,-471.87 832.8,-462.66 825.91,-461.4"/>
</g>
<!-- Node8 -->
<g id="node8" class="node">
<title>Node8</title>
<g id="a_node8"><a xlink:href="classdrain_1_1image_1_1ImageView.html" target="_top" xlink:title="ImageFrame that also has channels.">
<polygon fill="white" stroke="black" points="895.5,-472 895.5,-491 966.5,-491 966.5,-472 895.5,-472"/>
<text text-anchor="middle" x="931" y="-479" font-family="Helvetica,sans-Serif" font-size="10.00">ImageView</text>
</a>
</g>
</g>
<!-- Node8&#45;&gt;Node5 -->
<g id="edge33" class="edge">
<title>Node8&#45;&gt;Node5</title>
<path fill="none" stroke="#9a32cd" stroke-dasharray="5,2" d="M928.65,-461.94C925.1,-436.74 917.34,-390.53 904,-353 896.36,-331.5 884.36,-307.51 877.75,-294.88"/>
<polygon fill="#9a32cd" stroke="#9a32cd" points="925.19,-462.49 929.99,-471.93 932.13,-461.56 925.19,-462.49"/>
<text text-anchor="middle" x="921.5" y="-378" font-family="Helvetica,sans-Serif" font-size="10.00"> Dx</text>
<text text-anchor="middle" x="921.5" y="-367" font-family="Helvetica,sans-Serif" font-size="10.00">Dy</text>
<text text-anchor="middle" x="921.5" y="-356" font-family="Helvetica,sans-Serif" font-size="10.00">Dt</text>
</g>
<!-- Node8&#45;&gt;Node6 -->
<g id="edge7" class="edge">
<title>Node8&#45;&gt;Node6</title>
<path fill="none" stroke="#9a32cd" stroke-dasharray="5,2" d="M891.32,-467.81C881.5,-462.98 871.85,-456.53 865,-448 848.51,-427.48 846.03,-394.73 845.85,-379.21"/>
<polygon fill="#9a32cd" stroke="#9a32cd" points="890.13,-471.11 900.69,-471.94 892.95,-464.7 890.13,-471.11"/>
<text text-anchor="middle" x="891" y="-440" font-family="Helvetica,sans-Serif" font-size="10.00"> srcWeight</text>
<text text-anchor="middle" x="891" y="-429" font-family="Helvetica,sans-Serif" font-size="10.00">dstWeight</text>
<text text-anchor="middle" x="891" y="-418" font-family="Helvetica,sans-Serif" font-size="10.00">vField</text>
<text text-anchor="middle" x="891" y="-407" font-family="Helvetica,sans-Serif" font-size="10.00">uField</text>
</g>
<!-- Node9 -->
<g id="node9" class="node">
<title>Node9</title>
<g id="a_node9"><a xlink:href="classdrain_1_1image_1_1MultiChannel.html" target="_top" xlink:title="Multi&#45;channel ImageFrame.">
<polygon fill="white" stroke="black" points="870.5,-544.5 870.5,-563.5 951.5,-563.5 951.5,-544.5 870.5,-544.5"/>
<text text-anchor="middle" x="911" y="-551.5" font-family="Helvetica,sans-Serif" font-size="10.00">MultiChannel</text>
</a>
</g>
</g>
<!-- Node9&#45;&gt;Node8 -->
<g id="edge8" class="edge">
<title>Node9&#45;&gt;Node8</title>
<path fill="none" stroke="midnightblue" d="M916.29,-534.36C920.25,-520.4 925.49,-501.93 928.53,-491.22"/>
<polygon fill="midnightblue" stroke="midnightblue" points="912.81,-533.78 913.45,-544.36 919.55,-535.69 912.81,-533.78"/>
</g>
<!-- Node10 -->
<g id="node10" class="node">
<title>Node10</title>
<g id="a_node10"><a xlink:href="classdrain_1_1image_1_1ImageFrame.html" target="_top" xlink:title="Image with static geometry.">
<polygon fill="white" stroke="black" points="840,-601.5 840,-620.5 918,-620.5 918,-601.5 840,-601.5"/>
<text text-anchor="middle" x="879" y="-608.5" font-family="Helvetica,sans-Serif" font-size="10.00">ImageFrame</text>
</a>
</g>
</g>
<!-- Node10&#45;&gt;Node9 -->
<g id="edge9" class="edge">
<title>Node10&#45;&gt;Node9</title>
<path fill="none" stroke="midnightblue" d="M889.1,-592.64C894.7,-583.01 901.42,-571.46 905.93,-563.71"/>
<polygon fill="midnightblue" stroke="midnightblue" points="886,-591 884,-601.41 892.05,-594.52 886,-591"/>
</g>
<!-- Node11 -->
<g id="node11" class="node">
<title>Node11</title>
<g id="a_node11"><a xlink:href="classdrain_1_1image_1_1ImageLike.html" target="_top" xlink:title="A base class for images.">
<polygon fill="white" stroke="black" points="956.5,-680.5 956.5,-699.5 1023.5,-699.5 1023.5,-680.5 956.5,-680.5"/>
<text text-anchor="middle" x="990" y="-687.5" font-family="Helvetica,sans-Serif" font-size="10.00">ImageLike</text>
</a>
</g>
</g>
<!-- Node11&#45;&gt;Node10 -->
<g id="edge10" class="edge">
<title>Node11&#45;&gt;Node10</title>
<path fill="none" stroke="midnightblue" d="M969.35,-674.67C946.44,-658.78 910.23,-633.66 891.36,-620.57"/>
<polygon fill="midnightblue" stroke="midnightblue" points="967.49,-677.64 977.7,-680.47 971.48,-671.89 967.49,-677.64"/>
</g>
<!-- Node12 -->
<g id="node12" class="node">
<title>Node12</title>
<g id="a_node12"><a xlink:href="classdrain_1_1image_1_1ImageConf.html" target="_top" xlink:title="Struct for image (excluding data)">
<polygon fill="white" stroke="black" points="950,-757.5 950,-776.5 1020,-776.5 1020,-757.5 950,-757.5"/>
<text text-anchor="middle" x="985" y="-764.5" font-family="Helvetica,sans-Serif" font-size="10.00">ImageConf</text>
</a>
</g>
</g>
<!-- Node12&#45;&gt;Node11 -->
<g id="edge11" class="edge">
<title>Node12&#45;&gt;Node11</title>
<path fill="none" stroke="#9a32cd" stroke-dasharray="5,2" d="M986.27,-747.02C987.28,-731.74 988.67,-710.98 989.43,-699.5"/>
<polygon fill="#9a32cd" stroke="#9a32cd" points="982.75,-747.19 985.57,-757.4 989.73,-747.65 982.75,-747.19"/>
<text text-anchor="middle" x="1000.5" y="-726.5" font-family="Helvetica,sans-Serif" font-size="10.00"> conf</text>
</g>
<!-- Node13 -->
<g id="node13" class="node">
<title>Node13</title>
<g id="a_node13"><a xlink:href="classdrain_1_1image_1_1Encoding.html" target="_top" xlink:title=" ">
<polygon fill="white" stroke="black" points="952.5,-824.5 952.5,-843.5 1013.5,-843.5 1013.5,-824.5 952.5,-824.5"/>
<text text-anchor="middle" x="983" y="-831.5" font-family="Helvetica,sans-Serif" font-size="10.00">Encoding</text>
</a>
</g>
</g>
<!-- Node13&#45;&gt;Node12 -->
<g id="edge12" class="edge">
<title>Node13&#45;&gt;Node12</title>
<path fill="none" stroke="midnightblue" d="M983.58,-814.04C983.96,-801.67 984.44,-786.12 984.73,-776.63"/>
<polygon fill="midnightblue" stroke="midnightblue" points="980.08,-814.13 983.27,-824.23 987.08,-814.35 980.08,-814.13"/>
</g>
<!-- Node14 -->
<g id="node14" class="node">
<title>Node14</title>
<g id="a_node14"><a xlink:href="classdrain_1_1ValueScaling.html" target="_top" xlink:title="Linear scaling and physical range for image intensities.">
<polygon fill="white" stroke="black" points="937,-897 937,-916 1017,-916 1017,-897 937,-897"/>
<text text-anchor="middle" x="977" y="-904" font-family="Helvetica,sans-Serif" font-size="10.00">ValueScaling</text>
</a>
</g>
</g>
<!-- Node14&#45;&gt;Node13 -->
<g id="edge13" class="edge">
<title>Node14&#45;&gt;Node13</title>
<path fill="none" stroke="midnightblue" d="M978.59,-886.86C979.77,-872.9 981.35,-854.43 982.26,-843.72"/>
<polygon fill="midnightblue" stroke="midnightblue" points="975.1,-886.59 977.74,-896.86 982.07,-887.19 975.1,-886.59"/>
</g>
<!-- Node15 -->
<g id="node15" class="node">
<title>Node15</title>
<g id="a_node15"><a xlink:href="classdrain_1_1UniTuple.html" target="_top" xlink:title=" ">
<polygon fill="white" stroke="black" points="974,-975 974,-994 1100,-994 1100,-975 974,-975"/>
<text text-anchor="middle" x="1037" y="-982" font-family="Helvetica,sans-Serif" font-size="10.00">UniTuple&lt; double, 4 &gt;</text>
</a>
</g>
</g>
<!-- Node15&#45;&gt;Node14 -->
<g id="edge14" class="edge">
<title>Node15&#45;&gt;Node14</title>
<path fill="none" stroke="midnightblue" d="M1023.58,-966.51C1011.24,-950.87 993.43,-928.31 983.8,-916.12"/>
<polygon fill="midnightblue" stroke="midnightblue" points="1021.17,-969.1 1030.12,-974.78 1026.67,-964.76 1021.17,-969.1"/>
</g>
<!-- Node16 -->
<g id="node16" class="node">
<title>Node16</title>
<g id="a_node16"><a xlink:href="classdrain_1_1Range.html" target="_top" xlink:title=" ">
<polygon fill="white" stroke="red" points="852.5,-975 852.5,-994 955.5,-994 955.5,-975 852.5,-975"/>
<text text-anchor="middle" x="904" y="-982" font-family="Helvetica,sans-Serif" font-size="10.00">Range&lt; double &gt;</text>
</a>
</g>
</g>
<!-- Node16&#45;&gt;Node14 -->
<g id="edge15" class="edge">
<title>Node16&#45;&gt;Node14</title>
<path fill="none" stroke="#9a32cd" stroke-dasharray="5,2" d="M917.18,-966.99C924.03,-958.67 932.7,-948.55 941,-940 949.21,-931.54 959.21,-922.62 966.58,-916.26"/>
<polygon fill="#9a32cd" stroke="#9a32cd" points="914.36,-964.9 910.78,-974.87 919.8,-969.31 914.36,-964.9"/>
<text text-anchor="middle" x="970" y="-943" font-family="Helvetica,sans-Serif" font-size="10.00"> physRange</text>
</g>
<!-- Node18 -->
<g id="node17" class="node">
<title>Node18</title>
<g id="a_node17"><a xlink:href="classdrain_1_1Caster.html" target="_top" xlink:title=" ">
<polygon fill="white" stroke="black" points="859,-897 859,-916 907,-916 907,-897 859,-897"/>
<text text-anchor="middle" x="883" y="-904" font-family="Helvetica,sans-Serif" font-size="10.00">Caster</text>
</a>
</g>
</g>
<!-- Node18&#45;&gt;Node13 -->
<g id="edge16" class="edge">
<title>Node18&#45;&gt;Node13</title>
<path fill="none" stroke="#9a32cd" stroke-dasharray="5,2" d="M902.12,-890.61C913.31,-882.04 927.79,-871.18 941,-862 950.25,-855.57 960.94,-848.71 969.22,-843.51"/>
<polygon fill="#9a32cd" stroke="#9a32cd" points="899.73,-888.04 893.94,-896.92 904,-893.58 899.73,-888.04"/>
<text text-anchor="middle" x="958" y="-865" font-family="Helvetica,sans-Serif" font-size="10.00"> caster</text>
</g>
<!-- Node29 -->
<g id="node28" class="node">
<title>Node29</title>
<g id="a_node28"><a xlink:href="classdrain_1_1Castable.html" target="_top" xlink:title=" ">
<polygon fill="white" stroke="black" points="847.5,-824.5 847.5,-843.5 906.5,-843.5 906.5,-824.5 847.5,-824.5"/>
<text text-anchor="middle" x="877" y="-831.5" font-family="Helvetica,sans-Serif" font-size="10.00">Castable</text>
</a>
</g>
</g>
<!-- Node18&#45;&gt;Node29 -->
<g id="edge29" class="edge">
<title>Node18&#45;&gt;Node29</title>
<path fill="none" stroke="#9a32cd" stroke-dasharray="5,2" d="M879.71,-886.77C879.03,-882.28 878.4,-877.48 878,-873 877.1,-863.01 876.92,-851.49 876.92,-843.77"/>
<polygon fill="#9a32cd" stroke="#9a32cd" points="876.31,-887.68 881.39,-896.98 883.22,-886.55 876.31,-887.68"/>
<text text-anchor="middle" x="895" y="-865" font-family="Helvetica,sans-Serif" font-size="10.00"> caster</text>
</g>
<!-- Node19 -->
<g id="node18" class="node">
<title>Node19</title>
<g id="a_node18"><a xlink:href="classdrain_1_1image_1_1Geometry.html" target="_top" xlink:title=" ">
<polygon fill="white" stroke="black" points="1153.5,-824.5 1153.5,-843.5 1218.5,-843.5 1218.5,-824.5 1153.5,-824.5"/>
<text text-anchor="middle" x="1186" y="-831.5" font-family="Helvetica,sans-Serif" font-size="10.00">Geometry</text>
</a>
</g>
</g>
<!-- Node19&#45;&gt;Node12 -->
<g id="edge17" class="edge">
<title>Node19&#45;&gt;Node12</title>
<path fill="none" stroke="midnightblue" d="M1149.71,-821.27C1109.89,-808.39 1046.91,-788.02 1011.48,-776.56"/>
<polygon fill="midnightblue" stroke="midnightblue" points="1148.72,-824.62 1159.31,-824.37 1150.87,-817.96 1148.72,-824.62"/>
</g>
<!-- Node20 -->
<g id="node19" class="node">
<title>Node20</title>
<g id="a_node19"><a xlink:href="classdrain_1_1UniTuple.html" target="_top" xlink:title=" ">
<polygon fill="white" stroke="black" points="1165,-897 1165,-916 1287,-916 1287,-897 1165,-897"/>
<text text-anchor="middle" x="1226" y="-904" font-family="Helvetica,sans-Serif" font-size="10.00">UniTuple&lt; size_t, 4 &gt;</text>
</a>
</g>
</g>
<!-- Node20&#45;&gt;Node19 -->
<g id="edge18" class="edge">
<title>Node20&#45;&gt;Node19</title>
<path fill="none" stroke="midnightblue" d="M1216.12,-888.09C1208.13,-874 1197.2,-854.74 1190.94,-843.72"/>
<polygon fill="midnightblue" stroke="midnightblue" points="1213.12,-889.88 1221.1,-896.86 1219.2,-886.43 1213.12,-889.88"/>
</g>
<!-- Node21 -->
<g id="node20" class="node">
<title>Node21</title>
<g id="a_node20"><a xlink:href="classdrain_1_1Frame2D.html" target="_top" xlink:title=" ">
<polygon fill="white" stroke="black" points="1035,-897 1035,-916 1147,-916 1147,-897 1035,-897"/>
<text text-anchor="middle" x="1091" y="-904" font-family="Helvetica,sans-Serif" font-size="10.00">Frame2D&lt; size_t &gt;</text>
</a>
</g>
</g>
<!-- Node21&#45;&gt;Node19 -->
<g id="edge19" class="edge">
<title>Node21&#45;&gt;Node19</title>
<path fill="none" stroke="#9a32cd" stroke-dasharray="5,2" d="M1110.73,-890.86C1129.9,-876.63 1158.39,-855.49 1174.26,-843.72"/>
<polygon fill="#9a32cd" stroke="#9a32cd" points="1108.59,-888.09 1102.65,-896.86 1112.76,-893.71 1108.59,-888.09"/>
<text text-anchor="middle" x="1159.5" y="-865" font-family="Helvetica,sans-Serif" font-size="10.00"> area</text>
</g>
<!-- Node22 -->
<g id="node21" class="node">
<title>Node22</title>
<g id="a_node21"><a xlink:href="classdrain_1_1UniTuple.html" target="_top" xlink:title=" ">
<polygon fill="white" stroke="black" points="1237,-975 1237,-994 1359,-994 1359,-975 1237,-975"/>
<text text-anchor="middle" x="1298" y="-982" font-family="Helvetica,sans-Serif" font-size="10.00">UniTuple&lt; size_t, 2 &gt;</text>
</a>
</g>
</g>
<!-- Node22&#45;&gt;Node21 -->
<g id="edge20" class="edge">
<title>Node22&#45;&gt;Node21</title>
<path fill="none" stroke="midnightblue" d="M1265.14,-971.44C1223.04,-955.98 1151.11,-929.57 1114.26,-916.04"/>
<polygon fill="midnightblue" stroke="midnightblue" points="1264.06,-974.77 1274.66,-974.93 1266.48,-968.2 1264.06,-974.77"/>
</g>
<!-- Node23 -->
<g id="node22" class="node">
<title>Node23</title>
<g id="a_node22"><a xlink:href="classdrain_1_1image_1_1ChannelGeometry.html" target="_top" xlink:title=" ">
<polygon fill="white" stroke="black" points="1305.5,-897 1305.5,-916 1410.5,-916 1410.5,-897 1305.5,-897"/>
<text text-anchor="middle" x="1358" y="-904" font-family="Helvetica,sans-Serif" font-size="10.00">ChannelGeometry</text>
</a>
</g>
</g>
<!-- Node22&#45;&gt;Node23 -->
<g id="edge22" class="edge">
<title>Node22&#45;&gt;Node23</title>
<path fill="none" stroke="midnightblue" d="M1311.42,-966.51C1323.76,-950.87 1341.57,-928.31 1351.2,-916.12"/>
<polygon fill="midnightblue" stroke="midnightblue" points="1308.33,-964.76 1304.88,-974.78 1313.83,-969.1 1308.33,-964.76"/>
</g>
<!-- Node23&#45;&gt;Node19 -->
<g id="edge21" class="edge">
<title>Node23&#45;&gt;Node19</title>
<path fill="none" stroke="#9a32cd" stroke-dasharray="5,2" d="M1327.63,-893.05C1292.9,-878.82 1236.95,-855.88 1206.82,-843.53"/>
<polygon fill="#9a32cd" stroke="#9a32cd" points="1326.67,-896.44 1337.25,-897 1329.33,-889.96 1326.67,-896.44"/>
<text text-anchor="middle" x="1300.5" y="-865" font-family="Helvetica,sans-Serif" font-size="10.00"> channels</text>
</g>
<!-- Node24 -->
<g id="node23" class="node">
<title>Node24</title>
<g id="a_node23"><a xlink:href="classdrain_1_1image_1_1CoordinatePolicy.html" target="_top" xlink:title="Policies for coordinate underflows and overflows.">
<polygon fill="white" stroke="black" points="466.5,-824.5 466.5,-843.5 565.5,-843.5 565.5,-824.5 466.5,-824.5"/>
<text text-anchor="middle" x="516" y="-831.5" font-family="Helvetica,sans-Serif" font-size="10.00">CoordinatePolicy</text>
</a>
</g>
</g>
<!-- Node24&#45;&gt;Node12 -->
<g id="edge23" class="edge">
<title>Node24&#45;&gt;Node12</title>
<path fill="none" stroke="#9a32cd" stroke-dasharray="5,2" d="M575.9,-824.7C675.07,-810.95 870.29,-783.9 949.93,-772.86"/>
<polygon fill="#9a32cd" stroke="#9a32cd" points="575.17,-821.27 565.75,-826.11 576.13,-828.2 575.17,-821.27"/>
<text text-anchor="middle" x="820.5" y="-798" font-family="Helvetica,sans-Serif" font-size="10.00"> coordinatePolicy</text>
</g>
<!-- Node51 -->
<g id="node50" class="node">
<title>Node51</title>
<g id="a_node50"><a xlink:href="classdrain_1_1image_1_1CoordinateHandler2D.html" target="_top" xlink:title=" ">
<polygon fill="white" stroke="black" points="385,-360 385,-379 507,-379 507,-360 385,-360"/>
<text text-anchor="middle" x="446" y="-367" font-family="Helvetica,sans-Serif" font-size="10.00">CoordinateHandler2D</text>
</a>
</g>
</g>
<!-- Node24&#45;&gt;Node51 -->
<g id="edge57" class="edge">
<title>Node24&#45;&gt;Node51</title>
<path fill="none" stroke="#9a32cd" stroke-dasharray="5,2" d="M486.29,-819.58C467.22,-808.71 446,-791.37 446,-768 446,-768 446,-768 446,-480.5 446,-442.69 446,-397.56 446,-379.06"/>
<polygon fill="#9a32cd" stroke="#9a32cd" points="484.9,-822.8 495.38,-824.39 488.18,-816.62 484.9,-822.8"/>
<text text-anchor="middle" x="462.5" y="-608.5" font-family="Helvetica,sans-Serif" font-size="10.00"> policy</text>
</g>
<!-- Node25 -->
<g id="node24" class="node">
<title>Node25</title>
<g id="a_node24"><a xlink:href="classdrain_1_1UniTuple.html" target="_top" xlink:title=" ">
<polygon fill="white" stroke="black" points="500.5,-891.5 500.5,-921.5 617.5,-921.5 617.5,-891.5 500.5,-891.5"/>
<text text-anchor="start" x="508.5" y="-909.5" font-family="Helvetica,sans-Serif" font-size="10.00">UniTuple&lt; coord_pol</text>
<text text-anchor="middle" x="559" y="-898.5" font-family="Helvetica,sans-Serif" font-size="10.00">_t, 4 &gt;</text>
</a>
</g>
</g>
<!-- Node25&#45;&gt;Node24 -->
<g id="edge24" class="edge">
<title>Node25&#45;&gt;Node24</title>
<path fill="none" stroke="midnightblue" d="M545.05,-882.63C537,-869.42 527.33,-853.57 521.42,-843.89"/>
<polygon fill="midnightblue" stroke="midnightblue" points="542.1,-884.52 550.3,-891.23 548.08,-880.87 542.1,-884.52"/>
</g>
<!-- Node26 -->
<g id="node25" class="node">
<title>Node26</title>
<g id="a_node25"><a xlink:href="classdrain_1_1Dictionary2.html" target="_top" xlink:title="Two&#45;way mapping between strings and objects of template class T.">
<polygon fill="white" stroke="black" points="367.5,-897 367.5,-916 482.5,-916 482.5,-897 367.5,-897"/>
<text text-anchor="middle" x="425" y="-904" font-family="Helvetica,sans-Serif" font-size="10.00">Dictionary2&lt; K, V &gt;</text>
</a>
</g>
</g>
<!-- Node26&#45;&gt;Node24 -->
<g id="edge25" class="edge">
<title>Node26&#45;&gt;Node24</title>
<path fill="none" stroke="#9a32cd" stroke-dasharray="5,2" d="M444.39,-890.47C462.76,-876.25 489.69,-855.38 504.75,-843.72"/>
<polygon fill="#9a32cd" stroke="#9a32cd" points="441.92,-887.96 436.16,-896.86 446.21,-893.5 441.92,-887.96"/>
<text text-anchor="middle" x="490" y="-865" font-family="Helvetica,sans-Serif" font-size="10.00"> dict</text>
</g>
<!-- Node27 -->
<g id="node26" class="node">
<title>Node27</title>
<g id="a_node26"><a xlink:title=" ">
<polygon fill="white" stroke="#bfbfbf" points="373,-969.5 373,-999.5 477,-999.5 477,-969.5 373,-969.5"/>
<text text-anchor="start" x="381" y="-987.5" font-family="Helvetica,sans-Serif" font-size="10.00">list&lt; std::pair&lt; K,</text>
<text text-anchor="middle" x="425" y="-976.5" font-family="Helvetica,sans-Serif" font-size="10.00"> V &gt; &gt;</text>
</a>
</g>
</g>
<!-- Node27&#45;&gt;Node26 -->
<g id="edge26" class="edge">
<title>Node27&#45;&gt;Node26</title>
<path fill="none" stroke="midnightblue" d="M425,-959.17C425,-944.4 425,-926.45 425,-916.06"/>
<polygon fill="midnightblue" stroke="midnightblue" points="421.5,-959.2 425,-969.2 428.5,-959.21 421.5,-959.2"/>
</g>
<!-- Node28 -->
<g id="node27" class="node">
<title>Node28</title>
<g id="a_node27"><a xlink:href="classdrain_1_1CastableIterator.html" target="_top" xlink:title=" ">
<polygon fill="white" stroke="black" points="820.5,-719.5 820.5,-738.5 915.5,-738.5 915.5,-719.5 820.5,-719.5"/>
<text text-anchor="middle" x="868" y="-726.5" font-family="Helvetica,sans-Serif" font-size="10.00">CastableIterator</text>
</a>
</g>
</g>
<!-- Node28&#45;&gt;Node10 -->
<g id="edge27" class="edge">
<title>Node28&#45;&gt;Node10</title>
<path fill="none" stroke="#9a32cd" stroke-dasharray="5,2" d="M869.8,-709.02C872.22,-683.46 876.44,-639.04 878.19,-620.5"/>
<polygon fill="#9a32cd" stroke="#9a32cd" points="866.29,-709 868.83,-719.28 873.26,-709.66 866.29,-709"/>
<text text-anchor="middle" x="907.5" y="-693" font-family="Helvetica,sans-Serif" font-size="10.00"> segmentEnd</text>
<text text-anchor="middle" x="907.5" y="-682" font-family="Helvetica,sans-Serif" font-size="10.00">segmentBegin</text>
</g>
<!-- Node29&#45;&gt;Node28 -->
<g id="edge28" class="edge">
<title>Node29&#45;&gt;Node28</title>
<path fill="none" stroke="darkgreen" d="M875.36,-814.25C873.41,-791.87 870.22,-755.39 868.77,-738.76"/>
<polygon fill="darkgreen" stroke="darkgreen" points="871.88,-814.56 876.23,-824.22 878.85,-813.95 871.88,-814.56"/>
</g>
<!-- Node30 -->
<g id="node29" class="node">
<title>Node30</title>
<g id="a_node29"><a xlink:href="classdrain_1_1FlexVariableMap.html" target="_top" xlink:title="A map of FlexVariable:s.">
<polygon fill="white" stroke="black" points="722.5,-680.5 722.5,-699.5 821.5,-699.5 821.5,-680.5 722.5,-680.5"/>
<text text-anchor="middle" x="772" y="-687.5" font-family="Helvetica,sans-Serif" font-size="10.00">FlexVariableMap</text>
</a>
</g>
</g>
<!-- Node30&#45;&gt;Node10 -->
<g id="edge30" class="edge">
<title>Node30&#45;&gt;Node10</title>
<path fill="none" stroke="#9a32cd" stroke-dasharray="5,2" d="M772.92,-670.09C774.39,-659.66 777.89,-647.18 786,-639 800.08,-624.79 821.16,-617.95 839.7,-614.71"/>
<polygon fill="#9a32cd" stroke="#9a32cd" points="769.41,-670.05 771.99,-680.33 776.38,-670.68 769.41,-670.05"/>
<text text-anchor="middle" x="819.5" y="-653" font-family="Helvetica,sans-Serif" font-size="10.00"> propertiesPtr</text>
<text text-anchor="middle" x="819.5" y="-642" font-family="Helvetica,sans-Serif" font-size="10.00">properties</text>
</g>
<!-- Node31 -->
<g id="node30" class="node">
<title>Node31</title>
<g id="a_node30"><a xlink:href="classdrain_1_1SmartMap.html" target="_top" xlink:title=" ">
<polygon fill="white" stroke="black" points="680.5,-757.5 680.5,-776.5 831.5,-776.5 831.5,-757.5 680.5,-757.5"/>
<text text-anchor="middle" x="756" y="-764.5" font-family="Helvetica,sans-Serif" font-size="10.00">SmartMap&lt; FlexVariable &gt;</text>
</a>
</g>
</g>
<!-- Node31&#45;&gt;Node30 -->
<g id="edge31" class="edge">
<title>Node31&#45;&gt;Node30</title>
<path fill="none" stroke="midnightblue" d="M759.95,-747.47C763.22,-732.15 767.71,-711.09 770.19,-699.5"/>
<polygon fill="midnightblue" stroke="midnightblue" points="756.5,-746.89 757.84,-757.4 763.34,-748.35 756.5,-746.89"/>
</g>
<!-- Node32 -->
<g id="node31" class="node">
<title>Node32</title>
<g id="a_node31"><a xlink:title=" ">
<polygon fill="white" stroke="#bfbfbf" points="652.5,-824.5 652.5,-843.5 829.5,-843.5 829.5,-824.5 652.5,-824.5"/>
<text text-anchor="middle" x="741" y="-831.5" font-family="Helvetica,sans-Serif" font-size="10.00">map&lt; std::string, FlexVariable &gt;</text>
</a>
</g>
</g>
<!-- Node32&#45;&gt;Node31 -->
<g id="edge32" class="edge">
<title>Node32&#45;&gt;Node31</title>
<path fill="none" stroke="midnightblue" d="M745.29,-814.41C748.16,-801.99 751.8,-786.22 754.01,-776.63"/>
<polygon fill="midnightblue" stroke="midnightblue" points="741.86,-813.7 743.02,-824.23 748.68,-815.28 741.86,-813.7"/>
</g>
<!-- Node33 -->
<g id="node32" class="node">
<title>Node33</title>
<g id="a_node32"><a xlink:href="classdrain_1_1Range.html" target="_top" xlink:title=" ">
<polygon fill="white" stroke="black" points="329.5,-472 329.5,-491 412.5,-491 412.5,-472 329.5,-472"/>
<text text-anchor="middle" x="371" y="-479" font-family="Helvetica,sans-Serif" font-size="10.00">Range&lt; int &gt;</text>
</a>
</g>
</g>
<!-- Node33&#45;&gt;Node4 -->
<g id="edge34" class="edge">
<title>Node33&#45;&gt;Node4</title>
<path fill="none" stroke="#9a32cd" stroke-dasharray="5,2" d="M370.61,-461.2C370.39,-445.72 370.29,-423.46 371,-404 373.42,-337.71 380.54,-258.76 383.59,-226.89"/>
<polygon fill="#9a32cd" stroke="#9a32cd" points="367.12,-461.61 370.79,-471.55 374.12,-461.49 367.12,-461.61"/>
<text text-anchor="middle" x="395.5" y="-327" font-family="Helvetica,sans-Serif" font-size="10.00"> jRange</text>
<text text-anchor="middle" x="395.5" y="-316" font-family="Helvetica,sans-Serif" font-size="10.00">iRange</text>
</g>
<!-- Node33&#45;&gt;Node51 -->
<g id="edge55" class="edge">
<title>Node33&#45;&gt;Node51</title>
<path fill="none" stroke="#9a32cd" stroke-dasharray="5,2" d="M372.35,-461.43C374.37,-444.83 379.41,-420.85 392,-404 400.32,-392.86 413.53,-384.58 424.8,-379.03"/>
<polygon fill="#9a32cd" stroke="#9a32cd" points="368.85,-461.28 371.38,-471.57 375.81,-461.94 368.85,-461.28"/>
<text text-anchor="middle" x="412" y="-429" font-family="Helvetica,sans-Serif" font-size="10.00"> yRange</text>
<text text-anchor="middle" x="412" y="-418" font-family="Helvetica,sans-Serif" font-size="10.00">xRange</text>
</g>
<!-- Node34 -->
<g id="node33" class="node">
<title>Node34</title>
<g id="a_node33"><a xlink:href="classdrain_1_1UniTuple.html" target="_top" xlink:title=" ">
<polygon fill="white" stroke="black" points="210,-544.5 210,-563.5 316,-563.5 316,-544.5 210,-544.5"/>
<text text-anchor="middle" x="263" y="-551.5" font-family="Helvetica,sans-Serif" font-size="10.00">UniTuple&lt; int, 2 &gt;</text>
</a>
</g>
</g>
<!-- Node34&#45;&gt;Node33 -->
<g id="edge35" class="edge">
<title>Node34&#45;&gt;Node33</title>
<path fill="none" stroke="midnightblue" d="M284.84,-538.74C306.64,-524.51 339.45,-503.09 357.65,-491.22"/>
<polygon fill="midnightblue" stroke="midnightblue" points="282.7,-535.96 276.24,-544.36 286.53,-541.82 282.7,-535.96"/>
</g>
<!-- Node49 -->
<g id="node48" class="node">
<title>Node49</title>
<g id="a_node48"><a xlink:href="classdrain_1_1Frame2D.html" target="_top" xlink:title=" ">
<polygon fill="white" stroke="black" points="215,-472 215,-491 311,-491 311,-472 215,-472"/>
<text text-anchor="middle" x="263" y="-479" font-family="Helvetica,sans-Serif" font-size="10.00">Frame2D&lt; int &gt;</text>
</a>
</g>
</g>
<!-- Node34&#45;&gt;Node49 -->
<g id="edge51" class="edge">
<title>Node34&#45;&gt;Node49</title>
<path fill="none" stroke="midnightblue" d="M263,-533.94C263,-520.03 263,-501.82 263,-491.22"/>
<polygon fill="midnightblue" stroke="midnightblue" points="259.5,-534.36 263,-544.36 266.5,-534.36 259.5,-534.36"/>
</g>
<!-- Node50 -->
<g id="node49" class="node">
<title>Node50</title>
<g id="a_node49"><a xlink:href="structdrain_1_1Point2D.html" target="_top" xlink:title=" ">
<polygon fill="white" stroke="black" points="117,-275.5 117,-294.5 207,-294.5 207,-275.5 117,-275.5"/>
<text text-anchor="middle" x="162" y="-282.5" font-family="Helvetica,sans-Serif" font-size="10.00">Point2D&lt; int &gt;</text>
</a>
</g>
</g>
<!-- Node34&#45;&gt;Node50 -->
<g id="edge53" class="edge">
<title>Node34&#45;&gt;Node50</title>
<path fill="none" stroke="midnightblue" d="M242.36,-537.91C229.94,-527.73 214.86,-513.22 206,-497 167.26,-426.06 162.57,-324.62 162.05,-294.65"/>
<polygon fill="midnightblue" stroke="midnightblue" points="240.4,-540.82 250.43,-544.24 244.72,-535.31 240.4,-540.82"/>
</g>
<!-- Node35 -->
<g id="node34" class="node">
<title>Node35</title>
<g id="a_node34"><a xlink:href="structdrain_1_1UnaryFunctor.html" target="_top" xlink:title=" ">
<polygon fill="white" stroke="black" points="520,-275.5 520,-294.5 602,-294.5 602,-275.5 520,-275.5"/>
<text text-anchor="middle" x="561" y="-282.5" font-family="Helvetica,sans-Serif" font-size="10.00">UnaryFunctor</text>
</a>
</g>
</g>
<!-- Node35&#45;&gt;Node4 -->
<g id="edge36" class="edge">
<title>Node35&#45;&gt;Node4</title>
<path fill="none" stroke="#9a32cd" stroke-dasharray="5,2" d="M530.37,-271.56C499.48,-259.01 451.88,-239.67 419.64,-226.57"/>
<polygon fill="#9a32cd" stroke="#9a32cd" points="529.19,-274.85 539.77,-275.38 531.82,-268.37 529.19,-274.85"/>
<text text-anchor="middle" x="521.5" y="-249" font-family="Helvetica,sans-Serif" font-size="10.00"> myFunctor</text>
</g>
<!-- Node36 -->
<g id="node35" class="node">
<title>Node36</title>
<g id="a_node35"><a xlink:href="classdrain_1_1Functor.html" target="_top" xlink:title="Base class for sequential computations. Optional scaling utilities.">
<polygon fill="white" stroke="black" points="537.5,-360 537.5,-379 590.5,-379 590.5,-360 537.5,-360"/>
<text text-anchor="middle" x="564" y="-367" font-family="Helvetica,sans-Serif" font-size="10.00">Functor</text>
</a>
</g>
</g>
<!-- Node36&#45;&gt;Node35 -->
<g id="edge37" class="edge">
<title>Node36&#45;&gt;Node35</title>
<path fill="none" stroke="midnightblue" d="M563.32,-349.93C562.7,-332.63 561.79,-307.61 561.31,-294.6"/>
<polygon fill="midnightblue" stroke="midnightblue" points="559.83,-350.12 563.69,-359.98 566.82,-349.86 559.83,-350.12"/>
</g>
<!-- Node37 -->
<g id="node36" class="node">
<title>Node37</title>
<g id="a_node36"><a xlink:href="classdrain_1_1BeanLike.html" target="_top" xlink:title="Something which has a name, a description and possibly some parameters of varying type.">
<polygon fill="white" stroke="black" points="534.5,-472 534.5,-491 595.5,-491 595.5,-472 534.5,-472"/>
<text text-anchor="middle" x="565" y="-479" font-family="Helvetica,sans-Serif" font-size="10.00">BeanLike</text>
</a>
</g>
</g>
<!-- Node37&#45;&gt;Node36 -->
<g id="edge38" class="edge">
<title>Node37&#45;&gt;Node36</title>
<path fill="none" stroke="midnightblue" d="M564.83,-461.85C564.61,-437.75 564.24,-396.81 564.08,-379.09"/>
<polygon fill="midnightblue" stroke="midnightblue" points="561.33,-461.9 564.92,-471.87 568.33,-461.84 561.33,-461.9"/>
</g>
<!-- Node38 -->
<g id="node37" class="node">
<title>Node38</title>
<g id="a_node37"><a xlink:href="classdrain_1_1ReferenceMap.html" target="_top" xlink:title=" ">
<polygon fill="white" stroke="black" points="522.5,-544.5 522.5,-563.5 609.5,-563.5 609.5,-544.5 522.5,-544.5"/>
<text text-anchor="middle" x="566" y="-551.5" font-family="Helvetica,sans-Serif" font-size="10.00">ReferenceMap</text>
</a>
</g>
</g>
<!-- Node38&#45;&gt;Node37 -->
<g id="edge39" class="edge">
<title>Node38&#45;&gt;Node37</title>
<path fill="none" stroke="#9a32cd" stroke-dasharray="5,2" d="M565.73,-533.94C565.53,-520.03 565.27,-501.82 565.12,-491.22"/>
<polygon fill="#9a32cd" stroke="#9a32cd" points="562.24,-534.41 565.88,-544.36 569.24,-534.31 562.24,-534.41"/>
<text text-anchor="middle" x="596" y="-518" font-family="Helvetica,sans-Serif" font-size="10.00"> parameters</text>
</g>
<!-- Node39 -->
<g id="node38" class="node">
<title>Node39</title>
<g id="a_node38"><a xlink:href="classdrain_1_1SmartMap.html" target="_top" xlink:title=" ">
<polygon fill="white" stroke="black" points="497.5,-601.5 497.5,-620.5 640.5,-620.5 640.5,-601.5 497.5,-601.5"/>
<text text-anchor="middle" x="569" y="-608.5" font-family="Helvetica,sans-Serif" font-size="10.00">SmartMap&lt; Referencer &gt;</text>
</a>
</g>
</g>
<!-- Node39&#45;&gt;Node38 -->
<g id="edge40" class="edge">
<title>Node39&#45;&gt;Node38</title>
<path fill="none" stroke="midnightblue" d="M567.97,-591.12C567.46,-581.82 566.88,-571.06 566.48,-563.71"/>
<polygon fill="midnightblue" stroke="midnightblue" points="564.49,-591.61 568.53,-601.41 571.48,-591.23 564.49,-591.61"/>
</g>
<!-- Node40 -->
<g id="node39" class="node">
<title>Node40</title>
<g id="a_node39"><a xlink:title=" ">
<polygon fill="white" stroke="#bfbfbf" points="484.5,-680.5 484.5,-699.5 653.5,-699.5 653.5,-680.5 484.5,-680.5"/>
<text text-anchor="middle" x="569" y="-687.5" font-family="Helvetica,sans-Serif" font-size="10.00">map&lt; std::string, Referencer &gt;</text>
</a>
</g>
</g>
<!-- Node40&#45;&gt;Node39 -->
<g id="edge41" class="edge">
<title>Node40&#45;&gt;Node39</title>
<path fill="none" stroke="midnightblue" d="M569,-670.31C569,-654.59 569,-632.81 569,-620.81"/>
<polygon fill="midnightblue" stroke="midnightblue" points="565.5,-670.47 569,-680.47 572.5,-670.47 565.5,-670.47"/>
</g>
<!-- Node41 -->
<g id="node40" class="node">
<title>Node41</title>
<g id="a_node40"><a xlink:href="classdrain_1_1UniCloner.html" target="_top" xlink:title=" ">
<polygon fill="white" stroke="black" points="620.5,-275.5 620.5,-294.5 803.5,-294.5 803.5,-275.5 620.5,-275.5"/>
<text text-anchor="middle" x="712" y="-282.5" font-family="Helvetica,sans-Serif" font-size="10.00">UniCloner&lt; drain::UnaryFunctor &gt;</text>
</a>
</g>
</g>
<!-- Node41&#45;&gt;Node4 -->
<g id="edge42" class="edge">
<title>Node41&#45;&gt;Node4</title>
<path fill="none" stroke="#9a32cd" stroke-dasharray="5,2" d="M668.08,-273.03C636.21,-265.19 592.03,-254.55 553,-246 522.21,-239.25 488.11,-232.35 458.73,-226.58"/>
<polygon fill="#9a32cd" stroke="#9a32cd" points="667.42,-276.47 677.97,-275.47 669.1,-269.68 667.42,-276.47"/>
<text text-anchor="middle" x="626.5" y="-249" font-family="Helvetica,sans-Serif" font-size="10.00"> unicloner</text>
</g>
<!-- Node42 -->
<g id="node41" class="node">
<title>Node42</title>
<g id="a_node41"><a xlink:href="classdrain_1_1Bank.html" target="_top" xlink:title=" ">
<polygon fill="white" stroke="black" points="650.5,-360 650.5,-379 733.5,-379 733.5,-360 650.5,-360"/>
<text text-anchor="middle" x="692" y="-367" font-family="Helvetica,sans-Serif" font-size="10.00">Bank&lt; T, K &gt;</text>
</a>
</g>
</g>
<!-- Node42&#45;&gt;Node41 -->
<g id="edge43" class="edge">
<title>Node42&#45;&gt;Node41</title>
<path fill="none" stroke="#9a32cd" stroke-dasharray="5,2" d="M696.5,-349.93C700.69,-332.63 706.76,-307.61 709.92,-294.6"/>
<polygon fill="#9a32cd" stroke="#9a32cd" points="693.02,-349.44 694.07,-359.98 699.82,-351.09 693.02,-349.44"/>
<text text-anchor="middle" x="718" y="-321.5" font-family="Helvetica,sans-Serif" font-size="10.00"> bank</text>
</g>
<!-- Node43 -->
<g id="node42" class="node">
<title>Node43</title>
<g id="a_node42"><a xlink:title=" ">
<polygon fill="white" stroke="#bfbfbf" points="621,-466.5 621,-496.5 757,-496.5 757,-466.5 621,-466.5"/>
<text text-anchor="start" x="629" y="-484.5" font-family="Helvetica,sans-Serif" font-size="10.00">map&lt; std::string, Cloner</text>
<text text-anchor="middle" x="689" y="-473.5" font-family="Helvetica,sans-Serif" font-size="10.00">Base&lt; T &gt; * &gt;</text>
</a>
</g>
</g>
<!-- Node43&#45;&gt;Node42 -->
<g id="edge44" class="edge">
<title>Node43&#45;&gt;Node42</title>
<path fill="none" stroke="darkgreen" d="M689.67,-455.85C690.34,-431.47 691.32,-395.51 691.76,-379.16"/>
<polygon fill="darkgreen" stroke="darkgreen" points="686.17,-456.03 689.39,-466.12 693.16,-456.22 686.17,-456.03"/>
</g>
<!-- Node44 -->
<g id="node43" class="node">
<title>Node44</title>
<g id="a_node43"><a xlink:href="classdrain_1_1image_1_1OpticalFlowConfig.html" target="_top" xlink:title="Consider using SlidingStripeOpticalFlow instead.">
<polygon fill="white" stroke="black" points="225,-275.5 225,-294.5 331,-294.5 331,-275.5 225,-275.5"/>
<text text-anchor="middle" x="278" y="-282.5" font-family="Helvetica,sans-Serif" font-size="10.00">OpticalFlowConfig</text>
</a>
</g>
</g>
<!-- Node44&#45;&gt;Node4 -->
<g id="edge45" class="edge">
<title>Node44&#45;&gt;Node4</title>
<path fill="none" stroke="#9a32cd" stroke-dasharray="5,2" d="M293.52,-268.17C301.11,-260.91 310.62,-252.5 320,-246 330.44,-238.77 342.64,-232.08 353.63,-226.61"/>
<polygon fill="#9a32cd" stroke="#9a32cd" points="290.8,-265.93 286.14,-275.45 295.72,-270.92 290.8,-265.93"/>
<text text-anchor="middle" x="332.5" y="-249" font-family="Helvetica,sans-Serif" font-size="10.00"> conf</text>
</g>
<!-- Node45 -->
<g id="node44" class="node">
<title>Node45</title>
<g id="a_node44"><a xlink:href="classdrain_1_1image_1_1WindowConfig.html" target="_top" xlink:title="Base class for configurations applied in image processing windows, e.g. for operators of type WindowO...">
<polygon fill="white" stroke="black" points="217.5,-360 217.5,-379 304.5,-379 304.5,-360 217.5,-360"/>
<text text-anchor="middle" x="261" y="-367" font-family="Helvetica,sans-Serif" font-size="10.00">WindowConfig</text>
</a>
</g>
</g>
<!-- Node45&#45;&gt;Node44 -->
<g id="edge46" class="edge">
<title>Node45&#45;&gt;Node44</title>
<path fill="none" stroke="midnightblue" d="M264.83,-349.93C268.39,-332.63 273.55,-307.61 276.23,-294.6"/>
<polygon fill="midnightblue" stroke="midnightblue" points="261.35,-349.48 262.76,-359.98 268.2,-350.89 261.35,-349.48"/>
</g>
<!-- Node46 -->
<g id="node45" class="node">
<title>Node46</title>
<g id="a_node45"><a xlink:href="classdrain_1_1VariableMap.html" target="_top" xlink:title="A map of Variables.">
<polygon fill="white" stroke="black" points="39,-472 39,-491 117,-491 117,-472 39,-472"/>
<text text-anchor="middle" x="78" y="-479" font-family="Helvetica,sans-Serif" font-size="10.00">VariableMap</text>
</a>
</g>
</g>
<!-- Node46&#45;&gt;Node45 -->
<g id="edge47" class="edge">
<title>Node46&#45;&gt;Node45</title>
<path fill="none" stroke="#9a32cd" stroke-dasharray="5,2" d="M92.34,-464.42C108.33,-447.34 135.7,-420.57 164,-404 183.06,-392.84 206.42,-384.63 225.43,-379.13"/>
<polygon fill="#9a32cd" stroke="#9a32cd" points="89.63,-462.2 85.45,-471.94 94.79,-466.93 89.63,-462.2"/>
<text text-anchor="middle" x="211" y="-423.5" font-family="Helvetica,sans-Serif" font-size="10.00"> functorParameters</text>
</g>
<!-- Node47 -->
<g id="node46" class="node">
<title>Node47</title>
<g id="a_node46"><a xlink:href="classdrain_1_1SmartMap.html" target="_top" xlink:title=" ">
<polygon fill="white" stroke="black" points="13,-544.5 13,-563.5 143,-563.5 143,-544.5 13,-544.5"/>
<text text-anchor="middle" x="78" y="-551.5" font-family="Helvetica,sans-Serif" font-size="10.00">SmartMap&lt; Variable &gt;</text>
</a>
</g>
</g>
<!-- Node47&#45;&gt;Node46 -->
<g id="edge48" class="edge">
<title>Node47&#45;&gt;Node46</title>
<path fill="none" stroke="midnightblue" d="M78,-533.94C78,-520.03 78,-501.82 78,-491.22"/>
<polygon fill="midnightblue" stroke="midnightblue" points="74.5,-534.36 78,-544.36 81.5,-534.36 74.5,-534.36"/>
</g>
<!-- Node48 -->
<g id="node47" class="node">
<title>Node48</title>
<g id="a_node47"><a xlink:title=" ">
<polygon fill="white" stroke="#bfbfbf" points="0,-601.5 0,-620.5 156,-620.5 156,-601.5 0,-601.5"/>
<text text-anchor="middle" x="78" y="-608.5" font-family="Helvetica,sans-Serif" font-size="10.00">map&lt; std::string, Variable &gt;</text>
</a>
</g>
</g>
<!-- Node48&#45;&gt;Node47 -->
<g id="edge49" class="edge">
<title>Node48&#45;&gt;Node47</title>
<path fill="none" stroke="midnightblue" d="M78,-591.12C78,-581.82 78,-571.06 78,-563.71"/>
<polygon fill="midnightblue" stroke="midnightblue" points="74.5,-591.41 78,-601.41 81.5,-591.41 74.5,-591.41"/>
</g>
<!-- Node49&#45;&gt;Node45 -->
<g id="edge50" class="edge">
<title>Node49&#45;&gt;Node45</title>
<path fill="none" stroke="#9a32cd" stroke-dasharray="5,2" d="M262.37,-461.73C262.23,-457.23 262.1,-452.44 262,-448 261.45,-422.98 261.17,-393.4 261.06,-379.1"/>
<polygon fill="#9a32cd" stroke="#9a32cd" points="258.87,-462.07 262.7,-471.95 265.87,-461.84 258.87,-462.07"/>
<text text-anchor="middle" x="278.5" y="-423.5" font-family="Helvetica,sans-Serif" font-size="10.00"> frame</text>
</g>
<!-- Node49&#45;&gt;Node51 -->
<g id="edge56" class="edge">
<title>Node49&#45;&gt;Node51</title>
<path fill="none" stroke="#9a32cd" stroke-dasharray="5,2" d="M278.6,-464.62C298.29,-444.87 331.33,-412.67 346,-404 365.23,-392.63 388.84,-384.49 408.29,-379.08"/>
<polygon fill="#9a32cd" stroke="#9a32cd" points="276.1,-462.18 271.55,-471.75 281.07,-467.11 276.1,-462.18"/>
<text text-anchor="middle" x="358.5" y="-423.5" font-family="Helvetica,sans-Serif" font-size="10.00"> area</text>
</g>
<!-- Node50&#45;&gt;Node3 -->
<g id="edge59" class="edge">
<title>Node50&#45;&gt;Node3</title>
<path fill="none" stroke="#9a32cd" stroke-dasharray="5,2" d="M173.02,-266.67C191.04,-238.34 226.46,-182.66 243.04,-156.59"/>
<polygon fill="#9a32cd" stroke="#9a32cd" points="170.04,-264.83 167.63,-275.15 175.95,-268.59 170.04,-264.83"/>
<text text-anchor="middle" x="251" y="-220" font-family="Helvetica,sans-Serif" font-size="10.00"> locationTrail</text>
<text text-anchor="middle" x="251" y="-209" font-family="Helvetica,sans-Serif" font-size="10.00">locationLead</text>
<text text-anchor="middle" x="251" y="-198" font-family="Helvetica,sans-Serif" font-size="10.00">locationTmp</text>
</g>
<!-- Node50&#45;&gt;Node4 -->
<g id="edge52" class="edge">
<title>Node50&#45;&gt;Node4</title>
<path fill="none" stroke="#9a32cd" stroke-dasharray="5,2" d="M191.49,-271.61C210.79,-263.73 236.66,-253.63 260,-246 281.78,-238.88 306.05,-232.12 327.37,-226.55"/>
<polygon fill="#9a32cd" stroke="#9a32cd" points="189.95,-268.45 182.04,-275.5 192.62,-274.92 189.95,-268.45"/>
<text text-anchor="middle" x="281.5" y="-249" font-family="Helvetica,sans-Serif" font-size="10.00"> location</text>
</g>
<!-- Node51&#45;&gt;Node4 -->
<g id="edge54" class="edge">
<title>Node51&#45;&gt;Node4</title>
<path fill="none" stroke="#9a32cd" stroke-dasharray="5,2" d="M438.83,-350.41C432.94,-335.54 424.4,-313.91 417,-295 407.6,-270.96 396.75,-242.95 390.41,-226.52"/>
<polygon fill="#9a32cd" stroke="#9a32cd" points="435.65,-351.9 442.59,-359.91 442.16,-349.32 435.65,-351.9"/>
<text text-anchor="middle" x="464" y="-282.5" font-family="Helvetica,sans-Serif" font-size="10.00"> coordinateHandler</text>
</g>
</g>
</svg>
