<?xml version="1.0" encoding="UTF-8" standalone="no"?>
<!DOCTYPE svg PUBLIC "-//W3C//DTD SVG 1.1//EN"
 "http://www.w3.org/Graphics/SVG/1.1/DTD/svg11.dtd">
<!-- Generated by graphviz version 2.43.0 (0)
 -->
<!-- Title: RadarAccumulator&lt; AC, OD &gt; Pages: 1 -->
<svg width="511pt" height="375pt"
 viewBox="0.00 0.00 510.50 375.00" xmlns="http://www.w3.org/2000/svg" xmlns:xlink="http://www.w3.org/1999/xlink">
<g id="graph0" class="graph" transform="scale(1 1) rotate(0) translate(4 371)">
<title>RadarAccumulator&lt; AC, OD &gt;</title>
<polygon fill="white" stroke="transparent" points="-4,4 -4,-371 506.5,-371 506.5,4 -4,4"/>
<!-- Node1 -->
<g id="node1" class="node">
<title>Node1</title>
<g id="a_node1"><a xlink:title="Data array for creating composites and accumulated polar products (Surface rain fall or cluttermaps)">
<polygon fill="#bfbfbf" stroke="black" points="167.5,-0.5 167.5,-30.5 301.5,-30.5 301.5,-0.5 167.5,-0.5"/>
<text text-anchor="start" x="175.5" y="-18.5" font-family="Helvetica,sans-Serif" font-size="10.00">RadarAccumulator&lt; AC,</text>
<text text-anchor="middle" x="234.5" y="-7.5" font-family="Helvetica,sans-Serif" font-size="10.00"> OD &gt;</text>
</a>
</g>
</g>
<!-- Node2 -->
<g id="node2" class="node">
<title>Node2</title>
<g id="a_node2"><a xlink:title=" ">
<polygon fill="white" stroke="#bfbfbf" points="203.5,-78.5 203.5,-97.5 233.5,-97.5 233.5,-78.5 203.5,-78.5"/>
<text text-anchor="middle" x="218.5" y="-85.5" font-family="Helvetica,sans-Serif" font-size="10.00">AC</text>
</a>
</g>
</g>
<!-- Node2&#45;&gt;Node1 -->
<g id="edge1" class="edge">
<title>Node2&#45;&gt;Node1</title>
<path fill="none" stroke="midnightblue" d="M222.68,-68.6C225.37,-56.72 228.83,-41.49 231.31,-30.58"/>
<polygon fill="midnightblue" stroke="midnightblue" points="219.26,-67.83 220.46,-78.36 226.09,-69.38 219.26,-67.83"/>
</g>
<!-- Node3 -->
<g id="node3" class="node">
<title>Node3</title>
<g id="a_node3"><a xlink:href="classrack_1_1DataSelector.html" target="_top" xlink:title="Tool for selecting datasets based on paths, quantities and min/max elevations.">
<polygon fill="white" stroke="black" points="251.5,-78.5 251.5,-97.5 331.5,-97.5 331.5,-78.5 251.5,-78.5"/>
<text text-anchor="middle" x="291.5" y="-85.5" font-family="Helvetica,sans-Serif" font-size="10.00">DataSelector</text>
</a>
</g>
</g>
<!-- Node3&#45;&gt;Node1 -->
<g id="edge2" class="edge">
<title>Node3&#45;&gt;Node1</title>
<path fill="none" stroke="#9a32cd" stroke-dasharray="5,2" d="M278.07,-70.39C268.28,-58.28 255.16,-42.05 245.88,-30.58"/>
<polygon fill="#9a32cd" stroke="#9a32cd" points="275.5,-72.78 284.51,-78.36 280.95,-68.38 275.5,-72.78"/>
<text text-anchor="middle" x="301" y="-52" font-family="Helvetica,sans-Serif" font-size="10.00"> dataSelector</text>
</g>
<!-- Node4 -->
<g id="node4" class="node">
<title>Node4</title>
<g id="a_node4"><a xlink:href="classdrain_1_1BeanLike.html" target="_top" xlink:title="Something which has a name, a description and possibly some parameters of varying type.">
<polygon fill="white" stroke="black" points="106,-156.5 106,-175.5 167,-175.5 167,-156.5 106,-156.5"/>
<text text-anchor="middle" x="136.5" y="-163.5" font-family="Helvetica,sans-Serif" font-size="10.00">BeanLike</text>
</a>
</g>
</g>
<!-- Node4&#45;&gt;Node3 -->
<g id="edge3" class="edge">
<title>Node4&#45;&gt;Node3</title>
<path fill="none" stroke="midnightblue" d="M163.1,-151.96C194.77,-136.43 246.76,-110.94 273.85,-97.66"/>
<polygon fill="midnightblue" stroke="midnightblue" points="161.42,-148.88 153.98,-156.43 164.5,-155.17 161.42,-148.88"/>
</g>
<!-- Node5 -->
<g id="node5" class="node">
<title>Node5</title>
<g id="a_node5"><a xlink:href="classdrain_1_1ReferenceMap.html" target="_top" xlink:title=" ">
<polygon fill="white" stroke="black" points="59,-223.5 59,-242.5 146,-242.5 146,-223.5 59,-223.5"/>
<text text-anchor="middle" x="102.5" y="-230.5" font-family="Helvetica,sans-Serif" font-size="10.00">ReferenceMap</text>
</a>
</g>
</g>
<!-- Node5&#45;&gt;Node4 -->
<g id="edge4" class="edge">
<title>Node5&#45;&gt;Node4</title>
<path fill="none" stroke="#9a32cd" stroke-dasharray="5,2" d="M111.83,-214.16C118.39,-201.63 126.87,-185.41 131.99,-175.63"/>
<polygon fill="#9a32cd" stroke="#9a32cd" points="108.62,-212.75 107.09,-223.23 114.82,-216 108.62,-212.75"/>
<text text-anchor="middle" x="152.5" y="-197" font-family="Helvetica,sans-Serif" font-size="10.00"> parameters</text>
</g>
<!-- Node6 -->
<g id="node6" class="node">
<title>Node6</title>
<g id="a_node6"><a xlink:href="classdrain_1_1SmartMap.html" target="_top" xlink:title=" ">
<polygon fill="white" stroke="black" points="13,-290.5 13,-309.5 156,-309.5 156,-290.5 13,-290.5"/>
<text text-anchor="middle" x="84.5" y="-297.5" font-family="Helvetica,sans-Serif" font-size="10.00">SmartMap&lt; Referencer &gt;</text>
</a>
</g>
</g>
<!-- Node6&#45;&gt;Node5 -->
<g id="edge5" class="edge">
<title>Node6&#45;&gt;Node5</title>
<path fill="none" stroke="midnightblue" d="M89.65,-280.41C93.09,-267.99 97.46,-252.22 100.11,-242.63"/>
<polygon fill="midnightblue" stroke="midnightblue" points="86.22,-279.66 86.93,-290.23 92.97,-281.53 86.22,-279.66"/>
</g>
<!-- Node7 -->
<g id="node7" class="node">
<title>Node7</title>
<g id="a_node7"><a xlink:title=" ">
<polygon fill="white" stroke="#bfbfbf" points="0,-347.5 0,-366.5 169,-366.5 169,-347.5 0,-347.5"/>
<text text-anchor="middle" x="84.5" y="-354.5" font-family="Helvetica,sans-Serif" font-size="10.00">map&lt; std::string, Referencer &gt;</text>
</a>
</g>
</g>
<!-- Node7&#45;&gt;Node6 -->
<g id="edge6" class="edge">
<title>Node7&#45;&gt;Node6</title>
<path fill="none" stroke="midnightblue" d="M84.5,-337.12C84.5,-327.82 84.5,-317.06 84.5,-309.71"/>
<polygon fill="midnightblue" stroke="midnightblue" points="81,-337.41 84.5,-347.41 88,-337.41 81,-337.41"/>
</g>
<!-- Node8 -->
<g id="node8" class="node">
<title>Node8</title>
<g id="a_node8"><a xlink:href="classrack_1_1ODIMPathMatcher.html" target="_top" xlink:title="Structure for testing if a path matches a given sequence of path elements.">
<polygon fill="white" stroke="black" points="191,-156.5 191,-175.5 296,-175.5 296,-156.5 191,-156.5"/>
<text text-anchor="middle" x="243.5" y="-163.5" font-family="Helvetica,sans-Serif" font-size="10.00">ODIMPathMatcher</text>
</a>
</g>
</g>
<!-- Node8&#45;&gt;Node3 -->
<g id="edge7" class="edge">
<title>Node8&#45;&gt;Node3</title>
<path fill="none" stroke="#9a32cd" stroke-dasharray="5,2" d="M241.65,-146.11C241.6,-136.44 242.99,-124.88 248.5,-116 253.52,-107.91 261.96,-101.84 270.04,-97.53"/>
<polygon fill="#9a32cd" stroke="#9a32cd" points="238.17,-146.52 242.22,-156.31 245.16,-146.13 238.17,-146.52"/>
<text text-anchor="middle" x="281" y="-124.5" font-family="Helvetica,sans-Serif" font-size="10.00"> pathMatcher</text>
</g>
<!-- Node9 -->
<g id="node9" class="node">
<title>Node9</title>
<g id="a_node9"><a xlink:href="classdrain_1_1Path.html" target="_top" xlink:title=" ">
<polygon fill="white" stroke="black" points="170.5,-223.5 170.5,-242.5 344.5,-242.5 344.5,-223.5 170.5,-223.5"/>
<text text-anchor="middle" x="257.5" y="-230.5" font-family="Helvetica,sans-Serif" font-size="10.00">Path&lt; ODIMPathElemMatcher &gt;</text>
</a>
</g>
</g>
<!-- Node9&#45;&gt;Node8 -->
<g id="edge8" class="edge">
<title>Node9&#45;&gt;Node8</title>
<path fill="none" stroke="midnightblue" d="M253.5,-213.41C250.82,-200.99 247.42,-185.22 245.36,-175.63"/>
<polygon fill="midnightblue" stroke="midnightblue" points="250.08,-214.19 255.61,-223.23 256.93,-212.72 250.08,-214.19"/>
</g>
<!-- Node10 -->
<g id="node10" class="node">
<title>Node10</title>
<g id="a_node10"><a xlink:title=" ">
<polygon fill="white" stroke="#bfbfbf" points="174,-290.5 174,-309.5 341,-309.5 341,-290.5 174,-290.5"/>
<text text-anchor="middle" x="257.5" y="-297.5" font-family="Helvetica,sans-Serif" font-size="10.00">list&lt; ODIMPathElemMatcher &gt;</text>
</a>
</g>
</g>
<!-- Node10&#45;&gt;Node9 -->
<g id="edge9" class="edge">
<title>Node10&#45;&gt;Node9</title>
<path fill="none" stroke="midnightblue" d="M257.5,-280.04C257.5,-267.67 257.5,-252.12 257.5,-242.63"/>
<polygon fill="midnightblue" stroke="midnightblue" points="254,-280.23 257.5,-290.23 261,-280.23 254,-280.23"/>
</g>
<!-- Node11 -->
<g id="node11" class="node">
<title>Node11</title>
<g id="a_node11"><a xlink:href="structdrain_1_1PathSeparatorPolicy.html" target="_top" xlink:title="Determines if separators will be stored in the path.">
<polygon fill="white" stroke="black" points="359,-290.5 359,-309.5 474,-309.5 474,-290.5 359,-290.5"/>
<text text-anchor="middle" x="416.5" y="-297.5" font-family="Helvetica,sans-Serif" font-size="10.00">PathSeparatorPolicy</text>
</a>
</g>
</g>
<!-- Node11&#45;&gt;Node9 -->
<g id="edge10" class="edge">
<title>Node11&#45;&gt;Node9</title>
<path fill="none" stroke="#9a32cd" stroke-dasharray="5,2" d="M385.77,-286.44C354.19,-273.53 305.88,-253.78 278.45,-242.56"/>
<polygon fill="#9a32cd" stroke="#9a32cd" points="384.81,-289.82 395.39,-290.37 387.45,-283.34 384.81,-289.82"/>
<text text-anchor="middle" x="372.5" y="-264" font-family="Helvetica,sans-Serif" font-size="10.00"> separator</text>
</g>
<!-- Node12 -->
<g id="node12" class="node">
<title>Node12</title>
<g id="a_node12"><a xlink:href="classdrain_1_1UniTuple.html" target="_top" xlink:title=" ">
<polygon fill="white" stroke="black" points="359.5,-347.5 359.5,-366.5 473.5,-366.5 473.5,-347.5 359.5,-347.5"/>
<text text-anchor="middle" x="416.5" y="-354.5" font-family="Helvetica,sans-Serif" font-size="10.00">UniTuple&lt; bool, 3 &gt;</text>
</a>
</g>
</g>
<!-- Node12&#45;&gt;Node11 -->
<g id="edge11" class="edge">
<title>Node12&#45;&gt;Node11</title>
<path fill="none" stroke="midnightblue" d="M416.5,-337.12C416.5,-327.82 416.5,-317.06 416.5,-309.71"/>
<polygon fill="midnightblue" stroke="midnightblue" points="413,-337.41 416.5,-347.41 420,-337.41 413,-337.41"/>
</g>
<!-- Node13 -->
<g id="node13" class="node">
<title>Node13</title>
<g id="a_node13"><a xlink:href="classdrain_1_1RegExp.html" target="_top" xlink:title=" ">
<polygon fill="white" stroke="black" points="314,-156.5 314,-175.5 367,-175.5 367,-156.5 314,-156.5"/>
<text text-anchor="middle" x="340.5" y="-163.5" font-family="Helvetica,sans-Serif" font-size="10.00">RegExp</text>
</a>
</g>
</g>
<!-- Node13&#45;&gt;Node3 -->
<g id="edge12" class="edge">
<title>Node13&#45;&gt;Node3</title>
<path fill="none" stroke="#9a32cd" stroke-dasharray="5,2" d="M331.82,-147.47C326.86,-137.92 320.27,-126.04 313.5,-116 309.17,-109.58 303.67,-102.83 299.25,-97.69"/>
<polygon fill="#9a32cd" stroke="#9a32cd" points="328.71,-149.07 336.36,-156.41 334.95,-145.9 328.71,-149.07"/>
<text text-anchor="middle" x="367" y="-130" font-family="Helvetica,sans-Serif" font-size="10.00"> quantityRegExp</text>
<text text-anchor="middle" x="367" y="-119" font-family="Helvetica,sans-Serif" font-size="10.00">qualityRegExp</text>
</g>
<!-- Node14 -->
<g id="node14" class="node">
<title>Node14</title>
<g id="a_node14"><a xlink:href="classdrain_1_1Range.html" target="_top" xlink:title=" ">
<polygon fill="white" stroke="black" points="388,-156.5 388,-175.5 491,-175.5 491,-156.5 388,-156.5"/>
<text text-anchor="middle" x="439.5" y="-163.5" font-family="Helvetica,sans-Serif" font-size="10.00">Range&lt; double &gt;</text>
</a>
</g>
</g>
<!-- Node14&#45;&gt;Node3 -->
<g id="edge13" class="edge">
<title>Node14&#45;&gt;Node3</title>
<path fill="none" stroke="#9a32cd" stroke-dasharray="5,2" d="M433.32,-146.7C428.86,-136.18 421.78,-123.6 411.5,-116 388.49,-98.99 356.69,-92.39 331.61,-89.96"/>
<polygon fill="#9a32cd" stroke="#9a32cd" points="430.13,-148.14 436.94,-156.26 436.68,-145.67 430.13,-148.14"/>
<text text-anchor="middle" x="449.5" y="-124.5" font-family="Helvetica,sans-Serif" font-size="10.00"> elangle</text>
</g>
<!-- Node15 -->
<g id="node15" class="node">
<title>Node15</title>
<g id="a_node15"><a xlink:href="classdrain_1_1UniTuple.html" target="_top" xlink:title=" ">
<polygon fill="white" stroke="black" points="376.5,-223.5 376.5,-242.5 502.5,-242.5 502.5,-223.5 376.5,-223.5"/>
<text text-anchor="middle" x="439.5" y="-230.5" font-family="Helvetica,sans-Serif" font-size="10.00">UniTuple&lt; double, 2 &gt;</text>
</a>
</g>
</g>
<!-- Node15&#45;&gt;Node14 -->
<g id="edge14" class="edge">
<title>Node15&#45;&gt;Node14</title>
<path fill="none" stroke="midnightblue" d="M439.5,-213.04C439.5,-200.67 439.5,-185.12 439.5,-175.63"/>
<polygon fill="midnightblue" stroke="midnightblue" points="436,-213.23 439.5,-223.23 443,-213.23 436,-213.23"/>
</g>
</g>
</svg>
