<?xml version="1.0" encoding="UTF-8" standalone="no"?>
<!DOCTYPE svg PUBLIC "-//W3C//DTD SVG 1.1//EN"
 "http://www.w3.org/Graphics/SVG/1.1/DTD/svg11.dtd">
<!-- Generated by graphviz version 2.43.0 (0)
 -->
<!-- Title: DataSelector Pages: 1 -->
<!--zoomable 297 -->
<svg id="main" version="1.1" xmlns="http://www.w3.org/2000/svg" xmlns:xlink="http://www.w3.org/1999/xlink" xml:space="preserve" onload="init(evt)">
<style type="text/css"><![CDATA[
.edge:hover path { stroke: red; }
.edge:hover polygon { stroke: red; fill: red; }
]]></style>
<script type="text/javascript"><![CDATA[
var edges = document.getElementsByTagName('g');
if (edges && edges.length) {
  for (var i=0;i<edges.length;i++) {
    if (edges[i].id.substr(0,4)=='edge') {
      edges[i].setAttribute('class','edge');
    }
  }
}
]]></script>
        <defs>
                <circle id="rim" cx="0" cy="0" r="7"/>
                <circle id="rim2" cx="0" cy="0" r="3.5"/>
                <g id="zoomPlus">
                        <use xlink:href="#rim" fill="#404040">
                                <set attributeName="fill" to="#808080" begin="zoomplus.mouseover" end="zoomplus.mouseout"/>
                        </use>
                        <path d="M-4,0h8M0,-4v8" fill="none" stroke="white" stroke-width="1.5" pointer-events="none"/>
                </g>
                <g id="zoomMin">
                        <use xlink:href="#rim" fill="#404040">
                                <set attributeName="fill" to="#808080" begin="zoomminus.mouseover" end="zoomminus.mouseout"/>
                        </use>
                        <path d="M-4,0h8" fill="none" stroke="white" stroke-width="1.5" pointer-events="none"/>
                </g>
                <g id="dirArrow">
                        <path fill="none" stroke="white" stroke-width="1.5" d="M0,-3.0v7 M-2.5,-0.5L0,-3.0L2.5,-0.5"/>
                </g>
               <g id="resetDef">
                       <use xlink:href="#rim2" fill="#404040">
                               <set attributeName="fill" to="#808080" begin="reset.mouseover" end="reset.mouseout"/>
                       </use>
               </g>
        </defs>

<script type="text/javascript">
var viewWidth = 509;
var viewHeight = 297;
var sectionId = 'dynsection-1';
</script>
<script xlink:href="svgpan.js"/>
<svg id="graph" class="graph">
<g id="viewport">
<title>DataSelector</title>
<polygon fill="white" stroke="transparent" points="-4,4 -4,-293 504.5,-293 504.5,4 -4,4"/>
<!-- Node1 -->
<g id="node1" class="node">
<title>Node1</title>
<g id="a_node1"><a xlink:title="Tool for selecting datasets based on paths, quantities and min/max elevations.">
<polygon fill="#bfbfbf" stroke="black" points="248.5,-0.5 248.5,-19.5 328.5,-19.5 328.5,-0.5 248.5,-0.5"/>
<text text-anchor="middle" x="288.5" y="-7.5" font-family="Helvetica,sans-Serif" font-size="10.00">DataSelector</text>
</a>
</g>
</g>
<!-- Node2 -->
<g id="node2" class="node">
<title>Node2</title>
<g id="a_node2"><a xlink:href="classdrain_1_1BeanLike.html" target="_top" xlink:title="Something which has a name, a description and possibly some parameters of varying type.">
<polygon fill="white" stroke="black" points="94,-78.5 94,-97.5 155,-97.5 155,-78.5 94,-78.5"/>
<text text-anchor="middle" x="124.5" y="-85.5" font-family="Helvetica,sans-Serif" font-size="10.00">BeanLike</text>
</a>
</g>
</g>
<!-- Node2&#45;&gt;Node1 -->
<g id="edge1" class="edge">
<title>Node2&#45;&gt;Node1</title>
<path fill="none" stroke="midnightblue" d="M152.22,-74.16C185.68,-58.65 241.04,-32.99 269.82,-19.66"/>
<polygon fill="midnightblue" stroke="midnightblue" points="150.6,-71.05 142.99,-78.43 153.54,-77.4 150.6,-71.05"/>
</g>
<!-- Node3 -->
<g id="node3" class="node">
<title>Node3</title>
<g id="a_node3"><a xlink:href="classdrain_1_1ReferenceMap.html" target="_top" xlink:title=" ">
<polygon fill="white" stroke="black" points="59,-145.5 59,-164.5 146,-164.5 146,-145.5 59,-145.5"/>
<text text-anchor="middle" x="102.5" y="-152.5" font-family="Helvetica,sans-Serif" font-size="10.00">ReferenceMap</text>
</a>
</g>
</g>
<!-- Node3&#45;&gt;Node2 -->
<g id="edge2" class="edge">
<title>Node3&#45;&gt;Node2</title>
<path fill="none" stroke="#9a32cd" stroke-dasharray="5,2" d="M108.79,-135.41C113,-122.99 118.33,-107.22 121.58,-97.63"/>
<polygon fill="#9a32cd" stroke="#9a32cd" points="105.36,-134.64 105.47,-145.23 111.99,-136.88 105.36,-134.64"/>
<text text-anchor="middle" x="145.5" y="-119" font-family="Helvetica,sans-Serif" font-size="10.00"> parameters</text>
</g>
<!-- Node4 -->
<g id="node4" class="node">
<title>Node4</title>
<g id="a_node4"><a xlink:href="classdrain_1_1SmartMap.html" target="_top" xlink:title=" ">
<polygon fill="white" stroke="black" points="13,-212.5 13,-231.5 156,-231.5 156,-212.5 13,-212.5"/>
<text text-anchor="middle" x="84.5" y="-219.5" font-family="Helvetica,sans-Serif" font-size="10.00">SmartMap&lt; Referencer &gt;</text>
</a>
</g>
</g>
<!-- Node4&#45;&gt;Node3 -->
<g id="edge3" class="edge">
<title>Node4&#45;&gt;Node3</title>
<path fill="none" stroke="midnightblue" d="M89.65,-202.41C93.09,-189.99 97.46,-174.22 100.11,-164.63"/>
<polygon fill="midnightblue" stroke="midnightblue" points="86.22,-201.66 86.93,-212.23 92.97,-203.53 86.22,-201.66"/>
</g>
<!-- Node5 -->
<g id="node5" class="node">
<title>Node5</title>
<g id="a_node5"><a xlink:title=" ">
<polygon fill="white" stroke="#bfbfbf" points="0,-269.5 0,-288.5 169,-288.5 169,-269.5 0,-269.5"/>
<text text-anchor="middle" x="84.5" y="-276.5" font-family="Helvetica,sans-Serif" font-size="10.00">map&lt; std::string, Referencer &gt;</text>
</a>
</g>
</g>
<!-- Node5&#45;&gt;Node4 -->
<g id="edge4" class="edge">
<title>Node5&#45;&gt;Node4</title>
<path fill="none" stroke="midnightblue" d="M84.5,-259.12C84.5,-249.82 84.5,-239.06 84.5,-231.71"/>
<polygon fill="midnightblue" stroke="midnightblue" points="81,-259.41 84.5,-269.41 88,-259.41 81,-259.41"/>
</g>
<!-- Node6 -->
<g id="node6" class="node">
<title>Node6</title>
<g id="a_node6"><a xlink:href="classrack_1_1ODIMPathMatcher.html" target="_top" xlink:title="Structure for testing if a path matches a given sequence of path elements.">
<polygon fill="white" stroke="black" points="188,-78.5 188,-97.5 293,-97.5 293,-78.5 188,-78.5"/>
<text text-anchor="middle" x="240.5" y="-85.5" font-family="Helvetica,sans-Serif" font-size="10.00">ODIMPathMatcher</text>
</a>
</g>
</g>
<!-- Node6&#45;&gt;Node1 -->
<g id="edge5" class="edge">
<title>Node6&#45;&gt;Node1</title>
<path fill="none" stroke="#9a32cd" stroke-dasharray="5,2" d="M239.14,-68.1C239.31,-58.43 240.93,-46.87 246.5,-38 251.48,-30.07 259.73,-24.03 267.61,-19.69"/>
<polygon fill="#9a32cd" stroke="#9a32cd" points="235.65,-68.42 239.45,-78.3 242.64,-68.2 235.65,-68.42"/>
<text text-anchor="middle" x="279" y="-46.5" font-family="Helvetica,sans-Serif" font-size="10.00"> pathMatcher</text>
</g>
<!-- Node7 -->
<g id="node7" class="node">
<title>Node7</title>
<g id="a_node7"><a xlink:href="classdrain_1_1Path.html" target="_top" xlink:title=" ">
<polygon fill="white" stroke="black" points="170.5,-145.5 170.5,-164.5 344.5,-164.5 344.5,-145.5 170.5,-145.5"/>
<text text-anchor="middle" x="257.5" y="-152.5" font-family="Helvetica,sans-Serif" font-size="10.00">Path&lt; ODIMPathElemMatcher &gt;</text>
</a>
</g>
</g>
<!-- Node7&#45;&gt;Node6 -->
<g id="edge6" class="edge">
<title>Node7&#45;&gt;Node6</title>
<path fill="none" stroke="midnightblue" d="M252.64,-135.41C249.39,-122.99 245.26,-107.22 242.76,-97.63"/>
<polygon fill="midnightblue" stroke="midnightblue" points="249.29,-136.44 255.21,-145.23 256.06,-134.67 249.29,-136.44"/>
</g>
<!-- Node8 -->
<g id="node8" class="node">
<title>Node8</title>
<g id="a_node8"><a xlink:title=" ">
<polygon fill="white" stroke="#bfbfbf" points="174,-212.5 174,-231.5 341,-231.5 341,-212.5 174,-212.5"/>
<text text-anchor="middle" x="257.5" y="-219.5" font-family="Helvetica,sans-Serif" font-size="10.00">list&lt; ODIMPathElemMatcher &gt;</text>
</a>
</g>
</g>
<!-- Node8&#45;&gt;Node7 -->
<g id="edge7" class="edge">
<title>Node8&#45;&gt;Node7</title>
<path fill="none" stroke="midnightblue" d="M257.5,-202.04C257.5,-189.67 257.5,-174.12 257.5,-164.63"/>
<polygon fill="midnightblue" stroke="midnightblue" points="254,-202.23 257.5,-212.23 261,-202.23 254,-202.23"/>
</g>
<!-- Node9 -->
<g id="node9" class="node">
<title>Node9</title>
<g id="a_node9"><a xlink:href="structdrain_1_1PathSeparatorPolicy.html" target="_top" xlink:title="Determines if separators will be stored in the path.">
<polygon fill="white" stroke="black" points="359,-212.5 359,-231.5 474,-231.5 474,-212.5 359,-212.5"/>
<text text-anchor="middle" x="416.5" y="-219.5" font-family="Helvetica,sans-Serif" font-size="10.00">PathSeparatorPolicy</text>
</a>
</g>
</g>
<!-- Node9&#45;&gt;Node7 -->
<g id="edge8" class="edge">
<title>Node9&#45;&gt;Node7</title>
<path fill="none" stroke="#9a32cd" stroke-dasharray="5,2" d="M385.77,-208.44C354.19,-195.53 305.88,-175.78 278.45,-164.56"/>
<polygon fill="#9a32cd" stroke="#9a32cd" points="384.81,-211.82 395.39,-212.37 387.45,-205.34 384.81,-211.82"/>
<text text-anchor="middle" x="372.5" y="-186" font-family="Helvetica,sans-Serif" font-size="10.00"> separator</text>
</g>
<!-- Node10 -->
<g id="node10" class="node">
<title>Node10</title>
<g id="a_node10"><a xlink:href="classdrain_1_1UniTuple.html" target="_top" xlink:title=" ">
<polygon fill="white" stroke="black" points="359.5,-269.5 359.5,-288.5 473.5,-288.5 473.5,-269.5 359.5,-269.5"/>
<text text-anchor="middle" x="416.5" y="-276.5" font-family="Helvetica,sans-Serif" font-size="10.00">UniTuple&lt; bool, 3 &gt;</text>
</a>
</g>
</g>
<!-- Node10&#45;&gt;Node9 -->
<g id="edge9" class="edge">
<title>Node10&#45;&gt;Node9</title>
<path fill="none" stroke="midnightblue" d="M416.5,-259.12C416.5,-249.82 416.5,-239.06 416.5,-231.71"/>
<polygon fill="midnightblue" stroke="midnightblue" points="413,-259.41 416.5,-269.41 420,-259.41 413,-259.41"/>
</g>
<!-- Node11 -->
<g id="node11" class="node">
<title>Node11</title>
<g id="a_node11"><a xlink:href="classdrain_1_1RegExp.html" target="_top" xlink:title=" ">
<polygon fill="white" stroke="black" points="311,-78.5 311,-97.5 364,-97.5 364,-78.5 311,-78.5"/>
<text text-anchor="middle" x="337.5" y="-85.5" font-family="Helvetica,sans-Serif" font-size="10.00">RegExp</text>
</a>
</g>
</g>
<!-- Node11&#45;&gt;Node1 -->
<g id="edge10" class="edge">
<title>Node11&#45;&gt;Node1</title>
<path fill="none" stroke="#9a32cd" stroke-dasharray="5,2" d="M329.17,-69.09C324.46,-59.56 318.18,-47.83 311.5,-38 307.07,-31.48 301.32,-24.73 296.68,-19.61"/>
<polygon fill="#9a32cd" stroke="#9a32cd" points="326.14,-70.85 333.62,-78.35 332.45,-67.82 326.14,-70.85"/>
<text text-anchor="middle" x="365" y="-52" font-family="Helvetica,sans-Serif" font-size="10.00"> quantityRegExp</text>
<text text-anchor="middle" x="365" y="-41" font-family="Helvetica,sans-Serif" font-size="10.00">qualityRegExp</text>
</g>
<!-- Node12 -->
<g id="node12" class="node">
<title>Node12</title>
<g id="a_node12"><a xlink:href="classdrain_1_1Range.html" target="_top" xlink:title=" ">
<polygon fill="white" stroke="black" points="386,-78.5 386,-97.5 489,-97.5 489,-78.5 386,-78.5"/>
<text text-anchor="middle" x="437.5" y="-85.5" font-family="Helvetica,sans-Serif" font-size="10.00">Range&lt; double &gt;</text>
</a>
</g>
</g>
<!-- Node12&#45;&gt;Node1 -->
<g id="edge11" class="edge">
<title>Node12&#45;&gt;Node1</title>
<path fill="none" stroke="#9a32cd" stroke-dasharray="5,2" d="M431.33,-68.69C426.86,-58.18 419.79,-45.59 409.5,-38 386.2,-20.81 353.99,-14.23 328.65,-11.86"/>
<polygon fill="#9a32cd" stroke="#9a32cd" points="428.13,-70.14 434.94,-78.25 434.68,-67.66 428.13,-70.14"/>
<text text-anchor="middle" x="447.5" y="-46.5" font-family="Helvetica,sans-Serif" font-size="10.00"> elangle</text>
</g>
<!-- Node13 -->
<g id="node13" class="node">
<title>Node13</title>
<g id="a_node13"><a xlink:href="classdrain_1_1UniTuple.html" target="_top" xlink:title=" ">
<polygon fill="white" stroke="black" points="374.5,-145.5 374.5,-164.5 500.5,-164.5 500.5,-145.5 374.5,-145.5"/>
<text text-anchor="middle" x="437.5" y="-152.5" font-family="Helvetica,sans-Serif" font-size="10.00">UniTuple&lt; double, 2 &gt;</text>
</a>
</g>
</g>
<!-- Node13&#45;&gt;Node12 -->
<g id="edge12" class="edge">
<title>Node13&#45;&gt;Node12</title>
<path fill="none" stroke="midnightblue" d="M437.5,-135.04C437.5,-122.67 437.5,-107.12 437.5,-97.63"/>
<polygon fill="midnightblue" stroke="midnightblue" points="434,-135.23 437.5,-145.23 441,-135.23 434,-135.23"/>
</g>
</g>
</svg>
        <g id="navigator" transform="translate(0 0)" fill="#404254">
                <rect fill="#f2f5e9" fill-opacity="0.5" stroke="#606060" stroke-width=".5" x="0" y="0" width="60" height="60"/>
                <use id="zoomplus" xlink:href="#zoomPlus" x="17" y="9" onmousedown="handleZoom(evt,'in')"/>
                <use id="zoomminus" xlink:href="#zoomMin" x="42" y="9" onmousedown="handleZoom(evt,'out')"/>
                <use id="reset" xlink:href="#resetDef" x="30" y="36" onmousedown="handleReset()"/>
                <g id="arrowUp" xlink:href="#dirArrow" transform="translate(30 24)" onmousedown="handlePan(0,-1)">
                  <use xlink:href="#rim" fill="#404040">
                        <set attributeName="fill" to="#808080" begin="arrowUp.mouseover" end="arrowUp.mouseout"/>
                  </use>
                  <path fill="none" stroke="white" stroke-width="1.5" d="M0,-3.0v7 M-2.5,-0.5L0,-3.0L2.5,-0.5"/>
                </g>
                <g id="arrowRight" xlink:href="#dirArrow" transform="rotate(90) translate(36 -43)" onmousedown="handlePan(1,0)">
                  <use xlink:href="#rim" fill="#404040">
                        <set attributeName="fill" to="#808080" begin="arrowRight.mouseover" end="arrowRight.mouseout"/>
                  </use>
                  <path fill="none" stroke="white" stroke-width="1.5" d="M0,-3.0v7 M-2.5,-0.5L0,-3.0L2.5,-0.5"/>
                </g>
                <g id="arrowDown" xlink:href="#dirArrow" transform="rotate(180) translate(-30 -48)" onmousedown="handlePan(0,1)">
                  <use xlink:href="#rim" fill="#404040">
                        <set attributeName="fill" to="#808080" begin="arrowDown.mouseover" end="arrowDown.mouseout"/>
                  </use>
                  <path fill="none" stroke="white" stroke-width="1.5" d="M0,-3.0v7 M-2.5,-0.5L0,-3.0L2.5,-0.5"/>
                </g>
                <g id="arrowLeft" xlink:href="#dirArrow" transform="rotate(270) translate(-36 17)" onmousedown="handlePan(-1,0)">
                  <use xlink:href="#rim" fill="#404040">
                        <set attributeName="fill" to="#808080" begin="arrowLeft.mouseover" end="arrowLeft.mouseout"/>
                  </use>
                  <path fill="none" stroke="white" stroke-width="1.5" d="M0,-3.0v7 M-2.5,-0.5L0,-3.0L2.5,-0.5"/>
                </g>
        </g>
        <svg viewBox="0 0 15 15" width="100%" height="30px" preserveAspectRatio="xMaxYMin meet">
         <g id="arrow_out" transform="scale(0.3 0.3)">
          <a xlink:href="classrack_1_1DataSelector__coll__graph_org.svg" target="_base">
           <rect id="button" ry="5" rx="5" y="6" x="6" height="38" width="38"
                fill="#f2f5e9" fill-opacity="0.5" stroke="#606060" stroke-width="1.0"/>
           <path id="arrow"
             d="M 11.500037,31.436501 C 11.940474,20.09759 22.043105,11.32322 32.158766,21.979434 L 37.068811,17.246167 C 37.068811,17.246167 37.088388,32 37.088388,32 L 22.160133,31.978069 C 22.160133,31.978069 26.997745,27.140456 26.997745,27.140456 C 18.528582,18.264221 13.291696,25.230495 11.500037,31.436501 z"
             style="fill:#404040;"/>
          </a>
         </g>
        </svg>
</svg>
