<?xml version="1.0" encoding="UTF-8" standalone="no"?>
<!DOCTYPE svg PUBLIC "-//W3C//DTD SVG 1.1//EN"
 "http://www.w3.org/Graphics/SVG/1.1/DTD/svg11.dtd">
<!-- Generated by graphviz version 2.43.0 (0)
 -->
<!-- Title: AccumulatorGeo Pages: 1 -->
<svg width="2977pt" height="443pt"
 viewBox="0.00 0.00 2977.00 443.27" xmlns="http://www.w3.org/2000/svg" xmlns:xlink="http://www.w3.org/1999/xlink">
<g id="graph0" class="graph" transform="scale(1 1) rotate(0) translate(4 439.27)">
<title>AccumulatorGeo</title>
<polygon fill="white" stroke="transparent" points="-4,4 -4,-439.27 2973,-439.27 2973,4 -4,4"/>
<!-- Node1 -->
<g id="node1" class="node">
<title>Node1</title>
<g id="a_node1"><a xlink:title=" ">
<polygon fill="#bfbfbf" stroke="black" points="2871,-294.27 2871,-313.27 2969,-313.27 2969,-294.27 2871,-294.27"/>
<text text-anchor="middle" x="2920" y="-301.27" font-family="Helvetica,sans-Serif" font-size="10.00">AccumulatorGeo</text>
</a>
</g>
</g>
<!-- Node2 -->
<g id="node2" class="node">
<title>Node2</title>
<g id="a_node2"><a xlink:href="classdrain_1_1image_1_1Accumulator.html" target="_top" xlink:title=" ">
<polygon fill="white" stroke="black" points="2756,-180.27 2756,-199.27 2834,-199.27 2834,-180.27 2756,-180.27"/>
<text text-anchor="middle" x="2795" y="-187.27" font-family="Helvetica,sans-Serif" font-size="10.00">Accumulator</text>
</a>
</g>
</g>
<!-- Node2&#45;&gt;Node1 -->
<g id="edge1" class="edge">
<title>Node2&#45;&gt;Node1</title>
<path fill="none" stroke="midnightblue" d="M2813.82,-206.29C2839.87,-230.43 2887.5,-274.58 2908.54,-294.08"/>
<polygon fill="midnightblue" stroke="midnightblue" points="2816.2,-203.72 2806.49,-199.49 2811.44,-208.86 2816.2,-203.72"/>
</g>
<!-- Node3 -->
<g id="node3" class="node">
<title>Node3</title>
<g id="a_node3"><a xlink:href="classdrain_1_1image_1_1AccumulationArray.html" target="_top" xlink:title="General&#45;purpose image compositing.">
<polygon fill="white" stroke="black" points="2056,-204.27 2056,-223.27 2166,-223.27 2166,-204.27 2056,-204.27"/>
<text text-anchor="middle" x="2111" y="-211.27" font-family="Helvetica,sans-Serif" font-size="10.00">AccumulationArray</text>
</a>
</g>
</g>
<!-- Node3&#45;&gt;Node2 -->
<g id="edge2" class="edge">
<title>Node3&#45;&gt;Node2</title>
<path fill="none" stroke="midnightblue" d="M2156.08,-225.92C2220.94,-243.09 2346.18,-273.63 2455,-284.77 2516.9,-291.11 2532.8,-286.29 2595,-284.77 2658.61,-283.22 2682.99,-309.75 2738,-277.77 2768.53,-260.03 2785.04,-218.26 2791.18,-199.36"/>
<polygon fill="midnightblue" stroke="midnightblue" points="2156.77,-222.48 2146.2,-223.28 2154.96,-229.24 2156.77,-222.48"/>
</g>
<!-- Node36 -->
<g id="node36" class="node">
<title>Node36</title>
<g id="a_node36"><a xlink:href="classdrain_1_1image_1_1AccumulationMethod.html" target="_top" xlink:title="Function for accumulating data: maximum, average, weighted average etc.">
<polygon fill="white" stroke="black" points="2298,-130.27 2298,-149.27 2418,-149.27 2418,-130.27 2298,-130.27"/>
<text text-anchor="middle" x="2358" y="-137.27" font-family="Helvetica,sans-Serif" font-size="10.00">AccumulationMethod</text>
</a>
</g>
</g>
<!-- Node3&#45;&gt;Node36 -->
<g id="edge44" class="edge">
<title>Node3&#45;&gt;Node36</title>
<path fill="none" stroke="#9a32cd" stroke-dasharray="5,2" d="M2153.39,-201.27C2201.91,-186.62 2281.26,-162.65 2325.21,-149.38"/>
<polygon fill="#9a32cd" stroke="#9a32cd" points="2152.09,-198.01 2143.53,-204.25 2154.11,-204.71 2152.09,-198.01"/>
<text text-anchor="middle" x="2232" y="-194.77" font-family="Helvetica,sans-Serif" font-size="10.00"> accumulationArray</text>
</g>
<!-- Node4 -->
<g id="node4" class="node">
<title>Node4</title>
<g id="a_node4"><a xlink:href="classdrain_1_1image_1_1ImageT.html" target="_top" xlink:title=" ">
<polygon fill="white" stroke="black" points="1846.5,-166.27 1846.5,-185.27 1982.5,-185.27 1982.5,-166.27 1846.5,-166.27"/>
<text text-anchor="middle" x="1914.5" y="-173.27" font-family="Helvetica,sans-Serif" font-size="10.00">ImageT&lt; unsigned int &gt;</text>
</a>
</g>
</g>
<!-- Node4&#45;&gt;Node3 -->
<g id="edge3" class="edge">
<title>Node4&#45;&gt;Node3</title>
<path fill="none" stroke="#9a32cd" stroke-dasharray="5,2" d="M1977.35,-187.14C1996.78,-190.78 2018.3,-194.87 2038,-198.77 2046.64,-200.48 2055.86,-202.36 2064.71,-204.19"/>
<polygon fill="#9a32cd" stroke="#9a32cd" points="1977.87,-183.68 1967.4,-185.28 1976.59,-190.56 1977.87,-183.68"/>
<text text-anchor="middle" x="2021" y="-201.77" font-family="Helvetica,sans-Serif" font-size="10.00"> count</text>
</g>
<!-- Node5 -->
<g id="node5" class="node">
<title>Node5</title>
<g id="a_node5"><a xlink:href="classdrain_1_1image_1_1ModifiableImage.html" target="_top" xlink:title="Image with modifiable geometry.">
<polygon fill="white" stroke="black" points="1672,-166.27 1672,-185.27 1771,-185.27 1771,-166.27 1672,-166.27"/>
<text text-anchor="middle" x="1721.5" y="-173.27" font-family="Helvetica,sans-Serif" font-size="10.00">ModifiableImage</text>
</a>
</g>
</g>
<!-- Node5&#45;&gt;Node4 -->
<g id="edge4" class="edge">
<title>Node5&#45;&gt;Node4</title>
<path fill="none" stroke="midnightblue" d="M1781.34,-175.77C1801.85,-175.77 1825.02,-175.77 1846.16,-175.77"/>
<polygon fill="midnightblue" stroke="midnightblue" points="1781.19,-172.27 1771.19,-175.77 1781.19,-179.27 1781.19,-172.27"/>
</g>
<!-- Node30 -->
<g id="node30" class="node">
<title>Node30</title>
<g id="a_node30"><a xlink:href="classdrain_1_1image_1_1ImageT.html" target="_top" xlink:title=" ">
<polygon fill="white" stroke="black" points="1860,-204.27 1860,-223.27 1969,-223.27 1969,-204.27 1860,-204.27"/>
<text text-anchor="middle" x="1914.5" y="-211.27" font-family="Helvetica,sans-Serif" font-size="10.00">ImageT&lt; double &gt;</text>
</a>
</g>
</g>
<!-- Node5&#45;&gt;Node30 -->
<g id="edge32" class="edge">
<title>Node5&#45;&gt;Node30</title>
<path fill="none" stroke="midnightblue" d="M1780.85,-187.38C1808.02,-192.79 1839.93,-199.14 1865.65,-204.25"/>
<polygon fill="midnightblue" stroke="midnightblue" points="1781.19,-183.88 1770.7,-185.36 1779.82,-190.75 1781.19,-183.88"/>
</g>
<!-- Node6 -->
<g id="node6" class="node">
<title>Node6</title>
<g id="a_node6"><a xlink:href="classdrain_1_1image_1_1MultiChannel.html" target="_top" xlink:title="Multi&#45;channel ImageFrame.">
<polygon fill="white" stroke="black" points="1512.5,-156.27 1512.5,-175.27 1593.5,-175.27 1593.5,-156.27 1512.5,-156.27"/>
<text text-anchor="middle" x="1553" y="-163.27" font-family="Helvetica,sans-Serif" font-size="10.00">MultiChannel</text>
</a>
</g>
</g>
<!-- Node6&#45;&gt;Node5 -->
<g id="edge5" class="edge">
<title>Node6&#45;&gt;Node5</title>
<path fill="none" stroke="midnightblue" d="M1604.09,-168.78C1625.52,-170.07 1650.45,-171.57 1671.73,-172.84"/>
<polygon fill="midnightblue" stroke="midnightblue" points="1604.07,-165.27 1593.88,-168.17 1603.65,-172.26 1604.07,-165.27"/>
</g>
<!-- Node7 -->
<g id="node7" class="node">
<title>Node7</title>
<g id="a_node7"><a xlink:href="classdrain_1_1image_1_1ImageFrame.html" target="_top" xlink:title="Image with static geometry.">
<polygon fill="white" stroke="black" points="1391,-117.27 1391,-136.27 1469,-136.27 1469,-117.27 1391,-117.27"/>
<text text-anchor="middle" x="1430" y="-124.27" font-family="Helvetica,sans-Serif" font-size="10.00">ImageFrame</text>
</a>
</g>
</g>
<!-- Node7&#45;&gt;Node6 -->
<g id="edge6" class="edge">
<title>Node7&#45;&gt;Node6</title>
<path fill="none" stroke="midnightblue" d="M1470.22,-139.41C1487.13,-144.87 1506.59,-151.14 1522.29,-156.2"/>
<polygon fill="midnightblue" stroke="midnightblue" points="1471.19,-136.05 1460.6,-136.31 1469.04,-142.71 1471.19,-136.05"/>
</g>
<!-- Node8 -->
<g id="node8" class="node">
<title>Node8</title>
<g id="a_node8"><a xlink:href="classdrain_1_1image_1_1ImageLike.html" target="_top" xlink:title="A base class for images.">
<polygon fill="white" stroke="black" points="1205,-160.27 1205,-179.27 1272,-179.27 1272,-160.27 1205,-160.27"/>
<text text-anchor="middle" x="1238.5" y="-167.27" font-family="Helvetica,sans-Serif" font-size="10.00">ImageLike</text>
</a>
</g>
</g>
<!-- Node8&#45;&gt;Node7 -->
<g id="edge7" class="edge">
<title>Node8&#45;&gt;Node7</title>
<path fill="none" stroke="midnightblue" d="M1282.23,-160.08C1314.91,-152.66 1359.54,-142.53 1390.99,-135.4"/>
<polygon fill="midnightblue" stroke="midnightblue" points="1281.05,-156.75 1272.08,-162.38 1282.6,-163.58 1281.05,-156.75"/>
</g>
<!-- Node9 -->
<g id="node9" class="node">
<title>Node9</title>
<g id="a_node9"><a xlink:href="classdrain_1_1image_1_1ImageConf.html" target="_top" xlink:title="Struct for image (excluding data)">
<polygon fill="white" stroke="black" points="947.5,-156.27 947.5,-175.27 1017.5,-175.27 1017.5,-156.27 947.5,-156.27"/>
<text text-anchor="middle" x="982.5" y="-163.27" font-family="Helvetica,sans-Serif" font-size="10.00">ImageConf</text>
</a>
</g>
</g>
<!-- Node9&#45;&gt;Node8 -->
<g id="edge8" class="edge">
<title>Node9&#45;&gt;Node8</title>
<path fill="none" stroke="#9a32cd" stroke-dasharray="5,2" d="M1028.06,-166.47C1078.67,-167.27 1160.02,-168.55 1204.99,-169.26"/>
<polygon fill="#9a32cd" stroke="#9a32cd" points="1027.81,-162.97 1017.76,-166.31 1027.7,-169.97 1027.81,-162.97"/>
<text text-anchor="middle" x="1123.5" y="-171.77" font-family="Helvetica,sans-Serif" font-size="10.00"> conf</text>
</g>
<!-- Node10 -->
<g id="node10" class="node">
<title>Node10</title>
<g id="a_node10"><a xlink:href="classdrain_1_1image_1_1Encoding.html" target="_top" xlink:title=" ">
<polygon fill="white" stroke="black" points="667,-151.27 667,-170.27 728,-170.27 728,-151.27 667,-151.27"/>
<text text-anchor="middle" x="697.5" y="-158.27" font-family="Helvetica,sans-Serif" font-size="10.00">Encoding</text>
</a>
</g>
</g>
<!-- Node10&#45;&gt;Node9 -->
<g id="edge9" class="edge">
<title>Node10&#45;&gt;Node9</title>
<path fill="none" stroke="midnightblue" d="M738.47,-161.48C794.33,-162.47 894.79,-164.24 947.34,-165.17"/>
<polygon fill="midnightblue" stroke="midnightblue" points="738.31,-157.98 728.25,-161.3 738.19,-164.97 738.31,-157.98"/>
</g>
<!-- Node11 -->
<g id="node11" class="node">
<title>Node11</title>
<g id="a_node11"><a xlink:href="classdrain_1_1ValueScaling.html" target="_top" xlink:title="Linear scaling and physical range for image intensities.">
<polygon fill="white" stroke="black" points="404,-168.27 404,-187.27 484,-187.27 484,-168.27 404,-168.27"/>
<text text-anchor="middle" x="444" y="-175.27" font-family="Helvetica,sans-Serif" font-size="10.00">ValueScaling</text>
</a>
</g>
</g>
<!-- Node11&#45;&gt;Node10 -->
<g id="edge10" class="edge">
<title>Node11&#45;&gt;Node10</title>
<path fill="none" stroke="midnightblue" d="M494.1,-174.92C522.44,-173.23 558.73,-170.99 591,-168.77 616.66,-167.01 645.8,-164.78 666.95,-163.13"/>
<polygon fill="midnightblue" stroke="midnightblue" points="493.82,-171.43 484.05,-175.52 494.24,-178.42 493.82,-171.43"/>
</g>
<!-- Node12 -->
<g id="node12" class="node">
<title>Node12</title>
<g id="a_node12"><a xlink:href="classdrain_1_1UniTuple.html" target="_top" xlink:title=" ">
<polygon fill="white" stroke="black" points="163,-211.27 163,-230.27 289,-230.27 289,-211.27 163,-211.27"/>
<text text-anchor="middle" x="226" y="-218.27" font-family="Helvetica,sans-Serif" font-size="10.00">UniTuple&lt; double, 4 &gt;</text>
</a>
</g>
</g>
<!-- Node12&#45;&gt;Node11 -->
<g id="edge11" class="edge">
<title>Node12&#45;&gt;Node11</title>
<path fill="none" stroke="midnightblue" d="M284.77,-209.27C322.44,-201.77 370.61,-192.18 403.85,-185.57"/>
<polygon fill="midnightblue" stroke="midnightblue" points="284.06,-205.84 274.94,-211.23 285.43,-212.71 284.06,-205.84"/>
</g>
<!-- Node49 -->
<g id="node49" class="node">
<title>Node49</title>
<g id="a_node49"><a xlink:href="structdrain_1_1Rectangle.html" target="_top" xlink:title=" ">
<polygon fill="white" stroke="black" points="383.5,-332.27 383.5,-351.27 504.5,-351.27 504.5,-332.27 383.5,-332.27"/>
<text text-anchor="middle" x="444" y="-339.27" font-family="Helvetica,sans-Serif" font-size="10.00">Rectangle&lt; double &gt;</text>
</a>
</g>
</g>
<!-- Node12&#45;&gt;Node49 -->
<g id="edge61" class="edge">
<title>Node12&#45;&gt;Node49</title>
<path fill="none" stroke="midnightblue" d="M272.42,-233.87C278.15,-236.18 283.82,-238.81 289,-241.77 336.89,-269.12 334.84,-295.9 383,-322.77 389.77,-326.55 397.41,-329.7 404.9,-332.27"/>
<polygon fill="midnightblue" stroke="midnightblue" points="273.37,-230.49 262.78,-230.28 270.93,-237.05 273.37,-230.49"/>
</g>
<!-- Node13 -->
<g id="node13" class="node">
<title>Node13</title>
<g id="a_node13"><a xlink:href="classdrain_1_1Range.html" target="_top" xlink:title=" ">
<polygon fill="white" stroke="black" points="174.5,-170.27 174.5,-189.27 277.5,-189.27 277.5,-170.27 174.5,-170.27"/>
<text text-anchor="middle" x="226" y="-177.27" font-family="Helvetica,sans-Serif" font-size="10.00">Range&lt; double &gt;</text>
</a>
</g>
</g>
<!-- Node13&#45;&gt;Node11 -->
<g id="edge12" class="edge">
<title>Node13&#45;&gt;Node11</title>
<path fill="none" stroke="#9a32cd" stroke-dasharray="5,2" d="M287.86,-179.21C325.03,-178.87 371.46,-178.44 403.8,-178.14"/>
<polygon fill="#9a32cd" stroke="#9a32cd" points="287.61,-175.71 277.64,-179.3 287.67,-182.71 287.61,-175.71"/>
<text text-anchor="middle" x="336" y="-181.77" font-family="Helvetica,sans-Serif" font-size="10.00"> physRange</text>
</g>
<!-- Node14 -->
<g id="node14" class="node">
<title>Node14</title>
<g id="a_node14"><a xlink:href="classdrain_1_1UniTuple.html" target="_top" xlink:title=" ">
<polygon fill="white" stroke="black" points="0,-240.27 0,-259.27 126,-259.27 126,-240.27 0,-240.27"/>
<text text-anchor="middle" x="63" y="-247.27" font-family="Helvetica,sans-Serif" font-size="10.00">UniTuple&lt; double, 2 &gt;</text>
</a>
</g>
</g>
<!-- Node14&#45;&gt;Node13 -->
<g id="edge13" class="edge">
<title>Node14&#45;&gt;Node13</title>
<path fill="none" stroke="midnightblue" d="M91.33,-235.51C111,-225.5 138.32,-212.1 163,-201.77 173.64,-197.32 185.54,-192.96 196.04,-189.31"/>
<polygon fill="midnightblue" stroke="midnightblue" points="89.63,-232.45 82.33,-240.13 92.83,-238.68 89.63,-232.45"/>
</g>
<!-- Node50 -->
<g id="node50" class="node">
<title>Node50</title>
<g id="a_node50"><a xlink:href="structdrain_1_1Point2D.html" target="_top" xlink:title=" ">
<polygon fill="white" stroke="black" points="171,-308.27 171,-327.27 281,-327.27 281,-308.27 171,-308.27"/>
<text text-anchor="middle" x="226" y="-315.27" font-family="Helvetica,sans-Serif" font-size="10.00">Point2D&lt; double &gt;</text>
</a>
</g>
</g>
<!-- Node14&#45;&gt;Node50 -->
<g id="edge63" class="edge">
<title>Node14&#45;&gt;Node50</title>
<path fill="none" stroke="midnightblue" d="M95.94,-263.26C127.39,-276.55 174.64,-296.5 202.39,-308.22"/>
<polygon fill="midnightblue" stroke="midnightblue" points="97.3,-260.04 86.73,-259.37 94.58,-266.49 97.3,-260.04"/>
</g>
<!-- Node15 -->
<g id="node15" class="node">
<title>Node15</title>
<g id="a_node15"><a xlink:href="classdrain_1_1Caster.html" target="_top" xlink:title=" ">
<polygon fill="white" stroke="black" points="420,-127.27 420,-146.27 468,-146.27 468,-127.27 420,-127.27"/>
<text text-anchor="middle" x="444" y="-134.27" font-family="Helvetica,sans-Serif" font-size="10.00">Caster</text>
</a>
</g>
</g>
<!-- Node15&#45;&gt;Node10 -->
<g id="edge14" class="edge">
<title>Node15&#45;&gt;Node10</title>
<path fill="none" stroke="#9a32cd" stroke-dasharray="5,2" d="M478.37,-139.96C527.77,-144.67 619.62,-153.44 666.82,-157.94"/>
<polygon fill="#9a32cd" stroke="#9a32cd" points="478.5,-136.45 468.21,-138.99 477.83,-143.42 478.5,-136.45"/>
<text text-anchor="middle" x="557" y="-153.77" font-family="Helvetica,sans-Serif" font-size="10.00"> caster</text>
</g>
<!-- Node26 -->
<g id="node26" class="node">
<title>Node26</title>
<g id="a_node26"><a xlink:href="classdrain_1_1Castable.html" target="_top" xlink:title=" ">
<polygon fill="white" stroke="black" points="668,-113.27 668,-132.27 727,-132.27 727,-113.27 668,-113.27"/>
<text text-anchor="middle" x="697.5" y="-120.27" font-family="Helvetica,sans-Serif" font-size="10.00">Castable</text>
</a>
</g>
</g>
<!-- Node15&#45;&gt;Node26 -->
<g id="edge27" class="edge">
<title>Node15&#45;&gt;Node26</title>
<path fill="none" stroke="#9a32cd" stroke-dasharray="5,2" d="M478.11,-130.06C491.92,-127.57 508.18,-125.04 523,-123.77 573.87,-119.42 633.44,-120.39 667.88,-121.55"/>
<polygon fill="#9a32cd" stroke="#9a32cd" points="477.27,-126.65 468.09,-131.93 478.56,-133.53 477.27,-126.65"/>
<text text-anchor="middle" x="557" y="-126.77" font-family="Helvetica,sans-Serif" font-size="10.00"> caster</text>
</g>
<!-- Node16 -->
<g id="node16" class="node">
<title>Node16</title>
<g id="a_node16"><a xlink:href="classdrain_1_1image_1_1Geometry.html" target="_top" xlink:title=" ">
<polygon fill="white" stroke="black" points="665,-75.27 665,-94.27 730,-94.27 730,-75.27 665,-75.27"/>
<text text-anchor="middle" x="697.5" y="-82.27" font-family="Helvetica,sans-Serif" font-size="10.00">Geometry</text>
</a>
</g>
</g>
<!-- Node16&#45;&gt;Node9 -->
<g id="edge15" class="edge">
<title>Node16&#45;&gt;Node9</title>
<path fill="none" stroke="midnightblue" d="M740.45,-93.05C754.95,-96.13 771.25,-99.84 786,-103.77 846.73,-119.96 916.65,-143.3 954.22,-156.23"/>
<polygon fill="midnightblue" stroke="midnightblue" points="740.77,-89.54 730.26,-90.93 739.34,-96.39 740.77,-89.54"/>
</g>
<!-- Node17 -->
<g id="node17" class="node">
<title>Node17</title>
<g id="a_node17"><a xlink:href="classdrain_1_1UniTuple.html" target="_top" xlink:title=" ">
<polygon fill="white" stroke="black" points="383,-46.27 383,-65.27 505,-65.27 505,-46.27 383,-46.27"/>
<text text-anchor="middle" x="444" y="-53.27" font-family="Helvetica,sans-Serif" font-size="10.00">UniTuple&lt; size_t, 4 &gt;</text>
</a>
</g>
</g>
<!-- Node17&#45;&gt;Node16 -->
<g id="edge16" class="edge">
<title>Node17&#45;&gt;Node16</title>
<path fill="none" stroke="midnightblue" d="M515.47,-63.9C564.46,-69.55 627.44,-76.81 664.73,-81.11"/>
<polygon fill="midnightblue" stroke="midnightblue" points="515.58,-60.39 505.24,-62.72 514.77,-67.34 515.58,-60.39"/>
</g>
<!-- Node18 -->
<g id="node18" class="node">
<title>Node18</title>
<g id="a_node18"><a xlink:href="classdrain_1_1Frame2D.html" target="_top" xlink:title=" ">
<polygon fill="white" stroke="black" points="388,-8.27 388,-27.27 500,-27.27 500,-8.27 388,-8.27"/>
<text text-anchor="middle" x="444" y="-15.27" font-family="Helvetica,sans-Serif" font-size="10.00">Frame2D&lt; size_t &gt;</text>
</a>
</g>
</g>
<!-- Node18&#45;&gt;Node16 -->
<g id="edge17" class="edge">
<title>Node18&#45;&gt;Node16</title>
<path fill="none" stroke="#9a32cd" stroke-dasharray="5,2" d="M510.27,-25.75C536.32,-30.64 566.01,-38.44 591,-50.77 600.34,-55.38 599.64,-61.2 609,-65.77 626.46,-74.3 647.73,-79.03 664.93,-81.64"/>
<polygon fill="#9a32cd" stroke="#9a32cd" points="510.57,-22.25 500.11,-23.96 509.35,-29.14 510.57,-22.25"/>
<text text-anchor="middle" x="557" y="-53.77" font-family="Helvetica,sans-Serif" font-size="10.00"> area</text>
</g>
<!-- Node19 -->
<g id="node19" class="node">
<title>Node19</title>
<g id="a_node19"><a xlink:href="classdrain_1_1UniTuple.html" target="_top" xlink:title=" ">
<polygon fill="white" stroke="black" points="165,-40.27 165,-59.27 287,-59.27 287,-40.27 165,-40.27"/>
<text text-anchor="middle" x="226" y="-47.27" font-family="Helvetica,sans-Serif" font-size="10.00">UniTuple&lt; size_t, 2 &gt;</text>
</a>
</g>
</g>
<!-- Node19&#45;&gt;Node18 -->
<g id="edge18" class="edge">
<title>Node19&#45;&gt;Node18</title>
<path fill="none" stroke="midnightblue" d="M297.37,-39.35C326.77,-34.99 360.42,-30.01 387.96,-25.93"/>
<polygon fill="midnightblue" stroke="midnightblue" points="296.55,-35.93 287.17,-40.86 297.57,-42.86 296.55,-35.93"/>
</g>
<!-- Node20 -->
<g id="node20" class="node">
<title>Node20</title>
<g id="a_node20"><a xlink:href="classdrain_1_1image_1_1ChannelGeometry.html" target="_top" xlink:title=" ">
<polygon fill="white" stroke="black" points="391.5,-84.27 391.5,-103.27 496.5,-103.27 496.5,-84.27 391.5,-84.27"/>
<text text-anchor="middle" x="444" y="-91.27" font-family="Helvetica,sans-Serif" font-size="10.00">ChannelGeometry</text>
</a>
</g>
</g>
<!-- Node19&#45;&gt;Node20 -->
<g id="edge20" class="edge">
<title>Node19&#45;&gt;Node20</title>
<path fill="none" stroke="midnightblue" d="M283.95,-61.37C318.96,-68.51 363.27,-77.53 396.22,-84.24"/>
<polygon fill="midnightblue" stroke="midnightblue" points="284.37,-57.89 273.87,-59.32 282.97,-64.75 284.37,-57.89"/>
</g>
<!-- Node20&#45;&gt;Node16 -->
<g id="edge19" class="edge">
<title>Node20&#45;&gt;Node16</title>
<path fill="none" stroke="#9a32cd" stroke-dasharray="5,2" d="M506.99,-90.47C512.4,-90.22 517.8,-89.98 523,-89.77 572.53,-87.79 630.05,-86.29 664.83,-85.47"/>
<polygon fill="#9a32cd" stroke="#9a32cd" points="506.42,-86.99 496.6,-90.96 506.75,-93.98 506.42,-86.99"/>
<text text-anchor="middle" x="557" y="-92.77" font-family="Helvetica,sans-Serif" font-size="10.00"> channels</text>
</g>
<!-- Node21 -->
<g id="node21" class="node">
<title>Node21</title>
<g id="a_node21"><a xlink:href="classdrain_1_1image_1_1CoordinatePolicy.html" target="_top" xlink:title="Policies for coordinate underflows and overflows.">
<polygon fill="white" stroke="black" points="648,-215.27 648,-234.27 747,-234.27 747,-215.27 648,-215.27"/>
<text text-anchor="middle" x="697.5" y="-222.27" font-family="Helvetica,sans-Serif" font-size="10.00">CoordinatePolicy</text>
</a>
</g>
</g>
<!-- Node21&#45;&gt;Node9 -->
<g id="edge21" class="edge">
<title>Node21&#45;&gt;Node9</title>
<path fill="none" stroke="#9a32cd" stroke-dasharray="5,2" d="M754.29,-213.14C811.74,-201.16 899.45,-182.88 947.35,-172.89"/>
<polygon fill="#9a32cd" stroke="#9a32cd" points="753.36,-209.76 744.28,-215.23 754.79,-216.61 753.36,-209.76"/>
<text text-anchor="middle" x="846.5" y="-204.77" font-family="Helvetica,sans-Serif" font-size="10.00"> coordinatePolicy</text>
</g>
<!-- Node31 -->
<g id="node31" class="node">
<title>Node31</title>
<g id="a_node31"><a xlink:href="classdrain_1_1image_1_1CoordinateHandler2D.html" target="_top" xlink:title=" ">
<polygon fill="white" stroke="black" points="921.5,-252.27 921.5,-271.27 1043.5,-271.27 1043.5,-252.27 921.5,-252.27"/>
<text text-anchor="middle" x="982.5" y="-259.27" font-family="Helvetica,sans-Serif" font-size="10.00">CoordinateHandler2D</text>
</a>
</g>
</g>
<!-- Node21&#45;&gt;Node31 -->
<g id="edge38" class="edge">
<title>Node21&#45;&gt;Node31</title>
<path fill="none" stroke="#9a32cd" stroke-dasharray="5,2" d="M757.44,-230.33C795.14,-234.11 845.03,-239.55 889,-245.77 902.23,-247.65 916.48,-249.96 929.73,-252.24"/>
<polygon fill="#9a32cd" stroke="#9a32cd" points="757.45,-226.81 747.15,-229.3 756.75,-233.78 757.45,-226.81"/>
<text text-anchor="middle" x="846.5" y="-248.77" font-family="Helvetica,sans-Serif" font-size="10.00"> policy</text>
</g>
<!-- Node22 -->
<g id="node22" class="node">
<title>Node22</title>
<g id="a_node22"><a xlink:href="classdrain_1_1UniTuple.html" target="_top" xlink:title=" ">
<polygon fill="white" stroke="black" points="385.5,-206.77 385.5,-236.77 502.5,-236.77 502.5,-206.77 385.5,-206.77"/>
<text text-anchor="start" x="393.5" y="-224.77" font-family="Helvetica,sans-Serif" font-size="10.00">UniTuple&lt; coord_pol</text>
<text text-anchor="middle" x="444" y="-213.77" font-family="Helvetica,sans-Serif" font-size="10.00">_t, 4 &gt;</text>
</a>
</g>
</g>
<!-- Node22&#45;&gt;Node21 -->
<g id="edge22" class="edge">
<title>Node22&#45;&gt;Node21</title>
<path fill="none" stroke="midnightblue" d="M512.73,-222.58C555.42,-223.09 609.53,-223.74 647.95,-224.19"/>
<polygon fill="midnightblue" stroke="midnightblue" points="512.74,-219.08 502.7,-222.46 512.66,-226.08 512.74,-219.08"/>
</g>
<!-- Node23 -->
<g id="node23" class="node">
<title>Node23</title>
<g id="a_node23"><a xlink:href="classdrain_1_1Dictionary2.html" target="_top" xlink:title="Two&#45;way mapping between strings and objects of template class T.">
<polygon fill="white" stroke="black" points="386.5,-256.27 386.5,-275.27 501.5,-275.27 501.5,-256.27 386.5,-256.27"/>
<text text-anchor="middle" x="444" y="-263.27" font-family="Helvetica,sans-Serif" font-size="10.00">Dictionary2&lt; K, V &gt;</text>
</a>
</g>
</g>
<!-- Node23&#45;&gt;Node21 -->
<g id="edge23" class="edge">
<title>Node23&#45;&gt;Node21</title>
<path fill="none" stroke="#9a32cd" stroke-dasharray="5,2" d="M511.82,-254.88C554.66,-247.9 609.3,-238.99 648,-232.68"/>
<polygon fill="#9a32cd" stroke="#9a32cd" points="511.06,-251.46 501.76,-256.52 512.19,-258.37 511.06,-251.46"/>
<text text-anchor="middle" x="557" y="-254.77" font-family="Helvetica,sans-Serif" font-size="10.00"> dict</text>
</g>
<!-- Node24 -->
<g id="node24" class="node">
<title>Node24</title>
<g id="a_node24"><a xlink:title=" ">
<polygon fill="white" stroke="#bfbfbf" points="174,-250.77 174,-280.77 278,-280.77 278,-250.77 174,-250.77"/>
<text text-anchor="start" x="182" y="-268.77" font-family="Helvetica,sans-Serif" font-size="10.00">list&lt; std::pair&lt; K,</text>
<text text-anchor="middle" x="226" y="-257.77" font-family="Helvetica,sans-Serif" font-size="10.00"> V &gt; &gt;</text>
</a>
</g>
</g>
<!-- Node24&#45;&gt;Node23 -->
<g id="edge24" class="edge">
<title>Node24&#45;&gt;Node23</title>
<path fill="none" stroke="midnightblue" d="M288.39,-265.77C319.23,-265.77 356.35,-265.77 386.48,-265.77"/>
<polygon fill="midnightblue" stroke="midnightblue" points="288.19,-262.27 278.19,-265.77 288.19,-269.27 288.19,-262.27"/>
</g>
<!-- Node25 -->
<g id="node25" class="node">
<title>Node25</title>
<g id="a_node25"><a xlink:href="classdrain_1_1CastableIterator.html" target="_top" xlink:title=" ">
<polygon fill="white" stroke="black" points="1076,-111.27 1076,-130.27 1171,-130.27 1171,-111.27 1076,-111.27"/>
<text text-anchor="middle" x="1123.5" y="-118.27" font-family="Helvetica,sans-Serif" font-size="10.00">CastableIterator</text>
</a>
</g>
</g>
<!-- Node25&#45;&gt;Node7 -->
<g id="edge25" class="edge">
<title>Node25&#45;&gt;Node7</title>
<path fill="none" stroke="#9a32cd" stroke-dasharray="5,2" d="M1181.32,-121.89C1242.4,-123.1 1337.83,-124.98 1390.62,-126.02"/>
<polygon fill="#9a32cd" stroke="#9a32cd" points="1181.15,-118.39 1171.08,-121.69 1181.01,-125.39 1181.15,-118.39"/>
<text text-anchor="middle" x="1238.5" y="-138.77" font-family="Helvetica,sans-Serif" font-size="10.00"> segmentEnd</text>
<text text-anchor="middle" x="1238.5" y="-127.77" font-family="Helvetica,sans-Serif" font-size="10.00">segmentBegin</text>
</g>
<!-- Node26&#45;&gt;Node25 -->
<g id="edge26" class="edge">
<title>Node26&#45;&gt;Node25</title>
<path fill="none" stroke="darkgreen" d="M737.7,-122.59C816.08,-122.22 991.78,-121.39 1075.89,-120.99"/>
<polygon fill="darkgreen" stroke="darkgreen" points="737.29,-119.09 727.31,-122.64 737.33,-126.09 737.29,-119.09"/>
</g>
<!-- Node27 -->
<g id="node27" class="node">
<title>Node27</title>
<g id="a_node27"><a xlink:href="classdrain_1_1FlexVariableMap.html" target="_top" xlink:title="A map of FlexVariable:s.">
<polygon fill="white" stroke="black" points="1189,-60.27 1189,-79.27 1288,-79.27 1288,-60.27 1189,-60.27"/>
<text text-anchor="middle" x="1238.5" y="-67.27" font-family="Helvetica,sans-Serif" font-size="10.00">FlexVariableMap</text>
</a>
</g>
</g>
<!-- Node27&#45;&gt;Node7 -->
<g id="edge28" class="edge">
<title>Node27&#45;&gt;Node7</title>
<path fill="none" stroke="#9a32cd" stroke-dasharray="5,2" d="M1298.29,-69.05C1322.18,-70.49 1349.61,-74.44 1373,-83.77 1391.67,-91.22 1409.4,-106.78 1419.74,-116.99"/>
<polygon fill="#9a32cd" stroke="#9a32cd" points="1298.44,-65.55 1288.29,-68.57 1298.11,-72.54 1298.44,-65.55"/>
<text text-anchor="middle" x="1339.5" y="-97.77" font-family="Helvetica,sans-Serif" font-size="10.00"> propertiesPtr</text>
<text text-anchor="middle" x="1339.5" y="-86.77" font-family="Helvetica,sans-Serif" font-size="10.00">properties</text>
</g>
<!-- Node28 -->
<g id="node28" class="node">
<title>Node28</title>
<g id="a_node28"><a xlink:href="classdrain_1_1SmartMap.html" target="_top" xlink:title=" ">
<polygon fill="white" stroke="black" points="907,-52.27 907,-71.27 1058,-71.27 1058,-52.27 907,-52.27"/>
<text text-anchor="middle" x="982.5" y="-59.27" font-family="Helvetica,sans-Serif" font-size="10.00">SmartMap&lt; FlexVariable &gt;</text>
</a>
</g>
</g>
<!-- Node28&#45;&gt;Node27 -->
<g id="edge29" class="edge">
<title>Node28&#45;&gt;Node27</title>
<path fill="none" stroke="midnightblue" d="M1068.37,-64.45C1108.43,-65.71 1154.79,-67.17 1188.83,-68.24"/>
<polygon fill="midnightblue" stroke="midnightblue" points="1068.44,-60.95 1058.33,-64.13 1068.22,-67.94 1068.44,-60.95"/>
</g>
<!-- Node29 -->
<g id="node29" class="node">
<title>Node29</title>
<g id="a_node29"><a xlink:title=" ">
<polygon fill="white" stroke="#bfbfbf" points="609,-37.27 609,-56.27 786,-56.27 786,-37.27 609,-37.27"/>
<text text-anchor="middle" x="697.5" y="-44.27" font-family="Helvetica,sans-Serif" font-size="10.00">map&lt; std::string, FlexVariable &gt;</text>
</a>
</g>
</g>
<!-- Node29&#45;&gt;Node28 -->
<g id="edge30" class="edge">
<title>Node29&#45;&gt;Node28</title>
<path fill="none" stroke="midnightblue" d="M796.2,-51.95C832.41,-53.87 872.86,-56.01 906.71,-57.81"/>
<polygon fill="midnightblue" stroke="midnightblue" points="796.28,-48.45 786.1,-51.42 795.91,-55.44 796.28,-48.45"/>
</g>
<!-- Node30&#45;&gt;Node3 -->
<g id="edge31" class="edge">
<title>Node30&#45;&gt;Node3</title>
<path fill="none" stroke="#9a32cd" stroke-dasharray="5,2" d="M1979.19,-213.77C2003.97,-213.77 2032.06,-213.77 2055.84,-213.77"/>
<polygon fill="#9a32cd" stroke="#9a32cd" points="1979.16,-210.27 1969.16,-213.77 1979.16,-217.27 1979.16,-210.27"/>
<text text-anchor="middle" x="2021" y="-238.77" font-family="Helvetica,sans-Serif" font-size="10.00"> data2</text>
<text text-anchor="middle" x="2021" y="-227.77" font-family="Helvetica,sans-Serif" font-size="10.00">weight</text>
<text text-anchor="middle" x="2021" y="-216.77" font-family="Helvetica,sans-Serif" font-size="10.00">data</text>
</g>
<!-- Node31&#45;&gt;Node3 -->
<g id="edge33" class="edge">
<title>Node31&#45;&gt;Node3</title>
<path fill="none" stroke="#9a32cd" stroke-dasharray="5,2" d="M1053.79,-261.77C1104.79,-261.77 1175.41,-261.77 1237.5,-261.77 1237.5,-261.77 1237.5,-261.77 1915.5,-261.77 1970.3,-261.77 1985.3,-262.78 2038,-247.77 2058.08,-242.05 2079.52,-231.25 2093.73,-223.35"/>
<polygon fill="#9a32cd" stroke="#9a32cd" points="1053.54,-258.27 1043.54,-261.77 1053.54,-265.27 1053.54,-258.27"/>
<text text-anchor="middle" x="1553" y="-264.77" font-family="Helvetica,sans-Serif" font-size="10.00"> coordinateHandler</text>
</g>
<!-- Node32 -->
<g id="node32" class="node">
<title>Node32</title>
<g id="a_node32"><a xlink:href="classdrain_1_1Range.html" target="_top" xlink:title=" ">
<polygon fill="white" stroke="black" points="656,-257.27 656,-276.27 739,-276.27 739,-257.27 656,-257.27"/>
<text text-anchor="middle" x="697.5" y="-264.27" font-family="Helvetica,sans-Serif" font-size="10.00">Range&lt; int &gt;</text>
</a>
</g>
</g>
<!-- Node32&#45;&gt;Node31 -->
<g id="edge34" class="edge">
<title>Node32&#45;&gt;Node31</title>
<path fill="none" stroke="#9a32cd" stroke-dasharray="5,2" d="M749.53,-264.51C766.82,-263.83 786.24,-263.16 804,-262.77 842.97,-261.92 886.77,-261.67 921.11,-261.63"/>
<polygon fill="#9a32cd" stroke="#9a32cd" points="748.92,-261.03 739.07,-264.93 749.2,-268.02 748.92,-261.03"/>
<text text-anchor="middle" x="846.5" y="-276.77" font-family="Helvetica,sans-Serif" font-size="10.00"> yRange</text>
<text text-anchor="middle" x="846.5" y="-265.77" font-family="Helvetica,sans-Serif" font-size="10.00">xRange</text>
</g>
<!-- Node33 -->
<g id="node33" class="node">
<title>Node33</title>
<g id="a_node33"><a xlink:href="classdrain_1_1UniTuple.html" target="_top" xlink:title=" ">
<polygon fill="white" stroke="black" points="391,-294.27 391,-313.27 497,-313.27 497,-294.27 391,-294.27"/>
<text text-anchor="middle" x="444" y="-301.27" font-family="Helvetica,sans-Serif" font-size="10.00">UniTuple&lt; int, 2 &gt;</text>
</a>
</g>
</g>
<!-- Node33&#45;&gt;Node32 -->
<g id="edge35" class="edge">
<title>Node33&#45;&gt;Node32</title>
<path fill="none" stroke="midnightblue" d="M507.04,-294.65C553.38,-287.83 615.4,-278.71 655.64,-272.78"/>
<polygon fill="midnightblue" stroke="midnightblue" points="506.5,-291.19 497.11,-296.11 507.51,-298.11 506.5,-291.19"/>
</g>
<!-- Node34 -->
<g id="node34" class="node">
<title>Node34</title>
<g id="a_node34"><a xlink:href="classdrain_1_1Frame2D.html" target="_top" xlink:title=" ">
<polygon fill="white" stroke="black" points="649.5,-296.27 649.5,-315.27 745.5,-315.27 745.5,-296.27 649.5,-296.27"/>
<text text-anchor="middle" x="697.5" y="-303.27" font-family="Helvetica,sans-Serif" font-size="10.00">Frame2D&lt; int &gt;</text>
</a>
</g>
</g>
<!-- Node33&#45;&gt;Node34 -->
<g id="edge37" class="edge">
<title>Node33&#45;&gt;Node34</title>
<path fill="none" stroke="midnightblue" d="M507.38,-304.27C551.24,-304.62 609.03,-305.08 649.13,-305.4"/>
<polygon fill="midnightblue" stroke="midnightblue" points="507.14,-300.77 497.11,-304.19 507.08,-307.77 507.14,-300.77"/>
</g>
<!-- Node34&#45;&gt;Node31 -->
<g id="edge36" class="edge">
<title>Node34&#45;&gt;Node31</title>
<path fill="none" stroke="#9a32cd" stroke-dasharray="5,2" d="M756.07,-301.45C794.01,-298.1 844.69,-292.69 889,-284.77 908.71,-281.25 930.45,-275.92 947.9,-271.28"/>
<polygon fill="#9a32cd" stroke="#9a32cd" points="755.39,-297.99 745.72,-302.34 755.99,-304.97 755.39,-297.99"/>
<text text-anchor="middle" x="846.5" y="-298.77" font-family="Helvetica,sans-Serif" font-size="10.00"> area</text>
</g>
<!-- Node35 -->
<g id="node35" class="node">
<title>Node35</title>
<g id="a_node35"><a xlink:href="classdrain_1_1image_1_1WeightedAverageMethod.html" target="_top" xlink:title=" ">
<polygon fill="white" stroke="black" points="2455,-180.27 2455,-199.27 2595,-199.27 2595,-180.27 2455,-180.27"/>
<text text-anchor="middle" x="2525" y="-187.27" font-family="Helvetica,sans-Serif" font-size="10.00">WeightedAverageMethod</text>
</a>
</g>
</g>
<!-- Node35&#45;&gt;Node2 -->
<g id="edge39" class="edge">
<title>Node35&#45;&gt;Node2</title>
<path fill="none" stroke="#9a32cd" stroke-dasharray="5,2" d="M2605.11,-189.77C2654.84,-189.77 2716.76,-189.77 2755.85,-189.77"/>
<polygon fill="#9a32cd" stroke="#9a32cd" points="2605.02,-186.27 2595.02,-189.77 2605.02,-193.27 2605.02,-186.27"/>
<text text-anchor="middle" x="2675.5" y="-192.77" font-family="Helvetica,sans-Serif" font-size="10.00"> weightedAverageMethod</text>
</g>
<!-- Node36&#45;&gt;Node2 -->
<g id="edge49" class="edge">
<title>Node36&#45;&gt;Node2</title>
<path fill="none" stroke="#9a32cd" stroke-dasharray="5,2" d="M2428.48,-139.42C2475.61,-139.91 2539.26,-142.01 2595,-148.77 2652.08,-155.69 2717.15,-170.42 2756.89,-180.21"/>
<polygon fill="#9a32cd" stroke="#9a32cd" points="2428.41,-135.92 2418.38,-139.33 2428.35,-142.92 2428.41,-135.92"/>
<text text-anchor="middle" x="2525" y="-162.77" font-family="Helvetica,sans-Serif" font-size="10.00"> methodPtr</text>
<text text-anchor="middle" x="2525" y="-151.77" font-family="Helvetica,sans-Serif" font-size="10.00">undefinedMethod</text>
</g>
<!-- Node36&#45;&gt;Node35 -->
<g id="edge40" class="edge">
<title>Node36&#45;&gt;Node35</title>
<path fill="none" stroke="midnightblue" d="M2400.12,-152.23C2428.69,-160.89 2466.19,-172.25 2492.41,-180.2"/>
<polygon fill="midnightblue" stroke="midnightblue" points="2401.01,-148.85 2390.42,-149.3 2398.98,-155.55 2401.01,-148.85"/>
</g>
<!-- Node40 -->
<g id="node40" class="node">
<title>Node40</title>
<g id="a_node40"><a xlink:href="classdrain_1_1image_1_1MinimumMethod.html" target="_top" xlink:title=" ">
<polygon fill="white" stroke="black" points="2475,-84.27 2475,-103.27 2575,-103.27 2575,-84.27 2475,-84.27"/>
<text text-anchor="middle" x="2525" y="-91.27" font-family="Helvetica,sans-Serif" font-size="10.00">MinimumMethod</text>
</a>
</g>
</g>
<!-- Node36&#45;&gt;Node40 -->
<g id="edge46" class="edge">
<title>Node36&#45;&gt;Node40</title>
<path fill="none" stroke="midnightblue" d="M2402.87,-127.54C2430.13,-119.94 2464.65,-110.32 2489.86,-103.29"/>
<polygon fill="midnightblue" stroke="midnightblue" points="2401.88,-124.18 2393.19,-130.24 2403.76,-130.93 2401.88,-124.18"/>
</g>
<!-- Node41 -->
<g id="node41" class="node">
<title>Node41</title>
<g id="a_node41"><a xlink:href="classdrain_1_1image_1_1OverwriteMethod.html" target="_top" xlink:title=" ">
<polygon fill="white" stroke="black" points="2474.5,-46.27 2474.5,-65.27 2575.5,-65.27 2575.5,-46.27 2474.5,-46.27"/>
<text text-anchor="middle" x="2525" y="-53.27" font-family="Helvetica,sans-Serif" font-size="10.00">OverwriteMethod</text>
</a>
</g>
</g>
<!-- Node36&#45;&gt;Node41 -->
<g id="edge48" class="edge">
<title>Node36&#45;&gt;Node41</title>
<path fill="none" stroke="midnightblue" d="M2378.36,-123.86C2396.98,-109.25 2426.44,-87.94 2455,-74.77 2463.12,-71.03 2472.14,-67.89 2480.9,-65.31"/>
<polygon fill="midnightblue" stroke="midnightblue" points="2376,-121.26 2370.37,-130.23 2380.37,-126.73 2376,-121.26"/>
</g>
<!-- Node42 -->
<g id="node42" class="node">
<title>Node42</title>
<g id="a_node42"><a xlink:href="classdrain_1_1image_1_1MaximumWeightMethod.html" target="_top" xlink:title=" ">
<polygon fill="white" stroke="black" points="2456.5,-8.27 2456.5,-27.27 2593.5,-27.27 2593.5,-8.27 2456.5,-8.27"/>
<text text-anchor="middle" x="2525" y="-15.27" font-family="Helvetica,sans-Serif" font-size="10.00">MaximumWeightMethod</text>
</a>
</g>
</g>
<!-- Node36&#45;&gt;Node42 -->
<g id="edge51" class="edge">
<title>Node36&#45;&gt;Node42</title>
<path fill="none" stroke="midnightblue" d="M2371.03,-121.63C2387.34,-98.48 2418.62,-58.81 2455,-36.77 2461.38,-32.91 2468.55,-29.82 2475.81,-27.34"/>
<polygon fill="midnightblue" stroke="midnightblue" points="2367.95,-119.94 2365.18,-130.17 2373.72,-123.9 2367.95,-119.94"/>
</g>
<!-- Node43 -->
<g id="node43" class="node">
<title>Node43</title>
<g id="a_node43"><a xlink:href="classdrain_1_1image_1_1AverageMethod.html" target="_top" xlink:title=" ">
<polygon fill="white" stroke="black" points="2478.5,-256.27 2478.5,-275.27 2571.5,-275.27 2571.5,-256.27 2478.5,-256.27"/>
<text text-anchor="middle" x="2525" y="-263.27" font-family="Helvetica,sans-Serif" font-size="10.00">AverageMethod</text>
</a>
</g>
</g>
<!-- Node36&#45;&gt;Node43 -->
<g id="edge53" class="edge">
<title>Node36&#45;&gt;Node43</title>
<path fill="none" stroke="midnightblue" d="M2370.41,-157.95C2386.39,-181.91 2417.72,-223.7 2455,-246.77 2462.08,-251.15 2470.18,-254.54 2478.28,-257.16"/>
<polygon fill="midnightblue" stroke="midnightblue" points="2373.26,-155.91 2364.88,-149.44 2367.39,-159.73 2373.26,-155.91"/>
</g>
<!-- Node44 -->
<g id="node44" class="node">
<title>Node44</title>
<g id="a_node44"><a xlink:href="classdrain_1_1image_1_1MaximumMethod.html" target="_top" xlink:title=" ">
<polygon fill="white" stroke="black" points="2473.5,-218.27 2473.5,-237.27 2576.5,-237.27 2576.5,-218.27 2473.5,-218.27"/>
<text text-anchor="middle" x="2525" y="-225.27" font-family="Helvetica,sans-Serif" font-size="10.00">MaximumMethod</text>
</a>
</g>
</g>
<!-- Node36&#45;&gt;Node44 -->
<g id="edge55" class="edge">
<title>Node36&#45;&gt;Node44</title>
<path fill="none" stroke="midnightblue" d="M2377.33,-156.01C2395.77,-171.58 2425.61,-194.72 2455,-208.77 2462.85,-212.52 2471.56,-215.64 2480.08,-218.2"/>
<polygon fill="midnightblue" stroke="midnightblue" points="2379.56,-153.32 2369.7,-149.45 2375,-158.63 2379.56,-153.32"/>
</g>
<!-- Node37 -->
<g id="node37" class="node">
<title>Node37</title>
<g id="a_node37"><a xlink:href="classdrain_1_1ReferenceMap.html" target="_top" xlink:title=" ">
<polygon fill="white" stroke="black" points="2067.5,-128.27 2067.5,-147.27 2154.5,-147.27 2154.5,-128.27 2067.5,-128.27"/>
<text text-anchor="middle" x="2111" y="-135.27" font-family="Helvetica,sans-Serif" font-size="10.00">ReferenceMap</text>
</a>
</g>
</g>
<!-- Node37&#45;&gt;Node36 -->
<g id="edge41" class="edge">
<title>Node37&#45;&gt;Node36</title>
<path fill="none" stroke="#9a32cd" stroke-dasharray="5,2" d="M2164.81,-138.2C2203.93,-138.52 2257.28,-138.96 2297.84,-139.29"/>
<polygon fill="#9a32cd" stroke="#9a32cd" points="2164.7,-134.7 2154.68,-138.12 2164.65,-141.7 2164.7,-134.7"/>
<text text-anchor="middle" x="2232" y="-142.77" font-family="Helvetica,sans-Serif" font-size="10.00"> parameters</text>
</g>
<!-- Node38 -->
<g id="node38" class="node">
<title>Node38</title>
<g id="a_node38"><a xlink:href="classdrain_1_1SmartMap.html" target="_top" xlink:title=" ">
<polygon fill="white" stroke="black" points="1843,-128.27 1843,-147.27 1986,-147.27 1986,-128.27 1843,-128.27"/>
<text text-anchor="middle" x="1914.5" y="-135.27" font-family="Helvetica,sans-Serif" font-size="10.00">SmartMap&lt; Referencer &gt;</text>
</a>
</g>
</g>
<!-- Node38&#45;&gt;Node37 -->
<g id="edge42" class="edge">
<title>Node38&#45;&gt;Node37</title>
<path fill="none" stroke="midnightblue" d="M1996.57,-137.77C2020.86,-137.77 2046.53,-137.77 2067.29,-137.77"/>
<polygon fill="midnightblue" stroke="midnightblue" points="1996.27,-134.27 1986.27,-137.77 1996.27,-141.27 1996.27,-134.27"/>
</g>
<!-- Node39 -->
<g id="node39" class="node">
<title>Node39</title>
<g id="a_node39"><a xlink:title=" ">
<polygon fill="white" stroke="#bfbfbf" points="1637,-128.27 1637,-147.27 1806,-147.27 1806,-128.27 1637,-128.27"/>
<text text-anchor="middle" x="1721.5" y="-135.27" font-family="Helvetica,sans-Serif" font-size="10.00">map&lt; std::string, Referencer &gt;</text>
</a>
</g>
</g>
<!-- Node39&#45;&gt;Node38 -->
<g id="edge43" class="edge">
<title>Node39&#45;&gt;Node38</title>
<path fill="none" stroke="midnightblue" d="M1816.35,-137.77C1825.29,-137.77 1834.25,-137.77 1842.92,-137.77"/>
<polygon fill="midnightblue" stroke="midnightblue" points="1816.28,-134.27 1806.28,-137.77 1816.28,-141.27 1816.28,-134.27"/>
</g>
<!-- Node40&#45;&gt;Node2 -->
<g id="edge45" class="edge">
<title>Node40&#45;&gt;Node2</title>
<path fill="none" stroke="#9a32cd" stroke-dasharray="5,2" d="M2585.35,-87.29C2630.12,-85.2 2691.54,-88.54 2738,-114.77 2764.74,-129.88 2782.52,-163.56 2790,-180.15"/>
<polygon fill="#9a32cd" stroke="#9a32cd" points="2585,-83.8 2575.21,-87.87 2585.39,-90.79 2585,-83.8"/>
<text text-anchor="middle" x="2675.5" y="-117.77" font-family="Helvetica,sans-Serif" font-size="10.00"> minimumMethod</text>
</g>
<!-- Node41&#45;&gt;Node2 -->
<g id="edge47" class="edge">
<title>Node41&#45;&gt;Node2</title>
<path fill="none" stroke="#9a32cd" stroke-dasharray="5,2" d="M2585.65,-45.53C2631.3,-41.01 2693.73,-42.34 2738,-72.77 2775.67,-98.67 2788.81,-157.06 2792.64,-180.13"/>
<polygon fill="#9a32cd" stroke="#9a32cd" points="2585.15,-42.06 2575.6,-46.65 2585.93,-49.02 2585.15,-42.06"/>
<text text-anchor="middle" x="2675.5" y="-75.77" font-family="Helvetica,sans-Serif" font-size="10.00"> overwriteMethod</text>
</g>
<!-- Node42&#45;&gt;Node2 -->
<g id="edge50" class="edge">
<title>Node42&#45;&gt;Node2</title>
<path fill="none" stroke="#9a32cd" stroke-dasharray="5,2" d="M2572.97,-6.36C2619.6,2.06 2690.77,6.68 2738,-28.77 2787.94,-66.26 2793.6,-151.33 2794.05,-180.07"/>
<polygon fill="#9a32cd" stroke="#9a32cd" points="2572.28,-2.93 2563.12,-8.26 2573.6,-9.8 2572.28,-2.93"/>
<text text-anchor="middle" x="2675.5" y="-31.77" font-family="Helvetica,sans-Serif" font-size="10.00"> maximumWeightMethod</text>
</g>
<!-- Node43&#45;&gt;Node2 -->
<g id="edge52" class="edge">
<title>Node43&#45;&gt;Node2</title>
<path fill="none" stroke="#9a32cd" stroke-dasharray="5,2" d="M2581.97,-265.55C2626.03,-263.53 2688.12,-256.51 2738,-234.77 2756.98,-226.5 2774.89,-210.04 2785.14,-199.48"/>
<polygon fill="#9a32cd" stroke="#9a32cd" points="2581.59,-262.06 2571.73,-265.95 2581.86,-269.06 2581.59,-262.06"/>
<text text-anchor="middle" x="2675.5" y="-265.77" font-family="Helvetica,sans-Serif" font-size="10.00"> averageMethod</text>
</g>
<!-- Node44&#45;&gt;Node2 -->
<g id="edge54" class="edge">
<title>Node44&#45;&gt;Node2</title>
<path fill="none" stroke="#9a32cd" stroke-dasharray="5,2" d="M2587.01,-223.02C2629.54,-219.18 2687.49,-212.9 2738,-203.77 2744.8,-202.54 2752.01,-200.96 2758.9,-199.3"/>
<polygon fill="#9a32cd" stroke="#9a32cd" points="2586.47,-219.55 2576.82,-223.92 2587.09,-226.53 2586.47,-219.55"/>
<text text-anchor="middle" x="2675.5" y="-222.77" font-family="Helvetica,sans-Serif" font-size="10.00"> maximumMethod</text>
</g>
<!-- Node45 -->
<g id="node45" class="node">
<title>Node45</title>
<g id="a_node45"><a xlink:href="classdrain_1_1image_1_1GeoFrame.html" target="_top" xlink:title="Array with georeferencing support.">
<polygon fill="white" stroke="black" points="664,-334.27 664,-353.27 731,-353.27 731,-334.27 664,-334.27"/>
<text text-anchor="middle" x="697.5" y="-341.27" font-family="Helvetica,sans-Serif" font-size="10.00">GeoFrame</text>
</a>
</g>
</g>
<!-- Node45&#45;&gt;Node1 -->
<g id="edge56" class="edge">
<title>Node45&#45;&gt;Node1</title>
<path fill="none" stroke="midnightblue" d="M741.33,-343.28C796.76,-342.69 896.34,-341.77 981.5,-341.77 981.5,-341.77 981.5,-341.77 2796,-341.77 2834.44,-341.77 2876.75,-324.62 2900.38,-313.36"/>
<polygon fill="midnightblue" stroke="midnightblue" points="741.14,-339.78 731.18,-343.39 741.22,-346.78 741.14,-339.78"/>
</g>
<!-- Node46 -->
<g id="node46" class="node">
<title>Node46</title>
<g id="a_node46"><a xlink:href="classdrain_1_1Proj4.html" target="_top" xlink:title=" ">
<polygon fill="white" stroke="black" points="423.5,-410.27 423.5,-429.27 464.5,-429.27 464.5,-410.27 423.5,-410.27"/>
<text text-anchor="middle" x="444" y="-417.27" font-family="Helvetica,sans-Serif" font-size="10.00">Proj4</text>
</a>
</g>
</g>
<!-- Node46&#45;&gt;Node45 -->
<g id="edge57" class="edge">
<title>Node46&#45;&gt;Node45</title>
<path fill="none" stroke="#9a32cd" stroke-dasharray="5,2" d="M475.05,-418.09C505.03,-415.75 552.1,-410.29 591,-397.77 625.08,-386.81 661.57,-365.8 681.45,-353.47"/>
<polygon fill="#9a32cd" stroke="#9a32cd" points="474.55,-414.61 464.83,-418.81 475.05,-421.6 474.55,-414.61"/>
<text text-anchor="middle" x="557" y="-414.77" font-family="Helvetica,sans-Serif" font-size="10.00"> projR2M</text>
</g>
<!-- Node47 -->
<g id="node47" class="node">
<title>Node47</title>
<g id="a_node47"><a xlink:href="classdrain_1_1Dictionary2.html" target="_top" xlink:title=" ">
<polygon fill="white" stroke="black" points="167,-404.77 167,-434.77 285,-434.77 285,-404.77 167,-404.77"/>
<text text-anchor="start" x="175" y="-422.77" font-family="Helvetica,sans-Serif" font-size="10.00">Dictionary2&lt; int, std</text>
<text text-anchor="middle" x="226" y="-411.77" font-family="Helvetica,sans-Serif" font-size="10.00">::string &gt;</text>
</a>
</g>
</g>
<!-- Node47&#45;&gt;Node46 -->
<g id="edge58" class="edge">
<title>Node47&#45;&gt;Node46</title>
<path fill="none" stroke="#9a32cd" stroke-dasharray="5,2" d="M295.36,-419.77C339.87,-419.77 394.8,-419.77 423.48,-419.77"/>
<polygon fill="#9a32cd" stroke="#9a32cd" points="295.17,-416.27 285.17,-419.77 295.17,-423.27 295.17,-416.27"/>
<text text-anchor="middle" x="336" y="-422.77" font-family="Helvetica,sans-Serif" font-size="10.00"> epsgDict</text>
</g>
<!-- Node48 -->
<g id="node48" class="node">
<title>Node48</title>
<g id="a_node48"><a xlink:title=" ">
<polygon fill="white" stroke="#bfbfbf" points="8,-404.77 8,-434.77 118,-434.77 118,-404.77 8,-404.77"/>
<text text-anchor="start" x="16" y="-422.77" font-family="Helvetica,sans-Serif" font-size="10.00">list&lt; std::pair&lt; int,</text>
<text text-anchor="middle" x="63" y="-411.77" font-family="Helvetica,sans-Serif" font-size="10.00"> std::string &gt; &gt;</text>
</a>
</g>
</g>
<!-- Node48&#45;&gt;Node47 -->
<g id="edge59" class="edge">
<title>Node48&#45;&gt;Node47</title>
<path fill="none" stroke="midnightblue" d="M128.18,-419.77C140.98,-419.77 154.36,-419.77 166.94,-419.77"/>
<polygon fill="midnightblue" stroke="midnightblue" points="128.06,-416.27 118.06,-419.77 128.06,-423.27 128.06,-416.27"/>
</g>
<!-- Node49&#45;&gt;Node45 -->
<g id="edge60" class="edge">
<title>Node49&#45;&gt;Node45</title>
<path fill="none" stroke="#9a32cd" stroke-dasharray="5,2" d="M514.81,-342.21C538.94,-342.38 566.16,-342.57 591,-342.77 615.36,-342.97 642.88,-343.23 663.71,-343.44"/>
<polygon fill="#9a32cd" stroke="#9a32cd" points="514.69,-338.71 504.67,-342.15 514.65,-345.71 514.69,-338.71"/>
<text text-anchor="middle" x="557" y="-389.77" font-family="Helvetica,sans-Serif" font-size="10.00"> extentNative</text>
<text text-anchor="middle" x="557" y="-378.77" font-family="Helvetica,sans-Serif" font-size="10.00">extentR</text>
<text text-anchor="middle" x="557" y="-367.77" font-family="Helvetica,sans-Serif" font-size="10.00">dataExtentD</text>
<text text-anchor="middle" x="557" y="-356.77" font-family="Helvetica,sans-Serif" font-size="10.00">extentD</text>
<text text-anchor="middle" x="557" y="-345.77" font-family="Helvetica,sans-Serif" font-size="10.00">dataOverlapD</text>
</g>
<!-- Node50&#45;&gt;Node49 -->
<g id="edge62" class="edge">
<title>Node50&#45;&gt;Node49</title>
<path fill="none" stroke="#9a32cd" stroke-dasharray="5,2" d="M291.32,-324.92C320.51,-328.16 354.83,-331.98 383.43,-335.15"/>
<polygon fill="#9a32cd" stroke="#9a32cd" points="291.55,-321.42 281.23,-323.8 290.78,-328.38 291.55,-321.42"/>
<text text-anchor="middle" x="336" y="-345.77" font-family="Helvetica,sans-Serif" font-size="10.00"> lowerLeft</text>
<text text-anchor="middle" x="336" y="-334.77" font-family="Helvetica,sans-Serif" font-size="10.00">upperRight</text>
</g>
</g>
</svg>
