<?xml version="1.0" encoding="UTF-8" standalone="no"?>
<!DOCTYPE svg PUBLIC "-//W3C//DTD SVG 1.1//EN"
 "http://www.w3.org/Graphics/SVG/1.1/DTD/svg11.dtd">
<!-- Generated by graphviz version 2.43.0 (0)
 -->
<!-- Title: ImageSampler Pages: 1 -->
<svg width="307pt" height="354pt"
 viewBox="0.00 0.00 306.50 354.00" xmlns="http://www.w3.org/2000/svg" xmlns:xlink="http://www.w3.org/1999/xlink">
<g id="graph0" class="graph" transform="scale(1 1) rotate(0) translate(4 350)">
<title>ImageSampler</title>
<polygon fill="white" stroke="transparent" points="-4,4 -4,-350 302.5,-350 302.5,4 -4,4"/>
<!-- Node1 -->
<g id="node1" class="node">
<title>Node1</title>
<g id="a_node1"><a xlink:title="Traverses image, returning samples.">
<polygon fill="#bfbfbf" stroke="black" points="38.5,-0.5 38.5,-19.5 126.5,-19.5 126.5,-0.5 38.5,-0.5"/>
<text text-anchor="middle" x="82.5" y="-7.5" font-family="Helvetica,sans-Serif" font-size="10.00">ImageSampler</text>
</a>
</g>
</g>
<!-- Node2 -->
<g id="node2" class="node">
<title>Node2</title>
<g id="a_node2"><a xlink:href="classdrain_1_1image_1_1ImageMod.html" target="_top" xlink:title="Class for operations that modify an existing image instead of producing a new image.">
<polygon fill="white" stroke="black" points="8.5,-67.5 8.5,-86.5 76.5,-86.5 76.5,-67.5 8.5,-67.5"/>
<text text-anchor="middle" x="42.5" y="-74.5" font-family="Helvetica,sans-Serif" font-size="10.00">ImageMod</text>
</a>
</g>
</g>
<!-- Node2&#45;&gt;Node1 -->
<g id="edge1" class="edge">
<title>Node2&#45;&gt;Node1</title>
<path fill="none" stroke="midnightblue" d="M53.25,-58.53C60.99,-45.95 71.11,-29.51 77.19,-19.63"/>
<polygon fill="midnightblue" stroke="midnightblue" points="50.15,-56.88 47.89,-67.23 56.12,-60.55 50.15,-56.88"/>
</g>
<!-- Node3 -->
<g id="node3" class="node">
<title>Node3</title>
<g id="a_node3"><a xlink:href="classdrain_1_1BeanLike.html" target="_top" xlink:title="Something which has a name, a description and possibly some parameters of varying type.">
<polygon fill="white" stroke="black" points="16,-145.5 16,-164.5 77,-164.5 77,-145.5 16,-145.5"/>
<text text-anchor="middle" x="46.5" y="-152.5" font-family="Helvetica,sans-Serif" font-size="10.00">BeanLike</text>
</a>
</g>
</g>
<!-- Node3&#45;&gt;Node2 -->
<g id="edge2" class="edge">
<title>Node3&#45;&gt;Node2</title>
<path fill="none" stroke="midnightblue" d="M45.51,-135.22C44.69,-119.7 43.57,-98.36 42.95,-86.62"/>
<polygon fill="midnightblue" stroke="midnightblue" points="42.02,-135.48 46.04,-145.28 49.01,-135.11 42.02,-135.48"/>
</g>
<!-- Node7 -->
<g id="node7" class="node">
<title>Node7</title>
<g id="a_node7"><a xlink:href="classdrain_1_1image_1_1Sampler.html" target="_top" xlink:title="Utility for sampling images (2D data), outputting formatted text data.">
<polygon fill="white" stroke="black" points="95,-67.5 95,-86.5 152,-86.5 152,-67.5 95,-67.5"/>
<text text-anchor="middle" x="123.5" y="-74.5" font-family="Helvetica,sans-Serif" font-size="10.00">Sampler</text>
</a>
</g>
</g>
<!-- Node3&#45;&gt;Node7 -->
<g id="edge7" class="edge">
<title>Node3&#45;&gt;Node7</title>
<path fill="none" stroke="midnightblue" d="M62.84,-137.88C78.7,-122.22 102.18,-99.04 114.77,-86.62"/>
<polygon fill="midnightblue" stroke="midnightblue" points="59.99,-135.77 55.33,-145.28 64.91,-140.75 59.99,-135.77"/>
</g>
<!-- Node4 -->
<g id="node4" class="node">
<title>Node4</title>
<g id="a_node4"><a xlink:href="classdrain_1_1ReferenceMap.html" target="_top" xlink:title=" ">
<polygon fill="white" stroke="black" points="41,-212.5 41,-231.5 128,-231.5 128,-212.5 41,-212.5"/>
<text text-anchor="middle" x="84.5" y="-219.5" font-family="Helvetica,sans-Serif" font-size="10.00">ReferenceMap</text>
</a>
</g>
</g>
<!-- Node4&#45;&gt;Node3 -->
<g id="edge3" class="edge">
<title>Node4&#45;&gt;Node3</title>
<path fill="none" stroke="#9a32cd" stroke-dasharray="5,2" d="M58.06,-206.49C53.83,-202.97 50.02,-198.81 47.5,-194 42.72,-184.88 43.39,-172.77 44.65,-164.69"/>
<polygon fill="#9a32cd" stroke="#9a32cd" points="56.3,-209.53 66.48,-212.47 60.35,-203.82 56.3,-209.53"/>
<text text-anchor="middle" x="77.5" y="-186" font-family="Helvetica,sans-Serif" font-size="10.00"> parameters</text>
</g>
<!-- Node4&#45;&gt;Node7 -->
<g id="edge10" class="edge">
<title>Node4&#45;&gt;Node7</title>
<path fill="none" stroke="#9a32cd" stroke-dasharray="5,2" d="M100.74,-204.86C103.38,-201.5 105.79,-197.81 107.5,-194 124.21,-156.71 124.54,-106.47 123.92,-86.6"/>
<polygon fill="#9a32cd" stroke="#9a32cd" points="98.05,-202.62 94.05,-212.42 103.3,-207.26 98.05,-202.62"/>
<text text-anchor="middle" x="153.5" y="-152.5" font-family="Helvetica,sans-Serif" font-size="10.00"> variableMap</text>
</g>
<!-- Node5 -->
<g id="node5" class="node">
<title>Node5</title>
<g id="a_node5"><a xlink:href="classdrain_1_1SmartMap.html" target="_top" xlink:title=" ">
<polygon fill="white" stroke="black" points="13,-269.5 13,-288.5 156,-288.5 156,-269.5 13,-269.5"/>
<text text-anchor="middle" x="84.5" y="-276.5" font-family="Helvetica,sans-Serif" font-size="10.00">SmartMap&lt; Referencer &gt;</text>
</a>
</g>
</g>
<!-- Node5&#45;&gt;Node4 -->
<g id="edge4" class="edge">
<title>Node5&#45;&gt;Node4</title>
<path fill="none" stroke="midnightblue" d="M84.5,-259.12C84.5,-249.82 84.5,-239.06 84.5,-231.71"/>
<polygon fill="midnightblue" stroke="midnightblue" points="81,-259.41 84.5,-269.41 88,-259.41 81,-259.41"/>
</g>
<!-- Node6 -->
<g id="node6" class="node">
<title>Node6</title>
<g id="a_node6"><a xlink:title=" ">
<polygon fill="white" stroke="#bfbfbf" points="0,-326.5 0,-345.5 169,-345.5 169,-326.5 0,-326.5"/>
<text text-anchor="middle" x="84.5" y="-333.5" font-family="Helvetica,sans-Serif" font-size="10.00">map&lt; std::string, Referencer &gt;</text>
</a>
</g>
</g>
<!-- Node6&#45;&gt;Node5 -->
<g id="edge5" class="edge">
<title>Node6&#45;&gt;Node5</title>
<path fill="none" stroke="midnightblue" d="M84.5,-316.12C84.5,-306.82 84.5,-296.06 84.5,-288.71"/>
<polygon fill="midnightblue" stroke="midnightblue" points="81,-316.41 84.5,-326.41 88,-316.41 81,-316.41"/>
</g>
<!-- Node7&#45;&gt;Node1 -->
<g id="edge6" class="edge">
<title>Node7&#45;&gt;Node1</title>
<path fill="none" stroke="#9a32cd" stroke-dasharray="5,2" d="M112.48,-58.53C104.55,-45.95 94.17,-29.51 87.94,-19.63"/>
<polygon fill="#9a32cd" stroke="#9a32cd" points="109.68,-60.64 117.97,-67.23 115.6,-56.91 109.68,-60.64"/>
<text text-anchor="middle" x="127" y="-41" font-family="Helvetica,sans-Serif" font-size="10.00"> sampler</text>
</g>
<!-- Node8 -->
<g id="node8" class="node">
<title>Node8</title>
<g id="a_node8"><a xlink:href="classdrain_1_1Range.html" target="_top" xlink:title=" ">
<polygon fill="white" stroke="black" points="204,-145.5 204,-164.5 287,-164.5 287,-145.5 204,-145.5"/>
<text text-anchor="middle" x="245.5" y="-152.5" font-family="Helvetica,sans-Serif" font-size="10.00">Range&lt; int &gt;</text>
</a>
</g>
</g>
<!-- Node8&#45;&gt;Node7 -->
<g id="edge8" class="edge">
<title>Node8&#45;&gt;Node7</title>
<path fill="none" stroke="#9a32cd" stroke-dasharray="5,2" d="M223,-139.98C197.93,-124.36 158.19,-99.61 137.33,-86.62"/>
<polygon fill="#9a32cd" stroke="#9a32cd" points="221.17,-142.97 231.51,-145.28 224.87,-137.02 221.17,-142.97"/>
<text text-anchor="middle" x="218" y="-119" font-family="Helvetica,sans-Serif" font-size="10.00"> jRange</text>
<text text-anchor="middle" x="218" y="-108" font-family="Helvetica,sans-Serif" font-size="10.00">iRange</text>
</g>
<!-- Node9 -->
<g id="node9" class="node">
<title>Node9</title>
<g id="a_node9"><a xlink:href="classdrain_1_1UniTuple.html" target="_top" xlink:title=" ">
<polygon fill="white" stroke="black" points="192.5,-212.5 192.5,-231.5 298.5,-231.5 298.5,-212.5 192.5,-212.5"/>
<text text-anchor="middle" x="245.5" y="-219.5" font-family="Helvetica,sans-Serif" font-size="10.00">UniTuple&lt; int, 2 &gt;</text>
</a>
</g>
</g>
<!-- Node9&#45;&gt;Node8 -->
<g id="edge9" class="edge">
<title>Node9&#45;&gt;Node8</title>
<path fill="none" stroke="midnightblue" d="M245.5,-202.04C245.5,-189.67 245.5,-174.12 245.5,-164.63"/>
<polygon fill="midnightblue" stroke="midnightblue" points="242,-202.23 245.5,-212.23 249,-202.23 242,-202.23"/>
</g>
</g>
</svg>
