<?xml version="1.0" encoding="UTF-8" standalone="no"?>
<!DOCTYPE svg PUBLIC "-//W3C//DTD SVG 1.1//EN"
 "http://www.w3.org/Graphics/SVG/1.1/DTD/svg11.dtd">
<!-- Generated by graphviz version 2.43.0 (0)
 -->
<!-- Title: BinaryFunctor Pages: 1 -->
<svg width="433pt" height="256pt"
 viewBox="0.00 0.00 433.00 256.00" xmlns="http://www.w3.org/2000/svg" xmlns:xlink="http://www.w3.org/1999/xlink">
<g id="graph0" class="graph" transform="scale(1 1) rotate(0) translate(4 252)">
<title>BinaryFunctor</title>
<polygon fill="white" stroke="transparent" points="-4,4 -4,-252 429,-252 429,4 -4,4"/>
<!-- Node1 -->
<g id="node1" class="node">
<title>Node1</title>
<g id="a_node1"><a xlink:title=" ">
<polygon fill="#bfbfbf" stroke="black" points="186,-114.5 186,-133.5 270,-133.5 270,-114.5 186,-114.5"/>
<text text-anchor="middle" x="228" y="-121.5" font-family="Helvetica,sans-Serif" font-size="10.00">BinaryFunctor</text>
</a>
</g>
</g>
<!-- Node4 -->
<g id="node4" class="node">
<title>Node4</title>
<g id="a_node4"><a xlink:href="classdrain_1_1AdditionFunctor.html" target="_top" xlink:title="Adds a intensity values .">
<polygon fill="white" stroke="black" points="319,-228.5 319,-247.5 412,-247.5 412,-228.5 319,-228.5"/>
<text text-anchor="middle" x="365.5" y="-235.5" font-family="Helvetica,sans-Serif" font-size="10.00">AdditionFunctor</text>
</a>
</g>
</g>
<!-- Node1&#45;&gt;Node4 -->
<g id="edge3" class="edge">
<title>Node1&#45;&gt;Node4</title>
<path fill="none" stroke="midnightblue" d="M239.36,-142.38C252.31,-163.75 276.41,-198.67 306,-219 311.63,-222.87 318.11,-225.99 324.65,-228.5"/>
<polygon fill="midnightblue" stroke="midnightblue" points="242.3,-140.47 234.22,-133.62 236.26,-144.01 242.3,-140.47"/>
</g>
<!-- Node5 -->
<g id="node5" class="node">
<title>Node5</title>
<g id="a_node5"><a xlink:href="classdrain_1_1DivisionFunctor.html" target="_top" xlink:title="Divides image by another image.">
<polygon fill="white" stroke="black" points="319.5,-190.5 319.5,-209.5 411.5,-209.5 411.5,-190.5 319.5,-190.5"/>
<text text-anchor="middle" x="365.5" y="-197.5" font-family="Helvetica,sans-Serif" font-size="10.00">DivisionFunctor</text>
</a>
</g>
</g>
<!-- Node1&#45;&gt;Node5 -->
<g id="edge4" class="edge">
<title>Node1&#45;&gt;Node5</title>
<path fill="none" stroke="midnightblue" d="M247.64,-140.51C262.57,-153.03 284.49,-169.92 306,-181 313.12,-184.67 321.09,-187.82 328.8,-190.44"/>
<polygon fill="midnightblue" stroke="midnightblue" points="249.59,-137.57 239.72,-133.72 245.04,-142.88 249.59,-137.57"/>
</g>
<!-- Node6 -->
<g id="node6" class="node">
<title>Node6</title>
<g id="a_node6"><a xlink:href="classdrain_1_1MaximumFunctor.html" target="_top" xlink:title=" ">
<polygon fill="white" stroke="black" points="314.5,-152.5 314.5,-171.5 416.5,-171.5 416.5,-152.5 314.5,-152.5"/>
<text text-anchor="middle" x="365.5" y="-159.5" font-family="Helvetica,sans-Serif" font-size="10.00">MaximumFunctor</text>
</a>
</g>
</g>
<!-- Node1&#45;&gt;Node6 -->
<g id="edge5" class="edge">
<title>Node1&#45;&gt;Node6</title>
<path fill="none" stroke="midnightblue" d="M272.92,-136.32C291.54,-141.54 312.91,-147.53 330.32,-152.41"/>
<polygon fill="midnightblue" stroke="midnightblue" points="273.77,-132.92 263.19,-133.59 271.88,-139.66 273.77,-132.92"/>
</g>
<!-- Node7 -->
<g id="node7" class="node">
<title>Node7</title>
<g id="a_node7"><a xlink:href="classdrain_1_1MinimumFunctor.html" target="_top" xlink:title="Minimum intensity. Prescaled input.">
<polygon fill="white" stroke="black" points="316,-114.5 316,-133.5 415,-133.5 415,-114.5 316,-114.5"/>
<text text-anchor="middle" x="365.5" y="-121.5" font-family="Helvetica,sans-Serif" font-size="10.00">MinimumFunctor</text>
</a>
</g>
</g>
<!-- Node1&#45;&gt;Node7 -->
<g id="edge6" class="edge">
<title>Node1&#45;&gt;Node7</title>
<path fill="none" stroke="midnightblue" d="M280.13,-124C291.88,-124 304.35,-124 315.99,-124"/>
<polygon fill="midnightblue" stroke="midnightblue" points="280.02,-120.5 270.02,-124 280.02,-127.5 280.02,-120.5"/>
</g>
<!-- Node8 -->
<g id="node8" class="node">
<title>Node8</title>
<g id="a_node8"><a xlink:href="classdrain_1_1MixerFunctor.html" target="_top" xlink:title="Blends an image to another with given proportion.">
<polygon fill="white" stroke="black" points="325.5,-76.5 325.5,-95.5 405.5,-95.5 405.5,-76.5 325.5,-76.5"/>
<text text-anchor="middle" x="365.5" y="-83.5" font-family="Helvetica,sans-Serif" font-size="10.00">MixerFunctor</text>
</a>
</g>
</g>
<!-- Node1&#45;&gt;Node8 -->
<g id="edge7" class="edge">
<title>Node1&#45;&gt;Node8</title>
<path fill="none" stroke="midnightblue" d="M272.92,-111.68C291.54,-106.46 312.91,-100.47 330.32,-95.59"/>
<polygon fill="midnightblue" stroke="midnightblue" points="271.88,-108.34 263.19,-114.41 273.77,-115.08 271.88,-108.34"/>
</g>
<!-- Node9 -->
<g id="node9" class="node">
<title>Node9</title>
<g id="a_node9"><a xlink:href="classdrain_1_1MultiplicationFunctor.html" target="_top" xlink:title="Multiplies two images, with optional post scaling and offset.">
<polygon fill="white" stroke="black" points="306,-38.5 306,-57.5 425,-57.5 425,-38.5 306,-38.5"/>
<text text-anchor="middle" x="365.5" y="-45.5" font-family="Helvetica,sans-Serif" font-size="10.00">MultiplicationFunctor</text>
</a>
</g>
</g>
<!-- Node1&#45;&gt;Node9 -->
<g id="edge8" class="edge">
<title>Node1&#45;&gt;Node9</title>
<path fill="none" stroke="midnightblue" d="M247.64,-107.49C262.57,-94.97 284.49,-78.08 306,-67 313.12,-63.33 321.09,-60.18 328.8,-57.56"/>
<polygon fill="midnightblue" stroke="midnightblue" points="245.04,-105.12 239.72,-114.28 249.59,-110.43 245.04,-105.12"/>
</g>
<!-- Node10 -->
<g id="node10" class="node">
<title>Node10</title>
<g id="a_node10"><a xlink:href="classdrain_1_1SubtractionFunctor.html" target="_top" xlink:title="Subtracts image from another image.">
<polygon fill="white" stroke="black" points="311.5,-0.5 311.5,-19.5 419.5,-19.5 419.5,-0.5 311.5,-0.5"/>
<text text-anchor="middle" x="365.5" y="-7.5" font-family="Helvetica,sans-Serif" font-size="10.00">SubtractionFunctor</text>
</a>
</g>
</g>
<!-- Node1&#45;&gt;Node10 -->
<g id="edge9" class="edge">
<title>Node1&#45;&gt;Node10</title>
<path fill="none" stroke="midnightblue" d="M239.36,-105.62C252.31,-84.25 276.41,-49.33 306,-29 311.63,-25.13 318.11,-22.01 324.65,-19.5"/>
<polygon fill="midnightblue" stroke="midnightblue" points="236.26,-103.99 234.22,-114.38 242.3,-107.53 236.26,-103.99"/>
</g>
<!-- Node2 -->
<g id="node2" class="node">
<title>Node2</title>
<g id="a_node2"><a xlink:href="classdrain_1_1Functor.html" target="_top" xlink:title="Base class for sequential computations. Optional scaling utilities.">
<polygon fill="white" stroke="black" points="97,-114.5 97,-133.5 150,-133.5 150,-114.5 97,-114.5"/>
<text text-anchor="middle" x="123.5" y="-121.5" font-family="Helvetica,sans-Serif" font-size="10.00">Functor</text>
</a>
</g>
</g>
<!-- Node2&#45;&gt;Node1 -->
<g id="edge1" class="edge">
<title>Node2&#45;&gt;Node1</title>
<path fill="none" stroke="midnightblue" d="M160.18,-124C168.45,-124 177.31,-124 185.79,-124"/>
<polygon fill="midnightblue" stroke="midnightblue" points="160.1,-120.5 150.1,-124 160.1,-127.5 160.1,-120.5"/>
</g>
<!-- Node3 -->
<g id="node3" class="node">
<title>Node3</title>
<g id="a_node3"><a xlink:href="classdrain_1_1BeanLike.html" target="_top" xlink:title="Something which has a name, a description and possibly some parameters of varying type.">
<polygon fill="white" stroke="black" points="0,-114.5 0,-133.5 61,-133.5 61,-114.5 0,-114.5"/>
<text text-anchor="middle" x="30.5" y="-121.5" font-family="Helvetica,sans-Serif" font-size="10.00">BeanLike</text>
</a>
</g>
</g>
<!-- Node3&#45;&gt;Node2 -->
<g id="edge2" class="edge">
<title>Node3&#45;&gt;Node2</title>
<path fill="none" stroke="midnightblue" d="M71.06,-124C79.77,-124 88.78,-124 96.78,-124"/>
<polygon fill="midnightblue" stroke="midnightblue" points="71.05,-120.5 61.05,-124 71.05,-127.5 71.05,-120.5"/>
</g>
</g>
</svg>
