<?xml version="1.0" encoding="UTF-8" standalone="no"?>
<!DOCTYPE svg PUBLIC "-//W3C//DTD SVG 1.1//EN"
 "http://www.w3.org/Graphics/SVG/1.1/DTD/svg11.dtd">
<!-- Generated by graphviz version 2.43.0 (0)
 -->
<!-- Title: RadarFunctorBase Pages: 1 -->
<svg width="553pt" height="441pt"
 viewBox="0.00 0.00 552.50 441.00" xmlns="http://www.w3.org/2000/svg" xmlns:xlink="http://www.w3.org/1999/xlink">
<g id="graph0" class="graph" transform="scale(1 1) rotate(0) translate(4 437)">
<title>RadarFunctorBase</title>
<polygon fill="white" stroke="transparent" points="-4,4 -4,-437 548.5,-437 548.5,4 -4,4"/>
<!-- Node1 -->
<g id="node1" class="node">
<title>Node1</title>
<g id="a_node1"><a xlink:title=" ">
<polygon fill="#bfbfbf" stroke="black" points="342,-0.5 342,-19.5 447,-19.5 447,-0.5 342,-0.5"/>
<text text-anchor="middle" x="394.5" y="-7.5" font-family="Helvetica,sans-Serif" font-size="10.00">RadarFunctorBase</text>
</a>
</g>
</g>
<!-- Node2 -->
<g id="node2" class="node">
<title>Node2</title>
<g id="a_node2"><a xlink:href="classrack_1_1PolarODIM.html" target="_top" xlink:title="Metadata structure for single&#45;radar data (polar scans, volumes and products).">
<polygon fill="white" stroke="black" points="360.5,-67.5 360.5,-86.5 428.5,-86.5 428.5,-67.5 360.5,-67.5"/>
<text text-anchor="middle" x="394.5" y="-74.5" font-family="Helvetica,sans-Serif" font-size="10.00">PolarODIM</text>
</a>
</g>
</g>
<!-- Node2&#45;&gt;Node1 -->
<g id="edge1" class="edge">
<title>Node2&#45;&gt;Node1</title>
<path fill="none" stroke="#9a32cd" stroke-dasharray="5,2" d="M394.5,-57.04C394.5,-44.67 394.5,-29.12 394.5,-19.63"/>
<polygon fill="#9a32cd" stroke="#9a32cd" points="391,-57.23 394.5,-67.23 398,-57.23 391,-57.23"/>
<text text-anchor="middle" x="416" y="-41" font-family="Helvetica,sans-Serif" font-size="10.00"> odimSrc</text>
</g>
<!-- Node3 -->
<g id="node3" class="node">
<title>Node3</title>
<g id="a_node3"><a xlink:href="classrack_1_1ODIM.html" target="_top" xlink:title="ODIM metadata (quantity, gain, offset, undetect, nodata, date, time)">
<polygon fill="white" stroke="black" points="372.5,-124.5 372.5,-143.5 416.5,-143.5 416.5,-124.5 372.5,-124.5"/>
<text text-anchor="middle" x="394.5" y="-131.5" font-family="Helvetica,sans-Serif" font-size="10.00">ODIM</text>
</a>
</g>
</g>
<!-- Node3&#45;&gt;Node2 -->
<g id="edge2" class="edge">
<title>Node3&#45;&gt;Node2</title>
<path fill="none" stroke="midnightblue" d="M394.5,-114.12C394.5,-104.82 394.5,-94.06 394.5,-86.71"/>
<polygon fill="midnightblue" stroke="midnightblue" points="391,-114.41 394.5,-124.41 398,-114.41 391,-114.41"/>
</g>
<!-- Node4 -->
<g id="node4" class="node">
<title>Node4</title>
<g id="a_node4"><a xlink:href="classrack_1_1EncodingODIM.html" target="_top" xlink:title="Structure for data storage type, scaling and marker codes. Does not contain quantity.">
<polygon fill="white" stroke="black" points="239.5,-191.5 239.5,-210.5 327.5,-210.5 327.5,-191.5 239.5,-191.5"/>
<text text-anchor="middle" x="283.5" y="-198.5" font-family="Helvetica,sans-Serif" font-size="10.00">EncodingODIM</text>
</a>
</g>
</g>
<!-- Node4&#45;&gt;Node3 -->
<g id="edge3" class="edge">
<title>Node4&#45;&gt;Node3</title>
<path fill="none" stroke="midnightblue" d="M307.21,-186.12C329.2,-173.24 361.24,-154.48 379.77,-143.63"/>
<polygon fill="midnightblue" stroke="midnightblue" points="305.33,-183.16 298.47,-191.23 308.87,-189.2 305.33,-183.16"/>
</g>
<!-- Node5 -->
<g id="node5" class="node">
<title>Node5</title>
<g id="a_node5"><a xlink:href="classdrain_1_1ReferenceMap.html" target="_top" xlink:title=" ">
<polygon fill="white" stroke="black" points="102,-280.5 102,-299.5 189,-299.5 189,-280.5 102,-280.5"/>
<text text-anchor="middle" x="145.5" y="-287.5" font-family="Helvetica,sans-Serif" font-size="10.00">ReferenceMap</text>
</a>
</g>
</g>
<!-- Node5&#45;&gt;Node4 -->
<g id="edge4" class="edge">
<title>Node5&#45;&gt;Node4</title>
<path fill="none" stroke="midnightblue" d="M167.54,-275.11C196.31,-256.96 245.83,-225.75 269.76,-210.66"/>
<polygon fill="midnightblue" stroke="midnightblue" points="165.58,-272.21 158.98,-280.5 169.31,-278.13 165.58,-272.21"/>
</g>
<!-- Node6 -->
<g id="node6" class="node">
<title>Node6</title>
<g id="a_node6"><a xlink:href="classdrain_1_1SmartMap.html" target="_top" xlink:title=" ">
<polygon fill="white" stroke="black" points="13,-356.5 13,-375.5 156,-375.5 156,-356.5 13,-356.5"/>
<text text-anchor="middle" x="84.5" y="-363.5" font-family="Helvetica,sans-Serif" font-size="10.00">SmartMap&lt; Referencer &gt;</text>
</a>
</g>
</g>
<!-- Node6&#45;&gt;Node5 -->
<g id="edge5" class="edge">
<title>Node6&#45;&gt;Node5</title>
<path fill="none" stroke="midnightblue" d="M98.33,-348.22C110.74,-333.17 128.46,-311.67 138.27,-299.77"/>
<polygon fill="midnightblue" stroke="midnightblue" points="95.4,-346.28 91.74,-356.22 100.8,-350.73 95.4,-346.28"/>
</g>
<!-- Node7 -->
<g id="node7" class="node">
<title>Node7</title>
<g id="a_node7"><a xlink:title=" ">
<polygon fill="white" stroke="#bfbfbf" points="0,-413.5 0,-432.5 169,-432.5 169,-413.5 0,-413.5"/>
<text text-anchor="middle" x="84.5" y="-420.5" font-family="Helvetica,sans-Serif" font-size="10.00">map&lt; std::string, Referencer &gt;</text>
</a>
</g>
</g>
<!-- Node7&#45;&gt;Node6 -->
<g id="edge6" class="edge">
<title>Node7&#45;&gt;Node6</title>
<path fill="none" stroke="midnightblue" d="M84.5,-403.12C84.5,-393.82 84.5,-383.06 84.5,-375.71"/>
<polygon fill="midnightblue" stroke="midnightblue" points="81,-403.41 84.5,-413.41 88,-403.41 81,-403.41"/>
</g>
<!-- Node8 -->
<g id="node8" class="node">
<title>Node8</title>
<g id="a_node8"><a xlink:href="classdrain_1_1ValueScaling.html" target="_top" xlink:title="Linear scaling and physical range for image intensities.">
<polygon fill="white" stroke="black" points="243.5,-280.5 243.5,-299.5 323.5,-299.5 323.5,-280.5 243.5,-280.5"/>
<text text-anchor="middle" x="283.5" y="-287.5" font-family="Helvetica,sans-Serif" font-size="10.00">ValueScaling</text>
</a>
</g>
</g>
<!-- Node8&#45;&gt;Node4 -->
<g id="edge7" class="edge">
<title>Node8&#45;&gt;Node4</title>
<path fill="none" stroke="#9a32cd" stroke-dasharray="5,2" d="M283.5,-270.19C283.5,-251.74 283.5,-224.41 283.5,-210.62"/>
<polygon fill="#9a32cd" stroke="#9a32cd" points="280,-270.34 283.5,-280.34 287,-270.34 280,-270.34"/>
<text text-anchor="middle" x="316.5" y="-254" font-family="Helvetica,sans-Serif" font-size="10.00"> scalingConst</text>
<text text-anchor="middle" x="316.5" y="-243" font-family="Helvetica,sans-Serif" font-size="10.00">scaling</text>
<text text-anchor="middle" x="316.5" y="-232" font-family="Helvetica,sans-Serif" font-size="10.00">ownScaling</text>
</g>
<!-- Node9 -->
<g id="node9" class="node">
<title>Node9</title>
<g id="a_node9"><a xlink:href="classdrain_1_1UniTuple.html" target="_top" xlink:title=" ">
<polygon fill="white" stroke="black" points="174.5,-356.5 174.5,-375.5 300.5,-375.5 300.5,-356.5 174.5,-356.5"/>
<text text-anchor="middle" x="237.5" y="-363.5" font-family="Helvetica,sans-Serif" font-size="10.00">UniTuple&lt; double, 4 &gt;</text>
</a>
</g>
</g>
<!-- Node9&#45;&gt;Node8 -->
<g id="edge8" class="edge">
<title>Node9&#45;&gt;Node8</title>
<path fill="none" stroke="midnightblue" d="M248.46,-347.37C257.78,-332.37 270.79,-311.44 278.05,-299.77"/>
<polygon fill="midnightblue" stroke="midnightblue" points="245.26,-345.88 242.96,-356.22 251.21,-349.58 245.26,-345.88"/>
</g>
<!-- Node10 -->
<g id="node10" class="node">
<title>Node10</title>
<g id="a_node10"><a xlink:href="classdrain_1_1Range.html" target="_top" xlink:title=" ">
<polygon fill="white" stroke="black" points="319,-356.5 319,-375.5 422,-375.5 422,-356.5 319,-356.5"/>
<text text-anchor="middle" x="370.5" y="-363.5" font-family="Helvetica,sans-Serif" font-size="10.00">Range&lt; double &gt;</text>
</a>
</g>
</g>
<!-- Node10&#45;&gt;Node8 -->
<g id="edge9" class="edge">
<title>Node10&#45;&gt;Node8</title>
<path fill="none" stroke="#9a32cd" stroke-dasharray="5,2" d="M334.87,-352.39C326.96,-348.55 319,-343.78 312.5,-338 300.32,-327.17 291.53,-310 287,-299.68"/>
<polygon fill="#9a32cd" stroke="#9a32cd" points="333.48,-355.61 344.04,-356.47 336.33,-349.21 333.48,-355.61"/>
<text text-anchor="middle" x="341.5" y="-325.5" font-family="Helvetica,sans-Serif" font-size="10.00"> physRange</text>
</g>
<!-- Node11 -->
<g id="node11" class="node">
<title>Node11</title>
<g id="a_node11"><a xlink:href="classdrain_1_1UniTuple.html" target="_top" xlink:title=" ">
<polygon fill="white" stroke="black" points="361.5,-413.5 361.5,-432.5 487.5,-432.5 487.5,-413.5 361.5,-413.5"/>
<text text-anchor="middle" x="424.5" y="-420.5" font-family="Helvetica,sans-Serif" font-size="10.00">UniTuple&lt; double, 2 &gt;</text>
</a>
</g>
</g>
<!-- Node11&#45;&gt;Node10 -->
<g id="edge10" class="edge">
<title>Node11&#45;&gt;Node10</title>
<path fill="none" stroke="midnightblue" d="M408.91,-406.12C399.19,-396.22 387.06,-383.86 379.06,-375.71"/>
<polygon fill="midnightblue" stroke="midnightblue" points="406.56,-408.72 416.06,-413.41 411.55,-403.82 406.56,-408.72"/>
</g>
<!-- Node12 -->
<g id="node12" class="node">
<title>Node12</title>
<g id="a_node12"><a xlink:href="structdrain_1_1Point2D.html" target="_top" xlink:title=" ">
<polygon fill="white" stroke="black" points="379.5,-318.5 379.5,-337.5 489.5,-337.5 489.5,-318.5 379.5,-318.5"/>
<text text-anchor="middle" x="434.5" y="-325.5" font-family="Helvetica,sans-Serif" font-size="10.00">Point2D&lt; double &gt;</text>
</a>
</g>
</g>
<!-- Node11&#45;&gt;Node12 -->
<g id="edge12" class="edge">
<title>Node11&#45;&gt;Node12</title>
<path fill="none" stroke="midnightblue" d="M427.16,-403.08C428.28,-394.78 429.54,-384.92 430.5,-376 431.94,-362.65 433.18,-347.11 433.88,-337.67"/>
<polygon fill="midnightblue" stroke="midnightblue" points="423.67,-402.81 425.77,-413.2 430.6,-403.77 423.67,-402.81"/>
</g>
<!-- Node12&#45;&gt;Node3 -->
<g id="edge11" class="edge">
<title>Node12&#45;&gt;Node3</title>
<path fill="none" stroke="#9a32cd" stroke-dasharray="5,2" d="M419.4,-310.44C417.09,-307.17 414.98,-303.62 413.5,-300 390.6,-243.94 392.48,-168.82 393.9,-143.64"/>
<polygon fill="#9a32cd" stroke="#9a32cd" points="416.74,-312.7 425.73,-318.3 422.19,-308.32 416.74,-312.7"/>
<text text-anchor="middle" x="428.5" y="-243" font-family="Helvetica,sans-Serif" font-size="10.00"> resolution</text>
</g>
<!-- Node13 -->
<g id="node13" class="node">
<title>Node13</title>
<g id="a_node13"><a xlink:href="classdrain_1_1Frame2D.html" target="_top" xlink:title=" ">
<polygon fill="white" stroke="black" points="424.5,-191.5 424.5,-210.5 536.5,-210.5 536.5,-191.5 424.5,-191.5"/>
<text text-anchor="middle" x="480.5" y="-198.5" font-family="Helvetica,sans-Serif" font-size="10.00">Frame2D&lt; size_t &gt;</text>
</a>
</g>
</g>
<!-- Node13&#45;&gt;Node3 -->
<g id="edge13" class="edge">
<title>Node13&#45;&gt;Node3</title>
<path fill="none" stroke="#9a32cd" stroke-dasharray="5,2" d="M460.74,-185.07C443.77,-172.24 419.88,-154.19 405.91,-143.63"/>
<polygon fill="#9a32cd" stroke="#9a32cd" points="458.81,-188 468.9,-191.23 463.03,-182.41 458.81,-188"/>
<text text-anchor="middle" x="456" y="-165" font-family="Helvetica,sans-Serif" font-size="10.00"> area</text>
</g>
<!-- Node14 -->
<g id="node14" class="node">
<title>Node14</title>
<g id="a_node14"><a xlink:href="classdrain_1_1UniTuple.html" target="_top" xlink:title=" ">
<polygon fill="white" stroke="black" points="422.5,-280.5 422.5,-299.5 544.5,-299.5 544.5,-280.5 422.5,-280.5"/>
<text text-anchor="middle" x="483.5" y="-287.5" font-family="Helvetica,sans-Serif" font-size="10.00">UniTuple&lt; size_t, 2 &gt;</text>
</a>
</g>
</g>
<!-- Node14&#45;&gt;Node13 -->
<g id="edge14" class="edge">
<title>Node14&#45;&gt;Node13</title>
<path fill="none" stroke="midnightblue" d="M482.85,-270.19C482.22,-251.74 481.27,-224.41 480.8,-210.62"/>
<polygon fill="midnightblue" stroke="midnightblue" points="479.36,-270.47 483.2,-280.34 486.35,-270.23 479.36,-270.47"/>
</g>
</g>
</svg>
