<?xml version="1.0" encoding="UTF-8" standalone="no"?>
<!DOCTYPE svg PUBLIC "-//W3C//DTD SVG 1.1//EN"
 "http://www.w3.org/Graphics/SVG/1.1/DTD/svg11.dtd">
<!-- Generated by graphviz version 2.43.0 (0)
 -->
<!-- Title: CmdDelete Pages: 1 -->
<svg width="379pt" height="639pt"
 viewBox="0.00 0.00 378.50 639.00" xmlns="http://www.w3.org/2000/svg" xmlns:xlink="http://www.w3.org/1999/xlink">
<g id="graph0" class="graph" transform="scale(1 1) rotate(0) translate(4 635)">
<title>CmdDelete</title>
<polygon fill="white" stroke="transparent" points="-4,4 -4,-635 374.5,-635 374.5,4 -4,4"/>
<!-- Node1 -->
<g id="node1" class="node">
<title>Node1</title>
<g id="a_node1"><a xlink:title=" ">
<polygon fill="#bfbfbf" stroke="black" points="192.5,-0.5 192.5,-19.5 263.5,-19.5 263.5,-0.5 192.5,-0.5"/>
<text text-anchor="middle" x="228" y="-7.5" font-family="Helvetica,sans-Serif" font-size="10.00">CmdDelete</text>
</a>
</g>
</g>
<!-- Node2 -->
<g id="node2" class="node">
<title>Node2</title>
<g id="a_node2"><a xlink:href="classrack_1_1CmdBaseSelective.html" target="_top" xlink:title=" ">
<polygon fill="white" stroke="black" points="174,-57.5 174,-76.5 282,-76.5 282,-57.5 174,-57.5"/>
<text text-anchor="middle" x="228" y="-64.5" font-family="Helvetica,sans-Serif" font-size="10.00">CmdBaseSelective</text>
</a>
</g>
</g>
<!-- Node2&#45;&gt;Node1 -->
<g id="edge1" class="edge">
<title>Node2&#45;&gt;Node1</title>
<path fill="none" stroke="midnightblue" d="M228,-47.12C228,-37.82 228,-27.06 228,-19.71"/>
<polygon fill="midnightblue" stroke="midnightblue" points="224.5,-47.41 228,-57.41 231.5,-47.41 224.5,-47.41"/>
</g>
<!-- Node3 -->
<g id="node3" class="node">
<title>Node3</title>
<g id="a_node3"><a xlink:href="classdrain_1_1SimpleCommand.html" target="_top" xlink:title=" ">
<polygon fill="white" stroke="black" points="169.5,-114.5 169.5,-133.5 286.5,-133.5 286.5,-114.5 169.5,-114.5"/>
<text text-anchor="middle" x="228" y="-121.5" font-family="Helvetica,sans-Serif" font-size="10.00">SimpleCommand&lt;&gt;</text>
</a>
</g>
</g>
<!-- Node3&#45;&gt;Node2 -->
<g id="edge2" class="edge">
<title>Node3&#45;&gt;Node2</title>
<path fill="none" stroke="midnightblue" d="M228,-104.12C228,-94.82 228,-84.06 228,-76.71"/>
<polygon fill="midnightblue" stroke="midnightblue" points="224.5,-104.41 228,-114.41 231.5,-104.41 224.5,-104.41"/>
</g>
<!-- Node4 -->
<g id="node4" class="node">
<title>Node4</title>
<g id="a_node4"><a xlink:href="classdrain_1_1BasicCommand.html" target="_top" xlink:title="Simple implementation of Command: adds name , description and parameters .">
<polygon fill="white" stroke="black" points="181.5,-171.5 181.5,-190.5 274.5,-190.5 274.5,-171.5 181.5,-171.5"/>
<text text-anchor="middle" x="228" y="-178.5" font-family="Helvetica,sans-Serif" font-size="10.00">BasicCommand</text>
</a>
</g>
</g>
<!-- Node4&#45;&gt;Node3 -->
<g id="edge3" class="edge">
<title>Node4&#45;&gt;Node3</title>
<path fill="none" stroke="midnightblue" d="M228,-161.12C228,-151.82 228,-141.06 228,-133.71"/>
<polygon fill="midnightblue" stroke="midnightblue" points="224.5,-161.41 228,-171.41 231.5,-161.41 224.5,-161.41"/>
</g>
<!-- Node5 -->
<g id="node5" class="node">
<title>Node5</title>
<g id="a_node5"><a xlink:href="classdrain_1_1Command.html" target="_top" xlink:title="Base class for commands: typically actions taking parameters but also plain variable assignments and ...">
<polygon fill="white" stroke="black" points="147.5,-238.5 147.5,-257.5 214.5,-257.5 214.5,-238.5 147.5,-238.5"/>
<text text-anchor="middle" x="181" y="-245.5" font-family="Helvetica,sans-Serif" font-size="10.00">Command</text>
</a>
</g>
</g>
<!-- Node5&#45;&gt;Node4 -->
<g id="edge4" class="edge">
<title>Node5&#45;&gt;Node4</title>
<path fill="none" stroke="midnightblue" d="M193.36,-229.9C202.49,-217.27 214.55,-200.6 221.76,-190.63"/>
<polygon fill="midnightblue" stroke="midnightblue" points="190.36,-228.08 187.34,-238.23 196.03,-232.18 190.36,-228.08"/>
</g>
<!-- Node6 -->
<g id="node6" class="node">
<title>Node6</title>
<g id="a_node6"><a xlink:href="classdrain_1_1Contextual.html" target="_top" xlink:title=" ">
<polygon fill="white" stroke="black" points="124,-295.5 124,-314.5 194,-314.5 194,-295.5 124,-295.5"/>
<text text-anchor="middle" x="159" y="-302.5" font-family="Helvetica,sans-Serif" font-size="10.00">Contextual</text>
</a>
</g>
</g>
<!-- Node6&#45;&gt;Node5 -->
<g id="edge5" class="edge">
<title>Node6&#45;&gt;Node5</title>
<path fill="none" stroke="midnightblue" d="M166.19,-286.03C169.99,-276.53 174.48,-265.3 177.51,-257.71"/>
<polygon fill="midnightblue" stroke="midnightblue" points="162.9,-284.82 162.44,-295.41 169.4,-287.42 162.9,-284.82"/>
</g>
<!-- Node7 -->
<g id="node7" class="node">
<title>Node7</title>
<g id="a_node7"><a xlink:href="classdrain_1_1Context.html" target="_top" xlink:title=" ">
<polygon fill="white" stroke="black" points="128.5,-362.5 128.5,-381.5 183.5,-381.5 183.5,-362.5 128.5,-362.5"/>
<text text-anchor="middle" x="156" y="-369.5" font-family="Helvetica,sans-Serif" font-size="10.00">Context</text>
</a>
</g>
</g>
<!-- Node7&#45;&gt;Node6 -->
<g id="edge6" class="edge">
<title>Node7&#45;&gt;Node6</title>
<path fill="none" stroke="#9a32cd" stroke-dasharray="5,2" d="M156.88,-352.04C157.45,-339.67 158.16,-324.12 158.6,-314.63"/>
<polygon fill="#9a32cd" stroke="#9a32cd" points="153.37,-352.08 156.4,-362.23 160.36,-352.41 153.37,-352.08"/>
<text text-anchor="middle" x="185" y="-336" font-family="Helvetica,sans-Serif" font-size="10.00"> contextPtr</text>
</g>
<!-- Node8 -->
<g id="node8" class="node">
<title>Node8</title>
<g id="a_node8"><a xlink:href="classdrain_1_1VariableMap.html" target="_top" xlink:title="A map of Variables.">
<polygon fill="white" stroke="black" points="39,-429.5 39,-448.5 117,-448.5 117,-429.5 39,-429.5"/>
<text text-anchor="middle" x="78" y="-436.5" font-family="Helvetica,sans-Serif" font-size="10.00">VariableMap</text>
</a>
</g>
</g>
<!-- Node8&#45;&gt;Node7 -->
<g id="edge7" class="edge">
<title>Node8&#45;&gt;Node7</title>
<path fill="none" stroke="#9a32cd" stroke-dasharray="5,2" d="M84.01,-420.04C87.03,-413.09 91.3,-405.51 97,-400 105.75,-391.55 117.62,-385.42 128.42,-381.16"/>
<polygon fill="#9a32cd" stroke="#9a32cd" points="80.71,-418.84 80.43,-429.44 87.26,-421.33 80.71,-418.84"/>
<text text-anchor="middle" x="124.5" y="-403" font-family="Helvetica,sans-Serif" font-size="10.00"> statusMap</text>
</g>
<!-- Node9 -->
<g id="node9" class="node">
<title>Node9</title>
<g id="a_node9"><a xlink:href="classdrain_1_1SmartMap.html" target="_top" xlink:title=" ">
<polygon fill="white" stroke="black" points="13,-492 13,-511 143,-511 143,-492 13,-492"/>
<text text-anchor="middle" x="78" y="-499" font-family="Helvetica,sans-Serif" font-size="10.00">SmartMap&lt; Variable &gt;</text>
</a>
</g>
</g>
<!-- Node9&#45;&gt;Node8 -->
<g id="edge8" class="edge">
<title>Node9&#45;&gt;Node8</title>
<path fill="none" stroke="midnightblue" d="M78,-481.5C78,-470.5 78,-457.18 78,-448.65"/>
<polygon fill="midnightblue" stroke="midnightblue" points="74.5,-481.83 78,-491.83 81.5,-481.83 74.5,-481.83"/>
</g>
<!-- Node10 -->
<g id="node10" class="node">
<title>Node10</title>
<g id="a_node10"><a xlink:title=" ">
<polygon fill="white" stroke="#bfbfbf" points="0,-554.5 0,-573.5 156,-573.5 156,-554.5 0,-554.5"/>
<text text-anchor="middle" x="78" y="-561.5" font-family="Helvetica,sans-Serif" font-size="10.00">map&lt; std::string, Variable &gt;</text>
</a>
</g>
</g>
<!-- Node10&#45;&gt;Node9 -->
<g id="edge9" class="edge">
<title>Node10&#45;&gt;Node9</title>
<path fill="none" stroke="midnightblue" d="M78,-544C78,-533 78,-519.68 78,-511.15"/>
<polygon fill="midnightblue" stroke="midnightblue" points="74.5,-544.33 78,-554.33 81.5,-544.33 74.5,-544.33"/>
</g>
<!-- Node11 -->
<g id="node11" class="node">
<title>Node11</title>
<g id="a_node11"><a xlink:href="classdrain_1_1Log.html" target="_top" xlink:title="Handler for notifications sent by a Logger.">
<polygon fill="white" stroke="black" points="139,-429.5 139,-448.5 173,-448.5 173,-429.5 139,-429.5"/>
<text text-anchor="middle" x="156" y="-436.5" font-family="Helvetica,sans-Serif" font-size="10.00">Log</text>
</a>
</g>
</g>
<!-- Node11&#45;&gt;Node7 -->
<g id="edge10" class="edge">
<title>Node11&#45;&gt;Node7</title>
<path fill="none" stroke="#9a32cd" stroke-dasharray="5,2" d="M156,-419.04C156,-406.67 156,-391.12 156,-381.63"/>
<polygon fill="#9a32cd" stroke="#9a32cd" points="152.5,-419.23 156,-429.23 159.5,-419.23 152.5,-419.23"/>
<text text-anchor="middle" x="165.5" y="-403" font-family="Helvetica,sans-Serif" font-size="10.00"> log</text>
</g>
<!-- Node12 -->
<g id="node12" class="node">
<title>Node12</title>
<g id="a_node12"><a xlink:href="classdrain_1_1StatusFlags.html" target="_top" xlink:title=" ">
<polygon fill="white" stroke="black" points="191,-429.5 191,-448.5 265,-448.5 265,-429.5 191,-429.5"/>
<text text-anchor="middle" x="228" y="-436.5" font-family="Helvetica,sans-Serif" font-size="10.00">StatusFlags</text>
</a>
</g>
</g>
<!-- Node12&#45;&gt;Node7 -->
<g id="edge11" class="edge">
<title>Node12&#45;&gt;Node7</title>
<path fill="none" stroke="#9a32cd" stroke-dasharray="5,2" d="M210.67,-422.36C196.52,-409.58 177.04,-391.99 165.56,-381.63"/>
<polygon fill="#9a32cd" stroke="#9a32cd" points="208.52,-425.13 218.29,-429.23 213.21,-419.93 208.52,-425.13"/>
<text text-anchor="middle" x="227" y="-403" font-family="Helvetica,sans-Serif" font-size="10.00"> statusFlags</text>
</g>
<!-- Node13 -->
<g id="node13" class="node">
<title>Node13</title>
<g id="a_node13"><a xlink:href="classdrain_1_1GlobalFlags.html" target="_top" xlink:title=" ">
<polygon fill="white" stroke="black" points="170,-486.5 170,-516.5 286,-516.5 286,-486.5 170,-486.5"/>
<text text-anchor="start" x="178" y="-504.5" font-family="Helvetica,sans-Serif" font-size="10.00">GlobalFlags&lt; status</text>
<text text-anchor="middle" x="228" y="-493.5" font-family="Helvetica,sans-Serif" font-size="10.00">_flag_id &gt;</text>
</a>
</g>
</g>
<!-- Node13&#45;&gt;Node12 -->
<g id="edge12" class="edge">
<title>Node13&#45;&gt;Node12</title>
<path fill="none" stroke="midnightblue" d="M228,-476.35C228,-466.51 228,-455.78 228,-448.54"/>
<polygon fill="midnightblue" stroke="midnightblue" points="224.5,-476.47 228,-486.47 231.5,-476.47 224.5,-476.47"/>
</g>
<!-- Node14 -->
<g id="node14" class="node">
<title>Node14</title>
<g id="a_node14"><a xlink:href="classdrain_1_1Flagger.html" target="_top" xlink:title="Bit vector accessible also with integer values associated with strings.">
<polygon fill="white" stroke="black" points="201.5,-554.5 201.5,-573.5 254.5,-573.5 254.5,-554.5 201.5,-554.5"/>
<text text-anchor="middle" x="228" y="-561.5" font-family="Helvetica,sans-Serif" font-size="10.00">Flagger</text>
</a>
</g>
</g>
<!-- Node14&#45;&gt;Node13 -->
<g id="edge13" class="edge">
<title>Node14&#45;&gt;Node13</title>
<path fill="none" stroke="midnightblue" d="M228,-544.22C228,-535.36 228,-524.96 228,-516.76"/>
<polygon fill="midnightblue" stroke="midnightblue" points="224.5,-544.33 228,-554.33 231.5,-544.33 224.5,-544.33"/>
</g>
<!-- Node15 -->
<g id="node15" class="node">
<title>Node15</title>
<g id="a_node15"><a xlink:href="classdrain_1_1FlagResolver.html" target="_top" xlink:title="Referencing a dictionary of binary values: {&quot;A&quot;,1: &quot;B&quot;:2, &quot;C&quot;: 4, &quot;D&quot;: 8, ...} resolves two&#45;way mappi...">
<polygon fill="white" stroke="black" points="188,-611.5 188,-630.5 268,-630.5 268,-611.5 188,-611.5"/>
<text text-anchor="middle" x="228" y="-618.5" font-family="Helvetica,sans-Serif" font-size="10.00">FlagResolver</text>
</a>
</g>
</g>
<!-- Node15&#45;&gt;Node14 -->
<g id="edge14" class="edge">
<title>Node15&#45;&gt;Node14</title>
<path fill="none" stroke="midnightblue" d="M228,-601.12C228,-591.82 228,-581.06 228,-573.71"/>
<polygon fill="midnightblue" stroke="midnightblue" points="224.5,-601.41 228,-611.41 231.5,-601.41 224.5,-601.41"/>
</g>
<!-- Node16 -->
<g id="node16" class="node">
<title>Node16</title>
<g id="a_node16"><a xlink:href="classdrain_1_1ReferenceMap.html" target="_top" xlink:title=" ">
<polygon fill="white" stroke="black" points="236.5,-238.5 236.5,-257.5 323.5,-257.5 323.5,-238.5 236.5,-238.5"/>
<text text-anchor="middle" x="280" y="-245.5" font-family="Helvetica,sans-Serif" font-size="10.00">ReferenceMap</text>
</a>
</g>
</g>
<!-- Node16&#45;&gt;Node4 -->
<g id="edge15" class="edge">
<title>Node16&#45;&gt;Node4</title>
<path fill="none" stroke="#9a32cd" stroke-dasharray="5,2" d="M266.62,-230.27C256.48,-217.6 242.96,-200.7 234.9,-190.63"/>
<polygon fill="#9a32cd" stroke="#9a32cd" points="264.01,-232.61 272.99,-238.23 269.47,-228.24 264.01,-232.61"/>
<text text-anchor="middle" x="288" y="-212" font-family="Helvetica,sans-Serif" font-size="10.00"> parameters</text>
</g>
<!-- Node17 -->
<g id="node17" class="node">
<title>Node17</title>
<g id="a_node17"><a xlink:href="classdrain_1_1SmartMap.html" target="_top" xlink:title=" ">
<polygon fill="white" stroke="black" points="213.5,-295.5 213.5,-314.5 356.5,-314.5 356.5,-295.5 213.5,-295.5"/>
<text text-anchor="middle" x="285" y="-302.5" font-family="Helvetica,sans-Serif" font-size="10.00">SmartMap&lt; Referencer &gt;</text>
</a>
</g>
</g>
<!-- Node17&#45;&gt;Node16 -->
<g id="edge16" class="edge">
<title>Node17&#45;&gt;Node16</title>
<path fill="none" stroke="midnightblue" d="M283.31,-285.42C282.46,-276.05 281.47,-265.14 280.79,-257.71"/>
<polygon fill="midnightblue" stroke="midnightblue" points="279.83,-285.76 284.22,-295.41 286.8,-285.13 279.83,-285.76"/>
</g>
<!-- Node18 -->
<g id="node18" class="node">
<title>Node18</title>
<g id="a_node18"><a xlink:title=" ">
<polygon fill="white" stroke="#bfbfbf" points="201.5,-362.5 201.5,-381.5 370.5,-381.5 370.5,-362.5 201.5,-362.5"/>
<text text-anchor="middle" x="286" y="-369.5" font-family="Helvetica,sans-Serif" font-size="10.00">map&lt; std::string, Referencer &gt;</text>
</a>
</g>
</g>
<!-- Node18&#45;&gt;Node17 -->
<g id="edge17" class="edge">
<title>Node18&#45;&gt;Node17</title>
<path fill="none" stroke="midnightblue" d="M285.71,-352.04C285.52,-339.67 285.28,-324.12 285.13,-314.63"/>
<polygon fill="midnightblue" stroke="midnightblue" points="282.21,-352.29 285.87,-362.23 289.21,-352.18 282.21,-352.29"/>
</g>
</g>
</svg>
