<?xml version="1.0" encoding="UTF-8" standalone="no"?>
<!DOCTYPE svg PUBLIC "-//W3C//DTD SVG 1.1//EN"
 "http://www.w3.org/Graphics/SVG/1.1/DTD/svg11.dtd">
<!-- Generated by graphviz version 2.43.0 (0)
 -->
<!-- Title: FillProber Pages: 1 -->
<!--zoomable 312 -->
<svg id="main" version="1.1" xmlns="http://www.w3.org/2000/svg" xmlns:xlink="http://www.w3.org/1999/xlink" xml:space="preserve" onload="init(evt)">
<style type="text/css"><![CDATA[
.edge:hover path { stroke: red; }
.edge:hover polygon { stroke: red; fill: red; }
]]></style>
<script type="text/javascript"><![CDATA[
var edges = document.getElementsByTagName('g');
if (edges && edges.length) {
  for (var i=0;i<edges.length;i++) {
    if (edges[i].id.substr(0,4)=='edge') {
      edges[i].setAttribute('class','edge');
    }
  }
}
]]></script>
        <defs>
                <circle id="rim" cx="0" cy="0" r="7"/>
                <circle id="rim2" cx="0" cy="0" r="3.5"/>
                <g id="zoomPlus">
                        <use xlink:href="#rim" fill="#404040">
                                <set attributeName="fill" to="#808080" begin="zoomplus.mouseover" end="zoomplus.mouseout"/>
                        </use>
                        <path d="M-4,0h8M0,-4v8" fill="none" stroke="white" stroke-width="1.5" pointer-events="none"/>
                </g>
                <g id="zoomMin">
                        <use xlink:href="#rim" fill="#404040">
                                <set attributeName="fill" to="#808080" begin="zoomminus.mouseover" end="zoomminus.mouseout"/>
                        </use>
                        <path d="M-4,0h8" fill="none" stroke="white" stroke-width="1.5" pointer-events="none"/>
                </g>
                <g id="dirArrow">
                        <path fill="none" stroke="white" stroke-width="1.5" d="M0,-3.0v7 M-2.5,-0.5L0,-3.0L2.5,-0.5"/>
                </g>
               <g id="resetDef">
                       <use xlink:href="#rim2" fill="#404040">
                               <set attributeName="fill" to="#808080" begin="reset.mouseover" end="reset.mouseout"/>
                       </use>
               </g>
        </defs>

<script type="text/javascript">
var viewWidth = 2045;
var viewHeight = 312;
var sectionId = 'dynsection-1';
</script>
<script xlink:href="svgpan.js"/>
<svg id="graph" class="graph">
<g id="viewport">
<title>FillProber</title>
<polygon fill="white" stroke="transparent" points="-4,4 -4,-308 2041,-308 2041,4 -4,4"/>
<!-- Node1 -->
<g id="node1" class="node">
<title>Node1</title>
<g id="a_node1"><a xlink:title=" ">
<polygon fill="#bfbfbf" stroke="black" points="1975,-112.5 1975,-131.5 2037,-131.5 2037,-112.5 1975,-112.5"/>
<text text-anchor="middle" x="2006" y="-119.5" font-family="Helvetica,sans-Serif" font-size="10.00">FillProber</text>
</a>
</g>
</g>
<!-- Node2 -->
<g id="node2" class="node">
<title>Node2</title>
<g id="a_node2"><a xlink:href="classdrain_1_1image_1_1SegmentProber.html" target="_top" xlink:title=" ">
<polygon fill="white" stroke="black" points="1802,-101.5 1802,-142.5 1938,-142.5 1938,-101.5 1802,-101.5"/>
<text text-anchor="start" x="1810" y="-130.5" font-family="Helvetica,sans-Serif" font-size="10.00">SegmentProber&lt; int,</text>
<text text-anchor="start" x="1810" y="-119.5" font-family="Helvetica,sans-Serif" font-size="10.00"> int, SegmentProberConf</text>
<text text-anchor="middle" x="1870" y="-108.5" font-family="Helvetica,sans-Serif" font-size="10.00">&lt; int, int &gt; &gt;</text>
</a>
</g>
</g>
<!-- Node2&#45;&gt;Node1 -->
<g id="edge1" class="edge">
<title>Node2&#45;&gt;Node1</title>
<path fill="none" stroke="midnightblue" d="M1948.53,-122C1957.81,-122 1966.81,-122 1974.8,-122"/>
<polygon fill="midnightblue" stroke="midnightblue" points="1948.39,-118.5 1938.39,-122 1948.39,-125.5 1948.39,-118.5"/>
</g>
<!-- Node3 -->
<g id="node3" class="node">
<title>Node3</title>
<g id="a_node3"><a xlink:href="classdrain_1_1image_1_1Channel.html" target="_top" xlink:title="Image with static geometry.">
<polygon fill="white" stroke="black" points="1637,-163.5 1637,-182.5 1693,-182.5 1693,-163.5 1637,-163.5"/>
<text text-anchor="middle" x="1665" y="-170.5" font-family="Helvetica,sans-Serif" font-size="10.00">Channel</text>
</a>
</g>
</g>
<!-- Node3&#45;&gt;Node2 -->
<g id="edge2" class="edge">
<title>Node3&#45;&gt;Node2</title>
<path fill="none" stroke="#9a32cd" stroke-dasharray="5,2" d="M1703.38,-163.61C1730.94,-156.68 1769.18,-147.08 1801.97,-138.84"/>
<polygon fill="#9a32cd" stroke="#9a32cd" points="1702.22,-160.29 1693.38,-166.12 1703.93,-167.08 1702.22,-160.29"/>
<text text-anchor="middle" x="1764" y="-167" font-family="Helvetica,sans-Serif" font-size="10.00"> src</text>
<text text-anchor="middle" x="1764" y="-156" font-family="Helvetica,sans-Serif" font-size="10.00">dst</text>
</g>
<!-- Node4 -->
<g id="node4" class="node">
<title>Node4</title>
<g id="a_node4"><a xlink:href="classdrain_1_1image_1_1ImageFrame.html" target="_top" xlink:title="Image with static geometry.">
<polygon fill="white" stroke="black" points="1441,-205.5 1441,-224.5 1519,-224.5 1519,-205.5 1441,-205.5"/>
<text text-anchor="middle" x="1480" y="-212.5" font-family="Helvetica,sans-Serif" font-size="10.00">ImageFrame</text>
</a>
</g>
</g>
<!-- Node4&#45;&gt;Node3 -->
<g id="edge3" class="edge">
<title>Node4&#45;&gt;Node3</title>
<path fill="none" stroke="midnightblue" d="M1529.22,-203.93C1563.63,-196.04 1608.66,-185.7 1636.96,-179.21"/>
<polygon fill="midnightblue" stroke="midnightblue" points="1528.33,-200.55 1519.36,-206.2 1529.89,-207.37 1528.33,-200.55"/>
</g>
<!-- Node5 -->
<g id="node5" class="node">
<title>Node5</title>
<g id="a_node5"><a xlink:href="classdrain_1_1image_1_1ImageLike.html" target="_top" xlink:title="A base class for images.">
<polygon fill="white" stroke="black" points="1224,-183.5 1224,-202.5 1291,-202.5 1291,-183.5 1224,-183.5"/>
<text text-anchor="middle" x="1257.5" y="-190.5" font-family="Helvetica,sans-Serif" font-size="10.00">ImageLike</text>
</a>
</g>
</g>
<!-- Node5&#45;&gt;Node4 -->
<g id="edge4" class="edge">
<title>Node5&#45;&gt;Node4</title>
<path fill="none" stroke="midnightblue" d="M1301.12,-197.25C1341.58,-201.29 1401.83,-207.3 1440.77,-211.19"/>
<polygon fill="midnightblue" stroke="midnightblue" points="1301.33,-193.76 1291.04,-196.25 1300.64,-200.72 1301.33,-193.76"/>
</g>
<!-- Node6 -->
<g id="node6" class="node">
<title>Node6</title>
<g id="a_node6"><a xlink:href="classdrain_1_1image_1_1ImageConf.html" target="_top" xlink:title="Struct for image (excluding data)">
<polygon fill="white" stroke="black" points="935.5,-180.5 935.5,-199.5 1005.5,-199.5 1005.5,-180.5 935.5,-180.5"/>
<text text-anchor="middle" x="970.5" y="-187.5" font-family="Helvetica,sans-Serif" font-size="10.00">ImageConf</text>
</a>
</g>
</g>
<!-- Node6&#45;&gt;Node5 -->
<g id="edge5" class="edge">
<title>Node6&#45;&gt;Node5</title>
<path fill="none" stroke="#9a32cd" stroke-dasharray="5,2" d="M1015.83,-190.47C1073.37,-191.07 1172.45,-192.12 1223.69,-192.65"/>
<polygon fill="#9a32cd" stroke="#9a32cd" points="1015.63,-186.96 1005.59,-190.36 1015.56,-193.96 1015.63,-186.96"/>
<text text-anchor="middle" x="1120.5" y="-196" font-family="Helvetica,sans-Serif" font-size="10.00"> conf</text>
</g>
<!-- Node7 -->
<g id="node7" class="node">
<title>Node7</title>
<g id="a_node7"><a xlink:href="classdrain_1_1image_1_1Encoding.html" target="_top" xlink:title=" ">
<polygon fill="white" stroke="black" points="646,-197.5 646,-216.5 707,-216.5 707,-197.5 646,-197.5"/>
<text text-anchor="middle" x="676.5" y="-204.5" font-family="Helvetica,sans-Serif" font-size="10.00">Encoding</text>
</a>
</g>
</g>
<!-- Node7&#45;&gt;Node6 -->
<g id="edge6" class="edge">
<title>Node7&#45;&gt;Node6</title>
<path fill="none" stroke="midnightblue" d="M717.3,-204.68C775.01,-201.32 880.96,-195.15 935.33,-191.99"/>
<polygon fill="midnightblue" stroke="midnightblue" points="716.89,-201.2 707.11,-205.28 717.29,-208.19 716.89,-201.2"/>
</g>
<!-- Node8 -->
<g id="node8" class="node">
<title>Node8</title>
<g id="a_node8"><a xlink:href="classdrain_1_1ValueScaling.html" target="_top" xlink:title="Linear scaling and physical range for image intensities.">
<polygon fill="white" stroke="black" points="404,-210.5 404,-229.5 484,-229.5 484,-210.5 404,-210.5"/>
<text text-anchor="middle" x="444" y="-217.5" font-family="Helvetica,sans-Serif" font-size="10.00">ValueScaling</text>
</a>
</g>
</g>
<!-- Node8&#45;&gt;Node7 -->
<g id="edge7" class="edge">
<title>Node8&#45;&gt;Node7</title>
<path fill="none" stroke="midnightblue" d="M494.15,-217.23C540.16,-214.63 607.4,-210.84 645.76,-208.68"/>
<polygon fill="midnightblue" stroke="midnightblue" points="493.89,-213.74 484.1,-217.79 494.28,-220.73 493.89,-213.74"/>
</g>
<!-- Node9 -->
<g id="node9" class="node">
<title>Node9</title>
<g id="a_node9"><a xlink:href="classdrain_1_1UniTuple.html" target="_top" xlink:title=" ">
<polygon fill="white" stroke="black" points="163,-248.5 163,-267.5 289,-267.5 289,-248.5 163,-248.5"/>
<text text-anchor="middle" x="226" y="-255.5" font-family="Helvetica,sans-Serif" font-size="10.00">UniTuple&lt; double, 4 &gt;</text>
</a>
</g>
</g>
<!-- Node9&#45;&gt;Node8 -->
<g id="edge8" class="edge">
<title>Node9&#45;&gt;Node8</title>
<path fill="none" stroke="midnightblue" d="M296.09,-246.83C318.13,-243.17 342.61,-239.02 365,-235 377.62,-232.73 391.37,-230.14 403.75,-227.74"/>
<polygon fill="midnightblue" stroke="midnightblue" points="295.45,-243.39 286.15,-248.47 296.59,-250.3 295.45,-243.39"/>
</g>
<!-- Node10 -->
<g id="node10" class="node">
<title>Node10</title>
<g id="a_node10"><a xlink:href="classdrain_1_1Range.html" target="_top" xlink:title=" ">
<polygon fill="white" stroke="black" points="174.5,-210.5 174.5,-229.5 277.5,-229.5 277.5,-210.5 174.5,-210.5"/>
<text text-anchor="middle" x="226" y="-217.5" font-family="Helvetica,sans-Serif" font-size="10.00">Range&lt; double &gt;</text>
</a>
</g>
</g>
<!-- Node10&#45;&gt;Node8 -->
<g id="edge9" class="edge">
<title>Node10&#45;&gt;Node8</title>
<path fill="none" stroke="#9a32cd" stroke-dasharray="5,2" d="M287.86,-220C325.03,-220 371.46,-220 403.8,-220"/>
<polygon fill="#9a32cd" stroke="#9a32cd" points="287.64,-216.5 277.64,-220 287.64,-223.5 287.64,-216.5"/>
<text text-anchor="middle" x="336" y="-223" font-family="Helvetica,sans-Serif" font-size="10.00"> physRange</text>
</g>
<!-- Node11 -->
<g id="node11" class="node">
<title>Node11</title>
<g id="a_node11"><a xlink:href="classdrain_1_1UniTuple.html" target="_top" xlink:title=" ">
<polygon fill="white" stroke="black" points="0,-210.5 0,-229.5 126,-229.5 126,-210.5 0,-210.5"/>
<text text-anchor="middle" x="63" y="-217.5" font-family="Helvetica,sans-Serif" font-size="10.00">UniTuple&lt; double, 2 &gt;</text>
</a>
</g>
</g>
<!-- Node11&#45;&gt;Node10 -->
<g id="edge10" class="edge">
<title>Node11&#45;&gt;Node10</title>
<path fill="none" stroke="midnightblue" d="M136.44,-220C149.24,-220 162.33,-220 174.37,-220"/>
<polygon fill="midnightblue" stroke="midnightblue" points="136.25,-216.5 126.25,-220 136.25,-223.5 136.25,-216.5"/>
</g>
<!-- Node12 -->
<g id="node12" class="node">
<title>Node12</title>
<g id="a_node12"><a xlink:href="classdrain_1_1Caster.html" target="_top" xlink:title=" ">
<polygon fill="white" stroke="black" points="420,-249.5 420,-268.5 468,-268.5 468,-249.5 420,-249.5"/>
<text text-anchor="middle" x="444" y="-256.5" font-family="Helvetica,sans-Serif" font-size="10.00">Caster</text>
</a>
</g>
</g>
<!-- Node12&#45;&gt;Node7 -->
<g id="edge11" class="edge">
<title>Node12&#45;&gt;Node7</title>
<path fill="none" stroke="#9a32cd" stroke-dasharray="5,2" d="M478.26,-251.2C507.22,-244.43 550.36,-234.43 588,-226 607.26,-221.69 628.95,-216.98 645.91,-213.32"/>
<polygon fill="#9a32cd" stroke="#9a32cd" points="477.2,-247.85 468.26,-253.53 478.8,-254.67 477.2,-247.85"/>
<text text-anchor="middle" x="546.5" y="-244" font-family="Helvetica,sans-Serif" font-size="10.00"> caster</text>
</g>
<!-- Node23 -->
<g id="node23" class="node">
<title>Node23</title>
<g id="a_node23"><a xlink:href="classdrain_1_1Castable.html" target="_top" xlink:title=" ">
<polygon fill="white" stroke="black" points="647,-273.5 647,-292.5 706,-292.5 706,-273.5 647,-273.5"/>
<text text-anchor="middle" x="676.5" y="-280.5" font-family="Helvetica,sans-Serif" font-size="10.00">Castable</text>
</a>
</g>
</g>
<!-- Node12&#45;&gt;Node23 -->
<g id="edge24" class="edge">
<title>Node12&#45;&gt;Node23</title>
<path fill="none" stroke="#9a32cd" stroke-dasharray="5,2" d="M478.57,-262.5C523.9,-267.22 603.94,-275.55 646.69,-280"/>
<polygon fill="#9a32cd" stroke="#9a32cd" points="478.68,-258.99 468.37,-261.43 477.95,-265.95 478.68,-258.99"/>
<text text-anchor="middle" x="546.5" y="-274" font-family="Helvetica,sans-Serif" font-size="10.00"> caster</text>
</g>
<!-- Node13 -->
<g id="node13" class="node">
<title>Node13</title>
<g id="a_node13"><a xlink:href="classdrain_1_1image_1_1Geometry.html" target="_top" xlink:title=" ">
<polygon fill="white" stroke="black" points="644,-66.5 644,-85.5 709,-85.5 709,-66.5 644,-66.5"/>
<text text-anchor="middle" x="676.5" y="-73.5" font-family="Helvetica,sans-Serif" font-size="10.00">Geometry</text>
</a>
</g>
</g>
<!-- Node13&#45;&gt;Node6 -->
<g id="edge12" class="edge">
<title>Node13&#45;&gt;Node6</title>
<path fill="none" stroke="midnightblue" d="M711.22,-89.16C770.67,-112.37 892.78,-160.05 944.97,-180.42"/>
<polygon fill="midnightblue" stroke="midnightblue" points="712.48,-85.9 701.89,-85.52 709.94,-92.42 712.48,-85.9"/>
</g>
<!-- Node14 -->
<g id="node14" class="node">
<title>Node14</title>
<g id="a_node14"><a xlink:href="classdrain_1_1UniTuple.html" target="_top" xlink:title=" ">
<polygon fill="white" stroke="black" points="383,-81.5 383,-100.5 505,-100.5 505,-81.5 383,-81.5"/>
<text text-anchor="middle" x="444" y="-88.5" font-family="Helvetica,sans-Serif" font-size="10.00">UniTuple&lt; size_t, 4 &gt;</text>
</a>
</g>
</g>
<!-- Node14&#45;&gt;Node13 -->
<g id="edge13" class="edge">
<title>Node14&#45;&gt;Node13</title>
<path fill="none" stroke="midnightblue" d="M515.37,-86.42C558.26,-83.63 610.97,-80.2 643.91,-78.06"/>
<polygon fill="midnightblue" stroke="midnightblue" points="515.01,-82.94 505.26,-87.08 515.47,-89.92 515.01,-82.94"/>
</g>
<!-- Node15 -->
<g id="node15" class="node">
<title>Node15</title>
<g id="a_node15"><a xlink:href="classdrain_1_1Frame2D.html" target="_top" xlink:title=" ">
<polygon fill="white" stroke="black" points="388,-5.5 388,-24.5 500,-24.5 500,-5.5 388,-5.5"/>
<text text-anchor="middle" x="444" y="-12.5" font-family="Helvetica,sans-Serif" font-size="10.00">Frame2D&lt; size_t &gt;</text>
</a>
</g>
</g>
<!-- Node15&#45;&gt;Node13 -->
<g id="edge14" class="edge">
<title>Node15&#45;&gt;Node13</title>
<path fill="none" stroke="#9a32cd" stroke-dasharray="5,2" d="M493.04,-27.09C516.3,-32.99 544.63,-40.27 570,-47 594.79,-53.58 622.77,-61.28 643.68,-67.1"/>
<polygon fill="#9a32cd" stroke="#9a32cd" points="493.62,-23.62 483.06,-24.56 491.9,-30.41 493.62,-23.62"/>
<text text-anchor="middle" x="546.5" y="-50" font-family="Helvetica,sans-Serif" font-size="10.00"> area</text>
</g>
<!-- Node16 -->
<g id="node16" class="node">
<title>Node16</title>
<g id="a_node16"><a xlink:href="classdrain_1_1UniTuple.html" target="_top" xlink:title=" ">
<polygon fill="white" stroke="black" points="165,-23.5 165,-42.5 287,-42.5 287,-23.5 165,-23.5"/>
<text text-anchor="middle" x="226" y="-30.5" font-family="Helvetica,sans-Serif" font-size="10.00">UniTuple&lt; size_t, 2 &gt;</text>
</a>
</g>
</g>
<!-- Node16&#45;&gt;Node15 -->
<g id="edge15" class="edge">
<title>Node16&#45;&gt;Node15</title>
<path fill="none" stroke="midnightblue" d="M297.37,-27.14C326.77,-24.69 360.42,-21.88 387.96,-19.59"/>
<polygon fill="midnightblue" stroke="midnightblue" points="296.84,-23.67 287.17,-27.99 297.42,-30.64 296.84,-23.67"/>
</g>
<!-- Node17 -->
<g id="node17" class="node">
<title>Node17</title>
<g id="a_node17"><a xlink:href="classdrain_1_1image_1_1ChannelGeometry.html" target="_top" xlink:title=" ">
<polygon fill="white" stroke="black" points="391.5,-43.5 391.5,-62.5 496.5,-62.5 496.5,-43.5 391.5,-43.5"/>
<text text-anchor="middle" x="444" y="-50.5" font-family="Helvetica,sans-Serif" font-size="10.00">ChannelGeometry</text>
</a>
</g>
</g>
<!-- Node16&#45;&gt;Node17 -->
<g id="edge17" class="edge">
<title>Node16&#45;&gt;Node17</title>
<path fill="none" stroke="midnightblue" d="M297.34,-39.51C327.92,-42.34 363.09,-45.6 391.22,-48.21"/>
<polygon fill="midnightblue" stroke="midnightblue" points="297.45,-36.01 287.17,-38.57 296.8,-42.98 297.45,-36.01"/>
</g>
<!-- Node17&#45;&gt;Node13 -->
<g id="edge16" class="edge">
<title>Node17&#45;&gt;Node13</title>
<path fill="none" stroke="#9a32cd" stroke-dasharray="5,2" d="M506.79,-59.17C550.98,-63.57 608.62,-69.33 643.81,-72.84"/>
<polygon fill="#9a32cd" stroke="#9a32cd" points="507.03,-55.67 496.73,-58.16 506.33,-62.64 507.03,-55.67"/>
<text text-anchor="middle" x="546.5" y="-69" font-family="Helvetica,sans-Serif" font-size="10.00"> channels</text>
</g>
<!-- Node18 -->
<g id="node18" class="node">
<title>Node18</title>
<g id="a_node18"><a xlink:href="classdrain_1_1image_1_1CoordinatePolicy.html" target="_top" xlink:title="Policies for coordinate underflows and overflows.">
<polygon fill="white" stroke="black" points="627,-149.5 627,-168.5 726,-168.5 726,-149.5 627,-149.5"/>
<text text-anchor="middle" x="676.5" y="-156.5" font-family="Helvetica,sans-Serif" font-size="10.00">CoordinatePolicy</text>
</a>
</g>
</g>
<!-- Node18&#45;&gt;Node6 -->
<g id="edge18" class="edge">
<title>Node18&#45;&gt;Node6</title>
<path fill="none" stroke="#9a32cd" stroke-dasharray="5,2" d="M736.1,-165.22C795.87,-171.57 886.59,-181.2 935.46,-186.39"/>
<polygon fill="#9a32cd" stroke="#9a32cd" points="736.36,-161.73 726.05,-164.15 735.62,-168.69 736.36,-161.73"/>
<text text-anchor="middle" x="825.5" y="-183" font-family="Helvetica,sans-Serif" font-size="10.00"> coordinatePolicy</text>
</g>
<!-- Node33 -->
<g id="node33" class="node">
<title>Node33</title>
<g id="a_node33"><a xlink:href="classdrain_1_1image_1_1CoordinateHandler2D.html" target="_top" xlink:title=" ">
<polygon fill="white" stroke="black" points="1604,-112.5 1604,-131.5 1726,-131.5 1726,-112.5 1604,-112.5"/>
<text text-anchor="middle" x="1665" y="-119.5" font-family="Helvetica,sans-Serif" font-size="10.00">CoordinateHandler2D</text>
</a>
</g>
</g>
<!-- Node18&#45;&gt;Node33 -->
<g id="edge38" class="edge">
<title>Node18&#45;&gt;Node33</title>
<path fill="none" stroke="#9a32cd" stroke-dasharray="5,2" d="M736.28,-155.48C795.23,-152.27 888.62,-148 969.5,-148 969.5,-148 969.5,-148 1481,-148 1529.46,-148 1584.42,-138.95 1621.35,-131.53"/>
<polygon fill="#9a32cd" stroke="#9a32cd" points="735.84,-152 726.05,-156.05 736.22,-158.99 735.84,-152"/>
<text text-anchor="middle" x="1257.5" y="-151" font-family="Helvetica,sans-Serif" font-size="10.00"> policy</text>
</g>
<!-- Node19 -->
<g id="node19" class="node">
<title>Node19</title>
<g id="a_node19"><a xlink:href="classdrain_1_1UniTuple.html" target="_top" xlink:title=" ">
<polygon fill="white" stroke="black" points="385.5,-120 385.5,-150 502.5,-150 502.5,-120 385.5,-120"/>
<text text-anchor="start" x="393.5" y="-138" font-family="Helvetica,sans-Serif" font-size="10.00">UniTuple&lt; coord_pol</text>
<text text-anchor="middle" x="444" y="-127" font-family="Helvetica,sans-Serif" font-size="10.00">_t, 4 &gt;</text>
</a>
</g>
</g>
<!-- Node19&#45;&gt;Node18 -->
<g id="edge19" class="edge">
<title>Node19&#45;&gt;Node18</title>
<path fill="none" stroke="midnightblue" d="M512.67,-142.05C549.28,-145.86 593.66,-150.48 626.84,-153.93"/>
<polygon fill="midnightblue" stroke="midnightblue" points="512.88,-138.55 502.57,-140.99 512.15,-145.51 512.88,-138.55"/>
</g>
<!-- Node20 -->
<g id="node20" class="node">
<title>Node20</title>
<g id="a_node20"><a xlink:href="classdrain_1_1Dictionary2.html" target="_top" xlink:title="Two&#45;way mapping between strings and objects of template class T.">
<polygon fill="white" stroke="black" points="386.5,-169.5 386.5,-188.5 501.5,-188.5 501.5,-169.5 386.5,-169.5"/>
<text text-anchor="middle" x="444" y="-176.5" font-family="Helvetica,sans-Serif" font-size="10.00">Dictionary2&lt; K, V &gt;</text>
</a>
</g>
</g>
<!-- Node20&#45;&gt;Node18 -->
<g id="edge20" class="edge">
<title>Node20&#45;&gt;Node18</title>
<path fill="none" stroke="#9a32cd" stroke-dasharray="5,2" d="M511.82,-173.2C548.6,-170.01 593.41,-166.12 626.85,-163.22"/>
<polygon fill="#9a32cd" stroke="#9a32cd" points="511.34,-169.73 501.68,-174.08 511.95,-176.7 511.34,-169.73"/>
<text text-anchor="middle" x="546.5" y="-175" font-family="Helvetica,sans-Serif" font-size="10.00"> dict</text>
</g>
<!-- Node21 -->
<g id="node21" class="node">
<title>Node21</title>
<g id="a_node21"><a xlink:title=" ">
<polygon fill="white" stroke="#bfbfbf" points="174,-161 174,-191 278,-191 278,-161 174,-161"/>
<text text-anchor="start" x="182" y="-179" font-family="Helvetica,sans-Serif" font-size="10.00">list&lt; std::pair&lt; K,</text>
<text text-anchor="middle" x="226" y="-168" font-family="Helvetica,sans-Serif" font-size="10.00"> V &gt; &gt;</text>
</a>
</g>
</g>
<!-- Node21&#45;&gt;Node20 -->
<g id="edge21" class="edge">
<title>Node21&#45;&gt;Node20</title>
<path fill="none" stroke="midnightblue" d="M288.39,-176.85C319.23,-177.28 356.35,-177.8 386.48,-178.22"/>
<polygon fill="midnightblue" stroke="midnightblue" points="288.24,-173.35 278.19,-176.71 288.14,-180.35 288.24,-173.35"/>
</g>
<!-- Node22 -->
<g id="node22" class="node">
<title>Node22</title>
<g id="a_node22"><a xlink:href="classdrain_1_1CastableIterator.html" target="_top" xlink:title=" ">
<polygon fill="white" stroke="black" points="1073,-271.5 1073,-290.5 1168,-290.5 1168,-271.5 1073,-271.5"/>
<text text-anchor="middle" x="1120.5" y="-278.5" font-family="Helvetica,sans-Serif" font-size="10.00">CastableIterator</text>
</a>
</g>
</g>
<!-- Node22&#45;&gt;Node4 -->
<g id="edge22" class="edge">
<title>Node22&#45;&gt;Node4</title>
<path fill="none" stroke="#9a32cd" stroke-dasharray="5,2" d="M1178.12,-282.71C1238.13,-282.9 1334.95,-278.52 1414,-253 1433.65,-246.66 1453.81,-233.67 1466.36,-224.65"/>
<polygon fill="#9a32cd" stroke="#9a32cd" points="1178.11,-279.21 1168.08,-282.64 1178.06,-286.21 1178.11,-279.21"/>
<text text-anchor="middle" x="1257.5" y="-296" font-family="Helvetica,sans-Serif" font-size="10.00"> segmentEnd</text>
<text text-anchor="middle" x="1257.5" y="-285" font-family="Helvetica,sans-Serif" font-size="10.00">segmentBegin</text>
</g>
<!-- Node23&#45;&gt;Node22 -->
<g id="edge23" class="edge">
<title>Node23&#45;&gt;Node22</title>
<path fill="none" stroke="darkgreen" d="M716.46,-282.82C797.82,-282.46 985.47,-281.61 1072.99,-281.21"/>
<polygon fill="darkgreen" stroke="darkgreen" points="716.14,-279.33 706.16,-282.87 716.18,-286.32 716.14,-279.33"/>
</g>
<!-- Node24 -->
<g id="node24" class="node">
<title>Node24</title>
<g id="a_node24"><a xlink:href="classdrain_1_1FlexVariableMap.html" target="_top" xlink:title="A map of FlexVariable:s.">
<polygon fill="white" stroke="black" points="1208,-224.5 1208,-243.5 1307,-243.5 1307,-224.5 1208,-224.5"/>
<text text-anchor="middle" x="1257.5" y="-231.5" font-family="Helvetica,sans-Serif" font-size="10.00">FlexVariableMap</text>
</a>
</g>
</g>
<!-- Node24&#45;&gt;Node4 -->
<g id="edge25" class="edge">
<title>Node24&#45;&gt;Node4</title>
<path fill="none" stroke="#9a32cd" stroke-dasharray="5,2" d="M1317.36,-228.93C1356.47,-225.56 1406.7,-221.23 1440.7,-218.3"/>
<polygon fill="#9a32cd" stroke="#9a32cd" points="1316.83,-225.46 1307.16,-229.81 1317.43,-232.44 1316.83,-225.46"/>
<text text-anchor="middle" x="1380.5" y="-241" font-family="Helvetica,sans-Serif" font-size="10.00"> propertiesPtr</text>
<text text-anchor="middle" x="1380.5" y="-230" font-family="Helvetica,sans-Serif" font-size="10.00">properties</text>
</g>
<!-- Node25 -->
<g id="node25" class="node">
<title>Node25</title>
<g id="a_node25"><a xlink:href="classdrain_1_1SmartMap.html" target="_top" xlink:title=" ">
<polygon fill="white" stroke="black" points="895,-230.5 895,-249.5 1046,-249.5 1046,-230.5 895,-230.5"/>
<text text-anchor="middle" x="970.5" y="-237.5" font-family="Helvetica,sans-Serif" font-size="10.00">SmartMap&lt; FlexVariable &gt;</text>
</a>
</g>
</g>
<!-- Node25&#45;&gt;Node24 -->
<g id="edge26" class="edge">
<title>Node25&#45;&gt;Node24</title>
<path fill="none" stroke="midnightblue" d="M1056.07,-238.22C1105.6,-237.18 1166.38,-235.9 1207.94,-235.02"/>
<polygon fill="midnightblue" stroke="midnightblue" points="1055.93,-234.72 1046.01,-238.43 1056.08,-241.72 1055.93,-234.72"/>
</g>
<!-- Node26 -->
<g id="node26" class="node">
<title>Node26</title>
<g id="a_node26"><a xlink:title=" ">
<polygon fill="white" stroke="#bfbfbf" points="588,-235.5 588,-254.5 765,-254.5 765,-235.5 588,-235.5"/>
<text text-anchor="middle" x="676.5" y="-242.5" font-family="Helvetica,sans-Serif" font-size="10.00">map&lt; std::string, FlexVariable &gt;</text>
</a>
</g>
</g>
<!-- Node26&#45;&gt;Node25 -->
<g id="edge27" class="edge">
<title>Node26&#45;&gt;Node25</title>
<path fill="none" stroke="midnightblue" d="M775.42,-243.32C814.38,-242.66 858.48,-241.9 894.78,-241.28"/>
<polygon fill="midnightblue" stroke="midnightblue" points="775.05,-239.83 765.11,-243.5 775.17,-246.83 775.05,-239.83"/>
</g>
<!-- Node27 -->
<g id="node27" class="node">
<title>Node27</title>
<g id="a_node27"><a xlink:href="classdrain_1_1image_1_1SegmentProberConf.html" target="_top" xlink:title=" ">
<polygon fill="white" stroke="black" points="1604,-28 1604,-58 1726,-58 1726,-28 1604,-28"/>
<text text-anchor="start" x="1612" y="-46" font-family="Helvetica,sans-Serif" font-size="10.00">SegmentProberConf&lt;</text>
<text text-anchor="middle" x="1665" y="-35" font-family="Helvetica,sans-Serif" font-size="10.00"> int, int &gt;</text>
</a>
</g>
</g>
<!-- Node27&#45;&gt;Node2 -->
<g id="edge28" class="edge">
<title>Node27&#45;&gt;Node2</title>
<path fill="none" stroke="#9a32cd" stroke-dasharray="5,2" d="M1714.29,-61.79C1745,-73.74 1784.77,-89.22 1816.3,-101.49"/>
<polygon fill="#9a32cd" stroke="#9a32cd" points="1715.25,-58.41 1704.66,-58.05 1712.71,-64.93 1715.25,-58.41"/>
<text text-anchor="middle" x="1764" y="-91" font-family="Helvetica,sans-Serif" font-size="10.00"> conf</text>
</g>
<!-- Node28 -->
<g id="node28" class="node">
<title>Node28</title>
<g id="a_node28"><a xlink:href="classdrain_1_1ReferenceMap.html" target="_top" xlink:title=" ">
<polygon fill="white" stroke="black" points="1436.5,-0.5 1436.5,-19.5 1523.5,-19.5 1523.5,-0.5 1436.5,-0.5"/>
<text text-anchor="middle" x="1480" y="-7.5" font-family="Helvetica,sans-Serif" font-size="10.00">ReferenceMap</text>
</a>
</g>
</g>
<!-- Node28&#45;&gt;Node27 -->
<g id="edge29" class="edge">
<title>Node28&#45;&gt;Node27</title>
<path fill="none" stroke="midnightblue" d="M1533.97,-19.55C1555.79,-23.49 1581.18,-28.06 1603.7,-32.13"/>
<polygon fill="midnightblue" stroke="midnightblue" points="1534.37,-16.07 1523.91,-17.74 1533.13,-22.96 1534.37,-16.07"/>
</g>
<!-- Node29 -->
<g id="node29" class="node">
<title>Node29</title>
<g id="a_node29"><a xlink:href="classdrain_1_1SmartMap.html" target="_top" xlink:title=" ">
<polygon fill="white" stroke="black" points="1186,-0.5 1186,-19.5 1329,-19.5 1329,-0.5 1186,-0.5"/>
<text text-anchor="middle" x="1257.5" y="-7.5" font-family="Helvetica,sans-Serif" font-size="10.00">SmartMap&lt; Referencer &gt;</text>
</a>
</g>
</g>
<!-- Node29&#45;&gt;Node28 -->
<g id="edge30" class="edge">
<title>Node29&#45;&gt;Node28</title>
<path fill="none" stroke="midnightblue" d="M1339.25,-10C1372.13,-10 1408.8,-10 1436.32,-10"/>
<polygon fill="midnightblue" stroke="midnightblue" points="1339.18,-6.5 1329.18,-10 1339.18,-13.5 1339.18,-6.5"/>
</g>
<!-- Node30 -->
<g id="node30" class="node">
<title>Node30</title>
<g id="a_node30"><a xlink:title=" ">
<polygon fill="white" stroke="#bfbfbf" points="886,-0.5 886,-19.5 1055,-19.5 1055,-0.5 886,-0.5"/>
<text text-anchor="middle" x="970.5" y="-7.5" font-family="Helvetica,sans-Serif" font-size="10.00">map&lt; std::string, Referencer &gt;</text>
</a>
</g>
</g>
<!-- Node30&#45;&gt;Node29 -->
<g id="edge31" class="edge">
<title>Node30&#45;&gt;Node29</title>
<path fill="none" stroke="midnightblue" d="M1065.21,-10C1104.53,-10 1149.48,-10 1185.92,-10"/>
<polygon fill="midnightblue" stroke="midnightblue" points="1065.08,-6.5 1055.08,-10 1065.08,-13.5 1065.08,-6.5"/>
</g>
<!-- Node31 -->
<g id="node31" class="node">
<title>Node31</title>
<g id="a_node31"><a xlink:href="classdrain_1_1Range.html" target="_top" xlink:title=" ">
<polygon fill="white" stroke="black" points="1438.5,-62.5 1438.5,-81.5 1521.5,-81.5 1521.5,-62.5 1438.5,-62.5"/>
<text text-anchor="middle" x="1480" y="-69.5" font-family="Helvetica,sans-Serif" font-size="10.00">Range&lt; int &gt;</text>
</a>
</g>
</g>
<!-- Node31&#45;&gt;Node27 -->
<g id="edge32" class="edge">
<title>Node31&#45;&gt;Node27</title>
<path fill="none" stroke="#9a32cd" stroke-dasharray="5,2" d="M1507.11,-57.92C1518.68,-52.44 1532.66,-46.81 1546,-44 1564.54,-40.09 1585.09,-38.88 1603.78,-38.92"/>
<polygon fill="#9a32cd" stroke="#9a32cd" points="1505.44,-54.85 1498.03,-62.43 1508.55,-61.12 1505.44,-54.85"/>
<text text-anchor="middle" x="1566" y="-47" font-family="Helvetica,sans-Serif" font-size="10.00"> anchor</text>
</g>
<!-- Node31&#45;&gt;Node33 -->
<g id="edge35" class="edge">
<title>Node31&#45;&gt;Node33</title>
<path fill="none" stroke="#9a32cd" stroke-dasharray="5,2" d="M1531.63,-77.69C1549.06,-80.31 1568.57,-83.98 1586,-89 1606.77,-94.98 1629.41,-104.97 1644.92,-112.4"/>
<polygon fill="#9a32cd" stroke="#9a32cd" points="1532.03,-74.22 1521.64,-76.27 1531.04,-81.15 1532.03,-74.22"/>
<text text-anchor="middle" x="1566" y="-103" font-family="Helvetica,sans-Serif" font-size="10.00"> yRange</text>
<text text-anchor="middle" x="1566" y="-92" font-family="Helvetica,sans-Serif" font-size="10.00">xRange</text>
</g>
<!-- Node32 -->
<g id="node32" class="node">
<title>Node32</title>
<g id="a_node32"><a xlink:href="classdrain_1_1UniTuple.html" target="_top" xlink:title=" ">
<polygon fill="white" stroke="black" points="1204.5,-77.5 1204.5,-96.5 1310.5,-96.5 1310.5,-77.5 1204.5,-77.5"/>
<text text-anchor="middle" x="1257.5" y="-84.5" font-family="Helvetica,sans-Serif" font-size="10.00">UniTuple&lt; int, 2 &gt;</text>
</a>
</g>
</g>
<!-- Node32&#45;&gt;Node31 -->
<g id="edge33" class="edge">
<title>Node32&#45;&gt;Node31</title>
<path fill="none" stroke="midnightblue" d="M1321.12,-82.74C1358.79,-80.18 1405.64,-76.99 1438.49,-74.76"/>
<polygon fill="midnightblue" stroke="midnightblue" points="1320.49,-79.27 1310.76,-83.45 1320.97,-86.26 1320.49,-79.27"/>
</g>
<!-- Node34 -->
<g id="node34" class="node">
<title>Node34</title>
<g id="a_node34"><a xlink:href="classdrain_1_1Frame2D.html" target="_top" xlink:title=" ">
<polygon fill="white" stroke="black" points="1432,-100.5 1432,-119.5 1528,-119.5 1528,-100.5 1432,-100.5"/>
<text text-anchor="middle" x="1480" y="-107.5" font-family="Helvetica,sans-Serif" font-size="10.00">Frame2D&lt; int &gt;</text>
</a>
</g>
</g>
<!-- Node32&#45;&gt;Node34 -->
<g id="edge37" class="edge">
<title>Node32&#45;&gt;Node34</title>
<path fill="none" stroke="midnightblue" d="M1320.95,-93.51C1356.23,-97.19 1399.62,-101.72 1432,-105.1"/>
<polygon fill="midnightblue" stroke="midnightblue" points="1321.06,-90.01 1310.76,-92.45 1320.34,-96.97 1321.06,-90.01"/>
</g>
<!-- Node33&#45;&gt;Node2 -->
<g id="edge34" class="edge">
<title>Node33&#45;&gt;Node2</title>
<path fill="none" stroke="#9a32cd" stroke-dasharray="5,2" d="M1736.34,-122C1757.62,-122 1780.91,-122 1801.96,-122"/>
<polygon fill="#9a32cd" stroke="#9a32cd" points="1736.08,-118.5 1726.08,-122 1736.08,-125.5 1736.08,-118.5"/>
<text text-anchor="middle" x="1764" y="-125" font-family="Helvetica,sans-Serif" font-size="10.00"> handler</text>
</g>
<!-- Node34&#45;&gt;Node33 -->
<g id="edge36" class="edge">
<title>Node34&#45;&gt;Node33</title>
<path fill="none" stroke="#9a32cd" stroke-dasharray="5,2" d="M1538.14,-113.75C1559.04,-115.12 1582.73,-116.67 1603.88,-118.06"/>
<polygon fill="#9a32cd" stroke="#9a32cd" points="1538.33,-110.25 1528.13,-113.09 1537.88,-117.24 1538.33,-110.25"/>
<text text-anchor="middle" x="1566" y="-120" font-family="Helvetica,sans-Serif" font-size="10.00"> area</text>
</g>
</g>
</svg>
        <g id="navigator" transform="translate(0 0)" fill="#404254">
                <rect fill="#f2f5e9" fill-opacity="0.5" stroke="#606060" stroke-width=".5" x="0" y="0" width="60" height="60"/>
                <use id="zoomplus" xlink:href="#zoomPlus" x="17" y="9" onmousedown="handleZoom(evt,'in')"/>
                <use id="zoomminus" xlink:href="#zoomMin" x="42" y="9" onmousedown="handleZoom(evt,'out')"/>
                <use id="reset" xlink:href="#resetDef" x="30" y="36" onmousedown="handleReset()"/>
                <g id="arrowUp" xlink:href="#dirArrow" transform="translate(30 24)" onmousedown="handlePan(0,-1)">
                  <use xlink:href="#rim" fill="#404040">
                        <set attributeName="fill" to="#808080" begin="arrowUp.mouseover" end="arrowUp.mouseout"/>
                  </use>
                  <path fill="none" stroke="white" stroke-width="1.5" d="M0,-3.0v7 M-2.5,-0.5L0,-3.0L2.5,-0.5"/>
                </g>
                <g id="arrowRight" xlink:href="#dirArrow" transform="rotate(90) translate(36 -43)" onmousedown="handlePan(1,0)">
                  <use xlink:href="#rim" fill="#404040">
                        <set attributeName="fill" to="#808080" begin="arrowRight.mouseover" end="arrowRight.mouseout"/>
                  </use>
                  <path fill="none" stroke="white" stroke-width="1.5" d="M0,-3.0v7 M-2.5,-0.5L0,-3.0L2.5,-0.5"/>
                </g>
                <g id="arrowDown" xlink:href="#dirArrow" transform="rotate(180) translate(-30 -48)" onmousedown="handlePan(0,1)">
                  <use xlink:href="#rim" fill="#404040">
                        <set attributeName="fill" to="#808080" begin="arrowDown.mouseover" end="arrowDown.mouseout"/>
                  </use>
                  <path fill="none" stroke="white" stroke-width="1.5" d="M0,-3.0v7 M-2.5,-0.5L0,-3.0L2.5,-0.5"/>
                </g>
                <g id="arrowLeft" xlink:href="#dirArrow" transform="rotate(270) translate(-36 17)" onmousedown="handlePan(-1,0)">
                  <use xlink:href="#rim" fill="#404040">
                        <set attributeName="fill" to="#808080" begin="arrowLeft.mouseover" end="arrowLeft.mouseout"/>
                  </use>
                  <path fill="none" stroke="white" stroke-width="1.5" d="M0,-3.0v7 M-2.5,-0.5L0,-3.0L2.5,-0.5"/>
                </g>
        </g>
        <svg viewBox="0 0 15 15" width="100%" height="30px" preserveAspectRatio="xMaxYMin meet">
         <g id="arrow_out" transform="scale(0.3 0.3)">
          <a xlink:href="classdrain_1_1image_1_1FillProber__coll__graph_org.svg" target="_base">
           <rect id="button" ry="5" rx="5" y="6" x="6" height="38" width="38"
                fill="#f2f5e9" fill-opacity="0.5" stroke="#606060" stroke-width="1.0"/>
           <path id="arrow"
             d="M 11.500037,31.436501 C 11.940474,20.09759 22.043105,11.32322 32.158766,21.979434 L 37.068811,17.246167 C 37.068811,17.246167 37.088388,32 37.088388,32 L 22.160133,31.978069 C 22.160133,31.978069 26.997745,27.140456 26.997745,27.140456 C 18.528582,18.264221 13.291696,25.230495 11.500037,31.436501 z"
             style="fill:#404040;"/>
          </a>
         </g>
        </svg>
</svg>
