<?xml version="1.0" encoding="UTF-8" standalone="no"?>
<!DOCTYPE svg PUBLIC "-//W3C//DTD SVG 1.1//EN"
 "http://www.w3.org/Graphics/SVG/1.1/DTD/svg11.dtd">
<!-- Generated by graphviz version 2.43.0 (0)
 -->
<!-- Title: PaletteOp Pages: 1 -->
<svg width="1347pt" height="205pt"
 viewBox="0.00 0.00 1347.00 204.50" xmlns="http://www.w3.org/2000/svg" xmlns:xlink="http://www.w3.org/1999/xlink">
<g id="graph0" class="graph" transform="scale(1 1) rotate(0) translate(4 200.5)">
<title>PaletteOp</title>
<polygon fill="white" stroke="transparent" points="-4,4 -4,-200.5 1343,-200.5 1343,4 -4,4"/>
<!-- Node1 -->
<g id="node1" class="node">
<title>Node1</title>
<g id="a_node1"><a xlink:title="Colorizes an image of 1 channel to an image of N channels by using a palette image as a lookup table.">
<polygon fill="#bfbfbf" stroke="black" points="1274,-83 1274,-102 1339,-102 1339,-83 1274,-83"/>
<text text-anchor="middle" x="1306.5" y="-90" font-family="Helvetica,sans-Serif" font-size="10.00">PaletteOp</text>
</a>
</g>
</g>
<!-- Node2 -->
<g id="node2" class="node">
<title>Node2</title>
<g id="a_node2"><a xlink:href="classdrain_1_1image_1_1ImageOp.html" target="_top" xlink:title="Base class for image processing functions.">
<polygon fill="white" stroke="black" points="1112,-124 1112,-143 1173,-143 1173,-124 1112,-124"/>
<text text-anchor="middle" x="1142.5" y="-131" font-family="Helvetica,sans-Serif" font-size="10.00">ImageOp</text>
</a>
</g>
</g>
<!-- Node2&#45;&gt;Node1 -->
<g id="edge1" class="edge">
<title>Node2&#45;&gt;Node1</title>
<path fill="none" stroke="midnightblue" d="M1183.04,-123.49C1210.93,-116.43 1247.79,-107.11 1273.76,-100.53"/>
<polygon fill="midnightblue" stroke="midnightblue" points="1182.05,-120.13 1173.21,-125.98 1183.77,-126.92 1182.05,-120.13"/>
</g>
<!-- Node3 -->
<g id="node3" class="node">
<title>Node3</title>
<g id="a_node3"><a xlink:href="classdrain_1_1image_1_1ImageMod.html" target="_top" xlink:title="Class for operations that modify an existing image instead of producing a new image.">
<polygon fill="white" stroke="black" points="902,-153 902,-172 970,-172 970,-153 902,-153"/>
<text text-anchor="middle" x="936" y="-160" font-family="Helvetica,sans-Serif" font-size="10.00">ImageMod</text>
</a>
</g>
</g>
<!-- Node3&#45;&gt;Node2 -->
<g id="edge2" class="edge">
<title>Node3&#45;&gt;Node2</title>
<path fill="none" stroke="midnightblue" d="M980.46,-156.34C1020.01,-150.73 1077.34,-142.6 1111.86,-137.7"/>
<polygon fill="midnightblue" stroke="midnightblue" points="979.72,-152.91 970.31,-157.78 980.7,-159.84 979.72,-152.91"/>
</g>
<!-- Node4 -->
<g id="node4" class="node">
<title>Node4</title>
<g id="a_node4"><a xlink:href="classdrain_1_1BeanLike.html" target="_top" xlink:title="Something which has a name, a description and possibly some parameters of varying type.">
<polygon fill="white" stroke="black" points="663.5,-176 663.5,-195 724.5,-195 724.5,-176 663.5,-176"/>
<text text-anchor="middle" x="694" y="-183" font-family="Helvetica,sans-Serif" font-size="10.00">BeanLike</text>
</a>
</g>
</g>
<!-- Node4&#45;&gt;Node3 -->
<g id="edge3" class="edge">
<title>Node4&#45;&gt;Node3</title>
<path fill="none" stroke="midnightblue" d="M734.96,-181.67C781.63,-177.2 857.99,-169.88 901.62,-165.7"/>
<polygon fill="midnightblue" stroke="midnightblue" points="734.53,-178.2 724.91,-182.63 735.2,-185.16 734.53,-178.2"/>
</g>
<!-- Node5 -->
<g id="node5" class="node">
<title>Node5</title>
<g id="a_node5"><a xlink:href="classdrain_1_1ReferenceMap.html" target="_top" xlink:title=" ">
<polygon fill="white" stroke="black" points="408.5,-176 408.5,-195 495.5,-195 495.5,-176 408.5,-176"/>
<text text-anchor="middle" x="452" y="-183" font-family="Helvetica,sans-Serif" font-size="10.00">ReferenceMap</text>
</a>
</g>
</g>
<!-- Node5&#45;&gt;Node4 -->
<g id="edge4" class="edge">
<title>Node5&#45;&gt;Node4</title>
<path fill="none" stroke="#9a32cd" stroke-dasharray="5,2" d="M505.91,-185.5C554.25,-185.5 624.01,-185.5 663.26,-185.5"/>
<polygon fill="#9a32cd" stroke="#9a32cd" points="505.63,-182 495.63,-185.5 505.63,-189 505.63,-182"/>
<text text-anchor="middle" x="566" y="-188.5" font-family="Helvetica,sans-Serif" font-size="10.00"> parameters</text>
</g>
<!-- Node6 -->
<g id="node6" class="node">
<title>Node6</title>
<g id="a_node6"><a xlink:href="classdrain_1_1SmartMap.html" target="_top" xlink:title=" ">
<polygon fill="white" stroke="black" points="206,-176 206,-195 349,-195 349,-176 206,-176"/>
<text text-anchor="middle" x="277.5" y="-183" font-family="Helvetica,sans-Serif" font-size="10.00">SmartMap&lt; Referencer &gt;</text>
</a>
</g>
</g>
<!-- Node6&#45;&gt;Node5 -->
<g id="edge5" class="edge">
<title>Node6&#45;&gt;Node5</title>
<path fill="none" stroke="midnightblue" d="M359.6,-185.5C376.47,-185.5 393.59,-185.5 408.39,-185.5"/>
<polygon fill="midnightblue" stroke="midnightblue" points="359.16,-182 349.16,-185.5 359.16,-189 359.16,-182"/>
</g>
<!-- Node7 -->
<g id="node7" class="node">
<title>Node7</title>
<g id="a_node7"><a xlink:title=" ">
<polygon fill="white" stroke="#bfbfbf" points="0,-176 0,-195 169,-195 169,-176 0,-176"/>
<text text-anchor="middle" x="84.5" y="-183" font-family="Helvetica,sans-Serif" font-size="10.00">map&lt; std::string, Referencer &gt;</text>
</a>
</g>
</g>
<!-- Node7&#45;&gt;Node6 -->
<g id="edge6" class="edge">
<title>Node7&#45;&gt;Node6</title>
<path fill="none" stroke="midnightblue" d="M179.35,-185.5C188.29,-185.5 197.25,-185.5 205.92,-185.5"/>
<polygon fill="midnightblue" stroke="midnightblue" points="179.28,-182 169.28,-185.5 179.28,-189 179.28,-182"/>
</g>
<!-- Node8 -->
<g id="node8" class="node">
<title>Node8</title>
<g id="a_node8"><a xlink:href="classdrain_1_1image_1_1Palette.html" target="_top" xlink:title=" ">
<polygon fill="white" stroke="black" points="1117,-58 1117,-77 1168,-77 1168,-58 1117,-58"/>
<text text-anchor="middle" x="1142.5" y="-65" font-family="Helvetica,sans-Serif" font-size="10.00">Palette</text>
</a>
</g>
</g>
<!-- Node8&#45;&gt;Node1 -->
<g id="edge7" class="edge">
<title>Node8&#45;&gt;Node1</title>
<path fill="none" stroke="#9a32cd" stroke-dasharray="5,2" d="M1178.5,-64.96C1200.92,-64.17 1230.5,-64.73 1256,-70.5 1267.19,-73.03 1278.96,-78.15 1288.21,-82.81"/>
<polygon fill="#9a32cd" stroke="#9a32cd" points="1178.25,-61.46 1168.42,-65.41 1178.57,-68.46 1178.25,-61.46"/>
<text text-anchor="middle" x="1223.5" y="-95.5" font-family="Helvetica,sans-Serif" font-size="10.00"> myPalette</text>
<text text-anchor="middle" x="1223.5" y="-84.5" font-family="Helvetica,sans-Serif" font-size="10.00">palettePtr</text>
<text text-anchor="middle" x="1223.5" y="-73.5" font-family="Helvetica,sans-Serif" font-size="10.00">specialCodes</text>
</g>
<!-- Node9 -->
<g id="node9" class="node">
<title>Node9</title>
<g id="a_node9"><a xlink:href="classdrain_1_1ImageCodeMap.html" target="_top" xlink:title=" ">
<polygon fill="white" stroke="black" points="848,-94 848,-113 1024,-113 1024,-94 848,-94"/>
<text text-anchor="middle" x="936" y="-101" font-family="Helvetica,sans-Serif" font-size="10.00">ImageCodeMap&lt; PaletteEntry &gt;</text>
</a>
</g>
</g>
<!-- Node9&#45;&gt;Node8 -->
<g id="edge8" class="edge">
<title>Node9&#45;&gt;Node8</title>
<path fill="none" stroke="midnightblue" d="M1031.76,-92.52C1052.38,-89.49 1074,-85.82 1094,-81.5 1101.39,-79.9 1109.32,-77.75 1116.53,-75.61"/>
<polygon fill="midnightblue" stroke="midnightblue" points="1031.14,-89.07 1021.74,-93.95 1032.13,-96 1031.14,-89.07"/>
</g>
<!-- Node10 -->
<g id="node10" class="node">
<title>Node10</title>
<g id="a_node10"><a xlink:title=" ">
<polygon fill="white" stroke="#bfbfbf" points="614,-138 614,-157 774,-157 774,-138 614,-138"/>
<text text-anchor="middle" x="694" y="-145" font-family="Helvetica,sans-Serif" font-size="10.00">map&lt; double, PaletteEntry &gt;</text>
</a>
</g>
</g>
<!-- Node10&#45;&gt;Node9 -->
<g id="edge9" class="edge">
<title>Node10&#45;&gt;Node9</title>
<path fill="none" stroke="midnightblue" d="M757.27,-136.08C796.33,-128.92 846.09,-119.8 883.03,-113.03"/>
<polygon fill="midnightblue" stroke="midnightblue" points="756.28,-132.71 747.08,-137.95 757.54,-139.59 756.28,-132.71"/>
</g>
<!-- Node11 -->
<g id="node11" class="node">
<title>Node11</title>
<g id="a_node11"><a xlink:href="classdrain_1_1LookUp.html" target="_top" xlink:title=" ">
<polygon fill="white" stroke="black" points="625,-88.5 625,-118.5 763,-118.5 763,-88.5 625,-88.5"/>
<text text-anchor="start" x="633" y="-106.5" font-family="Helvetica,sans-Serif" font-size="10.00">LookUp&lt; typename cont</text>
<text text-anchor="middle" x="694" y="-95.5" font-family="Helvetica,sans-Serif" font-size="10.00">_t::const_iterator &gt;</text>
</a>
</g>
</g>
<!-- Node11&#45;&gt;Node9 -->
<g id="edge10" class="edge">
<title>Node11&#45;&gt;Node9</title>
<path fill="none" stroke="#9a32cd" stroke-dasharray="5,2" d="M773.19,-103.5C797.04,-103.5 823.41,-103.5 847.81,-103.5"/>
<polygon fill="#9a32cd" stroke="#9a32cd" points="773.13,-100 763.13,-103.5 773.13,-107 773.13,-100"/>
<text text-anchor="middle" x="811" y="-106.5" font-family="Helvetica,sans-Serif" font-size="10.00"> lookUp</text>
</g>
<!-- Node12 -->
<g id="node12" class="node">
<title>Node12</title>
<g id="a_node12"><a xlink:title=" ">
<polygon fill="white" stroke="#bfbfbf" points="386,-88.5 386,-118.5 518,-118.5 518,-88.5 386,-88.5"/>
<text text-anchor="start" x="394" y="-106.5" font-family="Helvetica,sans-Serif" font-size="10.00">vector&lt; typename cont</text>
<text text-anchor="middle" x="452" y="-95.5" font-family="Helvetica,sans-Serif" font-size="10.00">_t::const_iterator &gt;</text>
</a>
</g>
</g>
<!-- Node12&#45;&gt;Node11 -->
<g id="edge11" class="edge">
<title>Node12&#45;&gt;Node11</title>
<path fill="none" stroke="midnightblue" d="M528.53,-103.5C559.37,-103.5 594.78,-103.5 624.82,-103.5"/>
<polygon fill="midnightblue" stroke="midnightblue" points="528.26,-100 518.26,-103.5 528.26,-107 528.26,-100"/>
</g>
<!-- Node13 -->
<g id="node13" class="node">
<title>Node13</title>
<g id="a_node13"><a xlink:href="classdrain_1_1image_1_1ChannelGeometry.html" target="_top" xlink:title=" ">
<polygon fill="white" stroke="black" points="883.5,-55 883.5,-74 988.5,-74 988.5,-55 883.5,-55"/>
<text text-anchor="middle" x="936" y="-62" font-family="Helvetica,sans-Serif" font-size="10.00">ChannelGeometry</text>
</a>
</g>
</g>
<!-- Node13&#45;&gt;Node8 -->
<g id="edge12" class="edge">
<title>Node13&#45;&gt;Node8</title>
<path fill="none" stroke="#9a32cd" stroke-dasharray="5,2" d="M998.73,-65.41C1038.42,-65.99 1087.83,-66.71 1116.89,-67.14"/>
<polygon fill="#9a32cd" stroke="#9a32cd" points="998.65,-61.9 988.6,-65.26 998.55,-68.9 998.65,-61.9"/>
<text text-anchor="middle" x="1068" y="-69.5" font-family="Helvetica,sans-Serif" font-size="10.00"> channels</text>
</g>
<!-- Node14 -->
<g id="node14" class="node">
<title>Node14</title>
<g id="a_node14"><a xlink:href="classdrain_1_1UniTuple.html" target="_top" xlink:title=" ">
<polygon fill="white" stroke="black" points="633,-50 633,-69 755,-69 755,-50 633,-50"/>
<text text-anchor="middle" x="694" y="-57" font-family="Helvetica,sans-Serif" font-size="10.00">UniTuple&lt; size_t, 2 &gt;</text>
</a>
</g>
</g>
<!-- Node14&#45;&gt;Node13 -->
<g id="edge13" class="edge">
<title>Node14&#45;&gt;Node13</title>
<path fill="none" stroke="midnightblue" d="M765.66,-60.97C803.35,-61.76 848.91,-62.71 883.27,-63.42"/>
<polygon fill="midnightblue" stroke="midnightblue" points="765.32,-57.46 755.25,-60.76 765.18,-64.46 765.32,-57.46"/>
</g>
<!-- Node15 -->
<g id="node15" class="node">
<title>Node15</title>
<g id="a_node15"><a xlink:href="classdrain_1_1Dictionary2.html" target="_top" xlink:title=" ">
<polygon fill="white" stroke="black" points="879.5,-2.5 879.5,-32.5 992.5,-32.5 992.5,-2.5 879.5,-2.5"/>
<text text-anchor="start" x="887.5" y="-20.5" font-family="Helvetica,sans-Serif" font-size="10.00">Dictionary2&lt; key_t,</text>
<text text-anchor="middle" x="936" y="-9.5" font-family="Helvetica,sans-Serif" font-size="10.00"> std::string &gt;</text>
</a>
</g>
</g>
<!-- Node15&#45;&gt;Node8 -->
<g id="edge14" class="edge">
<title>Node15&#45;&gt;Node8</title>
<path fill="none" stroke="#9a32cd" stroke-dasharray="5,2" d="M1002.84,-29.26C1031.12,-34.85 1064.4,-42.13 1094,-50.5 1101.42,-52.6 1109.35,-55.26 1116.56,-57.85"/>
<polygon fill="#9a32cd" stroke="#9a32cd" points="1003.15,-25.76 992.67,-27.28 1001.82,-32.63 1003.15,-25.76"/>
<text text-anchor="middle" x="1068" y="-53.5" font-family="Helvetica,sans-Serif" font-size="10.00"> dictionary</text>
</g>
<!-- Node16 -->
<g id="node16" class="node">
<title>Node16</title>
<g id="a_node16"><a xlink:title=" ">
<polygon fill="white" stroke="#bfbfbf" points="638.5,-0.5 638.5,-30.5 749.5,-30.5 749.5,-0.5 638.5,-0.5"/>
<text text-anchor="start" x="646.5" y="-18.5" font-family="Helvetica,sans-Serif" font-size="10.00">list&lt; std::pair&lt; key</text>
<text text-anchor="middle" x="694" y="-7.5" font-family="Helvetica,sans-Serif" font-size="10.00">_t, std::string &gt; &gt;</text>
</a>
</g>
</g>
<!-- Node16&#45;&gt;Node15 -->
<g id="edge15" class="edge">
<title>Node16&#45;&gt;Node15</title>
<path fill="none" stroke="midnightblue" d="M760.02,-16.04C797.3,-16.35 843.61,-16.74 879.23,-17.04"/>
<polygon fill="midnightblue" stroke="midnightblue" points="759.79,-12.54 749.76,-15.96 759.73,-19.54 759.79,-12.54"/>
</g>
</g>
</svg>
