<?xml version="1.0" encoding="UTF-8" standalone="no"?>
<!DOCTYPE svg PUBLIC "-//W3C//DTD SVG 1.1//EN"
 "http://www.w3.org/Graphics/SVG/1.1/DTD/svg11.dtd">
<!-- Generated by graphviz version 2.43.0 (0)
 -->
<!-- Title: PixelVectorOp Pages: 1 -->
<svg width="692pt" height="191pt"
 viewBox="0.00 0.00 692.00 191.00" xmlns="http://www.w3.org/2000/svg" xmlns:xlink="http://www.w3.org/1999/xlink">
<g id="graph0" class="graph" transform="scale(1 1) rotate(0) translate(4 187)">
<title>PixelVectorOp</title>
<polygon fill="white" stroke="transparent" points="-4,4 -4,-187 688,-187 688,4 -4,4"/>
<!-- Node1 -->
<g id="node1" class="node">
<title>Node1</title>
<g id="a_node1"><a xlink:title="A base class for operations between of multi&#45;channel pixels (intensity vectors) of two images.">
<polygon fill="#bfbfbf" stroke="black" points="298,-60.5 298,-79.5 384,-79.5 384,-60.5 298,-60.5"/>
<text text-anchor="middle" x="341" y="-67.5" font-family="Helvetica,sans-Serif" font-size="10.00">PixelVectorOp</text>
</a>
</g>
</g>
<!-- Node5 -->
<g id="node5" class="node">
<title>Node5</title>
<g id="a_node5"><a xlink:href="classdrain_1_1image_1_1BinaryPixelVectorOp.html" target="_top" xlink:title=" ">
<polygon fill="white" stroke="black" points="422,-126 422,-156 564,-156 564,-126 422,-126"/>
<text text-anchor="start" x="430" y="-144" font-family="Helvetica,sans-Serif" font-size="10.00">BinaryPixelVectorOp</text>
<text text-anchor="middle" x="493" y="-133" font-family="Helvetica,sans-Serif" font-size="10.00">&lt; MultiplicationFunctor &gt;</text>
</a>
</g>
</g>
<!-- Node1&#45;&gt;Node5 -->
<g id="edge4" class="edge">
<title>Node1&#45;&gt;Node5</title>
<path fill="none" stroke="midnightblue" d="M364.9,-85.14C380.11,-94.78 400.74,-107.09 420,-116 427.69,-119.56 436.03,-122.9 444.22,-125.91"/>
<polygon fill="midnightblue" stroke="midnightblue" points="366.5,-82.01 356.2,-79.54 362.71,-87.9 366.5,-82.01"/>
</g>
<!-- Node8 -->
<g id="node8" class="node">
<title>Node8</title>
<g id="a_node8"><a xlink:href="classdrain_1_1image_1_1BinaryPixelVectorOp.html" target="_top" xlink:title=" ">
<polygon fill="white" stroke="black" points="427.5,-77 427.5,-107 558.5,-107 558.5,-77 427.5,-77"/>
<text text-anchor="start" x="435.5" y="-95" font-family="Helvetica,sans-Serif" font-size="10.00">BinaryPixelVectorOp</text>
<text text-anchor="middle" x="493" y="-84" font-family="Helvetica,sans-Serif" font-size="10.00">&lt; SubtractionFunctor &gt;</text>
</a>
</g>
</g>
<!-- Node1&#45;&gt;Node8 -->
<g id="edge7" class="edge">
<title>Node1&#45;&gt;Node8</title>
<path fill="none" stroke="midnightblue" d="M394.22,-77.66C404.93,-79.23 416.34,-80.9 427.43,-82.53"/>
<polygon fill="midnightblue" stroke="midnightblue" points="394.58,-74.18 384.18,-76.19 393.57,-81.1 394.58,-74.18"/>
</g>
<!-- Node10 -->
<g id="node10" class="node">
<title>Node10</title>
<g id="a_node10"><a xlink:href="classdrain_1_1image_1_1BinaryPixelVectorOp.html" target="_top" xlink:title=" ">
<polygon fill="white" stroke="black" points="420,-38.5 420,-57.5 566,-57.5 566,-38.5 420,-38.5"/>
<text text-anchor="middle" x="493" y="-45.5" font-family="Helvetica,sans-Serif" font-size="10.00">BinaryPixelVectorOp&lt; F &gt;</text>
</a>
</g>
</g>
<!-- Node1&#45;&gt;Node10 -->
<g id="edge9" class="edge">
<title>Node1&#45;&gt;Node10</title>
<path fill="none" stroke="midnightblue" d="M394.15,-62.35C404.8,-60.79 416.12,-59.13 427.15,-57.51"/>
<polygon fill="midnightblue" stroke="midnightblue" points="393.57,-58.9 384.18,-63.81 394.58,-65.82 393.57,-58.9"/>
</g>
<!-- Node11 -->
<g id="node11" class="node">
<title>Node11</title>
<g id="a_node11"><a xlink:href="classdrain_1_1image_1_1GrayOp.html" target="_top" xlink:title=" ">
<polygon fill="white" stroke="black" points="466.5,-0.5 466.5,-19.5 519.5,-19.5 519.5,-0.5 466.5,-0.5"/>
<text text-anchor="middle" x="493" y="-7.5" font-family="Helvetica,sans-Serif" font-size="10.00">GrayOp</text>
</a>
</g>
</g>
<!-- Node1&#45;&gt;Node11 -->
<g id="edge10" class="edge">
<title>Node1&#45;&gt;Node11</title>
<path fill="none" stroke="midnightblue" d="M366.32,-55.39C381.38,-46.81 401.34,-36.26 420,-29 434.94,-23.19 452.3,-18.55 466.23,-15.31"/>
<polygon fill="midnightblue" stroke="midnightblue" points="364.53,-52.38 357.64,-60.43 368.04,-58.44 364.53,-52.38"/>
</g>
<!-- Node2 -->
<g id="node2" class="node">
<title>Node2</title>
<g id="a_node2"><a xlink:href="classdrain_1_1image_1_1ImageOp.html" target="_top" xlink:title="Base class for image processing functions.">
<polygon fill="white" stroke="black" points="201,-60.5 201,-79.5 262,-79.5 262,-60.5 201,-60.5"/>
<text text-anchor="middle" x="231.5" y="-67.5" font-family="Helvetica,sans-Serif" font-size="10.00">ImageOp</text>
</a>
</g>
</g>
<!-- Node2&#45;&gt;Node1 -->
<g id="edge1" class="edge">
<title>Node2&#45;&gt;Node1</title>
<path fill="none" stroke="midnightblue" d="M272.4,-70C280.74,-70 289.55,-70 297.96,-70"/>
<polygon fill="midnightblue" stroke="midnightblue" points="272.16,-66.5 262.16,-70 272.16,-73.5 272.16,-66.5"/>
</g>
<!-- Node3 -->
<g id="node3" class="node">
<title>Node3</title>
<g id="a_node3"><a xlink:href="classdrain_1_1image_1_1ImageMod.html" target="_top" xlink:title="Class for operations that modify an existing image instead of producing a new image.">
<polygon fill="white" stroke="black" points="97,-60.5 97,-79.5 165,-79.5 165,-60.5 97,-60.5"/>
<text text-anchor="middle" x="131" y="-67.5" font-family="Helvetica,sans-Serif" font-size="10.00">ImageMod</text>
</a>
</g>
</g>
<!-- Node3&#45;&gt;Node2 -->
<g id="edge2" class="edge">
<title>Node3&#45;&gt;Node2</title>
<path fill="none" stroke="midnightblue" d="M175.14,-70C183.87,-70 192.86,-70 200.99,-70"/>
<polygon fill="midnightblue" stroke="midnightblue" points="175.07,-66.5 165.07,-70 175.07,-73.5 175.07,-66.5"/>
</g>
<!-- Node4 -->
<g id="node4" class="node">
<title>Node4</title>
<g id="a_node4"><a xlink:href="classdrain_1_1BeanLike.html" target="_top" xlink:title="Something which has a name, a description and possibly some parameters of varying type.">
<polygon fill="white" stroke="black" points="0,-60.5 0,-79.5 61,-79.5 61,-60.5 0,-60.5"/>
<text text-anchor="middle" x="30.5" y="-67.5" font-family="Helvetica,sans-Serif" font-size="10.00">BeanLike</text>
</a>
</g>
</g>
<!-- Node4&#45;&gt;Node3 -->
<g id="edge3" class="edge">
<title>Node4&#45;&gt;Node3</title>
<path fill="none" stroke="midnightblue" d="M71.12,-70C79.59,-70 88.46,-70 96.67,-70"/>
<polygon fill="midnightblue" stroke="midnightblue" points="71.05,-66.5 61.05,-70 71.05,-73.5 71.05,-66.5"/>
</g>
<!-- Node6 -->
<g id="node6" class="node">
<title>Node6</title>
<g id="a_node6"><a xlink:href="classdrain_1_1image_1_1MagnitudeOp.html" target="_top" xlink:title="Computes pixel magnitude, that is, euclidean norm of the intensity vector.">
<polygon fill="white" stroke="black" points="602,-163.5 602,-182.5 684,-182.5 684,-163.5 602,-163.5"/>
<text text-anchor="middle" x="643" y="-170.5" font-family="Helvetica,sans-Serif" font-size="10.00">MagnitudeOp</text>
</a>
</g>
</g>
<!-- Node5&#45;&gt;Node6 -->
<g id="edge5" class="edge">
<title>Node5&#45;&gt;Node6</title>
<path fill="none" stroke="midnightblue" d="M573.46,-158.18C583.23,-160.29 592.88,-162.38 601.71,-164.29"/>
<polygon fill="midnightblue" stroke="midnightblue" points="574.18,-154.76 563.67,-156.06 572.7,-161.6 574.18,-154.76"/>
</g>
<!-- Node7 -->
<g id="node7" class="node">
<title>Node7</title>
<g id="a_node7"><a xlink:href="classdrain_1_1image_1_1ProductOp.html" target="_top" xlink:title="Computes dot product of intensities of two images.">
<polygon fill="white" stroke="black" points="609.5,-125.5 609.5,-144.5 676.5,-144.5 676.5,-125.5 609.5,-125.5"/>
<text text-anchor="middle" x="643" y="-132.5" font-family="Helvetica,sans-Serif" font-size="10.00">ProductOp</text>
</a>
</g>
</g>
<!-- Node5&#45;&gt;Node7 -->
<g id="edge6" class="edge">
<title>Node5&#45;&gt;Node7</title>
<path fill="none" stroke="midnightblue" d="M574.13,-137.75C586.6,-137.25 598.84,-136.75 609.42,-136.32"/>
<polygon fill="midnightblue" stroke="midnightblue" points="573.95,-134.26 564.1,-138.16 574.23,-141.25 573.95,-134.26"/>
</g>
<!-- Node9 -->
<g id="node9" class="node">
<title>Node9</title>
<g id="a_node9"><a xlink:href="classdrain_1_1image_1_1DistanceOp.html" target="_top" xlink:title="Computes the distance between intensity vectors.">
<polygon fill="white" stroke="black" points="606.5,-82.5 606.5,-101.5 679.5,-101.5 679.5,-82.5 606.5,-82.5"/>
<text text-anchor="middle" x="643" y="-89.5" font-family="Helvetica,sans-Serif" font-size="10.00">DistanceOp</text>
</a>
</g>
</g>
<!-- Node8&#45;&gt;Node9 -->
<g id="edge8" class="edge">
<title>Node8&#45;&gt;Node9</title>
<path fill="none" stroke="midnightblue" d="M569.29,-92C582.24,-92 595.14,-92 606.4,-92"/>
<polygon fill="midnightblue" stroke="midnightblue" points="568.91,-88.5 558.91,-92 568.91,-95.5 568.91,-88.5"/>
</g>
</g>
</svg>
