<?xml version="1.0" encoding="UTF-8" standalone="no"?>
<!DOCTYPE svg PUBLIC "-//W3C//DTD SVG 1.1//EN"
 "http://www.w3.org/Graphics/SVG/1.1/DTD/svg11.dtd">
<!-- Generated by graphviz version 2.43.0 (0)
 -->
<!-- Title: LaplaceHorzOp Pages: 1 -->
<svg width="98pt" height="308pt"
 viewBox="0.00 0.00 98.00 308.00" xmlns="http://www.w3.org/2000/svg" xmlns:xlink="http://www.w3.org/1999/xlink">
<g id="graph0" class="graph" transform="scale(1 1) rotate(0) translate(4 304)">
<title>LaplaceHorzOp</title>
<polygon fill="white" stroke="transparent" points="-4,4 -4,-304 94,-304 94,4 -4,4"/>
<!-- Node1 -->
<g id="node1" class="node">
<title>Node1</title>
<g id="a_node1"><a xlink:title="Computes second horizontal derivative, dx2.">
<polygon fill="#bfbfbf" stroke="black" points="0,-0.5 0,-19.5 90,-19.5 90,-0.5 0,-0.5"/>
<text text-anchor="middle" x="45" y="-7.5" font-family="Helvetica,sans-Serif" font-size="10.00">LaplaceHorzOp</text>
</a>
</g>
</g>
<!-- Node2 -->
<g id="node2" class="node">
<title>Node2</title>
<g id="a_node2"><a xlink:href="classdrain_1_1image_1_1LaplaceOp.html" target="_top" xlink:title="Computes second intensity derivatives.">
<polygon fill="white" stroke="black" points="11,-56.5 11,-75.5 79,-75.5 79,-56.5 11,-56.5"/>
<text text-anchor="middle" x="45" y="-63.5" font-family="Helvetica,sans-Serif" font-size="10.00">LaplaceOp</text>
</a>
</g>
</g>
<!-- Node2&#45;&gt;Node1 -->
<g id="edge1" class="edge">
<title>Node2&#45;&gt;Node1</title>
<path fill="none" stroke="midnightblue" d="M45,-45.8C45,-36.91 45,-26.78 45,-19.75"/>
<polygon fill="midnightblue" stroke="midnightblue" points="41.5,-46.08 45,-56.08 48.5,-46.08 41.5,-46.08"/>
</g>
<!-- Node3 -->
<g id="node3" class="node">
<title>Node3</title>
<g id="a_node3"><a xlink:href="classdrain_1_1image_1_1DifferentialOp.html" target="_top" xlink:title="Virtual base class for horizontal and vertical intensity derivatives.">
<polygon fill="white" stroke="black" points="2,-112.5 2,-131.5 88,-131.5 88,-112.5 2,-112.5"/>
<text text-anchor="middle" x="45" y="-119.5" font-family="Helvetica,sans-Serif" font-size="10.00">DifferentialOp</text>
</a>
</g>
</g>
<!-- Node3&#45;&gt;Node2 -->
<g id="edge2" class="edge">
<title>Node3&#45;&gt;Node2</title>
<path fill="none" stroke="midnightblue" d="M45,-101.8C45,-92.91 45,-82.78 45,-75.75"/>
<polygon fill="midnightblue" stroke="midnightblue" points="41.5,-102.08 45,-112.08 48.5,-102.08 41.5,-102.08"/>
</g>
<!-- Node4 -->
<g id="node4" class="node">
<title>Node4</title>
<g id="a_node4"><a xlink:href="classdrain_1_1image_1_1ImageOp.html" target="_top" xlink:title="Base class for image processing functions.">
<polygon fill="white" stroke="black" points="14.5,-168.5 14.5,-187.5 75.5,-187.5 75.5,-168.5 14.5,-168.5"/>
<text text-anchor="middle" x="45" y="-175.5" font-family="Helvetica,sans-Serif" font-size="10.00">ImageOp</text>
</a>
</g>
</g>
<!-- Node4&#45;&gt;Node3 -->
<g id="edge3" class="edge">
<title>Node4&#45;&gt;Node3</title>
<path fill="none" stroke="midnightblue" d="M45,-157.8C45,-148.91 45,-138.78 45,-131.75"/>
<polygon fill="midnightblue" stroke="midnightblue" points="41.5,-158.08 45,-168.08 48.5,-158.08 41.5,-158.08"/>
</g>
<!-- Node5 -->
<g id="node5" class="node">
<title>Node5</title>
<g id="a_node5"><a xlink:href="classdrain_1_1image_1_1ImageMod.html" target="_top" xlink:title="Class for operations that modify an existing image instead of producing a new image.">
<polygon fill="white" stroke="black" points="11,-224.5 11,-243.5 79,-243.5 79,-224.5 11,-224.5"/>
<text text-anchor="middle" x="45" y="-231.5" font-family="Helvetica,sans-Serif" font-size="10.00">ImageMod</text>
</a>
</g>
</g>
<!-- Node5&#45;&gt;Node4 -->
<g id="edge4" class="edge">
<title>Node5&#45;&gt;Node4</title>
<path fill="none" stroke="midnightblue" d="M45,-213.8C45,-204.91 45,-194.78 45,-187.75"/>
<polygon fill="midnightblue" stroke="midnightblue" points="41.5,-214.08 45,-224.08 48.5,-214.08 41.5,-214.08"/>
</g>
<!-- Node6 -->
<g id="node6" class="node">
<title>Node6</title>
<g id="a_node6"><a xlink:href="classdrain_1_1BeanLike.html" target="_top" xlink:title="Something which has a name, a description and possibly some parameters of varying type.">
<polygon fill="white" stroke="black" points="14.5,-280.5 14.5,-299.5 75.5,-299.5 75.5,-280.5 14.5,-280.5"/>
<text text-anchor="middle" x="45" y="-287.5" font-family="Helvetica,sans-Serif" font-size="10.00">BeanLike</text>
</a>
</g>
</g>
<!-- Node6&#45;&gt;Node5 -->
<g id="edge5" class="edge">
<title>Node6&#45;&gt;Node5</title>
<path fill="none" stroke="midnightblue" d="M45,-269.8C45,-260.91 45,-250.78 45,-243.75"/>
<polygon fill="midnightblue" stroke="midnightblue" points="41.5,-270.08 45,-280.08 48.5,-270.08 41.5,-270.08"/>
</g>
</g>
</svg>
