<?xml version="1.0" encoding="UTF-8" standalone="no"?>
<!DOCTYPE svg PUBLIC "-//W3C//DTD SVG 1.1//EN"
 "http://www.w3.org/Graphics/SVG/1.1/DTD/svg11.dtd">
<!-- Generated by graphviz version 2.43.0 (0)
 -->
<!-- Title: OpticalFlowCore Pages: 1 -->
<!--zoomable 168 -->
<svg id="main" version="1.1" xmlns="http://www.w3.org/2000/svg" xmlns:xlink="http://www.w3.org/1999/xlink" xml:space="preserve" onload="init(evt)">
<style type="text/css"><![CDATA[
.edge:hover path { stroke: red; }
.edge:hover polygon { stroke: red; fill: red; }
]]></style>
<script type="text/javascript"><![CDATA[
var edges = document.getElementsByTagName('g');
if (edges && edges.length) {
  for (var i=0;i<edges.length;i++) {
    if (edges[i].id.substr(0,4)=='edge') {
      edges[i].setAttribute('class','edge');
    }
  }
}
]]></script>
        <defs>
                <circle id="rim" cx="0" cy="0" r="7"/>
                <circle id="rim2" cx="0" cy="0" r="3.5"/>
                <g id="zoomPlus">
                        <use xlink:href="#rim" fill="#404040">
                                <set attributeName="fill" to="#808080" begin="zoomplus.mouseover" end="zoomplus.mouseout"/>
                        </use>
                        <path d="M-4,0h8M0,-4v8" fill="none" stroke="white" stroke-width="1.5" pointer-events="none"/>
                </g>
                <g id="zoomMin">
                        <use xlink:href="#rim" fill="#404040">
                                <set attributeName="fill" to="#808080" begin="zoomminus.mouseover" end="zoomminus.mouseout"/>
                        </use>
                        <path d="M-4,0h8" fill="none" stroke="white" stroke-width="1.5" pointer-events="none"/>
                </g>
                <g id="dirArrow">
                        <path fill="none" stroke="white" stroke-width="1.5" d="M0,-3.0v7 M-2.5,-0.5L0,-3.0L2.5,-0.5"/>
                </g>
               <g id="resetDef">
                       <use xlink:href="#rim2" fill="#404040">
                               <set attributeName="fill" to="#808080" begin="reset.mouseover" end="reset.mouseout"/>
                       </use>
               </g>
        </defs>

<script type="text/javascript">
var viewWidth = 1146;
var viewHeight = 168;
var sectionId = 'dynsection-0';
</script>
<script xlink:href="svgpan.js"/>
<svg id="graph" class="graph">
<g id="viewport">
<title>OpticalFlowCore</title>
<polygon fill="white" stroke="transparent" points="-4,4 -4,-163.5 1142,-163.5 1142,4 -4,4"/>
<!-- Node1 -->
<g id="node1" class="node">
<title>Node1</title>
<g id="a_node1"><a xlink:title=" ">
<polygon fill="#bfbfbf" stroke="black" points="138,-72 138,-91 235,-91 235,-72 138,-72"/>
<text text-anchor="middle" x="186.5" y="-79" font-family="Helvetica,sans-Serif" font-size="10.00">OpticalFlowCore</text>
</a>
</g>
</g>
<!-- Node3 -->
<g id="node3" class="node">
<title>Node3</title>
<g id="a_node3"><a xlink:href="classdrain_1_1image_1_1OpticalFlowCore1.html" target="_top" xlink:title=" ">
<polygon fill="white" stroke="black" points="271,-94 271,-113 374,-113 374,-94 271,-94"/>
<text text-anchor="middle" x="322.5" y="-101" font-family="Helvetica,sans-Serif" font-size="10.00">OpticalFlowCore1</text>
</a>
</g>
</g>
<!-- Node1&#45;&gt;Node3 -->
<g id="edge2" class="edge">
<title>Node1&#45;&gt;Node3</title>
<path fill="none" stroke="midnightblue" d="M245.06,-90.95C253.64,-92.36 262.43,-93.8 270.86,-95.19"/>
<polygon fill="midnightblue" stroke="midnightblue" points="245.56,-87.48 235.12,-89.32 244.42,-94.39 245.56,-87.48"/>
</g>
<!-- Node9 -->
<g id="node9" class="node">
<title>Node9</title>
<g id="a_node9"><a xlink:href="classdrain_1_1image_1_1OpticalFlowCore2.html" target="_top" xlink:title=" ">
<polygon fill="white" stroke="black" points="271,-53 271,-72 374,-72 374,-53 271,-53"/>
<text text-anchor="middle" x="322.5" y="-60" font-family="Helvetica,sans-Serif" font-size="10.00">OpticalFlowCore2</text>
</a>
</g>
</g>
<!-- Node1&#45;&gt;Node9 -->
<g id="edge8" class="edge">
<title>Node1&#45;&gt;Node9</title>
<path fill="none" stroke="midnightblue" d="M245.06,-73.34C253.64,-72.12 262.43,-70.88 270.86,-69.68"/>
<polygon fill="midnightblue" stroke="midnightblue" points="244.53,-69.88 235.12,-74.75 245.51,-76.81 244.53,-69.88"/>
</g>
<!-- Node2 -->
<g id="node2" class="node">
<title>Node2</title>
<g id="a_node2"><a xlink:href="classdrain_1_1image_1_1WindowCoreBase.html" target="_top" xlink:title="Provides splitting frames.">
<polygon fill="white" stroke="black" points="0,-72 0,-91 102,-91 102,-72 0,-72"/>
<text text-anchor="middle" x="51" y="-79" font-family="Helvetica,sans-Serif" font-size="10.00">WindowCoreBase</text>
</a>
</g>
</g>
<!-- Node2&#45;&gt;Node1 -->
<g id="edge1" class="edge">
<title>Node2&#45;&gt;Node1</title>
<path fill="none" stroke="midnightblue" d="M112.09,-81.5C120.7,-81.5 129.46,-81.5 137.78,-81.5"/>
<polygon fill="midnightblue" stroke="midnightblue" points="112.09,-78 102.09,-81.5 112.09,-85 112.09,-78"/>
</g>
<!-- Node4 -->
<g id="node4" class="node">
<title>Node4</title>
<g id="a_node4"><a xlink:href="classdrain_1_1image_1_1Window.html" target="_top" xlink:title=" ">
<polygon fill="white" stroke="black" points="410,-91.5 410,-121.5 569,-121.5 569,-91.5 410,-91.5"/>
<text text-anchor="start" x="418" y="-109.5" font-family="Helvetica,sans-Serif" font-size="10.00">Window&lt; OpticalFlowConfig,</text>
<text text-anchor="middle" x="489.5" y="-98.5" font-family="Helvetica,sans-Serif" font-size="10.00"> OpticalFlowCore1 &gt;</text>
</a>
</g>
</g>
<!-- Node3&#45;&gt;Node4 -->
<g id="edge3" class="edge">
<title>Node3&#45;&gt;Node4</title>
<path fill="none" stroke="midnightblue" d="M384.61,-104.61C392.85,-104.76 401.4,-104.92 409.9,-105.07"/>
<polygon fill="midnightblue" stroke="midnightblue" points="384.41,-101.11 374.35,-104.42 384.29,-108.11 384.41,-101.11"/>
</g>
<!-- Node5 -->
<g id="node5" class="node">
<title>Node5</title>
<g id="a_node5"><a xlink:href="classdrain_1_1image_1_1SlidingWindow.html" target="_top" xlink:title=" ">
<polygon fill="white" stroke="black" points="605,-91.5 605,-121.5 763,-121.5 763,-91.5 605,-91.5"/>
<text text-anchor="start" x="613" y="-109.5" font-family="Helvetica,sans-Serif" font-size="10.00">SlidingWindow&lt; OpticalFlow</text>
<text text-anchor="middle" x="684" y="-98.5" font-family="Helvetica,sans-Serif" font-size="10.00">Config, OpticalFlowCore1 &gt;</text>
</a>
</g>
</g>
<!-- Node4&#45;&gt;Node5 -->
<g id="edge4" class="edge">
<title>Node4&#45;&gt;Node5</title>
<path fill="none" stroke="midnightblue" d="M579.15,-106.5C587.77,-106.5 596.48,-106.5 604.99,-106.5"/>
<polygon fill="midnightblue" stroke="midnightblue" points="579.07,-103 569.07,-106.5 579.07,-110 579.07,-103"/>
</g>
<!-- Node6 -->
<g id="node6" class="node">
<title>Node6</title>
<g id="a_node6"><a xlink:href="classdrain_1_1image_1_1SlidingOpticalFlow.html" target="_top" xlink:title=" ">
<polygon fill="white" stroke="black" points="802,-140 802,-159 939,-159 939,-140 802,-140"/>
<text text-anchor="middle" x="870.5" y="-147" font-family="Helvetica,sans-Serif" font-size="10.00">SlidingOpticalFlow&lt; R &gt;</text>
</a>
</g>
</g>
<!-- Node5&#45;&gt;Node6 -->
<g id="edge5" class="edge">
<title>Node5&#45;&gt;Node6</title>
<path fill="none" stroke="midnightblue" d="M759.52,-123.87C783.12,-129.37 808.32,-135.24 828.64,-139.98"/>
<polygon fill="midnightblue" stroke="midnightblue" points="760.06,-120.4 749.53,-121.54 758.47,-127.22 760.06,-120.4"/>
</g>
<!-- Node7 -->
<g id="node7" class="node">
<title>Node7</title>
<g id="a_node7"><a xlink:href="classdrain_1_1image_1_1SlidingOpticalFlow.html" target="_top" xlink:title=" ">
<polygon fill="white" stroke="black" points="808,-90.5 808,-120.5 933,-120.5 933,-90.5 808,-90.5"/>
<text text-anchor="start" x="816" y="-108.5" font-family="Helvetica,sans-Serif" font-size="10.00">SlidingOpticalFlow</text>
<text text-anchor="middle" x="870.5" y="-97.5" font-family="Helvetica,sans-Serif" font-size="10.00">&lt; OpticalFlowCore1 &gt;</text>
</a>
</g>
</g>
<!-- Node5&#45;&gt;Node7 -->
<g id="edge6" class="edge">
<title>Node5&#45;&gt;Node7</title>
<path fill="none" stroke="midnightblue" d="M773.45,-106.02C785.11,-105.96 796.85,-105.89 807.92,-105.83"/>
<polygon fill="midnightblue" stroke="midnightblue" points="773.23,-102.52 763.24,-106.08 773.26,-109.52 773.23,-102.52"/>
</g>
<!-- Node8 -->
<g id="node8" class="node">
<title>Node8</title>
<g id="a_node8"><a xlink:href="classdrain_1_1image_1_1SlidingOpticalFlowWeighted.html" target="_top" xlink:title=" ">
<polygon fill="white" stroke="black" points="981,-96 981,-115 1135,-115 1135,-96 981,-96"/>
<text text-anchor="middle" x="1058" y="-103" font-family="Helvetica,sans-Serif" font-size="10.00">SlidingOpticalFlowWeighted</text>
</a>
</g>
</g>
<!-- Node7&#45;&gt;Node8 -->
<g id="edge7" class="edge">
<title>Node7&#45;&gt;Node8</title>
<path fill="none" stroke="midnightblue" d="M943.21,-105.5C955.52,-105.5 968.36,-105.5 980.78,-105.5"/>
<polygon fill="midnightblue" stroke="midnightblue" points="943.01,-102 933.01,-105.5 943.01,-109 943.01,-102"/>
</g>
<!-- Node10 -->
<g id="node10" class="node">
<title>Node10</title>
<g id="a_node10"><a xlink:href="classdrain_1_1image_1_1Window.html" target="_top" xlink:title=" ">
<polygon fill="white" stroke="black" points="410,-42.5 410,-72.5 569,-72.5 569,-42.5 410,-42.5"/>
<text text-anchor="start" x="418" y="-60.5" font-family="Helvetica,sans-Serif" font-size="10.00">Window&lt; OpticalFlowConfig,</text>
<text text-anchor="middle" x="489.5" y="-49.5" font-family="Helvetica,sans-Serif" font-size="10.00"> OpticalFlowCore2 &gt;</text>
</a>
</g>
</g>
<!-- Node9&#45;&gt;Node10 -->
<g id="edge9" class="edge">
<title>Node9&#45;&gt;Node10</title>
<path fill="none" stroke="midnightblue" d="M384.61,-60.65C392.85,-60.4 401.4,-60.14 409.9,-59.88"/>
<polygon fill="midnightblue" stroke="midnightblue" points="384.24,-57.16 374.35,-60.96 384.45,-64.15 384.24,-57.16"/>
</g>
<!-- Node11 -->
<g id="node11" class="node">
<title>Node11</title>
<g id="a_node11"><a xlink:href="classdrain_1_1image_1_1SlidingWindow.html" target="_top" xlink:title=" ">
<polygon fill="white" stroke="black" points="605,-42.5 605,-72.5 763,-72.5 763,-42.5 605,-42.5"/>
<text text-anchor="start" x="613" y="-60.5" font-family="Helvetica,sans-Serif" font-size="10.00">SlidingWindow&lt; OpticalFlow</text>
<text text-anchor="middle" x="684" y="-49.5" font-family="Helvetica,sans-Serif" font-size="10.00">Config, OpticalFlowCore2 &gt;</text>
</a>
</g>
</g>
<!-- Node10&#45;&gt;Node11 -->
<g id="edge10" class="edge">
<title>Node10&#45;&gt;Node11</title>
<path fill="none" stroke="midnightblue" d="M579.15,-57.5C587.77,-57.5 596.48,-57.5 604.99,-57.5"/>
<polygon fill="midnightblue" stroke="midnightblue" points="579.07,-54 569.07,-57.5 579.07,-61 579.07,-54"/>
</g>
<!-- Node12 -->
<g id="node12" class="node">
<title>Node12</title>
<g id="a_node12"><a xlink:href="classdrain_1_1image_1_1SlidingOpticalFlow2.html" target="_top" xlink:title="Currently not in use. See SlidingOpticalFlowWeighted2 below.">
<polygon fill="white" stroke="black" points="799,-50 799,-69 942,-69 942,-50 799,-50"/>
<text text-anchor="middle" x="870.5" y="-57" font-family="Helvetica,sans-Serif" font-size="10.00">SlidingOpticalFlow2&lt; R &gt;</text>
</a>
</g>
</g>
<!-- Node11&#45;&gt;Node12 -->
<g id="edge11" class="edge">
<title>Node11&#45;&gt;Node12</title>
<path fill="none" stroke="midnightblue" d="M773.25,-58.46C781.8,-58.55 790.4,-58.64 798.74,-58.73"/>
<polygon fill="midnightblue" stroke="midnightblue" points="773.28,-54.96 763.24,-58.35 773.21,-61.96 773.28,-54.96"/>
</g>
<!-- Node13 -->
<g id="node13" class="node">
<title>Node13</title>
<g id="a_node13"><a xlink:href="classdrain_1_1image_1_1SlidingOpticalFlow2.html" target="_top" xlink:title=" ">
<polygon fill="white" stroke="black" points="808,-0.5 808,-30.5 933,-30.5 933,-0.5 808,-0.5"/>
<text text-anchor="start" x="816" y="-18.5" font-family="Helvetica,sans-Serif" font-size="10.00">SlidingOpticalFlow2</text>
<text text-anchor="middle" x="870.5" y="-7.5" font-family="Helvetica,sans-Serif" font-size="10.00">&lt; OpticalFlowCore2 &gt;</text>
</a>
</g>
</g>
<!-- Node11&#45;&gt;Node13 -->
<g id="edge12" class="edge">
<title>Node11&#45;&gt;Node13</title>
<path fill="none" stroke="midnightblue" d="M761.19,-40.16C776.74,-36.62 792.91,-32.93 807.87,-29.53"/>
<polygon fill="midnightblue" stroke="midnightblue" points="760.06,-36.82 751.09,-42.46 761.62,-43.65 760.06,-36.82"/>
</g>
<!-- Node14 -->
<g id="node14" class="node">
<title>Node14</title>
<g id="a_node14"><a xlink:href="classdrain_1_1image_1_1SlidingOpticalFlowWeighted2.html" target="_top" xlink:title=" ">
<polygon fill="white" stroke="black" points="978,-6 978,-25 1138,-25 1138,-6 978,-6"/>
<text text-anchor="middle" x="1058" y="-13" font-family="Helvetica,sans-Serif" font-size="10.00">SlidingOpticalFlowWeighted2</text>
</a>
</g>
</g>
<!-- Node13&#45;&gt;Node14 -->
<g id="edge13" class="edge">
<title>Node13&#45;&gt;Node14</title>
<path fill="none" stroke="midnightblue" d="M943.26,-15.5C954.58,-15.5 966.34,-15.5 977.81,-15.5"/>
<polygon fill="midnightblue" stroke="midnightblue" points="943.01,-12 933.01,-15.5 943.01,-19 943.01,-12"/>
</g>
</g>
</svg>
        <g id="navigator" transform="translate(0 0)" fill="#404254">
                <rect fill="#f2f5e9" fill-opacity="0.5" stroke="#606060" stroke-width=".5" x="0" y="0" width="60" height="60"/>
                <use id="zoomplus" xlink:href="#zoomPlus" x="17" y="9" onmousedown="handleZoom(evt,'in')"/>
                <use id="zoomminus" xlink:href="#zoomMin" x="42" y="9" onmousedown="handleZoom(evt,'out')"/>
                <use id="reset" xlink:href="#resetDef" x="30" y="36" onmousedown="handleReset()"/>
                <g id="arrowUp" xlink:href="#dirArrow" transform="translate(30 24)" onmousedown="handlePan(0,-1)">
                  <use xlink:href="#rim" fill="#404040">
                        <set attributeName="fill" to="#808080" begin="arrowUp.mouseover" end="arrowUp.mouseout"/>
                  </use>
                  <path fill="none" stroke="white" stroke-width="1.5" d="M0,-3.0v7 M-2.5,-0.5L0,-3.0L2.5,-0.5"/>
                </g>
                <g id="arrowRight" xlink:href="#dirArrow" transform="rotate(90) translate(36 -43)" onmousedown="handlePan(1,0)">
                  <use xlink:href="#rim" fill="#404040">
                        <set attributeName="fill" to="#808080" begin="arrowRight.mouseover" end="arrowRight.mouseout"/>
                  </use>
                  <path fill="none" stroke="white" stroke-width="1.5" d="M0,-3.0v7 M-2.5,-0.5L0,-3.0L2.5,-0.5"/>
                </g>
                <g id="arrowDown" xlink:href="#dirArrow" transform="rotate(180) translate(-30 -48)" onmousedown="handlePan(0,1)">
                  <use xlink:href="#rim" fill="#404040">
                        <set attributeName="fill" to="#808080" begin="arrowDown.mouseover" end="arrowDown.mouseout"/>
                  </use>
                  <path fill="none" stroke="white" stroke-width="1.5" d="M0,-3.0v7 M-2.5,-0.5L0,-3.0L2.5,-0.5"/>
                </g>
                <g id="arrowLeft" xlink:href="#dirArrow" transform="rotate(270) translate(-36 17)" onmousedown="handlePan(-1,0)">
                  <use xlink:href="#rim" fill="#404040">
                        <set attributeName="fill" to="#808080" begin="arrowLeft.mouseover" end="arrowLeft.mouseout"/>
                  </use>
                  <path fill="none" stroke="white" stroke-width="1.5" d="M0,-3.0v7 M-2.5,-0.5L0,-3.0L2.5,-0.5"/>
                </g>
        </g>
        <svg viewBox="0 0 15 15" width="100%" height="30px" preserveAspectRatio="xMaxYMin meet">
         <g id="arrow_out" transform="scale(0.3 0.3)">
          <a xlink:href="classdrain_1_1image_1_1OpticalFlowCore__inherit__graph_org.svg" target="_base">
           <rect id="button" ry="5" rx="5" y="6" x="6" height="38" width="38"
                fill="#f2f5e9" fill-opacity="0.5" stroke="#606060" stroke-width="1.0"/>
           <path id="arrow"
             d="M 11.500037,31.436501 C 11.940474,20.09759 22.043105,11.32322 32.158766,21.979434 L 37.068811,17.246167 C 37.068811,17.246167 37.088388,32 37.088388,32 L 22.160133,31.978069 C 22.160133,31.978069 26.997745,27.140456 26.997745,27.140456 C 18.528582,18.264221 13.291696,25.230495 11.500037,31.436501 z"
             style="fill:#404040;"/>
          </a>
         </g>
        </svg>
</svg>
