<?xml version="1.0" encoding="UTF-8" standalone="no"?>
<!DOCTYPE svg PUBLIC "-//W3C//DTD SVG 1.1//EN"
 "http://www.w3.org/Graphics/SVG/1.1/DTD/svg11.dtd">
<!-- Generated by graphviz version 2.43.0 (0)
 -->
<!-- Title: Composite Pages: 1 -->
<svg width="188pt" height="274pt"
 viewBox="0.00 0.00 187.50 274.00" xmlns="http://www.w3.org/2000/svg" xmlns:xlink="http://www.w3.org/1999/xlink">
<g id="graph0" class="graph" transform="scale(1 1) rotate(0) translate(4 270)">
<title>Composite</title>
<polygon fill="white" stroke="transparent" points="-4,4 -4,-270 183.5,-270 183.5,4 -4,4"/>
<!-- Node1 -->
<g id="node1" class="node">
<title>Node1</title>
<g id="a_node1"><a xlink:title="Cartesian composite (mosaic) of data from several radars.">
<polygon fill="#bfbfbf" stroke="black" points="65.5,-0.5 65.5,-19.5 134.5,-19.5 134.5,-0.5 65.5,-0.5"/>
<text text-anchor="middle" x="100" y="-7.5" font-family="Helvetica,sans-Serif" font-size="10.00">Composite</text>
</a>
</g>
</g>
<!-- Node2 -->
<g id="node2" class="node">
<title>Node2</title>
<g id="a_node2"><a xlink:href="classrack_1_1RadarAccumulator.html" target="_top" xlink:title=" ">
<polygon fill="white" stroke="black" points="28.5,-56.5 28.5,-97.5 171.5,-97.5 171.5,-56.5 28.5,-56.5"/>
<text text-anchor="start" x="36.5" y="-85.5" font-family="Helvetica,sans-Serif" font-size="10.00">RadarAccumulator&lt; drain</text>
<text text-anchor="start" x="36.5" y="-74.5" font-family="Helvetica,sans-Serif" font-size="10.00">::image::AccumulatorGeo,</text>
<text text-anchor="middle" x="100" y="-63.5" font-family="Helvetica,sans-Serif" font-size="10.00"> CartesianODIM &gt;</text>
</a>
</g>
</g>
<!-- Node2&#45;&gt;Node1 -->
<g id="edge1" class="edge">
<title>Node2&#45;&gt;Node1</title>
<path fill="none" stroke="midnightblue" d="M100,-46.26C100,-36.56 100,-26.52 100,-19.65"/>
<polygon fill="midnightblue" stroke="midnightblue" points="96.5,-46.5 100,-56.5 103.5,-46.5 96.5,-46.5"/>
</g>
<!-- Node3 -->
<g id="node3" class="node">
<title>Node3</title>
<g id="a_node3"><a xlink:href="classdrain_1_1image_1_1AccumulatorGeo.html" target="_top" xlink:title=" ">
<polygon fill="white" stroke="black" points="51,-134.5 51,-153.5 149,-153.5 149,-134.5 51,-134.5"/>
<text text-anchor="middle" x="100" y="-141.5" font-family="Helvetica,sans-Serif" font-size="10.00">AccumulatorGeo</text>
</a>
</g>
</g>
<!-- Node3&#45;&gt;Node2 -->
<g id="edge2" class="edge">
<title>Node3&#45;&gt;Node2</title>
<path fill="none" stroke="midnightblue" d="M100,-124.04C100,-115.71 100,-105.94 100,-97.54"/>
<polygon fill="midnightblue" stroke="midnightblue" points="96.5,-124.23 100,-134.23 103.5,-124.23 96.5,-124.23"/>
</g>
<!-- Node4 -->
<g id="node4" class="node">
<title>Node4</title>
<g id="a_node4"><a xlink:href="classdrain_1_1image_1_1Accumulator.html" target="_top" xlink:title=" ">
<polygon fill="white" stroke="black" points="16,-190.5 16,-209.5 94,-209.5 94,-190.5 16,-190.5"/>
<text text-anchor="middle" x="55" y="-197.5" font-family="Helvetica,sans-Serif" font-size="10.00">Accumulator</text>
</a>
</g>
</g>
<!-- Node4&#45;&gt;Node3 -->
<g id="edge3" class="edge">
<title>Node4&#45;&gt;Node3</title>
<path fill="none" stroke="midnightblue" d="M69.05,-182.14C76.89,-172.74 86.33,-161.4 92.71,-153.75"/>
<polygon fill="midnightblue" stroke="midnightblue" points="66.14,-180.16 62.43,-190.08 71.52,-184.64 66.14,-180.16"/>
</g>
<!-- Node5 -->
<g id="node5" class="node">
<title>Node5</title>
<g id="a_node5"><a xlink:href="classdrain_1_1image_1_1AccumulationArray.html" target="_top" xlink:title="General&#45;purpose image compositing.">
<polygon fill="white" stroke="black" points="0,-246.5 0,-265.5 110,-265.5 110,-246.5 0,-246.5"/>
<text text-anchor="middle" x="55" y="-253.5" font-family="Helvetica,sans-Serif" font-size="10.00">AccumulationArray</text>
</a>
</g>
</g>
<!-- Node5&#45;&gt;Node4 -->
<g id="edge4" class="edge">
<title>Node5&#45;&gt;Node4</title>
<path fill="none" stroke="midnightblue" d="M55,-235.8C55,-226.91 55,-216.78 55,-209.75"/>
<polygon fill="midnightblue" stroke="midnightblue" points="51.5,-236.08 55,-246.08 58.5,-236.08 51.5,-236.08"/>
</g>
<!-- Node6 -->
<g id="node6" class="node">
<title>Node6</title>
<g id="a_node6"><a xlink:href="classdrain_1_1image_1_1GeoFrame.html" target="_top" xlink:title="Array with georeferencing support.">
<polygon fill="white" stroke="black" points="112.5,-190.5 112.5,-209.5 179.5,-209.5 179.5,-190.5 112.5,-190.5"/>
<text text-anchor="middle" x="146" y="-197.5" font-family="Helvetica,sans-Serif" font-size="10.00">GeoFrame</text>
</a>
</g>
</g>
<!-- Node6&#45;&gt;Node3 -->
<g id="edge5" class="edge">
<title>Node6&#45;&gt;Node3</title>
<path fill="none" stroke="midnightblue" d="M131.89,-182.43C123.82,-172.97 114.04,-161.48 107.45,-153.75"/>
<polygon fill="midnightblue" stroke="midnightblue" points="129.25,-184.74 138.4,-190.08 134.58,-180.2 129.25,-184.74"/>
</g>
</g>
</svg>
