<?xml version="1.0" encoding="UTF-8" standalone="no"?>
<!DOCTYPE svg PUBLIC "-//W3C//DTD SVG 1.1//EN"
 "http://www.w3.org/Graphics/SVG/1.1/DTD/svg11.dtd">
<!-- Generated by graphviz version 2.43.0 (0)
 -->
<!-- Title: RadarWindowStdDev&lt; C &gt; Pages: 1 -->
<!--zoomable 270 -->
<svg id="main" version="1.1" xmlns="http://www.w3.org/2000/svg" xmlns:xlink="http://www.w3.org/1999/xlink" xml:space="preserve" onload="init(evt)">
<style type="text/css"><![CDATA[
.edge:hover path { stroke: red; }
.edge:hover polygon { stroke: red; fill: red; }
]]></style>
<script type="text/javascript"><![CDATA[
var edges = document.getElementsByTagName('g');
if (edges && edges.length) {
  for (var i=0;i<edges.length;i++) {
    if (edges[i].id.substr(0,4)=='edge') {
      edges[i].setAttribute('class','edge');
    }
  }
}
]]></script>
        <defs>
                <circle id="rim" cx="0" cy="0" r="7"/>
                <circle id="rim2" cx="0" cy="0" r="3.5"/>
                <g id="zoomPlus">
                        <use xlink:href="#rim" fill="#404040">
                                <set attributeName="fill" to="#808080" begin="zoomplus.mouseover" end="zoomplus.mouseout"/>
                        </use>
                        <path d="M-4,0h8M0,-4v8" fill="none" stroke="white" stroke-width="1.5" pointer-events="none"/>
                </g>
                <g id="zoomMin">
                        <use xlink:href="#rim" fill="#404040">
                                <set attributeName="fill" to="#808080" begin="zoomminus.mouseover" end="zoomminus.mouseout"/>
                        </use>
                        <path d="M-4,0h8" fill="none" stroke="white" stroke-width="1.5" pointer-events="none"/>
                </g>
                <g id="dirArrow">
                        <path fill="none" stroke="white" stroke-width="1.5" d="M0,-3.0v7 M-2.5,-0.5L0,-3.0L2.5,-0.5"/>
                </g>
               <g id="resetDef">
                       <use xlink:href="#rim2" fill="#404040">
                               <set attributeName="fill" to="#808080" begin="reset.mouseover" end="reset.mouseout"/>
                       </use>
               </g>
        </defs>

<script type="text/javascript">
var viewWidth = 2043;
var viewHeight = 270;
var sectionId = 'dynsection-1';
</script>
<script xlink:href="svgpan.js"/>
<svg id="graph" class="graph">
<g id="viewport">
<title>RadarWindowStdDev&lt; C &gt;</title>
<polygon fill="white" stroke="transparent" points="-4,4 -4,-265.5 2039,-265.5 2039,4 -4,4"/>
<!-- Node1 -->
<g id="node1" class="node">
<title>Node1</title>
<g id="a_node1"><a xlink:title="Sliding window for computing standard deviation of scalar quantities.">
<polygon fill="#bfbfbf" stroke="black" points="1886,-53 1886,-72 2035,-72 2035,-53 1886,-53"/>
<text text-anchor="middle" x="1960.5" y="-60" font-family="Helvetica,sans-Serif" font-size="10.00">RadarWindowStdDev&lt; C &gt;</text>
</a>
</g>
</g>
<!-- Node2 -->
<g id="node2" class="node">
<title>Node2</title>
<g id="a_node2"><a xlink:href="classrack_1_1SlidingRadarWindow.html" target="_top" xlink:title=" ">
<polygon fill="white" stroke="black" points="1703,-53 1703,-72 1849,-72 1849,-53 1703,-53"/>
<text text-anchor="middle" x="1776" y="-60" font-family="Helvetica,sans-Serif" font-size="10.00">SlidingRadarWindow&lt; C &gt;</text>
</a>
</g>
</g>
<!-- Node2&#45;&gt;Node1 -->
<g id="edge1" class="edge">
<title>Node2&#45;&gt;Node1</title>
<path fill="none" stroke="midnightblue" d="M1859.39,-62.5C1868.19,-62.5 1877.11,-62.5 1885.8,-62.5"/>
<polygon fill="midnightblue" stroke="midnightblue" points="1859.13,-59 1849.13,-62.5 1859.13,-66 1859.13,-59"/>
</g>
<!-- Node3 -->
<g id="node3" class="node">
<title>Node3</title>
<g id="a_node3"><a xlink:href="classdrain_1_1image_1_1SlidingWindow.html" target="_top" xlink:title=" ">
<polygon fill="white" stroke="black" points="1486,-47.5 1486,-77.5 1666,-77.5 1666,-47.5 1486,-47.5"/>
<text text-anchor="start" x="1494" y="-65.5" font-family="Helvetica,sans-Serif" font-size="10.00">SlidingWindow&lt; C, RadarWindow</text>
<text text-anchor="middle" x="1576" y="-54.5" font-family="Helvetica,sans-Serif" font-size="10.00">Core &gt;</text>
</a>
</g>
</g>
<!-- Node3&#45;&gt;Node2 -->
<g id="edge2" class="edge">
<title>Node3&#45;&gt;Node2</title>
<path fill="none" stroke="midnightblue" d="M1676.29,-62.5C1685.28,-62.5 1694.26,-62.5 1702.95,-62.5"/>
<polygon fill="midnightblue" stroke="midnightblue" points="1676.15,-59 1666.15,-62.5 1676.15,-66 1676.15,-59"/>
</g>
<!-- Node3&#45;&gt;Node3 -->
<g id="edge26" class="edge">
<title>Node3&#45;&gt;Node3</title>
<path fill="none" stroke="#9a32cd" stroke-dasharray="5,2" d="M1556.81,-87.96C1559.19,-92.68 1565.59,-96 1576,-96 1593.09,-96 1599.36,-87.06 1594.82,-77.66"/>
<polygon fill="#9a32cd" stroke="#9a32cd" points="1560.32,-87.78 1557.18,-77.66 1553.32,-87.53 1560.32,-87.78"/>
<text text-anchor="middle" x="1576" y="-121" font-family="Helvetica,sans-Serif" font-size="10.00"> fill</text>
<text text-anchor="middle" x="1576" y="-110" font-family="Helvetica,sans-Serif" font-size="10.00">updateVert</text>
<text text-anchor="middle" x="1576" y="-99" font-family="Helvetica,sans-Serif" font-size="10.00">updateHorz</text>
</g>
<!-- Node4 -->
<g id="node4" class="node">
<title>Node4</title>
<g id="a_node4"><a xlink:href="classdrain_1_1image_1_1Window.html" target="_top" xlink:title=" ">
<polygon fill="white" stroke="black" points="1268,-93 1268,-112 1449,-112 1449,-93 1268,-93"/>
<text text-anchor="middle" x="1358.5" y="-100" font-family="Helvetica,sans-Serif" font-size="10.00">Window&lt; C, RadarWindowCore &gt;</text>
</a>
</g>
</g>
<!-- Node4&#45;&gt;Node3 -->
<g id="edge3" class="edge">
<title>Node4&#45;&gt;Node3</title>
<path fill="none" stroke="midnightblue" d="M1420.73,-91.13C1443.56,-86.9 1469.84,-82.02 1494.16,-77.51"/>
<polygon fill="midnightblue" stroke="midnightblue" points="1420.04,-87.7 1410.84,-92.97 1421.31,-94.59 1420.04,-87.7"/>
</g>
<!-- Node5 -->
<g id="node5" class="node">
<title>Node5</title>
<g id="a_node5"><a xlink:title=" ">
<polygon fill="white" stroke="#bfbfbf" points="993,-141 993,-160 1100,-160 1100,-141 993,-141"/>
<text text-anchor="middle" x="1046.5" y="-148" font-family="Helvetica,sans-Serif" font-size="10.00">RadarWindowCore</text>
</a>
</g>
</g>
<!-- Node5&#45;&gt;Node4 -->
<g id="edge4" class="edge">
<title>Node5&#45;&gt;Node4</title>
<path fill="none" stroke="midnightblue" d="M1110.26,-140.78C1164.46,-132.39 1242.32,-120.33 1296.12,-112"/>
<polygon fill="midnightblue" stroke="midnightblue" points="1109.43,-137.37 1100.09,-142.36 1110.51,-144.29 1109.43,-137.37"/>
</g>
<!-- Node6 -->
<g id="node6" class="node">
<title>Node6</title>
<g id="a_node6"><a xlink:href="classdrain_1_1Range.html" target="_top" xlink:title=" ">
<polygon fill="white" stroke="black" points="788,-96 788,-115 871,-115 871,-96 788,-96"/>
<text text-anchor="middle" x="829.5" y="-103" font-family="Helvetica,sans-Serif" font-size="10.00">Range&lt; int &gt;</text>
</a>
</g>
</g>
<!-- Node6&#45;&gt;Node4 -->
<g id="edge5" class="edge">
<title>Node6&#45;&gt;Node4</title>
<path fill="none" stroke="#9a32cd" stroke-dasharray="5,2" d="M881.56,-105.21C970.88,-104.7 1156.53,-103.64 1267.73,-103.01"/>
<polygon fill="#9a32cd" stroke="#9a32cd" points="881.39,-101.71 871.41,-105.27 881.43,-108.71 881.39,-101.71"/>
<text text-anchor="middle" x="1046.5" y="-119.5" font-family="Helvetica,sans-Serif" font-size="10.00"> jRange</text>
<text text-anchor="middle" x="1046.5" y="-108.5" font-family="Helvetica,sans-Serif" font-size="10.00">iRange</text>
</g>
<!-- Node18 -->
<g id="node18" class="node">
<title>Node18</title>
<g id="a_node18"><a xlink:href="classdrain_1_1image_1_1CoordinateHandler2D.html" target="_top" xlink:title=" ">
<polygon fill="white" stroke="black" points="985.5,-179 985.5,-198 1107.5,-198 1107.5,-179 985.5,-179"/>
<text text-anchor="middle" x="1046.5" y="-186" font-family="Helvetica,sans-Serif" font-size="10.00">CoordinateHandler2D</text>
</a>
</g>
</g>
<!-- Node6&#45;&gt;Node18 -->
<g id="edge19" class="edge">
<title>Node6&#45;&gt;Node18</title>
<path fill="none" stroke="#9a32cd" stroke-dasharray="5,2" d="M880.77,-117.9C899.61,-124.14 920.45,-133.09 937,-145.5 947.67,-153.5 943.75,-162.34 955,-169.5 964.07,-175.28 974.6,-179.33 985.19,-182.17"/>
<polygon fill="#9a32cd" stroke="#9a32cd" points="881.72,-114.52 871.13,-114.87 879.62,-121.2 881.72,-114.52"/>
<text text-anchor="middle" x="917" y="-159.5" font-family="Helvetica,sans-Serif" font-size="10.00"> yRange</text>
<text text-anchor="middle" x="917" y="-148.5" font-family="Helvetica,sans-Serif" font-size="10.00">xRange</text>
</g>
<!-- Node7 -->
<g id="node7" class="node">
<title>Node7</title>
<g id="a_node7"><a xlink:href="classdrain_1_1UniTuple.html" target="_top" xlink:title=" ">
<polygon fill="white" stroke="black" points="601,-96 601,-115 707,-115 707,-96 601,-96"/>
<text text-anchor="middle" x="654" y="-103" font-family="Helvetica,sans-Serif" font-size="10.00">UniTuple&lt; int, 2 &gt;</text>
</a>
</g>
</g>
<!-- Node7&#45;&gt;Node6 -->
<g id="edge6" class="edge">
<title>Node7&#45;&gt;Node6</title>
<path fill="none" stroke="midnightblue" d="M717.27,-105.5C740.73,-105.5 766.79,-105.5 787.78,-105.5"/>
<polygon fill="midnightblue" stroke="midnightblue" points="717.06,-102 707.06,-105.5 717.06,-109 717.06,-102"/>
</g>
<!-- Node17 -->
<g id="node17" class="node">
<title>Node17</title>
<g id="a_node17"><a xlink:href="structdrain_1_1Point2D.html" target="_top" xlink:title=" ">
<polygon fill="white" stroke="black" points="1001.5,-45 1001.5,-64 1091.5,-64 1091.5,-45 1001.5,-45"/>
<text text-anchor="middle" x="1046.5" y="-52" font-family="Helvetica,sans-Serif" font-size="10.00">Point2D&lt; int &gt;</text>
</a>
</g>
</g>
<!-- Node7&#45;&gt;Node17 -->
<g id="edge17" class="edge">
<title>Node7&#45;&gt;Node17</title>
<path fill="none" stroke="midnightblue" d="M717.19,-95.66C737.22,-92.59 759.53,-89.29 780,-86.5 857.74,-75.91 948.55,-65.36 1001.29,-59.41"/>
<polygon fill="midnightblue" stroke="midnightblue" points="716.6,-92.21 707.25,-97.19 717.67,-99.13 716.6,-92.21"/>
</g>
<!-- Node19 -->
<g id="node19" class="node">
<title>Node19</title>
<g id="a_node19"><a xlink:href="classdrain_1_1Frame2D.html" target="_top" xlink:title=" ">
<polygon fill="white" stroke="black" points="781.5,-155 781.5,-174 877.5,-174 877.5,-155 781.5,-155"/>
<text text-anchor="middle" x="829.5" y="-162" font-family="Helvetica,sans-Serif" font-size="10.00">Frame2D&lt; int &gt;</text>
</a>
</g>
</g>
<!-- Node7&#45;&gt;Node19 -->
<g id="edge21" class="edge">
<title>Node7&#45;&gt;Node19</title>
<path fill="none" stroke="midnightblue" d="M692.87,-118.38C725.32,-129.41 771.33,-145.06 800.54,-154.99"/>
<polygon fill="midnightblue" stroke="midnightblue" points="693.86,-115.02 683.26,-115.11 691.6,-121.64 693.86,-115.02"/>
</g>
<!-- Node8 -->
<g id="node8" class="node">
<title>Node8</title>
<g id="a_node8"><a xlink:href="structdrain_1_1UnaryFunctor.html" target="_top" xlink:title=" ">
<polygon fill="white" stroke="black" points="1005.5,-226 1005.5,-245 1087.5,-245 1087.5,-226 1005.5,-226"/>
<text text-anchor="middle" x="1046.5" y="-233" font-family="Helvetica,sans-Serif" font-size="10.00">UnaryFunctor</text>
</a>
</g>
</g>
<!-- Node8&#45;&gt;Node4 -->
<g id="edge7" class="edge">
<title>Node8&#45;&gt;Node4</title>
<path fill="none" stroke="#9a32cd" stroke-dasharray="5,2" d="M1097.8,-226.72C1139.87,-218.19 1200.74,-203.03 1250,-179.5 1288.74,-160.99 1328.24,-128.44 1346.72,-112.23"/>
<polygon fill="#9a32cd" stroke="#9a32cd" points="1096.92,-223.33 1087.79,-228.7 1098.28,-230.19 1096.92,-223.33"/>
<text text-anchor="middle" x="1203" y="-214.5" font-family="Helvetica,sans-Serif" font-size="10.00"> myFunctor</text>
</g>
<!-- Node9 -->
<g id="node9" class="node">
<title>Node9</title>
<g id="a_node9"><a xlink:href="classdrain_1_1Functor.html" target="_top" xlink:title="Base class for sequential computations. Optional scaling utilities.">
<polygon fill="white" stroke="black" points="803,-238 803,-257 856,-257 856,-238 803,-238"/>
<text text-anchor="middle" x="829.5" y="-245" font-family="Helvetica,sans-Serif" font-size="10.00">Functor</text>
</a>
</g>
</g>
<!-- Node9&#45;&gt;Node8 -->
<g id="edge8" class="edge">
<title>Node9&#45;&gt;Node8</title>
<path fill="none" stroke="midnightblue" d="M866.2,-245.51C904.56,-243.37 965.41,-239.97 1005.4,-237.74"/>
<polygon fill="midnightblue" stroke="midnightblue" points="865.8,-242.02 856.01,-246.08 866.19,-249.01 865.8,-242.02"/>
</g>
<!-- Node10 -->
<g id="node10" class="node">
<title>Node10</title>
<g id="a_node10"><a xlink:href="classdrain_1_1BeanLike.html" target="_top" xlink:title="Something which has a name, a description and possibly some parameters of varying type.">
<polygon fill="white" stroke="black" points="623.5,-241 623.5,-260 684.5,-260 684.5,-241 623.5,-241"/>
<text text-anchor="middle" x="654" y="-248" font-family="Helvetica,sans-Serif" font-size="10.00">BeanLike</text>
</a>
</g>
</g>
<!-- Node10&#45;&gt;Node9 -->
<g id="edge9" class="edge">
<title>Node10&#45;&gt;Node9</title>
<path fill="none" stroke="midnightblue" d="M695.09,-249.81C728.24,-249.23 774.32,-248.44 802.74,-247.95"/>
<polygon fill="midnightblue" stroke="midnightblue" points="694.76,-246.31 684.83,-249.98 694.88,-253.31 694.76,-246.31"/>
</g>
<!-- Node11 -->
<g id="node11" class="node">
<title>Node11</title>
<g id="a_node11"><a xlink:href="classdrain_1_1ReferenceMap.html" target="_top" xlink:title=" ">
<polygon fill="white" stroke="black" points="394.5,-241 394.5,-260 481.5,-260 481.5,-241 394.5,-241"/>
<text text-anchor="middle" x="438" y="-248" font-family="Helvetica,sans-Serif" font-size="10.00">ReferenceMap</text>
</a>
</g>
</g>
<!-- Node11&#45;&gt;Node10 -->
<g id="edge10" class="edge">
<title>Node11&#45;&gt;Node10</title>
<path fill="none" stroke="#9a32cd" stroke-dasharray="5,2" d="M491.73,-250.5C533.15,-250.5 589.33,-250.5 623.28,-250.5"/>
<polygon fill="#9a32cd" stroke="#9a32cd" points="491.54,-247 481.54,-250.5 491.54,-254 491.54,-247"/>
<text text-anchor="middle" x="538" y="-253.5" font-family="Helvetica,sans-Serif" font-size="10.00"> parameters</text>
</g>
<!-- Node12 -->
<g id="node12" class="node">
<title>Node12</title>
<g id="a_node12"><a xlink:href="classdrain_1_1SmartMap.html" target="_top" xlink:title=" ">
<polygon fill="white" stroke="black" points="206,-241 206,-260 349,-260 349,-241 206,-241"/>
<text text-anchor="middle" x="277.5" y="-248" font-family="Helvetica,sans-Serif" font-size="10.00">SmartMap&lt; Referencer &gt;</text>
</a>
</g>
</g>
<!-- Node12&#45;&gt;Node11 -->
<g id="edge11" class="edge">
<title>Node12&#45;&gt;Node11</title>
<path fill="none" stroke="midnightblue" d="M359.5,-250.5C371.54,-250.5 383.52,-250.5 394.33,-250.5"/>
<polygon fill="midnightblue" stroke="midnightblue" points="359.41,-247 349.41,-250.5 359.41,-254 359.41,-247"/>
</g>
<!-- Node13 -->
<g id="node13" class="node">
<title>Node13</title>
<g id="a_node13"><a xlink:title=" ">
<polygon fill="white" stroke="#bfbfbf" points="0,-241 0,-260 169,-260 169,-241 0,-241"/>
<text text-anchor="middle" x="84.5" y="-248" font-family="Helvetica,sans-Serif" font-size="10.00">map&lt; std::string, Referencer &gt;</text>
</a>
</g>
</g>
<!-- Node13&#45;&gt;Node12 -->
<g id="edge12" class="edge">
<title>Node13&#45;&gt;Node12</title>
<path fill="none" stroke="midnightblue" d="M179.35,-250.5C188.29,-250.5 197.25,-250.5 205.92,-250.5"/>
<polygon fill="midnightblue" stroke="midnightblue" points="179.28,-247 169.28,-250.5 179.28,-254 179.28,-247"/>
</g>
<!-- Node14 -->
<g id="node14" class="node">
<title>Node14</title>
<g id="a_node14"><a xlink:href="classdrain_1_1UniCloner.html" target="_top" xlink:title=" ">
<polygon fill="white" stroke="black" points="955,-6 955,-25 1138,-25 1138,-6 955,-6"/>
<text text-anchor="middle" x="1046.5" y="-13" font-family="Helvetica,sans-Serif" font-size="10.00">UniCloner&lt; drain::UnaryFunctor &gt;</text>
</a>
</g>
</g>
<!-- Node14&#45;&gt;Node4 -->
<g id="edge13" class="edge">
<title>Node14&#45;&gt;Node4</title>
<path fill="none" stroke="#9a32cd" stroke-dasharray="5,2" d="M1148.24,-15.01C1182.92,-19.03 1220.42,-28.44 1250,-48.5 1262.87,-57.23 1255.59,-69.14 1268,-78.5 1276.35,-84.8 1286.23,-89.44 1296.32,-92.87"/>
<polygon fill="#9a32cd" stroke="#9a32cd" points="1148.37,-11.51 1138.07,-13.97 1147.66,-18.47 1148.37,-11.51"/>
<text text-anchor="middle" x="1203" y="-51.5" font-family="Helvetica,sans-Serif" font-size="10.00"> unicloner</text>
</g>
<!-- Node15 -->
<g id="node15" class="node">
<title>Node15</title>
<g id="a_node15"><a xlink:href="classdrain_1_1Bank.html" target="_top" xlink:title=" ">
<polygon fill="white" stroke="black" points="788,-6 788,-25 871,-25 871,-6 788,-6"/>
<text text-anchor="middle" x="829.5" y="-13" font-family="Helvetica,sans-Serif" font-size="10.00">Bank&lt; T, K &gt;</text>
</a>
</g>
</g>
<!-- Node15&#45;&gt;Node14 -->
<g id="edge14" class="edge">
<title>Node15&#45;&gt;Node14</title>
<path fill="none" stroke="#9a32cd" stroke-dasharray="5,2" d="M881.26,-15.5C903.19,-15.5 929.53,-15.5 954.64,-15.5"/>
<polygon fill="#9a32cd" stroke="#9a32cd" points="881.19,-12 871.19,-15.5 881.19,-19 881.19,-12"/>
<text text-anchor="middle" x="917" y="-18.5" font-family="Helvetica,sans-Serif" font-size="10.00"> bank</text>
</g>
<!-- Node16 -->
<g id="node16" class="node">
<title>Node16</title>
<g id="a_node16"><a xlink:title=" ">
<polygon fill="white" stroke="#bfbfbf" points="586,-0.5 586,-30.5 722,-30.5 722,-0.5 586,-0.5"/>
<text text-anchor="start" x="594" y="-18.5" font-family="Helvetica,sans-Serif" font-size="10.00">map&lt; std::string, Cloner</text>
<text text-anchor="middle" x="654" y="-7.5" font-family="Helvetica,sans-Serif" font-size="10.00">Base&lt; T &gt; * &gt;</text>
</a>
</g>
</g>
<!-- Node16&#45;&gt;Node15 -->
<g id="edge15" class="edge">
<title>Node16&#45;&gt;Node15</title>
<path fill="none" stroke="darkgreen" d="M732.34,-15.5C751.52,-15.5 771.32,-15.5 787.93,-15.5"/>
<polygon fill="darkgreen" stroke="darkgreen" points="732.08,-12 722.08,-15.5 732.08,-19 732.08,-12"/>
</g>
<!-- Node17&#45;&gt;Node3 -->
<g id="edge27" class="edge">
<title>Node17&#45;&gt;Node3</title>
<path fill="none" stroke="#9a32cd" stroke-dasharray="5,2" d="M1102.24,-51.97C1179.56,-48.84 1325.14,-44.62 1449,-50.5 1460.96,-51.07 1473.54,-51.94 1485.93,-52.96"/>
<polygon fill="#9a32cd" stroke="#9a32cd" points="1101.64,-48.49 1091.79,-52.4 1101.93,-55.48 1101.64,-48.49"/>
<text text-anchor="middle" x="1358.5" y="-75.5" font-family="Helvetica,sans-Serif" font-size="10.00"> locationTrail</text>
<text text-anchor="middle" x="1358.5" y="-64.5" font-family="Helvetica,sans-Serif" font-size="10.00">locationLead</text>
<text text-anchor="middle" x="1358.5" y="-53.5" font-family="Helvetica,sans-Serif" font-size="10.00">locationTmp</text>
</g>
<!-- Node17&#45;&gt;Node4 -->
<g id="edge16" class="edge">
<title>Node17&#45;&gt;Node4</title>
<path fill="none" stroke="#9a32cd" stroke-dasharray="5,2" d="M1101.64,-58C1142.59,-61.16 1200.1,-66.69 1250,-75.5 1275.2,-79.95 1303.23,-87.06 1324.35,-92.87"/>
<polygon fill="#9a32cd" stroke="#9a32cd" points="1101.83,-54.51 1091.6,-57.25 1101.31,-61.49 1101.83,-54.51"/>
<text text-anchor="middle" x="1203" y="-78.5" font-family="Helvetica,sans-Serif" font-size="10.00"> location</text>
</g>
<!-- Node18&#45;&gt;Node4 -->
<g id="edge18" class="edge">
<title>Node18&#45;&gt;Node4</title>
<path fill="none" stroke="#9a32cd" stroke-dasharray="5,2" d="M1104.97,-176.85C1115.96,-174.51 1127.35,-172 1138,-169.5 1188.06,-157.77 1200.83,-155.53 1250,-140.5 1278.59,-131.76 1310.85,-120.11 1332.51,-112.03"/>
<polygon fill="#9a32cd" stroke="#9a32cd" points="1104.09,-173.46 1095.03,-178.95 1105.54,-180.31 1104.09,-173.46"/>
<text text-anchor="middle" x="1203" y="-167.5" font-family="Helvetica,sans-Serif" font-size="10.00"> coordinateHandler</text>
</g>
<!-- Node19&#45;&gt;Node18 -->
<g id="edge20" class="edge">
<title>Node19&#45;&gt;Node18</title>
<path fill="none" stroke="#9a32cd" stroke-dasharray="5,2" d="M887.62,-170.88C917.77,-174.24 954.74,-178.37 985.32,-181.78"/>
<polygon fill="#9a32cd" stroke="#9a32cd" points="888.01,-167.4 877.68,-169.77 887.23,-174.35 888.01,-167.4"/>
<text text-anchor="middle" x="917" y="-178.5" font-family="Helvetica,sans-Serif" font-size="10.00"> area</text>
</g>
<!-- Node20 -->
<g id="node20" class="node">
<title>Node20</title>
<g id="a_node20"><a xlink:href="classdrain_1_1image_1_1CoordinatePolicy.html" target="_top" xlink:title="Policies for coordinate underflows and overflows.">
<polygon fill="white" stroke="black" points="780,-197 780,-216 879,-216 879,-197 780,-197"/>
<text text-anchor="middle" x="829.5" y="-204" font-family="Helvetica,sans-Serif" font-size="10.00">CoordinatePolicy</text>
</a>
</g>
</g>
<!-- Node20&#45;&gt;Node18 -->
<g id="edge22" class="edge">
<title>Node20&#45;&gt;Node18</title>
<path fill="none" stroke="#9a32cd" stroke-dasharray="5,2" d="M889.28,-201.58C919.09,-199.08 955.23,-196.06 985.25,-193.54"/>
<polygon fill="#9a32cd" stroke="#9a32cd" points="888.69,-198.12 879.02,-202.44 889.28,-205.09 888.69,-198.12"/>
<text text-anchor="middle" x="917" y="-203.5" font-family="Helvetica,sans-Serif" font-size="10.00"> policy</text>
</g>
<!-- Node21 -->
<g id="node21" class="node">
<title>Node21</title>
<g id="a_node21"><a xlink:href="classdrain_1_1UniTuple.html" target="_top" xlink:title=" ">
<polygon fill="white" stroke="black" points="595.5,-191.5 595.5,-221.5 712.5,-221.5 712.5,-191.5 595.5,-191.5"/>
<text text-anchor="start" x="603.5" y="-209.5" font-family="Helvetica,sans-Serif" font-size="10.00">UniTuple&lt; coord_pol</text>
<text text-anchor="middle" x="654" y="-198.5" font-family="Helvetica,sans-Serif" font-size="10.00">_t, 4 &gt;</text>
</a>
</g>
</g>
<!-- Node21&#45;&gt;Node20 -->
<g id="edge23" class="edge">
<title>Node21&#45;&gt;Node20</title>
<path fill="none" stroke="midnightblue" d="M722.9,-206.5C741.95,-206.5 762.28,-206.5 779.96,-206.5"/>
<polygon fill="midnightblue" stroke="midnightblue" points="722.77,-203 712.77,-206.5 722.77,-210 722.77,-203"/>
</g>
<!-- Node22 -->
<g id="node22" class="node">
<title>Node22</title>
<g id="a_node22"><a xlink:href="classdrain_1_1Dictionary2.html" target="_top" xlink:title="Two&#45;way mapping between strings and objects of template class T.">
<polygon fill="white" stroke="black" points="596.5,-153 596.5,-172 711.5,-172 711.5,-153 596.5,-153"/>
<text text-anchor="middle" x="654" y="-160" font-family="Helvetica,sans-Serif" font-size="10.00">Dictionary2&lt; K, V &gt;</text>
</a>
</g>
</g>
<!-- Node22&#45;&gt;Node20 -->
<g id="edge24" class="edge">
<title>Node22&#45;&gt;Node20</title>
<path fill="none" stroke="#9a32cd" stroke-dasharray="5,2" d="M702.56,-174.56C730.39,-181.62 765.02,-190.4 790.93,-196.97"/>
<polygon fill="#9a32cd" stroke="#9a32cd" points="703.2,-171.11 692.65,-172.05 701.48,-177.9 703.2,-171.11"/>
<text text-anchor="middle" x="751" y="-190.5" font-family="Helvetica,sans-Serif" font-size="10.00"> dict</text>
</g>
<!-- Node23 -->
<g id="node23" class="node">
<title>Node23</title>
<g id="a_node23"><a xlink:title=" ">
<polygon fill="white" stroke="#bfbfbf" points="386,-147.5 386,-177.5 490,-177.5 490,-147.5 386,-147.5"/>
<text text-anchor="start" x="394" y="-165.5" font-family="Helvetica,sans-Serif" font-size="10.00">list&lt; std::pair&lt; K,</text>
<text text-anchor="middle" x="438" y="-154.5" font-family="Helvetica,sans-Serif" font-size="10.00"> V &gt; &gt;</text>
</a>
</g>
</g>
<!-- Node23&#45;&gt;Node22 -->
<g id="edge25" class="edge">
<title>Node23&#45;&gt;Node22</title>
<path fill="none" stroke="midnightblue" d="M500.64,-162.5C530.73,-162.5 566.71,-162.5 596.14,-162.5"/>
<polygon fill="midnightblue" stroke="midnightblue" points="500.26,-159 490.26,-162.5 500.26,-166 500.26,-159"/>
</g>
</g>
</svg>
        <g id="navigator" transform="translate(0 0)" fill="#404254">
                <rect fill="#f2f5e9" fill-opacity="0.5" stroke="#606060" stroke-width=".5" x="0" y="0" width="60" height="60"/>
                <use id="zoomplus" xlink:href="#zoomPlus" x="17" y="9" onmousedown="handleZoom(evt,'in')"/>
                <use id="zoomminus" xlink:href="#zoomMin" x="42" y="9" onmousedown="handleZoom(evt,'out')"/>
                <use id="reset" xlink:href="#resetDef" x="30" y="36" onmousedown="handleReset()"/>
                <g id="arrowUp" xlink:href="#dirArrow" transform="translate(30 24)" onmousedown="handlePan(0,-1)">
                  <use xlink:href="#rim" fill="#404040">
                        <set attributeName="fill" to="#808080" begin="arrowUp.mouseover" end="arrowUp.mouseout"/>
                  </use>
                  <path fill="none" stroke="white" stroke-width="1.5" d="M0,-3.0v7 M-2.5,-0.5L0,-3.0L2.5,-0.5"/>
                </g>
                <g id="arrowRight" xlink:href="#dirArrow" transform="rotate(90) translate(36 -43)" onmousedown="handlePan(1,0)">
                  <use xlink:href="#rim" fill="#404040">
                        <set attributeName="fill" to="#808080" begin="arrowRight.mouseover" end="arrowRight.mouseout"/>
                  </use>
                  <path fill="none" stroke="white" stroke-width="1.5" d="M0,-3.0v7 M-2.5,-0.5L0,-3.0L2.5,-0.5"/>
                </g>
                <g id="arrowDown" xlink:href="#dirArrow" transform="rotate(180) translate(-30 -48)" onmousedown="handlePan(0,1)">
                  <use xlink:href="#rim" fill="#404040">
                        <set attributeName="fill" to="#808080" begin="arrowDown.mouseover" end="arrowDown.mouseout"/>
                  </use>
                  <path fill="none" stroke="white" stroke-width="1.5" d="M0,-3.0v7 M-2.5,-0.5L0,-3.0L2.5,-0.5"/>
                </g>
                <g id="arrowLeft" xlink:href="#dirArrow" transform="rotate(270) translate(-36 17)" onmousedown="handlePan(-1,0)">
                  <use xlink:href="#rim" fill="#404040">
                        <set attributeName="fill" to="#808080" begin="arrowLeft.mouseover" end="arrowLeft.mouseout"/>
                  </use>
                  <path fill="none" stroke="white" stroke-width="1.5" d="M0,-3.0v7 M-2.5,-0.5L0,-3.0L2.5,-0.5"/>
                </g>
        </g>
        <svg viewBox="0 0 15 15" width="100%" height="30px" preserveAspectRatio="xMaxYMin meet">
         <g id="arrow_out" transform="scale(0.3 0.3)">
          <a xlink:href="classrack_1_1RadarWindowStdDev__coll__graph_org.svg" target="_base">
           <rect id="button" ry="5" rx="5" y="6" x="6" height="38" width="38"
                fill="#f2f5e9" fill-opacity="0.5" stroke="#606060" stroke-width="1.0"/>
           <path id="arrow"
             d="M 11.500037,31.436501 C 11.940474,20.09759 22.043105,11.32322 32.158766,21.979434 L 37.068811,17.246167 C 37.068811,17.246167 37.088388,32 37.088388,32 L 22.160133,31.978069 C 22.160133,31.978069 26.997745,27.140456 26.997745,27.140456 C 18.528582,18.264221 13.291696,25.230495 11.500037,31.436501 z"
             style="fill:#404040;"/>
          </a>
         </g>
        </svg>
</svg>
