<?xml version="1.0" encoding="UTF-8" standalone="no"?>
<!DOCTYPE svg PUBLIC "-//W3C//DTD SVG 1.1//EN"
 "http://www.w3.org/Graphics/SVG/1.1/DTD/svg11.dtd">
<!-- Generated by graphviz version 2.43.0 (0)
 -->
<!-- Title: FunctorOp&lt; F &gt; Pages: 1 -->
<svg width="264pt" height="380pt"
 viewBox="0.00 0.00 263.50 380.00" xmlns="http://www.w3.org/2000/svg" xmlns:xlink="http://www.w3.org/1999/xlink">
<g id="graph0" class="graph" transform="scale(1 1) rotate(0) translate(4 376)">
<title>FunctorOp&lt; F &gt;</title>
<polygon fill="white" stroke="transparent" points="-4,4 -4,-376 259.5,-376 259.5,4 -4,4"/>
<!-- Node1 -->
<g id="node1" class="node">
<title>Node1</title>
<g id="a_node1"><a xlink:title="Class for using simple function objects (like std::functor) for sequential pixel iteration.">
<polygon fill="#bfbfbf" stroke="black" points="25.5,-0.5 25.5,-19.5 120.5,-19.5 120.5,-0.5 25.5,-0.5"/>
<text text-anchor="middle" x="73" y="-7.5" font-family="Helvetica,sans-Serif" font-size="10.00">FunctorOp&lt; F &gt;</text>
</a>
</g>
</g>
<!-- Node2 -->
<g id="node2" class="node">
<title>Node2</title>
<g id="a_node2"><a xlink:href="structdrain_1_1image_1_1FunctorWrapper.html" target="_top" xlink:title="Helper class that only ensures that functor is initialized before ImageOp.">
<polygon fill="white" stroke="black" points="0,-57.5 0,-76.5 122,-76.5 122,-57.5 0,-57.5"/>
<text text-anchor="middle" x="61" y="-64.5" font-family="Helvetica,sans-Serif" font-size="10.00">FunctorWrapper&lt; F &gt;</text>
</a>
</g>
</g>
<!-- Node2&#45;&gt;Node1 -->
<g id="edge1" class="edge">
<title>Node2&#45;&gt;Node1</title>
<path fill="none" stroke="midnightblue" d="M65.05,-47.42C67.1,-38.05 69.48,-27.14 71.1,-19.71"/>
<polygon fill="midnightblue" stroke="midnightblue" points="61.59,-46.89 62.88,-57.41 68.43,-48.38 61.59,-46.89"/>
</g>
<!-- Node3 -->
<g id="node3" class="node">
<title>Node3</title>
<g id="a_node3"><a xlink:href="classdrain_1_1image_1_1ImageOp.html" target="_top" xlink:title="Base class for image processing functions.">
<polygon fill="white" stroke="black" points="140.5,-57.5 140.5,-76.5 201.5,-76.5 201.5,-57.5 140.5,-57.5"/>
<text text-anchor="middle" x="171" y="-64.5" font-family="Helvetica,sans-Serif" font-size="10.00">ImageOp</text>
</a>
</g>
</g>
<!-- Node3&#45;&gt;Node1 -->
<g id="edge2" class="edge">
<title>Node3&#45;&gt;Node1</title>
<path fill="none" stroke="midnightblue" d="M146.76,-52.39C128.43,-42.11 103.84,-28.31 88.2,-19.53"/>
<polygon fill="midnightblue" stroke="midnightblue" points="145.25,-55.56 155.69,-57.41 148.68,-49.46 145.25,-55.56"/>
</g>
<!-- Node4 -->
<g id="node4" class="node">
<title>Node4</title>
<g id="a_node4"><a xlink:href="classdrain_1_1image_1_1ImageMod.html" target="_top" xlink:title="Class for operations that modify an existing image instead of producing a new image.">
<polygon fill="white" stroke="black" points="137,-114.5 137,-133.5 205,-133.5 205,-114.5 137,-114.5"/>
<text text-anchor="middle" x="171" y="-121.5" font-family="Helvetica,sans-Serif" font-size="10.00">ImageMod</text>
</a>
</g>
</g>
<!-- Node4&#45;&gt;Node3 -->
<g id="edge3" class="edge">
<title>Node4&#45;&gt;Node3</title>
<path fill="none" stroke="midnightblue" d="M171,-104.12C171,-94.82 171,-84.06 171,-76.71"/>
<polygon fill="midnightblue" stroke="midnightblue" points="167.5,-104.41 171,-114.41 174.5,-104.41 167.5,-104.41"/>
</g>
<!-- Node5 -->
<g id="node5" class="node">
<title>Node5</title>
<g id="a_node5"><a xlink:href="classdrain_1_1BeanLike.html" target="_top" xlink:title="Something which has a name, a description and possibly some parameters of varying type.">
<polygon fill="white" stroke="black" points="140.5,-171.5 140.5,-190.5 201.5,-190.5 201.5,-171.5 140.5,-171.5"/>
<text text-anchor="middle" x="171" y="-178.5" font-family="Helvetica,sans-Serif" font-size="10.00">BeanLike</text>
</a>
</g>
</g>
<!-- Node5&#45;&gt;Node4 -->
<g id="edge4" class="edge">
<title>Node5&#45;&gt;Node4</title>
<path fill="none" stroke="midnightblue" d="M171,-161.12C171,-151.82 171,-141.06 171,-133.71"/>
<polygon fill="midnightblue" stroke="midnightblue" points="167.5,-161.41 171,-171.41 174.5,-161.41 167.5,-161.41"/>
</g>
<!-- Node6 -->
<g id="node6" class="node">
<title>Node6</title>
<g id="a_node6"><a xlink:href="classdrain_1_1ReferenceMap.html" target="_top" xlink:title=" ">
<polygon fill="white" stroke="black" points="127.5,-238.5 127.5,-257.5 214.5,-257.5 214.5,-238.5 127.5,-238.5"/>
<text text-anchor="middle" x="171" y="-245.5" font-family="Helvetica,sans-Serif" font-size="10.00">ReferenceMap</text>
</a>
</g>
</g>
<!-- Node6&#45;&gt;Node5 -->
<g id="edge5" class="edge">
<title>Node6&#45;&gt;Node5</title>
<path fill="none" stroke="#9a32cd" stroke-dasharray="5,2" d="M171,-228.04C171,-215.67 171,-200.12 171,-190.63"/>
<polygon fill="#9a32cd" stroke="#9a32cd" points="167.5,-228.23 171,-238.23 174.5,-228.23 167.5,-228.23"/>
<text text-anchor="middle" x="201" y="-212" font-family="Helvetica,sans-Serif" font-size="10.00"> parameters</text>
</g>
<!-- Node7 -->
<g id="node7" class="node">
<title>Node7</title>
<g id="a_node7"><a xlink:href="classdrain_1_1SmartMap.html" target="_top" xlink:title=" ">
<polygon fill="white" stroke="black" points="99.5,-295.5 99.5,-314.5 242.5,-314.5 242.5,-295.5 99.5,-295.5"/>
<text text-anchor="middle" x="171" y="-302.5" font-family="Helvetica,sans-Serif" font-size="10.00">SmartMap&lt; Referencer &gt;</text>
</a>
</g>
</g>
<!-- Node7&#45;&gt;Node6 -->
<g id="edge6" class="edge">
<title>Node7&#45;&gt;Node6</title>
<path fill="none" stroke="midnightblue" d="M171,-285.12C171,-275.82 171,-265.06 171,-257.71"/>
<polygon fill="midnightblue" stroke="midnightblue" points="167.5,-285.41 171,-295.41 174.5,-285.41 167.5,-285.41"/>
</g>
<!-- Node8 -->
<g id="node8" class="node">
<title>Node8</title>
<g id="a_node8"><a xlink:title=" ">
<polygon fill="white" stroke="#bfbfbf" points="86.5,-352.5 86.5,-371.5 255.5,-371.5 255.5,-352.5 86.5,-352.5"/>
<text text-anchor="middle" x="171" y="-359.5" font-family="Helvetica,sans-Serif" font-size="10.00">map&lt; std::string, Referencer &gt;</text>
</a>
</g>
</g>
<!-- Node8&#45;&gt;Node7 -->
<g id="edge7" class="edge">
<title>Node8&#45;&gt;Node7</title>
<path fill="none" stroke="midnightblue" d="M171,-342.12C171,-332.82 171,-322.06 171,-314.71"/>
<polygon fill="midnightblue" stroke="midnightblue" points="167.5,-342.41 171,-352.41 174.5,-342.41 167.5,-342.41"/>
</g>
</g>
</svg>
