<?xml version="1.0" encoding="UTF-8" standalone="no"?>
<!DOCTYPE svg PUBLIC "-//W3C//DTD SVG 1.1//EN"
 "http://www.w3.org/Graphics/SVG/1.1/DTD/svg11.dtd">
<!-- Generated by graphviz version 2.43.0 (0)
 -->
<!-- Title: ImageEncoding Pages: 1 -->
<svg width="416pt" height="343pt"
 viewBox="0.00 0.00 415.50 343.00" xmlns="http://www.w3.org/2000/svg" xmlns:xlink="http://www.w3.org/1999/xlink">
<g id="graph0" class="graph" transform="scale(1 1) rotate(0) translate(4 339)">
<title>ImageEncoding</title>
<polygon fill="white" stroke="transparent" points="-4,4 -4,-339 411.5,-339 411.5,4 -4,4"/>
<!-- Node1 -->
<g id="node1" class="node">
<title>Node1</title>
<g id="a_node1"><a xlink:title="Changes the type of a target image.">
<polygon fill="#bfbfbf" stroke="black" points="96.5,-0.5 96.5,-19.5 188.5,-19.5 188.5,-0.5 96.5,-0.5"/>
<text text-anchor="middle" x="142.5" y="-7.5" font-family="Helvetica,sans-Serif" font-size="10.00">ImageEncoding</text>
</a>
</g>
</g>
<!-- Node2 -->
<g id="node2" class="node">
<title>Node2</title>
<g id="a_node2"><a xlink:href="classdrain_1_1image_1_1ImageMod.html" target="_top" xlink:title="Class for operations that modify an existing image instead of producing a new image.">
<polygon fill="white" stroke="black" points="108.5,-67.5 108.5,-86.5 176.5,-86.5 176.5,-67.5 108.5,-67.5"/>
<text text-anchor="middle" x="142.5" y="-74.5" font-family="Helvetica,sans-Serif" font-size="10.00">ImageMod</text>
</a>
</g>
</g>
<!-- Node2&#45;&gt;Node1 -->
<g id="edge1" class="edge">
<title>Node2&#45;&gt;Node1</title>
<path fill="none" stroke="midnightblue" d="M142.5,-57.04C142.5,-44.67 142.5,-29.12 142.5,-19.63"/>
<polygon fill="midnightblue" stroke="midnightblue" points="139,-57.23 142.5,-67.23 146,-57.23 139,-57.23"/>
</g>
<!-- Node3 -->
<g id="node3" class="node">
<title>Node3</title>
<g id="a_node3"><a xlink:href="classdrain_1_1BeanLike.html" target="_top" xlink:title="Something which has a name, a description and possibly some parameters of varying type.">
<polygon fill="white" stroke="black" points="109,-134.5 109,-153.5 170,-153.5 170,-134.5 109,-134.5"/>
<text text-anchor="middle" x="139.5" y="-141.5" font-family="Helvetica,sans-Serif" font-size="10.00">BeanLike</text>
</a>
</g>
</g>
<!-- Node3&#45;&gt;Node2 -->
<g id="edge2" class="edge">
<title>Node3&#45;&gt;Node2</title>
<path fill="none" stroke="midnightblue" d="M140.38,-124.04C140.95,-111.67 141.66,-96.12 142.1,-86.63"/>
<polygon fill="midnightblue" stroke="midnightblue" points="136.87,-124.08 139.9,-134.23 143.86,-124.41 136.87,-124.08"/>
</g>
<!-- Node4 -->
<g id="node4" class="node">
<title>Node4</title>
<g id="a_node4"><a xlink:href="classdrain_1_1ReferenceMap.html" target="_top" xlink:title=" ">
<polygon fill="white" stroke="black" points="41,-201.5 41,-220.5 128,-220.5 128,-201.5 41,-201.5"/>
<text text-anchor="middle" x="84.5" y="-208.5" font-family="Helvetica,sans-Serif" font-size="10.00">ReferenceMap</text>
</a>
</g>
</g>
<!-- Node4&#45;&gt;Node1 -->
<g id="edge6" class="edge">
<title>Node4&#45;&gt;Node1</title>
<path fill="none" stroke="#9a32cd" stroke-dasharray="5,2" d="M83.3,-191.2C82.19,-163.11 82.75,-108.98 99.5,-67 107.13,-47.87 123.27,-29.73 133.46,-19.52"/>
<polygon fill="#9a32cd" stroke="#9a32cd" points="79.8,-191.42 83.81,-201.23 86.79,-191.07 79.8,-191.42"/>
<text text-anchor="middle" x="108.5" y="-108" font-family="Helvetica,sans-Serif" font-size="10.00"> refMap</text>
</g>
<!-- Node4&#45;&gt;Node3 -->
<g id="edge3" class="edge">
<title>Node4&#45;&gt;Node3</title>
<path fill="none" stroke="#9a32cd" stroke-dasharray="5,2" d="M98.66,-193.27C109.38,-180.6 123.68,-163.7 132.2,-153.63"/>
<polygon fill="#9a32cd" stroke="#9a32cd" points="95.71,-191.34 91.92,-201.23 101.05,-195.86 95.71,-191.34"/>
<text text-anchor="middle" x="145.5" y="-175" font-family="Helvetica,sans-Serif" font-size="10.00"> parameters</text>
</g>
<!-- Node5 -->
<g id="node5" class="node">
<title>Node5</title>
<g id="a_node5"><a xlink:href="classdrain_1_1SmartMap.html" target="_top" xlink:title=" ">
<polygon fill="white" stroke="black" points="13,-258.5 13,-277.5 156,-277.5 156,-258.5 13,-258.5"/>
<text text-anchor="middle" x="84.5" y="-265.5" font-family="Helvetica,sans-Serif" font-size="10.00">SmartMap&lt; Referencer &gt;</text>
</a>
</g>
</g>
<!-- Node5&#45;&gt;Node4 -->
<g id="edge4" class="edge">
<title>Node5&#45;&gt;Node4</title>
<path fill="none" stroke="midnightblue" d="M84.5,-248.12C84.5,-238.82 84.5,-228.06 84.5,-220.71"/>
<polygon fill="midnightblue" stroke="midnightblue" points="81,-248.41 84.5,-258.41 88,-248.41 81,-248.41"/>
</g>
<!-- Node6 -->
<g id="node6" class="node">
<title>Node6</title>
<g id="a_node6"><a xlink:title=" ">
<polygon fill="white" stroke="#bfbfbf" points="0,-315.5 0,-334.5 169,-334.5 169,-315.5 0,-315.5"/>
<text text-anchor="middle" x="84.5" y="-322.5" font-family="Helvetica,sans-Serif" font-size="10.00">map&lt; std::string, Referencer &gt;</text>
</a>
</g>
</g>
<!-- Node6&#45;&gt;Node5 -->
<g id="edge5" class="edge">
<title>Node6&#45;&gt;Node5</title>
<path fill="none" stroke="midnightblue" d="M84.5,-305.12C84.5,-295.82 84.5,-285.06 84.5,-277.71"/>
<polygon fill="midnightblue" stroke="midnightblue" points="81,-305.41 84.5,-315.41 88,-305.41 81,-305.41"/>
</g>
<!-- Node7 -->
<g id="node7" class="node">
<title>Node7</title>
<g id="a_node7"><a xlink:href="classdrain_1_1image_1_1Encoding.html" target="_top" xlink:title=" ">
<polygon fill="white" stroke="black" points="198,-67.5 198,-86.5 259,-86.5 259,-67.5 198,-67.5"/>
<text text-anchor="middle" x="228.5" y="-74.5" font-family="Helvetica,sans-Serif" font-size="10.00">Encoding</text>
</a>
</g>
</g>
<!-- Node7&#45;&gt;Node1 -->
<g id="edge7" class="edge">
<title>Node7&#45;&gt;Node1</title>
<path fill="none" stroke="#9a32cd" stroke-dasharray="5,2" d="M208.74,-61.07C191.77,-48.24 167.88,-30.19 153.91,-19.63"/>
<polygon fill="#9a32cd" stroke="#9a32cd" points="206.81,-64 216.9,-67.23 211.03,-58.41 206.81,-64"/>
<text text-anchor="middle" x="215.5" y="-41" font-family="Helvetica,sans-Serif" font-size="10.00"> encoding</text>
</g>
<!-- Node8 -->
<g id="node8" class="node">
<title>Node8</title>
<g id="a_node8"><a xlink:href="classdrain_1_1ValueScaling.html" target="_top" xlink:title="Linear scaling and physical range for image intensities.">
<polygon fill="white" stroke="black" points="188.5,-134.5 188.5,-153.5 268.5,-153.5 268.5,-134.5 188.5,-134.5"/>
<text text-anchor="middle" x="228.5" y="-141.5" font-family="Helvetica,sans-Serif" font-size="10.00">ValueScaling</text>
</a>
</g>
</g>
<!-- Node8&#45;&gt;Node7 -->
<g id="edge8" class="edge">
<title>Node8&#45;&gt;Node7</title>
<path fill="none" stroke="midnightblue" d="M228.5,-124.04C228.5,-111.67 228.5,-96.12 228.5,-86.63"/>
<polygon fill="midnightblue" stroke="midnightblue" points="225,-124.23 228.5,-134.23 232,-124.23 225,-124.23"/>
</g>
<!-- Node9 -->
<g id="node9" class="node">
<title>Node9</title>
<g id="a_node9"><a xlink:href="classdrain_1_1UniTuple.html" target="_top" xlink:title=" ">
<polygon fill="white" stroke="black" points="148.5,-201.5 148.5,-220.5 274.5,-220.5 274.5,-201.5 148.5,-201.5"/>
<text text-anchor="middle" x="211.5" y="-208.5" font-family="Helvetica,sans-Serif" font-size="10.00">UniTuple&lt; double, 4 &gt;</text>
</a>
</g>
</g>
<!-- Node9&#45;&gt;Node8 -->
<g id="edge9" class="edge">
<title>Node9&#45;&gt;Node8</title>
<path fill="none" stroke="midnightblue" d="M216.36,-191.41C219.61,-178.99 223.74,-163.22 226.24,-153.63"/>
<polygon fill="midnightblue" stroke="midnightblue" points="212.94,-190.67 213.79,-201.23 219.71,-192.44 212.94,-190.67"/>
</g>
<!-- Node10 -->
<g id="node10" class="node">
<title>Node10</title>
<g id="a_node10"><a xlink:href="classdrain_1_1Range.html" target="_top" xlink:title=" ">
<polygon fill="white" stroke="black" points="293,-201.5 293,-220.5 396,-220.5 396,-201.5 293,-201.5"/>
<text text-anchor="middle" x="344.5" y="-208.5" font-family="Helvetica,sans-Serif" font-size="10.00">Range&lt; double &gt;</text>
</a>
</g>
</g>
<!-- Node10&#45;&gt;Node8 -->
<g id="edge10" class="edge">
<title>Node10&#45;&gt;Node8</title>
<path fill="none" stroke="#9a32cd" stroke-dasharray="5,2" d="M320.03,-196.29C297.04,-183.4 263.34,-164.52 243.9,-153.63"/>
<polygon fill="#9a32cd" stroke="#9a32cd" points="318.42,-199.4 328.86,-201.23 321.84,-193.29 318.42,-199.4"/>
<text text-anchor="middle" x="322.5" y="-175" font-family="Helvetica,sans-Serif" font-size="10.00"> physRange</text>
</g>
<!-- Node11 -->
<g id="node11" class="node">
<title>Node11</title>
<g id="a_node11"><a xlink:href="classdrain_1_1UniTuple.html" target="_top" xlink:title=" ">
<polygon fill="white" stroke="black" points="281.5,-258.5 281.5,-277.5 407.5,-277.5 407.5,-258.5 281.5,-258.5"/>
<text text-anchor="middle" x="344.5" y="-265.5" font-family="Helvetica,sans-Serif" font-size="10.00">UniTuple&lt; double, 2 &gt;</text>
</a>
</g>
</g>
<!-- Node11&#45;&gt;Node10 -->
<g id="edge11" class="edge">
<title>Node11&#45;&gt;Node10</title>
<path fill="none" stroke="midnightblue" d="M344.5,-248.12C344.5,-238.82 344.5,-228.06 344.5,-220.71"/>
<polygon fill="midnightblue" stroke="midnightblue" points="341,-248.41 344.5,-258.41 348,-248.41 341,-248.41"/>
</g>
<!-- Node12 -->
<g id="node12" class="node">
<title>Node12</title>
<g id="a_node12"><a xlink:href="classdrain_1_1Caster.html" target="_top" xlink:title=" ">
<polygon fill="white" stroke="black" points="286.5,-134.5 286.5,-153.5 334.5,-153.5 334.5,-134.5 286.5,-134.5"/>
<text text-anchor="middle" x="310.5" y="-141.5" font-family="Helvetica,sans-Serif" font-size="10.00">Caster</text>
</a>
</g>
</g>
<!-- Node12&#45;&gt;Node7 -->
<g id="edge12" class="edge">
<title>Node12&#45;&gt;Node7</title>
<path fill="none" stroke="#9a32cd" stroke-dasharray="5,2" d="M291.22,-127.71C275.06,-114.91 252.58,-97.09 239.38,-86.63"/>
<polygon fill="#9a32cd" stroke="#9a32cd" points="289.43,-130.76 299.44,-134.23 293.78,-125.28 289.43,-130.76"/>
<text text-anchor="middle" x="291.5" y="-108" font-family="Helvetica,sans-Serif" font-size="10.00"> caster</text>
</g>
</g>
</svg>
