<?xml version="1.0" encoding="UTF-8" standalone="no"?>
<!DOCTYPE svg PUBLIC "-//W3C//DTD SVG 1.1//EN"
 "http://www.w3.org/Graphics/SVG/1.1/DTD/svg11.dtd">
<!-- Generated by graphviz version 2.43.0 (0)
 -->
<!-- Title: CmdRename Pages: 1 -->
<svg width="101pt" height="252pt"
 viewBox="0.00 0.00 101.00 252.00" xmlns="http://www.w3.org/2000/svg" xmlns:xlink="http://www.w3.org/1999/xlink">
<g id="graph0" class="graph" transform="scale(1 1) rotate(0) translate(4 248)">
<title>CmdRename</title>
<polygon fill="white" stroke="transparent" points="-4,4 -4,-248 97,-248 97,4 -4,4"/>
<!-- Node1 -->
<g id="node1" class="node">
<title>Node1</title>
<g id="a_node1"><a xlink:title=" ">
<polygon fill="#bfbfbf" stroke="black" points="6.5,-0.5 6.5,-19.5 86.5,-19.5 86.5,-0.5 6.5,-0.5"/>
<text text-anchor="middle" x="46.5" y="-7.5" font-family="Helvetica,sans-Serif" font-size="10.00">CmdRename</text>
</a>
</g>
</g>
<!-- Node2 -->
<g id="node2" class="node">
<title>Node2</title>
<g id="a_node2"><a xlink:href="classrack_1_1CmdMove.html" target="_top" xlink:title="Rename or move data groups and attributes.">
<polygon fill="white" stroke="black" points="13.5,-56.5 13.5,-75.5 79.5,-75.5 79.5,-56.5 13.5,-56.5"/>
<text text-anchor="middle" x="46.5" y="-63.5" font-family="Helvetica,sans-Serif" font-size="10.00">CmdMove</text>
</a>
</g>
</g>
<!-- Node2&#45;&gt;Node1 -->
<g id="edge1" class="edge">
<title>Node2&#45;&gt;Node1</title>
<path fill="none" stroke="midnightblue" d="M46.5,-45.8C46.5,-36.91 46.5,-26.78 46.5,-19.75"/>
<polygon fill="midnightblue" stroke="midnightblue" points="43,-46.08 46.5,-56.08 50,-46.08 43,-46.08"/>
</g>
<!-- Node3 -->
<g id="node3" class="node">
<title>Node3</title>
<g id="a_node3"><a xlink:href="classdrain_1_1BasicCommand.html" target="_top" xlink:title="Simple implementation of Command: adds name , description and parameters .">
<polygon fill="white" stroke="black" points="0,-112.5 0,-131.5 93,-131.5 93,-112.5 0,-112.5"/>
<text text-anchor="middle" x="46.5" y="-119.5" font-family="Helvetica,sans-Serif" font-size="10.00">BasicCommand</text>
</a>
</g>
</g>
<!-- Node3&#45;&gt;Node2 -->
<g id="edge2" class="edge">
<title>Node3&#45;&gt;Node2</title>
<path fill="none" stroke="midnightblue" d="M46.5,-101.8C46.5,-92.91 46.5,-82.78 46.5,-75.75"/>
<polygon fill="midnightblue" stroke="midnightblue" points="43,-102.08 46.5,-112.08 50,-102.08 43,-102.08"/>
</g>
<!-- Node4 -->
<g id="node4" class="node">
<title>Node4</title>
<g id="a_node4"><a xlink:href="classdrain_1_1Command.html" target="_top" xlink:title="Base class for commands: typically actions taking parameters but also plain variable assignments and ...">
<polygon fill="white" stroke="black" points="13,-168.5 13,-187.5 80,-187.5 80,-168.5 13,-168.5"/>
<text text-anchor="middle" x="46.5" y="-175.5" font-family="Helvetica,sans-Serif" font-size="10.00">Command</text>
</a>
</g>
</g>
<!-- Node4&#45;&gt;Node3 -->
<g id="edge3" class="edge">
<title>Node4&#45;&gt;Node3</title>
<path fill="none" stroke="midnightblue" d="M46.5,-157.8C46.5,-148.91 46.5,-138.78 46.5,-131.75"/>
<polygon fill="midnightblue" stroke="midnightblue" points="43,-158.08 46.5,-168.08 50,-158.08 43,-158.08"/>
</g>
<!-- Node5 -->
<g id="node5" class="node">
<title>Node5</title>
<g id="a_node5"><a xlink:href="classdrain_1_1Contextual.html" target="_top" xlink:title=" ">
<polygon fill="white" stroke="black" points="11.5,-224.5 11.5,-243.5 81.5,-243.5 81.5,-224.5 11.5,-224.5"/>
<text text-anchor="middle" x="46.5" y="-231.5" font-family="Helvetica,sans-Serif" font-size="10.00">Contextual</text>
</a>
</g>
</g>
<!-- Node5&#45;&gt;Node4 -->
<g id="edge4" class="edge">
<title>Node5&#45;&gt;Node4</title>
<path fill="none" stroke="midnightblue" d="M46.5,-213.8C46.5,-204.91 46.5,-194.78 46.5,-187.75"/>
<polygon fill="midnightblue" stroke="midnightblue" points="43,-214.08 46.5,-224.08 50,-214.08 43,-214.08"/>
</g>
</g>
</svg>
