<?xml version="1.0" encoding="UTF-8" standalone="no"?>
<!DOCTYPE svg PUBLIC "-//W3C//DTD SVG 1.1//EN"
 "http://www.w3.org/Graphics/SVG/1.1/DTD/svg11.dtd">
<!-- Generated by graphviz version 2.43.0 (0)
 -->
<!-- Title: BeanRefCommand&lt; B &gt; Pages: 1 -->
<svg width="152pt" height="196pt"
 viewBox="0.00 0.00 152.00 196.00" xmlns="http://www.w3.org/2000/svg" xmlns:xlink="http://www.w3.org/1999/xlink">
<g id="graph0" class="graph" transform="scale(1 1) rotate(0) translate(4 192)">
<title>BeanRefCommand&lt; B &gt;</title>
<polygon fill="white" stroke="transparent" points="-4,4 -4,-192 148,-192 148,4 -4,4"/>
<!-- Node1 -->
<g id="node1" class="node">
<title>Node1</title>
<g id="a_node1"><a xlink:title=" ">
<polygon fill="#bfbfbf" stroke="black" points="3.5,-0.5 3.5,-19.5 140.5,-19.5 140.5,-0.5 3.5,-0.5"/>
<text text-anchor="middle" x="72" y="-7.5" font-family="Helvetica,sans-Serif" font-size="10.00">BeanRefCommand&lt; B &gt;</text>
</a>
</g>
</g>
<!-- Node2 -->
<g id="node2" class="node">
<title>Node2</title>
<g id="a_node2"><a xlink:href="classdrain_1_1BeanCommand.html" target="_top" xlink:title=" ">
<polygon fill="white" stroke="black" points="0,-56.5 0,-75.5 144,-75.5 144,-56.5 0,-56.5"/>
<text text-anchor="middle" x="72" y="-63.5" font-family="Helvetica,sans-Serif" font-size="10.00">BeanCommand&lt; B, B &amp; &gt;</text>
</a>
</g>
</g>
<!-- Node2&#45;&gt;Node1 -->
<g id="edge1" class="edge">
<title>Node2&#45;&gt;Node1</title>
<path fill="none" stroke="midnightblue" d="M72,-45.8C72,-36.91 72,-26.78 72,-19.75"/>
<polygon fill="midnightblue" stroke="midnightblue" points="68.5,-46.08 72,-56.08 75.5,-46.08 68.5,-46.08"/>
</g>
<!-- Node3 -->
<g id="node3" class="node">
<title>Node3</title>
<g id="a_node3"><a xlink:href="classdrain_1_1Command.html" target="_top" xlink:title="Base class for commands: typically actions taking parameters but also plain variable assignments and ...">
<polygon fill="white" stroke="black" points="38.5,-112.5 38.5,-131.5 105.5,-131.5 105.5,-112.5 38.5,-112.5"/>
<text text-anchor="middle" x="72" y="-119.5" font-family="Helvetica,sans-Serif" font-size="10.00">Command</text>
</a>
</g>
</g>
<!-- Node3&#45;&gt;Node2 -->
<g id="edge2" class="edge">
<title>Node3&#45;&gt;Node2</title>
<path fill="none" stroke="midnightblue" d="M72,-101.8C72,-92.91 72,-82.78 72,-75.75"/>
<polygon fill="midnightblue" stroke="midnightblue" points="68.5,-102.08 72,-112.08 75.5,-102.08 68.5,-102.08"/>
</g>
<!-- Node4 -->
<g id="node4" class="node">
<title>Node4</title>
<g id="a_node4"><a xlink:href="classdrain_1_1Contextual.html" target="_top" xlink:title=" ">
<polygon fill="white" stroke="black" points="37,-168.5 37,-187.5 107,-187.5 107,-168.5 37,-168.5"/>
<text text-anchor="middle" x="72" y="-175.5" font-family="Helvetica,sans-Serif" font-size="10.00">Contextual</text>
</a>
</g>
</g>
<!-- Node4&#45;&gt;Node3 -->
<g id="edge3" class="edge">
<title>Node4&#45;&gt;Node3</title>
<path fill="none" stroke="midnightblue" d="M72,-157.8C72,-148.91 72,-138.78 72,-131.75"/>
<polygon fill="midnightblue" stroke="midnightblue" points="68.5,-158.08 72,-168.08 75.5,-158.08 68.5,-158.08"/>
</g>
</g>
</svg>
