<?xml version="1.0" encoding="UTF-8" standalone="no"?>
<!DOCTYPE svg PUBLIC "-//W3C//DTD SVG 1.1//EN"
 "http://www.w3.org/Graphics/SVG/1.1/DTD/svg11.dtd">
<!-- Generated by graphviz version 2.43.0 (0)
 -->
<!-- Title: SlidingOpticalFlow2&lt; R &gt; Pages: 1 -->
<svg width="167pt" height="330pt"
 viewBox="0.00 0.00 167.00 330.00" xmlns="http://www.w3.org/2000/svg" xmlns:xlink="http://www.w3.org/1999/xlink">
<g id="graph0" class="graph" transform="scale(1 1) rotate(0) translate(4 326)">
<title>SlidingOpticalFlow2&lt; R &gt;</title>
<polygon fill="white" stroke="transparent" points="-4,4 -4,-326 163,-326 163,4 -4,4"/>
<!-- Node1 -->
<g id="node1" class="node">
<title>Node1</title>
<g id="a_node1"><a xlink:title="Currently not in use. See SlidingOpticalFlowWeighted2 below.">
<polygon fill="#bfbfbf" stroke="black" points="8,-0.5 8,-19.5 151,-19.5 151,-0.5 8,-0.5"/>
<text text-anchor="middle" x="79.5" y="-7.5" font-family="Helvetica,sans-Serif" font-size="10.00">SlidingOpticalFlow2&lt; R &gt;</text>
</a>
</g>
</g>
<!-- Node2 -->
<g id="node2" class="node">
<title>Node2</title>
<g id="a_node2"><a xlink:href="classdrain_1_1image_1_1SlidingWindow.html" target="_top" xlink:title=" ">
<polygon fill="white" stroke="black" points="0.5,-56.5 0.5,-86.5 158.5,-86.5 158.5,-56.5 0.5,-56.5"/>
<text text-anchor="start" x="8.5" y="-74.5" font-family="Helvetica,sans-Serif" font-size="10.00">SlidingWindow&lt; OpticalFlow</text>
<text text-anchor="middle" x="79.5" y="-63.5" font-family="Helvetica,sans-Serif" font-size="10.00">Config, OpticalFlowCore2 &gt;</text>
</a>
</g>
</g>
<!-- Node2&#45;&gt;Node1 -->
<g id="edge1" class="edge">
<title>Node2&#45;&gt;Node1</title>
<path fill="none" stroke="midnightblue" d="M79.5,-46.29C79.5,-36.86 79.5,-26.65 79.5,-19.66"/>
<polygon fill="midnightblue" stroke="midnightblue" points="76,-46.4 79.5,-56.4 83,-46.4 76,-46.4"/>
</g>
<!-- Node3 -->
<g id="node3" class="node">
<title>Node3</title>
<g id="a_node3"><a xlink:href="classdrain_1_1image_1_1Window.html" target="_top" xlink:title=" ">
<polygon fill="white" stroke="black" points="0,-123.5 0,-153.5 159,-153.5 159,-123.5 0,-123.5"/>
<text text-anchor="start" x="8" y="-141.5" font-family="Helvetica,sans-Serif" font-size="10.00">Window&lt; OpticalFlowConfig,</text>
<text text-anchor="middle" x="79.5" y="-130.5" font-family="Helvetica,sans-Serif" font-size="10.00"> OpticalFlowCore2 &gt;</text>
</a>
</g>
</g>
<!-- Node3&#45;&gt;Node2 -->
<g id="edge2" class="edge">
<title>Node3&#45;&gt;Node2</title>
<path fill="none" stroke="midnightblue" d="M79.5,-113.11C79.5,-104.15 79.5,-94.32 79.5,-86.58"/>
<polygon fill="midnightblue" stroke="midnightblue" points="76,-113.4 79.5,-123.4 83,-113.4 76,-113.4"/>
</g>
<!-- Node4 -->
<g id="node4" class="node">
<title>Node4</title>
<g id="a_node4"><a xlink:href="classdrain_1_1image_1_1OpticalFlowCore2.html" target="_top" xlink:title=" ">
<polygon fill="white" stroke="black" points="28,-190.5 28,-209.5 131,-209.5 131,-190.5 28,-190.5"/>
<text text-anchor="middle" x="79.5" y="-197.5" font-family="Helvetica,sans-Serif" font-size="10.00">OpticalFlowCore2</text>
</a>
</g>
</g>
<!-- Node4&#45;&gt;Node3 -->
<g id="edge3" class="edge">
<title>Node4&#45;&gt;Node3</title>
<path fill="none" stroke="midnightblue" d="M79.5,-180.23C79.5,-171.59 79.5,-161.5 79.5,-153.52"/>
<polygon fill="midnightblue" stroke="midnightblue" points="76,-180.48 79.5,-190.48 83,-180.48 76,-180.48"/>
</g>
<!-- Node5 -->
<g id="node5" class="node">
<title>Node5</title>
<g id="a_node5"><a xlink:href="classdrain_1_1image_1_1OpticalFlowCore.html" target="_top" xlink:title=" ">
<polygon fill="white" stroke="black" points="31,-246.5 31,-265.5 128,-265.5 128,-246.5 31,-246.5"/>
<text text-anchor="middle" x="79.5" y="-253.5" font-family="Helvetica,sans-Serif" font-size="10.00">OpticalFlowCore</text>
</a>
</g>
</g>
<!-- Node5&#45;&gt;Node4 -->
<g id="edge4" class="edge">
<title>Node5&#45;&gt;Node4</title>
<path fill="none" stroke="midnightblue" d="M79.5,-235.8C79.5,-226.91 79.5,-216.78 79.5,-209.75"/>
<polygon fill="midnightblue" stroke="midnightblue" points="76,-236.08 79.5,-246.08 83,-236.08 76,-236.08"/>
</g>
<!-- Node6 -->
<g id="node6" class="node">
<title>Node6</title>
<g id="a_node6"><a xlink:href="classdrain_1_1image_1_1WindowCoreBase.html" target="_top" xlink:title="Provides splitting frames.">
<polygon fill="white" stroke="black" points="28.5,-302.5 28.5,-321.5 130.5,-321.5 130.5,-302.5 28.5,-302.5"/>
<text text-anchor="middle" x="79.5" y="-309.5" font-family="Helvetica,sans-Serif" font-size="10.00">WindowCoreBase</text>
</a>
</g>
</g>
<!-- Node6&#45;&gt;Node5 -->
<g id="edge5" class="edge">
<title>Node6&#45;&gt;Node5</title>
<path fill="none" stroke="midnightblue" d="M79.5,-291.8C79.5,-282.91 79.5,-272.78 79.5,-265.75"/>
<polygon fill="midnightblue" stroke="midnightblue" points="76,-292.08 79.5,-302.08 83,-292.08 76,-292.08"/>
</g>
</g>
</svg>
