<?xml version="1.0" encoding="UTF-8" standalone="no"?>
<!DOCTYPE svg PUBLIC "-//W3C//DTD SVG 1.1//EN"
 "http://www.w3.org/Graphics/SVG/1.1/DTD/svg11.dtd">
<!-- Generated by graphviz version 2.43.0 (0)
 -->
<!-- Title: StringMapper Pages: 1 -->
<svg width="174pt" height="95pt"
 viewBox="0.00 0.00 174.00 95.00" xmlns="http://www.w3.org/2000/svg" xmlns:xlink="http://www.w3.org/1999/xlink">
<g id="graph0" class="graph" transform="scale(1 1) rotate(0) translate(4 91)">
<title>StringMapper</title>
<polygon fill="white" stroke="transparent" points="-4,4 -4,-91 170,-91 170,4 -4,4"/>
<!-- Node1 -->
<g id="node1" class="node">
<title>Node1</title>
<g id="a_node1"><a xlink:title="A tool for expanding variables embedded in a std::string to literals.">
<polygon fill="#bfbfbf" stroke="black" points="52.5,-0.5 52.5,-19.5 134.5,-19.5 134.5,-0.5 52.5,-0.5"/>
<text text-anchor="middle" x="93.5" y="-7.5" font-family="Helvetica,sans-Serif" font-size="10.00">StringMapper</text>
</a>
</g>
</g>
<!-- Node2 -->
<g id="node2" class="node">
<title>Node2</title>
<g id="a_node2"><a xlink:title=" ">
<polygon fill="white" stroke="#bfbfbf" points="0,-67.5 0,-86.5 95,-86.5 95,-67.5 0,-67.5"/>
<text text-anchor="middle" x="47.5" y="-74.5" font-family="Helvetica,sans-Serif" font-size="10.00">list&lt; Stringlet &gt;</text>
</a>
</g>
</g>
<!-- Node2&#45;&gt;Node1 -->
<g id="edge1" class="edge">
<title>Node2&#45;&gt;Node1</title>
<path fill="none" stroke="midnightblue" d="M59.6,-58.9C68.54,-46.27 80.33,-29.6 87.39,-19.63"/>
<polygon fill="midnightblue" stroke="midnightblue" points="56.62,-57.05 53.7,-67.23 62.34,-61.09 56.62,-57.05"/>
</g>
<!-- Node3 -->
<g id="node3" class="node">
<title>Node3</title>
<g id="a_node3"><a xlink:href="classdrain_1_1RegExp.html" target="_top" xlink:title=" ">
<polygon fill="white" stroke="black" points="113,-67.5 113,-86.5 166,-86.5 166,-67.5 113,-67.5"/>
<text text-anchor="middle" x="139.5" y="-74.5" font-family="Helvetica,sans-Serif" font-size="10.00">RegExp</text>
</a>
</g>
</g>
<!-- Node3&#45;&gt;Node1 -->
<g id="edge2" class="edge">
<title>Node3&#45;&gt;Node1</title>
<path fill="none" stroke="#9a32cd" stroke-dasharray="5,2" d="M127.4,-58.9C118.46,-46.27 106.67,-29.6 99.61,-19.63"/>
<polygon fill="#9a32cd" stroke="#9a32cd" points="124.66,-61.09 133.3,-67.23 130.38,-57.05 124.66,-61.09"/>
<text text-anchor="middle" x="137" y="-41" font-family="Helvetica,sans-Serif" font-size="10.00"> regExp</text>
</g>
</g>
</svg>
