<?xml version="1.0" encoding="UTF-8" standalone="no"?>
<!DOCTYPE svg PUBLIC "-//W3C//DTD SVG 1.1//EN"
 "http://www.w3.org/Graphics/SVG/1.1/DTD/svg11.dtd">
<!-- Generated by graphviz version 2.43.0 (0)
 -->
<!-- Title: Flagger Pages: 1 -->
<svg width="307pt" height="207pt"
 viewBox="0.00 0.00 306.50 207.00" xmlns="http://www.w3.org/2000/svg" xmlns:xlink="http://www.w3.org/1999/xlink">
<g id="graph0" class="graph" transform="scale(1 1) rotate(0) translate(4 203)">
<title>Flagger</title>
<polygon fill="white" stroke="transparent" points="-4,4 -4,-203 302.5,-203 302.5,4 -4,4"/>
<!-- Node1 -->
<g id="node1" class="node">
<title>Node1</title>
<g id="a_node1"><a xlink:title="Bit vector accessible also with integer values associated with strings.">
<polygon fill="#bfbfbf" stroke="black" points="86,-123.5 86,-142.5 139,-142.5 139,-123.5 86,-123.5"/>
<text text-anchor="middle" x="112.5" y="-130.5" font-family="Helvetica,sans-Serif" font-size="10.00">Flagger</text>
</a>
</g>
</g>
<!-- Node3 -->
<g id="node3" class="node">
<title>Node3</title>
<g id="a_node3"><a xlink:href="classdrain_1_1Flags.html" target="_top" xlink:title=" ">
<polygon fill="white" stroke="black" points="0,-62 0,-81 43,-81 43,-62 0,-62"/>
<text text-anchor="middle" x="21.5" y="-69" font-family="Helvetica,sans-Serif" font-size="10.00">Flags</text>
</a>
</g>
</g>
<!-- Node1&#45;&gt;Node3 -->
<g id="edge2" class="edge">
<title>Node1&#45;&gt;Node3</title>
<path fill="none" stroke="midnightblue" d="M90.98,-117.93C73.44,-106.46 49.23,-90.63 34.51,-81.01"/>
<polygon fill="midnightblue" stroke="midnightblue" points="89.18,-120.93 99.46,-123.48 93.01,-115.07 89.18,-120.93"/>
</g>
<!-- Node4 -->
<g id="node4" class="node">
<title>Node4</title>
<g id="a_node4"><a xlink:href="classdrain_1_1GlobalFlags.html" target="_top" xlink:title="Flags using a global dictionary.">
<polygon fill="white" stroke="black" points="61,-62 61,-81 164,-81 164,-62 61,-62"/>
<text text-anchor="middle" x="112.5" y="-69" font-family="Helvetica,sans-Serif" font-size="10.00">GlobalFlags&lt; T &gt;</text>
</a>
</g>
</g>
<!-- Node1&#45;&gt;Node4 -->
<g id="edge3" class="edge">
<title>Node1&#45;&gt;Node4</title>
<path fill="none" stroke="midnightblue" d="M112.5,-113.32C112.5,-102.5 112.5,-89.4 112.5,-81.01"/>
<polygon fill="midnightblue" stroke="midnightblue" points="109,-113.48 112.5,-123.48 116,-113.48 109,-113.48"/>
</g>
<!-- Node5 -->
<g id="node5" class="node">
<title>Node5</title>
<g id="a_node5"><a xlink:href="classdrain_1_1GlobalFlags.html" target="_top" xlink:title=" ">
<polygon fill="white" stroke="black" points="182.5,-56.5 182.5,-86.5 298.5,-86.5 298.5,-56.5 182.5,-56.5"/>
<text text-anchor="start" x="190.5" y="-74.5" font-family="Helvetica,sans-Serif" font-size="10.00">GlobalFlags&lt; status</text>
<text text-anchor="middle" x="240.5" y="-63.5" font-family="Helvetica,sans-Serif" font-size="10.00">_flag_id &gt;</text>
</a>
</g>
</g>
<!-- Node1&#45;&gt;Node5 -->
<g id="edge4" class="edge">
<title>Node1&#45;&gt;Node5</title>
<path fill="none" stroke="midnightblue" d="M140.04,-119.2C160.72,-109.58 189.04,-96.42 210.33,-86.52"/>
<polygon fill="midnightblue" stroke="midnightblue" points="138.43,-116.09 130.84,-123.48 141.38,-122.43 138.43,-116.09"/>
</g>
<!-- Node2 -->
<g id="node2" class="node">
<title>Node2</title>
<g id="a_node2"><a xlink:href="classdrain_1_1FlagResolver.html" target="_top" xlink:title="Referencing a dictionary of binary values: {&quot;A&quot;,1: &quot;B&quot;:2, &quot;C&quot;: 4, &quot;D&quot;: 8, ...} resolves two&#45;way mappi...">
<polygon fill="white" stroke="black" points="72.5,-179.5 72.5,-198.5 152.5,-198.5 152.5,-179.5 72.5,-179.5"/>
<text text-anchor="middle" x="112.5" y="-186.5" font-family="Helvetica,sans-Serif" font-size="10.00">FlagResolver</text>
</a>
</g>
</g>
<!-- Node2&#45;&gt;Node1 -->
<g id="edge1" class="edge">
<title>Node2&#45;&gt;Node1</title>
<path fill="none" stroke="midnightblue" d="M112.5,-168.8C112.5,-159.91 112.5,-149.78 112.5,-142.75"/>
<polygon fill="midnightblue" stroke="midnightblue" points="109,-169.08 112.5,-179.08 116,-169.08 109,-169.08"/>
</g>
<!-- Node6 -->
<g id="node6" class="node">
<title>Node6</title>
<g id="a_node6"><a xlink:href="classdrain_1_1StatusFlags.html" target="_top" xlink:title=" ">
<polygon fill="white" stroke="black" points="203.5,-0.5 203.5,-19.5 277.5,-19.5 277.5,-0.5 203.5,-0.5"/>
<text text-anchor="middle" x="240.5" y="-7.5" font-family="Helvetica,sans-Serif" font-size="10.00">StatusFlags</text>
</a>
</g>
</g>
<!-- Node5&#45;&gt;Node6 -->
<g id="edge5" class="edge">
<title>Node5&#45;&gt;Node6</title>
<path fill="none" stroke="midnightblue" d="M240.5,-46.29C240.5,-36.86 240.5,-26.65 240.5,-19.66"/>
<polygon fill="midnightblue" stroke="midnightblue" points="237,-46.4 240.5,-56.4 244,-46.4 237,-46.4"/>
</g>
</g>
</svg>
