<?xml version="1.0" encoding="UTF-8" standalone="no"?>
<!DOCTYPE svg PUBLIC "-//W3C//DTD SVG 1.1//EN"
 "http://www.w3.org/Graphics/SVG/1.1/DTD/svg11.dtd">
<!-- Generated by graphviz version 2.43.0 (0)
 -->
<!-- Title: SuperContextual&lt; C &gt; Pages: 1 -->
<svg width="294pt" height="401pt"
 viewBox="0.00 0.00 294.00 401.00" xmlns="http://www.w3.org/2000/svg" xmlns:xlink="http://www.w3.org/1999/xlink">
<g id="graph0" class="graph" transform="scale(1 1) rotate(0) translate(4 397)">
<title>SuperContextual&lt; C &gt;</title>
<polygon fill="white" stroke="transparent" points="-4,4 -4,-397 290,-397 290,4 -4,4"/>
<!-- Node1 -->
<g id="node1" class="node">
<title>Node1</title>
<g id="a_node1"><a xlink:title="Adds class&#45;specific convenience functions.">
<polygon fill="#bfbfbf" stroke="black" points="92.5,-0.5 92.5,-19.5 219.5,-19.5 219.5,-0.5 92.5,-0.5"/>
<text text-anchor="middle" x="156" y="-7.5" font-family="Helvetica,sans-Serif" font-size="10.00">SuperContextual&lt; C &gt;</text>
</a>
</g>
</g>
<!-- Node2 -->
<g id="node2" class="node">
<title>Node2</title>
<g id="a_node2"><a xlink:href="classdrain_1_1Contextual.html" target="_top" xlink:title=" ">
<polygon fill="white" stroke="black" points="121,-57.5 121,-76.5 191,-76.5 191,-57.5 121,-57.5"/>
<text text-anchor="middle" x="156" y="-64.5" font-family="Helvetica,sans-Serif" font-size="10.00">Contextual</text>
</a>
</g>
</g>
<!-- Node2&#45;&gt;Node1 -->
<g id="edge1" class="edge">
<title>Node2&#45;&gt;Node1</title>
<path fill="none" stroke="midnightblue" d="M156,-47.12C156,-37.82 156,-27.06 156,-19.71"/>
<polygon fill="midnightblue" stroke="midnightblue" points="152.5,-47.41 156,-57.41 159.5,-47.41 152.5,-47.41"/>
</g>
<!-- Node3 -->
<g id="node3" class="node">
<title>Node3</title>
<g id="a_node3"><a xlink:href="classdrain_1_1Context.html" target="_top" xlink:title=" ">
<polygon fill="white" stroke="black" points="128.5,-124.5 128.5,-143.5 183.5,-143.5 183.5,-124.5 128.5,-124.5"/>
<text text-anchor="middle" x="156" y="-131.5" font-family="Helvetica,sans-Serif" font-size="10.00">Context</text>
</a>
</g>
</g>
<!-- Node3&#45;&gt;Node2 -->
<g id="edge2" class="edge">
<title>Node3&#45;&gt;Node2</title>
<path fill="none" stroke="#9a32cd" stroke-dasharray="5,2" d="M156,-114.04C156,-101.67 156,-86.12 156,-76.63"/>
<polygon fill="#9a32cd" stroke="#9a32cd" points="152.5,-114.23 156,-124.23 159.5,-114.23 152.5,-114.23"/>
<text text-anchor="middle" x="183" y="-98" font-family="Helvetica,sans-Serif" font-size="10.00"> contextPtr</text>
</g>
<!-- Node4 -->
<g id="node4" class="node">
<title>Node4</title>
<g id="a_node4"><a xlink:href="classdrain_1_1VariableMap.html" target="_top" xlink:title="A map of Variables.">
<polygon fill="white" stroke="black" points="39,-191.5 39,-210.5 117,-210.5 117,-191.5 39,-191.5"/>
<text text-anchor="middle" x="78" y="-198.5" font-family="Helvetica,sans-Serif" font-size="10.00">VariableMap</text>
</a>
</g>
</g>
<!-- Node4&#45;&gt;Node3 -->
<g id="edge3" class="edge">
<title>Node4&#45;&gt;Node3</title>
<path fill="none" stroke="#9a32cd" stroke-dasharray="5,2" d="M84.01,-182.04C87.03,-175.09 91.3,-167.51 97,-162 105.75,-153.55 117.62,-147.42 128.42,-143.16"/>
<polygon fill="#9a32cd" stroke="#9a32cd" points="80.71,-180.84 80.43,-191.44 87.26,-183.33 80.71,-180.84"/>
<text text-anchor="middle" x="124.5" y="-165" font-family="Helvetica,sans-Serif" font-size="10.00"> statusMap</text>
</g>
<!-- Node5 -->
<g id="node5" class="node">
<title>Node5</title>
<g id="a_node5"><a xlink:href="classdrain_1_1SmartMap.html" target="_top" xlink:title=" ">
<polygon fill="white" stroke="black" points="13,-254 13,-273 143,-273 143,-254 13,-254"/>
<text text-anchor="middle" x="78" y="-261" font-family="Helvetica,sans-Serif" font-size="10.00">SmartMap&lt; Variable &gt;</text>
</a>
</g>
</g>
<!-- Node5&#45;&gt;Node4 -->
<g id="edge4" class="edge">
<title>Node5&#45;&gt;Node4</title>
<path fill="none" stroke="midnightblue" d="M78,-243.5C78,-232.5 78,-219.18 78,-210.65"/>
<polygon fill="midnightblue" stroke="midnightblue" points="74.5,-243.83 78,-253.83 81.5,-243.83 74.5,-243.83"/>
</g>
<!-- Node6 -->
<g id="node6" class="node">
<title>Node6</title>
<g id="a_node6"><a xlink:title=" ">
<polygon fill="white" stroke="#bfbfbf" points="0,-316.5 0,-335.5 156,-335.5 156,-316.5 0,-316.5"/>
<text text-anchor="middle" x="78" y="-323.5" font-family="Helvetica,sans-Serif" font-size="10.00">map&lt; std::string, Variable &gt;</text>
</a>
</g>
</g>
<!-- Node6&#45;&gt;Node5 -->
<g id="edge5" class="edge">
<title>Node6&#45;&gt;Node5</title>
<path fill="none" stroke="midnightblue" d="M78,-306C78,-295 78,-281.68 78,-273.15"/>
<polygon fill="midnightblue" stroke="midnightblue" points="74.5,-306.33 78,-316.33 81.5,-306.33 74.5,-306.33"/>
</g>
<!-- Node7 -->
<g id="node7" class="node">
<title>Node7</title>
<g id="a_node7"><a xlink:href="classdrain_1_1Log.html" target="_top" xlink:title="Handler for notifications sent by a Logger.">
<polygon fill="white" stroke="black" points="139,-191.5 139,-210.5 173,-210.5 173,-191.5 139,-191.5"/>
<text text-anchor="middle" x="156" y="-198.5" font-family="Helvetica,sans-Serif" font-size="10.00">Log</text>
</a>
</g>
</g>
<!-- Node7&#45;&gt;Node3 -->
<g id="edge6" class="edge">
<title>Node7&#45;&gt;Node3</title>
<path fill="none" stroke="#9a32cd" stroke-dasharray="5,2" d="M156,-181.04C156,-168.67 156,-153.12 156,-143.63"/>
<polygon fill="#9a32cd" stroke="#9a32cd" points="152.5,-181.23 156,-191.23 159.5,-181.23 152.5,-181.23"/>
<text text-anchor="middle" x="165.5" y="-165" font-family="Helvetica,sans-Serif" font-size="10.00"> log</text>
</g>
<!-- Node8 -->
<g id="node8" class="node">
<title>Node8</title>
<g id="a_node8"><a xlink:href="classdrain_1_1StatusFlags.html" target="_top" xlink:title=" ">
<polygon fill="white" stroke="black" points="191,-191.5 191,-210.5 265,-210.5 265,-191.5 191,-191.5"/>
<text text-anchor="middle" x="228" y="-198.5" font-family="Helvetica,sans-Serif" font-size="10.00">StatusFlags</text>
</a>
</g>
</g>
<!-- Node8&#45;&gt;Node3 -->
<g id="edge7" class="edge">
<title>Node8&#45;&gt;Node3</title>
<path fill="none" stroke="#9a32cd" stroke-dasharray="5,2" d="M210.67,-184.36C196.52,-171.58 177.04,-153.99 165.56,-143.63"/>
<polygon fill="#9a32cd" stroke="#9a32cd" points="208.52,-187.13 218.29,-191.23 213.21,-181.93 208.52,-187.13"/>
<text text-anchor="middle" x="226" y="-165" font-family="Helvetica,sans-Serif" font-size="10.00"> statusFlags</text>
</g>
<!-- Node9 -->
<g id="node9" class="node">
<title>Node9</title>
<g id="a_node9"><a xlink:href="classdrain_1_1GlobalFlags.html" target="_top" xlink:title=" ">
<polygon fill="white" stroke="black" points="170,-248.5 170,-278.5 286,-278.5 286,-248.5 170,-248.5"/>
<text text-anchor="start" x="178" y="-266.5" font-family="Helvetica,sans-Serif" font-size="10.00">GlobalFlags&lt; status</text>
<text text-anchor="middle" x="228" y="-255.5" font-family="Helvetica,sans-Serif" font-size="10.00">_flag_id &gt;</text>
</a>
</g>
</g>
<!-- Node9&#45;&gt;Node8 -->
<g id="edge8" class="edge">
<title>Node9&#45;&gt;Node8</title>
<path fill="none" stroke="midnightblue" d="M228,-238.35C228,-228.51 228,-217.78 228,-210.54"/>
<polygon fill="midnightblue" stroke="midnightblue" points="224.5,-238.47 228,-248.47 231.5,-238.47 224.5,-238.47"/>
</g>
<!-- Node10 -->
<g id="node10" class="node">
<title>Node10</title>
<g id="a_node10"><a xlink:href="classdrain_1_1Flagger.html" target="_top" xlink:title="Bit vector accessible also with integer values associated with strings.">
<polygon fill="white" stroke="black" points="201.5,-316.5 201.5,-335.5 254.5,-335.5 254.5,-316.5 201.5,-316.5"/>
<text text-anchor="middle" x="228" y="-323.5" font-family="Helvetica,sans-Serif" font-size="10.00">Flagger</text>
</a>
</g>
</g>
<!-- Node10&#45;&gt;Node9 -->
<g id="edge9" class="edge">
<title>Node10&#45;&gt;Node9</title>
<path fill="none" stroke="midnightblue" d="M228,-306.22C228,-297.36 228,-286.96 228,-278.76"/>
<polygon fill="midnightblue" stroke="midnightblue" points="224.5,-306.33 228,-316.33 231.5,-306.33 224.5,-306.33"/>
</g>
<!-- Node11 -->
<g id="node11" class="node">
<title>Node11</title>
<g id="a_node11"><a xlink:href="classdrain_1_1FlagResolver.html" target="_top" xlink:title="Referencing a dictionary of binary values: {&quot;A&quot;,1: &quot;B&quot;:2, &quot;C&quot;: 4, &quot;D&quot;: 8, ...} resolves two&#45;way mappi...">
<polygon fill="white" stroke="black" points="188,-373.5 188,-392.5 268,-392.5 268,-373.5 188,-373.5"/>
<text text-anchor="middle" x="228" y="-380.5" font-family="Helvetica,sans-Serif" font-size="10.00">FlagResolver</text>
</a>
</g>
</g>
<!-- Node11&#45;&gt;Node10 -->
<g id="edge10" class="edge">
<title>Node11&#45;&gt;Node10</title>
<path fill="none" stroke="midnightblue" d="M228,-363.12C228,-353.82 228,-343.06 228,-335.71"/>
<polygon fill="midnightblue" stroke="midnightblue" points="224.5,-363.41 228,-373.41 231.5,-363.41 224.5,-363.41"/>
</g>
</g>
</svg>
