<?xml version="1.0" encoding="UTF-8" standalone="no"?>
<!DOCTYPE svg PUBLIC "-//W3C//DTD SVG 1.1//EN"
 "http://www.w3.org/Graphics/SVG/1.1/DTD/svg11.dtd">
<!-- Generated by graphviz version 2.43.0 (0)
 -->
<!-- Title: RackImageOpCmd&lt; OP &gt; Pages: 1 -->
<svg width="238pt" height="196pt"
 viewBox="0.00 0.00 238.00 196.00" xmlns="http://www.w3.org/2000/svg" xmlns:xlink="http://www.w3.org/1999/xlink">
<g id="graph0" class="graph" transform="scale(1 1) rotate(0) translate(4 192)">
<title>RackImageOpCmd&lt; OP &gt;</title>
<polygon fill="white" stroke="transparent" points="-4,4 -4,-192 234,-192 234,4 -4,4"/>
<!-- Node1 -->
<g id="node1" class="node">
<title>Node1</title>
<g id="a_node1"><a xlink:title="Designed for Rack.">
<polygon fill="#bfbfbf" stroke="black" points="54.5,-0.5 54.5,-19.5 197.5,-19.5 197.5,-0.5 54.5,-0.5"/>
<text text-anchor="middle" x="126" y="-7.5" font-family="Helvetica,sans-Serif" font-size="10.00">RackImageOpCmd&lt; OP &gt;</text>
</a>
</g>
</g>
<!-- Node2 -->
<g id="node2" class="node">
<title>Node2</title>
<g id="a_node2"><a xlink:href="classdrain_1_1BeanCommand.html" target="_top" xlink:title=" ">
<polygon fill="white" stroke="black" points="0,-56.5 0,-75.5 128,-75.5 128,-56.5 0,-56.5"/>
<text text-anchor="middle" x="64" y="-63.5" font-family="Helvetica,sans-Serif" font-size="10.00">BeanCommand&lt; OP &gt;</text>
</a>
</g>
</g>
<!-- Node2&#45;&gt;Node1 -->
<g id="edge1" class="edge">
<title>Node2&#45;&gt;Node1</title>
<path fill="none" stroke="midnightblue" d="M81.75,-49.54C92.81,-39.91 106.63,-27.87 115.86,-19.83"/>
<polygon fill="midnightblue" stroke="midnightblue" points="79.2,-47.12 73.96,-56.32 83.8,-52.4 79.2,-47.12"/>
</g>
<!-- Node3 -->
<g id="node3" class="node">
<title>Node3</title>
<g id="a_node3"><a xlink:href="classdrain_1_1Command.html" target="_top" xlink:title="Base class for commands: typically actions taking parameters but also plain variable assignments and ...">
<polygon fill="white" stroke="black" points="30.5,-112.5 30.5,-131.5 97.5,-131.5 97.5,-112.5 30.5,-112.5"/>
<text text-anchor="middle" x="64" y="-119.5" font-family="Helvetica,sans-Serif" font-size="10.00">Command</text>
</a>
</g>
</g>
<!-- Node3&#45;&gt;Node2 -->
<g id="edge2" class="edge">
<title>Node3&#45;&gt;Node2</title>
<path fill="none" stroke="midnightblue" d="M64,-101.8C64,-92.91 64,-82.78 64,-75.75"/>
<polygon fill="midnightblue" stroke="midnightblue" points="60.5,-102.08 64,-112.08 67.5,-102.08 60.5,-102.08"/>
</g>
<!-- Node4 -->
<g id="node4" class="node">
<title>Node4</title>
<g id="a_node4"><a xlink:href="classdrain_1_1Contextual.html" target="_top" xlink:title=" ">
<polygon fill="white" stroke="black" points="29,-168.5 29,-187.5 99,-187.5 99,-168.5 29,-168.5"/>
<text text-anchor="middle" x="64" y="-175.5" font-family="Helvetica,sans-Serif" font-size="10.00">Contextual</text>
</a>
</g>
</g>
<!-- Node4&#45;&gt;Node3 -->
<g id="edge3" class="edge">
<title>Node4&#45;&gt;Node3</title>
<path fill="none" stroke="midnightblue" d="M64,-157.8C64,-148.91 64,-138.78 64,-131.75"/>
<polygon fill="midnightblue" stroke="midnightblue" points="60.5,-158.08 64,-168.08 67.5,-158.08 60.5,-158.08"/>
</g>
<!-- Node5 -->
<g id="node5" class="node">
<title>Node5</title>
<g id="a_node5"><a xlink:href="classrack_1_1ImageOpExec.html" target="_top" xlink:title=" ">
<polygon fill="white" stroke="black" points="146,-56.5 146,-75.5 230,-75.5 230,-56.5 146,-56.5"/>
<text text-anchor="middle" x="188" y="-63.5" font-family="Helvetica,sans-Serif" font-size="10.00">ImageOpExec</text>
</a>
</g>
</g>
<!-- Node5&#45;&gt;Node1 -->
<g id="edge4" class="edge">
<title>Node5&#45;&gt;Node1</title>
<path fill="none" stroke="midnightblue" d="M170.25,-49.54C159.19,-39.91 145.37,-27.87 136.14,-19.83"/>
<polygon fill="midnightblue" stroke="midnightblue" points="168.2,-52.4 178.04,-56.32 172.8,-47.12 168.2,-52.4"/>
</g>
</g>
</svg>
