<?xml version="1.0" encoding="UTF-8" standalone="no"?>
<!DOCTYPE svg PUBLIC "-//W3C//DTD SVG 1.1//EN"
 "http://www.w3.org/Graphics/SVG/1.1/DTD/svg11.dtd">
<!-- Generated by graphviz version 2.43.0 (0)
 -->
<!-- Title: RunLengthOp Pages: 1 -->
<svg width="232pt" height="252pt"
 viewBox="0.00 0.00 232.00 252.00" xmlns="http://www.w3.org/2000/svg" xmlns:xlink="http://www.w3.org/1999/xlink">
<g id="graph0" class="graph" transform="scale(1 1) rotate(0) translate(4 248)">
<title>RunLengthOp</title>
<polygon fill="white" stroke="transparent" points="-4,4 -4,-248 228,-248 228,4 -4,4"/>
<!-- Node1 -->
<g id="node1" class="node">
<title>Node1</title>
<g id="a_node1"><a xlink:title="Base class for RunLengthHorzOp and RunLengthVertOp.">
<polygon fill="#bfbfbf" stroke="black" points="71,-56.5 71,-75.5 153,-75.5 153,-56.5 71,-56.5"/>
<text text-anchor="middle" x="112" y="-63.5" font-family="Helvetica,sans-Serif" font-size="10.00">RunLengthOp</text>
</a>
</g>
</g>
<!-- Node5 -->
<g id="node5" class="node">
<title>Node5</title>
<g id="a_node5"><a xlink:href="classdrain_1_1image_1_1RunLengthHorzOp.html" target="_top" xlink:title="Computes lengths of horizontal segments.">
<polygon fill="white" stroke="black" points="0,-0.5 0,-19.5 104,-19.5 104,-0.5 0,-0.5"/>
<text text-anchor="middle" x="52" y="-7.5" font-family="Helvetica,sans-Serif" font-size="10.00">RunLengthHorzOp</text>
</a>
</g>
</g>
<!-- Node1&#45;&gt;Node5 -->
<g id="edge4" class="edge">
<title>Node1&#45;&gt;Node5</title>
<path fill="none" stroke="midnightblue" d="M94.82,-49.54C84.12,-39.91 70.74,-27.87 61.82,-19.83"/>
<polygon fill="midnightblue" stroke="midnightblue" points="92.59,-52.24 102.36,-56.32 97.27,-47.03 92.59,-52.24"/>
</g>
<!-- Node6 -->
<g id="node6" class="node">
<title>Node6</title>
<g id="a_node6"><a xlink:href="classdrain_1_1image_1_1RunLengthVertOp.html" target="_top" xlink:title="Computes lengths of vertical segments.">
<polygon fill="white" stroke="black" points="122,-0.5 122,-19.5 224,-19.5 224,-0.5 122,-0.5"/>
<text text-anchor="middle" x="173" y="-7.5" font-family="Helvetica,sans-Serif" font-size="10.00">RunLengthVertOp</text>
</a>
</g>
</g>
<!-- Node1&#45;&gt;Node6 -->
<g id="edge5" class="edge">
<title>Node1&#45;&gt;Node6</title>
<path fill="none" stroke="midnightblue" d="M129.47,-49.54C140.34,-39.91 153.94,-27.87 163.02,-19.83"/>
<polygon fill="midnightblue" stroke="midnightblue" points="126.97,-47.07 121.8,-56.32 131.61,-52.32 126.97,-47.07"/>
</g>
<!-- Node2 -->
<g id="node2" class="node">
<title>Node2</title>
<g id="a_node2"><a xlink:href="classdrain_1_1image_1_1ImageOp.html" target="_top" xlink:title="Base class for image processing functions.">
<polygon fill="white" stroke="black" points="81.5,-112.5 81.5,-131.5 142.5,-131.5 142.5,-112.5 81.5,-112.5"/>
<text text-anchor="middle" x="112" y="-119.5" font-family="Helvetica,sans-Serif" font-size="10.00">ImageOp</text>
</a>
</g>
</g>
<!-- Node2&#45;&gt;Node1 -->
<g id="edge1" class="edge">
<title>Node2&#45;&gt;Node1</title>
<path fill="none" stroke="midnightblue" d="M112,-101.8C112,-92.91 112,-82.78 112,-75.75"/>
<polygon fill="midnightblue" stroke="midnightblue" points="108.5,-102.08 112,-112.08 115.5,-102.08 108.5,-102.08"/>
</g>
<!-- Node3 -->
<g id="node3" class="node">
<title>Node3</title>
<g id="a_node3"><a xlink:href="classdrain_1_1image_1_1ImageMod.html" target="_top" xlink:title="Class for operations that modify an existing image instead of producing a new image.">
<polygon fill="white" stroke="black" points="78,-168.5 78,-187.5 146,-187.5 146,-168.5 78,-168.5"/>
<text text-anchor="middle" x="112" y="-175.5" font-family="Helvetica,sans-Serif" font-size="10.00">ImageMod</text>
</a>
</g>
</g>
<!-- Node3&#45;&gt;Node2 -->
<g id="edge2" class="edge">
<title>Node3&#45;&gt;Node2</title>
<path fill="none" stroke="midnightblue" d="M112,-157.8C112,-148.91 112,-138.78 112,-131.75"/>
<polygon fill="midnightblue" stroke="midnightblue" points="108.5,-158.08 112,-168.08 115.5,-158.08 108.5,-158.08"/>
</g>
<!-- Node4 -->
<g id="node4" class="node">
<title>Node4</title>
<g id="a_node4"><a xlink:href="classdrain_1_1BeanLike.html" target="_top" xlink:title="Something which has a name, a description and possibly some parameters of varying type.">
<polygon fill="white" stroke="black" points="81.5,-224.5 81.5,-243.5 142.5,-243.5 142.5,-224.5 81.5,-224.5"/>
<text text-anchor="middle" x="112" y="-231.5" font-family="Helvetica,sans-Serif" font-size="10.00">BeanLike</text>
</a>
</g>
</g>
<!-- Node4&#45;&gt;Node3 -->
<g id="edge3" class="edge">
<title>Node4&#45;&gt;Node3</title>
<path fill="none" stroke="midnightblue" d="M112,-213.8C112,-204.91 112,-194.78 112,-187.75"/>
<polygon fill="midnightblue" stroke="midnightblue" points="108.5,-214.08 112,-224.08 115.5,-214.08 108.5,-214.08"/>
</g>
</g>
</svg>
