<?xml version="1.0" encoding="UTF-8" standalone="no"?>
<!DOCTYPE svg PUBLIC "-//W3C//DTD SVG 1.1//EN"
 "http://www.w3.org/Graphics/SVG/1.1/DTD/svg11.dtd">
<!-- Generated by graphviz version 2.43.0 (0)
 -->
<!-- Title: GaussianStripeVertPolarWeighted Pages: 1 -->
<svg width="190pt" height="397pt"
 viewBox="0.00 0.00 190.00 397.00" xmlns="http://www.w3.org/2000/svg" xmlns:xlink="http://www.w3.org/1999/xlink">
<g id="graph0" class="graph" transform="scale(1 1) rotate(0) translate(4 393)">
<title>GaussianStripeVertPolarWeighted</title>
<polygon fill="white" stroke="transparent" points="-4,4 -4,-393 186,-393 186,4 -4,4"/>
<!-- Node1 -->
<g id="node1" class="node">
<title>Node1</title>
<g id="a_node1"><a xlink:title=" ">
<polygon fill="#bfbfbf" stroke="black" points="0,-0.5 0,-19.5 182,-19.5 182,-0.5 0,-0.5"/>
<text text-anchor="middle" x="91" y="-7.5" font-family="Helvetica,sans-Serif" font-size="10.00">GaussianStripeVertPolarWeighted</text>
</a>
</g>
</g>
<!-- Node2 -->
<g id="node2" class="node">
<title>Node2</title>
<g id="a_node2"><a xlink:href="classdrain_1_1image_1_1GaussianStripeWeighted.html" target="_top" xlink:title=" ">
<polygon fill="white" stroke="black" points="22.5,-56.5 22.5,-86.5 159.5,-86.5 159.5,-56.5 22.5,-56.5"/>
<text text-anchor="start" x="30.5" y="-74.5" font-family="Helvetica,sans-Serif" font-size="10.00">GaussianStripeWeighted</text>
<text text-anchor="middle" x="91" y="-63.5" font-family="Helvetica,sans-Serif" font-size="10.00">&lt; false &gt;</text>
</a>
</g>
</g>
<!-- Node2&#45;&gt;Node1 -->
<g id="edge1" class="edge">
<title>Node2&#45;&gt;Node1</title>
<path fill="none" stroke="midnightblue" d="M91,-46.29C91,-36.86 91,-26.65 91,-19.66"/>
<polygon fill="midnightblue" stroke="midnightblue" points="87.5,-46.4 91,-56.4 94.5,-46.4 87.5,-46.4"/>
</g>
<!-- Node3 -->
<g id="node3" class="node">
<title>Node3</title>
<g id="a_node3"><a xlink:href="classdrain_1_1image_1_1GaussianStripe.html" target="_top" xlink:title=" ">
<polygon fill="white" stroke="black" points="21.5,-123.5 21.5,-153.5 160.5,-153.5 160.5,-123.5 21.5,-123.5"/>
<text text-anchor="start" x="29.5" y="-141.5" font-family="Helvetica,sans-Serif" font-size="10.00">GaussianStripe&lt; DIR,</text>
<text text-anchor="middle" x="91" y="-130.5" font-family="Helvetica,sans-Serif" font-size="10.00"> WeightedWindowCore &gt;</text>
</a>
</g>
</g>
<!-- Node3&#45;&gt;Node2 -->
<g id="edge2" class="edge">
<title>Node3&#45;&gt;Node2</title>
<path fill="none" stroke="midnightblue" d="M91,-113.11C91,-104.15 91,-94.32 91,-86.58"/>
<polygon fill="midnightblue" stroke="midnightblue" points="87.5,-113.4 91,-123.4 94.5,-113.4 87.5,-113.4"/>
</g>
<!-- Node4 -->
<g id="node4" class="node">
<title>Node4</title>
<g id="a_node4"><a xlink:href="classdrain_1_1image_1_1Window.html" target="_top" xlink:title=" ">
<polygon fill="white" stroke="black" points="3,-190.5 3,-220.5 179,-220.5 179,-190.5 3,-190.5"/>
<text text-anchor="start" x="11" y="-208.5" font-family="Helvetica,sans-Serif" font-size="10.00">Window&lt; GaussianWindowConf,</text>
<text text-anchor="middle" x="91" y="-197.5" font-family="Helvetica,sans-Serif" font-size="10.00"> WeightedWindowCore &gt;</text>
</a>
</g>
</g>
<!-- Node4&#45;&gt;Node3 -->
<g id="edge3" class="edge">
<title>Node4&#45;&gt;Node3</title>
<path fill="none" stroke="midnightblue" d="M91,-180.11C91,-171.15 91,-161.32 91,-153.58"/>
<polygon fill="midnightblue" stroke="midnightblue" points="87.5,-180.4 91,-190.4 94.5,-180.4 87.5,-180.4"/>
</g>
<!-- Node5 -->
<g id="node5" class="node">
<title>Node5</title>
<g id="a_node5"><a xlink:href="classdrain_1_1image_1_1WeightedWindowCore.html" target="_top" xlink:title=" ">
<polygon fill="white" stroke="black" points="28.5,-257.5 28.5,-276.5 153.5,-276.5 153.5,-257.5 28.5,-257.5"/>
<text text-anchor="middle" x="91" y="-264.5" font-family="Helvetica,sans-Serif" font-size="10.00">WeightedWindowCore</text>
</a>
</g>
</g>
<!-- Node5&#45;&gt;Node4 -->
<g id="edge4" class="edge">
<title>Node5&#45;&gt;Node4</title>
<path fill="none" stroke="midnightblue" d="M91,-247.23C91,-238.59 91,-228.5 91,-220.52"/>
<polygon fill="midnightblue" stroke="midnightblue" points="87.5,-247.48 91,-257.48 94.5,-247.48 87.5,-247.48"/>
</g>
<!-- Node6 -->
<g id="node6" class="node">
<title>Node6</title>
<g id="a_node6"><a xlink:href="classdrain_1_1image_1_1WindowCore.html" target="_top" xlink:title="Container for source data (input) and destination data (output). May also contain metadata of them.">
<polygon fill="white" stroke="black" points="52,-313.5 52,-332.5 130,-332.5 130,-313.5 52,-313.5"/>
<text text-anchor="middle" x="91" y="-320.5" font-family="Helvetica,sans-Serif" font-size="10.00">WindowCore</text>
</a>
</g>
</g>
<!-- Node6&#45;&gt;Node5 -->
<g id="edge5" class="edge">
<title>Node6&#45;&gt;Node5</title>
<path fill="none" stroke="midnightblue" d="M91,-302.8C91,-293.91 91,-283.78 91,-276.75"/>
<polygon fill="midnightblue" stroke="midnightblue" points="87.5,-303.08 91,-313.08 94.5,-303.08 87.5,-303.08"/>
</g>
<!-- Node7 -->
<g id="node7" class="node">
<title>Node7</title>
<g id="a_node7"><a xlink:href="classdrain_1_1image_1_1WindowCoreBase.html" target="_top" xlink:title="Provides splitting frames.">
<polygon fill="white" stroke="black" points="40,-369.5 40,-388.5 142,-388.5 142,-369.5 40,-369.5"/>
<text text-anchor="middle" x="91" y="-376.5" font-family="Helvetica,sans-Serif" font-size="10.00">WindowCoreBase</text>
</a>
</g>
</g>
<!-- Node7&#45;&gt;Node6 -->
<g id="edge6" class="edge">
<title>Node7&#45;&gt;Node6</title>
<path fill="none" stroke="midnightblue" d="M91,-358.8C91,-349.91 91,-339.78 91,-332.75"/>
<polygon fill="midnightblue" stroke="midnightblue" points="87.5,-359.08 91,-369.08 94.5,-359.08 87.5,-359.08"/>
</g>
</g>
</svg>
