<?xml version="1.0" encoding="UTF-8" standalone="no"?>
<!DOCTYPE svg PUBLIC "-//W3C//DTD SVG 1.1//EN"
 "http://www.w3.org/Graphics/SVG/1.1/DTD/svg11.dtd">
<!-- Generated by graphviz version 2.43.0 (0)
 -->
<!-- Title: FilePath Pages: 1 -->
<svg width="244pt" height="230pt"
 viewBox="0.00 0.00 244.00 230.00" xmlns="http://www.w3.org/2000/svg" xmlns:xlink="http://www.w3.org/1999/xlink">
<g id="graph0" class="graph" transform="scale(1 1) rotate(0) translate(4 226)">
<title>FilePath</title>
<polygon fill="white" stroke="transparent" points="-4,4 -4,-226 240,-226 240,4 -4,4"/>
<!-- Node1 -->
<g id="node1" class="node">
<title>Node1</title>
<g id="a_node1"><a xlink:title="Extracts and stores directory path, base filename and extension.">
<polygon fill="#bfbfbf" stroke="black" points="64,-0.5 64,-19.5 119,-19.5 119,-0.5 64,-0.5"/>
<text text-anchor="middle" x="91.5" y="-7.5" font-family="Helvetica,sans-Serif" font-size="10.00">FilePath</text>
</a>
</g>
</g>
<!-- Node2 -->
<g id="node2" class="node">
<title>Node2</title>
<g id="a_node2"><a xlink:href="classdrain_1_1Path.html" target="_top" xlink:title=" ">
<polygon fill="white" stroke="black" points="34,-67.5 34,-97.5 149,-97.5 149,-67.5 34,-67.5"/>
<text text-anchor="start" x="42" y="-85.5" font-family="Helvetica,sans-Serif" font-size="10.00">Path&lt; std::string,&#39;</text>
<text text-anchor="middle" x="91.5" y="-74.5" font-family="Helvetica,sans-Serif" font-size="10.00">/&#39;, true, false, true &gt;</text>
</a>
</g>
</g>
<!-- Node2&#45;&gt;Node1 -->
<g id="edge1" class="edge">
<title>Node2&#45;&gt;Node1</title>
<path fill="none" stroke="#9a32cd" stroke-dasharray="5,2" d="M91.5,-57.09C91.5,-44.21 91.5,-29.2 91.5,-19.89"/>
<polygon fill="#9a32cd" stroke="#9a32cd" points="88,-57.23 91.5,-67.23 95,-57.23 88,-57.23"/>
<text text-anchor="middle" x="99.5" y="-41" font-family="Helvetica,sans-Serif" font-size="10.00"> dir</text>
</g>
<!-- Node3 -->
<g id="node3" class="node">
<title>Node3</title>
<g id="a_node3"><a xlink:title=" ">
<polygon fill="white" stroke="#bfbfbf" points="0,-145.5 0,-164.5 103,-164.5 103,-145.5 0,-145.5"/>
<text text-anchor="middle" x="51.5" y="-152.5" font-family="Helvetica,sans-Serif" font-size="10.00">list&lt; std::string &gt;</text>
</a>
</g>
</g>
<!-- Node3&#45;&gt;Node2 -->
<g id="edge2" class="edge">
<title>Node3&#45;&gt;Node2</title>
<path fill="none" stroke="midnightblue" d="M61.53,-136.32C68.33,-124.34 77.19,-108.72 83.51,-97.58"/>
<polygon fill="midnightblue" stroke="midnightblue" points="58.3,-134.93 56.4,-145.36 64.38,-138.38 58.3,-134.93"/>
</g>
<!-- Node4 -->
<g id="node4" class="node">
<title>Node4</title>
<g id="a_node4"><a xlink:href="structdrain_1_1PathSeparatorPolicy.html" target="_top" xlink:title="Determines if separators will be stored in the path.">
<polygon fill="white" stroke="black" points="121,-145.5 121,-164.5 236,-164.5 236,-145.5 121,-145.5"/>
<text text-anchor="middle" x="178.5" y="-152.5" font-family="Helvetica,sans-Serif" font-size="10.00">PathSeparatorPolicy</text>
</a>
</g>
</g>
<!-- Node4&#45;&gt;Node2 -->
<g id="edge3" class="edge">
<title>Node4&#45;&gt;Node2</title>
<path fill="none" stroke="#9a32cd" stroke-dasharray="5,2" d="M159.72,-138.78C144.63,-126.55 123.58,-109.5 108.87,-97.58"/>
<polygon fill="#9a32cd" stroke="#9a32cd" points="157.86,-141.78 167.83,-145.36 162.27,-136.34 157.86,-141.78"/>
<text text-anchor="middle" x="167.5" y="-119" font-family="Helvetica,sans-Serif" font-size="10.00"> separator</text>
</g>
<!-- Node5 -->
<g id="node5" class="node">
<title>Node5</title>
<g id="a_node5"><a xlink:href="classdrain_1_1UniTuple.html" target="_top" xlink:title=" ">
<polygon fill="white" stroke="black" points="121.5,-202.5 121.5,-221.5 235.5,-221.5 235.5,-202.5 121.5,-202.5"/>
<text text-anchor="middle" x="178.5" y="-209.5" font-family="Helvetica,sans-Serif" font-size="10.00">UniTuple&lt; bool, 3 &gt;</text>
</a>
</g>
</g>
<!-- Node5&#45;&gt;Node4 -->
<g id="edge4" class="edge">
<title>Node5&#45;&gt;Node4</title>
<path fill="none" stroke="midnightblue" d="M178.5,-192.12C178.5,-182.82 178.5,-172.06 178.5,-164.71"/>
<polygon fill="midnightblue" stroke="midnightblue" points="175,-192.41 178.5,-202.41 182,-192.41 175,-192.41"/>
</g>
</g>
</svg>
