<?xml version="1.0" encoding="UTF-8" standalone="no"?>
<!DOCTYPE svg PUBLIC "-//W3C//DTD SVG 1.1//EN"
 "http://www.w3.org/Graphics/SVG/1.1/DTD/svg11.dtd">
<!-- Generated by graphviz version 2.43.0 (0)
 -->
<!-- Title: Accumulator Pages: 1 -->
<svg width="2821pt" height="463pt"
 viewBox="0.00 0.00 2821.00 462.56" xmlns="http://www.w3.org/2000/svg" xmlns:xlink="http://www.w3.org/1999/xlink">
<g id="graph0" class="graph" transform="scale(1 1) rotate(0) translate(4 458.56)">
<title>Accumulator</title>
<polygon fill="white" stroke="transparent" points="-4,4 -4,-458.56 2817,-458.56 2817,4 -4,4"/>
<!-- Node1 -->
<g id="node1" class="node">
<title>Node1</title>
<g id="a_node1"><a xlink:title=" ">
<polygon fill="#bfbfbf" stroke="black" points="2735,-159.06 2735,-178.06 2813,-178.06 2813,-159.06 2735,-159.06"/>
<text text-anchor="middle" x="2774" y="-166.06" font-family="Helvetica,sans-Serif" font-size="10.00">Accumulator</text>
</a>
</g>
</g>
<!-- Node2 -->
<g id="node2" class="node">
<title>Node2</title>
<g id="a_node2"><a xlink:href="classdrain_1_1image_1_1AccumulationArray.html" target="_top" xlink:title="General&#45;purpose image compositing.">
<polygon fill="white" stroke="black" points="2035,-270.06 2035,-289.06 2145,-289.06 2145,-270.06 2035,-270.06"/>
<text text-anchor="middle" x="2090" y="-277.06" font-family="Helvetica,sans-Serif" font-size="10.00">AccumulationArray</text>
</a>
</g>
</g>
<!-- Node2&#45;&gt;Node1 -->
<g id="edge1" class="edge">
<title>Node2&#45;&gt;Node1</title>
<path fill="none" stroke="midnightblue" d="M2128.43,-292.22C2231.59,-324.66 2525.06,-400.12 2717,-280.56 2754.27,-257.34 2767.59,-201.03 2771.55,-178.31"/>
<polygon fill="midnightblue" stroke="midnightblue" points="2129.36,-288.84 2118.77,-289.13 2127.22,-295.51 2129.36,-288.84"/>
</g>
<!-- Node35 -->
<g id="node35" class="node">
<title>Node35</title>
<g id="a_node35"><a xlink:href="classdrain_1_1image_1_1AccumulationMethod.html" target="_top" xlink:title="Function for accumulating data: maximum, average, weighted average etc.">
<polygon fill="white" stroke="black" points="2277,-162.06 2277,-181.06 2397,-181.06 2397,-162.06 2277,-162.06"/>
<text text-anchor="middle" x="2337" y="-169.06" font-family="Helvetica,sans-Serif" font-size="10.00">AccumulationMethod</text>
</a>
</g>
</g>
<!-- Node2&#45;&gt;Node35 -->
<g id="edge43" class="edge">
<title>Node2&#45;&gt;Node35</title>
<path fill="none" stroke="#9a32cd" stroke-dasharray="5,2" d="M2122.16,-265.82C2172.57,-243.6 2270.76,-200.32 2314.31,-181.12"/>
<polygon fill="#9a32cd" stroke="#9a32cd" points="2120.48,-262.74 2112.74,-269.97 2123.3,-269.14 2120.48,-262.74"/>
<text text-anchor="middle" x="2211" y="-251.56" font-family="Helvetica,sans-Serif" font-size="10.00"> accumulationArray</text>
</g>
<!-- Node3 -->
<g id="node3" class="node">
<title>Node3</title>
<g id="a_node3"><a xlink:href="classdrain_1_1image_1_1ImageT.html" target="_top" xlink:title=" ">
<polygon fill="white" stroke="black" points="1825.5,-270.06 1825.5,-289.06 1961.5,-289.06 1961.5,-270.06 1825.5,-270.06"/>
<text text-anchor="middle" x="1893.5" y="-277.06" font-family="Helvetica,sans-Serif" font-size="10.00">ImageT&lt; unsigned int &gt;</text>
</a>
</g>
</g>
<!-- Node3&#45;&gt;Node2 -->
<g id="edge2" class="edge">
<title>Node3&#45;&gt;Node2</title>
<path fill="none" stroke="#9a32cd" stroke-dasharray="5,2" d="M1971.95,-279.56C1993.06,-279.56 2015.47,-279.56 2034.97,-279.56"/>
<polygon fill="#9a32cd" stroke="#9a32cd" points="1971.71,-276.06 1961.71,-279.56 1971.71,-283.06 1971.71,-276.06"/>
<text text-anchor="middle" x="2000" y="-282.56" font-family="Helvetica,sans-Serif" font-size="10.00"> count</text>
</g>
<!-- Node4 -->
<g id="node4" class="node">
<title>Node4</title>
<g id="a_node4"><a xlink:href="classdrain_1_1image_1_1ModifiableImage.html" target="_top" xlink:title="Image with modifiable geometry.">
<polygon fill="white" stroke="black" points="1651,-308.06 1651,-327.06 1750,-327.06 1750,-308.06 1651,-308.06"/>
<text text-anchor="middle" x="1700.5" y="-315.06" font-family="Helvetica,sans-Serif" font-size="10.00">ModifiableImage</text>
</a>
</g>
</g>
<!-- Node4&#45;&gt;Node3 -->
<g id="edge3" class="edge">
<title>Node4&#45;&gt;Node3</title>
<path fill="none" stroke="midnightblue" d="M1759.85,-305.95C1787.02,-300.54 1818.93,-294.19 1844.65,-289.08"/>
<polygon fill="midnightblue" stroke="midnightblue" points="1758.82,-302.58 1749.7,-307.97 1760.19,-309.45 1758.82,-302.58"/>
</g>
<!-- Node29 -->
<g id="node29" class="node">
<title>Node29</title>
<g id="a_node29"><a xlink:href="classdrain_1_1image_1_1ImageT.html" target="_top" xlink:title=" ">
<polygon fill="white" stroke="black" points="1839,-308.06 1839,-327.06 1948,-327.06 1948,-308.06 1839,-308.06"/>
<text text-anchor="middle" x="1893.5" y="-315.06" font-family="Helvetica,sans-Serif" font-size="10.00">ImageT&lt; double &gt;</text>
</a>
</g>
</g>
<!-- Node4&#45;&gt;Node29 -->
<g id="edge31" class="edge">
<title>Node4&#45;&gt;Node29</title>
<path fill="none" stroke="midnightblue" d="M1760.3,-317.56C1785.36,-317.56 1814.39,-317.56 1838.85,-317.56"/>
<polygon fill="midnightblue" stroke="midnightblue" points="1760.19,-314.06 1750.19,-317.56 1760.19,-321.06 1760.19,-314.06"/>
</g>
<!-- Node5 -->
<g id="node5" class="node">
<title>Node5</title>
<g id="a_node5"><a xlink:href="classdrain_1_1image_1_1MultiChannel.html" target="_top" xlink:title="Multi&#45;channel ImageFrame.">
<polygon fill="white" stroke="black" points="1491.5,-349.06 1491.5,-368.06 1572.5,-368.06 1572.5,-349.06 1491.5,-349.06"/>
<text text-anchor="middle" x="1532" y="-356.06" font-family="Helvetica,sans-Serif" font-size="10.00">MultiChannel</text>
</a>
</g>
</g>
<!-- Node5&#45;&gt;Node4 -->
<g id="edge4" class="edge">
<title>Node5&#45;&gt;Node4</title>
<path fill="none" stroke="midnightblue" d="M1581.37,-346.65C1606.63,-340.43 1637.13,-332.92 1660.8,-327.09"/>
<polygon fill="midnightblue" stroke="midnightblue" points="1580.49,-343.26 1571.62,-349.05 1582.16,-350.06 1580.49,-343.26"/>
</g>
<!-- Node6 -->
<g id="node6" class="node">
<title>Node6</title>
<g id="a_node6"><a xlink:href="classdrain_1_1image_1_1ImageFrame.html" target="_top" xlink:title="Image with static geometry.">
<polygon fill="white" stroke="black" points="1370,-360.06 1370,-379.06 1448,-379.06 1448,-360.06 1370,-360.06"/>
<text text-anchor="middle" x="1409" y="-367.06" font-family="Helvetica,sans-Serif" font-size="10.00">ImageFrame</text>
</a>
</g>
</g>
<!-- Node6&#45;&gt;Node5 -->
<g id="edge5" class="edge">
<title>Node6&#45;&gt;Node5</title>
<path fill="none" stroke="midnightblue" d="M1458.51,-365.15C1469.39,-364.16 1480.82,-363.12 1491.3,-362.17"/>
<polygon fill="midnightblue" stroke="midnightblue" points="1457.93,-361.69 1448.29,-366.08 1458.56,-368.66 1457.93,-361.69"/>
</g>
<!-- Node7 -->
<g id="node7" class="node">
<title>Node7</title>
<g id="a_node7"><a xlink:href="classdrain_1_1image_1_1ImageLike.html" target="_top" xlink:title="A base class for images.">
<polygon fill="white" stroke="black" points="1184,-325.06 1184,-344.06 1251,-344.06 1251,-325.06 1184,-325.06"/>
<text text-anchor="middle" x="1217.5" y="-332.06" font-family="Helvetica,sans-Serif" font-size="10.00">ImageLike</text>
</a>
</g>
</g>
<!-- Node7&#45;&gt;Node6 -->
<g id="edge6" class="edge">
<title>Node7&#45;&gt;Node6</title>
<path fill="none" stroke="midnightblue" d="M1261.23,-342.45C1293.91,-348.49 1338.54,-356.73 1369.99,-362.54"/>
<polygon fill="midnightblue" stroke="midnightblue" points="1261.55,-338.95 1251.08,-340.57 1260.27,-345.83 1261.55,-338.95"/>
</g>
<!-- Node8 -->
<g id="node8" class="node">
<title>Node8</title>
<g id="a_node8"><a xlink:href="classdrain_1_1image_1_1ImageConf.html" target="_top" xlink:title="Struct for image (excluding data)">
<polygon fill="white" stroke="black" points="926.5,-320.06 926.5,-339.06 996.5,-339.06 996.5,-320.06 926.5,-320.06"/>
<text text-anchor="middle" x="961.5" y="-327.06" font-family="Helvetica,sans-Serif" font-size="10.00">ImageConf</text>
</a>
</g>
</g>
<!-- Node8&#45;&gt;Node7 -->
<g id="edge7" class="edge">
<title>Node8&#45;&gt;Node7</title>
<path fill="none" stroke="#9a32cd" stroke-dasharray="5,2" d="M1007.06,-330.44C1057.67,-331.43 1139.02,-333.03 1183.99,-333.92"/>
<polygon fill="#9a32cd" stroke="#9a32cd" points="1006.82,-326.93 996.76,-330.23 1006.68,-333.93 1006.82,-326.93"/>
<text text-anchor="middle" x="1102.5" y="-336.56" font-family="Helvetica,sans-Serif" font-size="10.00"> conf</text>
</g>
<!-- Node9 -->
<g id="node9" class="node">
<title>Node9</title>
<g id="a_node9"><a xlink:href="classdrain_1_1image_1_1Encoding.html" target="_top" xlink:title=" ">
<polygon fill="white" stroke="black" points="646,-359.06 646,-378.06 707,-378.06 707,-359.06 646,-359.06"/>
<text text-anchor="middle" x="676.5" y="-366.06" font-family="Helvetica,sans-Serif" font-size="10.00">Encoding</text>
</a>
</g>
</g>
<!-- Node9&#45;&gt;Node8 -->
<g id="edge8" class="edge">
<title>Node9&#45;&gt;Node8</title>
<path fill="none" stroke="midnightblue" d="M717.47,-363.05C773.33,-355.35 873.79,-341.51 926.34,-334.27"/>
<polygon fill="midnightblue" stroke="midnightblue" points="716.68,-359.63 707.25,-364.46 717.64,-366.56 716.68,-359.63"/>
</g>
<!-- Node10 -->
<g id="node10" class="node">
<title>Node10</title>
<g id="a_node10"><a xlink:href="classdrain_1_1ValueScaling.html" target="_top" xlink:title="Linear scaling and physical range for image intensities.">
<polygon fill="white" stroke="black" points="404,-384.06 404,-403.06 484,-403.06 484,-384.06 404,-384.06"/>
<text text-anchor="middle" x="444" y="-391.06" font-family="Helvetica,sans-Serif" font-size="10.00">ValueScaling</text>
</a>
</g>
</g>
<!-- Node10&#45;&gt;Node9 -->
<g id="edge9" class="edge">
<title>Node10&#45;&gt;Node9</title>
<path fill="none" stroke="midnightblue" d="M494.15,-388.23C540.16,-383.24 607.4,-375.94 645.76,-371.78"/>
<polygon fill="midnightblue" stroke="midnightblue" points="493.67,-384.76 484.1,-389.32 494.42,-391.72 493.67,-384.76"/>
</g>
<!-- Node11 -->
<g id="node11" class="node">
<title>Node11</title>
<g id="a_node11"><a xlink:href="classdrain_1_1UniTuple.html" target="_top" xlink:title=" ">
<polygon fill="white" stroke="black" points="163,-376.06 163,-395.06 289,-395.06 289,-376.06 163,-376.06"/>
<text text-anchor="middle" x="226" y="-383.06" font-family="Helvetica,sans-Serif" font-size="10.00">UniTuple&lt; double, 4 &gt;</text>
</a>
</g>
</g>
<!-- Node11&#45;&gt;Node10 -->
<g id="edge10" class="edge">
<title>Node11&#45;&gt;Node10</title>
<path fill="none" stroke="midnightblue" d="M299.36,-388.24C334.32,-389.53 374.9,-391.04 403.99,-392.11"/>
<polygon fill="midnightblue" stroke="midnightblue" points="299.31,-384.73 289.19,-387.86 299.05,-391.73 299.31,-384.73"/>
</g>
<!-- Node12 -->
<g id="node12" class="node">
<title>Node12</title>
<g id="a_node12"><a xlink:href="classdrain_1_1Range.html" target="_top" xlink:title=" ">
<polygon fill="white" stroke="black" points="174.5,-414.06 174.5,-433.06 277.5,-433.06 277.5,-414.06 174.5,-414.06"/>
<text text-anchor="middle" x="226" y="-421.06" font-family="Helvetica,sans-Serif" font-size="10.00">Range&lt; double &gt;</text>
</a>
</g>
</g>
<!-- Node12&#45;&gt;Node10 -->
<g id="edge11" class="edge">
<title>Node12&#45;&gt;Node10</title>
<path fill="none" stroke="#9a32cd" stroke-dasharray="5,2" d="M287.86,-415.11C325.03,-409.94 371.46,-403.49 403.8,-399"/>
<polygon fill="#9a32cd" stroke="#9a32cd" points="287.07,-411.68 277.64,-416.52 288.03,-418.62 287.07,-411.68"/>
<text text-anchor="middle" x="336" y="-414.56" font-family="Helvetica,sans-Serif" font-size="10.00"> physRange</text>
</g>
<!-- Node13 -->
<g id="node13" class="node">
<title>Node13</title>
<g id="a_node13"><a xlink:href="classdrain_1_1UniTuple.html" target="_top" xlink:title=" ">
<polygon fill="white" stroke="black" points="0,-414.06 0,-433.06 126,-433.06 126,-414.06 0,-414.06"/>
<text text-anchor="middle" x="63" y="-421.06" font-family="Helvetica,sans-Serif" font-size="10.00">UniTuple&lt; double, 2 &gt;</text>
</a>
</g>
</g>
<!-- Node13&#45;&gt;Node12 -->
<g id="edge12" class="edge">
<title>Node13&#45;&gt;Node12</title>
<path fill="none" stroke="midnightblue" d="M136.44,-423.56C149.24,-423.56 162.33,-423.56 174.37,-423.56"/>
<polygon fill="midnightblue" stroke="midnightblue" points="136.25,-420.06 126.25,-423.56 136.25,-427.06 136.25,-420.06"/>
</g>
<!-- Node14 -->
<g id="node14" class="node">
<title>Node14</title>
<g id="a_node14"><a xlink:href="classdrain_1_1Caster.html" target="_top" xlink:title=" ">
<polygon fill="white" stroke="black" points="420,-426.06 420,-445.06 468,-445.06 468,-426.06 420,-426.06"/>
<text text-anchor="middle" x="444" y="-433.06" font-family="Helvetica,sans-Serif" font-size="10.00">Caster</text>
</a>
</g>
</g>
<!-- Node14&#45;&gt;Node9 -->
<g id="edge13" class="edge">
<title>Node14&#45;&gt;Node9</title>
<path fill="none" stroke="#9a32cd" stroke-dasharray="5,2" d="M477.67,-422.82C491.56,-417.56 507.99,-411.53 523,-406.56 551.57,-397.09 558.83,-394.98 588,-387.56 607.13,-382.69 628.82,-377.98 645.81,-374.46"/>
<polygon fill="#9a32cd" stroke="#9a32cd" points="476.15,-419.65 468.05,-426.49 478.65,-426.19 476.15,-419.65"/>
<text text-anchor="middle" x="546.5" y="-409.56" font-family="Helvetica,sans-Serif" font-size="10.00"> caster</text>
</g>
<!-- Node25 -->
<g id="node25" class="node">
<title>Node25</title>
<g id="a_node25"><a xlink:href="classdrain_1_1Castable.html" target="_top" xlink:title=" ">
<polygon fill="white" stroke="black" points="647,-397.06 647,-416.06 706,-416.06 706,-397.06 647,-397.06"/>
<text text-anchor="middle" x="676.5" y="-404.06" font-family="Helvetica,sans-Serif" font-size="10.00">Castable</text>
</a>
</g>
</g>
<!-- Node14&#45;&gt;Node25 -->
<g id="edge26" class="edge">
<title>Node14&#45;&gt;Node25</title>
<path fill="none" stroke="#9a32cd" stroke-dasharray="5,2" d="M478.57,-431.33C523.9,-425.63 603.94,-415.56 646.69,-410.18"/>
<polygon fill="#9a32cd" stroke="#9a32cd" points="477.85,-427.9 468.37,-432.62 478.73,-434.84 477.85,-427.9"/>
<text text-anchor="middle" x="546.5" y="-427.56" font-family="Helvetica,sans-Serif" font-size="10.00"> caster</text>
</g>
<!-- Node15 -->
<g id="node15" class="node">
<title>Node15</title>
<g id="a_node15"><a xlink:href="classdrain_1_1image_1_1Geometry.html" target="_top" xlink:title=" ">
<polygon fill="white" stroke="black" points="644,-310.06 644,-329.06 709,-329.06 709,-310.06 644,-310.06"/>
<text text-anchor="middle" x="676.5" y="-317.06" font-family="Helvetica,sans-Serif" font-size="10.00">Geometry</text>
</a>
</g>
</g>
<!-- Node15&#45;&gt;Node8 -->
<g id="edge14" class="edge">
<title>Node15&#45;&gt;Node8</title>
<path fill="none" stroke="midnightblue" d="M719.46,-321.04C775.72,-323.03 874.52,-326.52 926.43,-328.35"/>
<polygon fill="midnightblue" stroke="midnightblue" points="719.26,-317.53 709.14,-320.68 719.01,-324.53 719.26,-317.53"/>
</g>
<!-- Node16 -->
<g id="node16" class="node">
<title>Node16</title>
<g id="a_node16"><a xlink:href="classdrain_1_1UniTuple.html" target="_top" xlink:title=" ">
<polygon fill="white" stroke="black" points="383,-270.06 383,-289.06 505,-289.06 505,-270.06 383,-270.06"/>
<text text-anchor="middle" x="444" y="-277.06" font-family="Helvetica,sans-Serif" font-size="10.00">UniTuple&lt; size_t, 4 &gt;</text>
</a>
</g>
</g>
<!-- Node16&#45;&gt;Node15 -->
<g id="edge15" class="edge">
<title>Node16&#45;&gt;Node15</title>
<path fill="none" stroke="midnightblue" d="M509.9,-290.82C553.6,-298.4 609.34,-308.08 643.71,-314.04"/>
<polygon fill="midnightblue" stroke="midnightblue" points="510.37,-287.35 499.92,-289.09 509.17,-294.25 510.37,-287.35"/>
</g>
<!-- Node17 -->
<g id="node17" class="node">
<title>Node17</title>
<g id="a_node17"><a xlink:href="classdrain_1_1Frame2D.html" target="_top" xlink:title=" ">
<polygon fill="white" stroke="black" points="388,-308.06 388,-327.06 500,-327.06 500,-308.06 388,-308.06"/>
<text text-anchor="middle" x="444" y="-315.06" font-family="Helvetica,sans-Serif" font-size="10.00">Frame2D&lt; size_t &gt;</text>
</a>
</g>
</g>
<!-- Node17&#45;&gt;Node15 -->
<g id="edge16" class="edge">
<title>Node17&#45;&gt;Node15</title>
<path fill="none" stroke="#9a32cd" stroke-dasharray="5,2" d="M510.73,-315.75C514.88,-315.68 519,-315.61 523,-315.56 543.89,-315.29 549.11,-315.16 570,-315.56 594.74,-316.03 622.73,-317.11 643.65,-318.04"/>
<polygon fill="#9a32cd" stroke="#9a32cd" points="510.32,-312.26 500.39,-315.96 510.46,-319.26 510.32,-312.26"/>
<text text-anchor="middle" x="546.5" y="-318.56" font-family="Helvetica,sans-Serif" font-size="10.00"> area</text>
</g>
<!-- Node18 -->
<g id="node18" class="node">
<title>Node18</title>
<g id="a_node18"><a xlink:href="classdrain_1_1UniTuple.html" target="_top" xlink:title=" ">
<polygon fill="white" stroke="black" points="165,-332.06 165,-351.06 287,-351.06 287,-332.06 165,-332.06"/>
<text text-anchor="middle" x="226" y="-339.06" font-family="Helvetica,sans-Serif" font-size="10.00">UniTuple&lt; size_t, 2 &gt;</text>
</a>
</g>
</g>
<!-- Node18&#45;&gt;Node17 -->
<g id="edge17" class="edge">
<title>Node18&#45;&gt;Node17</title>
<path fill="none" stroke="midnightblue" d="M297.37,-333.74C326.77,-330.47 360.42,-326.73 387.96,-323.67"/>
<polygon fill="midnightblue" stroke="midnightblue" points="296.72,-330.29 287.17,-334.87 297.49,-337.25 296.72,-330.29"/>
</g>
<!-- Node19 -->
<g id="node19" class="node">
<title>Node19</title>
<g id="a_node19"><a xlink:href="classdrain_1_1image_1_1ChannelGeometry.html" target="_top" xlink:title=" ">
<polygon fill="white" stroke="black" points="391.5,-346.06 391.5,-365.06 496.5,-365.06 496.5,-346.06 391.5,-346.06"/>
<text text-anchor="middle" x="444" y="-353.06" font-family="Helvetica,sans-Serif" font-size="10.00">ChannelGeometry</text>
</a>
</g>
</g>
<!-- Node18&#45;&gt;Node19 -->
<g id="edge19" class="edge">
<title>Node18&#45;&gt;Node19</title>
<path fill="none" stroke="midnightblue" d="M297.34,-346.12C327.92,-348.1 363.09,-350.38 391.22,-352.2"/>
<polygon fill="midnightblue" stroke="midnightblue" points="297.37,-342.61 287.17,-345.46 296.92,-349.6 297.37,-342.61"/>
</g>
<!-- Node19&#45;&gt;Node15 -->
<g id="edge18" class="edge">
<title>Node19&#45;&gt;Node15</title>
<path fill="none" stroke="#9a32cd" stroke-dasharray="5,2" d="M506.79,-345.91C550.98,-339.01 608.62,-330 643.81,-324.51"/>
<polygon fill="#9a32cd" stroke="#9a32cd" points="506.07,-342.48 496.73,-347.48 507.15,-349.39 506.07,-342.48"/>
<text text-anchor="middle" x="546.5" y="-346.56" font-family="Helvetica,sans-Serif" font-size="10.00"> channels</text>
</g>
<!-- Node20 -->
<g id="node20" class="node">
<title>Node20</title>
<g id="a_node20"><a xlink:href="classdrain_1_1image_1_1CoordinatePolicy.html" target="_top" xlink:title="Policies for coordinate underflows and overflows.">
<polygon fill="white" stroke="black" points="627,-225.06 627,-244.06 726,-244.06 726,-225.06 627,-225.06"/>
<text text-anchor="middle" x="676.5" y="-232.06" font-family="Helvetica,sans-Serif" font-size="10.00">CoordinatePolicy</text>
</a>
</g>
</g>
<!-- Node20&#45;&gt;Node8 -->
<g id="edge20" class="edge">
<title>Node20&#45;&gt;Node8</title>
<path fill="none" stroke="#9a32cd" stroke-dasharray="5,2" d="M715.74,-247.39C773.3,-266.72 880.93,-302.85 932.09,-320.02"/>
<polygon fill="#9a32cd" stroke="#9a32cd" points="716.52,-243.97 705.93,-244.1 714.3,-250.6 716.52,-243.97"/>
<text text-anchor="middle" x="825.5" y="-299.56" font-family="Helvetica,sans-Serif" font-size="10.00"> coordinatePolicy</text>
</g>
<!-- Node30 -->
<g id="node30" class="node">
<title>Node30</title>
<g id="a_node30"><a xlink:href="classdrain_1_1image_1_1CoordinateHandler2D.html" target="_top" xlink:title=" ">
<polygon fill="white" stroke="black" points="900.5,-203.06 900.5,-222.06 1022.5,-222.06 1022.5,-203.06 900.5,-203.06"/>
<text text-anchor="middle" x="961.5" y="-210.06" font-family="Helvetica,sans-Serif" font-size="10.00">CoordinateHandler2D</text>
</a>
</g>
</g>
<!-- Node20&#45;&gt;Node30 -->
<g id="edge37" class="edge">
<title>Node20&#45;&gt;Node30</title>
<path fill="none" stroke="#9a32cd" stroke-dasharray="5,2" d="M736.4,-229.98C784.46,-226.24 852.08,-220.99 900.45,-217.23"/>
<polygon fill="#9a32cd" stroke="#9a32cd" points="735.85,-226.51 726.15,-230.78 736.39,-233.49 735.85,-226.51"/>
<text text-anchor="middle" x="825.5" y="-229.56" font-family="Helvetica,sans-Serif" font-size="10.00"> policy</text>
</g>
<!-- Node21 -->
<g id="node21" class="node">
<title>Node21</title>
<g id="a_node21"><a xlink:href="classdrain_1_1UniTuple.html" target="_top" xlink:title=" ">
<polygon fill="white" stroke="black" points="385.5,-220.56 385.5,-250.56 502.5,-250.56 502.5,-220.56 385.5,-220.56"/>
<text text-anchor="start" x="393.5" y="-238.56" font-family="Helvetica,sans-Serif" font-size="10.00">UniTuple&lt; coord_pol</text>
<text text-anchor="middle" x="444" y="-227.56" font-family="Helvetica,sans-Serif" font-size="10.00">_t, 4 &gt;</text>
</a>
</g>
</g>
<!-- Node21&#45;&gt;Node20 -->
<g id="edge21" class="edge">
<title>Node21&#45;&gt;Node20</title>
<path fill="none" stroke="midnightblue" d="M512.67,-235.26C549.28,-235.11 593.66,-234.91 626.84,-234.77"/>
<polygon fill="midnightblue" stroke="midnightblue" points="512.55,-231.76 502.57,-235.31 512.59,-238.76 512.55,-231.76"/>
</g>
<!-- Node22 -->
<g id="node22" class="node">
<title>Node22</title>
<g id="a_node22"><a xlink:href="classdrain_1_1Dictionary2.html" target="_top" xlink:title="Two&#45;way mapping between strings and objects of template class T.">
<polygon fill="white" stroke="black" points="386.5,-182.06 386.5,-201.06 501.5,-201.06 501.5,-182.06 386.5,-182.06"/>
<text text-anchor="middle" x="444" y="-189.06" font-family="Helvetica,sans-Serif" font-size="10.00">Dictionary2&lt; K, V &gt;</text>
</a>
</g>
</g>
<!-- Node22&#45;&gt;Node20 -->
<g id="edge22" class="edge">
<title>Node22&#45;&gt;Node20</title>
<path fill="none" stroke="#9a32cd" stroke-dasharray="5,2" d="M506.03,-202.94C543.8,-209.99 591.64,-218.91 626.85,-225.48"/>
<polygon fill="#9a32cd" stroke="#9a32cd" points="506.63,-199.49 496.16,-201.1 505.34,-206.38 506.63,-199.49"/>
<text text-anchor="middle" x="546.5" y="-217.56" font-family="Helvetica,sans-Serif" font-size="10.00"> dict</text>
</g>
<!-- Node23 -->
<g id="node23" class="node">
<title>Node23</title>
<g id="a_node23"><a xlink:title=" ">
<polygon fill="white" stroke="#bfbfbf" points="174,-176.56 174,-206.56 278,-206.56 278,-176.56 174,-176.56"/>
<text text-anchor="start" x="182" y="-194.56" font-family="Helvetica,sans-Serif" font-size="10.00">list&lt; std::pair&lt; K,</text>
<text text-anchor="middle" x="226" y="-183.56" font-family="Helvetica,sans-Serif" font-size="10.00"> V &gt; &gt;</text>
</a>
</g>
</g>
<!-- Node23&#45;&gt;Node22 -->
<g id="edge23" class="edge">
<title>Node23&#45;&gt;Node22</title>
<path fill="none" stroke="midnightblue" d="M288.39,-191.56C319.23,-191.56 356.35,-191.56 386.48,-191.56"/>
<polygon fill="midnightblue" stroke="midnightblue" points="288.19,-188.06 278.19,-191.56 288.19,-195.06 288.19,-188.06"/>
</g>
<!-- Node24 -->
<g id="node24" class="node">
<title>Node24</title>
<g id="a_node24"><a xlink:href="classdrain_1_1CastableIterator.html" target="_top" xlink:title=" ">
<polygon fill="white" stroke="black" points="1055,-375.06 1055,-394.06 1150,-394.06 1150,-375.06 1055,-375.06"/>
<text text-anchor="middle" x="1102.5" y="-382.06" font-family="Helvetica,sans-Serif" font-size="10.00">CastableIterator</text>
</a>
</g>
</g>
<!-- Node24&#45;&gt;Node6 -->
<g id="edge24" class="edge">
<title>Node24&#45;&gt;Node6</title>
<path fill="none" stroke="#9a32cd" stroke-dasharray="5,2" d="M1160.32,-381.76C1221.4,-378.75 1316.83,-374.05 1369.62,-371.45"/>
<polygon fill="#9a32cd" stroke="#9a32cd" points="1159.89,-378.28 1150.08,-382.26 1160.24,-385.27 1159.89,-378.28"/>
<text text-anchor="middle" x="1217.5" y="-394.56" font-family="Helvetica,sans-Serif" font-size="10.00"> segmentEnd</text>
<text text-anchor="middle" x="1217.5" y="-383.56" font-family="Helvetica,sans-Serif" font-size="10.00">segmentBegin</text>
</g>
<!-- Node25&#45;&gt;Node24 -->
<g id="edge25" class="edge">
<title>Node25&#45;&gt;Node24</title>
<path fill="none" stroke="darkgreen" d="M716.7,-404.52C795.08,-400.46 970.78,-391.34 1054.89,-386.98"/>
<polygon fill="darkgreen" stroke="darkgreen" points="716.12,-401.05 706.31,-405.06 716.48,-408.04 716.12,-401.05"/>
</g>
<!-- Node26 -->
<g id="node26" class="node">
<title>Node26</title>
<g id="a_node26"><a xlink:href="classdrain_1_1FlexVariableMap.html" target="_top" xlink:title="A map of FlexVariable:s.">
<polygon fill="white" stroke="black" points="1168,-426.06 1168,-445.06 1267,-445.06 1267,-426.06 1168,-426.06"/>
<text text-anchor="middle" x="1217.5" y="-433.06" font-family="Helvetica,sans-Serif" font-size="10.00">FlexVariableMap</text>
</a>
</g>
</g>
<!-- Node26&#45;&gt;Node6 -->
<g id="edge27" class="edge">
<title>Node26&#45;&gt;Node6</title>
<path fill="none" stroke="#9a32cd" stroke-dasharray="5,2" d="M1267.17,-423.42C1292.75,-416.51 1324.44,-407.14 1352,-396.56 1365.1,-391.53 1379.33,-384.64 1390.18,-379.09"/>
<polygon fill="#9a32cd" stroke="#9a32cd" points="1266.09,-420.08 1257.33,-426.03 1267.89,-426.85 1266.09,-420.08"/>
<text text-anchor="middle" x="1318.5" y="-431.56" font-family="Helvetica,sans-Serif" font-size="10.00"> propertiesPtr</text>
<text text-anchor="middle" x="1318.5" y="-420.56" font-family="Helvetica,sans-Serif" font-size="10.00">properties</text>
</g>
<!-- Node27 -->
<g id="node27" class="node">
<title>Node27</title>
<g id="a_node27"><a xlink:href="classdrain_1_1SmartMap.html" target="_top" xlink:title=" ">
<polygon fill="white" stroke="black" points="886,-430.06 886,-449.06 1037,-449.06 1037,-430.06 886,-430.06"/>
<text text-anchor="middle" x="961.5" y="-437.06" font-family="Helvetica,sans-Serif" font-size="10.00">SmartMap&lt; FlexVariable &gt;</text>
</a>
</g>
</g>
<!-- Node27&#45;&gt;Node26 -->
<g id="edge28" class="edge">
<title>Node27&#45;&gt;Node26</title>
<path fill="none" stroke="midnightblue" d="M1047.37,-438.22C1087.43,-437.59 1133.79,-436.86 1167.83,-436.32"/>
<polygon fill="midnightblue" stroke="midnightblue" points="1047.28,-434.72 1037.33,-438.38 1047.39,-441.72 1047.28,-434.72"/>
</g>
<!-- Node28 -->
<g id="node28" class="node">
<title>Node28</title>
<g id="a_node28"><a xlink:title=" ">
<polygon fill="white" stroke="#bfbfbf" points="588,-435.06 588,-454.06 765,-454.06 765,-435.06 588,-435.06"/>
<text text-anchor="middle" x="676.5" y="-442.06" font-family="Helvetica,sans-Serif" font-size="10.00">map&lt; std::string, FlexVariable &gt;</text>
</a>
</g>
</g>
<!-- Node28&#45;&gt;Node27 -->
<g id="edge29" class="edge">
<title>Node28&#45;&gt;Node27</title>
<path fill="none" stroke="midnightblue" d="M775.2,-442.83C811.41,-442.19 851.86,-441.48 885.71,-440.88"/>
<polygon fill="midnightblue" stroke="midnightblue" points="775.04,-439.33 765.1,-443.01 775.17,-446.33 775.04,-439.33"/>
</g>
<!-- Node29&#45;&gt;Node2 -->
<g id="edge30" class="edge">
<title>Node29&#45;&gt;Node2</title>
<path fill="none" stroke="#9a32cd" stroke-dasharray="5,2" d="M1953.31,-306.07C1981.06,-300.65 2013.79,-294.25 2040.15,-289.1"/>
<polygon fill="#9a32cd" stroke="#9a32cd" points="1952.47,-302.67 1943.33,-308.02 1953.82,-309.54 1952.47,-302.67"/>
<text text-anchor="middle" x="2000" y="-325.56" font-family="Helvetica,sans-Serif" font-size="10.00"> data2</text>
<text text-anchor="middle" x="2000" y="-314.56" font-family="Helvetica,sans-Serif" font-size="10.00">weight</text>
<text text-anchor="middle" x="2000" y="-303.56" font-family="Helvetica,sans-Serif" font-size="10.00">data</text>
</g>
<!-- Node30&#45;&gt;Node2 -->
<g id="edge32" class="edge">
<title>Node30&#45;&gt;Node2</title>
<path fill="none" stroke="#9a32cd" stroke-dasharray="5,2" d="M1032.97,-219.38C1083.91,-223.73 1154.39,-228.56 1216.5,-228.56 1216.5,-228.56 1216.5,-228.56 1894.5,-228.56 1959.08,-228.56 2031.9,-255.19 2067.32,-269.97"/>
<polygon fill="#9a32cd" stroke="#9a32cd" points="1033,-215.87 1022.73,-218.49 1032.39,-222.85 1033,-215.87"/>
<text text-anchor="middle" x="1532" y="-231.56" font-family="Helvetica,sans-Serif" font-size="10.00"> coordinateHandler</text>
</g>
<!-- Node31 -->
<g id="node31" class="node">
<title>Node31</title>
<g id="a_node31"><a xlink:href="classdrain_1_1Range.html" target="_top" xlink:title=" ">
<polygon fill="white" stroke="black" points="635,-180.06 635,-199.06 718,-199.06 718,-180.06 635,-180.06"/>
<text text-anchor="middle" x="676.5" y="-187.06" font-family="Helvetica,sans-Serif" font-size="10.00">Range&lt; int &gt;</text>
</a>
</g>
</g>
<!-- Node31&#45;&gt;Node30 -->
<g id="edge33" class="edge">
<title>Node31&#45;&gt;Node30</title>
<path fill="none" stroke="#9a32cd" stroke-dasharray="5,2" d="M728.55,-188.61C767,-188.44 820.95,-189.4 868,-194.56 884.91,-196.41 903.35,-199.73 919.28,-203.02"/>
<polygon fill="#9a32cd" stroke="#9a32cd" points="728.11,-185.11 718.14,-188.68 728.16,-192.11 728.11,-185.11"/>
<text text-anchor="middle" x="825.5" y="-208.56" font-family="Helvetica,sans-Serif" font-size="10.00"> yRange</text>
<text text-anchor="middle" x="825.5" y="-197.56" font-family="Helvetica,sans-Serif" font-size="10.00">xRange</text>
</g>
<!-- Node32 -->
<g id="node32" class="node">
<title>Node32</title>
<g id="a_node32"><a xlink:href="classdrain_1_1UniTuple.html" target="_top" xlink:title=" ">
<polygon fill="white" stroke="black" points="391,-143.06 391,-162.06 497,-162.06 497,-143.06 391,-143.06"/>
<text text-anchor="middle" x="444" y="-150.06" font-family="Helvetica,sans-Serif" font-size="10.00">UniTuple&lt; int, 2 &gt;</text>
</a>
</g>
</g>
<!-- Node32&#45;&gt;Node31 -->
<g id="edge34" class="edge">
<title>Node32&#45;&gt;Node31</title>
<path fill="none" stroke="midnightblue" d="M507.06,-162.52C547.6,-169.03 599.39,-177.34 634.77,-183.02"/>
<polygon fill="midnightblue" stroke="midnightblue" points="507.44,-159.04 497.02,-160.91 506.33,-165.95 507.44,-159.04"/>
</g>
<!-- Node33 -->
<g id="node33" class="node">
<title>Node33</title>
<g id="a_node33"><a xlink:href="classdrain_1_1Frame2D.html" target="_top" xlink:title=" ">
<polygon fill="white" stroke="black" points="628.5,-142.06 628.5,-161.06 724.5,-161.06 724.5,-142.06 628.5,-142.06"/>
<text text-anchor="middle" x="676.5" y="-149.06" font-family="Helvetica,sans-Serif" font-size="10.00">Frame2D&lt; int &gt;</text>
</a>
</g>
</g>
<!-- Node32&#45;&gt;Node33 -->
<g id="edge36" class="edge">
<title>Node32&#45;&gt;Node33</title>
<path fill="none" stroke="midnightblue" d="M507.48,-152.29C545.57,-152.12 593.48,-151.91 628.38,-151.76"/>
<polygon fill="midnightblue" stroke="midnightblue" points="507,-148.79 497.02,-152.33 507.03,-155.79 507,-148.79"/>
</g>
<!-- Node33&#45;&gt;Node30 -->
<g id="edge35" class="edge">
<title>Node33&#45;&gt;Node30</title>
<path fill="none" stroke="#9a32cd" stroke-dasharray="5,2" d="M735.15,-154.47C773.33,-157.38 824.24,-163.15 868,-174.56 894.38,-181.43 923.19,-194.17 941.53,-202.99"/>
<polygon fill="#9a32cd" stroke="#9a32cd" points="734.96,-150.94 724.74,-153.72 734.46,-157.93 734.96,-150.94"/>
<text text-anchor="middle" x="825.5" y="-177.56" font-family="Helvetica,sans-Serif" font-size="10.00"> area</text>
</g>
<!-- Node34 -->
<g id="node34" class="node">
<title>Node34</title>
<g id="a_node34"><a xlink:href="classdrain_1_1image_1_1WeightedAverageMethod.html" target="_top" xlink:title=" ">
<polygon fill="white" stroke="black" points="2434,-139.06 2434,-158.06 2574,-158.06 2574,-139.06 2434,-139.06"/>
<text text-anchor="middle" x="2504" y="-146.06" font-family="Helvetica,sans-Serif" font-size="10.00">WeightedAverageMethod</text>
</a>
</g>
</g>
<!-- Node34&#45;&gt;Node1 -->
<g id="edge38" class="edge">
<title>Node34&#45;&gt;Node1</title>
<path fill="none" stroke="#9a32cd" stroke-dasharray="5,2" d="M2584.63,-149.09C2624.49,-150.08 2673.42,-152.38 2717,-157.56 2722.8,-158.25 2728.91,-159.2 2734.87,-160.27"/>
<polygon fill="#9a32cd" stroke="#9a32cd" points="2584.51,-145.58 2574.43,-148.86 2584.35,-152.58 2584.51,-145.58"/>
<text text-anchor="middle" x="2654.5" y="-160.56" font-family="Helvetica,sans-Serif" font-size="10.00"> weightedAverageMethod</text>
</g>
<!-- Node35&#45;&gt;Node1 -->
<g id="edge48" class="edge">
<title>Node35&#45;&gt;Node1</title>
<path fill="none" stroke="#9a32cd" stroke-dasharray="5,2" d="M2355.78,-154.93C2373.87,-139.24 2403.52,-116.79 2434,-107.56 2552.76,-71.6 2701.72,-134.01 2753.9,-158.95"/>
<polygon fill="#9a32cd" stroke="#9a32cd" points="2352.99,-152.72 2347.87,-162 2357.66,-157.94 2352.99,-152.72"/>
<text text-anchor="middle" x="2504" y="-121.56" font-family="Helvetica,sans-Serif" font-size="10.00"> methodPtr</text>
<text text-anchor="middle" x="2504" y="-110.56" font-family="Helvetica,sans-Serif" font-size="10.00">undefinedMethod</text>
</g>
<!-- Node35&#45;&gt;Node34 -->
<g id="edge39" class="edge">
<title>Node35&#45;&gt;Node34</title>
<path fill="none" stroke="midnightblue" d="M2407.26,-161.9C2416.36,-160.64 2425.68,-159.34 2434.76,-158.07"/>
<polygon fill="midnightblue" stroke="midnightblue" points="2406.52,-158.47 2397.1,-163.32 2407.49,-165.41 2406.52,-158.47"/>
</g>
<!-- Node39 -->
<g id="node39" class="node">
<title>Node39</title>
<g id="a_node39"><a xlink:href="classdrain_1_1image_1_1MinimumMethod.html" target="_top" xlink:title=" ">
<polygon fill="white" stroke="black" points="2454,-43.06 2454,-62.06 2554,-62.06 2554,-43.06 2454,-43.06"/>
<text text-anchor="middle" x="2504" y="-50.06" font-family="Helvetica,sans-Serif" font-size="10.00">MinimumMethod</text>
</a>
</g>
</g>
<!-- Node35&#45;&gt;Node39 -->
<g id="edge45" class="edge">
<title>Node35&#45;&gt;Node39</title>
<path fill="none" stroke="midnightblue" d="M2350.05,-153.71C2363.82,-134.45 2387.98,-103.95 2415,-84.56 2429.13,-74.42 2446.82,-67.16 2462.63,-62.15"/>
<polygon fill="midnightblue" stroke="midnightblue" points="2347.17,-151.72 2344.32,-161.92 2352.91,-155.73 2347.17,-151.72"/>
</g>
<!-- Node40 -->
<g id="node40" class="node">
<title>Node40</title>
<g id="a_node40"><a xlink:href="classdrain_1_1image_1_1OverwriteMethod.html" target="_top" xlink:title=" ">
<polygon fill="white" stroke="black" points="2453.5,-5.06 2453.5,-24.06 2554.5,-24.06 2554.5,-5.06 2453.5,-5.06"/>
<text text-anchor="middle" x="2504" y="-12.06" font-family="Helvetica,sans-Serif" font-size="10.00">OverwriteMethod</text>
</a>
</g>
</g>
<!-- Node35&#45;&gt;Node40 -->
<g id="edge47" class="edge">
<title>Node35&#45;&gt;Node40</title>
<path fill="none" stroke="midnightblue" d="M2346.05,-152.45C2359.66,-122.47 2390.1,-64.62 2434,-33.56 2439.78,-29.47 2446.41,-26.26 2453.22,-23.74"/>
<polygon fill="midnightblue" stroke="midnightblue" points="2342.76,-151.23 2341.94,-161.8 2349.17,-154.05 2342.76,-151.23"/>
</g>
<!-- Node41 -->
<g id="node41" class="node">
<title>Node41</title>
<g id="a_node41"><a xlink:href="classdrain_1_1image_1_1MaximumWeightMethod.html" target="_top" xlink:title=" ">
<polygon fill="white" stroke="black" points="2435.5,-253.06 2435.5,-272.06 2572.5,-272.06 2572.5,-253.06 2435.5,-253.06"/>
<text text-anchor="middle" x="2504" y="-260.06" font-family="Helvetica,sans-Serif" font-size="10.00">MaximumWeightMethod</text>
</a>
</g>
</g>
<!-- Node35&#45;&gt;Node41 -->
<g id="edge50" class="edge">
<title>Node35&#45;&gt;Node41</title>
<path fill="none" stroke="midnightblue" d="M2355.6,-188.01C2373.89,-204.29 2403.99,-228.84 2434,-243.56 2441.7,-247.33 2450.26,-250.46 2458.66,-253"/>
<polygon fill="midnightblue" stroke="midnightblue" points="2357.83,-185.31 2348.07,-181.18 2353.13,-190.49 2357.83,-185.31"/>
</g>
<!-- Node42 -->
<g id="node42" class="node">
<title>Node42</title>
<g id="a_node42"><a xlink:href="classdrain_1_1image_1_1AverageMethod.html" target="_top" xlink:title=" ">
<polygon fill="white" stroke="black" points="2457.5,-215.06 2457.5,-234.06 2550.5,-234.06 2550.5,-215.06 2457.5,-215.06"/>
<text text-anchor="middle" x="2504" y="-222.06" font-family="Helvetica,sans-Serif" font-size="10.00">AverageMethod</text>
</a>
</g>
</g>
<!-- Node35&#45;&gt;Node42 -->
<g id="edge52" class="edge">
<title>Node35&#45;&gt;Node42</title>
<path fill="none" stroke="midnightblue" d="M2373.06,-184.66C2391.16,-191.24 2413.65,-199.16 2434,-205.56 2444.43,-208.84 2455.84,-212.11 2466.33,-214.99"/>
<polygon fill="midnightblue" stroke="midnightblue" points="2374.1,-181.31 2363.5,-181.15 2371.69,-187.88 2374.1,-181.31"/>
</g>
<!-- Node43 -->
<g id="node43" class="node">
<title>Node43</title>
<g id="a_node43"><a xlink:href="classdrain_1_1image_1_1MaximumMethod.html" target="_top" xlink:title=" ">
<polygon fill="white" stroke="black" points="2452.5,-177.06 2452.5,-196.06 2555.5,-196.06 2555.5,-177.06 2452.5,-177.06"/>
<text text-anchor="middle" x="2504" y="-184.06" font-family="Helvetica,sans-Serif" font-size="10.00">MaximumMethod</text>
</a>
</g>
</g>
<!-- Node35&#45;&gt;Node43 -->
<g id="edge54" class="edge">
<title>Node35&#45;&gt;Node43</title>
<path fill="none" stroke="midnightblue" d="M2407.45,-177.87C2422.56,-179.25 2438.27,-180.67 2452.49,-181.97"/>
<polygon fill="midnightblue" stroke="midnightblue" points="2407.38,-174.35 2397.1,-176.93 2406.74,-181.32 2407.38,-174.35"/>
</g>
<!-- Node36 -->
<g id="node36" class="node">
<title>Node36</title>
<g id="a_node36"><a xlink:href="classdrain_1_1ReferenceMap.html" target="_top" xlink:title=" ">
<polygon fill="white" stroke="black" points="2046.5,-162.06 2046.5,-181.06 2133.5,-181.06 2133.5,-162.06 2046.5,-162.06"/>
<text text-anchor="middle" x="2090" y="-169.06" font-family="Helvetica,sans-Serif" font-size="10.00">ReferenceMap</text>
</a>
</g>
</g>
<!-- Node36&#45;&gt;Node35 -->
<g id="edge40" class="edge">
<title>Node36&#45;&gt;Node35</title>
<path fill="none" stroke="#9a32cd" stroke-dasharray="5,2" d="M2143.81,-171.56C2182.93,-171.56 2236.28,-171.56 2276.84,-171.56"/>
<polygon fill="#9a32cd" stroke="#9a32cd" points="2143.68,-168.06 2133.68,-171.56 2143.68,-175.06 2143.68,-168.06"/>
<text text-anchor="middle" x="2211" y="-174.56" font-family="Helvetica,sans-Serif" font-size="10.00"> parameters</text>
</g>
<!-- Node37 -->
<g id="node37" class="node">
<title>Node37</title>
<g id="a_node37"><a xlink:href="classdrain_1_1SmartMap.html" target="_top" xlink:title=" ">
<polygon fill="white" stroke="black" points="1822,-162.06 1822,-181.06 1965,-181.06 1965,-162.06 1822,-162.06"/>
<text text-anchor="middle" x="1893.5" y="-169.06" font-family="Helvetica,sans-Serif" font-size="10.00">SmartMap&lt; Referencer &gt;</text>
</a>
</g>
</g>
<!-- Node37&#45;&gt;Node36 -->
<g id="edge41" class="edge">
<title>Node37&#45;&gt;Node36</title>
<path fill="none" stroke="midnightblue" d="M1975.57,-171.56C1999.86,-171.56 2025.53,-171.56 2046.29,-171.56"/>
<polygon fill="midnightblue" stroke="midnightblue" points="1975.27,-168.06 1965.27,-171.56 1975.27,-175.06 1975.27,-168.06"/>
</g>
<!-- Node38 -->
<g id="node38" class="node">
<title>Node38</title>
<g id="a_node38"><a xlink:title=" ">
<polygon fill="white" stroke="#bfbfbf" points="1616,-162.06 1616,-181.06 1785,-181.06 1785,-162.06 1616,-162.06"/>
<text text-anchor="middle" x="1700.5" y="-169.06" font-family="Helvetica,sans-Serif" font-size="10.00">map&lt; std::string, Referencer &gt;</text>
</a>
</g>
</g>
<!-- Node38&#45;&gt;Node37 -->
<g id="edge42" class="edge">
<title>Node38&#45;&gt;Node37</title>
<path fill="none" stroke="midnightblue" d="M1795.35,-171.56C1804.29,-171.56 1813.25,-171.56 1821.92,-171.56"/>
<polygon fill="midnightblue" stroke="midnightblue" points="1795.28,-168.06 1785.28,-171.56 1795.28,-175.06 1795.28,-168.06"/>
</g>
<!-- Node39&#45;&gt;Node1 -->
<g id="edge44" class="edge">
<title>Node39&#45;&gt;Node1</title>
<path fill="none" stroke="#9a32cd" stroke-dasharray="5,2" d="M2564.05,-44.73C2609.37,-41.77 2671.65,-44.59 2717,-73.56 2748.78,-93.86 2764.81,-139.17 2770.51,-158.98"/>
<polygon fill="#9a32cd" stroke="#9a32cd" points="2563.78,-41.24 2554.08,-45.49 2564.31,-48.22 2563.78,-41.24"/>
<text text-anchor="middle" x="2654.5" y="-76.56" font-family="Helvetica,sans-Serif" font-size="10.00"> minimumMethod</text>
</g>
<!-- Node40&#45;&gt;Node1 -->
<g id="edge46" class="edge">
<title>Node40&#45;&gt;Node1</title>
<path fill="none" stroke="#9a32cd" stroke-dasharray="5,2" d="M2559.51,-3.58C2605.82,2.55 2671.79,3.35 2717,-29.56 2760.54,-61.25 2770.28,-132.57 2772.42,-158.71"/>
<polygon fill="#9a32cd" stroke="#9a32cd" points="2558.75,-0.15 2549.36,-5.04 2559.75,-7.08 2558.75,-0.15"/>
<text text-anchor="middle" x="2654.5" y="-32.56" font-family="Helvetica,sans-Serif" font-size="10.00"> overwriteMethod</text>
</g>
<!-- Node41&#45;&gt;Node1 -->
<g id="edge49" class="edge">
<title>Node41&#45;&gt;Node1</title>
<path fill="none" stroke="#9a32cd" stroke-dasharray="5,2" d="M2583.01,-265.51C2624.99,-263.94 2676.35,-256.73 2717,-234.56 2741.28,-221.32 2759.58,-193.02 2767.96,-178.14"/>
<polygon fill="#9a32cd" stroke="#9a32cd" points="2582.72,-262.02 2572.82,-265.79 2582.91,-269.01 2582.72,-262.02"/>
<text text-anchor="middle" x="2654.5" y="-268.56" font-family="Helvetica,sans-Serif" font-size="10.00"> maximumWeightMethod</text>
</g>
<!-- Node42&#45;&gt;Node1 -->
<g id="edge51" class="edge">
<title>Node42&#45;&gt;Node1</title>
<path fill="none" stroke="#9a32cd" stroke-dasharray="5,2" d="M2560.61,-221.72C2603.97,-218.37 2665.3,-211.13 2717,-195.56 2730.85,-191.39 2745.54,-184.18 2756.4,-178.27"/>
<polygon fill="#9a32cd" stroke="#9a32cd" points="2560.26,-218.23 2550.54,-222.45 2560.77,-225.21 2560.26,-218.23"/>
<text text-anchor="middle" x="2654.5" y="-222.56" font-family="Helvetica,sans-Serif" font-size="10.00"> averageMethod</text>
</g>
<!-- Node43&#45;&gt;Node1 -->
<g id="edge53" class="edge">
<title>Node43&#45;&gt;Node1</title>
<path fill="none" stroke="#9a32cd" stroke-dasharray="5,2" d="M2565.79,-182.47C2617.62,-178.99 2690.54,-174.1 2734.62,-171.14"/>
<polygon fill="#9a32cd" stroke="#9a32cd" points="2565.47,-178.99 2555.72,-183.15 2565.94,-185.97 2565.47,-178.99"/>
<text text-anchor="middle" x="2654.5" y="-183.56" font-family="Helvetica,sans-Serif" font-size="10.00"> maximumMethod</text>
</g>
</g>
</svg>
