<?xml version="1.0" encoding="UTF-8" standalone="no"?>
<!DOCTYPE svg PUBLIC "-//W3C//DTD SVG 1.1//EN"
 "http://www.w3.org/Graphics/SVG/1.1/DTD/svg11.dtd">
<!-- Generated by graphviz version 2.43.0 (0)
 -->
<!-- Title: OpticalFlowCore2 Pages: 1 -->
<svg width="312pt" height="397pt"
 viewBox="0.00 0.00 311.50 397.00" xmlns="http://www.w3.org/2000/svg" xmlns:xlink="http://www.w3.org/1999/xlink">
<g id="graph0" class="graph" transform="scale(1 1) rotate(0) translate(4 393)">
<title>OpticalFlowCore2</title>
<polygon fill="white" stroke="transparent" points="-4,4 -4,-393 307.5,-393 307.5,4 -4,4"/>
<!-- Node1 -->
<g id="node1" class="node">
<title>Node1</title>
<g id="a_node1"><a xlink:title=" ">
<polygon fill="#bfbfbf" stroke="black" points="96,-257.5 96,-276.5 199,-276.5 199,-257.5 96,-257.5"/>
<text text-anchor="middle" x="147.5" y="-264.5" font-family="Helvetica,sans-Serif" font-size="10.00">OpticalFlowCore2</text>
</a>
</g>
</g>
<!-- Node4 -->
<g id="node4" class="node">
<title>Node4</title>
<g id="a_node4"><a xlink:href="classdrain_1_1image_1_1Window.html" target="_top" xlink:title=" ">
<polygon fill="white" stroke="black" points="68,-190.5 68,-220.5 227,-220.5 227,-190.5 68,-190.5"/>
<text text-anchor="start" x="76" y="-208.5" font-family="Helvetica,sans-Serif" font-size="10.00">Window&lt; OpticalFlowConfig,</text>
<text text-anchor="middle" x="147.5" y="-197.5" font-family="Helvetica,sans-Serif" font-size="10.00"> OpticalFlowCore2 &gt;</text>
</a>
</g>
</g>
<!-- Node1&#45;&gt;Node4 -->
<g id="edge3" class="edge">
<title>Node1&#45;&gt;Node4</title>
<path fill="none" stroke="midnightblue" d="M147.5,-247.23C147.5,-238.59 147.5,-228.5 147.5,-220.52"/>
<polygon fill="midnightblue" stroke="midnightblue" points="144,-247.48 147.5,-257.48 151,-247.48 144,-247.48"/>
</g>
<!-- Node2 -->
<g id="node2" class="node">
<title>Node2</title>
<g id="a_node2"><a xlink:href="classdrain_1_1image_1_1OpticalFlowCore.html" target="_top" xlink:title=" ">
<polygon fill="white" stroke="black" points="99,-313.5 99,-332.5 196,-332.5 196,-313.5 99,-313.5"/>
<text text-anchor="middle" x="147.5" y="-320.5" font-family="Helvetica,sans-Serif" font-size="10.00">OpticalFlowCore</text>
</a>
</g>
</g>
<!-- Node2&#45;&gt;Node1 -->
<g id="edge1" class="edge">
<title>Node2&#45;&gt;Node1</title>
<path fill="none" stroke="midnightblue" d="M147.5,-302.8C147.5,-293.91 147.5,-283.78 147.5,-276.75"/>
<polygon fill="midnightblue" stroke="midnightblue" points="144,-303.08 147.5,-313.08 151,-303.08 144,-303.08"/>
</g>
<!-- Node3 -->
<g id="node3" class="node">
<title>Node3</title>
<g id="a_node3"><a xlink:href="classdrain_1_1image_1_1WindowCoreBase.html" target="_top" xlink:title="Provides splitting frames.">
<polygon fill="white" stroke="black" points="96.5,-369.5 96.5,-388.5 198.5,-388.5 198.5,-369.5 96.5,-369.5"/>
<text text-anchor="middle" x="147.5" y="-376.5" font-family="Helvetica,sans-Serif" font-size="10.00">WindowCoreBase</text>
</a>
</g>
</g>
<!-- Node3&#45;&gt;Node2 -->
<g id="edge2" class="edge">
<title>Node3&#45;&gt;Node2</title>
<path fill="none" stroke="midnightblue" d="M147.5,-358.8C147.5,-349.91 147.5,-339.78 147.5,-332.75"/>
<polygon fill="midnightblue" stroke="midnightblue" points="144,-359.08 147.5,-369.08 151,-359.08 144,-359.08"/>
</g>
<!-- Node5 -->
<g id="node5" class="node">
<title>Node5</title>
<g id="a_node5"><a xlink:href="classdrain_1_1image_1_1SlidingWindow.html" target="_top" xlink:title=" ">
<polygon fill="white" stroke="black" points="68.5,-123.5 68.5,-153.5 226.5,-153.5 226.5,-123.5 68.5,-123.5"/>
<text text-anchor="start" x="76.5" y="-141.5" font-family="Helvetica,sans-Serif" font-size="10.00">SlidingWindow&lt; OpticalFlow</text>
<text text-anchor="middle" x="147.5" y="-130.5" font-family="Helvetica,sans-Serif" font-size="10.00">Config, OpticalFlowCore2 &gt;</text>
</a>
</g>
</g>
<!-- Node4&#45;&gt;Node5 -->
<g id="edge4" class="edge">
<title>Node4&#45;&gt;Node5</title>
<path fill="none" stroke="midnightblue" d="M147.5,-180.11C147.5,-171.15 147.5,-161.32 147.5,-153.58"/>
<polygon fill="midnightblue" stroke="midnightblue" points="144,-180.4 147.5,-190.4 151,-180.4 144,-180.4"/>
</g>
<!-- Node6 -->
<g id="node6" class="node">
<title>Node6</title>
<g id="a_node6"><a xlink:href="classdrain_1_1image_1_1SlidingOpticalFlow2.html" target="_top" xlink:title="Currently not in use. See SlidingOpticalFlowWeighted2 below.">
<polygon fill="white" stroke="black" points="0,-62 0,-81 143,-81 143,-62 0,-62"/>
<text text-anchor="middle" x="71.5" y="-69" font-family="Helvetica,sans-Serif" font-size="10.00">SlidingOpticalFlow2&lt; R &gt;</text>
</a>
</g>
</g>
<!-- Node5&#45;&gt;Node6 -->
<g id="edge5" class="edge">
<title>Node5&#45;&gt;Node6</title>
<path fill="none" stroke="midnightblue" d="M123.15,-116.67C109.11,-104.67 92.22,-90.22 81.67,-81.19"/>
<polygon fill="midnightblue" stroke="midnightblue" points="121.13,-119.56 131.01,-123.4 125.68,-114.24 121.13,-119.56"/>
</g>
<!-- Node7 -->
<g id="node7" class="node">
<title>Node7</title>
<g id="a_node7"><a xlink:href="classdrain_1_1image_1_1SlidingOpticalFlow2.html" target="_top" xlink:title=" ">
<polygon fill="white" stroke="black" points="161,-56.5 161,-86.5 286,-86.5 286,-56.5 161,-56.5"/>
<text text-anchor="start" x="169" y="-74.5" font-family="Helvetica,sans-Serif" font-size="10.00">SlidingOpticalFlow2</text>
<text text-anchor="middle" x="223.5" y="-63.5" font-family="Helvetica,sans-Serif" font-size="10.00">&lt; OpticalFlowCore2 &gt;</text>
</a>
</g>
</g>
<!-- Node5&#45;&gt;Node7 -->
<g id="edge6" class="edge">
<title>Node5&#45;&gt;Node7</title>
<path fill="none" stroke="midnightblue" d="M171.61,-116.88C183.16,-107.01 196.69,-95.43 207.04,-86.58"/>
<polygon fill="midnightblue" stroke="midnightblue" points="169.32,-114.24 163.99,-123.4 173.87,-119.56 169.32,-114.24"/>
</g>
<!-- Node8 -->
<g id="node8" class="node">
<title>Node8</title>
<g id="a_node8"><a xlink:href="classdrain_1_1image_1_1SlidingOpticalFlowWeighted2.html" target="_top" xlink:title=" ">
<polygon fill="white" stroke="black" points="143.5,-0.5 143.5,-19.5 303.5,-19.5 303.5,-0.5 143.5,-0.5"/>
<text text-anchor="middle" x="223.5" y="-7.5" font-family="Helvetica,sans-Serif" font-size="10.00">SlidingOpticalFlowWeighted2</text>
</a>
</g>
</g>
<!-- Node7&#45;&gt;Node8 -->
<g id="edge7" class="edge">
<title>Node7&#45;&gt;Node8</title>
<path fill="none" stroke="midnightblue" d="M223.5,-46.29C223.5,-36.86 223.5,-26.65 223.5,-19.66"/>
<polygon fill="midnightblue" stroke="midnightblue" points="220,-46.4 223.5,-56.4 227,-46.4 220,-46.4"/>
</g>
</g>
</svg>
