<?xml version="1.0" encoding="UTF-8" standalone="no"?>
<!DOCTYPE svg PUBLIC "-//W3C//DTD SVG 1.1//EN"
 "http://www.w3.org/Graphics/SVG/1.1/DTD/svg11.dtd">
<!-- Generated by graphviz version 2.43.0 (0)
 -->
<!-- Title: RhiODIM Pages: 1 -->
<svg width="645pt" height="431pt"
 viewBox="0.00 0.00 645.00 431.00" xmlns="http://www.w3.org/2000/svg" xmlns:xlink="http://www.w3.org/1999/xlink">
<g id="graph0" class="graph" transform="scale(1 1) rotate(0) translate(4 427)">
<title>RhiODIM</title>
<polygon fill="white" stroke="transparent" points="-4,4 -4,-427 641,-427 641,4 -4,4"/>
<!-- Node1 -->
<g id="node1" class="node">
<title>Node1</title>
<g id="a_node1"><a xlink:title=" ">
<polygon fill="#bfbfbf" stroke="black" points="526.5,-0.5 526.5,-19.5 585.5,-19.5 585.5,-0.5 526.5,-0.5"/>
<text text-anchor="middle" x="556" y="-7.5" font-family="Helvetica,sans-Serif" font-size="10.00">RhiODIM</text>
</a>
</g>
</g>
<!-- Node2 -->
<g id="node2" class="node">
<title>Node2</title>
<g id="a_node2"><a xlink:href="classrack_1_1VerticalCrossSectionODIM.html" target="_top" xlink:title=" ">
<polygon fill="white" stroke="black" points="434,-57.5 434,-76.5 578,-76.5 578,-57.5 434,-57.5"/>
<text text-anchor="middle" x="506" y="-64.5" font-family="Helvetica,sans-Serif" font-size="10.00">VerticalCrossSectionODIM</text>
</a>
</g>
</g>
<!-- Node2&#45;&gt;Node1 -->
<g id="edge1" class="edge">
<title>Node2&#45;&gt;Node1</title>
<path fill="none" stroke="midnightblue" d="M520.7,-49.83C529.66,-39.98 540.74,-27.78 548.08,-19.71"/>
<polygon fill="midnightblue" stroke="midnightblue" points="517.95,-47.65 513.81,-57.41 523.13,-52.36 517.95,-47.65"/>
</g>
<!-- Node3 -->
<g id="node3" class="node">
<title>Node3</title>
<g id="a_node3"><a xlink:href="classrack_1_1ODIM.html" target="_top" xlink:title="ODIM metadata (quantity, gain, offset, undetect, nodata, date, time)">
<polygon fill="white" stroke="black" points="288,-114.5 288,-133.5 332,-133.5 332,-114.5 288,-114.5"/>
<text text-anchor="middle" x="310" y="-121.5" font-family="Helvetica,sans-Serif" font-size="10.00">ODIM</text>
</a>
</g>
</g>
<!-- Node3&#45;&gt;Node2 -->
<g id="edge2" class="edge">
<title>Node3&#45;&gt;Node2</title>
<path fill="none" stroke="midnightblue" d="M341.87,-114.06C378.83,-103.68 439.34,-86.7 475.65,-76.52"/>
<polygon fill="midnightblue" stroke="midnightblue" points="340.79,-110.73 332.1,-116.8 342.68,-117.47 340.79,-110.73"/>
</g>
<!-- Node4 -->
<g id="node4" class="node">
<title>Node4</title>
<g id="a_node4"><a xlink:href="classrack_1_1EncodingODIM.html" target="_top" xlink:title="Structure for data storage type, scaling and marker codes. Does not contain quantity.">
<polygon fill="white" stroke="black" points="222,-181.5 222,-200.5 310,-200.5 310,-181.5 222,-181.5"/>
<text text-anchor="middle" x="266" y="-188.5" font-family="Helvetica,sans-Serif" font-size="10.00">EncodingODIM</text>
</a>
</g>
</g>
<!-- Node4&#45;&gt;Node3 -->
<g id="edge3" class="edge">
<title>Node4&#45;&gt;Node3</title>
<path fill="none" stroke="midnightblue" d="M277.57,-172.9C286.12,-160.27 297.41,-143.6 304.16,-133.63"/>
<polygon fill="midnightblue" stroke="midnightblue" points="274.64,-170.99 271.93,-181.23 280.44,-174.91 274.64,-170.99"/>
</g>
<!-- Node5 -->
<g id="node5" class="node">
<title>Node5</title>
<g id="a_node5"><a xlink:href="classdrain_1_1ReferenceMap.html" target="_top" xlink:title=" ">
<polygon fill="white" stroke="black" points="140.5,-270.5 140.5,-289.5 227.5,-289.5 227.5,-270.5 140.5,-270.5"/>
<text text-anchor="middle" x="184" y="-277.5" font-family="Helvetica,sans-Serif" font-size="10.00">ReferenceMap</text>
</a>
</g>
</g>
<!-- Node5&#45;&gt;Node4 -->
<g id="edge4" class="edge">
<title>Node5&#45;&gt;Node4</title>
<path fill="none" stroke="midnightblue" d="M199.32,-262.74C216.66,-244.35 244.26,-215.06 257.87,-200.62"/>
<polygon fill="midnightblue" stroke="midnightblue" points="196.47,-260.66 192.16,-270.34 201.57,-265.46 196.47,-260.66"/>
</g>
<!-- Node6 -->
<g id="node6" class="node">
<title>Node6</title>
<g id="a_node6"><a xlink:href="classdrain_1_1SmartMap.html" target="_top" xlink:title=" ">
<polygon fill="white" stroke="black" points="60.5,-346.5 60.5,-365.5 203.5,-365.5 203.5,-346.5 60.5,-346.5"/>
<text text-anchor="middle" x="132" y="-353.5" font-family="Helvetica,sans-Serif" font-size="10.00">SmartMap&lt; Referencer &gt;</text>
</a>
</g>
</g>
<!-- Node6&#45;&gt;Node5 -->
<g id="edge5" class="edge">
<title>Node6&#45;&gt;Node5</title>
<path fill="none" stroke="midnightblue" d="M144.09,-337.8C154.65,-322.77 169.56,-301.56 177.84,-289.77"/>
<polygon fill="midnightblue" stroke="midnightblue" points="141.06,-336.03 138.17,-346.22 146.78,-340.05 141.06,-336.03"/>
</g>
<!-- Node7 -->
<g id="node7" class="node">
<title>Node7</title>
<g id="a_node7"><a xlink:title=" ">
<polygon fill="white" stroke="#bfbfbf" points="47.5,-403.5 47.5,-422.5 216.5,-422.5 216.5,-403.5 47.5,-403.5"/>
<text text-anchor="middle" x="132" y="-410.5" font-family="Helvetica,sans-Serif" font-size="10.00">map&lt; std::string, Referencer &gt;</text>
</a>
</g>
</g>
<!-- Node7&#45;&gt;Node6 -->
<g id="edge6" class="edge">
<title>Node7&#45;&gt;Node6</title>
<path fill="none" stroke="midnightblue" d="M132,-393.12C132,-383.82 132,-373.06 132,-365.71"/>
<polygon fill="midnightblue" stroke="midnightblue" points="128.5,-393.41 132,-403.41 135.5,-393.41 128.5,-393.41"/>
</g>
<!-- Node8 -->
<g id="node8" class="node">
<title>Node8</title>
<g id="a_node8"><a xlink:href="classdrain_1_1ValueScaling.html" target="_top" xlink:title="Linear scaling and physical range for image intensities.">
<polygon fill="white" stroke="black" points="246,-270.5 246,-289.5 326,-289.5 326,-270.5 246,-270.5"/>
<text text-anchor="middle" x="286" y="-277.5" font-family="Helvetica,sans-Serif" font-size="10.00">ValueScaling</text>
</a>
</g>
</g>
<!-- Node8&#45;&gt;Node4 -->
<g id="edge7" class="edge">
<title>Node8&#45;&gt;Node4</title>
<path fill="none" stroke="#9a32cd" stroke-dasharray="5,2" d="M271.88,-262.1C269.89,-258.91 268.14,-255.48 267,-252 261.32,-234.57 262.98,-212.74 264.57,-200.81"/>
<polygon fill="#9a32cd" stroke="#9a32cd" points="269.1,-264.22 277.81,-270.26 274.76,-260.11 269.1,-264.22"/>
<text text-anchor="middle" x="300" y="-244" font-family="Helvetica,sans-Serif" font-size="10.00"> scalingConst</text>
<text text-anchor="middle" x="300" y="-233" font-family="Helvetica,sans-Serif" font-size="10.00">scaling</text>
<text text-anchor="middle" x="300" y="-222" font-family="Helvetica,sans-Serif" font-size="10.00">ownScaling</text>
</g>
<!-- Node9 -->
<g id="node9" class="node">
<title>Node9</title>
<g id="a_node9"><a xlink:href="classdrain_1_1UniTuple.html" target="_top" xlink:title=" ">
<polygon fill="white" stroke="black" points="222,-346.5 222,-365.5 348,-365.5 348,-346.5 222,-346.5"/>
<text text-anchor="middle" x="285" y="-353.5" font-family="Helvetica,sans-Serif" font-size="10.00">UniTuple&lt; double, 4 &gt;</text>
</a>
</g>
</g>
<!-- Node9&#45;&gt;Node8 -->
<g id="edge8" class="edge">
<title>Node9&#45;&gt;Node8</title>
<path fill="none" stroke="midnightblue" d="M285.26,-336.07C285.46,-321.18 285.73,-301.11 285.88,-289.77"/>
<polygon fill="midnightblue" stroke="midnightblue" points="281.75,-336.17 285.12,-346.22 288.75,-336.27 281.75,-336.17"/>
</g>
<!-- Node10 -->
<g id="node10" class="node">
<title>Node10</title>
<g id="a_node10"><a xlink:href="classdrain_1_1Range.html" target="_top" xlink:title=" ">
<polygon fill="white" stroke="black" points="442.5,-346.5 442.5,-365.5 545.5,-365.5 545.5,-346.5 442.5,-346.5"/>
<text text-anchor="middle" x="494" y="-353.5" font-family="Helvetica,sans-Serif" font-size="10.00">Range&lt; double &gt;</text>
</a>
</g>
</g>
<!-- Node10&#45;&gt;Node1 -->
<g id="edge16" class="edge">
<title>Node10&#45;&gt;Node1</title>
<path fill="none" stroke="#9a32cd" stroke-dasharray="5,2" d="M541.94,-343.36C572.35,-332.79 606,-313.7 606,-281 606,-281 606,-281 606,-66 606,-45.22 586.22,-28.83 571.55,-19.52"/>
<polygon fill="#9a32cd" stroke="#9a32cd" points="540.67,-340.09 532.23,-346.5 542.82,-346.75 540.67,-340.09"/>
<text text-anchor="middle" x="621.5" y="-155" font-family="Helvetica,sans-Serif" font-size="10.00"> range</text>
</g>
<!-- Node10&#45;&gt;Node2 -->
<g id="edge15" class="edge">
<title>Node10&#45;&gt;Node2</title>
<path fill="none" stroke="#9a32cd" stroke-dasharray="5,2" d="M498.7,-336.47C502.06,-321.58 506,-300.08 506,-281 506,-281 506,-281 506,-123 506,-106.58 506,-87.39 506,-76.57"/>
<polygon fill="#9a32cd" stroke="#9a32cd" points="495.24,-335.87 496.31,-346.41 502.05,-337.51 495.24,-335.87"/>
<text text-anchor="middle" x="542" y="-188.5" font-family="Helvetica,sans-Serif" font-size="10.00"> altitudeRange</text>
</g>
<!-- Node10&#45;&gt;Node8 -->
<g id="edge9" class="edge">
<title>Node10&#45;&gt;Node8</title>
<path fill="none" stroke="#9a32cd" stroke-dasharray="5,2" d="M461.66,-342.53C452.44,-338.42 442.57,-333.48 434,-328 422.59,-320.7 423.11,-314.07 411,-308 384.5,-294.73 351.64,-287.96 326.27,-284.51"/>
<polygon fill="#9a32cd" stroke="#9a32cd" points="460.39,-345.79 470.97,-346.49 463.14,-339.35 460.39,-345.79"/>
<text text-anchor="middle" x="463" y="-315.5" font-family="Helvetica,sans-Serif" font-size="10.00"> physRange</text>
</g>
<!-- Node11 -->
<g id="node11" class="node">
<title>Node11</title>
<g id="a_node11"><a xlink:href="classdrain_1_1UniTuple.html" target="_top" xlink:title=" ">
<polygon fill="white" stroke="black" points="359,-403.5 359,-422.5 485,-422.5 485,-403.5 359,-403.5"/>
<text text-anchor="middle" x="422" y="-410.5" font-family="Helvetica,sans-Serif" font-size="10.00">UniTuple&lt; double, 2 &gt;</text>
</a>
</g>
</g>
<!-- Node11&#45;&gt;Node10 -->
<g id="edge10" class="edge">
<title>Node11&#45;&gt;Node10</title>
<path fill="none" stroke="midnightblue" d="M441.26,-397.29C454.45,-387.21 471.5,-374.19 482.59,-365.71"/>
<polygon fill="midnightblue" stroke="midnightblue" points="439.07,-394.55 433.25,-403.41 443.32,-400.12 439.07,-394.55"/>
</g>
<!-- Node12 -->
<g id="node12" class="node">
<title>Node12</title>
<g id="a_node12"><a xlink:href="structdrain_1_1Point2D.html" target="_top" xlink:title=" ">
<polygon fill="white" stroke="black" points="300,-308.5 300,-327.5 410,-327.5 410,-308.5 300,-308.5"/>
<text text-anchor="middle" x="355" y="-315.5" font-family="Helvetica,sans-Serif" font-size="10.00">Point2D&lt; double &gt;</text>
</a>
</g>
</g>
<!-- Node11&#45;&gt;Node12 -->
<g id="edge12" class="edge">
<title>Node11&#45;&gt;Node12</title>
<path fill="none" stroke="midnightblue" d="M409.94,-395.26C395.6,-375.36 372.23,-342.91 361.17,-327.56"/>
<polygon fill="midnightblue" stroke="midnightblue" points="407.13,-397.35 415.82,-403.42 412.81,-393.26 407.13,-397.35"/>
</g>
<!-- Node12&#45;&gt;Node3 -->
<g id="edge11" class="edge">
<title>Node12&#45;&gt;Node3</title>
<path fill="none" stroke="#9a32cd" stroke-dasharray="5,2" d="M350.96,-298.53C346.63,-278.81 339.49,-246.66 333,-219 325.63,-187.59 316.38,-150.42 312.21,-133.8"/>
<polygon fill="#9a32cd" stroke="#9a32cd" points="347.55,-299.32 353.11,-308.34 354.39,-297.82 347.55,-299.32"/>
<text text-anchor="middle" x="366" y="-233" font-family="Helvetica,sans-Serif" font-size="10.00"> resolution</text>
</g>
<!-- Node13 -->
<g id="node13" class="node">
<title>Node13</title>
<g id="a_node13"><a xlink:href="classdrain_1_1Frame2D.html" target="_top" xlink:title=" ">
<polygon fill="white" stroke="black" points="49,-181.5 49,-200.5 161,-200.5 161,-181.5 49,-181.5"/>
<text text-anchor="middle" x="105" y="-188.5" font-family="Helvetica,sans-Serif" font-size="10.00">Frame2D&lt; size_t &gt;</text>
</a>
</g>
</g>
<!-- Node13&#45;&gt;Node3 -->
<g id="edge13" class="edge">
<title>Node13&#45;&gt;Node3</title>
<path fill="none" stroke="#9a32cd" stroke-dasharray="5,2" d="M141.9,-178.3C184.34,-164.84 252.66,-143.18 287.7,-132.07"/>
<polygon fill="#9a32cd" stroke="#9a32cd" points="140.7,-175.01 132.22,-181.37 142.81,-181.68 140.7,-175.01"/>
<text text-anchor="middle" x="231.5" y="-155" font-family="Helvetica,sans-Serif" font-size="10.00"> area</text>
</g>
<!-- Node14 -->
<g id="node14" class="node">
<title>Node14</title>
<g id="a_node14"><a xlink:href="classdrain_1_1UniTuple.html" target="_top" xlink:title=" ">
<polygon fill="white" stroke="black" points="0,-270.5 0,-289.5 122,-289.5 122,-270.5 0,-270.5"/>
<text text-anchor="middle" x="61" y="-277.5" font-family="Helvetica,sans-Serif" font-size="10.00">UniTuple&lt; size_t, 2 &gt;</text>
</a>
</g>
</g>
<!-- Node14&#45;&gt;Node13 -->
<g id="edge14" class="edge">
<title>Node14&#45;&gt;Node13</title>
<path fill="none" stroke="midnightblue" d="M69.99,-261.23C79.32,-242.77 93.53,-214.67 100.64,-200.62"/>
<polygon fill="midnightblue" stroke="midnightblue" points="66.77,-259.84 65.38,-270.34 73.02,-263 66.77,-259.84"/>
</g>
</g>
</svg>
