<?xml version="1.0" encoding="UTF-8" standalone="no"?>
<!DOCTYPE svg PUBLIC "-//W3C//DTD SVG 1.1//EN"
 "http://www.w3.org/Graphics/SVG/1.1/DTD/svg11.dtd">
<!-- Generated by graphviz version 2.43.0 (0)
 -->
<!-- Title: PaletteEntry Pages: 1 -->
<svg width="218pt" height="266pt"
 viewBox="0.00 0.00 218.00 266.00" xmlns="http://www.w3.org/2000/svg" xmlns:xlink="http://www.w3.org/1999/xlink">
<g id="graph0" class="graph" transform="scale(1 1) rotate(0) translate(4 262)">
<title>PaletteEntry</title>
<polygon fill="white" stroke="transparent" points="-4,4 -4,-262 214,-262 214,4 -4,4"/>
<!-- Node1 -->
<g id="node1" class="node">
<title>Node1</title>
<g id="a_node1"><a xlink:title=" ">
<polygon fill="#bfbfbf" stroke="black" points="28,-0.5 28,-19.5 105,-19.5 105,-0.5 28,-0.5"/>
<text text-anchor="middle" x="66.5" y="-7.5" font-family="Helvetica,sans-Serif" font-size="10.00">PaletteEntry</text>
</a>
</g>
</g>
<!-- Node2 -->
<g id="node2" class="node">
<title>Node2</title>
<g id="a_node2"><a xlink:href="classdrain_1_1LegendEntry.html" target="_top" xlink:title=" ">
<polygon fill="white" stroke="black" points="0,-57.5 0,-76.5 77,-76.5 77,-57.5 0,-57.5"/>
<text text-anchor="middle" x="38.5" y="-64.5" font-family="Helvetica,sans-Serif" font-size="10.00">LegendEntry</text>
</a>
</g>
</g>
<!-- Node2&#45;&gt;Node1 -->
<g id="edge1" class="edge">
<title>Node2&#45;&gt;Node1</title>
<path fill="none" stroke="midnightblue" d="M47.49,-48.33C52.36,-38.77 58.16,-27.38 62.06,-19.71"/>
<polygon fill="midnightblue" stroke="midnightblue" points="44.29,-46.91 42.88,-57.41 50.53,-50.08 44.29,-46.91"/>
</g>
<!-- Node3 -->
<g id="node3" class="node">
<title>Node3</title>
<g id="a_node3"><a xlink:href="classdrain_1_1BeanLike.html" target="_top" xlink:title="Something which has a name, a description and possibly some parameters of varying type.">
<polygon fill="white" stroke="black" points="95,-57.5 95,-76.5 156,-76.5 156,-57.5 95,-57.5"/>
<text text-anchor="middle" x="125.5" y="-64.5" font-family="Helvetica,sans-Serif" font-size="10.00">BeanLike</text>
</a>
</g>
</g>
<!-- Node3&#45;&gt;Node1 -->
<g id="edge2" class="edge">
<title>Node3&#45;&gt;Node1</title>
<path fill="none" stroke="midnightblue" d="M108.78,-50.42C98.11,-40.47 84.68,-27.94 75.85,-19.71"/>
<polygon fill="midnightblue" stroke="midnightblue" points="106.58,-53.15 116.28,-57.41 111.35,-48.03 106.58,-53.15"/>
</g>
<!-- Node4 -->
<g id="node4" class="node">
<title>Node4</title>
<g id="a_node4"><a xlink:href="classdrain_1_1ReferenceMap.html" target="_top" xlink:title=" ">
<polygon fill="white" stroke="black" points="82,-124.5 82,-143.5 169,-143.5 169,-124.5 82,-124.5"/>
<text text-anchor="middle" x="125.5" y="-131.5" font-family="Helvetica,sans-Serif" font-size="10.00">ReferenceMap</text>
</a>
</g>
</g>
<!-- Node4&#45;&gt;Node3 -->
<g id="edge3" class="edge">
<title>Node4&#45;&gt;Node3</title>
<path fill="none" stroke="#9a32cd" stroke-dasharray="5,2" d="M125.5,-114.04C125.5,-101.67 125.5,-86.12 125.5,-76.63"/>
<polygon fill="#9a32cd" stroke="#9a32cd" points="122,-114.23 125.5,-124.23 129,-114.23 122,-114.23"/>
<text text-anchor="middle" x="155.5" y="-98" font-family="Helvetica,sans-Serif" font-size="10.00"> parameters</text>
</g>
<!-- Node5 -->
<g id="node5" class="node">
<title>Node5</title>
<g id="a_node5"><a xlink:href="classdrain_1_1SmartMap.html" target="_top" xlink:title=" ">
<polygon fill="white" stroke="black" points="54,-181.5 54,-200.5 197,-200.5 197,-181.5 54,-181.5"/>
<text text-anchor="middle" x="125.5" y="-188.5" font-family="Helvetica,sans-Serif" font-size="10.00">SmartMap&lt; Referencer &gt;</text>
</a>
</g>
</g>
<!-- Node5&#45;&gt;Node4 -->
<g id="edge4" class="edge">
<title>Node5&#45;&gt;Node4</title>
<path fill="none" stroke="midnightblue" d="M125.5,-171.12C125.5,-161.82 125.5,-151.06 125.5,-143.71"/>
<polygon fill="midnightblue" stroke="midnightblue" points="122,-171.41 125.5,-181.41 129,-171.41 122,-171.41"/>
</g>
<!-- Node6 -->
<g id="node6" class="node">
<title>Node6</title>
<g id="a_node6"><a xlink:title=" ">
<polygon fill="white" stroke="#bfbfbf" points="41,-238.5 41,-257.5 210,-257.5 210,-238.5 41,-238.5"/>
<text text-anchor="middle" x="125.5" y="-245.5" font-family="Helvetica,sans-Serif" font-size="10.00">map&lt; std::string, Referencer &gt;</text>
</a>
</g>
</g>
<!-- Node6&#45;&gt;Node5 -->
<g id="edge5" class="edge">
<title>Node6&#45;&gt;Node5</title>
<path fill="none" stroke="midnightblue" d="M125.5,-228.12C125.5,-218.82 125.5,-208.06 125.5,-200.71"/>
<polygon fill="midnightblue" stroke="midnightblue" points="122,-228.41 125.5,-238.41 129,-228.41 122,-228.41"/>
</g>
</g>
</svg>
