<?xml version="1.0" encoding="UTF-8" standalone="no"?>
<!DOCTYPE svg PUBLIC "-//W3C//DTD SVG 1.1//EN"
 "http://www.w3.org/Graphics/SVG/1.1/DTD/svg11.dtd">
<!-- Generated by graphviz version 2.43.0 (0)
 -->
<!-- Title: LaplaceVertOp Pages: 1 -->
<svg width="96pt" height="308pt"
 viewBox="0.00 0.00 96.00 308.00" xmlns="http://www.w3.org/2000/svg" xmlns:xlink="http://www.w3.org/1999/xlink">
<g id="graph0" class="graph" transform="scale(1 1) rotate(0) translate(4 304)">
<title>LaplaceVertOp</title>
<polygon fill="white" stroke="transparent" points="-4,4 -4,-304 92,-304 92,4 -4,4"/>
<!-- Node1 -->
<g id="node1" class="node">
<title>Node1</title>
<g id="a_node1"><a xlink:title="Computes second vertical derivative, dy2.">
<polygon fill="#bfbfbf" stroke="black" points="0,-0.5 0,-19.5 88,-19.5 88,-0.5 0,-0.5"/>
<text text-anchor="middle" x="44" y="-7.5" font-family="Helvetica,sans-Serif" font-size="10.00">LaplaceVertOp</text>
</a>
</g>
</g>
<!-- Node2 -->
<g id="node2" class="node">
<title>Node2</title>
<g id="a_node2"><a xlink:href="classdrain_1_1image_1_1LaplaceOp.html" target="_top" xlink:title="Computes second intensity derivatives.">
<polygon fill="white" stroke="black" points="10,-56.5 10,-75.5 78,-75.5 78,-56.5 10,-56.5"/>
<text text-anchor="middle" x="44" y="-63.5" font-family="Helvetica,sans-Serif" font-size="10.00">LaplaceOp</text>
</a>
</g>
</g>
<!-- Node2&#45;&gt;Node1 -->
<g id="edge1" class="edge">
<title>Node2&#45;&gt;Node1</title>
<path fill="none" stroke="midnightblue" d="M44,-45.8C44,-36.91 44,-26.78 44,-19.75"/>
<polygon fill="midnightblue" stroke="midnightblue" points="40.5,-46.08 44,-56.08 47.5,-46.08 40.5,-46.08"/>
</g>
<!-- Node3 -->
<g id="node3" class="node">
<title>Node3</title>
<g id="a_node3"><a xlink:href="classdrain_1_1image_1_1DifferentialOp.html" target="_top" xlink:title="Virtual base class for horizontal and vertical intensity derivatives.">
<polygon fill="white" stroke="black" points="1,-112.5 1,-131.5 87,-131.5 87,-112.5 1,-112.5"/>
<text text-anchor="middle" x="44" y="-119.5" font-family="Helvetica,sans-Serif" font-size="10.00">DifferentialOp</text>
</a>
</g>
</g>
<!-- Node3&#45;&gt;Node2 -->
<g id="edge2" class="edge">
<title>Node3&#45;&gt;Node2</title>
<path fill="none" stroke="midnightblue" d="M44,-101.8C44,-92.91 44,-82.78 44,-75.75"/>
<polygon fill="midnightblue" stroke="midnightblue" points="40.5,-102.08 44,-112.08 47.5,-102.08 40.5,-102.08"/>
</g>
<!-- Node4 -->
<g id="node4" class="node">
<title>Node4</title>
<g id="a_node4"><a xlink:href="classdrain_1_1image_1_1ImageOp.html" target="_top" xlink:title="Base class for image processing functions.">
<polygon fill="white" stroke="black" points="13.5,-168.5 13.5,-187.5 74.5,-187.5 74.5,-168.5 13.5,-168.5"/>
<text text-anchor="middle" x="44" y="-175.5" font-family="Helvetica,sans-Serif" font-size="10.00">ImageOp</text>
</a>
</g>
</g>
<!-- Node4&#45;&gt;Node3 -->
<g id="edge3" class="edge">
<title>Node4&#45;&gt;Node3</title>
<path fill="none" stroke="midnightblue" d="M44,-157.8C44,-148.91 44,-138.78 44,-131.75"/>
<polygon fill="midnightblue" stroke="midnightblue" points="40.5,-158.08 44,-168.08 47.5,-158.08 40.5,-158.08"/>
</g>
<!-- Node5 -->
<g id="node5" class="node">
<title>Node5</title>
<g id="a_node5"><a xlink:href="classdrain_1_1image_1_1ImageMod.html" target="_top" xlink:title="Class for operations that modify an existing image instead of producing a new image.">
<polygon fill="white" stroke="black" points="10,-224.5 10,-243.5 78,-243.5 78,-224.5 10,-224.5"/>
<text text-anchor="middle" x="44" y="-231.5" font-family="Helvetica,sans-Serif" font-size="10.00">ImageMod</text>
</a>
</g>
</g>
<!-- Node5&#45;&gt;Node4 -->
<g id="edge4" class="edge">
<title>Node5&#45;&gt;Node4</title>
<path fill="none" stroke="midnightblue" d="M44,-213.8C44,-204.91 44,-194.78 44,-187.75"/>
<polygon fill="midnightblue" stroke="midnightblue" points="40.5,-214.08 44,-224.08 47.5,-214.08 40.5,-214.08"/>
</g>
<!-- Node6 -->
<g id="node6" class="node">
<title>Node6</title>
<g id="a_node6"><a xlink:href="classdrain_1_1BeanLike.html" target="_top" xlink:title="Something which has a name, a description and possibly some parameters of varying type.">
<polygon fill="white" stroke="black" points="13.5,-280.5 13.5,-299.5 74.5,-299.5 74.5,-280.5 13.5,-280.5"/>
<text text-anchor="middle" x="44" y="-287.5" font-family="Helvetica,sans-Serif" font-size="10.00">BeanLike</text>
</a>
</g>
</g>
<!-- Node6&#45;&gt;Node5 -->
<g id="edge5" class="edge">
<title>Node6&#45;&gt;Node5</title>
<path fill="none" stroke="midnightblue" d="M44,-269.8C44,-260.91 44,-250.78 44,-243.75"/>
<polygon fill="midnightblue" stroke="midnightblue" points="40.5,-270.08 44,-280.08 47.5,-270.08 40.5,-270.08"/>
</g>
</g>
</svg>
