<?xml version="1.0" encoding="UTF-8" standalone="no"?>
<!DOCTYPE svg PUBLIC "-//W3C//DTD SVG 1.1//EN"
 "http://www.w3.org/Graphics/SVG/1.1/DTD/svg11.dtd">
<!-- Generated by graphviz version 2.43.0 (0)
 -->
<!-- Title: Command Pages: 1 -->
<svg width="554pt" height="1472pt"
 viewBox="0.00 0.00 554.00 1472.00" xmlns="http://www.w3.org/2000/svg" xmlns:xlink="http://www.w3.org/1999/xlink">
<g id="graph0" class="graph" transform="scale(1 1) rotate(0) translate(4 1468)">
<title>Command</title>
<polygon fill="white" stroke="transparent" points="-4,4 -4,-1468 550,-1468 550,4 -4,4"/>
<!-- Node1 -->
<g id="node1" class="node">
<title>Node1</title>
<g id="a_node1"><a xlink:title="Base class for commands: typically actions taking parameters but also plain variable assignments and ...">
<polygon fill="#bfbfbf" stroke="black" points="106,-1240.5 106,-1259.5 173,-1259.5 173,-1240.5 106,-1240.5"/>
<text text-anchor="middle" x="139.5" y="-1247.5" font-family="Helvetica,sans-Serif" font-size="10.00">Command</text>
</a>
</g>
</g>
<!-- Node3 -->
<g id="node3" class="node">
<title>Node3</title>
<g id="a_node3"><a xlink:href="classdrain_1_1BeanCommand.html" target="_top" xlink:title=" ">
<polygon fill="white" stroke="black" points="216,-1442.5 216,-1461.5 360,-1461.5 360,-1442.5 216,-1442.5"/>
<text text-anchor="middle" x="288" y="-1449.5" font-family="Helvetica,sans-Serif" font-size="10.00">BeanCommand&lt; B, B &amp; &gt;</text>
</a>
</g>
</g>
<!-- Node1&#45;&gt;Node3 -->
<g id="edge2" class="edge">
<title>Node1&#45;&gt;Node3</title>
<path fill="none" stroke="midnightblue" d="M142.4,-1269.77C146.99,-1306.53 162.05,-1385.61 209,-1429 215.32,-1434.85 223.06,-1439.21 231.18,-1442.47"/>
<polygon fill="midnightblue" stroke="midnightblue" points="145.87,-1269.35 141.28,-1259.8 138.92,-1270.13 145.87,-1269.35"/>
</g>
<!-- Node5 -->
<g id="node5" class="node">
<title>Node5</title>
<g id="a_node5"><a xlink:href="classdrain_1_1BeanCommand.html" target="_top" xlink:title=" ">
<polygon fill="white" stroke="black" points="224,-1389 224,-1419 352,-1419 352,-1389 224,-1389"/>
<text text-anchor="start" x="232" y="-1407" font-family="Helvetica,sans-Serif" font-size="10.00">BeanCommand&lt; drain</text>
<text text-anchor="middle" x="288" y="-1396" font-family="Helvetica,sans-Serif" font-size="10.00">::image::ImageBox &gt;</text>
</a>
</g>
</g>
<!-- Node1&#45;&gt;Node5 -->
<g id="edge4" class="edge">
<title>Node1&#45;&gt;Node5</title>
<path fill="none" stroke="midnightblue" d="M146.76,-1269.3C156.25,-1295.81 176.7,-1343.43 209,-1372 216.89,-1378.98 226.52,-1384.57 236.27,-1388.99"/>
<polygon fill="midnightblue" stroke="midnightblue" points="150,-1267.98 143.45,-1259.66 143.38,-1270.25 150,-1267.98"/>
</g>
<!-- Node7 -->
<g id="node7" class="node">
<title>Node7</title>
<g id="a_node7"><a xlink:href="classdrain_1_1BeanCommand.html" target="_top" xlink:title=" ">
<polygon fill="white" stroke="black" points="209,-1332 209,-1362 367,-1362 367,-1332 209,-1332"/>
<text text-anchor="start" x="217" y="-1350" font-family="Helvetica,sans-Serif" font-size="10.00">BeanCommand&lt; FastOptical</text>
<text text-anchor="middle" x="288" y="-1339" font-family="Helvetica,sans-Serif" font-size="10.00">Flow2Op &gt;</text>
</a>
</g>
</g>
<!-- Node1&#45;&gt;Node7 -->
<g id="edge6" class="edge">
<title>Node1&#45;&gt;Node7</title>
<path fill="none" stroke="midnightblue" d="M158.13,-1266.53C171.48,-1278.58 190.61,-1294.85 209,-1307 222.97,-1316.23 239.33,-1324.91 253.46,-1331.81"/>
<polygon fill="midnightblue" stroke="midnightblue" points="160.35,-1263.82 150.61,-1259.64 155.62,-1268.98 160.35,-1263.82"/>
</g>
<!-- Node10 -->
<g id="node9" class="node">
<title>Node10</title>
<g id="a_node9"><a xlink:href="classdrain_1_1BeanCommand.html" target="_top" xlink:title=" ">
<polygon fill="white" stroke="black" points="224,-1278.5 224,-1297.5 352,-1297.5 352,-1278.5 224,-1278.5"/>
<text text-anchor="middle" x="288" y="-1285.5" font-family="Helvetica,sans-Serif" font-size="10.00">BeanCommand&lt; OP &gt;</text>
</a>
</g>
</g>
<!-- Node1&#45;&gt;Node10 -->
<g id="edge8" class="edge">
<title>Node1&#45;&gt;Node10</title>
<path fill="none" stroke="midnightblue" d="M182.78,-1260.97C204.1,-1266.5 229.7,-1273.14 250.19,-1278.45"/>
<polygon fill="midnightblue" stroke="midnightblue" points="183.57,-1257.56 173.01,-1258.43 181.81,-1264.33 183.57,-1257.56"/>
</g>
<!-- Node15 -->
<g id="node13" class="node">
<title>Node15</title>
<g id="a_node13"><a xlink:href="classdrain_1_1BeanerCommand.html" target="_top" xlink:title=" ">
<polygon fill="white" stroke="black" points="217,-1213 217,-1243 359,-1243 359,-1213 217,-1213"/>
<text text-anchor="start" x="225" y="-1231" font-family="Helvetica,sans-Serif" font-size="10.00">BeanerCommand&lt; drain</text>
<text text-anchor="middle" x="288" y="-1220" font-family="Helvetica,sans-Serif" font-size="10.00">::image::ImageSampler &gt;</text>
</a>
</g>
</g>
<!-- Node1&#45;&gt;Node15 -->
<g id="edge12" class="edge">
<title>Node1&#45;&gt;Node15</title>
<path fill="none" stroke="midnightblue" d="M183.18,-1243.59C193.73,-1242.01 205.31,-1240.27 216.79,-1238.54"/>
<polygon fill="midnightblue" stroke="midnightblue" points="182.38,-1240.17 173.01,-1245.12 183.42,-1247.09 182.38,-1240.17"/>
</g>
<!-- Node17 -->
<g id="node15" class="node">
<title>Node17</title>
<g id="a_node15"><a xlink:href="classdrain_1_1BasicCommand.html" target="_top" xlink:title="Simple implementation of Command: adds name , description and parameters .">
<polygon fill="white" stroke="red" points="241.5,-646.5 241.5,-665.5 334.5,-665.5 334.5,-646.5 241.5,-646.5"/>
<text text-anchor="middle" x="288" y="-653.5" font-family="Helvetica,sans-Serif" font-size="10.00">BasicCommand</text>
</a>
</g>
</g>
<!-- Node1&#45;&gt;Node17 -->
<g id="edge14" class="edge">
<title>Node1&#45;&gt;Node17</title>
<path fill="none" stroke="midnightblue" d="M145.37,-1230.26C168.61,-1136.01 267.88,-733.52 284.6,-665.72"/>
<polygon fill="midnightblue" stroke="midnightblue" points="141.92,-1229.64 142.92,-1240.19 148.71,-1231.31 141.92,-1229.64"/>
</g>
<!-- Node127 -->
<g id="node48" class="node">
<title>Node127</title>
<g id="a_node48"><a xlink:href="classdrain_1_1BeanCommand.html" target="_top" xlink:title="Base for derived classes using member BeanLike or referenced BeanLikes.">
<polygon fill="white" stroke="black" points="218,-608.5 218,-627.5 358,-627.5 358,-608.5 218,-608.5"/>
<text text-anchor="middle" x="288" y="-615.5" font-family="Helvetica,sans-Serif" font-size="10.00">BeanCommand&lt; B, B2 &gt;</text>
</a>
</g>
</g>
<!-- Node1&#45;&gt;Node127 -->
<g id="edge47" class="edge">
<title>Node1&#45;&gt;Node127</title>
<path fill="none" stroke="midnightblue" d="M141.39,-1229.96C146.04,-1129.37 168.85,-682.63 209,-637 212.31,-633.23 216.24,-630.15 220.54,-627.63"/>
<polygon fill="midnightblue" stroke="midnightblue" points="137.88,-1230.08 140.92,-1240.23 144.88,-1230.4 137.88,-1230.08"/>
</g>
<!-- Node128 -->
<g id="node49" class="node">
<title>Node128</title>
<g id="a_node49"><a xlink:href="classdrain_1_1BeanerCommand.html" target="_top" xlink:title="Command stored as a single entry in CommandBank and becomes &quot;renamed&quot; upon setKey() prior to executio...">
<polygon fill="white" stroke="black" points="222.5,-570.5 222.5,-589.5 353.5,-589.5 353.5,-570.5 222.5,-570.5"/>
<text text-anchor="middle" x="288" y="-577.5" font-family="Helvetica,sans-Serif" font-size="10.00">BeanerCommand&lt; B &gt;</text>
</a>
</g>
</g>
<!-- Node1&#45;&gt;Node128 -->
<g id="edge48" class="edge">
<title>Node1&#45;&gt;Node128</title>
<path fill="none" stroke="midnightblue" d="M141.25,-1230.03C145.35,-1125.86 166.38,-647.76 209,-599 212.76,-594.7 217.32,-591.29 222.32,-588.59"/>
<polygon fill="midnightblue" stroke="midnightblue" points="137.75,-1230 140.86,-1240.12 144.75,-1230.27 137.75,-1230"/>
</g>
<!-- Node2 -->
<g id="node2" class="node">
<title>Node2</title>
<g id="a_node2"><a xlink:href="classdrain_1_1Contextual.html" target="_top" xlink:title=" ">
<polygon fill="white" stroke="black" points="0,-1240.5 0,-1259.5 70,-1259.5 70,-1240.5 0,-1240.5"/>
<text text-anchor="middle" x="35" y="-1247.5" font-family="Helvetica,sans-Serif" font-size="10.00">Contextual</text>
</a>
</g>
</g>
<!-- Node2&#45;&gt;Node1 -->
<g id="edge1" class="edge">
<title>Node2&#45;&gt;Node1</title>
<path fill="none" stroke="midnightblue" d="M80.39,-1250C88.96,-1250 97.8,-1250 105.91,-1250"/>
<polygon fill="midnightblue" stroke="midnightblue" points="80.13,-1246.5 70.13,-1250 80.13,-1253.5 80.13,-1246.5"/>
</g>
<!-- Node4 -->
<g id="node4" class="node">
<title>Node4</title>
<g id="a_node4"><a xlink:href="classdrain_1_1BeanRefCommand.html" target="_top" xlink:title=" ">
<polygon fill="white" stroke="black" points="406,-1444.5 406,-1463.5 543,-1463.5 543,-1444.5 406,-1444.5"/>
<text text-anchor="middle" x="474.5" y="-1451.5" font-family="Helvetica,sans-Serif" font-size="10.00">BeanRefCommand&lt; B &gt;</text>
</a>
</g>
</g>
<!-- Node3&#45;&gt;Node4 -->
<g id="edge3" class="edge">
<title>Node3&#45;&gt;Node4</title>
<path fill="none" stroke="midnightblue" d="M370.38,-1452.88C382.21,-1453.01 394.28,-1453.14 405.8,-1453.27"/>
<polygon fill="midnightblue" stroke="midnightblue" points="370.11,-1449.38 360.07,-1452.77 370.03,-1456.38 370.11,-1449.38"/>
</g>
<!-- Node6 -->
<g id="node6" class="node">
<title>Node6</title>
<g id="a_node6"><a xlink:href="classrack_1_1CmdImageBox.html" target="_top" xlink:title=" ">
<polygon fill="white" stroke="black" points="430,-1406.5 430,-1425.5 519,-1425.5 519,-1406.5 430,-1406.5"/>
<text text-anchor="middle" x="474.5" y="-1413.5" font-family="Helvetica,sans-Serif" font-size="10.00">CmdImageBox</text>
</a>
</g>
</g>
<!-- Node5&#45;&gt;Node6 -->
<g id="edge5" class="edge">
<title>Node5&#45;&gt;Node6</title>
<path fill="none" stroke="midnightblue" d="M362.27,-1408.77C385.14,-1410.25 409.64,-1411.85 429.81,-1413.16"/>
<polygon fill="midnightblue" stroke="midnightblue" points="362.44,-1405.27 352.24,-1408.11 361.99,-1412.25 362.44,-1405.27"/>
</g>
<!-- Node8 -->
<g id="node8" class="node">
<title>Node8</title>
<g id="a_node8"><a xlink:href="classdrain_1_1CmdOpticalFlowBase.html" target="_top" xlink:title="Utility for creating a Command that runs FastOpticalFlowOp operator.">
<polygon fill="white" stroke="red" points="414,-1368.5 414,-1387.5 535,-1387.5 535,-1368.5 414,-1368.5"/>
<text text-anchor="middle" x="474.5" y="-1375.5" font-family="Helvetica,sans-Serif" font-size="10.00">CmdOpticalFlowBase</text>
</a>
</g>
</g>
<!-- Node7&#45;&gt;Node8 -->
<g id="edge7" class="edge">
<title>Node7&#45;&gt;Node8</title>
<path fill="none" stroke="midnightblue" d="M377.48,-1361.87C390.91,-1364.12 404.45,-1366.4 416.96,-1368.5"/>
<polygon fill="midnightblue" stroke="midnightblue" points="377.69,-1358.35 367.24,-1360.15 376.53,-1365.26 377.69,-1358.35"/>
</g>
<!-- Node11 -->
<g id="node10" class="node">
<title>Node11</title>
<g id="a_node10"><a xlink:href="classrack_1_1AnDReCommand.html" target="_top" xlink:title=" ">
<polygon fill="white" stroke="red" points="406.5,-1330.5 406.5,-1349.5 542.5,-1349.5 542.5,-1330.5 406.5,-1330.5"/>
<text text-anchor="middle" x="474.5" y="-1337.5" font-family="Helvetica,sans-Serif" font-size="10.00">AnDReCommand&lt; OP &gt;</text>
</a>
</g>
</g>
<!-- Node10&#45;&gt;Node11 -->
<g id="edge9" class="edge">
<title>Node10&#45;&gt;Node11</title>
<path fill="none" stroke="midnightblue" d="M331.18,-1300.41C352.65,-1306.68 379.19,-1314.35 403,-1321 414.23,-1324.14 426.5,-1327.48 437.6,-1330.46"/>
<polygon fill="midnightblue" stroke="midnightblue" points="331.97,-1297 321.39,-1297.55 330,-1303.71 331.97,-1297"/>
</g>
<!-- Node13 -->
<g id="node11" class="node">
<title>Node13</title>
<g id="a_node11"><a xlink:href="classrack_1_1ProductCommand.html" target="_top" xlink:title="Wrapper for meteorological products derived from VolumeOp.">
<polygon fill="white" stroke="black" points="404.5,-1292.5 404.5,-1311.5 544.5,-1311.5 544.5,-1292.5 404.5,-1292.5"/>
<text text-anchor="middle" x="474.5" y="-1299.5" font-family="Helvetica,sans-Serif" font-size="10.00">ProductCommand&lt; OP &gt;</text>
</a>
</g>
</g>
<!-- Node10&#45;&gt;Node13 -->
<g id="edge10" class="edge">
<title>Node10&#45;&gt;Node13</title>
<path fill="none" stroke="midnightblue" d="M362.22,-1293.56C376.11,-1294.61 390.59,-1295.71 404.35,-1296.75"/>
<polygon fill="midnightblue" stroke="midnightblue" points="362.47,-1290.07 352.24,-1292.8 361.94,-1297.05 362.47,-1290.07"/>
</g>
<!-- Node14 -->
<g id="node12" class="node">
<title>Node14</title>
<g id="a_node12"><a xlink:href="classrack_1_1RackImageOpCmd.html" target="_top" xlink:title="Designed for Rack.">
<polygon fill="white" stroke="black" points="403,-1254.5 403,-1273.5 546,-1273.5 546,-1254.5 403,-1254.5"/>
<text text-anchor="middle" x="474.5" y="-1261.5" font-family="Helvetica,sans-Serif" font-size="10.00">RackImageOpCmd&lt; OP &gt;</text>
</a>
</g>
</g>
<!-- Node10&#45;&gt;Node14 -->
<g id="edge11" class="edge">
<title>Node10&#45;&gt;Node14</title>
<path fill="none" stroke="midnightblue" d="M362.3,-1278.47C375.62,-1276.73 389.5,-1274.93 402.75,-1273.2"/>
<polygon fill="midnightblue" stroke="midnightblue" points="361.7,-1275.01 352.24,-1279.77 362.6,-1281.95 361.7,-1275.01"/>
</g>
<!-- Node16 -->
<g id="node14" class="node">
<title>Node16</title>
<g id="a_node14"><a xlink:href="classrack_1_1CmdImageSampler.html" target="_top" xlink:title=" ">
<polygon fill="white" stroke="black" points="419.5,-1216.5 419.5,-1235.5 529.5,-1235.5 529.5,-1216.5 419.5,-1216.5"/>
<text text-anchor="middle" x="474.5" y="-1223.5" font-family="Helvetica,sans-Serif" font-size="10.00">CmdImageSampler</text>
</a>
</g>
</g>
<!-- Node15&#45;&gt;Node16 -->
<g id="edge13" class="edge">
<title>Node15&#45;&gt;Node16</title>
<path fill="none" stroke="midnightblue" d="M369.43,-1227.13C386.3,-1226.95 403.7,-1226.76 419.33,-1226.59"/>
<polygon fill="midnightblue" stroke="midnightblue" points="368.98,-1223.63 359.01,-1227.24 369.05,-1230.63 368.98,-1223.63"/>
</g>
<!-- Node18 -->
<g id="node16" class="node">
<title>Node18</title>
<g id="a_node16"><a xlink:href="structComputeCmd.html" target="_top" xlink:title=" ">
<polygon fill="white" stroke="black" points="433,-1178.5 433,-1197.5 516,-1197.5 516,-1178.5 433,-1178.5"/>
<text text-anchor="middle" x="474.5" y="-1185.5" font-family="Helvetica,sans-Serif" font-size="10.00">ComputeCmd</text>
</a>
</g>
</g>
<!-- Node17&#45;&gt;Node18 -->
<g id="edge15" class="edge">
<title>Node17&#45;&gt;Node18</title>
<path fill="none" stroke="midnightblue" d="M290.71,-675.99C298.44,-761.5 332.76,-1095.56 403,-1169 410.89,-1177.24 421.94,-1182.04 432.96,-1184.79"/>
<polygon fill="midnightblue" stroke="midnightblue" points="294.18,-675.47 289.82,-665.82 287.21,-676.09 294.18,-675.47"/>
</g>
<!-- Node19 -->
<g id="node17" class="node">
<title>Node19</title>
<g id="a_node17"><a xlink:href="classdrain_1_1CmdDebug.html" target="_top" xlink:title=" ">
<polygon fill="white" stroke="black" points="439,-1140.5 439,-1159.5 510,-1159.5 510,-1140.5 439,-1140.5"/>
<text text-anchor="middle" x="474.5" y="-1147.5" font-family="Helvetica,sans-Serif" font-size="10.00">CmdDebug</text>
</a>
</g>
</g>
<!-- Node17&#45;&gt;Node19 -->
<g id="edge16" class="edge">
<title>Node17&#45;&gt;Node19</title>
<path fill="none" stroke="midnightblue" d="M291.13,-676.3C300.13,-758.29 337.62,-1063.79 403,-1131 412.37,-1140.63 426.07,-1145.55 438.9,-1148"/>
<polygon fill="midnightblue" stroke="midnightblue" points="294.56,-675.45 290.01,-665.88 287.6,-676.2 294.56,-675.45"/>
</g>
<!-- Node20 -->
<g id="node18" class="node">
<title>Node20</title>
<g id="a_node18"><a xlink:href="classdrain_1_1CmdExecScript.html" target="_top" xlink:title="Executes the defined script.">
<polygon fill="white" stroke="black" points="429.5,-1102.5 429.5,-1121.5 519.5,-1121.5 519.5,-1102.5 429.5,-1102.5"/>
<text text-anchor="middle" x="474.5" y="-1109.5" font-family="Helvetica,sans-Serif" font-size="10.00">CmdExecScript</text>
</a>
</g>
</g>
<!-- Node17&#45;&gt;Node20 -->
<g id="edge17" class="edge">
<title>Node17&#45;&gt;Node20</title>
<path fill="none" stroke="midnightblue" d="M291.56,-676.16C301.83,-753.75 342.34,-1031.85 403,-1093 410.14,-1100.2 419.7,-1104.75 429.48,-1107.62"/>
<polygon fill="midnightblue" stroke="midnightblue" points="294.98,-675.31 290.22,-665.85 288.04,-676.22 294.98,-675.31"/>
</g>
<!-- Node21 -->
<g id="node19" class="node">
<title>Node21</title>
<g id="a_node19"><a xlink:href="classdrain_1_1CmdExpandVariables.html" target="_top" xlink:title=" ">
<polygon fill="white" stroke="red" points="414,-1064.5 414,-1083.5 535,-1083.5 535,-1064.5 414,-1064.5"/>
<text text-anchor="middle" x="474.5" y="-1071.5" font-family="Helvetica,sans-Serif" font-size="10.00">CmdExpandVariables</text>
</a>
</g>
</g>
<!-- Node17&#45;&gt;Node21 -->
<g id="edge18" class="edge">
<title>Node17&#45;&gt;Node21</title>
<path fill="none" stroke="midnightblue" d="M288.33,-675.83C287.29,-740.41 293.09,-946.74 403,-1055 406.88,-1058.83 411.45,-1061.9 416.36,-1064.37"/>
<polygon fill="midnightblue" stroke="midnightblue" points="291.83,-675.86 288.57,-665.78 284.83,-675.7 291.83,-675.86"/>
</g>
<!-- Node23 -->
<g id="node20" class="node">
<title>Node23</title>
<g id="a_node20"><a xlink:href="classdrain_1_1CmdStatus.html" target="_top" xlink:title=" ">
<polygon fill="white" stroke="black" points="439.5,-1026.5 439.5,-1045.5 509.5,-1045.5 509.5,-1026.5 439.5,-1026.5"/>
<text text-anchor="middle" x="474.5" y="-1033.5" font-family="Helvetica,sans-Serif" font-size="10.00">CmdStatus</text>
</a>
</g>
</g>
<!-- Node17&#45;&gt;Node23 -->
<g id="edge19" class="edge">
<title>Node17&#45;&gt;Node23</title>
<path fill="none" stroke="midnightblue" d="M289.03,-675.92C290.26,-736.56 302.47,-920.67 403,-1017 412.7,-1026.3 426.46,-1031.15 439.24,-1033.65"/>
<polygon fill="midnightblue" stroke="midnightblue" points="292.53,-675.74 288.91,-665.79 285.53,-675.83 292.53,-675.74"/>
</g>
<!-- Node24 -->
<g id="node21" class="node">
<title>Node24</title>
<g id="a_node21"><a xlink:href="classdrain_1_1SimpleCommand.html" target="_top" xlink:title="A single&#45;parameter command.">
<polygon fill="white" stroke="black" points="410,-988.5 410,-1007.5 539,-1007.5 539,-988.5 410,-988.5"/>
<text text-anchor="middle" x="474.5" y="-995.5" font-family="Helvetica,sans-Serif" font-size="10.00">SimpleCommand&lt; T &gt;</text>
</a>
</g>
</g>
<!-- Node17&#45;&gt;Node24 -->
<g id="edge20" class="edge">
<title>Node17&#45;&gt;Node24</title>
<path fill="none" stroke="midnightblue" d="M289.87,-675.67C293.45,-731.82 311.59,-894.29 403,-979 407.18,-982.88 412.08,-985.98 417.3,-988.46"/>
<polygon fill="midnightblue" stroke="midnightblue" points="293.36,-675.43 289.32,-665.63 286.37,-675.81 293.36,-675.43"/>
</g>
<!-- Node25 -->
<g id="node22" class="node">
<title>Node25</title>
<g id="a_node22"><a xlink:href="classrack_1_1CartesianBBox.html" target="_top" xlink:title=" ">
<polygon fill="white" stroke="black" points="430,-950.5 430,-969.5 519,-969.5 519,-950.5 430,-950.5"/>
<text text-anchor="middle" x="474.5" y="-957.5" font-family="Helvetica,sans-Serif" font-size="10.00">CartesianBBox</text>
</a>
</g>
</g>
<!-- Node17&#45;&gt;Node25 -->
<g id="edge21" class="edge">
<title>Node17&#45;&gt;Node25</title>
<path fill="none" stroke="midnightblue" d="M290.92,-675.73C297.05,-727.43 320.8,-867.92 403,-941 410.48,-947.65 420.06,-952.01 429.73,-954.85"/>
<polygon fill="midnightblue" stroke="midnightblue" points="294.38,-675.15 289.82,-665.59 287.42,-675.91 294.38,-675.15"/>
</g>
<!-- Node26 -->
<g id="node23" class="node">
<title>Node26</title>
<g id="a_node23"><a xlink:href="classrack_1_1CartesianBBoxReset.html" target="_top" xlink:title=" ">
<polygon fill="white" stroke="black" points="416.5,-912.5 416.5,-931.5 532.5,-931.5 532.5,-912.5 416.5,-912.5"/>
<text text-anchor="middle" x="474.5" y="-919.5" font-family="Helvetica,sans-Serif" font-size="10.00">CartesianBBoxReset</text>
</a>
</g>
</g>
<!-- Node17&#45;&gt;Node26 -->
<g id="edge22" class="edge">
<title>Node17&#45;&gt;Node26</title>
<path fill="none" stroke="midnightblue" d="M292.24,-675.58C301.04,-722.35 329.8,-841.24 403,-903 407.55,-906.84 412.81,-909.91 418.36,-912.37"/>
<polygon fill="midnightblue" stroke="midnightblue" points="295.66,-674.79 290.46,-665.55 288.76,-676.01 295.66,-674.79"/>
</g>
<!-- Node27 -->
<g id="node24" class="node">
<title>Node27</title>
<g id="a_node24"><a xlink:href="classrack_1_1CartesianBBoxTest.html" target="_top" xlink:title=" ">
<polygon fill="white" stroke="black" points="420.5,-874.5 420.5,-893.5 528.5,-893.5 528.5,-874.5 420.5,-874.5"/>
<text text-anchor="middle" x="474.5" y="-881.5" font-family="Helvetica,sans-Serif" font-size="10.00">CartesianBBoxTest</text>
</a>
</g>
</g>
<!-- Node17&#45;&gt;Node27 -->
<g id="edge23" class="edge">
<title>Node17&#45;&gt;Node27</title>
<path fill="none" stroke="midnightblue" d="M293.96,-675.35C305.58,-716.75 338.63,-814.28 403,-865 408.18,-869.08 414.16,-872.29 420.41,-874.81"/>
<polygon fill="midnightblue" stroke="midnightblue" points="297.33,-674.41 291.34,-665.67 290.57,-676.23 297.33,-674.41"/>
</g>
<!-- Node28 -->
<g id="node25" class="node">
<title>Node28</title>
<g id="a_node25"><a xlink:href="classrack_1_1CartesianBBoxTile.html" target="_top" xlink:title=" ">
<polygon fill="white" stroke="black" points="421.5,-836.5 421.5,-855.5 527.5,-855.5 527.5,-836.5 421.5,-836.5"/>
<text text-anchor="middle" x="474.5" y="-843.5" font-family="Helvetica,sans-Serif" font-size="10.00">CartesianBBoxTile</text>
</a>
</g>
</g>
<!-- Node17&#45;&gt;Node28 -->
<g id="edge24" class="edge">
<title>Node17&#45;&gt;Node28</title>
<path fill="none" stroke="midnightblue" d="M296.35,-675.15C311.01,-710.73 347.33,-787 403,-827 408.56,-830.99 414.91,-834.15 421.47,-836.64"/>
<polygon fill="midnightblue" stroke="midnightblue" points="299.46,-673.5 292.5,-665.51 292.96,-676.09 299.46,-673.5"/>
</g>
<!-- Node29 -->
<g id="node26" class="node">
<title>Node29</title>
<g id="a_node26"><a xlink:href="classrack_1_1CartesianGrid.html" target="_top" xlink:title=" ">
<polygon fill="white" stroke="black" points="433,-798.5 433,-817.5 516,-817.5 516,-798.5 433,-798.5"/>
<text text-anchor="middle" x="474.5" y="-805.5" font-family="Helvetica,sans-Serif" font-size="10.00">CartesianGrid</text>
</a>
</g>
</g>
<!-- Node17&#45;&gt;Node29 -->
<g id="edge25" class="edge">
<title>Node17&#45;&gt;Node29</title>
<path fill="none" stroke="midnightblue" d="M299.7,-674.47C317.41,-703.39 355.62,-759.12 403,-789 412.01,-794.68 422.69,-798.68 432.99,-801.49"/>
<polygon fill="midnightblue" stroke="midnightblue" points="302.63,-672.56 294.49,-665.77 296.62,-676.15 302.63,-672.56"/>
</g>
<!-- Node30 -->
<g id="node27" class="node">
<title>Node30</title>
<g id="a_node27"><a xlink:href="classrack_1_1CartesianInit.html" target="_top" xlink:title=" ">
<polygon fill="white" stroke="black" points="435,-760.5 435,-779.5 514,-779.5 514,-760.5 435,-760.5"/>
<text text-anchor="middle" x="474.5" y="-767.5" font-family="Helvetica,sans-Serif" font-size="10.00">CartesianInit</text>
</a>
</g>
</g>
<!-- Node17&#45;&gt;Node30 -->
<g id="edge26" class="edge">
<title>Node17&#45;&gt;Node30</title>
<path fill="none" stroke="midnightblue" d="M304.74,-673.04C325.33,-694.33 363.47,-730.47 403,-751 412.79,-756.08 424.06,-759.91 434.69,-762.74"/>
<polygon fill="midnightblue" stroke="midnightblue" points="307.16,-670.51 297.74,-665.67 302.09,-675.33 307.16,-670.51"/>
</g>
<!-- Node31 -->
<g id="node28" class="node">
<title>Node31</title>
<g id="a_node28"><a xlink:href="classrack_1_1CartesianPlot.html" target="_top" xlink:title=" ">
<polygon fill="white" stroke="black" points="433.5,-722.5 433.5,-741.5 515.5,-741.5 515.5,-722.5 433.5,-722.5"/>
<text text-anchor="middle" x="474.5" y="-729.5" font-family="Helvetica,sans-Serif" font-size="10.00">CartesianPlot</text>
</a>
</g>
</g>
<!-- Node17&#45;&gt;Node31 -->
<g id="edge27" class="edge">
<title>Node17&#45;&gt;Node31</title>
<path fill="none" stroke="midnightblue" d="M314.48,-670.6C337.16,-683.13 371.51,-701.02 403,-713 412.6,-716.65 423.18,-719.89 433.16,-722.62"/>
<polygon fill="midnightblue" stroke="midnightblue" points="315.96,-667.41 305.52,-665.59 312.54,-673.52 315.96,-667.41"/>
</g>
<!-- Node32 -->
<g id="node29" class="node">
<title>Node32</title>
<g id="a_node29"><a xlink:href="classrack_1_1CartesianRange.html" target="_top" xlink:title=" ">
<polygon fill="white" stroke="black" points="427.5,-684.5 427.5,-703.5 521.5,-703.5 521.5,-684.5 427.5,-684.5"/>
<text text-anchor="middle" x="474.5" y="-691.5" font-family="Helvetica,sans-Serif" font-size="10.00">CartesianRange</text>
</a>
</g>
</g>
<!-- Node17&#45;&gt;Node32 -->
<g id="edge28" class="edge">
<title>Node17&#45;&gt;Node32</title>
<path fill="none" stroke="midnightblue" d="M344.5,-667.43C370.99,-672.89 402.31,-679.34 427.46,-684.52"/>
<polygon fill="midnightblue" stroke="midnightblue" points="345.11,-663.98 334.61,-665.39 343.7,-670.84 345.11,-663.98"/>
</g>
<!-- Node33 -->
<g id="node30" class="node">
<title>Node33</title>
<g id="a_node30"><a xlink:href="classrack_1_1CartesianReset.html" target="_top" xlink:title="Creates a single&#45;radar Cartesian data set (2D data of both quantity and quality).">
<polygon fill="white" stroke="black" points="429,-646.5 429,-665.5 520,-665.5 520,-646.5 429,-646.5"/>
<text text-anchor="middle" x="474.5" y="-653.5" font-family="Helvetica,sans-Serif" font-size="10.00">CartesianReset</text>
</a>
</g>
</g>
<!-- Node17&#45;&gt;Node33 -->
<g id="edge29" class="edge">
<title>Node17&#45;&gt;Node33</title>
<path fill="none" stroke="midnightblue" d="M344.65,-656C371.56,-656 403.43,-656 428.74,-656"/>
<polygon fill="midnightblue" stroke="midnightblue" points="344.61,-652.5 334.61,-656 344.61,-659.5 344.61,-652.5"/>
</g>
<!-- Node34 -->
<g id="node31" class="node">
<title>Node34</title>
<g id="a_node31"><a xlink:href="classrack_1_1CartesianSize.html" target="_top" xlink:title=" ">
<polygon fill="white" stroke="black" points="433,-608.5 433,-627.5 516,-627.5 516,-608.5 433,-608.5"/>
<text text-anchor="middle" x="474.5" y="-615.5" font-family="Helvetica,sans-Serif" font-size="10.00">CartesianSize</text>
</a>
</g>
</g>
<!-- Node17&#45;&gt;Node34 -->
<g id="edge30" class="edge">
<title>Node17&#45;&gt;Node34</title>
<path fill="none" stroke="midnightblue" d="M344.41,-644.59C372.83,-638.73 406.84,-631.73 432.81,-626.38"/>
<polygon fill="midnightblue" stroke="midnightblue" points="343.7,-641.16 334.61,-646.61 345.11,-648.02 343.7,-641.16"/>
</g>
<!-- Node35 -->
<g id="node32" class="node">
<title>Node35</title>
<g id="a_node32"><a xlink:href="classrack_1_1CartesianSpread.html" target="_top" xlink:title=" ">
<polygon fill="white" stroke="black" points="426,-570.5 426,-589.5 523,-589.5 523,-570.5 426,-570.5"/>
<text text-anchor="middle" x="474.5" y="-577.5" font-family="Helvetica,sans-Serif" font-size="10.00">CartesianSpread</text>
</a>
</g>
</g>
<!-- Node17&#45;&gt;Node35 -->
<g id="edge31" class="edge">
<title>Node17&#45;&gt;Node35</title>
<path fill="none" stroke="midnightblue" d="M344.68,-646.63C352.46,-644.13 360.13,-640.98 367,-637 387.12,-625.33 383.02,-610.92 403,-599 409.97,-594.84 417.86,-591.58 425.77,-589.02"/>
<polygon fill="midnightblue" stroke="midnightblue" points="343.48,-643.33 334.83,-649.44 345.4,-650.06 343.48,-643.33"/>
</g>
<!-- Node36 -->
<g id="node33" class="node">
<title>Node36</title>
<g id="a_node33"><a xlink:href="classrack_1_1CmdCheckType.html" target="_top" xlink:title="Default handler for requests without own handler. Handles options that are recognized as 1) files to ...">
<polygon fill="white" stroke="black" points="428.5,-532.5 428.5,-551.5 520.5,-551.5 520.5,-532.5 428.5,-532.5"/>
<text text-anchor="middle" x="474.5" y="-539.5" font-family="Helvetica,sans-Serif" font-size="10.00">CmdCheckType</text>
</a>
</g>
</g>
<!-- Node17&#45;&gt;Node36 -->
<g id="edge32" class="edge">
<title>Node17&#45;&gt;Node36</title>
<path fill="none" stroke="midnightblue" d="M344.31,-649.08C352.51,-646.27 360.4,-642.38 367,-637 395.98,-613.39 374.31,-584.96 403,-561 410.2,-554.99 419.13,-550.86 428.18,-548.04"/>
<polygon fill="midnightblue" stroke="midnightblue" points="343.24,-645.75 334.62,-651.91 345.2,-652.47 343.24,-645.75"/>
</g>
<!-- Node37 -->
<g id="node34" class="node">
<title>Node37</title>
<g id="a_node34"><a xlink:href="classrack_1_1CmdCompleteODIM.html" target="_top" xlink:title=" ">
<polygon fill="white" stroke="black" points="418,-494.5 418,-513.5 531,-513.5 531,-494.5 418,-494.5"/>
<text text-anchor="middle" x="474.5" y="-501.5" font-family="Helvetica,sans-Serif" font-size="10.00">CmdCompleteODIM</text>
</a>
</g>
</g>
<!-- Node17&#45;&gt;Node37 -->
<g id="edge33" class="edge">
<title>Node17&#45;&gt;Node37</title>
<path fill="none" stroke="midnightblue" d="M344.13,-650.14C352.55,-647.22 360.57,-643.02 367,-637 405.81,-600.71 364.64,-559.76 403,-523 407.3,-518.88 412.4,-515.63 417.86,-513.07"/>
<polygon fill="midnightblue" stroke="midnightblue" points="343.15,-646.78 334.52,-652.92 345.1,-653.51 343.15,-646.78"/>
</g>
<!-- Node38 -->
<g id="node35" class="node">
<title>Node38</title>
<g id="a_node35"><a xlink:href="classrack_1_1CmdConvert.html" target="_top" xlink:title=" ">
<polygon fill="white" stroke="black" points="436,-456.5 436,-475.5 513,-475.5 513,-456.5 436,-456.5"/>
<text text-anchor="middle" x="474.5" y="-463.5" font-family="Helvetica,sans-Serif" font-size="10.00">CmdConvert</text>
</a>
</g>
</g>
<!-- Node17&#45;&gt;Node38 -->
<g id="edge34" class="edge">
<title>Node17&#45;&gt;Node38</title>
<path fill="none" stroke="midnightblue" d="M344.23,-650.64C352.71,-647.67 360.72,-643.32 367,-637 415.93,-587.75 354.67,-534.84 403,-485 411.65,-476.08 424.01,-471.21 435.97,-468.59"/>
<polygon fill="midnightblue" stroke="midnightblue" points="343.16,-647.3 334.52,-653.43 345.09,-654.03 343.16,-647.3"/>
</g>
<!-- Node39 -->
<g id="node36" class="node">
<title>Node39</title>
<g id="a_node36"><a xlink:href="classrack_1_1CmdCreateDefaultQuality.html" target="_top" xlink:title=" ">
<polygon fill="white" stroke="black" points="403,-418.5 403,-437.5 546,-437.5 546,-418.5 403,-418.5"/>
<text text-anchor="middle" x="474.5" y="-425.5" font-family="Helvetica,sans-Serif" font-size="10.00">CmdCreateDefaultQuality</text>
</a>
</g>
</g>
<!-- Node17&#45;&gt;Node39 -->
<g id="edge35" class="edge">
<title>Node17&#45;&gt;Node39</title>
<path fill="none" stroke="midnightblue" d="M344.47,-650.88C352.93,-647.88 360.86,-643.46 367,-637 426.18,-574.68 344.58,-510.04 403,-447 406.53,-443.19 410.74,-440.11 415.32,-437.63"/>
<polygon fill="midnightblue" stroke="midnightblue" points="343.41,-647.54 334.77,-653.68 345.35,-654.26 343.41,-647.54"/>
</g>
<!-- Node40 -->
<g id="node37" class="node">
<title>Node40</title>
<g id="a_node37"><a xlink:href="classrack_1_1CmdDumpMap.html" target="_top" xlink:title=" ">
<polygon fill="white" stroke="black" points="430,-380.5 430,-399.5 519,-399.5 519,-380.5 430,-380.5"/>
<text text-anchor="middle" x="474.5" y="-387.5" font-family="Helvetica,sans-Serif" font-size="10.00">CmdDumpMap</text>
</a>
</g>
</g>
<!-- Node17&#45;&gt;Node40 -->
<g id="edge36" class="edge">
<title>Node17&#45;&gt;Node40</title>
<path fill="none" stroke="midnightblue" d="M344.35,-651.13C352.9,-648.12 360.89,-643.63 367,-637 436.49,-561.53 334.43,-485.3 403,-409 409.95,-401.27 419.68,-396.54 429.7,-393.69"/>
<polygon fill="midnightblue" stroke="midnightblue" points="343.2,-647.83 334.55,-653.94 345.12,-654.56 343.2,-647.83"/>
</g>
<!-- Node41 -->
<g id="node38" class="node">
<title>Node41</title>
<g id="a_node38"><a xlink:href="classrack_1_1CmdGeoTiffTile.html" target="_top" xlink:title=" ">
<polygon fill="white" stroke="black" points="428.5,-342.5 428.5,-361.5 520.5,-361.5 520.5,-342.5 428.5,-342.5"/>
<text text-anchor="middle" x="474.5" y="-349.5" font-family="Helvetica,sans-Serif" font-size="10.00">CmdGeoTiffTile</text>
</a>
</g>
</g>
<!-- Node17&#45;&gt;Node41 -->
<g id="edge37" class="edge">
<title>Node17&#45;&gt;Node41</title>
<path fill="none" stroke="midnightblue" d="M344.48,-651.25C353.01,-648.22 360.97,-643.7 367,-637 446.84,-548.35 324.24,-460.61 403,-371 409.61,-363.48 418.86,-358.79 428.48,-355.9"/>
<polygon fill="midnightblue" stroke="midnightblue" points="343.32,-647.94 334.67,-654.06 345.25,-654.67 343.32,-647.94"/>
</g>
<!-- Node42 -->
<g id="node39" class="node">
<title>Node42</title>
<g id="a_node39"><a xlink:href="classrack_1_1CmdHistogram.html" target="_top" xlink:title="TODO: generalize to array outfile.">
<polygon fill="white" stroke="black" points="429.5,-304.5 429.5,-323.5 519.5,-323.5 519.5,-304.5 429.5,-304.5"/>
<text text-anchor="middle" x="474.5" y="-311.5" font-family="Helvetica,sans-Serif" font-size="10.00">CmdHistogram</text>
</a>
</g>
</g>
<!-- Node17&#45;&gt;Node42 -->
<g id="edge38" class="edge">
<title>Node17&#45;&gt;Node42</title>
<path fill="none" stroke="midnightblue" d="M344.57,-651.33C353.09,-648.3 361.02,-643.75 367,-637 457.21,-535.15 314.04,-435.94 403,-333 409.8,-325.14 419.47,-320.36 429.49,-317.5"/>
<polygon fill="midnightblue" stroke="midnightblue" points="343.42,-648.02 334.77,-654.15 345.35,-654.75 343.42,-648.02"/>
</g>
<!-- Node43 -->
<g id="node40" class="node">
<title>Node43</title>
<g id="a_node40"><a xlink:href="classrack_1_1CmdImage.html" target="_top" xlink:title=" ">
<polygon fill="white" stroke="black" points="439.5,-266.5 439.5,-285.5 509.5,-285.5 509.5,-266.5 439.5,-266.5"/>
<text text-anchor="middle" x="474.5" y="-273.5" font-family="Helvetica,sans-Serif" font-size="10.00">CmdImage</text>
</a>
</g>
</g>
<!-- Node17&#45;&gt;Node43 -->
<g id="edge39" class="edge">
<title>Node17&#45;&gt;Node43</title>
<path fill="none" stroke="midnightblue" d="M344.64,-651.4C353.16,-648.36 361.07,-643.79 367,-637 467.59,-521.93 303.81,-411.28 403,-295 411.97,-284.49 426.08,-279.48 439.33,-277.2"/>
<polygon fill="midnightblue" stroke="midnightblue" points="343.49,-648.09 334.85,-654.22 345.43,-654.81 343.49,-648.09"/>
</g>
<!-- Node44 -->
<g id="node41" class="node">
<title>Node44</title>
<g id="a_node41"><a xlink:href="classrack_1_1CmdImageAlphaBase.html" target="_top" xlink:title=" ">
<polygon fill="white" stroke="red" points="413.5,-228.5 413.5,-247.5 535.5,-247.5 535.5,-228.5 413.5,-228.5"/>
<text text-anchor="middle" x="474.5" y="-235.5" font-family="Helvetica,sans-Serif" font-size="10.00">CmdImageAlphaBase</text>
</a>
</g>
</g>
<!-- Node17&#45;&gt;Node44 -->
<g id="edge40" class="edge">
<title>Node17&#45;&gt;Node44</title>
<path fill="none" stroke="midnightblue" d="M344.14,-651.65C352.86,-648.6 360.97,-643.97 367,-637 422.49,-572.85 348.29,-321.82 403,-257 406.19,-253.22 410.04,-250.15 414.28,-247.67"/>
<polygon fill="midnightblue" stroke="midnightblue" points="343.18,-648.28 334.51,-654.36 345.08,-655.02 343.18,-648.28"/>
</g>
<!-- Node47 -->
<g id="node42" class="node">
<title>Node47</title>
<g id="a_node42"><a xlink:href="classrack_1_1CmdImageQuality.html" target="_top" xlink:title="Quality groups accepted as alpha channels.">
<polygon fill="white" stroke="black" points="422,-190.5 422,-209.5 527,-209.5 527,-190.5 422,-190.5"/>
<text text-anchor="middle" x="474.5" y="-197.5" font-family="Helvetica,sans-Serif" font-size="10.00">CmdImageQuality</text>
</a>
</g>
</g>
<!-- Node17&#45;&gt;Node47 -->
<g id="edge41" class="edge">
<title>Node17&#45;&gt;Node47</title>
<path fill="none" stroke="midnightblue" d="M344.19,-651.69C352.9,-648.64 361,-643.99 367,-637 427.69,-566.23 343.17,-290.5 403,-219 407.96,-213.07 414.56,-208.89 421.74,-205.95"/>
<polygon fill="midnightblue" stroke="midnightblue" points="343.23,-648.32 334.56,-654.4 345.13,-655.06 343.23,-648.32"/>
</g>
<!-- Node48 -->
<g id="node43" class="node">
<title>Node48</title>
<g id="a_node43"><a xlink:href="classrack_1_1CmdMove.html" target="_top" xlink:title="Rename or move data groups and attributes.">
<polygon fill="white" stroke="red" points="441.5,-152.5 441.5,-171.5 507.5,-171.5 507.5,-152.5 441.5,-152.5"/>
<text text-anchor="middle" x="474.5" y="-159.5" font-family="Helvetica,sans-Serif" font-size="10.00">CmdMove</text>
</a>
</g>
</g>
<!-- Node17&#45;&gt;Node48 -->
<g id="edge42" class="edge">
<title>Node17&#45;&gt;Node48</title>
<path fill="none" stroke="midnightblue" d="M344.23,-651.72C352.94,-648.67 361.03,-644.01 367,-637 432.9,-559.6 338.05,-259.19 403,-181 412.31,-169.79 427.49,-164.81 441.38,-162.74"/>
<polygon fill="midnightblue" stroke="midnightblue" points="343.27,-648.36 334.6,-654.44 345.17,-655.09 343.27,-648.36"/>
</g>
<!-- Node50 -->
<g id="node44" class="node">
<title>Node50</title>
<g id="a_node44"><a xlink:href="classrack_1_1CmdOutputConf.html" target="_top" xlink:title=" ">
<polygon fill="white" stroke="black" points="427,-114.5 427,-133.5 522,-133.5 522,-114.5 427,-114.5"/>
<text text-anchor="middle" x="474.5" y="-121.5" font-family="Helvetica,sans-Serif" font-size="10.00">CmdOutputConf</text>
</a>
</g>
</g>
<!-- Node17&#45;&gt;Node50 -->
<g id="edge43" class="edge">
<title>Node17&#45;&gt;Node50</title>
<path fill="none" stroke="midnightblue" d="M344.26,-651.75C352.97,-648.7 361.05,-644.03 367,-637 438.1,-552.98 332.92,-227.88 403,-143 409.05,-135.67 417.61,-131 426.68,-128.07"/>
<polygon fill="midnightblue" stroke="midnightblue" points="343.31,-648.39 334.64,-654.47 345.21,-655.12 343.31,-648.39"/>
</g>
<!-- Node51 -->
<g id="node45" class="node">
<title>Node51</title>
<g id="a_node45"><a xlink:href="classrack_1_1CmdQuantityConf.html" target="_top" xlink:title=" ">
<polygon fill="white" stroke="black" points="422.5,-76.5 422.5,-95.5 526.5,-95.5 526.5,-76.5 422.5,-76.5"/>
<text text-anchor="middle" x="474.5" y="-83.5" font-family="Helvetica,sans-Serif" font-size="10.00">CmdQuantityConf</text>
</a>
</g>
</g>
<!-- Node17&#45;&gt;Node51 -->
<g id="edge44" class="edge">
<title>Node17&#45;&gt;Node51</title>
<path fill="none" stroke="midnightblue" d="M344.29,-651.78C353,-648.72 361.07,-644.05 367,-637 443.31,-546.35 327.8,-196.57 403,-105 408.07,-98.83 414.91,-94.54 422.35,-91.59"/>
<polygon fill="midnightblue" stroke="midnightblue" points="343.34,-648.41 334.67,-654.5 345.24,-655.15 343.34,-648.41"/>
</g>
<!-- Node52 -->
<g id="node46" class="node">
<title>Node52</title>
<g id="a_node46"><a xlink:href="classrack_1_1CmdSweep.html" target="_top" xlink:title="&quot;Virtual&quot; command extracting one sweep &#45; actually only modifying selector">
<polygon fill="white" stroke="black" points="439,-38.5 439,-57.5 510,-57.5 510,-38.5 439,-38.5"/>
<text text-anchor="middle" x="474.5" y="-45.5" font-family="Helvetica,sans-Serif" font-size="10.00">CmdSweep</text>
</a>
</g>
</g>
<!-- Node17&#45;&gt;Node52 -->
<g id="edge45" class="edge">
<title>Node17&#45;&gt;Node52</title>
<path fill="none" stroke="midnightblue" d="M344.32,-651.8C353.02,-648.74 361.08,-644.06 367,-637 448.52,-539.72 322.67,-165.26 403,-67 411.66,-56.4 425.57,-51.36 438.74,-49.08"/>
<polygon fill="midnightblue" stroke="midnightblue" points="343.37,-648.43 334.69,-654.52 345.27,-655.17 343.37,-648.43"/>
</g>
<!-- Node53 -->
<g id="node47" class="node">
<title>Node53</title>
<g id="a_node47"><a xlink:href="classrack_1_1CmdVersion.html" target="_top" xlink:title=" ">
<polygon fill="white" stroke="black" points="436.5,-0.5 436.5,-19.5 512.5,-19.5 512.5,-0.5 436.5,-0.5"/>
<text text-anchor="middle" x="474.5" y="-7.5" font-family="Helvetica,sans-Serif" font-size="10.00">CmdVersion</text>
</a>
</g>
</g>
<!-- Node17&#45;&gt;Node53 -->
<g id="edge46" class="edge">
<title>Node17&#45;&gt;Node53</title>
<path fill="none" stroke="midnightblue" d="M344.34,-651.82C353.04,-648.76 361.1,-644.07 367,-637 453.73,-533.09 317.54,-133.96 403,-29 411.08,-19.07 423.76,-14.02 436.15,-11.54"/>
<polygon fill="midnightblue" stroke="midnightblue" points="343.39,-648.45 334.72,-654.54 345.29,-655.19 343.39,-648.45"/>
</g>
</g>
</svg>
