<?xml version="1.0" encoding="UTF-8" standalone="no"?>
<!DOCTYPE svg PUBLIC "-//W3C//DTD SVG 1.1//EN"
 "http://www.w3.org/Graphics/SVG/1.1/DTD/svg11.dtd">
<!-- Generated by graphviz version 2.43.0 (0)
 -->
<!-- Title: PolarDataPicker Pages: 1 -->
<!--zoomable 218 -->
<svg id="main" version="1.1" xmlns="http://www.w3.org/2000/svg" xmlns:xlink="http://www.w3.org/1999/xlink" xml:space="preserve" onload="init(evt)">
<style type="text/css"><![CDATA[
.edge:hover path { stroke: red; }
.edge:hover polygon { stroke: red; fill: red; }
]]></style>
<script type="text/javascript"><![CDATA[
var edges = document.getElementsByTagName('g');
if (edges && edges.length) {
  for (var i=0;i<edges.length;i++) {
    if (edges[i].id.substr(0,4)=='edge') {
      edges[i].setAttribute('class','edge');
    }
  }
}
]]></script>
        <defs>
                <circle id="rim" cx="0" cy="0" r="7"/>
                <circle id="rim2" cx="0" cy="0" r="3.5"/>
                <g id="zoomPlus">
                        <use xlink:href="#rim" fill="#404040">
                                <set attributeName="fill" to="#808080" begin="zoomplus.mouseover" end="zoomplus.mouseout"/>
                        </use>
                        <path d="M-4,0h8M0,-4v8" fill="none" stroke="white" stroke-width="1.5" pointer-events="none"/>
                </g>
                <g id="zoomMin">
                        <use xlink:href="#rim" fill="#404040">
                                <set attributeName="fill" to="#808080" begin="zoomminus.mouseover" end="zoomminus.mouseout"/>
                        </use>
                        <path d="M-4,0h8" fill="none" stroke="white" stroke-width="1.5" pointer-events="none"/>
                </g>
                <g id="dirArrow">
                        <path fill="none" stroke="white" stroke-width="1.5" d="M0,-3.0v7 M-2.5,-0.5L0,-3.0L2.5,-0.5"/>
                </g>
               <g id="resetDef">
                       <use xlink:href="#rim2" fill="#404040">
                               <set attributeName="fill" to="#808080" begin="reset.mouseover" end="reset.mouseout"/>
                       </use>
               </g>
        </defs>

<script type="text/javascript">
var viewWidth = 1572;
var viewHeight = 218;
var sectionId = 'dynsection-1';
</script>
<script xlink:href="svgpan.js"/>
<svg id="graph" class="graph">
<g id="viewport">
<title>PolarDataPicker</title>
<polygon fill="white" stroke="transparent" points="-4,4 -4,-213.5 1568,-213.5 1568,4 -4,4"/>
<!-- Node1 -->
<g id="node1" class="node">
<title>Node1</title>
<g id="a_node1"><a xlink:title=" ">
<polygon fill="#bfbfbf" stroke="black" points="1470,-31 1470,-50 1564,-50 1564,-31 1470,-31"/>
<text text-anchor="middle" x="1517" y="-38" font-family="Helvetica,sans-Serif" font-size="10.00">PolarDataPicker</text>
</a>
</g>
</g>
<!-- Node2 -->
<g id="node2" class="node">
<title>Node2</title>
<g id="a_node2"><a xlink:href="classrack_1_1RadarDataPicker.html" target="_top" xlink:title=" ">
<polygon fill="white" stroke="black" points="1240,-50 1240,-69 1412,-69 1412,-50 1240,-50"/>
<text text-anchor="middle" x="1326" y="-57" font-family="Helvetica,sans-Serif" font-size="10.00">RadarDataPicker&lt; PolarODIM &gt;</text>
</a>
</g>
</g>
<!-- Node2&#45;&gt;Node1 -->
<g id="edge1" class="edge">
<title>Node2&#45;&gt;Node1</title>
<path fill="none" stroke="midnightblue" d="M1422.39,-49.91C1438.93,-48.25 1455.44,-46.59 1469.88,-45.14"/>
<polygon fill="midnightblue" stroke="midnightblue" points="1421.7,-46.46 1412.1,-50.94 1422.4,-53.43 1421.7,-46.46"/>
</g>
<!-- Node3 -->
<g id="node3" class="node">
<title>Node3</title>
<g id="a_node3"><a xlink:href="structdrain_1_1image_1_1SamplePicker.html" target="_top" xlink:title="Interprets data values for Sampler.">
<polygon fill="white" stroke="black" points="749.5,-50 749.5,-69 832.5,-69 832.5,-50 749.5,-50"/>
<text text-anchor="middle" x="791" y="-57" font-family="Helvetica,sans-Serif" font-size="10.00">SamplePicker</text>
</a>
</g>
</g>
<!-- Node3&#45;&gt;Node2 -->
<g id="edge2" class="edge">
<title>Node3&#45;&gt;Node2</title>
<path fill="none" stroke="midnightblue" d="M843.07,-59.5C934.74,-59.5 1128.03,-59.5 1239.96,-59.5"/>
<polygon fill="midnightblue" stroke="midnightblue" points="842.94,-56 832.94,-59.5 842.94,-63 842.94,-56"/>
</g>
<!-- Node4 -->
<g id="node4" class="node">
<title>Node4</title>
<g id="a_node4"><a xlink:href="classdrain_1_1ReferenceMap.html" target="_top" xlink:title=" ">
<polygon fill="white" stroke="black" points="528.5,-61 528.5,-80 615.5,-80 615.5,-61 528.5,-61"/>
<text text-anchor="middle" x="572" y="-68" font-family="Helvetica,sans-Serif" font-size="10.00">ReferenceMap</text>
</a>
</g>
</g>
<!-- Node4&#45;&gt;Node3 -->
<g id="edge3" class="edge">
<title>Node4&#45;&gt;Node3</title>
<path fill="none" stroke="#9a32cd" stroke-dasharray="5,2" d="M625.9,-62.85C634.28,-61.89 642.87,-61.05 651,-60.5 683.99,-58.27 721.48,-58.14 749.2,-58.5"/>
<polygon fill="#9a32cd" stroke="#9a32cd" points="625.33,-59.39 615.82,-64.07 626.17,-66.34 625.33,-59.39"/>
<text text-anchor="middle" x="684" y="-63.5" font-family="Helvetica,sans-Serif" font-size="10.00"> variableMap</text>
</g>
<!-- Node12 -->
<g id="node12" class="node">
<title>Node12</title>
<g id="a_node12"><a xlink:href="classrack_1_1EncodingODIM.html" target="_top" xlink:title="Structure for data storage type, scaling and marker codes. Does not contain quantity.">
<polygon fill="white" stroke="black" points="747,-109 747,-128 835,-128 835,-109 747,-109"/>
<text text-anchor="middle" x="791" y="-116" font-family="Helvetica,sans-Serif" font-size="10.00">EncodingODIM</text>
</a>
</g>
</g>
<!-- Node4&#45;&gt;Node12 -->
<g id="edge12" class="edge">
<title>Node4&#45;&gt;Node12</title>
<path fill="none" stroke="midnightblue" d="M625.74,-82.17C662.86,-90.38 711.93,-101.23 746.74,-108.93"/>
<polygon fill="midnightblue" stroke="midnightblue" points="626.13,-78.67 615.61,-79.93 624.62,-85.5 626.13,-78.67"/>
</g>
<!-- Node5 -->
<g id="node5" class="node">
<title>Node5</title>
<g id="a_node5"><a xlink:href="classdrain_1_1SmartMap.html" target="_top" xlink:title=" ">
<polygon fill="white" stroke="black" points="218,-61 218,-80 361,-80 361,-61 218,-61"/>
<text text-anchor="middle" x="289.5" y="-68" font-family="Helvetica,sans-Serif" font-size="10.00">SmartMap&lt; Referencer &gt;</text>
</a>
</g>
</g>
<!-- Node5&#45;&gt;Node4 -->
<g id="edge4" class="edge">
<title>Node5&#45;&gt;Node4</title>
<path fill="none" stroke="midnightblue" d="M371.34,-70.5C422.52,-70.5 486.65,-70.5 528.21,-70.5"/>
<polygon fill="midnightblue" stroke="midnightblue" points="371.28,-67 361.28,-70.5 371.28,-74 371.28,-67"/>
</g>
<!-- Node6 -->
<g id="node6" class="node">
<title>Node6</title>
<g id="a_node6"><a xlink:title=" ">
<polygon fill="white" stroke="#bfbfbf" points="4,-61 4,-80 173,-80 173,-61 4,-61"/>
<text text-anchor="middle" x="88.5" y="-68" font-family="Helvetica,sans-Serif" font-size="10.00">map&lt; std::string, Referencer &gt;</text>
</a>
</g>
</g>
<!-- Node6&#45;&gt;Node5 -->
<g id="edge5" class="edge">
<title>Node6&#45;&gt;Node5</title>
<path fill="none" stroke="midnightblue" d="M183.21,-70.5C194.84,-70.5 206.58,-70.5 217.79,-70.5"/>
<polygon fill="midnightblue" stroke="midnightblue" points="183.03,-67 173.03,-70.5 183.03,-74 183.03,-67"/>
</g>
<!-- Node7 -->
<g id="node7" class="node">
<title>Node7</title>
<g id="a_node7"><a xlink:href="classdrain_1_1FlexVariableMap.html" target="_top" xlink:title="A map of FlexVariable:s.">
<polygon fill="white" stroke="black" points="522.5,-16 522.5,-35 621.5,-35 621.5,-16 522.5,-16"/>
<text text-anchor="middle" x="572" y="-23" font-family="Helvetica,sans-Serif" font-size="10.00">FlexVariableMap</text>
</a>
</g>
</g>
<!-- Node7&#45;&gt;Node3 -->
<g id="edge6" class="edge">
<title>Node7&#45;&gt;Node3</title>
<path fill="none" stroke="#9a32cd" stroke-dasharray="5,2" d="M631.68,-30.93C657.88,-33.74 689.09,-37.62 717,-42.5 728.66,-44.54 741.26,-47.28 752.65,-49.96"/>
<polygon fill="#9a32cd" stroke="#9a32cd" points="631.83,-27.43 621.52,-29.87 631.11,-34.39 631.83,-27.43"/>
<text text-anchor="middle" x="684" y="-45.5" font-family="Helvetica,sans-Serif" font-size="10.00"> infoMap</text>
</g>
<!-- Node8 -->
<g id="node8" class="node">
<title>Node8</title>
<g id="a_node8"><a xlink:href="classdrain_1_1SmartMap.html" target="_top" xlink:title=" ">
<polygon fill="white" stroke="black" points="214,-16 214,-35 365,-35 365,-16 214,-16"/>
<text text-anchor="middle" x="289.5" y="-23" font-family="Helvetica,sans-Serif" font-size="10.00">SmartMap&lt; FlexVariable &gt;</text>
</a>
</g>
</g>
<!-- Node8&#45;&gt;Node7 -->
<g id="edge7" class="edge">
<title>Node8&#45;&gt;Node7</title>
<path fill="none" stroke="midnightblue" d="M375.4,-25.5C423.54,-25.5 482.03,-25.5 522.44,-25.5"/>
<polygon fill="midnightblue" stroke="midnightblue" points="375.3,-22 365.3,-25.5 375.3,-29 375.3,-22"/>
</g>
<!-- Node9 -->
<g id="node9" class="node">
<title>Node9</title>
<g id="a_node9"><a xlink:title=" ">
<polygon fill="white" stroke="#bfbfbf" points="0,-16 0,-35 177,-35 177,-16 0,-16"/>
<text text-anchor="middle" x="88.5" y="-23" font-family="Helvetica,sans-Serif" font-size="10.00">map&lt; std::string, FlexVariable &gt;</text>
</a>
</g>
</g>
<!-- Node9&#45;&gt;Node8 -->
<g id="edge8" class="edge">
<title>Node9&#45;&gt;Node8</title>
<path fill="none" stroke="midnightblue" d="M187.21,-25.5C196.2,-25.5 205.22,-25.5 213.96,-25.5"/>
<polygon fill="midnightblue" stroke="midnightblue" points="187.07,-22 177.07,-25.5 187.07,-29 187.07,-22"/>
</g>
<!-- Node10 -->
<g id="node10" class="node">
<title>Node10</title>
<g id="a_node10"><a xlink:href="classrack_1_1PolarODIM.html" target="_top" xlink:title="Metadata structure for single&#45;radar data (polar scans, volumes and products).">
<polygon fill="white" stroke="black" points="1108,-110 1108,-129 1176,-129 1176,-110 1108,-110"/>
<text text-anchor="middle" x="1142" y="-117" font-family="Helvetica,sans-Serif" font-size="10.00">PolarODIM</text>
</a>
</g>
</g>
<!-- Node10&#45;&gt;Node2 -->
<g id="edge9" class="edge">
<title>Node10&#45;&gt;Node2</title>
<path fill="none" stroke="#9a32cd" stroke-dasharray="5,2" d="M1181.5,-106.81C1215.72,-95.52 1265,-79.28 1296,-69.06"/>
<polygon fill="#9a32cd" stroke="#9a32cd" points="1180.24,-103.54 1171.84,-109.99 1182.43,-110.19 1180.24,-103.54"/>
<text text-anchor="middle" x="1208" y="-104.5" font-family="Helvetica,sans-Serif" font-size="10.00"> odim</text>
</g>
<!-- Node11 -->
<g id="node11" class="node">
<title>Node11</title>
<g id="a_node11"><a xlink:href="classrack_1_1ODIM.html" target="_top" xlink:title="ODIM metadata (quantity, gain, offset, undetect, nodata, date, time)">
<polygon fill="white" stroke="black" points="945,-127 945,-146 989,-146 989,-127 945,-127"/>
<text text-anchor="middle" x="967" y="-134" font-family="Helvetica,sans-Serif" font-size="10.00">ODIM</text>
</a>
</g>
</g>
<!-- Node11&#45;&gt;Node10 -->
<g id="edge10" class="edge">
<title>Node11&#45;&gt;Node10</title>
<path fill="none" stroke="midnightblue" d="M999.34,-133.42C1029.98,-130.41 1076.47,-125.84 1107.75,-122.77"/>
<polygon fill="midnightblue" stroke="midnightblue" points="998.82,-129.95 989.21,-134.42 999.51,-136.92 998.82,-129.95"/>
</g>
<!-- Node12&#45;&gt;Node11 -->
<g id="edge11" class="edge">
<title>Node12&#45;&gt;Node11</title>
<path fill="none" stroke="midnightblue" d="M845.11,-123.99C878.57,-127.46 919.96,-131.74 944.6,-134.29"/>
<polygon fill="midnightblue" stroke="midnightblue" points="845.32,-120.5 835.01,-122.95 844.6,-127.46 845.32,-120.5"/>
</g>
<!-- Node13 -->
<g id="node13" class="node">
<title>Node13</title>
<g id="a_node13"><a xlink:href="classdrain_1_1ValueScaling.html" target="_top" xlink:title="Linear scaling and physical range for image intensities.">
<polygon fill="white" stroke="black" points="532,-110 532,-129 612,-129 612,-110 532,-110"/>
<text text-anchor="middle" x="572" y="-117" font-family="Helvetica,sans-Serif" font-size="10.00">ValueScaling</text>
</a>
</g>
</g>
<!-- Node13&#45;&gt;Node12 -->
<g id="edge13" class="edge">
<title>Node13&#45;&gt;Node12</title>
<path fill="none" stroke="#9a32cd" stroke-dasharray="5,2" d="M622.24,-119.27C659.74,-119.1 710.88,-118.86 746.8,-118.7"/>
<polygon fill="#9a32cd" stroke="#9a32cd" points="622.03,-115.77 612.05,-119.32 622.06,-122.77 622.03,-115.77"/>
<text text-anchor="middle" x="684" y="-143.5" font-family="Helvetica,sans-Serif" font-size="10.00"> scalingConst</text>
<text text-anchor="middle" x="684" y="-132.5" font-family="Helvetica,sans-Serif" font-size="10.00">scaling</text>
<text text-anchor="middle" x="684" y="-121.5" font-family="Helvetica,sans-Serif" font-size="10.00">ownScaling</text>
</g>
<!-- Node14 -->
<g id="node14" class="node">
<title>Node14</title>
<g id="a_node14"><a xlink:href="classdrain_1_1UniTuple.html" target="_top" xlink:title=" ">
<polygon fill="white" stroke="black" points="226.5,-148 226.5,-167 352.5,-167 352.5,-148 226.5,-148"/>
<text text-anchor="middle" x="289.5" y="-155" font-family="Helvetica,sans-Serif" font-size="10.00">UniTuple&lt; double, 4 &gt;</text>
</a>
</g>
</g>
<!-- Node14&#45;&gt;Node13 -->
<g id="edge14" class="edge">
<title>Node14&#45;&gt;Node13</title>
<path fill="none" stroke="midnightblue" d="M362.84,-150.65C401.54,-146.64 449.98,-141.07 493,-134.5 505.68,-132.56 519.44,-130.05 531.82,-127.64"/>
<polygon fill="midnightblue" stroke="midnightblue" points="362.29,-147.18 352.7,-151.68 363.01,-154.15 362.29,-147.18"/>
</g>
<!-- Node15 -->
<g id="node15" class="node">
<title>Node15</title>
<g id="a_node15"><a xlink:href="classdrain_1_1Range.html" target="_top" xlink:title=" ">
<polygon fill="white" stroke="black" points="238,-110 238,-129 341,-129 341,-110 238,-110"/>
<text text-anchor="middle" x="289.5" y="-117" font-family="Helvetica,sans-Serif" font-size="10.00">Range&lt; double &gt;</text>
</a>
</g>
</g>
<!-- Node15&#45;&gt;Node13 -->
<g id="edge15" class="edge">
<title>Node15&#45;&gt;Node13</title>
<path fill="none" stroke="#9a32cd" stroke-dasharray="5,2" d="M351.58,-119.5C406.36,-119.5 485.13,-119.5 531.88,-119.5"/>
<polygon fill="#9a32cd" stroke="#9a32cd" points="351.3,-116 341.3,-119.5 351.3,-123 351.3,-116"/>
<text text-anchor="middle" x="438" y="-122.5" font-family="Helvetica,sans-Serif" font-size="10.00"> physRange</text>
</g>
<!-- Node16 -->
<g id="node16" class="node">
<title>Node16</title>
<g id="a_node16"><a xlink:href="classdrain_1_1UniTuple.html" target="_top" xlink:title=" ">
<polygon fill="white" stroke="black" points="25.5,-149 25.5,-168 151.5,-168 151.5,-149 25.5,-149"/>
<text text-anchor="middle" x="88.5" y="-156" font-family="Helvetica,sans-Serif" font-size="10.00">UniTuple&lt; double, 2 &gt;</text>
</a>
</g>
</g>
<!-- Node16&#45;&gt;Node15 -->
<g id="edge16" class="edge">
<title>Node16&#45;&gt;Node15</title>
<path fill="none" stroke="midnightblue" d="M148.25,-146.99C177.45,-141.26 212.32,-134.43 239.98,-129.01"/>
<polygon fill="midnightblue" stroke="midnightblue" points="147.32,-143.6 138.18,-148.96 148.67,-150.47 147.32,-143.6"/>
</g>
<!-- Node17 -->
<g id="node17" class="node">
<title>Node17</title>
<g id="a_node17"><a xlink:href="structdrain_1_1Point2D.html" target="_top" xlink:title=" ">
<polygon fill="white" stroke="black" points="383,-188 383,-207 493,-207 493,-188 383,-188"/>
<text text-anchor="middle" x="438" y="-195" font-family="Helvetica,sans-Serif" font-size="10.00">Point2D&lt; double &gt;</text>
</a>
</g>
</g>
<!-- Node16&#45;&gt;Node17 -->
<g id="edge18" class="edge">
<title>Node16&#45;&gt;Node17</title>
<path fill="none" stroke="midnightblue" d="M161.18,-169.48C178.46,-171.96 196.87,-174.46 214,-176.5 271.53,-183.36 337.64,-189.35 382.85,-193.16"/>
<polygon fill="midnightblue" stroke="midnightblue" points="161.56,-166 151.16,-168.03 160.56,-172.93 161.56,-166"/>
</g>
<!-- Node17&#45;&gt;Node11 -->
<g id="edge17" class="edge">
<title>Node17&#45;&gt;Node11</title>
<path fill="none" stroke="#9a32cd" stroke-dasharray="5,2" d="M503.08,-200.18C584.01,-202.28 727.16,-201.68 847,-178.5 882.49,-171.63 921.67,-156.17 945.03,-146.05"/>
<polygon fill="#9a32cd" stroke="#9a32cd" points="503.14,-196.68 493.05,-199.9 502.95,-203.68 503.14,-196.68"/>
<text text-anchor="middle" x="684" y="-201.5" font-family="Helvetica,sans-Serif" font-size="10.00"> resolution</text>
</g>
<!-- Node18 -->
<g id="node18" class="node">
<title>Node18</title>
<g id="a_node18"><a xlink:href="classdrain_1_1Frame2D.html" target="_top" xlink:title=" ">
<polygon fill="white" stroke="black" points="735,-150 735,-169 847,-169 847,-150 735,-150"/>
<text text-anchor="middle" x="791" y="-157" font-family="Helvetica,sans-Serif" font-size="10.00">Frame2D&lt; size_t &gt;</text>
</a>
</g>
</g>
<!-- Node18&#45;&gt;Node11 -->
<g id="edge19" class="edge">
<title>Node18&#45;&gt;Node11</title>
<path fill="none" stroke="#9a32cd" stroke-dasharray="5,2" d="M856.98,-150.91C888.06,-146.8 923.15,-142.16 944.92,-139.29"/>
<polygon fill="#9a32cd" stroke="#9a32cd" points="856.51,-147.44 847.05,-152.22 857.43,-154.38 856.51,-147.44"/>
<text text-anchor="middle" x="877.5" y="-151.5" font-family="Helvetica,sans-Serif" font-size="10.00"> area</text>
</g>
<!-- Node19 -->
<g id="node19" class="node">
<title>Node19</title>
<g id="a_node19"><a xlink:href="classdrain_1_1UniTuple.html" target="_top" xlink:title=" ">
<polygon fill="white" stroke="black" points="511,-152 511,-171 633,-171 633,-152 511,-152"/>
<text text-anchor="middle" x="572" y="-159" font-family="Helvetica,sans-Serif" font-size="10.00">UniTuple&lt; size_t, 2 &gt;</text>
</a>
</g>
</g>
<!-- Node19&#45;&gt;Node18 -->
<g id="edge20" class="edge">
<title>Node19&#45;&gt;Node18</title>
<path fill="none" stroke="midnightblue" d="M643.45,-160.85C673.13,-160.58 707.14,-160.26 734.93,-160.01"/>
<polygon fill="midnightblue" stroke="midnightblue" points="643.13,-157.35 633.16,-160.95 643.19,-164.35 643.13,-157.35"/>
</g>
<!-- Node20 -->
<g id="node20" class="node">
<title>Node20</title>
<g id="a_node20"><a xlink:href="classrack_1_1RadarProj4.html" target="_top" xlink:title=" ">
<polygon fill="white" stroke="black" points="1291,-12 1291,-31 1361,-31 1361,-12 1291,-12"/>
<text text-anchor="middle" x="1326" y="-19" font-family="Helvetica,sans-Serif" font-size="10.00">RadarProj4</text>
</a>
</g>
</g>
<!-- Node20&#45;&gt;Node1 -->
<g id="edge21" class="edge">
<title>Node20&#45;&gt;Node1</title>
<path fill="none" stroke="#9a32cd" stroke-dasharray="5,2" d="M1371.2,-24.39C1395.15,-26.12 1425.23,-28.55 1452,-31.5 1457.8,-32.14 1463.88,-32.89 1469.9,-33.68"/>
<polygon fill="#9a32cd" stroke="#9a32cd" points="1371.23,-20.88 1361.01,-23.67 1370.73,-27.86 1371.23,-20.88"/>
<text text-anchor="middle" x="1441" y="-34.5" font-family="Helvetica,sans-Serif" font-size="10.00"> proj</text>
</g>
<!-- Node21 -->
<g id="node21" class="node">
<title>Node21</title>
<g id="a_node21"><a xlink:href="classdrain_1_1Proj4.html" target="_top" xlink:title=" ">
<polygon fill="white" stroke="black" points="1121.5,-11 1121.5,-30 1162.5,-30 1162.5,-11 1121.5,-11"/>
<text text-anchor="middle" x="1142" y="-18" font-family="Helvetica,sans-Serif" font-size="10.00">Proj4</text>
</a>
</g>
</g>
<!-- Node21&#45;&gt;Node20 -->
<g id="edge22" class="edge">
<title>Node21&#45;&gt;Node20</title>
<path fill="none" stroke="midnightblue" d="M1173.04,-20.67C1205.48,-20.84 1257.07,-21.13 1290.98,-21.31"/>
<polygon fill="midnightblue" stroke="midnightblue" points="1172.84,-17.16 1162.82,-20.61 1172.8,-24.16 1172.84,-17.16"/>
</g>
<!-- Node22 -->
<g id="node22" class="node">
<title>Node22</title>
<g id="a_node22"><a xlink:href="classdrain_1_1Dictionary2.html" target="_top" xlink:title=" ">
<polygon fill="white" stroke="black" points="908,-0.5 908,-30.5 1026,-30.5 1026,-0.5 908,-0.5"/>
<text text-anchor="start" x="916" y="-18.5" font-family="Helvetica,sans-Serif" font-size="10.00">Dictionary2&lt; int, std</text>
<text text-anchor="middle" x="967" y="-7.5" font-family="Helvetica,sans-Serif" font-size="10.00">::string &gt;</text>
</a>
</g>
</g>
<!-- Node22&#45;&gt;Node21 -->
<g id="edge23" class="edge">
<title>Node22&#45;&gt;Node21</title>
<path fill="none" stroke="#9a32cd" stroke-dasharray="5,2" d="M1036.31,-17.47C1066.86,-18.36 1100.59,-19.33 1121.29,-19.93"/>
<polygon fill="#9a32cd" stroke="#9a32cd" points="1036.18,-13.97 1026.09,-17.18 1035.98,-20.97 1036.18,-13.97"/>
<text text-anchor="middle" x="1067" y="-22.5" font-family="Helvetica,sans-Serif" font-size="10.00"> epsgDict</text>
</g>
<!-- Node23 -->
<g id="node23" class="node">
<title>Node23</title>
<g id="a_node23"><a xlink:title=" ">
<polygon fill="white" stroke="#bfbfbf" points="736,-0.5 736,-30.5 846,-30.5 846,-0.5 736,-0.5"/>
<text text-anchor="start" x="744" y="-18.5" font-family="Helvetica,sans-Serif" font-size="10.00">list&lt; std::pair&lt; int,</text>
<text text-anchor="middle" x="791" y="-7.5" font-family="Helvetica,sans-Serif" font-size="10.00"> std::string &gt; &gt;</text>
</a>
</g>
</g>
<!-- Node23&#45;&gt;Node22 -->
<g id="edge24" class="edge">
<title>Node23&#45;&gt;Node22</title>
<path fill="none" stroke="midnightblue" d="M856.39,-15.5C873.2,-15.5 891.23,-15.5 907.71,-15.5"/>
<polygon fill="midnightblue" stroke="midnightblue" points="856.1,-12 846.1,-15.5 856.1,-19 856.1,-12"/>
</g>
</g>
</svg>
        <g id="navigator" transform="translate(0 0)" fill="#404254">
                <rect fill="#f2f5e9" fill-opacity="0.5" stroke="#606060" stroke-width=".5" x="0" y="0" width="60" height="60"/>
                <use id="zoomplus" xlink:href="#zoomPlus" x="17" y="9" onmousedown="handleZoom(evt,'in')"/>
                <use id="zoomminus" xlink:href="#zoomMin" x="42" y="9" onmousedown="handleZoom(evt,'out')"/>
                <use id="reset" xlink:href="#resetDef" x="30" y="36" onmousedown="handleReset()"/>
                <g id="arrowUp" xlink:href="#dirArrow" transform="translate(30 24)" onmousedown="handlePan(0,-1)">
                  <use xlink:href="#rim" fill="#404040">
                        <set attributeName="fill" to="#808080" begin="arrowUp.mouseover" end="arrowUp.mouseout"/>
                  </use>
                  <path fill="none" stroke="white" stroke-width="1.5" d="M0,-3.0v7 M-2.5,-0.5L0,-3.0L2.5,-0.5"/>
                </g>
                <g id="arrowRight" xlink:href="#dirArrow" transform="rotate(90) translate(36 -43)" onmousedown="handlePan(1,0)">
                  <use xlink:href="#rim" fill="#404040">
                        <set attributeName="fill" to="#808080" begin="arrowRight.mouseover" end="arrowRight.mouseout"/>
                  </use>
                  <path fill="none" stroke="white" stroke-width="1.5" d="M0,-3.0v7 M-2.5,-0.5L0,-3.0L2.5,-0.5"/>
                </g>
                <g id="arrowDown" xlink:href="#dirArrow" transform="rotate(180) translate(-30 -48)" onmousedown="handlePan(0,1)">
                  <use xlink:href="#rim" fill="#404040">
                        <set attributeName="fill" to="#808080" begin="arrowDown.mouseover" end="arrowDown.mouseout"/>
                  </use>
                  <path fill="none" stroke="white" stroke-width="1.5" d="M0,-3.0v7 M-2.5,-0.5L0,-3.0L2.5,-0.5"/>
                </g>
                <g id="arrowLeft" xlink:href="#dirArrow" transform="rotate(270) translate(-36 17)" onmousedown="handlePan(-1,0)">
                  <use xlink:href="#rim" fill="#404040">
                        <set attributeName="fill" to="#808080" begin="arrowLeft.mouseover" end="arrowLeft.mouseout"/>
                  </use>
                  <path fill="none" stroke="white" stroke-width="1.5" d="M0,-3.0v7 M-2.5,-0.5L0,-3.0L2.5,-0.5"/>
                </g>
        </g>
        <svg viewBox="0 0 15 15" width="100%" height="30px" preserveAspectRatio="xMaxYMin meet">
         <g id="arrow_out" transform="scale(0.3 0.3)">
          <a xlink:href="classrack_1_1PolarDataPicker__coll__graph_org.svg" target="_base">
           <rect id="button" ry="5" rx="5" y="6" x="6" height="38" width="38"
                fill="#f2f5e9" fill-opacity="0.5" stroke="#606060" stroke-width="1.0"/>
           <path id="arrow"
             d="M 11.500037,31.436501 C 11.940474,20.09759 22.043105,11.32322 32.158766,21.979434 L 37.068811,17.246167 C 37.068811,17.246167 37.088388,32 37.088388,32 L 22.160133,31.978069 C 22.160133,31.978069 26.997745,27.140456 26.997745,27.140456 C 18.528582,18.264221 13.291696,25.230495 11.500037,31.436501 z"
             style="fill:#404040;"/>
          </a>
         </g>
        </svg>
</svg>
