<?xml version="1.0" encoding="UTF-8" standalone="no"?>
<!DOCTYPE svg PUBLIC "-//W3C//DTD SVG 1.1//EN"
 "http://www.w3.org/Graphics/SVG/1.1/DTD/svg11.dtd">
<!-- Generated by graphviz version 2.43.0 (0)
 -->
<!-- Title: SegmentProber&lt; S, D, C &gt; Pages: 1 -->
<svg width="1749pt" height="322pt"
 viewBox="0.00 0.00 1749.00 322.00" xmlns="http://www.w3.org/2000/svg" xmlns:xlink="http://www.w3.org/1999/xlink">
<g id="graph0" class="graph" transform="scale(1 1) rotate(0) translate(4 318)">
<title>SegmentProber&lt; S, D, C &gt;</title>
<polygon fill="white" stroke="transparent" points="-4,4 -4,-318 1745,-318 1745,4 -4,4"/>
<!-- Node1 -->
<g id="node1" class="node">
<title>Node1</title>
<g id="a_node1"><a xlink:title="A recursive method for visiting pixels of a segment in an image.">
<polygon fill="#bfbfbf" stroke="black" points="1595,-145.5 1595,-164.5 1741,-164.5 1741,-145.5 1595,-145.5"/>
<text text-anchor="middle" x="1668" y="-152.5" font-family="Helvetica,sans-Serif" font-size="10.00">SegmentProber&lt; S, D, C &gt;</text>
</a>
</g>
</g>
<!-- Node2 -->
<g id="node2" class="node">
<title>Node2</title>
<g id="a_node2"><a xlink:href="classdrain_1_1image_1_1Channel.html" target="_top" xlink:title="Image with static geometry.">
<polygon fill="white" stroke="black" points="1485,-167.5 1485,-186.5 1541,-186.5 1541,-167.5 1485,-167.5"/>
<text text-anchor="middle" x="1513" y="-174.5" font-family="Helvetica,sans-Serif" font-size="10.00">Channel</text>
</a>
</g>
</g>
<!-- Node2&#45;&gt;Node1 -->
<g id="edge1" class="edge">
<title>Node2&#45;&gt;Node1</title>
<path fill="none" stroke="#9a32cd" stroke-dasharray="5,2" d="M1551.33,-171.63C1566.24,-169.49 1583.88,-166.95 1600.82,-164.52"/>
<polygon fill="#9a32cd" stroke="#9a32cd" points="1550.4,-168.23 1541,-173.12 1551.4,-175.16 1550.4,-168.23"/>
<text text-anchor="middle" x="1568" y="-185" font-family="Helvetica,sans-Serif" font-size="10.00"> src</text>
<text text-anchor="middle" x="1568" y="-174" font-family="Helvetica,sans-Serif" font-size="10.00">dst</text>
</g>
<!-- Node3 -->
<g id="node3" class="node">
<title>Node3</title>
<g id="a_node3"><a xlink:href="classdrain_1_1image_1_1ImageFrame.html" target="_top" xlink:title="Image with static geometry.">
<polygon fill="white" stroke="black" points="1370,-190.5 1370,-209.5 1448,-209.5 1448,-190.5 1370,-190.5"/>
<text text-anchor="middle" x="1409" y="-197.5" font-family="Helvetica,sans-Serif" font-size="10.00">ImageFrame</text>
</a>
</g>
</g>
<!-- Node3&#45;&gt;Node2 -->
<g id="edge2" class="edge">
<title>Node3&#45;&gt;Node2</title>
<path fill="none" stroke="midnightblue" d="M1458.16,-189.14C1467.38,-187.06 1476.72,-184.96 1484.97,-183.09"/>
<polygon fill="midnightblue" stroke="midnightblue" points="1457.26,-185.76 1448.27,-191.37 1458.8,-192.58 1457.26,-185.76"/>
</g>
<!-- Node4 -->
<g id="node4" class="node">
<title>Node4</title>
<g id="a_node4"><a xlink:href="classdrain_1_1image_1_1ImageLike.html" target="_top" xlink:title="A base class for images.">
<polygon fill="white" stroke="black" points="1184,-178.5 1184,-197.5 1251,-197.5 1251,-178.5 1184,-178.5"/>
<text text-anchor="middle" x="1217.5" y="-185.5" font-family="Helvetica,sans-Serif" font-size="10.00">ImageLike</text>
</a>
</g>
</g>
<!-- Node4&#45;&gt;Node3 -->
<g id="edge3" class="edge">
<title>Node4&#45;&gt;Node3</title>
<path fill="none" stroke="midnightblue" d="M1261.23,-190.71C1293.91,-192.78 1338.54,-195.6 1369.99,-197.59"/>
<polygon fill="midnightblue" stroke="midnightblue" points="1261.28,-187.2 1251.08,-190.06 1260.83,-194.19 1261.28,-187.2"/>
</g>
<!-- Node5 -->
<g id="node5" class="node">
<title>Node5</title>
<g id="a_node5"><a xlink:href="classdrain_1_1image_1_1ImageConf.html" target="_top" xlink:title="Struct for image (excluding data)">
<polygon fill="white" stroke="black" points="926.5,-173.5 926.5,-192.5 996.5,-192.5 996.5,-173.5 926.5,-173.5"/>
<text text-anchor="middle" x="961.5" y="-180.5" font-family="Helvetica,sans-Serif" font-size="10.00">ImageConf</text>
</a>
</g>
</g>
<!-- Node5&#45;&gt;Node4 -->
<g id="edge4" class="edge">
<title>Node5&#45;&gt;Node4</title>
<path fill="none" stroke="#9a32cd" stroke-dasharray="5,2" d="M1007.06,-183.88C1057.67,-184.87 1139.02,-186.47 1183.99,-187.36"/>
<polygon fill="#9a32cd" stroke="#9a32cd" points="1006.82,-180.37 996.76,-183.67 1006.68,-187.37 1006.82,-180.37"/>
<text text-anchor="middle" x="1102.5" y="-190" font-family="Helvetica,sans-Serif" font-size="10.00"> conf</text>
</g>
<!-- Node6 -->
<g id="node6" class="node">
<title>Node6</title>
<g id="a_node6"><a xlink:href="classdrain_1_1image_1_1Encoding.html" target="_top" xlink:title=" ">
<polygon fill="white" stroke="black" points="646,-218.5 646,-237.5 707,-237.5 707,-218.5 646,-218.5"/>
<text text-anchor="middle" x="676.5" y="-225.5" font-family="Helvetica,sans-Serif" font-size="10.00">Encoding</text>
</a>
</g>
</g>
<!-- Node6&#45;&gt;Node5 -->
<g id="edge5" class="edge">
<title>Node6&#45;&gt;Node5</title>
<path fill="none" stroke="midnightblue" d="M717.47,-221.64C773.33,-212.76 873.79,-196.79 926.34,-188.43"/>
<polygon fill="midnightblue" stroke="midnightblue" points="716.58,-218.24 707.25,-223.27 717.68,-225.16 716.58,-218.24"/>
</g>
<!-- Node7 -->
<g id="node7" class="node">
<title>Node7</title>
<g id="a_node7"><a xlink:href="classdrain_1_1ValueScaling.html" target="_top" xlink:title="Linear scaling and physical range for image intensities.">
<polygon fill="white" stroke="black" points="404,-241.5 404,-260.5 484,-260.5 484,-241.5 404,-241.5"/>
<text text-anchor="middle" x="444" y="-248.5" font-family="Helvetica,sans-Serif" font-size="10.00">ValueScaling</text>
</a>
</g>
</g>
<!-- Node7&#45;&gt;Node6 -->
<g id="edge6" class="edge">
<title>Node7&#45;&gt;Node6</title>
<path fill="none" stroke="midnightblue" d="M494.15,-246.1C540.16,-241.5 607.4,-234.8 645.76,-230.97"/>
<polygon fill="midnightblue" stroke="midnightblue" points="493.7,-242.62 484.1,-247.1 494.4,-249.59 493.7,-242.62"/>
</g>
<!-- Node8 -->
<g id="node8" class="node">
<title>Node8</title>
<g id="a_node8"><a xlink:href="classdrain_1_1UniTuple.html" target="_top" xlink:title=" ">
<polygon fill="white" stroke="black" points="163,-223.5 163,-242.5 289,-242.5 289,-223.5 163,-223.5"/>
<text text-anchor="middle" x="226" y="-230.5" font-family="Helvetica,sans-Serif" font-size="10.00">UniTuple&lt; double, 4 &gt;</text>
</a>
</g>
</g>
<!-- Node8&#45;&gt;Node7 -->
<g id="edge7" class="edge">
<title>Node8&#45;&gt;Node7</title>
<path fill="none" stroke="midnightblue" d="M299.36,-239.03C334.32,-241.94 374.9,-245.33 403.99,-247.75"/>
<polygon fill="midnightblue" stroke="midnightblue" points="299.44,-235.52 289.19,-238.18 298.86,-242.5 299.44,-235.52"/>
</g>
<!-- Node9 -->
<g id="node9" class="node">
<title>Node9</title>
<g id="a_node9"><a xlink:href="classdrain_1_1Range.html" target="_top" xlink:title=" ">
<polygon fill="white" stroke="black" points="174.5,-261.5 174.5,-280.5 277.5,-280.5 277.5,-261.5 174.5,-261.5"/>
<text text-anchor="middle" x="226" y="-268.5" font-family="Helvetica,sans-Serif" font-size="10.00">Range&lt; double &gt;</text>
</a>
</g>
</g>
<!-- Node9&#45;&gt;Node7 -->
<g id="edge8" class="edge">
<title>Node9&#45;&gt;Node7</title>
<path fill="none" stroke="#9a32cd" stroke-dasharray="5,2" d="M287.86,-265.36C325.03,-261.92 371.46,-257.62 403.8,-254.63"/>
<polygon fill="#9a32cd" stroke="#9a32cd" points="287.28,-261.9 277.64,-266.31 287.92,-268.87 287.28,-261.9"/>
<text text-anchor="middle" x="336" y="-266" font-family="Helvetica,sans-Serif" font-size="10.00"> physRange</text>
</g>
<!-- Node10 -->
<g id="node10" class="node">
<title>Node10</title>
<g id="a_node10"><a xlink:href="classdrain_1_1UniTuple.html" target="_top" xlink:title=" ">
<polygon fill="white" stroke="black" points="0,-261.5 0,-280.5 126,-280.5 126,-261.5 0,-261.5"/>
<text text-anchor="middle" x="63" y="-268.5" font-family="Helvetica,sans-Serif" font-size="10.00">UniTuple&lt; double, 2 &gt;</text>
</a>
</g>
</g>
<!-- Node10&#45;&gt;Node9 -->
<g id="edge9" class="edge">
<title>Node10&#45;&gt;Node9</title>
<path fill="none" stroke="midnightblue" d="M136.44,-271C149.24,-271 162.33,-271 174.37,-271"/>
<polygon fill="midnightblue" stroke="midnightblue" points="136.25,-267.5 126.25,-271 136.25,-274.5 136.25,-267.5"/>
</g>
<!-- Node11 -->
<g id="node11" class="node">
<title>Node11</title>
<g id="a_node11"><a xlink:href="classdrain_1_1Caster.html" target="_top" xlink:title=" ">
<polygon fill="white" stroke="black" points="420,-285.5 420,-304.5 468,-304.5 468,-285.5 420,-285.5"/>
<text text-anchor="middle" x="444" y="-292.5" font-family="Helvetica,sans-Serif" font-size="10.00">Caster</text>
</a>
</g>
</g>
<!-- Node11&#45;&gt;Node6 -->
<g id="edge10" class="edge">
<title>Node11&#45;&gt;Node6</title>
<path fill="none" stroke="#9a32cd" stroke-dasharray="5,2" d="M477.67,-282.26C491.56,-277 507.99,-270.98 523,-266 551.57,-256.53 558.83,-254.42 588,-247 607.13,-242.13 628.82,-237.42 645.81,-233.9"/>
<polygon fill="#9a32cd" stroke="#9a32cd" points="476.15,-279.1 468.05,-285.93 478.65,-285.63 476.15,-279.1"/>
<text text-anchor="middle" x="546.5" y="-269" font-family="Helvetica,sans-Serif" font-size="10.00"> caster</text>
</g>
<!-- Node22 -->
<g id="node22" class="node">
<title>Node22</title>
<g id="a_node22"><a xlink:href="classdrain_1_1Castable.html" target="_top" xlink:title=" ">
<polygon fill="white" stroke="black" points="647,-256.5 647,-275.5 706,-275.5 706,-256.5 647,-256.5"/>
<text text-anchor="middle" x="676.5" y="-263.5" font-family="Helvetica,sans-Serif" font-size="10.00">Castable</text>
</a>
</g>
</g>
<!-- Node11&#45;&gt;Node22 -->
<g id="edge23" class="edge">
<title>Node11&#45;&gt;Node22</title>
<path fill="none" stroke="#9a32cd" stroke-dasharray="5,2" d="M478.57,-290.78C523.9,-285.07 603.94,-275 646.69,-269.63"/>
<polygon fill="#9a32cd" stroke="#9a32cd" points="477.85,-287.34 468.37,-292.06 478.73,-294.28 477.85,-287.34"/>
<text text-anchor="middle" x="546.5" y="-287" font-family="Helvetica,sans-Serif" font-size="10.00"> caster</text>
</g>
<!-- Node12 -->
<g id="node12" class="node">
<title>Node12</title>
<g id="a_node12"><a xlink:href="classdrain_1_1image_1_1Geometry.html" target="_top" xlink:title=" ">
<polygon fill="white" stroke="black" points="644,-170.5 644,-189.5 709,-189.5 709,-170.5 644,-170.5"/>
<text text-anchor="middle" x="676.5" y="-177.5" font-family="Helvetica,sans-Serif" font-size="10.00">Geometry</text>
</a>
</g>
</g>
<!-- Node12&#45;&gt;Node5 -->
<g id="edge11" class="edge">
<title>Node12&#45;&gt;Node5</title>
<path fill="none" stroke="midnightblue" d="M719.46,-180.44C775.72,-181.04 874.52,-182.09 926.43,-182.64"/>
<polygon fill="midnightblue" stroke="midnightblue" points="719.18,-176.94 709.14,-180.34 719.1,-183.94 719.18,-176.94"/>
</g>
<!-- Node13 -->
<g id="node13" class="node">
<title>Node13</title>
<g id="a_node13"><a xlink:href="classdrain_1_1UniTuple.html" target="_top" xlink:title=" ">
<polygon fill="white" stroke="black" points="383,-165.5 383,-184.5 505,-184.5 505,-165.5 383,-165.5"/>
<text text-anchor="middle" x="444" y="-172.5" font-family="Helvetica,sans-Serif" font-size="10.00">UniTuple&lt; size_t, 4 &gt;</text>
</a>
</g>
</g>
<!-- Node13&#45;&gt;Node12 -->
<g id="edge12" class="edge">
<title>Node13&#45;&gt;Node12</title>
<path fill="none" stroke="midnightblue" d="M515.37,-176.53C558.26,-177.46 610.97,-178.6 643.91,-179.31"/>
<polygon fill="midnightblue" stroke="midnightblue" points="515.33,-173.02 505.26,-176.31 515.18,-180.02 515.33,-173.02"/>
</g>
<!-- Node14 -->
<g id="node14" class="node">
<title>Node14</title>
<g id="a_node14"><a xlink:href="classdrain_1_1Frame2D.html" target="_top" xlink:title=" ">
<polygon fill="white" stroke="black" points="388,-203.5 388,-222.5 500,-222.5 500,-203.5 388,-203.5"/>
<text text-anchor="middle" x="444" y="-210.5" font-family="Helvetica,sans-Serif" font-size="10.00">Frame2D&lt; size_t &gt;</text>
</a>
</g>
</g>
<!-- Node14&#45;&gt;Node12 -->
<g id="edge13" class="edge">
<title>Node14&#45;&gt;Node12</title>
<path fill="none" stroke="#9a32cd" stroke-dasharray="5,2" d="M510.19,-203.67C553.89,-197.41 609.5,-189.45 643.79,-184.54"/>
<polygon fill="#9a32cd" stroke="#9a32cd" points="509.61,-200.21 500.21,-205.1 510.61,-207.14 509.61,-200.21"/>
<text text-anchor="middle" x="546.5" y="-205" font-family="Helvetica,sans-Serif" font-size="10.00"> area</text>
</g>
<!-- Node15 -->
<g id="node15" class="node">
<title>Node15</title>
<g id="a_node15"><a xlink:href="classdrain_1_1UniTuple.html" target="_top" xlink:title=" ">
<polygon fill="white" stroke="black" points="165,-164.5 165,-183.5 287,-183.5 287,-164.5 165,-164.5"/>
<text text-anchor="middle" x="226" y="-171.5" font-family="Helvetica,sans-Serif" font-size="10.00">UniTuple&lt; size_t, 2 &gt;</text>
</a>
</g>
</g>
<!-- Node15&#45;&gt;Node14 -->
<g id="edge14" class="edge">
<title>Node15&#45;&gt;Node14</title>
<path fill="none" stroke="midnightblue" d="M289.94,-185.36C321.81,-191.12 360.05,-198.02 390.33,-203.49"/>
<polygon fill="midnightblue" stroke="midnightblue" points="290.3,-181.87 279.84,-183.54 289.06,-188.76 290.3,-181.87"/>
</g>
<!-- Node16 -->
<g id="node16" class="node">
<title>Node16</title>
<g id="a_node16"><a xlink:href="classdrain_1_1image_1_1ChannelGeometry.html" target="_top" xlink:title=" ">
<polygon fill="white" stroke="black" points="391.5,-127.5 391.5,-146.5 496.5,-146.5 496.5,-127.5 391.5,-127.5"/>
<text text-anchor="middle" x="444" y="-134.5" font-family="Helvetica,sans-Serif" font-size="10.00">ChannelGeometry</text>
</a>
</g>
</g>
<!-- Node15&#45;&gt;Node16 -->
<g id="edge16" class="edge">
<title>Node15&#45;&gt;Node16</title>
<path fill="none" stroke="midnightblue" d="M292.68,-162.75C324.31,-157.33 361.7,-150.93 391.27,-145.86"/>
<polygon fill="midnightblue" stroke="midnightblue" points="291.89,-159.33 282.63,-164.47 293.07,-166.23 291.89,-159.33"/>
</g>
<!-- Node16&#45;&gt;Node12 -->
<g id="edge15" class="edge">
<title>Node16&#45;&gt;Node12</title>
<path fill="none" stroke="#9a32cd" stroke-dasharray="5,2" d="M506.25,-148.43C550.57,-156.69 608.67,-167.53 643.98,-174.12"/>
<polygon fill="#9a32cd" stroke="#9a32cd" points="506.63,-144.94 496.16,-146.54 505.34,-151.82 506.63,-144.94"/>
<text text-anchor="middle" x="546.5" y="-163" font-family="Helvetica,sans-Serif" font-size="10.00"> channels</text>
</g>
<!-- Node17 -->
<g id="node17" class="node">
<title>Node17</title>
<g id="a_node17"><a xlink:href="classdrain_1_1image_1_1CoordinatePolicy.html" target="_top" xlink:title="Policies for coordinate underflows and overflows.">
<polygon fill="white" stroke="black" points="627,-83.5 627,-102.5 726,-102.5 726,-83.5 627,-83.5"/>
<text text-anchor="middle" x="676.5" y="-90.5" font-family="Helvetica,sans-Serif" font-size="10.00">CoordinatePolicy</text>
</a>
</g>
</g>
<!-- Node17&#45;&gt;Node5 -->
<g id="edge17" class="edge">
<title>Node17&#45;&gt;Node5</title>
<path fill="none" stroke="#9a32cd" stroke-dasharray="5,2" d="M717.3,-105.66C774.59,-123.88 879.02,-157.09 930.36,-173.42"/>
<polygon fill="#9a32cd" stroke="#9a32cd" points="718.11,-102.24 707.52,-102.55 715.99,-108.91 718.11,-102.24"/>
<text text-anchor="middle" x="825.5" y="-155" font-family="Helvetica,sans-Serif" font-size="10.00"> coordinatePolicy</text>
</g>
<!-- Node26 -->
<g id="node26" class="node">
<title>Node26</title>
<g id="a_node26"><a xlink:href="classdrain_1_1image_1_1CoordinateHandler2D.html" target="_top" xlink:title=" ">
<polygon fill="white" stroke="black" points="900.5,-61.5 900.5,-80.5 1022.5,-80.5 1022.5,-61.5 900.5,-61.5"/>
<text text-anchor="middle" x="961.5" y="-68.5" font-family="Helvetica,sans-Serif" font-size="10.00">CoordinateHandler2D</text>
</a>
</g>
</g>
<!-- Node17&#45;&gt;Node26 -->
<g id="edge32" class="edge">
<title>Node17&#45;&gt;Node26</title>
<path fill="none" stroke="#9a32cd" stroke-dasharray="5,2" d="M736.4,-88.42C784.46,-84.69 852.08,-79.43 900.45,-75.67"/>
<polygon fill="#9a32cd" stroke="#9a32cd" points="735.85,-84.95 726.15,-89.22 736.39,-91.93 735.85,-84.95"/>
<text text-anchor="middle" x="825.5" y="-88" font-family="Helvetica,sans-Serif" font-size="10.00"> policy</text>
</g>
<!-- Node18 -->
<g id="node18" class="node">
<title>Node18</title>
<g id="a_node18"><a xlink:href="classdrain_1_1UniTuple.html" target="_top" xlink:title=" ">
<polygon fill="white" stroke="black" points="385.5,-78 385.5,-108 502.5,-108 502.5,-78 385.5,-78"/>
<text text-anchor="start" x="393.5" y="-96" font-family="Helvetica,sans-Serif" font-size="10.00">UniTuple&lt; coord_pol</text>
<text text-anchor="middle" x="444" y="-85" font-family="Helvetica,sans-Serif" font-size="10.00">_t, 4 &gt;</text>
</a>
</g>
</g>
<!-- Node18&#45;&gt;Node17 -->
<g id="edge18" class="edge">
<title>Node18&#45;&gt;Node17</title>
<path fill="none" stroke="midnightblue" d="M512.67,-93C549.28,-93 593.66,-93 626.84,-93"/>
<polygon fill="midnightblue" stroke="midnightblue" points="512.57,-89.5 502.57,-93 512.57,-96.5 512.57,-89.5"/>
</g>
<!-- Node19 -->
<g id="node19" class="node">
<title>Node19</title>
<g id="a_node19"><a xlink:href="classdrain_1_1Dictionary2.html" target="_top" xlink:title="Two&#45;way mapping between strings and objects of template class T.">
<polygon fill="white" stroke="black" points="386.5,-39.5 386.5,-58.5 501.5,-58.5 501.5,-39.5 386.5,-39.5"/>
<text text-anchor="middle" x="444" y="-46.5" font-family="Helvetica,sans-Serif" font-size="10.00">Dictionary2&lt; K, V &gt;</text>
</a>
</g>
</g>
<!-- Node19&#45;&gt;Node17 -->
<g id="edge19" class="edge">
<title>Node19&#45;&gt;Node17</title>
<path fill="none" stroke="#9a32cd" stroke-dasharray="5,2" d="M504.91,-60.44C542.83,-67.67 591.22,-76.91 626.77,-83.7"/>
<polygon fill="#9a32cd" stroke="#9a32cd" points="505.49,-56.98 495.02,-58.55 504.18,-63.86 505.49,-56.98"/>
<text text-anchor="middle" x="546.5" y="-76" font-family="Helvetica,sans-Serif" font-size="10.00"> dict</text>
</g>
<!-- Node20 -->
<g id="node20" class="node">
<title>Node20</title>
<g id="a_node20"><a xlink:title=" ">
<polygon fill="white" stroke="#bfbfbf" points="174,-34 174,-64 278,-64 278,-34 174,-34"/>
<text text-anchor="start" x="182" y="-52" font-family="Helvetica,sans-Serif" font-size="10.00">list&lt; std::pair&lt; K,</text>
<text text-anchor="middle" x="226" y="-41" font-family="Helvetica,sans-Serif" font-size="10.00"> V &gt; &gt;</text>
</a>
</g>
</g>
<!-- Node20&#45;&gt;Node19 -->
<g id="edge20" class="edge">
<title>Node20&#45;&gt;Node19</title>
<path fill="none" stroke="midnightblue" d="M288.39,-49C319.23,-49 356.35,-49 386.48,-49"/>
<polygon fill="midnightblue" stroke="midnightblue" points="288.19,-45.5 278.19,-49 288.19,-52.5 288.19,-45.5"/>
</g>
<!-- Node21 -->
<g id="node21" class="node">
<title>Node21</title>
<g id="a_node21"><a xlink:href="classdrain_1_1CastableIterator.html" target="_top" xlink:title=" ">
<polygon fill="white" stroke="black" points="1055,-249.5 1055,-268.5 1150,-268.5 1150,-249.5 1055,-249.5"/>
<text text-anchor="middle" x="1102.5" y="-256.5" font-family="Helvetica,sans-Serif" font-size="10.00">CastableIterator</text>
</a>
</g>
</g>
<!-- Node21&#45;&gt;Node3 -->
<g id="edge21" class="edge">
<title>Node21&#45;&gt;Node3</title>
<path fill="none" stroke="#9a32cd" stroke-dasharray="5,2" d="M1159.94,-248.06C1221.01,-236.23 1316.72,-217.69 1369.62,-207.44"/>
<polygon fill="#9a32cd" stroke="#9a32cd" points="1159.23,-244.64 1150.08,-249.97 1160.56,-251.51 1159.23,-244.64"/>
<text text-anchor="middle" x="1217.5" y="-260" font-family="Helvetica,sans-Serif" font-size="10.00"> segmentEnd</text>
<text text-anchor="middle" x="1217.5" y="-249" font-family="Helvetica,sans-Serif" font-size="10.00">segmentBegin</text>
</g>
<!-- Node22&#45;&gt;Node21 -->
<g id="edge22" class="edge">
<title>Node22&#45;&gt;Node21</title>
<path fill="none" stroke="darkgreen" d="M716.7,-265.35C795.08,-264.06 970.78,-261.16 1054.89,-259.77"/>
<polygon fill="darkgreen" stroke="darkgreen" points="716.25,-261.86 706.31,-265.52 716.37,-268.86 716.25,-261.86"/>
</g>
<!-- Node23 -->
<g id="node23" class="node">
<title>Node23</title>
<g id="a_node23"><a xlink:href="classdrain_1_1FlexVariableMap.html" target="_top" xlink:title="A map of FlexVariable:s.">
<polygon fill="white" stroke="black" points="1168,-280.5 1168,-299.5 1267,-299.5 1267,-280.5 1168,-280.5"/>
<text text-anchor="middle" x="1217.5" y="-287.5" font-family="Helvetica,sans-Serif" font-size="10.00">FlexVariableMap</text>
</a>
</g>
</g>
<!-- Node23&#45;&gt;Node3 -->
<g id="edge24" class="edge">
<title>Node23&#45;&gt;Node3</title>
<path fill="none" stroke="#9a32cd" stroke-dasharray="5,2" d="M1277.08,-279.62C1301.3,-273.76 1329.02,-264.94 1352,-252 1371.88,-240.8 1390.33,-221.18 1400.29,-209.51"/>
<polygon fill="#9a32cd" stroke="#9a32cd" points="1276.25,-276.22 1267.29,-281.87 1277.82,-283.04 1276.25,-276.22"/>
<text text-anchor="middle" x="1318.5" y="-291" font-family="Helvetica,sans-Serif" font-size="10.00"> propertiesPtr</text>
<text text-anchor="middle" x="1318.5" y="-280" font-family="Helvetica,sans-Serif" font-size="10.00">properties</text>
</g>
<!-- Node24 -->
<g id="node24" class="node">
<title>Node24</title>
<g id="a_node24"><a xlink:href="classdrain_1_1SmartMap.html" target="_top" xlink:title=" ">
<polygon fill="white" stroke="black" points="886,-291.5 886,-310.5 1037,-310.5 1037,-291.5 886,-291.5"/>
<text text-anchor="middle" x="961.5" y="-298.5" font-family="Helvetica,sans-Serif" font-size="10.00">SmartMap&lt; FlexVariable &gt;</text>
</a>
</g>
</g>
<!-- Node24&#45;&gt;Node23 -->
<g id="edge25" class="edge">
<title>Node24&#45;&gt;Node23</title>
<path fill="none" stroke="midnightblue" d="M1047.37,-297.32C1087.43,-295.59 1133.79,-293.58 1167.83,-292.11"/>
<polygon fill="midnightblue" stroke="midnightblue" points="1047.17,-293.83 1037.33,-297.76 1047.48,-300.82 1047.17,-293.83"/>
</g>
<!-- Node25 -->
<g id="node25" class="node">
<title>Node25</title>
<g id="a_node25"><a xlink:title=" ">
<polygon fill="white" stroke="#bfbfbf" points="588,-294.5 588,-313.5 765,-313.5 765,-294.5 588,-294.5"/>
<text text-anchor="middle" x="676.5" y="-301.5" font-family="Helvetica,sans-Serif" font-size="10.00">map&lt; std::string, FlexVariable &gt;</text>
</a>
</g>
</g>
<!-- Node25&#45;&gt;Node24 -->
<g id="edge26" class="edge">
<title>Node25&#45;&gt;Node24</title>
<path fill="none" stroke="midnightblue" d="M775.2,-302.96C811.41,-302.58 851.86,-302.15 885.71,-301.79"/>
<polygon fill="midnightblue" stroke="midnightblue" points="775.07,-299.47 765.1,-303.07 775.14,-306.47 775.07,-299.47"/>
</g>
<!-- Node26&#45;&gt;Node1 -->
<g id="edge27" class="edge">
<title>Node26&#45;&gt;Node1</title>
<path fill="none" stroke="#9a32cd" stroke-dasharray="5,2" d="M992.67,-84.59C1039.56,-104.43 1133.18,-139 1216.5,-139 1216.5,-139 1216.5,-139 1514,-139 1543.78,-139 1576.64,-142.04 1604.25,-145.46"/>
<polygon fill="#9a32cd" stroke="#9a32cd" points="993.97,-81.34 983.4,-80.6 991.2,-87.77 993.97,-81.34"/>
<text text-anchor="middle" x="1409" y="-142" font-family="Helvetica,sans-Serif" font-size="10.00"> handler</text>
</g>
<!-- Node27 -->
<g id="node27" class="node">
<title>Node27</title>
<g id="a_node27"><a xlink:href="classdrain_1_1Range.html" target="_top" xlink:title=" ">
<polygon fill="white" stroke="black" points="635,-38.5 635,-57.5 718,-57.5 718,-38.5 635,-38.5"/>
<text text-anchor="middle" x="676.5" y="-45.5" font-family="Helvetica,sans-Serif" font-size="10.00">Range&lt; int &gt;</text>
</a>
</g>
</g>
<!-- Node27&#45;&gt;Node26 -->
<g id="edge28" class="edge">
<title>Node27&#45;&gt;Node26</title>
<path fill="none" stroke="#9a32cd" stroke-dasharray="5,2" d="M728.55,-47.05C767,-46.89 820.95,-47.84 868,-53 884.91,-54.85 903.35,-58.17 919.28,-61.46"/>
<polygon fill="#9a32cd" stroke="#9a32cd" points="728.11,-43.55 718.14,-47.12 728.16,-50.55 728.11,-43.55"/>
<text text-anchor="middle" x="825.5" y="-67" font-family="Helvetica,sans-Serif" font-size="10.00"> yRange</text>
<text text-anchor="middle" x="825.5" y="-56" font-family="Helvetica,sans-Serif" font-size="10.00">xRange</text>
</g>
<!-- Node28 -->
<g id="node28" class="node">
<title>Node28</title>
<g id="a_node28"><a xlink:href="classdrain_1_1UniTuple.html" target="_top" xlink:title=" ">
<polygon fill="white" stroke="black" points="391,-0.5 391,-19.5 497,-19.5 497,-0.5 391,-0.5"/>
<text text-anchor="middle" x="444" y="-7.5" font-family="Helvetica,sans-Serif" font-size="10.00">UniTuple&lt; int, 2 &gt;</text>
</a>
</g>
</g>
<!-- Node28&#45;&gt;Node27 -->
<g id="edge29" class="edge">
<title>Node28&#45;&gt;Node27</title>
<path fill="none" stroke="midnightblue" d="M507.06,-20.23C547.6,-26.92 599.39,-35.45 634.77,-41.29"/>
<polygon fill="midnightblue" stroke="midnightblue" points="507.45,-16.75 497.02,-18.58 506.31,-23.66 507.45,-16.75"/>
</g>
<!-- Node29 -->
<g id="node29" class="node">
<title>Node29</title>
<g id="a_node29"><a xlink:href="classdrain_1_1Frame2D.html" target="_top" xlink:title=" ">
<polygon fill="white" stroke="black" points="628.5,-0.5 628.5,-19.5 724.5,-19.5 724.5,-0.5 628.5,-0.5"/>
<text text-anchor="middle" x="676.5" y="-7.5" font-family="Helvetica,sans-Serif" font-size="10.00">Frame2D&lt; int &gt;</text>
</a>
</g>
</g>
<!-- Node28&#45;&gt;Node29 -->
<g id="edge31" class="edge">
<title>Node28&#45;&gt;Node29</title>
<path fill="none" stroke="midnightblue" d="M507.48,-10C545.57,-10 593.48,-10 628.38,-10"/>
<polygon fill="midnightblue" stroke="midnightblue" points="507.02,-6.5 497.02,-10 507.02,-13.5 507.02,-6.5"/>
</g>
<!-- Node29&#45;&gt;Node26 -->
<g id="edge30" class="edge">
<title>Node29&#45;&gt;Node26</title>
<path fill="none" stroke="#9a32cd" stroke-dasharray="5,2" d="M735.15,-12.91C773.33,-15.82 824.24,-21.6 868,-33 894.38,-39.87 923.19,-52.61 941.53,-61.43"/>
<polygon fill="#9a32cd" stroke="#9a32cd" points="734.96,-9.39 724.74,-12.16 734.46,-16.37 734.96,-9.39"/>
<text text-anchor="middle" x="825.5" y="-36" font-family="Helvetica,sans-Serif" font-size="10.00"> area</text>
</g>
</g>
</svg>
