<?xml version="1.0" encoding="UTF-8" standalone="no"?>
<!DOCTYPE svg PUBLIC "-//W3C//DTD SVG 1.1//EN"
 "http://www.w3.org/Graphics/SVG/1.1/DTD/svg11.dtd">
<!-- Generated by graphviz version 2.43.0 (0)
 -->
<!-- Title: Quantity Pages: 1 -->
<svg width="300pt" height="152pt"
 viewBox="0.00 0.00 299.50 152.00" xmlns="http://www.w3.org/2000/svg" xmlns:xlink="http://www.w3.org/1999/xlink">
<g id="graph0" class="graph" transform="scale(1 1) rotate(0) translate(4 148)">
<title>Quantity</title>
<polygon fill="white" stroke="transparent" points="-4,4 -4,-148 295.5,-148 295.5,4 -4,4"/>
<!-- Node1 -->
<g id="node1" class="node">
<title>Node1</title>
<g id="a_node1"><a xlink:title="Structure for defining.">
<polygon fill="#bfbfbf" stroke="black" points="95,-0.5 95,-19.5 154,-19.5 154,-0.5 95,-0.5"/>
<text text-anchor="middle" x="124.5" y="-7.5" font-family="Helvetica,sans-Serif" font-size="10.00">Quantity</text>
</a>
</g>
</g>
<!-- Node2 -->
<g id="node2" class="node">
<title>Node2</title>
<g id="a_node2"><a xlink:title=" ">
<polygon fill="white" stroke="#bfbfbf" points="0,-67.5 0,-86.5 159,-86.5 159,-67.5 0,-67.5"/>
<text text-anchor="middle" x="79.5" y="-74.5" font-family="Helvetica,sans-Serif" font-size="10.00">map&lt; char, EncodingODIM &gt;</text>
</a>
</g>
</g>
<!-- Node2&#45;&gt;Node1 -->
<g id="edge1" class="edge">
<title>Node2&#45;&gt;Node1</title>
<path fill="none" stroke="midnightblue" d="M91.34,-58.9C100.08,-46.27 111.62,-29.6 118.53,-19.63"/>
<polygon fill="midnightblue" stroke="midnightblue" points="88.38,-57.02 85.57,-67.23 94.14,-61 88.38,-57.02"/>
</g>
<!-- Node3 -->
<g id="node3" class="node">
<title>Node3</title>
<g id="a_node3"><a xlink:href="classdrain_1_1Range.html" target="_top" xlink:title=" ">
<polygon fill="white" stroke="black" points="177,-67.5 177,-86.5 280,-86.5 280,-67.5 177,-67.5"/>
<text text-anchor="middle" x="228.5" y="-74.5" font-family="Helvetica,sans-Serif" font-size="10.00">Range&lt; double &gt;</text>
</a>
</g>
</g>
<!-- Node3&#45;&gt;Node1 -->
<g id="edge2" class="edge">
<title>Node3&#45;&gt;Node1</title>
<path fill="none" stroke="#9a32cd" stroke-dasharray="5,2" d="M205.73,-61.77C185.14,-48.9 155.51,-30.38 138.3,-19.63"/>
<polygon fill="#9a32cd" stroke="#9a32cd" points="204.14,-64.9 214.47,-67.23 207.85,-58.97 204.14,-64.9"/>
<text text-anchor="middle" x="220" y="-41" font-family="Helvetica,sans-Serif" font-size="10.00"> physicalRange</text>
</g>
<!-- Node4 -->
<g id="node4" class="node">
<title>Node4</title>
<g id="a_node4"><a xlink:href="classdrain_1_1UniTuple.html" target="_top" xlink:title=" ">
<polygon fill="white" stroke="black" points="165.5,-124.5 165.5,-143.5 291.5,-143.5 291.5,-124.5 165.5,-124.5"/>
<text text-anchor="middle" x="228.5" y="-131.5" font-family="Helvetica,sans-Serif" font-size="10.00">UniTuple&lt; double, 2 &gt;</text>
</a>
</g>
</g>
<!-- Node4&#45;&gt;Node3 -->
<g id="edge3" class="edge">
<title>Node4&#45;&gt;Node3</title>
<path fill="none" stroke="midnightblue" d="M228.5,-114.12C228.5,-104.82 228.5,-94.06 228.5,-86.71"/>
<polygon fill="midnightblue" stroke="midnightblue" points="225,-114.41 228.5,-124.41 232,-114.41 225,-114.41"/>
</g>
</g>
</svg>
