<?xml version="1.0" encoding="UTF-8" standalone="no"?>
<!DOCTYPE svg PUBLIC "-//W3C//DTD SVG 1.1//EN"
 "http://www.w3.org/Graphics/SVG/1.1/DTD/svg11.dtd">
<!-- Generated by graphviz version 2.43.0 (0)
 -->
<!-- Title: ImageLike Pages: 1 -->
<svg width="511pt" height="252pt"
 viewBox="0.00 0.00 511.00 252.00" xmlns="http://www.w3.org/2000/svg" xmlns:xlink="http://www.w3.org/1999/xlink">
<g id="graph0" class="graph" transform="scale(1 1) rotate(0) translate(4 248)">
<title>ImageLike</title>
<polygon fill="white" stroke="transparent" points="-4,4 -4,-248 507,-248 507,4 -4,4"/>
<!-- Node1 -->
<g id="node1" class="node">
<title>Node1</title>
<g id="a_node1"><a xlink:title="A base class for images.">
<polygon fill="#bfbfbf" stroke="black" points="53.5,-224.5 53.5,-243.5 120.5,-243.5 120.5,-224.5 53.5,-224.5"/>
<text text-anchor="middle" x="87" y="-231.5" font-family="Helvetica,sans-Serif" font-size="10.00">ImageLike</text>
</a>
</g>
</g>
<!-- Node2 -->
<g id="node2" class="node">
<title>Node2</title>
<g id="a_node2"><a xlink:href="classdrain_1_1image_1_1ImageFrame.html" target="_top" xlink:title="Image with static geometry.">
<polygon fill="white" stroke="black" points="48,-168.5 48,-187.5 126,-187.5 126,-168.5 48,-168.5"/>
<text text-anchor="middle" x="87" y="-175.5" font-family="Helvetica,sans-Serif" font-size="10.00">ImageFrame</text>
</a>
</g>
</g>
<!-- Node1&#45;&gt;Node2 -->
<g id="edge1" class="edge">
<title>Node1&#45;&gt;Node2</title>
<path fill="none" stroke="midnightblue" d="M87,-213.8C87,-204.91 87,-194.78 87,-187.75"/>
<polygon fill="midnightblue" stroke="midnightblue" points="83.5,-214.08 87,-224.08 90.5,-214.08 83.5,-214.08"/>
</g>
<!-- Node3 -->
<g id="node3" class="node">
<title>Node3</title>
<g id="a_node3"><a xlink:href="classdrain_1_1image_1_1Channel.html" target="_top" xlink:title="Image with static geometry.">
<polygon fill="white" stroke="black" points="16,-112.5 16,-131.5 72,-131.5 72,-112.5 16,-112.5"/>
<text text-anchor="middle" x="44" y="-119.5" font-family="Helvetica,sans-Serif" font-size="10.00">Channel</text>
</a>
</g>
</g>
<!-- Node2&#45;&gt;Node3 -->
<g id="edge2" class="edge">
<title>Node2&#45;&gt;Node3</title>
<path fill="none" stroke="midnightblue" d="M73.58,-160.14C66.09,-150.74 57.06,-139.4 50.97,-131.75"/>
<polygon fill="midnightblue" stroke="midnightblue" points="70.93,-162.44 79.9,-168.08 76.41,-158.08 70.93,-162.44"/>
</g>
<!-- Node5 -->
<g id="node5" class="node">
<title>Node5</title>
<g id="a_node5"><a xlink:href="classdrain_1_1image_1_1MultiChannel.html" target="_top" xlink:title="Multi&#45;channel ImageFrame.">
<polygon fill="white" stroke="black" points="93.5,-112.5 93.5,-131.5 174.5,-131.5 174.5,-112.5 93.5,-112.5"/>
<text text-anchor="middle" x="134" y="-119.5" font-family="Helvetica,sans-Serif" font-size="10.00">MultiChannel</text>
</a>
</g>
</g>
<!-- Node2&#45;&gt;Node5 -->
<g id="edge4" class="edge">
<title>Node2&#45;&gt;Node5</title>
<path fill="none" stroke="midnightblue" d="M101.42,-160.43C109.66,-150.97 119.65,-139.48 126.38,-131.75"/>
<polygon fill="midnightblue" stroke="midnightblue" points="98.69,-158.24 94.76,-168.08 103.97,-162.84 98.69,-158.24"/>
</g>
<!-- Node4 -->
<g id="node4" class="node">
<title>Node4</title>
<g id="a_node4"><a xlink:href="classdrain_1_1image_1_1ChannelView.html" target="_top" xlink:title="View to a single channel.">
<polygon fill="white" stroke="black" points="0,-56.5 0,-75.5 80,-75.5 80,-56.5 0,-56.5"/>
<text text-anchor="middle" x="40" y="-63.5" font-family="Helvetica,sans-Serif" font-size="10.00">ChannelView</text>
</a>
</g>
</g>
<!-- Node3&#45;&gt;Node4 -->
<g id="edge3" class="edge">
<title>Node3&#45;&gt;Node4</title>
<path fill="none" stroke="midnightblue" d="M42.6,-102.1C41.94,-93.14 41.17,-82.86 40.65,-75.75"/>
<polygon fill="midnightblue" stroke="midnightblue" points="39.11,-102.37 43.34,-112.08 46.09,-101.85 39.11,-102.37"/>
</g>
<!-- Node6 -->
<g id="node6" class="node">
<title>Node6</title>
<g id="a_node6"><a xlink:href="classdrain_1_1image_1_1ImageView.html" target="_top" xlink:title="ImageFrame that also has channels.">
<polygon fill="white" stroke="black" points="98.5,-56.5 98.5,-75.5 169.5,-75.5 169.5,-56.5 98.5,-56.5"/>
<text text-anchor="middle" x="134" y="-63.5" font-family="Helvetica,sans-Serif" font-size="10.00">ImageView</text>
</a>
</g>
</g>
<!-- Node5&#45;&gt;Node6 -->
<g id="edge5" class="edge">
<title>Node5&#45;&gt;Node6</title>
<path fill="none" stroke="midnightblue" d="M134,-101.8C134,-92.91 134,-82.78 134,-75.75"/>
<polygon fill="midnightblue" stroke="midnightblue" points="130.5,-102.08 134,-112.08 137.5,-102.08 130.5,-102.08"/>
</g>
<!-- Node7 -->
<g id="node7" class="node">
<title>Node7</title>
<g id="a_node7"><a xlink:href="classdrain_1_1image_1_1ModifiableImage.html" target="_top" xlink:title="Image with modifiable geometry.">
<polygon fill="white" stroke="black" points="187.5,-56.5 187.5,-75.5 286.5,-75.5 286.5,-56.5 187.5,-56.5"/>
<text text-anchor="middle" x="237" y="-63.5" font-family="Helvetica,sans-Serif" font-size="10.00">ModifiableImage</text>
</a>
</g>
</g>
<!-- Node5&#45;&gt;Node7 -->
<g id="edge6" class="edge">
<title>Node5&#45;&gt;Node7</title>
<path fill="none" stroke="midnightblue" d="M159.58,-107.59C178.62,-97.61 204.06,-84.27 220.49,-75.65"/>
<polygon fill="midnightblue" stroke="midnightblue" points="157.78,-104.58 150.55,-112.32 161.03,-110.78 157.78,-104.58"/>
</g>
<!-- Node8 -->
<g id="node8" class="node">
<title>Node8</title>
<g id="a_node8"><a xlink:href="classdrain_1_1image_1_1Image.html" target="_top" xlink:title="Class for multi&#45;channel digital images. Supports dynamic typing with base types (char,...">
<polygon fill="white" stroke="black" points="73.5,-0.5 73.5,-19.5 120.5,-19.5 120.5,-0.5 73.5,-0.5"/>
<text text-anchor="middle" x="97" y="-7.5" font-family="Helvetica,sans-Serif" font-size="10.00">Image</text>
</a>
</g>
</g>
<!-- Node7&#45;&gt;Node8 -->
<g id="edge7" class="edge">
<title>Node7&#45;&gt;Node8</title>
<path fill="none" stroke="midnightblue" d="M205.3,-52.77C179,-42.63 142.28,-28.47 119.08,-19.52"/>
<polygon fill="midnightblue" stroke="midnightblue" points="204.23,-56.11 214.82,-56.44 206.75,-49.58 204.23,-56.11"/>
</g>
<!-- Node9 -->
<g id="node9" class="node">
<title>Node9</title>
<g id="a_node9"><a xlink:href="classdrain_1_1image_1_1ImageT.html" target="_top" xlink:title="A template class for images with static storage type.">
<polygon fill="white" stroke="black" points="139,-0.5 139,-19.5 221,-19.5 221,-0.5 139,-0.5"/>
<text text-anchor="middle" x="180" y="-7.5" font-family="Helvetica,sans-Serif" font-size="10.00">ImageT&lt; T &gt;</text>
</a>
</g>
</g>
<!-- Node7&#45;&gt;Node9 -->
<g id="edge8" class="edge">
<title>Node7&#45;&gt;Node9</title>
<path fill="none" stroke="midnightblue" d="M220.38,-49.25C210.27,-39.67 197.72,-27.79 189.32,-19.83"/>
<polygon fill="midnightblue" stroke="midnightblue" points="218.18,-51.99 227.84,-56.32 222.99,-46.91 218.18,-51.99"/>
</g>
<!-- Node10 -->
<g id="node10" class="node">
<title>Node10</title>
<g id="a_node10"><a xlink:href="classdrain_1_1image_1_1ImageT.html" target="_top" xlink:title=" ">
<polygon fill="white" stroke="black" points="239.5,-0.5 239.5,-19.5 348.5,-19.5 348.5,-0.5 239.5,-0.5"/>
<text text-anchor="middle" x="294" y="-7.5" font-family="Helvetica,sans-Serif" font-size="10.00">ImageT&lt; double &gt;</text>
</a>
</g>
</g>
<!-- Node7&#45;&gt;Node10 -->
<g id="edge9" class="edge">
<title>Node7&#45;&gt;Node10</title>
<path fill="none" stroke="midnightblue" d="M253.62,-49.25C263.73,-39.67 276.28,-27.79 284.68,-19.83"/>
<polygon fill="midnightblue" stroke="midnightblue" points="251.01,-46.91 246.16,-56.32 255.82,-51.99 251.01,-46.91"/>
</g>
<!-- Node11 -->
<g id="node11" class="node">
<title>Node11</title>
<g id="a_node11"><a xlink:href="classdrain_1_1image_1_1ImageT.html" target="_top" xlink:title=" ">
<polygon fill="white" stroke="black" points="367,-0.5 367,-19.5 503,-19.5 503,-0.5 367,-0.5"/>
<text text-anchor="middle" x="435" y="-7.5" font-family="Helvetica,sans-Serif" font-size="10.00">ImageT&lt; unsigned int &gt;</text>
</a>
</g>
</g>
<!-- Node7&#45;&gt;Node11 -->
<g id="edge10" class="edge">
<title>Node7&#45;&gt;Node11</title>
<path fill="none" stroke="midnightblue" d="M278.44,-53.7C315.81,-43.51 369.94,-28.74 403.77,-19.52"/>
<polygon fill="midnightblue" stroke="midnightblue" points="277.1,-50.44 268.37,-56.44 278.94,-57.19 277.1,-50.44"/>
</g>
</g>
</svg>
