<?xml version="1.0" encoding="UTF-8" standalone="no"?>
<!DOCTYPE svg PUBLIC "-//W3C//DTD SVG 1.1//EN"
 "http://www.w3.org/Graphics/SVG/1.1/DTD/svg11.dtd">
<!-- Generated by graphviz version 2.43.0 (0)
 -->
<!-- Title: UnaryFunctorOp&lt; F, NORM, SIGN &gt; Pages: 1 -->
<svg width="213pt" height="263pt"
 viewBox="0.00 0.00 213.00 263.00" xmlns="http://www.w3.org/2000/svg" xmlns:xlink="http://www.w3.org/1999/xlink">
<g id="graph0" class="graph" transform="scale(1 1) rotate(0) translate(4 259)">
<title>UnaryFunctorOp&lt; F, NORM, SIGN &gt;</title>
<polygon fill="white" stroke="transparent" points="-4,4 -4,-259 209,-259 209,4 -4,4"/>
<!-- Node1 -->
<g id="node1" class="node">
<title>Node1</title>
<g id="a_node1"><a xlink:title="Class for using simple function objects (like std::functor) for sequential pixel iteration.">
<polygon fill="#bfbfbf" stroke="black" points="58,-0.5 58,-30.5 174,-30.5 174,-0.5 58,-0.5"/>
<text text-anchor="start" x="66" y="-18.5" font-family="Helvetica,sans-Serif" font-size="10.00">UnaryFunctorOp&lt; F,</text>
<text text-anchor="middle" x="116" y="-7.5" font-family="Helvetica,sans-Serif" font-size="10.00"> NORM, SIGN &gt;</text>
</a>
</g>
</g>
<!-- Node2 -->
<g id="node2" class="node">
<title>Node2</title>
<g id="a_node2"><a xlink:href="classdrain_1_1image_1_1FunctorOp.html" target="_top" xlink:title="Class for using simple function objects (like std::functor) for sequential pixel iteration.">
<polygon fill="white" stroke="black" points="68.5,-67.5 68.5,-86.5 163.5,-86.5 163.5,-67.5 68.5,-67.5"/>
<text text-anchor="middle" x="116" y="-74.5" font-family="Helvetica,sans-Serif" font-size="10.00">FunctorOp&lt; F &gt;</text>
</a>
</g>
</g>
<!-- Node2&#45;&gt;Node1 -->
<g id="edge1" class="edge">
<title>Node2&#45;&gt;Node1</title>
<path fill="none" stroke="midnightblue" d="M116,-57.23C116,-48.59 116,-38.5 116,-30.52"/>
<polygon fill="midnightblue" stroke="midnightblue" points="112.5,-57.48 116,-67.48 119.5,-57.48 112.5,-57.48"/>
</g>
<!-- Node3 -->
<g id="node3" class="node">
<title>Node3</title>
<g id="a_node3"><a xlink:href="structdrain_1_1image_1_1FunctorWrapper.html" target="_top" xlink:title="Helper class that only ensures that functor is initialized before ImageOp.">
<polygon fill="white" stroke="black" points="0,-123.5 0,-142.5 122,-142.5 122,-123.5 0,-123.5"/>
<text text-anchor="middle" x="61" y="-130.5" font-family="Helvetica,sans-Serif" font-size="10.00">FunctorWrapper&lt; F &gt;</text>
</a>
</g>
</g>
<!-- Node3&#45;&gt;Node2 -->
<g id="edge2" class="edge">
<title>Node3&#45;&gt;Node2</title>
<path fill="none" stroke="midnightblue" d="M77.29,-116C87.04,-106.43 99.05,-94.64 107.09,-86.75"/>
<polygon fill="midnightblue" stroke="midnightblue" points="74.77,-113.58 70.08,-123.08 79.67,-118.57 74.77,-113.58"/>
</g>
<!-- Node4 -->
<g id="node4" class="node">
<title>Node4</title>
<g id="a_node4"><a xlink:href="classdrain_1_1image_1_1ImageOp.html" target="_top" xlink:title="Base class for image processing functions.">
<polygon fill="white" stroke="black" points="140.5,-123.5 140.5,-142.5 201.5,-142.5 201.5,-123.5 140.5,-123.5"/>
<text text-anchor="middle" x="171" y="-130.5" font-family="Helvetica,sans-Serif" font-size="10.00">ImageOp</text>
</a>
</g>
</g>
<!-- Node4&#45;&gt;Node2 -->
<g id="edge3" class="edge">
<title>Node4&#45;&gt;Node2</title>
<path fill="none" stroke="midnightblue" d="M154.71,-116C144.96,-106.43 132.95,-94.64 124.91,-86.75"/>
<polygon fill="midnightblue" stroke="midnightblue" points="152.33,-118.57 161.92,-123.08 157.23,-113.58 152.33,-118.57"/>
</g>
<!-- Node5 -->
<g id="node5" class="node">
<title>Node5</title>
<g id="a_node5"><a xlink:href="classdrain_1_1image_1_1ImageMod.html" target="_top" xlink:title="Class for operations that modify an existing image instead of producing a new image.">
<polygon fill="white" stroke="black" points="137,-179.5 137,-198.5 205,-198.5 205,-179.5 137,-179.5"/>
<text text-anchor="middle" x="171" y="-186.5" font-family="Helvetica,sans-Serif" font-size="10.00">ImageMod</text>
</a>
</g>
</g>
<!-- Node5&#45;&gt;Node4 -->
<g id="edge4" class="edge">
<title>Node5&#45;&gt;Node4</title>
<path fill="none" stroke="midnightblue" d="M171,-168.8C171,-159.91 171,-149.78 171,-142.75"/>
<polygon fill="midnightblue" stroke="midnightblue" points="167.5,-169.08 171,-179.08 174.5,-169.08 167.5,-169.08"/>
</g>
<!-- Node6 -->
<g id="node6" class="node">
<title>Node6</title>
<g id="a_node6"><a xlink:href="classdrain_1_1BeanLike.html" target="_top" xlink:title="Something which has a name, a description and possibly some parameters of varying type.">
<polygon fill="white" stroke="black" points="140.5,-235.5 140.5,-254.5 201.5,-254.5 201.5,-235.5 140.5,-235.5"/>
<text text-anchor="middle" x="171" y="-242.5" font-family="Helvetica,sans-Serif" font-size="10.00">BeanLike</text>
</a>
</g>
</g>
<!-- Node6&#45;&gt;Node5 -->
<g id="edge5" class="edge">
<title>Node6&#45;&gt;Node5</title>
<path fill="none" stroke="midnightblue" d="M171,-224.8C171,-215.91 171,-205.78 171,-198.75"/>
<polygon fill="midnightblue" stroke="midnightblue" points="167.5,-225.08 171,-235.08 174.5,-225.08 167.5,-225.08"/>
</g>
</g>
</svg>
