<?xml version="1.0" encoding="UTF-8" standalone="no"?>
<!DOCTYPE svg PUBLIC "-//W3C//DTD SVG 1.1//EN"
 "http://www.w3.org/Graphics/SVG/1.1/DTD/svg11.dtd">
<!-- Generated by graphviz version 2.43.0 (0)
 -->
<!-- Title: ChannelCatenatorOp Pages: 1 -->
<svg width="126pt" height="252pt"
 viewBox="0.00 0.00 126.00 252.00" xmlns="http://www.w3.org/2000/svg" xmlns:xlink="http://www.w3.org/1999/xlink">
<g id="graph0" class="graph" transform="scale(1 1) rotate(0) translate(4 248)">
<title>ChannelCatenatorOp</title>
<polygon fill="white" stroke="transparent" points="-4,4 -4,-248 122,-248 122,4 -4,4"/>
<!-- Node1 -->
<g id="node1" class="node">
<title>Node1</title>
<g id="a_node1"><a xlink:title=" ">
<polygon fill="#bfbfbf" stroke="black" points="0,-0.5 0,-19.5 118,-19.5 118,-0.5 0,-0.5"/>
<text text-anchor="middle" x="59" y="-7.5" font-family="Helvetica,sans-Serif" font-size="10.00">ChannelCatenatorOp</text>
</a>
</g>
</g>
<!-- Node2 -->
<g id="node2" class="node">
<title>Node2</title>
<g id="a_node2"><a xlink:href="classdrain_1_1image_1_1CatenatorOp.html" target="_top" xlink:title="Operator for concatenating images vertically or as channels.">
<polygon fill="white" stroke="black" points="20,-56.5 20,-75.5 98,-75.5 98,-56.5 20,-56.5"/>
<text text-anchor="middle" x="59" y="-63.5" font-family="Helvetica,sans-Serif" font-size="10.00">CatenatorOp</text>
</a>
</g>
</g>
<!-- Node2&#45;&gt;Node1 -->
<g id="edge1" class="edge">
<title>Node2&#45;&gt;Node1</title>
<path fill="none" stroke="midnightblue" d="M59,-45.8C59,-36.91 59,-26.78 59,-19.75"/>
<polygon fill="midnightblue" stroke="midnightblue" points="55.5,-46.08 59,-56.08 62.5,-46.08 55.5,-46.08"/>
</g>
<!-- Node3 -->
<g id="node3" class="node">
<title>Node3</title>
<g id="a_node3"><a xlink:href="classdrain_1_1image_1_1ImageOp.html" target="_top" xlink:title="Base class for image processing functions.">
<polygon fill="white" stroke="black" points="28.5,-112.5 28.5,-131.5 89.5,-131.5 89.5,-112.5 28.5,-112.5"/>
<text text-anchor="middle" x="59" y="-119.5" font-family="Helvetica,sans-Serif" font-size="10.00">ImageOp</text>
</a>
</g>
</g>
<!-- Node3&#45;&gt;Node2 -->
<g id="edge2" class="edge">
<title>Node3&#45;&gt;Node2</title>
<path fill="none" stroke="midnightblue" d="M59,-101.8C59,-92.91 59,-82.78 59,-75.75"/>
<polygon fill="midnightblue" stroke="midnightblue" points="55.5,-102.08 59,-112.08 62.5,-102.08 55.5,-102.08"/>
</g>
<!-- Node4 -->
<g id="node4" class="node">
<title>Node4</title>
<g id="a_node4"><a xlink:href="classdrain_1_1image_1_1ImageMod.html" target="_top" xlink:title="Class for operations that modify an existing image instead of producing a new image.">
<polygon fill="white" stroke="black" points="25,-168.5 25,-187.5 93,-187.5 93,-168.5 25,-168.5"/>
<text text-anchor="middle" x="59" y="-175.5" font-family="Helvetica,sans-Serif" font-size="10.00">ImageMod</text>
</a>
</g>
</g>
<!-- Node4&#45;&gt;Node3 -->
<g id="edge3" class="edge">
<title>Node4&#45;&gt;Node3</title>
<path fill="none" stroke="midnightblue" d="M59,-157.8C59,-148.91 59,-138.78 59,-131.75"/>
<polygon fill="midnightblue" stroke="midnightblue" points="55.5,-158.08 59,-168.08 62.5,-158.08 55.5,-158.08"/>
</g>
<!-- Node5 -->
<g id="node5" class="node">
<title>Node5</title>
<g id="a_node5"><a xlink:href="classdrain_1_1BeanLike.html" target="_top" xlink:title="Something which has a name, a description and possibly some parameters of varying type.">
<polygon fill="white" stroke="black" points="28.5,-224.5 28.5,-243.5 89.5,-243.5 89.5,-224.5 28.5,-224.5"/>
<text text-anchor="middle" x="59" y="-231.5" font-family="Helvetica,sans-Serif" font-size="10.00">BeanLike</text>
</a>
</g>
</g>
<!-- Node5&#45;&gt;Node4 -->
<g id="edge4" class="edge">
<title>Node5&#45;&gt;Node4</title>
<path fill="none" stroke="midnightblue" d="M59,-213.8C59,-204.91 59,-194.78 59,-187.75"/>
<polygon fill="midnightblue" stroke="midnightblue" points="55.5,-214.08 59,-224.08 62.5,-214.08 55.5,-214.08"/>
</g>
</g>
</svg>
