<?xml version="1.0" encoding="UTF-8" standalone="no"?>
<!DOCTYPE svg PUBLIC "-//W3C//DTD SVG 1.1//EN"
 "http://www.w3.org/Graphics/SVG/1.1/DTD/svg11.dtd">
<!-- Generated by graphviz version 2.43.0 (0)
 -->
<!-- Title: VerticalIntersectionOp Pages: 1 -->
<svg width="527pt" height="463pt"
 viewBox="0.00 0.00 527.00 463.00" xmlns="http://www.w3.org/2000/svg" xmlns:xlink="http://www.w3.org/1999/xlink">
<g id="graph0" class="graph" transform="scale(1 1) rotate(0) translate(4 459)">
<title>VerticalIntersectionOp</title>
<polygon fill="white" stroke="transparent" points="-4,4 -4,-459 523,-459 523,4 -4,4"/>
<!-- Node1 -->
<g id="node1" class="node">
<title>Node1</title>
<g id="a_node1"><a xlink:title=" ">
<polygon fill="#bfbfbf" stroke="black" points="175.5,-0.5 175.5,-19.5 300.5,-19.5 300.5,-0.5 175.5,-0.5"/>
<text text-anchor="middle" x="238" y="-7.5" font-family="Helvetica,sans-Serif" font-size="10.00">VerticalIntersectionOp</text>
</a>
</g>
</g>
<!-- Node2 -->
<g id="node2" class="node">
<title>Node2</title>
<g id="a_node2"><a xlink:href="classrack_1_1VolumeOp.html" target="_top" xlink:title=" ">
<polygon fill="white" stroke="black" points="83,-67.5 83,-97.5 231,-97.5 231,-67.5 83,-67.5"/>
<text text-anchor="start" x="91" y="-85.5" font-family="Helvetica,sans-Serif" font-size="10.00">VolumeOp&lt; VerticalProfile</text>
<text text-anchor="middle" x="157" y="-74.5" font-family="Helvetica,sans-Serif" font-size="10.00">ODIM &gt;</text>
</a>
</g>
</g>
<!-- Node2&#45;&gt;Node1 -->
<g id="edge1" class="edge">
<title>Node2&#45;&gt;Node1</title>
<path fill="none" stroke="midnightblue" d="M181.12,-60.51C196.68,-46.96 216.13,-30.03 227.78,-19.89"/>
<polygon fill="midnightblue" stroke="midnightblue" points="178.64,-58.03 173.39,-67.23 183.23,-63.31 178.64,-58.03"/>
</g>
<!-- Node3 -->
<g id="node3" class="node">
<title>Node3</title>
<g id="a_node3"><a xlink:href="classdrain_1_1image_1_1ProductOp.html" target="_top" xlink:title=" ">
<polygon fill="white" stroke="black" points="76,-135.5 76,-165.5 238,-165.5 238,-135.5 76,-135.5"/>
<text text-anchor="start" x="84" y="-153.5" font-family="Helvetica,sans-Serif" font-size="10.00">ProductOp&lt; const PolarODIM,</text>
<text text-anchor="middle" x="157" y="-142.5" font-family="Helvetica,sans-Serif" font-size="10.00"> VerticalProfileODIM &gt;</text>
</a>
</g>
</g>
<!-- Node3&#45;&gt;Node2 -->
<g id="edge2" class="edge">
<title>Node3&#45;&gt;Node2</title>
<path fill="none" stroke="midnightblue" d="M157,-125.03C157,-115.86 157,-105.74 157,-97.79"/>
<polygon fill="midnightblue" stroke="midnightblue" points="153.5,-125.18 157,-135.18 160.5,-125.18 153.5,-125.18"/>
</g>
<!-- Node4 -->
<g id="node4" class="node">
<title>Node4</title>
<g id="a_node4"><a xlink:href="classrack_1_1VerticalCrossSectionODIM.html" target="_top" xlink:title=" ">
<polygon fill="white" stroke="black" points="249,-73 249,-92 393,-92 393,-73 249,-73"/>
<text text-anchor="middle" x="321" y="-80" font-family="Helvetica,sans-Serif" font-size="10.00">VerticalCrossSectionODIM</text>
</a>
</g>
</g>
<!-- Node4&#45;&gt;Node1 -->
<g id="edge3" class="edge">
<title>Node4&#45;&gt;Node1</title>
<path fill="none" stroke="#9a32cd" stroke-dasharray="5,2" d="M302.85,-66.08C286.12,-51.87 261.87,-31.27 248.26,-19.72"/>
<polygon fill="#9a32cd" stroke="#9a32cd" points="300.94,-69.05 310.82,-72.86 305.47,-63.71 300.94,-69.05"/>
<text text-anchor="middle" x="295" y="-41" font-family="Helvetica,sans-Serif" font-size="10.00"> odim</text>
</g>
<!-- Node5 -->
<g id="node5" class="node">
<title>Node5</title>
<g id="a_node5"><a xlink:href="classrack_1_1ODIM.html" target="_top" xlink:title="ODIM metadata (quantity, gain, offset, undetect, nodata, date, time)">
<polygon fill="white" stroke="black" points="277,-141 277,-160 321,-160 321,-141 277,-141"/>
<text text-anchor="middle" x="299" y="-148" font-family="Helvetica,sans-Serif" font-size="10.00">ODIM</text>
</a>
</g>
</g>
<!-- Node5&#45;&gt;Node4 -->
<g id="edge4" class="edge">
<title>Node5&#45;&gt;Node4</title>
<path fill="none" stroke="midnightblue" d="M305.06,-131.31C309.29,-118.62 314.75,-102.26 318.05,-92.34"/>
<polygon fill="midnightblue" stroke="midnightblue" points="301.72,-130.28 301.88,-140.87 308.36,-132.49 301.72,-130.28"/>
</g>
<!-- Node6 -->
<g id="node6" class="node">
<title>Node6</title>
<g id="a_node6"><a xlink:href="classrack_1_1EncodingODIM.html" target="_top" xlink:title="Structure for data storage type, scaling and marker codes. Does not contain quantity.">
<polygon fill="white" stroke="black" points="239,-213.5 239,-232.5 327,-232.5 327,-213.5 239,-213.5"/>
<text text-anchor="middle" x="283" y="-220.5" font-family="Helvetica,sans-Serif" font-size="10.00">EncodingODIM</text>
</a>
</g>
</g>
<!-- Node6&#45;&gt;Node5 -->
<g id="edge5" class="edge">
<title>Node6&#45;&gt;Node5</title>
<path fill="none" stroke="midnightblue" d="M287.23,-203.36C290.4,-189.4 294.59,-170.93 297.02,-160.22"/>
<polygon fill="midnightblue" stroke="midnightblue" points="283.76,-202.83 284.96,-213.36 290.59,-204.38 283.76,-202.83"/>
</g>
<!-- Node7 -->
<g id="node7" class="node">
<title>Node7</title>
<g id="a_node7"><a xlink:href="classdrain_1_1ReferenceMap.html" target="_top" xlink:title=" ">
<polygon fill="white" stroke="black" points="140.5,-302.5 140.5,-321.5 227.5,-321.5 227.5,-302.5 140.5,-302.5"/>
<text text-anchor="middle" x="184" y="-309.5" font-family="Helvetica,sans-Serif" font-size="10.00">ReferenceMap</text>
</a>
</g>
</g>
<!-- Node7&#45;&gt;Node6 -->
<g id="edge6" class="edge">
<title>Node7&#45;&gt;Node6</title>
<path fill="none" stroke="midnightblue" d="M201.38,-295.73C222.23,-277.41 256.46,-247.32 273.19,-232.62"/>
<polygon fill="midnightblue" stroke="midnightblue" points="199.06,-293.11 193.85,-302.34 203.68,-298.37 199.06,-293.11"/>
</g>
<!-- Node8 -->
<g id="node8" class="node">
<title>Node8</title>
<g id="a_node8"><a xlink:href="classdrain_1_1SmartMap.html" target="_top" xlink:title=" ">
<polygon fill="white" stroke="black" points="26.5,-378.5 26.5,-397.5 169.5,-397.5 169.5,-378.5 26.5,-378.5"/>
<text text-anchor="middle" x="98" y="-385.5" font-family="Helvetica,sans-Serif" font-size="10.00">SmartMap&lt; Referencer &gt;</text>
</a>
</g>
</g>
<!-- Node8&#45;&gt;Node7 -->
<g id="edge7" class="edge">
<title>Node8&#45;&gt;Node7</title>
<path fill="none" stroke="midnightblue" d="M116.09,-371.43C133.74,-356.25 159.93,-333.71 174.08,-321.54"/>
<polygon fill="midnightblue" stroke="midnightblue" points="113.5,-369.05 108.2,-378.22 118.07,-374.35 113.5,-369.05"/>
</g>
<!-- Node9 -->
<g id="node9" class="node">
<title>Node9</title>
<g id="a_node9"><a xlink:title=" ">
<polygon fill="white" stroke="#bfbfbf" points="13.5,-435.5 13.5,-454.5 182.5,-454.5 182.5,-435.5 13.5,-435.5"/>
<text text-anchor="middle" x="98" y="-442.5" font-family="Helvetica,sans-Serif" font-size="10.00">map&lt; std::string, Referencer &gt;</text>
</a>
</g>
</g>
<!-- Node9&#45;&gt;Node8 -->
<g id="edge8" class="edge">
<title>Node9&#45;&gt;Node8</title>
<path fill="none" stroke="midnightblue" d="M98,-425.12C98,-415.82 98,-405.06 98,-397.71"/>
<polygon fill="midnightblue" stroke="midnightblue" points="94.5,-425.41 98,-435.41 101.5,-425.41 94.5,-425.41"/>
</g>
<!-- Node10 -->
<g id="node10" class="node">
<title>Node10</title>
<g id="a_node10"><a xlink:href="classdrain_1_1ValueScaling.html" target="_top" xlink:title="Linear scaling and physical range for image intensities.">
<polygon fill="white" stroke="black" points="246,-302.5 246,-321.5 326,-321.5 326,-302.5 246,-302.5"/>
<text text-anchor="middle" x="286" y="-309.5" font-family="Helvetica,sans-Serif" font-size="10.00">ValueScaling</text>
</a>
</g>
</g>
<!-- Node10&#45;&gt;Node6 -->
<g id="edge9" class="edge">
<title>Node10&#45;&gt;Node6</title>
<path fill="none" stroke="#9a32cd" stroke-dasharray="5,2" d="M284.48,-292.38C284.29,-289.57 284.12,-286.71 284,-284 283.17,-265.68 283.01,-244.19 282.99,-232.55"/>
<polygon fill="#9a32cd" stroke="#9a32cd" points="281,-292.79 285.24,-302.5 287.98,-292.26 281,-292.79"/>
<text text-anchor="middle" x="317" y="-276" font-family="Helvetica,sans-Serif" font-size="10.00"> scalingConst</text>
<text text-anchor="middle" x="317" y="-265" font-family="Helvetica,sans-Serif" font-size="10.00">scaling</text>
<text text-anchor="middle" x="317" y="-254" font-family="Helvetica,sans-Serif" font-size="10.00">ownScaling</text>
</g>
<!-- Node11 -->
<g id="node11" class="node">
<title>Node11</title>
<g id="a_node11"><a xlink:href="classdrain_1_1UniTuple.html" target="_top" xlink:title=" ">
<polygon fill="white" stroke="black" points="188,-378.5 188,-397.5 314,-397.5 314,-378.5 188,-378.5"/>
<text text-anchor="middle" x="251" y="-385.5" font-family="Helvetica,sans-Serif" font-size="10.00">UniTuple&lt; double, 4 &gt;</text>
</a>
</g>
</g>
<!-- Node11&#45;&gt;Node10 -->
<g id="edge10" class="edge">
<title>Node11&#45;&gt;Node10</title>
<path fill="none" stroke="midnightblue" d="M255.36,-368.6C257.85,-359.69 261.39,-349 266,-340 269.4,-333.35 274.4,-326.6 278.55,-321.52"/>
<polygon fill="midnightblue" stroke="midnightblue" points="251.95,-367.79 252.86,-378.35 258.73,-369.54 251.95,-367.79"/>
</g>
<!-- Node12 -->
<g id="node12" class="node">
<title>Node12</title>
<g id="a_node12"><a xlink:href="classdrain_1_1Range.html" target="_top" xlink:title=" ">
<polygon fill="white" stroke="black" points="332.5,-378.5 332.5,-397.5 435.5,-397.5 435.5,-378.5 332.5,-378.5"/>
<text text-anchor="middle" x="384" y="-385.5" font-family="Helvetica,sans-Serif" font-size="10.00">Range&lt; double &gt;</text>
</a>
</g>
</g>
<!-- Node12&#45;&gt;Node4 -->
<g id="edge17" class="edge">
<title>Node12&#45;&gt;Node4</title>
<path fill="none" stroke="#9a32cd" stroke-dasharray="5,2" d="M376.15,-368.65C370.55,-353.9 364,-332.49 364,-313 364,-313 364,-313 364,-149.5 364,-125.7 344.14,-103.77 331.41,-92.15"/>
<polygon fill="#9a32cd" stroke="#9a32cd" points="372.97,-370.13 379.95,-378.1 379.46,-367.51 372.97,-370.13"/>
<text text-anchor="middle" x="400" y="-220.5" font-family="Helvetica,sans-Serif" font-size="10.00"> altitudeRange</text>
</g>
<!-- Node12&#45;&gt;Node10 -->
<g id="edge11" class="edge">
<title>Node12&#45;&gt;Node10</title>
<path fill="none" stroke="#9a32cd" stroke-dasharray="5,2" d="M328.7,-376.07C312.33,-371.73 297.35,-366.27 292,-360 282.93,-349.36 283.26,-332.13 284.5,-321.75"/>
<polygon fill="#9a32cd" stroke="#9a32cd" points="327.88,-379.48 338.43,-378.49 329.57,-372.68 327.88,-379.48"/>
<text text-anchor="middle" x="321" y="-347.5" font-family="Helvetica,sans-Serif" font-size="10.00"> physRange</text>
</g>
<!-- Node13 -->
<g id="node13" class="node">
<title>Node13</title>
<g id="a_node13"><a xlink:href="classdrain_1_1UniTuple.html" target="_top" xlink:title=" ">
<polygon fill="white" stroke="black" points="375,-435.5 375,-454.5 501,-454.5 501,-435.5 375,-435.5"/>
<text text-anchor="middle" x="438" y="-442.5" font-family="Helvetica,sans-Serif" font-size="10.00">UniTuple&lt; double, 2 &gt;</text>
</a>
</g>
</g>
<!-- Node13&#45;&gt;Node12 -->
<g id="edge12" class="edge">
<title>Node13&#45;&gt;Node12</title>
<path fill="none" stroke="midnightblue" d="M422.41,-428.12C412.69,-418.22 400.56,-405.86 392.56,-397.71"/>
<polygon fill="midnightblue" stroke="midnightblue" points="420.06,-430.72 429.56,-435.41 425.05,-425.82 420.06,-430.72"/>
</g>
<!-- Node14 -->
<g id="node14" class="node">
<title>Node14</title>
<g id="a_node14"><a xlink:href="structdrain_1_1Point2D.html" target="_top" xlink:title=" ">
<polygon fill="white" stroke="black" points="409,-340.5 409,-359.5 519,-359.5 519,-340.5 409,-340.5"/>
<text text-anchor="middle" x="464" y="-347.5" font-family="Helvetica,sans-Serif" font-size="10.00">Point2D&lt; double &gt;</text>
</a>
</g>
</g>
<!-- Node13&#45;&gt;Node14 -->
<g id="edge14" class="edge">
<title>Node13&#45;&gt;Node14</title>
<path fill="none" stroke="midnightblue" d="M443.14,-425.62C448.73,-405.62 457.43,-374.5 461.61,-359.56"/>
<polygon fill="midnightblue" stroke="midnightblue" points="439.72,-424.84 440.4,-435.42 446.46,-426.73 439.72,-424.84"/>
</g>
<!-- Node14&#45;&gt;Node5 -->
<g id="edge13" class="edge">
<title>Node14&#45;&gt;Node5</title>
<path fill="none" stroke="#9a32cd" stroke-dasharray="5,2" d="M465.91,-330.04C467.74,-301.52 466.99,-247.27 440,-213 410.26,-175.23 352.63,-160.17 321.04,-154.56"/>
<polygon fill="#9a32cd" stroke="#9a32cd" points="462.41,-329.99 465.07,-340.25 469.38,-330.57 462.41,-329.99"/>
<text text-anchor="middle" x="491" y="-265" font-family="Helvetica,sans-Serif" font-size="10.00"> resolution</text>
</g>
<!-- Node15 -->
<g id="node15" class="node">
<title>Node15</title>
<g id="a_node15"><a xlink:href="classdrain_1_1Frame2D.html" target="_top" xlink:title=" ">
<polygon fill="white" stroke="black" points="60,-213.5 60,-232.5 172,-232.5 172,-213.5 60,-213.5"/>
<text text-anchor="middle" x="116" y="-220.5" font-family="Helvetica,sans-Serif" font-size="10.00">Frame2D&lt; size_t &gt;</text>
</a>
</g>
</g>
<!-- Node15&#45;&gt;Node5 -->
<g id="edge15" class="edge">
<title>Node15&#45;&gt;Node5</title>
<path fill="none" stroke="#9a32cd" stroke-dasharray="5,2" d="M147.84,-209.74C184.76,-195.51 244.65,-172.44 276.85,-160.03"/>
<polygon fill="#9a32cd" stroke="#9a32cd" points="146.15,-206.64 138.07,-213.5 148.66,-213.17 146.15,-206.64"/>
<text text-anchor="middle" x="224.5" y="-187" font-family="Helvetica,sans-Serif" font-size="10.00"> area</text>
</g>
<!-- Node16 -->
<g id="node16" class="node">
<title>Node16</title>
<g id="a_node16"><a xlink:href="classdrain_1_1UniTuple.html" target="_top" xlink:title=" ">
<polygon fill="white" stroke="black" points="0,-302.5 0,-321.5 122,-321.5 122,-302.5 0,-302.5"/>
<text text-anchor="middle" x="61" y="-309.5" font-family="Helvetica,sans-Serif" font-size="10.00">UniTuple&lt; size_t, 2 &gt;</text>
</a>
</g>
</g>
<!-- Node16&#45;&gt;Node15 -->
<g id="edge16" class="edge">
<title>Node16&#45;&gt;Node15</title>
<path fill="none" stroke="midnightblue" d="M71.91,-293.74C83.57,-275.3 101.58,-246.8 110.55,-232.62"/>
<polygon fill="midnightblue" stroke="midnightblue" points="68.86,-292.02 66.47,-302.34 74.78,-295.76 68.86,-292.02"/>
</g>
</g>
</svg>
