<?xml version="1.0" encoding="UTF-8" standalone="no"?>
<!DOCTYPE svg PUBLIC "-//W3C//DTD SVG 1.1//EN"
 "http://www.w3.org/Graphics/SVG/1.1/DTD/svg11.dtd">
<!-- Generated by graphviz version 2.43.0 (0)
 -->
<!-- Title: HighBoostOp Pages: 1 -->
<svg width="177pt" height="380pt"
 viewBox="0.00 0.00 177.00 380.00" xmlns="http://www.w3.org/2000/svg" xmlns:xlink="http://www.w3.org/1999/xlink">
<g id="graph0" class="graph" transform="scale(1 1) rotate(0) translate(4 376)">
<title>HighBoostOp</title>
<polygon fill="white" stroke="transparent" points="-4,4 -4,-376 173,-376 173,4 -4,4"/>
<!-- Node1 -->
<g id="node1" class="node">
<title>Node1</title>
<g id="a_node1"><a xlink:title="Enhances details by mixing original image and result of HighPassOp op.">
<polygon fill="#bfbfbf" stroke="black" points="44.5,-0.5 44.5,-19.5 124.5,-19.5 124.5,-0.5 44.5,-0.5"/>
<text text-anchor="middle" x="84.5" y="-7.5" font-family="Helvetica,sans-Serif" font-size="10.00">HighBoostOp</text>
</a>
</g>
</g>
<!-- Node2 -->
<g id="node2" class="node">
<title>Node2</title>
<g id="a_node2"><a xlink:href="classdrain_1_1image_1_1ImageOp.html" target="_top" xlink:title="Base class for image processing functions.">
<polygon fill="white" stroke="black" points="54,-57.5 54,-76.5 115,-76.5 115,-57.5 54,-57.5"/>
<text text-anchor="middle" x="84.5" y="-64.5" font-family="Helvetica,sans-Serif" font-size="10.00">ImageOp</text>
</a>
</g>
</g>
<!-- Node2&#45;&gt;Node1 -->
<g id="edge1" class="edge">
<title>Node2&#45;&gt;Node1</title>
<path fill="none" stroke="midnightblue" d="M84.5,-47.12C84.5,-37.82 84.5,-27.06 84.5,-19.71"/>
<polygon fill="midnightblue" stroke="midnightblue" points="81,-47.41 84.5,-57.41 88,-47.41 81,-47.41"/>
</g>
<!-- Node3 -->
<g id="node3" class="node">
<title>Node3</title>
<g id="a_node3"><a xlink:href="classdrain_1_1image_1_1ImageMod.html" target="_top" xlink:title="Class for operations that modify an existing image instead of producing a new image.">
<polygon fill="white" stroke="black" points="50.5,-114.5 50.5,-133.5 118.5,-133.5 118.5,-114.5 50.5,-114.5"/>
<text text-anchor="middle" x="84.5" y="-121.5" font-family="Helvetica,sans-Serif" font-size="10.00">ImageMod</text>
</a>
</g>
</g>
<!-- Node3&#45;&gt;Node2 -->
<g id="edge2" class="edge">
<title>Node3&#45;&gt;Node2</title>
<path fill="none" stroke="midnightblue" d="M84.5,-104.12C84.5,-94.82 84.5,-84.06 84.5,-76.71"/>
<polygon fill="midnightblue" stroke="midnightblue" points="81,-104.41 84.5,-114.41 88,-104.41 81,-104.41"/>
</g>
<!-- Node4 -->
<g id="node4" class="node">
<title>Node4</title>
<g id="a_node4"><a xlink:href="classdrain_1_1BeanLike.html" target="_top" xlink:title="Something which has a name, a description and possibly some parameters of varying type.">
<polygon fill="white" stroke="black" points="54,-171.5 54,-190.5 115,-190.5 115,-171.5 54,-171.5"/>
<text text-anchor="middle" x="84.5" y="-178.5" font-family="Helvetica,sans-Serif" font-size="10.00">BeanLike</text>
</a>
</g>
</g>
<!-- Node4&#45;&gt;Node3 -->
<g id="edge3" class="edge">
<title>Node4&#45;&gt;Node3</title>
<path fill="none" stroke="midnightblue" d="M84.5,-161.12C84.5,-151.82 84.5,-141.06 84.5,-133.71"/>
<polygon fill="midnightblue" stroke="midnightblue" points="81,-161.41 84.5,-171.41 88,-161.41 81,-161.41"/>
</g>
<!-- Node5 -->
<g id="node5" class="node">
<title>Node5</title>
<g id="a_node5"><a xlink:href="classdrain_1_1ReferenceMap.html" target="_top" xlink:title=" ">
<polygon fill="white" stroke="black" points="41,-238.5 41,-257.5 128,-257.5 128,-238.5 41,-238.5"/>
<text text-anchor="middle" x="84.5" y="-245.5" font-family="Helvetica,sans-Serif" font-size="10.00">ReferenceMap</text>
</a>
</g>
</g>
<!-- Node5&#45;&gt;Node4 -->
<g id="edge4" class="edge">
<title>Node5&#45;&gt;Node4</title>
<path fill="none" stroke="#9a32cd" stroke-dasharray="5,2" d="M84.5,-228.04C84.5,-215.67 84.5,-200.12 84.5,-190.63"/>
<polygon fill="#9a32cd" stroke="#9a32cd" points="81,-228.23 84.5,-238.23 88,-228.23 81,-228.23"/>
<text text-anchor="middle" x="114.5" y="-212" font-family="Helvetica,sans-Serif" font-size="10.00"> parameters</text>
</g>
<!-- Node6 -->
<g id="node6" class="node">
<title>Node6</title>
<g id="a_node6"><a xlink:href="classdrain_1_1SmartMap.html" target="_top" xlink:title=" ">
<polygon fill="white" stroke="black" points="13,-295.5 13,-314.5 156,-314.5 156,-295.5 13,-295.5"/>
<text text-anchor="middle" x="84.5" y="-302.5" font-family="Helvetica,sans-Serif" font-size="10.00">SmartMap&lt; Referencer &gt;</text>
</a>
</g>
</g>
<!-- Node6&#45;&gt;Node5 -->
<g id="edge5" class="edge">
<title>Node6&#45;&gt;Node5</title>
<path fill="none" stroke="midnightblue" d="M84.5,-285.12C84.5,-275.82 84.5,-265.06 84.5,-257.71"/>
<polygon fill="midnightblue" stroke="midnightblue" points="81,-285.41 84.5,-295.41 88,-285.41 81,-285.41"/>
</g>
<!-- Node7 -->
<g id="node7" class="node">
<title>Node7</title>
<g id="a_node7"><a xlink:title=" ">
<polygon fill="white" stroke="#bfbfbf" points="0,-352.5 0,-371.5 169,-371.5 169,-352.5 0,-352.5"/>
<text text-anchor="middle" x="84.5" y="-359.5" font-family="Helvetica,sans-Serif" font-size="10.00">map&lt; std::string, Referencer &gt;</text>
</a>
</g>
</g>
<!-- Node7&#45;&gt;Node6 -->
<g id="edge6" class="edge">
<title>Node7&#45;&gt;Node6</title>
<path fill="none" stroke="midnightblue" d="M84.5,-342.12C84.5,-332.82 84.5,-322.06 84.5,-314.71"/>
<polygon fill="midnightblue" stroke="midnightblue" points="81,-342.41 84.5,-352.41 88,-342.41 81,-342.41"/>
</g>
</g>
</svg>
