<?xml version="1.0" encoding="UTF-8" standalone="no"?>
<!DOCTYPE svg PUBLIC "-//W3C//DTD SVG 1.1//EN"
 "http://www.w3.org/Graphics/SVG/1.1/DTD/svg11.dtd">
<!-- Generated by graphviz version 2.43.0 (0)
 -->
<!-- Title: CompositeAddWeighted Pages: 1 -->
<svg width="142pt" height="252pt"
 viewBox="0.00 0.00 142.00 252.00" xmlns="http://www.w3.org/2000/svg" xmlns:xlink="http://www.w3.org/1999/xlink">
<g id="graph0" class="graph" transform="scale(1 1) rotate(0) translate(4 248)">
<title>CompositeAddWeighted</title>
<polygon fill="white" stroke="transparent" points="-4,4 -4,-248 138,-248 138,4 -4,4"/>
<!-- Node1 -->
<g id="node1" class="node">
<title>Node1</title>
<g id="a_node1"><a xlink:title=" ">
<polygon fill="#bfbfbf" stroke="black" points="0,-0.5 0,-19.5 134,-19.5 134,-0.5 0,-0.5"/>
<text text-anchor="middle" x="67" y="-7.5" font-family="Helvetica,sans-Serif" font-size="10.00">CompositeAddWeighted</text>
</a>
</g>
</g>
<!-- Node2 -->
<g id="node2" class="node">
<title>Node2</title>
<g id="a_node2"><a xlink:href="classrack_1_1Compositor.html" target="_top" xlink:title=" ">
<polygon fill="white" stroke="black" points="30.5,-56.5 30.5,-75.5 103.5,-75.5 103.5,-56.5 30.5,-56.5"/>
<text text-anchor="middle" x="67" y="-63.5" font-family="Helvetica,sans-Serif" font-size="10.00">Compositor</text>
</a>
</g>
</g>
<!-- Node2&#45;&gt;Node1 -->
<g id="edge1" class="edge">
<title>Node2&#45;&gt;Node1</title>
<path fill="none" stroke="midnightblue" d="M67,-45.8C67,-36.91 67,-26.78 67,-19.75"/>
<polygon fill="midnightblue" stroke="midnightblue" points="63.5,-46.08 67,-56.08 70.5,-46.08 63.5,-46.08"/>
</g>
<!-- Node3 -->
<g id="node3" class="node">
<title>Node3</title>
<g id="a_node3"><a xlink:href="classdrain_1_1BasicCommand.html" target="_top" xlink:title="Simple implementation of Command: adds name , description and parameters .">
<polygon fill="white" stroke="black" points="20.5,-112.5 20.5,-131.5 113.5,-131.5 113.5,-112.5 20.5,-112.5"/>
<text text-anchor="middle" x="67" y="-119.5" font-family="Helvetica,sans-Serif" font-size="10.00">BasicCommand</text>
</a>
</g>
</g>
<!-- Node3&#45;&gt;Node2 -->
<g id="edge2" class="edge">
<title>Node3&#45;&gt;Node2</title>
<path fill="none" stroke="midnightblue" d="M67,-101.8C67,-92.91 67,-82.78 67,-75.75"/>
<polygon fill="midnightblue" stroke="midnightblue" points="63.5,-102.08 67,-112.08 70.5,-102.08 63.5,-102.08"/>
</g>
<!-- Node4 -->
<g id="node4" class="node">
<title>Node4</title>
<g id="a_node4"><a xlink:href="classdrain_1_1Command.html" target="_top" xlink:title="Base class for commands: typically actions taking parameters but also plain variable assignments and ...">
<polygon fill="white" stroke="black" points="33.5,-168.5 33.5,-187.5 100.5,-187.5 100.5,-168.5 33.5,-168.5"/>
<text text-anchor="middle" x="67" y="-175.5" font-family="Helvetica,sans-Serif" font-size="10.00">Command</text>
</a>
</g>
</g>
<!-- Node4&#45;&gt;Node3 -->
<g id="edge3" class="edge">
<title>Node4&#45;&gt;Node3</title>
<path fill="none" stroke="midnightblue" d="M67,-157.8C67,-148.91 67,-138.78 67,-131.75"/>
<polygon fill="midnightblue" stroke="midnightblue" points="63.5,-158.08 67,-168.08 70.5,-158.08 63.5,-158.08"/>
</g>
<!-- Node5 -->
<g id="node5" class="node">
<title>Node5</title>
<g id="a_node5"><a xlink:href="classdrain_1_1Contextual.html" target="_top" xlink:title=" ">
<polygon fill="white" stroke="black" points="32,-224.5 32,-243.5 102,-243.5 102,-224.5 32,-224.5"/>
<text text-anchor="middle" x="67" y="-231.5" font-family="Helvetica,sans-Serif" font-size="10.00">Contextual</text>
</a>
</g>
</g>
<!-- Node5&#45;&gt;Node4 -->
<g id="edge4" class="edge">
<title>Node5&#45;&gt;Node4</title>
<path fill="none" stroke="midnightblue" d="M67,-213.8C67,-204.91 67,-194.78 67,-187.75"/>
<polygon fill="midnightblue" stroke="midnightblue" points="63.5,-214.08 67,-224.08 70.5,-214.08 63.5,-214.08"/>
</g>
</g>
</svg>
