<?xml version="1.0" encoding="UTF-8" standalone="no"?>
<!DOCTYPE svg PUBLIC "-//W3C//DTD SVG 1.1//EN"
 "http://www.w3.org/Graphics/SVG/1.1/DTD/svg11.dtd">
<!-- Generated by graphviz version 2.43.0 (0)
 -->
<!-- Title: DetectorCommand&lt; OP &gt; Pages: 1 -->
<svg width="294pt" height="572pt"
 viewBox="0.00 0.00 294.00 572.00" xmlns="http://www.w3.org/2000/svg" xmlns:xlink="http://www.w3.org/1999/xlink">
<g id="graph0" class="graph" transform="scale(1 1) rotate(0) translate(4 568)">
<title>DetectorCommand&lt; OP &gt;</title>
<polygon fill="white" stroke="transparent" points="-4,4 -4,-568 290,-568 290,4 -4,4"/>
<!-- Node1 -->
<g id="node1" class="node">
<title>Node1</title>
<g id="a_node1"><a xlink:title=" ">
<polygon fill="#bfbfbf" stroke="black" points="83.5,-0.5 83.5,-19.5 228.5,-19.5 228.5,-0.5 83.5,-0.5"/>
<text text-anchor="middle" x="156" y="-7.5" font-family="Helvetica,sans-Serif" font-size="10.00">DetectorCommand&lt; OP &gt;</text>
</a>
</g>
</g>
<!-- Node2 -->
<g id="node2" class="node">
<title>Node2</title>
<g id="a_node2"><a xlink:href="classrack_1_1AnDReCommand.html" target="_top" xlink:title=" ">
<polygon fill="white" stroke="black" points="88,-57.5 88,-76.5 224,-76.5 224,-57.5 88,-57.5"/>
<text text-anchor="middle" x="156" y="-64.5" font-family="Helvetica,sans-Serif" font-size="10.00">AnDReCommand&lt; OP &gt;</text>
</a>
</g>
</g>
<!-- Node2&#45;&gt;Node1 -->
<g id="edge1" class="edge">
<title>Node2&#45;&gt;Node1</title>
<path fill="none" stroke="midnightblue" d="M156,-47.12C156,-37.82 156,-27.06 156,-19.71"/>
<polygon fill="midnightblue" stroke="midnightblue" points="152.5,-47.41 156,-57.41 159.5,-47.41 152.5,-47.41"/>
</g>
<!-- Node3 -->
<g id="node3" class="node">
<title>Node3</title>
<g id="a_node3"><a xlink:href="classdrain_1_1BeanCommand.html" target="_top" xlink:title=" ">
<polygon fill="white" stroke="black" points="92,-114.5 92,-133.5 220,-133.5 220,-114.5 92,-114.5"/>
<text text-anchor="middle" x="156" y="-121.5" font-family="Helvetica,sans-Serif" font-size="10.00">BeanCommand&lt; OP &gt;</text>
</a>
</g>
</g>
<!-- Node3&#45;&gt;Node2 -->
<g id="edge2" class="edge">
<title>Node3&#45;&gt;Node2</title>
<path fill="none" stroke="midnightblue" d="M156,-104.12C156,-94.82 156,-84.06 156,-76.71"/>
<polygon fill="midnightblue" stroke="midnightblue" points="152.5,-104.41 156,-114.41 159.5,-104.41 152.5,-104.41"/>
</g>
<!-- Node4 -->
<g id="node4" class="node">
<title>Node4</title>
<g id="a_node4"><a xlink:href="classdrain_1_1Command.html" target="_top" xlink:title="Base class for commands: typically actions taking parameters but also plain variable assignments and ...">
<polygon fill="white" stroke="black" points="122.5,-171.5 122.5,-190.5 189.5,-190.5 189.5,-171.5 122.5,-171.5"/>
<text text-anchor="middle" x="156" y="-178.5" font-family="Helvetica,sans-Serif" font-size="10.00">Command</text>
</a>
</g>
</g>
<!-- Node4&#45;&gt;Node3 -->
<g id="edge3" class="edge">
<title>Node4&#45;&gt;Node3</title>
<path fill="none" stroke="midnightblue" d="M156,-161.12C156,-151.82 156,-141.06 156,-133.71"/>
<polygon fill="midnightblue" stroke="midnightblue" points="152.5,-161.41 156,-171.41 159.5,-161.41 152.5,-161.41"/>
</g>
<!-- Node5 -->
<g id="node5" class="node">
<title>Node5</title>
<g id="a_node5"><a xlink:href="classdrain_1_1Contextual.html" target="_top" xlink:title=" ">
<polygon fill="white" stroke="black" points="121,-228.5 121,-247.5 191,-247.5 191,-228.5 121,-228.5"/>
<text text-anchor="middle" x="156" y="-235.5" font-family="Helvetica,sans-Serif" font-size="10.00">Contextual</text>
</a>
</g>
</g>
<!-- Node5&#45;&gt;Node4 -->
<g id="edge4" class="edge">
<title>Node5&#45;&gt;Node4</title>
<path fill="none" stroke="midnightblue" d="M156,-218.12C156,-208.82 156,-198.06 156,-190.71"/>
<polygon fill="midnightblue" stroke="midnightblue" points="152.5,-218.41 156,-228.41 159.5,-218.41 152.5,-218.41"/>
</g>
<!-- Node6 -->
<g id="node6" class="node">
<title>Node6</title>
<g id="a_node6"><a xlink:href="classdrain_1_1Context.html" target="_top" xlink:title=" ">
<polygon fill="white" stroke="black" points="128.5,-295.5 128.5,-314.5 183.5,-314.5 183.5,-295.5 128.5,-295.5"/>
<text text-anchor="middle" x="156" y="-302.5" font-family="Helvetica,sans-Serif" font-size="10.00">Context</text>
</a>
</g>
</g>
<!-- Node6&#45;&gt;Node5 -->
<g id="edge5" class="edge">
<title>Node6&#45;&gt;Node5</title>
<path fill="none" stroke="#9a32cd" stroke-dasharray="5,2" d="M156,-285.04C156,-272.67 156,-257.12 156,-247.63"/>
<polygon fill="#9a32cd" stroke="#9a32cd" points="152.5,-285.23 156,-295.23 159.5,-285.23 152.5,-285.23"/>
<text text-anchor="middle" x="183" y="-269" font-family="Helvetica,sans-Serif" font-size="10.00"> contextPtr</text>
</g>
<!-- Node7 -->
<g id="node7" class="node">
<title>Node7</title>
<g id="a_node7"><a xlink:href="classdrain_1_1VariableMap.html" target="_top" xlink:title="A map of Variables.">
<polygon fill="white" stroke="black" points="39,-362.5 39,-381.5 117,-381.5 117,-362.5 39,-362.5"/>
<text text-anchor="middle" x="78" y="-369.5" font-family="Helvetica,sans-Serif" font-size="10.00">VariableMap</text>
</a>
</g>
</g>
<!-- Node7&#45;&gt;Node6 -->
<g id="edge6" class="edge">
<title>Node7&#45;&gt;Node6</title>
<path fill="none" stroke="#9a32cd" stroke-dasharray="5,2" d="M84.01,-353.04C87.03,-346.09 91.3,-338.51 97,-333 105.75,-324.55 117.62,-318.42 128.42,-314.16"/>
<polygon fill="#9a32cd" stroke="#9a32cd" points="80.71,-351.84 80.43,-362.44 87.26,-354.33 80.71,-351.84"/>
<text text-anchor="middle" x="124.5" y="-336" font-family="Helvetica,sans-Serif" font-size="10.00"> statusMap</text>
</g>
<!-- Node8 -->
<g id="node8" class="node">
<title>Node8</title>
<g id="a_node8"><a xlink:href="classdrain_1_1SmartMap.html" target="_top" xlink:title=" ">
<polygon fill="white" stroke="black" points="13,-425 13,-444 143,-444 143,-425 13,-425"/>
<text text-anchor="middle" x="78" y="-432" font-family="Helvetica,sans-Serif" font-size="10.00">SmartMap&lt; Variable &gt;</text>
</a>
</g>
</g>
<!-- Node8&#45;&gt;Node7 -->
<g id="edge7" class="edge">
<title>Node8&#45;&gt;Node7</title>
<path fill="none" stroke="midnightblue" d="M78,-414.5C78,-403.5 78,-390.18 78,-381.65"/>
<polygon fill="midnightblue" stroke="midnightblue" points="74.5,-414.83 78,-424.83 81.5,-414.83 74.5,-414.83"/>
</g>
<!-- Node9 -->
<g id="node9" class="node">
<title>Node9</title>
<g id="a_node9"><a xlink:title=" ">
<polygon fill="white" stroke="#bfbfbf" points="0,-487.5 0,-506.5 156,-506.5 156,-487.5 0,-487.5"/>
<text text-anchor="middle" x="78" y="-494.5" font-family="Helvetica,sans-Serif" font-size="10.00">map&lt; std::string, Variable &gt;</text>
</a>
</g>
</g>
<!-- Node9&#45;&gt;Node8 -->
<g id="edge8" class="edge">
<title>Node9&#45;&gt;Node8</title>
<path fill="none" stroke="midnightblue" d="M78,-477C78,-466 78,-452.68 78,-444.15"/>
<polygon fill="midnightblue" stroke="midnightblue" points="74.5,-477.33 78,-487.33 81.5,-477.33 74.5,-477.33"/>
</g>
<!-- Node10 -->
<g id="node10" class="node">
<title>Node10</title>
<g id="a_node10"><a xlink:href="classdrain_1_1Log.html" target="_top" xlink:title="Handler for notifications sent by a Logger.">
<polygon fill="white" stroke="black" points="139,-362.5 139,-381.5 173,-381.5 173,-362.5 139,-362.5"/>
<text text-anchor="middle" x="156" y="-369.5" font-family="Helvetica,sans-Serif" font-size="10.00">Log</text>
</a>
</g>
</g>
<!-- Node10&#45;&gt;Node6 -->
<g id="edge9" class="edge">
<title>Node10&#45;&gt;Node6</title>
<path fill="none" stroke="#9a32cd" stroke-dasharray="5,2" d="M156,-352.04C156,-339.67 156,-324.12 156,-314.63"/>
<polygon fill="#9a32cd" stroke="#9a32cd" points="152.5,-352.23 156,-362.23 159.5,-352.23 152.5,-352.23"/>
<text text-anchor="middle" x="165.5" y="-336" font-family="Helvetica,sans-Serif" font-size="10.00"> log</text>
</g>
<!-- Node11 -->
<g id="node11" class="node">
<title>Node11</title>
<g id="a_node11"><a xlink:href="classdrain_1_1StatusFlags.html" target="_top" xlink:title=" ">
<polygon fill="white" stroke="black" points="191,-362.5 191,-381.5 265,-381.5 265,-362.5 191,-362.5"/>
<text text-anchor="middle" x="228" y="-369.5" font-family="Helvetica,sans-Serif" font-size="10.00">StatusFlags</text>
</a>
</g>
</g>
<!-- Node11&#45;&gt;Node6 -->
<g id="edge10" class="edge">
<title>Node11&#45;&gt;Node6</title>
<path fill="none" stroke="#9a32cd" stroke-dasharray="5,2" d="M210.67,-355.36C196.52,-342.58 177.04,-324.99 165.56,-314.63"/>
<polygon fill="#9a32cd" stroke="#9a32cd" points="208.52,-358.13 218.29,-362.23 213.21,-352.93 208.52,-358.13"/>
<text text-anchor="middle" x="226" y="-336" font-family="Helvetica,sans-Serif" font-size="10.00"> statusFlags</text>
</g>
<!-- Node12 -->
<g id="node12" class="node">
<title>Node12</title>
<g id="a_node12"><a xlink:href="classdrain_1_1GlobalFlags.html" target="_top" xlink:title=" ">
<polygon fill="white" stroke="black" points="170,-419.5 170,-449.5 286,-449.5 286,-419.5 170,-419.5"/>
<text text-anchor="start" x="178" y="-437.5" font-family="Helvetica,sans-Serif" font-size="10.00">GlobalFlags&lt; status</text>
<text text-anchor="middle" x="228" y="-426.5" font-family="Helvetica,sans-Serif" font-size="10.00">_flag_id &gt;</text>
</a>
</g>
</g>
<!-- Node12&#45;&gt;Node11 -->
<g id="edge11" class="edge">
<title>Node12&#45;&gt;Node11</title>
<path fill="none" stroke="midnightblue" d="M228,-409.35C228,-399.51 228,-388.78 228,-381.54"/>
<polygon fill="midnightblue" stroke="midnightblue" points="224.5,-409.47 228,-419.47 231.5,-409.47 224.5,-409.47"/>
</g>
<!-- Node13 -->
<g id="node13" class="node">
<title>Node13</title>
<g id="a_node13"><a xlink:href="classdrain_1_1Flagger.html" target="_top" xlink:title="Bit vector accessible also with integer values associated with strings.">
<polygon fill="white" stroke="black" points="201.5,-487.5 201.5,-506.5 254.5,-506.5 254.5,-487.5 201.5,-487.5"/>
<text text-anchor="middle" x="228" y="-494.5" font-family="Helvetica,sans-Serif" font-size="10.00">Flagger</text>
</a>
</g>
</g>
<!-- Node13&#45;&gt;Node12 -->
<g id="edge12" class="edge">
<title>Node13&#45;&gt;Node12</title>
<path fill="none" stroke="midnightblue" d="M228,-477.22C228,-468.36 228,-457.96 228,-449.76"/>
<polygon fill="midnightblue" stroke="midnightblue" points="224.5,-477.33 228,-487.33 231.5,-477.33 224.5,-477.33"/>
</g>
<!-- Node14 -->
<g id="node14" class="node">
<title>Node14</title>
<g id="a_node14"><a xlink:href="classdrain_1_1FlagResolver.html" target="_top" xlink:title="Referencing a dictionary of binary values: {&quot;A&quot;,1: &quot;B&quot;:2, &quot;C&quot;: 4, &quot;D&quot;: 8, ...} resolves two&#45;way mappi...">
<polygon fill="white" stroke="black" points="188,-544.5 188,-563.5 268,-563.5 268,-544.5 188,-544.5"/>
<text text-anchor="middle" x="228" y="-551.5" font-family="Helvetica,sans-Serif" font-size="10.00">FlagResolver</text>
</a>
</g>
</g>
<!-- Node14&#45;&gt;Node13 -->
<g id="edge13" class="edge">
<title>Node14&#45;&gt;Node13</title>
<path fill="none" stroke="midnightblue" d="M228,-534.12C228,-524.82 228,-514.06 228,-506.71"/>
<polygon fill="midnightblue" stroke="midnightblue" points="224.5,-534.41 228,-544.41 231.5,-534.41 224.5,-534.41"/>
</g>
</g>
</svg>
