<?xml version="1.0" encoding="UTF-8" standalone="no"?>
<!DOCTYPE svg PUBLIC "-//W3C//DTD SVG 1.1//EN"
 "http://www.w3.org/Graphics/SVG/1.1/DTD/svg11.dtd">
<!-- Generated by graphviz version 2.43.0 (0)
 -->
<!-- Title: ImageContext Pages: 1 -->
<!--zoomable 485 -->
<svg id="main" version="1.1" xmlns="http://www.w3.org/2000/svg" xmlns:xlink="http://www.w3.org/1999/xlink" xml:space="preserve" onload="init(evt)">
<style type="text/css"><![CDATA[
.edge:hover path { stroke: red; }
.edge:hover polygon { stroke: red; fill: red; }
]]></style>
<script type="text/javascript"><![CDATA[
var edges = document.getElementsByTagName('g');
if (edges && edges.length) {
  for (var i=0;i<edges.length;i++) {
    if (edges[i].id.substr(0,4)=='edge') {
      edges[i].setAttribute('class','edge');
    }
  }
}
]]></script>
        <defs>
                <circle id="rim" cx="0" cy="0" r="7"/>
                <circle id="rim2" cx="0" cy="0" r="3.5"/>
                <g id="zoomPlus">
                        <use xlink:href="#rim" fill="#404040">
                                <set attributeName="fill" to="#808080" begin="zoomplus.mouseover" end="zoomplus.mouseout"/>
                        </use>
                        <path d="M-4,0h8M0,-4v8" fill="none" stroke="white" stroke-width="1.5" pointer-events="none"/>
                </g>
                <g id="zoomMin">
                        <use xlink:href="#rim" fill="#404040">
                                <set attributeName="fill" to="#808080" begin="zoomminus.mouseover" end="zoomminus.mouseout"/>
                        </use>
                        <path d="M-4,0h8" fill="none" stroke="white" stroke-width="1.5" pointer-events="none"/>
                </g>
                <g id="dirArrow">
                        <path fill="none" stroke="white" stroke-width="1.5" d="M0,-3.0v7 M-2.5,-0.5L0,-3.0L2.5,-0.5"/>
                </g>
               <g id="resetDef">
                       <use xlink:href="#rim2" fill="#404040">
                               <set attributeName="fill" to="#808080" begin="reset.mouseover" end="reset.mouseout"/>
                       </use>
               </g>
        </defs>

<script type="text/javascript">
var viewWidth = 2453;
var viewHeight = 485;
var sectionId = 'dynsection-1';
</script>
<script xlink:href="svgpan.js"/>
<svg id="graph" class="graph">
<g id="viewport">
<title>ImageContext</title>
<polygon fill="white" stroke="transparent" points="-4,4 -4,-480.5 2449,-480.5 2449,4 -4,4"/>
<!-- Node1 -->
<g id="node1" class="node">
<title>Node1</title>
<g id="a_node1"><a xlink:title=" ">
<polygon fill="#bfbfbf" stroke="black" points="2359,-166.5 2359,-185.5 2445,-185.5 2445,-166.5 2359,-166.5"/>
<text text-anchor="middle" x="2402" y="-173.5" font-family="Helvetica,sans-Serif" font-size="10.00">ImageContext</text>
</a>
</g>
</g>
<!-- Node2 -->
<g id="node2" class="node">
<title>Node2</title>
<g id="a_node2"><a xlink:href="classdrain_1_1image_1_1Palette.html" target="_top" xlink:title=" ">
<polygon fill="white" stroke="black" points="750,-372.5 750,-391.5 801,-391.5 801,-372.5 750,-372.5"/>
<text text-anchor="middle" x="775.5" y="-379.5" font-family="Helvetica,sans-Serif" font-size="10.00">Palette</text>
</a>
</g>
</g>
<!-- Node2&#45;&gt;Node1 -->
<g id="edge1" class="edge">
<title>Node2&#45;&gt;Node1</title>
<path fill="none" stroke="#9a32cd" stroke-dasharray="5,2" d="M796.65,-366.27C842.27,-332.27 958.11,-255 1068.5,-255 1068.5,-255 1068.5,-255 2157.5,-255 2240.97,-255 2263.97,-247.16 2341,-215 2358.88,-207.53 2377.25,-194.68 2388.87,-185.79"/>
<polygon fill="#9a32cd" stroke="#9a32cd" points="794.34,-363.63 788.48,-372.45 798.57,-369.21 794.34,-363.63"/>
<text text-anchor="middle" x="1685" y="-258" font-family="Helvetica,sans-Serif" font-size="10.00"> palette</text>
</g>
<!-- Node3 -->
<g id="node3" class="node">
<title>Node3</title>
<g id="a_node3"><a xlink:href="classdrain_1_1ImageCodeMap.html" target="_top" xlink:title=" ">
<polygon fill="white" stroke="black" points="423,-385.5 423,-404.5 599,-404.5 599,-385.5 423,-385.5"/>
<text text-anchor="middle" x="511" y="-392.5" font-family="Helvetica,sans-Serif" font-size="10.00">ImageCodeMap&lt; PaletteEntry &gt;</text>
</a>
</g>
</g>
<!-- Node3&#45;&gt;Node2 -->
<g id="edge2" class="edge">
<title>Node3&#45;&gt;Node2</title>
<path fill="none" stroke="midnightblue" d="M609.07,-390.19C659.72,-387.68 717.67,-384.81 749.78,-383.22"/>
<polygon fill="midnightblue" stroke="midnightblue" points="608.86,-386.7 599.04,-390.69 609.2,-393.69 608.86,-386.7"/>
</g>
<!-- Node4 -->
<g id="node4" class="node">
<title>Node4</title>
<g id="a_node4"><a xlink:title=" ">
<polygon fill="white" stroke="#bfbfbf" points="169,-407.5 169,-426.5 329,-426.5 329,-407.5 169,-407.5"/>
<text text-anchor="middle" x="249" y="-414.5" font-family="Helvetica,sans-Serif" font-size="10.00">map&lt; double, PaletteEntry &gt;</text>
</a>
</g>
</g>
<!-- Node4&#45;&gt;Node3 -->
<g id="edge3" class="edge">
<title>Node4&#45;&gt;Node3</title>
<path fill="none" stroke="midnightblue" d="M339.27,-409.45C366.25,-407.16 395.84,-404.66 422.69,-402.39"/>
<polygon fill="midnightblue" stroke="midnightblue" points="338.74,-405.98 329.07,-410.31 339.33,-412.95 338.74,-405.98"/>
</g>
<!-- Node5 -->
<g id="node5" class="node">
<title>Node5</title>
<g id="a_node5"><a xlink:href="classdrain_1_1LookUp.html" target="_top" xlink:title=" ">
<polygon fill="white" stroke="black" points="180,-358 180,-388 318,-388 318,-358 180,-358"/>
<text text-anchor="start" x="188" y="-376" font-family="Helvetica,sans-Serif" font-size="10.00">LookUp&lt; typename cont</text>
<text text-anchor="middle" x="249" y="-365" font-family="Helvetica,sans-Serif" font-size="10.00">_t::const_iterator &gt;</text>
</a>
</g>
</g>
<!-- Node5&#45;&gt;Node3 -->
<g id="edge4" class="edge">
<title>Node5&#45;&gt;Node3</title>
<path fill="none" stroke="#9a32cd" stroke-dasharray="5,2" d="M328.61,-379.65C358.25,-382.16 392.14,-385.03 422.54,-387.6"/>
<polygon fill="#9a32cd" stroke="#9a32cd" points="328.57,-376.14 318.31,-378.78 327.98,-383.11 328.57,-376.14"/>
<text text-anchor="middle" x="376" y="-388" font-family="Helvetica,sans-Serif" font-size="10.00"> lookUp</text>
</g>
<!-- Node6 -->
<g id="node6" class="node">
<title>Node6</title>
<g id="a_node6"><a xlink:title=" ">
<polygon fill="white" stroke="#bfbfbf" points="0,-358 0,-388 132,-388 132,-358 0,-358"/>
<text text-anchor="start" x="8" y="-376" font-family="Helvetica,sans-Serif" font-size="10.00">vector&lt; typename cont</text>
<text text-anchor="middle" x="66" y="-365" font-family="Helvetica,sans-Serif" font-size="10.00">_t::const_iterator &gt;</text>
</a>
</g>
</g>
<!-- Node6&#45;&gt;Node5 -->
<g id="edge5" class="edge">
<title>Node6&#45;&gt;Node5</title>
<path fill="none" stroke="midnightblue" d="M142.4,-373C154.81,-373 167.61,-373 179.83,-373"/>
<polygon fill="midnightblue" stroke="midnightblue" points="142.09,-369.5 132.09,-373 142.09,-376.5 142.09,-369.5"/>
</g>
<!-- Node7 -->
<g id="node7" class="node">
<title>Node7</title>
<g id="a_node7"><a xlink:href="classdrain_1_1image_1_1ChannelGeometry.html" target="_top" xlink:title=" ">
<polygon fill="white" stroke="black" points="458.5,-302.5 458.5,-321.5 563.5,-321.5 563.5,-302.5 458.5,-302.5"/>
<text text-anchor="middle" x="511" y="-309.5" font-family="Helvetica,sans-Serif" font-size="10.00">ChannelGeometry</text>
</a>
</g>
</g>
<!-- Node7&#45;&gt;Node2 -->
<g id="edge6" class="edge">
<title>Node7&#45;&gt;Node2</title>
<path fill="none" stroke="#9a32cd" stroke-dasharray="5,2" d="M573.56,-321.29C582.36,-323.8 591.09,-326.97 599,-331 608.54,-335.86 607.47,-342.13 617,-347 660.4,-369.19 717.56,-377.38 749.73,-380.36"/>
<polygon fill="#9a32cd" stroke="#9a32cd" points="574.21,-317.85 563.65,-318.74 572.46,-324.63 574.21,-317.85"/>
<text text-anchor="middle" x="643" y="-368" font-family="Helvetica,sans-Serif" font-size="10.00"> channels</text>
</g>
<!-- Node25 -->
<g id="node25" class="node">
<title>Node25</title>
<g id="a_node25"><a xlink:href="classdrain_1_1image_1_1Geometry.html" target="_top" xlink:title=" ">
<polygon fill="white" stroke="black" points="743,-209.5 743,-228.5 808,-228.5 808,-209.5 743,-209.5"/>
<text text-anchor="middle" x="775.5" y="-216.5" font-family="Helvetica,sans-Serif" font-size="10.00">Geometry</text>
</a>
</g>
</g>
<!-- Node7&#45;&gt;Node25 -->
<g id="edge28" class="edge">
<title>Node7&#45;&gt;Node25</title>
<path fill="none" stroke="#9a32cd" stroke-dasharray="5,2" d="M573.41,-300.6C582.1,-298.41 590.84,-295.88 599,-293 640.23,-278.44 646.67,-265.91 687,-249 705.36,-241.3 726.47,-234.02 743.35,-228.56"/>
<polygon fill="#9a32cd" stroke="#9a32cd" points="572.57,-297.2 563.66,-302.93 574.2,-304.01 572.57,-297.2"/>
<text text-anchor="middle" x="643" y="-288" font-family="Helvetica,sans-Serif" font-size="10.00"> channels</text>
</g>
<!-- Node8 -->
<g id="node8" class="node">
<title>Node8</title>
<g id="a_node8"><a xlink:href="classdrain_1_1UniTuple.html" target="_top" xlink:title=" ">
<polygon fill="white" stroke="black" points="188,-267.5 188,-286.5 310,-286.5 310,-267.5 188,-267.5"/>
<text text-anchor="middle" x="249" y="-274.5" font-family="Helvetica,sans-Serif" font-size="10.00">UniTuple&lt; size_t, 2 &gt;</text>
</a>
</g>
</g>
<!-- Node8&#45;&gt;Node7 -->
<g id="edge7" class="edge">
<title>Node8&#45;&gt;Node7</title>
<path fill="none" stroke="midnightblue" d="M320.26,-286.46C363.82,-292.32 418.81,-299.72 458.36,-305.05"/>
<polygon fill="midnightblue" stroke="midnightblue" points="320.68,-282.98 310.3,-285.12 319.75,-289.92 320.68,-282.98"/>
</g>
<!-- Node27 -->
<g id="node27" class="node">
<title>Node27</title>
<g id="a_node27"><a xlink:href="classdrain_1_1Frame2D.html" target="_top" xlink:title=" ">
<polygon fill="white" stroke="black" points="455,-176.5 455,-195.5 567,-195.5 567,-176.5 455,-176.5"/>
<text text-anchor="middle" x="511" y="-183.5" font-family="Helvetica,sans-Serif" font-size="10.00">Frame2D&lt; size_t &gt;</text>
</a>
</g>
</g>
<!-- Node8&#45;&gt;Node27 -->
<g id="edge27" class="edge">
<title>Node8&#45;&gt;Node27</title>
<path fill="none" stroke="midnightblue" d="M279.11,-262.99C313.02,-247.12 371.03,-221.34 423,-205 434.5,-201.38 447.07,-198.21 458.99,-195.54"/>
<polygon fill="midnightblue" stroke="midnightblue" points="277.36,-259.95 269.81,-267.38 280.34,-266.28 277.36,-259.95"/>
</g>
<!-- Node9 -->
<g id="node9" class="node">
<title>Node9</title>
<g id="a_node9"><a xlink:href="classdrain_1_1Dictionary2.html" target="_top" xlink:title=" ">
<polygon fill="white" stroke="black" points="454.5,-435 454.5,-465 567.5,-465 567.5,-435 454.5,-435"/>
<text text-anchor="start" x="462.5" y="-453" font-family="Helvetica,sans-Serif" font-size="10.00">Dictionary2&lt; key_t,</text>
<text text-anchor="middle" x="511" y="-442" font-family="Helvetica,sans-Serif" font-size="10.00"> std::string &gt;</text>
</a>
</g>
</g>
<!-- Node9&#45;&gt;Node2 -->
<g id="edge8" class="edge">
<title>Node9&#45;&gt;Node2</title>
<path fill="none" stroke="#9a32cd" stroke-dasharray="5,2" d="M577.49,-433.03C633.38,-418.56 710.72,-398.52 749.79,-388.4"/>
<polygon fill="#9a32cd" stroke="#9a32cd" points="576.47,-429.68 567.67,-435.58 578.23,-436.46 576.47,-429.68"/>
<text text-anchor="middle" x="643" y="-425" font-family="Helvetica,sans-Serif" font-size="10.00"> dictionary</text>
</g>
<!-- Node10 -->
<g id="node10" class="node">
<title>Node10</title>
<g id="a_node10"><a xlink:title=" ">
<polygon fill="white" stroke="#bfbfbf" points="193.5,-446 193.5,-476 304.5,-476 304.5,-446 193.5,-446"/>
<text text-anchor="start" x="201.5" y="-464" font-family="Helvetica,sans-Serif" font-size="10.00">list&lt; std::pair&lt; key</text>
<text text-anchor="middle" x="249" y="-453" font-family="Helvetica,sans-Serif" font-size="10.00">_t, std::string &gt; &gt;</text>
</a>
</g>
</g>
<!-- Node10&#45;&gt;Node9 -->
<g id="edge9" class="edge">
<title>Node10&#45;&gt;Node9</title>
<path fill="none" stroke="midnightblue" d="M314.56,-458.27C357.47,-456.45 413.24,-454.09 454.22,-452.36"/>
<polygon fill="midnightblue" stroke="midnightblue" points="314.35,-454.77 304.5,-458.69 314.64,-461.77 314.35,-454.77"/>
</g>
<!-- Node11 -->
<g id="node11" class="node">
<title>Node11</title>
<g id="a_node11"><a xlink:href="structdrain_1_1Point2D.html" target="_top" xlink:title=" ">
<polygon fill="white" stroke="black" points="2082,-200.5 2082,-219.5 2231,-219.5 2231,-200.5 2082,-200.5"/>
<text text-anchor="middle" x="2156.5" y="-207.5" font-family="Helvetica,sans-Serif" font-size="10.00">Point2D&lt; unsigned short &gt;</text>
</a>
</g>
</g>
<!-- Node11&#45;&gt;Node1 -->
<g id="edge10" class="edge">
<title>Node11&#45;&gt;Node1</title>
<path fill="none" stroke="#9a32cd" stroke-dasharray="5,2" d="M2241.35,-201.34C2272.7,-197.74 2308.55,-193.18 2341,-188 2346.77,-187.08 2352.83,-186 2358.79,-184.87"/>
<polygon fill="#9a32cd" stroke="#9a32cd" points="2240.89,-197.87 2231.35,-202.48 2241.68,-204.83 2240.89,-197.87"/>
<text text-anchor="middle" x="2295" y="-203" font-family="Helvetica,sans-Serif" font-size="10.00"> tilesize</text>
</g>
<!-- Node12 -->
<g id="node12" class="node">
<title>Node12</title>
<g id="a_node12"><a xlink:href="classdrain_1_1UniTuple.html" target="_top" xlink:title=" ">
<polygon fill="white" stroke="black" points="1889,-195 1889,-225 2003,-225 2003,-195 1889,-195"/>
<text text-anchor="start" x="1897" y="-213" font-family="Helvetica,sans-Serif" font-size="10.00">UniTuple&lt; unsigned</text>
<text text-anchor="middle" x="1946" y="-202" font-family="Helvetica,sans-Serif" font-size="10.00"> short, 2 &gt;</text>
</a>
</g>
</g>
<!-- Node12&#45;&gt;Node11 -->
<g id="edge11" class="edge">
<title>Node12&#45;&gt;Node11</title>
<path fill="none" stroke="midnightblue" d="M2013.32,-210C2035.18,-210 2059.62,-210 2081.99,-210"/>
<polygon fill="midnightblue" stroke="midnightblue" points="2013.15,-206.5 2003.15,-210 2013.15,-213.5 2013.15,-206.5"/>
</g>
<!-- Node13 -->
<g id="node13" class="node">
<title>Node13</title>
<g id="a_node13"><a xlink:href="classdrain_1_1image_1_1Image.html" target="_top" xlink:title="Class for multi&#45;channel digital images. Supports dynamic typing with base types (char,...">
<polygon fill="white" stroke="black" points="2133,-133.5 2133,-152.5 2180,-152.5 2180,-133.5 2133,-133.5"/>
<text text-anchor="middle" x="2156.5" y="-140.5" font-family="Helvetica,sans-Serif" font-size="10.00">Image</text>
</a>
</g>
</g>
<!-- Node13&#45;&gt;Node1 -->
<g id="edge12" class="edge">
<title>Node13&#45;&gt;Node1</title>
<path fill="none" stroke="#9a32cd" stroke-dasharray="5,2" d="M2190.51,-138.48C2227.72,-134.47 2289.7,-131.03 2341,-144 2358.17,-148.34 2375.82,-158.58 2387.49,-166.32"/>
<polygon fill="#9a32cd" stroke="#9a32cd" points="2189.78,-135.04 2180.25,-139.67 2190.59,-142 2189.78,-135.04"/>
<text text-anchor="middle" x="2295" y="-180" font-family="Helvetica,sans-Serif" font-size="10.00"> currentGrayImage</text>
<text text-anchor="middle" x="2295" y="-169" font-family="Helvetica,sans-Serif" font-size="10.00">colorImage</text>
<text text-anchor="middle" x="2295" y="-158" font-family="Helvetica,sans-Serif" font-size="10.00">currentImage</text>
<text text-anchor="middle" x="2295" y="-147" font-family="Helvetica,sans-Serif" font-size="10.00">grayImage</text>
</g>
<!-- Node14 -->
<g id="node14" class="node">
<title>Node14</title>
<g id="a_node14"><a xlink:href="classdrain_1_1image_1_1ModifiableImage.html" target="_top" xlink:title="Image with modifiable geometry.">
<polygon fill="white" stroke="black" points="1896.5,-133.5 1896.5,-152.5 1995.5,-152.5 1995.5,-133.5 1896.5,-133.5"/>
<text text-anchor="middle" x="1946" y="-140.5" font-family="Helvetica,sans-Serif" font-size="10.00">ModifiableImage</text>
</a>
</g>
</g>
<!-- Node14&#45;&gt;Node13 -->
<g id="edge13" class="edge">
<title>Node14&#45;&gt;Node13</title>
<path fill="none" stroke="midnightblue" d="M2005.79,-143C2047.98,-143 2102.54,-143 2132.77,-143"/>
<polygon fill="midnightblue" stroke="midnightblue" points="2005.62,-139.5 1995.62,-143 2005.62,-146.5 2005.62,-139.5"/>
</g>
<!-- Node15 -->
<g id="node15" class="node">
<title>Node15</title>
<g id="a_node15"><a xlink:href="classdrain_1_1image_1_1MultiChannel.html" target="_top" xlink:title="Multi&#45;channel ImageFrame.">
<polygon fill="white" stroke="black" points="1734,-132.5 1734,-151.5 1815,-151.5 1815,-132.5 1734,-132.5"/>
<text text-anchor="middle" x="1774.5" y="-139.5" font-family="Helvetica,sans-Serif" font-size="10.00">MultiChannel</text>
</a>
</g>
</g>
<!-- Node15&#45;&gt;Node14 -->
<g id="edge14" class="edge">
<title>Node15&#45;&gt;Node14</title>
<path fill="none" stroke="midnightblue" d="M1825.25,-142.29C1847.7,-142.43 1874.13,-142.58 1896.44,-142.71"/>
<polygon fill="midnightblue" stroke="midnightblue" points="1825.26,-138.79 1815.24,-142.23 1825.22,-145.79 1825.26,-138.79"/>
</g>
<!-- Node16 -->
<g id="node16" class="node">
<title>Node16</title>
<g id="a_node16"><a xlink:href="classdrain_1_1image_1_1ImageFrame.html" target="_top" xlink:title="Image with static geometry.">
<polygon fill="white" stroke="black" points="1545,-132.5 1545,-151.5 1623,-151.5 1623,-132.5 1545,-132.5"/>
<text text-anchor="middle" x="1584" y="-139.5" font-family="Helvetica,sans-Serif" font-size="10.00">ImageFrame</text>
</a>
</g>
</g>
<!-- Node16&#45;&gt;Node15 -->
<g id="edge15" class="edge">
<title>Node16&#45;&gt;Node15</title>
<path fill="none" stroke="midnightblue" d="M1633.34,-142C1664.49,-142 1704.5,-142 1733.79,-142"/>
<polygon fill="midnightblue" stroke="midnightblue" points="1633.15,-138.5 1623.15,-142 1633.15,-145.5 1633.15,-138.5"/>
</g>
<!-- Node17 -->
<g id="node17" class="node">
<title>Node17</title>
<g id="a_node17"><a xlink:href="classdrain_1_1image_1_1ImageLike.html" target="_top" xlink:title="A base class for images.">
<polygon fill="white" stroke="black" points="1323,-182.5 1323,-201.5 1390,-201.5 1390,-182.5 1323,-182.5"/>
<text text-anchor="middle" x="1356.5" y="-189.5" font-family="Helvetica,sans-Serif" font-size="10.00">ImageLike</text>
</a>
</g>
</g>
<!-- Node17&#45;&gt;Node16 -->
<g id="edge16" class="edge">
<title>Node17&#45;&gt;Node16</title>
<path fill="none" stroke="midnightblue" d="M1400.15,-182.54C1441.87,-173.29 1504.81,-159.34 1544.89,-150.45"/>
<polygon fill="midnightblue" stroke="midnightblue" points="1399.29,-179.15 1390.29,-184.73 1400.81,-185.98 1399.29,-179.15"/>
</g>
<!-- Node18 -->
<g id="node18" class="node">
<title>Node18</title>
<g id="a_node18"><a xlink:href="classdrain_1_1image_1_1ImageConf.html" target="_top" xlink:title="Struct for image (excluding data)">
<polygon fill="white" stroke="black" points="1034.5,-185.5 1034.5,-204.5 1104.5,-204.5 1104.5,-185.5 1034.5,-185.5"/>
<text text-anchor="middle" x="1069.5" y="-192.5" font-family="Helvetica,sans-Serif" font-size="10.00">ImageConf</text>
</a>
</g>
</g>
<!-- Node18&#45;&gt;Node17 -->
<g id="edge17" class="edge">
<title>Node18&#45;&gt;Node17</title>
<path fill="none" stroke="#9a32cd" stroke-dasharray="5,2" d="M1114.83,-194.53C1172.37,-193.93 1271.45,-192.88 1322.69,-192.35"/>
<polygon fill="#9a32cd" stroke="#9a32cd" points="1114.56,-191.04 1104.59,-194.64 1114.63,-198.04 1114.56,-191.04"/>
<text text-anchor="middle" x="1219.5" y="-196" font-family="Helvetica,sans-Serif" font-size="10.00"> conf</text>
</g>
<!-- Node19 -->
<g id="node19" class="node">
<title>Node19</title>
<g id="a_node19"><a xlink:href="classdrain_1_1image_1_1Encoding.html" target="_top" xlink:title=" ">
<polygon fill="white" stroke="black" points="745,-161.5 745,-180.5 806,-180.5 806,-161.5 745,-161.5"/>
<text text-anchor="middle" x="775.5" y="-168.5" font-family="Helvetica,sans-Serif" font-size="10.00">Encoding</text>
</a>
</g>
</g>
<!-- Node19&#45;&gt;Node18 -->
<g id="edge18" class="edge">
<title>Node19&#45;&gt;Node18</title>
<path fill="none" stroke="midnightblue" d="M816.5,-173.65C855.06,-176.27 915.05,-180.53 967,-185 989.41,-186.93 1014.56,-189.4 1034.22,-191.41"/>
<polygon fill="midnightblue" stroke="midnightblue" points="816.43,-170.14 806.22,-172.95 815.96,-177.12 816.43,-170.14"/>
</g>
<!-- Node20 -->
<g id="node20" class="node">
<title>Node20</title>
<g id="a_node20"><a xlink:href="classdrain_1_1ValueScaling.html" target="_top" xlink:title="Linear scaling and physical range for image intensities.">
<polygon fill="white" stroke="black" points="471,-138.5 471,-157.5 551,-157.5 551,-138.5 471,-138.5"/>
<text text-anchor="middle" x="511" y="-145.5" font-family="Helvetica,sans-Serif" font-size="10.00">ValueScaling</text>
</a>
</g>
</g>
<!-- Node20&#45;&gt;Node19 -->
<g id="edge19" class="edge">
<title>Node20&#45;&gt;Node19</title>
<path fill="none" stroke="midnightblue" d="M561.04,-152.3C614.98,-157.02 699.92,-164.47 744.66,-168.39"/>
<polygon fill="midnightblue" stroke="midnightblue" points="561.28,-148.8 551.02,-151.42 560.67,-155.78 561.28,-148.8"/>
</g>
<!-- Node21 -->
<g id="node21" class="node">
<title>Node21</title>
<g id="a_node21"><a xlink:href="classdrain_1_1UniTuple.html" target="_top" xlink:title=" ">
<polygon fill="white" stroke="black" points="186,-120.5 186,-139.5 312,-139.5 312,-120.5 186,-120.5"/>
<text text-anchor="middle" x="249" y="-127.5" font-family="Helvetica,sans-Serif" font-size="10.00">UniTuple&lt; double, 4 &gt;</text>
</a>
</g>
</g>
<!-- Node21&#45;&gt;Node20 -->
<g id="edge20" class="edge">
<title>Node21&#45;&gt;Node20</title>
<path fill="none" stroke="midnightblue" d="M322.32,-135.01C370.38,-138.33 431.63,-142.57 470.84,-145.29"/>
<polygon fill="midnightblue" stroke="midnightblue" points="322.49,-131.51 312.28,-134.31 322.01,-138.49 322.49,-131.51"/>
</g>
<!-- Node22 -->
<g id="node22" class="node">
<title>Node22</title>
<g id="a_node22"><a xlink:href="classdrain_1_1Range.html" target="_top" xlink:title=" ">
<polygon fill="white" stroke="black" points="197.5,-158.5 197.5,-177.5 300.5,-177.5 300.5,-158.5 197.5,-158.5"/>
<text text-anchor="middle" x="249" y="-165.5" font-family="Helvetica,sans-Serif" font-size="10.00">Range&lt; double &gt;</text>
</a>
</g>
</g>
<!-- Node22&#45;&gt;Node20 -->
<g id="edge21" class="edge">
<title>Node22&#45;&gt;Node20</title>
<path fill="none" stroke="#9a32cd" stroke-dasharray="5,2" d="M310.99,-163.31C360.37,-159.51 428.46,-154.27 470.83,-151.01"/>
<polygon fill="#9a32cd" stroke="#9a32cd" points="310.45,-159.84 300.75,-164.1 310.99,-166.82 310.45,-159.84"/>
<text text-anchor="middle" x="376" y="-163" font-family="Helvetica,sans-Serif" font-size="10.00"> physRange</text>
</g>
<!-- Node23 -->
<g id="node23" class="node">
<title>Node23</title>
<g id="a_node23"><a xlink:href="classdrain_1_1UniTuple.html" target="_top" xlink:title=" ">
<polygon fill="white" stroke="black" points="3,-158.5 3,-177.5 129,-177.5 129,-158.5 3,-158.5"/>
<text text-anchor="middle" x="66" y="-165.5" font-family="Helvetica,sans-Serif" font-size="10.00">UniTuple&lt; double, 2 &gt;</text>
</a>
</g>
</g>
<!-- Node23&#45;&gt;Node22 -->
<g id="edge22" class="edge">
<title>Node23&#45;&gt;Node22</title>
<path fill="none" stroke="midnightblue" d="M139.12,-168C158.65,-168 179.37,-168 197.44,-168"/>
<polygon fill="midnightblue" stroke="midnightblue" points="139.04,-164.5 129.04,-168 139.04,-171.5 139.04,-164.5"/>
</g>
<!-- Node24 -->
<g id="node24" class="node">
<title>Node24</title>
<g id="a_node24"><a xlink:href="classdrain_1_1Caster.html" target="_top" xlink:title=" ">
<polygon fill="white" stroke="black" points="487,-98.5 487,-117.5 535,-117.5 535,-98.5 487,-98.5"/>
<text text-anchor="middle" x="511" y="-105.5" font-family="Helvetica,sans-Serif" font-size="10.00">Caster</text>
</a>
</g>
</g>
<!-- Node24&#45;&gt;Node19 -->
<g id="edge23" class="edge">
<title>Node24&#45;&gt;Node19</title>
<path fill="none" stroke="#9a32cd" stroke-dasharray="5,2" d="M545.48,-112.34C577.83,-117.2 627.85,-126.5 669,-142 677.56,-145.23 678.44,-148.77 687,-152 705.62,-159.02 727.49,-163.77 744.71,-166.76"/>
<polygon fill="#9a32cd" stroke="#9a32cd" points="545.62,-108.82 535.22,-110.85 544.62,-115.75 545.62,-108.82"/>
<text text-anchor="middle" x="643" y="-145" font-family="Helvetica,sans-Serif" font-size="10.00"> caster</text>
</g>
<!-- Node33 -->
<g id="node33" class="node">
<title>Node33</title>
<g id="a_node33"><a xlink:href="classdrain_1_1Castable.html" target="_top" xlink:title=" ">
<polygon fill="white" stroke="black" points="746,-123.5 746,-142.5 805,-142.5 805,-123.5 746,-123.5"/>
<text text-anchor="middle" x="775.5" y="-130.5" font-family="Helvetica,sans-Serif" font-size="10.00">Castable</text>
</a>
</g>
</g>
<!-- Node24&#45;&gt;Node33 -->
<g id="edge35" class="edge">
<title>Node24&#45;&gt;Node33</title>
<path fill="none" stroke="#9a32cd" stroke-dasharray="5,2" d="M545.36,-103.36C577.43,-99.89 627.08,-97.1 669,-106 677.56,-107.82 678.68,-111.28 687,-114 706.21,-120.28 728.47,-125.08 745.73,-128.29"/>
<polygon fill="#9a32cd" stroke="#9a32cd" points="544.72,-99.91 535.19,-104.55 545.53,-106.87 544.72,-99.91"/>
<text text-anchor="middle" x="643" y="-109" font-family="Helvetica,sans-Serif" font-size="10.00"> caster</text>
</g>
<!-- Node25&#45;&gt;Node18 -->
<g id="edge24" class="edge">
<title>Node25&#45;&gt;Node18</title>
<path fill="none" stroke="midnightblue" d="M818.37,-215.38C837.73,-213.72 861.04,-211.74 882,-210 935.25,-205.59 997.07,-200.65 1034.46,-197.69"/>
<polygon fill="midnightblue" stroke="midnightblue" points="818.02,-211.9 808.35,-216.24 818.61,-218.87 818.02,-211.9"/>
</g>
<!-- Node26 -->
<g id="node26" class="node">
<title>Node26</title>
<g id="a_node26"><a xlink:href="classdrain_1_1UniTuple.html" target="_top" xlink:title=" ">
<polygon fill="white" stroke="black" points="450,-214.5 450,-233.5 572,-233.5 572,-214.5 450,-214.5"/>
<text text-anchor="middle" x="511" y="-221.5" font-family="Helvetica,sans-Serif" font-size="10.00">UniTuple&lt; size_t, 4 &gt;</text>
</a>
</g>
</g>
<!-- Node26&#45;&gt;Node25 -->
<g id="edge25" class="edge">
<title>Node26&#45;&gt;Node25</title>
<path fill="none" stroke="midnightblue" d="M582.43,-222.66C634.64,-221.66 703.33,-220.36 742.84,-219.6"/>
<polygon fill="midnightblue" stroke="midnightblue" points="582.15,-219.16 572.22,-222.85 582.29,-226.16 582.15,-219.16"/>
</g>
<!-- Node27&#45;&gt;Node25 -->
<g id="edge26" class="edge">
<title>Node27&#45;&gt;Node25</title>
<path fill="none" stroke="#9a32cd" stroke-dasharray="5,2" d="M576.99,-194.17C629.85,-200.82 702.13,-209.9 742.99,-215.04"/>
<polygon fill="#9a32cd" stroke="#9a32cd" points="577.39,-190.69 567.03,-192.92 576.51,-197.64 577.39,-190.69"/>
<text text-anchor="middle" x="643" y="-208" font-family="Helvetica,sans-Serif" font-size="10.00"> area</text>
</g>
<!-- Node28 -->
<g id="node28" class="node">
<title>Node28</title>
<g id="a_node28"><a xlink:href="classdrain_1_1image_1_1CoordinatePolicy.html" target="_top" xlink:title="Policies for coordinate underflows and overflows.">
<polygon fill="white" stroke="black" points="726,-258.5 726,-277.5 825,-277.5 825,-258.5 726,-258.5"/>
<text text-anchor="middle" x="775.5" y="-265.5" font-family="Helvetica,sans-Serif" font-size="10.00">CoordinatePolicy</text>
</a>
</g>
</g>
<!-- Node28&#45;&gt;Node18 -->
<g id="edge29" class="edge">
<title>Node28&#45;&gt;Node18</title>
<path fill="none" stroke="#9a32cd" stroke-dasharray="5,2" d="M816.25,-255.19C831.31,-250.13 848.55,-244.07 864,-238 872.15,-234.8 873.64,-232.6 882,-230 933.9,-213.84 996.37,-203.97 1034.23,-199"/>
<polygon fill="#9a32cd" stroke="#9a32cd" points="815.09,-251.89 806.71,-258.37 817.3,-258.53 815.09,-251.89"/>
<text text-anchor="middle" x="924.5" y="-233" font-family="Helvetica,sans-Serif" font-size="10.00"> coordinatePolicy</text>
</g>
<!-- Node29 -->
<g id="node29" class="node">
<title>Node29</title>
<g id="a_node29"><a xlink:href="classdrain_1_1UniTuple.html" target="_top" xlink:title=" ">
<polygon fill="white" stroke="black" points="452.5,-253 452.5,-283 569.5,-283 569.5,-253 452.5,-253"/>
<text text-anchor="start" x="460.5" y="-271" font-family="Helvetica,sans-Serif" font-size="10.00">UniTuple&lt; coord_pol</text>
<text text-anchor="middle" x="511" y="-260" font-family="Helvetica,sans-Serif" font-size="10.00">_t, 4 &gt;</text>
</a>
</g>
</g>
<!-- Node29&#45;&gt;Node28 -->
<g id="edge30" class="edge">
<title>Node29&#45;&gt;Node28</title>
<path fill="none" stroke="midnightblue" d="M579.74,-268C625.46,-268 684.74,-268 725.83,-268"/>
<polygon fill="midnightblue" stroke="midnightblue" points="579.61,-264.5 569.61,-268 579.61,-271.5 579.61,-264.5"/>
</g>
<!-- Node30 -->
<g id="node30" class="node">
<title>Node30</title>
<g id="a_node30"><a xlink:href="classdrain_1_1Dictionary2.html" target="_top" xlink:title="Two&#45;way mapping between strings and objects of template class T.">
<polygon fill="white" stroke="black" points="453.5,-340.5 453.5,-359.5 568.5,-359.5 568.5,-340.5 453.5,-340.5"/>
<text text-anchor="middle" x="511" y="-347.5" font-family="Helvetica,sans-Serif" font-size="10.00">Dictionary2&lt; K, V &gt;</text>
</a>
</g>
</g>
<!-- Node30&#45;&gt;Node28 -->
<g id="edge31" class="edge">
<title>Node30&#45;&gt;Node28</title>
<path fill="none" stroke="#9a32cd" stroke-dasharray="5,2" d="M567.2,-338.26C577.77,-335.93 588.74,-333.44 599,-331 630.25,-323.57 638.58,-323.33 669,-313 699.54,-302.63 733.68,-287.36 754.63,-277.55"/>
<polygon fill="#9a32cd" stroke="#9a32cd" points="566.24,-334.89 557.23,-340.45 567.74,-341.73 566.24,-334.89"/>
<text text-anchor="middle" x="643" y="-329" font-family="Helvetica,sans-Serif" font-size="10.00"> dict</text>
</g>
<!-- Node31 -->
<g id="node31" class="node">
<title>Node31</title>
<g id="a_node31"><a xlink:title=" ">
<polygon fill="white" stroke="#bfbfbf" points="197,-309 197,-339 301,-339 301,-309 197,-309"/>
<text text-anchor="start" x="205" y="-327" font-family="Helvetica,sans-Serif" font-size="10.00">list&lt; std::pair&lt; K,</text>
<text text-anchor="middle" x="249" y="-316" font-family="Helvetica,sans-Serif" font-size="10.00"> V &gt; &gt;</text>
</a>
</g>
</g>
<!-- Node31&#45;&gt;Node30 -->
<g id="edge32" class="edge">
<title>Node31&#45;&gt;Node30</title>
<path fill="none" stroke="midnightblue" d="M311.11,-330.11C354.09,-334.41 411.19,-340.12 453.19,-344.32"/>
<polygon fill="midnightblue" stroke="midnightblue" points="311.36,-326.62 301.06,-329.11 310.66,-333.58 311.36,-326.62"/>
</g>
<!-- Node32 -->
<g id="node32" class="node">
<title>Node32</title>
<g id="a_node32"><a xlink:href="classdrain_1_1CastableIterator.html" target="_top" xlink:title=" ">
<polygon fill="white" stroke="black" points="1172,-127.5 1172,-146.5 1267,-146.5 1267,-127.5 1172,-127.5"/>
<text text-anchor="middle" x="1219.5" y="-134.5" font-family="Helvetica,sans-Serif" font-size="10.00">CastableIterator</text>
</a>
</g>
</g>
<!-- Node32&#45;&gt;Node16 -->
<g id="edge33" class="edge">
<title>Node32&#45;&gt;Node16</title>
<path fill="none" stroke="#9a32cd" stroke-dasharray="5,2" d="M1277.3,-137.78C1351.9,-138.81 1480.88,-140.59 1544.8,-141.47"/>
<polygon fill="#9a32cd" stroke="#9a32cd" points="1277.2,-134.28 1267.15,-137.64 1277.1,-141.28 1277.2,-134.28"/>
<text text-anchor="middle" x="1356.5" y="-153" font-family="Helvetica,sans-Serif" font-size="10.00"> segmentEnd</text>
<text text-anchor="middle" x="1356.5" y="-142" font-family="Helvetica,sans-Serif" font-size="10.00">segmentBegin</text>
</g>
<!-- Node33&#45;&gt;Node32 -->
<g id="edge34" class="edge">
<title>Node33&#45;&gt;Node32</title>
<path fill="none" stroke="darkgreen" d="M815.46,-133.35C896.82,-134.09 1084.47,-135.79 1171.99,-136.58"/>
<polygon fill="darkgreen" stroke="darkgreen" points="815.19,-129.85 805.16,-133.26 815.13,-136.85 815.19,-129.85"/>
</g>
<!-- Node34 -->
<g id="node34" class="node">
<title>Node34</title>
<g id="a_node34"><a xlink:href="classdrain_1_1FlexVariableMap.html" target="_top" xlink:title="A map of FlexVariable:s.">
<polygon fill="white" stroke="black" points="1307,-85.5 1307,-104.5 1406,-104.5 1406,-85.5 1307,-85.5"/>
<text text-anchor="middle" x="1356.5" y="-92.5" font-family="Helvetica,sans-Serif" font-size="10.00">FlexVariableMap</text>
</a>
</g>
</g>
<!-- Node34&#45;&gt;Node16 -->
<g id="edge36" class="edge">
<title>Node34&#45;&gt;Node16</title>
<path fill="none" stroke="#9a32cd" stroke-dasharray="5,2" d="M1416.18,-93C1445.72,-93.44 1481.79,-96.19 1513,-105 1533.9,-110.9 1555.67,-123.61 1569.27,-132.48"/>
<polygon fill="#9a32cd" stroke="#9a32cd" points="1416.04,-89.5 1406.02,-92.94 1416,-96.5 1416.04,-89.5"/>
<text text-anchor="middle" x="1479.5" y="-119" font-family="Helvetica,sans-Serif" font-size="10.00"> propertiesPtr</text>
<text text-anchor="middle" x="1479.5" y="-108" font-family="Helvetica,sans-Serif" font-size="10.00">properties</text>
</g>
<!-- Node35 -->
<g id="node35" class="node">
<title>Node35</title>
<g id="a_node35"><a xlink:href="classdrain_1_1SmartMap.html" target="_top" xlink:title=" ">
<polygon fill="white" stroke="black" points="994,-85.5 994,-104.5 1145,-104.5 1145,-85.5 994,-85.5"/>
<text text-anchor="middle" x="1069.5" y="-92.5" font-family="Helvetica,sans-Serif" font-size="10.00">SmartMap&lt; FlexVariable &gt;</text>
</a>
</g>
</g>
<!-- Node35&#45;&gt;Node34 -->
<g id="edge37" class="edge">
<title>Node35&#45;&gt;Node34</title>
<path fill="none" stroke="midnightblue" d="M1155.07,-95C1204.6,-95 1265.38,-95 1306.94,-95"/>
<polygon fill="midnightblue" stroke="midnightblue" points="1155.01,-91.5 1145.01,-95 1155.01,-98.5 1155.01,-91.5"/>
</g>
<!-- Node36 -->
<g id="node36" class="node">
<title>Node36</title>
<g id="a_node36"><a xlink:title=" ">
<polygon fill="white" stroke="#bfbfbf" points="687,-85.5 687,-104.5 864,-104.5 864,-85.5 687,-85.5"/>
<text text-anchor="middle" x="775.5" y="-92.5" font-family="Helvetica,sans-Serif" font-size="10.00">map&lt; std::string, FlexVariable &gt;</text>
</a>
</g>
</g>
<!-- Node36&#45;&gt;Node35 -->
<g id="edge38" class="edge">
<title>Node36&#45;&gt;Node35</title>
<path fill="none" stroke="midnightblue" d="M874.42,-95C913.38,-95 957.48,-95 993.78,-95"/>
<polygon fill="midnightblue" stroke="midnightblue" points="874.11,-91.5 864.11,-95 874.11,-98.5 874.11,-91.5"/>
</g>
<!-- Node37 -->
<g id="node37" class="node">
<title>Node37</title>
<g id="a_node37"><a xlink:href="classdrain_1_1image_1_1ImageSampler.html" target="_top" xlink:title="Traverses image, returning samples.">
<polygon fill="white" stroke="black" points="2112.5,-95.5 2112.5,-114.5 2200.5,-114.5 2200.5,-95.5 2112.5,-95.5"/>
<text text-anchor="middle" x="2156.5" y="-102.5" font-family="Helvetica,sans-Serif" font-size="10.00">ImageSampler</text>
</a>
</g>
</g>
<!-- Node37&#45;&gt;Node1 -->
<g id="edge39" class="edge">
<title>Node37&#45;&gt;Node1</title>
<path fill="none" stroke="#9a32cd" stroke-dasharray="5,2" d="M2210.95,-99.85C2248.85,-98.35 2300.03,-100.8 2341,-119 2364.37,-129.38 2384.25,-152.88 2394.19,-166.24"/>
<polygon fill="#9a32cd" stroke="#9a32cd" points="2210.45,-96.37 2200.64,-100.36 2210.8,-103.36 2210.45,-96.37"/>
<text text-anchor="middle" x="2295" y="-122" font-family="Helvetica,sans-Serif" font-size="10.00"> imageSampler</text>
</g>
<!-- Node38 -->
<g id="node38" class="node">
<title>Node38</title>
<g id="a_node38"><a xlink:href="classdrain_1_1image_1_1ImageMod.html" target="_top" xlink:title="Class for operations that modify an existing image instead of producing a new image.">
<polygon fill="white" stroke="black" points="1912,-95.5 1912,-114.5 1980,-114.5 1980,-95.5 1912,-95.5"/>
<text text-anchor="middle" x="1946" y="-102.5" font-family="Helvetica,sans-Serif" font-size="10.00">ImageMod</text>
</a>
</g>
</g>
<!-- Node38&#45;&gt;Node37 -->
<g id="edge40" class="edge">
<title>Node38&#45;&gt;Node37</title>
<path fill="none" stroke="midnightblue" d="M1990.19,-105C2026.02,-105 2076.71,-105 2112.5,-105"/>
<polygon fill="midnightblue" stroke="midnightblue" points="1990.04,-101.5 1980.04,-105 1990.04,-108.5 1990.04,-101.5"/>
</g>
<!-- Node39 -->
<g id="node39" class="node">
<title>Node39</title>
<g id="a_node39"><a xlink:href="classdrain_1_1BeanLike.html" target="_top" xlink:title="Something which has a name, a description and possibly some parameters of varying type.">
<polygon fill="white" stroke="black" points="1744,-85.5 1744,-104.5 1805,-104.5 1805,-85.5 1744,-85.5"/>
<text text-anchor="middle" x="1774.5" y="-92.5" font-family="Helvetica,sans-Serif" font-size="10.00">BeanLike</text>
</a>
</g>
</g>
<!-- Node39&#45;&gt;Node38 -->
<g id="edge41" class="edge">
<title>Node39&#45;&gt;Node38</title>
<path fill="none" stroke="midnightblue" d="M1815.33,-97.35C1844.67,-99.08 1884.1,-101.41 1911.75,-103.04"/>
<polygon fill="midnightblue" stroke="midnightblue" points="1815.21,-93.84 1805.02,-96.74 1814.8,-100.82 1815.21,-93.84"/>
</g>
<!-- Node43 -->
<g id="node43" class="node">
<title>Node43</title>
<g id="a_node43"><a xlink:href="classdrain_1_1image_1_1Sampler.html" target="_top" xlink:title="Utility for sampling images (2D data), outputting formatted text data.">
<polygon fill="white" stroke="black" points="1917.5,-52.5 1917.5,-71.5 1974.5,-71.5 1974.5,-52.5 1917.5,-52.5"/>
<text text-anchor="middle" x="1946" y="-59.5" font-family="Helvetica,sans-Serif" font-size="10.00">Sampler</text>
</a>
</g>
</g>
<!-- Node39&#45;&gt;Node43 -->
<g id="edge46" class="edge">
<title>Node39&#45;&gt;Node43</title>
<path fill="none" stroke="midnightblue" d="M1815.2,-87.27C1846.65,-81.15 1889.75,-72.76 1917.5,-67.35"/>
<polygon fill="midnightblue" stroke="midnightblue" points="1814.17,-83.91 1805.02,-89.25 1815.51,-90.78 1814.17,-83.91"/>
</g>
<!-- Node40 -->
<g id="node40" class="node">
<title>Node40</title>
<g id="a_node40"><a xlink:href="classdrain_1_1ReferenceMap.html" target="_top" xlink:title=" ">
<polygon fill="white" stroke="black" points="1540.5,-46.5 1540.5,-65.5 1627.5,-65.5 1627.5,-46.5 1540.5,-46.5"/>
<text text-anchor="middle" x="1584" y="-53.5" font-family="Helvetica,sans-Serif" font-size="10.00">ReferenceMap</text>
</a>
</g>
</g>
<!-- Node40&#45;&gt;Node39 -->
<g id="edge42" class="edge">
<title>Node40&#45;&gt;Node39</title>
<path fill="none" stroke="#9a32cd" stroke-dasharray="5,2" d="M1637.63,-66.89C1671.91,-73.98 1715.39,-82.98 1743.8,-88.85"/>
<polygon fill="#9a32cd" stroke="#9a32cd" points="1638.28,-63.45 1627.77,-64.85 1636.86,-70.3 1638.28,-63.45"/>
<text text-anchor="middle" x="1685" y="-85" font-family="Helvetica,sans-Serif" font-size="10.00"> parameters</text>
</g>
<!-- Node40&#45;&gt;Node43 -->
<g id="edge49" class="edge">
<title>Node40&#45;&gt;Node43</title>
<path fill="none" stroke="#9a32cd" stroke-dasharray="5,2" d="M1637.75,-56.88C1715.32,-58.17 1857.41,-60.54 1917.26,-61.54"/>
<polygon fill="#9a32cd" stroke="#9a32cd" points="1637.77,-53.38 1627.71,-56.71 1637.65,-60.38 1637.77,-53.38"/>
<text text-anchor="middle" x="1774.5" y="-62" font-family="Helvetica,sans-Serif" font-size="10.00"> variableMap</text>
</g>
<!-- Node41 -->
<g id="node41" class="node">
<title>Node41</title>
<g id="a_node41"><a xlink:href="classdrain_1_1SmartMap.html" target="_top" xlink:title=" ">
<polygon fill="white" stroke="black" points="1285,-46.5 1285,-65.5 1428,-65.5 1428,-46.5 1285,-46.5"/>
<text text-anchor="middle" x="1356.5" y="-53.5" font-family="Helvetica,sans-Serif" font-size="10.00">SmartMap&lt; Referencer &gt;</text>
</a>
</g>
</g>
<!-- Node41&#45;&gt;Node40 -->
<g id="edge43" class="edge">
<title>Node41&#45;&gt;Node40</title>
<path fill="none" stroke="midnightblue" d="M1438.31,-56C1472.81,-56 1511.67,-56 1540.42,-56"/>
<polygon fill="midnightblue" stroke="midnightblue" points="1438.23,-52.5 1428.23,-56 1438.23,-59.5 1438.23,-52.5"/>
</g>
<!-- Node42 -->
<g id="node42" class="node">
<title>Node42</title>
<g id="a_node42"><a xlink:title=" ">
<polygon fill="white" stroke="#bfbfbf" points="985,-46.5 985,-65.5 1154,-65.5 1154,-46.5 985,-46.5"/>
<text text-anchor="middle" x="1069.5" y="-53.5" font-family="Helvetica,sans-Serif" font-size="10.00">map&lt; std::string, Referencer &gt;</text>
</a>
</g>
</g>
<!-- Node42&#45;&gt;Node41 -->
<g id="edge44" class="edge">
<title>Node42&#45;&gt;Node41</title>
<path fill="none" stroke="midnightblue" d="M1164.21,-56C1203.53,-56 1248.48,-56 1284.92,-56"/>
<polygon fill="midnightblue" stroke="midnightblue" points="1164.08,-52.5 1154.08,-56 1164.08,-59.5 1164.08,-52.5"/>
</g>
<!-- Node43&#45;&gt;Node37 -->
<g id="edge45" class="edge">
<title>Node43&#45;&gt;Node37</title>
<path fill="none" stroke="#9a32cd" stroke-dasharray="5,2" d="M1984.78,-69.79C2020.75,-77.21 2074.85,-88.37 2112.47,-96.13"/>
<polygon fill="#9a32cd" stroke="#9a32cd" points="1985.19,-66.3 1974.69,-67.71 1983.77,-73.16 1985.19,-66.3"/>
<text text-anchor="middle" x="2042.5" y="-89" font-family="Helvetica,sans-Serif" font-size="10.00"> sampler</text>
</g>
<!-- Node44 -->
<g id="node44" class="node">
<title>Node44</title>
<g id="a_node44"><a xlink:href="classdrain_1_1Range.html" target="_top" xlink:title=" ">
<polygon fill="white" stroke="black" points="1733,-0.5 1733,-19.5 1816,-19.5 1816,-0.5 1733,-0.5"/>
<text text-anchor="middle" x="1774.5" y="-7.5" font-family="Helvetica,sans-Serif" font-size="10.00">Range&lt; int &gt;</text>
</a>
</g>
</g>
<!-- Node44&#45;&gt;Node43 -->
<g id="edge47" class="edge">
<title>Node44&#45;&gt;Node43</title>
<path fill="none" stroke="#9a32cd" stroke-dasharray="5,2" d="M1826.6,-11.45C1841.2,-12.91 1856.95,-15.49 1871,-20 1894.07,-27.4 1917.95,-42.55 1932.14,-52.49"/>
<polygon fill="#9a32cd" stroke="#9a32cd" points="1826.47,-7.93 1816.22,-10.58 1825.89,-14.91 1826.47,-7.93"/>
<text text-anchor="middle" x="1852.5" y="-34" font-family="Helvetica,sans-Serif" font-size="10.00"> jRange</text>
<text text-anchor="middle" x="1852.5" y="-23" font-family="Helvetica,sans-Serif" font-size="10.00">iRange</text>
</g>
<!-- Node45 -->
<g id="node45" class="node">
<title>Node45</title>
<g id="a_node45"><a xlink:href="classdrain_1_1UniTuple.html" target="_top" xlink:title=" ">
<polygon fill="white" stroke="black" points="1531,-0.5 1531,-19.5 1637,-19.5 1637,-0.5 1531,-0.5"/>
<text text-anchor="middle" x="1584" y="-7.5" font-family="Helvetica,sans-Serif" font-size="10.00">UniTuple&lt; int, 2 &gt;</text>
</a>
</g>
</g>
<!-- Node45&#45;&gt;Node44 -->
<g id="edge48" class="edge">
<title>Node45&#45;&gt;Node44</title>
<path fill="none" stroke="midnightblue" d="M1647.15,-10C1675.28,-10 1707.74,-10 1732.71,-10"/>
<polygon fill="midnightblue" stroke="midnightblue" points="1647.01,-6.5 1637.01,-10 1647.01,-13.5 1647.01,-6.5"/>
</g>
</g>
</svg>
        <g id="navigator" transform="translate(0 0)" fill="#404254">
                <rect fill="#f2f5e9" fill-opacity="0.5" stroke="#606060" stroke-width=".5" x="0" y="0" width="60" height="60"/>
                <use id="zoomplus" xlink:href="#zoomPlus" x="17" y="9" onmousedown="handleZoom(evt,'in')"/>
                <use id="zoomminus" xlink:href="#zoomMin" x="42" y="9" onmousedown="handleZoom(evt,'out')"/>
                <use id="reset" xlink:href="#resetDef" x="30" y="36" onmousedown="handleReset()"/>
                <g id="arrowUp" xlink:href="#dirArrow" transform="translate(30 24)" onmousedown="handlePan(0,-1)">
                  <use xlink:href="#rim" fill="#404040">
                        <set attributeName="fill" to="#808080" begin="arrowUp.mouseover" end="arrowUp.mouseout"/>
                  </use>
                  <path fill="none" stroke="white" stroke-width="1.5" d="M0,-3.0v7 M-2.5,-0.5L0,-3.0L2.5,-0.5"/>
                </g>
                <g id="arrowRight" xlink:href="#dirArrow" transform="rotate(90) translate(36 -43)" onmousedown="handlePan(1,0)">
                  <use xlink:href="#rim" fill="#404040">
                        <set attributeName="fill" to="#808080" begin="arrowRight.mouseover" end="arrowRight.mouseout"/>
                  </use>
                  <path fill="none" stroke="white" stroke-width="1.5" d="M0,-3.0v7 M-2.5,-0.5L0,-3.0L2.5,-0.5"/>
                </g>
                <g id="arrowDown" xlink:href="#dirArrow" transform="rotate(180) translate(-30 -48)" onmousedown="handlePan(0,1)">
                  <use xlink:href="#rim" fill="#404040">
                        <set attributeName="fill" to="#808080" begin="arrowDown.mouseover" end="arrowDown.mouseout"/>
                  </use>
                  <path fill="none" stroke="white" stroke-width="1.5" d="M0,-3.0v7 M-2.5,-0.5L0,-3.0L2.5,-0.5"/>
                </g>
                <g id="arrowLeft" xlink:href="#dirArrow" transform="rotate(270) translate(-36 17)" onmousedown="handlePan(-1,0)">
                  <use xlink:href="#rim" fill="#404040">
                        <set attributeName="fill" to="#808080" begin="arrowLeft.mouseover" end="arrowLeft.mouseout"/>
                  </use>
                  <path fill="none" stroke="white" stroke-width="1.5" d="M0,-3.0v7 M-2.5,-0.5L0,-3.0L2.5,-0.5"/>
                </g>
        </g>
        <svg viewBox="0 0 15 15" width="100%" height="30px" preserveAspectRatio="xMaxYMin meet">
         <g id="arrow_out" transform="scale(0.3 0.3)">
          <a xlink:href="classrack_1_1ImageContext__coll__graph_org.svg" target="_base">
           <rect id="button" ry="5" rx="5" y="6" x="6" height="38" width="38"
                fill="#f2f5e9" fill-opacity="0.5" stroke="#606060" stroke-width="1.0"/>
           <path id="arrow"
             d="M 11.500037,31.436501 C 11.940474,20.09759 22.043105,11.32322 32.158766,21.979434 L 37.068811,17.246167 C 37.068811,17.246167 37.088388,32 37.088388,32 L 22.160133,31.978069 C 22.160133,31.978069 26.997745,27.140456 26.997745,27.140456 C 18.528582,18.264221 13.291696,25.230495 11.500037,31.436501 z"
             style="fill:#404040;"/>
          </a>
         </g>
        </svg>
</svg>
