<?xml version="1.0" encoding="UTF-8" standalone="no"?>
<!DOCTYPE svg PUBLIC "-//W3C//DTD SVG 1.1//EN"
 "http://www.w3.org/Graphics/SVG/1.1/DTD/svg11.dtd">
<!-- Generated by graphviz version 2.43.0 (0)
 -->
<!-- Title: FuzzyTwinPeaks&lt; T &gt; Pages: 1 -->
<svg width="132pt" height="252pt"
 viewBox="0.00 0.00 132.00 252.00" xmlns="http://www.w3.org/2000/svg" xmlns:xlink="http://www.w3.org/1999/xlink">
<g id="graph0" class="graph" transform="scale(1 1) rotate(0) translate(4 248)">
<title>FuzzyTwinPeaks&lt; T &gt;</title>
<polygon fill="white" stroke="transparent" points="-4,4 -4,-248 128,-248 128,4 -4,4"/>
<!-- Node1 -->
<g id="node1" class="node">
<title>Node1</title>
<g id="a_node1"><a xlink:title="A function taking shape of two peaks, with a zero in the middle .">
<polygon fill="#bfbfbf" stroke="black" points="0,-0.5 0,-19.5 124,-19.5 124,-0.5 0,-0.5"/>
<text text-anchor="middle" x="62" y="-7.5" font-family="Helvetica,sans-Serif" font-size="10.00">FuzzyTwinPeaks&lt; T &gt;</text>
</a>
</g>
</g>
<!-- Node2 -->
<g id="node2" class="node">
<title>Node2</title>
<g id="a_node2"><a xlink:href="classdrain_1_1Fuzzifier.html" target="_top" xlink:title="A base class for fuzzy functions; also an unary functor.">
<polygon fill="white" stroke="black" points="19,-56.5 19,-75.5 105,-75.5 105,-56.5 19,-56.5"/>
<text text-anchor="middle" x="62" y="-63.5" font-family="Helvetica,sans-Serif" font-size="10.00">Fuzzifier&lt; T &gt;</text>
</a>
</g>
</g>
<!-- Node2&#45;&gt;Node1 -->
<g id="edge1" class="edge">
<title>Node2&#45;&gt;Node1</title>
<path fill="none" stroke="midnightblue" d="M62,-45.8C62,-36.91 62,-26.78 62,-19.75"/>
<polygon fill="midnightblue" stroke="midnightblue" points="58.5,-46.08 62,-56.08 65.5,-46.08 58.5,-46.08"/>
</g>
<!-- Node3 -->
<g id="node3" class="node">
<title>Node3</title>
<g id="a_node3"><a xlink:href="structdrain_1_1UnaryFunctor.html" target="_top" xlink:title=" ">
<polygon fill="white" stroke="black" points="21,-112.5 21,-131.5 103,-131.5 103,-112.5 21,-112.5"/>
<text text-anchor="middle" x="62" y="-119.5" font-family="Helvetica,sans-Serif" font-size="10.00">UnaryFunctor</text>
</a>
</g>
</g>
<!-- Node3&#45;&gt;Node2 -->
<g id="edge2" class="edge">
<title>Node3&#45;&gt;Node2</title>
<path fill="none" stroke="midnightblue" d="M62,-101.8C62,-92.91 62,-82.78 62,-75.75"/>
<polygon fill="midnightblue" stroke="midnightblue" points="58.5,-102.08 62,-112.08 65.5,-102.08 58.5,-102.08"/>
</g>
<!-- Node4 -->
<g id="node4" class="node">
<title>Node4</title>
<g id="a_node4"><a xlink:href="classdrain_1_1Functor.html" target="_top" xlink:title="Base class for sequential computations. Optional scaling utilities.">
<polygon fill="white" stroke="black" points="35.5,-168.5 35.5,-187.5 88.5,-187.5 88.5,-168.5 35.5,-168.5"/>
<text text-anchor="middle" x="62" y="-175.5" font-family="Helvetica,sans-Serif" font-size="10.00">Functor</text>
</a>
</g>
</g>
<!-- Node4&#45;&gt;Node3 -->
<g id="edge3" class="edge">
<title>Node4&#45;&gt;Node3</title>
<path fill="none" stroke="midnightblue" d="M62,-157.8C62,-148.91 62,-138.78 62,-131.75"/>
<polygon fill="midnightblue" stroke="midnightblue" points="58.5,-158.08 62,-168.08 65.5,-158.08 58.5,-158.08"/>
</g>
<!-- Node5 -->
<g id="node5" class="node">
<title>Node5</title>
<g id="a_node5"><a xlink:href="classdrain_1_1BeanLike.html" target="_top" xlink:title="Something which has a name, a description and possibly some parameters of varying type.">
<polygon fill="white" stroke="black" points="31.5,-224.5 31.5,-243.5 92.5,-243.5 92.5,-224.5 31.5,-224.5"/>
<text text-anchor="middle" x="62" y="-231.5" font-family="Helvetica,sans-Serif" font-size="10.00">BeanLike</text>
</a>
</g>
</g>
<!-- Node5&#45;&gt;Node4 -->
<g id="edge4" class="edge">
<title>Node5&#45;&gt;Node4</title>
<path fill="none" stroke="midnightblue" d="M62,-213.8C62,-204.91 62,-194.78 62,-187.75"/>
<polygon fill="midnightblue" stroke="midnightblue" points="58.5,-214.08 62,-224.08 65.5,-214.08 58.5,-214.08"/>
</g>
</g>
</svg>
