<?xml version="1.0" encoding="UTF-8" standalone="no"?>
<!DOCTYPE svg PUBLIC "-//W3C//DTD SVG 1.1//EN"
 "http://www.w3.org/Graphics/SVG/1.1/DTD/svg11.dtd">
<!-- Generated by graphviz version 2.43.0 (0)
 -->
<!-- Title: UnaryFunctorOp&lt; F, NORM, SIGN &gt; Pages: 1 -->
<svg width="264pt" height="448pt"
 viewBox="0.00 0.00 263.50 448.00" xmlns="http://www.w3.org/2000/svg" xmlns:xlink="http://www.w3.org/1999/xlink">
<g id="graph0" class="graph" transform="scale(1 1) rotate(0) translate(4 444)">
<title>UnaryFunctorOp&lt; F, NORM, SIGN &gt;</title>
<polygon fill="white" stroke="transparent" points="-4,4 -4,-444 259.5,-444 259.5,4 -4,4"/>
<!-- Node1 -->
<g id="node1" class="node">
<title>Node1</title>
<g id="a_node1"><a xlink:title="Class for using simple function objects (like std::functor) for sequential pixel iteration.">
<polygon fill="#bfbfbf" stroke="black" points="15,-0.5 15,-30.5 131,-30.5 131,-0.5 15,-0.5"/>
<text text-anchor="start" x="23" y="-18.5" font-family="Helvetica,sans-Serif" font-size="10.00">UnaryFunctorOp&lt; F,</text>
<text text-anchor="middle" x="73" y="-7.5" font-family="Helvetica,sans-Serif" font-size="10.00"> NORM, SIGN &gt;</text>
</a>
</g>
</g>
<!-- Node2 -->
<g id="node2" class="node">
<title>Node2</title>
<g id="a_node2"><a xlink:href="classdrain_1_1image_1_1FunctorOp.html" target="_top" xlink:title="Class for using simple function objects (like std::functor) for sequential pixel iteration.">
<polygon fill="white" stroke="black" points="25.5,-68.5 25.5,-87.5 120.5,-87.5 120.5,-68.5 25.5,-68.5"/>
<text text-anchor="middle" x="73" y="-75.5" font-family="Helvetica,sans-Serif" font-size="10.00">FunctorOp&lt; F &gt;</text>
</a>
</g>
</g>
<!-- Node2&#45;&gt;Node1 -->
<g id="edge1" class="edge">
<title>Node2&#45;&gt;Node1</title>
<path fill="none" stroke="midnightblue" d="M73,-58.22C73,-49.36 73,-38.96 73,-30.76"/>
<polygon fill="midnightblue" stroke="midnightblue" points="69.5,-58.33 73,-68.33 76.5,-58.33 69.5,-58.33"/>
</g>
<!-- Node3 -->
<g id="node3" class="node">
<title>Node3</title>
<g id="a_node3"><a xlink:href="structdrain_1_1image_1_1FunctorWrapper.html" target="_top" xlink:title="Helper class that only ensures that functor is initialized before ImageOp.">
<polygon fill="white" stroke="black" points="0,-125.5 0,-144.5 122,-144.5 122,-125.5 0,-125.5"/>
<text text-anchor="middle" x="61" y="-132.5" font-family="Helvetica,sans-Serif" font-size="10.00">FunctorWrapper&lt; F &gt;</text>
</a>
</g>
</g>
<!-- Node3&#45;&gt;Node2 -->
<g id="edge2" class="edge">
<title>Node3&#45;&gt;Node2</title>
<path fill="none" stroke="midnightblue" d="M65.05,-115.42C67.1,-106.05 69.48,-95.14 71.1,-87.71"/>
<polygon fill="midnightblue" stroke="midnightblue" points="61.59,-114.89 62.88,-125.41 68.43,-116.38 61.59,-114.89"/>
</g>
<!-- Node4 -->
<g id="node4" class="node">
<title>Node4</title>
<g id="a_node4"><a xlink:href="classdrain_1_1image_1_1ImageOp.html" target="_top" xlink:title="Base class for image processing functions.">
<polygon fill="white" stroke="black" points="140.5,-125.5 140.5,-144.5 201.5,-144.5 201.5,-125.5 140.5,-125.5"/>
<text text-anchor="middle" x="171" y="-132.5" font-family="Helvetica,sans-Serif" font-size="10.00">ImageOp</text>
</a>
</g>
</g>
<!-- Node4&#45;&gt;Node2 -->
<g id="edge3" class="edge">
<title>Node4&#45;&gt;Node2</title>
<path fill="none" stroke="midnightblue" d="M146.76,-120.39C128.43,-110.11 103.84,-96.31 88.2,-87.53"/>
<polygon fill="midnightblue" stroke="midnightblue" points="145.25,-123.56 155.69,-125.41 148.68,-117.46 145.25,-123.56"/>
</g>
<!-- Node5 -->
<g id="node5" class="node">
<title>Node5</title>
<g id="a_node5"><a xlink:href="classdrain_1_1image_1_1ImageMod.html" target="_top" xlink:title="Class for operations that modify an existing image instead of producing a new image.">
<polygon fill="white" stroke="black" points="137,-182.5 137,-201.5 205,-201.5 205,-182.5 137,-182.5"/>
<text text-anchor="middle" x="171" y="-189.5" font-family="Helvetica,sans-Serif" font-size="10.00">ImageMod</text>
</a>
</g>
</g>
<!-- Node5&#45;&gt;Node4 -->
<g id="edge4" class="edge">
<title>Node5&#45;&gt;Node4</title>
<path fill="none" stroke="midnightblue" d="M171,-172.12C171,-162.82 171,-152.06 171,-144.71"/>
<polygon fill="midnightblue" stroke="midnightblue" points="167.5,-172.41 171,-182.41 174.5,-172.41 167.5,-172.41"/>
</g>
<!-- Node6 -->
<g id="node6" class="node">
<title>Node6</title>
<g id="a_node6"><a xlink:href="classdrain_1_1BeanLike.html" target="_top" xlink:title="Something which has a name, a description and possibly some parameters of varying type.">
<polygon fill="white" stroke="black" points="140.5,-239.5 140.5,-258.5 201.5,-258.5 201.5,-239.5 140.5,-239.5"/>
<text text-anchor="middle" x="171" y="-246.5" font-family="Helvetica,sans-Serif" font-size="10.00">BeanLike</text>
</a>
</g>
</g>
<!-- Node6&#45;&gt;Node5 -->
<g id="edge5" class="edge">
<title>Node6&#45;&gt;Node5</title>
<path fill="none" stroke="midnightblue" d="M171,-229.12C171,-219.82 171,-209.06 171,-201.71"/>
<polygon fill="midnightblue" stroke="midnightblue" points="167.5,-229.41 171,-239.41 174.5,-229.41 167.5,-229.41"/>
</g>
<!-- Node7 -->
<g id="node7" class="node">
<title>Node7</title>
<g id="a_node7"><a xlink:href="classdrain_1_1ReferenceMap.html" target="_top" xlink:title=" ">
<polygon fill="white" stroke="black" points="127.5,-306.5 127.5,-325.5 214.5,-325.5 214.5,-306.5 127.5,-306.5"/>
<text text-anchor="middle" x="171" y="-313.5" font-family="Helvetica,sans-Serif" font-size="10.00">ReferenceMap</text>
</a>
</g>
</g>
<!-- Node7&#45;&gt;Node6 -->
<g id="edge6" class="edge">
<title>Node7&#45;&gt;Node6</title>
<path fill="none" stroke="#9a32cd" stroke-dasharray="5,2" d="M171,-296.04C171,-283.67 171,-268.12 171,-258.63"/>
<polygon fill="#9a32cd" stroke="#9a32cd" points="167.5,-296.23 171,-306.23 174.5,-296.23 167.5,-296.23"/>
<text text-anchor="middle" x="201" y="-280" font-family="Helvetica,sans-Serif" font-size="10.00"> parameters</text>
</g>
<!-- Node8 -->
<g id="node8" class="node">
<title>Node8</title>
<g id="a_node8"><a xlink:href="classdrain_1_1SmartMap.html" target="_top" xlink:title=" ">
<polygon fill="white" stroke="black" points="99.5,-363.5 99.5,-382.5 242.5,-382.5 242.5,-363.5 99.5,-363.5"/>
<text text-anchor="middle" x="171" y="-370.5" font-family="Helvetica,sans-Serif" font-size="10.00">SmartMap&lt; Referencer &gt;</text>
</a>
</g>
</g>
<!-- Node8&#45;&gt;Node7 -->
<g id="edge7" class="edge">
<title>Node8&#45;&gt;Node7</title>
<path fill="none" stroke="midnightblue" d="M171,-353.12C171,-343.82 171,-333.06 171,-325.71"/>
<polygon fill="midnightblue" stroke="midnightblue" points="167.5,-353.41 171,-363.41 174.5,-353.41 167.5,-353.41"/>
</g>
<!-- Node9 -->
<g id="node9" class="node">
<title>Node9</title>
<g id="a_node9"><a xlink:title=" ">
<polygon fill="white" stroke="#bfbfbf" points="86.5,-420.5 86.5,-439.5 255.5,-439.5 255.5,-420.5 86.5,-420.5"/>
<text text-anchor="middle" x="171" y="-427.5" font-family="Helvetica,sans-Serif" font-size="10.00">map&lt; std::string, Referencer &gt;</text>
</a>
</g>
</g>
<!-- Node9&#45;&gt;Node8 -->
<g id="edge8" class="edge">
<title>Node9&#45;&gt;Node8</title>
<path fill="none" stroke="midnightblue" d="M171,-410.12C171,-400.82 171,-390.06 171,-382.71"/>
<polygon fill="midnightblue" stroke="midnightblue" points="167.5,-410.41 171,-420.41 174.5,-410.41 167.5,-410.41"/>
</g>
</g>
</svg>
