<?xml version="1.0" encoding="UTF-8" standalone="no"?>
<!DOCTYPE svg PUBLIC "-//W3C//DTD SVG 1.1//EN"
 "http://www.w3.org/Graphics/SVG/1.1/DTD/svg11.dtd">
<!-- Generated by graphviz version 2.43.0 (0)
 -->
<!-- Title: ModifiableImage Pages: 1 -->
<!--zoomable 280 -->
<svg id="main" version="1.1" xmlns="http://www.w3.org/2000/svg" xmlns:xlink="http://www.w3.org/1999/xlink" xml:space="preserve" onload="init(evt)">
<style type="text/css"><![CDATA[
.edge:hover path { stroke: red; }
.edge:hover polygon { stroke: red; fill: red; }
]]></style>
<script type="text/javascript"><![CDATA[
var edges = document.getElementsByTagName('g');
if (edges && edges.length) {
  for (var i=0;i<edges.length;i++) {
    if (edges[i].id.substr(0,4)=='edge') {
      edges[i].setAttribute('class','edge');
    }
  }
}
]]></script>
        <defs>
                <circle id="rim" cx="0" cy="0" r="7"/>
                <circle id="rim2" cx="0" cy="0" r="3.5"/>
                <g id="zoomPlus">
                        <use xlink:href="#rim" fill="#404040">
                                <set attributeName="fill" to="#808080" begin="zoomplus.mouseover" end="zoomplus.mouseout"/>
                        </use>
                        <path d="M-4,0h8M0,-4v8" fill="none" stroke="white" stroke-width="1.5" pointer-events="none"/>
                </g>
                <g id="zoomMin">
                        <use xlink:href="#rim" fill="#404040">
                                <set attributeName="fill" to="#808080" begin="zoomminus.mouseover" end="zoomminus.mouseout"/>
                        </use>
                        <path d="M-4,0h8" fill="none" stroke="white" stroke-width="1.5" pointer-events="none"/>
                </g>
                <g id="dirArrow">
                        <path fill="none" stroke="white" stroke-width="1.5" d="M0,-3.0v7 M-2.5,-0.5L0,-3.0L2.5,-0.5"/>
                </g>
               <g id="resetDef">
                       <use xlink:href="#rim2" fill="#404040">
                               <set attributeName="fill" to="#808080" begin="reset.mouseover" end="reset.mouseout"/>
                       </use>
               </g>
        </defs>

<script type="text/javascript">
var viewWidth = 1710;
var viewHeight = 280;
var sectionId = 'dynsection-1';
</script>
<script xlink:href="svgpan.js"/>
<svg id="graph" class="graph">
<g id="viewport">
<title>ModifiableImage</title>
<polygon fill="white" stroke="transparent" points="-4,4 -4,-275.5 1706,-275.5 1706,4 -4,4"/>
<!-- Node1 -->
<g id="node1" class="node">
<title>Node1</title>
<g id="a_node1"><a xlink:title="Image with modifiable geometry.">
<polygon fill="#bfbfbf" stroke="black" points="1603,-132 1603,-151 1702,-151 1702,-132 1603,-132"/>
<text text-anchor="middle" x="1652.5" y="-139" font-family="Helvetica,sans-Serif" font-size="10.00">ModifiableImage</text>
</a>
</g>
</g>
<!-- Node2 -->
<g id="node2" class="node">
<title>Node2</title>
<g id="a_node2"><a xlink:href="classdrain_1_1image_1_1MultiChannel.html" target="_top" xlink:title="Multi&#45;channel ImageFrame.">
<polygon fill="white" stroke="black" points="1485,-132 1485,-151 1566,-151 1566,-132 1485,-132"/>
<text text-anchor="middle" x="1525.5" y="-139" font-family="Helvetica,sans-Serif" font-size="10.00">MultiChannel</text>
</a>
</g>
</g>
<!-- Node2&#45;&gt;Node1 -->
<g id="edge1" class="edge">
<title>Node2&#45;&gt;Node1</title>
<path fill="none" stroke="midnightblue" d="M1576.2,-141.5C1585.02,-141.5 1594.2,-141.5 1602.99,-141.5"/>
<polygon fill="midnightblue" stroke="midnightblue" points="1576.05,-138 1566.05,-141.5 1576.05,-145 1576.05,-138"/>
</g>
<!-- Node3 -->
<g id="node3" class="node">
<title>Node3</title>
<g id="a_node3"><a xlink:href="classdrain_1_1image_1_1ImageFrame.html" target="_top" xlink:title="Image with static geometry.">
<polygon fill="white" stroke="black" points="1370,-132 1370,-151 1448,-151 1448,-132 1370,-132"/>
<text text-anchor="middle" x="1409" y="-139" font-family="Helvetica,sans-Serif" font-size="10.00">ImageFrame</text>
</a>
</g>
</g>
<!-- Node3&#45;&gt;Node2 -->
<g id="edge2" class="edge">
<title>Node3&#45;&gt;Node2</title>
<path fill="none" stroke="midnightblue" d="M1458.36,-141.5C1467.23,-141.5 1476.4,-141.5 1484.97,-141.5"/>
<polygon fill="midnightblue" stroke="midnightblue" points="1458.13,-138 1448.13,-141.5 1458.13,-145 1458.13,-138"/>
</g>
<!-- Node4 -->
<g id="node4" class="node">
<title>Node4</title>
<g id="a_node4"><a xlink:href="classdrain_1_1image_1_1ImageLike.html" target="_top" xlink:title="A base class for images.">
<polygon fill="white" stroke="black" points="1184,-132 1184,-151 1251,-151 1251,-132 1184,-132"/>
<text text-anchor="middle" x="1217.5" y="-139" font-family="Helvetica,sans-Serif" font-size="10.00">ImageLike</text>
</a>
</g>
</g>
<!-- Node4&#45;&gt;Node3 -->
<g id="edge3" class="edge">
<title>Node4&#45;&gt;Node3</title>
<path fill="none" stroke="midnightblue" d="M1261.23,-141.5C1293.91,-141.5 1338.54,-141.5 1369.99,-141.5"/>
<polygon fill="midnightblue" stroke="midnightblue" points="1261.08,-138 1251.08,-141.5 1261.08,-145 1261.08,-138"/>
</g>
<!-- Node5 -->
<g id="node5" class="node">
<title>Node5</title>
<g id="a_node5"><a xlink:href="classdrain_1_1image_1_1ImageConf.html" target="_top" xlink:title="Struct for image (excluding data)">
<polygon fill="white" stroke="black" points="926.5,-132 926.5,-151 996.5,-151 996.5,-132 926.5,-132"/>
<text text-anchor="middle" x="961.5" y="-139" font-family="Helvetica,sans-Serif" font-size="10.00">ImageConf</text>
</a>
</g>
</g>
<!-- Node5&#45;&gt;Node4 -->
<g id="edge4" class="edge">
<title>Node5&#45;&gt;Node4</title>
<path fill="none" stroke="#9a32cd" stroke-dasharray="5,2" d="M1007.06,-141.5C1057.67,-141.5 1139.02,-141.5 1183.99,-141.5"/>
<polygon fill="#9a32cd" stroke="#9a32cd" points="1006.76,-138 996.76,-141.5 1006.76,-145 1006.76,-138"/>
<text text-anchor="middle" x="1102.5" y="-144.5" font-family="Helvetica,sans-Serif" font-size="10.00"> conf</text>
</g>
<!-- Node6 -->
<g id="node6" class="node">
<title>Node6</title>
<g id="a_node6"><a xlink:href="classdrain_1_1image_1_1Encoding.html" target="_top" xlink:title=" ">
<polygon fill="white" stroke="black" points="646,-191 646,-210 707,-210 707,-191 646,-191"/>
<text text-anchor="middle" x="676.5" y="-198" font-family="Helvetica,sans-Serif" font-size="10.00">Encoding</text>
</a>
</g>
</g>
<!-- Node6&#45;&gt;Node5 -->
<g id="edge5" class="edge">
<title>Node6&#45;&gt;Node5</title>
<path fill="none" stroke="midnightblue" d="M717.12,-192.24C772.91,-180.61 873.68,-159.6 926.34,-148.62"/>
<polygon fill="midnightblue" stroke="midnightblue" points="716.33,-188.83 707.25,-194.3 717.75,-195.68 716.33,-188.83"/>
</g>
<!-- Node7 -->
<g id="node7" class="node">
<title>Node7</title>
<g id="a_node7"><a xlink:href="classdrain_1_1ValueScaling.html" target="_top" xlink:title="Linear scaling and physical range for image intensities.">
<polygon fill="white" stroke="black" points="404,-208 404,-227 484,-227 484,-208 404,-208"/>
<text text-anchor="middle" x="444" y="-215" font-family="Helvetica,sans-Serif" font-size="10.00">ValueScaling</text>
</a>
</g>
</g>
<!-- Node7&#45;&gt;Node6 -->
<g id="edge6" class="edge">
<title>Node7&#45;&gt;Node6</title>
<path fill="none" stroke="midnightblue" d="M494.15,-213.87C540.16,-210.48 607.4,-205.52 645.76,-202.69"/>
<polygon fill="midnightblue" stroke="midnightblue" points="493.82,-210.39 484.1,-214.62 494.33,-217.37 493.82,-210.39"/>
</g>
<!-- Node8 -->
<g id="node8" class="node">
<title>Node8</title>
<g id="a_node8"><a xlink:href="classdrain_1_1UniTuple.html" target="_top" xlink:title=" ">
<polygon fill="white" stroke="black" points="163,-224 163,-243 289,-243 289,-224 163,-224"/>
<text text-anchor="middle" x="226" y="-231" font-family="Helvetica,sans-Serif" font-size="10.00">UniTuple&lt; double, 4 &gt;</text>
</a>
</g>
</g>
<!-- Node8&#45;&gt;Node7 -->
<g id="edge7" class="edge">
<title>Node8&#45;&gt;Node7</title>
<path fill="none" stroke="midnightblue" d="M299.36,-228.14C334.32,-225.55 374.9,-222.54 403.99,-220.39"/>
<polygon fill="midnightblue" stroke="midnightblue" points="298.9,-224.66 289.19,-228.89 299.42,-231.65 298.9,-224.66"/>
</g>
<!-- Node9 -->
<g id="node9" class="node">
<title>Node9</title>
<g id="a_node9"><a xlink:href="classdrain_1_1Range.html" target="_top" xlink:title=" ">
<polygon fill="white" stroke="black" points="174.5,-186 174.5,-205 277.5,-205 277.5,-186 174.5,-186"/>
<text text-anchor="middle" x="226" y="-193" font-family="Helvetica,sans-Serif" font-size="10.00">Range&lt; double &gt;</text>
</a>
</g>
</g>
<!-- Node9&#45;&gt;Node7 -->
<g id="edge8" class="edge">
<title>Node9&#45;&gt;Node7</title>
<path fill="none" stroke="#9a32cd" stroke-dasharray="5,2" d="M287.87,-200.96C311.91,-203.18 339.77,-205.86 365,-208.5 377.61,-209.82 391.35,-211.37 403.74,-212.81"/>
<polygon fill="#9a32cd" stroke="#9a32cd" points="288.1,-197.46 277.82,-200.03 287.46,-204.43 288.1,-197.46"/>
<text text-anchor="middle" x="336" y="-211.5" font-family="Helvetica,sans-Serif" font-size="10.00"> physRange</text>
</g>
<!-- Node10 -->
<g id="node10" class="node">
<title>Node10</title>
<g id="a_node10"><a xlink:href="classdrain_1_1UniTuple.html" target="_top" xlink:title=" ">
<polygon fill="white" stroke="black" points="0,-186 0,-205 126,-205 126,-186 0,-186"/>
<text text-anchor="middle" x="63" y="-193" font-family="Helvetica,sans-Serif" font-size="10.00">UniTuple&lt; double, 2 &gt;</text>
</a>
</g>
</g>
<!-- Node10&#45;&gt;Node9 -->
<g id="edge9" class="edge">
<title>Node10&#45;&gt;Node9</title>
<path fill="none" stroke="midnightblue" d="M136.44,-195.5C149.24,-195.5 162.33,-195.5 174.37,-195.5"/>
<polygon fill="midnightblue" stroke="midnightblue" points="136.25,-192 126.25,-195.5 136.25,-199 136.25,-192"/>
</g>
<!-- Node11 -->
<g id="node11" class="node">
<title>Node11</title>
<g id="a_node11"><a xlink:href="classdrain_1_1Caster.html" target="_top" xlink:title=" ">
<polygon fill="white" stroke="black" points="420,-252 420,-271 468,-271 468,-252 420,-252"/>
<text text-anchor="middle" x="444" y="-259" font-family="Helvetica,sans-Serif" font-size="10.00">Caster</text>
</a>
</g>
</g>
<!-- Node11&#45;&gt;Node6 -->
<g id="edge10" class="edge">
<title>Node11&#45;&gt;Node6</title>
<path fill="none" stroke="#9a32cd" stroke-dasharray="5,2" d="M478.22,-252.71C523.24,-240.8 602.9,-219.71 645.94,-208.32"/>
<polygon fill="#9a32cd" stroke="#9a32cd" points="477.14,-249.37 468.37,-255.32 478.93,-256.14 477.14,-249.37"/>
<text text-anchor="middle" x="546.5" y="-242.5" font-family="Helvetica,sans-Serif" font-size="10.00"> caster</text>
</g>
<!-- Node22 -->
<g id="node22" class="node">
<title>Node22</title>
<g id="a_node22"><a xlink:href="classdrain_1_1Castable.html" target="_top" xlink:title=" ">
<polygon fill="white" stroke="black" points="647,-243 647,-262 706,-262 706,-243 647,-243"/>
<text text-anchor="middle" x="676.5" y="-250" font-family="Helvetica,sans-Serif" font-size="10.00">Castable</text>
</a>
</g>
</g>
<!-- Node11&#45;&gt;Node22 -->
<g id="edge23" class="edge">
<title>Node11&#45;&gt;Node22</title>
<path fill="none" stroke="#9a32cd" stroke-dasharray="5,2" d="M478.57,-260.19C523.9,-258.42 603.94,-255.29 646.69,-253.63"/>
<polygon fill="#9a32cd" stroke="#9a32cd" points="478.23,-256.7 468.37,-260.59 478.5,-263.69 478.23,-256.7"/>
<text text-anchor="middle" x="546.5" y="-260.5" font-family="Helvetica,sans-Serif" font-size="10.00"> caster</text>
</g>
<!-- Node12 -->
<g id="node12" class="node">
<title>Node12</title>
<g id="a_node12"><a xlink:href="classdrain_1_1image_1_1Geometry.html" target="_top" xlink:title=" ">
<polygon fill="white" stroke="black" points="644,-132 644,-151 709,-151 709,-132 644,-132"/>
<text text-anchor="middle" x="676.5" y="-139" font-family="Helvetica,sans-Serif" font-size="10.00">Geometry</text>
</a>
</g>
</g>
<!-- Node12&#45;&gt;Node5 -->
<g id="edge11" class="edge">
<title>Node12&#45;&gt;Node5</title>
<path fill="none" stroke="midnightblue" d="M719.46,-141.5C775.72,-141.5 874.52,-141.5 926.43,-141.5"/>
<polygon fill="midnightblue" stroke="midnightblue" points="719.14,-138 709.14,-141.5 719.14,-145 719.14,-138"/>
</g>
<!-- Node13 -->
<g id="node13" class="node">
<title>Node13</title>
<g id="a_node13"><a xlink:href="classdrain_1_1UniTuple.html" target="_top" xlink:title=" ">
<polygon fill="white" stroke="black" points="383,-132 383,-151 505,-151 505,-132 383,-132"/>
<text text-anchor="middle" x="444" y="-139" font-family="Helvetica,sans-Serif" font-size="10.00">UniTuple&lt; size_t, 4 &gt;</text>
</a>
</g>
</g>
<!-- Node13&#45;&gt;Node12 -->
<g id="edge12" class="edge">
<title>Node13&#45;&gt;Node12</title>
<path fill="none" stroke="midnightblue" d="M515.37,-141.5C558.26,-141.5 610.97,-141.5 643.91,-141.5"/>
<polygon fill="midnightblue" stroke="midnightblue" points="515.26,-138 505.26,-141.5 515.26,-145 515.26,-138"/>
</g>
<!-- Node14 -->
<g id="node14" class="node">
<title>Node14</title>
<g id="a_node14"><a xlink:href="classdrain_1_1Frame2D.html" target="_top" xlink:title=" ">
<polygon fill="white" stroke="black" points="388,-170 388,-189 500,-189 500,-170 388,-170"/>
<text text-anchor="middle" x="444" y="-177" font-family="Helvetica,sans-Serif" font-size="10.00">Frame2D&lt; size_t &gt;</text>
</a>
</g>
</g>
<!-- Node14&#45;&gt;Node12 -->
<g id="edge13" class="edge">
<title>Node14&#45;&gt;Node12</title>
<path fill="none" stroke="#9a32cd" stroke-dasharray="5,2" d="M510.19,-168.75C553.89,-161.55 609.5,-152.38 643.79,-146.73"/>
<polygon fill="#9a32cd" stroke="#9a32cd" points="509.51,-165.32 500.21,-170.4 510.65,-172.22 509.51,-165.32"/>
<text text-anchor="middle" x="546.5" y="-168.5" font-family="Helvetica,sans-Serif" font-size="10.00"> area</text>
</g>
<!-- Node15 -->
<g id="node15" class="node">
<title>Node15</title>
<g id="a_node15"><a xlink:href="classdrain_1_1UniTuple.html" target="_top" xlink:title=" ">
<polygon fill="white" stroke="black" points="165,-129 165,-148 287,-148 287,-129 165,-129"/>
<text text-anchor="middle" x="226" y="-136" font-family="Helvetica,sans-Serif" font-size="10.00">UniTuple&lt; size_t, 2 &gt;</text>
</a>
</g>
</g>
<!-- Node15&#45;&gt;Node14 -->
<g id="edge14" class="edge">
<title>Node15&#45;&gt;Node14</title>
<path fill="none" stroke="midnightblue" d="M287.16,-149.92C320.42,-156.23 361.27,-163.99 392.8,-169.97"/>
<polygon fill="midnightblue" stroke="midnightblue" points="287.57,-146.44 277.1,-148.01 286.27,-153.31 287.57,-146.44"/>
</g>
<!-- Node16 -->
<g id="node16" class="node">
<title>Node16</title>
<g id="a_node16"><a xlink:href="classdrain_1_1image_1_1ChannelGeometry.html" target="_top" xlink:title=" ">
<polygon fill="white" stroke="black" points="391.5,-94 391.5,-113 496.5,-113 496.5,-94 391.5,-94"/>
<text text-anchor="middle" x="444" y="-101" font-family="Helvetica,sans-Serif" font-size="10.00">ChannelGeometry</text>
</a>
</g>
</g>
<!-- Node15&#45;&gt;Node16 -->
<g id="edge16" class="edge">
<title>Node15&#45;&gt;Node16</title>
<path fill="none" stroke="midnightblue" d="M296.01,-127.32C326.91,-122.31 362.73,-116.51 391.27,-111.88"/>
<polygon fill="midnightblue" stroke="midnightblue" points="295.05,-123.93 285.74,-128.98 296.17,-130.84 295.05,-123.93"/>
</g>
<!-- Node16&#45;&gt;Node12 -->
<g id="edge15" class="edge">
<title>Node16&#45;&gt;Node12</title>
<path fill="none" stroke="#9a32cd" stroke-dasharray="5,2" d="M506.79,-113.69C550.98,-120.97 608.62,-130.48 643.81,-136.28"/>
<polygon fill="#9a32cd" stroke="#9a32cd" points="507.16,-110.2 496.73,-112.03 506.03,-117.11 507.16,-110.2"/>
<text text-anchor="middle" x="546.5" y="-126.5" font-family="Helvetica,sans-Serif" font-size="10.00"> channels</text>
</g>
<!-- Node17 -->
<g id="node17" class="node">
<title>Node17</title>
<g id="a_node17"><a xlink:href="classdrain_1_1image_1_1CoordinatePolicy.html" target="_top" xlink:title="Policies for coordinate underflows and overflows.">
<polygon fill="white" stroke="black" points="627,-72 627,-91 726,-91 726,-72 627,-72"/>
<text text-anchor="middle" x="676.5" y="-79" font-family="Helvetica,sans-Serif" font-size="10.00">CoordinatePolicy</text>
</a>
</g>
</g>
<!-- Node17&#45;&gt;Node5 -->
<g id="edge17" class="edge">
<title>Node17&#45;&gt;Node5</title>
<path fill="none" stroke="#9a32cd" stroke-dasharray="5,2" d="M732.32,-93.12C789.66,-105.28 877.88,-123.98 926.1,-134.21"/>
<polygon fill="#9a32cd" stroke="#9a32cd" points="732.85,-89.66 722.34,-91.01 731.4,-96.51 732.85,-89.66"/>
<text text-anchor="middle" x="825.5" y="-122.5" font-family="Helvetica,sans-Serif" font-size="10.00"> coordinatePolicy</text>
</g>
<!-- Node18 -->
<g id="node18" class="node">
<title>Node18</title>
<g id="a_node18"><a xlink:href="classdrain_1_1UniTuple.html" target="_top" xlink:title=" ">
<polygon fill="white" stroke="black" points="385.5,-44.5 385.5,-74.5 502.5,-74.5 502.5,-44.5 385.5,-44.5"/>
<text text-anchor="start" x="393.5" y="-62.5" font-family="Helvetica,sans-Serif" font-size="10.00">UniTuple&lt; coord_pol</text>
<text text-anchor="middle" x="444" y="-51.5" font-family="Helvetica,sans-Serif" font-size="10.00">_t, 4 &gt;</text>
</a>
</g>
</g>
<!-- Node18&#45;&gt;Node17 -->
<g id="edge18" class="edge">
<title>Node18&#45;&gt;Node17</title>
<path fill="none" stroke="midnightblue" d="M512.67,-65.96C549.28,-69.45 593.66,-73.69 626.84,-76.86"/>
<polygon fill="midnightblue" stroke="midnightblue" points="512.86,-62.46 502.57,-64.99 512.19,-69.43 512.86,-62.46"/>
</g>
<!-- Node19 -->
<g id="node19" class="node">
<title>Node19</title>
<g id="a_node19"><a xlink:href="classdrain_1_1Dictionary2.html" target="_top" xlink:title="Two&#45;way mapping between strings and objects of template class T.">
<polygon fill="white" stroke="black" points="386.5,-6 386.5,-25 501.5,-25 501.5,-6 386.5,-6"/>
<text text-anchor="middle" x="444" y="-13" font-family="Helvetica,sans-Serif" font-size="10.00">Dictionary2&lt; K, V &gt;</text>
</a>
</g>
</g>
<!-- Node19&#45;&gt;Node17 -->
<g id="edge19" class="edge">
<title>Node19&#45;&gt;Node17</title>
<path fill="none" stroke="#9a32cd" stroke-dasharray="5,2" d="M498.56,-27.55C521.1,-33.48 547.31,-41.52 570,-51.5 578.58,-55.28 579.3,-59.01 588,-62.5 600.26,-67.42 614.03,-71.16 626.95,-73.97"/>
<polygon fill="#9a32cd" stroke="#9a32cd" points="499.37,-24.14 488.82,-25.06 497.64,-30.93 499.37,-24.14"/>
<text text-anchor="middle" x="546.5" y="-54.5" font-family="Helvetica,sans-Serif" font-size="10.00"> dict</text>
</g>
<!-- Node20 -->
<g id="node20" class="node">
<title>Node20</title>
<g id="a_node20"><a xlink:title=" ">
<polygon fill="white" stroke="#bfbfbf" points="174,-0.5 174,-30.5 278,-30.5 278,-0.5 174,-0.5"/>
<text text-anchor="start" x="182" y="-18.5" font-family="Helvetica,sans-Serif" font-size="10.00">list&lt; std::pair&lt; K,</text>
<text text-anchor="middle" x="226" y="-7.5" font-family="Helvetica,sans-Serif" font-size="10.00"> V &gt; &gt;</text>
</a>
</g>
</g>
<!-- Node20&#45;&gt;Node19 -->
<g id="edge20" class="edge">
<title>Node20&#45;&gt;Node19</title>
<path fill="none" stroke="midnightblue" d="M288.39,-15.5C319.23,-15.5 356.35,-15.5 386.48,-15.5"/>
<polygon fill="midnightblue" stroke="midnightblue" points="288.19,-12 278.19,-15.5 288.19,-19 288.19,-12"/>
</g>
<!-- Node21 -->
<g id="node21" class="node">
<title>Node21</title>
<g id="a_node21"><a xlink:href="classdrain_1_1CastableIterator.html" target="_top" xlink:title=" ">
<polygon fill="white" stroke="black" points="1055,-200 1055,-219 1150,-219 1150,-200 1055,-200"/>
<text text-anchor="middle" x="1102.5" y="-207" font-family="Helvetica,sans-Serif" font-size="10.00">CastableIterator</text>
</a>
</g>
</g>
<!-- Node21&#45;&gt;Node3 -->
<g id="edge21" class="edge">
<title>Node21&#45;&gt;Node3</title>
<path fill="none" stroke="#9a32cd" stroke-dasharray="5,2" d="M1159.44,-197.86C1209.88,-187.24 1286.04,-170.91 1352,-155.5 1357.95,-154.11 1364.25,-152.59 1370.39,-151.07"/>
<polygon fill="#9a32cd" stroke="#9a32cd" points="1158.46,-194.49 1149.4,-199.97 1159.9,-201.34 1158.46,-194.49"/>
<text text-anchor="middle" x="1217.5" y="-209.5" font-family="Helvetica,sans-Serif" font-size="10.00"> segmentEnd</text>
<text text-anchor="middle" x="1217.5" y="-198.5" font-family="Helvetica,sans-Serif" font-size="10.00">segmentBegin</text>
</g>
<!-- Node22&#45;&gt;Node21 -->
<g id="edge22" class="edge">
<title>Node22&#45;&gt;Node21</title>
<path fill="none" stroke="darkgreen" d="M716.7,-248.52C795.08,-240.58 970.78,-222.76 1054.89,-214.23"/>
<polygon fill="darkgreen" stroke="darkgreen" points="715.91,-245.09 706.31,-249.58 716.61,-252.05 715.91,-245.09"/>
</g>
<!-- Node23 -->
<g id="node23" class="node">
<title>Node23</title>
<g id="a_node23"><a xlink:href="classdrain_1_1FlexVariableMap.html" target="_top" xlink:title="A map of FlexVariable:s.">
<polygon fill="white" stroke="black" points="1168,-94 1168,-113 1267,-113 1267,-94 1168,-94"/>
<text text-anchor="middle" x="1217.5" y="-101" font-family="Helvetica,sans-Serif" font-size="10.00">FlexVariableMap</text>
</a>
</g>
</g>
<!-- Node23&#45;&gt;Node3 -->
<g id="edge24" class="edge">
<title>Node23&#45;&gt;Node3</title>
<path fill="none" stroke="#9a32cd" stroke-dasharray="5,2" d="M1277.28,-104.42C1300.83,-105.91 1328.02,-109.06 1352,-115.5 1365.87,-119.22 1380.57,-126.17 1391.42,-131.95"/>
<polygon fill="#9a32cd" stroke="#9a32cd" points="1277.26,-100.91 1267.09,-103.86 1276.88,-107.9 1277.26,-100.91"/>
<text text-anchor="middle" x="1318.5" y="-129.5" font-family="Helvetica,sans-Serif" font-size="10.00"> propertiesPtr</text>
<text text-anchor="middle" x="1318.5" y="-118.5" font-family="Helvetica,sans-Serif" font-size="10.00">properties</text>
</g>
<!-- Node24 -->
<g id="node24" class="node">
<title>Node24</title>
<g id="a_node24"><a xlink:href="classdrain_1_1SmartMap.html" target="_top" xlink:title=" ">
<polygon fill="white" stroke="black" points="886,-64 886,-83 1037,-83 1037,-64 886,-64"/>
<text text-anchor="middle" x="961.5" y="-71" font-family="Helvetica,sans-Serif" font-size="10.00">SmartMap&lt; FlexVariable &gt;</text>
</a>
</g>
</g>
<!-- Node24&#45;&gt;Node23 -->
<g id="edge25" class="edge">
<title>Node24&#45;&gt;Node23</title>
<path fill="none" stroke="midnightblue" d="M1047.37,-83.52C1087.43,-88.25 1133.79,-93.73 1167.83,-97.75"/>
<polygon fill="midnightblue" stroke="midnightblue" points="1047.68,-80.04 1037.33,-82.34 1046.85,-86.99 1047.68,-80.04"/>
</g>
<!-- Node25 -->
<g id="node25" class="node">
<title>Node25</title>
<g id="a_node25"><a xlink:title=" ">
<polygon fill="white" stroke="#bfbfbf" points="588,-34 588,-53 765,-53 765,-34 588,-34"/>
<text text-anchor="middle" x="676.5" y="-41" font-family="Helvetica,sans-Serif" font-size="10.00">map&lt; std::string, FlexVariable &gt;</text>
</a>
</g>
</g>
<!-- Node25&#45;&gt;Node24 -->
<g id="edge26" class="edge">
<title>Node25&#45;&gt;Node24</title>
<path fill="none" stroke="midnightblue" d="M775.2,-53.86C811.41,-57.69 851.86,-61.98 885.71,-65.57"/>
<polygon fill="midnightblue" stroke="midnightblue" points="775.42,-50.36 765.1,-52.79 774.68,-57.32 775.42,-50.36"/>
</g>
</g>
</svg>
        <g id="navigator" transform="translate(0 0)" fill="#404254">
                <rect fill="#f2f5e9" fill-opacity="0.5" stroke="#606060" stroke-width=".5" x="0" y="0" width="60" height="60"/>
                <use id="zoomplus" xlink:href="#zoomPlus" x="17" y="9" onmousedown="handleZoom(evt,'in')"/>
                <use id="zoomminus" xlink:href="#zoomMin" x="42" y="9" onmousedown="handleZoom(evt,'out')"/>
                <use id="reset" xlink:href="#resetDef" x="30" y="36" onmousedown="handleReset()"/>
                <g id="arrowUp" xlink:href="#dirArrow" transform="translate(30 24)" onmousedown="handlePan(0,-1)">
                  <use xlink:href="#rim" fill="#404040">
                        <set attributeName="fill" to="#808080" begin="arrowUp.mouseover" end="arrowUp.mouseout"/>
                  </use>
                  <path fill="none" stroke="white" stroke-width="1.5" d="M0,-3.0v7 M-2.5,-0.5L0,-3.0L2.5,-0.5"/>
                </g>
                <g id="arrowRight" xlink:href="#dirArrow" transform="rotate(90) translate(36 -43)" onmousedown="handlePan(1,0)">
                  <use xlink:href="#rim" fill="#404040">
                        <set attributeName="fill" to="#808080" begin="arrowRight.mouseover" end="arrowRight.mouseout"/>
                  </use>
                  <path fill="none" stroke="white" stroke-width="1.5" d="M0,-3.0v7 M-2.5,-0.5L0,-3.0L2.5,-0.5"/>
                </g>
                <g id="arrowDown" xlink:href="#dirArrow" transform="rotate(180) translate(-30 -48)" onmousedown="handlePan(0,1)">
                  <use xlink:href="#rim" fill="#404040">
                        <set attributeName="fill" to="#808080" begin="arrowDown.mouseover" end="arrowDown.mouseout"/>
                  </use>
                  <path fill="none" stroke="white" stroke-width="1.5" d="M0,-3.0v7 M-2.5,-0.5L0,-3.0L2.5,-0.5"/>
                </g>
                <g id="arrowLeft" xlink:href="#dirArrow" transform="rotate(270) translate(-36 17)" onmousedown="handlePan(-1,0)">
                  <use xlink:href="#rim" fill="#404040">
                        <set attributeName="fill" to="#808080" begin="arrowLeft.mouseover" end="arrowLeft.mouseout"/>
                  </use>
                  <path fill="none" stroke="white" stroke-width="1.5" d="M0,-3.0v7 M-2.5,-0.5L0,-3.0L2.5,-0.5"/>
                </g>
        </g>
        <svg viewBox="0 0 15 15" width="100%" height="30px" preserveAspectRatio="xMaxYMin meet">
         <g id="arrow_out" transform="scale(0.3 0.3)">
          <a xlink:href="classdrain_1_1image_1_1ModifiableImage__coll__graph_org.svg" target="_base">
           <rect id="button" ry="5" rx="5" y="6" x="6" height="38" width="38"
                fill="#f2f5e9" fill-opacity="0.5" stroke="#606060" stroke-width="1.0"/>
           <path id="arrow"
             d="M 11.500037,31.436501 C 11.940474,20.09759 22.043105,11.32322 32.158766,21.979434 L 37.068811,17.246167 C 37.068811,17.246167 37.088388,32 37.088388,32 L 22.160133,31.978069 C 22.160133,31.978069 26.997745,27.140456 26.997745,27.140456 C 18.528582,18.264221 13.291696,25.230495 11.500037,31.436501 z"
             style="fill:#404040;"/>
          </a>
         </g>
        </svg>
</svg>
