<?xml version="1.0" encoding="UTF-8" standalone="no"?>
<!DOCTYPE svg PUBLIC "-//W3C//DTD SVG 1.1//EN"
 "http://www.w3.org/Graphics/SVG/1.1/DTD/svg11.dtd">
<!-- Generated by graphviz version 2.43.0 (0)
 -->
<!-- Title: SlidingOpticalFlow2&lt; R &gt; Pages: 1 -->
<svg width="1419pt" height="1019pt"
 viewBox="0.00 0.00 1418.50 1019.00" xmlns="http://www.w3.org/2000/svg" xmlns:xlink="http://www.w3.org/1999/xlink">
<g id="graph0" class="graph" transform="scale(1 1) rotate(0) translate(4 1015)">
<title>SlidingOpticalFlow2&lt; R &gt;</title>
<polygon fill="white" stroke="transparent" points="-4,4 -4,-1015 1414.5,-1015 1414.5,4 -4,4"/>
<!-- Node1 -->
<g id="node1" class="node">
<title>Node1</title>
<g id="a_node1"><a xlink:title="Currently not in use. See SlidingOpticalFlowWeighted2 below.">
<polygon fill="#bfbfbf" stroke="black" points="180.5,-0.5 180.5,-19.5 323.5,-19.5 323.5,-0.5 180.5,-0.5"/>
<text text-anchor="middle" x="252" y="-7.5" font-family="Helvetica,sans-Serif" font-size="10.00">SlidingOpticalFlow2&lt; R &gt;</text>
</a>
</g>
</g>
<!-- Node2 -->
<g id="node2" class="node">
<title>Node2</title>
<g id="a_node2"><a xlink:href="classdrain_1_1image_1_1SlidingWindow.html" target="_top" xlink:title=" ">
<polygon fill="white" stroke="black" points="173,-58.5 173,-88.5 331,-88.5 331,-58.5 173,-58.5"/>
<text text-anchor="start" x="181" y="-76.5" font-family="Helvetica,sans-Serif" font-size="10.00">SlidingWindow&lt; OpticalFlow</text>
<text text-anchor="middle" x="252" y="-65.5" font-family="Helvetica,sans-Serif" font-size="10.00">Config, OpticalFlowCore2 &gt;</text>
</a>
</g>
</g>
<!-- Node2&#45;&gt;Node1 -->
<g id="edge1" class="edge">
<title>Node2&#45;&gt;Node1</title>
<path fill="none" stroke="midnightblue" d="M252,-47.95C252,-37.95 252,-27.04 252,-19.68"/>
<polygon fill="midnightblue" stroke="midnightblue" points="248.5,-48.24 252,-58.24 255.5,-48.24 248.5,-48.24"/>
</g>
<!-- Node2&#45;&gt;Node2 -->
<g id="edge58" class="edge">
<title>Node2&#45;&gt;Node2</title>
<path fill="none" stroke="#9a32cd" stroke-dasharray="5,2" d="M341.16,-77.77C346.07,-76.73 349,-75.31 349,-73.5 349,-70.68 341.87,-68.79 331.16,-67.84"/>
<polygon fill="#9a32cd" stroke="#9a32cd" points="340.59,-74.32 331.16,-79.16 341.55,-81.25 340.59,-74.32"/>
<text text-anchor="middle" x="377.5" y="-82" font-family="Helvetica,sans-Serif" font-size="10.00"> fill</text>
<text text-anchor="middle" x="377.5" y="-71" font-family="Helvetica,sans-Serif" font-size="10.00">updateVert</text>
<text text-anchor="middle" x="377.5" y="-60" font-family="Helvetica,sans-Serif" font-size="10.00">updateHorz</text>
</g>
<!-- Node3 -->
<g id="node3" class="node">
<title>Node3</title>
<g id="a_node3"><a xlink:href="classdrain_1_1image_1_1Window.html" target="_top" xlink:title=" ">
<polygon fill="white" stroke="black" points="305.5,-128.5 305.5,-158.5 464.5,-158.5 464.5,-128.5 305.5,-128.5"/>
<text text-anchor="start" x="313.5" y="-146.5" font-family="Helvetica,sans-Serif" font-size="10.00">Window&lt; OpticalFlowConfig,</text>
<text text-anchor="middle" x="385" y="-135.5" font-family="Helvetica,sans-Serif" font-size="10.00"> OpticalFlowCore2 &gt;</text>
</a>
</g>
</g>
<!-- Node3&#45;&gt;Node2 -->
<g id="edge2" class="edge">
<title>Node3&#45;&gt;Node2</title>
<path fill="none" stroke="midnightblue" d="M348.48,-123.83C326.69,-112.69 299.49,-98.78 279.52,-88.57"/>
<polygon fill="midnightblue" stroke="midnightblue" points="346.95,-126.97 357.44,-128.41 350.13,-120.74 346.95,-126.97"/>
</g>
<!-- Node4 -->
<g id="node4" class="node">
<title>Node4</title>
<g id="a_node4"><a xlink:href="classdrain_1_1image_1_1OpticalFlowCore2.html" target="_top" xlink:title=" ">
<polygon fill="white" stroke="black" points="821.5,-207.5 821.5,-226.5 924.5,-226.5 924.5,-207.5 821.5,-207.5"/>
<text text-anchor="middle" x="873" y="-214.5" font-family="Helvetica,sans-Serif" font-size="10.00">OpticalFlowCore2</text>
</a>
</g>
</g>
<!-- Node4&#45;&gt;Node3 -->
<g id="edge3" class="edge">
<title>Node4&#45;&gt;Node3</title>
<path fill="none" stroke="midnightblue" d="M818.09,-205.66C774.08,-197.56 710.7,-186.3 655,-178 591.11,-168.47 518.44,-159.57 464.59,-153.33"/>
<polygon fill="midnightblue" stroke="midnightblue" points="817.54,-209.12 828.01,-207.49 818.82,-202.23 817.54,-209.12"/>
</g>
<!-- Node5 -->
<g id="node5" class="node">
<title>Node5</title>
<g id="a_node5"><a xlink:href="classdrain_1_1image_1_1OpticalFlowCore.html" target="_top" xlink:title=" ">
<polygon fill="white" stroke="black" points="797.5,-303 797.5,-322 894.5,-322 894.5,-303 797.5,-303"/>
<text text-anchor="middle" x="846" y="-310" font-family="Helvetica,sans-Serif" font-size="10.00">OpticalFlowCore</text>
</a>
</g>
</g>
<!-- Node5&#45;&gt;Node4 -->
<g id="edge4" class="edge">
<title>Node5&#45;&gt;Node4</title>
<path fill="none" stroke="midnightblue" d="M851.34,-293.02C857.14,-272.91 866.18,-241.62 870.51,-226.61"/>
<polygon fill="midnightblue" stroke="midnightblue" points="847.9,-292.29 848.49,-302.87 854.63,-294.23 847.9,-292.29"/>
</g>
<!-- Node6 -->
<g id="node6" class="node">
<title>Node6</title>
<g id="a_node6"><a xlink:href="classdrain_1_1image_1_1WindowCoreBase.html" target="_top" xlink:title="Provides splitting frames.">
<polygon fill="white" stroke="black" points="775,-426 775,-445 877,-445 877,-426 775,-426"/>
<text text-anchor="middle" x="826" y="-433" font-family="Helvetica,sans-Serif" font-size="10.00">WindowCoreBase</text>
</a>
</g>
</g>
<!-- Node6&#45;&gt;Node5 -->
<g id="edge5" class="edge">
<title>Node6&#45;&gt;Node5</title>
<path fill="none" stroke="midnightblue" d="M829.08,-415.85C833.48,-389.27 841.36,-341.58 844.57,-322.12"/>
<polygon fill="midnightblue" stroke="midnightblue" points="825.62,-415.36 827.44,-425.8 832.52,-416.5 825.62,-415.36"/>
</g>
<!-- Node7 -->
<g id="node7" class="node">
<title>Node7</title>
<g id="a_node7"><a xlink:href="classdrain_1_1image_1_1ImageView.html" target="_top" xlink:title="ImageFrame that also has channels.">
<polygon fill="white" stroke="black" points="895.5,-426 895.5,-445 966.5,-445 966.5,-426 895.5,-426"/>
<text text-anchor="middle" x="931" y="-433" font-family="Helvetica,sans-Serif" font-size="10.00">ImageView</text>
</a>
</g>
</g>
<!-- Node7&#45;&gt;Node4 -->
<g id="edge33" class="edge">
<title>Node7&#45;&gt;Node4</title>
<path fill="none" stroke="#9a32cd" stroke-dasharray="5,2" d="M929.16,-415.69C926,-386.98 918.46,-330.76 904,-285 897.13,-263.25 884.82,-239.35 877.97,-226.81"/>
<polygon fill="#9a32cd" stroke="#9a32cd" points="925.7,-416.3 930.22,-425.89 932.67,-415.58 925.7,-416.3"/>
<text text-anchor="middle" x="928.5" y="-332" font-family="Helvetica,sans-Serif" font-size="10.00"> GYY</text>
<text text-anchor="middle" x="928.5" y="-321" font-family="Helvetica,sans-Serif" font-size="10.00">GXX</text>
<text text-anchor="middle" x="928.5" y="-310" font-family="Helvetica,sans-Serif" font-size="10.00">GXY</text>
<text text-anchor="middle" x="928.5" y="-299" font-family="Helvetica,sans-Serif" font-size="10.00">GYT</text>
<text text-anchor="middle" x="928.5" y="-288" font-family="Helvetica,sans-Serif" font-size="10.00">GXT</text>
</g>
<!-- Node7&#45;&gt;Node5 -->
<g id="edge6" class="edge">
<title>Node7&#45;&gt;Node5</title>
<path fill="none" stroke="#9a32cd" stroke-dasharray="5,2" d="M890.89,-421.81C881.17,-417 871.67,-410.55 865,-402 846.15,-377.84 845,-339.14 845.51,-322.06"/>
<polygon fill="#9a32cd" stroke="#9a32cd" points="889.63,-425.08 900.2,-425.93 892.47,-418.68 889.63,-425.08"/>
<text text-anchor="middle" x="891" y="-394" font-family="Helvetica,sans-Serif" font-size="10.00"> srcWeight</text>
<text text-anchor="middle" x="891" y="-383" font-family="Helvetica,sans-Serif" font-size="10.00">dstWeight</text>
<text text-anchor="middle" x="891" y="-372" font-family="Helvetica,sans-Serif" font-size="10.00">vField</text>
<text text-anchor="middle" x="891" y="-361" font-family="Helvetica,sans-Serif" font-size="10.00">uField</text>
</g>
<!-- Node8 -->
<g id="node8" class="node">
<title>Node8</title>
<g id="a_node8"><a xlink:href="classdrain_1_1image_1_1MultiChannel.html" target="_top" xlink:title="Multi&#45;channel ImageFrame.">
<polygon fill="white" stroke="black" points="870.5,-498.5 870.5,-517.5 951.5,-517.5 951.5,-498.5 870.5,-498.5"/>
<text text-anchor="middle" x="911" y="-505.5" font-family="Helvetica,sans-Serif" font-size="10.00">MultiChannel</text>
</a>
</g>
</g>
<!-- Node8&#45;&gt;Node7 -->
<g id="edge7" class="edge">
<title>Node8&#45;&gt;Node7</title>
<path fill="none" stroke="midnightblue" d="M916.29,-488.36C920.25,-474.4 925.49,-455.93 928.53,-445.22"/>
<polygon fill="midnightblue" stroke="midnightblue" points="912.81,-487.78 913.45,-498.36 919.55,-489.69 912.81,-487.78"/>
</g>
<!-- Node9 -->
<g id="node9" class="node">
<title>Node9</title>
<g id="a_node9"><a xlink:href="classdrain_1_1image_1_1ImageFrame.html" target="_top" xlink:title="Image with static geometry.">
<polygon fill="white" stroke="black" points="840,-555.5 840,-574.5 918,-574.5 918,-555.5 840,-555.5"/>
<text text-anchor="middle" x="879" y="-562.5" font-family="Helvetica,sans-Serif" font-size="10.00">ImageFrame</text>
</a>
</g>
</g>
<!-- Node9&#45;&gt;Node8 -->
<g id="edge8" class="edge">
<title>Node9&#45;&gt;Node8</title>
<path fill="none" stroke="midnightblue" d="M889.1,-546.64C894.7,-537.01 901.42,-525.46 905.93,-517.71"/>
<polygon fill="midnightblue" stroke="midnightblue" points="886,-545 884,-555.41 892.05,-548.52 886,-545"/>
</g>
<!-- Node10 -->
<g id="node10" class="node">
<title>Node10</title>
<g id="a_node10"><a xlink:href="classdrain_1_1image_1_1ImageLike.html" target="_top" xlink:title="A base class for images.">
<polygon fill="white" stroke="black" points="956.5,-634.5 956.5,-653.5 1023.5,-653.5 1023.5,-634.5 956.5,-634.5"/>
<text text-anchor="middle" x="990" y="-641.5" font-family="Helvetica,sans-Serif" font-size="10.00">ImageLike</text>
</a>
</g>
</g>
<!-- Node10&#45;&gt;Node9 -->
<g id="edge9" class="edge">
<title>Node10&#45;&gt;Node9</title>
<path fill="none" stroke="midnightblue" d="M969.35,-628.67C946.44,-612.78 910.23,-587.66 891.36,-574.57"/>
<polygon fill="midnightblue" stroke="midnightblue" points="967.49,-631.64 977.7,-634.47 971.48,-625.89 967.49,-631.64"/>
</g>
<!-- Node11 -->
<g id="node11" class="node">
<title>Node11</title>
<g id="a_node11"><a xlink:href="classdrain_1_1image_1_1ImageConf.html" target="_top" xlink:title="Struct for image (excluding data)">
<polygon fill="white" stroke="black" points="950,-711.5 950,-730.5 1020,-730.5 1020,-711.5 950,-711.5"/>
<text text-anchor="middle" x="985" y="-718.5" font-family="Helvetica,sans-Serif" font-size="10.00">ImageConf</text>
</a>
</g>
</g>
<!-- Node11&#45;&gt;Node10 -->
<g id="edge10" class="edge">
<title>Node11&#45;&gt;Node10</title>
<path fill="none" stroke="#9a32cd" stroke-dasharray="5,2" d="M986.27,-701.02C987.28,-685.74 988.67,-664.98 989.43,-653.5"/>
<polygon fill="#9a32cd" stroke="#9a32cd" points="982.75,-701.19 985.57,-711.4 989.73,-701.65 982.75,-701.19"/>
<text text-anchor="middle" x="1000.5" y="-680.5" font-family="Helvetica,sans-Serif" font-size="10.00"> conf</text>
</g>
<!-- Node12 -->
<g id="node12" class="node">
<title>Node12</title>
<g id="a_node12"><a xlink:href="classdrain_1_1image_1_1Encoding.html" target="_top" xlink:title=" ">
<polygon fill="white" stroke="black" points="952.5,-778.5 952.5,-797.5 1013.5,-797.5 1013.5,-778.5 952.5,-778.5"/>
<text text-anchor="middle" x="983" y="-785.5" font-family="Helvetica,sans-Serif" font-size="10.00">Encoding</text>
</a>
</g>
</g>
<!-- Node12&#45;&gt;Node11 -->
<g id="edge11" class="edge">
<title>Node12&#45;&gt;Node11</title>
<path fill="none" stroke="midnightblue" d="M983.58,-768.04C983.96,-755.67 984.44,-740.12 984.73,-730.63"/>
<polygon fill="midnightblue" stroke="midnightblue" points="980.08,-768.13 983.27,-778.23 987.08,-768.35 980.08,-768.13"/>
</g>
<!-- Node13 -->
<g id="node13" class="node">
<title>Node13</title>
<g id="a_node13"><a xlink:href="classdrain_1_1ValueScaling.html" target="_top" xlink:title="Linear scaling and physical range for image intensities.">
<polygon fill="white" stroke="black" points="937,-851 937,-870 1017,-870 1017,-851 937,-851"/>
<text text-anchor="middle" x="977" y="-858" font-family="Helvetica,sans-Serif" font-size="10.00">ValueScaling</text>
</a>
</g>
</g>
<!-- Node13&#45;&gt;Node12 -->
<g id="edge12" class="edge">
<title>Node13&#45;&gt;Node12</title>
<path fill="none" stroke="midnightblue" d="M978.59,-840.86C979.77,-826.9 981.35,-808.43 982.26,-797.72"/>
<polygon fill="midnightblue" stroke="midnightblue" points="975.1,-840.59 977.74,-850.86 982.07,-841.19 975.1,-840.59"/>
</g>
<!-- Node14 -->
<g id="node14" class="node">
<title>Node14</title>
<g id="a_node14"><a xlink:href="classdrain_1_1UniTuple.html" target="_top" xlink:title=" ">
<polygon fill="white" stroke="black" points="974,-929 974,-948 1100,-948 1100,-929 974,-929"/>
<text text-anchor="middle" x="1037" y="-936" font-family="Helvetica,sans-Serif" font-size="10.00">UniTuple&lt; double, 4 &gt;</text>
</a>
</g>
</g>
<!-- Node14&#45;&gt;Node13 -->
<g id="edge13" class="edge">
<title>Node14&#45;&gt;Node13</title>
<path fill="none" stroke="midnightblue" d="M1023.58,-920.51C1011.24,-904.87 993.43,-882.31 983.8,-870.12"/>
<polygon fill="midnightblue" stroke="midnightblue" points="1021.17,-923.1 1030.12,-928.78 1026.67,-918.76 1021.17,-923.1"/>
</g>
<!-- Node15 -->
<g id="node15" class="node">
<title>Node15</title>
<g id="a_node15"><a xlink:href="classdrain_1_1Range.html" target="_top" xlink:title=" ">
<polygon fill="white" stroke="black" points="852.5,-929 852.5,-948 955.5,-948 955.5,-929 852.5,-929"/>
<text text-anchor="middle" x="904" y="-936" font-family="Helvetica,sans-Serif" font-size="10.00">Range&lt; double &gt;</text>
</a>
</g>
</g>
<!-- Node15&#45;&gt;Node13 -->
<g id="edge14" class="edge">
<title>Node15&#45;&gt;Node13</title>
<path fill="none" stroke="#9a32cd" stroke-dasharray="5,2" d="M917.18,-920.99C924.03,-912.67 932.7,-902.55 941,-894 949.21,-885.54 959.21,-876.62 966.58,-870.26"/>
<polygon fill="#9a32cd" stroke="#9a32cd" points="914.36,-918.9 910.78,-928.87 919.8,-923.31 914.36,-918.9"/>
<text text-anchor="middle" x="970" y="-897" font-family="Helvetica,sans-Serif" font-size="10.00"> physRange</text>
</g>
<!-- Node16 -->
<g id="node16" class="node">
<title>Node16</title>
<g id="a_node16"><a xlink:href="classdrain_1_1UniTuple.html" target="_top" xlink:title=" ">
<polygon fill="white" stroke="black" points="841,-991.5 841,-1010.5 967,-1010.5 967,-991.5 841,-991.5"/>
<text text-anchor="middle" x="904" y="-998.5" font-family="Helvetica,sans-Serif" font-size="10.00">UniTuple&lt; double, 2 &gt;</text>
</a>
</g>
</g>
<!-- Node16&#45;&gt;Node15 -->
<g id="edge15" class="edge">
<title>Node16&#45;&gt;Node15</title>
<path fill="none" stroke="midnightblue" d="M904,-981C904,-970 904,-956.68 904,-948.15"/>
<polygon fill="midnightblue" stroke="midnightblue" points="900.5,-981.33 904,-991.33 907.5,-981.33 900.5,-981.33"/>
</g>
<!-- Node17 -->
<g id="node17" class="node">
<title>Node17</title>
<g id="a_node17"><a xlink:href="classdrain_1_1Caster.html" target="_top" xlink:title=" ">
<polygon fill="white" stroke="black" points="859,-851 859,-870 907,-870 907,-851 859,-851"/>
<text text-anchor="middle" x="883" y="-858" font-family="Helvetica,sans-Serif" font-size="10.00">Caster</text>
</a>
</g>
</g>
<!-- Node17&#45;&gt;Node12 -->
<g id="edge16" class="edge">
<title>Node17&#45;&gt;Node12</title>
<path fill="none" stroke="#9a32cd" stroke-dasharray="5,2" d="M902.12,-844.61C913.31,-836.04 927.79,-825.18 941,-816 950.25,-809.57 960.94,-802.71 969.22,-797.51"/>
<polygon fill="#9a32cd" stroke="#9a32cd" points="899.73,-842.04 893.94,-850.92 904,-847.58 899.73,-842.04"/>
<text text-anchor="middle" x="958" y="-819" font-family="Helvetica,sans-Serif" font-size="10.00"> caster</text>
</g>
<!-- Node28 -->
<g id="node28" class="node">
<title>Node28</title>
<g id="a_node28"><a xlink:href="classdrain_1_1Castable.html" target="_top" xlink:title=" ">
<polygon fill="white" stroke="black" points="847.5,-778.5 847.5,-797.5 906.5,-797.5 906.5,-778.5 847.5,-778.5"/>
<text text-anchor="middle" x="877" y="-785.5" font-family="Helvetica,sans-Serif" font-size="10.00">Castable</text>
</a>
</g>
</g>
<!-- Node17&#45;&gt;Node28 -->
<g id="edge29" class="edge">
<title>Node17&#45;&gt;Node28</title>
<path fill="none" stroke="#9a32cd" stroke-dasharray="5,2" d="M879.71,-840.77C879.03,-836.28 878.4,-831.48 878,-827 877.1,-817.01 876.92,-805.49 876.92,-797.77"/>
<polygon fill="#9a32cd" stroke="#9a32cd" points="876.31,-841.68 881.39,-850.98 883.22,-840.55 876.31,-841.68"/>
<text text-anchor="middle" x="895" y="-819" font-family="Helvetica,sans-Serif" font-size="10.00"> caster</text>
</g>
<!-- Node18 -->
<g id="node18" class="node">
<title>Node18</title>
<g id="a_node18"><a xlink:href="classdrain_1_1image_1_1Geometry.html" target="_top" xlink:title=" ">
<polygon fill="white" stroke="black" points="1153.5,-778.5 1153.5,-797.5 1218.5,-797.5 1218.5,-778.5 1153.5,-778.5"/>
<text text-anchor="middle" x="1186" y="-785.5" font-family="Helvetica,sans-Serif" font-size="10.00">Geometry</text>
</a>
</g>
</g>
<!-- Node18&#45;&gt;Node11 -->
<g id="edge17" class="edge">
<title>Node18&#45;&gt;Node11</title>
<path fill="none" stroke="midnightblue" d="M1149.71,-775.27C1109.89,-762.39 1046.91,-742.02 1011.48,-730.56"/>
<polygon fill="midnightblue" stroke="midnightblue" points="1148.72,-778.62 1159.31,-778.37 1150.87,-771.96 1148.72,-778.62"/>
</g>
<!-- Node19 -->
<g id="node19" class="node">
<title>Node19</title>
<g id="a_node19"><a xlink:href="classdrain_1_1UniTuple.html" target="_top" xlink:title=" ">
<polygon fill="white" stroke="black" points="1165,-851 1165,-870 1287,-870 1287,-851 1165,-851"/>
<text text-anchor="middle" x="1226" y="-858" font-family="Helvetica,sans-Serif" font-size="10.00">UniTuple&lt; size_t, 4 &gt;</text>
</a>
</g>
</g>
<!-- Node19&#45;&gt;Node18 -->
<g id="edge18" class="edge">
<title>Node19&#45;&gt;Node18</title>
<path fill="none" stroke="midnightblue" d="M1216.12,-842.09C1208.13,-828 1197.2,-808.74 1190.94,-797.72"/>
<polygon fill="midnightblue" stroke="midnightblue" points="1213.12,-843.88 1221.1,-850.86 1219.2,-840.43 1213.12,-843.88"/>
</g>
<!-- Node20 -->
<g id="node20" class="node">
<title>Node20</title>
<g id="a_node20"><a xlink:href="classdrain_1_1Frame2D.html" target="_top" xlink:title=" ">
<polygon fill="white" stroke="black" points="1035,-851 1035,-870 1147,-870 1147,-851 1035,-851"/>
<text text-anchor="middle" x="1091" y="-858" font-family="Helvetica,sans-Serif" font-size="10.00">Frame2D&lt; size_t &gt;</text>
</a>
</g>
</g>
<!-- Node20&#45;&gt;Node18 -->
<g id="edge19" class="edge">
<title>Node20&#45;&gt;Node18</title>
<path fill="none" stroke="#9a32cd" stroke-dasharray="5,2" d="M1110.73,-844.86C1129.9,-830.63 1158.39,-809.49 1174.26,-797.72"/>
<polygon fill="#9a32cd" stroke="#9a32cd" points="1108.59,-842.09 1102.65,-850.86 1112.76,-847.71 1108.59,-842.09"/>
<text text-anchor="middle" x="1159.5" y="-819" font-family="Helvetica,sans-Serif" font-size="10.00"> area</text>
</g>
<!-- Node21 -->
<g id="node21" class="node">
<title>Node21</title>
<g id="a_node21"><a xlink:href="classdrain_1_1UniTuple.html" target="_top" xlink:title=" ">
<polygon fill="white" stroke="black" points="1237,-929 1237,-948 1359,-948 1359,-929 1237,-929"/>
<text text-anchor="middle" x="1298" y="-936" font-family="Helvetica,sans-Serif" font-size="10.00">UniTuple&lt; size_t, 2 &gt;</text>
</a>
</g>
</g>
<!-- Node21&#45;&gt;Node20 -->
<g id="edge20" class="edge">
<title>Node21&#45;&gt;Node20</title>
<path fill="none" stroke="midnightblue" d="M1265.14,-925.44C1223.04,-909.98 1151.11,-883.57 1114.26,-870.04"/>
<polygon fill="midnightblue" stroke="midnightblue" points="1264.06,-928.77 1274.66,-928.93 1266.48,-922.2 1264.06,-928.77"/>
</g>
<!-- Node22 -->
<g id="node22" class="node">
<title>Node22</title>
<g id="a_node22"><a xlink:href="classdrain_1_1image_1_1ChannelGeometry.html" target="_top" xlink:title=" ">
<polygon fill="white" stroke="black" points="1305.5,-851 1305.5,-870 1410.5,-870 1410.5,-851 1305.5,-851"/>
<text text-anchor="middle" x="1358" y="-858" font-family="Helvetica,sans-Serif" font-size="10.00">ChannelGeometry</text>
</a>
</g>
</g>
<!-- Node21&#45;&gt;Node22 -->
<g id="edge22" class="edge">
<title>Node21&#45;&gt;Node22</title>
<path fill="none" stroke="midnightblue" d="M1311.42,-920.51C1323.76,-904.87 1341.57,-882.31 1351.2,-870.12"/>
<polygon fill="midnightblue" stroke="midnightblue" points="1308.33,-918.76 1304.88,-928.78 1313.83,-923.1 1308.33,-918.76"/>
</g>
<!-- Node22&#45;&gt;Node18 -->
<g id="edge21" class="edge">
<title>Node22&#45;&gt;Node18</title>
<path fill="none" stroke="#9a32cd" stroke-dasharray="5,2" d="M1327.63,-847.05C1292.9,-832.82 1236.95,-809.88 1206.82,-797.53"/>
<polygon fill="#9a32cd" stroke="#9a32cd" points="1326.67,-850.44 1337.25,-851 1329.33,-843.96 1326.67,-850.44"/>
<text text-anchor="middle" x="1300.5" y="-819" font-family="Helvetica,sans-Serif" font-size="10.00"> channels</text>
</g>
<!-- Node23 -->
<g id="node23" class="node">
<title>Node23</title>
<g id="a_node23"><a xlink:href="classdrain_1_1image_1_1CoordinatePolicy.html" target="_top" xlink:title="Policies for coordinate underflows and overflows.">
<polygon fill="white" stroke="black" points="466.5,-778.5 466.5,-797.5 565.5,-797.5 565.5,-778.5 466.5,-778.5"/>
<text text-anchor="middle" x="516" y="-785.5" font-family="Helvetica,sans-Serif" font-size="10.00">CoordinatePolicy</text>
</a>
</g>
</g>
<!-- Node23&#45;&gt;Node11 -->
<g id="edge23" class="edge">
<title>Node23&#45;&gt;Node11</title>
<path fill="none" stroke="#9a32cd" stroke-dasharray="5,2" d="M575.9,-778.7C675.07,-764.95 870.29,-737.9 949.93,-726.86"/>
<polygon fill="#9a32cd" stroke="#9a32cd" points="575.17,-775.27 565.75,-780.11 576.13,-782.2 575.17,-775.27"/>
<text text-anchor="middle" x="820.5" y="-752" font-family="Helvetica,sans-Serif" font-size="10.00"> coordinatePolicy</text>
</g>
<!-- Node50 -->
<g id="node50" class="node">
<title>Node50</title>
<g id="a_node50"><a xlink:href="classdrain_1_1image_1_1CoordinateHandler2D.html" target="_top" xlink:title=" ">
<polygon fill="white" stroke="black" points="385,-303 385,-322 507,-322 507,-303 385,-303"/>
<text text-anchor="middle" x="446" y="-310" font-family="Helvetica,sans-Serif" font-size="10.00">CoordinateHandler2D</text>
</a>
</g>
</g>
<!-- Node23&#45;&gt;Node50 -->
<g id="edge57" class="edge">
<title>Node23&#45;&gt;Node50</title>
<path fill="none" stroke="#9a32cd" stroke-dasharray="5,2" d="M486.29,-773.58C467.22,-762.71 446,-745.37 446,-722 446,-722 446,-722 446,-434.5 446,-392.28 446,-341.76 446,-322.01"/>
<polygon fill="#9a32cd" stroke="#9a32cd" points="484.9,-776.8 495.38,-778.39 488.18,-770.62 484.9,-776.8"/>
<text text-anchor="middle" x="462.5" y="-562.5" font-family="Helvetica,sans-Serif" font-size="10.00"> policy</text>
</g>
<!-- Node24 -->
<g id="node24" class="node">
<title>Node24</title>
<g id="a_node24"><a xlink:href="classdrain_1_1UniTuple.html" target="_top" xlink:title=" ">
<polygon fill="white" stroke="black" points="500.5,-845.5 500.5,-875.5 617.5,-875.5 617.5,-845.5 500.5,-845.5"/>
<text text-anchor="start" x="508.5" y="-863.5" font-family="Helvetica,sans-Serif" font-size="10.00">UniTuple&lt; coord_pol</text>
<text text-anchor="middle" x="559" y="-852.5" font-family="Helvetica,sans-Serif" font-size="10.00">_t, 4 &gt;</text>
</a>
</g>
</g>
<!-- Node24&#45;&gt;Node23 -->
<g id="edge24" class="edge">
<title>Node24&#45;&gt;Node23</title>
<path fill="none" stroke="midnightblue" d="M545.05,-836.63C537,-823.42 527.33,-807.57 521.42,-797.89"/>
<polygon fill="midnightblue" stroke="midnightblue" points="542.1,-838.52 550.3,-845.23 548.08,-834.87 542.1,-838.52"/>
</g>
<!-- Node25 -->
<g id="node25" class="node">
<title>Node25</title>
<g id="a_node25"><a xlink:href="classdrain_1_1Dictionary2.html" target="_top" xlink:title="Two&#45;way mapping between strings and objects of template class T.">
<polygon fill="white" stroke="black" points="367.5,-851 367.5,-870 482.5,-870 482.5,-851 367.5,-851"/>
<text text-anchor="middle" x="425" y="-858" font-family="Helvetica,sans-Serif" font-size="10.00">Dictionary2&lt; K, V &gt;</text>
</a>
</g>
</g>
<!-- Node25&#45;&gt;Node23 -->
<g id="edge25" class="edge">
<title>Node25&#45;&gt;Node23</title>
<path fill="none" stroke="#9a32cd" stroke-dasharray="5,2" d="M444.39,-844.47C462.76,-830.25 489.69,-809.38 504.75,-797.72"/>
<polygon fill="#9a32cd" stroke="#9a32cd" points="441.92,-841.96 436.16,-850.86 446.21,-847.5 441.92,-841.96"/>
<text text-anchor="middle" x="490" y="-819" font-family="Helvetica,sans-Serif" font-size="10.00"> dict</text>
</g>
<!-- Node26 -->
<g id="node26" class="node">
<title>Node26</title>
<g id="a_node26"><a xlink:title=" ">
<polygon fill="white" stroke="#bfbfbf" points="373,-923.5 373,-953.5 477,-953.5 477,-923.5 373,-923.5"/>
<text text-anchor="start" x="381" y="-941.5" font-family="Helvetica,sans-Serif" font-size="10.00">list&lt; std::pair&lt; K,</text>
<text text-anchor="middle" x="425" y="-930.5" font-family="Helvetica,sans-Serif" font-size="10.00"> V &gt; &gt;</text>
</a>
</g>
</g>
<!-- Node26&#45;&gt;Node25 -->
<g id="edge26" class="edge">
<title>Node26&#45;&gt;Node25</title>
<path fill="none" stroke="midnightblue" d="M425,-913.17C425,-898.4 425,-880.45 425,-870.06"/>
<polygon fill="midnightblue" stroke="midnightblue" points="421.5,-913.2 425,-923.2 428.5,-913.21 421.5,-913.2"/>
</g>
<!-- Node27 -->
<g id="node27" class="node">
<title>Node27</title>
<g id="a_node27"><a xlink:href="classdrain_1_1CastableIterator.html" target="_top" xlink:title=" ">
<polygon fill="white" stroke="black" points="820.5,-673.5 820.5,-692.5 915.5,-692.5 915.5,-673.5 820.5,-673.5"/>
<text text-anchor="middle" x="868" y="-680.5" font-family="Helvetica,sans-Serif" font-size="10.00">CastableIterator</text>
</a>
</g>
</g>
<!-- Node27&#45;&gt;Node9 -->
<g id="edge27" class="edge">
<title>Node27&#45;&gt;Node9</title>
<path fill="none" stroke="#9a32cd" stroke-dasharray="5,2" d="M869.8,-663.02C872.22,-637.46 876.44,-593.04 878.19,-574.5"/>
<polygon fill="#9a32cd" stroke="#9a32cd" points="866.29,-663 868.83,-673.28 873.26,-663.66 866.29,-663"/>
<text text-anchor="middle" x="907.5" y="-647" font-family="Helvetica,sans-Serif" font-size="10.00"> segmentEnd</text>
<text text-anchor="middle" x="907.5" y="-636" font-family="Helvetica,sans-Serif" font-size="10.00">segmentBegin</text>
</g>
<!-- Node28&#45;&gt;Node27 -->
<g id="edge28" class="edge">
<title>Node28&#45;&gt;Node27</title>
<path fill="none" stroke="darkgreen" d="M875.36,-768.25C873.41,-745.87 870.22,-709.39 868.77,-692.76"/>
<polygon fill="darkgreen" stroke="darkgreen" points="871.88,-768.56 876.23,-778.22 878.85,-767.95 871.88,-768.56"/>
</g>
<!-- Node29 -->
<g id="node29" class="node">
<title>Node29</title>
<g id="a_node29"><a xlink:href="classdrain_1_1FlexVariableMap.html" target="_top" xlink:title="A map of FlexVariable:s.">
<polygon fill="white" stroke="black" points="722.5,-634.5 722.5,-653.5 821.5,-653.5 821.5,-634.5 722.5,-634.5"/>
<text text-anchor="middle" x="772" y="-641.5" font-family="Helvetica,sans-Serif" font-size="10.00">FlexVariableMap</text>
</a>
</g>
</g>
<!-- Node29&#45;&gt;Node9 -->
<g id="edge30" class="edge">
<title>Node29&#45;&gt;Node9</title>
<path fill="none" stroke="#9a32cd" stroke-dasharray="5,2" d="M772.92,-624.09C774.39,-613.66 777.89,-601.18 786,-593 800.08,-578.79 821.16,-571.95 839.7,-568.71"/>
<polygon fill="#9a32cd" stroke="#9a32cd" points="769.41,-624.05 771.99,-634.33 776.38,-624.68 769.41,-624.05"/>
<text text-anchor="middle" x="819.5" y="-607" font-family="Helvetica,sans-Serif" font-size="10.00"> propertiesPtr</text>
<text text-anchor="middle" x="819.5" y="-596" font-family="Helvetica,sans-Serif" font-size="10.00">properties</text>
</g>
<!-- Node30 -->
<g id="node30" class="node">
<title>Node30</title>
<g id="a_node30"><a xlink:href="classdrain_1_1SmartMap.html" target="_top" xlink:title=" ">
<polygon fill="white" stroke="black" points="680.5,-711.5 680.5,-730.5 831.5,-730.5 831.5,-711.5 680.5,-711.5"/>
<text text-anchor="middle" x="756" y="-718.5" font-family="Helvetica,sans-Serif" font-size="10.00">SmartMap&lt; FlexVariable &gt;</text>
</a>
</g>
</g>
<!-- Node30&#45;&gt;Node29 -->
<g id="edge31" class="edge">
<title>Node30&#45;&gt;Node29</title>
<path fill="none" stroke="midnightblue" d="M759.95,-701.47C763.22,-686.15 767.71,-665.09 770.19,-653.5"/>
<polygon fill="midnightblue" stroke="midnightblue" points="756.5,-700.89 757.84,-711.4 763.34,-702.35 756.5,-700.89"/>
</g>
<!-- Node31 -->
<g id="node31" class="node">
<title>Node31</title>
<g id="a_node31"><a xlink:title=" ">
<polygon fill="white" stroke="#bfbfbf" points="652.5,-778.5 652.5,-797.5 829.5,-797.5 829.5,-778.5 652.5,-778.5"/>
<text text-anchor="middle" x="741" y="-785.5" font-family="Helvetica,sans-Serif" font-size="10.00">map&lt; std::string, FlexVariable &gt;</text>
</a>
</g>
</g>
<!-- Node31&#45;&gt;Node30 -->
<g id="edge32" class="edge">
<title>Node31&#45;&gt;Node30</title>
<path fill="none" stroke="midnightblue" d="M745.29,-768.41C748.16,-755.99 751.8,-740.22 754.01,-730.63"/>
<polygon fill="midnightblue" stroke="midnightblue" points="741.86,-767.7 743.02,-778.23 748.68,-769.28 741.86,-767.7"/>
</g>
<!-- Node32 -->
<g id="node32" class="node">
<title>Node32</title>
<g id="a_node32"><a xlink:href="classdrain_1_1Range.html" target="_top" xlink:title=" ">
<polygon fill="white" stroke="black" points="329.5,-426 329.5,-445 412.5,-445 412.5,-426 329.5,-426"/>
<text text-anchor="middle" x="371" y="-433" font-family="Helvetica,sans-Serif" font-size="10.00">Range&lt; int &gt;</text>
</a>
</g>
</g>
<!-- Node32&#45;&gt;Node3 -->
<g id="edge34" class="edge">
<title>Node32&#45;&gt;Node3</title>
<path fill="none" stroke="#9a32cd" stroke-dasharray="5,2" d="M371.03,-415.2C371.11,-399.73 371.34,-377.46 372,-358 374.55,-282.85 381.2,-193 383.87,-158.73"/>
<polygon fill="#9a32cd" stroke="#9a32cd" points="367.53,-415.53 371,-425.55 374.53,-415.56 367.53,-415.53"/>
<text text-anchor="middle" x="396.5" y="-259" font-family="Helvetica,sans-Serif" font-size="10.00"> jRange</text>
<text text-anchor="middle" x="396.5" y="-248" font-family="Helvetica,sans-Serif" font-size="10.00">iRange</text>
</g>
<!-- Node32&#45;&gt;Node50 -->
<g id="edge55" class="edge">
<title>Node32&#45;&gt;Node50</title>
<path fill="none" stroke="#9a32cd" stroke-dasharray="5,2" d="M372.91,-415.82C375.3,-399.48 380.56,-375.66 392,-358 401.91,-342.71 418.74,-330.06 430.99,-322.2"/>
<polygon fill="#9a32cd" stroke="#9a32cd" points="369.43,-415.42 371.68,-425.77 376.38,-416.28 369.43,-415.42"/>
<text text-anchor="middle" x="412" y="-383" font-family="Helvetica,sans-Serif" font-size="10.00"> yRange</text>
<text text-anchor="middle" x="412" y="-372" font-family="Helvetica,sans-Serif" font-size="10.00">xRange</text>
</g>
<!-- Node33 -->
<g id="node33" class="node">
<title>Node33</title>
<g id="a_node33"><a xlink:href="classdrain_1_1UniTuple.html" target="_top" xlink:title=" ">
<polygon fill="white" stroke="black" points="210,-498.5 210,-517.5 316,-517.5 316,-498.5 210,-498.5"/>
<text text-anchor="middle" x="263" y="-505.5" font-family="Helvetica,sans-Serif" font-size="10.00">UniTuple&lt; int, 2 &gt;</text>
</a>
</g>
</g>
<!-- Node33&#45;&gt;Node32 -->
<g id="edge35" class="edge">
<title>Node33&#45;&gt;Node32</title>
<path fill="none" stroke="midnightblue" d="M284.84,-492.74C306.64,-478.51 339.45,-457.09 357.65,-445.22"/>
<polygon fill="midnightblue" stroke="midnightblue" points="282.7,-489.96 276.24,-498.36 286.53,-495.82 282.7,-489.96"/>
</g>
<!-- Node48 -->
<g id="node48" class="node">
<title>Node48</title>
<g id="a_node48"><a xlink:href="classdrain_1_1Frame2D.html" target="_top" xlink:title=" ">
<polygon fill="white" stroke="black" points="215,-426 215,-445 311,-445 311,-426 215,-426"/>
<text text-anchor="middle" x="263" y="-433" font-family="Helvetica,sans-Serif" font-size="10.00">Frame2D&lt; int &gt;</text>
</a>
</g>
</g>
<!-- Node33&#45;&gt;Node48 -->
<g id="edge51" class="edge">
<title>Node33&#45;&gt;Node48</title>
<path fill="none" stroke="midnightblue" d="M263,-487.94C263,-474.03 263,-455.82 263,-445.22"/>
<polygon fill="midnightblue" stroke="midnightblue" points="259.5,-488.36 263,-498.36 266.5,-488.36 259.5,-488.36"/>
</g>
<!-- Node49 -->
<g id="node49" class="node">
<title>Node49</title>
<g id="a_node49"><a xlink:href="structdrain_1_1Point2D.html" target="_top" xlink:title=" ">
<polygon fill="white" stroke="black" points="117,-207.5 117,-226.5 207,-226.5 207,-207.5 117,-207.5"/>
<text text-anchor="middle" x="162" y="-214.5" font-family="Helvetica,sans-Serif" font-size="10.00">Point2D&lt; int &gt;</text>
</a>
</g>
</g>
<!-- Node33&#45;&gt;Node49 -->
<g id="edge53" class="edge">
<title>Node33&#45;&gt;Node49</title>
<path fill="none" stroke="midnightblue" d="M242.26,-491.97C229.79,-481.81 214.71,-467.31 206,-451 163.73,-371.84 161.54,-258.54 161.83,-226.64"/>
<polygon fill="midnightblue" stroke="midnightblue" points="240.32,-494.89 250.36,-498.28 244.62,-489.37 240.32,-494.89"/>
</g>
<!-- Node34 -->
<g id="node34" class="node">
<title>Node34</title>
<g id="a_node34"><a xlink:href="structdrain_1_1UnaryFunctor.html" target="_top" xlink:title=" ">
<polygon fill="white" stroke="black" points="520,-207.5 520,-226.5 602,-226.5 602,-207.5 520,-207.5"/>
<text text-anchor="middle" x="561" y="-214.5" font-family="Helvetica,sans-Serif" font-size="10.00">UnaryFunctor</text>
</a>
</g>
</g>
<!-- Node34&#45;&gt;Node3 -->
<g id="edge36" class="edge">
<title>Node34&#45;&gt;Node3</title>
<path fill="none" stroke="#9a32cd" stroke-dasharray="5,2" d="M530.37,-203.56C499.48,-191.01 451.88,-171.67 419.64,-158.57"/>
<polygon fill="#9a32cd" stroke="#9a32cd" points="529.19,-206.85 539.77,-207.38 531.82,-200.37 529.19,-206.85"/>
<text text-anchor="middle" x="521.5" y="-181" font-family="Helvetica,sans-Serif" font-size="10.00"> myFunctor</text>
</g>
<!-- Node35 -->
<g id="node35" class="node">
<title>Node35</title>
<g id="a_node35"><a xlink:href="classdrain_1_1Functor.html" target="_top" xlink:title="Base class for sequential computations. Optional scaling utilities.">
<polygon fill="white" stroke="black" points="537.5,-303 537.5,-322 590.5,-322 590.5,-303 537.5,-303"/>
<text text-anchor="middle" x="564" y="-310" font-family="Helvetica,sans-Serif" font-size="10.00">Functor</text>
</a>
</g>
</g>
<!-- Node35&#45;&gt;Node34 -->
<g id="edge37" class="edge">
<title>Node35&#45;&gt;Node34</title>
<path fill="none" stroke="midnightblue" d="M563.4,-292.74C562.75,-272.62 561.76,-241.55 561.28,-226.61"/>
<polygon fill="midnightblue" stroke="midnightblue" points="559.9,-292.99 563.72,-302.87 566.9,-292.76 559.9,-292.99"/>
</g>
<!-- Node36 -->
<g id="node36" class="node">
<title>Node36</title>
<g id="a_node36"><a xlink:href="classdrain_1_1BeanLike.html" target="_top" xlink:title="Something which has a name, a description and possibly some parameters of varying type.">
<polygon fill="white" stroke="black" points="534.5,-426 534.5,-445 595.5,-445 595.5,-426 534.5,-426"/>
<text text-anchor="middle" x="565" y="-433" font-family="Helvetica,sans-Serif" font-size="10.00">BeanLike</text>
</a>
</g>
</g>
<!-- Node36&#45;&gt;Node35 -->
<g id="edge38" class="edge">
<title>Node36&#45;&gt;Node35</title>
<path fill="none" stroke="midnightblue" d="M564.84,-415.49C564.62,-388.85 564.23,-341.5 564.07,-322.12"/>
<polygon fill="midnightblue" stroke="midnightblue" points="561.35,-415.83 564.93,-425.8 568.35,-415.77 561.35,-415.83"/>
</g>
<!-- Node37 -->
<g id="node37" class="node">
<title>Node37</title>
<g id="a_node37"><a xlink:href="classdrain_1_1ReferenceMap.html" target="_top" xlink:title=" ">
<polygon fill="white" stroke="black" points="522.5,-498.5 522.5,-517.5 609.5,-517.5 609.5,-498.5 522.5,-498.5"/>
<text text-anchor="middle" x="566" y="-505.5" font-family="Helvetica,sans-Serif" font-size="10.00">ReferenceMap</text>
</a>
</g>
</g>
<!-- Node37&#45;&gt;Node36 -->
<g id="edge39" class="edge">
<title>Node37&#45;&gt;Node36</title>
<path fill="none" stroke="#9a32cd" stroke-dasharray="5,2" d="M565.73,-487.94C565.53,-474.03 565.27,-455.82 565.12,-445.22"/>
<polygon fill="#9a32cd" stroke="#9a32cd" points="562.24,-488.41 565.88,-498.36 569.24,-488.31 562.24,-488.41"/>
<text text-anchor="middle" x="596" y="-472" font-family="Helvetica,sans-Serif" font-size="10.00"> parameters</text>
</g>
<!-- Node38 -->
<g id="node38" class="node">
<title>Node38</title>
<g id="a_node38"><a xlink:href="classdrain_1_1SmartMap.html" target="_top" xlink:title=" ">
<polygon fill="white" stroke="black" points="497.5,-555.5 497.5,-574.5 640.5,-574.5 640.5,-555.5 497.5,-555.5"/>
<text text-anchor="middle" x="569" y="-562.5" font-family="Helvetica,sans-Serif" font-size="10.00">SmartMap&lt; Referencer &gt;</text>
</a>
</g>
</g>
<!-- Node38&#45;&gt;Node37 -->
<g id="edge40" class="edge">
<title>Node38&#45;&gt;Node37</title>
<path fill="none" stroke="midnightblue" d="M567.97,-545.12C567.46,-535.82 566.88,-525.06 566.48,-517.71"/>
<polygon fill="midnightblue" stroke="midnightblue" points="564.49,-545.61 568.53,-555.41 571.48,-545.23 564.49,-545.61"/>
</g>
<!-- Node39 -->
<g id="node39" class="node">
<title>Node39</title>
<g id="a_node39"><a xlink:title=" ">
<polygon fill="white" stroke="#bfbfbf" points="484.5,-634.5 484.5,-653.5 653.5,-653.5 653.5,-634.5 484.5,-634.5"/>
<text text-anchor="middle" x="569" y="-641.5" font-family="Helvetica,sans-Serif" font-size="10.00">map&lt; std::string, Referencer &gt;</text>
</a>
</g>
</g>
<!-- Node39&#45;&gt;Node38 -->
<g id="edge41" class="edge">
<title>Node39&#45;&gt;Node38</title>
<path fill="none" stroke="midnightblue" d="M569,-624.31C569,-608.59 569,-586.81 569,-574.81"/>
<polygon fill="midnightblue" stroke="midnightblue" points="565.5,-624.47 569,-634.47 572.5,-624.47 565.5,-624.47"/>
</g>
<!-- Node40 -->
<g id="node40" class="node">
<title>Node40</title>
<g id="a_node40"><a xlink:href="classdrain_1_1UniCloner.html" target="_top" xlink:title=" ">
<polygon fill="white" stroke="black" points="620.5,-207.5 620.5,-226.5 803.5,-226.5 803.5,-207.5 620.5,-207.5"/>
<text text-anchor="middle" x="712" y="-214.5" font-family="Helvetica,sans-Serif" font-size="10.00">UniCloner&lt; drain::UnaryFunctor &gt;</text>
</a>
</g>
</g>
<!-- Node40&#45;&gt;Node3 -->
<g id="edge42" class="edge">
<title>Node40&#45;&gt;Node3</title>
<path fill="none" stroke="#9a32cd" stroke-dasharray="5,2" d="M668.08,-205.03C636.21,-197.19 592.03,-186.55 553,-178 522.21,-171.25 488.11,-164.35 458.73,-158.58"/>
<polygon fill="#9a32cd" stroke="#9a32cd" points="667.42,-208.47 677.97,-207.47 669.1,-201.68 667.42,-208.47"/>
<text text-anchor="middle" x="626.5" y="-181" font-family="Helvetica,sans-Serif" font-size="10.00"> unicloner</text>
</g>
<!-- Node41 -->
<g id="node41" class="node">
<title>Node41</title>
<g id="a_node41"><a xlink:href="classdrain_1_1Bank.html" target="_top" xlink:title=" ">
<polygon fill="white" stroke="black" points="650.5,-303 650.5,-322 733.5,-322 733.5,-303 650.5,-303"/>
<text text-anchor="middle" x="692" y="-310" font-family="Helvetica,sans-Serif" font-size="10.00">Bank&lt; T, K &gt;</text>
</a>
</g>
</g>
<!-- Node41&#45;&gt;Node40 -->
<g id="edge43" class="edge">
<title>Node41&#45;&gt;Node40</title>
<path fill="none" stroke="#9a32cd" stroke-dasharray="5,2" d="M695.95,-293.02C700.25,-272.91 706.95,-241.62 710.16,-226.61"/>
<polygon fill="#9a32cd" stroke="#9a32cd" points="692.51,-292.36 693.85,-302.87 699.36,-293.82 692.51,-292.36"/>
<text text-anchor="middle" x="720" y="-253.5" font-family="Helvetica,sans-Serif" font-size="10.00"> bank</text>
</g>
<!-- Node42 -->
<g id="node42" class="node">
<title>Node42</title>
<g id="a_node42"><a xlink:title=" ">
<polygon fill="white" stroke="#bfbfbf" points="621,-420.5 621,-450.5 757,-450.5 757,-420.5 621,-420.5"/>
<text text-anchor="start" x="629" y="-438.5" font-family="Helvetica,sans-Serif" font-size="10.00">map&lt; std::string, Cloner</text>
<text text-anchor="middle" x="689" y="-427.5" font-family="Helvetica,sans-Serif" font-size="10.00">Base&lt; T &gt; * &gt;</text>
</a>
</g>
</g>
<!-- Node42&#45;&gt;Node41 -->
<g id="edge44" class="edge">
<title>Node42&#45;&gt;Node41</title>
<path fill="none" stroke="darkgreen" d="M689.61,-409.84C690.29,-382.56 691.34,-340.08 691.79,-322.05"/>
<polygon fill="darkgreen" stroke="darkgreen" points="686.1,-410.06 689.36,-420.14 693.1,-410.23 686.1,-410.06"/>
</g>
<!-- Node43 -->
<g id="node43" class="node">
<title>Node43</title>
<g id="a_node43"><a xlink:href="classdrain_1_1image_1_1OpticalFlowConfig.html" target="_top" xlink:title="Consider using SlidingStripeOpticalFlow instead.">
<polygon fill="white" stroke="black" points="225,-207.5 225,-226.5 331,-226.5 331,-207.5 225,-207.5"/>
<text text-anchor="middle" x="278" y="-214.5" font-family="Helvetica,sans-Serif" font-size="10.00">OpticalFlowConfig</text>
</a>
</g>
</g>
<!-- Node43&#45;&gt;Node3 -->
<g id="edge45" class="edge">
<title>Node43&#45;&gt;Node3</title>
<path fill="none" stroke="#9a32cd" stroke-dasharray="5,2" d="M293.52,-200.17C301.11,-192.91 310.62,-184.5 320,-178 330.44,-170.77 342.64,-164.08 353.63,-158.61"/>
<polygon fill="#9a32cd" stroke="#9a32cd" points="290.8,-197.93 286.14,-207.45 295.72,-202.92 290.8,-197.93"/>
<text text-anchor="middle" x="332.5" y="-181" font-family="Helvetica,sans-Serif" font-size="10.00"> conf</text>
</g>
<!-- Node44 -->
<g id="node44" class="node">
<title>Node44</title>
<g id="a_node44"><a xlink:href="classdrain_1_1image_1_1WindowConfig.html" target="_top" xlink:title="Base class for configurations applied in image processing windows, e.g. for operators of type WindowO...">
<polygon fill="white" stroke="black" points="217.5,-303 217.5,-322 304.5,-322 304.5,-303 217.5,-303"/>
<text text-anchor="middle" x="261" y="-310" font-family="Helvetica,sans-Serif" font-size="10.00">WindowConfig</text>
</a>
</g>
</g>
<!-- Node44&#45;&gt;Node43 -->
<g id="edge46" class="edge">
<title>Node44&#45;&gt;Node43</title>
<path fill="none" stroke="midnightblue" d="M264.36,-293.02C268.02,-272.91 273.71,-241.62 276.43,-226.61"/>
<polygon fill="midnightblue" stroke="midnightblue" points="260.91,-292.41 262.57,-302.87 267.8,-293.66 260.91,-292.41"/>
</g>
<!-- Node45 -->
<g id="node45" class="node">
<title>Node45</title>
<g id="a_node45"><a xlink:href="classdrain_1_1VariableMap.html" target="_top" xlink:title="A map of Variables.">
<polygon fill="white" stroke="black" points="39,-426 39,-445 117,-445 117,-426 39,-426"/>
<text text-anchor="middle" x="78" y="-433" font-family="Helvetica,sans-Serif" font-size="10.00">VariableMap</text>
</a>
</g>
</g>
<!-- Node45&#45;&gt;Node44 -->
<g id="edge47" class="edge">
<title>Node45&#45;&gt;Node44</title>
<path fill="none" stroke="#9a32cd" stroke-dasharray="5,2" d="M93.44,-418.16C109.8,-401.49 136.97,-375.65 164,-358 187.42,-342.7 216.96,-329.97 237.25,-322.1"/>
<polygon fill="#9a32cd" stroke="#9a32cd" points="90.75,-415.9 86.32,-425.52 95.79,-420.76 90.75,-415.9"/>
<text text-anchor="middle" x="211" y="-377.5" font-family="Helvetica,sans-Serif" font-size="10.00"> functorParameters</text>
</g>
<!-- Node46 -->
<g id="node46" class="node">
<title>Node46</title>
<g id="a_node46"><a xlink:href="classdrain_1_1SmartMap.html" target="_top" xlink:title=" ">
<polygon fill="white" stroke="black" points="13,-498.5 13,-517.5 143,-517.5 143,-498.5 13,-498.5"/>
<text text-anchor="middle" x="78" y="-505.5" font-family="Helvetica,sans-Serif" font-size="10.00">SmartMap&lt; Variable &gt;</text>
</a>
</g>
</g>
<!-- Node46&#45;&gt;Node45 -->
<g id="edge48" class="edge">
<title>Node46&#45;&gt;Node45</title>
<path fill="none" stroke="midnightblue" d="M78,-487.94C78,-474.03 78,-455.82 78,-445.22"/>
<polygon fill="midnightblue" stroke="midnightblue" points="74.5,-488.36 78,-498.36 81.5,-488.36 74.5,-488.36"/>
</g>
<!-- Node47 -->
<g id="node47" class="node">
<title>Node47</title>
<g id="a_node47"><a xlink:title=" ">
<polygon fill="white" stroke="#bfbfbf" points="0,-555.5 0,-574.5 156,-574.5 156,-555.5 0,-555.5"/>
<text text-anchor="middle" x="78" y="-562.5" font-family="Helvetica,sans-Serif" font-size="10.00">map&lt; std::string, Variable &gt;</text>
</a>
</g>
</g>
<!-- Node47&#45;&gt;Node46 -->
<g id="edge49" class="edge">
<title>Node47&#45;&gt;Node46</title>
<path fill="none" stroke="midnightblue" d="M78,-545.12C78,-535.82 78,-525.06 78,-517.71"/>
<polygon fill="midnightblue" stroke="midnightblue" points="74.5,-545.41 78,-555.41 81.5,-545.41 74.5,-545.41"/>
</g>
<!-- Node48&#45;&gt;Node44 -->
<g id="edge50" class="edge">
<title>Node48&#45;&gt;Node44</title>
<path fill="none" stroke="#9a32cd" stroke-dasharray="5,2" d="M262.36,-415.73C262.22,-411.23 262.09,-406.44 262,-402 261.38,-372.66 261.13,-337.84 261.04,-322.04"/>
<polygon fill="#9a32cd" stroke="#9a32cd" points="258.87,-416.07 262.69,-425.95 265.87,-415.84 258.87,-416.07"/>
<text text-anchor="middle" x="278.5" y="-377.5" font-family="Helvetica,sans-Serif" font-size="10.00"> frame</text>
</g>
<!-- Node48&#45;&gt;Node50 -->
<g id="edge56" class="edge">
<title>Node48&#45;&gt;Node50</title>
<path fill="none" stroke="#9a32cd" stroke-dasharray="5,2" d="M278.95,-418.85C299.04,-399.34 332.66,-367.41 347,-358 370.63,-342.5 400.56,-329.88 421.29,-322.1"/>
<polygon fill="#9a32cd" stroke="#9a32cd" points="276.45,-416.39 271.74,-425.88 281.34,-421.4 276.45,-416.39"/>
<text text-anchor="middle" x="359.5" y="-377.5" font-family="Helvetica,sans-Serif" font-size="10.00"> area</text>
</g>
<!-- Node49&#45;&gt;Node2 -->
<g id="edge59" class="edge">
<title>Node49&#45;&gt;Node2</title>
<path fill="none" stroke="#9a32cd" stroke-dasharray="5,2" d="M173.02,-198.67C191.04,-170.34 226.46,-114.66 243.04,-88.59"/>
<polygon fill="#9a32cd" stroke="#9a32cd" points="170.04,-196.83 167.63,-207.15 175.95,-200.59 170.04,-196.83"/>
<text text-anchor="middle" x="251" y="-152" font-family="Helvetica,sans-Serif" font-size="10.00"> locationTrail</text>
<text text-anchor="middle" x="251" y="-141" font-family="Helvetica,sans-Serif" font-size="10.00">locationLead</text>
<text text-anchor="middle" x="251" y="-130" font-family="Helvetica,sans-Serif" font-size="10.00">locationTmp</text>
</g>
<!-- Node49&#45;&gt;Node3 -->
<g id="edge52" class="edge">
<title>Node49&#45;&gt;Node3</title>
<path fill="none" stroke="#9a32cd" stroke-dasharray="5,2" d="M191.49,-203.61C210.79,-195.73 236.66,-185.63 260,-178 281.78,-170.88 306.05,-164.12 327.37,-158.55"/>
<polygon fill="#9a32cd" stroke="#9a32cd" points="189.95,-200.45 182.04,-207.5 192.62,-206.92 189.95,-200.45"/>
<text text-anchor="middle" x="281.5" y="-181" font-family="Helvetica,sans-Serif" font-size="10.00"> location</text>
</g>
<!-- Node50&#45;&gt;Node3 -->
<g id="edge54" class="edge">
<title>Node50&#45;&gt;Node3</title>
<path fill="none" stroke="#9a32cd" stroke-dasharray="5,2" d="M439.45,-293.56C427.23,-260.11 401.21,-188.88 390.15,-158.6"/>
<polygon fill="#9a32cd" stroke="#9a32cd" points="436.17,-294.8 442.89,-302.99 442.75,-292.39 436.17,-294.8"/>
<text text-anchor="middle" x="462" y="-214.5" font-family="Helvetica,sans-Serif" font-size="10.00"> coordinateHandler</text>
</g>
</g>
</svg>
