<?xml version="1.0" encoding="UTF-8" standalone="no"?>
<!DOCTYPE svg PUBLIC "-//W3C//DTD SVG 1.1//EN"
 "http://www.w3.org/Graphics/SVG/1.1/DTD/svg11.dtd">
<!-- Generated by graphviz version 2.43.0 (0)
 -->
<!-- Title: DistanceTransformLinearOp Pages: 1 -->
<!--zoomable 501 -->
<svg id="main" version="1.1" xmlns="http://www.w3.org/2000/svg" xmlns:xlink="http://www.w3.org/1999/xlink" xml:space="preserve" onload="init(evt)">
<style type="text/css"><![CDATA[
.edge:hover path { stroke: red; }
.edge:hover polygon { stroke: red; fill: red; }
]]></style>
<script type="text/javascript"><![CDATA[
var edges = document.getElementsByTagName('g');
if (edges && edges.length) {
  for (var i=0;i<edges.length;i++) {
    if (edges[i].id.substr(0,4)=='edge') {
      edges[i].setAttribute('class','edge');
    }
  }
}
]]></script>
        <defs>
                <circle id="rim" cx="0" cy="0" r="7"/>
                <circle id="rim2" cx="0" cy="0" r="3.5"/>
                <g id="zoomPlus">
                        <use xlink:href="#rim" fill="#404040">
                                <set attributeName="fill" to="#808080" begin="zoomplus.mouseover" end="zoomplus.mouseout"/>
                        </use>
                        <path d="M-4,0h8M0,-4v8" fill="none" stroke="white" stroke-width="1.5" pointer-events="none"/>
                </g>
                <g id="zoomMin">
                        <use xlink:href="#rim" fill="#404040">
                                <set attributeName="fill" to="#808080" begin="zoomminus.mouseover" end="zoomminus.mouseout"/>
                        </use>
                        <path d="M-4,0h8" fill="none" stroke="white" stroke-width="1.5" pointer-events="none"/>
                </g>
                <g id="dirArrow">
                        <path fill="none" stroke="white" stroke-width="1.5" d="M0,-3.0v7 M-2.5,-0.5L0,-3.0L2.5,-0.5"/>
                </g>
               <g id="resetDef">
                       <use xlink:href="#rim2" fill="#404040">
                               <set attributeName="fill" to="#808080" begin="reset.mouseover" end="reset.mouseout"/>
                       </use>
               </g>
        </defs>

<script type="text/javascript">
var viewWidth = 271;
var viewHeight = 501;
var sectionId = 'dynsection-1';
</script>
<script xlink:href="svgpan.js"/>
<svg id="graph" class="graph">
<g id="viewport">
<title>DistanceTransformLinearOp</title>
<polygon fill="white" stroke="transparent" points="-4,4 -4,-497 266.5,-497 266.5,4 -4,4"/>
<!-- Node1 -->
<g id="node1" class="node">
<title>Node1</title>
<g id="a_node1"><a xlink:title="Computes inverse linear distance to bright points.">
<polygon fill="#bfbfbf" stroke="black" points="45,-0.5 45,-19.5 197,-19.5 197,-0.5 45,-0.5"/>
<text text-anchor="middle" x="121" y="-7.5" font-family="Helvetica,sans-Serif" font-size="10.00">DistanceTransformLinearOp</text>
</a>
</g>
</g>
<!-- Node2 -->
<g id="node2" class="node">
<title>Node2</title>
<g id="a_node2"><a xlink:href="classdrain_1_1image_1_1DistanceTransformOp.html" target="_top" xlink:title=" ">
<polygon fill="white" stroke="black" points="50,-57.5 50,-87.5 192,-87.5 192,-57.5 50,-57.5"/>
<text text-anchor="start" x="58" y="-75.5" font-family="Helvetica,sans-Serif" font-size="10.00">DistanceTransformOp</text>
<text text-anchor="middle" x="121" y="-64.5" font-family="Helvetica,sans-Serif" font-size="10.00">&lt; DistanceModelLinear &gt;</text>
</a>
</g>
</g>
<!-- Node2&#45;&gt;Node1 -->
<g id="edge1" class="edge">
<title>Node2&#45;&gt;Node1</title>
<path fill="none" stroke="midnightblue" d="M121,-47.35C121,-37.51 121,-26.78 121,-19.54"/>
<polygon fill="midnightblue" stroke="midnightblue" points="117.5,-47.47 121,-57.47 124.5,-47.47 117.5,-47.47"/>
</g>
<!-- Node3 -->
<g id="node3" class="node">
<title>Node3</title>
<g id="a_node3"><a xlink:href="classdrain_1_1image_1_1ImageOp.html" target="_top" xlink:title="Base class for image processing functions.">
<polygon fill="white" stroke="black" points="144.5,-135.5 144.5,-154.5 205.5,-154.5 205.5,-135.5 144.5,-135.5"/>
<text text-anchor="middle" x="175" y="-142.5" font-family="Helvetica,sans-Serif" font-size="10.00">ImageOp</text>
</a>
</g>
</g>
<!-- Node3&#45;&gt;Node2 -->
<g id="edge2" class="edge">
<title>Node3&#45;&gt;Node2</title>
<path fill="none" stroke="midnightblue" d="M167,-125.95C163.71,-119.39 159.6,-112.09 155,-106 150.08,-99.48 143.82,-93.1 138.01,-87.73"/>
<polygon fill="midnightblue" stroke="midnightblue" points="164.01,-127.82 171.43,-135.39 170.35,-124.85 164.01,-127.82"/>
</g>
<!-- Node4 -->
<g id="node4" class="node">
<title>Node4</title>
<g id="a_node4"><a xlink:href="classdrain_1_1image_1_1ImageMod.html" target="_top" xlink:title="Class for operations that modify an existing image instead of producing a new image.">
<polygon fill="white" stroke="black" points="141,-192.5 141,-211.5 209,-211.5 209,-192.5 141,-192.5"/>
<text text-anchor="middle" x="175" y="-199.5" font-family="Helvetica,sans-Serif" font-size="10.00">ImageMod</text>
</a>
</g>
</g>
<!-- Node4&#45;&gt;Node3 -->
<g id="edge3" class="edge">
<title>Node4&#45;&gt;Node3</title>
<path fill="none" stroke="midnightblue" d="M175,-182.12C175,-172.82 175,-162.06 175,-154.71"/>
<polygon fill="midnightblue" stroke="midnightblue" points="171.5,-182.41 175,-192.41 178.5,-182.41 171.5,-182.41"/>
</g>
<!-- Node5 -->
<g id="node5" class="node">
<title>Node5</title>
<g id="a_node5"><a xlink:href="classdrain_1_1BeanLike.html" target="_top" xlink:title="Something which has a name, a description and possibly some parameters of varying type.">
<polygon fill="white" stroke="black" points="144.5,-292.5 144.5,-311.5 205.5,-311.5 205.5,-292.5 144.5,-292.5"/>
<text text-anchor="middle" x="175" y="-299.5" font-family="Helvetica,sans-Serif" font-size="10.00">BeanLike</text>
</a>
</g>
</g>
<!-- Node5&#45;&gt;Node4 -->
<g id="edge4" class="edge">
<title>Node5&#45;&gt;Node4</title>
<path fill="none" stroke="midnightblue" d="M175,-282.22C175,-260.95 175,-227.22 175,-211.54"/>
<polygon fill="midnightblue" stroke="midnightblue" points="171.5,-282.3 175,-292.3 178.5,-282.3 171.5,-282.3"/>
</g>
<!-- Node10 -->
<g id="node10" class="node">
<title>Node10</title>
<g id="a_node10"><a xlink:href="classdrain_1_1image_1_1DistanceModel.html" target="_top" xlink:title="Base class for linear and exponential distances in rectangular pixel images.">
<polygon fill="white" stroke="black" points="22.5,-192.5 22.5,-211.5 111.5,-211.5 111.5,-192.5 22.5,-192.5"/>
<text text-anchor="middle" x="67" y="-199.5" font-family="Helvetica,sans-Serif" font-size="10.00">DistanceModel</text>
</a>
</g>
</g>
<!-- Node5&#45;&gt;Node10 -->
<g id="edge10" class="edge">
<title>Node5&#45;&gt;Node10</title>
<path fill="none" stroke="midnightblue" d="M166.03,-283.33C157.33,-267.63 142.84,-244.92 125,-230 115.54,-222.09 103.38,-215.96 92.64,-211.56"/>
<polygon fill="midnightblue" stroke="midnightblue" points="163.11,-285.29 170.89,-292.48 169.29,-282.01 163.11,-285.29"/>
</g>
<!-- Node6 -->
<g id="node6" class="node">
<title>Node6</title>
<g id="a_node6"><a xlink:href="classdrain_1_1ReferenceMap.html" target="_top" xlink:title=" ">
<polygon fill="white" stroke="black" points="134.5,-359.5 134.5,-378.5 221.5,-378.5 221.5,-359.5 134.5,-359.5"/>
<text text-anchor="middle" x="178" y="-366.5" font-family="Helvetica,sans-Serif" font-size="10.00">ReferenceMap</text>
</a>
</g>
</g>
<!-- Node6&#45;&gt;Node5 -->
<g id="edge5" class="edge">
<title>Node6&#45;&gt;Node5</title>
<path fill="none" stroke="#9a32cd" stroke-dasharray="5,2" d="M177.12,-349.04C176.55,-336.67 175.84,-321.12 175.4,-311.63"/>
<polygon fill="#9a32cd" stroke="#9a32cd" points="173.64,-349.41 177.6,-359.23 180.63,-349.08 173.64,-349.41"/>
<text text-anchor="middle" x="206" y="-333" font-family="Helvetica,sans-Serif" font-size="10.00"> parameters</text>
</g>
<!-- Node7 -->
<g id="node7" class="node">
<title>Node7</title>
<g id="a_node7"><a xlink:href="classdrain_1_1SmartMap.html" target="_top" xlink:title=" ">
<polygon fill="white" stroke="black" points="106.5,-416.5 106.5,-435.5 249.5,-435.5 249.5,-416.5 106.5,-416.5"/>
<text text-anchor="middle" x="178" y="-423.5" font-family="Helvetica,sans-Serif" font-size="10.00">SmartMap&lt; Referencer &gt;</text>
</a>
</g>
</g>
<!-- Node7&#45;&gt;Node6 -->
<g id="edge6" class="edge">
<title>Node7&#45;&gt;Node6</title>
<path fill="none" stroke="midnightblue" d="M178,-406.12C178,-396.82 178,-386.06 178,-378.71"/>
<polygon fill="midnightblue" stroke="midnightblue" points="174.5,-406.41 178,-416.41 181.5,-406.41 174.5,-406.41"/>
</g>
<!-- Node8 -->
<g id="node8" class="node">
<title>Node8</title>
<g id="a_node8"><a xlink:title=" ">
<polygon fill="white" stroke="#bfbfbf" points="93.5,-473.5 93.5,-492.5 262.5,-492.5 262.5,-473.5 93.5,-473.5"/>
<text text-anchor="middle" x="178" y="-480.5" font-family="Helvetica,sans-Serif" font-size="10.00">map&lt; std::string, Referencer &gt;</text>
</a>
</g>
</g>
<!-- Node8&#45;&gt;Node7 -->
<g id="edge7" class="edge">
<title>Node8&#45;&gt;Node7</title>
<path fill="none" stroke="midnightblue" d="M178,-463.12C178,-453.82 178,-443.06 178,-435.71"/>
<polygon fill="midnightblue" stroke="midnightblue" points="174.5,-463.41 178,-473.41 181.5,-463.41 174.5,-463.41"/>
</g>
<!-- Node9 -->
<g id="node9" class="node">
<title>Node9</title>
<g id="a_node9"><a xlink:href="classdrain_1_1image_1_1DistanceModelLinear.html" target="_top" xlink:title=" ">
<polygon fill="white" stroke="black" points="7.5,-135.5 7.5,-154.5 126.5,-154.5 126.5,-135.5 7.5,-135.5"/>
<text text-anchor="middle" x="67" y="-142.5" font-family="Helvetica,sans-Serif" font-size="10.00">DistanceModelLinear</text>
</a>
</g>
</g>
<!-- Node9&#45;&gt;Node2 -->
<g id="edge8" class="edge">
<title>Node9&#45;&gt;Node2</title>
<path fill="none" stroke="#9a32cd" stroke-dasharray="5,2" d="M68.71,-125.38C69.98,-118.84 72.19,-111.71 76,-106 80.82,-98.79 87.81,-92.63 94.85,-87.68"/>
<polygon fill="#9a32cd" stroke="#9a32cd" points="65.22,-125.09 67.33,-135.47 72.15,-126.04 65.22,-125.09"/>
<text text-anchor="middle" x="113.5" y="-109" font-family="Helvetica,sans-Serif" font-size="10.00"> distanceModel</text>
</g>
<!-- Node10&#45;&gt;Node9 -->
<g id="edge9" class="edge">
<title>Node10&#45;&gt;Node9</title>
<path fill="none" stroke="midnightblue" d="M67,-182.12C67,-172.82 67,-162.06 67,-154.71"/>
<polygon fill="midnightblue" stroke="midnightblue" points="63.5,-182.41 67,-192.41 70.5,-182.41 63.5,-182.41"/>
</g>
<!-- Node11 -->
<g id="node11" class="node">
<title>Node11</title>
<g id="a_node11"><a xlink:href="classdrain_1_1Bidirectional.html" target="_top" xlink:title=" ">
<polygon fill="white" stroke="black" points="1.5,-292.5 1.5,-311.5 124.5,-311.5 124.5,-292.5 1.5,-292.5"/>
<text text-anchor="middle" x="63" y="-299.5" font-family="Helvetica,sans-Serif" font-size="10.00">Bidirectional&lt; float &gt;</text>
</a>
</g>
</g>
<!-- Node11&#45;&gt;Node10 -->
<g id="edge11" class="edge">
<title>Node11&#45;&gt;Node10</title>
<path fill="none" stroke="#9a32cd" stroke-dasharray="5,2" d="M63.77,-282.22C64.63,-260.95 66.01,-227.22 66.65,-211.54"/>
<polygon fill="#9a32cd" stroke="#9a32cd" points="60.27,-282.17 63.35,-292.3 67.26,-282.45 60.27,-282.17"/>
<text text-anchor="middle" x="93.5" y="-266" font-family="Helvetica,sans-Serif" font-size="10.00"> vertDec</text>
<text text-anchor="middle" x="93.5" y="-255" font-family="Helvetica,sans-Serif" font-size="10.00">horzDec</text>
<text text-anchor="middle" x="93.5" y="-244" font-family="Helvetica,sans-Serif" font-size="10.00">vertRadius</text>
<text text-anchor="middle" x="93.5" y="-233" font-family="Helvetica,sans-Serif" font-size="10.00">horzRadius</text>
</g>
<!-- Node12 -->
<g id="node12" class="node">
<title>Node12</title>
<g id="a_node12"><a xlink:href="classdrain_1_1UniTuple.html" target="_top" xlink:title=" ">
<polygon fill="white" stroke="black" points="0,-359.5 0,-378.5 116,-378.5 116,-359.5 0,-359.5"/>
<text text-anchor="middle" x="58" y="-366.5" font-family="Helvetica,sans-Serif" font-size="10.00">UniTuple&lt; float, 2 &gt;</text>
</a>
</g>
</g>
<!-- Node12&#45;&gt;Node11 -->
<g id="edge12" class="edge">
<title>Node12&#45;&gt;Node11</title>
<path fill="none" stroke="midnightblue" d="M59.46,-349.04C60.41,-336.67 61.61,-321.12 62.34,-311.63"/>
<polygon fill="midnightblue" stroke="midnightblue" points="55.95,-348.99 58.67,-359.23 62.93,-349.53 55.95,-348.99"/>
</g>
</g>
</svg>
        <g id="navigator" transform="translate(0 0)" fill="#404254">
                <rect fill="#f2f5e9" fill-opacity="0.5" stroke="#606060" stroke-width=".5" x="0" y="0" width="60" height="60"/>
                <use id="zoomplus" xlink:href="#zoomPlus" x="17" y="9" onmousedown="handleZoom(evt,'in')"/>
                <use id="zoomminus" xlink:href="#zoomMin" x="42" y="9" onmousedown="handleZoom(evt,'out')"/>
                <use id="reset" xlink:href="#resetDef" x="30" y="36" onmousedown="handleReset()"/>
                <g id="arrowUp" xlink:href="#dirArrow" transform="translate(30 24)" onmousedown="handlePan(0,-1)">
                  <use xlink:href="#rim" fill="#404040">
                        <set attributeName="fill" to="#808080" begin="arrowUp.mouseover" end="arrowUp.mouseout"/>
                  </use>
                  <path fill="none" stroke="white" stroke-width="1.5" d="M0,-3.0v7 M-2.5,-0.5L0,-3.0L2.5,-0.5"/>
                </g>
                <g id="arrowRight" xlink:href="#dirArrow" transform="rotate(90) translate(36 -43)" onmousedown="handlePan(1,0)">
                  <use xlink:href="#rim" fill="#404040">
                        <set attributeName="fill" to="#808080" begin="arrowRight.mouseover" end="arrowRight.mouseout"/>
                  </use>
                  <path fill="none" stroke="white" stroke-width="1.5" d="M0,-3.0v7 M-2.5,-0.5L0,-3.0L2.5,-0.5"/>
                </g>
                <g id="arrowDown" xlink:href="#dirArrow" transform="rotate(180) translate(-30 -48)" onmousedown="handlePan(0,1)">
                  <use xlink:href="#rim" fill="#404040">
                        <set attributeName="fill" to="#808080" begin="arrowDown.mouseover" end="arrowDown.mouseout"/>
                  </use>
                  <path fill="none" stroke="white" stroke-width="1.5" d="M0,-3.0v7 M-2.5,-0.5L0,-3.0L2.5,-0.5"/>
                </g>
                <g id="arrowLeft" xlink:href="#dirArrow" transform="rotate(270) translate(-36 17)" onmousedown="handlePan(-1,0)">
                  <use xlink:href="#rim" fill="#404040">
                        <set attributeName="fill" to="#808080" begin="arrowLeft.mouseover" end="arrowLeft.mouseout"/>
                  </use>
                  <path fill="none" stroke="white" stroke-width="1.5" d="M0,-3.0v7 M-2.5,-0.5L0,-3.0L2.5,-0.5"/>
                </g>
        </g>
        <svg viewBox="0 0 15 15" width="100%" height="30px" preserveAspectRatio="xMaxYMin meet">
         <g id="arrow_out" transform="scale(0.3 0.3)">
          <a xlink:href="classdrain_1_1image_1_1DistanceTransformLinearOp__coll__graph_org.svg" target="_base">
           <rect id="button" ry="5" rx="5" y="6" x="6" height="38" width="38"
                fill="#f2f5e9" fill-opacity="0.5" stroke="#606060" stroke-width="1.0"/>
           <path id="arrow"
             d="M 11.500037,31.436501 C 11.940474,20.09759 22.043105,11.32322 32.158766,21.979434 L 37.068811,17.246167 C 37.068811,17.246167 37.088388,32 37.088388,32 L 22.160133,31.978069 C 22.160133,31.978069 26.997745,27.140456 26.997745,27.140456 C 18.528582,18.264221 13.291696,25.230495 11.500037,31.436501 z"
             style="fill:#404040;"/>
          </a>
         </g>
        </svg>
</svg>
