<?xml version="1.0" encoding="UTF-8" standalone="no"?>
<!DOCTYPE svg PUBLIC "-//W3C//DTD SVG 1.1//EN"
 "http://www.w3.org/Graphics/SVG/1.1/DTD/svg11.dtd">
<!-- Generated by graphviz version 2.43.0 (0)
 -->
<!-- Title: AccumulationArray Pages: 1 -->
<svg width="290pt" height="296pt"
 viewBox="0.00 0.00 290.00 296.00" xmlns="http://www.w3.org/2000/svg" xmlns:xlink="http://www.w3.org/1999/xlink">
<g id="graph0" class="graph" transform="scale(1 1) rotate(0) translate(4 292)">
<title>AccumulationArray</title>
<polygon fill="white" stroke="transparent" points="-4,4 -4,-292 286,-292 286,4 -4,4"/>
<!-- Node1 -->
<g id="node1" class="node">
<title>Node1</title>
<g id="a_node1"><a xlink:title="General&#45;purpose image compositing.">
<polygon fill="#bfbfbf" stroke="black" points="85.5,-268.5 85.5,-287.5 195.5,-287.5 195.5,-268.5 85.5,-268.5"/>
<text text-anchor="middle" x="140.5" y="-275.5" font-family="Helvetica,sans-Serif" font-size="10.00">AccumulationArray</text>
</a>
</g>
</g>
<!-- Node2 -->
<g id="node2" class="node">
<title>Node2</title>
<g id="a_node2"><a xlink:href="classdrain_1_1image_1_1Accumulator.html" target="_top" xlink:title=" ">
<polygon fill="white" stroke="black" points="101.5,-212.5 101.5,-231.5 179.5,-231.5 179.5,-212.5 101.5,-212.5"/>
<text text-anchor="middle" x="140.5" y="-219.5" font-family="Helvetica,sans-Serif" font-size="10.00">Accumulator</text>
</a>
</g>
</g>
<!-- Node1&#45;&gt;Node2 -->
<g id="edge1" class="edge">
<title>Node1&#45;&gt;Node2</title>
<path fill="none" stroke="midnightblue" d="M140.5,-257.8C140.5,-248.91 140.5,-238.78 140.5,-231.75"/>
<polygon fill="midnightblue" stroke="midnightblue" points="137,-258.08 140.5,-268.08 144,-258.08 137,-258.08"/>
</g>
<!-- Node3 -->
<g id="node3" class="node">
<title>Node3</title>
<g id="a_node3"><a xlink:href="classdrain_1_1image_1_1AccumulatorGeo.html" target="_top" xlink:title=" ">
<polygon fill="white" stroke="black" points="22.5,-145.5 22.5,-164.5 120.5,-164.5 120.5,-145.5 22.5,-145.5"/>
<text text-anchor="middle" x="71.5" y="-152.5" font-family="Helvetica,sans-Serif" font-size="10.00">AccumulatorGeo</text>
</a>
</g>
</g>
<!-- Node2&#45;&gt;Node3 -->
<g id="edge2" class="edge">
<title>Node2&#45;&gt;Node3</title>
<path fill="none" stroke="midnightblue" d="M123.89,-205.36C110.33,-192.58 91.66,-174.99 80.66,-164.63"/>
<polygon fill="midnightblue" stroke="midnightblue" points="121.52,-207.92 131.19,-212.23 126.32,-202.83 121.52,-207.92"/>
</g>
<!-- Node6 -->
<g id="node6" class="node">
<title>Node6</title>
<g id="a_node6"><a xlink:href="classrack_1_1RadarAccumulator.html" target="_top" xlink:title=" ">
<polygon fill="white" stroke="black" points="139,-134.5 139,-175.5 282,-175.5 282,-134.5 139,-134.5"/>
<text text-anchor="start" x="147" y="-163.5" font-family="Helvetica,sans-Serif" font-size="10.00">RadarAccumulator&lt; drain</text>
<text text-anchor="start" x="147" y="-152.5" font-family="Helvetica,sans-Serif" font-size="10.00">::image::Accumulator,</text>
<text text-anchor="middle" x="210.5" y="-141.5" font-family="Helvetica,sans-Serif" font-size="10.00"> rack::PolarODIM &gt;</text>
</a>
</g>
</g>
<!-- Node2&#45;&gt;Node6 -->
<g id="edge5" class="edge">
<title>Node2&#45;&gt;Node6</title>
<path fill="none" stroke="midnightblue" d="M157.35,-205.36C166.99,-196.4 179.18,-185.08 189.45,-175.54"/>
<polygon fill="midnightblue" stroke="midnightblue" points="154.89,-202.86 149.94,-212.23 159.65,-207.99 154.89,-202.86"/>
</g>
<!-- Node4 -->
<g id="node4" class="node">
<title>Node4</title>
<g id="a_node4"><a xlink:href="classrack_1_1RadarAccumulator.html" target="_top" xlink:title=" ">
<polygon fill="white" stroke="black" points="0,-56.5 0,-97.5 143,-97.5 143,-56.5 0,-56.5"/>
<text text-anchor="start" x="8" y="-85.5" font-family="Helvetica,sans-Serif" font-size="10.00">RadarAccumulator&lt; drain</text>
<text text-anchor="start" x="8" y="-74.5" font-family="Helvetica,sans-Serif" font-size="10.00">::image::AccumulatorGeo,</text>
<text text-anchor="middle" x="71.5" y="-63.5" font-family="Helvetica,sans-Serif" font-size="10.00"> CartesianODIM &gt;</text>
</a>
</g>
</g>
<!-- Node3&#45;&gt;Node4 -->
<g id="edge3" class="edge">
<title>Node3&#45;&gt;Node4</title>
<path fill="none" stroke="midnightblue" d="M71.5,-135.14C71.5,-123.73 71.5,-109.21 71.5,-97.66"/>
<polygon fill="midnightblue" stroke="midnightblue" points="68,-135.28 71.5,-145.28 75,-135.28 68,-135.28"/>
</g>
<!-- Node5 -->
<g id="node5" class="node">
<title>Node5</title>
<g id="a_node5"><a xlink:href="classrack_1_1Composite.html" target="_top" xlink:title="Cartesian composite (mosaic) of data from several radars.">
<polygon fill="white" stroke="black" points="37,-0.5 37,-19.5 106,-19.5 106,-0.5 37,-0.5"/>
<text text-anchor="middle" x="71.5" y="-7.5" font-family="Helvetica,sans-Serif" font-size="10.00">Composite</text>
</a>
</g>
</g>
<!-- Node4&#45;&gt;Node5 -->
<g id="edge4" class="edge">
<title>Node4&#45;&gt;Node5</title>
<path fill="none" stroke="midnightblue" d="M71.5,-46.26C71.5,-36.56 71.5,-26.52 71.5,-19.65"/>
<polygon fill="midnightblue" stroke="midnightblue" points="68,-46.5 71.5,-56.5 75,-46.5 68,-46.5"/>
</g>
</g>
</svg>
