<?xml version="1.0" encoding="UTF-8" standalone="no"?>
<!DOCTYPE svg PUBLIC "-//W3C//DTD SVG 1.1//EN"
 "http://www.w3.org/Graphics/SVG/1.1/DTD/svg11.dtd">
<!-- Generated by graphviz version 2.43.0 (0)
 -->
<!-- Title: ModifiableImage Pages: 1 -->
<svg width="438pt" height="252pt"
 viewBox="0.00 0.00 437.50 252.00" xmlns="http://www.w3.org/2000/svg" xmlns:xlink="http://www.w3.org/1999/xlink">
<g id="graph0" class="graph" transform="scale(1 1) rotate(0) translate(4 248)">
<title>ModifiableImage</title>
<polygon fill="white" stroke="transparent" points="-4,4 -4,-248 433.5,-248 433.5,4 -4,4"/>
<!-- Node1 -->
<g id="node1" class="node">
<title>Node1</title>
<g id="a_node1"><a xlink:title="Image with modifiable geometry.">
<polygon fill="#bfbfbf" stroke="black" points="114,-56.5 114,-75.5 213,-75.5 213,-56.5 114,-56.5"/>
<text text-anchor="middle" x="163.5" y="-63.5" font-family="Helvetica,sans-Serif" font-size="10.00">ModifiableImage</text>
</a>
</g>
</g>
<!-- Node5 -->
<g id="node5" class="node">
<title>Node5</title>
<g id="a_node5"><a xlink:href="classdrain_1_1image_1_1Image.html" target="_top" xlink:title="Class for multi&#45;channel digital images. Supports dynamic typing with base types (char,...">
<polygon fill="white" stroke="black" points="0,-0.5 0,-19.5 47,-19.5 47,-0.5 0,-0.5"/>
<text text-anchor="middle" x="23.5" y="-7.5" font-family="Helvetica,sans-Serif" font-size="10.00">Image</text>
</a>
</g>
</g>
<!-- Node1&#45;&gt;Node5 -->
<g id="edge4" class="edge">
<title>Node1&#45;&gt;Node5</title>
<path fill="none" stroke="midnightblue" d="M131.8,-52.77C105.5,-42.63 68.78,-28.47 45.58,-19.52"/>
<polygon fill="midnightblue" stroke="midnightblue" points="130.73,-56.11 141.32,-56.44 133.25,-49.58 130.73,-56.11"/>
</g>
<!-- Node6 -->
<g id="node6" class="node">
<title>Node6</title>
<g id="a_node6"><a xlink:href="classdrain_1_1image_1_1ImageT.html" target="_top" xlink:title="A template class for images with static storage type.">
<polygon fill="white" stroke="black" points="65.5,-0.5 65.5,-19.5 147.5,-19.5 147.5,-0.5 65.5,-0.5"/>
<text text-anchor="middle" x="106.5" y="-7.5" font-family="Helvetica,sans-Serif" font-size="10.00">ImageT&lt; T &gt;</text>
</a>
</g>
</g>
<!-- Node1&#45;&gt;Node6 -->
<g id="edge5" class="edge">
<title>Node1&#45;&gt;Node6</title>
<path fill="none" stroke="midnightblue" d="M146.88,-49.25C136.77,-39.67 124.22,-27.79 115.82,-19.83"/>
<polygon fill="midnightblue" stroke="midnightblue" points="144.68,-51.99 154.34,-56.32 149.49,-46.91 144.68,-51.99"/>
</g>
<!-- Node7 -->
<g id="node7" class="node">
<title>Node7</title>
<g id="a_node7"><a xlink:href="classdrain_1_1image_1_1ImageT.html" target="_top" xlink:title=" ">
<polygon fill="white" stroke="black" points="166,-0.5 166,-19.5 275,-19.5 275,-0.5 166,-0.5"/>
<text text-anchor="middle" x="220.5" y="-7.5" font-family="Helvetica,sans-Serif" font-size="10.00">ImageT&lt; double &gt;</text>
</a>
</g>
</g>
<!-- Node1&#45;&gt;Node7 -->
<g id="edge6" class="edge">
<title>Node1&#45;&gt;Node7</title>
<path fill="none" stroke="midnightblue" d="M180.12,-49.25C190.23,-39.67 202.78,-27.79 211.18,-19.83"/>
<polygon fill="midnightblue" stroke="midnightblue" points="177.51,-46.91 172.66,-56.32 182.32,-51.99 177.51,-46.91"/>
</g>
<!-- Node8 -->
<g id="node8" class="node">
<title>Node8</title>
<g id="a_node8"><a xlink:href="classdrain_1_1image_1_1ImageT.html" target="_top" xlink:title=" ">
<polygon fill="white" stroke="black" points="293.5,-0.5 293.5,-19.5 429.5,-19.5 429.5,-0.5 293.5,-0.5"/>
<text text-anchor="middle" x="361.5" y="-7.5" font-family="Helvetica,sans-Serif" font-size="10.00">ImageT&lt; unsigned int &gt;</text>
</a>
</g>
</g>
<!-- Node1&#45;&gt;Node8 -->
<g id="edge7" class="edge">
<title>Node1&#45;&gt;Node8</title>
<path fill="none" stroke="midnightblue" d="M204.94,-53.7C242.31,-43.51 296.44,-28.74 330.27,-19.52"/>
<polygon fill="midnightblue" stroke="midnightblue" points="203.6,-50.44 194.87,-56.44 205.44,-57.19 203.6,-50.44"/>
</g>
<!-- Node2 -->
<g id="node2" class="node">
<title>Node2</title>
<g id="a_node2"><a xlink:href="classdrain_1_1image_1_1MultiChannel.html" target="_top" xlink:title="Multi&#45;channel ImageFrame.">
<polygon fill="white" stroke="black" points="123,-112.5 123,-131.5 204,-131.5 204,-112.5 123,-112.5"/>
<text text-anchor="middle" x="163.5" y="-119.5" font-family="Helvetica,sans-Serif" font-size="10.00">MultiChannel</text>
</a>
</g>
</g>
<!-- Node2&#45;&gt;Node1 -->
<g id="edge1" class="edge">
<title>Node2&#45;&gt;Node1</title>
<path fill="none" stroke="midnightblue" d="M163.5,-101.8C163.5,-92.91 163.5,-82.78 163.5,-75.75"/>
<polygon fill="midnightblue" stroke="midnightblue" points="160,-102.08 163.5,-112.08 167,-102.08 160,-102.08"/>
</g>
<!-- Node3 -->
<g id="node3" class="node">
<title>Node3</title>
<g id="a_node3"><a xlink:href="classdrain_1_1image_1_1ImageFrame.html" target="_top" xlink:title="Image with static geometry.">
<polygon fill="white" stroke="black" points="124.5,-168.5 124.5,-187.5 202.5,-187.5 202.5,-168.5 124.5,-168.5"/>
<text text-anchor="middle" x="163.5" y="-175.5" font-family="Helvetica,sans-Serif" font-size="10.00">ImageFrame</text>
</a>
</g>
</g>
<!-- Node3&#45;&gt;Node2 -->
<g id="edge2" class="edge">
<title>Node3&#45;&gt;Node2</title>
<path fill="none" stroke="midnightblue" d="M163.5,-157.8C163.5,-148.91 163.5,-138.78 163.5,-131.75"/>
<polygon fill="midnightblue" stroke="midnightblue" points="160,-158.08 163.5,-168.08 167,-158.08 160,-158.08"/>
</g>
<!-- Node4 -->
<g id="node4" class="node">
<title>Node4</title>
<g id="a_node4"><a xlink:href="classdrain_1_1image_1_1ImageLike.html" target="_top" xlink:title="A base class for images.">
<polygon fill="white" stroke="black" points="130,-224.5 130,-243.5 197,-243.5 197,-224.5 130,-224.5"/>
<text text-anchor="middle" x="163.5" y="-231.5" font-family="Helvetica,sans-Serif" font-size="10.00">ImageLike</text>
</a>
</g>
</g>
<!-- Node4&#45;&gt;Node3 -->
<g id="edge3" class="edge">
<title>Node4&#45;&gt;Node3</title>
<path fill="none" stroke="midnightblue" d="M163.5,-213.8C163.5,-204.91 163.5,-194.78 163.5,-187.75"/>
<polygon fill="midnightblue" stroke="midnightblue" points="160,-214.08 163.5,-224.08 167,-214.08 160,-214.08"/>
</g>
</g>
</svg>
