<?xml version="1.0" encoding="UTF-8" standalone="no"?>
<!DOCTYPE svg PUBLIC "-//W3C//DTD SVG 1.1//EN"
 "http://www.w3.org/Graphics/SVG/1.1/DTD/svg11.dtd">
<!-- Generated by graphviz version 2.43.0 (0)
 -->
<!-- Title: Encoding Pages: 1 -->
<svg width="267pt" height="219pt"
 viewBox="0.00 0.00 267.00 219.00" xmlns="http://www.w3.org/2000/svg" xmlns:xlink="http://www.w3.org/1999/xlink">
<g id="graph0" class="graph" transform="scale(1 1) rotate(0) translate(4 215)">
<title>Encoding</title>
<polygon fill="white" stroke="transparent" points="-4,4 -4,-215 263,-215 263,4 -4,4"/>
<!-- Node1 -->
<g id="node1" class="node">
<title>Node1</title>
<g id="a_node1"><a xlink:title=" ">
<polygon fill="#bfbfbf" stroke="black" points="89.5,-0.5 89.5,-19.5 150.5,-19.5 150.5,-0.5 89.5,-0.5"/>
<text text-anchor="middle" x="120" y="-7.5" font-family="Helvetica,sans-Serif" font-size="10.00">Encoding</text>
</a>
</g>
</g>
<!-- Node2 -->
<g id="node2" class="node">
<title>Node2</title>
<g id="a_node2"><a xlink:href="classdrain_1_1ValueScaling.html" target="_top" xlink:title="Linear scaling and physical range for image intensities.">
<polygon fill="white" stroke="black" points="39,-67.5 39,-86.5 119,-86.5 119,-67.5 39,-67.5"/>
<text text-anchor="middle" x="79" y="-74.5" font-family="Helvetica,sans-Serif" font-size="10.00">ValueScaling</text>
</a>
</g>
</g>
<!-- Node2&#45;&gt;Node1 -->
<g id="edge1" class="edge">
<title>Node2&#45;&gt;Node1</title>
<path fill="none" stroke="midnightblue" d="M90.02,-58.53C97.95,-45.95 108.33,-29.51 114.56,-19.63"/>
<polygon fill="midnightblue" stroke="midnightblue" points="86.9,-56.91 84.53,-67.23 92.82,-60.64 86.9,-56.91"/>
</g>
<!-- Node3 -->
<g id="node3" class="node">
<title>Node3</title>
<g id="a_node3"><a xlink:href="classdrain_1_1UniTuple.html" target="_top" xlink:title=" ">
<polygon fill="white" stroke="black" points="0,-134.5 0,-153.5 126,-153.5 126,-134.5 0,-134.5"/>
<text text-anchor="middle" x="63" y="-141.5" font-family="Helvetica,sans-Serif" font-size="10.00">UniTuple&lt; double, 4 &gt;</text>
</a>
</g>
</g>
<!-- Node3&#45;&gt;Node2 -->
<g id="edge2" class="edge">
<title>Node3&#45;&gt;Node2</title>
<path fill="none" stroke="midnightblue" d="M67.57,-124.41C70.63,-111.99 74.52,-96.22 76.88,-86.63"/>
<polygon fill="midnightblue" stroke="midnightblue" points="64.15,-123.69 65.16,-134.23 70.95,-125.36 64.15,-123.69"/>
</g>
<!-- Node4 -->
<g id="node4" class="node">
<title>Node4</title>
<g id="a_node4"><a xlink:href="classdrain_1_1Range.html" target="_top" xlink:title=" ">
<polygon fill="white" stroke="black" points="144.5,-134.5 144.5,-153.5 247.5,-153.5 247.5,-134.5 144.5,-134.5"/>
<text text-anchor="middle" x="196" y="-141.5" font-family="Helvetica,sans-Serif" font-size="10.00">Range&lt; double &gt;</text>
</a>
</g>
</g>
<!-- Node4&#45;&gt;Node2 -->
<g id="edge3" class="edge">
<title>Node4&#45;&gt;Node2</title>
<path fill="none" stroke="#9a32cd" stroke-dasharray="5,2" d="M171.32,-129.29C148.13,-116.4 114.14,-97.52 94.53,-86.63"/>
<polygon fill="#9a32cd" stroke="#9a32cd" points="169.78,-132.44 180.22,-134.23 173.18,-126.32 169.78,-132.44"/>
<text text-anchor="middle" x="173" y="-108" font-family="Helvetica,sans-Serif" font-size="10.00"> physRange</text>
</g>
<!-- Node5 -->
<g id="node5" class="node">
<title>Node5</title>
<g id="a_node5"><a xlink:href="classdrain_1_1UniTuple.html" target="_top" xlink:title=" ">
<polygon fill="white" stroke="black" points="133,-191.5 133,-210.5 259,-210.5 259,-191.5 133,-191.5"/>
<text text-anchor="middle" x="196" y="-198.5" font-family="Helvetica,sans-Serif" font-size="10.00">UniTuple&lt; double, 2 &gt;</text>
</a>
</g>
</g>
<!-- Node5&#45;&gt;Node4 -->
<g id="edge4" class="edge">
<title>Node5&#45;&gt;Node4</title>
<path fill="none" stroke="midnightblue" d="M196,-181.12C196,-171.82 196,-161.06 196,-153.71"/>
<polygon fill="midnightblue" stroke="midnightblue" points="192.5,-181.41 196,-191.41 199.5,-181.41 192.5,-181.41"/>
</g>
<!-- Node6 -->
<g id="node6" class="node">
<title>Node6</title>
<g id="a_node6"><a xlink:href="classdrain_1_1Caster.html" target="_top" xlink:title=" ">
<polygon fill="white" stroke="black" points="137,-67.5 137,-86.5 185,-86.5 185,-67.5 137,-67.5"/>
<text text-anchor="middle" x="161" y="-74.5" font-family="Helvetica,sans-Serif" font-size="10.00">Caster</text>
</a>
</g>
</g>
<!-- Node6&#45;&gt;Node1 -->
<g id="edge5" class="edge">
<title>Node6&#45;&gt;Node1</title>
<path fill="none" stroke="#9a32cd" stroke-dasharray="5,2" d="M149.98,-58.53C142.05,-45.95 131.67,-29.51 125.44,-19.63"/>
<polygon fill="#9a32cd" stroke="#9a32cd" points="147.18,-60.64 155.47,-67.23 153.1,-56.91 147.18,-60.64"/>
<text text-anchor="middle" x="159" y="-41" font-family="Helvetica,sans-Serif" font-size="10.00"> caster</text>
</g>
</g>
</svg>
