<?xml version="1.0" encoding="UTF-8" standalone="no"?>
<!DOCTYPE svg PUBLIC "-//W3C//DTD SVG 1.1//EN"
 "http://www.w3.org/Graphics/SVG/1.1/DTD/svg11.dtd">
<!-- Generated by graphviz version 2.43.0 (0)
 -->
<!-- Title: MinimumFunctor Pages: 1 -->
<svg width="107pt" height="196pt"
 viewBox="0.00 0.00 107.00 196.00" xmlns="http://www.w3.org/2000/svg" xmlns:xlink="http://www.w3.org/1999/xlink">
<g id="graph0" class="graph" transform="scale(1 1) rotate(0) translate(4 192)">
<title>MinimumFunctor</title>
<polygon fill="white" stroke="transparent" points="-4,4 -4,-192 103,-192 103,4 -4,4"/>
<!-- Node1 -->
<g id="node1" class="node">
<title>Node1</title>
<g id="a_node1"><a xlink:title="Minimum intensity. Prescaled input.">
<polygon fill="#bfbfbf" stroke="black" points="0,-0.5 0,-19.5 99,-19.5 99,-0.5 0,-0.5"/>
<text text-anchor="middle" x="49.5" y="-7.5" font-family="Helvetica,sans-Serif" font-size="10.00">MinimumFunctor</text>
</a>
</g>
</g>
<!-- Node2 -->
<g id="node2" class="node">
<title>Node2</title>
<g id="a_node2"><a xlink:href="classdrain_1_1BinaryFunctor.html" target="_top" xlink:title=" ">
<polygon fill="white" stroke="black" points="7.5,-56.5 7.5,-75.5 91.5,-75.5 91.5,-56.5 7.5,-56.5"/>
<text text-anchor="middle" x="49.5" y="-63.5" font-family="Helvetica,sans-Serif" font-size="10.00">BinaryFunctor</text>
</a>
</g>
</g>
<!-- Node2&#45;&gt;Node1 -->
<g id="edge1" class="edge">
<title>Node2&#45;&gt;Node1</title>
<path fill="none" stroke="midnightblue" d="M49.5,-45.8C49.5,-36.91 49.5,-26.78 49.5,-19.75"/>
<polygon fill="midnightblue" stroke="midnightblue" points="46,-46.08 49.5,-56.08 53,-46.08 46,-46.08"/>
</g>
<!-- Node3 -->
<g id="node3" class="node">
<title>Node3</title>
<g id="a_node3"><a xlink:href="classdrain_1_1Functor.html" target="_top" xlink:title="Base class for sequential computations. Optional scaling utilities.">
<polygon fill="white" stroke="black" points="23,-112.5 23,-131.5 76,-131.5 76,-112.5 23,-112.5"/>
<text text-anchor="middle" x="49.5" y="-119.5" font-family="Helvetica,sans-Serif" font-size="10.00">Functor</text>
</a>
</g>
</g>
<!-- Node3&#45;&gt;Node2 -->
<g id="edge2" class="edge">
<title>Node3&#45;&gt;Node2</title>
<path fill="none" stroke="midnightblue" d="M49.5,-101.8C49.5,-92.91 49.5,-82.78 49.5,-75.75"/>
<polygon fill="midnightblue" stroke="midnightblue" points="46,-102.08 49.5,-112.08 53,-102.08 46,-102.08"/>
</g>
<!-- Node4 -->
<g id="node4" class="node">
<title>Node4</title>
<g id="a_node4"><a xlink:href="classdrain_1_1BeanLike.html" target="_top" xlink:title="Something which has a name, a description and possibly some parameters of varying type.">
<polygon fill="white" stroke="black" points="19,-168.5 19,-187.5 80,-187.5 80,-168.5 19,-168.5"/>
<text text-anchor="middle" x="49.5" y="-175.5" font-family="Helvetica,sans-Serif" font-size="10.00">BeanLike</text>
</a>
</g>
</g>
<!-- Node4&#45;&gt;Node3 -->
<g id="edge3" class="edge">
<title>Node4&#45;&gt;Node3</title>
<path fill="none" stroke="midnightblue" d="M49.5,-157.8C49.5,-148.91 49.5,-138.78 49.5,-131.75"/>
<polygon fill="midnightblue" stroke="midnightblue" points="46,-158.08 49.5,-168.08 53,-158.08 46,-158.08"/>
</g>
</g>
</svg>
