<?xml version="1.0" encoding="UTF-8" standalone="no"?>
<!DOCTYPE svg PUBLIC "-//W3C//DTD SVG 1.1//EN"
 "http://www.w3.org/Graphics/SVG/1.1/DTD/svg11.dtd">
<!-- Generated by graphviz version 2.43.0 (0)
 -->
<!-- Title: WindowCore Pages: 1 -->
<!--zoomable 418 -->
<svg id="main" version="1.1" xmlns="http://www.w3.org/2000/svg" xmlns:xlink="http://www.w3.org/1999/xlink" xml:space="preserve" onload="init(evt)">
<style type="text/css"><![CDATA[
.edge:hover path { stroke: red; }
.edge:hover polygon { stroke: red; fill: red; }
]]></style>
<script type="text/javascript"><![CDATA[
var edges = document.getElementsByTagName('g');
if (edges && edges.length) {
  for (var i=0;i<edges.length;i++) {
    if (edges[i].id.substr(0,4)=='edge') {
      edges[i].setAttribute('class','edge');
    }
  }
}
]]></script>
        <defs>
                <circle id="rim" cx="0" cy="0" r="7"/>
                <circle id="rim2" cx="0" cy="0" r="3.5"/>
                <g id="zoomPlus">
                        <use xlink:href="#rim" fill="#404040">
                                <set attributeName="fill" to="#808080" begin="zoomplus.mouseover" end="zoomplus.mouseout"/>
                        </use>
                        <path d="M-4,0h8M0,-4v8" fill="none" stroke="white" stroke-width="1.5" pointer-events="none"/>
                </g>
                <g id="zoomMin">
                        <use xlink:href="#rim" fill="#404040">
                                <set attributeName="fill" to="#808080" begin="zoomminus.mouseover" end="zoomminus.mouseout"/>
                        </use>
                        <path d="M-4,0h8" fill="none" stroke="white" stroke-width="1.5" pointer-events="none"/>
                </g>
                <g id="dirArrow">
                        <path fill="none" stroke="white" stroke-width="1.5" d="M0,-3.0v7 M-2.5,-0.5L0,-3.0L2.5,-0.5"/>
                </g>
               <g id="resetDef">
                       <use xlink:href="#rim2" fill="#404040">
                               <set attributeName="fill" to="#808080" begin="reset.mouseover" end="reset.mouseout"/>
                       </use>
               </g>
        </defs>

<script type="text/javascript">
var viewWidth = 1531;
var viewHeight = 418;
var sectionId = 'dynsection-0';
</script>
<script xlink:href="svgpan.js"/>
<svg id="graph" class="graph">
<g id="viewport">
<title>WindowCore</title>
<polygon fill="white" stroke="transparent" points="-4,4 -4,-414 1527,-414 1527,4 -4,4"/>
<!-- Node1 -->
<g id="node1" class="node">
<title>Node1</title>
<g id="a_node1"><a xlink:title="Container for source data (input) and destination data (output). May also contain metadata of them.">
<polygon fill="#bfbfbf" stroke="black" points="138,-168 138,-187 216,-187 216,-168 138,-168"/>
<text text-anchor="middle" x="177" y="-175" font-family="Helvetica,sans-Serif" font-size="10.00">WindowCore</text>
</a>
</g>
</g>
<!-- Node3 -->
<g id="node3" class="node">
<title>Node3</title>
<g id="a_node3"><a xlink:href="classdrain_1_1image_1_1WeightedWindowCore.html" target="_top" xlink:title=" ">
<polygon fill="white" stroke="black" points="285,-291 285,-310 410,-310 410,-291 285,-291"/>
<text text-anchor="middle" x="347.5" y="-298" font-family="Helvetica,sans-Serif" font-size="10.00">WeightedWindowCore</text>
</a>
</g>
</g>
<!-- Node1&#45;&gt;Node3 -->
<g id="edge2" class="edge">
<title>Node1&#45;&gt;Node3</title>
<path fill="none" stroke="midnightblue" d="M186.5,-196.14C197.99,-219.17 220.71,-257.84 252,-278.5 261.84,-285 273.36,-289.59 284.92,-292.83"/>
<polygon fill="midnightblue" stroke="midnightblue" points="189.62,-194.56 182.14,-187.05 183.31,-197.58 189.62,-194.56"/>
</g>
<!-- Node21 -->
<g id="node21" class="node">
<title>Node21</title>
<g id="a_node21"><a xlink:href="classdrain_1_1image_1_1Window.html" target="_top" xlink:title="Base class for windows applied by WIndowOp&#39;s.">
<polygon fill="white" stroke="black" points="298.5,-250 298.5,-269 396.5,-269 396.5,-250 298.5,-250"/>
<text text-anchor="middle" x="347.5" y="-257" font-family="Helvetica,sans-Serif" font-size="10.00">Window&lt; C, R &gt;</text>
</a>
</g>
</g>
<!-- Node1&#45;&gt;Node21 -->
<g id="edge20" class="edge">
<title>Node1&#45;&gt;Node21</title>
<path fill="none" stroke="midnightblue" d="M193.33,-194.74C207.2,-209.22 228.95,-229.31 252,-240.5 266.3,-247.44 283,-251.85 298.35,-254.64"/>
<polygon fill="midnightblue" stroke="midnightblue" points="195.84,-192.3 186.47,-187.35 190.71,-197.06 195.84,-192.3"/>
</g>
<!-- Node22 -->
<g id="node22" class="node">
<title>Node22</title>
<g id="a_node22"><a xlink:href="classdrain_1_1image_1_1Window.html" target="_top" xlink:title=" ">
<polygon fill="white" stroke="black" points="255,-212 255,-231 440,-231 440,-212 255,-212"/>
<text text-anchor="middle" x="347.5" y="-219" font-family="Helvetica,sans-Serif" font-size="10.00">Window&lt; GaussianWindowConf &gt;</text>
</a>
</g>
</g>
<!-- Node1&#45;&gt;Node22 -->
<g id="edge21" class="edge">
<title>Node1&#45;&gt;Node22</title>
<path fill="none" stroke="midnightblue" d="M214.75,-190.26C226.57,-194.14 239.77,-198.23 252,-201.5 266.42,-205.35 282.23,-208.94 296.73,-211.99"/>
<polygon fill="midnightblue" stroke="midnightblue" points="215.8,-186.92 205.21,-187.08 213.59,-193.56 215.8,-186.92"/>
</g>
<!-- Node23 -->
<g id="node23" class="node">
<title>Node23</title>
<g id="a_node23"><a xlink:href="classdrain_1_1image_1_1Window.html" target="_top" xlink:title=" ">
<polygon fill="white" stroke="black" points="259.5,-162.5 259.5,-192.5 435.5,-192.5 435.5,-162.5 259.5,-162.5"/>
<text text-anchor="start" x="267.5" y="-180.5" font-family="Helvetica,sans-Serif" font-size="10.00">Window&lt; GaussianWindowConf,</text>
<text text-anchor="middle" x="347.5" y="-169.5" font-family="Helvetica,sans-Serif" font-size="10.00"> WindowCore &gt;</text>
</a>
</g>
</g>
<!-- Node1&#45;&gt;Node23 -->
<g id="edge22" class="edge">
<title>Node1&#45;&gt;Node23</title>
<path fill="none" stroke="midnightblue" d="M226.28,-177.5C236.65,-177.5 247.93,-177.5 259.27,-177.5"/>
<polygon fill="midnightblue" stroke="midnightblue" points="226.24,-174 216.24,-177.5 226.24,-181 226.24,-174"/>
</g>
<!-- Node26 -->
<g id="node26" class="node">
<title>Node26</title>
<g id="a_node26"><a xlink:href="classdrain_1_1image_1_1Window.html" target="_top" xlink:title=" ">
<polygon fill="white" stroke="black" points="252,-113.5 252,-143.5 443,-143.5 443,-113.5 252,-113.5"/>
<text text-anchor="start" x="260" y="-131.5" font-family="Helvetica,sans-Serif" font-size="10.00">Window&lt; HistogramWindowConfig,</text>
<text text-anchor="middle" x="347.5" y="-120.5" font-family="Helvetica,sans-Serif" font-size="10.00"> WindowCore &gt;</text>
</a>
</g>
</g>
<!-- Node1&#45;&gt;Node26 -->
<g id="edge25" class="edge">
<title>Node1&#45;&gt;Node26</title>
<path fill="none" stroke="midnightblue" d="M214.21,-164.64C226.18,-160.56 239.6,-156.16 252,-152.5 262.47,-149.41 273.66,-146.35 284.55,-143.5"/>
<polygon fill="midnightblue" stroke="midnightblue" points="212.87,-161.41 204.56,-167.97 215.15,-168.02 212.87,-161.41"/>
</g>
<!-- Node31 -->
<g id="node31" class="node">
<title>Node31</title>
<g id="a_node31"><a xlink:href="classdrain_1_1image_1_1Window.html" target="_top" xlink:title=" ">
<polygon fill="white" stroke="black" points="273,-75 273,-94 422,-94 422,-75 273,-75"/>
<text text-anchor="middle" x="347.5" y="-82" font-family="Helvetica,sans-Serif" font-size="10.00">Window&lt; WindowConfig &gt;</text>
</a>
</g>
</g>
<!-- Node1&#45;&gt;Node31 -->
<g id="edge30" class="edge">
<title>Node1&#45;&gt;Node31</title>
<path fill="none" stroke="midnightblue" d="M190.79,-159.63C204.09,-142.46 226.5,-117.16 252,-103.5 259.23,-99.63 267.15,-96.54 275.24,-94.08"/>
<polygon fill="midnightblue" stroke="midnightblue" points="187.9,-157.67 184.7,-167.77 193.5,-161.86 187.9,-157.67"/>
</g>
<!-- Node32 -->
<g id="node32" class="node">
<title>Node32</title>
<g id="a_node32"><a xlink:href="classdrain_1_1image_1_1Window.html" target="_top" xlink:title=" ">
<polygon fill="white" stroke="black" points="277.5,-25.5 277.5,-55.5 417.5,-55.5 417.5,-25.5 277.5,-25.5"/>
<text text-anchor="start" x="285.5" y="-43.5" font-family="Helvetica,sans-Serif" font-size="10.00">Window&lt; WindowConfig,</text>
<text text-anchor="middle" x="347.5" y="-32.5" font-family="Helvetica,sans-Serif" font-size="10.00"> WindowCore &gt;</text>
</a>
</g>
</g>
<!-- Node1&#45;&gt;Node32 -->
<g id="edge31" class="edge">
<title>Node1&#45;&gt;Node32</title>
<path fill="none" stroke="midnightblue" d="M185.43,-158.48C196.23,-133.33 218.71,-89.41 252,-65.5 259.58,-60.06 268.27,-55.8 277.23,-52.47"/>
<polygon fill="midnightblue" stroke="midnightblue" points="182.08,-157.42 181.51,-168 188.55,-160.08 182.08,-157.42"/>
</g>
<!-- Node2 -->
<g id="node2" class="node">
<title>Node2</title>
<g id="a_node2"><a xlink:href="classdrain_1_1image_1_1WindowCoreBase.html" target="_top" xlink:title="Provides splitting frames.">
<polygon fill="white" stroke="black" points="0,-168 0,-187 102,-187 102,-168 0,-168"/>
<text text-anchor="middle" x="51" y="-175" font-family="Helvetica,sans-Serif" font-size="10.00">WindowCoreBase</text>
</a>
</g>
</g>
<!-- Node2&#45;&gt;Node1 -->
<g id="edge1" class="edge">
<title>Node2&#45;&gt;Node1</title>
<path fill="none" stroke="midnightblue" d="M112.28,-177.5C121.02,-177.5 129.81,-177.5 137.94,-177.5"/>
<polygon fill="midnightblue" stroke="midnightblue" points="112.08,-174 102.08,-177.5 112.08,-181 112.08,-174"/>
</g>
<!-- Node4 -->
<g id="node4" class="node">
<title>Node4</title>
<g id="a_node4"><a xlink:href="classdrain_1_1image_1_1MultiChannelWindowCore.html" target="_top" xlink:title=" ">
<polygon fill="white" stroke="black" points="503,-381 503,-400 646,-400 646,-381 503,-381"/>
<text text-anchor="middle" x="574.5" y="-388" font-family="Helvetica,sans-Serif" font-size="10.00">MultiChannelWindowCore</text>
</a>
</g>
</g>
<!-- Node3&#45;&gt;Node4 -->
<g id="edge3" class="edge">
<title>Node3&#45;&gt;Node4</title>
<path fill="none" stroke="midnightblue" d="M374.64,-314.77C400.57,-328.53 441.73,-349.3 479,-363.5 496.86,-370.3 517.18,-376.32 534.39,-380.94"/>
<polygon fill="midnightblue" stroke="midnightblue" points="376.28,-311.67 365.81,-310.04 372.97,-317.85 376.28,-311.67"/>
</g>
<!-- Node9 -->
<g id="node9" class="node">
<title>Node9</title>
<g id="a_node9"><a xlink:href="classrack_1_1RadarWindowCore.html" target="_top" xlink:title=" ">
<polygon fill="white" stroke="black" points="521,-335 521,-354 628,-354 628,-335 521,-335"/>
<text text-anchor="middle" x="574.5" y="-342" font-family="Helvetica,sans-Serif" font-size="10.00">RadarWindowCore</text>
</a>
</g>
</g>
<!-- Node3&#45;&gt;Node9 -->
<g id="edge8" class="edge">
<title>Node3&#45;&gt;Node9</title>
<path fill="none" stroke="midnightblue" d="M407.35,-312.01C443.89,-319.15 490.3,-328.23 524.77,-334.97"/>
<polygon fill="midnightblue" stroke="midnightblue" points="407.81,-308.53 397.32,-310.05 406.46,-315.4 407.81,-308.53"/>
</g>
<!-- Node10 -->
<g id="node10" class="node">
<title>Node10</title>
<g id="a_node10"><a xlink:href="classdrain_1_1image_1_1Window.html" target="_top" xlink:title=" ">
<polygon fill="white" stroke="black" points="486.5,-285.5 486.5,-315.5 662.5,-315.5 662.5,-285.5 486.5,-285.5"/>
<text text-anchor="start" x="494.5" y="-303.5" font-family="Helvetica,sans-Serif" font-size="10.00">Window&lt; GaussianWindowConf,</text>
<text text-anchor="middle" x="574.5" y="-292.5" font-family="Helvetica,sans-Serif" font-size="10.00"> WeightedWindowCore &gt;</text>
</a>
</g>
</g>
<!-- Node3&#45;&gt;Node10 -->
<g id="edge9" class="edge">
<title>Node3&#45;&gt;Node10</title>
<path fill="none" stroke="midnightblue" d="M420.36,-300.5C441.29,-300.5 464.38,-300.5 486.15,-300.5"/>
<polygon fill="midnightblue" stroke="midnightblue" points="420.28,-297 410.28,-300.5 420.28,-304 420.28,-297"/>
</g>
<!-- Node16 -->
<g id="node16" class="node">
<title>Node16</title>
<g id="a_node16"><a xlink:href="classdrain_1_1image_1_1Window.html" target="_top" xlink:title=" ">
<polygon fill="white" stroke="black" points="479,-236.5 479,-266.5 670,-266.5 670,-236.5 479,-236.5"/>
<text text-anchor="start" x="487" y="-254.5" font-family="Helvetica,sans-Serif" font-size="10.00">Window&lt; HistogramWindowConfig,</text>
<text text-anchor="middle" x="574.5" y="-243.5" font-family="Helvetica,sans-Serif" font-size="10.00"> WeightedWindowCore &gt;</text>
</a>
</g>
</g>
<!-- Node3&#45;&gt;Node16 -->
<g id="edge15" class="edge">
<title>Node3&#45;&gt;Node16</title>
<path fill="none" stroke="midnightblue" d="M402.19,-288.81C432.79,-282.14 471.45,-273.73 504.3,-266.57"/>
<polygon fill="midnightblue" stroke="midnightblue" points="401.18,-285.45 392.15,-290.99 402.66,-292.29 401.18,-285.45"/>
</g>
<!-- Node5 -->
<g id="node5" class="node">
<title>Node5</title>
<g id="a_node5"><a xlink:href="classdrain_1_1image_1_1Window.html" target="_top" xlink:title=" ">
<polygon fill="white" stroke="black" points="717,-379.5 717,-409.5 874,-409.5 874,-379.5 717,-379.5"/>
<text text-anchor="start" x="725" y="-397.5" font-family="Helvetica,sans-Serif" font-size="10.00">Window&lt; WindowConfig,</text>
<text text-anchor="middle" x="795.5" y="-386.5" font-family="Helvetica,sans-Serif" font-size="10.00"> MultiChannelWindowCore &gt;</text>
</a>
</g>
</g>
<!-- Node4&#45;&gt;Node5 -->
<g id="edge4" class="edge">
<title>Node4&#45;&gt;Node5</title>
<path fill="none" stroke="midnightblue" d="M656.47,-391.98C676.17,-392.34 697.2,-392.72 716.75,-393.08"/>
<polygon fill="midnightblue" stroke="midnightblue" points="656.36,-388.48 646.3,-391.79 656.23,-395.48 656.36,-388.48"/>
</g>
<!-- Node6 -->
<g id="node6" class="node">
<title>Node6</title>
<g id="a_node6"><a xlink:href="classdrain_1_1image_1_1SlidingWindow.html" target="_top" xlink:title=" ">
<polygon fill="white" stroke="black" points="921,-379.5 921,-409.5 1094,-409.5 1094,-379.5 921,-379.5"/>
<text text-anchor="start" x="929" y="-397.5" font-family="Helvetica,sans-Serif" font-size="10.00">SlidingWindow&lt; WindowConfig,</text>
<text text-anchor="middle" x="1007.5" y="-386.5" font-family="Helvetica,sans-Serif" font-size="10.00"> MultiChannelWindowCore &gt;</text>
</a>
</g>
</g>
<!-- Node5&#45;&gt;Node6 -->
<g id="edge5" class="edge">
<title>Node5&#45;&gt;Node6</title>
<path fill="none" stroke="midnightblue" d="M884.17,-394.5C896.27,-394.5 908.68,-394.5 920.74,-394.5"/>
<polygon fill="midnightblue" stroke="midnightblue" points="884.1,-391 874.1,-394.5 884.1,-398 884.1,-391"/>
</g>
<!-- Node7 -->
<g id="node7" class="node">
<title>Node7</title>
<g id="a_node7"><a xlink:href="classdrain_1_1image_1_1FlowAverageWindow.html" target="_top" xlink:title="Window average that preserves the magnitude.">
<polygon fill="white" stroke="black" points="1163.5,-385 1163.5,-404 1282.5,-404 1282.5,-385 1163.5,-385"/>
<text text-anchor="middle" x="1223" y="-392" font-family="Helvetica,sans-Serif" font-size="10.00">FlowAverageWindow</text>
</a>
</g>
</g>
<!-- Node6&#45;&gt;Node7 -->
<g id="edge6" class="edge">
<title>Node6&#45;&gt;Node7</title>
<path fill="none" stroke="midnightblue" d="M1104.24,-394.5C1124.35,-394.5 1144.99,-394.5 1163.25,-394.5"/>
<polygon fill="midnightblue" stroke="midnightblue" points="1104.11,-391 1094.11,-394.5 1104.11,-398 1104.11,-391"/>
</g>
<!-- Node8 -->
<g id="node8" class="node">
<title>Node8</title>
<g id="a_node8"><a xlink:href="classdrain_1_1image_1_1FlowAverageWindowWeighted.html" target="_top" xlink:title=" ">
<polygon fill="white" stroke="black" points="1355,-385 1355,-404 1520,-404 1520,-385 1355,-385"/>
<text text-anchor="middle" x="1437.5" y="-392" font-family="Helvetica,sans-Serif" font-size="10.00">FlowAverageWindowWeighted</text>
</a>
</g>
</g>
<!-- Node7&#45;&gt;Node8 -->
<g id="edge7" class="edge">
<title>Node7&#45;&gt;Node8</title>
<path fill="none" stroke="midnightblue" d="M1292.8,-394.5C1312.64,-394.5 1334.47,-394.5 1355,-394.5"/>
<polygon fill="midnightblue" stroke="midnightblue" points="1292.63,-391 1282.63,-394.5 1292.63,-398 1292.63,-391"/>
</g>
<!-- Node11 -->
<g id="node11" class="node">
<title>Node11</title>
<g id="a_node11"><a xlink:href="classdrain_1_1image_1_1GaussianStripe.html" target="_top" xlink:title=" ">
<polygon fill="white" stroke="black" points="726,-330.5 726,-360.5 865,-360.5 865,-330.5 726,-330.5"/>
<text text-anchor="start" x="734" y="-348.5" font-family="Helvetica,sans-Serif" font-size="10.00">GaussianStripe&lt; DIR,</text>
<text text-anchor="middle" x="795.5" y="-337.5" font-family="Helvetica,sans-Serif" font-size="10.00"> WeightedWindowCore &gt;</text>
</a>
</g>
</g>
<!-- Node10&#45;&gt;Node11 -->
<g id="edge10" class="edge">
<title>Node10&#45;&gt;Node11</title>
<path fill="none" stroke="midnightblue" d="M658.77,-317.61C680.89,-322.16 704.53,-327.01 725.78,-331.38"/>
<polygon fill="midnightblue" stroke="midnightblue" points="659.23,-314.13 648.73,-315.55 657.82,-320.99 659.23,-314.13"/>
</g>
<!-- Node14 -->
<g id="node14" class="node">
<title>Node14</title>
<g id="a_node14"><a xlink:href="classdrain_1_1image_1_1GaussianStripe.html" target="_top" xlink:title=" ">
<polygon fill="white" stroke="black" points="726,-281.5 726,-311.5 865,-311.5 865,-281.5 726,-281.5"/>
<text text-anchor="start" x="734" y="-299.5" font-family="Helvetica,sans-Serif" font-size="10.00">GaussianStripe&lt; true,</text>
<text text-anchor="middle" x="795.5" y="-288.5" font-family="Helvetica,sans-Serif" font-size="10.00"> WeightedWindowCore &gt;</text>
</a>
</g>
</g>
<!-- Node10&#45;&gt;Node14 -->
<g id="edge13" class="edge">
<title>Node10&#45;&gt;Node14</title>
<path fill="none" stroke="midnightblue" d="M673.09,-298.72C690.88,-298.39 709.1,-298.06 725.83,-297.75"/>
<polygon fill="midnightblue" stroke="midnightblue" points="672.62,-295.23 662.68,-298.91 672.75,-302.22 672.62,-295.23"/>
</g>
<!-- Node12 -->
<g id="node12" class="node">
<title>Node12</title>
<g id="a_node12"><a xlink:href="classdrain_1_1image_1_1GaussianStripeWeighted.html" target="_top" xlink:title=" ">
<polygon fill="white" stroke="black" points="939,-330.5 939,-360.5 1076,-360.5 1076,-330.5 939,-330.5"/>
<text text-anchor="start" x="947" y="-348.5" font-family="Helvetica,sans-Serif" font-size="10.00">GaussianStripeWeighted</text>
<text text-anchor="middle" x="1007.5" y="-337.5" font-family="Helvetica,sans-Serif" font-size="10.00">&lt; false &gt;</text>
</a>
</g>
</g>
<!-- Node11&#45;&gt;Node12 -->
<g id="edge11" class="edge">
<title>Node11&#45;&gt;Node12</title>
<path fill="none" stroke="midnightblue" d="M875.35,-345.5C896.18,-345.5 918.47,-345.5 938.66,-345.5"/>
<polygon fill="midnightblue" stroke="midnightblue" points="875.26,-342 865.26,-345.5 875.26,-349 875.26,-342"/>
</g>
<!-- Node13 -->
<g id="node13" class="node">
<title>Node13</title>
<g id="a_node13"><a xlink:href="classrack_1_1GaussianStripeVertPolarWeighted.html" target="_top" xlink:title=" ">
<polygon fill="white" stroke="black" points="1132,-336 1132,-355 1314,-355 1314,-336 1132,-336"/>
<text text-anchor="middle" x="1223" y="-343" font-family="Helvetica,sans-Serif" font-size="10.00">GaussianStripeVertPolarWeighted</text>
</a>
</g>
</g>
<!-- Node12&#45;&gt;Node13 -->
<g id="edge12" class="edge">
<title>Node12&#45;&gt;Node13</title>
<path fill="none" stroke="midnightblue" d="M1086.18,-345.5C1101.01,-345.5 1116.66,-345.5 1131.84,-345.5"/>
<polygon fill="midnightblue" stroke="midnightblue" points="1086.05,-342 1076.05,-345.5 1086.05,-349 1086.05,-342"/>
</g>
<!-- Node15 -->
<g id="node15" class="node">
<title>Node15</title>
<g id="a_node15"><a xlink:href="classdrain_1_1image_1_1GaussianStripeWeighted.html" target="_top" xlink:title=" ">
<polygon fill="white" stroke="black" points="939,-281.5 939,-311.5 1076,-311.5 1076,-281.5 939,-281.5"/>
<text text-anchor="start" x="947" y="-299.5" font-family="Helvetica,sans-Serif" font-size="10.00">GaussianStripeWeighted</text>
<text text-anchor="middle" x="1007.5" y="-288.5" font-family="Helvetica,sans-Serif" font-size="10.00">&lt; DIR &gt;</text>
</a>
</g>
</g>
<!-- Node14&#45;&gt;Node15 -->
<g id="edge14" class="edge">
<title>Node14&#45;&gt;Node15</title>
<path fill="none" stroke="midnightblue" d="M875.35,-296.5C896.18,-296.5 918.47,-296.5 938.66,-296.5"/>
<polygon fill="midnightblue" stroke="midnightblue" points="875.26,-293 865.26,-296.5 875.26,-300 875.26,-293"/>
</g>
<!-- Node17 -->
<g id="node17" class="node">
<title>Node17</title>
<g id="a_node17"><a xlink:href="classdrain_1_1image_1_1SlidingWindow.html" target="_top" xlink:title=" ">
<polygon fill="white" stroke="black" points="706,-221 706,-262 885,-262 885,-221 706,-221"/>
<text text-anchor="start" x="714" y="-250" font-family="Helvetica,sans-Serif" font-size="10.00">SlidingWindow&lt; Histogram</text>
<text text-anchor="start" x="714" y="-239" font-family="Helvetica,sans-Serif" font-size="10.00">WindowConfig, WeightedWindow</text>
<text text-anchor="middle" x="795.5" y="-228" font-family="Helvetica,sans-Serif" font-size="10.00">Core &gt;</text>
</a>
</g>
</g>
<!-- Node16&#45;&gt;Node17 -->
<g id="edge16" class="edge">
<title>Node16&#45;&gt;Node17</title>
<path fill="none" stroke="midnightblue" d="M680.27,-246.72C688.81,-246.33 697.39,-245.93 705.79,-245.55"/>
<polygon fill="midnightblue" stroke="midnightblue" points="680.11,-243.22 670.28,-247.17 680.43,-250.21 680.11,-243.22"/>
</g>
<!-- Node18 -->
<g id="node18" class="node">
<title>Node18</title>
<g id="a_node18"><a xlink:href="classdrain_1_1image_1_1SlidingWindowHistogram.html" target="_top" xlink:title=" ">
<polygon fill="white" stroke="black" points="934,-226.5 934,-256.5 1081,-256.5 1081,-226.5 934,-226.5"/>
<text text-anchor="start" x="942" y="-244.5" font-family="Helvetica,sans-Serif" font-size="10.00">SlidingWindowHistogram</text>
<text text-anchor="middle" x="1007.5" y="-233.5" font-family="Helvetica,sans-Serif" font-size="10.00">&lt; WeightedWindowCore &gt;</text>
</a>
</g>
</g>
<!-- Node17&#45;&gt;Node18 -->
<g id="edge17" class="edge">
<title>Node17&#45;&gt;Node18</title>
<path fill="none" stroke="midnightblue" d="M895.58,-241.5C908.51,-241.5 921.56,-241.5 933.94,-241.5"/>
<polygon fill="midnightblue" stroke="midnightblue" points="895.25,-238 885.25,-241.5 895.25,-245 895.25,-238"/>
</g>
<!-- Node19 -->
<g id="node19" class="node">
<title>Node19</title>
<g id="a_node19"><a xlink:href="classdrain_1_1image_1_1SlidingWindowHistogramWeighted.html" target="_top" xlink:title=" ">
<polygon fill="white" stroke="black" points="1130,-232 1130,-251 1316,-251 1316,-232 1130,-232"/>
<text text-anchor="middle" x="1223" y="-239" font-family="Helvetica,sans-Serif" font-size="10.00">SlidingWindowHistogramWeighted</text>
</a>
</g>
</g>
<!-- Node18&#45;&gt;Node19 -->
<g id="edge18" class="edge">
<title>Node18&#45;&gt;Node19</title>
<path fill="none" stroke="midnightblue" d="M1091.16,-241.5C1103.87,-241.5 1117.06,-241.5 1129.96,-241.5"/>
<polygon fill="midnightblue" stroke="midnightblue" points="1091.08,-238 1081.08,-241.5 1091.08,-245 1091.08,-238"/>
</g>
<!-- Node20 -->
<g id="node20" class="node">
<title>Node20</title>
<g id="a_node20"><a xlink:href="classdrain_1_1image_1_1SlidingWindowMedianWeighted.html" target="_top" xlink:title=" ">
<polygon fill="white" stroke="black" points="1352,-232 1352,-251 1523,-251 1523,-232 1352,-232"/>
<text text-anchor="middle" x="1437.5" y="-239" font-family="Helvetica,sans-Serif" font-size="10.00">SlidingWindowMedianWeighted</text>
</a>
</g>
</g>
<!-- Node19&#45;&gt;Node20 -->
<g id="edge19" class="edge">
<title>Node19&#45;&gt;Node20</title>
<path fill="none" stroke="midnightblue" d="M1326.52,-241.5C1334.94,-241.5 1343.4,-241.5 1351.67,-241.5"/>
<polygon fill="midnightblue" stroke="midnightblue" points="1326.28,-238 1316.28,-241.5 1326.28,-245 1326.28,-238"/>
</g>
<!-- Node24 -->
<g id="node24" class="node">
<title>Node24</title>
<g id="a_node24"><a xlink:href="classdrain_1_1image_1_1GaussianStripe.html" target="_top" xlink:title=" ">
<polygon fill="white" stroke="black" points="503,-198 503,-217 646,-217 646,-198 503,-198"/>
<text text-anchor="middle" x="574.5" y="-205" font-family="Helvetica,sans-Serif" font-size="10.00">GaussianStripe&lt; DIR, R &gt;</text>
</a>
</g>
</g>
<!-- Node23&#45;&gt;Node24 -->
<g id="edge23" class="edge">
<title>Node23&#45;&gt;Node24</title>
<path fill="none" stroke="midnightblue" d="M445.79,-190.47C465.01,-193.03 484.83,-195.68 502.95,-198.09"/>
<polygon fill="midnightblue" stroke="midnightblue" points="446.19,-186.99 435.81,-189.14 445.26,-193.93 446.19,-186.99"/>
</g>
<!-- Node25 -->
<g id="node25" class="node">
<title>Node25</title>
<g id="a_node25"><a xlink:href="classdrain_1_1image_1_1GaussianStripe.html" target="_top" xlink:title=" ">
<polygon fill="white" stroke="black" points="487.5,-160 487.5,-179 661.5,-179 661.5,-160 487.5,-160"/>
<text text-anchor="middle" x="574.5" y="-167" font-family="Helvetica,sans-Serif" font-size="10.00">GaussianStripe&lt; WindowCore &gt;</text>
</a>
</g>
</g>
<!-- Node23&#45;&gt;Node25 -->
<g id="edge24" class="edge">
<title>Node23&#45;&gt;Node25</title>
<path fill="none" stroke="midnightblue" d="M445.81,-174.04C459.63,-173.55 473.76,-173.05 487.35,-172.56"/>
<polygon fill="midnightblue" stroke="midnightblue" points="445.68,-170.54 435.81,-174.4 445.93,-177.54 445.68,-170.54"/>
</g>
<!-- Node27 -->
<g id="node27" class="node">
<title>Node27</title>
<g id="a_node27"><a xlink:href="classdrain_1_1image_1_1SlidingWindow.html" target="_top" xlink:title=" ">
<polygon fill="white" stroke="black" points="491.5,-110.5 491.5,-140.5 657.5,-140.5 657.5,-110.5 491.5,-110.5"/>
<text text-anchor="start" x="499.5" y="-128.5" font-family="Helvetica,sans-Serif" font-size="10.00">SlidingWindow&lt; Histogram</text>
<text text-anchor="middle" x="574.5" y="-117.5" font-family="Helvetica,sans-Serif" font-size="10.00">WindowConfig, WindowCore &gt;</text>
</a>
</g>
</g>
<!-- Node26&#45;&gt;Node27 -->
<g id="edge26" class="edge">
<title>Node26&#45;&gt;Node27</title>
<path fill="none" stroke="midnightblue" d="M453.43,-127.1C466.15,-126.93 479,-126.76 491.32,-126.6"/>
<polygon fill="midnightblue" stroke="midnightblue" points="453.22,-123.6 443.27,-127.24 453.31,-130.6 453.22,-123.6"/>
</g>
<!-- Node28 -->
<g id="node28" class="node">
<title>Node28</title>
<g id="a_node28"><a xlink:href="classdrain_1_1image_1_1SlidingWindowHistogram.html" target="_top" xlink:title="Base class for median and str histogram based statistics.">
<polygon fill="white" stroke="black" points="711,-138 711,-157 880,-157 880,-138 711,-138"/>
<text text-anchor="middle" x="795.5" y="-145" font-family="Helvetica,sans-Serif" font-size="10.00">SlidingWindowHistogram&lt; R &gt;</text>
</a>
</g>
</g>
<!-- Node27&#45;&gt;Node28 -->
<g id="edge27" class="edge">
<title>Node27&#45;&gt;Node28</title>
<path fill="none" stroke="midnightblue" d="M667.94,-134.79C682.15,-136.21 696.76,-137.68 710.77,-139.09"/>
<polygon fill="midnightblue" stroke="midnightblue" points="667.97,-131.27 657.67,-133.75 667.27,-138.24 667.97,-131.27"/>
</g>
<!-- Node29 -->
<g id="node29" class="node">
<title>Node29</title>
<g id="a_node29"><a xlink:href="classdrain_1_1image_1_1SlidingWindowHistogram.html" target="_top" xlink:title=" ">
<polygon fill="white" stroke="black" points="725.5,-88.5 725.5,-118.5 865.5,-118.5 865.5,-88.5 725.5,-88.5"/>
<text text-anchor="start" x="733.5" y="-106.5" font-family="Helvetica,sans-Serif" font-size="10.00">SlidingWindowHistogram</text>
<text text-anchor="middle" x="795.5" y="-95.5" font-family="Helvetica,sans-Serif" font-size="10.00">&lt; WindowCore &gt;</text>
</a>
</g>
</g>
<!-- Node27&#45;&gt;Node29 -->
<g id="edge28" class="edge">
<title>Node27&#45;&gt;Node29</title>
<path fill="none" stroke="midnightblue" d="M667.71,-116.24C687.06,-114.29 707.15,-112.27 725.48,-110.43"/>
<polygon fill="midnightblue" stroke="midnightblue" points="667.27,-112.76 657.67,-117.25 667.97,-119.73 667.27,-112.76"/>
</g>
<!-- Node30 -->
<g id="node30" class="node">
<title>Node30</title>
<g id="a_node30"><a xlink:href="classdrain_1_1image_1_1SlidingWindowMedian.html" target="_top" xlink:title=" ">
<polygon fill="white" stroke="black" points="945,-94 945,-113 1070,-113 1070,-94 945,-94"/>
<text text-anchor="middle" x="1007.5" y="-101" font-family="Helvetica,sans-Serif" font-size="10.00">SlidingWindowMedian</text>
</a>
</g>
</g>
<!-- Node29&#45;&gt;Node30 -->
<g id="edge29" class="edge">
<title>Node29&#45;&gt;Node30</title>
<path fill="none" stroke="midnightblue" d="M875.59,-103.5C898.5,-103.5 923.16,-103.5 944.84,-103.5"/>
<polygon fill="midnightblue" stroke="midnightblue" points="875.55,-100 865.55,-103.5 875.55,-107 875.55,-100"/>
</g>
<!-- Node33 -->
<g id="node33" class="node">
<title>Node33</title>
<g id="a_node33"><a xlink:href="classdrain_1_1image_1_1SlidingWindow.html" target="_top" xlink:title=" ">
<polygon fill="white" stroke="black" points="509,-50 509,-69 640,-69 640,-50 509,-50"/>
<text text-anchor="middle" x="574.5" y="-57" font-family="Helvetica,sans-Serif" font-size="10.00">SlidingWindow&lt; C, R &gt;</text>
</a>
</g>
</g>
<!-- Node32&#45;&gt;Node33 -->
<g id="edge32" class="edge">
<title>Node32&#45;&gt;Node33</title>
<path fill="none" stroke="midnightblue" d="M427.58,-47.18C454.16,-49.42 483.48,-51.9 508.82,-54.04"/>
<polygon fill="midnightblue" stroke="midnightblue" points="427.8,-43.68 417.54,-46.33 427.21,-50.66 427.8,-43.68"/>
</g>
<!-- Node34 -->
<g id="node34" class="node">
<title>Node34</title>
<g id="a_node34"><a xlink:href="classdrain_1_1image_1_1SlidingWindow.html" target="_top" xlink:title=" ">
<polygon fill="white" stroke="black" points="488,-0.5 488,-30.5 661,-30.5 661,-0.5 488,-0.5"/>
<text text-anchor="start" x="496" y="-18.5" font-family="Helvetica,sans-Serif" font-size="10.00">SlidingWindow&lt; WindowConfig,</text>
<text text-anchor="middle" x="574.5" y="-7.5" font-family="Helvetica,sans-Serif" font-size="10.00"> WindowCore &gt;</text>
</a>
</g>
</g>
<!-- Node32&#45;&gt;Node34 -->
<g id="edge33" class="edge">
<title>Node32&#45;&gt;Node34</title>
<path fill="none" stroke="midnightblue" d="M427.59,-31.71C447.11,-29.54 468.1,-27.21 487.91,-25.01"/>
<polygon fill="midnightblue" stroke="midnightblue" points="427.09,-28.25 417.54,-32.83 427.86,-35.2 427.09,-28.25"/>
</g>
<!-- Node35 -->
<g id="node35" class="node">
<title>Node35</title>
<g id="a_node35"><a xlink:href="classdrain_1_1image_1_1SlidingStripe.html" target="_top" xlink:title="A horizontal, one&#45;dimensional SlidingWindow (Nx1).">
<polygon fill="white" stroke="black" points="739.5,-0.5 739.5,-30.5 851.5,-30.5 851.5,-0.5 739.5,-0.5"/>
<text text-anchor="start" x="747.5" y="-18.5" font-family="Helvetica,sans-Serif" font-size="10.00">SlidingStripe&lt; C, R,</text>
<text text-anchor="middle" x="795.5" y="-7.5" font-family="Helvetica,sans-Serif" font-size="10.00"> DIR &gt;</text>
</a>
</g>
</g>
<!-- Node34&#45;&gt;Node35 -->
<g id="edge34" class="edge">
<title>Node34&#45;&gt;Node35</title>
<path fill="none" stroke="midnightblue" d="M671.35,-15.5C694.58,-15.5 718.64,-15.5 739.26,-15.5"/>
<polygon fill="midnightblue" stroke="midnightblue" points="671.11,-12 661.11,-15.5 671.11,-19 671.11,-12"/>
</g>
</g>
</svg>
        <g id="navigator" transform="translate(0 0)" fill="#404254">
                <rect fill="#f2f5e9" fill-opacity="0.5" stroke="#606060" stroke-width=".5" x="0" y="0" width="60" height="60"/>
                <use id="zoomplus" xlink:href="#zoomPlus" x="17" y="9" onmousedown="handleZoom(evt,'in')"/>
                <use id="zoomminus" xlink:href="#zoomMin" x="42" y="9" onmousedown="handleZoom(evt,'out')"/>
                <use id="reset" xlink:href="#resetDef" x="30" y="36" onmousedown="handleReset()"/>
                <g id="arrowUp" xlink:href="#dirArrow" transform="translate(30 24)" onmousedown="handlePan(0,-1)">
                  <use xlink:href="#rim" fill="#404040">
                        <set attributeName="fill" to="#808080" begin="arrowUp.mouseover" end="arrowUp.mouseout"/>
                  </use>
                  <path fill="none" stroke="white" stroke-width="1.5" d="M0,-3.0v7 M-2.5,-0.5L0,-3.0L2.5,-0.5"/>
                </g>
                <g id="arrowRight" xlink:href="#dirArrow" transform="rotate(90) translate(36 -43)" onmousedown="handlePan(1,0)">
                  <use xlink:href="#rim" fill="#404040">
                        <set attributeName="fill" to="#808080" begin="arrowRight.mouseover" end="arrowRight.mouseout"/>
                  </use>
                  <path fill="none" stroke="white" stroke-width="1.5" d="M0,-3.0v7 M-2.5,-0.5L0,-3.0L2.5,-0.5"/>
                </g>
                <g id="arrowDown" xlink:href="#dirArrow" transform="rotate(180) translate(-30 -48)" onmousedown="handlePan(0,1)">
                  <use xlink:href="#rim" fill="#404040">
                        <set attributeName="fill" to="#808080" begin="arrowDown.mouseover" end="arrowDown.mouseout"/>
                  </use>
                  <path fill="none" stroke="white" stroke-width="1.5" d="M0,-3.0v7 M-2.5,-0.5L0,-3.0L2.5,-0.5"/>
                </g>
                <g id="arrowLeft" xlink:href="#dirArrow" transform="rotate(270) translate(-36 17)" onmousedown="handlePan(-1,0)">
                  <use xlink:href="#rim" fill="#404040">
                        <set attributeName="fill" to="#808080" begin="arrowLeft.mouseover" end="arrowLeft.mouseout"/>
                  </use>
                  <path fill="none" stroke="white" stroke-width="1.5" d="M0,-3.0v7 M-2.5,-0.5L0,-3.0L2.5,-0.5"/>
                </g>
        </g>
        <svg viewBox="0 0 15 15" width="100%" height="30px" preserveAspectRatio="xMaxYMin meet">
         <g id="arrow_out" transform="scale(0.3 0.3)">
          <a xlink:href="classdrain_1_1image_1_1WindowCore__inherit__graph_org.svg" target="_base">
           <rect id="button" ry="5" rx="5" y="6" x="6" height="38" width="38"
                fill="#f2f5e9" fill-opacity="0.5" stroke="#606060" stroke-width="1.0"/>
           <path id="arrow"
             d="M 11.500037,31.436501 C 11.940474,20.09759 22.043105,11.32322 32.158766,21.979434 L 37.068811,17.246167 C 37.068811,17.246167 37.088388,32 37.088388,32 L 22.160133,31.978069 C 22.160133,31.978069 26.997745,27.140456 26.997745,27.140456 C 18.528582,18.264221 13.291696,25.230495 11.500037,31.436501 z"
             style="fill:#404040;"/>
          </a>
         </g>
        </svg>
</svg>
