<?xml version="1.0" encoding="UTF-8" standalone="no"?>
<!DOCTYPE svg PUBLIC "-//W3C//DTD SVG 1.1//EN"
 "http://www.w3.org/Graphics/SVG/1.1/DTD/svg11.dtd">
<!-- Generated by graphviz version 2.43.0 (0)
 -->
<!-- Title: DistanceTransformFillExponentialOp Pages: 1 -->
<svg width="400pt" height="579pt"
 viewBox="0.00 0.00 399.50 579.00" xmlns="http://www.w3.org/2000/svg" xmlns:xlink="http://www.w3.org/1999/xlink">
<g id="graph0" class="graph" transform="scale(1 1) rotate(0) translate(4 575)">
<title>DistanceTransformFillExponentialOp</title>
<polygon fill="white" stroke="transparent" points="-4,4 -4,-575 395.5,-575 395.5,4 -4,4"/>
<!-- Node1 -->
<g id="node1" class="node">
<title>Node1</title>
<g id="a_node1"><a xlink:title=" ">
<polygon fill="#bfbfbf" stroke="black" points="153.5,-0.5 153.5,-19.5 347.5,-19.5 347.5,-0.5 153.5,-0.5"/>
<text text-anchor="middle" x="250.5" y="-7.5" font-family="Helvetica,sans-Serif" font-size="10.00">DistanceTransformFillExponentialOp</text>
</a>
</g>
</g>
<!-- Node2 -->
<g id="node2" class="node">
<title>Node2</title>
<g id="a_node2"><a xlink:href="classdrain_1_1image_1_1DistanceTransformFillOp.html" target="_top" xlink:title=" ">
<polygon fill="white" stroke="black" points="165.5,-57.5 165.5,-87.5 335.5,-87.5 335.5,-57.5 165.5,-57.5"/>
<text text-anchor="start" x="173.5" y="-75.5" font-family="Helvetica,sans-Serif" font-size="10.00">DistanceTransformFillOp</text>
<text text-anchor="middle" x="250.5" y="-64.5" font-family="Helvetica,sans-Serif" font-size="10.00">&lt; DistanceModelExponential &gt;</text>
</a>
</g>
</g>
<!-- Node2&#45;&gt;Node1 -->
<g id="edge1" class="edge">
<title>Node2&#45;&gt;Node1</title>
<path fill="none" stroke="midnightblue" d="M250.5,-47.35C250.5,-37.51 250.5,-26.78 250.5,-19.54"/>
<polygon fill="midnightblue" stroke="midnightblue" points="247,-47.47 250.5,-57.47 254,-47.47 247,-47.47"/>
</g>
<!-- Node3 -->
<g id="node3" class="node">
<title>Node3</title>
<g id="a_node3"><a xlink:href="classdrain_1_1image_1_1DistanceTransformOp.html" target="_top" xlink:title=" ">
<polygon fill="white" stroke="black" points="88.5,-135.5 88.5,-165.5 258.5,-165.5 258.5,-135.5 88.5,-135.5"/>
<text text-anchor="start" x="96.5" y="-153.5" font-family="Helvetica,sans-Serif" font-size="10.00">DistanceTransformOp</text>
<text text-anchor="middle" x="173.5" y="-142.5" font-family="Helvetica,sans-Serif" font-size="10.00">&lt; DistanceModelExponential &gt;</text>
</a>
</g>
</g>
<!-- Node3&#45;&gt;Node2 -->
<g id="edge2" class="edge">
<title>Node3&#45;&gt;Node2</title>
<path fill="none" stroke="midnightblue" d="M195.25,-128.03C208.32,-115.13 224.59,-99.07 236.08,-87.73"/>
<polygon fill="midnightblue" stroke="midnightblue" points="192.64,-125.69 187.98,-135.2 197.56,-130.67 192.64,-125.69"/>
</g>
<!-- Node4 -->
<g id="node4" class="node">
<title>Node4</title>
<g id="a_node4"><a xlink:href="classdrain_1_1image_1_1ImageOp.html" target="_top" xlink:title="Base class for image processing functions.">
<polygon fill="white" stroke="black" points="165,-213.5 165,-232.5 226,-232.5 226,-213.5 165,-213.5"/>
<text text-anchor="middle" x="195.5" y="-220.5" font-family="Helvetica,sans-Serif" font-size="10.00">ImageOp</text>
</a>
</g>
</g>
<!-- Node4&#45;&gt;Node3 -->
<g id="edge3" class="edge">
<title>Node4&#45;&gt;Node3</title>
<path fill="none" stroke="midnightblue" d="M189.76,-203.6C186.05,-191.72 181.3,-176.49 177.89,-165.58"/>
<polygon fill="midnightblue" stroke="midnightblue" points="186.48,-204.85 192.8,-213.36 193.16,-202.77 186.48,-204.85"/>
</g>
<!-- Node5 -->
<g id="node5" class="node">
<title>Node5</title>
<g id="a_node5"><a xlink:href="classdrain_1_1image_1_1ImageMod.html" target="_top" xlink:title="Class for operations that modify an existing image instead of producing a new image.">
<polygon fill="white" stroke="black" points="160.5,-270.5 160.5,-289.5 228.5,-289.5 228.5,-270.5 160.5,-270.5"/>
<text text-anchor="middle" x="194.5" y="-277.5" font-family="Helvetica,sans-Serif" font-size="10.00">ImageMod</text>
</a>
</g>
</g>
<!-- Node5&#45;&gt;Node4 -->
<g id="edge4" class="edge">
<title>Node5&#45;&gt;Node4</title>
<path fill="none" stroke="midnightblue" d="M194.84,-260.12C195.01,-250.82 195.21,-240.06 195.34,-232.71"/>
<polygon fill="midnightblue" stroke="midnightblue" points="191.34,-260.34 194.66,-270.41 198.34,-260.47 191.34,-260.34"/>
</g>
<!-- Node6 -->
<g id="node6" class="node">
<title>Node6</title>
<g id="a_node6"><a xlink:href="classdrain_1_1BeanLike.html" target="_top" xlink:title="Something which has a name, a description and possibly some parameters of varying type.">
<polygon fill="white" stroke="black" points="164,-370.5 164,-389.5 225,-389.5 225,-370.5 164,-370.5"/>
<text text-anchor="middle" x="194.5" y="-377.5" font-family="Helvetica,sans-Serif" font-size="10.00">BeanLike</text>
</a>
</g>
</g>
<!-- Node6&#45;&gt;Node5 -->
<g id="edge5" class="edge">
<title>Node6&#45;&gt;Node5</title>
<path fill="none" stroke="midnightblue" d="M194.5,-360.22C194.5,-338.95 194.5,-305.22 194.5,-289.54"/>
<polygon fill="midnightblue" stroke="midnightblue" points="191,-360.3 194.5,-370.3 198,-360.3 191,-360.3"/>
</g>
<!-- Node11 -->
<g id="node11" class="node">
<title>Node11</title>
<g id="a_node11"><a xlink:href="classdrain_1_1image_1_1DistanceModel.html" target="_top" xlink:title="Base class for linear and exponential distances in rectangular pixel images.">
<polygon fill="white" stroke="black" points="30,-270.5 30,-289.5 119,-289.5 119,-270.5 30,-270.5"/>
<text text-anchor="middle" x="74.5" y="-277.5" font-family="Helvetica,sans-Serif" font-size="10.00">DistanceModel</text>
</a>
</g>
</g>
<!-- Node6&#45;&gt;Node11 -->
<g id="edge11" class="edge">
<title>Node6&#45;&gt;Node11</title>
<path fill="none" stroke="midnightblue" d="M183.01,-361.78C171.86,-346.12 153.69,-323.19 133.5,-308 123.24,-300.28 110.42,-294.08 99.35,-289.58"/>
<polygon fill="midnightblue" stroke="midnightblue" points="180.16,-363.82 188.73,-370.05 185.92,-359.84 180.16,-363.82"/>
</g>
<!-- Node7 -->
<g id="node7" class="node">
<title>Node7</title>
<g id="a_node7"><a xlink:href="classdrain_1_1ReferenceMap.html" target="_top" xlink:title=" ">
<polygon fill="white" stroke="black" points="151,-437.5 151,-456.5 238,-456.5 238,-437.5 151,-437.5"/>
<text text-anchor="middle" x="194.5" y="-444.5" font-family="Helvetica,sans-Serif" font-size="10.00">ReferenceMap</text>
</a>
</g>
</g>
<!-- Node7&#45;&gt;Node6 -->
<g id="edge6" class="edge">
<title>Node7&#45;&gt;Node6</title>
<path fill="none" stroke="#9a32cd" stroke-dasharray="5,2" d="M194.5,-427.04C194.5,-414.67 194.5,-399.12 194.5,-389.63"/>
<polygon fill="#9a32cd" stroke="#9a32cd" points="191,-427.23 194.5,-437.23 198,-427.23 191,-427.23"/>
<text text-anchor="middle" x="224.5" y="-411" font-family="Helvetica,sans-Serif" font-size="10.00"> parameters</text>
</g>
<!-- Node8 -->
<g id="node8" class="node">
<title>Node8</title>
<g id="a_node8"><a xlink:href="classdrain_1_1SmartMap.html" target="_top" xlink:title=" ">
<polygon fill="white" stroke="black" points="123,-494.5 123,-513.5 266,-513.5 266,-494.5 123,-494.5"/>
<text text-anchor="middle" x="194.5" y="-501.5" font-family="Helvetica,sans-Serif" font-size="10.00">SmartMap&lt; Referencer &gt;</text>
</a>
</g>
</g>
<!-- Node8&#45;&gt;Node7 -->
<g id="edge7" class="edge">
<title>Node8&#45;&gt;Node7</title>
<path fill="none" stroke="midnightblue" d="M194.5,-484.12C194.5,-474.82 194.5,-464.06 194.5,-456.71"/>
<polygon fill="midnightblue" stroke="midnightblue" points="191,-484.41 194.5,-494.41 198,-484.41 191,-484.41"/>
</g>
<!-- Node9 -->
<g id="node9" class="node">
<title>Node9</title>
<g id="a_node9"><a xlink:title=" ">
<polygon fill="white" stroke="#bfbfbf" points="110,-551.5 110,-570.5 279,-570.5 279,-551.5 110,-551.5"/>
<text text-anchor="middle" x="194.5" y="-558.5" font-family="Helvetica,sans-Serif" font-size="10.00">map&lt; std::string, Referencer &gt;</text>
</a>
</g>
</g>
<!-- Node9&#45;&gt;Node8 -->
<g id="edge8" class="edge">
<title>Node9&#45;&gt;Node8</title>
<path fill="none" stroke="midnightblue" d="M194.5,-541.12C194.5,-531.82 194.5,-521.06 194.5,-513.71"/>
<polygon fill="midnightblue" stroke="midnightblue" points="191,-541.41 194.5,-551.41 198,-541.41 191,-541.41"/>
</g>
<!-- Node10 -->
<g id="node10" class="node">
<title>Node10</title>
<g id="a_node10"><a xlink:href="classdrain_1_1image_1_1DistanceModelExponential.html" target="_top" xlink:title=" ">
<polygon fill="white" stroke="black" points="0,-213.5 0,-232.5 147,-232.5 147,-213.5 0,-213.5"/>
<text text-anchor="middle" x="73.5" y="-220.5" font-family="Helvetica,sans-Serif" font-size="10.00">DistanceModelExponential</text>
</a>
</g>
</g>
<!-- Node10&#45;&gt;Node3 -->
<g id="edge9" class="edge">
<title>Node10&#45;&gt;Node3</title>
<path fill="none" stroke="#9a32cd" stroke-dasharray="5,2" d="M85.37,-204.89C90.89,-197.79 97.92,-189.86 105.5,-184 114.92,-176.71 126.23,-170.5 136.91,-165.52"/>
<polygon fill="#9a32cd" stroke="#9a32cd" points="82.35,-203.09 79.24,-213.22 87.98,-207.24 82.35,-203.09"/>
<text text-anchor="middle" x="143" y="-187" font-family="Helvetica,sans-Serif" font-size="10.00"> distanceModel</text>
</g>
<!-- Node11&#45;&gt;Node10 -->
<g id="edge10" class="edge">
<title>Node11&#45;&gt;Node10</title>
<path fill="none" stroke="midnightblue" d="M74.16,-260.12C73.99,-250.82 73.79,-240.06 73.66,-232.71"/>
<polygon fill="midnightblue" stroke="midnightblue" points="70.66,-260.47 74.34,-270.41 77.66,-260.34 70.66,-260.47"/>
</g>
<!-- Node12 -->
<g id="node12" class="node">
<title>Node12</title>
<g id="a_node12"><a xlink:href="classdrain_1_1Bidirectional.html" target="_top" xlink:title=" ">
<polygon fill="white" stroke="black" points="13,-370.5 13,-389.5 136,-389.5 136,-370.5 13,-370.5"/>
<text text-anchor="middle" x="74.5" y="-377.5" font-family="Helvetica,sans-Serif" font-size="10.00">Bidirectional&lt; float &gt;</text>
</a>
</g>
</g>
<!-- Node12&#45;&gt;Node11 -->
<g id="edge12" class="edge">
<title>Node12&#45;&gt;Node11</title>
<path fill="none" stroke="#9a32cd" stroke-dasharray="5,2" d="M74.5,-360.22C74.5,-338.95 74.5,-305.22 74.5,-289.54"/>
<polygon fill="#9a32cd" stroke="#9a32cd" points="71,-360.3 74.5,-370.3 78,-360.3 71,-360.3"/>
<text text-anchor="middle" x="102" y="-344" font-family="Helvetica,sans-Serif" font-size="10.00"> vertDec</text>
<text text-anchor="middle" x="102" y="-333" font-family="Helvetica,sans-Serif" font-size="10.00">horzDec</text>
<text text-anchor="middle" x="102" y="-322" font-family="Helvetica,sans-Serif" font-size="10.00">vertRadius</text>
<text text-anchor="middle" x="102" y="-311" font-family="Helvetica,sans-Serif" font-size="10.00">horzRadius</text>
</g>
<!-- Node13 -->
<g id="node13" class="node">
<title>Node13</title>
<g id="a_node13"><a xlink:href="classdrain_1_1UniTuple.html" target="_top" xlink:title=" ">
<polygon fill="white" stroke="black" points="16.5,-437.5 16.5,-456.5 132.5,-456.5 132.5,-437.5 16.5,-437.5"/>
<text text-anchor="middle" x="74.5" y="-444.5" font-family="Helvetica,sans-Serif" font-size="10.00">UniTuple&lt; float, 2 &gt;</text>
</a>
</g>
</g>
<!-- Node13&#45;&gt;Node12 -->
<g id="edge13" class="edge">
<title>Node13&#45;&gt;Node12</title>
<path fill="none" stroke="midnightblue" d="M74.5,-427.04C74.5,-414.67 74.5,-399.12 74.5,-389.63"/>
<polygon fill="midnightblue" stroke="midnightblue" points="71,-427.23 74.5,-437.23 78,-427.23 71,-427.23"/>
</g>
<!-- Node14 -->
<g id="node14" class="node">
<title>Node14</title>
<g id="a_node14"><a xlink:href="classdrain_1_1Range.html" target="_top" xlink:title=" ">
<polygon fill="white" stroke="black" points="277,-141 277,-160 380,-160 380,-141 277,-141"/>
<text text-anchor="middle" x="328.5" y="-148" font-family="Helvetica,sans-Serif" font-size="10.00">Range&lt; double &gt;</text>
</a>
</g>
</g>
<!-- Node14&#45;&gt;Node2 -->
<g id="edge14" class="edge">
<title>Node14&#45;&gt;Node2</title>
<path fill="none" stroke="#9a32cd" stroke-dasharray="5,2" d="M312.1,-133.52C298.13,-119.91 278.25,-100.54 264.89,-87.52"/>
<polygon fill="#9a32cd" stroke="#9a32cd" points="309.95,-136.31 319.55,-140.78 314.83,-131.3 309.95,-136.31"/>
<text text-anchor="middle" x="334" y="-109" font-family="Helvetica,sans-Serif" font-size="10.00"> alphaThreshold</text>
</g>
<!-- Node15 -->
<g id="node15" class="node">
<title>Node15</title>
<g id="a_node15"><a xlink:href="classdrain_1_1UniTuple.html" target="_top" xlink:title=" ">
<polygon fill="white" stroke="black" points="265.5,-213.5 265.5,-232.5 391.5,-232.5 391.5,-213.5 265.5,-213.5"/>
<text text-anchor="middle" x="328.5" y="-220.5" font-family="Helvetica,sans-Serif" font-size="10.00">UniTuple&lt; double, 2 &gt;</text>
</a>
</g>
</g>
<!-- Node15&#45;&gt;Node14 -->
<g id="edge15" class="edge">
<title>Node15&#45;&gt;Node14</title>
<path fill="none" stroke="midnightblue" d="M328.5,-202.94C328.5,-189.03 328.5,-170.82 328.5,-160.22"/>
<polygon fill="midnightblue" stroke="midnightblue" points="325,-203.36 328.5,-213.36 332,-203.36 325,-203.36"/>
</g>
</g>
</svg>
