<?xml version="1.0" encoding="UTF-8" standalone="no"?>
<!DOCTYPE svg PUBLIC "-//W3C//DTD SVG 1.1//EN"
 "http://www.w3.org/Graphics/SVG/1.1/DTD/svg11.dtd">
<!-- Generated by graphviz version 2.43.0 (0)
 -->
<!-- Title: PolarSlidingAvgOp Pages: 1 -->
<!--zoomable 402 -->
<svg id="main" version="1.1" xmlns="http://www.w3.org/2000/svg" xmlns:xlink="http://www.w3.org/1999/xlink" xml:space="preserve" onload="init(evt)">
<style type="text/css"><![CDATA[
.edge:hover path { stroke: red; }
.edge:hover polygon { stroke: red; fill: red; }
]]></style>
<script type="text/javascript"><![CDATA[
var edges = document.getElementsByTagName('g');
if (edges && edges.length) {
  for (var i=0;i<edges.length;i++) {
    if (edges[i].id.substr(0,4)=='edge') {
      edges[i].setAttribute('class','edge');
    }
  }
}
]]></script>
        <defs>
                <circle id="rim" cx="0" cy="0" r="7"/>
                <circle id="rim2" cx="0" cy="0" r="3.5"/>
                <g id="zoomPlus">
                        <use xlink:href="#rim" fill="#404040">
                                <set attributeName="fill" to="#808080" begin="zoomplus.mouseover" end="zoomplus.mouseout"/>
                        </use>
                        <path d="M-4,0h8M0,-4v8" fill="none" stroke="white" stroke-width="1.5" pointer-events="none"/>
                </g>
                <g id="zoomMin">
                        <use xlink:href="#rim" fill="#404040">
                                <set attributeName="fill" to="#808080" begin="zoomminus.mouseover" end="zoomminus.mouseout"/>
                        </use>
                        <path d="M-4,0h8" fill="none" stroke="white" stroke-width="1.5" pointer-events="none"/>
                </g>
                <g id="dirArrow">
                        <path fill="none" stroke="white" stroke-width="1.5" d="M0,-3.0v7 M-2.5,-0.5L0,-3.0L2.5,-0.5"/>
                </g>
               <g id="resetDef">
                       <use xlink:href="#rim2" fill="#404040">
                               <set attributeName="fill" to="#808080" begin="reset.mouseover" end="reset.mouseout"/>
                       </use>
               </g>
        </defs>

<script type="text/javascript">
var viewWidth = 2664;
var viewHeight = 402;
var sectionId = 'dynsection-1';
</script>
<script xlink:href="svgpan.js"/>
<svg id="graph" class="graph">
<g id="viewport">
<title>PolarSlidingAvgOp</title>
<polygon fill="white" stroke="transparent" points="-4,4 -4,-397.5 2660,-397.5 2660,4 -4,4"/>
<!-- Node1 -->
<g id="node1" class="node">
<title>Node1</title>
<g id="a_node1"><a xlink:title=" ">
<polygon fill="#bfbfbf" stroke="black" points="2550,-293.5 2550,-312.5 2656,-312.5 2656,-293.5 2550,-293.5"/>
<text text-anchor="middle" x="2603" y="-300.5" font-family="Helvetica,sans-Serif" font-size="10.00">PolarSlidingAvgOp</text>
</a>
</g>
</g>
<!-- Node2 -->
<g id="node2" class="node">
<title>Node2</title>
<g id="a_node2"><a xlink:href="classrack_1_1PolarSlidingWindowOp.html" target="_top" xlink:title=" ">
<polygon fill="white" stroke="black" points="2321,-282.5 2321,-323.5 2513,-323.5 2513,-282.5 2321,-282.5"/>
<text text-anchor="start" x="2329" y="-311.5" font-family="Helvetica,sans-Serif" font-size="10.00">PolarSlidingWindowOp</text>
<text text-anchor="start" x="2329" y="-300.5" font-family="Helvetica,sans-Serif" font-size="10.00">&lt; RadarWindowAvg&lt; RadarWindow</text>
<text text-anchor="middle" x="2417" y="-289.5" font-family="Helvetica,sans-Serif" font-size="10.00">Config &gt; &gt;</text>
</a>
</g>
</g>
<!-- Node2&#45;&gt;Node1 -->
<g id="edge1" class="edge">
<title>Node2&#45;&gt;Node1</title>
<path fill="none" stroke="midnightblue" d="M2523.26,-303C2532.45,-303 2541.46,-303 2549.92,-303"/>
<polygon fill="midnightblue" stroke="midnightblue" points="2523.23,-299.5 2513.23,-303 2523.23,-306.5 2523.23,-299.5"/>
</g>
<!-- Node3 -->
<g id="node3" class="node">
<title>Node3</title>
<g id="a_node3"><a xlink:href="classrack_1_1PolarProductOp.html" target="_top" xlink:title="Base class for flat (2D) products computed in the polar coordinate system. Volume is used as input.">
<polygon fill="white" stroke="black" points="1226.5,-326.5 1226.5,-345.5 1318.5,-345.5 1318.5,-326.5 1226.5,-326.5"/>
<text text-anchor="middle" x="1272.5" y="-333.5" font-family="Helvetica,sans-Serif" font-size="10.00">PolarProductOp</text>
</a>
</g>
</g>
<!-- Node3&#45;&gt;Node2 -->
<g id="edge2" class="edge">
<title>Node3&#45;&gt;Node2</title>
<path fill="none" stroke="midnightblue" d="M1328.71,-332.8C1389.6,-329.55 1490.51,-325 1577.5,-325 1577.5,-325 1577.5,-325 2170.5,-325 2220.25,-325 2275.44,-320.46 2320.87,-315.51"/>
<polygon fill="midnightblue" stroke="midnightblue" points="1328.35,-329.32 1318.55,-333.35 1328.72,-336.31 1328.35,-329.32"/>
</g>
<!-- Node4 -->
<g id="node4" class="node">
<title>Node4</title>
<g id="a_node4"><a xlink:href="classrack_1_1VolumeOp.html" target="_top" xlink:title=" ">
<polygon fill="white" stroke="black" points="917,-363.5 917,-382.5 1059,-382.5 1059,-363.5 917,-363.5"/>
<text text-anchor="middle" x="988" y="-370.5" font-family="Helvetica,sans-Serif" font-size="10.00">VolumeOp&lt; PolarODIM &gt;</text>
</a>
</g>
</g>
<!-- Node4&#45;&gt;Node3 -->
<g id="edge3" class="edge">
<title>Node4&#45;&gt;Node3</title>
<path fill="none" stroke="midnightblue" d="M1069.19,-362.5C1120.12,-355.83 1184.16,-347.44 1226.39,-341.91"/>
<polygon fill="midnightblue" stroke="midnightblue" points="1068.66,-359.04 1059.19,-363.81 1069.56,-365.98 1068.66,-359.04"/>
</g>
<!-- Node5 -->
<g id="node5" class="node">
<title>Node5</title>
<g id="a_node5"><a xlink:href="classdrain_1_1image_1_1ProductOp.html" target="_top" xlink:title=" ">
<polygon fill="white" stroke="black" points="625,-363 625,-393 787,-393 787,-363 625,-363"/>
<text text-anchor="start" x="633" y="-381" font-family="Helvetica,sans-Serif" font-size="10.00">ProductOp&lt; const PolarODIM,</text>
<text text-anchor="middle" x="706" y="-370" font-family="Helvetica,sans-Serif" font-size="10.00"> PolarODIM &gt;</text>
</a>
</g>
</g>
<!-- Node5&#45;&gt;Node4 -->
<g id="edge4" class="edge">
<title>Node5&#45;&gt;Node4</title>
<path fill="none" stroke="midnightblue" d="M797.46,-376.38C836.14,-375.69 880.61,-374.9 916.75,-374.25"/>
<polygon fill="midnightblue" stroke="midnightblue" points="797.17,-372.89 787.24,-376.57 797.3,-379.89 797.17,-372.89"/>
</g>
<!-- Node6 -->
<g id="node6" class="node">
<title>Node6</title>
<g id="a_node6"><a xlink:href="classdrain_1_1image_1_1CoordinatePolicy.html" target="_top" xlink:title="Policies for coordinate underflows and overflows.">
<polygon fill="white" stroke="black" points="938.5,-264.5 938.5,-283.5 1037.5,-283.5 1037.5,-264.5 938.5,-264.5"/>
<text text-anchor="middle" x="988" y="-271.5" font-family="Helvetica,sans-Serif" font-size="10.00">CoordinatePolicy</text>
</a>
</g>
</g>
<!-- Node6&#45;&gt;Node3 -->
<g id="edge5" class="edge">
<title>Node6&#45;&gt;Node3</title>
<path fill="none" stroke="#9a32cd" stroke-dasharray="5,2" d="M1040.88,-285.82C1079.49,-294.56 1133.5,-306.7 1181,-317 1195.75,-320.2 1211.87,-323.61 1226.36,-326.65"/>
<polygon fill="#9a32cd" stroke="#9a32cd" points="1041.44,-282.35 1030.91,-283.56 1039.89,-289.18 1041.44,-282.35"/>
<text text-anchor="middle" x="1120" y="-315" font-family="Helvetica,sans-Serif" font-size="10.00"> polarCoordPolicy</text>
</g>
<!-- Node33 -->
<g id="node33" class="node">
<title>Node33</title>
<g id="a_node33"><a xlink:href="classdrain_1_1image_1_1CoordinateHandler2D.html" target="_top" xlink:title=" ">
<polygon fill="white" stroke="black" points="1211.5,-191.5 1211.5,-210.5 1333.5,-210.5 1333.5,-191.5 1211.5,-191.5"/>
<text text-anchor="middle" x="1272.5" y="-198.5" font-family="Helvetica,sans-Serif" font-size="10.00">CoordinateHandler2D</text>
</a>
</g>
</g>
<!-- Node6&#45;&gt;Node33 -->
<g id="edge37" class="edge">
<title>Node6&#45;&gt;Node33</title>
<path fill="none" stroke="#9a32cd" stroke-dasharray="5,2" d="M1035.91,-261.88C1091.67,-247.47 1183.59,-223.72 1234.56,-210.55"/>
<polygon fill="#9a32cd" stroke="#9a32cd" points="1034.74,-258.57 1025.93,-264.46 1036.49,-265.34 1034.74,-258.57"/>
<text text-anchor="middle" x="1120" y="-254" font-family="Helvetica,sans-Serif" font-size="10.00"> policy</text>
</g>
<!-- Node7 -->
<g id="node7" class="node">
<title>Node7</title>
<g id="a_node7"><a xlink:href="classdrain_1_1UniTuple.html" target="_top" xlink:title=" ">
<polygon fill="white" stroke="black" points="647.5,-275 647.5,-305 764.5,-305 764.5,-275 647.5,-275"/>
<text text-anchor="start" x="655.5" y="-293" font-family="Helvetica,sans-Serif" font-size="10.00">UniTuple&lt; coord_pol</text>
<text text-anchor="middle" x="706" y="-282" font-family="Helvetica,sans-Serif" font-size="10.00">_t, 4 &gt;</text>
</a>
</g>
</g>
<!-- Node7&#45;&gt;Node6 -->
<g id="edge6" class="edge">
<title>Node7&#45;&gt;Node6</title>
<path fill="none" stroke="midnightblue" d="M774.85,-286.12C825.34,-283.24 893.06,-279.37 938.27,-276.78"/>
<polygon fill="midnightblue" stroke="midnightblue" points="774.46,-282.64 764.68,-286.7 774.86,-289.63 774.46,-282.64"/>
</g>
<!-- Node8 -->
<g id="node8" class="node">
<title>Node8</title>
<g id="a_node8"><a xlink:href="classdrain_1_1Dictionary2.html" target="_top" xlink:title="Two&#45;way mapping between strings and objects of template class T.">
<polygon fill="white" stroke="black" points="648.5,-236.5 648.5,-255.5 763.5,-255.5 763.5,-236.5 648.5,-236.5"/>
<text text-anchor="middle" x="706" y="-243.5" font-family="Helvetica,sans-Serif" font-size="10.00">Dictionary2&lt; K, V &gt;</text>
</a>
</g>
</g>
<!-- Node8&#45;&gt;Node6 -->
<g id="edge7" class="edge">
<title>Node8&#45;&gt;Node6</title>
<path fill="none" stroke="#9a32cd" stroke-dasharray="5,2" d="M773.88,-251.94C810.79,-255.31 857.45,-259.69 899,-264 911.69,-265.32 925.41,-266.83 938.14,-268.28"/>
<polygon fill="#9a32cd" stroke="#9a32cd" points="774.01,-248.44 763.74,-251.02 773.38,-255.41 774.01,-248.44"/>
<text text-anchor="middle" x="852" y="-267" font-family="Helvetica,sans-Serif" font-size="10.00"> dict</text>
</g>
<!-- Node9 -->
<g id="node9" class="node">
<title>Node9</title>
<g id="a_node9"><a xlink:title=" ">
<polygon fill="white" stroke="#bfbfbf" points="412,-231 412,-261 516,-261 516,-231 412,-231"/>
<text text-anchor="start" x="420" y="-249" font-family="Helvetica,sans-Serif" font-size="10.00">list&lt; std::pair&lt; K,</text>
<text text-anchor="middle" x="464" y="-238" font-family="Helvetica,sans-Serif" font-size="10.00"> V &gt; &gt;</text>
</a>
</g>
</g>
<!-- Node9&#45;&gt;Node8 -->
<g id="edge8" class="edge">
<title>Node9&#45;&gt;Node8</title>
<path fill="none" stroke="midnightblue" d="M526.5,-246C564.08,-246 611.79,-246 648.43,-246"/>
<polygon fill="midnightblue" stroke="midnightblue" points="526.19,-242.5 516.19,-246 526.19,-249.5 526.19,-242.5"/>
</g>
<!-- Node10 -->
<g id="node10" class="node">
<title>Node10</title>
<g id="a_node10"><a xlink:href="classrack_1_1RadarWindowAvg.html" target="_top" xlink:title=" ">
<polygon fill="white" stroke="black" points="2079,-266 2079,-296 2260,-296 2260,-266 2079,-266"/>
<text text-anchor="start" x="2087" y="-284" font-family="Helvetica,sans-Serif" font-size="10.00">RadarWindowAvg&lt; RadarWindow</text>
<text text-anchor="middle" x="2169.5" y="-273" font-family="Helvetica,sans-Serif" font-size="10.00">Config &gt;</text>
</a>
</g>
</g>
<!-- Node10&#45;&gt;Node2 -->
<g id="edge9" class="edge">
<title>Node10&#45;&gt;Node2</title>
<path fill="none" stroke="#9a32cd" stroke-dasharray="5,2" d="M2270.44,-289.96C2287.07,-291.45 2304.28,-292.99 2320.79,-294.47"/>
<polygon fill="#9a32cd" stroke="#9a32cd" points="2270.45,-286.44 2260.17,-289.04 2269.82,-293.41 2270.45,-286.44"/>
<text text-anchor="middle" x="2290.5" y="-295" font-family="Helvetica,sans-Serif" font-size="10.00"> conf</text>
</g>
<!-- Node11 -->
<g id="node11" class="node">
<title>Node11</title>
<g id="a_node11"><a xlink:href="classrack_1_1SlidingRadarWindow.html" target="_top" xlink:title=" ">
<polygon fill="white" stroke="black" points="1904,-242 1904,-272 2042,-272 2042,-242 1904,-242"/>
<text text-anchor="start" x="1912" y="-260" font-family="Helvetica,sans-Serif" font-size="10.00">SlidingRadarWindow</text>
<text text-anchor="middle" x="1973" y="-249" font-family="Helvetica,sans-Serif" font-size="10.00">&lt; RadarWindowConfig &gt;</text>
</a>
</g>
</g>
<!-- Node11&#45;&gt;Node10 -->
<g id="edge10" class="edge">
<title>Node11&#45;&gt;Node10</title>
<path fill="none" stroke="midnightblue" d="M2052.24,-266.65C2061.04,-267.74 2070.05,-268.85 2078.98,-269.95"/>
<polygon fill="midnightblue" stroke="midnightblue" points="2052.38,-263.15 2042.03,-265.39 2051.52,-270.09 2052.38,-263.15"/>
</g>
<!-- Node12 -->
<g id="node12" class="node">
<title>Node12</title>
<g id="a_node12"><a xlink:href="classdrain_1_1image_1_1SlidingWindow.html" target="_top" xlink:title=" ">
<polygon fill="white" stroke="black" points="1700,-149 1700,-179 1867,-179 1867,-149 1700,-149"/>
<text text-anchor="start" x="1708" y="-167" font-family="Helvetica,sans-Serif" font-size="10.00">SlidingWindow&lt; RadarWindow</text>
<text text-anchor="middle" x="1783.5" y="-156" font-family="Helvetica,sans-Serif" font-size="10.00">Config, RadarWindowCore &gt;</text>
</a>
</g>
</g>
<!-- Node12&#45;&gt;Node11 -->
<g id="edge11" class="edge">
<title>Node12&#45;&gt;Node11</title>
<path fill="none" stroke="midnightblue" d="M1824.04,-183.61C1859.06,-200.98 1909.47,-225.98 1941.47,-241.86"/>
<polygon fill="midnightblue" stroke="midnightblue" points="1825.56,-180.46 1815.04,-179.15 1822.45,-186.73 1825.56,-180.46"/>
</g>
<!-- Node12&#45;&gt;Node12 -->
<g id="edge39" class="edge">
<title>Node12&#45;&gt;Node12</title>
<path fill="none" stroke="#9a32cd" stroke-dasharray="5,2" d="M1765.38,-189.46C1767.63,-194.18 1773.67,-197.5 1783.5,-197.5 1799.64,-197.5 1805.56,-188.56 1801.28,-179.16"/>
<polygon fill="#9a32cd" stroke="#9a32cd" points="1768.88,-189.27 1765.72,-179.16 1761.89,-189.03 1768.88,-189.27"/>
<text text-anchor="middle" x="1783.5" y="-222.5" font-family="Helvetica,sans-Serif" font-size="10.00"> fill</text>
<text text-anchor="middle" x="1783.5" y="-211.5" font-family="Helvetica,sans-Serif" font-size="10.00">updateVert</text>
<text text-anchor="middle" x="1783.5" y="-200.5" font-family="Helvetica,sans-Serif" font-size="10.00">updateHorz</text>
</g>
<!-- Node13 -->
<g id="node13" class="node">
<title>Node13</title>
<g id="a_node13"><a xlink:href="classdrain_1_1image_1_1Window.html" target="_top" xlink:title=" ">
<polygon fill="white" stroke="black" points="1494,-149 1494,-179 1663,-179 1663,-149 1494,-149"/>
<text text-anchor="start" x="1502" y="-167" font-family="Helvetica,sans-Serif" font-size="10.00">Window&lt; RadarWindowConfig,</text>
<text text-anchor="middle" x="1578.5" y="-156" font-family="Helvetica,sans-Serif" font-size="10.00"> RadarWindowCore &gt;</text>
</a>
</g>
</g>
<!-- Node13&#45;&gt;Node12 -->
<g id="edge12" class="edge">
<title>Node13&#45;&gt;Node12</title>
<path fill="none" stroke="midnightblue" d="M1673.25,-164C1682.16,-164 1691.14,-164 1699.93,-164"/>
<polygon fill="midnightblue" stroke="midnightblue" points="1673.24,-160.5 1663.24,-164 1673.24,-167.5 1673.24,-160.5"/>
</g>
<!-- Node14 -->
<g id="node14" class="node">
<title>Node14</title>
<g id="a_node14"><a xlink:title=" ">
<polygon fill="white" stroke="#bfbfbf" points="1219,-77.5 1219,-96.5 1326,-96.5 1326,-77.5 1219,-77.5"/>
<text text-anchor="middle" x="1272.5" y="-84.5" font-family="Helvetica,sans-Serif" font-size="10.00">RadarWindowCore</text>
</a>
</g>
</g>
<!-- Node14&#45;&gt;Node13 -->
<g id="edge13" class="edge">
<title>Node14&#45;&gt;Node13</title>
<path fill="none" stroke="midnightblue" d="M1330.58,-98.64C1341.68,-101 1353.22,-103.52 1364,-106 1414.01,-117.5 1426.5,-120.5 1476,-134 1493.02,-138.64 1511.55,-144.02 1528.06,-148.93"/>
<polygon fill="midnightblue" stroke="midnightblue" points="1331.05,-95.16 1320.55,-96.52 1329.61,-102.01 1331.05,-95.16"/>
</g>
<!-- Node15 -->
<g id="node15" class="node">
<title>Node15</title>
<g id="a_node15"><a xlink:href="classdrain_1_1Range.html" target="_top" xlink:title=" ">
<polygon fill="white" stroke="black" points="946.5,-208.5 946.5,-227.5 1029.5,-227.5 1029.5,-208.5 946.5,-208.5"/>
<text text-anchor="middle" x="988" y="-215.5" font-family="Helvetica,sans-Serif" font-size="10.00">Range&lt; int &gt;</text>
</a>
</g>
</g>
<!-- Node15&#45;&gt;Node13 -->
<g id="edge14" class="edge">
<title>Node15&#45;&gt;Node13</title>
<path fill="none" stroke="#9a32cd" stroke-dasharray="5,2" d="M1039.55,-228.8C1051.76,-230.96 1064.8,-232.9 1077,-234 1254.12,-249.97 1304.08,-249.49 1476,-204 1499.62,-197.75 1525.21,-187.64 1544.78,-179.15"/>
<polygon fill="#9a32cd" stroke="#9a32cd" points="1040.01,-225.32 1029.54,-226.94 1038.73,-232.2 1040.01,-225.32"/>
<text text-anchor="middle" x="1272.5" y="-258" font-family="Helvetica,sans-Serif" font-size="10.00"> jRange</text>
<text text-anchor="middle" x="1272.5" y="-247" font-family="Helvetica,sans-Serif" font-size="10.00">iRange</text>
</g>
<!-- Node15&#45;&gt;Node33 -->
<g id="edge35" class="edge">
<title>Node15&#45;&gt;Node33</title>
<path fill="none" stroke="#9a32cd" stroke-dasharray="5,2" d="M1039.59,-208.2C1046.39,-205.77 1053.06,-202.75 1059,-199 1069.39,-192.43 1065.83,-183.14 1077,-178 1119.02,-158.67 1135.79,-172.23 1181,-182 1195.44,-185.12 1211.19,-188.45 1225.44,-191.44"/>
<polygon fill="#9a32cd" stroke="#9a32cd" points="1038.08,-205 1029.59,-211.35 1040.18,-211.68 1038.08,-205"/>
<text text-anchor="middle" x="1120" y="-192" font-family="Helvetica,sans-Serif" font-size="10.00"> yRange</text>
<text text-anchor="middle" x="1120" y="-181" font-family="Helvetica,sans-Serif" font-size="10.00">xRange</text>
</g>
<!-- Node16 -->
<g id="node16" class="node">
<title>Node16</title>
<g id="a_node16"><a xlink:href="classdrain_1_1UniTuple.html" target="_top" xlink:title=" ">
<polygon fill="white" stroke="black" points="411,-107.5 411,-126.5 517,-126.5 517,-107.5 411,-107.5"/>
<text text-anchor="middle" x="464" y="-114.5" font-family="Helvetica,sans-Serif" font-size="10.00">UniTuple&lt; int, 2 &gt;</text>
</a>
</g>
</g>
<!-- Node16&#45;&gt;Node15 -->
<g id="edge15" class="edge">
<title>Node16&#45;&gt;Node15</title>
<path fill="none" stroke="midnightblue" d="M490.38,-131.48C521.15,-148.27 575.1,-175.25 625,-188 738.8,-217.08 878.62,-219.72 946.37,-219.01"/>
<polygon fill="midnightblue" stroke="midnightblue" points="492.05,-128.41 481.6,-126.63 488.66,-134.53 492.05,-128.41"/>
</g>
<!-- Node28 -->
<g id="node28" class="node">
<title>Node28</title>
<g id="a_node28"><a xlink:href="classdrain_1_1Frame2D.html" target="_top" xlink:title=" ">
<polygon fill="white" stroke="black" points="658,-107.5 658,-126.5 754,-126.5 754,-107.5 658,-107.5"/>
<text text-anchor="middle" x="706" y="-114.5" font-family="Helvetica,sans-Serif" font-size="10.00">Frame2D&lt; int &gt;</text>
</a>
</g>
</g>
<!-- Node16&#45;&gt;Node28 -->
<g id="edge28" class="edge">
<title>Node16&#45;&gt;Node28</title>
<path fill="none" stroke="midnightblue" d="M527.18,-117C568,-117 620.55,-117 657.91,-117"/>
<polygon fill="midnightblue" stroke="midnightblue" points="527.08,-113.5 517.08,-117 527.08,-120.5 527.08,-113.5"/>
</g>
<!-- Node32 -->
<g id="node32" class="node">
<title>Node32</title>
<g id="a_node32"><a xlink:href="structdrain_1_1Point2D.html" target="_top" xlink:title=" ">
<polygon fill="white" stroke="black" points="1227.5,-38.5 1227.5,-57.5 1317.5,-57.5 1317.5,-38.5 1227.5,-38.5"/>
<text text-anchor="middle" x="1272.5" y="-45.5" font-family="Helvetica,sans-Serif" font-size="10.00">Point2D&lt; int &gt;</text>
</a>
</g>
</g>
<!-- Node16&#45;&gt;Node32 -->
<g id="edge33" class="edge">
<title>Node16&#45;&gt;Node32</title>
<path fill="none" stroke="midnightblue" d="M521.74,-105.49C589.01,-92.4 704.64,-71.58 805,-62 959.66,-47.23 1144.36,-46.73 1227.32,-47.41"/>
<polygon fill="midnightblue" stroke="midnightblue" points="520.91,-102.09 511.77,-107.45 522.26,-108.96 520.91,-102.09"/>
</g>
<!-- Node17 -->
<g id="node17" class="node">
<title>Node17</title>
<g id="a_node17"><a xlink:href="structdrain_1_1UnaryFunctor.html" target="_top" xlink:title=" ">
<polygon fill="white" stroke="black" points="1231.5,-288.5 1231.5,-307.5 1313.5,-307.5 1313.5,-288.5 1231.5,-288.5"/>
<text text-anchor="middle" x="1272.5" y="-295.5" font-family="Helvetica,sans-Serif" font-size="10.00">UnaryFunctor</text>
</a>
</g>
</g>
<!-- Node17&#45;&gt;Node13 -->
<g id="edge16" class="edge">
<title>Node17&#45;&gt;Node13</title>
<path fill="none" stroke="#9a32cd" stroke-dasharray="5,2" d="M1323.87,-297.15C1366.49,-294.59 1428.11,-286.44 1476,-262 1515.49,-241.85 1549.88,-201.2 1566.64,-179.12"/>
<polygon fill="#9a32cd" stroke="#9a32cd" points="1323.54,-293.66 1313.73,-297.67 1323.9,-300.65 1323.54,-293.66"/>
<text text-anchor="middle" x="1429" y="-293" font-family="Helvetica,sans-Serif" font-size="10.00"> myFunctor</text>
</g>
<!-- Node18 -->
<g id="node18" class="node">
<title>Node18</title>
<g id="a_node18"><a xlink:href="classdrain_1_1Functor.html" target="_top" xlink:title="Base class for sequential computations. Optional scaling utilities.">
<polygon fill="white" stroke="black" points="961.5,-308.5 961.5,-327.5 1014.5,-327.5 1014.5,-308.5 961.5,-308.5"/>
<text text-anchor="middle" x="988" y="-315.5" font-family="Helvetica,sans-Serif" font-size="10.00">Functor</text>
</a>
</g>
</g>
<!-- Node18&#45;&gt;Node17 -->
<g id="edge17" class="edge">
<title>Node18&#45;&gt;Node17</title>
<path fill="none" stroke="midnightblue" d="M1024.81,-315.46C1077.66,-311.72 1176.22,-304.75 1231.41,-300.84"/>
<polygon fill="midnightblue" stroke="midnightblue" points="1024.3,-311.99 1014.57,-316.19 1024.79,-318.97 1024.3,-311.99"/>
</g>
<!-- Node19 -->
<g id="node19" class="node">
<title>Node19</title>
<g id="a_node19"><a xlink:href="classdrain_1_1BeanLike.html" target="_top" xlink:title="Something which has a name, a description and possibly some parameters of varying type.">
<polygon fill="white" stroke="black" points="675.5,-324.5 675.5,-343.5 736.5,-343.5 736.5,-324.5 675.5,-324.5"/>
<text text-anchor="middle" x="706" y="-331.5" font-family="Helvetica,sans-Serif" font-size="10.00">BeanLike</text>
</a>
</g>
</g>
<!-- Node19&#45;&gt;Node18 -->
<g id="edge18" class="edge">
<title>Node19&#45;&gt;Node18</title>
<path fill="none" stroke="midnightblue" d="M747.01,-331.71C805.41,-328.38 912.33,-322.27 961.29,-319.47"/>
<polygon fill="midnightblue" stroke="midnightblue" points="746.48,-328.24 736.7,-332.3 746.88,-335.23 746.48,-328.24"/>
</g>
<!-- Node20 -->
<g id="node20" class="node">
<title>Node20</title>
<g id="a_node20"><a xlink:href="classdrain_1_1ReferenceMap.html" target="_top" xlink:title=" ">
<polygon fill="white" stroke="black" points="420.5,-324.5 420.5,-343.5 507.5,-343.5 507.5,-324.5 420.5,-324.5"/>
<text text-anchor="middle" x="464" y="-331.5" font-family="Helvetica,sans-Serif" font-size="10.00">ReferenceMap</text>
</a>
</g>
</g>
<!-- Node20&#45;&gt;Node19 -->
<g id="edge19" class="edge">
<title>Node20&#45;&gt;Node19</title>
<path fill="none" stroke="#9a32cd" stroke-dasharray="5,2" d="M517.91,-334C566.25,-334 636.01,-334 675.26,-334"/>
<polygon fill="#9a32cd" stroke="#9a32cd" points="517.63,-330.5 507.63,-334 517.63,-337.5 517.63,-330.5"/>
<text text-anchor="middle" x="577" y="-337" font-family="Helvetica,sans-Serif" font-size="10.00"> parameters</text>
</g>
<!-- Node21 -->
<g id="node21" class="node">
<title>Node21</title>
<g id="a_node21"><a xlink:href="classdrain_1_1SmartMap.html" target="_top" xlink:title=" ">
<polygon fill="white" stroke="black" points="212.5,-324.5 212.5,-343.5 355.5,-343.5 355.5,-324.5 212.5,-324.5"/>
<text text-anchor="middle" x="284" y="-331.5" font-family="Helvetica,sans-Serif" font-size="10.00">SmartMap&lt; Referencer &gt;</text>
</a>
</g>
</g>
<!-- Node21&#45;&gt;Node20 -->
<g id="edge20" class="edge">
<title>Node21&#45;&gt;Node20</title>
<path fill="none" stroke="midnightblue" d="M365.72,-334C384.61,-334 403.99,-334 420.44,-334"/>
<polygon fill="midnightblue" stroke="midnightblue" points="365.61,-330.5 355.61,-334 365.61,-337.5 365.61,-330.5"/>
</g>
<!-- Node22 -->
<g id="node22" class="node">
<title>Node22</title>
<g id="a_node22"><a xlink:title=" ">
<polygon fill="white" stroke="#bfbfbf" points="0,-324.5 0,-343.5 169,-343.5 169,-324.5 0,-324.5"/>
<text text-anchor="middle" x="84.5" y="-331.5" font-family="Helvetica,sans-Serif" font-size="10.00">map&lt; std::string, Referencer &gt;</text>
</a>
</g>
</g>
<!-- Node22&#45;&gt;Node21 -->
<g id="edge21" class="edge">
<title>Node22&#45;&gt;Node21</title>
<path fill="none" stroke="midnightblue" d="M179.37,-334C190.42,-334 201.55,-334 212.2,-334"/>
<polygon fill="midnightblue" stroke="midnightblue" points="179.26,-330.5 169.26,-334 179.26,-337.5 179.26,-330.5"/>
</g>
<!-- Node23 -->
<g id="node23" class="node">
<title>Node23</title>
<g id="a_node23"><a xlink:href="classrack_1_1RadarWindowConfig.html" target="_top" xlink:title=" ">
<polygon fill="white" stroke="black" points="1214.5,-115.5 1214.5,-134.5 1330.5,-134.5 1330.5,-115.5 1214.5,-115.5"/>
<text text-anchor="middle" x="1272.5" y="-122.5" font-family="Helvetica,sans-Serif" font-size="10.00">RadarWindowConfig</text>
</a>
</g>
</g>
<!-- Node23&#45;&gt;Node13 -->
<g id="edge22" class="edge">
<title>Node23&#45;&gt;Node13</title>
<path fill="none" stroke="#9a32cd" stroke-dasharray="5,2" d="M1340.76,-132.48C1380.2,-136.99 1430.97,-143 1476,-149 1481.83,-149.78 1487.84,-150.6 1493.89,-151.45"/>
<polygon fill="#9a32cd" stroke="#9a32cd" points="1341.06,-128.99 1330.73,-131.34 1340.27,-135.95 1341.06,-128.99"/>
<text text-anchor="middle" x="1429" y="-152" font-family="Helvetica,sans-Serif" font-size="10.00"> conf</text>
</g>
<!-- Node24 -->
<g id="node24" class="node">
<title>Node24</title>
<g id="a_node24"><a xlink:href="classdrain_1_1image_1_1WindowConfig.html" target="_top" xlink:title="Base class for configurations applied in image processing windows, e.g. for operators of type WindowO...">
<polygon fill="white" stroke="black" points="944.5,-76.5 944.5,-95.5 1031.5,-95.5 1031.5,-76.5 944.5,-76.5"/>
<text text-anchor="middle" x="988" y="-83.5" font-family="Helvetica,sans-Serif" font-size="10.00">WindowConfig</text>
</a>
</g>
</g>
<!-- Node24&#45;&gt;Node23 -->
<g id="edge23" class="edge">
<title>Node24&#45;&gt;Node23</title>
<path fill="none" stroke="midnightblue" d="M1041.7,-93.28C1090.81,-100.06 1163.87,-110.14 1214.36,-117.11"/>
<polygon fill="midnightblue" stroke="midnightblue" points="1041.98,-89.78 1031.6,-91.88 1041.03,-96.72 1041.98,-89.78"/>
</g>
<!-- Node25 -->
<g id="node25" class="node">
<title>Node25</title>
<g id="a_node25"><a xlink:href="classdrain_1_1VariableMap.html" target="_top" xlink:title="A map of Variables.">
<polygon fill="white" stroke="black" points="667,-0.5 667,-19.5 745,-19.5 745,-0.5 667,-0.5"/>
<text text-anchor="middle" x="706" y="-7.5" font-family="Helvetica,sans-Serif" font-size="10.00">VariableMap</text>
</a>
</g>
</g>
<!-- Node25&#45;&gt;Node24 -->
<g id="edge24" class="edge">
<title>Node25&#45;&gt;Node24</title>
<path fill="none" stroke="#9a32cd" stroke-dasharray="5,2" d="M752.11,-22.24C807.72,-37.34 901.09,-62.68 951.74,-76.43"/>
<polygon fill="#9a32cd" stroke="#9a32cd" points="752.75,-18.79 742.18,-19.55 750.91,-25.55 752.75,-18.79"/>
<text text-anchor="middle" x="852" y="-65" font-family="Helvetica,sans-Serif" font-size="10.00"> functorParameters</text>
</g>
<!-- Node26 -->
<g id="node26" class="node">
<title>Node26</title>
<g id="a_node26"><a xlink:href="classdrain_1_1SmartMap.html" target="_top" xlink:title=" ">
<polygon fill="white" stroke="black" points="399,-0.5 399,-19.5 529,-19.5 529,-0.5 399,-0.5"/>
<text text-anchor="middle" x="464" y="-7.5" font-family="Helvetica,sans-Serif" font-size="10.00">SmartMap&lt; Variable &gt;</text>
</a>
</g>
</g>
<!-- Node26&#45;&gt;Node25 -->
<g id="edge25" class="edge">
<title>Node26&#45;&gt;Node25</title>
<path fill="none" stroke="midnightblue" d="M539.24,-10C581.41,-10 632.46,-10 666.66,-10"/>
<polygon fill="midnightblue" stroke="midnightblue" points="539,-6.5 529,-10 539,-13.5 539,-6.5"/>
</g>
<!-- Node27 -->
<g id="node27" class="node">
<title>Node27</title>
<g id="a_node27"><a xlink:title=" ">
<polygon fill="white" stroke="#bfbfbf" points="206,-0.5 206,-19.5 362,-19.5 362,-0.5 206,-0.5"/>
<text text-anchor="middle" x="284" y="-7.5" font-family="Helvetica,sans-Serif" font-size="10.00">map&lt; std::string, Variable &gt;</text>
</a>
</g>
</g>
<!-- Node27&#45;&gt;Node26 -->
<g id="edge26" class="edge">
<title>Node27&#45;&gt;Node26</title>
<path fill="none" stroke="midnightblue" d="M372.18,-10C381.2,-10 390.24,-10 398.93,-10"/>
<polygon fill="midnightblue" stroke="midnightblue" points="372.04,-6.5 362.04,-10 372.04,-13.5 372.04,-6.5"/>
</g>
<!-- Node28&#45;&gt;Node24 -->
<g id="edge27" class="edge">
<title>Node28&#45;&gt;Node24</title>
<path fill="none" stroke="#9a32cd" stroke-dasharray="5,2" d="M764.18,-110.67C817.57,-104.76 896.06,-96.07 944.22,-90.74"/>
<polygon fill="#9a32cd" stroke="#9a32cd" points="763.74,-107.2 754.18,-111.78 764.51,-114.15 763.74,-107.2"/>
<text text-anchor="middle" x="852" y="-110" font-family="Helvetica,sans-Serif" font-size="10.00"> frame</text>
</g>
<!-- Node28&#45;&gt;Node33 -->
<g id="edge36" class="edge">
<title>Node28&#45;&gt;Node33</title>
<path fill="none" stroke="#9a32cd" stroke-dasharray="5,2" d="M764.05,-120.84C878.41,-128.85 1127.82,-148 1163,-165 1172.91,-169.79 1171.25,-176.9 1181,-182 1190.39,-186.91 1200.95,-190.55 1211.46,-193.25"/>
<polygon fill="#9a32cd" stroke="#9a32cd" points="764.29,-117.35 754.07,-120.14 763.8,-124.33 764.29,-117.35"/>
<text text-anchor="middle" x="988" y="-150" font-family="Helvetica,sans-Serif" font-size="10.00"> area</text>
</g>
<!-- Node29 -->
<g id="node29" class="node">
<title>Node29</title>
<g id="a_node29"><a xlink:href="classdrain_1_1UniCloner.html" target="_top" xlink:title=" ">
<polygon fill="white" stroke="black" points="1181,-153.5 1181,-172.5 1364,-172.5 1364,-153.5 1181,-153.5"/>
<text text-anchor="middle" x="1272.5" y="-160.5" font-family="Helvetica,sans-Serif" font-size="10.00">UniCloner&lt; drain::UnaryFunctor &gt;</text>
</a>
</g>
</g>
<!-- Node29&#45;&gt;Node13 -->
<g id="edge29" class="edge">
<title>Node29&#45;&gt;Node13</title>
<path fill="none" stroke="#9a32cd" stroke-dasharray="5,2" d="M1374.55,-163.33C1413.28,-163.46 1457,-163.6 1493.91,-163.73"/>
<polygon fill="#9a32cd" stroke="#9a32cd" points="1374.31,-159.83 1364.3,-163.3 1374.29,-166.83 1374.31,-159.83"/>
<text text-anchor="middle" x="1429" y="-167" font-family="Helvetica,sans-Serif" font-size="10.00"> unicloner</text>
</g>
<!-- Node30 -->
<g id="node30" class="node">
<title>Node30</title>
<g id="a_node30"><a xlink:href="classdrain_1_1Bank.html" target="_top" xlink:title=" ">
<polygon fill="white" stroke="black" points="946.5,-170.5 946.5,-189.5 1029.5,-189.5 1029.5,-170.5 946.5,-170.5"/>
<text text-anchor="middle" x="988" y="-177.5" font-family="Helvetica,sans-Serif" font-size="10.00">Bank&lt; T, K &gt;</text>
</a>
</g>
</g>
<!-- Node30&#45;&gt;Node29 -->
<g id="edge30" class="edge">
<title>Node30&#45;&gt;Node29</title>
<path fill="none" stroke="#9a32cd" stroke-dasharray="5,2" d="M1032.12,-167.17C1041.18,-163.94 1050.54,-160.18 1059,-156 1067.62,-151.74 1067.8,-146.79 1077,-144 1113.58,-132.92 1124.92,-140.69 1163,-144 1184.34,-145.85 1207.77,-149.72 1227.39,-153.49"/>
<polygon fill="#9a32cd" stroke="#9a32cd" points="1030.8,-163.92 1022.47,-170.47 1033.07,-170.55 1030.8,-163.92"/>
<text text-anchor="middle" x="1120" y="-147" font-family="Helvetica,sans-Serif" font-size="10.00"> bank</text>
</g>
<!-- Node31 -->
<g id="node31" class="node">
<title>Node31</title>
<g id="a_node31"><a xlink:title=" ">
<polygon fill="white" stroke="#bfbfbf" points="638,-149 638,-179 774,-179 774,-149 638,-149"/>
<text text-anchor="start" x="646" y="-167" font-family="Helvetica,sans-Serif" font-size="10.00">map&lt; std::string, Cloner</text>
<text text-anchor="middle" x="706" y="-156" font-family="Helvetica,sans-Serif" font-size="10.00">Base&lt; T &gt; * &gt;</text>
</a>
</g>
</g>
<!-- Node31&#45;&gt;Node30 -->
<g id="edge31" class="edge">
<title>Node31&#45;&gt;Node30</title>
<path fill="none" stroke="darkgreen" d="M784.36,-168.42C836.87,-171.42 904.19,-175.27 946.47,-177.68"/>
<polygon fill="darkgreen" stroke="darkgreen" points="784.25,-164.91 774.07,-167.83 783.85,-171.9 784.25,-164.91"/>
</g>
<!-- Node32&#45;&gt;Node12 -->
<g id="edge38" class="edge">
<title>Node32&#45;&gt;Node12</title>
<path fill="none" stroke="#9a32cd" stroke-dasharray="5,2" d="M1327.6,-49.77C1368.53,-51.65 1426.03,-55.45 1476,-63 1560.32,-75.74 1582.57,-77.65 1663,-106 1696.06,-117.65 1731.99,-135.92 1755.73,-148.83"/>
<polygon fill="#9a32cd" stroke="#9a32cd" points="1327.71,-46.27 1317.56,-49.33 1327.4,-53.27 1327.71,-46.27"/>
<text text-anchor="middle" x="1578.5" y="-131" font-family="Helvetica,sans-Serif" font-size="10.00"> locationTrail</text>
<text text-anchor="middle" x="1578.5" y="-120" font-family="Helvetica,sans-Serif" font-size="10.00">locationLead</text>
<text text-anchor="middle" x="1578.5" y="-109" font-family="Helvetica,sans-Serif" font-size="10.00">locationTmp</text>
</g>
<!-- Node32&#45;&gt;Node13 -->
<g id="edge32" class="edge">
<title>Node32&#45;&gt;Node13</title>
<path fill="none" stroke="#9a32cd" stroke-dasharray="5,2" d="M1327.65,-55.26C1369.48,-62.17 1428.1,-74.75 1476,-96 1507.41,-109.94 1539.71,-133.47 1559.2,-148.87"/>
<polygon fill="#9a32cd" stroke="#9a32cd" points="1328.09,-51.78 1317.67,-53.66 1326.99,-58.69 1328.09,-51.78"/>
<text text-anchor="middle" x="1429" y="-99" font-family="Helvetica,sans-Serif" font-size="10.00"> location</text>
</g>
<!-- Node33&#45;&gt;Node13 -->
<g id="edge34" class="edge">
<title>Node33&#45;&gt;Node13</title>
<path fill="none" stroke="#9a32cd" stroke-dasharray="5,2" d="M1343.98,-193.41C1382.93,-189.12 1432.17,-183.51 1476,-178 1481.82,-177.27 1487.83,-176.49 1493.88,-175.69"/>
<polygon fill="#9a32cd" stroke="#9a32cd" points="1343.36,-189.96 1333.8,-194.53 1344.12,-196.92 1343.36,-189.96"/>
<text text-anchor="middle" x="1429" y="-192" font-family="Helvetica,sans-Serif" font-size="10.00"> coordinateHandler</text>
</g>
</g>
</svg>
        <g id="navigator" transform="translate(0 0)" fill="#404254">
                <rect fill="#f2f5e9" fill-opacity="0.5" stroke="#606060" stroke-width=".5" x="0" y="0" width="60" height="60"/>
                <use id="zoomplus" xlink:href="#zoomPlus" x="17" y="9" onmousedown="handleZoom(evt,'in')"/>
                <use id="zoomminus" xlink:href="#zoomMin" x="42" y="9" onmousedown="handleZoom(evt,'out')"/>
                <use id="reset" xlink:href="#resetDef" x="30" y="36" onmousedown="handleReset()"/>
                <g id="arrowUp" xlink:href="#dirArrow" transform="translate(30 24)" onmousedown="handlePan(0,-1)">
                  <use xlink:href="#rim" fill="#404040">
                        <set attributeName="fill" to="#808080" begin="arrowUp.mouseover" end="arrowUp.mouseout"/>
                  </use>
                  <path fill="none" stroke="white" stroke-width="1.5" d="M0,-3.0v7 M-2.5,-0.5L0,-3.0L2.5,-0.5"/>
                </g>
                <g id="arrowRight" xlink:href="#dirArrow" transform="rotate(90) translate(36 -43)" onmousedown="handlePan(1,0)">
                  <use xlink:href="#rim" fill="#404040">
                        <set attributeName="fill" to="#808080" begin="arrowRight.mouseover" end="arrowRight.mouseout"/>
                  </use>
                  <path fill="none" stroke="white" stroke-width="1.5" d="M0,-3.0v7 M-2.5,-0.5L0,-3.0L2.5,-0.5"/>
                </g>
                <g id="arrowDown" xlink:href="#dirArrow" transform="rotate(180) translate(-30 -48)" onmousedown="handlePan(0,1)">
                  <use xlink:href="#rim" fill="#404040">
                        <set attributeName="fill" to="#808080" begin="arrowDown.mouseover" end="arrowDown.mouseout"/>
                  </use>
                  <path fill="none" stroke="white" stroke-width="1.5" d="M0,-3.0v7 M-2.5,-0.5L0,-3.0L2.5,-0.5"/>
                </g>
                <g id="arrowLeft" xlink:href="#dirArrow" transform="rotate(270) translate(-36 17)" onmousedown="handlePan(-1,0)">
                  <use xlink:href="#rim" fill="#404040">
                        <set attributeName="fill" to="#808080" begin="arrowLeft.mouseover" end="arrowLeft.mouseout"/>
                  </use>
                  <path fill="none" stroke="white" stroke-width="1.5" d="M0,-3.0v7 M-2.5,-0.5L0,-3.0L2.5,-0.5"/>
                </g>
        </g>
        <svg viewBox="0 0 15 15" width="100%" height="30px" preserveAspectRatio="xMaxYMin meet">
         <g id="arrow_out" transform="scale(0.3 0.3)">
          <a xlink:href="classrack_1_1PolarSlidingAvgOp__coll__graph_org.svg" target="_base">
           <rect id="button" ry="5" rx="5" y="6" x="6" height="38" width="38"
                fill="#f2f5e9" fill-opacity="0.5" stroke="#606060" stroke-width="1.0"/>
           <path id="arrow"
             d="M 11.500037,31.436501 C 11.940474,20.09759 22.043105,11.32322 32.158766,21.979434 L 37.068811,17.246167 C 37.068811,17.246167 37.088388,32 37.088388,32 L 22.160133,31.978069 C 22.160133,31.978069 26.997745,27.140456 26.997745,27.140456 C 18.528582,18.264221 13.291696,25.230495 11.500037,31.436501 z"
             style="fill:#404040;"/>
          </a>
         </g>
        </svg>
</svg>
