<?xml version="1.0" encoding="UTF-8" standalone="no"?>
<!DOCTYPE svg PUBLIC "-//W3C//DTD SVG 1.1//EN"
 "http://www.w3.org/Graphics/SVG/1.1/DTD/svg11.dtd">
<!-- Generated by graphviz version 2.43.0 (0)
 -->
<!-- Title: SlidingWindowHistogram&lt; R &gt; Pages: 1 -->
<svg width="1156pt" height="905pt"
 viewBox="0.00 0.00 1155.50 905.00" xmlns="http://www.w3.org/2000/svg" xmlns:xlink="http://www.w3.org/1999/xlink">
<g id="graph0" class="graph" transform="scale(1 1) rotate(0) translate(4 901)">
<title>SlidingWindowHistogram&lt; R &gt;</title>
<polygon fill="white" stroke="transparent" points="-4,4 -4,-901 1151.5,-901 1151.5,4 -4,4"/>
<!-- Node1 -->
<g id="node1" class="node">
<title>Node1</title>
<g id="a_node1"><a xlink:title="Base class for median and str histogram based statistics.">
<polygon fill="#bfbfbf" stroke="black" points="0,-0.5 0,-19.5 169,-19.5 169,-0.5 0,-0.5"/>
<text text-anchor="middle" x="84.5" y="-7.5" font-family="Helvetica,sans-Serif" font-size="10.00">SlidingWindowHistogram&lt; R &gt;</text>
</a>
</g>
</g>
<!-- Node2 -->
<g id="node2" class="node">
<title>Node2</title>
<g id="a_node2"><a xlink:href="classdrain_1_1image_1_1SlidingWindow.html" target="_top" xlink:title=" ">
<polygon fill="white" stroke="black" points="462.5,-58.5 462.5,-88.5 628.5,-88.5 628.5,-58.5 462.5,-58.5"/>
<text text-anchor="start" x="470.5" y="-76.5" font-family="Helvetica,sans-Serif" font-size="10.00">SlidingWindow&lt; Histogram</text>
<text text-anchor="middle" x="545.5" y="-65.5" font-family="Helvetica,sans-Serif" font-size="10.00">WindowConfig, WindowCore &gt;</text>
</a>
</g>
</g>
<!-- Node2&#45;&gt;Node1 -->
<g id="edge1" class="edge">
<title>Node2&#45;&gt;Node1</title>
<path fill="none" stroke="midnightblue" d="M452.32,-60.07C361.99,-48.02 227.39,-30.06 148.52,-19.54"/>
<polygon fill="midnightblue" stroke="midnightblue" points="451.91,-63.55 462.28,-61.4 452.83,-56.61 451.91,-63.55"/>
</g>
<!-- Node2&#45;&gt;Node2 -->
<g id="edge55" class="edge">
<title>Node2&#45;&gt;Node2</title>
<path fill="none" stroke="#9a32cd" stroke-dasharray="5,2" d="M638.69,-77.7C643.6,-76.66 646.5,-75.27 646.5,-73.5 646.5,-70.74 639.42,-68.88 628.71,-67.91"/>
<polygon fill="#9a32cd" stroke="#9a32cd" points="638.13,-74.24 628.71,-79.09 639.1,-81.17 638.13,-74.24"/>
<text text-anchor="middle" x="675" y="-82" font-family="Helvetica,sans-Serif" font-size="10.00"> fill</text>
<text text-anchor="middle" x="675" y="-71" font-family="Helvetica,sans-Serif" font-size="10.00">updateVert</text>
<text text-anchor="middle" x="675" y="-60" font-family="Helvetica,sans-Serif" font-size="10.00">updateHorz</text>
</g>
<!-- Node3 -->
<g id="node3" class="node">
<title>Node3</title>
<g id="a_node3"><a xlink:href="classdrain_1_1image_1_1Window.html" target="_top" xlink:title=" ">
<polygon fill="white" stroke="black" points="450,-128.5 450,-158.5 641,-158.5 641,-128.5 450,-128.5"/>
<text text-anchor="start" x="458" y="-146.5" font-family="Helvetica,sans-Serif" font-size="10.00">Window&lt; HistogramWindowConfig,</text>
<text text-anchor="middle" x="545.5" y="-135.5" font-family="Helvetica,sans-Serif" font-size="10.00"> WindowCore &gt;</text>
</a>
</g>
</g>
<!-- Node3&#45;&gt;Node2 -->
<g id="edge2" class="edge">
<title>Node3&#45;&gt;Node2</title>
<path fill="none" stroke="midnightblue" d="M545.5,-118.27C545.5,-108.31 545.5,-97.14 545.5,-88.57"/>
<polygon fill="midnightblue" stroke="midnightblue" points="542,-118.41 545.5,-128.41 549,-118.41 542,-118.41"/>
</g>
<!-- Node4 -->
<g id="node4" class="node">
<title>Node4</title>
<g id="a_node4"><a xlink:href="classdrain_1_1image_1_1WindowCore.html" target="_top" xlink:title="Container for source data (input) and destination data (output). May also contain metadata of them.">
<polygon fill="white" stroke="black" points="840.5,-207.5 840.5,-226.5 918.5,-226.5 918.5,-207.5 840.5,-207.5"/>
<text text-anchor="middle" x="879.5" y="-214.5" font-family="Helvetica,sans-Serif" font-size="10.00">WindowCore</text>
</a>
</g>
</g>
<!-- Node4&#45;&gt;Node3 -->
<g id="edge3" class="edge">
<title>Node4&#45;&gt;Node3</title>
<path fill="none" stroke="midnightblue" d="M846.99,-204.12C823.28,-195.82 790.23,-185.02 760.5,-178 737.93,-172.67 687.58,-164.75 641.27,-157.95"/>
<polygon fill="midnightblue" stroke="midnightblue" points="845.94,-207.46 856.54,-207.5 848.28,-200.86 845.94,-207.46"/>
</g>
<!-- Node5 -->
<g id="node5" class="node">
<title>Node5</title>
<g id="a_node5"><a xlink:href="classdrain_1_1image_1_1WindowCoreBase.html" target="_top" xlink:title="Provides splitting frames.">
<polygon fill="white" stroke="black" points="827.5,-285.5 827.5,-304.5 929.5,-304.5 929.5,-285.5 827.5,-285.5"/>
<text text-anchor="middle" x="878.5" y="-292.5" font-family="Helvetica,sans-Serif" font-size="10.00">WindowCoreBase</text>
</a>
</g>
</g>
<!-- Node5&#45;&gt;Node4 -->
<g id="edge4" class="edge">
<title>Node5&#45;&gt;Node4</title>
<path fill="none" stroke="midnightblue" d="M878.75,-275.22C878.95,-259.7 879.23,-238.36 879.39,-226.62"/>
<polygon fill="midnightblue" stroke="midnightblue" points="875.25,-275.24 878.61,-285.28 882.25,-275.33 875.25,-275.24"/>
</g>
<!-- Node6 -->
<g id="node6" class="node">
<title>Node6</title>
<g id="a_node6"><a xlink:href="classdrain_1_1image_1_1ImageView.html" target="_top" xlink:title="ImageFrame that also has channels.">
<polygon fill="white" stroke="black" points="948,-285.5 948,-304.5 1019,-304.5 1019,-285.5 948,-285.5"/>
<text text-anchor="middle" x="983.5" y="-292.5" font-family="Helvetica,sans-Serif" font-size="10.00">ImageView</text>
</a>
</g>
</g>
<!-- Node6&#45;&gt;Node4 -->
<g id="edge5" class="edge">
<title>Node6&#45;&gt;Node4</title>
<path fill="none" stroke="#9a32cd" stroke-dasharray="5,2" d="M963.47,-279.36C942.06,-263.72 908.84,-239.44 891.29,-226.62"/>
<polygon fill="#9a32cd" stroke="#9a32cd" points="961.43,-282.21 971.57,-285.28 965.56,-276.56 961.43,-282.21"/>
<text text-anchor="middle" x="952.5" y="-259" font-family="Helvetica,sans-Serif" font-size="10.00"> src</text>
<text text-anchor="middle" x="952.5" y="-248" font-family="Helvetica,sans-Serif" font-size="10.00">dst</text>
</g>
<!-- Node7 -->
<g id="node7" class="node">
<title>Node7</title>
<g id="a_node7"><a xlink:href="classdrain_1_1image_1_1MultiChannel.html" target="_top" xlink:title="Multi&#45;channel ImageFrame.">
<polygon fill="white" stroke="black" points="943,-369 943,-388 1024,-388 1024,-369 943,-369"/>
<text text-anchor="middle" x="983.5" y="-376" font-family="Helvetica,sans-Serif" font-size="10.00">MultiChannel</text>
</a>
</g>
</g>
<!-- Node7&#45;&gt;Node6 -->
<g id="edge6" class="edge">
<title>Node7&#45;&gt;Node6</title>
<path fill="none" stroke="midnightblue" d="M983.5,-358.38C983.5,-341.4 983.5,-317.37 983.5,-304.66"/>
<polygon fill="midnightblue" stroke="midnightblue" points="980,-358.78 983.5,-368.78 987,-358.78 980,-358.78"/>
</g>
<!-- Node8 -->
<g id="node8" class="node">
<title>Node8</title>
<g id="a_node8"><a xlink:href="classdrain_1_1image_1_1ImageFrame.html" target="_top" xlink:title="Image with static geometry.">
<polygon fill="white" stroke="black" points="944.5,-441.5 944.5,-460.5 1022.5,-460.5 1022.5,-441.5 944.5,-441.5"/>
<text text-anchor="middle" x="983.5" y="-448.5" font-family="Helvetica,sans-Serif" font-size="10.00">ImageFrame</text>
</a>
</g>
</g>
<!-- Node8&#45;&gt;Node7 -->
<g id="edge7" class="edge">
<title>Node8&#45;&gt;Node7</title>
<path fill="none" stroke="midnightblue" d="M983.5,-430.94C983.5,-417.03 983.5,-398.82 983.5,-388.22"/>
<polygon fill="midnightblue" stroke="midnightblue" points="980,-431.36 983.5,-441.36 987,-431.36 980,-431.36"/>
</g>
<!-- Node9 -->
<g id="node9" class="node">
<title>Node9</title>
<g id="a_node9"><a xlink:href="classdrain_1_1image_1_1ImageLike.html" target="_top" xlink:title="A base class for images.">
<polygon fill="white" stroke="black" points="849,-520.5 849,-539.5 916,-539.5 916,-520.5 849,-520.5"/>
<text text-anchor="middle" x="882.5" y="-527.5" font-family="Helvetica,sans-Serif" font-size="10.00">ImageLike</text>
</a>
</g>
</g>
<!-- Node9&#45;&gt;Node8 -->
<g id="edge8" class="edge">
<title>Node9&#45;&gt;Node8</title>
<path fill="none" stroke="midnightblue" d="M901.85,-514.25C922.72,-498.34 955.24,-473.55 972.26,-460.57"/>
<polygon fill="midnightblue" stroke="midnightblue" points="899.53,-511.62 893.69,-520.47 903.77,-517.19 899.53,-511.62"/>
</g>
<!-- Node10 -->
<g id="node10" class="node">
<title>Node10</title>
<g id="a_node10"><a xlink:href="classdrain_1_1image_1_1ImageConf.html" target="_top" xlink:title="Struct for image (excluding data)">
<polygon fill="white" stroke="black" points="806.5,-597.5 806.5,-616.5 876.5,-616.5 876.5,-597.5 806.5,-597.5"/>
<text text-anchor="middle" x="841.5" y="-604.5" font-family="Helvetica,sans-Serif" font-size="10.00">ImageConf</text>
</a>
</g>
</g>
<!-- Node10&#45;&gt;Node9 -->
<g id="edge9" class="edge">
<title>Node10&#45;&gt;Node9</title>
<path fill="none" stroke="#9a32cd" stroke-dasharray="5,2" d="M851.14,-588.36C859.56,-572.97 871.39,-551.32 877.85,-539.5"/>
<polygon fill="#9a32cd" stroke="#9a32cd" points="847.93,-586.94 846.2,-597.4 854.07,-590.3 847.93,-586.94"/>
<text text-anchor="middle" x="879" y="-566.5" font-family="Helvetica,sans-Serif" font-size="10.00"> conf</text>
</g>
<!-- Node11 -->
<g id="node11" class="node">
<title>Node11</title>
<g id="a_node11"><a xlink:href="classdrain_1_1image_1_1Encoding.html" target="_top" xlink:title=" ">
<polygon fill="white" stroke="black" points="811,-664.5 811,-683.5 872,-683.5 872,-664.5 811,-664.5"/>
<text text-anchor="middle" x="841.5" y="-671.5" font-family="Helvetica,sans-Serif" font-size="10.00">Encoding</text>
</a>
</g>
</g>
<!-- Node11&#45;&gt;Node10 -->
<g id="edge10" class="edge">
<title>Node11&#45;&gt;Node10</title>
<path fill="none" stroke="midnightblue" d="M841.5,-654.04C841.5,-641.67 841.5,-626.12 841.5,-616.63"/>
<polygon fill="midnightblue" stroke="midnightblue" points="838,-654.23 841.5,-664.23 845,-654.23 838,-654.23"/>
</g>
<!-- Node12 -->
<g id="node12" class="node">
<title>Node12</title>
<g id="a_node12"><a xlink:href="classdrain_1_1ValueScaling.html" target="_top" xlink:title="Linear scaling and physical range for image intensities.">
<polygon fill="white" stroke="black" points="801.5,-737 801.5,-756 881.5,-756 881.5,-737 801.5,-737"/>
<text text-anchor="middle" x="841.5" y="-744" font-family="Helvetica,sans-Serif" font-size="10.00">ValueScaling</text>
</a>
</g>
</g>
<!-- Node12&#45;&gt;Node11 -->
<g id="edge11" class="edge">
<title>Node12&#45;&gt;Node11</title>
<path fill="none" stroke="midnightblue" d="M841.5,-726.44C841.5,-712.53 841.5,-694.32 841.5,-683.72"/>
<polygon fill="midnightblue" stroke="midnightblue" points="838,-726.86 841.5,-736.86 845,-726.86 838,-726.86"/>
</g>
<!-- Node51 -->
<g id="node49" class="node">
<title>Node51</title>
<g id="a_node49"><a xlink:href="classdrain_1_1Histogram.html" target="_top" xlink:title="Class for computing a histogram and some statistics: average, min, max, mean, std....">
<polygon fill="white" stroke="black" points="103.5,-664.5 103.5,-683.5 171.5,-683.5 171.5,-664.5 103.5,-664.5"/>
<text text-anchor="middle" x="137.5" y="-671.5" font-family="Helvetica,sans-Serif" font-size="10.00">Histogram</text>
</a>
</g>
</g>
<!-- Node12&#45;&gt;Node51 -->
<g id="edge58" class="edge">
<title>Node12&#45;&gt;Node51</title>
<path fill="none" stroke="#9a32cd" stroke-dasharray="5,2" d="M806.39,-734.18C801.75,-732.96 797.04,-731.86 792.5,-731 671.38,-708.15 288.35,-683.99 171.61,-677"/>
<polygon fill="#9a32cd" stroke="#9a32cd" points="805.73,-737.64 816.31,-736.98 807.63,-730.9 805.73,-737.64"/>
<text text-anchor="middle" x="656.5" y="-705" font-family="Helvetica,sans-Serif" font-size="10.00"> scaling</text>
</g>
<!-- Node13 -->
<g id="node13" class="node">
<title>Node13</title>
<g id="a_node13"><a xlink:href="classdrain_1_1UniTuple.html" target="_top" xlink:title=" ">
<polygon fill="white" stroke="black" points="844.5,-815 844.5,-834 970.5,-834 970.5,-815 844.5,-815"/>
<text text-anchor="middle" x="907.5" y="-822" font-family="Helvetica,sans-Serif" font-size="10.00">UniTuple&lt; double, 4 &gt;</text>
</a>
</g>
</g>
<!-- Node13&#45;&gt;Node12 -->
<g id="edge12" class="edge">
<title>Node13&#45;&gt;Node12</title>
<path fill="none" stroke="midnightblue" d="M893.12,-806.94C879.53,-791.29 859.67,-768.43 848.98,-756.12"/>
<polygon fill="midnightblue" stroke="midnightblue" points="890.73,-809.53 899.93,-814.78 896.01,-804.94 890.73,-809.53"/>
</g>
<!-- Node14 -->
<g id="node14" class="node">
<title>Node14</title>
<g id="a_node14"><a xlink:href="classdrain_1_1Range.html" target="_top" xlink:title=" ">
<polygon fill="white" stroke="black" points="723,-815 723,-834 826,-834 826,-815 723,-815"/>
<text text-anchor="middle" x="774.5" y="-822" font-family="Helvetica,sans-Serif" font-size="10.00">Range&lt; double &gt;</text>
</a>
</g>
</g>
<!-- Node14&#45;&gt;Node12 -->
<g id="edge13" class="edge">
<title>Node14&#45;&gt;Node12</title>
<path fill="none" stroke="#9a32cd" stroke-dasharray="5,2" d="M786.77,-806.77C793.03,-798.51 800.91,-788.51 808.5,-780 816.1,-771.48 825.42,-762.41 832.22,-756.02"/>
<polygon fill="#9a32cd" stroke="#9a32cd" points="783.88,-804.79 780.71,-814.9 789.49,-808.98 783.88,-804.79"/>
<text text-anchor="middle" x="837.5" y="-783" font-family="Helvetica,sans-Serif" font-size="10.00"> physRange</text>
</g>
<!-- Node15 -->
<g id="node15" class="node">
<title>Node15</title>
<g id="a_node15"><a xlink:href="classdrain_1_1UniTuple.html" target="_top" xlink:title=" ">
<polygon fill="white" stroke="black" points="711.5,-877.5 711.5,-896.5 837.5,-896.5 837.5,-877.5 711.5,-877.5"/>
<text text-anchor="middle" x="774.5" y="-884.5" font-family="Helvetica,sans-Serif" font-size="10.00">UniTuple&lt; double, 2 &gt;</text>
</a>
</g>
</g>
<!-- Node15&#45;&gt;Node14 -->
<g id="edge14" class="edge">
<title>Node15&#45;&gt;Node14</title>
<path fill="none" stroke="midnightblue" d="M774.5,-867C774.5,-856 774.5,-842.68 774.5,-834.15"/>
<polygon fill="midnightblue" stroke="midnightblue" points="771,-867.33 774.5,-877.33 778,-867.33 771,-867.33"/>
</g>
<!-- Node16 -->
<g id="node16" class="node">
<title>Node16</title>
<g id="a_node16"><a xlink:href="classdrain_1_1Caster.html" target="_top" xlink:title=" ">
<polygon fill="white" stroke="black" points="903.5,-737 903.5,-756 951.5,-756 951.5,-737 903.5,-737"/>
<text text-anchor="middle" x="927.5" y="-744" font-family="Helvetica,sans-Serif" font-size="10.00">Caster</text>
</a>
</g>
</g>
<!-- Node16&#45;&gt;Node11 -->
<g id="edge15" class="edge">
<title>Node16&#45;&gt;Node11</title>
<path fill="none" stroke="#9a32cd" stroke-dasharray="5,2" d="M909.17,-730.47C891.82,-716.25 866.36,-695.38 852.13,-683.72"/>
<polygon fill="#9a32cd" stroke="#9a32cd" points="907,-733.22 916.95,-736.86 911.44,-727.81 907,-733.22"/>
<text text-anchor="middle" x="903.5" y="-705" font-family="Helvetica,sans-Serif" font-size="10.00"> caster</text>
</g>
<!-- Node27 -->
<g id="node25" class="node">
<title>Node27</title>
<g id="a_node25"><a xlink:href="classdrain_1_1Castable.html" target="_top" xlink:title=" ">
<polygon fill="white" stroke="black" points="1085,-664.5 1085,-683.5 1144,-683.5 1144,-664.5 1085,-664.5"/>
<text text-anchor="middle" x="1114.5" y="-671.5" font-family="Helvetica,sans-Serif" font-size="10.00">Castable</text>
</a>
</g>
</g>
<!-- Node16&#45;&gt;Node27 -->
<g id="edge25" class="edge">
<title>Node16&#45;&gt;Node27</title>
<path fill="none" stroke="#9a32cd" stroke-dasharray="5,2" d="M959.55,-733.42C997.23,-719.21 1058.82,-695.99 1091.86,-683.53"/>
<polygon fill="#9a32cd" stroke="#9a32cd" points="958.18,-730.19 950.06,-737 960.65,-736.74 958.18,-730.19"/>
<text text-anchor="middle" x="1054.5" y="-705" font-family="Helvetica,sans-Serif" font-size="10.00"> caster</text>
</g>
<!-- Node17 -->
<g id="node17" class="node">
<title>Node17</title>
<g id="a_node17"><a xlink:href="classdrain_1_1image_1_1Geometry.html" target="_top" xlink:title=" ">
<polygon fill="white" stroke="red" points="695,-664.5 695,-683.5 760,-683.5 760,-664.5 695,-664.5"/>
<text text-anchor="middle" x="727.5" y="-671.5" font-family="Helvetica,sans-Serif" font-size="10.00">Geometry</text>
</a>
</g>
</g>
<!-- Node17&#45;&gt;Node10 -->
<g id="edge16" class="edge">
<title>Node17&#45;&gt;Node10</title>
<path fill="none" stroke="midnightblue" d="M751.85,-659.12C774.44,-646.24 807.34,-627.48 826.37,-616.63"/>
<polygon fill="midnightblue" stroke="midnightblue" points="749.83,-656.24 742.87,-664.23 753.3,-662.32 749.83,-656.24"/>
</g>
<!-- Node18 -->
<g id="node18" class="node">
<title>Node18</title>
<g id="a_node18"><a xlink:href="classdrain_1_1UniTuple.html" target="_top" xlink:title=" ">
<polygon fill="white" stroke="black" points="531.5,-737 531.5,-756 653.5,-756 653.5,-737 531.5,-737"/>
<text text-anchor="middle" x="592.5" y="-744" font-family="Helvetica,sans-Serif" font-size="10.00">UniTuple&lt; size_t, 4 &gt;</text>
</a>
</g>
</g>
<!-- Node18&#45;&gt;Node17 -->
<g id="edge17" class="edge">
<title>Node18&#45;&gt;Node17</title>
<path fill="none" stroke="midnightblue" d="M601.66,-727.8C607.15,-718.84 614.93,-708.5 624.5,-702 645.3,-687.88 673.07,-681.14 694.53,-677.93"/>
<polygon fill="midnightblue" stroke="midnightblue" points="598.48,-726.32 596.62,-736.75 604.58,-729.75 598.48,-726.32"/>
</g>
<!-- Node19 -->
<g id="node19" class="node">
<title>Node19</title>
<g id="a_node19"><a xlink:href="classdrain_1_1Frame2D.html" target="_top" xlink:title=" ">
<polygon fill="white" stroke="red" points="671.5,-737 671.5,-756 783.5,-756 783.5,-737 671.5,-737"/>
<text text-anchor="middle" x="727.5" y="-744" font-family="Helvetica,sans-Serif" font-size="10.00">Frame2D&lt; size_t &gt;</text>
</a>
</g>
</g>
<!-- Node19&#45;&gt;Node17 -->
<g id="edge18" class="edge">
<title>Node19&#45;&gt;Node17</title>
<path fill="none" stroke="#9a32cd" stroke-dasharray="5,2" d="M727.5,-726.44C727.5,-712.53 727.5,-694.32 727.5,-683.72"/>
<polygon fill="#9a32cd" stroke="#9a32cd" points="724,-726.86 727.5,-736.86 731,-726.86 724,-726.86"/>
<text text-anchor="middle" x="740" y="-705" font-family="Helvetica,sans-Serif" font-size="10.00"> area</text>
</g>
<!-- Node22 -->
<g id="node20" class="node">
<title>Node22</title>
<g id="a_node20"><a xlink:href="classdrain_1_1image_1_1CoordinatePolicy.html" target="_top" xlink:title="Policies for coordinate underflows and overflows.">
<polygon fill="white" stroke="black" points="355,-664.5 355,-683.5 454,-683.5 454,-664.5 355,-664.5"/>
<text text-anchor="middle" x="404.5" y="-671.5" font-family="Helvetica,sans-Serif" font-size="10.00">CoordinatePolicy</text>
</a>
</g>
</g>
<!-- Node22&#45;&gt;Node10 -->
<g id="edge19" class="edge">
<title>Node22&#45;&gt;Node10</title>
<path fill="none" stroke="#9a32cd" stroke-dasharray="5,2" d="M464.3,-665.62C541.49,-655.83 679.87,-637.39 797.5,-617 800.42,-616.49 803.44,-615.94 806.47,-615.36"/>
<polygon fill="#9a32cd" stroke="#9a32cd" points="463.76,-662.16 454.28,-666.88 464.64,-669.1 463.76,-662.16"/>
<text text-anchor="middle" x="721" y="-638" font-family="Helvetica,sans-Serif" font-size="10.00"> coordinatePolicy</text>
</g>
<!-- Node50 -->
<g id="node48" class="node">
<title>Node50</title>
<g id="a_node48"><a xlink:href="classdrain_1_1image_1_1CoordinateHandler2D.html" target="_top" xlink:title=" ">
<polygon fill="white" stroke="black" points="339.5,-285.5 339.5,-304.5 461.5,-304.5 461.5,-285.5 339.5,-285.5"/>
<text text-anchor="middle" x="400.5" y="-292.5" font-family="Helvetica,sans-Serif" font-size="10.00">CoordinateHandler2D</text>
</a>
</g>
</g>
<!-- Node22&#45;&gt;Node50 -->
<g id="edge53" class="edge">
<title>Node22&#45;&gt;Node50</title>
<path fill="none" stroke="#9a32cd" stroke-dasharray="5,2" d="M379.32,-658.72C362.9,-647.36 344.5,-629.77 344.5,-608 344.5,-608 344.5,-608 344.5,-377.5 344.5,-346.26 372.8,-318.24 389.17,-304.66"/>
<polygon fill="#9a32cd" stroke="#9a32cd" points="377.8,-661.91 388.1,-664.38 381.59,-656.03 377.8,-661.91"/>
<text text-anchor="middle" x="361" y="-487.5" font-family="Helvetica,sans-Serif" font-size="10.00"> policy</text>
</g>
<!-- Node23 -->
<g id="node21" class="node">
<title>Node23</title>
<g id="a_node21"><a xlink:href="classdrain_1_1UniTuple.html" target="_top" xlink:title=" ">
<polygon fill="white" stroke="black" points="250,-731.5 250,-761.5 367,-761.5 367,-731.5 250,-731.5"/>
<text text-anchor="start" x="258" y="-749.5" font-family="Helvetica,sans-Serif" font-size="10.00">UniTuple&lt; coord_pol</text>
<text text-anchor="middle" x="308.5" y="-738.5" font-family="Helvetica,sans-Serif" font-size="10.00">_t, 4 &gt;</text>
</a>
</g>
</g>
<!-- Node23&#45;&gt;Node22 -->
<g id="edge20" class="edge">
<title>Node23&#45;&gt;Node22</title>
<path fill="none" stroke="midnightblue" d="M336.12,-725.22C354.84,-711.47 378.65,-693.98 392.67,-683.69"/>
<polygon fill="midnightblue" stroke="midnightblue" points="333.92,-722.49 327.93,-731.23 338.06,-728.14 333.92,-722.49"/>
</g>
<!-- Node24 -->
<g id="node22" class="node">
<title>Node24</title>
<g id="a_node22"><a xlink:href="classdrain_1_1Dictionary2.html" target="_top" xlink:title="Two&#45;way mapping between strings and objects of template class T.">
<polygon fill="white" stroke="black" points="385,-737 385,-756 500,-756 500,-737 385,-737"/>
<text text-anchor="middle" x="442.5" y="-744" font-family="Helvetica,sans-Serif" font-size="10.00">Dictionary2&lt; K, V &gt;</text>
</a>
</g>
</g>
<!-- Node24&#45;&gt;Node22 -->
<g id="edge21" class="edge">
<title>Node24&#45;&gt;Node22</title>
<path fill="none" stroke="#9a32cd" stroke-dasharray="5,2" d="M432.9,-727.68C425.32,-713.63 415.09,-694.64 409.2,-683.72"/>
<polygon fill="#9a32cd" stroke="#9a32cd" points="430.01,-729.71 437.84,-736.86 436.18,-726.39 430.01,-729.71"/>
<text text-anchor="middle" x="435.5" y="-705" font-family="Helvetica,sans-Serif" font-size="10.00"> dict</text>
</g>
<!-- Node25 -->
<g id="node23" class="node">
<title>Node25</title>
<g id="a_node23"><a xlink:title=" ">
<polygon fill="white" stroke="#bfbfbf" points="390.5,-809.5 390.5,-839.5 494.5,-839.5 494.5,-809.5 390.5,-809.5"/>
<text text-anchor="start" x="398.5" y="-827.5" font-family="Helvetica,sans-Serif" font-size="10.00">list&lt; std::pair&lt; K,</text>
<text text-anchor="middle" x="442.5" y="-816.5" font-family="Helvetica,sans-Serif" font-size="10.00"> V &gt; &gt;</text>
</a>
</g>
</g>
<!-- Node25&#45;&gt;Node24 -->
<g id="edge22" class="edge">
<title>Node25&#45;&gt;Node24</title>
<path fill="none" stroke="midnightblue" d="M442.5,-799.17C442.5,-784.4 442.5,-766.45 442.5,-756.06"/>
<polygon fill="midnightblue" stroke="midnightblue" points="439,-799.2 442.5,-809.2 446,-799.21 439,-799.2"/>
</g>
<!-- Node26 -->
<g id="node24" class="node">
<title>Node26</title>
<g id="a_node24"><a xlink:href="classdrain_1_1CastableIterator.html" target="_top" xlink:title=" ">
<polygon fill="white" stroke="black" points="1030,-559.5 1030,-578.5 1125,-578.5 1125,-559.5 1030,-559.5"/>
<text text-anchor="middle" x="1077.5" y="-566.5" font-family="Helvetica,sans-Serif" font-size="10.00">CastableIterator</text>
</a>
</g>
</g>
<!-- Node26&#45;&gt;Node8 -->
<g id="edge23" class="edge">
<title>Node26&#45;&gt;Node8</title>
<path fill="none" stroke="#9a32cd" stroke-dasharray="5,2" d="M1077.48,-549.28C1076.48,-529.48 1071.94,-498.48 1054.5,-479 1046.14,-469.67 1034.21,-463.54 1022.51,-459.53"/>
<polygon fill="#9a32cd" stroke="#9a32cd" points="1073.99,-549.56 1077.74,-559.47 1080.99,-549.38 1073.99,-549.56"/>
<text text-anchor="middle" x="1112" y="-533" font-family="Helvetica,sans-Serif" font-size="10.00"> segmentEnd</text>
<text text-anchor="middle" x="1112" y="-522" font-family="Helvetica,sans-Serif" font-size="10.00">segmentBegin</text>
</g>
<!-- Node27&#45;&gt;Node26 -->
<g id="edge24" class="edge">
<title>Node27&#45;&gt;Node26</title>
<path fill="none" stroke="darkgreen" d="M1107.87,-654.55C1099.84,-632.2 1086.65,-595.46 1080.65,-578.76"/>
<polygon fill="darkgreen" stroke="darkgreen" points="1104.67,-655.99 1111.35,-664.22 1111.26,-653.62 1104.67,-655.99"/>
</g>
<!-- Node28 -->
<g id="node26" class="node">
<title>Node28</title>
<g id="a_node26"><a xlink:href="classdrain_1_1FlexVariableMap.html" target="_top" xlink:title="A map of FlexVariable:s.">
<polygon fill="white" stroke="black" points="934,-520.5 934,-539.5 1033,-539.5 1033,-520.5 934,-520.5"/>
<text text-anchor="middle" x="983.5" y="-527.5" font-family="Helvetica,sans-Serif" font-size="10.00">FlexVariableMap</text>
</a>
</g>
</g>
<!-- Node28&#45;&gt;Node8 -->
<g id="edge26" class="edge">
<title>Node28&#45;&gt;Node8</title>
<path fill="none" stroke="#9a32cd" stroke-dasharray="5,2" d="M983.5,-510.31C983.5,-494.59 983.5,-472.81 983.5,-460.81"/>
<polygon fill="#9a32cd" stroke="#9a32cd" points="980,-510.47 983.5,-520.47 987,-510.47 980,-510.47"/>
<text text-anchor="middle" x="1017" y="-493" font-family="Helvetica,sans-Serif" font-size="10.00"> propertiesPtr</text>
<text text-anchor="middle" x="1017" y="-482" font-family="Helvetica,sans-Serif" font-size="10.00">properties</text>
</g>
<!-- Node29 -->
<g id="node27" class="node">
<title>Node29</title>
<g id="a_node27"><a xlink:href="classdrain_1_1SmartMap.html" target="_top" xlink:title=" ">
<polygon fill="white" stroke="black" points="906,-597.5 906,-616.5 1057,-616.5 1057,-597.5 906,-597.5"/>
<text text-anchor="middle" x="981.5" y="-604.5" font-family="Helvetica,sans-Serif" font-size="10.00">SmartMap&lt; FlexVariable &gt;</text>
</a>
</g>
</g>
<!-- Node29&#45;&gt;Node28 -->
<g id="edge27" class="edge">
<title>Node29&#45;&gt;Node28</title>
<path fill="none" stroke="midnightblue" d="M982.01,-587.02C982.41,-571.74 982.97,-550.98 983.27,-539.5"/>
<polygon fill="midnightblue" stroke="midnightblue" points="978.5,-587.31 981.73,-597.4 985.49,-587.49 978.5,-587.31"/>
</g>
<!-- Node30 -->
<g id="node28" class="node">
<title>Node30</title>
<g id="a_node28"><a xlink:title=" ">
<polygon fill="white" stroke="#bfbfbf" points="890,-664.5 890,-683.5 1067,-683.5 1067,-664.5 890,-664.5"/>
<text text-anchor="middle" x="978.5" y="-671.5" font-family="Helvetica,sans-Serif" font-size="10.00">map&lt; std::string, FlexVariable &gt;</text>
</a>
</g>
</g>
<!-- Node30&#45;&gt;Node29 -->
<g id="edge28" class="edge">
<title>Node30&#45;&gt;Node29</title>
<path fill="none" stroke="midnightblue" d="M979.38,-654.04C979.95,-641.67 980.66,-626.12 981.1,-616.63"/>
<polygon fill="midnightblue" stroke="midnightblue" points="975.87,-654.08 978.9,-664.23 982.86,-654.41 975.87,-654.08"/>
</g>
<!-- Node31 -->
<g id="node29" class="node">
<title>Node31</title>
<g id="a_node29"><a xlink:href="classdrain_1_1Range.html" target="_top" xlink:title=" ">
<polygon fill="white" stroke="black" points="373,-369 373,-388 456,-388 456,-369 373,-369"/>
<text text-anchor="middle" x="414.5" y="-376" font-family="Helvetica,sans-Serif" font-size="10.00">Range&lt; int &gt;</text>
</a>
</g>
</g>
<!-- Node31&#45;&gt;Node3 -->
<g id="edge29" class="edge">
<title>Node31&#45;&gt;Node3</title>
<path fill="none" stroke="#9a32cd" stroke-dasharray="5,2" d="M389.25,-363.72C369.29,-351.29 342.8,-330.97 330.5,-305 319.08,-280.9 320.19,-269.99 329.5,-245 343.26,-208.09 353.58,-198.02 387.5,-178 406.34,-166.88 428.36,-159.43 449.89,-154.44"/>
<polygon fill="#9a32cd" stroke="#9a32cd" points="387.5,-366.76 397.89,-368.88 391.09,-360.75 387.5,-366.76"/>
<text text-anchor="middle" x="348" y="-259" font-family="Helvetica,sans-Serif" font-size="10.00"> jRange</text>
<text text-anchor="middle" x="348" y="-248" font-family="Helvetica,sans-Serif" font-size="10.00">iRange</text>
</g>
<!-- Node31&#45;&gt;Node50 -->
<g id="edge51" class="edge">
<title>Node31&#45;&gt;Node50</title>
<path fill="none" stroke="#9a32cd" stroke-dasharray="5,2" d="M411.3,-358.86C408.38,-341.86 404.19,-317.49 401.99,-304.66"/>
<polygon fill="#9a32cd" stroke="#9a32cd" points="407.86,-359.52 413,-368.78 414.76,-358.33 407.86,-359.52"/>
<text text-anchor="middle" x="428.5" y="-337" font-family="Helvetica,sans-Serif" font-size="10.00"> yRange</text>
<text text-anchor="middle" x="428.5" y="-326" font-family="Helvetica,sans-Serif" font-size="10.00">xRange</text>
</g>
<!-- Node32 -->
<g id="node30" class="node">
<title>Node32</title>
<g id="a_node30"><a xlink:href="classdrain_1_1UniTuple.html" target="_top" xlink:title=" ">
<polygon fill="white" stroke="black" points="468.5,-441.5 468.5,-460.5 574.5,-460.5 574.5,-441.5 468.5,-441.5"/>
<text text-anchor="middle" x="521.5" y="-448.5" font-family="Helvetica,sans-Serif" font-size="10.00">UniTuple&lt; int, 2 &gt;</text>
</a>
</g>
</g>
<!-- Node32&#45;&gt;Node31 -->
<g id="edge30" class="edge">
<title>Node32&#45;&gt;Node31</title>
<path fill="none" stroke="midnightblue" d="M499.86,-435.74C478.26,-421.51 445.75,-400.09 427.73,-388.22"/>
<polygon fill="midnightblue" stroke="midnightblue" points="498.1,-438.78 508.38,-441.36 501.95,-432.93 498.1,-438.78"/>
</g>
<!-- Node42 -->
<g id="node40" class="node">
<title>Node42</title>
<g id="a_node40"><a xlink:href="structdrain_1_1Point2D.html" target="_top" xlink:title=" ">
<polygon fill="white" stroke="black" points="632.5,-207.5 632.5,-226.5 722.5,-226.5 722.5,-207.5 632.5,-207.5"/>
<text text-anchor="middle" x="677.5" y="-214.5" font-family="Helvetica,sans-Serif" font-size="10.00">Point2D&lt; int &gt;</text>
</a>
</g>
</g>
<!-- Node32&#45;&gt;Node42 -->
<g id="edge41" class="edge">
<title>Node32&#45;&gt;Node42</title>
<path fill="none" stroke="midnightblue" d="M540.55,-435.11C564.73,-416.66 608.15,-384.97 648.5,-363 666.7,-353.09 679.59,-361.96 691.5,-345 717.63,-307.78 692.93,-248.73 682.06,-226.68"/>
<polygon fill="midnightblue" stroke="midnightblue" points="538.35,-432.39 532.56,-441.27 542.62,-437.94 538.35,-432.39"/>
</g>
<!-- Node48 -->
<g id="node46" class="node">
<title>Node48</title>
<g id="a_node46"><a xlink:href="classdrain_1_1Frame2D.html" target="_top" xlink:title=" ">
<polygon fill="white" stroke="black" points="474.5,-369 474.5,-388 570.5,-388 570.5,-369 474.5,-369"/>
<text text-anchor="middle" x="522.5" y="-376" font-family="Helvetica,sans-Serif" font-size="10.00">Frame2D&lt; int &gt;</text>
</a>
</g>
</g>
<!-- Node32&#45;&gt;Node48 -->
<g id="edge48" class="edge">
<title>Node32&#45;&gt;Node48</title>
<path fill="none" stroke="midnightblue" d="M521.77,-430.94C521.97,-417.03 522.23,-398.82 522.38,-388.22"/>
<polygon fill="midnightblue" stroke="midnightblue" points="518.26,-431.31 521.62,-441.36 525.26,-431.41 518.26,-431.31"/>
</g>
<!-- Node33 -->
<g id="node31" class="node">
<title>Node33</title>
<g id="a_node31"><a xlink:href="structdrain_1_1UnaryFunctor.html" target="_top" xlink:title=" ">
<polygon fill="white" stroke="black" points="740.5,-207.5 740.5,-226.5 822.5,-226.5 822.5,-207.5 740.5,-207.5"/>
<text text-anchor="middle" x="781.5" y="-214.5" font-family="Helvetica,sans-Serif" font-size="10.00">UnaryFunctor</text>
</a>
</g>
</g>
<!-- Node33&#45;&gt;Node3 -->
<g id="edge31" class="edge">
<title>Node33&#45;&gt;Node3</title>
<path fill="none" stroke="#9a32cd" stroke-dasharray="5,2" d="M747.68,-204.2C725.08,-196.44 694.63,-186.24 667.5,-178 645.22,-171.23 620.48,-164.33 599.13,-158.56"/>
<polygon fill="#9a32cd" stroke="#9a32cd" points="746.57,-207.51 757.16,-207.46 748.85,-200.9 746.57,-207.51"/>
<text text-anchor="middle" x="729" y="-181" font-family="Helvetica,sans-Serif" font-size="10.00"> myFunctor</text>
</g>
<!-- Node34 -->
<g id="node32" class="node">
<title>Node34</title>
<g id="a_node32"><a xlink:href="classdrain_1_1Functor.html" target="_top" xlink:title="Base class for sequential computations. Optional scaling utilities.">
<polygon fill="white" stroke="black" points="756,-285.5 756,-304.5 809,-304.5 809,-285.5 756,-285.5"/>
<text text-anchor="middle" x="782.5" y="-292.5" font-family="Helvetica,sans-Serif" font-size="10.00">Functor</text>
</a>
</g>
</g>
<!-- Node34&#45;&gt;Node33 -->
<g id="edge32" class="edge">
<title>Node34&#45;&gt;Node33</title>
<path fill="none" stroke="midnightblue" d="M782.25,-275.22C782.05,-259.7 781.77,-238.36 781.61,-226.62"/>
<polygon fill="midnightblue" stroke="midnightblue" points="778.75,-275.33 782.39,-285.28 785.75,-275.24 778.75,-275.33"/>
</g>
<!-- Node35 -->
<g id="node33" class="node">
<title>Node35</title>
<g id="a_node33"><a xlink:href="classdrain_1_1BeanLike.html" target="_top" xlink:title="Something which has a name, a description and possibly some parameters of varying type.">
<polygon fill="white" stroke="black" points="754,-369 754,-388 815,-388 815,-369 754,-369"/>
<text text-anchor="middle" x="784.5" y="-376" font-family="Helvetica,sans-Serif" font-size="10.00">BeanLike</text>
</a>
</g>
</g>
<!-- Node35&#45;&gt;Node34 -->
<g id="edge33" class="edge">
<title>Node35&#45;&gt;Node34</title>
<path fill="none" stroke="midnightblue" d="M784.03,-358.38C783.61,-341.4 783.02,-317.37 782.71,-304.66"/>
<polygon fill="midnightblue" stroke="midnightblue" points="780.54,-358.87 784.29,-368.78 787.54,-358.7 780.54,-358.87"/>
</g>
<!-- Node36 -->
<g id="node34" class="node">
<title>Node36</title>
<g id="a_node34"><a xlink:href="classdrain_1_1ReferenceMap.html" target="_top" xlink:title=" ">
<polygon fill="white" stroke="black" points="741,-441.5 741,-460.5 828,-460.5 828,-441.5 741,-441.5"/>
<text text-anchor="middle" x="784.5" y="-448.5" font-family="Helvetica,sans-Serif" font-size="10.00">ReferenceMap</text>
</a>
</g>
</g>
<!-- Node36&#45;&gt;Node35 -->
<g id="edge34" class="edge">
<title>Node36&#45;&gt;Node35</title>
<path fill="none" stroke="#9a32cd" stroke-dasharray="5,2" d="M784.5,-430.94C784.5,-417.03 784.5,-398.82 784.5,-388.22"/>
<polygon fill="#9a32cd" stroke="#9a32cd" points="781,-431.36 784.5,-441.36 788,-431.36 781,-431.36"/>
<text text-anchor="middle" x="814.5" y="-415" font-family="Helvetica,sans-Serif" font-size="10.00"> parameters</text>
</g>
<!-- Node37 -->
<g id="node35" class="node">
<title>Node37</title>
<g id="a_node35"><a xlink:href="classdrain_1_1SmartMap.html" target="_top" xlink:title=" ">
<polygon fill="white" stroke="black" points="688,-520.5 688,-539.5 831,-539.5 831,-520.5 688,-520.5"/>
<text text-anchor="middle" x="759.5" y="-527.5" font-family="Helvetica,sans-Serif" font-size="10.00">SmartMap&lt; Referencer &gt;</text>
</a>
</g>
</g>
<!-- Node37&#45;&gt;Node36 -->
<g id="edge35" class="edge">
<title>Node37&#45;&gt;Node36</title>
<path fill="none" stroke="midnightblue" d="M765.42,-510.77C770.53,-495.02 777.71,-472.92 781.64,-460.81"/>
<polygon fill="midnightblue" stroke="midnightblue" points="762.03,-509.87 762.27,-520.47 768.69,-512.04 762.03,-509.87"/>
</g>
<!-- Node38 -->
<g id="node36" class="node">
<title>Node38</title>
<g id="a_node36"><a xlink:title=" ">
<polygon fill="white" stroke="#bfbfbf" points="619,-597.5 619,-616.5 788,-616.5 788,-597.5 619,-597.5"/>
<text text-anchor="middle" x="703.5" y="-604.5" font-family="Helvetica,sans-Serif" font-size="10.00">map&lt; std::string, Referencer &gt;</text>
</a>
</g>
</g>
<!-- Node38&#45;&gt;Node37 -->
<g id="edge36" class="edge">
<title>Node38&#45;&gt;Node37</title>
<path fill="none" stroke="midnightblue" d="M716.02,-589.23C727.54,-573.8 744.16,-551.54 753.15,-539.5"/>
<polygon fill="midnightblue" stroke="midnightblue" points="713.1,-587.29 709.92,-597.4 718.71,-591.48 713.1,-587.29"/>
</g>
<!-- Node39 -->
<g id="node37" class="node">
<title>Node39</title>
<g id="a_node37"><a xlink:href="classdrain_1_1UniCloner.html" target="_top" xlink:title=" ">
<polygon fill="white" stroke="black" points="101,-207.5 101,-226.5 284,-226.5 284,-207.5 101,-207.5"/>
<text text-anchor="middle" x="192.5" y="-214.5" font-family="Helvetica,sans-Serif" font-size="10.00">UniCloner&lt; drain::UnaryFunctor &gt;</text>
</a>
</g>
</g>
<!-- Node39&#45;&gt;Node3 -->
<g id="edge37" class="edge">
<title>Node39&#45;&gt;Node3</title>
<path fill="none" stroke="#9a32cd" stroke-dasharray="5,2" d="M210.24,-200.94C220.92,-192.74 235.19,-183.23 249.5,-178 285.26,-164.93 377.82,-155.81 450,-150.42"/>
<polygon fill="#9a32cd" stroke="#9a32cd" points="207.81,-198.41 202.2,-207.4 212.19,-203.87 207.81,-198.41"/>
<text text-anchor="middle" x="274" y="-181" font-family="Helvetica,sans-Serif" font-size="10.00"> unicloner</text>
</g>
<!-- Node40 -->
<g id="node38" class="node">
<title>Node40</title>
<g id="a_node38"><a xlink:href="classdrain_1_1Bank.html" target="_top" xlink:title=" ">
<polygon fill="white" stroke="black" points="151,-285.5 151,-304.5 234,-304.5 234,-285.5 151,-285.5"/>
<text text-anchor="middle" x="192.5" y="-292.5" font-family="Helvetica,sans-Serif" font-size="10.00">Bank&lt; T, K &gt;</text>
</a>
</g>
</g>
<!-- Node40&#45;&gt;Node39 -->
<g id="edge38" class="edge">
<title>Node40&#45;&gt;Node39</title>
<path fill="none" stroke="#9a32cd" stroke-dasharray="5,2" d="M192.5,-275.22C192.5,-259.7 192.5,-238.36 192.5,-226.62"/>
<polygon fill="#9a32cd" stroke="#9a32cd" points="189,-275.28 192.5,-285.28 196,-275.28 189,-275.28"/>
<text text-anchor="middle" x="206.5" y="-253.5" font-family="Helvetica,sans-Serif" font-size="10.00"> bank</text>
</g>
<!-- Node41 -->
<g id="node39" class="node">
<title>Node41</title>
<g id="a_node39"><a xlink:title=" ">
<polygon fill="white" stroke="#bfbfbf" points="124.5,-363.5 124.5,-393.5 260.5,-393.5 260.5,-363.5 124.5,-363.5"/>
<text text-anchor="start" x="132.5" y="-381.5" font-family="Helvetica,sans-Serif" font-size="10.00">map&lt; std::string, Cloner</text>
<text text-anchor="middle" x="192.5" y="-370.5" font-family="Helvetica,sans-Serif" font-size="10.00">Base&lt; T &gt; * &gt;</text>
</a>
</g>
</g>
<!-- Node41&#45;&gt;Node40 -->
<g id="edge39" class="edge">
<title>Node41&#45;&gt;Node40</title>
<path fill="none" stroke="darkgreen" d="M192.5,-353.25C192.5,-336.78 192.5,-315.99 192.5,-304.54"/>
<polygon fill="darkgreen" stroke="darkgreen" points="189,-353.3 192.5,-363.3 196,-353.3 189,-353.3"/>
</g>
<!-- Node42&#45;&gt;Node2 -->
<g id="edge54" class="edge">
<title>Node42&#45;&gt;Node2</title>
<path fill="none" stroke="#9a32cd" stroke-dasharray="5,2" d="M676.12,-197.26C673.78,-177.7 667.47,-147.12 650.5,-127 635.45,-109.16 612.86,-96.78 592.48,-88.54"/>
<polygon fill="#9a32cd" stroke="#9a32cd" points="672.65,-197.73 677.09,-207.35 679.62,-197.06 672.65,-197.73"/>
<text text-anchor="middle" x="699.5" y="-152" font-family="Helvetica,sans-Serif" font-size="10.00"> locationTrail</text>
<text text-anchor="middle" x="699.5" y="-141" font-family="Helvetica,sans-Serif" font-size="10.00">locationLead</text>
<text text-anchor="middle" x="699.5" y="-130" font-family="Helvetica,sans-Serif" font-size="10.00">locationTmp</text>
</g>
<!-- Node42&#45;&gt;Node3 -->
<g id="edge40" class="edge">
<title>Node42&#45;&gt;Node3</title>
<path fill="none" stroke="#9a32cd" stroke-dasharray="5,2" d="M649.12,-203.19C639.9,-198.86 629.68,-193.89 620.5,-189 602.59,-179.47 582.88,-167.73 568.16,-158.69"/>
<polygon fill="#9a32cd" stroke="#9a32cd" points="647.74,-206.41 658.28,-207.44 650.68,-200.06 647.74,-206.41"/>
<text text-anchor="middle" x="642" y="-181" font-family="Helvetica,sans-Serif" font-size="10.00"> location</text>
</g>
<!-- Node43 -->
<g id="node41" class="node">
<title>Node43</title>
<g id="a_node41"><a xlink:href="classdrain_1_1image_1_1HistogramWindowConfig.html" target="_top" xlink:title=" ">
<polygon fill="white" stroke="black" points="476.5,-207.5 476.5,-226.5 614.5,-226.5 614.5,-207.5 476.5,-207.5"/>
<text text-anchor="middle" x="545.5" y="-214.5" font-family="Helvetica,sans-Serif" font-size="10.00">HistogramWindowConfig</text>
</a>
</g>
</g>
<!-- Node43&#45;&gt;Node3 -->
<g id="edge42" class="edge">
<title>Node43&#45;&gt;Node3</title>
<path fill="none" stroke="#9a32cd" stroke-dasharray="5,2" d="M545.5,-196.9C545.5,-184.82 545.5,-169.47 545.5,-158.51"/>
<polygon fill="#9a32cd" stroke="#9a32cd" points="542,-197.23 545.5,-207.23 549,-197.23 542,-197.23"/>
<text text-anchor="middle" x="558" y="-181" font-family="Helvetica,sans-Serif" font-size="10.00"> conf</text>
</g>
<!-- Node44 -->
<g id="node42" class="node">
<title>Node44</title>
<g id="a_node42"><a xlink:href="classdrain_1_1image_1_1WindowConfig.html" target="_top" xlink:title="Base class for configurations applied in image processing windows, e.g. for operators of type WindowO...">
<polygon fill="white" stroke="black" points="480,-285.5 480,-304.5 567,-304.5 567,-285.5 480,-285.5"/>
<text text-anchor="middle" x="523.5" y="-292.5" font-family="Helvetica,sans-Serif" font-size="10.00">WindowConfig</text>
</a>
</g>
</g>
<!-- Node44&#45;&gt;Node43 -->
<g id="edge43" class="edge">
<title>Node44&#45;&gt;Node43</title>
<path fill="none" stroke="midnightblue" d="M528.8,-275.67C533.31,-260.11 539.57,-238.47 543.01,-226.62"/>
<polygon fill="midnightblue" stroke="midnightblue" points="525.44,-274.7 526.02,-285.28 532.17,-276.65 525.44,-274.7"/>
</g>
<!-- Node45 -->
<g id="node43" class="node">
<title>Node45</title>
<g id="a_node43"><a xlink:href="classdrain_1_1VariableMap.html" target="_top" xlink:title="A map of Variables.">
<polygon fill="white" stroke="black" points="657.5,-369 657.5,-388 735.5,-388 735.5,-369 657.5,-369"/>
<text text-anchor="middle" x="696.5" y="-376" font-family="Helvetica,sans-Serif" font-size="10.00">VariableMap</text>
</a>
</g>
</g>
<!-- Node45&#45;&gt;Node44 -->
<g id="edge44" class="edge">
<title>Node45&#45;&gt;Node44</title>
<path fill="none" stroke="#9a32cd" stroke-dasharray="5,2" d="M668.98,-364.53C633.3,-347.73 572.08,-318.89 541.7,-304.58"/>
<polygon fill="#9a32cd" stroke="#9a32cd" points="667.77,-367.84 678.31,-368.93 670.76,-361.5 667.77,-367.84"/>
<text text-anchor="middle" x="671.5" y="-331.5" font-family="Helvetica,sans-Serif" font-size="10.00"> functorParameters</text>
</g>
<!-- Node46 -->
<g id="node44" class="node">
<title>Node46</title>
<g id="a_node44"><a xlink:href="classdrain_1_1SmartMap.html" target="_top" xlink:title=" ">
<polygon fill="white" stroke="black" points="592.5,-441.5 592.5,-460.5 722.5,-460.5 722.5,-441.5 592.5,-441.5"/>
<text text-anchor="middle" x="657.5" y="-448.5" font-family="Helvetica,sans-Serif" font-size="10.00">SmartMap&lt; Variable &gt;</text>
</a>
</g>
</g>
<!-- Node46&#45;&gt;Node45 -->
<g id="edge45" class="edge">
<title>Node46&#45;&gt;Node45</title>
<path fill="none" stroke="midnightblue" d="M667.13,-432.59C674.93,-418.5 685.58,-399.24 691.68,-388.22"/>
<polygon fill="midnightblue" stroke="midnightblue" points="664.06,-430.91 662.28,-441.36 670.19,-434.3 664.06,-430.91"/>
</g>
<!-- Node47 -->
<g id="node45" class="node">
<title>Node47</title>
<g id="a_node45"><a xlink:title=" ">
<polygon fill="white" stroke="#bfbfbf" points="513.5,-520.5 513.5,-539.5 669.5,-539.5 669.5,-520.5 513.5,-520.5"/>
<text text-anchor="middle" x="591.5" y="-527.5" font-family="Helvetica,sans-Serif" font-size="10.00">map&lt; std::string, Variable &gt;</text>
</a>
</g>
</g>
<!-- Node47&#45;&gt;Node46 -->
<g id="edge46" class="edge">
<title>Node47&#45;&gt;Node46</title>
<path fill="none" stroke="midnightblue" d="M605.59,-512.56C619.16,-496.73 639.17,-473.39 649.95,-460.81"/>
<polygon fill="midnightblue" stroke="midnightblue" points="602.67,-510.6 598.82,-520.47 607.98,-515.15 602.67,-510.6"/>
</g>
<!-- Node48&#45;&gt;Node44 -->
<g id="edge47" class="edge">
<title>Node48&#45;&gt;Node44</title>
<path fill="none" stroke="#9a32cd" stroke-dasharray="5,2" d="M522.73,-358.38C522.94,-341.4 523.24,-317.37 523.39,-304.66"/>
<polygon fill="#9a32cd" stroke="#9a32cd" points="519.23,-358.74 522.61,-368.78 526.23,-358.82 519.23,-358.74"/>
<text text-anchor="middle" x="539" y="-331.5" font-family="Helvetica,sans-Serif" font-size="10.00"> frame</text>
</g>
<!-- Node48&#45;&gt;Node50 -->
<g id="edge52" class="edge">
<title>Node48&#45;&gt;Node50</title>
<path fill="none" stroke="#9a32cd" stroke-dasharray="5,2" d="M503.83,-362.44C489.38,-351.06 468.66,-335.35 449.5,-323 439.21,-316.37 427.18,-309.73 417.62,-304.69"/>
<polygon fill="#9a32cd" stroke="#9a32cd" points="501.94,-365.41 511.95,-368.9 506.3,-359.93 501.94,-365.41"/>
<text text-anchor="middle" x="492" y="-331.5" font-family="Helvetica,sans-Serif" font-size="10.00"> area</text>
</g>
<!-- Node49 -->
<g id="node47" class="node">
<title>Node49</title>
<g id="a_node47"><a xlink:href="structdrain_1_1image_1_1HistogramConfig.html" target="_top" xlink:title=" ">
<polygon fill="white" stroke="black" points="585,-285.5 585,-304.5 684,-304.5 684,-285.5 585,-285.5"/>
<text text-anchor="middle" x="634.5" y="-292.5" font-family="Helvetica,sans-Serif" font-size="10.00">HistogramConfig</text>
</a>
</g>
</g>
<!-- Node49&#45;&gt;Node43 -->
<g id="edge49" class="edge">
<title>Node49&#45;&gt;Node43</title>
<path fill="none" stroke="midnightblue" d="M616.62,-278.73C598.28,-263.07 570.41,-239.27 555.59,-226.62"/>
<polygon fill="midnightblue" stroke="midnightblue" points="614.41,-281.45 624.29,-285.28 618.96,-276.13 614.41,-281.45"/>
</g>
<!-- Node50&#45;&gt;Node3 -->
<g id="edge50" class="edge">
<title>Node50&#45;&gt;Node3</title>
<path fill="none" stroke="#9a32cd" stroke-dasharray="5,2" d="M387.22,-277.23C374.23,-258.65 358.45,-228.48 373.5,-207 391.27,-181.63 420.46,-166.52 449.78,-157.53"/>
<polygon fill="#9a32cd" stroke="#9a32cd" points="384.45,-279.38 393.22,-285.33 390.08,-275.21 384.45,-279.38"/>
<text text-anchor="middle" x="420.5" y="-214.5" font-family="Helvetica,sans-Serif" font-size="10.00"> coordinateHandler</text>
</g>
<!-- Node51&#45;&gt;Node1 -->
<g id="edge56" class="edge">
<title>Node51&#45;&gt;Node1</title>
<path fill="none" stroke="#9a32cd" stroke-dasharray="5,2" d="M110.07,-659.14C92.32,-648.02 72.5,-630.56 72.5,-608 72.5,-608 72.5,-608 72.5,-72.5 72.5,-53.35 78.17,-31.47 81.72,-19.65"/>
<polygon fill="#9a32cd" stroke="#9a32cd" points="108.64,-662.36 119.05,-664.37 112.17,-656.31 108.64,-662.36"/>
<text text-anchor="middle" x="99" y="-331.5" font-family="Helvetica,sans-Serif" font-size="10.00"> histogram</text>
</g>
<!-- Node52 -->
<g id="node50" class="node">
<title>Node52</title>
<g id="a_node50"><a xlink:title=" ">
<polygon fill="white" stroke="#bfbfbf" points="68.5,-737 68.5,-756 206.5,-756 206.5,-737 68.5,-737"/>
<text text-anchor="middle" x="137.5" y="-744" font-family="Helvetica,sans-Serif" font-size="10.00">vector&lt; unsigned long &gt;</text>
</a>
</g>
</g>
<!-- Node52&#45;&gt;Node51 -->
<g id="edge57" class="edge">
<title>Node52&#45;&gt;Node51</title>
<path fill="none" stroke="darkgreen" d="M137.5,-726.44C137.5,-712.53 137.5,-694.32 137.5,-683.72"/>
<polygon fill="darkgreen" stroke="darkgreen" points="134,-726.86 137.5,-736.86 141,-726.86 134,-726.86"/>
</g>
</g>
</svg>
