<?xml version="1.0" encoding="UTF-8" standalone="no"?>
<!DOCTYPE svg PUBLIC "-//W3C//DTD SVG 1.1//EN"
 "http://www.w3.org/Graphics/SVG/1.1/DTD/svg11.dtd">
<!-- Generated by graphviz version 2.43.0 (0)
 -->
<!-- Title: Program Pages: 1 -->
<svg width="622pt" height="104pt"
 viewBox="0.00 0.00 622.00 104.00" xmlns="http://www.w3.org/2000/svg" xmlns:xlink="http://www.w3.org/1999/xlink">
<g id="graph0" class="graph" transform="scale(1 1) rotate(0) translate(4 100)">
<title>Program</title>
<polygon fill="white" stroke="transparent" points="-4,4 -4,-100 618,-100 618,4 -4,4"/>
<!-- Node1 -->
<g id="node1" class="node">
<title>Node1</title>
<g id="a_node1"><a xlink:title="Sequence consisting of Command:s retrieved from a CommandBank.">
<polygon fill="#bfbfbf" stroke="black" points="556,-39.5 556,-58.5 614,-58.5 614,-39.5 556,-39.5"/>
<text text-anchor="middle" x="585" y="-46.5" font-family="Helvetica,sans-Serif" font-size="10.00">Program</text>
</a>
</g>
</g>
<!-- Node2 -->
<g id="node2" class="node">
<title>Node2</title>
<g id="a_node2"><a xlink:href="classdrain_1_1CommandSequence.html" target="_top" xlink:title=" ">
<polygon fill="white" stroke="black" points="342,-54.5 342,-95.5 482,-95.5 482,-54.5 342,-54.5"/>
<text text-anchor="start" x="350" y="-83.5" font-family="Helvetica,sans-Serif" font-size="10.00">CommandSequence&lt; std</text>
<text text-anchor="start" x="350" y="-72.5" font-family="Helvetica,sans-Serif" font-size="10.00">::pair&lt; std::string,</text>
<text text-anchor="middle" x="412" y="-61.5" font-family="Helvetica,sans-Serif" font-size="10.00"> Command * &gt; &gt;</text>
</a>
</g>
</g>
<!-- Node2&#45;&gt;Node1 -->
<g id="edge1" class="edge">
<title>Node2&#45;&gt;Node1</title>
<path fill="none" stroke="midnightblue" d="M492.11,-62.97C514.88,-59.51 538.25,-55.96 555.73,-53.3"/>
<polygon fill="midnightblue" stroke="midnightblue" points="491.42,-59.54 482.06,-64.5 492.47,-66.46 491.42,-59.54"/>
</g>
<!-- Node3 -->
<g id="node3" class="node">
<title>Node3</title>
<g id="a_node3"><a xlink:title=" ">
<polygon fill="white" stroke="#bfbfbf" points="166.5,-61 166.5,-91 303.5,-91 303.5,-61 166.5,-61"/>
<text text-anchor="start" x="174.5" y="-79" font-family="Helvetica,sans-Serif" font-size="10.00">list&lt; std::pair&lt; std</text>
<text text-anchor="middle" x="235" y="-68" font-family="Helvetica,sans-Serif" font-size="10.00">::string, Command * &gt; &gt;</text>
</a>
</g>
</g>
<!-- Node3&#45;&gt;Node2 -->
<g id="edge2" class="edge">
<title>Node3&#45;&gt;Node2</title>
<path fill="none" stroke="midnightblue" d="M313.72,-75.56C323.07,-75.5 332.57,-75.45 341.79,-75.4"/>
<polygon fill="midnightblue" stroke="midnightblue" points="313.64,-72.06 303.66,-75.61 313.68,-79.06 313.64,-72.06"/>
</g>
<!-- Node4 -->
<g id="node4" class="node">
<title>Node4</title>
<g id="a_node4"><a xlink:href="classdrain_1_1Script.html" target="_top" xlink:title=" ">
<polygon fill="white" stroke="black" points="390,-15.5 390,-34.5 434,-34.5 434,-15.5 390,-15.5"/>
<text text-anchor="middle" x="412" y="-22.5" font-family="Helvetica,sans-Serif" font-size="10.00">Script</text>
</a>
</g>
</g>
<!-- Node4&#45;&gt;Node1 -->
<g id="edge3" class="edge">
<title>Node4&#45;&gt;Node1</title>
<path fill="none" stroke="#9a32cd" stroke-dasharray="5,2" d="M444.42,-29.41C476.31,-33.89 525.23,-40.75 555.88,-45.05"/>
<polygon fill="#9a32cd" stroke="#9a32cd" points="444.7,-25.92 434.31,-27.99 443.73,-32.85 444.7,-25.92"/>
<text text-anchor="middle" x="519" y="-45" font-family="Helvetica,sans-Serif" font-size="10.00"> routine</text>
</g>
<!-- Node5 -->
<g id="node5" class="node">
<title>Node5</title>
<g id="a_node5"><a xlink:href="classdrain_1_1CommandSequence.html" target="_top" xlink:title=" ">
<polygon fill="white" stroke="black" points="165,-0.5 165,-41.5 305,-41.5 305,-0.5 165,-0.5"/>
<text text-anchor="start" x="173" y="-29.5" font-family="Helvetica,sans-Serif" font-size="10.00">CommandSequence&lt; std</text>
<text text-anchor="start" x="173" y="-18.5" font-family="Helvetica,sans-Serif" font-size="10.00">::pair&lt; std::string,</text>
<text text-anchor="middle" x="235" y="-7.5" font-family="Helvetica,sans-Serif" font-size="10.00"> std::string &gt; &gt;</text>
</a>
</g>
</g>
<!-- Node5&#45;&gt;Node4 -->
<g id="edge4" class="edge">
<title>Node5&#45;&gt;Node4</title>
<path fill="none" stroke="midnightblue" d="M315.52,-22.82C342.73,-23.44 370.98,-24.09 389.62,-24.51"/>
<polygon fill="midnightblue" stroke="midnightblue" points="315.24,-19.31 305.16,-22.58 315.08,-26.31 315.24,-19.31"/>
</g>
<!-- Node6 -->
<g id="node6" class="node">
<title>Node6</title>
<g id="a_node6"><a xlink:title=" ">
<polygon fill="white" stroke="#bfbfbf" points="0,-6 0,-36 128,-36 128,-6 0,-6"/>
<text text-anchor="start" x="8" y="-24" font-family="Helvetica,sans-Serif" font-size="10.00">list&lt; std::pair&lt; std</text>
<text text-anchor="middle" x="64" y="-13" font-family="Helvetica,sans-Serif" font-size="10.00">::string, std::string &gt; &gt;</text>
</a>
</g>
</g>
<!-- Node6&#45;&gt;Node5 -->
<g id="edge5" class="edge">
<title>Node6&#45;&gt;Node5</title>
<path fill="none" stroke="midnightblue" d="M138.57,-21C147.3,-21 156.19,-21 164.85,-21"/>
<polygon fill="midnightblue" stroke="midnightblue" points="138.41,-17.5 128.41,-21 138.41,-24.5 138.41,-17.5"/>
</g>
</g>
</svg>
