<?xml version="1.0" encoding="UTF-8" standalone="no"?>
<!DOCTYPE svg PUBLIC "-//W3C//DTD SVG 1.1//EN"
 "http://www.w3.org/Graphics/SVG/1.1/DTD/svg11.dtd">
<!-- Generated by graphviz version 2.43.0 (0)
 -->
<!-- Title: SlidingWindowMedianWeighted Pages: 1 -->
<svg width="199pt" height="464pt"
 viewBox="0.00 0.00 199.00 464.00" xmlns="http://www.w3.org/2000/svg" xmlns:xlink="http://www.w3.org/1999/xlink">
<g id="graph0" class="graph" transform="scale(1 1) rotate(0) translate(4 460)">
<title>SlidingWindowMedianWeighted</title>
<polygon fill="white" stroke="transparent" points="-4,4 -4,-460 195,-460 195,4 -4,4"/>
<!-- Node1 -->
<g id="node1" class="node">
<title>Node1</title>
<g id="a_node1"><a xlink:title=" ">
<polygon fill="#bfbfbf" stroke="black" points="10,-0.5 10,-19.5 181,-19.5 181,-0.5 10,-0.5"/>
<text text-anchor="middle" x="95.5" y="-7.5" font-family="Helvetica,sans-Serif" font-size="10.00">SlidingWindowMedianWeighted</text>
</a>
</g>
</g>
<!-- Node2 -->
<g id="node2" class="node">
<title>Node2</title>
<g id="a_node2"><a xlink:href="classdrain_1_1image_1_1SlidingWindowHistogramWeighted.html" target="_top" xlink:title=" ">
<polygon fill="white" stroke="black" points="2.5,-56.5 2.5,-75.5 188.5,-75.5 188.5,-56.5 2.5,-56.5"/>
<text text-anchor="middle" x="95.5" y="-63.5" font-family="Helvetica,sans-Serif" font-size="10.00">SlidingWindowHistogramWeighted</text>
</a>
</g>
</g>
<!-- Node2&#45;&gt;Node1 -->
<g id="edge1" class="edge">
<title>Node2&#45;&gt;Node1</title>
<path fill="none" stroke="midnightblue" d="M95.5,-45.8C95.5,-36.91 95.5,-26.78 95.5,-19.75"/>
<polygon fill="midnightblue" stroke="midnightblue" points="92,-46.08 95.5,-56.08 99,-46.08 92,-46.08"/>
</g>
<!-- Node3 -->
<g id="node3" class="node">
<title>Node3</title>
<g id="a_node3"><a xlink:href="classdrain_1_1image_1_1SlidingWindowHistogram.html" target="_top" xlink:title=" ">
<polygon fill="white" stroke="black" points="22,-112.5 22,-142.5 169,-142.5 169,-112.5 22,-112.5"/>
<text text-anchor="start" x="30" y="-130.5" font-family="Helvetica,sans-Serif" font-size="10.00">SlidingWindowHistogram</text>
<text text-anchor="middle" x="95.5" y="-119.5" font-family="Helvetica,sans-Serif" font-size="10.00">&lt; WeightedWindowCore &gt;</text>
</a>
</g>
</g>
<!-- Node3&#45;&gt;Node2 -->
<g id="edge2" class="edge">
<title>Node3&#45;&gt;Node2</title>
<path fill="none" stroke="midnightblue" d="M95.5,-102.29C95.5,-92.86 95.5,-82.65 95.5,-75.66"/>
<polygon fill="midnightblue" stroke="midnightblue" points="92,-102.4 95.5,-112.4 99,-102.4 92,-102.4"/>
</g>
<!-- Node4 -->
<g id="node4" class="node">
<title>Node4</title>
<g id="a_node4"><a xlink:href="classdrain_1_1image_1_1SlidingWindow.html" target="_top" xlink:title=" ">
<polygon fill="white" stroke="black" points="6,-179.5 6,-220.5 185,-220.5 185,-179.5 6,-179.5"/>
<text text-anchor="start" x="14" y="-208.5" font-family="Helvetica,sans-Serif" font-size="10.00">SlidingWindow&lt; Histogram</text>
<text text-anchor="start" x="14" y="-197.5" font-family="Helvetica,sans-Serif" font-size="10.00">WindowConfig, WeightedWindow</text>
<text text-anchor="middle" x="95.5" y="-186.5" font-family="Helvetica,sans-Serif" font-size="10.00">Core &gt;</text>
</a>
</g>
</g>
<!-- Node4&#45;&gt;Node3 -->
<g id="edge3" class="edge">
<title>Node4&#45;&gt;Node3</title>
<path fill="none" stroke="midnightblue" d="M95.5,-169.08C95.5,-160.01 95.5,-150.45 95.5,-142.89"/>
<polygon fill="midnightblue" stroke="midnightblue" points="92,-169.36 95.5,-179.36 99,-169.36 92,-169.36"/>
</g>
<!-- Node5 -->
<g id="node5" class="node">
<title>Node5</title>
<g id="a_node5"><a xlink:href="classdrain_1_1image_1_1Window.html" target="_top" xlink:title=" ">
<polygon fill="white" stroke="black" points="0,-257.5 0,-287.5 191,-287.5 191,-257.5 0,-257.5"/>
<text text-anchor="start" x="8" y="-275.5" font-family="Helvetica,sans-Serif" font-size="10.00">Window&lt; HistogramWindowConfig,</text>
<text text-anchor="middle" x="95.5" y="-264.5" font-family="Helvetica,sans-Serif" font-size="10.00"> WeightedWindowCore &gt;</text>
</a>
</g>
</g>
<!-- Node5&#45;&gt;Node4 -->
<g id="edge4" class="edge">
<title>Node5&#45;&gt;Node4</title>
<path fill="none" stroke="midnightblue" d="M95.5,-246.98C95.5,-238.35 95.5,-228.76 95.5,-220.59"/>
<polygon fill="midnightblue" stroke="midnightblue" points="92,-247.23 95.5,-257.23 99,-247.23 92,-247.23"/>
</g>
<!-- Node6 -->
<g id="node6" class="node">
<title>Node6</title>
<g id="a_node6"><a xlink:href="classdrain_1_1image_1_1WeightedWindowCore.html" target="_top" xlink:title=" ">
<polygon fill="white" stroke="black" points="33,-324.5 33,-343.5 158,-343.5 158,-324.5 33,-324.5"/>
<text text-anchor="middle" x="95.5" y="-331.5" font-family="Helvetica,sans-Serif" font-size="10.00">WeightedWindowCore</text>
</a>
</g>
</g>
<!-- Node6&#45;&gt;Node5 -->
<g id="edge5" class="edge">
<title>Node6&#45;&gt;Node5</title>
<path fill="none" stroke="midnightblue" d="M95.5,-314.23C95.5,-305.59 95.5,-295.5 95.5,-287.52"/>
<polygon fill="midnightblue" stroke="midnightblue" points="92,-314.48 95.5,-324.48 99,-314.48 92,-314.48"/>
</g>
<!-- Node7 -->
<g id="node7" class="node">
<title>Node7</title>
<g id="a_node7"><a xlink:href="classdrain_1_1image_1_1WindowCore.html" target="_top" xlink:title="Container for source data (input) and destination data (output). May also contain metadata of them.">
<polygon fill="white" stroke="black" points="56.5,-380.5 56.5,-399.5 134.5,-399.5 134.5,-380.5 56.5,-380.5"/>
<text text-anchor="middle" x="95.5" y="-387.5" font-family="Helvetica,sans-Serif" font-size="10.00">WindowCore</text>
</a>
</g>
</g>
<!-- Node7&#45;&gt;Node6 -->
<g id="edge6" class="edge">
<title>Node7&#45;&gt;Node6</title>
<path fill="none" stroke="midnightblue" d="M95.5,-369.8C95.5,-360.91 95.5,-350.78 95.5,-343.75"/>
<polygon fill="midnightblue" stroke="midnightblue" points="92,-370.08 95.5,-380.08 99,-370.08 92,-370.08"/>
</g>
<!-- Node8 -->
<g id="node8" class="node">
<title>Node8</title>
<g id="a_node8"><a xlink:href="classdrain_1_1image_1_1WindowCoreBase.html" target="_top" xlink:title="Provides splitting frames.">
<polygon fill="white" stroke="black" points="44.5,-436.5 44.5,-455.5 146.5,-455.5 146.5,-436.5 44.5,-436.5"/>
<text text-anchor="middle" x="95.5" y="-443.5" font-family="Helvetica,sans-Serif" font-size="10.00">WindowCoreBase</text>
</a>
</g>
</g>
<!-- Node8&#45;&gt;Node7 -->
<g id="edge7" class="edge">
<title>Node8&#45;&gt;Node7</title>
<path fill="none" stroke="midnightblue" d="M95.5,-425.8C95.5,-416.91 95.5,-406.78 95.5,-399.75"/>
<polygon fill="midnightblue" stroke="midnightblue" points="92,-426.08 95.5,-436.08 99,-426.08 92,-426.08"/>
</g>
</g>
</svg>
