<?xml version="1.0" encoding="UTF-8" standalone="no"?>
<!DOCTYPE svg PUBLIC "-//W3C//DTD SVG 1.1//EN"
 "http://www.w3.org/Graphics/SVG/1.1/DTD/svg11.dtd">
<!-- Generated by graphviz version 2.43.0 (0)
 -->
<!-- Title: SlidingWindowHistogram&lt; R &gt; Pages: 1 -->
<svg width="199pt" height="274pt"
 viewBox="0.00 0.00 199.00 274.00" xmlns="http://www.w3.org/2000/svg" xmlns:xlink="http://www.w3.org/1999/xlink">
<g id="graph0" class="graph" transform="scale(1 1) rotate(0) translate(4 270)">
<title>SlidingWindowHistogram&lt; R &gt;</title>
<polygon fill="white" stroke="transparent" points="-4,4 -4,-270 195,-270 195,4 -4,4"/>
<!-- Node1 -->
<g id="node1" class="node">
<title>Node1</title>
<g id="a_node1"><a xlink:title="Base class for median and str histogram based statistics.">
<polygon fill="#bfbfbf" stroke="black" points="11,-0.5 11,-19.5 180,-19.5 180,-0.5 11,-0.5"/>
<text text-anchor="middle" x="95.5" y="-7.5" font-family="Helvetica,sans-Serif" font-size="10.00">SlidingWindowHistogram&lt; R &gt;</text>
</a>
</g>
</g>
<!-- Node2 -->
<g id="node2" class="node">
<title>Node2</title>
<g id="a_node2"><a xlink:href="classdrain_1_1image_1_1SlidingWindow.html" target="_top" xlink:title=" ">
<polygon fill="white" stroke="black" points="12.5,-56.5 12.5,-86.5 178.5,-86.5 178.5,-56.5 12.5,-56.5"/>
<text text-anchor="start" x="20.5" y="-74.5" font-family="Helvetica,sans-Serif" font-size="10.00">SlidingWindow&lt; Histogram</text>
<text text-anchor="middle" x="95.5" y="-63.5" font-family="Helvetica,sans-Serif" font-size="10.00">WindowConfig, WindowCore &gt;</text>
</a>
</g>
</g>
<!-- Node2&#45;&gt;Node1 -->
<g id="edge1" class="edge">
<title>Node2&#45;&gt;Node1</title>
<path fill="none" stroke="midnightblue" d="M95.5,-46.29C95.5,-36.86 95.5,-26.65 95.5,-19.66"/>
<polygon fill="midnightblue" stroke="midnightblue" points="92,-46.4 95.5,-56.4 99,-46.4 92,-46.4"/>
</g>
<!-- Node3 -->
<g id="node3" class="node">
<title>Node3</title>
<g id="a_node3"><a xlink:href="classdrain_1_1image_1_1Window.html" target="_top" xlink:title=" ">
<polygon fill="white" stroke="black" points="0,-123.5 0,-153.5 191,-153.5 191,-123.5 0,-123.5"/>
<text text-anchor="start" x="8" y="-141.5" font-family="Helvetica,sans-Serif" font-size="10.00">Window&lt; HistogramWindowConfig,</text>
<text text-anchor="middle" x="95.5" y="-130.5" font-family="Helvetica,sans-Serif" font-size="10.00"> WindowCore &gt;</text>
</a>
</g>
</g>
<!-- Node3&#45;&gt;Node2 -->
<g id="edge2" class="edge">
<title>Node3&#45;&gt;Node2</title>
<path fill="none" stroke="midnightblue" d="M95.5,-113.11C95.5,-104.15 95.5,-94.32 95.5,-86.58"/>
<polygon fill="midnightblue" stroke="midnightblue" points="92,-113.4 95.5,-123.4 99,-113.4 92,-113.4"/>
</g>
<!-- Node4 -->
<g id="node4" class="node">
<title>Node4</title>
<g id="a_node4"><a xlink:href="classdrain_1_1image_1_1WindowCore.html" target="_top" xlink:title="Container for source data (input) and destination data (output). May also contain metadata of them.">
<polygon fill="white" stroke="black" points="56.5,-190.5 56.5,-209.5 134.5,-209.5 134.5,-190.5 56.5,-190.5"/>
<text text-anchor="middle" x="95.5" y="-197.5" font-family="Helvetica,sans-Serif" font-size="10.00">WindowCore</text>
</a>
</g>
</g>
<!-- Node4&#45;&gt;Node3 -->
<g id="edge3" class="edge">
<title>Node4&#45;&gt;Node3</title>
<path fill="none" stroke="midnightblue" d="M95.5,-180.23C95.5,-171.59 95.5,-161.5 95.5,-153.52"/>
<polygon fill="midnightblue" stroke="midnightblue" points="92,-180.48 95.5,-190.48 99,-180.48 92,-180.48"/>
</g>
<!-- Node5 -->
<g id="node5" class="node">
<title>Node5</title>
<g id="a_node5"><a xlink:href="classdrain_1_1image_1_1WindowCoreBase.html" target="_top" xlink:title="Provides splitting frames.">
<polygon fill="white" stroke="black" points="44.5,-246.5 44.5,-265.5 146.5,-265.5 146.5,-246.5 44.5,-246.5"/>
<text text-anchor="middle" x="95.5" y="-253.5" font-family="Helvetica,sans-Serif" font-size="10.00">WindowCoreBase</text>
</a>
</g>
</g>
<!-- Node5&#45;&gt;Node4 -->
<g id="edge4" class="edge">
<title>Node5&#45;&gt;Node4</title>
<path fill="none" stroke="midnightblue" d="M95.5,-235.8C95.5,-226.91 95.5,-216.78 95.5,-209.75"/>
<polygon fill="midnightblue" stroke="midnightblue" points="92,-236.08 95.5,-246.08 99,-236.08 92,-236.08"/>
</g>
</g>
</svg>
