<?xml version="1.0" encoding="UTF-8" standalone="no"?>
<!DOCTYPE svg PUBLIC "-//W3C//DTD SVG 1.1//EN"
 "http://www.w3.org/Graphics/SVG/1.1/DTD/svg11.dtd">
<!-- Generated by graphviz version 2.43.0 (0)
 -->
<!-- Title: Compositor Pages: 1 -->
<svg width="589pt" height="180pt"
 viewBox="0.00 0.00 589.00 180.00" xmlns="http://www.w3.org/2000/svg" xmlns:xlink="http://www.w3.org/1999/xlink">
<g id="graph0" class="graph" transform="scale(1 1) rotate(0) translate(4 176)">
<title>Compositor</title>
<polygon fill="white" stroke="transparent" points="-4,4 -4,-176 585,-176 585,4 -4,4"/>
<!-- Node1 -->
<g id="node1" class="node">
<title>Node1</title>
<g id="a_node1"><a xlink:title=" ">
<polygon fill="#bfbfbf" stroke="black" points="338,-76.5 338,-95.5 411,-95.5 411,-76.5 338,-76.5"/>
<text text-anchor="middle" x="374.5" y="-83.5" font-family="Helvetica,sans-Serif" font-size="10.00">Compositor</text>
</a>
</g>
</g>
<!-- Node5 -->
<g id="node5" class="node">
<title>Node5</title>
<g id="a_node5"><a xlink:href="classrack_1_1CartesianCreate.html" target="_top" xlink:title="Creates a single&#45;radar Cartesian data set (2D data of both quantity and quality).">
<polygon fill="white" stroke="black" points="466.5,-152.5 466.5,-171.5 561.5,-171.5 561.5,-152.5 466.5,-152.5"/>
<text text-anchor="middle" x="514" y="-159.5" font-family="Helvetica,sans-Serif" font-size="10.00">CartesianCreate</text>
</a>
</g>
</g>
<!-- Node1&#45;&gt;Node5 -->
<g id="edge4" class="edge">
<title>Node1&#45;&gt;Node5</title>
<path fill="none" stroke="midnightblue" d="M392.89,-103.14C406.58,-115.77 426.68,-132.5 447,-143 454.31,-146.77 462.47,-149.9 470.5,-152.44"/>
<polygon fill="midnightblue" stroke="midnightblue" points="394.92,-100.24 385.25,-95.9 390.1,-105.32 394.92,-100.24"/>
</g>
<!-- Node6 -->
<g id="node6" class="node">
<title>Node6</title>
<g id="a_node6"><a xlink:href="classrack_1_1CartesianExtract.html" target="_top" xlink:title=" ">
<polygon fill="white" stroke="black" points="465,-114.5 465,-133.5 563,-133.5 563,-114.5 465,-114.5"/>
<text text-anchor="middle" x="514" y="-121.5" font-family="Helvetica,sans-Serif" font-size="10.00">CartesianExtract</text>
</a>
</g>
</g>
<!-- Node1&#45;&gt;Node6 -->
<g id="edge5" class="edge">
<title>Node1&#45;&gt;Node6</title>
<path fill="none" stroke="midnightblue" d="M420.07,-98.32C438.96,-103.54 460.65,-109.53 478.31,-114.41"/>
<polygon fill="midnightblue" stroke="midnightblue" points="420.77,-94.88 410.2,-95.59 418.9,-101.63 420.77,-94.88"/>
</g>
<!-- Node7 -->
<g id="node7" class="node">
<title>Node7</title>
<g id="a_node7"><a xlink:href="classrack_1_1CompositeAdd.html" target="_top" xlink:title="Creates a single&#45;radar Cartesian data set (2D data of both quantity and quality).">
<polygon fill="white" stroke="black" points="470,-76.5 470,-95.5 558,-95.5 558,-76.5 470,-76.5"/>
<text text-anchor="middle" x="514" y="-83.5" font-family="Helvetica,sans-Serif" font-size="10.00">CompositeAdd</text>
</a>
</g>
</g>
<!-- Node1&#45;&gt;Node7 -->
<g id="edge6" class="edge">
<title>Node1&#45;&gt;Node7</title>
<path fill="none" stroke="midnightblue" d="M421.71,-86C437.25,-86 454.52,-86 469.82,-86"/>
<polygon fill="midnightblue" stroke="midnightblue" points="421.27,-82.5 411.27,-86 421.27,-89.5 421.27,-82.5"/>
</g>
<!-- Node8 -->
<g id="node8" class="node">
<title>Node8</title>
<g id="a_node8"><a xlink:href="classrack_1_1CompositeAddWeighted.html" target="_top" xlink:title=" ">
<polygon fill="white" stroke="black" points="447,-38.5 447,-57.5 581,-57.5 581,-38.5 447,-38.5"/>
<text text-anchor="middle" x="514" y="-45.5" font-family="Helvetica,sans-Serif" font-size="10.00">CompositeAddWeighted</text>
</a>
</g>
</g>
<!-- Node1&#45;&gt;Node8 -->
<g id="edge7" class="edge">
<title>Node1&#45;&gt;Node8</title>
<path fill="none" stroke="midnightblue" d="M420.07,-73.68C438.96,-68.46 460.65,-62.47 478.31,-57.59"/>
<polygon fill="midnightblue" stroke="midnightblue" points="418.9,-70.37 410.2,-76.41 420.77,-77.12 418.9,-70.37"/>
</g>
<!-- Node9 -->
<g id="node9" class="node">
<title>Node9</title>
<g id="a_node9"><a xlink:href="classrack_1_1CompositeCreateTile.html" target="_top" xlink:title=" ">
<polygon fill="white" stroke="black" points="454.5,-0.5 454.5,-19.5 573.5,-19.5 573.5,-0.5 454.5,-0.5"/>
<text text-anchor="middle" x="514" y="-7.5" font-family="Helvetica,sans-Serif" font-size="10.00">CompositeCreateTile</text>
</a>
</g>
</g>
<!-- Node1&#45;&gt;Node9 -->
<g id="edge8" class="edge">
<title>Node1&#45;&gt;Node9</title>
<path fill="none" stroke="midnightblue" d="M392.89,-68.86C406.58,-56.23 426.68,-39.5 447,-29 454.31,-25.23 462.47,-22.1 470.5,-19.56"/>
<polygon fill="midnightblue" stroke="midnightblue" points="390.1,-66.68 385.25,-76.1 394.92,-71.76 390.1,-66.68"/>
</g>
<!-- Node2 -->
<g id="node2" class="node">
<title>Node2</title>
<g id="a_node2"><a xlink:href="classdrain_1_1BasicCommand.html" target="_top" xlink:title="Simple implementation of Command: adds name , description and parameters .">
<polygon fill="white" stroke="black" points="209,-76.5 209,-95.5 302,-95.5 302,-76.5 209,-76.5"/>
<text text-anchor="middle" x="255.5" y="-83.5" font-family="Helvetica,sans-Serif" font-size="10.00">BasicCommand</text>
</a>
</g>
</g>
<!-- Node2&#45;&gt;Node1 -->
<g id="edge1" class="edge">
<title>Node2&#45;&gt;Node1</title>
<path fill="none" stroke="midnightblue" d="M312.16,-86C320.83,-86 329.58,-86 337.65,-86"/>
<polygon fill="midnightblue" stroke="midnightblue" points="312.07,-82.5 302.07,-86 312.07,-89.5 312.07,-82.5"/>
</g>
<!-- Node3 -->
<g id="node3" class="node">
<title>Node3</title>
<g id="a_node3"><a xlink:href="classdrain_1_1Command.html" target="_top" xlink:title="Base class for commands: typically actions taking parameters but also plain variable assignments and ...">
<polygon fill="white" stroke="black" points="106,-76.5 106,-95.5 173,-95.5 173,-76.5 106,-76.5"/>
<text text-anchor="middle" x="139.5" y="-83.5" font-family="Helvetica,sans-Serif" font-size="10.00">Command</text>
</a>
</g>
</g>
<!-- Node3&#45;&gt;Node2 -->
<g id="edge2" class="edge">
<title>Node3&#45;&gt;Node2</title>
<path fill="none" stroke="midnightblue" d="M183.35,-86C191.62,-86 200.31,-86 208.66,-86"/>
<polygon fill="midnightblue" stroke="midnightblue" points="183.17,-82.5 173.17,-86 183.17,-89.5 183.17,-82.5"/>
</g>
<!-- Node4 -->
<g id="node4" class="node">
<title>Node4</title>
<g id="a_node4"><a xlink:href="classdrain_1_1Contextual.html" target="_top" xlink:title=" ">
<polygon fill="white" stroke="black" points="0,-76.5 0,-95.5 70,-95.5 70,-76.5 0,-76.5"/>
<text text-anchor="middle" x="35" y="-83.5" font-family="Helvetica,sans-Serif" font-size="10.00">Contextual</text>
</a>
</g>
</g>
<!-- Node4&#45;&gt;Node3 -->
<g id="edge3" class="edge">
<title>Node4&#45;&gt;Node3</title>
<path fill="none" stroke="midnightblue" d="M80.39,-86C88.96,-86 97.8,-86 105.91,-86"/>
<polygon fill="midnightblue" stroke="midnightblue" points="80.13,-82.5 70.13,-86 80.13,-89.5 80.13,-82.5"/>
</g>
</g>
</svg>
