<?xml version="1.0" encoding="UTF-8" standalone="no"?>
<!DOCTYPE svg PUBLIC "-//W3C//DTD SVG 1.1//EN"
 "http://www.w3.org/Graphics/SVG/1.1/DTD/svg11.dtd">
<!-- Generated by graphviz version 2.43.0 (0)
 -->
<!-- Title: Context Pages: 1 -->
<svg width="182pt" height="140pt"
 viewBox="0.00 0.00 181.50 140.00" xmlns="http://www.w3.org/2000/svg" xmlns:xlink="http://www.w3.org/1999/xlink">
<g id="graph0" class="graph" transform="scale(1 1) rotate(0) translate(4 136)">
<title>Context</title>
<polygon fill="white" stroke="transparent" points="-4,4 -4,-136 177.5,-136 177.5,4 -4,4"/>
<!-- Node1 -->
<g id="node1" class="node">
<title>Node1</title>
<g id="a_node1"><a xlink:title=" ">
<polygon fill="#bfbfbf" stroke="black" points="62.5,-112.5 62.5,-131.5 117.5,-131.5 117.5,-112.5 62.5,-112.5"/>
<text text-anchor="middle" x="90" y="-119.5" font-family="Helvetica,sans-Serif" font-size="10.00">Context</text>
</a>
</g>
</g>
<!-- Node2 -->
<g id="node2" class="node">
<title>Node2</title>
<g id="a_node2"><a xlink:href="classdrain_1_1SmartContext.html" target="_top" xlink:title=" ">
<polygon fill="white" stroke="black" points="0,-56.5 0,-75.5 84,-75.5 84,-56.5 0,-56.5"/>
<text text-anchor="middle" x="42" y="-63.5" font-family="Helvetica,sans-Serif" font-size="10.00">SmartContext</text>
</a>
</g>
</g>
<!-- Node1&#45;&gt;Node2 -->
<g id="edge1" class="edge">
<title>Node1&#45;&gt;Node2</title>
<path fill="none" stroke="midnightblue" d="M75.27,-104.43C66.86,-94.97 56.65,-83.48 49.78,-75.75"/>
<polygon fill="midnightblue" stroke="midnightblue" points="72.81,-106.93 82.07,-112.08 78.05,-102.28 72.81,-106.93"/>
</g>
<!-- Node4 -->
<g id="node4" class="node">
<title>Node4</title>
<g id="a_node4"><a xlink:href="classFileContext.html" target="_top" xlink:title=" ">
<polygon fill="white" stroke="black" points="102.5,-56.5 102.5,-75.5 173.5,-75.5 173.5,-56.5 102.5,-56.5"/>
<text text-anchor="middle" x="138" y="-63.5" font-family="Helvetica,sans-Serif" font-size="10.00">FileContext</text>
</a>
</g>
</g>
<!-- Node1&#45;&gt;Node4 -->
<g id="edge3" class="edge">
<title>Node1&#45;&gt;Node4</title>
<path fill="none" stroke="midnightblue" d="M104.73,-104.43C113.14,-94.97 123.35,-83.48 130.22,-75.75"/>
<polygon fill="midnightblue" stroke="midnightblue" points="101.95,-102.28 97.93,-112.08 107.19,-106.93 101.95,-102.28"/>
</g>
<!-- Node3 -->
<g id="node3" class="node">
<title>Node3</title>
<g id="a_node3"><a xlink:href="classrack_1_1RackContext.html" target="_top" xlink:title="Resources provided separately for each thread.">
<polygon fill="white" stroke="black" points="2.5,-0.5 2.5,-19.5 81.5,-19.5 81.5,-0.5 2.5,-0.5"/>
<text text-anchor="middle" x="42" y="-7.5" font-family="Helvetica,sans-Serif" font-size="10.00">RackContext</text>
</a>
</g>
</g>
<!-- Node2&#45;&gt;Node3 -->
<g id="edge2" class="edge">
<title>Node2&#45;&gt;Node3</title>
<path fill="none" stroke="midnightblue" d="M42,-45.8C42,-36.91 42,-26.78 42,-19.75"/>
<polygon fill="midnightblue" stroke="midnightblue" points="38.5,-46.08 42,-56.08 45.5,-46.08 38.5,-46.08"/>
</g>
</g>
</svg>
