<?xml version="1.0" encoding="UTF-8" standalone="no"?>
<!DOCTYPE svg PUBLIC "-//W3C//DTD SVG 1.1//EN"
 "http://www.w3.org/Graphics/SVG/1.1/DTD/svg11.dtd">
<!-- Generated by graphviz version 2.43.0 (0)
 -->
<!-- Title: ImpulseAvg Pages: 1 -->
<svg width="417pt" height="412pt"
 viewBox="0.00 0.00 416.50 412.00" xmlns="http://www.w3.org/2000/svg" xmlns:xlink="http://www.w3.org/1999/xlink">
<g id="graph0" class="graph" transform="scale(1 1) rotate(0) translate(4 408)">
<title>ImpulseAvg</title>
<polygon fill="white" stroke="transparent" points="-4,4 -4,-408 412.5,-408 412.5,4 -4,4"/>
<!-- Node1 -->
<g id="node1" class="node">
<title>Node1</title>
<g id="a_node1"><a xlink:title="Averaging operator. A simple example implementation of ImpulseBucket.">
<polygon fill="#bfbfbf" stroke="black" points="115.5,-0.5 115.5,-19.5 189.5,-19.5 189.5,-0.5 115.5,-0.5"/>
<text text-anchor="middle" x="152.5" y="-7.5" font-family="Helvetica,sans-Serif" font-size="10.00">ImpulseAvg</text>
</a>
</g>
</g>
<!-- Node2 -->
<g id="node2" class="node">
<title>Node2</title>
<g id="a_node2"><a xlink:href="classdrain_1_1image_1_1ImpulseBucket.html" target="_top" xlink:title=" ">
<polygon fill="white" stroke="black" points="74,-57.5 74,-87.5 231,-87.5 231,-57.5 74,-57.5"/>
<text text-anchor="start" x="82" y="-75.5" font-family="Helvetica,sans-Serif" font-size="10.00">ImpulseBucket&lt; ImpulseAvg</text>
<text text-anchor="middle" x="152.5" y="-64.5" font-family="Helvetica,sans-Serif" font-size="10.00">Conf &gt;</text>
</a>
</g>
</g>
<!-- Node2&#45;&gt;Node1 -->
<g id="edge1" class="edge">
<title>Node2&#45;&gt;Node1</title>
<path fill="none" stroke="midnightblue" d="M152.5,-47.35C152.5,-37.51 152.5,-26.78 152.5,-19.54"/>
<polygon fill="midnightblue" stroke="midnightblue" points="149,-47.47 152.5,-57.47 156,-47.47 149,-47.47"/>
</g>
<!-- Node3 -->
<g id="node3" class="node">
<title>Node3</title>
<g id="a_node3"><a xlink:href="structdrain_1_1image_1_1ImpulseAvgConf.html" target="_top" xlink:title=" ">
<polygon fill="white" stroke="black" points="104.5,-125.5 104.5,-144.5 200.5,-144.5 200.5,-125.5 104.5,-125.5"/>
<text text-anchor="middle" x="152.5" y="-132.5" font-family="Helvetica,sans-Serif" font-size="10.00">ImpulseAvgConf</text>
</a>
</g>
</g>
<!-- Node3&#45;&gt;Node2 -->
<g id="edge2" class="edge">
<title>Node3&#45;&gt;Node2</title>
<path fill="none" stroke="midnightblue" d="M152.5,-115.22C152.5,-106.36 152.5,-95.96 152.5,-87.76"/>
<polygon fill="midnightblue" stroke="midnightblue" points="149,-115.33 152.5,-125.33 156,-115.33 149,-115.33"/>
</g>
<!-- Node4 -->
<g id="node4" class="node">
<title>Node4</title>
<g id="a_node4"><a xlink:href="classdrain_1_1BeanLike.html" target="_top" xlink:title="Something which has a name, a description and possibly some parameters of varying type.">
<polygon fill="white" stroke="black" points="71,-192.5 71,-211.5 132,-211.5 132,-192.5 71,-192.5"/>
<text text-anchor="middle" x="101.5" y="-199.5" font-family="Helvetica,sans-Serif" font-size="10.00">BeanLike</text>
</a>
</g>
</g>
<!-- Node4&#45;&gt;Node3 -->
<g id="edge3" class="edge">
<title>Node4&#45;&gt;Node3</title>
<path fill="none" stroke="midnightblue" d="M114.63,-184.27C124.57,-171.6 137.83,-154.7 145.73,-144.63"/>
<polygon fill="midnightblue" stroke="midnightblue" points="111.8,-182.21 108.38,-192.23 117.3,-186.53 111.8,-182.21"/>
</g>
<!-- Node5 -->
<g id="node5" class="node">
<title>Node5</title>
<g id="a_node5"><a xlink:href="classdrain_1_1ReferenceMap.html" target="_top" xlink:title=" ">
<polygon fill="white" stroke="black" points="41,-270.5 41,-289.5 128,-289.5 128,-270.5 41,-270.5"/>
<text text-anchor="middle" x="84.5" y="-277.5" font-family="Helvetica,sans-Serif" font-size="10.00">ReferenceMap</text>
</a>
</g>
</g>
<!-- Node5&#45;&gt;Node4 -->
<g id="edge4" class="edge">
<title>Node5&#45;&gt;Node4</title>
<path fill="none" stroke="#9a32cd" stroke-dasharray="5,2" d="M88.7,-260.22C92.17,-244.7 96.95,-223.36 99.57,-211.62"/>
<polygon fill="#9a32cd" stroke="#9a32cd" points="85.22,-259.76 86.45,-270.28 92.05,-261.29 85.22,-259.76"/>
<text text-anchor="middle" x="125.5" y="-238.5" font-family="Helvetica,sans-Serif" font-size="10.00"> parameters</text>
</g>
<!-- Node6 -->
<g id="node6" class="node">
<title>Node6</title>
<g id="a_node6"><a xlink:href="classdrain_1_1SmartMap.html" target="_top" xlink:title=" ">
<polygon fill="white" stroke="black" points="13,-327.5 13,-346.5 156,-346.5 156,-327.5 13,-327.5"/>
<text text-anchor="middle" x="84.5" y="-334.5" font-family="Helvetica,sans-Serif" font-size="10.00">SmartMap&lt; Referencer &gt;</text>
</a>
</g>
</g>
<!-- Node6&#45;&gt;Node5 -->
<g id="edge5" class="edge">
<title>Node6&#45;&gt;Node5</title>
<path fill="none" stroke="midnightblue" d="M84.5,-317.12C84.5,-307.82 84.5,-297.06 84.5,-289.71"/>
<polygon fill="midnightblue" stroke="midnightblue" points="81,-317.41 84.5,-327.41 88,-317.41 81,-317.41"/>
</g>
<!-- Node7 -->
<g id="node7" class="node">
<title>Node7</title>
<g id="a_node7"><a xlink:title=" ">
<polygon fill="white" stroke="#bfbfbf" points="0,-384.5 0,-403.5 169,-403.5 169,-384.5 0,-384.5"/>
<text text-anchor="middle" x="84.5" y="-391.5" font-family="Helvetica,sans-Serif" font-size="10.00">map&lt; std::string, Referencer &gt;</text>
</a>
</g>
</g>
<!-- Node7&#45;&gt;Node6 -->
<g id="edge6" class="edge">
<title>Node7&#45;&gt;Node6</title>
<path fill="none" stroke="midnightblue" d="M84.5,-374.12C84.5,-364.82 84.5,-354.06 84.5,-346.71"/>
<polygon fill="midnightblue" stroke="midnightblue" points="81,-374.41 84.5,-384.41 88,-374.41 81,-374.41"/>
</g>
<!-- Node8 -->
<g id="node8" class="node">
<title>Node8</title>
<g id="a_node8"><a xlink:href="structdrain_1_1image_1_1Decay4.html" target="_top" xlink:title=" ">
<polygon fill="white" stroke="black" points="155,-192.5 155,-211.5 264,-211.5 264,-192.5 155,-192.5"/>
<text text-anchor="middle" x="209.5" y="-199.5" font-family="Helvetica,sans-Serif" font-size="10.00">Decay4&lt; double &gt;</text>
</a>
</g>
</g>
<!-- Node8&#45;&gt;Node3 -->
<g id="edge7" class="edge">
<title>Node8&#45;&gt;Node3</title>
<path fill="none" stroke="#9a32cd" stroke-dasharray="5,2" d="M195.15,-184.63C184,-171.92 168.98,-154.8 160.07,-144.63"/>
<polygon fill="#9a32cd" stroke="#9a32cd" points="192.59,-187.02 201.81,-192.23 197.85,-182.41 192.59,-187.02"/>
<text text-anchor="middle" x="203.5" y="-166" font-family="Helvetica,sans-Serif" font-size="10.00"> decays</text>
</g>
<!-- Node9 -->
<g id="node9" class="node">
<title>Node9</title>
<g id="a_node9"><a xlink:href="classdrain_1_1UniTuple.html" target="_top" xlink:title=" ">
<polygon fill="white" stroke="black" points="146.5,-270.5 146.5,-289.5 272.5,-289.5 272.5,-270.5 146.5,-270.5"/>
<text text-anchor="middle" x="209.5" y="-277.5" font-family="Helvetica,sans-Serif" font-size="10.00">UniTuple&lt; double, 4 &gt;</text>
</a>
</g>
</g>
<!-- Node9&#45;&gt;Node8 -->
<g id="edge8" class="edge">
<title>Node9&#45;&gt;Node8</title>
<path fill="none" stroke="midnightblue" d="M209.5,-260.22C209.5,-244.7 209.5,-223.36 209.5,-211.62"/>
<polygon fill="midnightblue" stroke="midnightblue" points="206,-260.28 209.5,-270.28 213,-260.28 206,-260.28"/>
</g>
<!-- Node10 -->
<g id="node10" class="node">
<title>Node10</title>
<g id="a_node10"><a xlink:href="classdrain_1_1image_1_1Decay2.html" target="_top" xlink:title=" ">
<polygon fill="white" stroke="black" points="291,-270.5 291,-289.5 400,-289.5 400,-270.5 291,-270.5"/>
<text text-anchor="middle" x="345.5" y="-277.5" font-family="Helvetica,sans-Serif" font-size="10.00">Decay2&lt; double &gt;</text>
</a>
</g>
</g>
<!-- Node10&#45;&gt;Node8 -->
<g id="edge9" class="edge">
<title>Node10&#45;&gt;Node8</title>
<path fill="none" stroke="#9a32cd" stroke-dasharray="5,2" d="M321.07,-265.35C293.2,-249.77 248.45,-224.76 224.99,-211.66"/>
<polygon fill="#9a32cd" stroke="#9a32cd" points="319.73,-268.61 330.16,-270.43 323.14,-262.5 319.73,-268.61"/>
<text text-anchor="middle" x="306" y="-244" font-family="Helvetica,sans-Serif" font-size="10.00"> vert</text>
<text text-anchor="middle" x="306" y="-233" font-family="Helvetica,sans-Serif" font-size="10.00">horz</text>
</g>
<!-- Node11 -->
<g id="node11" class="node">
<title>Node11</title>
<g id="a_node11"><a xlink:href="classdrain_1_1UniTuple.html" target="_top" xlink:title=" ">
<polygon fill="white" stroke="black" points="282.5,-327.5 282.5,-346.5 408.5,-346.5 408.5,-327.5 282.5,-327.5"/>
<text text-anchor="middle" x="345.5" y="-334.5" font-family="Helvetica,sans-Serif" font-size="10.00">UniTuple&lt; double, 2 &gt;</text>
</a>
</g>
</g>
<!-- Node11&#45;&gt;Node10 -->
<g id="edge10" class="edge">
<title>Node11&#45;&gt;Node10</title>
<path fill="none" stroke="midnightblue" d="M345.5,-317.12C345.5,-307.82 345.5,-297.06 345.5,-289.71"/>
<polygon fill="midnightblue" stroke="midnightblue" points="342,-317.41 345.5,-327.41 349,-317.41 342,-317.41"/>
</g>
</g>
</svg>
