<?xml version="1.0" encoding="UTF-8" standalone="no"?>
<!DOCTYPE svg PUBLIC "-//W3C//DTD SVG 1.1//EN"
 "http://www.w3.org/Graphics/SVG/1.1/DTD/svg11.dtd">
<!-- Generated by graphviz version 2.43.0 (0)
 -->
<!-- Title: VerticalCrossSectionODIM Pages: 1 -->
<svg width="598pt" height="374pt"
 viewBox="0.00 0.00 597.50 374.00" xmlns="http://www.w3.org/2000/svg" xmlns:xlink="http://www.w3.org/1999/xlink">
<g id="graph0" class="graph" transform="scale(1 1) rotate(0) translate(4 370)">
<title>VerticalCrossSectionODIM</title>
<polygon fill="white" stroke="transparent" points="-4,4 -4,-370 593.5,-370 593.5,4 -4,4"/>
<!-- Node1 -->
<g id="node1" class="node">
<title>Node1</title>
<g id="a_node1"><a xlink:title=" ">
<polygon fill="#bfbfbf" stroke="black" points="342.5,-0.5 342.5,-19.5 486.5,-19.5 486.5,-0.5 342.5,-0.5"/>
<text text-anchor="middle" x="414.5" y="-7.5" font-family="Helvetica,sans-Serif" font-size="10.00">VerticalCrossSectionODIM</text>
</a>
</g>
</g>
<!-- Node2 -->
<g id="node2" class="node">
<title>Node2</title>
<g id="a_node2"><a xlink:href="classrack_1_1ODIM.html" target="_top" xlink:title="ODIM metadata (quantity, gain, offset, undetect, nodata, date, time)">
<polygon fill="white" stroke="black" points="357.5,-57.5 357.5,-76.5 401.5,-76.5 401.5,-57.5 357.5,-57.5"/>
<text text-anchor="middle" x="379.5" y="-64.5" font-family="Helvetica,sans-Serif" font-size="10.00">ODIM</text>
</a>
</g>
</g>
<!-- Node2&#45;&gt;Node1 -->
<g id="edge1" class="edge">
<title>Node2&#45;&gt;Node1</title>
<path fill="none" stroke="midnightblue" d="M390.36,-48.94C396.52,-39.25 403.97,-27.54 408.95,-19.71"/>
<polygon fill="midnightblue" stroke="midnightblue" points="387.38,-47.09 384.97,-57.41 393.29,-50.85 387.38,-47.09"/>
</g>
<!-- Node3 -->
<g id="node3" class="node">
<title>Node3</title>
<g id="a_node3"><a xlink:href="classrack_1_1EncodingODIM.html" target="_top" xlink:title="Structure for data storage type, scaling and marker codes. Does not contain quantity.">
<polygon fill="white" stroke="black" points="185.5,-124.5 185.5,-143.5 273.5,-143.5 273.5,-124.5 185.5,-124.5"/>
<text text-anchor="middle" x="229.5" y="-131.5" font-family="Helvetica,sans-Serif" font-size="10.00">EncodingODIM</text>
</a>
</g>
</g>
<!-- Node3&#45;&gt;Node2 -->
<g id="edge2" class="edge">
<title>Node3&#45;&gt;Node2</title>
<path fill="none" stroke="midnightblue" d="M258.85,-120.28C288.56,-107.41 333.68,-87.85 359.5,-76.67"/>
<polygon fill="midnightblue" stroke="midnightblue" points="257.2,-117.18 249.42,-124.37 259.99,-123.6 257.2,-117.18"/>
</g>
<!-- Node4 -->
<g id="node4" class="node">
<title>Node4</title>
<g id="a_node4"><a xlink:href="classdrain_1_1ReferenceMap.html" target="_top" xlink:title=" ">
<polygon fill="white" stroke="black" points="79,-213.5 79,-232.5 166,-232.5 166,-213.5 79,-213.5"/>
<text text-anchor="middle" x="122.5" y="-220.5" font-family="Helvetica,sans-Serif" font-size="10.00">ReferenceMap</text>
</a>
</g>
</g>
<!-- Node4&#45;&gt;Node3 -->
<g id="edge3" class="edge">
<title>Node4&#45;&gt;Node3</title>
<path fill="none" stroke="midnightblue" d="M140.98,-206.97C163.49,-188.67 200.74,-158.39 218.89,-143.62"/>
<polygon fill="midnightblue" stroke="midnightblue" points="138.7,-204.32 133.15,-213.34 143.12,-209.75 138.7,-204.32"/>
</g>
<!-- Node5 -->
<g id="node5" class="node">
<title>Node5</title>
<g id="a_node5"><a xlink:href="classdrain_1_1SmartMap.html" target="_top" xlink:title=" ">
<polygon fill="white" stroke="black" points="13,-289.5 13,-308.5 156,-308.5 156,-289.5 13,-289.5"/>
<text text-anchor="middle" x="84.5" y="-296.5" font-family="Helvetica,sans-Serif" font-size="10.00">SmartMap&lt; Referencer &gt;</text>
</a>
</g>
</g>
<!-- Node5&#45;&gt;Node4 -->
<g id="edge4" class="edge">
<title>Node5&#45;&gt;Node4</title>
<path fill="none" stroke="midnightblue" d="M93.77,-279.94C101.46,-264.97 112.06,-244.33 118,-232.77"/>
<polygon fill="midnightblue" stroke="midnightblue" points="90.46,-278.73 89.01,-289.22 96.69,-281.92 90.46,-278.73"/>
</g>
<!-- Node6 -->
<g id="node6" class="node">
<title>Node6</title>
<g id="a_node6"><a xlink:title=" ">
<polygon fill="white" stroke="#bfbfbf" points="0,-346.5 0,-365.5 169,-365.5 169,-346.5 0,-346.5"/>
<text text-anchor="middle" x="84.5" y="-353.5" font-family="Helvetica,sans-Serif" font-size="10.00">map&lt; std::string, Referencer &gt;</text>
</a>
</g>
</g>
<!-- Node6&#45;&gt;Node5 -->
<g id="edge5" class="edge">
<title>Node6&#45;&gt;Node5</title>
<path fill="none" stroke="midnightblue" d="M84.5,-336.12C84.5,-326.82 84.5,-316.06 84.5,-308.71"/>
<polygon fill="midnightblue" stroke="midnightblue" points="81,-336.41 84.5,-346.41 88,-336.41 81,-336.41"/>
</g>
<!-- Node7 -->
<g id="node7" class="node">
<title>Node7</title>
<g id="a_node7"><a xlink:href="classdrain_1_1ValueScaling.html" target="_top" xlink:title="Linear scaling and physical range for image intensities.">
<polygon fill="white" stroke="black" points="190.5,-213.5 190.5,-232.5 270.5,-232.5 270.5,-213.5 190.5,-213.5"/>
<text text-anchor="middle" x="230.5" y="-220.5" font-family="Helvetica,sans-Serif" font-size="10.00">ValueScaling</text>
</a>
</g>
</g>
<!-- Node7&#45;&gt;Node3 -->
<g id="edge6" class="edge">
<title>Node7&#45;&gt;Node3</title>
<path fill="none" stroke="#9a32cd" stroke-dasharray="5,2" d="M230.28,-203.19C230.07,-184.74 229.76,-157.41 229.6,-143.62"/>
<polygon fill="#9a32cd" stroke="#9a32cd" points="226.79,-203.38 230.4,-213.34 233.79,-203.3 226.79,-203.38"/>
<text text-anchor="middle" x="263.5" y="-187" font-family="Helvetica,sans-Serif" font-size="10.00"> scalingConst</text>
<text text-anchor="middle" x="263.5" y="-176" font-family="Helvetica,sans-Serif" font-size="10.00">scaling</text>
<text text-anchor="middle" x="263.5" y="-165" font-family="Helvetica,sans-Serif" font-size="10.00">ownScaling</text>
</g>
<!-- Node8 -->
<g id="node8" class="node">
<title>Node8</title>
<g id="a_node8"><a xlink:href="classdrain_1_1UniTuple.html" target="_top" xlink:title=" ">
<polygon fill="white" stroke="black" points="174.5,-289.5 174.5,-308.5 300.5,-308.5 300.5,-289.5 174.5,-289.5"/>
<text text-anchor="middle" x="237.5" y="-296.5" font-family="Helvetica,sans-Serif" font-size="10.00">UniTuple&lt; double, 4 &gt;</text>
</a>
</g>
</g>
<!-- Node8&#45;&gt;Node7 -->
<g id="edge7" class="edge">
<title>Node8&#45;&gt;Node7</title>
<path fill="none" stroke="midnightblue" d="M235.71,-279.07C234.3,-264.18 232.4,-244.11 231.33,-232.77"/>
<polygon fill="midnightblue" stroke="midnightblue" points="232.24,-279.59 236.67,-289.22 239.21,-278.94 232.24,-279.59"/>
</g>
<!-- Node9 -->
<g id="node9" class="node">
<title>Node9</title>
<g id="a_node9"><a xlink:href="classdrain_1_1Range.html" target="_top" xlink:title=" ">
<polygon fill="white" stroke="black" points="388,-289.5 388,-308.5 491,-308.5 491,-289.5 388,-289.5"/>
<text text-anchor="middle" x="439.5" y="-296.5" font-family="Helvetica,sans-Serif" font-size="10.00">Range&lt; double &gt;</text>
</a>
</g>
</g>
<!-- Node9&#45;&gt;Node1 -->
<g id="edge14" class="edge">
<title>Node9&#45;&gt;Node1</title>
<path fill="none" stroke="#9a32cd" stroke-dasharray="5,2" d="M439.5,-279.33C439.5,-264.37 439.5,-242.84 439.5,-224 439.5,-224 439.5,-224 439.5,-66 439.5,-48.38 428.73,-30.2 421.33,-19.78"/>
<polygon fill="#9a32cd" stroke="#9a32cd" points="436,-279.34 439.5,-289.34 443,-279.34 436,-279.34"/>
<text text-anchor="middle" x="475.5" y="-131.5" font-family="Helvetica,sans-Serif" font-size="10.00"> altitudeRange</text>
</g>
<!-- Node9&#45;&gt;Node7 -->
<g id="edge8" class="edge">
<title>Node9&#45;&gt;Node7</title>
<path fill="none" stroke="#9a32cd" stroke-dasharray="5,2" d="M405.53,-285.97C363.2,-270.98 291.92,-245.75 254.73,-232.58"/>
<polygon fill="#9a32cd" stroke="#9a32cd" points="404.52,-289.33 415.12,-289.37 406.86,-282.73 404.52,-289.33"/>
<text text-anchor="middle" x="388.5" y="-258.5" font-family="Helvetica,sans-Serif" font-size="10.00"> physRange</text>
</g>
<!-- Node10 -->
<g id="node10" class="node">
<title>Node10</title>
<g id="a_node10"><a xlink:href="classdrain_1_1UniTuple.html" target="_top" xlink:title=" ">
<polygon fill="white" stroke="black" points="434.5,-346.5 434.5,-365.5 560.5,-365.5 560.5,-346.5 434.5,-346.5"/>
<text text-anchor="middle" x="497.5" y="-353.5" font-family="Helvetica,sans-Serif" font-size="10.00">UniTuple&lt; double, 2 &gt;</text>
</a>
</g>
</g>
<!-- Node10&#45;&gt;Node9 -->
<g id="edge9" class="edge">
<title>Node10&#45;&gt;Node9</title>
<path fill="none" stroke="midnightblue" d="M481.07,-339.42C470.58,-329.47 457.37,-316.94 448.69,-308.71"/>
<polygon fill="midnightblue" stroke="midnightblue" points="478.77,-342.06 488.44,-346.41 483.59,-336.99 478.77,-342.06"/>
</g>
<!-- Node11 -->
<g id="node11" class="node">
<title>Node11</title>
<g id="a_node11"><a xlink:href="structdrain_1_1Point2D.html" target="_top" xlink:title=" ">
<polygon fill="white" stroke="black" points="479.5,-251.5 479.5,-270.5 589.5,-270.5 589.5,-251.5 479.5,-251.5"/>
<text text-anchor="middle" x="534.5" y="-258.5" font-family="Helvetica,sans-Serif" font-size="10.00">Point2D&lt; double &gt;</text>
</a>
</g>
</g>
<!-- Node10&#45;&gt;Node11 -->
<g id="edge11" class="edge">
<title>Node10&#45;&gt;Node11</title>
<path fill="none" stroke="midnightblue" d="M504.7,-336.9C512.66,-316.91 525.12,-285.56 531.09,-270.56"/>
<polygon fill="midnightblue" stroke="midnightblue" points="501.36,-335.83 500.91,-346.42 507.86,-338.42 501.36,-335.83"/>
</g>
<!-- Node11&#45;&gt;Node2 -->
<g id="edge10" class="edge">
<title>Node11&#45;&gt;Node2</title>
<path fill="none" stroke="#9a32cd" stroke-dasharray="5,2" d="M537.32,-241.04C540.47,-212.52 542.08,-158.28 515.5,-124 487.57,-87.98 432.47,-74.96 401.67,-70.39"/>
<polygon fill="#9a32cd" stroke="#9a32cd" points="533.81,-240.88 536,-251.25 540.76,-241.78 533.81,-240.88"/>
<text text-anchor="middle" x="563.5" y="-176" font-family="Helvetica,sans-Serif" font-size="10.00"> resolution</text>
</g>
<!-- Node12 -->
<g id="node12" class="node">
<title>Node12</title>
<g id="a_node12"><a xlink:href="classdrain_1_1Frame2D.html" target="_top" xlink:title=" ">
<polygon fill="white" stroke="black" points="291.5,-124.5 291.5,-143.5 403.5,-143.5 403.5,-124.5 291.5,-124.5"/>
<text text-anchor="middle" x="347.5" y="-131.5" font-family="Helvetica,sans-Serif" font-size="10.00">Frame2D&lt; size_t &gt;</text>
</a>
</g>
</g>
<!-- Node12&#45;&gt;Node2 -->
<g id="edge12" class="edge">
<title>Node12&#45;&gt;Node2</title>
<path fill="none" stroke="#9a32cd" stroke-dasharray="5,2" d="M356.28,-115.16C362.45,-102.63 370.44,-86.41 375.25,-76.63"/>
<polygon fill="#9a32cd" stroke="#9a32cd" points="353.09,-113.72 351.82,-124.23 359.37,-116.81 353.09,-113.72"/>
<text text-anchor="middle" x="377" y="-98" font-family="Helvetica,sans-Serif" font-size="10.00"> area</text>
</g>
<!-- Node13 -->
<g id="node13" class="node">
<title>Node13</title>
<g id="a_node13"><a xlink:href="classdrain_1_1UniTuple.html" target="_top" xlink:title=" ">
<polygon fill="white" stroke="black" points="288.5,-213.5 288.5,-232.5 410.5,-232.5 410.5,-213.5 288.5,-213.5"/>
<text text-anchor="middle" x="349.5" y="-220.5" font-family="Helvetica,sans-Serif" font-size="10.00">UniTuple&lt; size_t, 2 &gt;</text>
</a>
</g>
</g>
<!-- Node13&#45;&gt;Node12 -->
<g id="edge13" class="edge">
<title>Node13&#45;&gt;Node12</title>
<path fill="none" stroke="midnightblue" d="M349.07,-203.19C348.64,-184.74 348.02,-157.41 347.7,-143.62"/>
<polygon fill="midnightblue" stroke="midnightblue" points="345.57,-203.42 349.3,-213.34 352.57,-203.26 345.57,-203.42"/>
</g>
</g>
</svg>
