<?xml version="1.0" encoding="UTF-8" standalone="no"?>
<!DOCTYPE svg PUBLIC "-//W3C//DTD SVG 1.1//EN"
 "http://www.w3.org/Graphics/SVG/1.1/DTD/svg11.dtd">
<!-- Generated by graphviz version 2.43.0 (0)
 -->
<!-- Title: RunLengthVertOp Pages: 1 -->
<svg width="110pt" height="252pt"
 viewBox="0.00 0.00 110.00 252.00" xmlns="http://www.w3.org/2000/svg" xmlns:xlink="http://www.w3.org/1999/xlink">
<g id="graph0" class="graph" transform="scale(1 1) rotate(0) translate(4 248)">
<title>RunLengthVertOp</title>
<polygon fill="white" stroke="transparent" points="-4,4 -4,-248 106,-248 106,4 -4,4"/>
<!-- Node1 -->
<g id="node1" class="node">
<title>Node1</title>
<g id="a_node1"><a xlink:title="Computes lengths of vertical segments.">
<polygon fill="#bfbfbf" stroke="black" points="0,-0.5 0,-19.5 102,-19.5 102,-0.5 0,-0.5"/>
<text text-anchor="middle" x="51" y="-7.5" font-family="Helvetica,sans-Serif" font-size="10.00">RunLengthVertOp</text>
</a>
</g>
</g>
<!-- Node2 -->
<g id="node2" class="node">
<title>Node2</title>
<g id="a_node2"><a xlink:href="classdrain_1_1image_1_1RunLengthOp.html" target="_top" xlink:title="Base class for RunLengthHorzOp and RunLengthVertOp.">
<polygon fill="white" stroke="black" points="10,-56.5 10,-75.5 92,-75.5 92,-56.5 10,-56.5"/>
<text text-anchor="middle" x="51" y="-63.5" font-family="Helvetica,sans-Serif" font-size="10.00">RunLengthOp</text>
</a>
</g>
</g>
<!-- Node2&#45;&gt;Node1 -->
<g id="edge1" class="edge">
<title>Node2&#45;&gt;Node1</title>
<path fill="none" stroke="midnightblue" d="M51,-45.8C51,-36.91 51,-26.78 51,-19.75"/>
<polygon fill="midnightblue" stroke="midnightblue" points="47.5,-46.08 51,-56.08 54.5,-46.08 47.5,-46.08"/>
</g>
<!-- Node3 -->
<g id="node3" class="node">
<title>Node3</title>
<g id="a_node3"><a xlink:href="classdrain_1_1image_1_1ImageOp.html" target="_top" xlink:title="Base class for image processing functions.">
<polygon fill="white" stroke="black" points="20.5,-112.5 20.5,-131.5 81.5,-131.5 81.5,-112.5 20.5,-112.5"/>
<text text-anchor="middle" x="51" y="-119.5" font-family="Helvetica,sans-Serif" font-size="10.00">ImageOp</text>
</a>
</g>
</g>
<!-- Node3&#45;&gt;Node2 -->
<g id="edge2" class="edge">
<title>Node3&#45;&gt;Node2</title>
<path fill="none" stroke="midnightblue" d="M51,-101.8C51,-92.91 51,-82.78 51,-75.75"/>
<polygon fill="midnightblue" stroke="midnightblue" points="47.5,-102.08 51,-112.08 54.5,-102.08 47.5,-102.08"/>
</g>
<!-- Node4 -->
<g id="node4" class="node">
<title>Node4</title>
<g id="a_node4"><a xlink:href="classdrain_1_1image_1_1ImageMod.html" target="_top" xlink:title="Class for operations that modify an existing image instead of producing a new image.">
<polygon fill="white" stroke="black" points="17,-168.5 17,-187.5 85,-187.5 85,-168.5 17,-168.5"/>
<text text-anchor="middle" x="51" y="-175.5" font-family="Helvetica,sans-Serif" font-size="10.00">ImageMod</text>
</a>
</g>
</g>
<!-- Node4&#45;&gt;Node3 -->
<g id="edge3" class="edge">
<title>Node4&#45;&gt;Node3</title>
<path fill="none" stroke="midnightblue" d="M51,-157.8C51,-148.91 51,-138.78 51,-131.75"/>
<polygon fill="midnightblue" stroke="midnightblue" points="47.5,-158.08 51,-168.08 54.5,-158.08 47.5,-158.08"/>
</g>
<!-- Node5 -->
<g id="node5" class="node">
<title>Node5</title>
<g id="a_node5"><a xlink:href="classdrain_1_1BeanLike.html" target="_top" xlink:title="Something which has a name, a description and possibly some parameters of varying type.">
<polygon fill="white" stroke="black" points="20.5,-224.5 20.5,-243.5 81.5,-243.5 81.5,-224.5 20.5,-224.5"/>
<text text-anchor="middle" x="51" y="-231.5" font-family="Helvetica,sans-Serif" font-size="10.00">BeanLike</text>
</a>
</g>
</g>
<!-- Node5&#45;&gt;Node4 -->
<g id="edge4" class="edge">
<title>Node5&#45;&gt;Node4</title>
<path fill="none" stroke="midnightblue" d="M51,-213.8C51,-204.91 51,-194.78 51,-187.75"/>
<polygon fill="midnightblue" stroke="midnightblue" points="47.5,-214.08 51,-224.08 54.5,-214.08 47.5,-214.08"/>
</g>
</g>
</svg>
