<?xml version="1.0" encoding="UTF-8" standalone="no"?>
<!DOCTYPE svg PUBLIC "-//W3C//DTD SVG 1.1//EN"
 "http://www.w3.org/Graphics/SVG/1.1/DTD/svg11.dtd">
<!-- Generated by graphviz version 2.43.0 (0)
 -->
<!-- Title: DopplerDevWindow Pages: 1 -->
<!--zoomable 408 -->
<svg id="main" version="1.1" xmlns="http://www.w3.org/2000/svg" xmlns:xlink="http://www.w3.org/1999/xlink" xml:space="preserve" onload="init(evt)">
<style type="text/css"><![CDATA[
.edge:hover path { stroke: red; }
.edge:hover polygon { stroke: red; fill: red; }
]]></style>
<script type="text/javascript"><![CDATA[
var edges = document.getElementsByTagName('g');
if (edges && edges.length) {
  for (var i=0;i<edges.length;i++) {
    if (edges[i].id.substr(0,4)=='edge') {
      edges[i].setAttribute('class','edge');
    }
  }
}
]]></script>
        <defs>
                <circle id="rim" cx="0" cy="0" r="7"/>
                <circle id="rim2" cx="0" cy="0" r="3.5"/>
                <g id="zoomPlus">
                        <use xlink:href="#rim" fill="#404040">
                                <set attributeName="fill" to="#808080" begin="zoomplus.mouseover" end="zoomplus.mouseout"/>
                        </use>
                        <path d="M-4,0h8M0,-4v8" fill="none" stroke="white" stroke-width="1.5" pointer-events="none"/>
                </g>
                <g id="zoomMin">
                        <use xlink:href="#rim" fill="#404040">
                                <set attributeName="fill" to="#808080" begin="zoomminus.mouseover" end="zoomminus.mouseout"/>
                        </use>
                        <path d="M-4,0h8" fill="none" stroke="white" stroke-width="1.5" pointer-events="none"/>
                </g>
                <g id="dirArrow">
                        <path fill="none" stroke="white" stroke-width="1.5" d="M0,-3.0v7 M-2.5,-0.5L0,-3.0L2.5,-0.5"/>
                </g>
               <g id="resetDef">
                       <use xlink:href="#rim2" fill="#404040">
                               <set attributeName="fill" to="#808080" begin="reset.mouseover" end="reset.mouseout"/>
                       </use>
               </g>
        </defs>

<script type="text/javascript">
var viewWidth = 2216;
var viewHeight = 408;
var sectionId = 'dynsection-1';
</script>
<script xlink:href="svgpan.js"/>
<svg id="graph" class="graph">
<g id="viewport">
<title>DopplerDevWindow</title>
<polygon fill="white" stroke="transparent" points="-4,4 -4,-403.5 2212,-403.5 2212,4 -4,4"/>
<!-- Node1 -->
<g id="node1" class="node">
<title>Node1</title>
<g id="a_node1"><a xlink:title=" ">
<polygon fill="#bfbfbf" stroke="black" points="2095,-146 2095,-165 2208,-165 2208,-146 2095,-146"/>
<text text-anchor="middle" x="2151.5" y="-153" font-family="Helvetica,sans-Serif" font-size="10.00">DopplerDevWindow</text>
</a>
</g>
</g>
<!-- Node2 -->
<g id="node2" class="node">
<title>Node2</title>
<g id="a_node2"><a xlink:href="classrack_1_1DopplerWindow.html" target="_top" xlink:title=" ">
<polygon fill="white" stroke="black" points="1964,-146 1964,-165 2058,-165 2058,-146 1964,-146"/>
<text text-anchor="middle" x="2011" y="-153" font-family="Helvetica,sans-Serif" font-size="10.00">DopplerWindow</text>
</a>
</g>
</g>
<!-- Node2&#45;&gt;Node1 -->
<g id="edge1" class="edge">
<title>Node2&#45;&gt;Node1</title>
<path fill="none" stroke="midnightblue" d="M2068.28,-155.5C2077.08,-155.5 2086.18,-155.5 2094.96,-155.5"/>
<polygon fill="midnightblue" stroke="midnightblue" points="2068.12,-152 2058.12,-155.5 2068.12,-159 2068.12,-152"/>
</g>
<!-- Node3 -->
<g id="node3" class="node">
<title>Node3</title>
<g id="a_node3"><a xlink:href="classrack_1_1SlidingRadarWindow.html" target="_top" xlink:title=" ">
<polygon fill="white" stroke="black" points="1789,-140.5 1789,-170.5 1927,-170.5 1927,-140.5 1789,-140.5"/>
<text text-anchor="start" x="1797" y="-158.5" font-family="Helvetica,sans-Serif" font-size="10.00">SlidingRadarWindow</text>
<text text-anchor="middle" x="1858" y="-147.5" font-family="Helvetica,sans-Serif" font-size="10.00">&lt; RadarWindowConfig &gt;</text>
</a>
</g>
</g>
<!-- Node3&#45;&gt;Node2 -->
<g id="edge2" class="edge">
<title>Node3&#45;&gt;Node2</title>
<path fill="none" stroke="midnightblue" d="M1937.57,-155.5C1946.56,-155.5 1955.49,-155.5 1963.85,-155.5"/>
<polygon fill="midnightblue" stroke="midnightblue" points="1937.43,-152 1927.43,-155.5 1937.43,-159 1937.43,-152"/>
</g>
<!-- Node4 -->
<g id="node4" class="node">
<title>Node4</title>
<g id="a_node4"><a xlink:href="classdrain_1_1image_1_1SlidingWindow.html" target="_top" xlink:title=" ">
<polygon fill="white" stroke="black" points="1585,-140.5 1585,-170.5 1752,-170.5 1752,-140.5 1585,-140.5"/>
<text text-anchor="start" x="1593" y="-158.5" font-family="Helvetica,sans-Serif" font-size="10.00">SlidingWindow&lt; RadarWindow</text>
<text text-anchor="middle" x="1668.5" y="-147.5" font-family="Helvetica,sans-Serif" font-size="10.00">Config, RadarWindowCore &gt;</text>
</a>
</g>
</g>
<!-- Node4&#45;&gt;Node3 -->
<g id="edge3" class="edge">
<title>Node4&#45;&gt;Node3</title>
<path fill="none" stroke="midnightblue" d="M1762.13,-155.5C1771.11,-155.5 1780.1,-155.5 1788.78,-155.5"/>
<polygon fill="midnightblue" stroke="midnightblue" points="1762.01,-152 1752.01,-155.5 1762.01,-159 1762.01,-152"/>
</g>
<!-- Node4&#45;&gt;Node4 -->
<g id="edge34" class="edge">
<title>Node4&#45;&gt;Node4</title>
<path fill="none" stroke="#9a32cd" stroke-dasharray="5,2" d="M1650.38,-180.96C1652.63,-185.68 1658.67,-189 1668.5,-189 1684.64,-189 1690.56,-180.06 1686.28,-170.66"/>
<polygon fill="#9a32cd" stroke="#9a32cd" points="1653.88,-180.77 1650.72,-170.66 1646.89,-180.53 1653.88,-180.77"/>
<text text-anchor="middle" x="1668.5" y="-214" font-family="Helvetica,sans-Serif" font-size="10.00"> fill</text>
<text text-anchor="middle" x="1668.5" y="-203" font-family="Helvetica,sans-Serif" font-size="10.00">updateVert</text>
<text text-anchor="middle" x="1668.5" y="-192" font-family="Helvetica,sans-Serif" font-size="10.00">updateHorz</text>
</g>
<!-- Node5 -->
<g id="node5" class="node">
<title>Node5</title>
<g id="a_node5"><a xlink:href="classdrain_1_1image_1_1Window.html" target="_top" xlink:title=" ">
<polygon fill="white" stroke="black" points="1379,-225.5 1379,-255.5 1548,-255.5 1548,-225.5 1379,-225.5"/>
<text text-anchor="start" x="1387" y="-243.5" font-family="Helvetica,sans-Serif" font-size="10.00">Window&lt; RadarWindowConfig,</text>
<text text-anchor="middle" x="1463.5" y="-232.5" font-family="Helvetica,sans-Serif" font-size="10.00"> RadarWindowCore &gt;</text>
</a>
</g>
</g>
<!-- Node5&#45;&gt;Node4 -->
<g id="edge4" class="edge">
<title>Node5&#45;&gt;Node4</title>
<path fill="none" stroke="midnightblue" d="M1509.79,-221.54C1546.44,-206.19 1597.39,-184.86 1631.35,-170.64"/>
<polygon fill="midnightblue" stroke="midnightblue" points="1508.2,-218.41 1500.33,-225.5 1510.9,-224.87 1508.2,-218.41"/>
</g>
<!-- Node6 -->
<g id="node6" class="node">
<title>Node6</title>
<g id="a_node6"><a xlink:title=" ">
<polygon fill="white" stroke="#bfbfbf" points="1104,-298 1104,-317 1211,-317 1211,-298 1104,-298"/>
<text text-anchor="middle" x="1157.5" y="-305" font-family="Helvetica,sans-Serif" font-size="10.00">RadarWindowCore</text>
</a>
</g>
</g>
<!-- Node6&#45;&gt;Node5 -->
<g id="edge5" class="edge">
<title>Node6&#45;&gt;Node5</title>
<path fill="none" stroke="midnightblue" d="M1221.32,-299.4C1261.56,-293.61 1314.72,-284.84 1361,-273.5 1380.98,-268.6 1402.71,-261.75 1420.93,-255.56"/>
<polygon fill="midnightblue" stroke="midnightblue" points="1220.79,-295.94 1211.38,-300.81 1221.77,-302.87 1220.79,-295.94"/>
</g>
<!-- Node7 -->
<g id="node7" class="node">
<title>Node7</title>
<g id="a_node7"><a xlink:href="classdrain_1_1Range.html" target="_top" xlink:title=" ">
<polygon fill="white" stroke="black" points="899,-195 899,-214 982,-214 982,-195 899,-195"/>
<text text-anchor="middle" x="940.5" y="-202" font-family="Helvetica,sans-Serif" font-size="10.00">Range&lt; int &gt;</text>
</a>
</g>
</g>
<!-- Node7&#45;&gt;Node5 -->
<g id="edge6" class="edge">
<title>Node7&#45;&gt;Node5</title>
<path fill="none" stroke="#9a32cd" stroke-dasharray="5,2" d="M992.59,-208.03C1082.49,-214.24 1269.74,-227.18 1378.77,-234.71"/>
<polygon fill="#9a32cd" stroke="#9a32cd" points="992.6,-204.52 982.38,-207.32 992.12,-211.51 992.6,-204.52"/>
<text text-anchor="middle" x="1157.5" y="-239.5" font-family="Helvetica,sans-Serif" font-size="10.00"> jRange</text>
<text text-anchor="middle" x="1157.5" y="-228.5" font-family="Helvetica,sans-Serif" font-size="10.00">iRange</text>
</g>
<!-- Node25 -->
<g id="node25" class="node">
<title>Node25</title>
<g id="a_node25"><a xlink:href="classdrain_1_1image_1_1CoordinateHandler2D.html" target="_top" xlink:title=" ">
<polygon fill="white" stroke="black" points="1096.5,-159 1096.5,-178 1218.5,-178 1218.5,-159 1096.5,-159"/>
<text text-anchor="middle" x="1157.5" y="-166" font-family="Helvetica,sans-Serif" font-size="10.00">CoordinateHandler2D</text>
</a>
</g>
</g>
<!-- Node7&#45;&gt;Node25 -->
<g id="edge27" class="edge">
<title>Node7&#45;&gt;Node25</title>
<path fill="none" stroke="#9a32cd" stroke-dasharray="5,2" d="M976.95,-191.83C986.89,-188.68 997.77,-185.61 1008,-183.5 1036.81,-177.56 1069.26,-173.94 1096.46,-171.75"/>
<polygon fill="#9a32cd" stroke="#9a32cd" points="975.8,-188.52 967.39,-194.96 977.98,-195.17 975.8,-188.52"/>
<text text-anchor="middle" x="1028" y="-197.5" font-family="Helvetica,sans-Serif" font-size="10.00"> yRange</text>
<text text-anchor="middle" x="1028" y="-186.5" font-family="Helvetica,sans-Serif" font-size="10.00">xRange</text>
</g>
<!-- Node8 -->
<g id="node8" class="node">
<title>Node8</title>
<g id="a_node8"><a xlink:href="classdrain_1_1UniTuple.html" target="_top" xlink:title=" ">
<polygon fill="white" stroke="black" points="411,-157 411,-176 517,-176 517,-157 411,-157"/>
<text text-anchor="middle" x="464" y="-164" font-family="Helvetica,sans-Serif" font-size="10.00">UniTuple&lt; int, 2 &gt;</text>
</a>
</g>
</g>
<!-- Node8&#45;&gt;Node7 -->
<g id="edge7" class="edge">
<title>Node8&#45;&gt;Node7</title>
<path fill="none" stroke="midnightblue" d="M526.23,-177.68C533.22,-178.74 540.25,-179.71 547,-180.5 674.98,-195.49 827.61,-201.42 898.97,-203.5"/>
<polygon fill="midnightblue" stroke="midnightblue" points="526.48,-174.17 516.06,-176.07 525.39,-181.09 526.48,-174.17"/>
</g>
<!-- Node20 -->
<g id="node20" class="node">
<title>Node20</title>
<g id="a_node20"><a xlink:href="classdrain_1_1Frame2D.html" target="_top" xlink:title=" ">
<polygon fill="white" stroke="black" points="645,-157 645,-176 741,-176 741,-157 645,-157"/>
<text text-anchor="middle" x="693" y="-164" font-family="Helvetica,sans-Serif" font-size="10.00">Frame2D&lt; int &gt;</text>
</a>
</g>
</g>
<!-- Node8&#45;&gt;Node20 -->
<g id="edge20" class="edge">
<title>Node8&#45;&gt;Node20</title>
<path fill="none" stroke="midnightblue" d="M527.28,-166.5C564.38,-166.5 610.73,-166.5 644.8,-166.5"/>
<polygon fill="midnightblue" stroke="midnightblue" points="527.08,-163 517.08,-166.5 527.08,-170 527.08,-163"/>
</g>
<!-- Node24 -->
<g id="node24" class="node">
<title>Node24</title>
<g id="a_node24"><a xlink:href="structdrain_1_1Point2D.html" target="_top" xlink:title=" ">
<polygon fill="white" stroke="black" points="1112.5,-117 1112.5,-136 1202.5,-136 1202.5,-117 1112.5,-117"/>
<text text-anchor="middle" x="1157.5" y="-124" font-family="Helvetica,sans-Serif" font-size="10.00">Point2D&lt; int &gt;</text>
</a>
</g>
</g>
<!-- Node8&#45;&gt;Node24 -->
<g id="edge25" class="edge">
<title>Node8&#45;&gt;Node24</title>
<path fill="none" stroke="midnightblue" d="M482.31,-149.72C509.83,-124.34 566.46,-77.27 625,-59.5 815.23,-1.75 1058.33,-87.15 1133.39,-116.91"/>
<polygon fill="midnightblue" stroke="midnightblue" points="479.62,-147.44 474.73,-156.84 484.41,-152.54 479.62,-147.44"/>
</g>
<!-- Node9 -->
<g id="node9" class="node">
<title>Node9</title>
<g id="a_node9"><a xlink:href="structdrain_1_1UnaryFunctor.html" target="_top" xlink:title=" ">
<polygon fill="white" stroke="black" points="1116.5,-375 1116.5,-394 1198.5,-394 1198.5,-375 1116.5,-375"/>
<text text-anchor="middle" x="1157.5" y="-382" font-family="Helvetica,sans-Serif" font-size="10.00">UnaryFunctor</text>
</a>
</g>
</g>
<!-- Node9&#45;&gt;Node5 -->
<g id="edge8" class="edge">
<title>Node9&#45;&gt;Node5</title>
<path fill="none" stroke="#9a32cd" stroke-dasharray="5,2" d="M1208.97,-380.4C1251.65,-375.21 1313.3,-363.54 1361,-337.5 1399.51,-316.48 1434.05,-277.06 1451.16,-255.51"/>
<polygon fill="#9a32cd" stroke="#9a32cd" points="1208.35,-376.95 1198.81,-381.56 1209.14,-383.9 1208.35,-376.95"/>
<text text-anchor="middle" x="1314" y="-372.5" font-family="Helvetica,sans-Serif" font-size="10.00"> myFunctor</text>
</g>
<!-- Node10 -->
<g id="node10" class="node">
<title>Node10</title>
<g id="a_node10"><a xlink:href="classdrain_1_1Functor.html" target="_top" xlink:title="Base class for sequential computations. Optional scaling utilities.">
<polygon fill="white" stroke="black" points="914,-378 914,-397 967,-397 967,-378 914,-378"/>
<text text-anchor="middle" x="940.5" y="-385" font-family="Helvetica,sans-Serif" font-size="10.00">Functor</text>
</a>
</g>
</g>
<!-- Node10&#45;&gt;Node9 -->
<g id="edge9" class="edge">
<title>Node10&#45;&gt;Node9</title>
<path fill="none" stroke="midnightblue" d="M977.2,-387C1015.56,-386.47 1076.41,-385.62 1116.4,-385.06"/>
<polygon fill="midnightblue" stroke="midnightblue" points="976.96,-383.5 967.01,-387.14 977.06,-390.5 976.96,-383.5"/>
</g>
<!-- Node11 -->
<g id="node11" class="node">
<title>Node11</title>
<g id="a_node11"><a xlink:href="classdrain_1_1BeanLike.html" target="_top" xlink:title="Something which has a name, a description and possibly some parameters of varying type.">
<polygon fill="white" stroke="black" points="662.5,-379 662.5,-398 723.5,-398 723.5,-379 662.5,-379"/>
<text text-anchor="middle" x="693" y="-386" font-family="Helvetica,sans-Serif" font-size="10.00">BeanLike</text>
</a>
</g>
</g>
<!-- Node11&#45;&gt;Node10 -->
<g id="edge10" class="edge">
<title>Node11&#45;&gt;Node10</title>
<path fill="none" stroke="midnightblue" d="M733.89,-388.34C784.71,-388.13 871.07,-387.78 913.88,-387.6"/>
<polygon fill="midnightblue" stroke="midnightblue" points="733.6,-384.84 723.61,-388.38 733.63,-391.84 733.6,-384.84"/>
</g>
<!-- Node12 -->
<g id="node12" class="node">
<title>Node12</title>
<g id="a_node12"><a xlink:href="classdrain_1_1ReferenceMap.html" target="_top" xlink:title=" ">
<polygon fill="white" stroke="black" points="420.5,-379 420.5,-398 507.5,-398 507.5,-379 420.5,-379"/>
<text text-anchor="middle" x="464" y="-386" font-family="Helvetica,sans-Serif" font-size="10.00">ReferenceMap</text>
</a>
</g>
</g>
<!-- Node12&#45;&gt;Node11 -->
<g id="edge11" class="edge">
<title>Node12&#45;&gt;Node11</title>
<path fill="none" stroke="#9a32cd" stroke-dasharray="5,2" d="M517.87,-388.5C562.88,-388.5 625.91,-388.5 662.5,-388.5"/>
<polygon fill="#9a32cd" stroke="#9a32cd" points="517.7,-385 507.7,-388.5 517.7,-392 517.7,-385"/>
<text text-anchor="middle" x="577" y="-391.5" font-family="Helvetica,sans-Serif" font-size="10.00"> parameters</text>
</g>
<!-- Node13 -->
<g id="node13" class="node">
<title>Node13</title>
<g id="a_node13"><a xlink:href="classdrain_1_1SmartMap.html" target="_top" xlink:title=" ">
<polygon fill="white" stroke="black" points="212.5,-379 212.5,-398 355.5,-398 355.5,-379 212.5,-379"/>
<text text-anchor="middle" x="284" y="-386" font-family="Helvetica,sans-Serif" font-size="10.00">SmartMap&lt; Referencer &gt;</text>
</a>
</g>
</g>
<!-- Node13&#45;&gt;Node12 -->
<g id="edge12" class="edge">
<title>Node13&#45;&gt;Node12</title>
<path fill="none" stroke="midnightblue" d="M365.72,-388.5C384.61,-388.5 403.99,-388.5 420.44,-388.5"/>
<polygon fill="midnightblue" stroke="midnightblue" points="365.61,-385 355.61,-388.5 365.61,-392 365.61,-385"/>
</g>
<!-- Node14 -->
<g id="node14" class="node">
<title>Node14</title>
<g id="a_node14"><a xlink:title=" ">
<polygon fill="white" stroke="#bfbfbf" points="0,-379 0,-398 169,-398 169,-379 0,-379"/>
<text text-anchor="middle" x="84.5" y="-386" font-family="Helvetica,sans-Serif" font-size="10.00">map&lt; std::string, Referencer &gt;</text>
</a>
</g>
</g>
<!-- Node14&#45;&gt;Node13 -->
<g id="edge13" class="edge">
<title>Node14&#45;&gt;Node13</title>
<path fill="none" stroke="midnightblue" d="M179.37,-388.5C190.42,-388.5 201.55,-388.5 212.2,-388.5"/>
<polygon fill="midnightblue" stroke="midnightblue" points="179.26,-385 169.26,-388.5 179.26,-392 179.26,-385"/>
</g>
<!-- Node15 -->
<g id="node15" class="node">
<title>Node15</title>
<g id="a_node15"><a xlink:href="classrack_1_1RadarWindowConfig.html" target="_top" xlink:title=" ">
<polygon fill="white" stroke="black" points="1099.5,-260 1099.5,-279 1215.5,-279 1215.5,-260 1099.5,-260"/>
<text text-anchor="middle" x="1157.5" y="-267" font-family="Helvetica,sans-Serif" font-size="10.00">RadarWindowConfig</text>
</a>
</g>
</g>
<!-- Node15&#45;&gt;Node5 -->
<g id="edge14" class="edge">
<title>Node15&#45;&gt;Node5</title>
<path fill="none" stroke="#9a32cd" stroke-dasharray="5,2" d="M1225.66,-263.09C1270.81,-258.79 1330.64,-253.08 1378.88,-248.48"/>
<polygon fill="#9a32cd" stroke="#9a32cd" points="1225.3,-259.61 1215.68,-264.05 1225.97,-266.58 1225.3,-259.61"/>
<text text-anchor="middle" x="1314" y="-261.5" font-family="Helvetica,sans-Serif" font-size="10.00"> conf</text>
</g>
<!-- Node16 -->
<g id="node16" class="node">
<title>Node16</title>
<g id="a_node16"><a xlink:href="classdrain_1_1image_1_1WindowConfig.html" target="_top" xlink:title="Base class for configurations applied in image processing windows, e.g. for operators of type WindowO...">
<polygon fill="white" stroke="black" points="897,-260 897,-279 984,-279 984,-260 897,-260"/>
<text text-anchor="middle" x="940.5" y="-267" font-family="Helvetica,sans-Serif" font-size="10.00">WindowConfig</text>
</a>
</g>
</g>
<!-- Node16&#45;&gt;Node15 -->
<g id="edge15" class="edge">
<title>Node16&#45;&gt;Node15</title>
<path fill="none" stroke="midnightblue" d="M994.23,-269.5C1026.04,-269.5 1066.58,-269.5 1099.18,-269.5"/>
<polygon fill="midnightblue" stroke="midnightblue" points="994.23,-266 984.23,-269.5 994.23,-273 994.23,-266"/>
</g>
<!-- Node17 -->
<g id="node17" class="node">
<title>Node17</title>
<g id="a_node17"><a xlink:href="classdrain_1_1VariableMap.html" target="_top" xlink:title="A map of Variables.">
<polygon fill="white" stroke="black" points="654,-262 654,-281 732,-281 732,-262 654,-262"/>
<text text-anchor="middle" x="693" y="-269" font-family="Helvetica,sans-Serif" font-size="10.00">VariableMap</text>
</a>
</g>
</g>
<!-- Node17&#45;&gt;Node16 -->
<g id="edge16" class="edge">
<title>Node17&#45;&gt;Node16</title>
<path fill="none" stroke="#9a32cd" stroke-dasharray="5,2" d="M742.19,-271.11C787.17,-270.74 853.65,-270.2 896.78,-269.85"/>
<polygon fill="#9a32cd" stroke="#9a32cd" points="742.06,-267.61 732.09,-271.19 742.12,-274.61 742.06,-267.61"/>
<text text-anchor="middle" x="826" y="-274.5" font-family="Helvetica,sans-Serif" font-size="10.00"> functorParameters</text>
</g>
<!-- Node18 -->
<g id="node18" class="node">
<title>Node18</title>
<g id="a_node18"><a xlink:href="classdrain_1_1SmartMap.html" target="_top" xlink:title=" ">
<polygon fill="white" stroke="black" points="399,-262 399,-281 529,-281 529,-262 399,-262"/>
<text text-anchor="middle" x="464" y="-269" font-family="Helvetica,sans-Serif" font-size="10.00">SmartMap&lt; Variable &gt;</text>
</a>
</g>
</g>
<!-- Node18&#45;&gt;Node17 -->
<g id="edge17" class="edge">
<title>Node18&#45;&gt;Node17</title>
<path fill="none" stroke="midnightblue" d="M539.24,-271.5C577.57,-271.5 622.71,-271.5 653.94,-271.5"/>
<polygon fill="midnightblue" stroke="midnightblue" points="539.14,-268 529.14,-271.5 539.14,-275 539.14,-268"/>
</g>
<!-- Node19 -->
<g id="node19" class="node">
<title>Node19</title>
<g id="a_node19"><a xlink:title=" ">
<polygon fill="white" stroke="#bfbfbf" points="206,-262 206,-281 362,-281 362,-262 206,-262"/>
<text text-anchor="middle" x="284" y="-269" font-family="Helvetica,sans-Serif" font-size="10.00">map&lt; std::string, Variable &gt;</text>
</a>
</g>
</g>
<!-- Node19&#45;&gt;Node18 -->
<g id="edge18" class="edge">
<title>Node19&#45;&gt;Node18</title>
<path fill="none" stroke="midnightblue" d="M372.18,-271.5C381.2,-271.5 390.24,-271.5 398.93,-271.5"/>
<polygon fill="midnightblue" stroke="midnightblue" points="372.04,-268 362.04,-271.5 372.04,-275 372.04,-268"/>
</g>
<!-- Node20&#45;&gt;Node16 -->
<g id="edge19" class="edge">
<title>Node20&#45;&gt;Node16</title>
<path fill="none" stroke="#9a32cd" stroke-dasharray="5,2" d="M726.07,-179.96C776.37,-201.06 872.57,-241.42 916.54,-259.87"/>
<polygon fill="#9a32cd" stroke="#9a32cd" points="727.23,-176.65 716.66,-176.01 724.52,-183.1 727.23,-176.65"/>
<text text-anchor="middle" x="826" y="-242.5" font-family="Helvetica,sans-Serif" font-size="10.00"> frame</text>
</g>
<!-- Node20&#45;&gt;Node25 -->
<g id="edge28" class="edge">
<title>Node20&#45;&gt;Node25</title>
<path fill="none" stroke="#9a32cd" stroke-dasharray="5,2" d="M751.38,-166.75C839.29,-167.13 1006.53,-167.85 1096.17,-168.24"/>
<polygon fill="#9a32cd" stroke="#9a32cd" points="751.34,-163.25 741.32,-166.7 751.31,-170.25 751.34,-163.25"/>
<text text-anchor="middle" x="940.5" y="-171.5" font-family="Helvetica,sans-Serif" font-size="10.00"> area</text>
</g>
<!-- Node21 -->
<g id="node21" class="node">
<title>Node21</title>
<g id="a_node21"><a xlink:href="classdrain_1_1UniCloner.html" target="_top" xlink:title=" ">
<polygon fill="white" stroke="black" points="1066,-336 1066,-355 1249,-355 1249,-336 1066,-336"/>
<text text-anchor="middle" x="1157.5" y="-343" font-family="Helvetica,sans-Serif" font-size="10.00">UniCloner&lt; drain::UnaryFunctor &gt;</text>
</a>
</g>
</g>
<!-- Node21&#45;&gt;Node5 -->
<g id="edge21" class="edge">
<title>Node21&#45;&gt;Node5</title>
<path fill="none" stroke="#9a32cd" stroke-dasharray="5,2" d="M1215.97,-333.85C1226.96,-331.51 1238.35,-329 1249,-326.5 1299.06,-314.77 1313.3,-316.69 1361,-297.5 1389.31,-286.11 1419.54,-268.32 1439.57,-255.65"/>
<polygon fill="#9a32cd" stroke="#9a32cd" points="1215.09,-330.46 1206.03,-335.95 1216.54,-337.31 1215.09,-330.46"/>
<text text-anchor="middle" x="1314" y="-325.5" font-family="Helvetica,sans-Serif" font-size="10.00"> unicloner</text>
</g>
<!-- Node22 -->
<g id="node22" class="node">
<title>Node22</title>
<g id="a_node22"><a xlink:href="classdrain_1_1Bank.html" target="_top" xlink:title=" ">
<polygon fill="white" stroke="black" points="899,-335 899,-354 982,-354 982,-335 899,-335"/>
<text text-anchor="middle" x="940.5" y="-342" font-family="Helvetica,sans-Serif" font-size="10.00">Bank&lt; T, K &gt;</text>
</a>
</g>
</g>
<!-- Node22&#45;&gt;Node21 -->
<g id="edge22" class="edge">
<title>Node22&#45;&gt;Node21</title>
<path fill="none" stroke="#9a32cd" stroke-dasharray="5,2" d="M992.26,-344.74C1014.19,-344.84 1040.53,-344.96 1065.64,-345.08"/>
<polygon fill="#9a32cd" stroke="#9a32cd" points="992.21,-341.24 982.19,-344.69 992.18,-348.24 992.21,-341.24"/>
<text text-anchor="middle" x="1028" y="-347.5" font-family="Helvetica,sans-Serif" font-size="10.00"> bank</text>
</g>
<!-- Node23 -->
<g id="node23" class="node">
<title>Node23</title>
<g id="a_node23"><a xlink:title=" ">
<polygon fill="white" stroke="#bfbfbf" points="625,-329.5 625,-359.5 761,-359.5 761,-329.5 625,-329.5"/>
<text text-anchor="start" x="633" y="-347.5" font-family="Helvetica,sans-Serif" font-size="10.00">map&lt; std::string, Cloner</text>
<text text-anchor="middle" x="693" y="-336.5" font-family="Helvetica,sans-Serif" font-size="10.00">Base&lt; T &gt; * &gt;</text>
</a>
</g>
</g>
<!-- Node23&#45;&gt;Node22 -->
<g id="edge23" class="edge">
<title>Node23&#45;&gt;Node22</title>
<path fill="none" stroke="darkgreen" d="M771.34,-344.5C813.54,-344.5 864.07,-344.5 898.65,-344.5"/>
<polygon fill="darkgreen" stroke="darkgreen" points="771.08,-341 761.08,-344.5 771.08,-348 771.08,-341"/>
</g>
<!-- Node24&#45;&gt;Node4 -->
<g id="edge33" class="edge">
<title>Node24&#45;&gt;Node4</title>
<path fill="none" stroke="#9a32cd" stroke-dasharray="5,2" d="M1212.94,-129.6C1302.1,-134.68 1479.8,-144.81 1584.66,-150.78"/>
<polygon fill="#9a32cd" stroke="#9a32cd" points="1212.96,-126.1 1202.78,-129.02 1212.56,-133.09 1212.96,-126.1"/>
<text text-anchor="middle" x="1463.5" y="-174.5" font-family="Helvetica,sans-Serif" font-size="10.00"> locationTrail</text>
<text text-anchor="middle" x="1463.5" y="-163.5" font-family="Helvetica,sans-Serif" font-size="10.00">locationLead</text>
<text text-anchor="middle" x="1463.5" y="-152.5" font-family="Helvetica,sans-Serif" font-size="10.00">locationTmp</text>
</g>
<!-- Node24&#45;&gt;Node5 -->
<g id="edge24" class="edge">
<title>Node24&#45;&gt;Node5</title>
<path fill="none" stroke="#9a32cd" stroke-dasharray="5,2" d="M1212.91,-133.21C1263.59,-139.99 1335.1,-151.07 1361,-162.5 1395.77,-177.84 1429.38,-207.49 1447.86,-225.49"/>
<polygon fill="#9a32cd" stroke="#9a32cd" points="1213.12,-129.71 1202.75,-131.87 1212.21,-136.65 1213.12,-129.71"/>
<text text-anchor="middle" x="1314" y="-165.5" font-family="Helvetica,sans-Serif" font-size="10.00"> location</text>
</g>
<!-- Node25&#45;&gt;Node5 -->
<g id="edge26" class="edge">
<title>Node25&#45;&gt;Node5</title>
<path fill="none" stroke="#9a32cd" stroke-dasharray="5,2" d="M1228.86,-172.37C1268.29,-175.81 1318.03,-182.3 1361,-194.5 1387.06,-201.9 1414.97,-214.96 1434.92,-225.28"/>
<polygon fill="#9a32cd" stroke="#9a32cd" points="1229.06,-168.87 1218.81,-171.53 1228.48,-175.85 1229.06,-168.87"/>
<text text-anchor="middle" x="1314" y="-197.5" font-family="Helvetica,sans-Serif" font-size="10.00"> coordinateHandler</text>
</g>
<!-- Node26 -->
<g id="node26" class="node">
<title>Node26</title>
<g id="a_node26"><a xlink:href="classdrain_1_1image_1_1CoordinatePolicy.html" target="_top" xlink:title="Policies for coordinate underflows and overflows.">
<polygon fill="white" stroke="black" points="891,-94 891,-113 990,-113 990,-94 891,-94"/>
<text text-anchor="middle" x="940.5" y="-101" font-family="Helvetica,sans-Serif" font-size="10.00">CoordinatePolicy</text>
</a>
</g>
</g>
<!-- Node26&#45;&gt;Node25 -->
<g id="edge29" class="edge">
<title>Node26&#45;&gt;Node25</title>
<path fill="none" stroke="#9a32cd" stroke-dasharray="5,2" d="M1000.06,-107.9C1016.38,-110.97 1033.58,-116.08 1048,-124.5 1058.62,-130.7 1055.56,-139.02 1066,-145.5 1075.37,-151.31 1086.14,-155.66 1096.92,-158.91"/>
<polygon fill="#9a32cd" stroke="#9a32cd" points="1000.48,-104.42 990.04,-106.23 999.33,-111.32 1000.48,-104.42"/>
<text text-anchor="middle" x="1028" y="-127.5" font-family="Helvetica,sans-Serif" font-size="10.00"> policy</text>
</g>
<!-- Node27 -->
<g id="node27" class="node">
<title>Node27</title>
<g id="a_node27"><a xlink:href="classdrain_1_1UniTuple.html" target="_top" xlink:title=" ">
<polygon fill="white" stroke="black" points="634.5,-107.5 634.5,-137.5 751.5,-137.5 751.5,-107.5 634.5,-107.5"/>
<text text-anchor="start" x="642.5" y="-125.5" font-family="Helvetica,sans-Serif" font-size="10.00">UniTuple&lt; coord_pol</text>
<text text-anchor="middle" x="693" y="-114.5" font-family="Helvetica,sans-Serif" font-size="10.00">_t, 4 &gt;</text>
</a>
</g>
</g>
<!-- Node27&#45;&gt;Node26 -->
<g id="edge30" class="edge">
<title>Node27&#45;&gt;Node26</title>
<path fill="none" stroke="midnightblue" d="M761.74,-117.26C802.73,-114.08 854.04,-110.11 890.98,-107.25"/>
<polygon fill="midnightblue" stroke="midnightblue" points="761.26,-113.78 751.56,-118.05 761.8,-120.76 761.26,-113.78"/>
</g>
<!-- Node28 -->
<g id="node28" class="node">
<title>Node28</title>
<g id="a_node28"><a xlink:href="classdrain_1_1Dictionary2.html" target="_top" xlink:title="Two&#45;way mapping between strings and objects of template class T.">
<polygon fill="white" stroke="black" points="635.5,-69 635.5,-88 750.5,-88 750.5,-69 635.5,-69"/>
<text text-anchor="middle" x="693" y="-76" font-family="Helvetica,sans-Serif" font-size="10.00">Dictionary2&lt; K, V &gt;</text>
</a>
</g>
</g>
<!-- Node28&#45;&gt;Node26 -->
<g id="edge31" class="edge">
<title>Node28&#45;&gt;Node26</title>
<path fill="none" stroke="#9a32cd" stroke-dasharray="5,2" d="M761.08,-83.77C794.71,-86.6 836.05,-90.35 873,-94.5 878.79,-95.15 884.85,-95.89 890.86,-96.66"/>
<polygon fill="#9a32cd" stroke="#9a32cd" points="761.16,-80.26 750.9,-82.92 760.58,-87.24 761.16,-80.26"/>
<text text-anchor="middle" x="826" y="-97.5" font-family="Helvetica,sans-Serif" font-size="10.00"> dict</text>
</g>
<!-- Node29 -->
<g id="node29" class="node">
<title>Node29</title>
<g id="a_node29"><a xlink:title=" ">
<polygon fill="white" stroke="#bfbfbf" points="412,-0.5 412,-30.5 516,-30.5 516,-0.5 412,-0.5"/>
<text text-anchor="start" x="420" y="-18.5" font-family="Helvetica,sans-Serif" font-size="10.00">list&lt; std::pair&lt; K,</text>
<text text-anchor="middle" x="464" y="-7.5" font-family="Helvetica,sans-Serif" font-size="10.00"> V &gt; &gt;</text>
</a>
</g>
</g>
<!-- Node29&#45;&gt;Node28 -->
<g id="edge32" class="edge">
<title>Node29&#45;&gt;Node28</title>
<path fill="none" stroke="midnightblue" d="M526.11,-32.46C568.24,-44.15 622.71,-59.27 657.52,-68.93"/>
<polygon fill="midnightblue" stroke="midnightblue" points="526.8,-29.02 516.23,-29.72 524.93,-35.76 526.8,-29.02"/>
</g>
</g>
</svg>
        <g id="navigator" transform="translate(0 0)" fill="#404254">
                <rect fill="#f2f5e9" fill-opacity="0.5" stroke="#606060" stroke-width=".5" x="0" y="0" width="60" height="60"/>
                <use id="zoomplus" xlink:href="#zoomPlus" x="17" y="9" onmousedown="handleZoom(evt,'in')"/>
                <use id="zoomminus" xlink:href="#zoomMin" x="42" y="9" onmousedown="handleZoom(evt,'out')"/>
                <use id="reset" xlink:href="#resetDef" x="30" y="36" onmousedown="handleReset()"/>
                <g id="arrowUp" xlink:href="#dirArrow" transform="translate(30 24)" onmousedown="handlePan(0,-1)">
                  <use xlink:href="#rim" fill="#404040">
                        <set attributeName="fill" to="#808080" begin="arrowUp.mouseover" end="arrowUp.mouseout"/>
                  </use>
                  <path fill="none" stroke="white" stroke-width="1.5" d="M0,-3.0v7 M-2.5,-0.5L0,-3.0L2.5,-0.5"/>
                </g>
                <g id="arrowRight" xlink:href="#dirArrow" transform="rotate(90) translate(36 -43)" onmousedown="handlePan(1,0)">
                  <use xlink:href="#rim" fill="#404040">
                        <set attributeName="fill" to="#808080" begin="arrowRight.mouseover" end="arrowRight.mouseout"/>
                  </use>
                  <path fill="none" stroke="white" stroke-width="1.5" d="M0,-3.0v7 M-2.5,-0.5L0,-3.0L2.5,-0.5"/>
                </g>
                <g id="arrowDown" xlink:href="#dirArrow" transform="rotate(180) translate(-30 -48)" onmousedown="handlePan(0,1)">
                  <use xlink:href="#rim" fill="#404040">
                        <set attributeName="fill" to="#808080" begin="arrowDown.mouseover" end="arrowDown.mouseout"/>
                  </use>
                  <path fill="none" stroke="white" stroke-width="1.5" d="M0,-3.0v7 M-2.5,-0.5L0,-3.0L2.5,-0.5"/>
                </g>
                <g id="arrowLeft" xlink:href="#dirArrow" transform="rotate(270) translate(-36 17)" onmousedown="handlePan(-1,0)">
                  <use xlink:href="#rim" fill="#404040">
                        <set attributeName="fill" to="#808080" begin="arrowLeft.mouseover" end="arrowLeft.mouseout"/>
                  </use>
                  <path fill="none" stroke="white" stroke-width="1.5" d="M0,-3.0v7 M-2.5,-0.5L0,-3.0L2.5,-0.5"/>
                </g>
        </g>
        <svg viewBox="0 0 15 15" width="100%" height="30px" preserveAspectRatio="xMaxYMin meet">
         <g id="arrow_out" transform="scale(0.3 0.3)">
          <a xlink:href="classrack_1_1DopplerDevWindow__coll__graph_org.svg" target="_base">
           <rect id="button" ry="5" rx="5" y="6" x="6" height="38" width="38"
                fill="#f2f5e9" fill-opacity="0.5" stroke="#606060" stroke-width="1.0"/>
           <path id="arrow"
             d="M 11.500037,31.436501 C 11.940474,20.09759 22.043105,11.32322 32.158766,21.979434 L 37.068811,17.246167 C 37.068811,17.246167 37.088388,32 37.088388,32 L 22.160133,31.978069 C 22.160133,31.978069 26.997745,27.140456 26.997745,27.140456 C 18.528582,18.264221 13.291696,25.230495 11.500037,31.436501 z"
             style="fill:#404040;"/>
          </a>
         </g>
        </svg>
</svg>
