<?xml version="1.0" encoding="UTF-8" standalone="no"?>
<!DOCTYPE svg PUBLIC "-//W3C//DTD SVG 1.1//EN"
 "http://www.w3.org/Graphics/SVG/1.1/DTD/svg11.dtd">
<!-- Generated by graphviz version 2.43.0 (0)
 -->
<!-- Title: AccumulationArray Pages: 1 -->
<!--zoomable 323 -->
<svg id="main" version="1.1" xmlns="http://www.w3.org/2000/svg" xmlns:xlink="http://www.w3.org/1999/xlink" xml:space="preserve" onload="init(evt)">
<style type="text/css"><![CDATA[
.edge:hover path { stroke: red; }
.edge:hover polygon { stroke: red; fill: red; }
]]></style>
<script type="text/javascript"><![CDATA[
var edges = document.getElementsByTagName('g');
if (edges && edges.length) {
  for (var i=0;i<edges.length;i++) {
    if (edges[i].id.substr(0,4)=='edge') {
      edges[i].setAttribute('class','edge');
    }
  }
}
]]></script>
        <defs>
                <circle id="rim" cx="0" cy="0" r="7"/>
                <circle id="rim2" cx="0" cy="0" r="3.5"/>
                <g id="zoomPlus">
                        <use xlink:href="#rim" fill="#404040">
                                <set attributeName="fill" to="#808080" begin="zoomplus.mouseover" end="zoomplus.mouseout"/>
                        </use>
                        <path d="M-4,0h8M0,-4v8" fill="none" stroke="white" stroke-width="1.5" pointer-events="none"/>
                </g>
                <g id="zoomMin">
                        <use xlink:href="#rim" fill="#404040">
                                <set attributeName="fill" to="#808080" begin="zoomminus.mouseover" end="zoomminus.mouseout"/>
                        </use>
                        <path d="M-4,0h8" fill="none" stroke="white" stroke-width="1.5" pointer-events="none"/>
                </g>
                <g id="dirArrow">
                        <path fill="none" stroke="white" stroke-width="1.5" d="M0,-3.0v7 M-2.5,-0.5L0,-3.0L2.5,-0.5"/>
                </g>
               <g id="resetDef">
                       <use xlink:href="#rim2" fill="#404040">
                               <set attributeName="fill" to="#808080" begin="reset.mouseover" end="reset.mouseout"/>
                       </use>
               </g>
        </defs>

<script type="text/javascript">
var viewWidth = 2076;
var viewHeight = 323;
var sectionId = 'dynsection-1';
</script>
<script xlink:href="svgpan.js"/>
<svg id="graph" class="graph">
<g id="viewport">
<title>AccumulationArray</title>
<polygon fill="white" stroke="transparent" points="-4,4 -4,-319 2072,-319 2072,4 -4,4"/>
<!-- Node1 -->
<g id="node1" class="node">
<title>Node1</title>
<g id="a_node1"><a xlink:title="General&#45;purpose image compositing.">
<polygon fill="#bfbfbf" stroke="black" points="1958,-176.5 1958,-195.5 2068,-195.5 2068,-176.5 1958,-176.5"/>
<text text-anchor="middle" x="2013" y="-183.5" font-family="Helvetica,sans-Serif" font-size="10.00">AccumulationArray</text>
</a>
</g>
</g>
<!-- Node2 -->
<g id="node2" class="node">
<title>Node2</title>
<g id="a_node2"><a xlink:href="classdrain_1_1image_1_1ImageT.html" target="_top" xlink:title=" ">
<polygon fill="white" stroke="black" points="1752,-176.5 1752,-195.5 1888,-195.5 1888,-176.5 1752,-176.5"/>
<text text-anchor="middle" x="1820" y="-183.5" font-family="Helvetica,sans-Serif" font-size="10.00">ImageT&lt; unsigned int &gt;</text>
</a>
</g>
</g>
<!-- Node2&#45;&gt;Node1 -->
<g id="edge1" class="edge">
<title>Node2&#45;&gt;Node1</title>
<path fill="none" stroke="#9a32cd" stroke-dasharray="5,2" d="M1898.13,-186C1918.2,-186 1939.4,-186 1957.99,-186"/>
<polygon fill="#9a32cd" stroke="#9a32cd" points="1898.07,-182.5 1888.07,-186 1898.07,-189.5 1898.07,-182.5"/>
<text text-anchor="middle" x="1923" y="-189" font-family="Helvetica,sans-Serif" font-size="10.00"> count</text>
</g>
<!-- Node3 -->
<g id="node3" class="node">
<title>Node3</title>
<g id="a_node3"><a xlink:href="classdrain_1_1image_1_1ModifiableImage.html" target="_top" xlink:title="Image with modifiable geometry.">
<polygon fill="white" stroke="black" points="1616,-214.5 1616,-233.5 1715,-233.5 1715,-214.5 1616,-214.5"/>
<text text-anchor="middle" x="1665.5" y="-221.5" font-family="Helvetica,sans-Serif" font-size="10.00">ModifiableImage</text>
</a>
</g>
</g>
<!-- Node3&#45;&gt;Node2 -->
<g id="edge2" class="edge">
<title>Node3&#45;&gt;Node2</title>
<path fill="none" stroke="midnightblue" d="M1714.82,-211.96C1736.12,-206.65 1760.8,-200.5 1780.79,-195.52"/>
<polygon fill="midnightblue" stroke="midnightblue" points="1713.84,-208.6 1704.98,-214.41 1715.53,-215.39 1713.84,-208.6"/>
</g>
<!-- Node28 -->
<g id="node28" class="node">
<title>Node28</title>
<g id="a_node28"><a xlink:href="classdrain_1_1image_1_1ImageT.html" target="_top" xlink:title=" ">
<polygon fill="white" stroke="black" points="1765.5,-214.5 1765.5,-233.5 1874.5,-233.5 1874.5,-214.5 1765.5,-214.5"/>
<text text-anchor="middle" x="1820" y="-221.5" font-family="Helvetica,sans-Serif" font-size="10.00">ImageT&lt; double &gt;</text>
</a>
</g>
</g>
<!-- Node3&#45;&gt;Node28 -->
<g id="edge30" class="edge">
<title>Node3&#45;&gt;Node28</title>
<path fill="none" stroke="midnightblue" d="M1725.48,-224C1738.57,-224 1752.38,-224 1765.24,-224"/>
<polygon fill="midnightblue" stroke="midnightblue" points="1725.17,-220.5 1715.17,-224 1725.17,-227.5 1725.17,-220.5"/>
</g>
<!-- Node4 -->
<g id="node4" class="node">
<title>Node4</title>
<g id="a_node4"><a xlink:href="classdrain_1_1image_1_1MultiChannel.html" target="_top" xlink:title="Multi&#45;channel ImageFrame.">
<polygon fill="white" stroke="black" points="1491.5,-227.5 1491.5,-246.5 1572.5,-246.5 1572.5,-227.5 1491.5,-227.5"/>
<text text-anchor="middle" x="1532" y="-234.5" font-family="Helvetica,sans-Serif" font-size="10.00">MultiChannel</text>
</a>
</g>
</g>
<!-- Node4&#45;&gt;Node3 -->
<g id="edge3" class="edge">
<title>Node4&#45;&gt;Node3</title>
<path fill="none" stroke="midnightblue" d="M1582.85,-232.07C1593.56,-231.01 1604.86,-229.9 1615.53,-228.84"/>
<polygon fill="midnightblue" stroke="midnightblue" points="1582.42,-228.6 1572.81,-233.06 1583.11,-235.56 1582.42,-228.6"/>
</g>
<!-- Node5 -->
<g id="node5" class="node">
<title>Node5</title>
<g id="a_node5"><a xlink:href="classdrain_1_1image_1_1ImageFrame.html" target="_top" xlink:title="Image with static geometry.">
<polygon fill="white" stroke="black" points="1370,-233.5 1370,-252.5 1448,-252.5 1448,-233.5 1370,-233.5"/>
<text text-anchor="middle" x="1409" y="-240.5" font-family="Helvetica,sans-Serif" font-size="10.00">ImageFrame</text>
</a>
</g>
</g>
<!-- Node5&#45;&gt;Node4 -->
<g id="edge4" class="edge">
<title>Node5&#45;&gt;Node4</title>
<path fill="none" stroke="midnightblue" d="M1458.51,-240.59C1469.39,-240.05 1480.82,-239.49 1491.3,-238.97"/>
<polygon fill="midnightblue" stroke="midnightblue" points="1458.1,-237.11 1448.29,-241.1 1458.45,-244.1 1458.1,-237.11"/>
</g>
<!-- Node6 -->
<g id="node6" class="node">
<title>Node6</title>
<g id="a_node6"><a xlink:href="classdrain_1_1image_1_1ImageLike.html" target="_top" xlink:title="A base class for images.">
<polygon fill="white" stroke="black" points="1184,-189.5 1184,-208.5 1251,-208.5 1251,-189.5 1184,-189.5"/>
<text text-anchor="middle" x="1217.5" y="-196.5" font-family="Helvetica,sans-Serif" font-size="10.00">ImageLike</text>
</a>
</g>
</g>
<!-- Node6&#45;&gt;Node5 -->
<g id="edge5" class="edge">
<title>Node6&#45;&gt;Node5</title>
<path fill="none" stroke="midnightblue" d="M1261.23,-208.92C1293.91,-216.51 1338.54,-226.87 1369.99,-234.17"/>
<polygon fill="midnightblue" stroke="midnightblue" points="1261.61,-205.42 1251.08,-206.56 1260.03,-212.23 1261.61,-205.42"/>
</g>
<!-- Node7 -->
<g id="node7" class="node">
<title>Node7</title>
<g id="a_node7"><a xlink:href="classdrain_1_1image_1_1ImageConf.html" target="_top" xlink:title="Struct for image (excluding data)">
<polygon fill="white" stroke="black" points="926.5,-181.5 926.5,-200.5 996.5,-200.5 996.5,-181.5 926.5,-181.5"/>
<text text-anchor="middle" x="961.5" y="-188.5" font-family="Helvetica,sans-Serif" font-size="10.00">ImageConf</text>
</a>
</g>
</g>
<!-- Node7&#45;&gt;Node6 -->
<g id="edge6" class="edge">
<title>Node7&#45;&gt;Node6</title>
<path fill="none" stroke="#9a32cd" stroke-dasharray="5,2" d="M1007.06,-192.4C1057.67,-194 1139.02,-196.56 1183.99,-197.98"/>
<polygon fill="#9a32cd" stroke="#9a32cd" points="1006.86,-188.9 996.76,-192.08 1006.64,-195.89 1006.86,-188.9"/>
<text text-anchor="middle" x="1102.5" y="-200" font-family="Helvetica,sans-Serif" font-size="10.00"> conf</text>
</g>
<!-- Node8 -->
<g id="node8" class="node">
<title>Node8</title>
<g id="a_node8"><a xlink:href="classdrain_1_1image_1_1Encoding.html" target="_top" xlink:title=" ">
<polygon fill="white" stroke="black" points="646,-219.5 646,-238.5 707,-238.5 707,-219.5 646,-219.5"/>
<text text-anchor="middle" x="676.5" y="-226.5" font-family="Helvetica,sans-Serif" font-size="10.00">Encoding</text>
</a>
</g>
</g>
<!-- Node8&#45;&gt;Node7 -->
<g id="edge7" class="edge">
<title>Node8&#45;&gt;Node7</title>
<path fill="none" stroke="midnightblue" d="M717.47,-223.63C773.33,-216.13 873.79,-202.64 926.34,-195.59"/>
<polygon fill="midnightblue" stroke="midnightblue" points="716.7,-220.21 707.25,-225.01 717.63,-227.14 716.7,-220.21"/>
</g>
<!-- Node9 -->
<g id="node9" class="node">
<title>Node9</title>
<g id="a_node9"><a xlink:href="classdrain_1_1ValueScaling.html" target="_top" xlink:title="Linear scaling and physical range for image intensities.">
<polygon fill="white" stroke="black" points="404,-242.5 404,-261.5 484,-261.5 484,-242.5 404,-242.5"/>
<text text-anchor="middle" x="444" y="-249.5" font-family="Helvetica,sans-Serif" font-size="10.00">ValueScaling</text>
</a>
</g>
</g>
<!-- Node9&#45;&gt;Node8 -->
<g id="edge8" class="edge">
<title>Node9&#45;&gt;Node8</title>
<path fill="none" stroke="midnightblue" d="M494.15,-247.1C540.16,-242.5 607.4,-235.8 645.76,-231.97"/>
<polygon fill="midnightblue" stroke="midnightblue" points="493.7,-243.62 484.1,-248.1 494.4,-250.59 493.7,-243.62"/>
</g>
<!-- Node10 -->
<g id="node10" class="node">
<title>Node10</title>
<g id="a_node10"><a xlink:href="classdrain_1_1UniTuple.html" target="_top" xlink:title=" ">
<polygon fill="white" stroke="black" points="163,-222.5 163,-241.5 289,-241.5 289,-222.5 163,-222.5"/>
<text text-anchor="middle" x="226" y="-229.5" font-family="Helvetica,sans-Serif" font-size="10.00">UniTuple&lt; double, 4 &gt;</text>
</a>
</g>
</g>
<!-- Node10&#45;&gt;Node9 -->
<g id="edge9" class="edge">
<title>Node10&#45;&gt;Node9</title>
<path fill="none" stroke="midnightblue" d="M299.36,-238.7C334.32,-241.94 374.9,-245.69 403.99,-248.39"/>
<polygon fill="midnightblue" stroke="midnightblue" points="299.47,-235.19 289.19,-237.76 298.82,-242.17 299.47,-235.19"/>
</g>
<!-- Node11 -->
<g id="node11" class="node">
<title>Node11</title>
<g id="a_node11"><a xlink:href="classdrain_1_1Range.html" target="_top" xlink:title=" ">
<polygon fill="white" stroke="black" points="174.5,-260.5 174.5,-279.5 277.5,-279.5 277.5,-260.5 174.5,-260.5"/>
<text text-anchor="middle" x="226" y="-267.5" font-family="Helvetica,sans-Serif" font-size="10.00">Range&lt; double &gt;</text>
</a>
</g>
</g>
<!-- Node11&#45;&gt;Node9 -->
<g id="edge10" class="edge">
<title>Node11&#45;&gt;Node9</title>
<path fill="none" stroke="#9a32cd" stroke-dasharray="5,2" d="M287.86,-264.93C325.03,-261.83 371.46,-257.96 403.8,-255.27"/>
<polygon fill="#9a32cd" stroke="#9a32cd" points="287.32,-261.46 277.64,-265.78 287.9,-268.44 287.32,-261.46"/>
<text text-anchor="middle" x="336" y="-266" font-family="Helvetica,sans-Serif" font-size="10.00"> physRange</text>
</g>
<!-- Node12 -->
<g id="node12" class="node">
<title>Node12</title>
<g id="a_node12"><a xlink:href="classdrain_1_1UniTuple.html" target="_top" xlink:title=" ">
<polygon fill="white" stroke="black" points="0,-260.5 0,-279.5 126,-279.5 126,-260.5 0,-260.5"/>
<text text-anchor="middle" x="63" y="-267.5" font-family="Helvetica,sans-Serif" font-size="10.00">UniTuple&lt; double, 2 &gt;</text>
</a>
</g>
</g>
<!-- Node12&#45;&gt;Node11 -->
<g id="edge11" class="edge">
<title>Node12&#45;&gt;Node11</title>
<path fill="none" stroke="midnightblue" d="M136.44,-270C149.24,-270 162.33,-270 174.37,-270"/>
<polygon fill="midnightblue" stroke="midnightblue" points="136.25,-266.5 126.25,-270 136.25,-273.5 136.25,-266.5"/>
</g>
<!-- Node13 -->
<g id="node13" class="node">
<title>Node13</title>
<g id="a_node13"><a xlink:href="classdrain_1_1Caster.html" target="_top" xlink:title=" ">
<polygon fill="white" stroke="black" points="420,-286.5 420,-305.5 468,-305.5 468,-286.5 420,-286.5"/>
<text text-anchor="middle" x="444" y="-293.5" font-family="Helvetica,sans-Serif" font-size="10.00">Caster</text>
</a>
</g>
</g>
<!-- Node13&#45;&gt;Node8 -->
<g id="edge12" class="edge">
<title>Node13&#45;&gt;Node8</title>
<path fill="none" stroke="#9a32cd" stroke-dasharray="5,2" d="M477.67,-283.26C491.56,-278 507.99,-271.98 523,-267 551.57,-257.53 558.83,-255.42 588,-248 607.13,-243.13 628.82,-238.42 645.81,-234.9"/>
<polygon fill="#9a32cd" stroke="#9a32cd" points="476.15,-280.1 468.05,-286.93 478.65,-286.63 476.15,-280.1"/>
<text text-anchor="middle" x="546.5" y="-270" font-family="Helvetica,sans-Serif" font-size="10.00"> caster</text>
</g>
<!-- Node24 -->
<g id="node24" class="node">
<title>Node24</title>
<g id="a_node24"><a xlink:href="classdrain_1_1Castable.html" target="_top" xlink:title=" ">
<polygon fill="white" stroke="black" points="647,-257.5 647,-276.5 706,-276.5 706,-257.5 647,-257.5"/>
<text text-anchor="middle" x="676.5" y="-264.5" font-family="Helvetica,sans-Serif" font-size="10.00">Castable</text>
</a>
</g>
</g>
<!-- Node13&#45;&gt;Node24 -->
<g id="edge25" class="edge">
<title>Node13&#45;&gt;Node24</title>
<path fill="none" stroke="#9a32cd" stroke-dasharray="5,2" d="M478.57,-291.78C523.9,-286.07 603.94,-276 646.69,-270.63"/>
<polygon fill="#9a32cd" stroke="#9a32cd" points="477.85,-288.34 468.37,-293.06 478.73,-295.28 477.85,-288.34"/>
<text text-anchor="middle" x="546.5" y="-288" font-family="Helvetica,sans-Serif" font-size="10.00"> caster</text>
</g>
<!-- Node14 -->
<g id="node14" class="node">
<title>Node14</title>
<g id="a_node14"><a xlink:href="classdrain_1_1image_1_1Geometry.html" target="_top" xlink:title=" ">
<polygon fill="white" stroke="black" points="644,-171.5 644,-190.5 709,-190.5 709,-171.5 644,-171.5"/>
<text text-anchor="middle" x="676.5" y="-178.5" font-family="Helvetica,sans-Serif" font-size="10.00">Geometry</text>
</a>
</g>
</g>
<!-- Node14&#45;&gt;Node7 -->
<g id="edge13" class="edge">
<title>Node14&#45;&gt;Node7</title>
<path fill="none" stroke="midnightblue" d="M719.46,-182.48C775.72,-184.47 874.52,-187.96 926.43,-189.8"/>
<polygon fill="midnightblue" stroke="midnightblue" points="719.26,-178.97 709.14,-182.12 719.01,-185.97 719.26,-178.97"/>
</g>
<!-- Node15 -->
<g id="node15" class="node">
<title>Node15</title>
<g id="a_node15"><a xlink:href="classdrain_1_1UniTuple.html" target="_top" xlink:title=" ">
<polygon fill="white" stroke="black" points="383,-166.5 383,-185.5 505,-185.5 505,-166.5 383,-166.5"/>
<text text-anchor="middle" x="444" y="-173.5" font-family="Helvetica,sans-Serif" font-size="10.00">UniTuple&lt; size_t, 4 &gt;</text>
</a>
</g>
</g>
<!-- Node15&#45;&gt;Node14 -->
<g id="edge14" class="edge">
<title>Node15&#45;&gt;Node14</title>
<path fill="none" stroke="midnightblue" d="M515.37,-177.53C558.26,-178.46 610.97,-179.6 643.91,-180.31"/>
<polygon fill="midnightblue" stroke="midnightblue" points="515.33,-174.02 505.26,-177.31 515.18,-181.02 515.33,-174.02"/>
</g>
<!-- Node16 -->
<g id="node16" class="node">
<title>Node16</title>
<g id="a_node16"><a xlink:href="classdrain_1_1Frame2D.html" target="_top" xlink:title=" ">
<polygon fill="white" stroke="black" points="388,-204.5 388,-223.5 500,-223.5 500,-204.5 388,-204.5"/>
<text text-anchor="middle" x="444" y="-211.5" font-family="Helvetica,sans-Serif" font-size="10.00">Frame2D&lt; size_t &gt;</text>
</a>
</g>
</g>
<!-- Node16&#45;&gt;Node14 -->
<g id="edge15" class="edge">
<title>Node16&#45;&gt;Node14</title>
<path fill="none" stroke="#9a32cd" stroke-dasharray="5,2" d="M510.19,-204.67C553.89,-198.41 609.5,-190.45 643.79,-185.54"/>
<polygon fill="#9a32cd" stroke="#9a32cd" points="509.61,-201.21 500.21,-206.1 510.61,-208.14 509.61,-201.21"/>
<text text-anchor="middle" x="546.5" y="-206" font-family="Helvetica,sans-Serif" font-size="10.00"> area</text>
</g>
<!-- Node17 -->
<g id="node17" class="node">
<title>Node17</title>
<g id="a_node17"><a xlink:href="classdrain_1_1UniTuple.html" target="_top" xlink:title=" ">
<polygon fill="white" stroke="black" points="165,-178.5 165,-197.5 287,-197.5 287,-178.5 165,-178.5"/>
<text text-anchor="middle" x="226" y="-185.5" font-family="Helvetica,sans-Serif" font-size="10.00">UniTuple&lt; size_t, 2 &gt;</text>
</a>
</g>
</g>
<!-- Node17&#45;&gt;Node16 -->
<g id="edge16" class="edge">
<title>Node17&#45;&gt;Node16</title>
<path fill="none" stroke="midnightblue" d="M297.37,-196.47C326.77,-200.01 360.42,-204.06 387.96,-207.37"/>
<polygon fill="midnightblue" stroke="midnightblue" points="297.51,-192.96 287.17,-195.24 296.68,-199.91 297.51,-192.96"/>
</g>
<!-- Node18 -->
<g id="node18" class="node">
<title>Node18</title>
<g id="a_node18"><a xlink:href="classdrain_1_1image_1_1ChannelGeometry.html" target="_top" xlink:title=" ">
<polygon fill="white" stroke="black" points="391.5,-128.5 391.5,-147.5 496.5,-147.5 496.5,-128.5 391.5,-128.5"/>
<text text-anchor="middle" x="444" y="-135.5" font-family="Helvetica,sans-Serif" font-size="10.00">ChannelGeometry</text>
</a>
</g>
</g>
<!-- Node17&#45;&gt;Node18 -->
<g id="edge18" class="edge">
<title>Node17&#45;&gt;Node18</title>
<path fill="none" stroke="midnightblue" d="M277.92,-176.21C315.65,-167.48 366.42,-155.73 401.65,-147.57"/>
<polygon fill="midnightblue" stroke="midnightblue" points="277.09,-172.81 268.14,-178.48 278.67,-179.63 277.09,-172.81"/>
</g>
<!-- Node18&#45;&gt;Node14 -->
<g id="edge17" class="edge">
<title>Node18&#45;&gt;Node14</title>
<path fill="none" stroke="#9a32cd" stroke-dasharray="5,2" d="M506.25,-149.43C550.57,-157.69 608.67,-168.53 643.98,-175.12"/>
<polygon fill="#9a32cd" stroke="#9a32cd" points="506.63,-145.94 496.16,-147.54 505.34,-152.82 506.63,-145.94"/>
<text text-anchor="middle" x="546.5" y="-164" font-family="Helvetica,sans-Serif" font-size="10.00"> channels</text>
</g>
<!-- Node19 -->
<g id="node19" class="node">
<title>Node19</title>
<g id="a_node19"><a xlink:href="classdrain_1_1image_1_1CoordinatePolicy.html" target="_top" xlink:title="Policies for coordinate underflows and overflows.">
<polygon fill="white" stroke="black" points="627,-84.5 627,-103.5 726,-103.5 726,-84.5 627,-84.5"/>
<text text-anchor="middle" x="676.5" y="-91.5" font-family="Helvetica,sans-Serif" font-size="10.00">CoordinatePolicy</text>
</a>
</g>
</g>
<!-- Node19&#45;&gt;Node7 -->
<g id="edge19" class="edge">
<title>Node19&#45;&gt;Node7</title>
<path fill="none" stroke="#9a32cd" stroke-dasharray="5,2" d="M715.2,-106.92C772.74,-126.65 881.18,-163.81 932.38,-181.36"/>
<polygon fill="#9a32cd" stroke="#9a32cd" points="716,-103.5 705.41,-103.57 713.73,-110.12 716,-103.5"/>
<text text-anchor="middle" x="825.5" y="-160" font-family="Helvetica,sans-Serif" font-size="10.00"> coordinatePolicy</text>
</g>
<!-- Node29 -->
<g id="node29" class="node">
<title>Node29</title>
<g id="a_node29"><a xlink:href="classdrain_1_1image_1_1CoordinateHandler2D.html" target="_top" xlink:title=" ">
<polygon fill="white" stroke="black" points="900.5,-62.5 900.5,-81.5 1022.5,-81.5 1022.5,-62.5 900.5,-62.5"/>
<text text-anchor="middle" x="961.5" y="-69.5" font-family="Helvetica,sans-Serif" font-size="10.00">CoordinateHandler2D</text>
</a>
</g>
</g>
<!-- Node19&#45;&gt;Node29 -->
<g id="edge36" class="edge">
<title>Node19&#45;&gt;Node29</title>
<path fill="none" stroke="#9a32cd" stroke-dasharray="5,2" d="M736.4,-89.42C784.46,-85.69 852.08,-80.43 900.45,-76.67"/>
<polygon fill="#9a32cd" stroke="#9a32cd" points="735.85,-85.95 726.15,-90.22 736.39,-92.93 735.85,-85.95"/>
<text text-anchor="middle" x="825.5" y="-89" font-family="Helvetica,sans-Serif" font-size="10.00"> policy</text>
</g>
<!-- Node20 -->
<g id="node20" class="node">
<title>Node20</title>
<g id="a_node20"><a xlink:href="classdrain_1_1UniTuple.html" target="_top" xlink:title=" ">
<polygon fill="white" stroke="black" points="385.5,-79 385.5,-109 502.5,-109 502.5,-79 385.5,-79"/>
<text text-anchor="start" x="393.5" y="-97" font-family="Helvetica,sans-Serif" font-size="10.00">UniTuple&lt; coord_pol</text>
<text text-anchor="middle" x="444" y="-86" font-family="Helvetica,sans-Serif" font-size="10.00">_t, 4 &gt;</text>
</a>
</g>
</g>
<!-- Node20&#45;&gt;Node19 -->
<g id="edge20" class="edge">
<title>Node20&#45;&gt;Node19</title>
<path fill="none" stroke="midnightblue" d="M512.67,-94C549.28,-94 593.66,-94 626.84,-94"/>
<polygon fill="midnightblue" stroke="midnightblue" points="512.57,-90.5 502.57,-94 512.57,-97.5 512.57,-90.5"/>
</g>
<!-- Node21 -->
<g id="node21" class="node">
<title>Node21</title>
<g id="a_node21"><a xlink:href="classdrain_1_1Dictionary2.html" target="_top" xlink:title="Two&#45;way mapping between strings and objects of template class T.">
<polygon fill="white" stroke="black" points="386.5,-40.5 386.5,-59.5 501.5,-59.5 501.5,-40.5 386.5,-40.5"/>
<text text-anchor="middle" x="444" y="-47.5" font-family="Helvetica,sans-Serif" font-size="10.00">Dictionary2&lt; K, V &gt;</text>
</a>
</g>
</g>
<!-- Node21&#45;&gt;Node19 -->
<g id="edge21" class="edge">
<title>Node21&#45;&gt;Node19</title>
<path fill="none" stroke="#9a32cd" stroke-dasharray="5,2" d="M504.91,-61.44C542.83,-68.67 591.22,-77.91 626.77,-84.7"/>
<polygon fill="#9a32cd" stroke="#9a32cd" points="505.49,-57.98 495.02,-59.55 504.18,-64.86 505.49,-57.98"/>
<text text-anchor="middle" x="546.5" y="-77" font-family="Helvetica,sans-Serif" font-size="10.00"> dict</text>
</g>
<!-- Node22 -->
<g id="node22" class="node">
<title>Node22</title>
<g id="a_node22"><a xlink:title=" ">
<polygon fill="white" stroke="#bfbfbf" points="174,-35 174,-65 278,-65 278,-35 174,-35"/>
<text text-anchor="start" x="182" y="-53" font-family="Helvetica,sans-Serif" font-size="10.00">list&lt; std::pair&lt; K,</text>
<text text-anchor="middle" x="226" y="-42" font-family="Helvetica,sans-Serif" font-size="10.00"> V &gt; &gt;</text>
</a>
</g>
</g>
<!-- Node22&#45;&gt;Node21 -->
<g id="edge22" class="edge">
<title>Node22&#45;&gt;Node21</title>
<path fill="none" stroke="midnightblue" d="M288.39,-50C319.23,-50 356.35,-50 386.48,-50"/>
<polygon fill="midnightblue" stroke="midnightblue" points="288.19,-46.5 278.19,-50 288.19,-53.5 288.19,-46.5"/>
</g>
<!-- Node23 -->
<g id="node23" class="node">
<title>Node23</title>
<g id="a_node23"><a xlink:href="classdrain_1_1CastableIterator.html" target="_top" xlink:title=" ">
<polygon fill="white" stroke="black" points="1055,-255.5 1055,-274.5 1150,-274.5 1150,-255.5 1055,-255.5"/>
<text text-anchor="middle" x="1102.5" y="-262.5" font-family="Helvetica,sans-Serif" font-size="10.00">CastableIterator</text>
</a>
</g>
</g>
<!-- Node23&#45;&gt;Node5 -->
<g id="edge23" class="edge">
<title>Node23&#45;&gt;Node5</title>
<path fill="none" stroke="#9a32cd" stroke-dasharray="5,2" d="M1160.22,-260.58C1162.85,-260.38 1165.45,-260.19 1168,-260 1239.23,-254.72 1322.39,-248.91 1369.75,-245.63"/>
<polygon fill="#9a32cd" stroke="#9a32cd" points="1159.71,-257.11 1150,-261.36 1160.24,-264.09 1159.71,-257.11"/>
<text text-anchor="middle" x="1217.5" y="-274" font-family="Helvetica,sans-Serif" font-size="10.00"> segmentEnd</text>
<text text-anchor="middle" x="1217.5" y="-263" font-family="Helvetica,sans-Serif" font-size="10.00">segmentBegin</text>
</g>
<!-- Node24&#45;&gt;Node23 -->
<g id="edge24" class="edge">
<title>Node24&#45;&gt;Node23</title>
<path fill="none" stroke="darkgreen" d="M716.7,-266.82C795.08,-266.45 970.78,-265.62 1054.89,-265.22"/>
<polygon fill="darkgreen" stroke="darkgreen" points="716.29,-263.32 706.31,-266.86 716.33,-270.32 716.29,-263.32"/>
</g>
<!-- Node25 -->
<g id="node25" class="node">
<title>Node25</title>
<g id="a_node25"><a xlink:href="classdrain_1_1FlexVariableMap.html" target="_top" xlink:title="A map of FlexVariable:s.">
<polygon fill="white" stroke="black" points="1168,-291.5 1168,-310.5 1267,-310.5 1267,-291.5 1168,-291.5"/>
<text text-anchor="middle" x="1217.5" y="-298.5" font-family="Helvetica,sans-Serif" font-size="10.00">FlexVariableMap</text>
</a>
</g>
</g>
<!-- Node25&#45;&gt;Node5 -->
<g id="edge26" class="edge">
<title>Node25&#45;&gt;Node5</title>
<path fill="none" stroke="#9a32cd" stroke-dasharray="5,2" d="M1264.3,-288.77C1290.17,-281.65 1323.03,-272.29 1352,-263 1362.03,-259.79 1372.95,-255.96 1382.47,-252.52"/>
<polygon fill="#9a32cd" stroke="#9a32cd" points="1263.11,-285.46 1254.39,-291.47 1264.96,-292.21 1263.11,-285.46"/>
<text text-anchor="middle" x="1318.5" y="-296" font-family="Helvetica,sans-Serif" font-size="10.00"> propertiesPtr</text>
<text text-anchor="middle" x="1318.5" y="-285" font-family="Helvetica,sans-Serif" font-size="10.00">properties</text>
</g>
<!-- Node26 -->
<g id="node26" class="node">
<title>Node26</title>
<g id="a_node26"><a xlink:href="classdrain_1_1SmartMap.html" target="_top" xlink:title=" ">
<polygon fill="white" stroke="black" points="886,-295.5 886,-314.5 1037,-314.5 1037,-295.5 886,-295.5"/>
<text text-anchor="middle" x="961.5" y="-302.5" font-family="Helvetica,sans-Serif" font-size="10.00">SmartMap&lt; FlexVariable &gt;</text>
</a>
</g>
</g>
<!-- Node26&#45;&gt;Node25 -->
<g id="edge27" class="edge">
<title>Node26&#45;&gt;Node25</title>
<path fill="none" stroke="midnightblue" d="M1047.37,-303.66C1087.43,-303.03 1133.79,-302.3 1167.83,-301.77"/>
<polygon fill="midnightblue" stroke="midnightblue" points="1047.28,-300.16 1037.33,-303.82 1047.39,-307.16 1047.28,-300.16"/>
</g>
<!-- Node27 -->
<g id="node27" class="node">
<title>Node27</title>
<g id="a_node27"><a xlink:title=" ">
<polygon fill="white" stroke="#bfbfbf" points="588,-295.5 588,-314.5 765,-314.5 765,-295.5 588,-295.5"/>
<text text-anchor="middle" x="676.5" y="-302.5" font-family="Helvetica,sans-Serif" font-size="10.00">map&lt; std::string, FlexVariable &gt;</text>
</a>
</g>
</g>
<!-- Node27&#45;&gt;Node26 -->
<g id="edge28" class="edge">
<title>Node27&#45;&gt;Node26</title>
<path fill="none" stroke="midnightblue" d="M775.2,-305C811.41,-305 851.86,-305 885.71,-305"/>
<polygon fill="midnightblue" stroke="midnightblue" points="775.1,-301.5 765.1,-305 775.1,-308.5 775.1,-301.5"/>
</g>
<!-- Node28&#45;&gt;Node1 -->
<g id="edge29" class="edge">
<title>Node28&#45;&gt;Node1</title>
<path fill="none" stroke="#9a32cd" stroke-dasharray="5,2" d="M1879.35,-212.39C1906.52,-206.99 1938.43,-200.64 1964.15,-195.52"/>
<polygon fill="#9a32cd" stroke="#9a32cd" points="1878.32,-209.03 1869.2,-214.41 1879.69,-215.89 1878.32,-209.03"/>
<text text-anchor="middle" x="1923" y="-231" font-family="Helvetica,sans-Serif" font-size="10.00"> data2</text>
<text text-anchor="middle" x="1923" y="-220" font-family="Helvetica,sans-Serif" font-size="10.00">weight</text>
<text text-anchor="middle" x="1923" y="-209" font-family="Helvetica,sans-Serif" font-size="10.00">data</text>
</g>
<!-- Node29&#45;&gt;Node1 -->
<g id="edge31" class="edge">
<title>Node29&#45;&gt;Node1</title>
<path fill="none" stroke="#9a32cd" stroke-dasharray="5,2" d="M991.17,-85.75C1037.45,-106.65 1131.99,-144 1216.5,-144 1216.5,-144 1216.5,-144 1821,-144 1881.09,-144 1949.4,-164.08 1985.83,-176.47"/>
<polygon fill="#9a32cd" stroke="#9a32cd" points="992.6,-82.55 982.05,-81.56 989.67,-88.92 992.6,-82.55"/>
<text text-anchor="middle" x="1532" y="-147" font-family="Helvetica,sans-Serif" font-size="10.00"> coordinateHandler</text>
</g>
<!-- Node30 -->
<g id="node30" class="node">
<title>Node30</title>
<g id="a_node30"><a xlink:href="classdrain_1_1Range.html" target="_top" xlink:title=" ">
<polygon fill="white" stroke="black" points="635,-38.5 635,-57.5 718,-57.5 718,-38.5 635,-38.5"/>
<text text-anchor="middle" x="676.5" y="-45.5" font-family="Helvetica,sans-Serif" font-size="10.00">Range&lt; int &gt;</text>
</a>
</g>
</g>
<!-- Node30&#45;&gt;Node29 -->
<g id="edge32" class="edge">
<title>Node30&#45;&gt;Node29</title>
<path fill="none" stroke="#9a32cd" stroke-dasharray="5,2" d="M728.56,-47.39C767.01,-47.46 820.96,-48.72 868,-54 884.75,-55.88 902.99,-59.16 918.82,-62.41"/>
<polygon fill="#9a32cd" stroke="#9a32cd" points="728.14,-43.89 718.14,-47.4 728.14,-50.89 728.14,-43.89"/>
<text text-anchor="middle" x="825.5" y="-68" font-family="Helvetica,sans-Serif" font-size="10.00"> yRange</text>
<text text-anchor="middle" x="825.5" y="-57" font-family="Helvetica,sans-Serif" font-size="10.00">xRange</text>
</g>
<!-- Node31 -->
<g id="node31" class="node">
<title>Node31</title>
<g id="a_node31"><a xlink:href="classdrain_1_1UniTuple.html" target="_top" xlink:title=" ">
<polygon fill="white" stroke="black" points="391,-1.5 391,-20.5 497,-20.5 497,-1.5 391,-1.5"/>
<text text-anchor="middle" x="444" y="-8.5" font-family="Helvetica,sans-Serif" font-size="10.00">UniTuple&lt; int, 2 &gt;</text>
</a>
</g>
</g>
<!-- Node31&#45;&gt;Node30 -->
<g id="edge33" class="edge">
<title>Node31&#45;&gt;Node30</title>
<path fill="none" stroke="midnightblue" d="M507.06,-20.96C547.6,-27.47 599.39,-35.78 634.77,-41.46"/>
<polygon fill="midnightblue" stroke="midnightblue" points="507.44,-17.48 497.02,-19.35 506.33,-24.39 507.44,-17.48"/>
</g>
<!-- Node32 -->
<g id="node32" class="node">
<title>Node32</title>
<g id="a_node32"><a xlink:href="classdrain_1_1Frame2D.html" target="_top" xlink:title=" ">
<polygon fill="white" stroke="black" points="628.5,-0.5 628.5,-19.5 724.5,-19.5 724.5,-0.5 628.5,-0.5"/>
<text text-anchor="middle" x="676.5" y="-7.5" font-family="Helvetica,sans-Serif" font-size="10.00">Frame2D&lt; int &gt;</text>
</a>
</g>
</g>
<!-- Node31&#45;&gt;Node32 -->
<g id="edge35" class="edge">
<title>Node31&#45;&gt;Node32</title>
<path fill="none" stroke="midnightblue" d="M507.48,-10.73C545.57,-10.56 593.48,-10.36 628.38,-10.2"/>
<polygon fill="midnightblue" stroke="midnightblue" points="507,-7.23 497.02,-10.77 507.03,-14.23 507,-7.23"/>
</g>
<!-- Node32&#45;&gt;Node29 -->
<g id="edge34" class="edge">
<title>Node32&#45;&gt;Node29</title>
<path fill="none" stroke="#9a32cd" stroke-dasharray="5,2" d="M735.15,-13.28C773.33,-16.42 824.25,-22.47 868,-34 894.36,-40.94 923.18,-53.66 941.52,-62.46"/>
<polygon fill="#9a32cd" stroke="#9a32cd" points="734.98,-9.76 724.74,-12.47 734.44,-16.74 734.98,-9.76"/>
<text text-anchor="middle" x="825.5" y="-37" font-family="Helvetica,sans-Serif" font-size="10.00"> area</text>
</g>
</g>
</svg>
        <g id="navigator" transform="translate(0 0)" fill="#404254">
                <rect fill="#f2f5e9" fill-opacity="0.5" stroke="#606060" stroke-width=".5" x="0" y="0" width="60" height="60"/>
                <use id="zoomplus" xlink:href="#zoomPlus" x="17" y="9" onmousedown="handleZoom(evt,'in')"/>
                <use id="zoomminus" xlink:href="#zoomMin" x="42" y="9" onmousedown="handleZoom(evt,'out')"/>
                <use id="reset" xlink:href="#resetDef" x="30" y="36" onmousedown="handleReset()"/>
                <g id="arrowUp" xlink:href="#dirArrow" transform="translate(30 24)" onmousedown="handlePan(0,-1)">
                  <use xlink:href="#rim" fill="#404040">
                        <set attributeName="fill" to="#808080" begin="arrowUp.mouseover" end="arrowUp.mouseout"/>
                  </use>
                  <path fill="none" stroke="white" stroke-width="1.5" d="M0,-3.0v7 M-2.5,-0.5L0,-3.0L2.5,-0.5"/>
                </g>
                <g id="arrowRight" xlink:href="#dirArrow" transform="rotate(90) translate(36 -43)" onmousedown="handlePan(1,0)">
                  <use xlink:href="#rim" fill="#404040">
                        <set attributeName="fill" to="#808080" begin="arrowRight.mouseover" end="arrowRight.mouseout"/>
                  </use>
                  <path fill="none" stroke="white" stroke-width="1.5" d="M0,-3.0v7 M-2.5,-0.5L0,-3.0L2.5,-0.5"/>
                </g>
                <g id="arrowDown" xlink:href="#dirArrow" transform="rotate(180) translate(-30 -48)" onmousedown="handlePan(0,1)">
                  <use xlink:href="#rim" fill="#404040">
                        <set attributeName="fill" to="#808080" begin="arrowDown.mouseover" end="arrowDown.mouseout"/>
                  </use>
                  <path fill="none" stroke="white" stroke-width="1.5" d="M0,-3.0v7 M-2.5,-0.5L0,-3.0L2.5,-0.5"/>
                </g>
                <g id="arrowLeft" xlink:href="#dirArrow" transform="rotate(270) translate(-36 17)" onmousedown="handlePan(-1,0)">
                  <use xlink:href="#rim" fill="#404040">
                        <set attributeName="fill" to="#808080" begin="arrowLeft.mouseover" end="arrowLeft.mouseout"/>
                  </use>
                  <path fill="none" stroke="white" stroke-width="1.5" d="M0,-3.0v7 M-2.5,-0.5L0,-3.0L2.5,-0.5"/>
                </g>
        </g>
        <svg viewBox="0 0 15 15" width="100%" height="30px" preserveAspectRatio="xMaxYMin meet">
         <g id="arrow_out" transform="scale(0.3 0.3)">
          <a xlink:href="classdrain_1_1image_1_1AccumulationArray__coll__graph_org.svg" target="_base">
           <rect id="button" ry="5" rx="5" y="6" x="6" height="38" width="38"
                fill="#f2f5e9" fill-opacity="0.5" stroke="#606060" stroke-width="1.0"/>
           <path id="arrow"
             d="M 11.500037,31.436501 C 11.940474,20.09759 22.043105,11.32322 32.158766,21.979434 L 37.068811,17.246167 C 37.068811,17.246167 37.088388,32 37.088388,32 L 22.160133,31.978069 C 22.160133,31.978069 26.997745,27.140456 26.997745,27.140456 C 18.528582,18.264221 13.291696,25.230495 11.500037,31.436501 z"
             style="fill:#404040;"/>
          </a>
         </g>
        </svg>
</svg>
