<?xml version="1.0" encoding="UTF-8" standalone="no"?>
<!DOCTYPE svg PUBLIC "-//W3C//DTD SVG 1.1//EN"
 "http://www.w3.org/Graphics/SVG/1.1/DTD/svg11.dtd">
<!-- Generated by graphviz version 2.43.0 (0)
 -->
<!-- Title: Fuzzifier&lt; T &gt; Pages: 1 -->
<!--zoomable 256 -->
<svg id="main" version="1.1" xmlns="http://www.w3.org/2000/svg" xmlns:xlink="http://www.w3.org/1999/xlink" xml:space="preserve" onload="init(evt)">
<style type="text/css"><![CDATA[
.edge:hover path { stroke: red; }
.edge:hover polygon { stroke: red; fill: red; }
]]></style>
<script type="text/javascript"><![CDATA[
var edges = document.getElementsByTagName('g');
if (edges && edges.length) {
  for (var i=0;i<edges.length;i++) {
    if (edges[i].id.substr(0,4)=='edge') {
      edges[i].setAttribute('class','edge');
    }
  }
}
]]></script>
        <defs>
                <circle id="rim" cx="0" cy="0" r="7"/>
                <circle id="rim2" cx="0" cy="0" r="3.5"/>
                <g id="zoomPlus">
                        <use xlink:href="#rim" fill="#404040">
                                <set attributeName="fill" to="#808080" begin="zoomplus.mouseover" end="zoomplus.mouseout"/>
                        </use>
                        <path d="M-4,0h8M0,-4v8" fill="none" stroke="white" stroke-width="1.5" pointer-events="none"/>
                </g>
                <g id="zoomMin">
                        <use xlink:href="#rim" fill="#404040">
                                <set attributeName="fill" to="#808080" begin="zoomminus.mouseover" end="zoomminus.mouseout"/>
                        </use>
                        <path d="M-4,0h8" fill="none" stroke="white" stroke-width="1.5" pointer-events="none"/>
                </g>
                <g id="dirArrow">
                        <path fill="none" stroke="white" stroke-width="1.5" d="M0,-3.0v7 M-2.5,-0.5L0,-3.0L2.5,-0.5"/>
                </g>
               <g id="resetDef">
                       <use xlink:href="#rim2" fill="#404040">
                               <set attributeName="fill" to="#808080" begin="reset.mouseover" end="reset.mouseout"/>
                       </use>
               </g>
        </defs>

<script type="text/javascript">
var viewWidth = 558;
var viewHeight = 256;
var sectionId = 'dynsection-0';
</script>
<script xlink:href="svgpan.js"/>
<svg id="graph" class="graph">
<g id="viewport">
<title>Fuzzifier&lt; T &gt;</title>
<polygon fill="white" stroke="transparent" points="-4,4 -4,-252 554,-252 554,4 -4,4"/>
<!-- Node1 -->
<g id="node1" class="node">
<title>Node1</title>
<g id="a_node1"><a xlink:title="A base class for fuzzy functions; also an unary functor.">
<polygon fill="#bfbfbf" stroke="black" points="304,-114.5 304,-133.5 390,-133.5 390,-114.5 304,-114.5"/>
<text text-anchor="middle" x="347" y="-121.5" font-family="Helvetica,sans-Serif" font-size="10.00">Fuzzifier&lt; T &gt;</text>
</a>
</g>
</g>
<!-- Node5 -->
<g id="node5" class="node">
<title>Node5</title>
<g id="a_node5"><a xlink:href="classdrain_1_1FuzzyBell.html" target="_top" xlink:title="A smooth symmetric peak function that resembles the Gaussian bell curve.">
<polygon fill="white" stroke="black" points="442,-228.5 442,-247.5 534,-247.5 534,-228.5 442,-228.5"/>
<text text-anchor="middle" x="488" y="-235.5" font-family="Helvetica,sans-Serif" font-size="10.00">FuzzyBell&lt; T &gt;</text>
</a>
</g>
</g>
<!-- Node1&#45;&gt;Node5 -->
<g id="edge4" class="edge">
<title>Node1&#45;&gt;Node5</title>
<path fill="none" stroke="midnightblue" d="M358.51,-142.44C371.65,-163.86 396.07,-198.84 426,-219 431.7,-222.84 438.22,-225.94 444.83,-228.42"/>
<polygon fill="midnightblue" stroke="midnightblue" points="361.41,-140.46 353.3,-133.65 355.39,-144.04 361.41,-140.46"/>
</g>
<!-- Node6 -->
<g id="node6" class="node">
<title>Node6</title>
<g id="a_node6"><a xlink:href="classdrain_1_1FuzzyBell2.html" target="_top" xlink:title="A smooth symmetric peak function that resembles the Gaussian bell curve. Diminishes quicker than Fuzz...">
<polygon fill="white" stroke="black" points="439,-190.5 439,-209.5 537,-209.5 537,-190.5 439,-190.5"/>
<text text-anchor="middle" x="488" y="-197.5" font-family="Helvetica,sans-Serif" font-size="10.00">FuzzyBell2&lt; T &gt;</text>
</a>
</g>
</g>
<!-- Node1&#45;&gt;Node6 -->
<g id="edge5" class="edge">
<title>Node1&#45;&gt;Node6</title>
<path fill="none" stroke="midnightblue" d="M366.62,-140.35C381.75,-152.93 404.09,-169.96 426,-181 433.33,-184.69 441.52,-187.84 449.46,-190.44"/>
<polygon fill="midnightblue" stroke="midnightblue" points="368.5,-137.35 358.61,-133.54 363.96,-142.69 368.5,-137.35"/>
</g>
<!-- Node7 -->
<g id="node7" class="node">
<title>Node7</title>
<g id="a_node7"><a xlink:href="classdrain_1_1FuzzySigmoid.html" target="_top" xlink:title="A smooth step function, by default from &#45;1.0 to +1.0.">
<polygon fill="white" stroke="black" points="431.5,-152.5 431.5,-171.5 544.5,-171.5 544.5,-152.5 431.5,-152.5"/>
<text text-anchor="middle" x="488" y="-159.5" font-family="Helvetica,sans-Serif" font-size="10.00">FuzzySigmoid&lt; T &gt;</text>
</a>
</g>
</g>
<!-- Node1&#45;&gt;Node7 -->
<g id="edge6" class="edge">
<title>Node1&#45;&gt;Node7</title>
<path fill="none" stroke="midnightblue" d="M392.8,-136.25C411.95,-141.48 433.99,-147.51 451.94,-152.41"/>
<polygon fill="midnightblue" stroke="midnightblue" points="393.64,-132.85 383.08,-133.59 391.8,-139.6 393.64,-132.85"/>
</g>
<!-- Node8 -->
<g id="node8" class="node">
<title>Node8</title>
<g id="a_node8"><a xlink:href="classdrain_1_1FuzzyStep.html" target="_top" xlink:title="A basic, linear transition from 0 to scale between (start) and (end) .">
<polygon fill="white" stroke="black" points="440.5,-114.5 440.5,-133.5 535.5,-133.5 535.5,-114.5 440.5,-114.5"/>
<text text-anchor="middle" x="488" y="-121.5" font-family="Helvetica,sans-Serif" font-size="10.00">FuzzyStep&lt; T &gt;</text>
</a>
</g>
</g>
<!-- Node1&#45;&gt;Node8 -->
<g id="edge7" class="edge">
<title>Node1&#45;&gt;Node8</title>
<path fill="none" stroke="midnightblue" d="M400.36,-124C413.45,-124 427.4,-124 440.21,-124"/>
<polygon fill="midnightblue" stroke="midnightblue" points="400.08,-120.5 390.08,-124 400.08,-127.5 400.08,-120.5"/>
</g>
<!-- Node9 -->
<g id="node9" class="node">
<title>Node9</title>
<g id="a_node9"><a xlink:href="classdrain_1_1FuzzyStepsoid.html" target="_top" xlink:title="A smooth step function between 0.0 and 1.0. Increasing (decreasing) with positive (negative) width....">
<polygon fill="white" stroke="black" points="430.5,-76.5 430.5,-95.5 545.5,-95.5 545.5,-76.5 430.5,-76.5"/>
<text text-anchor="middle" x="488" y="-83.5" font-family="Helvetica,sans-Serif" font-size="10.00">FuzzyStepsoid&lt; T &gt;</text>
</a>
</g>
</g>
<!-- Node1&#45;&gt;Node9 -->
<g id="edge8" class="edge">
<title>Node1&#45;&gt;Node9</title>
<path fill="none" stroke="midnightblue" d="M392.8,-111.75C411.95,-106.52 433.99,-100.49 451.94,-95.59"/>
<polygon fill="midnightblue" stroke="midnightblue" points="391.8,-108.4 383.08,-114.41 393.64,-115.15 391.8,-108.4"/>
</g>
<!-- Node10 -->
<g id="node10" class="node">
<title>Node10</title>
<g id="a_node10"><a xlink:href="classdrain_1_1FuzzyTriangle.html" target="_top" xlink:title="A basic triangular peak function with linear around the peak.">
<polygon fill="white" stroke="black" points="432,-38.5 432,-57.5 544,-57.5 544,-38.5 432,-38.5"/>
<text text-anchor="middle" x="488" y="-45.5" font-family="Helvetica,sans-Serif" font-size="10.00">FuzzyTriangle&lt; T &gt;</text>
</a>
</g>
</g>
<!-- Node1&#45;&gt;Node10 -->
<g id="edge9" class="edge">
<title>Node1&#45;&gt;Node10</title>
<path fill="none" stroke="midnightblue" d="M366.62,-107.65C381.75,-95.07 404.09,-78.04 426,-67 433.33,-63.31 441.52,-60.16 449.46,-57.56"/>
<polygon fill="midnightblue" stroke="midnightblue" points="363.96,-105.31 358.61,-114.46 368.5,-110.65 363.96,-105.31"/>
</g>
<!-- Node11 -->
<g id="node11" class="node">
<title>Node11</title>
<g id="a_node11"><a xlink:href="classdrain_1_1FuzzyTwinPeaks.html" target="_top" xlink:title="A function taking shape of two peaks, with a zero in the middle .">
<polygon fill="white" stroke="black" points="426,-0.5 426,-19.5 550,-19.5 550,-0.5 426,-0.5"/>
<text text-anchor="middle" x="488" y="-7.5" font-family="Helvetica,sans-Serif" font-size="10.00">FuzzyTwinPeaks&lt; T &gt;</text>
</a>
</g>
</g>
<!-- Node1&#45;&gt;Node11 -->
<g id="edge10" class="edge">
<title>Node1&#45;&gt;Node11</title>
<path fill="none" stroke="midnightblue" d="M358.51,-105.56C371.65,-84.14 396.07,-49.16 426,-29 431.7,-25.16 438.22,-22.06 444.83,-19.58"/>
<polygon fill="midnightblue" stroke="midnightblue" points="355.39,-103.96 353.3,-114.35 361.41,-107.54 355.39,-103.96"/>
</g>
<!-- Node2 -->
<g id="node2" class="node">
<title>Node2</title>
<g id="a_node2"><a xlink:href="structdrain_1_1UnaryFunctor.html" target="_top" xlink:title=" ">
<polygon fill="white" stroke="black" points="186,-114.5 186,-133.5 268,-133.5 268,-114.5 186,-114.5"/>
<text text-anchor="middle" x="227" y="-121.5" font-family="Helvetica,sans-Serif" font-size="10.00">UnaryFunctor</text>
</a>
</g>
</g>
<!-- Node2&#45;&gt;Node1 -->
<g id="edge1" class="edge">
<title>Node2&#45;&gt;Node1</title>
<path fill="none" stroke="midnightblue" d="M278.45,-124C286.93,-124 295.65,-124 303.89,-124"/>
<polygon fill="midnightblue" stroke="midnightblue" points="278.28,-120.5 268.28,-124 278.28,-127.5 278.28,-120.5"/>
</g>
<!-- Node3 -->
<g id="node3" class="node">
<title>Node3</title>
<g id="a_node3"><a xlink:href="classdrain_1_1Functor.html" target="_top" xlink:title="Base class for sequential computations. Optional scaling utilities.">
<polygon fill="white" stroke="black" points="97,-114.5 97,-133.5 150,-133.5 150,-114.5 97,-114.5"/>
<text text-anchor="middle" x="123.5" y="-121.5" font-family="Helvetica,sans-Serif" font-size="10.00">Functor</text>
</a>
</g>
</g>
<!-- Node3&#45;&gt;Node2 -->
<g id="edge2" class="edge">
<title>Node3&#45;&gt;Node2</title>
<path fill="none" stroke="midnightblue" d="M160.2,-124C168.47,-124 177.33,-124 185.78,-124"/>
<polygon fill="midnightblue" stroke="midnightblue" points="160.11,-120.5 150.11,-124 160.11,-127.5 160.11,-120.5"/>
</g>
<!-- Node4 -->
<g id="node4" class="node">
<title>Node4</title>
<g id="a_node4"><a xlink:href="classdrain_1_1BeanLike.html" target="_top" xlink:title="Something which has a name, a description and possibly some parameters of varying type.">
<polygon fill="white" stroke="black" points="0,-114.5 0,-133.5 61,-133.5 61,-114.5 0,-114.5"/>
<text text-anchor="middle" x="30.5" y="-121.5" font-family="Helvetica,sans-Serif" font-size="10.00">BeanLike</text>
</a>
</g>
</g>
<!-- Node4&#45;&gt;Node3 -->
<g id="edge3" class="edge">
<title>Node4&#45;&gt;Node3</title>
<path fill="none" stroke="midnightblue" d="M71.06,-124C79.77,-124 88.78,-124 96.78,-124"/>
<polygon fill="midnightblue" stroke="midnightblue" points="71.05,-120.5 61.05,-124 71.05,-127.5 71.05,-120.5"/>
</g>
</g>
</svg>
        <g id="navigator" transform="translate(0 0)" fill="#404254">
                <rect fill="#f2f5e9" fill-opacity="0.5" stroke="#606060" stroke-width=".5" x="0" y="0" width="60" height="60"/>
                <use id="zoomplus" xlink:href="#zoomPlus" x="17" y="9" onmousedown="handleZoom(evt,'in')"/>
                <use id="zoomminus" xlink:href="#zoomMin" x="42" y="9" onmousedown="handleZoom(evt,'out')"/>
                <use id="reset" xlink:href="#resetDef" x="30" y="36" onmousedown="handleReset()"/>
                <g id="arrowUp" xlink:href="#dirArrow" transform="translate(30 24)" onmousedown="handlePan(0,-1)">
                  <use xlink:href="#rim" fill="#404040">
                        <set attributeName="fill" to="#808080" begin="arrowUp.mouseover" end="arrowUp.mouseout"/>
                  </use>
                  <path fill="none" stroke="white" stroke-width="1.5" d="M0,-3.0v7 M-2.5,-0.5L0,-3.0L2.5,-0.5"/>
                </g>
                <g id="arrowRight" xlink:href="#dirArrow" transform="rotate(90) translate(36 -43)" onmousedown="handlePan(1,0)">
                  <use xlink:href="#rim" fill="#404040">
                        <set attributeName="fill" to="#808080" begin="arrowRight.mouseover" end="arrowRight.mouseout"/>
                  </use>
                  <path fill="none" stroke="white" stroke-width="1.5" d="M0,-3.0v7 M-2.5,-0.5L0,-3.0L2.5,-0.5"/>
                </g>
                <g id="arrowDown" xlink:href="#dirArrow" transform="rotate(180) translate(-30 -48)" onmousedown="handlePan(0,1)">
                  <use xlink:href="#rim" fill="#404040">
                        <set attributeName="fill" to="#808080" begin="arrowDown.mouseover" end="arrowDown.mouseout"/>
                  </use>
                  <path fill="none" stroke="white" stroke-width="1.5" d="M0,-3.0v7 M-2.5,-0.5L0,-3.0L2.5,-0.5"/>
                </g>
                <g id="arrowLeft" xlink:href="#dirArrow" transform="rotate(270) translate(-36 17)" onmousedown="handlePan(-1,0)">
                  <use xlink:href="#rim" fill="#404040">
                        <set attributeName="fill" to="#808080" begin="arrowLeft.mouseover" end="arrowLeft.mouseout"/>
                  </use>
                  <path fill="none" stroke="white" stroke-width="1.5" d="M0,-3.0v7 M-2.5,-0.5L0,-3.0L2.5,-0.5"/>
                </g>
        </g>
        <svg viewBox="0 0 15 15" width="100%" height="30px" preserveAspectRatio="xMaxYMin meet">
         <g id="arrow_out" transform="scale(0.3 0.3)">
          <a xlink:href="classdrain_1_1Fuzzifier__inherit__graph_org.svg" target="_base">
           <rect id="button" ry="5" rx="5" y="6" x="6" height="38" width="38"
                fill="#f2f5e9" fill-opacity="0.5" stroke="#606060" stroke-width="1.0"/>
           <path id="arrow"
             d="M 11.500037,31.436501 C 11.940474,20.09759 22.043105,11.32322 32.158766,21.979434 L 37.068811,17.246167 C 37.068811,17.246167 37.088388,32 37.088388,32 L 22.160133,31.978069 C 22.160133,31.978069 26.997745,27.140456 26.997745,27.140456 C 18.528582,18.264221 13.291696,25.230495 11.500037,31.436501 z"
             style="fill:#404040;"/>
          </a>
         </g>
        </svg>
</svg>
