<?xml version="1.0" encoding="UTF-8" standalone="no"?>
<!DOCTYPE svg PUBLIC "-//W3C//DTD SVG 1.1//EN"
 "http://www.w3.org/Graphics/SVG/1.1/DTD/svg11.dtd">
<!-- Generated by graphviz version 2.43.0 (0)
 -->
<!-- Title: SlidingStripe&lt; C, R, DIR &gt; Pages: 1 -->
<svg width="181pt" height="285pt"
 viewBox="0.00 0.00 181.00 285.00" xmlns="http://www.w3.org/2000/svg" xmlns:xlink="http://www.w3.org/1999/xlink">
<g id="graph0" class="graph" transform="scale(1 1) rotate(0) translate(4 281)">
<title>SlidingStripe&lt; C, R, DIR &gt;</title>
<polygon fill="white" stroke="transparent" points="-4,4 -4,-281 177,-281 177,4 -4,4"/>
<!-- Node1 -->
<g id="node1" class="node">
<title>Node1</title>
<g id="a_node1"><a xlink:title="A horizontal, one&#45;dimensional SlidingWindow (Nx1).">
<polygon fill="#bfbfbf" stroke="black" points="30.5,-0.5 30.5,-30.5 142.5,-30.5 142.5,-0.5 30.5,-0.5"/>
<text text-anchor="start" x="38.5" y="-18.5" font-family="Helvetica,sans-Serif" font-size="10.00">SlidingStripe&lt; C, R,</text>
<text text-anchor="middle" x="86.5" y="-7.5" font-family="Helvetica,sans-Serif" font-size="10.00"> DIR &gt;</text>
</a>
</g>
</g>
<!-- Node2 -->
<g id="node2" class="node">
<title>Node2</title>
<g id="a_node2"><a xlink:href="classdrain_1_1image_1_1SlidingWindow.html" target="_top" xlink:title=" ">
<polygon fill="white" stroke="black" points="0,-67.5 0,-97.5 173,-97.5 173,-67.5 0,-67.5"/>
<text text-anchor="start" x="8" y="-85.5" font-family="Helvetica,sans-Serif" font-size="10.00">SlidingWindow&lt; WindowConfig,</text>
<text text-anchor="middle" x="86.5" y="-74.5" font-family="Helvetica,sans-Serif" font-size="10.00"> WindowCore &gt;</text>
</a>
</g>
</g>
<!-- Node2&#45;&gt;Node1 -->
<g id="edge1" class="edge">
<title>Node2&#45;&gt;Node1</title>
<path fill="none" stroke="midnightblue" d="M86.5,-57.11C86.5,-48.15 86.5,-38.32 86.5,-30.58"/>
<polygon fill="midnightblue" stroke="midnightblue" points="83,-57.4 86.5,-67.4 90,-57.4 83,-57.4"/>
</g>
<!-- Node3 -->
<g id="node3" class="node">
<title>Node3</title>
<g id="a_node3"><a xlink:href="classdrain_1_1image_1_1Window.html" target="_top" xlink:title=" ">
<polygon fill="white" stroke="black" points="16.5,-134.5 16.5,-164.5 156.5,-164.5 156.5,-134.5 16.5,-134.5"/>
<text text-anchor="start" x="24.5" y="-152.5" font-family="Helvetica,sans-Serif" font-size="10.00">Window&lt; WindowConfig,</text>
<text text-anchor="middle" x="86.5" y="-141.5" font-family="Helvetica,sans-Serif" font-size="10.00"> WindowCore &gt;</text>
</a>
</g>
</g>
<!-- Node3&#45;&gt;Node2 -->
<g id="edge2" class="edge">
<title>Node3&#45;&gt;Node2</title>
<path fill="none" stroke="midnightblue" d="M86.5,-124.11C86.5,-115.15 86.5,-105.32 86.5,-97.58"/>
<polygon fill="midnightblue" stroke="midnightblue" points="83,-124.4 86.5,-134.4 90,-124.4 83,-124.4"/>
</g>
<!-- Node4 -->
<g id="node4" class="node">
<title>Node4</title>
<g id="a_node4"><a xlink:href="classdrain_1_1image_1_1WindowCore.html" target="_top" xlink:title="Container for source data (input) and destination data (output). May also contain metadata of them.">
<polygon fill="white" stroke="black" points="47.5,-201.5 47.5,-220.5 125.5,-220.5 125.5,-201.5 47.5,-201.5"/>
<text text-anchor="middle" x="86.5" y="-208.5" font-family="Helvetica,sans-Serif" font-size="10.00">WindowCore</text>
</a>
</g>
</g>
<!-- Node4&#45;&gt;Node3 -->
<g id="edge3" class="edge">
<title>Node4&#45;&gt;Node3</title>
<path fill="none" stroke="midnightblue" d="M86.5,-191.23C86.5,-182.59 86.5,-172.5 86.5,-164.52"/>
<polygon fill="midnightblue" stroke="midnightblue" points="83,-191.48 86.5,-201.48 90,-191.48 83,-191.48"/>
</g>
<!-- Node5 -->
<g id="node5" class="node">
<title>Node5</title>
<g id="a_node5"><a xlink:href="classdrain_1_1image_1_1WindowCoreBase.html" target="_top" xlink:title="Provides splitting frames.">
<polygon fill="white" stroke="black" points="35.5,-257.5 35.5,-276.5 137.5,-276.5 137.5,-257.5 35.5,-257.5"/>
<text text-anchor="middle" x="86.5" y="-264.5" font-family="Helvetica,sans-Serif" font-size="10.00">WindowCoreBase</text>
</a>
</g>
</g>
<!-- Node5&#45;&gt;Node4 -->
<g id="edge4" class="edge">
<title>Node5&#45;&gt;Node4</title>
<path fill="none" stroke="midnightblue" d="M86.5,-246.8C86.5,-237.91 86.5,-227.78 86.5,-220.75"/>
<polygon fill="midnightblue" stroke="midnightblue" points="83,-247.08 86.5,-257.08 90,-247.08 83,-247.08"/>
</g>
</g>
</svg>
