<?xml version="1.0" encoding="UTF-8" standalone="no"?>
<!DOCTYPE svg PUBLIC "-//W3C//DTD SVG 1.1//EN"
 "http://www.w3.org/Graphics/SVG/1.1/DTD/svg11.dtd">
<!-- Generated by graphviz version 2.43.0 (0)
 -->
<!-- Title: BirdOp Pages: 1 -->
<!--zoomable 176 -->
<svg id="main" version="1.1" xmlns="http://www.w3.org/2000/svg" xmlns:xlink="http://www.w3.org/1999/xlink" xml:space="preserve" onload="init(evt)">
<style type="text/css"><![CDATA[
.edge:hover path { stroke: red; }
.edge:hover polygon { stroke: red; fill: red; }
]]></style>
<script type="text/javascript"><![CDATA[
var edges = document.getElementsByTagName('g');
if (edges && edges.length) {
  for (var i=0;i<edges.length;i++) {
    if (edges[i].id.substr(0,4)=='edge') {
      edges[i].setAttribute('class','edge');
    }
  }
}
]]></script>
        <defs>
                <circle id="rim" cx="0" cy="0" r="7"/>
                <circle id="rim2" cx="0" cy="0" r="3.5"/>
                <g id="zoomPlus">
                        <use xlink:href="#rim" fill="#404040">
                                <set attributeName="fill" to="#808080" begin="zoomplus.mouseover" end="zoomplus.mouseout"/>
                        </use>
                        <path d="M-4,0h8M0,-4v8" fill="none" stroke="white" stroke-width="1.5" pointer-events="none"/>
                </g>
                <g id="zoomMin">
                        <use xlink:href="#rim" fill="#404040">
                                <set attributeName="fill" to="#808080" begin="zoomminus.mouseover" end="zoomminus.mouseout"/>
                        </use>
                        <path d="M-4,0h8" fill="none" stroke="white" stroke-width="1.5" pointer-events="none"/>
                </g>
                <g id="dirArrow">
                        <path fill="none" stroke="white" stroke-width="1.5" d="M0,-3.0v7 M-2.5,-0.5L0,-3.0L2.5,-0.5"/>
                </g>
               <g id="resetDef">
                       <use xlink:href="#rim2" fill="#404040">
                               <set attributeName="fill" to="#808080" begin="reset.mouseover" end="reset.mouseout"/>
                       </use>
               </g>
        </defs>

<script type="text/javascript">
var viewWidth = 1629;
var viewHeight = 176;
var sectionId = 'dynsection-1';
</script>
<script xlink:href="svgpan.js"/>
<svg id="graph" class="graph">
<g id="viewport">
<title>BirdOp</title>
<polygon fill="white" stroke="transparent" points="-4,4 -4,-171.5 1625,-171.5 1625,4 -4,4"/>
<!-- Node1 -->
<g id="node1" class="node">
<title>Node1</title>
<g id="a_node1"><a xlink:title=" ">
<polygon fill="#bfbfbf" stroke="black" points="1571,-58.5 1571,-77.5 1621,-77.5 1621,-58.5 1571,-58.5"/>
<text text-anchor="middle" x="1596" y="-65.5" font-family="Helvetica,sans-Serif" font-size="10.00">BirdOp</text>
</a>
</g>
</g>
<!-- Node2 -->
<g id="node2" class="node">
<title>Node2</title>
<g id="a_node2"><a xlink:href="classrack_1_1BiometeorOp.html" target="_top" xlink:title=" ">
<polygon fill="white" stroke="black" points="1453,-58.5 1453,-77.5 1534,-77.5 1534,-58.5 1453,-58.5"/>
<text text-anchor="middle" x="1493.5" y="-65.5" font-family="Helvetica,sans-Serif" font-size="10.00">BiometeorOp</text>
</a>
</g>
</g>
<!-- Node2&#45;&gt;Node1 -->
<g id="edge1" class="edge">
<title>Node2&#45;&gt;Node1</title>
<path fill="none" stroke="midnightblue" d="M1544.23,-68C1553.52,-68 1562.83,-68 1570.9,-68"/>
<polygon fill="midnightblue" stroke="midnightblue" points="1544.22,-64.5 1534.22,-68 1544.22,-71.5 1544.22,-64.5"/>
</g>
<!-- Node3 -->
<g id="node3" class="node">
<title>Node3</title>
<g id="a_node3"><a xlink:href="classrack_1_1DetectorOp.html" target="_top" xlink:title="Base class for anomaly detectors.">
<polygon fill="white" stroke="black" points="1256.5,-97.5 1256.5,-116.5 1328.5,-116.5 1328.5,-97.5 1256.5,-97.5"/>
<text text-anchor="middle" x="1292.5" y="-104.5" font-family="Helvetica,sans-Serif" font-size="10.00">DetectorOp</text>
</a>
</g>
</g>
<!-- Node3&#45;&gt;Node2 -->
<g id="edge2" class="edge">
<title>Node3&#45;&gt;Node2</title>
<path fill="none" stroke="midnightblue" d="M1338.79,-100.35C1366.65,-96 1403.03,-89.87 1435,-83 1442.46,-81.4 1450.42,-79.47 1457.95,-77.53"/>
<polygon fill="midnightblue" stroke="midnightblue" points="1337.9,-96.94 1328.55,-101.92 1338.97,-103.86 1337.9,-96.94"/>
</g>
<!-- Node4 -->
<g id="node4" class="node">
<title>Node4</title>
<g id="a_node4"><a xlink:href="classrack_1_1AndreOp.html" target="_top" xlink:title="The base class for removal operators.">
<polygon fill="white" stroke="black" points="1018.5,-114.5 1018.5,-133.5 1077.5,-133.5 1077.5,-114.5 1018.5,-114.5"/>
<text text-anchor="middle" x="1048" y="-121.5" font-family="Helvetica,sans-Serif" font-size="10.00">AndreOp</text>
</a>
</g>
</g>
<!-- Node4&#45;&gt;Node3 -->
<g id="edge3" class="edge">
<title>Node4&#45;&gt;Node3</title>
<path fill="none" stroke="midnightblue" d="M1087.75,-121.28C1134.15,-118.03 1211.23,-112.63 1256.1,-109.48"/>
<polygon fill="midnightblue" stroke="midnightblue" points="1087.5,-117.79 1077.77,-121.98 1087.99,-124.78 1087.5,-117.79"/>
</g>
<!-- Node5 -->
<g id="node5" class="node">
<title>Node5</title>
<g id="a_node5"><a xlink:href="classrack_1_1VolumeTraversalOp.html" target="_top" xlink:title="Base class for radar data processors.">
<polygon fill="white" stroke="black" points="826.5,-114.5 826.5,-133.5 939.5,-133.5 939.5,-114.5 826.5,-114.5"/>
<text text-anchor="middle" x="883" y="-121.5" font-family="Helvetica,sans-Serif" font-size="10.00">VolumeTraversalOp</text>
</a>
</g>
</g>
<!-- Node5&#45;&gt;Node4 -->
<g id="edge4" class="edge">
<title>Node5&#45;&gt;Node4</title>
<path fill="none" stroke="midnightblue" d="M949.69,-124C973.48,-124 999.14,-124 1018.13,-124"/>
<polygon fill="midnightblue" stroke="midnightblue" points="949.64,-120.5 939.64,-124 949.64,-127.5 949.64,-120.5"/>
</g>
<!-- Node6 -->
<g id="node6" class="node">
<title>Node6</title>
<g id="a_node6"><a xlink:href="classrack_1_1PolarProductOp.html" target="_top" xlink:title="Base class for flat (2D) products computed in the polar coordinate system. Volume is used as input.">
<polygon fill="white" stroke="black" points="657,-114.5 657,-133.5 749,-133.5 749,-114.5 657,-114.5"/>
<text text-anchor="middle" x="703" y="-121.5" font-family="Helvetica,sans-Serif" font-size="10.00">PolarProductOp</text>
</a>
</g>
</g>
<!-- Node6&#45;&gt;Node5 -->
<g id="edge5" class="edge">
<title>Node6&#45;&gt;Node5</title>
<path fill="none" stroke="midnightblue" d="M759.53,-124C780.76,-124 804.95,-124 826.2,-124"/>
<polygon fill="midnightblue" stroke="midnightblue" points="759.38,-120.5 749.38,-124 759.38,-127.5 759.38,-120.5"/>
</g>
<!-- Node7 -->
<g id="node7" class="node">
<title>Node7</title>
<g id="a_node7"><a xlink:href="classrack_1_1VolumeOp.html" target="_top" xlink:title=" ">
<polygon fill="white" stroke="black" points="361,-136.5 361,-155.5 503,-155.5 503,-136.5 361,-136.5"/>
<text text-anchor="middle" x="432" y="-143.5" font-family="Helvetica,sans-Serif" font-size="10.00">VolumeOp&lt; PolarODIM &gt;</text>
</a>
</g>
</g>
<!-- Node7&#45;&gt;Node6 -->
<g id="edge6" class="edge">
<title>Node7&#45;&gt;Node6</title>
<path fill="none" stroke="midnightblue" d="M513.48,-139.42C560.43,-135.58 617.91,-130.88 656.97,-127.68"/>
<polygon fill="midnightblue" stroke="midnightblue" points="513.01,-135.94 503.33,-140.25 513.58,-142.92 513.01,-135.94"/>
</g>
<!-- Node8 -->
<g id="node8" class="node">
<title>Node8</title>
<g id="a_node8"><a xlink:href="classdrain_1_1image_1_1ProductOp.html" target="_top" xlink:title=" ">
<polygon fill="white" stroke="black" points="141,-137 141,-167 303,-167 303,-137 141,-137"/>
<text text-anchor="start" x="149" y="-155" font-family="Helvetica,sans-Serif" font-size="10.00">ProductOp&lt; const PolarODIM,</text>
<text text-anchor="middle" x="222" y="-144" font-family="Helvetica,sans-Serif" font-size="10.00"> PolarODIM &gt;</text>
</a>
</g>
</g>
<!-- Node8&#45;&gt;Node7 -->
<g id="edge7" class="edge">
<title>Node8&#45;&gt;Node7</title>
<path fill="none" stroke="midnightblue" d="M313.45,-149.39C329.3,-148.93 345.57,-148.46 360.76,-148.03"/>
<polygon fill="midnightblue" stroke="midnightblue" points="313.02,-145.9 303.12,-149.69 313.22,-152.9 313.02,-145.9"/>
</g>
<!-- Node9 -->
<g id="node9" class="node">
<title>Node9</title>
<g id="a_node9"><a xlink:href="classdrain_1_1image_1_1CoordinatePolicy.html" target="_top" xlink:title="Policies for coordinate underflows and overflows.">
<polygon fill="white" stroke="black" points="382.5,-93.5 382.5,-112.5 481.5,-112.5 481.5,-93.5 382.5,-93.5"/>
<text text-anchor="middle" x="432" y="-100.5" font-family="Helvetica,sans-Serif" font-size="10.00">CoordinatePolicy</text>
</a>
</g>
</g>
<!-- Node9&#45;&gt;Node6 -->
<g id="edge8" class="edge">
<title>Node9&#45;&gt;Node6</title>
<path fill="none" stroke="#9a32cd" stroke-dasharray="5,2" d="M491.96,-105.54C525.68,-107.2 568.75,-109.69 607,-113 623.21,-114.4 640.93,-116.34 656.63,-118.21"/>
<polygon fill="#9a32cd" stroke="#9a32cd" points="491.96,-102.04 481.81,-105.05 491.62,-109.03 491.96,-102.04"/>
<text text-anchor="middle" x="564" y="-116" font-family="Helvetica,sans-Serif" font-size="10.00"> polarCoordPolicy</text>
</g>
<!-- Node10 -->
<g id="node10" class="node">
<title>Node10</title>
<g id="a_node10"><a xlink:href="classdrain_1_1UniTuple.html" target="_top" xlink:title=" ">
<polygon fill="white" stroke="black" points="163.5,-88 163.5,-118 280.5,-118 280.5,-88 163.5,-88"/>
<text text-anchor="start" x="171.5" y="-106" font-family="Helvetica,sans-Serif" font-size="10.00">UniTuple&lt; coord_pol</text>
<text text-anchor="middle" x="222" y="-95" font-family="Helvetica,sans-Serif" font-size="10.00">_t, 4 &gt;</text>
</a>
</g>
</g>
<!-- Node10&#45;&gt;Node9 -->
<g id="edge9" class="edge">
<title>Node10&#45;&gt;Node9</title>
<path fill="none" stroke="midnightblue" d="M291.01,-103C320.84,-103 355.18,-103 382.38,-103"/>
<polygon fill="midnightblue" stroke="midnightblue" points="290.66,-99.5 280.66,-103 290.66,-106.5 290.66,-99.5"/>
</g>
<!-- Node11 -->
<g id="node11" class="node">
<title>Node11</title>
<g id="a_node11"><a xlink:href="classdrain_1_1Dictionary2.html" target="_top" xlink:title="Two&#45;way mapping between strings and objects of template class T.">
<polygon fill="white" stroke="black" points="164.5,-49.5 164.5,-68.5 279.5,-68.5 279.5,-49.5 164.5,-49.5"/>
<text text-anchor="middle" x="222" y="-56.5" font-family="Helvetica,sans-Serif" font-size="10.00">Dictionary2&lt; K, V &gt;</text>
</a>
</g>
</g>
<!-- Node11&#45;&gt;Node9 -->
<g id="edge10" class="edge">
<title>Node11&#45;&gt;Node9</title>
<path fill="none" stroke="#9a32cd" stroke-dasharray="5,2" d="M278.27,-70.69C311.92,-77.81 354.36,-86.79 385.96,-93.47"/>
<polygon fill="#9a32cd" stroke="#9a32cd" points="278.64,-67.19 268.13,-68.55 277.19,-74.04 278.64,-67.19"/>
<text text-anchor="middle" x="332" y="-86" font-family="Helvetica,sans-Serif" font-size="10.00"> dict</text>
</g>
<!-- Node12 -->
<g id="node12" class="node">
<title>Node12</title>
<g id="a_node12"><a xlink:title=" ">
<polygon fill="white" stroke="#bfbfbf" points="0,-44 0,-74 104,-74 104,-44 0,-44"/>
<text text-anchor="start" x="8" y="-62" font-family="Helvetica,sans-Serif" font-size="10.00">list&lt; std::pair&lt; K,</text>
<text text-anchor="middle" x="52" y="-51" font-family="Helvetica,sans-Serif" font-size="10.00"> V &gt; &gt;</text>
</a>
</g>
</g>
<!-- Node12&#45;&gt;Node11 -->
<g id="edge11" class="edge">
<title>Node12&#45;&gt;Node11</title>
<path fill="none" stroke="midnightblue" d="M114.33,-59C130.71,-59 148.33,-59 164.43,-59"/>
<polygon fill="midnightblue" stroke="midnightblue" points="114.32,-55.5 104.32,-59 114.32,-62.5 114.32,-55.5"/>
</g>
<!-- Node13 -->
<g id="node13" class="node">
<title>Node13</title>
<g id="a_node13"><a xlink:href="classdrain_1_1image_1_1WindowConfig.html" target="_top" xlink:title="Base class for configurations applied in image processing windows, e.g. for operators of type WindowO...">
<polygon fill="white" stroke="black" points="1249,-58.5 1249,-77.5 1336,-77.5 1336,-58.5 1249,-58.5"/>
<text text-anchor="middle" x="1292.5" y="-65.5" font-family="Helvetica,sans-Serif" font-size="10.00">WindowConfig</text>
</a>
</g>
</g>
<!-- Node13&#45;&gt;Node2 -->
<g id="edge12" class="edge">
<title>Node13&#45;&gt;Node2</title>
<path fill="none" stroke="#9a32cd" stroke-dasharray="5,2" d="M1346.26,-68C1379.74,-68 1422.35,-68 1452.92,-68"/>
<polygon fill="#9a32cd" stroke="#9a32cd" points="1346.19,-64.5 1336.19,-68 1346.19,-71.5 1346.19,-64.5"/>
<text text-anchor="middle" x="1398.5" y="-71" font-family="Helvetica,sans-Serif" font-size="10.00"> window</text>
</g>
<!-- Node14 -->
<g id="node14" class="node">
<title>Node14</title>
<g id="a_node14"><a xlink:href="classdrain_1_1VariableMap.html" target="_top" xlink:title="A map of Variables.">
<polygon fill="white" stroke="black" points="1009,-76.5 1009,-95.5 1087,-95.5 1087,-76.5 1009,-76.5"/>
<text text-anchor="middle" x="1048" y="-83.5" font-family="Helvetica,sans-Serif" font-size="10.00">VariableMap</text>
</a>
</g>
</g>
<!-- Node14&#45;&gt;Node13 -->
<g id="edge13" class="edge">
<title>Node14&#45;&gt;Node13</title>
<path fill="none" stroke="#9a32cd" stroke-dasharray="5,2" d="M1097.37,-82.41C1141.56,-79.13 1206.3,-74.32 1248.66,-71.18"/>
<polygon fill="#9a32cd" stroke="#9a32cd" points="1096.87,-78.94 1087.16,-83.17 1097.39,-85.92 1096.87,-78.94"/>
<text text-anchor="middle" x="1176" y="-82" font-family="Helvetica,sans-Serif" font-size="10.00"> functorParameters</text>
</g>
<!-- Node15 -->
<g id="node15" class="node">
<title>Node15</title>
<g id="a_node15"><a xlink:href="classdrain_1_1SmartMap.html" target="_top" xlink:title=" ">
<polygon fill="white" stroke="black" points="818,-76.5 818,-95.5 948,-95.5 948,-76.5 818,-76.5"/>
<text text-anchor="middle" x="883" y="-83.5" font-family="Helvetica,sans-Serif" font-size="10.00">SmartMap&lt; Variable &gt;</text>
</a>
</g>
</g>
<!-- Node15&#45;&gt;Node14 -->
<g id="edge14" class="edge">
<title>Node15&#45;&gt;Node14</title>
<path fill="none" stroke="midnightblue" d="M958.59,-86C975.99,-86 993.81,-86 1008.85,-86"/>
<polygon fill="midnightblue" stroke="midnightblue" points="958.42,-82.5 948.42,-86 958.42,-89.5 958.42,-82.5"/>
</g>
<!-- Node16 -->
<g id="node16" class="node">
<title>Node16</title>
<g id="a_node16"><a xlink:title=" ">
<polygon fill="white" stroke="#bfbfbf" points="625,-76.5 625,-95.5 781,-95.5 781,-76.5 625,-76.5"/>
<text text-anchor="middle" x="703" y="-83.5" font-family="Helvetica,sans-Serif" font-size="10.00">map&lt; std::string, Variable &gt;</text>
</a>
</g>
</g>
<!-- Node16&#45;&gt;Node15 -->
<g id="edge15" class="edge">
<title>Node16&#45;&gt;Node15</title>
<path fill="none" stroke="midnightblue" d="M791.18,-86C800.2,-86 809.24,-86 817.93,-86"/>
<polygon fill="midnightblue" stroke="midnightblue" points="791.04,-82.5 781.04,-86 791.04,-89.5 791.04,-82.5"/>
</g>
<!-- Node17 -->
<g id="node17" class="node">
<title>Node17</title>
<g id="a_node17"><a xlink:href="classdrain_1_1Frame2D.html" target="_top" xlink:title=" ">
<polygon fill="white" stroke="black" points="1000,-38.5 1000,-57.5 1096,-57.5 1096,-38.5 1000,-38.5"/>
<text text-anchor="middle" x="1048" y="-45.5" font-family="Helvetica,sans-Serif" font-size="10.00">Frame2D&lt; int &gt;</text>
</a>
</g>
</g>
<!-- Node17&#45;&gt;Node13 -->
<g id="edge16" class="edge">
<title>Node17&#45;&gt;Node13</title>
<path fill="none" stroke="#9a32cd" stroke-dasharray="5,2" d="M1106.56,-50.04C1140.5,-51.56 1184.26,-54.07 1223,-58 1231.37,-58.85 1240.28,-59.98 1248.82,-61.18"/>
<polygon fill="#9a32cd" stroke="#9a32cd" points="1106.49,-46.54 1096.35,-49.6 1106.19,-53.53 1106.49,-46.54"/>
<text text-anchor="middle" x="1176" y="-61" font-family="Helvetica,sans-Serif" font-size="10.00"> frame</text>
</g>
<!-- Node18 -->
<g id="node18" class="node">
<title>Node18</title>
<g id="a_node18"><a xlink:href="classdrain_1_1UniTuple.html" target="_top" xlink:title=" ">
<polygon fill="white" stroke="black" points="830,-38.5 830,-57.5 936,-57.5 936,-38.5 830,-38.5"/>
<text text-anchor="middle" x="883" y="-45.5" font-family="Helvetica,sans-Serif" font-size="10.00">UniTuple&lt; int, 2 &gt;</text>
</a>
</g>
</g>
<!-- Node18&#45;&gt;Node17 -->
<g id="edge17" class="edge">
<title>Node18&#45;&gt;Node17</title>
<path fill="none" stroke="midnightblue" d="M946.32,-48C964.1,-48 983.17,-48 999.88,-48"/>
<polygon fill="midnightblue" stroke="midnightblue" points="946.02,-44.5 936.02,-48 946.02,-51.5 946.02,-44.5"/>
</g>
<!-- Node19 -->
<g id="node19" class="node">
<title>Node19</title>
<g id="a_node19"><a xlink:href="classdrain_1_1Range.html" target="_top" xlink:title=" ">
<polygon fill="white" stroke="black" points="1241,-7.5 1241,-26.5 1344,-26.5 1344,-7.5 1241,-7.5"/>
<text text-anchor="middle" x="1292.5" y="-14.5" font-family="Helvetica,sans-Serif" font-size="10.00">Range&lt; double &gt;</text>
</a>
</g>
</g>
<!-- Node19&#45;&gt;Node2 -->
<g id="edge18" class="edge">
<title>Node19&#45;&gt;Node2</title>
<path fill="none" stroke="#9a32cd" stroke-dasharray="5,2" d="M1354.51,-24.37C1379.76,-28.29 1409.13,-34 1435,-42 1448.71,-46.24 1463.45,-52.95 1474.57,-58.49"/>
<polygon fill="#9a32cd" stroke="#9a32cd" points="1354.73,-20.86 1344.32,-22.85 1353.7,-27.79 1354.73,-20.86"/>
<text text-anchor="middle" x="1398.5" y="-56" font-family="Helvetica,sans-Serif" font-size="10.00"> rhoHVRange</text>
<text text-anchor="middle" x="1398.5" y="-45" font-family="Helvetica,sans-Serif" font-size="10.00">vradDevRange</text>
</g>
<!-- Node20 -->
<g id="node20" class="node">
<title>Node20</title>
<g id="a_node20"><a xlink:href="classdrain_1_1UniTuple.html" target="_top" xlink:title=" ">
<polygon fill="white" stroke="black" points="985,-0.5 985,-19.5 1111,-19.5 1111,-0.5 985,-0.5"/>
<text text-anchor="middle" x="1048" y="-7.5" font-family="Helvetica,sans-Serif" font-size="10.00">UniTuple&lt; double, 2 &gt;</text>
</a>
</g>
</g>
<!-- Node20&#45;&gt;Node19 -->
<g id="edge19" class="edge">
<title>Node20&#45;&gt;Node19</title>
<path fill="none" stroke="midnightblue" d="M1121.26,-12.09C1159.81,-13.2 1206.3,-14.54 1240.95,-15.54"/>
<polygon fill="midnightblue" stroke="midnightblue" points="1121.23,-8.58 1111.13,-11.79 1121.03,-15.58 1121.23,-8.58"/>
</g>
</g>
</svg>
        <g id="navigator" transform="translate(0 0)" fill="#404254">
                <rect fill="#f2f5e9" fill-opacity="0.5" stroke="#606060" stroke-width=".5" x="0" y="0" width="60" height="60"/>
                <use id="zoomplus" xlink:href="#zoomPlus" x="17" y="9" onmousedown="handleZoom(evt,'in')"/>
                <use id="zoomminus" xlink:href="#zoomMin" x="42" y="9" onmousedown="handleZoom(evt,'out')"/>
                <use id="reset" xlink:href="#resetDef" x="30" y="36" onmousedown="handleReset()"/>
                <g id="arrowUp" xlink:href="#dirArrow" transform="translate(30 24)" onmousedown="handlePan(0,-1)">
                  <use xlink:href="#rim" fill="#404040">
                        <set attributeName="fill" to="#808080" begin="arrowUp.mouseover" end="arrowUp.mouseout"/>
                  </use>
                  <path fill="none" stroke="white" stroke-width="1.5" d="M0,-3.0v7 M-2.5,-0.5L0,-3.0L2.5,-0.5"/>
                </g>
                <g id="arrowRight" xlink:href="#dirArrow" transform="rotate(90) translate(36 -43)" onmousedown="handlePan(1,0)">
                  <use xlink:href="#rim" fill="#404040">
                        <set attributeName="fill" to="#808080" begin="arrowRight.mouseover" end="arrowRight.mouseout"/>
                  </use>
                  <path fill="none" stroke="white" stroke-width="1.5" d="M0,-3.0v7 M-2.5,-0.5L0,-3.0L2.5,-0.5"/>
                </g>
                <g id="arrowDown" xlink:href="#dirArrow" transform="rotate(180) translate(-30 -48)" onmousedown="handlePan(0,1)">
                  <use xlink:href="#rim" fill="#404040">
                        <set attributeName="fill" to="#808080" begin="arrowDown.mouseover" end="arrowDown.mouseout"/>
                  </use>
                  <path fill="none" stroke="white" stroke-width="1.5" d="M0,-3.0v7 M-2.5,-0.5L0,-3.0L2.5,-0.5"/>
                </g>
                <g id="arrowLeft" xlink:href="#dirArrow" transform="rotate(270) translate(-36 17)" onmousedown="handlePan(-1,0)">
                  <use xlink:href="#rim" fill="#404040">
                        <set attributeName="fill" to="#808080" begin="arrowLeft.mouseover" end="arrowLeft.mouseout"/>
                  </use>
                  <path fill="none" stroke="white" stroke-width="1.5" d="M0,-3.0v7 M-2.5,-0.5L0,-3.0L2.5,-0.5"/>
                </g>
        </g>
        <svg viewBox="0 0 15 15" width="100%" height="30px" preserveAspectRatio="xMaxYMin meet">
         <g id="arrow_out" transform="scale(0.3 0.3)">
          <a xlink:href="classrack_1_1BirdOp__coll__graph_org.svg" target="_base">
           <rect id="button" ry="5" rx="5" y="6" x="6" height="38" width="38"
                fill="#f2f5e9" fill-opacity="0.5" stroke="#606060" stroke-width="1.0"/>
           <path id="arrow"
             d="M 11.500037,31.436501 C 11.940474,20.09759 22.043105,11.32322 32.158766,21.979434 L 37.068811,17.246167 C 37.068811,17.246167 37.088388,32 37.088388,32 L 22.160133,31.978069 C 22.160133,31.978069 26.997745,27.140456 26.997745,27.140456 C 18.528582,18.264221 13.291696,25.230495 11.500037,31.436501 z"
             style="fill:#404040;"/>
          </a>
         </g>
        </svg>
</svg>
