<?xml version="1.0" encoding="UTF-8" standalone="no"?>
<!DOCTYPE svg PUBLIC "-//W3C//DTD SVG 1.1//EN"
 "http://www.w3.org/Graphics/SVG/1.1/DTD/svg11.dtd">
<!-- Generated by graphviz version 2.43.0 (0)
 -->
<!-- Title: DistanceTransformExponentialOp Pages: 1 -->
<svg width="287pt" height="501pt"
 viewBox="0.00 0.00 287.00 501.00" xmlns="http://www.w3.org/2000/svg" xmlns:xlink="http://www.w3.org/1999/xlink">
<g id="graph0" class="graph" transform="scale(1 1) rotate(0) translate(4 497)">
<title>DistanceTransformExponentialOp</title>
<polygon fill="white" stroke="transparent" points="-4,4 -4,-497 283,-497 283,4 -4,4"/>
<!-- Node1 -->
<g id="node1" class="node">
<title>Node1</title>
<g id="a_node1"><a xlink:title=" ">
<polygon fill="#bfbfbf" stroke="black" points="44.5,-0.5 44.5,-19.5 224.5,-19.5 224.5,-0.5 44.5,-0.5"/>
<text text-anchor="middle" x="134.5" y="-7.5" font-family="Helvetica,sans-Serif" font-size="10.00">DistanceTransformExponentialOp</text>
</a>
</g>
</g>
<!-- Node2 -->
<g id="node2" class="node">
<title>Node2</title>
<g id="a_node2"><a xlink:href="classdrain_1_1image_1_1DistanceTransformOp.html" target="_top" xlink:title=" ">
<polygon fill="white" stroke="black" points="49.5,-57.5 49.5,-87.5 219.5,-87.5 219.5,-57.5 49.5,-57.5"/>
<text text-anchor="start" x="57.5" y="-75.5" font-family="Helvetica,sans-Serif" font-size="10.00">DistanceTransformOp</text>
<text text-anchor="middle" x="134.5" y="-64.5" font-family="Helvetica,sans-Serif" font-size="10.00">&lt; DistanceModelExponential &gt;</text>
</a>
</g>
</g>
<!-- Node2&#45;&gt;Node1 -->
<g id="edge1" class="edge">
<title>Node2&#45;&gt;Node1</title>
<path fill="none" stroke="midnightblue" d="M134.5,-47.35C134.5,-37.51 134.5,-26.78 134.5,-19.54"/>
<polygon fill="midnightblue" stroke="midnightblue" points="131,-47.47 134.5,-57.47 138,-47.47 131,-47.47"/>
</g>
<!-- Node3 -->
<g id="node3" class="node">
<title>Node3</title>
<g id="a_node3"><a xlink:href="classdrain_1_1image_1_1ImageOp.html" target="_top" xlink:title="Base class for image processing functions.">
<polygon fill="white" stroke="black" points="165,-135.5 165,-154.5 226,-154.5 226,-135.5 165,-135.5"/>
<text text-anchor="middle" x="195.5" y="-142.5" font-family="Helvetica,sans-Serif" font-size="10.00">ImageOp</text>
</a>
</g>
</g>
<!-- Node3&#45;&gt;Node2 -->
<g id="edge2" class="edge">
<title>Node3&#45;&gt;Node2</title>
<path fill="none" stroke="midnightblue" d="M184.32,-126.81C179.69,-120.1 174.1,-112.48 168.5,-106 163.05,-99.7 156.55,-93.26 150.69,-87.79"/>
<polygon fill="midnightblue" stroke="midnightblue" points="181.46,-128.84 189.94,-135.2 187.28,-124.94 181.46,-128.84"/>
</g>
<!-- Node4 -->
<g id="node4" class="node">
<title>Node4</title>
<g id="a_node4"><a xlink:href="classdrain_1_1image_1_1ImageMod.html" target="_top" xlink:title="Class for operations that modify an existing image instead of producing a new image.">
<polygon fill="white" stroke="black" points="160.5,-192.5 160.5,-211.5 228.5,-211.5 228.5,-192.5 160.5,-192.5"/>
<text text-anchor="middle" x="194.5" y="-199.5" font-family="Helvetica,sans-Serif" font-size="10.00">ImageMod</text>
</a>
</g>
</g>
<!-- Node4&#45;&gt;Node3 -->
<g id="edge3" class="edge">
<title>Node4&#45;&gt;Node3</title>
<path fill="none" stroke="midnightblue" d="M194.84,-182.12C195.01,-172.82 195.21,-162.06 195.34,-154.71"/>
<polygon fill="midnightblue" stroke="midnightblue" points="191.34,-182.34 194.66,-192.41 198.34,-182.47 191.34,-182.34"/>
</g>
<!-- Node5 -->
<g id="node5" class="node">
<title>Node5</title>
<g id="a_node5"><a xlink:href="classdrain_1_1BeanLike.html" target="_top" xlink:title="Something which has a name, a description and possibly some parameters of varying type.">
<polygon fill="white" stroke="black" points="164,-292.5 164,-311.5 225,-311.5 225,-292.5 164,-292.5"/>
<text text-anchor="middle" x="194.5" y="-299.5" font-family="Helvetica,sans-Serif" font-size="10.00">BeanLike</text>
</a>
</g>
</g>
<!-- Node5&#45;&gt;Node4 -->
<g id="edge4" class="edge">
<title>Node5&#45;&gt;Node4</title>
<path fill="none" stroke="midnightblue" d="M194.5,-282.22C194.5,-260.95 194.5,-227.22 194.5,-211.54"/>
<polygon fill="midnightblue" stroke="midnightblue" points="191,-282.3 194.5,-292.3 198,-282.3 191,-282.3"/>
</g>
<!-- Node10 -->
<g id="node10" class="node">
<title>Node10</title>
<g id="a_node10"><a xlink:href="classdrain_1_1image_1_1DistanceModel.html" target="_top" xlink:title="Base class for linear and exponential distances in rectangular pixel images.">
<polygon fill="white" stroke="black" points="29,-192.5 29,-211.5 118,-211.5 118,-192.5 29,-192.5"/>
<text text-anchor="middle" x="73.5" y="-199.5" font-family="Helvetica,sans-Serif" font-size="10.00">DistanceModel</text>
</a>
</g>
</g>
<!-- Node5&#45;&gt;Node10 -->
<g id="edge10" class="edge">
<title>Node5&#45;&gt;Node10</title>
<path fill="none" stroke="midnightblue" d="M182.76,-283.8C171.38,-268.14 152.89,-245.22 132.5,-230 122.21,-222.32 109.38,-216.13 98.32,-211.62"/>
<polygon fill="midnightblue" stroke="midnightblue" points="179.97,-285.91 188.6,-292.06 185.69,-281.87 179.97,-285.91"/>
</g>
<!-- Node6 -->
<g id="node6" class="node">
<title>Node6</title>
<g id="a_node6"><a xlink:href="classdrain_1_1ReferenceMap.html" target="_top" xlink:title=" ">
<polygon fill="white" stroke="black" points="151,-359.5 151,-378.5 238,-378.5 238,-359.5 151,-359.5"/>
<text text-anchor="middle" x="194.5" y="-366.5" font-family="Helvetica,sans-Serif" font-size="10.00">ReferenceMap</text>
</a>
</g>
</g>
<!-- Node6&#45;&gt;Node5 -->
<g id="edge5" class="edge">
<title>Node6&#45;&gt;Node5</title>
<path fill="none" stroke="#9a32cd" stroke-dasharray="5,2" d="M194.5,-349.04C194.5,-336.67 194.5,-321.12 194.5,-311.63"/>
<polygon fill="#9a32cd" stroke="#9a32cd" points="191,-349.23 194.5,-359.23 198,-349.23 191,-349.23"/>
<text text-anchor="middle" x="224.5" y="-333" font-family="Helvetica,sans-Serif" font-size="10.00"> parameters</text>
</g>
<!-- Node7 -->
<g id="node7" class="node">
<title>Node7</title>
<g id="a_node7"><a xlink:href="classdrain_1_1SmartMap.html" target="_top" xlink:title=" ">
<polygon fill="white" stroke="black" points="123,-416.5 123,-435.5 266,-435.5 266,-416.5 123,-416.5"/>
<text text-anchor="middle" x="194.5" y="-423.5" font-family="Helvetica,sans-Serif" font-size="10.00">SmartMap&lt; Referencer &gt;</text>
</a>
</g>
</g>
<!-- Node7&#45;&gt;Node6 -->
<g id="edge6" class="edge">
<title>Node7&#45;&gt;Node6</title>
<path fill="none" stroke="midnightblue" d="M194.5,-406.12C194.5,-396.82 194.5,-386.06 194.5,-378.71"/>
<polygon fill="midnightblue" stroke="midnightblue" points="191,-406.41 194.5,-416.41 198,-406.41 191,-406.41"/>
</g>
<!-- Node8 -->
<g id="node8" class="node">
<title>Node8</title>
<g id="a_node8"><a xlink:title=" ">
<polygon fill="white" stroke="#bfbfbf" points="110,-473.5 110,-492.5 279,-492.5 279,-473.5 110,-473.5"/>
<text text-anchor="middle" x="194.5" y="-480.5" font-family="Helvetica,sans-Serif" font-size="10.00">map&lt; std::string, Referencer &gt;</text>
</a>
</g>
</g>
<!-- Node8&#45;&gt;Node7 -->
<g id="edge7" class="edge">
<title>Node8&#45;&gt;Node7</title>
<path fill="none" stroke="midnightblue" d="M194.5,-463.12C194.5,-453.82 194.5,-443.06 194.5,-435.71"/>
<polygon fill="midnightblue" stroke="midnightblue" points="191,-463.41 194.5,-473.41 198,-463.41 191,-463.41"/>
</g>
<!-- Node9 -->
<g id="node9" class="node">
<title>Node9</title>
<g id="a_node9"><a xlink:href="classdrain_1_1image_1_1DistanceModelExponential.html" target="_top" xlink:title=" ">
<polygon fill="white" stroke="black" points="0,-135.5 0,-154.5 147,-154.5 147,-135.5 0,-135.5"/>
<text text-anchor="middle" x="73.5" y="-142.5" font-family="Helvetica,sans-Serif" font-size="10.00">DistanceModelExponential</text>
</a>
</g>
</g>
<!-- Node9&#45;&gt;Node2 -->
<g id="edge8" class="edge">
<title>Node9&#45;&gt;Node2</title>
<path fill="none" stroke="#9a32cd" stroke-dasharray="5,2" d="M78.85,-125.82C81.38,-119.15 84.88,-111.81 89.5,-106 95.14,-98.91 102.7,-92.65 110.02,-87.56"/>
<polygon fill="#9a32cd" stroke="#9a32cd" points="75.48,-124.86 75.64,-135.45 82.12,-127.06 75.48,-124.86"/>
<text text-anchor="middle" x="127" y="-109" font-family="Helvetica,sans-Serif" font-size="10.00"> distanceModel</text>
</g>
<!-- Node10&#45;&gt;Node9 -->
<g id="edge9" class="edge">
<title>Node10&#45;&gt;Node9</title>
<path fill="none" stroke="midnightblue" d="M73.5,-182.12C73.5,-172.82 73.5,-162.06 73.5,-154.71"/>
<polygon fill="midnightblue" stroke="midnightblue" points="70,-182.41 73.5,-192.41 77,-182.41 70,-182.41"/>
</g>
<!-- Node11 -->
<g id="node11" class="node">
<title>Node11</title>
<g id="a_node11"><a xlink:href="classdrain_1_1Bidirectional.html" target="_top" xlink:title=" ">
<polygon fill="white" stroke="black" points="12,-292.5 12,-311.5 135,-311.5 135,-292.5 12,-292.5"/>
<text text-anchor="middle" x="73.5" y="-299.5" font-family="Helvetica,sans-Serif" font-size="10.00">Bidirectional&lt; float &gt;</text>
</a>
</g>
</g>
<!-- Node11&#45;&gt;Node10 -->
<g id="edge11" class="edge">
<title>Node11&#45;&gt;Node10</title>
<path fill="none" stroke="#9a32cd" stroke-dasharray="5,2" d="M73.5,-282.22C73.5,-260.95 73.5,-227.22 73.5,-211.54"/>
<polygon fill="#9a32cd" stroke="#9a32cd" points="70,-282.3 73.5,-292.3 77,-282.3 70,-282.3"/>
<text text-anchor="middle" x="101" y="-266" font-family="Helvetica,sans-Serif" font-size="10.00"> vertDec</text>
<text text-anchor="middle" x="101" y="-255" font-family="Helvetica,sans-Serif" font-size="10.00">horzDec</text>
<text text-anchor="middle" x="101" y="-244" font-family="Helvetica,sans-Serif" font-size="10.00">vertRadius</text>
<text text-anchor="middle" x="101" y="-233" font-family="Helvetica,sans-Serif" font-size="10.00">horzRadius</text>
</g>
<!-- Node12 -->
<g id="node12" class="node">
<title>Node12</title>
<g id="a_node12"><a xlink:href="classdrain_1_1UniTuple.html" target="_top" xlink:title=" ">
<polygon fill="white" stroke="black" points="15.5,-359.5 15.5,-378.5 131.5,-378.5 131.5,-359.5 15.5,-359.5"/>
<text text-anchor="middle" x="73.5" y="-366.5" font-family="Helvetica,sans-Serif" font-size="10.00">UniTuple&lt; float, 2 &gt;</text>
</a>
</g>
</g>
<!-- Node12&#45;&gt;Node11 -->
<g id="edge12" class="edge">
<title>Node12&#45;&gt;Node11</title>
<path fill="none" stroke="midnightblue" d="M73.5,-349.04C73.5,-336.67 73.5,-321.12 73.5,-311.63"/>
<polygon fill="midnightblue" stroke="midnightblue" points="70,-349.23 73.5,-359.23 77,-349.23 70,-349.23"/>
</g>
</g>
</svg>
