<?xml version="1.0" encoding="UTF-8" standalone="no"?>
<!DOCTYPE svg PUBLIC "-//W3C//DTD SVG 1.1//EN"
 "http://www.w3.org/Graphics/SVG/1.1/DTD/svg11.dtd">
<!-- Generated by graphviz version 2.43.0 (0)
 -->
<!-- Title: ImageOp Pages: 1 -->
<!--zoomable 1599 -->
<svg id="main" version="1.1" xmlns="http://www.w3.org/2000/svg" xmlns:xlink="http://www.w3.org/1999/xlink" xml:space="preserve" onload="init(evt)">
<style type="text/css"><![CDATA[
.edge:hover path { stroke: red; }
.edge:hover polygon { stroke: red; fill: red; }
]]></style>
<script type="text/javascript"><![CDATA[
var edges = document.getElementsByTagName('g');
if (edges && edges.length) {
  for (var i=0;i<edges.length;i++) {
    if (edges[i].id.substr(0,4)=='edge') {
      edges[i].setAttribute('class','edge');
    }
  }
}
]]></script>
        <defs>
                <circle id="rim" cx="0" cy="0" r="7"/>
                <circle id="rim2" cx="0" cy="0" r="3.5"/>
                <g id="zoomPlus">
                        <use xlink:href="#rim" fill="#404040">
                                <set attributeName="fill" to="#808080" begin="zoomplus.mouseover" end="zoomplus.mouseout"/>
                        </use>
                        <path d="M-4,0h8M0,-4v8" fill="none" stroke="white" stroke-width="1.5" pointer-events="none"/>
                </g>
                <g id="zoomMin">
                        <use xlink:href="#rim" fill="#404040">
                                <set attributeName="fill" to="#808080" begin="zoomminus.mouseover" end="zoomminus.mouseout"/>
                        </use>
                        <path d="M-4,0h8" fill="none" stroke="white" stroke-width="1.5" pointer-events="none"/>
                </g>
                <g id="dirArrow">
                        <path fill="none" stroke="white" stroke-width="1.5" d="M0,-3.0v7 M-2.5,-0.5L0,-3.0L2.5,-0.5"/>
                </g>
               <g id="resetDef">
                       <use xlink:href="#rim2" fill="#404040">
                               <set attributeName="fill" to="#808080" begin="reset.mouseover" end="reset.mouseout"/>
                       </use>
               </g>
        </defs>

<script type="text/javascript">
var viewWidth = 725;
var viewHeight = 1599;
var sectionId = 'dynsection-0';
</script>
<script xlink:href="svgpan.js"/>
<svg id="graph" class="graph">
<g id="viewport">
<title>ImageOp</title>
<polygon fill="white" stroke="transparent" points="-4,4 -4,-1594.5 721,-1594.5 721,4 -4,4"/>
<!-- Node1 -->
<g id="node1" class="node">
<title>Node1</title>
<g id="a_node1"><a xlink:title="Base class for image processing functions.">
<polygon fill="#bfbfbf" stroke="black" points="201,-784.5 201,-803.5 262,-803.5 262,-784.5 201,-784.5"/>
<text text-anchor="middle" x="231.5" y="-791.5" font-family="Helvetica,sans-Serif" font-size="10.00">ImageOp</text>
</a>
</g>
</g>
<!-- Node4 -->
<g id="node4" class="node">
<title>Node4</title>
<g id="a_node4"><a xlink:href="classdrain_1_1image_1_1DistanceTransformOp.html" target="_top" xlink:title=" ">
<polygon fill="white" stroke="black" points="314.5,-1516 314.5,-1546 484.5,-1546 484.5,-1516 314.5,-1516"/>
<text text-anchor="start" x="322.5" y="-1534" font-family="Helvetica,sans-Serif" font-size="10.00">DistanceTransformOp</text>
<text text-anchor="middle" x="399.5" y="-1523" font-family="Helvetica,sans-Serif" font-size="10.00">&lt; DistanceModelExponential &gt;</text>
</a>
</g>
</g>
<!-- Node1&#45;&gt;Node4 -->
<g id="edge3" class="edge">
<title>Node1&#45;&gt;Node4</title>
<path fill="none" stroke="midnightblue" d="M233.37,-813.84C238.13,-919.45 262.18,-1412.98 298,-1470 311.36,-1491.26 335.08,-1506.17 356.12,-1515.93"/>
<polygon fill="midnightblue" stroke="midnightblue" points="236.86,-813.48 232.91,-803.64 229.86,-813.79 236.86,-813.48"/>
</g>
<!-- Node8 -->
<g id="node7" class="node">
<title>Node8</title>
<g id="a_node7"><a xlink:href="classdrain_1_1image_1_1DistanceTransformOp.html" target="_top" xlink:title=" ">
<polygon fill="white" stroke="black" points="328.5,-1431 328.5,-1461 470.5,-1461 470.5,-1431 328.5,-1431"/>
<text text-anchor="start" x="336.5" y="-1449" font-family="Helvetica,sans-Serif" font-size="10.00">DistanceTransformOp</text>
<text text-anchor="middle" x="399.5" y="-1438" font-family="Helvetica,sans-Serif" font-size="10.00">&lt; DistanceModelLinear &gt;</text>
</a>
</g>
</g>
<!-- Node1&#45;&gt;Node8 -->
<g id="edge6" class="edge">
<title>Node1&#45;&gt;Node8</title>
<path fill="none" stroke="midnightblue" d="M233.22,-813.54C237.14,-914.47 257.12,-1373.97 298,-1421 306.02,-1430.23 316.87,-1436.32 328.48,-1440.28"/>
<polygon fill="midnightblue" stroke="midnightblue" points="236.72,-813.37 232.84,-803.51 229.73,-813.64 236.72,-813.37"/>
</g>
<!-- Node12 -->
<g id="node10" class="node">
<title>Node12</title>
<g id="a_node10"><a xlink:href="classdrain_1_1image_1_1CatenatorOp.html" target="_top" xlink:title="Operator for concatenating images vertically or as channels.">
<polygon fill="white" stroke="black" points="360.5,-1392.5 360.5,-1411.5 438.5,-1411.5 438.5,-1392.5 360.5,-1392.5"/>
<text text-anchor="middle" x="399.5" y="-1399.5" font-family="Helvetica,sans-Serif" font-size="10.00">CatenatorOp</text>
</a>
</g>
</g>
<!-- Node1&#45;&gt;Node12 -->
<g id="edge9" class="edge">
<title>Node1&#45;&gt;Node12</title>
<path fill="none" stroke="midnightblue" d="M233.33,-813.92C237.59,-911.96 258.4,-1340.26 298,-1383 313.57,-1399.8 338.97,-1404.5 360.33,-1405.02"/>
<polygon fill="midnightblue" stroke="midnightblue" points="236.82,-813.71 232.9,-803.87 229.83,-814.01 236.82,-813.71"/>
</g>
<!-- Node15 -->
<g id="node13" class="node">
<title>Node15</title>
<g id="a_node13"><a xlink:href="classdrain_1_1image_1_1CropOp.html" target="_top" xlink:title=" ">
<polygon fill="white" stroke="black" points="373,-1354.5 373,-1373.5 426,-1373.5 426,-1354.5 373,-1354.5"/>
<text text-anchor="middle" x="399.5" y="-1361.5" font-family="Helvetica,sans-Serif" font-size="10.00">CropOp</text>
</a>
</g>
</g>
<!-- Node1&#45;&gt;Node15 -->
<g id="edge12" class="edge">
<title>Node1&#45;&gt;Node15</title>
<path fill="none" stroke="midnightblue" d="M233.48,-813.8C238.33,-907.69 260.92,-1305.29 298,-1345 316.78,-1365.12 349.66,-1367.84 372.68,-1366.86"/>
<polygon fill="midnightblue" stroke="midnightblue" points="236.97,-813.49 232.97,-803.68 229.98,-813.84 236.97,-813.49"/>
</g>
<!-- Node16 -->
<g id="node14" class="node">
<title>Node16</title>
<g id="a_node14"><a xlink:href="classdrain_1_1image_1_1DifferentialOp.html" target="_top" xlink:title="Virtual base class for horizontal and vertical intensity derivatives.">
<polygon fill="white" stroke="black" points="356.5,-1316.5 356.5,-1335.5 442.5,-1335.5 442.5,-1316.5 356.5,-1316.5"/>
<text text-anchor="middle" x="399.5" y="-1323.5" font-family="Helvetica,sans-Serif" font-size="10.00">DifferentialOp</text>
</a>
</g>
</g>
<!-- Node1&#45;&gt;Node16 -->
<g id="edge13" class="edge">
<title>Node1&#45;&gt;Node16</title>
<path fill="none" stroke="midnightblue" d="M232.06,-814.02C230.6,-899.66 229.43,-1234.2 298,-1307 312.73,-1322.64 335.99,-1327.74 356.42,-1328.77"/>
<polygon fill="midnightblue" stroke="midnightblue" points="235.56,-813.9 232.25,-803.83 228.56,-813.77 235.56,-813.9"/>
</g>
<!-- Node23 -->
<g id="node17" class="node">
<title>Node23</title>
<g id="a_node17"><a xlink:href="classdrain_1_1image_1_1DistanceTransformOp.html" target="_top" xlink:title=" ">
<polygon fill="white" stroke="black" points="324,-1278.5 324,-1297.5 475,-1297.5 475,-1278.5 324,-1278.5"/>
<text text-anchor="middle" x="399.5" y="-1285.5" font-family="Helvetica,sans-Serif" font-size="10.00">DistanceTransformOp&lt; T &gt;</text>
</a>
</g>
</g>
<!-- Node1&#45;&gt;Node23 -->
<g id="edge16" class="edge">
<title>Node1&#45;&gt;Node23</title>
<path fill="none" stroke="midnightblue" d="M232.29,-813.8C231.83,-895.12 234.42,-1202.17 298,-1269 305.1,-1276.46 314.14,-1281.52 323.88,-1284.87"/>
<polygon fill="midnightblue" stroke="midnightblue" points="235.79,-813.53 232.37,-803.5 228.79,-813.47 235.79,-813.53"/>
</g>
<!-- Node25 -->
<g id="node19" class="node">
<title>Node25</title>
<g id="a_node19"><a xlink:href="classdrain_1_1image_1_1FloodFillOp.html" target="_top" xlink:title="A fill operation for one color.">
<polygon fill="white" stroke="black" points="364,-1240.5 364,-1259.5 435,-1259.5 435,-1240.5 364,-1240.5"/>
<text text-anchor="middle" x="399.5" y="-1247.5" font-family="Helvetica,sans-Serif" font-size="10.00">FloodFillOp</text>
</a>
</g>
</g>
<!-- Node1&#45;&gt;Node25 -->
<g id="edge18" class="edge">
<title>Node1&#45;&gt;Node25</title>
<path fill="none" stroke="midnightblue" d="M232.55,-814.18C233.18,-891.87 239.55,-1170.28 298,-1231 314.75,-1248.4 342.07,-1252.67 363.99,-1252.86"/>
<polygon fill="midnightblue" stroke="midnightblue" points="236.05,-813.84 232.49,-803.86 229.05,-813.88 236.05,-813.84"/>
</g>
<!-- Node26 -->
<g id="node20" class="node">
<title>Node26</title>
<g id="a_node20"><a xlink:href="classdrain_1_1image_1_1FunctorOp.html" target="_top" xlink:title="Class for using simple function objects (like std::functor) for sequential pixel iteration.">
<polygon fill="white" stroke="red" points="352,-1202.5 352,-1221.5 447,-1221.5 447,-1202.5 352,-1202.5"/>
<text text-anchor="middle" x="399.5" y="-1209.5" font-family="Helvetica,sans-Serif" font-size="10.00">FunctorOp&lt; F &gt;</text>
</a>
</g>
</g>
<!-- Node1&#45;&gt;Node26 -->
<g id="edge19" class="edge">
<title>Node1&#45;&gt;Node26</title>
<path fill="none" stroke="midnightblue" d="M232.86,-813.82C234.61,-886.67 244.47,-1138.17 298,-1193 311.83,-1207.17 332.68,-1212.6 351.81,-1214.22"/>
<polygon fill="midnightblue" stroke="midnightblue" points="236.36,-813.65 232.64,-803.72 229.36,-813.8 236.36,-813.65"/>
</g>
<!-- Node31 -->
<g id="node21" class="node">
<title>Node31</title>
<g id="a_node21"><a xlink:href="classdrain_1_1image_1_1HighBoostOp.html" target="_top" xlink:title="Enhances details by mixing original image and result of HighPassOp op.">
<polygon fill="white" stroke="black" points="359.5,-1164.5 359.5,-1183.5 439.5,-1183.5 439.5,-1164.5 359.5,-1164.5"/>
<text text-anchor="middle" x="399.5" y="-1171.5" font-family="Helvetica,sans-Serif" font-size="10.00">HighBoostOp</text>
</a>
</g>
</g>
<!-- Node1&#45;&gt;Node31 -->
<g id="edge20" class="edge">
<title>Node1&#45;&gt;Node31</title>
<path fill="none" stroke="midnightblue" d="M233.25,-814.11C236.22,-882.73 249.53,-1106.18 298,-1155 313.76,-1170.88 338.35,-1175.73 359.27,-1176.56"/>
<polygon fill="midnightblue" stroke="midnightblue" points="236.73,-813.66 232.83,-803.81 229.74,-813.95 236.73,-813.66"/>
</g>
<!-- Node32 -->
<g id="node22" class="node">
<title>Node32</title>
<g id="a_node22"><a xlink:href="classdrain_1_1image_1_1HighPassOp.html" target="_top" xlink:title="Finds details at one&#45;pixel scale, defined as difference of image and its low&#45;pass filtered copy.">
<polygon fill="white" stroke="black" points="362,-1126.5 362,-1145.5 437,-1145.5 437,-1126.5 362,-1126.5"/>
<text text-anchor="middle" x="399.5" y="-1133.5" font-family="Helvetica,sans-Serif" font-size="10.00">HighPassOp</text>
</a>
</g>
</g>
<!-- Node1&#45;&gt;Node32 -->
<g id="edge21" class="edge">
<title>Node1&#45;&gt;Node32</title>
<path fill="none" stroke="midnightblue" d="M233.71,-814.03C237.98,-877.73 254.48,-1074.06 298,-1117 314.56,-1133.34 340.49,-1137.93 361.86,-1138.52"/>
<polygon fill="midnightblue" stroke="midnightblue" points="237.18,-813.5 233.05,-803.74 230.2,-813.94 237.18,-813.5"/>
</g>
<!-- Node33 -->
<g id="node23" class="node">
<title>Node33</title>
<g id="a_node23"><a xlink:href="classdrain_1_1image_1_1ImpulseResponseOpBase.html" target="_top" xlink:title=" ">
<polygon fill="white" stroke="red" points="315,-1088.5 315,-1107.5 484,-1107.5 484,-1088.5 315,-1088.5"/>
<text text-anchor="middle" x="399.5" y="-1095.5" font-family="Helvetica,sans-Serif" font-size="10.00">ImpulseResponseOpBase&lt; T &gt;</text>
</a>
</g>
</g>
<!-- Node1&#45;&gt;Node33 -->
<g id="edge22" class="edge">
<title>Node1&#45;&gt;Node33</title>
<path fill="none" stroke="midnightblue" d="M234.29,-813.93C239.94,-872.44 259.41,-1041.88 298,-1079 302.86,-1083.68 308.5,-1087.38 314.57,-1090.31"/>
<polygon fill="midnightblue" stroke="midnightblue" points="237.75,-813.41 233.34,-803.78 230.78,-814.07 237.75,-813.41"/>
</g>
<!-- Node35 -->
<g id="node24" class="node">
<title>Node35</title>
<g id="a_node24"><a xlink:href="classdrain_1_1image_1_1MarginalStatisticOp.html" target="_top" xlink:title="Computes horizontal or vertical intensity statistics: iAverage, sum, ...">
<polygon fill="white" stroke="black" points="343,-1050.5 343,-1069.5 456,-1069.5 456,-1050.5 343,-1050.5"/>
<text text-anchor="middle" x="399.5" y="-1057.5" font-family="Helvetica,sans-Serif" font-size="10.00">MarginalStatisticOp</text>
</a>
</g>
</g>
<!-- Node1&#45;&gt;Node35 -->
<g id="edge23" class="edge">
<title>Node1&#45;&gt;Node35</title>
<path fill="none" stroke="midnightblue" d="M235.01,-813.67C242.14,-866.49 264.26,-1009.61 298,-1041 310.09,-1052.25 326.66,-1057.83 342.86,-1060.38"/>
<polygon fill="midnightblue" stroke="midnightblue" points="238.45,-813.03 233.68,-803.58 231.51,-813.95 238.45,-813.03"/>
</g>
<!-- Node36 -->
<g id="node25" class="node">
<title>Node36</title>
<g id="a_node25"><a xlink:href="classdrain_1_1image_1_1MotionExtrapolatorOp.html" target="_top" xlink:title=" ">
<polygon fill="white" stroke="black" points="337.5,-1012.5 337.5,-1031.5 461.5,-1031.5 461.5,-1012.5 337.5,-1012.5"/>
<text text-anchor="middle" x="399.5" y="-1019.5" font-family="Helvetica,sans-Serif" font-size="10.00">MotionExtrapolatorOp</text>
</a>
</g>
</g>
<!-- Node1&#45;&gt;Node36 -->
<g id="edge24" class="edge">
<title>Node1&#45;&gt;Node36</title>
<path fill="none" stroke="midnightblue" d="M232.41,-813.97C233.38,-855.86 241.9,-953.1 298,-1003 308.88,-1012.68 323.1,-1018.1 337.41,-1021.01"/>
<polygon fill="midnightblue" stroke="midnightblue" points="235.91,-813.68 232.3,-803.72 228.91,-813.75 235.91,-813.68"/>
</g>
<!-- Node37 -->
<g id="node26" class="node">
<title>Node37</title>
<g id="a_node26"><a xlink:href="classdrain_1_1image_1_1MultiThresholdOp.html" target="_top" xlink:title=" ">
<polygon fill="white" stroke="black" points="348,-974.5 348,-993.5 451,-993.5 451,-974.5 348,-974.5"/>
<text text-anchor="middle" x="399.5" y="-981.5" font-family="Helvetica,sans-Serif" font-size="10.00">MultiThresholdOp</text>
</a>
</g>
</g>
<!-- Node1&#45;&gt;Node37 -->
<g id="edge25" class="edge">
<title>Node1&#45;&gt;Node37</title>
<path fill="none" stroke="midnightblue" d="M233.99,-813.78C237.83,-849.81 251.33,-926.01 298,-965 311.83,-976.55 330.49,-981.93 347.98,-984.22"/>
<polygon fill="midnightblue" stroke="midnightblue" points="237.46,-813.23 233.06,-803.59 230.49,-813.87 237.46,-813.23"/>
</g>
<!-- Node38 -->
<g id="node27" class="node">
<title>Node38</title>
<g id="a_node27"><a xlink:href="classdrain_1_1image_1_1NegateOp.html" target="_top" xlink:title=" ">
<polygon fill="white" stroke="black" points="367,-936.5 367,-955.5 432,-955.5 432,-936.5 367,-936.5"/>
<text text-anchor="middle" x="399.5" y="-943.5" font-family="Helvetica,sans-Serif" font-size="10.00">NegateOp</text>
</a>
</g>
</g>
<!-- Node1&#45;&gt;Node38 -->
<g id="edge26" class="edge">
<title>Node1&#45;&gt;Node38</title>
<path fill="none" stroke="midnightblue" d="M236.33,-813.49C243.21,-842.98 260.57,-898.55 298,-927 317.51,-941.83 345.19,-946.19 366.56,-947.06"/>
<polygon fill="midnightblue" stroke="midnightblue" points="239.72,-812.6 234.19,-803.57 232.88,-814.08 239.72,-812.6"/>
</g>
<!-- Node39 -->
<g id="node28" class="node">
<title>Node39</title>
<g id="a_node28"><a xlink:href="classdrain_1_1image_1_1PaletteOp.html" target="_top" xlink:title="Colorizes an image of 1 channel to an image of N channels by using a palette image as a lookup table.">
<polygon fill="white" stroke="black" points="367,-898.5 367,-917.5 432,-917.5 432,-898.5 367,-898.5"/>
<text text-anchor="middle" x="399.5" y="-905.5" font-family="Helvetica,sans-Serif" font-size="10.00">PaletteOp</text>
</a>
</g>
</g>
<!-- Node1&#45;&gt;Node39 -->
<g id="edge27" class="edge">
<title>Node1&#45;&gt;Node39</title>
<path fill="none" stroke="midnightblue" d="M240.19,-812.98C250.12,-834.96 269.59,-870.51 298,-889 318.39,-902.27 345.74,-906.78 366.76,-908.1"/>
<polygon fill="midnightblue" stroke="midnightblue" points="243.35,-811.48 236.18,-803.68 236.92,-814.25 243.35,-811.48"/>
</g>
<!-- Node40 -->
<g id="node29" class="node">
<title>Node40</title>
<g id="a_node29"><a xlink:href="classdrain_1_1image_1_1PixelVectorOp.html" target="_top" xlink:title="A base class for operations between of multi&#45;channel pixels (intensity vectors) of two images.">
<polygon fill="white" stroke="red" points="356.5,-860.5 356.5,-879.5 442.5,-879.5 442.5,-860.5 356.5,-860.5"/>
<text text-anchor="middle" x="399.5" y="-867.5" font-family="Helvetica,sans-Serif" font-size="10.00">PixelVectorOp</text>
</a>
</g>
</g>
<!-- Node1&#45;&gt;Node40 -->
<g id="edge28" class="edge">
<title>Node1&#45;&gt;Node40</title>
<path fill="none" stroke="midnightblue" d="M247.48,-811.28C259.74,-824.27 278.23,-841.41 298,-851 316.05,-859.75 337.75,-864.48 356.36,-867.03"/>
<polygon fill="midnightblue" stroke="midnightblue" points="250.02,-808.86 240.7,-803.83 244.84,-813.58 250.02,-808.86"/>
</g>
<!-- Node48 -->
<g id="node30" class="node">
<title>Node48</title>
<g id="a_node30"><a xlink:href="classdrain_1_1image_1_1QuadTreeOp.html" target="_top" xlink:title="QuadTrees the image, stretching the image correspondingly.">
<polygon fill="white" stroke="black" points="361.5,-822.5 361.5,-841.5 437.5,-841.5 437.5,-822.5 361.5,-822.5"/>
<text text-anchor="middle" x="399.5" y="-829.5" font-family="Helvetica,sans-Serif" font-size="10.00">QuadTreeOp</text>
</a>
</g>
</g>
<!-- Node1&#45;&gt;Node48 -->
<g id="edge29" class="edge">
<title>Node1&#45;&gt;Node48</title>
<path fill="none" stroke="midnightblue" d="M271.81,-806.06C280.4,-808.51 289.47,-810.96 298,-813 318.72,-817.95 342.1,-822.44 361.09,-825.8"/>
<polygon fill="midnightblue" stroke="midnightblue" points="272.59,-802.65 262.01,-803.21 270.63,-809.37 272.59,-802.65"/>
</g>
<!-- Node49 -->
<g id="node31" class="node">
<title>Node49</title>
<g id="a_node31"><a xlink:href="classdrain_1_1image_1_1QualityMixerOp.html" target="_top" xlink:title="Overwrites pixels of destination image in locations where destination weight is lower.">
<polygon fill="white" stroke="black" points="353,-784.5 353,-803.5 446,-803.5 446,-784.5 353,-784.5"/>
<text text-anchor="middle" x="399.5" y="-791.5" font-family="Helvetica,sans-Serif" font-size="10.00">QualityMixerOp</text>
</a>
</g>
</g>
<!-- Node1&#45;&gt;Node49 -->
<g id="edge30" class="edge">
<title>Node1&#45;&gt;Node49</title>
<path fill="none" stroke="midnightblue" d="M272.44,-794C296.65,-794 327.62,-794 352.8,-794"/>
<polygon fill="midnightblue" stroke="midnightblue" points="272.18,-790.5 262.18,-794 272.18,-797.5 272.18,-790.5"/>
</g>
<!-- Node50 -->
<g id="node32" class="node">
<title>Node50</title>
<g id="a_node32"><a xlink:href="classdrain_1_1image_1_1QualityOp.html" target="_top" xlink:title=" ">
<polygon fill="white" stroke="red" points="367,-746.5 367,-765.5 432,-765.5 432,-746.5 367,-746.5"/>
<text text-anchor="middle" x="399.5" y="-753.5" font-family="Helvetica,sans-Serif" font-size="10.00">QualityOp</text>
</a>
</g>
</g>
<!-- Node1&#45;&gt;Node50 -->
<g id="edge31" class="edge">
<title>Node1&#45;&gt;Node50</title>
<path fill="none" stroke="midnightblue" d="M271.81,-781.94C280.4,-779.49 289.47,-777.04 298,-775 320.8,-769.55 346.8,-764.67 366.65,-761.22"/>
<polygon fill="midnightblue" stroke="midnightblue" points="270.63,-778.63 262.01,-784.79 272.59,-785.35 270.63,-778.63"/>
</g>
<!-- Node53 -->
<g id="node33" class="node">
<title>Node53</title>
<g id="a_node33"><a xlink:href="classdrain_1_1image_1_1RecomposeOp.html" target="_top" xlink:title="Create vertical image composed of separate views.">
<polygon fill="white" stroke="black" points="356,-708.5 356,-727.5 443,-727.5 443,-708.5 356,-708.5"/>
<text text-anchor="middle" x="399.5" y="-715.5" font-family="Helvetica,sans-Serif" font-size="10.00">RecomposeOp</text>
</a>
</g>
</g>
<!-- Node1&#45;&gt;Node53 -->
<g id="edge32" class="edge">
<title>Node1&#45;&gt;Node53</title>
<path fill="none" stroke="midnightblue" d="M247.48,-776.72C259.74,-763.73 278.23,-746.59 298,-737 315.9,-728.32 337.37,-723.6 355.86,-721.04"/>
<polygon fill="midnightblue" stroke="midnightblue" points="244.84,-774.42 240.7,-784.17 250.02,-779.14 244.84,-774.42"/>
</g>
<!-- Node54 -->
<g id="node34" class="node">
<title>Node54</title>
<g id="a_node34"><a xlink:href="classdrain_1_1image_1_1ResizeOp.html" target="_top" xlink:title="Resizes the image, stretching the image correspondingly.">
<polygon fill="white" stroke="black" points="368.5,-670.5 368.5,-689.5 430.5,-689.5 430.5,-670.5 368.5,-670.5"/>
<text text-anchor="middle" x="399.5" y="-677.5" font-family="Helvetica,sans-Serif" font-size="10.00">ResizeOp</text>
</a>
</g>
</g>
<!-- Node1&#45;&gt;Node54 -->
<g id="edge33" class="edge">
<title>Node1&#45;&gt;Node54</title>
<path fill="none" stroke="midnightblue" d="M240.19,-775.02C250.12,-753.04 269.59,-717.49 298,-699 318.83,-685.44 346.94,-681.03 368.13,-679.81"/>
<polygon fill="midnightblue" stroke="midnightblue" points="236.92,-773.75 236.18,-784.32 243.35,-776.52 236.92,-773.75"/>
</g>
<!-- Node55 -->
<g id="node35" class="node">
<title>Node55</title>
<g id="a_node35"><a xlink:href="classdrain_1_1image_1_1RunLengthOp.html" target="_top" xlink:title="Base class for RunLengthHorzOp and RunLengthVertOp.">
<polygon fill="white" stroke="red" points="358.5,-632.5 358.5,-651.5 440.5,-651.5 440.5,-632.5 358.5,-632.5"/>
<text text-anchor="middle" x="399.5" y="-639.5" font-family="Helvetica,sans-Serif" font-size="10.00">RunLengthOp</text>
</a>
</g>
</g>
<!-- Node1&#45;&gt;Node55 -->
<g id="edge34" class="edge">
<title>Node1&#45;&gt;Node55</title>
<path fill="none" stroke="midnightblue" d="M236.33,-774.51C243.21,-745.02 260.57,-689.45 298,-661 315.1,-648 338.49,-643.04 358.4,-641.43"/>
<polygon fill="midnightblue" stroke="midnightblue" points="232.88,-773.92 234.19,-784.43 239.72,-775.4 232.88,-773.92"/>
</g>
<!-- Node58 -->
<g id="node36" class="node">
<title>Node58</title>
<g id="a_node36"><a xlink:href="classdrain_1_1image_1_1SegmentOp.html" target="_top" xlink:title="A base class for computing statistics of segments. As segment is an area of connected pixels.">
<polygon fill="white" stroke="red" points="362.5,-594.5 362.5,-613.5 436.5,-613.5 436.5,-594.5 362.5,-594.5"/>
<text text-anchor="middle" x="399.5" y="-601.5" font-family="Helvetica,sans-Serif" font-size="10.00">SegmentOp</text>
</a>
</g>
</g>
<!-- Node1&#45;&gt;Node58 -->
<g id="edge35" class="edge">
<title>Node1&#45;&gt;Node58</title>
<path fill="none" stroke="midnightblue" d="M233.99,-774.22C237.83,-738.19 251.33,-661.99 298,-623 315.72,-608.2 341.36,-603.53 362.3,-602.52"/>
<polygon fill="midnightblue" stroke="midnightblue" points="230.49,-774.13 233.06,-784.41 237.46,-774.77 230.49,-774.13"/>
</g>
<!-- Node61 -->
<g id="node37" class="node">
<title>Node61</title>
<g id="a_node37"><a xlink:href="classdrain_1_1image_1_1TransposeOp.html" target="_top" xlink:title="Transpose operator. Swaps the intensities over the diagonal exis.">
<polygon fill="white" stroke="black" points="359.5,-556.5 359.5,-575.5 439.5,-575.5 439.5,-556.5 359.5,-556.5"/>
<text text-anchor="middle" x="399.5" y="-563.5" font-family="Helvetica,sans-Serif" font-size="10.00">TransposeOp</text>
</a>
</g>
</g>
<!-- Node1&#45;&gt;Node61 -->
<g id="edge36" class="edge">
<title>Node1&#45;&gt;Node61</title>
<path fill="none" stroke="midnightblue" d="M232.41,-774.03C233.38,-732.14 241.9,-634.9 298,-585 314.45,-570.37 338.55,-565.45 359.02,-564.27"/>
<polygon fill="midnightblue" stroke="midnightblue" points="228.91,-774.25 232.3,-784.28 235.91,-774.32 228.91,-774.25"/>
</g>
<!-- Node62 -->
<g id="node38" class="node">
<title>Node62</title>
<g id="a_node38"><a xlink:href="classdrain_1_1image_1_1WindowOp.html" target="_top" xlink:title=" ">
<polygon fill="white" stroke="red" points="349,-518.5 349,-537.5 450,-537.5 450,-518.5 349,-518.5"/>
<text text-anchor="middle" x="399.5" y="-525.5" font-family="Helvetica,sans-Serif" font-size="10.00">WindowOp&lt; W &gt;</text>
</a>
</g>
</g>
<!-- Node1&#45;&gt;Node62 -->
<g id="edge37" class="edge">
<title>Node1&#45;&gt;Node62</title>
<path fill="none" stroke="midnightblue" d="M235.01,-774.33C242.14,-721.51 264.26,-578.39 298,-547 311.59,-534.36 330.83,-528.88 348.84,-526.81"/>
<polygon fill="midnightblue" stroke="midnightblue" points="231.51,-774.05 233.68,-784.42 238.45,-774.97 231.51,-774.05"/>
</g>
<!-- Node64 -->
<g id="node39" class="node">
<title>Node64</title>
<g id="a_node39"><a xlink:href="classdrain_1_1image_1_1FunctorOp.html" target="_top" xlink:title=" ">
<polygon fill="white" stroke="red" points="325,-480.5 325,-499.5 474,-499.5 474,-480.5 325,-480.5"/>
<text text-anchor="middle" x="399.5" y="-487.5" font-family="Helvetica,sans-Serif" font-size="10.00">FunctorOp&lt; CopyFunctor &gt;</text>
</a>
</g>
</g>
<!-- Node1&#45;&gt;Node64 -->
<g id="edge38" class="edge">
<title>Node1&#45;&gt;Node64</title>
<path fill="none" stroke="midnightblue" d="M234.29,-774.07C239.94,-715.56 259.41,-546.12 298,-509 305.55,-501.74 314.96,-496.81 324.97,-493.54"/>
<polygon fill="midnightblue" stroke="midnightblue" points="230.78,-773.93 233.34,-784.22 237.75,-774.59 230.78,-773.93"/>
</g>
<!-- Node67 -->
<g id="node40" class="node">
<title>Node67</title>
<g id="a_node40"><a xlink:href="classdrain_1_1image_1_1FunctorOp.html" target="_top" xlink:title=" ">
<polygon fill="white" stroke="red" points="320.5,-431 320.5,-461 478.5,-461 478.5,-431 320.5,-431"/>
<text text-anchor="start" x="328.5" y="-449" font-family="Helvetica,sans-Serif" font-size="10.00">FunctorOp&lt; drain::FuzzyStep</text>
<text text-anchor="middle" x="399.5" y="-438" font-family="Helvetica,sans-Serif" font-size="10.00">&lt; double &gt; &gt;</text>
</a>
</g>
</g>
<!-- Node1&#45;&gt;Node67 -->
<g id="edge39" class="edge">
<title>Node1&#45;&gt;Node67</title>
<path fill="none" stroke="midnightblue" d="M233.81,-774.08C238.39,-710.67 255.73,-515.17 298,-471 304.22,-464.51 311.84,-459.59 320.08,-455.9"/>
<polygon fill="midnightblue" stroke="midnightblue" points="230.3,-774.09 233.1,-784.31 237.29,-774.58 230.3,-774.09"/>
</g>
<!-- Node70 -->
<g id="node41" class="node">
<title>Node70</title>
<g id="a_node41"><a xlink:href="classdrain_1_1image_1_1WindowOp.html" target="_top" xlink:title=" ">
<polygon fill="white" stroke="red" points="308.5,-382 308.5,-412 490.5,-412 490.5,-382 308.5,-382"/>
<text text-anchor="start" x="316.5" y="-400" font-family="Helvetica,sans-Serif" font-size="10.00">WindowOp&lt; FlowAverageWindow</text>
<text text-anchor="middle" x="399.5" y="-389" font-family="Helvetica,sans-Serif" font-size="10.00">Weighted &gt;</text>
</a>
</g>
</g>
<!-- Node1&#45;&gt;Node70 -->
<g id="edge40" class="edge">
<title>Node1&#45;&gt;Node70</title>
<path fill="none" stroke="midnightblue" d="M233.2,-774.21C236.05,-704.67 249.13,-472.93 298,-421 301.2,-417.6 304.78,-414.65 308.64,-412.08"/>
<polygon fill="midnightblue" stroke="midnightblue" points="229.7,-774.13 232.81,-784.26 236.69,-774.4 229.7,-774.13"/>
</g>
<!-- Node73 -->
<g id="node42" class="node">
<title>Node73</title>
<g id="a_node42"><a xlink:href="classdrain_1_1image_1_1WindowOp.html" target="_top" xlink:title=" ">
<polygon fill="white" stroke="red" points="322.5,-333 322.5,-363 476.5,-363 476.5,-333 322.5,-333"/>
<text text-anchor="start" x="330.5" y="-351" font-family="Helvetica,sans-Serif" font-size="10.00">WindowOp&lt; GaussianStripe</text>
<text text-anchor="middle" x="399.5" y="-340" font-family="Helvetica,sans-Serif" font-size="10.00">&lt; WindowCore &gt; &gt;</text>
</a>
</g>
</g>
<!-- Node1&#45;&gt;Node73 -->
<g id="edge41" class="edge">
<title>Node1&#45;&gt;Node73</title>
<path fill="none" stroke="midnightblue" d="M232.75,-774.1C234.13,-698.68 242.89,-431.73 298,-372 304.69,-364.75 313.14,-359.51 322.3,-355.74"/>
<polygon fill="midnightblue" stroke="midnightblue" points="229.25,-774.09 232.6,-784.14 236.25,-774.2 229.25,-774.09"/>
</g>
<!-- Node75 -->
<g id="node43" class="node">
<title>Node75</title>
<g id="a_node43"><a xlink:href="classdrain_1_1image_1_1WindowOp.html" target="_top" xlink:title=" ">
<polygon fill="white" stroke="red" points="325.5,-284 325.5,-314 473.5,-314 473.5,-284 325.5,-284"/>
<text text-anchor="start" x="333.5" y="-302" font-family="Helvetica,sans-Serif" font-size="10.00">WindowOp&lt; SlidingOptical</text>
<text text-anchor="middle" x="399.5" y="-291" font-family="Helvetica,sans-Serif" font-size="10.00">FlowWeighted &gt;</text>
</a>
</g>
</g>
<!-- Node1&#45;&gt;Node75 -->
<g id="edge42" class="edge">
<title>Node1&#45;&gt;Node75</title>
<path fill="none" stroke="midnightblue" d="M232.4,-773.92C232.41,-692.82 236.64,-390.57 298,-323 305.42,-314.83 315.07,-309.2 325.46,-305.37"/>
<polygon fill="midnightblue" stroke="midnightblue" points="228.9,-774.23 232.42,-784.23 235.9,-774.22 228.9,-774.23"/>
</g>
<!-- Node78 -->
<g id="node44" class="node">
<title>Node78</title>
<g id="a_node44"><a xlink:href="classdrain_1_1image_1_1WindowOp.html" target="_top" xlink:title=" ">
<polygon fill="white" stroke="red" points="325.5,-235 325.5,-265 473.5,-265 473.5,-235 325.5,-235"/>
<text text-anchor="start" x="333.5" y="-253" font-family="Helvetica,sans-Serif" font-size="10.00">WindowOp&lt; SlidingOptical</text>
<text text-anchor="middle" x="399.5" y="-242" font-family="Helvetica,sans-Serif" font-size="10.00">FlowWeighted2 &gt;</text>
</a>
</g>
</g>
<!-- Node1&#45;&gt;Node78 -->
<g id="edge43" class="edge">
<title>Node1&#45;&gt;Node78</title>
<path fill="none" stroke="midnightblue" d="M232.11,-774.35C230.84,-688.78 230.21,-349.63 298,-274 305.36,-265.79 314.99,-260.13 325.37,-256.28"/>
<polygon fill="midnightblue" stroke="midnightblue" points="228.62,-774.55 232.29,-784.49 235.61,-774.43 228.62,-774.55"/>
</g>
<!-- Node81 -->
<g id="node45" class="node">
<title>Node81</title>
<g id="a_node45"><a xlink:href="classdrain_1_1image_1_1WindowOp.html" target="_top" xlink:title=" ">
<polygon fill="white" stroke="red" points="298,-186 298,-216 501,-216 501,-186 298,-186"/>
<text text-anchor="start" x="306" y="-204" font-family="Helvetica,sans-Serif" font-size="10.00">WindowOp&lt; SlidingWindowHistogram</text>
<text text-anchor="middle" x="399.5" y="-193" font-family="Helvetica,sans-Serif" font-size="10.00">Weighted &gt;</text>
</a>
</g>
</g>
<!-- Node1&#45;&gt;Node81 -->
<g id="edge44" class="edge">
<title>Node1&#45;&gt;Node81</title>
<path fill="none" stroke="midnightblue" d="M233.45,-774.21C238.2,-678.56 260.71,-267.05 298,-225 300.98,-221.64 304.33,-218.72 307.96,-216.16"/>
<polygon fill="midnightblue" stroke="midnightblue" points="229.94,-774.32 232.95,-784.48 236.93,-774.66 229.94,-774.32"/>
</g>
<!-- Node84 -->
<g id="node46" class="node">
<title>Node84</title>
<g id="a_node46"><a xlink:href="classdrain_1_1image_1_1WindowOp.html" target="_top" xlink:title=" ">
<polygon fill="white" stroke="red" points="305.5,-137 305.5,-167 493.5,-167 493.5,-137 305.5,-137"/>
<text text-anchor="start" x="313.5" y="-155" font-family="Helvetica,sans-Serif" font-size="10.00">WindowOp&lt; SlidingWindowMedian</text>
<text text-anchor="middle" x="399.5" y="-144" font-family="Helvetica,sans-Serif" font-size="10.00">Weighted &gt;</text>
</a>
</g>
</g>
<!-- Node1&#45;&gt;Node84 -->
<g id="edge45" class="edge">
<title>Node1&#45;&gt;Node84</title>
<path fill="none" stroke="midnightblue" d="M233.26,-774.1C237.3,-673.3 257.54,-222.04 298,-176 300.96,-172.63 304.3,-169.69 307.92,-167.13"/>
<polygon fill="midnightblue" stroke="midnightblue" points="229.76,-774.02 232.87,-784.15 236.76,-774.29 229.76,-774.02"/>
</g>
<!-- Node87 -->
<g id="node47" class="node">
<title>Node87</title>
<g id="a_node47"><a xlink:href="classdrain_1_1image_1_1WindowOp.html" target="_top" xlink:title=" ">
<polygon fill="white" stroke="red" points="311.5,-88 311.5,-118 487.5,-118 487.5,-88 311.5,-88"/>
<text text-anchor="start" x="319.5" y="-106" font-family="Helvetica,sans-Serif" font-size="10.00">WindowOp&lt; Window&lt; Gaussian</text>
<text text-anchor="middle" x="399.5" y="-95" font-family="Helvetica,sans-Serif" font-size="10.00">WindowConf &gt; &gt;</text>
</a>
</g>
</g>
<!-- Node1&#45;&gt;Node87 -->
<g id="edge46" class="edge">
<title>Node1&#45;&gt;Node87</title>
<path fill="none" stroke="midnightblue" d="M233.1,-774.21C236.44,-668.89 254.33,-177.08 298,-127 301.89,-122.54 306.45,-118.83 311.44,-115.75"/>
<polygon fill="midnightblue" stroke="midnightblue" points="229.59,-774.28 232.78,-784.38 236.59,-774.5 229.59,-774.28"/>
</g>
<!-- Node89 -->
<g id="node48" class="node">
<title>Node89</title>
<g id="a_node48"><a xlink:href="classdrain_1_1image_1_1WindowOp.html" target="_top" xlink:title=" ">
<polygon fill="white" stroke="red" points="314.5,-39 314.5,-69 484.5,-69 484.5,-39 314.5,-39"/>
<text text-anchor="start" x="322.5" y="-57" font-family="Helvetica,sans-Serif" font-size="10.00">WindowOp&lt; Window&lt; Window</text>
<text text-anchor="middle" x="399.5" y="-46" font-family="Helvetica,sans-Serif" font-size="10.00">Config &gt; &gt;</text>
</a>
</g>
</g>
<!-- Node1&#45;&gt;Node89 -->
<g id="edge47" class="edge">
<title>Node1&#45;&gt;Node89</title>
<path fill="none" stroke="midnightblue" d="M232.96,-774.16C235.67,-664.14 251.13,-132.11 298,-78 302.58,-72.71 308.1,-68.48 314.16,-65.1"/>
<polygon fill="midnightblue" stroke="midnightblue" points="229.45,-774.38 232.71,-784.46 236.45,-774.54 229.45,-774.38"/>
</g>
<!-- Node92 -->
<g id="node49" class="node">
<title>Node92</title>
<g id="a_node49"><a xlink:href="classdrain_1_1image_1_1WindowOp.html" target="_top" xlink:title=" ">
<polygon fill="white" stroke="red" points="356.5,-0.5 356.5,-19.5 442.5,-19.5 442.5,-0.5 356.5,-0.5"/>
<text text-anchor="middle" x="399.5" y="-7.5" font-family="Helvetica,sans-Serif" font-size="10.00">WindowOp&lt;&gt;</text>
</a>
</g>
</g>
<!-- Node1&#45;&gt;Node92 -->
<g id="edge48" class="edge">
<title>Node1&#45;&gt;Node92</title>
<path fill="none" stroke="midnightblue" d="M232.79,-774.2C234.66,-659.74 246.54,-85.96 298,-29 312.46,-12.99 335.84,-7.9 356.4,-6.97"/>
<polygon fill="midnightblue" stroke="midnightblue" points="229.29,-774.27 232.63,-784.33 236.29,-774.38 229.29,-774.27"/>
</g>
<!-- Node2 -->
<g id="node2" class="node">
<title>Node2</title>
<g id="a_node2"><a xlink:href="classdrain_1_1image_1_1ImageMod.html" target="_top" xlink:title="Class for operations that modify an existing image instead of producing a new image.">
<polygon fill="white" stroke="black" points="97,-784.5 97,-803.5 165,-803.5 165,-784.5 97,-784.5"/>
<text text-anchor="middle" x="131" y="-791.5" font-family="Helvetica,sans-Serif" font-size="10.00">ImageMod</text>
</a>
</g>
</g>
<!-- Node2&#45;&gt;Node1 -->
<g id="edge1" class="edge">
<title>Node2&#45;&gt;Node1</title>
<path fill="none" stroke="midnightblue" d="M175.14,-794C183.87,-794 192.86,-794 200.99,-794"/>
<polygon fill="midnightblue" stroke="midnightblue" points="175.07,-790.5 165.07,-794 175.07,-797.5 175.07,-790.5"/>
</g>
<!-- Node3 -->
<g id="node3" class="node">
<title>Node3</title>
<g id="a_node3"><a xlink:href="classdrain_1_1BeanLike.html" target="_top" xlink:title="Something which has a name, a description and possibly some parameters of varying type.">
<polygon fill="white" stroke="black" points="0,-784.5 0,-803.5 61,-803.5 61,-784.5 0,-784.5"/>
<text text-anchor="middle" x="30.5" y="-791.5" font-family="Helvetica,sans-Serif" font-size="10.00">BeanLike</text>
</a>
</g>
</g>
<!-- Node3&#45;&gt;Node2 -->
<g id="edge2" class="edge">
<title>Node3&#45;&gt;Node2</title>
<path fill="none" stroke="midnightblue" d="M71.12,-794C79.59,-794 88.46,-794 96.67,-794"/>
<polygon fill="midnightblue" stroke="midnightblue" points="71.05,-790.5 61.05,-794 71.05,-797.5 71.05,-790.5"/>
</g>
<!-- Node5 -->
<g id="node5" class="node">
<title>Node5</title>
<g id="a_node5"><a xlink:href="classdrain_1_1image_1_1DistanceTransformFillOp.html" target="_top" xlink:title=" ">
<polygon fill="white" stroke="red" points="542,-1560 542,-1590 712,-1590 712,-1560 542,-1560"/>
<text text-anchor="start" x="550" y="-1578" font-family="Helvetica,sans-Serif" font-size="10.00">DistanceTransformFillOp</text>
<text text-anchor="middle" x="627" y="-1567" font-family="Helvetica,sans-Serif" font-size="10.00">&lt; DistanceModelExponential &gt;</text>
</a>
</g>
</g>
<!-- Node4&#45;&gt;Node5 -->
<g id="edge4" class="edge">
<title>Node4&#45;&gt;Node5</title>
<path fill="none" stroke="midnightblue" d="M487.34,-1547.94C507.65,-1551.91 529.14,-1556.1 548.99,-1559.97"/>
<polygon fill="midnightblue" stroke="midnightblue" points="487.96,-1544.5 477.47,-1546.02 486.62,-1551.37 487.96,-1544.5"/>
</g>
<!-- Node7 -->
<g id="node6" class="node">
<title>Node7</title>
<g id="a_node6"><a xlink:href="classdrain_1_1image_1_1DistanceTransformExponentialOp.html" target="_top" xlink:title=" ">
<polygon fill="white" stroke="black" points="537,-1521.5 537,-1540.5 717,-1540.5 717,-1521.5 537,-1521.5"/>
<text text-anchor="middle" x="627" y="-1528.5" font-family="Helvetica,sans-Serif" font-size="10.00">DistanceTransformExponentialOp</text>
</a>
</g>
</g>
<!-- Node4&#45;&gt;Node7 -->
<g id="edge5" class="edge">
<title>Node4&#45;&gt;Node7</title>
<path fill="none" stroke="midnightblue" d="M494.85,-1531C508.78,-1531 523.09,-1531 536.91,-1531"/>
<polygon fill="midnightblue" stroke="midnightblue" points="494.79,-1527.5 484.79,-1531 494.79,-1534.5 494.79,-1527.5"/>
</g>
<!-- Node9 -->
<g id="node8" class="node">
<title>Node9</title>
<g id="a_node8"><a xlink:href="classdrain_1_1image_1_1DistanceTransformFillOp.html" target="_top" xlink:title=" ">
<polygon fill="white" stroke="red" points="556,-1472 556,-1502 698,-1502 698,-1472 556,-1472"/>
<text text-anchor="start" x="564" y="-1490" font-family="Helvetica,sans-Serif" font-size="10.00">DistanceTransformFillOp</text>
<text text-anchor="middle" x="627" y="-1479" font-family="Helvetica,sans-Serif" font-size="10.00">&lt; DistanceModelLinear &gt;</text>
</a>
</g>
</g>
<!-- Node8&#45;&gt;Node9 -->
<g id="edge7" class="edge">
<title>Node8&#45;&gt;Node9</title>
<path fill="none" stroke="midnightblue" d="M480.63,-1460.57C505.22,-1465.04 532.07,-1469.92 555.93,-1474.26"/>
<polygon fill="midnightblue" stroke="midnightblue" points="481.08,-1457.09 470.61,-1458.75 479.83,-1463.98 481.08,-1457.09"/>
</g>
<!-- Node11 -->
<g id="node9" class="node">
<title>Node11</title>
<g id="a_node9"><a xlink:href="classdrain_1_1image_1_1DistanceTransformLinearOp.html" target="_top" xlink:title="Computes inverse linear distance to bright points.">
<polygon fill="white" stroke="black" points="551,-1433.5 551,-1452.5 703,-1452.5 703,-1433.5 551,-1433.5"/>
<text text-anchor="middle" x="627" y="-1440.5" font-family="Helvetica,sans-Serif" font-size="10.00">DistanceTransformLinearOp</text>
</a>
</g>
</g>
<!-- Node8&#45;&gt;Node11 -->
<g id="edge8" class="edge">
<title>Node8&#45;&gt;Node11</title>
<path fill="none" stroke="midnightblue" d="M480.62,-1444.93C503.48,-1444.63 528.29,-1444.3 550.85,-1444"/>
<polygon fill="midnightblue" stroke="midnightblue" points="480.57,-1441.43 470.61,-1445.07 480.66,-1448.43 480.57,-1441.43"/>
</g>
<!-- Node13 -->
<g id="node11" class="node">
<title>Node13</title>
<g id="a_node11"><a xlink:href="classdrain_1_1image_1_1ChannelCatenatorOp.html" target="_top" xlink:title=" ">
<polygon fill="white" stroke="black" points="568,-1395.5 568,-1414.5 686,-1414.5 686,-1395.5 568,-1395.5"/>
<text text-anchor="middle" x="627" y="-1402.5" font-family="Helvetica,sans-Serif" font-size="10.00">ChannelCatenatorOp</text>
</a>
</g>
</g>
<!-- Node12&#45;&gt;Node13 -->
<g id="edge10" class="edge">
<title>Node12&#45;&gt;Node13</title>
<path fill="none" stroke="midnightblue" d="M449.12,-1402.65C483.88,-1403.11 530.82,-1403.73 567.61,-1404.22"/>
<polygon fill="midnightblue" stroke="midnightblue" points="448.8,-1399.14 438.75,-1402.51 448.71,-1406.14 448.8,-1399.14"/>
</g>
<!-- Node14 -->
<g id="node12" class="node">
<title>Node14</title>
<g id="a_node12"><a xlink:href="classdrain_1_1image_1_1VerticalCatenatorOp.html" target="_top" xlink:title=" ">
<polygon fill="white" stroke="black" points="569,-1357.5 569,-1376.5 685,-1376.5 685,-1357.5 569,-1357.5"/>
<text text-anchor="middle" x="627" y="-1364.5" font-family="Helvetica,sans-Serif" font-size="10.00">VerticalCatenatorOp</text>
</a>
</g>
</g>
<!-- Node12&#45;&gt;Node14 -->
<g id="edge11" class="edge">
<title>Node12&#45;&gt;Node14</title>
<path fill="none" stroke="midnightblue" d="M448.79,-1394.51C483.99,-1389.04 531.81,-1381.62 568.91,-1375.86"/>
<polygon fill="midnightblue" stroke="midnightblue" points="448.1,-1391.07 438.75,-1396.06 449.17,-1397.99 448.1,-1391.07"/>
</g>
<!-- Node17 -->
<g id="node15" class="node">
<title>Node17</title>
<g id="a_node15"><a xlink:href="classdrain_1_1image_1_1GradientOp.html" target="_top" xlink:title="Computes spatial horizontal derivatives (dx and dy).">
<polygon fill="white" stroke="red" points="591,-1319.5 591,-1338.5 663,-1338.5 663,-1319.5 591,-1319.5"/>
<text text-anchor="middle" x="627" y="-1326.5" font-family="Helvetica,sans-Serif" font-size="10.00">GradientOp</text>
</a>
</g>
</g>
<!-- Node16&#45;&gt;Node17 -->
<g id="edge14" class="edge">
<title>Node16&#45;&gt;Node17</title>
<path fill="none" stroke="midnightblue" d="M452.78,-1326.7C495.16,-1327.26 553.72,-1328.04 590.72,-1328.53"/>
<polygon fill="midnightblue" stroke="midnightblue" points="452.7,-1323.19 442.65,-1326.56 452.6,-1330.19 452.7,-1323.19"/>
</g>
<!-- Node20 -->
<g id="node16" class="node">
<title>Node20</title>
<g id="a_node16"><a xlink:href="classdrain_1_1image_1_1LaplaceOp.html" target="_top" xlink:title="Computes second intensity derivatives.">
<polygon fill="white" stroke="red" points="593,-1281.5 593,-1300.5 661,-1300.5 661,-1281.5 593,-1281.5"/>
<text text-anchor="middle" x="627" y="-1288.5" font-family="Helvetica,sans-Serif" font-size="10.00">LaplaceOp</text>
</a>
</g>
</g>
<!-- Node16&#45;&gt;Node20 -->
<g id="edge15" class="edge">
<title>Node16&#45;&gt;Node20</title>
<path fill="none" stroke="midnightblue" d="M452.7,-1317.9C495.9,-1311.19 555.97,-1301.87 592.85,-1296.14"/>
<polygon fill="midnightblue" stroke="midnightblue" points="452,-1314.47 442.65,-1319.46 453.07,-1321.38 452,-1314.47"/>
</g>
<!-- Node24 -->
<g id="node18" class="node">
<title>Node24</title>
<g id="a_node18"><a xlink:href="classdrain_1_1image_1_1DistanceTransformFillOp.html" target="_top" xlink:title="Template for DistanceTransformFillLinearOp and DistanceTransformFillExponentialOp.">
<polygon fill="white" stroke="black" points="545,-1243.5 545,-1262.5 709,-1262.5 709,-1243.5 545,-1243.5"/>
<text text-anchor="middle" x="627" y="-1250.5" font-family="Helvetica,sans-Serif" font-size="10.00">DistanceTransformFillOp&lt; T &gt;</text>
</a>
</g>
</g>
<!-- Node23&#45;&gt;Node24 -->
<g id="edge17" class="edge">
<title>Node23&#45;&gt;Node24</title>
<path fill="none" stroke="midnightblue" d="M471.76,-1276.94C501.62,-1272.31 535.99,-1266.97 564.69,-1262.52"/>
<polygon fill="midnightblue" stroke="midnightblue" points="471.17,-1273.49 461.82,-1278.48 472.24,-1280.41 471.17,-1273.49"/>
</g>
</g>
</svg>
        <g id="navigator" transform="translate(0 0)" fill="#404254">
                <rect fill="#f2f5e9" fill-opacity="0.5" stroke="#606060" stroke-width=".5" x="0" y="0" width="60" height="60"/>
                <use id="zoomplus" xlink:href="#zoomPlus" x="17" y="9" onmousedown="handleZoom(evt,'in')"/>
                <use id="zoomminus" xlink:href="#zoomMin" x="42" y="9" onmousedown="handleZoom(evt,'out')"/>
                <use id="reset" xlink:href="#resetDef" x="30" y="36" onmousedown="handleReset()"/>
                <g id="arrowUp" xlink:href="#dirArrow" transform="translate(30 24)" onmousedown="handlePan(0,-1)">
                  <use xlink:href="#rim" fill="#404040">
                        <set attributeName="fill" to="#808080" begin="arrowUp.mouseover" end="arrowUp.mouseout"/>
                  </use>
                  <path fill="none" stroke="white" stroke-width="1.5" d="M0,-3.0v7 M-2.5,-0.5L0,-3.0L2.5,-0.5"/>
                </g>
                <g id="arrowRight" xlink:href="#dirArrow" transform="rotate(90) translate(36 -43)" onmousedown="handlePan(1,0)">
                  <use xlink:href="#rim" fill="#404040">
                        <set attributeName="fill" to="#808080" begin="arrowRight.mouseover" end="arrowRight.mouseout"/>
                  </use>
                  <path fill="none" stroke="white" stroke-width="1.5" d="M0,-3.0v7 M-2.5,-0.5L0,-3.0L2.5,-0.5"/>
                </g>
                <g id="arrowDown" xlink:href="#dirArrow" transform="rotate(180) translate(-30 -48)" onmousedown="handlePan(0,1)">
                  <use xlink:href="#rim" fill="#404040">
                        <set attributeName="fill" to="#808080" begin="arrowDown.mouseover" end="arrowDown.mouseout"/>
                  </use>
                  <path fill="none" stroke="white" stroke-width="1.5" d="M0,-3.0v7 M-2.5,-0.5L0,-3.0L2.5,-0.5"/>
                </g>
                <g id="arrowLeft" xlink:href="#dirArrow" transform="rotate(270) translate(-36 17)" onmousedown="handlePan(-1,0)">
                  <use xlink:href="#rim" fill="#404040">
                        <set attributeName="fill" to="#808080" begin="arrowLeft.mouseover" end="arrowLeft.mouseout"/>
                  </use>
                  <path fill="none" stroke="white" stroke-width="1.5" d="M0,-3.0v7 M-2.5,-0.5L0,-3.0L2.5,-0.5"/>
                </g>
        </g>
        <svg viewBox="0 0 15 15" width="100%" height="30px" preserveAspectRatio="xMaxYMin meet">
         <g id="arrow_out" transform="scale(0.3 0.3)">
          <a xlink:href="classdrain_1_1image_1_1ImageOp__inherit__graph_org.svg" target="_base">
           <rect id="button" ry="5" rx="5" y="6" x="6" height="38" width="38"
                fill="#f2f5e9" fill-opacity="0.5" stroke="#606060" stroke-width="1.0"/>
           <path id="arrow"
             d="M 11.500037,31.436501 C 11.940474,20.09759 22.043105,11.32322 32.158766,21.979434 L 37.068811,17.246167 C 37.068811,17.246167 37.088388,32 37.088388,32 L 22.160133,31.978069 C 22.160133,31.978069 26.997745,27.140456 26.997745,27.140456 C 18.528582,18.264221 13.291696,25.230495 11.500037,31.436501 z"
             style="fill:#404040;"/>
          </a>
         </g>
        </svg>
</svg>
