<?xml version="1.0" encoding="UTF-8" standalone="no"?>
<!DOCTYPE svg PUBLIC "-//W3C//DTD SVG 1.1//EN"
 "http://www.w3.org/Graphics/SVG/1.1/DTD/svg11.dtd">
<!-- Generated by graphviz version 2.43.0 (0)
 -->
<!-- Title: FloodFillOp Pages: 1 -->
<svg width="360pt" height="411pt"
 viewBox="0.00 0.00 360.00 411.00" xmlns="http://www.w3.org/2000/svg" xmlns:xlink="http://www.w3.org/1999/xlink">
<g id="graph0" class="graph" transform="scale(1 1) rotate(0) translate(4 407)">
<title>FloodFillOp</title>
<polygon fill="white" stroke="transparent" points="-4,4 -4,-407 356,-407 356,4 -4,4"/>
<!-- Node1 -->
<g id="node1" class="node">
<title>Node1</title>
<g id="a_node1"><a xlink:title="A fill operation for one color.">
<polygon fill="#bfbfbf" stroke="black" points="158.5,-0.5 158.5,-19.5 229.5,-19.5 229.5,-0.5 158.5,-0.5"/>
<text text-anchor="middle" x="194" y="-7.5" font-family="Helvetica,sans-Serif" font-size="10.00">FloodFillOp</text>
</a>
</g>
</g>
<!-- Node2 -->
<g id="node2" class="node">
<title>Node2</title>
<g id="a_node2"><a xlink:href="classdrain_1_1image_1_1ImageOp.html" target="_top" xlink:title="Base class for image processing functions.">
<polygon fill="white" stroke="black" points="163.5,-67.5 163.5,-86.5 224.5,-86.5 224.5,-67.5 163.5,-67.5"/>
<text text-anchor="middle" x="194" y="-74.5" font-family="Helvetica,sans-Serif" font-size="10.00">ImageOp</text>
</a>
</g>
</g>
<!-- Node2&#45;&gt;Node1 -->
<g id="edge1" class="edge">
<title>Node2&#45;&gt;Node1</title>
<path fill="none" stroke="midnightblue" d="M194,-57.04C194,-44.67 194,-29.12 194,-19.63"/>
<polygon fill="midnightblue" stroke="midnightblue" points="190.5,-57.23 194,-67.23 197.5,-57.23 190.5,-57.23"/>
</g>
<!-- Node3 -->
<g id="node3" class="node">
<title>Node3</title>
<g id="a_node3"><a xlink:href="classdrain_1_1image_1_1ImageMod.html" target="_top" xlink:title="Class for operations that modify an existing image instead of producing a new image.">
<polygon fill="white" stroke="black" points="160,-134.5 160,-153.5 228,-153.5 228,-134.5 160,-134.5"/>
<text text-anchor="middle" x="194" y="-141.5" font-family="Helvetica,sans-Serif" font-size="10.00">ImageMod</text>
</a>
</g>
</g>
<!-- Node3&#45;&gt;Node2 -->
<g id="edge2" class="edge">
<title>Node3&#45;&gt;Node2</title>
<path fill="none" stroke="midnightblue" d="M194,-124.04C194,-111.67 194,-96.12 194,-86.63"/>
<polygon fill="midnightblue" stroke="midnightblue" points="190.5,-124.23 194,-134.23 197.5,-124.23 190.5,-124.23"/>
</g>
<!-- Node4 -->
<g id="node4" class="node">
<title>Node4</title>
<g id="a_node4"><a xlink:href="classdrain_1_1BeanLike.html" target="_top" xlink:title="Something which has a name, a description and possibly some parameters of varying type.">
<polygon fill="white" stroke="black" points="175.5,-197 175.5,-216 236.5,-216 236.5,-197 175.5,-197"/>
<text text-anchor="middle" x="206" y="-204" font-family="Helvetica,sans-Serif" font-size="10.00">BeanLike</text>
</a>
</g>
</g>
<!-- Node4&#45;&gt;Node3 -->
<g id="edge3" class="edge">
<title>Node4&#45;&gt;Node3</title>
<path fill="none" stroke="midnightblue" d="M202.3,-186.85C200.11,-175.78 197.43,-162.27 195.72,-153.65"/>
<polygon fill="midnightblue" stroke="midnightblue" points="198.9,-187.7 204.28,-196.83 205.77,-186.34 198.9,-187.7"/>
</g>
<!-- Node5 -->
<g id="node5" class="node">
<title>Node5</title>
<g id="a_node5"><a xlink:href="classdrain_1_1ReferenceMap.html" target="_top" xlink:title=" ">
<polygon fill="white" stroke="black" points="162.5,-269.5 162.5,-288.5 249.5,-288.5 249.5,-269.5 162.5,-269.5"/>
<text text-anchor="middle" x="206" y="-276.5" font-family="Helvetica,sans-Serif" font-size="10.00">ReferenceMap</text>
</a>
</g>
</g>
<!-- Node5&#45;&gt;Node4 -->
<g id="edge4" class="edge">
<title>Node5&#45;&gt;Node4</title>
<path fill="none" stroke="#9a32cd" stroke-dasharray="5,2" d="M206,-258.94C206,-245.03 206,-226.82 206,-216.22"/>
<polygon fill="#9a32cd" stroke="#9a32cd" points="202.5,-259.36 206,-269.36 209.5,-259.36 202.5,-259.36"/>
<text text-anchor="middle" x="236" y="-243" font-family="Helvetica,sans-Serif" font-size="10.00"> parameters</text>
</g>
<!-- Node10 -->
<g id="node10" class="node">
<title>Node10</title>
<g id="a_node10"><a xlink:href="classdrain_1_1image_1_1SegmentProberConf.html" target="_top" xlink:title=" ">
<polygon fill="white" stroke="black" points="35,-191.5 35,-221.5 157,-221.5 157,-191.5 35,-191.5"/>
<text text-anchor="start" x="43" y="-209.5" font-family="Helvetica,sans-Serif" font-size="10.00">SegmentProberConf&lt;</text>
<text text-anchor="middle" x="96" y="-198.5" font-family="Helvetica,sans-Serif" font-size="10.00"> double, double &gt;</text>
</a>
</g>
</g>
<!-- Node5&#45;&gt;Node10 -->
<g id="edge10" class="edge">
<title>Node5&#45;&gt;Node10</title>
<path fill="none" stroke="midnightblue" d="M183.85,-263.8C164.67,-251.51 137.08,-233.83 117.96,-221.58"/>
<polygon fill="midnightblue" stroke="midnightblue" points="182.2,-266.91 192.51,-269.36 185.98,-261.01 182.2,-266.91"/>
</g>
<!-- Node6 -->
<g id="node6" class="node">
<title>Node6</title>
<g id="a_node6"><a xlink:href="classdrain_1_1SmartMap.html" target="_top" xlink:title=" ">
<polygon fill="white" stroke="black" points="144.5,-326.5 144.5,-345.5 287.5,-345.5 287.5,-326.5 144.5,-326.5"/>
<text text-anchor="middle" x="216" y="-333.5" font-family="Helvetica,sans-Serif" font-size="10.00">SmartMap&lt; Referencer &gt;</text>
</a>
</g>
</g>
<!-- Node6&#45;&gt;Node5 -->
<g id="edge5" class="edge">
<title>Node6&#45;&gt;Node5</title>
<path fill="none" stroke="midnightblue" d="M212.62,-316.42C210.92,-307.05 208.93,-296.14 207.58,-288.71"/>
<polygon fill="midnightblue" stroke="midnightblue" points="209.21,-317.19 214.44,-326.41 216.09,-315.94 209.21,-317.19"/>
</g>
<!-- Node7 -->
<g id="node7" class="node">
<title>Node7</title>
<g id="a_node7"><a xlink:title=" ">
<polygon fill="white" stroke="#bfbfbf" points="131.5,-383.5 131.5,-402.5 300.5,-402.5 300.5,-383.5 131.5,-383.5"/>
<text text-anchor="middle" x="216" y="-390.5" font-family="Helvetica,sans-Serif" font-size="10.00">map&lt; std::string, Referencer &gt;</text>
</a>
</g>
</g>
<!-- Node7&#45;&gt;Node6 -->
<g id="edge6" class="edge">
<title>Node7&#45;&gt;Node6</title>
<path fill="none" stroke="midnightblue" d="M216,-373.12C216,-363.82 216,-353.06 216,-345.71"/>
<polygon fill="midnightblue" stroke="midnightblue" points="212.5,-373.41 216,-383.41 219.5,-373.41 212.5,-373.41"/>
</g>
<!-- Node8 -->
<g id="node8" class="node">
<title>Node8</title>
<g id="a_node8"><a xlink:href="structdrain_1_1Point2D.html" target="_top" xlink:title=" ">
<polygon fill="white" stroke="black" points="249,-67.5 249,-86.5 339,-86.5 339,-67.5 249,-67.5"/>
<text text-anchor="middle" x="294" y="-74.5" font-family="Helvetica,sans-Serif" font-size="10.00">Point2D&lt; int &gt;</text>
</a>
</g>
</g>
<!-- Node8&#45;&gt;Node1 -->
<g id="edge7" class="edge">
<title>Node8&#45;&gt;Node1</title>
<path fill="none" stroke="#9a32cd" stroke-dasharray="5,2" d="M272.11,-61.77C252.31,-48.9 223.81,-30.38 207.27,-19.63"/>
<polygon fill="#9a32cd" stroke="#9a32cd" points="270.22,-64.72 280.51,-67.23 274.04,-58.85 270.22,-64.72"/>
<text text-anchor="middle" x="275.5" y="-41" font-family="Helvetica,sans-Serif" font-size="10.00"> startPoint</text>
</g>
<!-- Node9 -->
<g id="node9" class="node">
<title>Node9</title>
<g id="a_node9"><a xlink:href="classdrain_1_1UniTuple.html" target="_top" xlink:title=" ">
<polygon fill="white" stroke="black" points="246,-134.5 246,-153.5 352,-153.5 352,-134.5 246,-134.5"/>
<text text-anchor="middle" x="299" y="-141.5" font-family="Helvetica,sans-Serif" font-size="10.00">UniTuple&lt; int, 2 &gt;</text>
</a>
</g>
</g>
<!-- Node9&#45;&gt;Node8 -->
<g id="edge8" class="edge">
<title>Node9&#45;&gt;Node8</title>
<path fill="none" stroke="midnightblue" d="M297.54,-124.04C296.59,-111.67 295.39,-96.12 294.66,-86.63"/>
<polygon fill="midnightblue" stroke="midnightblue" points="294.07,-124.53 298.33,-134.23 301.05,-123.99 294.07,-124.53"/>
</g>
<!-- Node10&#45;&gt;Node1 -->
<g id="edge9" class="edge">
<title>Node10&#45;&gt;Node1</title>
<path fill="none" stroke="#9a32cd" stroke-dasharray="5,2" d="M104.21,-181.46C114.26,-153.22 132.62,-105.36 154,-67 163.89,-49.26 178.28,-30.38 186.84,-19.71"/>
<polygon fill="#9a32cd" stroke="#9a32cd" points="100.78,-180.66 100.77,-191.26 107.38,-182.98 100.78,-180.66"/>
<text text-anchor="middle" x="147.5" y="-108" font-family="Helvetica,sans-Serif" font-size="10.00"> conf</text>
</g>
<!-- Node11 -->
<g id="node11" class="node">
<title>Node11</title>
<g id="a_node11"><a xlink:href="classdrain_1_1Range.html" target="_top" xlink:title=" ">
<polygon fill="white" stroke="black" points="31.5,-269.5 31.5,-288.5 134.5,-288.5 134.5,-269.5 31.5,-269.5"/>
<text text-anchor="middle" x="83" y="-276.5" font-family="Helvetica,sans-Serif" font-size="10.00">Range&lt; double &gt;</text>
</a>
</g>
</g>
<!-- Node11&#45;&gt;Node10 -->
<g id="edge11" class="edge">
<title>Node11&#45;&gt;Node10</title>
<path fill="none" stroke="#9a32cd" stroke-dasharray="5,2" d="M86.46,-259.24C88.64,-247.41 91.41,-232.38 93.4,-221.58"/>
<polygon fill="#9a32cd" stroke="#9a32cd" points="82.97,-258.89 84.59,-269.36 89.85,-260.16 82.97,-258.89"/>
<text text-anchor="middle" x="108.5" y="-243" font-family="Helvetica,sans-Serif" font-size="10.00"> anchor</text>
</g>
<!-- Node12 -->
<g id="node12" class="node">
<title>Node12</title>
<g id="a_node12"><a xlink:href="classdrain_1_1UniTuple.html" target="_top" xlink:title=" ">
<polygon fill="white" stroke="black" points="0,-326.5 0,-345.5 126,-345.5 126,-326.5 0,-326.5"/>
<text text-anchor="middle" x="63" y="-333.5" font-family="Helvetica,sans-Serif" font-size="10.00">UniTuple&lt; double, 2 &gt;</text>
</a>
</g>
</g>
<!-- Node12&#45;&gt;Node11 -->
<g id="edge12" class="edge">
<title>Node12&#45;&gt;Node11</title>
<path fill="none" stroke="midnightblue" d="M69.64,-316.73C73.08,-307.29 77.1,-296.22 79.83,-288.71"/>
<polygon fill="midnightblue" stroke="midnightblue" points="66.25,-315.81 66.12,-326.41 72.83,-318.2 66.25,-315.81"/>
</g>
</g>
</svg>
