<?xml version="1.0" encoding="UTF-8" standalone="no"?>
<!DOCTYPE svg PUBLIC "-//W3C//DTD SVG 1.1//EN"
 "http://www.w3.org/Graphics/SVG/1.1/DTD/svg11.dtd">
<!-- Generated by graphviz version 2.43.0 (0)
 -->
<!-- Title: CartesianBBoxTile Pages: 1 -->
<!--zoomable 546 -->
<svg id="main" version="1.1" xmlns="http://www.w3.org/2000/svg" xmlns:xlink="http://www.w3.org/1999/xlink" xml:space="preserve" onload="init(evt)">
<style type="text/css"><![CDATA[
.edge:hover path { stroke: red; }
.edge:hover polygon { stroke: red; fill: red; }
]]></style>
<script type="text/javascript"><![CDATA[
var edges = document.getElementsByTagName('g');
if (edges && edges.length) {
  for (var i=0;i<edges.length;i++) {
    if (edges[i].id.substr(0,4)=='edge') {
      edges[i].setAttribute('class','edge');
    }
  }
}
]]></script>
        <defs>
                <circle id="rim" cx="0" cy="0" r="7"/>
                <circle id="rim2" cx="0" cy="0" r="3.5"/>
                <g id="zoomPlus">
                        <use xlink:href="#rim" fill="#404040">
                                <set attributeName="fill" to="#808080" begin="zoomplus.mouseover" end="zoomplus.mouseout"/>
                        </use>
                        <path d="M-4,0h8M0,-4v8" fill="none" stroke="white" stroke-width="1.5" pointer-events="none"/>
                </g>
                <g id="zoomMin">
                        <use xlink:href="#rim" fill="#404040">
                                <set attributeName="fill" to="#808080" begin="zoomminus.mouseover" end="zoomminus.mouseout"/>
                        </use>
                        <path d="M-4,0h8" fill="none" stroke="white" stroke-width="1.5" pointer-events="none"/>
                </g>
                <g id="dirArrow">
                        <path fill="none" stroke="white" stroke-width="1.5" d="M0,-3.0v7 M-2.5,-0.5L0,-3.0L2.5,-0.5"/>
                </g>
               <g id="resetDef">
                       <use xlink:href="#rim2" fill="#404040">
                               <set attributeName="fill" to="#808080" begin="reset.mouseover" end="reset.mouseout"/>
                       </use>
               </g>
        </defs>

<script type="text/javascript">
var viewWidth = 615;
var viewHeight = 546;
var sectionId = 'dynsection-1';
</script>
<script xlink:href="svgpan.js"/>
<svg id="graph" class="graph">
<g id="viewport">
<title>CartesianBBoxTile</title>
<polygon fill="white" stroke="transparent" points="-4,4 -4,-542 611,-542 611,4 -4,4"/>
<!-- Node1 -->
<g id="node1" class="node">
<title>Node1</title>
<g id="a_node1"><a xlink:title=" ">
<polygon fill="#bfbfbf" stroke="black" points="292,-0.5 292,-19.5 398,-19.5 398,-0.5 292,-0.5"/>
<text text-anchor="middle" x="345" y="-7.5" font-family="Helvetica,sans-Serif" font-size="10.00">CartesianBBoxTile</text>
</a>
</g>
</g>
<!-- Node2 -->
<g id="node2" class="node">
<title>Node2</title>
<g id="a_node2"><a xlink:href="classdrain_1_1BasicCommand.html" target="_top" xlink:title="Simple implementation of Command: adds name , description and parameters .">
<polygon fill="white" stroke="black" points="236.5,-67.5 236.5,-86.5 329.5,-86.5 329.5,-67.5 236.5,-67.5"/>
<text text-anchor="middle" x="283" y="-74.5" font-family="Helvetica,sans-Serif" font-size="10.00">BasicCommand</text>
</a>
</g>
</g>
<!-- Node2&#45;&gt;Node1 -->
<g id="edge1" class="edge">
<title>Node2&#45;&gt;Node1</title>
<path fill="none" stroke="midnightblue" d="M298.26,-60C310.42,-47.25 326.98,-29.89 336.77,-19.63"/>
<polygon fill="midnightblue" stroke="midnightblue" points="295.73,-57.58 291.36,-67.23 300.8,-62.41 295.73,-57.58"/>
</g>
<!-- Node3 -->
<g id="node3" class="node">
<title>Node3</title>
<g id="a_node3"><a xlink:href="classdrain_1_1Command.html" target="_top" xlink:title="Base class for commands: typically actions taking parameters but also plain variable assignments and ...">
<polygon fill="white" stroke="black" points="151.5,-145.5 151.5,-164.5 218.5,-164.5 218.5,-145.5 151.5,-145.5"/>
<text text-anchor="middle" x="185" y="-152.5" font-family="Helvetica,sans-Serif" font-size="10.00">Command</text>
</a>
</g>
</g>
<!-- Node3&#45;&gt;Node2 -->
<g id="edge2" class="edge">
<title>Node3&#45;&gt;Node2</title>
<path fill="none" stroke="midnightblue" d="M204.15,-139.15C224.33,-123.5 255.43,-99.38 271.89,-86.62"/>
<polygon fill="midnightblue" stroke="midnightblue" points="202,-136.39 196.24,-145.28 206.29,-141.92 202,-136.39"/>
</g>
<!-- Node4 -->
<g id="node4" class="node">
<title>Node4</title>
<g id="a_node4"><a xlink:href="classdrain_1_1Contextual.html" target="_top" xlink:title=" ">
<polygon fill="white" stroke="black" points="124,-202.5 124,-221.5 194,-221.5 194,-202.5 124,-202.5"/>
<text text-anchor="middle" x="159" y="-209.5" font-family="Helvetica,sans-Serif" font-size="10.00">Contextual</text>
</a>
</g>
</g>
<!-- Node4&#45;&gt;Node3 -->
<g id="edge3" class="edge">
<title>Node4&#45;&gt;Node3</title>
<path fill="none" stroke="midnightblue" d="M167.35,-193.33C171.87,-183.77 177.26,-172.38 180.88,-164.71"/>
<polygon fill="midnightblue" stroke="midnightblue" points="164.17,-191.87 163.06,-202.41 170.5,-194.86 164.17,-191.87"/>
</g>
<!-- Node5 -->
<g id="node5" class="node">
<title>Node5</title>
<g id="a_node5"><a xlink:href="classdrain_1_1Context.html" target="_top" xlink:title=" ">
<polygon fill="white" stroke="black" points="128.5,-269.5 128.5,-288.5 183.5,-288.5 183.5,-269.5 128.5,-269.5"/>
<text text-anchor="middle" x="156" y="-276.5" font-family="Helvetica,sans-Serif" font-size="10.00">Context</text>
</a>
</g>
</g>
<!-- Node5&#45;&gt;Node4 -->
<g id="edge4" class="edge">
<title>Node5&#45;&gt;Node4</title>
<path fill="none" stroke="#9a32cd" stroke-dasharray="5,2" d="M156.88,-259.04C157.45,-246.67 158.16,-231.12 158.6,-221.63"/>
<polygon fill="#9a32cd" stroke="#9a32cd" points="153.37,-259.08 156.4,-269.23 160.36,-259.41 153.37,-259.08"/>
<text text-anchor="middle" x="185" y="-243" font-family="Helvetica,sans-Serif" font-size="10.00"> contextPtr</text>
</g>
<!-- Node6 -->
<g id="node6" class="node">
<title>Node6</title>
<g id="a_node6"><a xlink:href="classdrain_1_1VariableMap.html" target="_top" xlink:title="A map of Variables.">
<polygon fill="white" stroke="black" points="39,-336.5 39,-355.5 117,-355.5 117,-336.5 39,-336.5"/>
<text text-anchor="middle" x="78" y="-343.5" font-family="Helvetica,sans-Serif" font-size="10.00">VariableMap</text>
</a>
</g>
</g>
<!-- Node6&#45;&gt;Node5 -->
<g id="edge5" class="edge">
<title>Node6&#45;&gt;Node5</title>
<path fill="none" stroke="#9a32cd" stroke-dasharray="5,2" d="M84.01,-327.04C87.03,-320.09 91.3,-312.51 97,-307 105.75,-298.55 117.62,-292.42 128.42,-288.16"/>
<polygon fill="#9a32cd" stroke="#9a32cd" points="80.71,-325.84 80.43,-336.44 87.26,-328.33 80.71,-325.84"/>
<text text-anchor="middle" x="124.5" y="-310" font-family="Helvetica,sans-Serif" font-size="10.00"> statusMap</text>
</g>
<!-- Node7 -->
<g id="node7" class="node">
<title>Node7</title>
<g id="a_node7"><a xlink:href="classdrain_1_1SmartMap.html" target="_top" xlink:title=" ">
<polygon fill="white" stroke="black" points="13,-399 13,-418 143,-418 143,-399 13,-399"/>
<text text-anchor="middle" x="78" y="-406" font-family="Helvetica,sans-Serif" font-size="10.00">SmartMap&lt; Variable &gt;</text>
</a>
</g>
</g>
<!-- Node7&#45;&gt;Node6 -->
<g id="edge6" class="edge">
<title>Node7&#45;&gt;Node6</title>
<path fill="none" stroke="midnightblue" d="M78,-388.5C78,-377.5 78,-364.18 78,-355.65"/>
<polygon fill="midnightblue" stroke="midnightblue" points="74.5,-388.83 78,-398.83 81.5,-388.83 74.5,-388.83"/>
</g>
<!-- Node8 -->
<g id="node8" class="node">
<title>Node8</title>
<g id="a_node8"><a xlink:title=" ">
<polygon fill="white" stroke="#bfbfbf" points="0,-461.5 0,-480.5 156,-480.5 156,-461.5 0,-461.5"/>
<text text-anchor="middle" x="78" y="-468.5" font-family="Helvetica,sans-Serif" font-size="10.00">map&lt; std::string, Variable &gt;</text>
</a>
</g>
</g>
<!-- Node8&#45;&gt;Node7 -->
<g id="edge7" class="edge">
<title>Node8&#45;&gt;Node7</title>
<path fill="none" stroke="midnightblue" d="M78,-451C78,-440 78,-426.68 78,-418.15"/>
<polygon fill="midnightblue" stroke="midnightblue" points="74.5,-451.33 78,-461.33 81.5,-451.33 74.5,-451.33"/>
</g>
<!-- Node9 -->
<g id="node9" class="node">
<title>Node9</title>
<g id="a_node9"><a xlink:href="classdrain_1_1Log.html" target="_top" xlink:title="Handler for notifications sent by a Logger.">
<polygon fill="white" stroke="black" points="139,-336.5 139,-355.5 173,-355.5 173,-336.5 139,-336.5"/>
<text text-anchor="middle" x="156" y="-343.5" font-family="Helvetica,sans-Serif" font-size="10.00">Log</text>
</a>
</g>
</g>
<!-- Node9&#45;&gt;Node5 -->
<g id="edge8" class="edge">
<title>Node9&#45;&gt;Node5</title>
<path fill="none" stroke="#9a32cd" stroke-dasharray="5,2" d="M156,-326.04C156,-313.67 156,-298.12 156,-288.63"/>
<polygon fill="#9a32cd" stroke="#9a32cd" points="152.5,-326.23 156,-336.23 159.5,-326.23 152.5,-326.23"/>
<text text-anchor="middle" x="165.5" y="-310" font-family="Helvetica,sans-Serif" font-size="10.00"> log</text>
</g>
<!-- Node10 -->
<g id="node10" class="node">
<title>Node10</title>
<g id="a_node10"><a xlink:href="classdrain_1_1StatusFlags.html" target="_top" xlink:title=" ">
<polygon fill="white" stroke="black" points="191,-336.5 191,-355.5 265,-355.5 265,-336.5 191,-336.5"/>
<text text-anchor="middle" x="228" y="-343.5" font-family="Helvetica,sans-Serif" font-size="10.00">StatusFlags</text>
</a>
</g>
</g>
<!-- Node10&#45;&gt;Node5 -->
<g id="edge9" class="edge">
<title>Node10&#45;&gt;Node5</title>
<path fill="none" stroke="#9a32cd" stroke-dasharray="5,2" d="M210.67,-329.36C196.52,-316.58 177.04,-298.99 165.56,-288.63"/>
<polygon fill="#9a32cd" stroke="#9a32cd" points="208.52,-332.13 218.29,-336.23 213.21,-326.93 208.52,-332.13"/>
<text text-anchor="middle" x="227" y="-310" font-family="Helvetica,sans-Serif" font-size="10.00"> statusFlags</text>
</g>
<!-- Node11 -->
<g id="node11" class="node">
<title>Node11</title>
<g id="a_node11"><a xlink:href="classdrain_1_1GlobalFlags.html" target="_top" xlink:title=" ">
<polygon fill="white" stroke="black" points="170,-393.5 170,-423.5 286,-423.5 286,-393.5 170,-393.5"/>
<text text-anchor="start" x="178" y="-411.5" font-family="Helvetica,sans-Serif" font-size="10.00">GlobalFlags&lt; status</text>
<text text-anchor="middle" x="228" y="-400.5" font-family="Helvetica,sans-Serif" font-size="10.00">_flag_id &gt;</text>
</a>
</g>
</g>
<!-- Node11&#45;&gt;Node10 -->
<g id="edge10" class="edge">
<title>Node11&#45;&gt;Node10</title>
<path fill="none" stroke="midnightblue" d="M228,-383.35C228,-373.51 228,-362.78 228,-355.54"/>
<polygon fill="midnightblue" stroke="midnightblue" points="224.5,-383.47 228,-393.47 231.5,-383.47 224.5,-383.47"/>
</g>
<!-- Node12 -->
<g id="node12" class="node">
<title>Node12</title>
<g id="a_node12"><a xlink:href="classdrain_1_1Flagger.html" target="_top" xlink:title="Bit vector accessible also with integer values associated with strings.">
<polygon fill="white" stroke="black" points="201.5,-461.5 201.5,-480.5 254.5,-480.5 254.5,-461.5 201.5,-461.5"/>
<text text-anchor="middle" x="228" y="-468.5" font-family="Helvetica,sans-Serif" font-size="10.00">Flagger</text>
</a>
</g>
</g>
<!-- Node12&#45;&gt;Node11 -->
<g id="edge11" class="edge">
<title>Node12&#45;&gt;Node11</title>
<path fill="none" stroke="midnightblue" d="M228,-451.22C228,-442.36 228,-431.96 228,-423.76"/>
<polygon fill="midnightblue" stroke="midnightblue" points="224.5,-451.33 228,-461.33 231.5,-451.33 224.5,-451.33"/>
</g>
<!-- Node13 -->
<g id="node13" class="node">
<title>Node13</title>
<g id="a_node13"><a xlink:href="classdrain_1_1FlagResolver.html" target="_top" xlink:title="Referencing a dictionary of binary values: {&quot;A&quot;,1: &quot;B&quot;:2, &quot;C&quot;: 4, &quot;D&quot;: 8, ...} resolves two&#45;way mappi...">
<polygon fill="white" stroke="black" points="188,-518.5 188,-537.5 268,-537.5 268,-518.5 188,-518.5"/>
<text text-anchor="middle" x="228" y="-525.5" font-family="Helvetica,sans-Serif" font-size="10.00">FlagResolver</text>
</a>
</g>
</g>
<!-- Node13&#45;&gt;Node12 -->
<g id="edge12" class="edge">
<title>Node13&#45;&gt;Node12</title>
<path fill="none" stroke="midnightblue" d="M228,-508.12C228,-498.82 228,-488.06 228,-480.71"/>
<polygon fill="midnightblue" stroke="midnightblue" points="224.5,-508.41 228,-518.41 231.5,-508.41 224.5,-508.41"/>
</g>
<!-- Node14 -->
<g id="node14" class="node">
<title>Node14</title>
<g id="a_node14"><a xlink:href="classdrain_1_1ReferenceMap.html" target="_top" xlink:title=" ">
<polygon fill="white" stroke="black" points="239.5,-145.5 239.5,-164.5 326.5,-164.5 326.5,-145.5 239.5,-145.5"/>
<text text-anchor="middle" x="283" y="-152.5" font-family="Helvetica,sans-Serif" font-size="10.00">ReferenceMap</text>
</a>
</g>
</g>
<!-- Node14&#45;&gt;Node2 -->
<g id="edge13" class="edge">
<title>Node14&#45;&gt;Node2</title>
<path fill="none" stroke="#9a32cd" stroke-dasharray="5,2" d="M283,-135.22C283,-119.7 283,-98.36 283,-86.62"/>
<polygon fill="#9a32cd" stroke="#9a32cd" points="279.5,-135.28 283,-145.28 286.5,-135.28 279.5,-135.28"/>
<text text-anchor="middle" x="313" y="-113.5" font-family="Helvetica,sans-Serif" font-size="10.00"> parameters</text>
</g>
<!-- Node15 -->
<g id="node15" class="node">
<title>Node15</title>
<g id="a_node15"><a xlink:href="classdrain_1_1SmartMap.html" target="_top" xlink:title=" ">
<polygon fill="white" stroke="black" points="213.5,-202.5 213.5,-221.5 356.5,-221.5 356.5,-202.5 213.5,-202.5"/>
<text text-anchor="middle" x="285" y="-209.5" font-family="Helvetica,sans-Serif" font-size="10.00">SmartMap&lt; Referencer &gt;</text>
</a>
</g>
</g>
<!-- Node15&#45;&gt;Node14 -->
<g id="edge14" class="edge">
<title>Node15&#45;&gt;Node14</title>
<path fill="none" stroke="midnightblue" d="M284.31,-192.12C283.98,-182.82 283.58,-172.06 283.32,-164.71"/>
<polygon fill="midnightblue" stroke="midnightblue" points="280.83,-192.54 284.69,-202.41 287.82,-192.29 280.83,-192.54"/>
</g>
<!-- Node16 -->
<g id="node16" class="node">
<title>Node16</title>
<g id="a_node16"><a xlink:title=" ">
<polygon fill="white" stroke="#bfbfbf" points="201.5,-269.5 201.5,-288.5 370.5,-288.5 370.5,-269.5 201.5,-269.5"/>
<text text-anchor="middle" x="286" y="-276.5" font-family="Helvetica,sans-Serif" font-size="10.00">map&lt; std::string, Referencer &gt;</text>
</a>
</g>
</g>
<!-- Node16&#45;&gt;Node15 -->
<g id="edge15" class="edge">
<title>Node16&#45;&gt;Node15</title>
<path fill="none" stroke="midnightblue" d="M285.71,-259.04C285.52,-246.67 285.28,-231.12 285.13,-221.63"/>
<polygon fill="midnightblue" stroke="midnightblue" points="282.21,-259.29 285.87,-269.23 289.21,-259.18 282.21,-259.29"/>
</g>
<!-- Node17 -->
<g id="node17" class="node">
<title>Node17</title>
<g id="a_node17"><a xlink:href="structdrain_1_1Rectangle.html" target="_top" xlink:title=" ">
<polygon fill="white" stroke="black" points="347.5,-67.5 347.5,-86.5 468.5,-86.5 468.5,-67.5 347.5,-67.5"/>
<text text-anchor="middle" x="408" y="-74.5" font-family="Helvetica,sans-Serif" font-size="10.00">Rectangle&lt; double &gt;</text>
</a>
</g>
</g>
<!-- Node17&#45;&gt;Node1 -->
<g id="edge16" class="edge">
<title>Node17&#45;&gt;Node1</title>
<path fill="none" stroke="#9a32cd" stroke-dasharray="5,2" d="M392.49,-60C380.13,-47.25 363.31,-29.89 353.36,-19.63"/>
<polygon fill="#9a32cd" stroke="#9a32cd" points="390.03,-62.49 399.5,-67.23 395.06,-57.62 390.03,-62.49"/>
<text text-anchor="middle" x="395" y="-41" font-family="Helvetica,sans-Serif" font-size="10.00"> bbox</text>
</g>
<!-- Node18 -->
<g id="node18" class="node">
<title>Node18</title>
<g id="a_node18"><a xlink:href="classdrain_1_1UniTuple.html" target="_top" xlink:title=" ">
<polygon fill="white" stroke="black" points="345,-145.5 345,-164.5 471,-164.5 471,-145.5 345,-145.5"/>
<text text-anchor="middle" x="408" y="-152.5" font-family="Helvetica,sans-Serif" font-size="10.00">UniTuple&lt; double, 4 &gt;</text>
</a>
</g>
</g>
<!-- Node18&#45;&gt;Node17 -->
<g id="edge17" class="edge">
<title>Node18&#45;&gt;Node17</title>
<path fill="none" stroke="midnightblue" d="M408,-135.22C408,-119.7 408,-98.36 408,-86.62"/>
<polygon fill="midnightblue" stroke="midnightblue" points="404.5,-135.28 408,-145.28 411.5,-135.28 404.5,-135.28"/>
</g>
<!-- Node19 -->
<g id="node19" class="node">
<title>Node19</title>
<g id="a_node19"><a xlink:href="structdrain_1_1Point2D.html" target="_top" xlink:title=" ">
<polygon fill="white" stroke="black" points="489,-145.5 489,-164.5 599,-164.5 599,-145.5 489,-145.5"/>
<text text-anchor="middle" x="544" y="-152.5" font-family="Helvetica,sans-Serif" font-size="10.00">Point2D&lt; double &gt;</text>
</a>
</g>
</g>
<!-- Node19&#45;&gt;Node17 -->
<g id="edge18" class="edge">
<title>Node19&#45;&gt;Node17</title>
<path fill="none" stroke="#9a32cd" stroke-dasharray="5,2" d="M519.57,-140.35C491.7,-124.77 446.95,-99.76 423.49,-86.66"/>
<polygon fill="#9a32cd" stroke="#9a32cd" points="518.23,-143.61 528.66,-145.43 521.64,-137.5 518.23,-143.61"/>
<text text-anchor="middle" x="520" y="-119" font-family="Helvetica,sans-Serif" font-size="10.00"> lowerLeft</text>
<text text-anchor="middle" x="520" y="-108" font-family="Helvetica,sans-Serif" font-size="10.00">upperRight</text>
</g>
<!-- Node20 -->
<g id="node20" class="node">
<title>Node20</title>
<g id="a_node20"><a xlink:href="classdrain_1_1UniTuple.html" target="_top" xlink:title=" ">
<polygon fill="white" stroke="black" points="481,-202.5 481,-221.5 607,-221.5 607,-202.5 481,-202.5"/>
<text text-anchor="middle" x="544" y="-209.5" font-family="Helvetica,sans-Serif" font-size="10.00">UniTuple&lt; double, 2 &gt;</text>
</a>
</g>
</g>
<!-- Node20&#45;&gt;Node19 -->
<g id="edge19" class="edge">
<title>Node20&#45;&gt;Node19</title>
<path fill="none" stroke="midnightblue" d="M544,-192.12C544,-182.82 544,-172.06 544,-164.71"/>
<polygon fill="midnightblue" stroke="midnightblue" points="540.5,-192.41 544,-202.41 547.5,-192.41 540.5,-192.41"/>
</g>
</g>
</svg>
        <g id="navigator" transform="translate(0 0)" fill="#404254">
                <rect fill="#f2f5e9" fill-opacity="0.5" stroke="#606060" stroke-width=".5" x="0" y="0" width="60" height="60"/>
                <use id="zoomplus" xlink:href="#zoomPlus" x="17" y="9" onmousedown="handleZoom(evt,'in')"/>
                <use id="zoomminus" xlink:href="#zoomMin" x="42" y="9" onmousedown="handleZoom(evt,'out')"/>
                <use id="reset" xlink:href="#resetDef" x="30" y="36" onmousedown="handleReset()"/>
                <g id="arrowUp" xlink:href="#dirArrow" transform="translate(30 24)" onmousedown="handlePan(0,-1)">
                  <use xlink:href="#rim" fill="#404040">
                        <set attributeName="fill" to="#808080" begin="arrowUp.mouseover" end="arrowUp.mouseout"/>
                  </use>
                  <path fill="none" stroke="white" stroke-width="1.5" d="M0,-3.0v7 M-2.5,-0.5L0,-3.0L2.5,-0.5"/>
                </g>
                <g id="arrowRight" xlink:href="#dirArrow" transform="rotate(90) translate(36 -43)" onmousedown="handlePan(1,0)">
                  <use xlink:href="#rim" fill="#404040">
                        <set attributeName="fill" to="#808080" begin="arrowRight.mouseover" end="arrowRight.mouseout"/>
                  </use>
                  <path fill="none" stroke="white" stroke-width="1.5" d="M0,-3.0v7 M-2.5,-0.5L0,-3.0L2.5,-0.5"/>
                </g>
                <g id="arrowDown" xlink:href="#dirArrow" transform="rotate(180) translate(-30 -48)" onmousedown="handlePan(0,1)">
                  <use xlink:href="#rim" fill="#404040">
                        <set attributeName="fill" to="#808080" begin="arrowDown.mouseover" end="arrowDown.mouseout"/>
                  </use>
                  <path fill="none" stroke="white" stroke-width="1.5" d="M0,-3.0v7 M-2.5,-0.5L0,-3.0L2.5,-0.5"/>
                </g>
                <g id="arrowLeft" xlink:href="#dirArrow" transform="rotate(270) translate(-36 17)" onmousedown="handlePan(-1,0)">
                  <use xlink:href="#rim" fill="#404040">
                        <set attributeName="fill" to="#808080" begin="arrowLeft.mouseover" end="arrowLeft.mouseout"/>
                  </use>
                  <path fill="none" stroke="white" stroke-width="1.5" d="M0,-3.0v7 M-2.5,-0.5L0,-3.0L2.5,-0.5"/>
                </g>
        </g>
        <svg viewBox="0 0 15 15" width="100%" height="30px" preserveAspectRatio="xMaxYMin meet">
         <g id="arrow_out" transform="scale(0.3 0.3)">
          <a xlink:href="classrack_1_1CartesianBBoxTile__coll__graph_org.svg" target="_base">
           <rect id="button" ry="5" rx="5" y="6" x="6" height="38" width="38"
                fill="#f2f5e9" fill-opacity="0.5" stroke="#606060" stroke-width="1.0"/>
           <path id="arrow"
             d="M 11.500037,31.436501 C 11.940474,20.09759 22.043105,11.32322 32.158766,21.979434 L 37.068811,17.246167 C 37.068811,17.246167 37.088388,32 37.088388,32 L 22.160133,31.978069 C 22.160133,31.978069 26.997745,27.140456 26.997745,27.140456 C 18.528582,18.264221 13.291696,25.230495 11.500037,31.436501 z"
             style="fill:#404040;"/>
          </a>
         </g>
        </svg>
</svg>
