<?xml version="1.0" encoding="UTF-8" standalone="no"?>
<!DOCTYPE svg PUBLIC "-//W3C//DTD SVG 1.1//EN"
 "http://www.w3.org/Graphics/SVG/1.1/DTD/svg11.dtd">
<!-- Generated by graphviz version 2.43.0 (0)
 -->
<!-- Title: CartesianODIM Pages: 1 -->
<svg width="553pt" height="374pt"
 viewBox="0.00 0.00 552.50 374.00" xmlns="http://www.w3.org/2000/svg" xmlns:xlink="http://www.w3.org/1999/xlink">
<g id="graph0" class="graph" transform="scale(1 1) rotate(0) translate(4 370)">
<title>CartesianODIM</title>
<polygon fill="white" stroke="transparent" points="-4,4 -4,-370 548.5,-370 548.5,4 -4,4"/>
<!-- Node1 -->
<g id="node1" class="node">
<title>Node1</title>
<g id="a_node1"><a xlink:title="Metadata structure for Cartesian radar data products (single&#45;radar or composites).">
<polygon fill="#bfbfbf" stroke="black" points="349.5,-0.5 349.5,-19.5 439.5,-19.5 439.5,-0.5 349.5,-0.5"/>
<text text-anchor="middle" x="394.5" y="-7.5" font-family="Helvetica,sans-Serif" font-size="10.00">CartesianODIM</text>
</a>
</g>
</g>
<!-- Node2 -->
<g id="node2" class="node">
<title>Node2</title>
<g id="a_node2"><a xlink:href="classrack_1_1ODIM.html" target="_top" xlink:title="ODIM metadata (quantity, gain, offset, undetect, nodata, date, time)">
<polygon fill="white" stroke="black" points="372.5,-57.5 372.5,-76.5 416.5,-76.5 416.5,-57.5 372.5,-57.5"/>
<text text-anchor="middle" x="394.5" y="-64.5" font-family="Helvetica,sans-Serif" font-size="10.00">ODIM</text>
</a>
</g>
</g>
<!-- Node2&#45;&gt;Node1 -->
<g id="edge1" class="edge">
<title>Node2&#45;&gt;Node1</title>
<path fill="none" stroke="midnightblue" d="M394.5,-47.12C394.5,-37.82 394.5,-27.06 394.5,-19.71"/>
<polygon fill="midnightblue" stroke="midnightblue" points="391,-47.41 394.5,-57.41 398,-47.41 391,-47.41"/>
</g>
<!-- Node3 -->
<g id="node3" class="node">
<title>Node3</title>
<g id="a_node3"><a xlink:href="classrack_1_1EncodingODIM.html" target="_top" xlink:title="Structure for data storage type, scaling and marker codes. Does not contain quantity.">
<polygon fill="white" stroke="black" points="239.5,-124.5 239.5,-143.5 327.5,-143.5 327.5,-124.5 239.5,-124.5"/>
<text text-anchor="middle" x="283.5" y="-131.5" font-family="Helvetica,sans-Serif" font-size="10.00">EncodingODIM</text>
</a>
</g>
</g>
<!-- Node3&#45;&gt;Node2 -->
<g id="edge2" class="edge">
<title>Node3&#45;&gt;Node2</title>
<path fill="none" stroke="midnightblue" d="M307.21,-119.12C329.2,-106.24 361.24,-87.48 379.77,-76.63"/>
<polygon fill="midnightblue" stroke="midnightblue" points="305.33,-116.16 298.47,-124.23 308.87,-122.2 305.33,-116.16"/>
</g>
<!-- Node4 -->
<g id="node4" class="node">
<title>Node4</title>
<g id="a_node4"><a xlink:href="classdrain_1_1ReferenceMap.html" target="_top" xlink:title=" ">
<polygon fill="white" stroke="black" points="102,-213.5 102,-232.5 189,-232.5 189,-213.5 102,-213.5"/>
<text text-anchor="middle" x="145.5" y="-220.5" font-family="Helvetica,sans-Serif" font-size="10.00">ReferenceMap</text>
</a>
</g>
</g>
<!-- Node4&#45;&gt;Node3 -->
<g id="edge3" class="edge">
<title>Node4&#45;&gt;Node3</title>
<path fill="none" stroke="midnightblue" d="M167.54,-208.11C196.31,-189.96 245.83,-158.75 269.76,-143.66"/>
<polygon fill="midnightblue" stroke="midnightblue" points="165.58,-205.21 158.98,-213.5 169.31,-211.13 165.58,-205.21"/>
</g>
<!-- Node5 -->
<g id="node5" class="node">
<title>Node5</title>
<g id="a_node5"><a xlink:href="classdrain_1_1SmartMap.html" target="_top" xlink:title=" ">
<polygon fill="white" stroke="black" points="13,-289.5 13,-308.5 156,-308.5 156,-289.5 13,-289.5"/>
<text text-anchor="middle" x="84.5" y="-296.5" font-family="Helvetica,sans-Serif" font-size="10.00">SmartMap&lt; Referencer &gt;</text>
</a>
</g>
</g>
<!-- Node5&#45;&gt;Node4 -->
<g id="edge4" class="edge">
<title>Node5&#45;&gt;Node4</title>
<path fill="none" stroke="midnightblue" d="M98.33,-281.22C110.74,-266.17 128.46,-244.67 138.27,-232.77"/>
<polygon fill="midnightblue" stroke="midnightblue" points="95.4,-279.28 91.74,-289.22 100.8,-283.73 95.4,-279.28"/>
</g>
<!-- Node6 -->
<g id="node6" class="node">
<title>Node6</title>
<g id="a_node6"><a xlink:title=" ">
<polygon fill="white" stroke="#bfbfbf" points="0,-346.5 0,-365.5 169,-365.5 169,-346.5 0,-346.5"/>
<text text-anchor="middle" x="84.5" y="-353.5" font-family="Helvetica,sans-Serif" font-size="10.00">map&lt; std::string, Referencer &gt;</text>
</a>
</g>
</g>
<!-- Node6&#45;&gt;Node5 -->
<g id="edge5" class="edge">
<title>Node6&#45;&gt;Node5</title>
<path fill="none" stroke="midnightblue" d="M84.5,-336.12C84.5,-326.82 84.5,-316.06 84.5,-308.71"/>
<polygon fill="midnightblue" stroke="midnightblue" points="81,-336.41 84.5,-346.41 88,-336.41 81,-336.41"/>
</g>
<!-- Node7 -->
<g id="node7" class="node">
<title>Node7</title>
<g id="a_node7"><a xlink:href="classdrain_1_1ValueScaling.html" target="_top" xlink:title="Linear scaling and physical range for image intensities.">
<polygon fill="white" stroke="black" points="243.5,-213.5 243.5,-232.5 323.5,-232.5 323.5,-213.5 243.5,-213.5"/>
<text text-anchor="middle" x="283.5" y="-220.5" font-family="Helvetica,sans-Serif" font-size="10.00">ValueScaling</text>
</a>
</g>
</g>
<!-- Node7&#45;&gt;Node3 -->
<g id="edge6" class="edge">
<title>Node7&#45;&gt;Node3</title>
<path fill="none" stroke="#9a32cd" stroke-dasharray="5,2" d="M283.5,-203.19C283.5,-184.74 283.5,-157.41 283.5,-143.62"/>
<polygon fill="#9a32cd" stroke="#9a32cd" points="280,-203.34 283.5,-213.34 287,-203.34 280,-203.34"/>
<text text-anchor="middle" x="316.5" y="-187" font-family="Helvetica,sans-Serif" font-size="10.00"> scalingConst</text>
<text text-anchor="middle" x="316.5" y="-176" font-family="Helvetica,sans-Serif" font-size="10.00">scaling</text>
<text text-anchor="middle" x="316.5" y="-165" font-family="Helvetica,sans-Serif" font-size="10.00">ownScaling</text>
</g>
<!-- Node8 -->
<g id="node8" class="node">
<title>Node8</title>
<g id="a_node8"><a xlink:href="classdrain_1_1UniTuple.html" target="_top" xlink:title=" ">
<polygon fill="white" stroke="black" points="174.5,-289.5 174.5,-308.5 300.5,-308.5 300.5,-289.5 174.5,-289.5"/>
<text text-anchor="middle" x="237.5" y="-296.5" font-family="Helvetica,sans-Serif" font-size="10.00">UniTuple&lt; double, 4 &gt;</text>
</a>
</g>
</g>
<!-- Node8&#45;&gt;Node7 -->
<g id="edge7" class="edge">
<title>Node8&#45;&gt;Node7</title>
<path fill="none" stroke="midnightblue" d="M248.46,-280.37C257.78,-265.37 270.79,-244.44 278.05,-232.77"/>
<polygon fill="midnightblue" stroke="midnightblue" points="245.26,-278.88 242.96,-289.22 251.21,-282.58 245.26,-278.88"/>
</g>
<!-- Node9 -->
<g id="node9" class="node">
<title>Node9</title>
<g id="a_node9"><a xlink:href="classdrain_1_1Range.html" target="_top" xlink:title=" ">
<polygon fill="white" stroke="black" points="319,-289.5 319,-308.5 422,-308.5 422,-289.5 319,-289.5"/>
<text text-anchor="middle" x="370.5" y="-296.5" font-family="Helvetica,sans-Serif" font-size="10.00">Range&lt; double &gt;</text>
</a>
</g>
</g>
<!-- Node9&#45;&gt;Node7 -->
<g id="edge8" class="edge">
<title>Node9&#45;&gt;Node7</title>
<path fill="none" stroke="#9a32cd" stroke-dasharray="5,2" d="M334.87,-285.39C326.96,-281.55 319,-276.78 312.5,-271 300.32,-260.17 291.53,-243 287,-232.68"/>
<polygon fill="#9a32cd" stroke="#9a32cd" points="333.48,-288.61 344.04,-289.47 336.33,-282.21 333.48,-288.61"/>
<text text-anchor="middle" x="341.5" y="-258.5" font-family="Helvetica,sans-Serif" font-size="10.00"> physRange</text>
</g>
<!-- Node10 -->
<g id="node10" class="node">
<title>Node10</title>
<g id="a_node10"><a xlink:href="classdrain_1_1UniTuple.html" target="_top" xlink:title=" ">
<polygon fill="white" stroke="black" points="361.5,-346.5 361.5,-365.5 487.5,-365.5 487.5,-346.5 361.5,-346.5"/>
<text text-anchor="middle" x="424.5" y="-353.5" font-family="Helvetica,sans-Serif" font-size="10.00">UniTuple&lt; double, 2 &gt;</text>
</a>
</g>
</g>
<!-- Node10&#45;&gt;Node9 -->
<g id="edge9" class="edge">
<title>Node10&#45;&gt;Node9</title>
<path fill="none" stroke="midnightblue" d="M408.91,-339.12C399.19,-329.22 387.06,-316.86 379.06,-308.71"/>
<polygon fill="midnightblue" stroke="midnightblue" points="406.56,-341.72 416.06,-346.41 411.55,-336.82 406.56,-341.72"/>
</g>
<!-- Node11 -->
<g id="node11" class="node">
<title>Node11</title>
<g id="a_node11"><a xlink:href="structdrain_1_1Point2D.html" target="_top" xlink:title=" ">
<polygon fill="white" stroke="black" points="379.5,-251.5 379.5,-270.5 489.5,-270.5 489.5,-251.5 379.5,-251.5"/>
<text text-anchor="middle" x="434.5" y="-258.5" font-family="Helvetica,sans-Serif" font-size="10.00">Point2D&lt; double &gt;</text>
</a>
</g>
</g>
<!-- Node10&#45;&gt;Node11 -->
<g id="edge11" class="edge">
<title>Node10&#45;&gt;Node11</title>
<path fill="none" stroke="midnightblue" d="M427.16,-336.08C428.28,-327.78 429.54,-317.92 430.5,-309 431.94,-295.65 433.18,-280.11 433.88,-270.67"/>
<polygon fill="midnightblue" stroke="midnightblue" points="423.67,-335.81 425.77,-346.2 430.6,-336.77 423.67,-335.81"/>
</g>
<!-- Node11&#45;&gt;Node2 -->
<g id="edge10" class="edge">
<title>Node11&#45;&gt;Node2</title>
<path fill="none" stroke="#9a32cd" stroke-dasharray="5,2" d="M419.4,-243.44C417.09,-240.17 414.98,-236.62 413.5,-233 390.6,-176.94 392.48,-101.82 393.9,-76.64"/>
<polygon fill="#9a32cd" stroke="#9a32cd" points="416.74,-245.7 425.73,-251.3 422.19,-241.32 416.74,-245.7"/>
<text text-anchor="middle" x="428.5" y="-176" font-family="Helvetica,sans-Serif" font-size="10.00"> resolution</text>
</g>
<!-- Node12 -->
<g id="node12" class="node">
<title>Node12</title>
<g id="a_node12"><a xlink:href="classdrain_1_1Frame2D.html" target="_top" xlink:title=" ">
<polygon fill="white" stroke="black" points="424.5,-124.5 424.5,-143.5 536.5,-143.5 536.5,-124.5 424.5,-124.5"/>
<text text-anchor="middle" x="480.5" y="-131.5" font-family="Helvetica,sans-Serif" font-size="10.00">Frame2D&lt; size_t &gt;</text>
</a>
</g>
</g>
<!-- Node12&#45;&gt;Node2 -->
<g id="edge12" class="edge">
<title>Node12&#45;&gt;Node2</title>
<path fill="none" stroke="#9a32cd" stroke-dasharray="5,2" d="M460.74,-118.07C443.77,-105.24 419.88,-87.19 405.91,-76.63"/>
<polygon fill="#9a32cd" stroke="#9a32cd" points="458.81,-121 468.9,-124.23 463.03,-115.41 458.81,-121"/>
<text text-anchor="middle" x="456" y="-98" font-family="Helvetica,sans-Serif" font-size="10.00"> area</text>
</g>
<!-- Node13 -->
<g id="node13" class="node">
<title>Node13</title>
<g id="a_node13"><a xlink:href="classdrain_1_1UniTuple.html" target="_top" xlink:title=" ">
<polygon fill="white" stroke="black" points="422.5,-213.5 422.5,-232.5 544.5,-232.5 544.5,-213.5 422.5,-213.5"/>
<text text-anchor="middle" x="483.5" y="-220.5" font-family="Helvetica,sans-Serif" font-size="10.00">UniTuple&lt; size_t, 2 &gt;</text>
</a>
</g>
</g>
<!-- Node13&#45;&gt;Node12 -->
<g id="edge13" class="edge">
<title>Node13&#45;&gt;Node12</title>
<path fill="none" stroke="midnightblue" d="M482.85,-203.19C482.22,-184.74 481.27,-157.41 480.8,-143.62"/>
<polygon fill="midnightblue" stroke="midnightblue" points="479.36,-203.47 483.2,-213.34 486.35,-203.23 479.36,-203.47"/>
</g>
</g>
</svg>
