<?xml version="1.0" encoding="UTF-8" standalone="no"?>
<!DOCTYPE svg PUBLIC "-//W3C//DTD SVG 1.1//EN"
 "http://www.w3.org/Graphics/SVG/1.1/DTD/svg11.dtd">
<!-- Generated by graphviz version 2.43.0 (0)
 -->
<!-- Title: ImageBox Pages: 1 -->
<svg width="248pt" height="344pt"
 viewBox="0.00 0.00 247.50 344.00" xmlns="http://www.w3.org/2000/svg" xmlns:xlink="http://www.w3.org/1999/xlink">
<g id="graph0" class="graph" transform="scale(1 1) rotate(0) translate(4 340)">
<title>ImageBox</title>
<polygon fill="white" stroke="transparent" points="-4,4 -4,-340 243.5,-340 243.5,4 -4,4"/>
<!-- Node1 -->
<g id="node1" class="node">
<title>Node1</title>
<g id="a_node1"><a xlink:title="Plots a single value in an image. The value will be scaled; notice that alpha channel is scaled by de...">
<polygon fill="#bfbfbf" stroke="black" points="102.5,-0.5 102.5,-19.5 168.5,-19.5 168.5,-0.5 102.5,-0.5"/>
<text text-anchor="middle" x="135.5" y="-7.5" font-family="Helvetica,sans-Serif" font-size="10.00">ImageBox</text>
</a>
</g>
</g>
<!-- Node2 -->
<g id="node2" class="node">
<title>Node2</title>
<g id="a_node2"><a xlink:href="classdrain_1_1image_1_1ImageMod.html" target="_top" xlink:title="Class for operations that modify an existing image instead of producing a new image.">
<polygon fill="white" stroke="black" points="55.5,-78.5 55.5,-97.5 123.5,-97.5 123.5,-78.5 55.5,-78.5"/>
<text text-anchor="middle" x="89.5" y="-85.5" font-family="Helvetica,sans-Serif" font-size="10.00">ImageMod</text>
</a>
</g>
</g>
<!-- Node2&#45;&gt;Node1 -->
<g id="edge1" class="edge">
<title>Node2&#45;&gt;Node1</title>
<path fill="none" stroke="midnightblue" d="M100.05,-69.57C109.5,-53.95 122.97,-31.7 130.28,-19.62"/>
<polygon fill="midnightblue" stroke="midnightblue" points="96.96,-67.91 94.78,-78.28 102.95,-71.54 96.96,-67.91"/>
</g>
<!-- Node3 -->
<g id="node3" class="node">
<title>Node3</title>
<g id="a_node3"><a xlink:href="classdrain_1_1BeanLike.html" target="_top" xlink:title="Something which has a name, a description and possibly some parameters of varying type.">
<polygon fill="white" stroke="black" points="54,-135.5 54,-154.5 115,-154.5 115,-135.5 54,-135.5"/>
<text text-anchor="middle" x="84.5" y="-142.5" font-family="Helvetica,sans-Serif" font-size="10.00">BeanLike</text>
</a>
</g>
</g>
<!-- Node3&#45;&gt;Node2 -->
<g id="edge2" class="edge">
<title>Node3&#45;&gt;Node2</title>
<path fill="none" stroke="midnightblue" d="M86.19,-125.42C87.04,-116.05 88.03,-105.14 88.71,-97.71"/>
<polygon fill="midnightblue" stroke="midnightblue" points="82.7,-125.13 85.28,-135.41 89.67,-125.76 82.7,-125.13"/>
</g>
<!-- Node4 -->
<g id="node4" class="node">
<title>Node4</title>
<g id="a_node4"><a xlink:href="classdrain_1_1ReferenceMap.html" target="_top" xlink:title=" ">
<polygon fill="white" stroke="black" points="41,-202.5 41,-221.5 128,-221.5 128,-202.5 41,-202.5"/>
<text text-anchor="middle" x="84.5" y="-209.5" font-family="Helvetica,sans-Serif" font-size="10.00">ReferenceMap</text>
</a>
</g>
</g>
<!-- Node4&#45;&gt;Node3 -->
<g id="edge3" class="edge">
<title>Node4&#45;&gt;Node3</title>
<path fill="none" stroke="#9a32cd" stroke-dasharray="5,2" d="M84.5,-192.04C84.5,-179.67 84.5,-164.12 84.5,-154.63"/>
<polygon fill="#9a32cd" stroke="#9a32cd" points="81,-192.23 84.5,-202.23 88,-192.23 81,-192.23"/>
<text text-anchor="middle" x="114.5" y="-176" font-family="Helvetica,sans-Serif" font-size="10.00"> parameters</text>
</g>
<!-- Node5 -->
<g id="node5" class="node">
<title>Node5</title>
<g id="a_node5"><a xlink:href="classdrain_1_1SmartMap.html" target="_top" xlink:title=" ">
<polygon fill="white" stroke="black" points="13,-259.5 13,-278.5 156,-278.5 156,-259.5 13,-259.5"/>
<text text-anchor="middle" x="84.5" y="-266.5" font-family="Helvetica,sans-Serif" font-size="10.00">SmartMap&lt; Referencer &gt;</text>
</a>
</g>
</g>
<!-- Node5&#45;&gt;Node4 -->
<g id="edge4" class="edge">
<title>Node5&#45;&gt;Node4</title>
<path fill="none" stroke="midnightblue" d="M84.5,-249.12C84.5,-239.82 84.5,-229.06 84.5,-221.71"/>
<polygon fill="midnightblue" stroke="midnightblue" points="81,-249.41 84.5,-259.41 88,-249.41 81,-249.41"/>
</g>
<!-- Node6 -->
<g id="node6" class="node">
<title>Node6</title>
<g id="a_node6"><a xlink:title=" ">
<polygon fill="white" stroke="#bfbfbf" points="0,-316.5 0,-335.5 169,-335.5 169,-316.5 0,-316.5"/>
<text text-anchor="middle" x="84.5" y="-323.5" font-family="Helvetica,sans-Serif" font-size="10.00">map&lt; std::string, Referencer &gt;</text>
</a>
</g>
</g>
<!-- Node6&#45;&gt;Node5 -->
<g id="edge5" class="edge">
<title>Node6&#45;&gt;Node5</title>
<path fill="none" stroke="midnightblue" d="M84.5,-306.12C84.5,-296.82 84.5,-286.06 84.5,-278.71"/>
<polygon fill="midnightblue" stroke="midnightblue" points="81,-306.41 84.5,-316.41 88,-306.41 81,-306.41"/>
</g>
<!-- Node7 -->
<g id="node7" class="node">
<title>Node7</title>
<g id="a_node7"><a xlink:href="classdrain_1_1Range.html" target="_top" xlink:title=" ">
<polygon fill="white" stroke="black" points="144,-78.5 144,-97.5 227,-97.5 227,-78.5 144,-78.5"/>
<text text-anchor="middle" x="185.5" y="-85.5" font-family="Helvetica,sans-Serif" font-size="10.00">Range&lt; int &gt;</text>
</a>
</g>
</g>
<!-- Node7&#45;&gt;Node1 -->
<g id="edge6" class="edge">
<title>Node7&#45;&gt;Node1</title>
<path fill="none" stroke="#9a32cd" stroke-dasharray="5,2" d="M174.03,-69.57C163.76,-53.95 149.12,-31.7 141.17,-19.62"/>
<polygon fill="#9a32cd" stroke="#9a32cd" points="171.34,-71.85 179.76,-78.28 177.19,-68 171.34,-71.85"/>
<text text-anchor="middle" x="185" y="-52" font-family="Helvetica,sans-Serif" font-size="10.00"> jRange</text>
<text text-anchor="middle" x="185" y="-41" font-family="Helvetica,sans-Serif" font-size="10.00">iRange</text>
</g>
<!-- Node8 -->
<g id="node8" class="node">
<title>Node8</title>
<g id="a_node8"><a xlink:href="classdrain_1_1UniTuple.html" target="_top" xlink:title=" ">
<polygon fill="white" stroke="black" points="133.5,-135.5 133.5,-154.5 239.5,-154.5 239.5,-135.5 133.5,-135.5"/>
<text text-anchor="middle" x="186.5" y="-142.5" font-family="Helvetica,sans-Serif" font-size="10.00">UniTuple&lt; int, 2 &gt;</text>
</a>
</g>
</g>
<!-- Node8&#45;&gt;Node7 -->
<g id="edge7" class="edge">
<title>Node8&#45;&gt;Node7</title>
<path fill="none" stroke="midnightblue" d="M186.16,-125.12C185.99,-115.82 185.79,-105.06 185.66,-97.71"/>
<polygon fill="midnightblue" stroke="midnightblue" points="182.66,-125.47 186.34,-135.41 189.66,-125.34 182.66,-125.47"/>
</g>
</g>
</svg>
