<?xml version="1.0" encoding="UTF-8" standalone="no"?>
<!DOCTYPE svg PUBLIC "-//W3C//DTD SVG 1.1//EN"
 "http://www.w3.org/Graphics/SVG/1.1/DTD/svg11.dtd">
<!-- Generated by graphviz version 2.43.0 (0)
 -->
<!-- Title: DataSet&lt; DT &gt; Pages: 1 -->
<svg width="346pt" height="162pt"
 viewBox="0.00 0.00 346.00 162.00" xmlns="http://www.w3.org/2000/svg" xmlns:xlink="http://www.w3.org/1999/xlink">
<g id="graph0" class="graph" transform="scale(1 1) rotate(0) translate(4 158)">
<title>DataSet&lt; DT &gt;</title>
<polygon fill="white" stroke="transparent" points="-4,4 -4,-158 342,-158 342,4 -4,4"/>
<!-- Node1 -->
<g id="node1" class="node">
<title>Node1</title>
<g id="a_node1"><a xlink:title="A map of radar data, indexed by quantity code (DBZH, VRAD, etc).">
<polygon fill="#bfbfbf" stroke="black" points="160.5,-0.5 160.5,-19.5 252.5,-19.5 252.5,-0.5 160.5,-0.5"/>
<text text-anchor="middle" x="206.5" y="-7.5" font-family="Helvetica,sans-Serif" font-size="10.00">DataSet&lt; DT &gt;</text>
</a>
</g>
</g>
<!-- Node2 -->
<g id="node2" class="node">
<title>Node2</title>
<g id="a_node2"><a xlink:href="classrack_1_1DataGroup.html" target="_top" xlink:title=" ">
<polygon fill="white" stroke="black" points="56.5,-56.5 56.5,-86.5 206.5,-86.5 206.5,-56.5 56.5,-56.5"/>
<text text-anchor="start" x="64.5" y="-74.5" font-family="Helvetica,sans-Serif" font-size="10.00">DataGroup&lt; Data&lt; DT</text>
<text text-anchor="middle" x="131.5" y="-63.5" font-family="Helvetica,sans-Serif" font-size="10.00"> &gt;, ODIMPathElem::DATA &gt;</text>
</a>
</g>
</g>
<!-- Node2&#45;&gt;Node1 -->
<g id="edge1" class="edge">
<title>Node2&#45;&gt;Node1</title>
<path fill="none" stroke="midnightblue" d="M157.47,-49.89C170.52,-39.54 185.63,-27.56 195.59,-19.66"/>
<polygon fill="midnightblue" stroke="midnightblue" points="154.93,-47.44 149.27,-56.4 159.28,-52.93 154.93,-47.44"/>
</g>
<!-- Node3 -->
<g id="node3" class="node">
<title>Node3</title>
<g id="a_node3"><a xlink:href="classrack_1_1TreeWrapper.html" target="_top" xlink:title=" ">
<polygon fill="white" stroke="black" points="0,-123.5 0,-153.5 121,-153.5 121,-123.5 0,-123.5"/>
<text text-anchor="start" x="8" y="-141.5" font-family="Helvetica,sans-Serif" font-size="10.00">TreeWrapper&lt; Data&lt;</text>
<text text-anchor="middle" x="60.5" y="-130.5" font-family="Helvetica,sans-Serif" font-size="10.00"> DT &gt; ::datatype_t &gt;</text>
</a>
</g>
</g>
<!-- Node3&#45;&gt;Node2 -->
<g id="edge2" class="edge">
<title>Node3&#45;&gt;Node2</title>
<path fill="none" stroke="midnightblue" d="M83.33,-116.6C94.05,-106.78 106.55,-95.34 116.12,-86.58"/>
<polygon fill="midnightblue" stroke="midnightblue" points="80.92,-114.06 75.91,-123.4 85.65,-119.22 80.92,-114.06"/>
</g>
<!-- Node4 -->
<g id="node4" class="node">
<title>Node4</title>
<g id="a_node4"><a xlink:title=" ">
<polygon fill="white" stroke="#bfbfbf" points="139.5,-123.5 139.5,-153.5 267.5,-153.5 267.5,-123.5 139.5,-123.5"/>
<text text-anchor="start" x="147.5" y="-141.5" font-family="Helvetica,sans-Serif" font-size="10.00">map&lt; std::string, Data</text>
<text text-anchor="middle" x="203.5" y="-130.5" font-family="Helvetica,sans-Serif" font-size="10.00">&lt; DT &gt; &gt;</text>
</a>
</g>
</g>
<!-- Node4&#45;&gt;Node2 -->
<g id="edge3" class="edge">
<title>Node4&#45;&gt;Node2</title>
<path fill="none" stroke="midnightblue" d="M180.35,-116.6C169.48,-106.78 156.8,-95.34 147.09,-86.58"/>
<polygon fill="midnightblue" stroke="midnightblue" points="178.11,-119.29 187.88,-123.4 182.8,-114.1 178.11,-119.29"/>
</g>
<!-- Node5 -->
<g id="node5" class="node">
<title>Node5</title>
<g id="a_node5"><a xlink:href="classrack_1_1QualityDataSupport.html" target="_top" xlink:title="Base class providing quality support for Dataand DataSet">
<polygon fill="white" stroke="black" points="225,-56.5 225,-86.5 338,-86.5 338,-56.5 225,-56.5"/>
<text text-anchor="start" x="233" y="-74.5" font-family="Helvetica,sans-Serif" font-size="10.00">QualityDataSupport</text>
<text text-anchor="middle" x="281.5" y="-63.5" font-family="Helvetica,sans-Serif" font-size="10.00">&lt; DT &gt;</text>
</a>
</g>
</g>
<!-- Node5&#45;&gt;Node1 -->
<g id="edge4" class="edge">
<title>Node5&#45;&gt;Node1</title>
<path fill="none" stroke="midnightblue" d="M255.53,-49.89C242.48,-39.54 227.37,-27.56 217.41,-19.66"/>
<polygon fill="midnightblue" stroke="midnightblue" points="253.72,-52.93 263.73,-56.4 258.07,-47.44 253.72,-52.93"/>
</g>
</g>
</svg>
