<?xml version="1.0" encoding="UTF-8" standalone="no"?>
<!DOCTYPE svg PUBLIC "-//W3C//DTD SVG 1.1//EN"
 "http://www.w3.org/Graphics/SVG/1.1/DTD/svg11.dtd">
<!-- Generated by graphviz version 2.43.0 (0)
 -->
<!-- Title: GaussianStripeWeighted&lt; DIR &gt; Pages: 1 -->
<svg width="1422pt" height="971pt"
 viewBox="0.00 0.00 1421.50 971.00" xmlns="http://www.w3.org/2000/svg" xmlns:xlink="http://www.w3.org/1999/xlink">
<g id="graph0" class="graph" transform="scale(1 1) rotate(0) translate(4 967)">
<title>GaussianStripeWeighted&lt; DIR &gt;</title>
<polygon fill="white" stroke="transparent" points="-4,4 -4,-967 1417.5,-967 1417.5,4 -4,4"/>
<!-- Node1 -->
<g id="node1" class="node">
<title>Node1</title>
<g id="a_node1"><a xlink:title=" ">
<polygon fill="#bfbfbf" stroke="black" points="178.5,-0.5 178.5,-30.5 315.5,-30.5 315.5,-0.5 178.5,-0.5"/>
<text text-anchor="start" x="186.5" y="-18.5" font-family="Helvetica,sans-Serif" font-size="10.00">GaussianStripeWeighted</text>
<text text-anchor="middle" x="247" y="-7.5" font-family="Helvetica,sans-Serif" font-size="10.00">&lt; DIR &gt;</text>
</a>
</g>
</g>
<!-- Node2 -->
<g id="node2" class="node">
<title>Node2</title>
<g id="a_node2"><a xlink:href="classdrain_1_1image_1_1GaussianStripe.html" target="_top" xlink:title=" ">
<polygon fill="white" stroke="black" points="177.5,-68.5 177.5,-98.5 316.5,-98.5 316.5,-68.5 177.5,-68.5"/>
<text text-anchor="start" x="185.5" y="-86.5" font-family="Helvetica,sans-Serif" font-size="10.00">GaussianStripe&lt; true,</text>
<text text-anchor="middle" x="247" y="-75.5" font-family="Helvetica,sans-Serif" font-size="10.00"> WeightedWindowCore &gt;</text>
</a>
</g>
</g>
<!-- Node2&#45;&gt;Node1 -->
<g id="edge1" class="edge">
<title>Node2&#45;&gt;Node1</title>
<path fill="none" stroke="midnightblue" d="M247,-58.03C247,-48.86 247,-38.74 247,-30.79"/>
<polygon fill="midnightblue" stroke="midnightblue" points="243.5,-58.18 247,-68.18 250.5,-58.18 243.5,-58.18"/>
</g>
<!-- Node3 -->
<g id="node3" class="node">
<title>Node3</title>
<g id="a_node3"><a xlink:href="classdrain_1_1image_1_1Window.html" target="_top" xlink:title=" ">
<polygon fill="white" stroke="black" points="297,-136.5 297,-166.5 473,-166.5 473,-136.5 297,-136.5"/>
<text text-anchor="start" x="305" y="-154.5" font-family="Helvetica,sans-Serif" font-size="10.00">Window&lt; GaussianWindowConf,</text>
<text text-anchor="middle" x="385" y="-143.5" font-family="Helvetica,sans-Serif" font-size="10.00"> WeightedWindowCore &gt;</text>
</a>
</g>
</g>
<!-- Node3&#45;&gt;Node2 -->
<g id="edge2" class="edge">
<title>Node3&#45;&gt;Node2</title>
<path fill="none" stroke="midnightblue" d="M346.28,-131.98C324.18,-121.41 296.92,-108.37 276.56,-98.64"/>
<polygon fill="midnightblue" stroke="midnightblue" points="344.86,-135.18 355.4,-136.34 347.88,-128.87 344.86,-135.18"/>
</g>
<!-- Node4 -->
<g id="node4" class="node">
<title>Node4</title>
<g id="a_node4"><a xlink:href="classdrain_1_1image_1_1WeightedWindowCore.html" target="_top" xlink:title=" ">
<polygon fill="white" stroke="black" points="821.5,-214.5 821.5,-233.5 946.5,-233.5 946.5,-214.5 821.5,-214.5"/>
<text text-anchor="middle" x="884" y="-221.5" font-family="Helvetica,sans-Serif" font-size="10.00">WeightedWindowCore</text>
</a>
</g>
</g>
<!-- Node4&#45;&gt;Node3 -->
<g id="edge3" class="edge">
<title>Node4&#45;&gt;Node3</title>
<path fill="none" stroke="midnightblue" d="M824.26,-212.82C776.39,-204.81 707.47,-193.6 647,-185 589.14,-176.78 523.93,-168.68 473.03,-162.63"/>
<polygon fill="midnightblue" stroke="midnightblue" points="823.7,-216.27 834.14,-214.48 824.86,-209.37 823.7,-216.27"/>
</g>
<!-- Node5 -->
<g id="node5" class="node">
<title>Node5</title>
<g id="a_node5"><a xlink:href="classdrain_1_1image_1_1WindowCore.html" target="_top" xlink:title="Container for source data (input) and destination data (output). May also contain metadata of them.">
<polygon fill="white" stroke="black" points="826,-293.5 826,-312.5 904,-312.5 904,-293.5 826,-293.5"/>
<text text-anchor="middle" x="865" y="-300.5" font-family="Helvetica,sans-Serif" font-size="10.00">WindowCore</text>
</a>
</g>
</g>
<!-- Node5&#45;&gt;Node4 -->
<g id="edge4" class="edge">
<title>Node5&#45;&gt;Node4</title>
<path fill="none" stroke="midnightblue" d="M869.61,-283.31C873.49,-267.59 878.87,-245.81 881.83,-233.81"/>
<polygon fill="midnightblue" stroke="midnightblue" points="866.1,-282.92 867.11,-293.47 872.9,-284.6 866.1,-282.92"/>
</g>
<!-- Node6 -->
<g id="node6" class="node">
<title>Node6</title>
<g id="a_node6"><a xlink:href="classdrain_1_1image_1_1WindowCoreBase.html" target="_top" xlink:title="Provides splitting frames.">
<polygon fill="white" stroke="black" points="784,-378 784,-397 886,-397 886,-378 784,-378"/>
<text text-anchor="middle" x="835" y="-385" font-family="Helvetica,sans-Serif" font-size="10.00">WindowCoreBase</text>
</a>
</g>
</g>
<!-- Node6&#45;&gt;Node5 -->
<g id="edge5" class="edge">
<title>Node6&#45;&gt;Node5</title>
<path fill="none" stroke="midnightblue" d="M841.57,-368.43C847.87,-351.11 857.1,-325.74 861.87,-312.6"/>
<polygon fill="midnightblue" stroke="midnightblue" points="838.23,-367.39 838.1,-377.98 844.8,-369.78 838.23,-367.39"/>
</g>
<!-- Node7 -->
<g id="node7" class="node">
<title>Node7</title>
<g id="a_node7"><a xlink:href="classdrain_1_1image_1_1ImageView.html" target="_top" xlink:title="ImageFrame that also has channels.">
<polygon fill="white" stroke="black" points="904.5,-378 904.5,-397 975.5,-397 975.5,-378 904.5,-378"/>
<text text-anchor="middle" x="940" y="-385" font-family="Helvetica,sans-Serif" font-size="10.00">ImageView</text>
</a>
</g>
</g>
<!-- Node7&#45;&gt;Node4 -->
<g id="edge33" class="edge">
<title>Node7&#45;&gt;Node4</title>
<path fill="none" stroke="#9a32cd" stroke-dasharray="5,2" d="M935.6,-368.17C932.97,-357.56 929.48,-343.98 926,-332 920.78,-314.05 919.61,-309.49 913,-292 904.93,-270.66 893.87,-246.2 888.02,-233.57"/>
<polygon fill="#9a32cd" stroke="#9a32cd" points="932.21,-369.07 937.98,-377.96 939.01,-367.41 932.21,-369.07"/>
<text text-anchor="middle" x="946" y="-306" font-family="Helvetica,sans-Serif" font-size="10.00"> srcWeight</text>
<text text-anchor="middle" x="946" y="-295" font-family="Helvetica,sans-Serif" font-size="10.00">dstWeight</text>
</g>
<!-- Node7&#45;&gt;Node5 -->
<g id="edge6" class="edge">
<title>Node7&#45;&gt;Node5</title>
<path fill="none" stroke="#9a32cd" stroke-dasharray="5,2" d="M924.06,-370.74C918.86,-365.49 913.12,-359.56 908,-354 894.97,-339.85 880.53,-322.74 872.13,-312.65"/>
<polygon fill="#9a32cd" stroke="#9a32cd" points="921.6,-373.23 931.14,-377.83 926.55,-368.28 921.6,-373.23"/>
<text text-anchor="middle" x="917" y="-346" font-family="Helvetica,sans-Serif" font-size="10.00"> src</text>
<text text-anchor="middle" x="917" y="-335" font-family="Helvetica,sans-Serif" font-size="10.00">dst</text>
</g>
<!-- Node8 -->
<g id="node8" class="node">
<title>Node8</title>
<g id="a_node8"><a xlink:href="classdrain_1_1image_1_1MultiChannel.html" target="_top" xlink:title="Multi&#45;channel ImageFrame.">
<polygon fill="white" stroke="black" points="877.5,-450.5 877.5,-469.5 958.5,-469.5 958.5,-450.5 877.5,-450.5"/>
<text text-anchor="middle" x="918" y="-457.5" font-family="Helvetica,sans-Serif" font-size="10.00">MultiChannel</text>
</a>
</g>
</g>
<!-- Node8&#45;&gt;Node7 -->
<g id="edge7" class="edge">
<title>Node8&#45;&gt;Node7</title>
<path fill="none" stroke="midnightblue" d="M923.69,-440.77C928.06,-426.76 933.9,-408.03 937.28,-397.22"/>
<polygon fill="midnightblue" stroke="midnightblue" points="920.34,-439.77 920.7,-450.36 927.02,-441.85 920.34,-439.77"/>
</g>
<!-- Node9 -->
<g id="node9" class="node">
<title>Node9</title>
<g id="a_node9"><a xlink:href="classdrain_1_1image_1_1ImageFrame.html" target="_top" xlink:title="Image with static geometry.">
<polygon fill="white" stroke="black" points="843,-507.5 843,-526.5 921,-526.5 921,-507.5 843,-507.5"/>
<text text-anchor="middle" x="882" y="-514.5" font-family="Helvetica,sans-Serif" font-size="10.00">ImageFrame</text>
</a>
</g>
</g>
<!-- Node9&#45;&gt;Node8 -->
<g id="edge8" class="edge">
<title>Node9&#45;&gt;Node8</title>
<path fill="none" stroke="midnightblue" d="M893.17,-498.94C899.51,-489.25 907.17,-477.54 912.3,-469.71"/>
<polygon fill="midnightblue" stroke="midnightblue" points="890.17,-497.12 887.62,-507.41 896.03,-500.96 890.17,-497.12"/>
</g>
<!-- Node10 -->
<g id="node10" class="node">
<title>Node10</title>
<g id="a_node10"><a xlink:href="classdrain_1_1image_1_1ImageLike.html" target="_top" xlink:title="A base class for images.">
<polygon fill="white" stroke="black" points="959.5,-586.5 959.5,-605.5 1026.5,-605.5 1026.5,-586.5 959.5,-586.5"/>
<text text-anchor="middle" x="993" y="-593.5" font-family="Helvetica,sans-Serif" font-size="10.00">ImageLike</text>
</a>
</g>
</g>
<!-- Node10&#45;&gt;Node9 -->
<g id="edge9" class="edge">
<title>Node10&#45;&gt;Node9</title>
<path fill="none" stroke="midnightblue" d="M972.35,-580.67C949.44,-564.78 913.23,-539.66 894.36,-526.57"/>
<polygon fill="midnightblue" stroke="midnightblue" points="970.49,-583.64 980.7,-586.47 974.48,-577.89 970.49,-583.64"/>
</g>
<!-- Node11 -->
<g id="node11" class="node">
<title>Node11</title>
<g id="a_node11"><a xlink:href="classdrain_1_1image_1_1ImageConf.html" target="_top" xlink:title="Struct for image (excluding data)">
<polygon fill="white" stroke="black" points="953,-663.5 953,-682.5 1023,-682.5 1023,-663.5 953,-663.5"/>
<text text-anchor="middle" x="988" y="-670.5" font-family="Helvetica,sans-Serif" font-size="10.00">ImageConf</text>
</a>
</g>
</g>
<!-- Node11&#45;&gt;Node10 -->
<g id="edge10" class="edge">
<title>Node11&#45;&gt;Node10</title>
<path fill="none" stroke="#9a32cd" stroke-dasharray="5,2" d="M989.27,-653.02C990.28,-637.74 991.67,-616.98 992.43,-605.5"/>
<polygon fill="#9a32cd" stroke="#9a32cd" points="985.75,-653.19 988.57,-663.4 992.73,-653.65 985.75,-653.19"/>
<text text-anchor="middle" x="1003.5" y="-632.5" font-family="Helvetica,sans-Serif" font-size="10.00"> conf</text>
</g>
<!-- Node12 -->
<g id="node12" class="node">
<title>Node12</title>
<g id="a_node12"><a xlink:href="classdrain_1_1image_1_1Encoding.html" target="_top" xlink:title=" ">
<polygon fill="white" stroke="black" points="955.5,-730.5 955.5,-749.5 1016.5,-749.5 1016.5,-730.5 955.5,-730.5"/>
<text text-anchor="middle" x="986" y="-737.5" font-family="Helvetica,sans-Serif" font-size="10.00">Encoding</text>
</a>
</g>
</g>
<!-- Node12&#45;&gt;Node11 -->
<g id="edge11" class="edge">
<title>Node12&#45;&gt;Node11</title>
<path fill="none" stroke="midnightblue" d="M986.58,-720.04C986.96,-707.67 987.44,-692.12 987.73,-682.63"/>
<polygon fill="midnightblue" stroke="midnightblue" points="983.08,-720.13 986.27,-730.23 990.08,-720.35 983.08,-720.13"/>
</g>
<!-- Node13 -->
<g id="node13" class="node">
<title>Node13</title>
<g id="a_node13"><a xlink:href="classdrain_1_1ValueScaling.html" target="_top" xlink:title="Linear scaling and physical range for image intensities.">
<polygon fill="white" stroke="black" points="940,-803 940,-822 1020,-822 1020,-803 940,-803"/>
<text text-anchor="middle" x="980" y="-810" font-family="Helvetica,sans-Serif" font-size="10.00">ValueScaling</text>
</a>
</g>
</g>
<!-- Node13&#45;&gt;Node12 -->
<g id="edge12" class="edge">
<title>Node13&#45;&gt;Node12</title>
<path fill="none" stroke="midnightblue" d="M981.59,-792.86C982.77,-778.9 984.35,-760.43 985.26,-749.72"/>
<polygon fill="midnightblue" stroke="midnightblue" points="978.1,-792.59 980.74,-802.86 985.07,-793.19 978.1,-792.59"/>
</g>
<!-- Node14 -->
<g id="node14" class="node">
<title>Node14</title>
<g id="a_node14"><a xlink:href="classdrain_1_1UniTuple.html" target="_top" xlink:title=" ">
<polygon fill="white" stroke="black" points="977,-881 977,-900 1103,-900 1103,-881 977,-881"/>
<text text-anchor="middle" x="1040" y="-888" font-family="Helvetica,sans-Serif" font-size="10.00">UniTuple&lt; double, 4 &gt;</text>
</a>
</g>
</g>
<!-- Node14&#45;&gt;Node13 -->
<g id="edge13" class="edge">
<title>Node14&#45;&gt;Node13</title>
<path fill="none" stroke="midnightblue" d="M1026.58,-872.51C1014.24,-856.87 996.43,-834.31 986.8,-822.12"/>
<polygon fill="midnightblue" stroke="midnightblue" points="1024.17,-875.1 1033.12,-880.78 1029.67,-870.76 1024.17,-875.1"/>
</g>
<!-- Node15 -->
<g id="node15" class="node">
<title>Node15</title>
<g id="a_node15"><a xlink:href="classdrain_1_1Range.html" target="_top" xlink:title=" ">
<polygon fill="white" stroke="black" points="855.5,-881 855.5,-900 958.5,-900 958.5,-881 855.5,-881"/>
<text text-anchor="middle" x="907" y="-888" font-family="Helvetica,sans-Serif" font-size="10.00">Range&lt; double &gt;</text>
</a>
</g>
</g>
<!-- Node15&#45;&gt;Node13 -->
<g id="edge14" class="edge">
<title>Node15&#45;&gt;Node13</title>
<path fill="none" stroke="#9a32cd" stroke-dasharray="5,2" d="M920.18,-872.99C927.03,-864.67 935.7,-854.55 944,-846 952.21,-837.54 962.21,-828.62 969.58,-822.26"/>
<polygon fill="#9a32cd" stroke="#9a32cd" points="917.36,-870.9 913.78,-880.87 922.8,-875.31 917.36,-870.9"/>
<text text-anchor="middle" x="973" y="-849" font-family="Helvetica,sans-Serif" font-size="10.00"> physRange</text>
</g>
<!-- Node16 -->
<g id="node16" class="node">
<title>Node16</title>
<g id="a_node16"><a xlink:href="classdrain_1_1UniTuple.html" target="_top" xlink:title=" ">
<polygon fill="white" stroke="black" points="844,-943.5 844,-962.5 970,-962.5 970,-943.5 844,-943.5"/>
<text text-anchor="middle" x="907" y="-950.5" font-family="Helvetica,sans-Serif" font-size="10.00">UniTuple&lt; double, 2 &gt;</text>
</a>
</g>
</g>
<!-- Node16&#45;&gt;Node15 -->
<g id="edge15" class="edge">
<title>Node16&#45;&gt;Node15</title>
<path fill="none" stroke="midnightblue" d="M907,-933C907,-922 907,-908.68 907,-900.15"/>
<polygon fill="midnightblue" stroke="midnightblue" points="903.5,-933.33 907,-943.33 910.5,-933.33 903.5,-933.33"/>
</g>
<!-- Node17 -->
<g id="node17" class="node">
<title>Node17</title>
<g id="a_node17"><a xlink:href="classdrain_1_1Caster.html" target="_top" xlink:title=" ">
<polygon fill="white" stroke="black" points="862,-803 862,-822 910,-822 910,-803 862,-803"/>
<text text-anchor="middle" x="886" y="-810" font-family="Helvetica,sans-Serif" font-size="10.00">Caster</text>
</a>
</g>
</g>
<!-- Node17&#45;&gt;Node12 -->
<g id="edge16" class="edge">
<title>Node17&#45;&gt;Node12</title>
<path fill="none" stroke="#9a32cd" stroke-dasharray="5,2" d="M905.12,-796.61C916.31,-788.04 930.79,-777.18 944,-768 953.25,-761.57 963.94,-754.71 972.22,-749.51"/>
<polygon fill="#9a32cd" stroke="#9a32cd" points="902.73,-794.04 896.94,-802.92 907,-799.58 902.73,-794.04"/>
<text text-anchor="middle" x="961" y="-771" font-family="Helvetica,sans-Serif" font-size="10.00"> caster</text>
</g>
<!-- Node28 -->
<g id="node28" class="node">
<title>Node28</title>
<g id="a_node28"><a xlink:href="classdrain_1_1Castable.html" target="_top" xlink:title=" ">
<polygon fill="white" stroke="black" points="850.5,-730.5 850.5,-749.5 909.5,-749.5 909.5,-730.5 850.5,-730.5"/>
<text text-anchor="middle" x="880" y="-737.5" font-family="Helvetica,sans-Serif" font-size="10.00">Castable</text>
</a>
</g>
</g>
<!-- Node17&#45;&gt;Node28 -->
<g id="edge29" class="edge">
<title>Node17&#45;&gt;Node28</title>
<path fill="none" stroke="#9a32cd" stroke-dasharray="5,2" d="M882.71,-792.77C882.03,-788.28 881.4,-783.48 881,-779 880.1,-769.01 879.92,-757.49 879.92,-749.77"/>
<polygon fill="#9a32cd" stroke="#9a32cd" points="879.31,-793.68 884.39,-802.98 886.22,-792.55 879.31,-793.68"/>
<text text-anchor="middle" x="898" y="-771" font-family="Helvetica,sans-Serif" font-size="10.00"> caster</text>
</g>
<!-- Node18 -->
<g id="node18" class="node">
<title>Node18</title>
<g id="a_node18"><a xlink:href="classdrain_1_1image_1_1Geometry.html" target="_top" xlink:title=" ">
<polygon fill="white" stroke="black" points="1156.5,-730.5 1156.5,-749.5 1221.5,-749.5 1221.5,-730.5 1156.5,-730.5"/>
<text text-anchor="middle" x="1189" y="-737.5" font-family="Helvetica,sans-Serif" font-size="10.00">Geometry</text>
</a>
</g>
</g>
<!-- Node18&#45;&gt;Node11 -->
<g id="edge17" class="edge">
<title>Node18&#45;&gt;Node11</title>
<path fill="none" stroke="midnightblue" d="M1152.71,-727.27C1112.89,-714.39 1049.91,-694.02 1014.48,-682.56"/>
<polygon fill="midnightblue" stroke="midnightblue" points="1151.72,-730.62 1162.31,-730.37 1153.87,-723.96 1151.72,-730.62"/>
</g>
<!-- Node19 -->
<g id="node19" class="node">
<title>Node19</title>
<g id="a_node19"><a xlink:href="classdrain_1_1UniTuple.html" target="_top" xlink:title=" ">
<polygon fill="white" stroke="black" points="1168,-803 1168,-822 1290,-822 1290,-803 1168,-803"/>
<text text-anchor="middle" x="1229" y="-810" font-family="Helvetica,sans-Serif" font-size="10.00">UniTuple&lt; size_t, 4 &gt;</text>
</a>
</g>
</g>
<!-- Node19&#45;&gt;Node18 -->
<g id="edge18" class="edge">
<title>Node19&#45;&gt;Node18</title>
<path fill="none" stroke="midnightblue" d="M1219.12,-794.09C1211.13,-780 1200.2,-760.74 1193.94,-749.72"/>
<polygon fill="midnightblue" stroke="midnightblue" points="1216.12,-795.88 1224.1,-802.86 1222.2,-792.43 1216.12,-795.88"/>
</g>
<!-- Node20 -->
<g id="node20" class="node">
<title>Node20</title>
<g id="a_node20"><a xlink:href="classdrain_1_1Frame2D.html" target="_top" xlink:title=" ">
<polygon fill="white" stroke="black" points="1038,-803 1038,-822 1150,-822 1150,-803 1038,-803"/>
<text text-anchor="middle" x="1094" y="-810" font-family="Helvetica,sans-Serif" font-size="10.00">Frame2D&lt; size_t &gt;</text>
</a>
</g>
</g>
<!-- Node20&#45;&gt;Node18 -->
<g id="edge19" class="edge">
<title>Node20&#45;&gt;Node18</title>
<path fill="none" stroke="#9a32cd" stroke-dasharray="5,2" d="M1113.73,-796.86C1132.9,-782.63 1161.39,-761.49 1177.26,-749.72"/>
<polygon fill="#9a32cd" stroke="#9a32cd" points="1111.59,-794.09 1105.65,-802.86 1115.76,-799.71 1111.59,-794.09"/>
<text text-anchor="middle" x="1162.5" y="-771" font-family="Helvetica,sans-Serif" font-size="10.00"> area</text>
</g>
<!-- Node21 -->
<g id="node21" class="node">
<title>Node21</title>
<g id="a_node21"><a xlink:href="classdrain_1_1UniTuple.html" target="_top" xlink:title=" ">
<polygon fill="white" stroke="black" points="1240,-881 1240,-900 1362,-900 1362,-881 1240,-881"/>
<text text-anchor="middle" x="1301" y="-888" font-family="Helvetica,sans-Serif" font-size="10.00">UniTuple&lt; size_t, 2 &gt;</text>
</a>
</g>
</g>
<!-- Node21&#45;&gt;Node20 -->
<g id="edge20" class="edge">
<title>Node21&#45;&gt;Node20</title>
<path fill="none" stroke="midnightblue" d="M1268.14,-877.44C1226.04,-861.98 1154.11,-835.57 1117.26,-822.04"/>
<polygon fill="midnightblue" stroke="midnightblue" points="1267.06,-880.77 1277.66,-880.93 1269.48,-874.2 1267.06,-880.77"/>
</g>
<!-- Node22 -->
<g id="node22" class="node">
<title>Node22</title>
<g id="a_node22"><a xlink:href="classdrain_1_1image_1_1ChannelGeometry.html" target="_top" xlink:title=" ">
<polygon fill="white" stroke="black" points="1308.5,-803 1308.5,-822 1413.5,-822 1413.5,-803 1308.5,-803"/>
<text text-anchor="middle" x="1361" y="-810" font-family="Helvetica,sans-Serif" font-size="10.00">ChannelGeometry</text>
</a>
</g>
</g>
<!-- Node21&#45;&gt;Node22 -->
<g id="edge22" class="edge">
<title>Node21&#45;&gt;Node22</title>
<path fill="none" stroke="midnightblue" d="M1314.42,-872.51C1326.76,-856.87 1344.57,-834.31 1354.2,-822.12"/>
<polygon fill="midnightblue" stroke="midnightblue" points="1311.33,-870.76 1307.88,-880.78 1316.83,-875.1 1311.33,-870.76"/>
</g>
<!-- Node22&#45;&gt;Node18 -->
<g id="edge21" class="edge">
<title>Node22&#45;&gt;Node18</title>
<path fill="none" stroke="#9a32cd" stroke-dasharray="5,2" d="M1330.63,-799.05C1295.9,-784.82 1239.95,-761.88 1209.82,-749.53"/>
<polygon fill="#9a32cd" stroke="#9a32cd" points="1329.67,-802.44 1340.25,-803 1332.33,-795.96 1329.67,-802.44"/>
<text text-anchor="middle" x="1303.5" y="-771" font-family="Helvetica,sans-Serif" font-size="10.00"> channels</text>
</g>
<!-- Node23 -->
<g id="node23" class="node">
<title>Node23</title>
<g id="a_node23"><a xlink:href="classdrain_1_1image_1_1CoordinatePolicy.html" target="_top" xlink:title="Policies for coordinate underflows and overflows.">
<polygon fill="white" stroke="black" points="468.5,-730.5 468.5,-749.5 567.5,-749.5 567.5,-730.5 468.5,-730.5"/>
<text text-anchor="middle" x="518" y="-737.5" font-family="Helvetica,sans-Serif" font-size="10.00">CoordinatePolicy</text>
</a>
</g>
</g>
<!-- Node23&#45;&gt;Node11 -->
<g id="edge23" class="edge">
<title>Node23&#45;&gt;Node11</title>
<path fill="none" stroke="#9a32cd" stroke-dasharray="5,2" d="M578.03,-730.7C677.41,-716.95 873.05,-689.9 952.85,-678.86"/>
<polygon fill="#9a32cd" stroke="#9a32cd" points="577.28,-727.27 567.85,-732.11 578.24,-734.2 577.28,-727.27"/>
<text text-anchor="middle" x="823.5" y="-704" font-family="Helvetica,sans-Serif" font-size="10.00"> coordinatePolicy</text>
</g>
<!-- Node50 -->
<g id="node50" class="node">
<title>Node50</title>
<g id="a_node50"><a xlink:href="classdrain_1_1image_1_1CoordinateHandler2D.html" target="_top" xlink:title=" ">
<polygon fill="white" stroke="black" points="385,-293.5 385,-312.5 507,-312.5 507,-293.5 385,-293.5"/>
<text text-anchor="middle" x="446" y="-300.5" font-family="Helvetica,sans-Serif" font-size="10.00">CoordinateHandler2D</text>
</a>
</g>
</g>
<!-- Node23&#45;&gt;Node50 -->
<g id="edge57" class="edge">
<title>Node23&#45;&gt;Node50</title>
<path fill="none" stroke="#9a32cd" stroke-dasharray="5,2" d="M487.35,-725.74C467.75,-714.98 446,-697.7 446,-674 446,-674 446,-674 446,-386.5 446,-359.57 446,-327.7 446,-312.67"/>
<polygon fill="#9a32cd" stroke="#9a32cd" points="485.9,-728.93 496.4,-730.37 489.08,-722.7 485.9,-728.93"/>
<text text-anchor="middle" x="462.5" y="-514.5" font-family="Helvetica,sans-Serif" font-size="10.00"> policy</text>
</g>
<!-- Node24 -->
<g id="node24" class="node">
<title>Node24</title>
<g id="a_node24"><a xlink:href="classdrain_1_1UniTuple.html" target="_top" xlink:title=" ">
<polygon fill="white" stroke="black" points="502.5,-797.5 502.5,-827.5 619.5,-827.5 619.5,-797.5 502.5,-797.5"/>
<text text-anchor="start" x="510.5" y="-815.5" font-family="Helvetica,sans-Serif" font-size="10.00">UniTuple&lt; coord_pol</text>
<text text-anchor="middle" x="561" y="-804.5" font-family="Helvetica,sans-Serif" font-size="10.00">_t, 4 &gt;</text>
</a>
</g>
</g>
<!-- Node24&#45;&gt;Node23 -->
<g id="edge24" class="edge">
<title>Node24&#45;&gt;Node23</title>
<path fill="none" stroke="midnightblue" d="M547.05,-788.63C539,-775.42 529.33,-759.57 523.42,-749.89"/>
<polygon fill="midnightblue" stroke="midnightblue" points="544.1,-790.52 552.3,-797.23 550.08,-786.87 544.1,-790.52"/>
</g>
<!-- Node25 -->
<g id="node25" class="node">
<title>Node25</title>
<g id="a_node25"><a xlink:href="classdrain_1_1Dictionary2.html" target="_top" xlink:title="Two&#45;way mapping between strings and objects of template class T.">
<polygon fill="white" stroke="black" points="369.5,-803 369.5,-822 484.5,-822 484.5,-803 369.5,-803"/>
<text text-anchor="middle" x="427" y="-810" font-family="Helvetica,sans-Serif" font-size="10.00">Dictionary2&lt; K, V &gt;</text>
</a>
</g>
</g>
<!-- Node25&#45;&gt;Node23 -->
<g id="edge25" class="edge">
<title>Node25&#45;&gt;Node23</title>
<path fill="none" stroke="#9a32cd" stroke-dasharray="5,2" d="M446.39,-796.47C464.76,-782.25 491.69,-761.38 506.75,-749.72"/>
<polygon fill="#9a32cd" stroke="#9a32cd" points="443.92,-793.96 438.16,-802.86 448.21,-799.5 443.92,-793.96"/>
<text text-anchor="middle" x="492" y="-771" font-family="Helvetica,sans-Serif" font-size="10.00"> dict</text>
</g>
<!-- Node26 -->
<g id="node26" class="node">
<title>Node26</title>
<g id="a_node26"><a xlink:title=" ">
<polygon fill="white" stroke="#bfbfbf" points="375,-875.5 375,-905.5 479,-905.5 479,-875.5 375,-875.5"/>
<text text-anchor="start" x="383" y="-893.5" font-family="Helvetica,sans-Serif" font-size="10.00">list&lt; std::pair&lt; K,</text>
<text text-anchor="middle" x="427" y="-882.5" font-family="Helvetica,sans-Serif" font-size="10.00"> V &gt; &gt;</text>
</a>
</g>
</g>
<!-- Node26&#45;&gt;Node25 -->
<g id="edge26" class="edge">
<title>Node26&#45;&gt;Node25</title>
<path fill="none" stroke="midnightblue" d="M427,-865.17C427,-850.4 427,-832.45 427,-822.06"/>
<polygon fill="midnightblue" stroke="midnightblue" points="423.5,-865.2 427,-875.2 430.5,-865.21 423.5,-865.2"/>
</g>
<!-- Node27 -->
<g id="node27" class="node">
<title>Node27</title>
<g id="a_node27"><a xlink:href="classdrain_1_1CastableIterator.html" target="_top" xlink:title=" ">
<polygon fill="white" stroke="black" points="823.5,-625.5 823.5,-644.5 918.5,-644.5 918.5,-625.5 823.5,-625.5"/>
<text text-anchor="middle" x="871" y="-632.5" font-family="Helvetica,sans-Serif" font-size="10.00">CastableIterator</text>
</a>
</g>
</g>
<!-- Node27&#45;&gt;Node9 -->
<g id="edge27" class="edge">
<title>Node27&#45;&gt;Node9</title>
<path fill="none" stroke="#9a32cd" stroke-dasharray="5,2" d="M872.8,-615.02C875.22,-589.46 879.44,-545.04 881.19,-526.5"/>
<polygon fill="#9a32cd" stroke="#9a32cd" points="869.29,-615 871.83,-625.28 876.26,-615.66 869.29,-615"/>
<text text-anchor="middle" x="910.5" y="-599" font-family="Helvetica,sans-Serif" font-size="10.00"> segmentEnd</text>
<text text-anchor="middle" x="910.5" y="-588" font-family="Helvetica,sans-Serif" font-size="10.00">segmentBegin</text>
</g>
<!-- Node28&#45;&gt;Node27 -->
<g id="edge28" class="edge">
<title>Node28&#45;&gt;Node27</title>
<path fill="none" stroke="darkgreen" d="M878.36,-720.25C876.41,-697.87 873.22,-661.39 871.77,-644.76"/>
<polygon fill="darkgreen" stroke="darkgreen" points="874.88,-720.56 879.23,-730.22 881.85,-719.95 874.88,-720.56"/>
</g>
<!-- Node29 -->
<g id="node29" class="node">
<title>Node29</title>
<g id="a_node29"><a xlink:href="classdrain_1_1FlexVariableMap.html" target="_top" xlink:title="A map of FlexVariable:s.">
<polygon fill="white" stroke="black" points="725.5,-586.5 725.5,-605.5 824.5,-605.5 824.5,-586.5 725.5,-586.5"/>
<text text-anchor="middle" x="775" y="-593.5" font-family="Helvetica,sans-Serif" font-size="10.00">FlexVariableMap</text>
</a>
</g>
</g>
<!-- Node29&#45;&gt;Node9 -->
<g id="edge30" class="edge">
<title>Node29&#45;&gt;Node9</title>
<path fill="none" stroke="#9a32cd" stroke-dasharray="5,2" d="M775.92,-576.09C777.39,-565.66 780.89,-553.18 789,-545 803.08,-530.79 824.16,-523.95 842.7,-520.71"/>
<polygon fill="#9a32cd" stroke="#9a32cd" points="772.41,-576.05 774.99,-586.33 779.38,-576.68 772.41,-576.05"/>
<text text-anchor="middle" x="822.5" y="-559" font-family="Helvetica,sans-Serif" font-size="10.00"> propertiesPtr</text>
<text text-anchor="middle" x="822.5" y="-548" font-family="Helvetica,sans-Serif" font-size="10.00">properties</text>
</g>
<!-- Node30 -->
<g id="node30" class="node">
<title>Node30</title>
<g id="a_node30"><a xlink:href="classdrain_1_1SmartMap.html" target="_top" xlink:title=" ">
<polygon fill="white" stroke="black" points="683.5,-663.5 683.5,-682.5 834.5,-682.5 834.5,-663.5 683.5,-663.5"/>
<text text-anchor="middle" x="759" y="-670.5" font-family="Helvetica,sans-Serif" font-size="10.00">SmartMap&lt; FlexVariable &gt;</text>
</a>
</g>
</g>
<!-- Node30&#45;&gt;Node29 -->
<g id="edge31" class="edge">
<title>Node30&#45;&gt;Node29</title>
<path fill="none" stroke="midnightblue" d="M762.95,-653.47C766.22,-638.15 770.71,-617.09 773.19,-605.5"/>
<polygon fill="midnightblue" stroke="midnightblue" points="759.5,-652.89 760.84,-663.4 766.34,-654.35 759.5,-652.89"/>
</g>
<!-- Node31 -->
<g id="node31" class="node">
<title>Node31</title>
<g id="a_node31"><a xlink:title=" ">
<polygon fill="white" stroke="#bfbfbf" points="655.5,-730.5 655.5,-749.5 832.5,-749.5 832.5,-730.5 655.5,-730.5"/>
<text text-anchor="middle" x="744" y="-737.5" font-family="Helvetica,sans-Serif" font-size="10.00">map&lt; std::string, FlexVariable &gt;</text>
</a>
</g>
</g>
<!-- Node31&#45;&gt;Node30 -->
<g id="edge32" class="edge">
<title>Node31&#45;&gt;Node30</title>
<path fill="none" stroke="midnightblue" d="M748.29,-720.41C751.16,-707.99 754.8,-692.22 757.01,-682.63"/>
<polygon fill="midnightblue" stroke="midnightblue" points="744.86,-719.7 746.02,-730.23 751.68,-721.28 744.86,-719.7"/>
</g>
<!-- Node32 -->
<g id="node32" class="node">
<title>Node32</title>
<g id="a_node32"><a xlink:href="classdrain_1_1Range.html" target="_top" xlink:title=" ">
<polygon fill="white" stroke="black" points="329.5,-378 329.5,-397 412.5,-397 412.5,-378 329.5,-378"/>
<text text-anchor="middle" x="371" y="-385" font-family="Helvetica,sans-Serif" font-size="10.00">Range&lt; int &gt;</text>
</a>
</g>
</g>
<!-- Node32&#45;&gt;Node3 -->
<g id="edge34" class="edge">
<title>Node32&#45;&gt;Node3</title>
<path fill="none" stroke="#9a32cd" stroke-dasharray="5,2" d="M371.92,-367.88C372.88,-348.82 374.45,-318.34 376,-292 378.69,-246.21 382.31,-192 384.03,-166.75"/>
<polygon fill="#9a32cd" stroke="#9a32cd" points="368.42,-367.74 371.42,-377.9 375.42,-368.09 368.42,-367.74"/>
<text text-anchor="middle" x="397.5" y="-266" font-family="Helvetica,sans-Serif" font-size="10.00"> jRange</text>
<text text-anchor="middle" x="397.5" y="-255" font-family="Helvetica,sans-Serif" font-size="10.00">iRange</text>
</g>
<!-- Node32&#45;&gt;Node50 -->
<g id="edge55" class="edge">
<title>Node32&#45;&gt;Node50</title>
<path fill="none" stroke="#9a32cd" stroke-dasharray="5,2" d="M374.63,-367.9C377.66,-356.45 382.98,-342.08 392,-332 399.68,-323.42 410.61,-317.07 420.63,-312.61"/>
<polygon fill="#9a32cd" stroke="#9a32cd" points="371.19,-367.23 372.38,-377.76 378.02,-368.78 371.19,-367.23"/>
<text text-anchor="middle" x="412" y="-346" font-family="Helvetica,sans-Serif" font-size="10.00"> yRange</text>
<text text-anchor="middle" x="412" y="-335" font-family="Helvetica,sans-Serif" font-size="10.00">xRange</text>
</g>
<!-- Node33 -->
<g id="node33" class="node">
<title>Node33</title>
<g id="a_node33"><a xlink:href="classdrain_1_1UniTuple.html" target="_top" xlink:title=" ">
<polygon fill="white" stroke="black" points="210,-450.5 210,-469.5 316,-469.5 316,-450.5 210,-450.5"/>
<text text-anchor="middle" x="263" y="-457.5" font-family="Helvetica,sans-Serif" font-size="10.00">UniTuple&lt; int, 2 &gt;</text>
</a>
</g>
</g>
<!-- Node33&#45;&gt;Node32 -->
<g id="edge35" class="edge">
<title>Node33&#45;&gt;Node32</title>
<path fill="none" stroke="midnightblue" d="M284.84,-444.74C306.64,-430.51 339.45,-409.09 357.65,-397.22"/>
<polygon fill="midnightblue" stroke="midnightblue" points="282.7,-441.96 276.24,-450.36 286.53,-447.82 282.7,-441.96"/>
</g>
<!-- Node39 -->
<g id="node39" class="node">
<title>Node39</title>
<g id="a_node39"><a xlink:href="classdrain_1_1Frame2D.html" target="_top" xlink:title=" ">
<polygon fill="white" stroke="black" points="215,-378 215,-397 311,-397 311,-378 215,-378"/>
<text text-anchor="middle" x="263" y="-385" font-family="Helvetica,sans-Serif" font-size="10.00">Frame2D&lt; int &gt;</text>
</a>
</g>
</g>
<!-- Node33&#45;&gt;Node39 -->
<g id="edge42" class="edge">
<title>Node33&#45;&gt;Node39</title>
<path fill="none" stroke="midnightblue" d="M263,-439.94C263,-426.03 263,-407.82 263,-397.22"/>
<polygon fill="midnightblue" stroke="midnightblue" points="259.5,-440.36 263,-450.36 266.5,-440.36 259.5,-440.36"/>
</g>
<!-- Node49 -->
<g id="node49" class="node">
<title>Node49</title>
<g id="a_node49"><a xlink:href="structdrain_1_1Point2D.html" target="_top" xlink:title=" ">
<polygon fill="white" stroke="black" points="99,-214.5 99,-233.5 189,-233.5 189,-214.5 99,-214.5"/>
<text text-anchor="middle" x="144" y="-221.5" font-family="Helvetica,sans-Serif" font-size="10.00">Point2D&lt; int &gt;</text>
</a>
</g>
</g>
<!-- Node33&#45;&gt;Node49 -->
<g id="edge53" class="edge">
<title>Node33&#45;&gt;Node49</title>
<path fill="none" stroke="midnightblue" d="M243.52,-443.87C231.3,-433.5 216.01,-418.81 206,-403 186.91,-372.87 155.37,-264.98 146.43,-233.61"/>
<polygon fill="midnightblue" stroke="midnightblue" points="241.43,-446.69 251.39,-450.32 245.87,-441.27 241.43,-446.69"/>
</g>
<!-- Node34 -->
<g id="node34" class="node">
<title>Node34</title>
<g id="a_node34"><a xlink:href="classdrain_1_1image_1_1GaussianWindowConf.html" target="_top" xlink:title="Extends WindowConfig with radius.">
<polygon fill="white" stroke="black" points="207.5,-214.5 207.5,-233.5 330.5,-233.5 330.5,-214.5 207.5,-214.5"/>
<text text-anchor="middle" x="269" y="-221.5" font-family="Helvetica,sans-Serif" font-size="10.00">GaussianWindowConf</text>
</a>
</g>
</g>
<!-- Node34&#45;&gt;Node3 -->
<g id="edge36" class="edge">
<title>Node34&#45;&gt;Node3</title>
<path fill="none" stroke="#9a32cd" stroke-dasharray="5,2" d="M287.47,-208C296.92,-200.65 308.77,-191.92 320,-185 330.74,-178.38 343.01,-171.98 353.97,-166.63"/>
<polygon fill="#9a32cd" stroke="#9a32cd" points="285.22,-205.32 279.55,-214.27 289.56,-210.8 285.22,-205.32"/>
<text text-anchor="middle" x="332.5" y="-188" font-family="Helvetica,sans-Serif" font-size="10.00"> conf</text>
</g>
<!-- Node35 -->
<g id="node35" class="node">
<title>Node35</title>
<g id="a_node35"><a xlink:href="classdrain_1_1image_1_1WindowConfig.html" target="_top" xlink:title="Base class for configurations applied in image processing windows, e.g. for operators of type WindowO...">
<polygon fill="white" stroke="black" points="217.5,-293.5 217.5,-312.5 304.5,-312.5 304.5,-293.5 217.5,-293.5"/>
<text text-anchor="middle" x="261" y="-300.5" font-family="Helvetica,sans-Serif" font-size="10.00">WindowConfig</text>
</a>
</g>
</g>
<!-- Node35&#45;&gt;Node34 -->
<g id="edge37" class="edge">
<title>Node35&#45;&gt;Node34</title>
<path fill="none" stroke="midnightblue" d="M262.94,-283.31C264.57,-267.59 266.84,-245.81 268.08,-233.81"/>
<polygon fill="midnightblue" stroke="midnightblue" points="259.44,-283.16 261.89,-293.47 266.4,-283.88 259.44,-283.16"/>
</g>
<!-- Node36 -->
<g id="node36" class="node">
<title>Node36</title>
<g id="a_node36"><a xlink:href="classdrain_1_1VariableMap.html" target="_top" xlink:title="A map of Variables.">
<polygon fill="white" stroke="black" points="39,-378 39,-397 117,-397 117,-378 39,-378"/>
<text text-anchor="middle" x="78" y="-385" font-family="Helvetica,sans-Serif" font-size="10.00">VariableMap</text>
</a>
</g>
</g>
<!-- Node36&#45;&gt;Node35 -->
<g id="edge38" class="edge">
<title>Node36&#45;&gt;Node35</title>
<path fill="none" stroke="#9a32cd" stroke-dasharray="5,2" d="M97.81,-371.64C114.67,-359.58 139.93,-342.83 164,-332 182.38,-323.73 203.82,-317.24 221.86,-312.6"/>
<polygon fill="#9a32cd" stroke="#9a32cd" points="95.38,-369.08 89.36,-377.8 99.51,-374.74 95.38,-369.08"/>
<text text-anchor="middle" x="211" y="-340.5" font-family="Helvetica,sans-Serif" font-size="10.00"> functorParameters</text>
</g>
<!-- Node37 -->
<g id="node37" class="node">
<title>Node37</title>
<g id="a_node37"><a xlink:href="classdrain_1_1SmartMap.html" target="_top" xlink:title=" ">
<polygon fill="white" stroke="black" points="13,-450.5 13,-469.5 143,-469.5 143,-450.5 13,-450.5"/>
<text text-anchor="middle" x="78" y="-457.5" font-family="Helvetica,sans-Serif" font-size="10.00">SmartMap&lt; Variable &gt;</text>
</a>
</g>
</g>
<!-- Node37&#45;&gt;Node36 -->
<g id="edge39" class="edge">
<title>Node37&#45;&gt;Node36</title>
<path fill="none" stroke="midnightblue" d="M78,-439.94C78,-426.03 78,-407.82 78,-397.22"/>
<polygon fill="midnightblue" stroke="midnightblue" points="74.5,-440.36 78,-450.36 81.5,-440.36 74.5,-440.36"/>
</g>
<!-- Node38 -->
<g id="node38" class="node">
<title>Node38</title>
<g id="a_node38"><a xlink:title=" ">
<polygon fill="white" stroke="#bfbfbf" points="0,-507.5 0,-526.5 156,-526.5 156,-507.5 0,-507.5"/>
<text text-anchor="middle" x="78" y="-514.5" font-family="Helvetica,sans-Serif" font-size="10.00">map&lt; std::string, Variable &gt;</text>
</a>
</g>
</g>
<!-- Node38&#45;&gt;Node37 -->
<g id="edge40" class="edge">
<title>Node38&#45;&gt;Node37</title>
<path fill="none" stroke="midnightblue" d="M78,-497.12C78,-487.82 78,-477.06 78,-469.71"/>
<polygon fill="midnightblue" stroke="midnightblue" points="74.5,-497.41 78,-507.41 81.5,-497.41 74.5,-497.41"/>
</g>
<!-- Node39&#45;&gt;Node35 -->
<g id="edge41" class="edge">
<title>Node39&#45;&gt;Node35</title>
<path fill="none" stroke="#9a32cd" stroke-dasharray="5,2" d="M262.39,-367.73C262.25,-363.23 262.11,-358.44 262,-354 261.63,-339.59 261.32,-322.85 261.15,-312.85"/>
<polygon fill="#9a32cd" stroke="#9a32cd" points="258.9,-368.06 262.71,-377.95 265.89,-367.84 258.9,-368.06"/>
<text text-anchor="middle" x="278.5" y="-340.5" font-family="Helvetica,sans-Serif" font-size="10.00"> frame</text>
</g>
<!-- Node39&#45;&gt;Node50 -->
<g id="edge56" class="edge">
<title>Node39&#45;&gt;Node50</title>
<path fill="none" stroke="#9a32cd" stroke-dasharray="5,2" d="M282.86,-372.04C300.16,-359.99 326.27,-343.06 351,-332 369.36,-323.79 390.79,-317.23 408.63,-312.54"/>
<polygon fill="#9a32cd" stroke="#9a32cd" points="280.81,-369.21 274.67,-377.84 284.86,-374.92 280.81,-369.21"/>
<text text-anchor="middle" x="363.5" y="-340.5" font-family="Helvetica,sans-Serif" font-size="10.00"> area</text>
</g>
<!-- Node40 -->
<g id="node40" class="node">
<title>Node40</title>
<g id="a_node40"><a xlink:href="structdrain_1_1UnaryFunctor.html" target="_top" xlink:title=" ">
<polygon fill="white" stroke="black" points="520,-214.5 520,-233.5 602,-233.5 602,-214.5 520,-214.5"/>
<text text-anchor="middle" x="561" y="-221.5" font-family="Helvetica,sans-Serif" font-size="10.00">UnaryFunctor</text>
</a>
</g>
</g>
<!-- Node40&#45;&gt;Node3 -->
<g id="edge43" class="edge">
<title>Node40&#45;&gt;Node3</title>
<path fill="none" stroke="#9a32cd" stroke-dasharray="5,2" d="M530.4,-210.74C499.62,-198.41 452.21,-179.42 419.97,-166.51"/>
<polygon fill="#9a32cd" stroke="#9a32cd" points="529.19,-214.03 539.77,-214.5 531.79,-207.53 529.19,-214.03"/>
<text text-anchor="middle" x="516.5" y="-188" font-family="Helvetica,sans-Serif" font-size="10.00"> myFunctor</text>
</g>
<!-- Node41 -->
<g id="node41" class="node">
<title>Node41</title>
<g id="a_node41"><a xlink:href="classdrain_1_1Functor.html" target="_top" xlink:title="Base class for sequential computations. Optional scaling utilities.">
<polygon fill="white" stroke="black" points="539.5,-293.5 539.5,-312.5 592.5,-312.5 592.5,-293.5 539.5,-293.5"/>
<text text-anchor="middle" x="566" y="-300.5" font-family="Helvetica,sans-Serif" font-size="10.00">Functor</text>
</a>
</g>
</g>
<!-- Node41&#45;&gt;Node40 -->
<g id="edge44" class="edge">
<title>Node41&#45;&gt;Node40</title>
<path fill="none" stroke="midnightblue" d="M564.79,-283.31C563.77,-267.59 562.35,-245.81 561.57,-233.81"/>
<polygon fill="midnightblue" stroke="midnightblue" points="561.31,-283.71 565.45,-293.47 568.29,-283.26 561.31,-283.71"/>
</g>
<!-- Node42 -->
<g id="node42" class="node">
<title>Node42</title>
<g id="a_node42"><a xlink:href="classdrain_1_1BeanLike.html" target="_top" xlink:title="Something which has a name, a description and possibly some parameters of varying type.">
<polygon fill="white" stroke="black" points="536.5,-378 536.5,-397 597.5,-397 597.5,-378 536.5,-378"/>
<text text-anchor="middle" x="567" y="-385" font-family="Helvetica,sans-Serif" font-size="10.00">BeanLike</text>
</a>
</g>
</g>
<!-- Node42&#45;&gt;Node41 -->
<g id="edge45" class="edge">
<title>Node42&#45;&gt;Node41</title>
<path fill="none" stroke="midnightblue" d="M566.77,-367.93C566.57,-350.63 566.26,-325.61 566.1,-312.6"/>
<polygon fill="midnightblue" stroke="midnightblue" points="563.28,-368.02 566.9,-377.98 570.28,-367.94 563.28,-368.02"/>
</g>
<!-- Node43 -->
<g id="node43" class="node">
<title>Node43</title>
<g id="a_node43"><a xlink:href="classdrain_1_1ReferenceMap.html" target="_top" xlink:title=" ">
<polygon fill="white" stroke="black" points="524.5,-450.5 524.5,-469.5 611.5,-469.5 611.5,-450.5 524.5,-450.5"/>
<text text-anchor="middle" x="568" y="-457.5" font-family="Helvetica,sans-Serif" font-size="10.00">ReferenceMap</text>
</a>
</g>
</g>
<!-- Node43&#45;&gt;Node42 -->
<g id="edge46" class="edge">
<title>Node43&#45;&gt;Node42</title>
<path fill="none" stroke="#9a32cd" stroke-dasharray="5,2" d="M567.73,-439.94C567.53,-426.03 567.27,-407.82 567.12,-397.22"/>
<polygon fill="#9a32cd" stroke="#9a32cd" points="564.24,-440.41 567.88,-450.36 571.24,-440.31 564.24,-440.41"/>
<text text-anchor="middle" x="598" y="-424" font-family="Helvetica,sans-Serif" font-size="10.00"> parameters</text>
</g>
<!-- Node44 -->
<g id="node44" class="node">
<title>Node44</title>
<g id="a_node44"><a xlink:href="classdrain_1_1SmartMap.html" target="_top" xlink:title=" ">
<polygon fill="white" stroke="black" points="497.5,-507.5 497.5,-526.5 640.5,-526.5 640.5,-507.5 497.5,-507.5"/>
<text text-anchor="middle" x="569" y="-514.5" font-family="Helvetica,sans-Serif" font-size="10.00">SmartMap&lt; Referencer &gt;</text>
</a>
</g>
</g>
<!-- Node44&#45;&gt;Node43 -->
<g id="edge47" class="edge">
<title>Node44&#45;&gt;Node43</title>
<path fill="none" stroke="midnightblue" d="M568.66,-497.12C568.49,-487.82 568.29,-477.06 568.16,-469.71"/>
<polygon fill="midnightblue" stroke="midnightblue" points="565.16,-497.47 568.84,-507.41 572.16,-497.34 565.16,-497.47"/>
</g>
<!-- Node45 -->
<g id="node45" class="node">
<title>Node45</title>
<g id="a_node45"><a xlink:title=" ">
<polygon fill="white" stroke="#bfbfbf" points="484.5,-586.5 484.5,-605.5 653.5,-605.5 653.5,-586.5 484.5,-586.5"/>
<text text-anchor="middle" x="569" y="-593.5" font-family="Helvetica,sans-Serif" font-size="10.00">map&lt; std::string, Referencer &gt;</text>
</a>
</g>
</g>
<!-- Node45&#45;&gt;Node44 -->
<g id="edge48" class="edge">
<title>Node45&#45;&gt;Node44</title>
<path fill="none" stroke="midnightblue" d="M569,-576.31C569,-560.59 569,-538.81 569,-526.81"/>
<polygon fill="midnightblue" stroke="midnightblue" points="565.5,-576.47 569,-586.47 572.5,-576.47 565.5,-576.47"/>
</g>
<!-- Node46 -->
<g id="node46" class="node">
<title>Node46</title>
<g id="a_node46"><a xlink:href="classdrain_1_1UniCloner.html" target="_top" xlink:title=" ">
<polygon fill="white" stroke="black" points="620.5,-214.5 620.5,-233.5 803.5,-233.5 803.5,-214.5 620.5,-214.5"/>
<text text-anchor="middle" x="712" y="-221.5" font-family="Helvetica,sans-Serif" font-size="10.00">UniCloner&lt; drain::UnaryFunctor &gt;</text>
</a>
</g>
</g>
<!-- Node46&#45;&gt;Node3 -->
<g id="edge49" class="edge">
<title>Node46&#45;&gt;Node3</title>
<path fill="none" stroke="#9a32cd" stroke-dasharray="5,2" d="M666.78,-212.13C633.89,-204.32 588.26,-193.68 548,-185 518.52,-178.65 485.95,-172.07 457.72,-166.5"/>
<polygon fill="#9a32cd" stroke="#9a32cd" points="666.02,-215.54 676.56,-214.46 667.64,-208.73 666.02,-215.54"/>
<text text-anchor="middle" x="618.5" y="-188" font-family="Helvetica,sans-Serif" font-size="10.00"> unicloner</text>
</g>
<!-- Node47 -->
<g id="node47" class="node">
<title>Node47</title>
<g id="a_node47"><a xlink:href="classdrain_1_1Bank.html" target="_top" xlink:title=" ">
<polygon fill="white" stroke="black" points="663.5,-293.5 663.5,-312.5 746.5,-312.5 746.5,-293.5 663.5,-293.5"/>
<text text-anchor="middle" x="705" y="-300.5" font-family="Helvetica,sans-Serif" font-size="10.00">Bank&lt; T, K &gt;</text>
</a>
</g>
</g>
<!-- Node47&#45;&gt;Node46 -->
<g id="edge50" class="edge">
<title>Node47&#45;&gt;Node46</title>
<path fill="none" stroke="#9a32cd" stroke-dasharray="5,2" d="M706.7,-283.31C708.13,-267.59 710.11,-245.81 711.2,-233.81"/>
<polygon fill="#9a32cd" stroke="#9a32cd" points="703.2,-283.19 705.78,-293.47 710.17,-283.82 703.2,-283.19"/>
<text text-anchor="middle" x="723" y="-260.5" font-family="Helvetica,sans-Serif" font-size="10.00"> bank</text>
</g>
<!-- Node48 -->
<g id="node48" class="node">
<title>Node48</title>
<g id="a_node48"><a xlink:title=" ">
<polygon fill="white" stroke="#bfbfbf" points="630,-372.5 630,-402.5 766,-402.5 766,-372.5 630,-372.5"/>
<text text-anchor="start" x="638" y="-390.5" font-family="Helvetica,sans-Serif" font-size="10.00">map&lt; std::string, Cloner</text>
<text text-anchor="middle" x="698" y="-379.5" font-family="Helvetica,sans-Serif" font-size="10.00">Base&lt; T &gt; * &gt;</text>
</a>
</g>
</g>
<!-- Node48&#45;&gt;Node47 -->
<g id="edge51" class="edge">
<title>Node48&#45;&gt;Node47</title>
<path fill="none" stroke="darkgreen" d="M700.08,-361.95C701.5,-345.28 703.28,-324.23 704.27,-312.64"/>
<polygon fill="darkgreen" stroke="darkgreen" points="696.58,-361.87 699.22,-372.13 703.55,-362.46 696.58,-361.87"/>
</g>
<!-- Node49&#45;&gt;Node2 -->
<g id="edge58" class="edge">
<title>Node49&#45;&gt;Node2</title>
<path fill="none" stroke="#9a32cd" stroke-dasharray="5,2" d="M156.58,-206.09C177.07,-178.53 217.3,-124.44 236.42,-98.73"/>
<polygon fill="#9a32cd" stroke="#9a32cd" points="153.6,-204.22 150.44,-214.34 159.22,-208.4 153.6,-204.22"/>
<text text-anchor="middle" x="241" y="-149" font-family="Helvetica,sans-Serif" font-size="10.00"> locationTmp</text>
</g>
<!-- Node49&#45;&gt;Node3 -->
<g id="edge52" class="edge">
<title>Node49&#45;&gt;Node3</title>
<path fill="none" stroke="#9a32cd" stroke-dasharray="5,2" d="M177.34,-211.19C199.97,-203.35 230.63,-193.05 258,-185 280.27,-178.45 304.96,-171.96 326.6,-166.52"/>
<polygon fill="#9a32cd" stroke="#9a32cd" points="176.15,-207.9 167.86,-214.49 178.46,-214.51 176.15,-207.9"/>
<text text-anchor="middle" x="279.5" y="-188" font-family="Helvetica,sans-Serif" font-size="10.00"> location</text>
</g>
<!-- Node50&#45;&gt;Node3 -->
<g id="edge54" class="edge">
<title>Node50&#45;&gt;Node3</title>
<path fill="none" stroke="#9a32cd" stroke-dasharray="5,2" d="M438.16,-284C432.24,-270.33 423.98,-251.04 417,-234 407.38,-210.51 396.69,-182.98 390.43,-166.68"/>
<polygon fill="#9a32cd" stroke="#9a32cd" points="434.97,-285.45 442.16,-293.23 441.39,-282.67 434.97,-285.45"/>
<text text-anchor="middle" x="464" y="-221.5" font-family="Helvetica,sans-Serif" font-size="10.00"> coordinateHandler</text>
</g>
</g>
</svg>
