<?xml version="1.0" encoding="UTF-8" standalone="no"?>
<!DOCTYPE svg PUBLIC "-//W3C//DTD SVG 1.1//EN"
 "http://www.w3.org/Graphics/SVG/1.1/DTD/svg11.dtd">
<!-- Generated by graphviz version 2.43.0 (0)
 -->
<!-- Title: ValueScaling Pages: 1 -->
<svg width="267pt" height="152pt"
 viewBox="0.00 0.00 267.00 152.00" xmlns="http://www.w3.org/2000/svg" xmlns:xlink="http://www.w3.org/1999/xlink">
<g id="graph0" class="graph" transform="scale(1 1) rotate(0) translate(4 148)">
<title>ValueScaling</title>
<polygon fill="white" stroke="transparent" points="-4,4 -4,-148 263,-148 263,4 -4,4"/>
<!-- Node1 -->
<g id="node1" class="node">
<title>Node1</title>
<g id="a_node1"><a xlink:title="Linear scaling and physical range for image intensities.">
<polygon fill="#bfbfbf" stroke="black" points="39,-0.5 39,-19.5 119,-19.5 119,-0.5 39,-0.5"/>
<text text-anchor="middle" x="79" y="-7.5" font-family="Helvetica,sans-Serif" font-size="10.00">ValueScaling</text>
</a>
</g>
</g>
<!-- Node2 -->
<g id="node2" class="node">
<title>Node2</title>
<g id="a_node2"><a xlink:href="classdrain_1_1UniTuple.html" target="_top" xlink:title=" ">
<polygon fill="white" stroke="black" points="0,-67.5 0,-86.5 126,-86.5 126,-67.5 0,-67.5"/>
<text text-anchor="middle" x="63" y="-74.5" font-family="Helvetica,sans-Serif" font-size="10.00">UniTuple&lt; double, 4 &gt;</text>
</a>
</g>
</g>
<!-- Node2&#45;&gt;Node1 -->
<g id="edge1" class="edge">
<title>Node2&#45;&gt;Node1</title>
<path fill="none" stroke="midnightblue" d="M67.57,-57.41C70.63,-44.99 74.52,-29.22 76.88,-19.63"/>
<polygon fill="midnightblue" stroke="midnightblue" points="64.15,-56.69 65.16,-67.23 70.95,-58.36 64.15,-56.69"/>
</g>
<!-- Node3 -->
<g id="node3" class="node">
<title>Node3</title>
<g id="a_node3"><a xlink:href="classdrain_1_1Range.html" target="_top" xlink:title=" ">
<polygon fill="white" stroke="black" points="144.5,-67.5 144.5,-86.5 247.5,-86.5 247.5,-67.5 144.5,-67.5"/>
<text text-anchor="middle" x="196" y="-74.5" font-family="Helvetica,sans-Serif" font-size="10.00">Range&lt; double &gt;</text>
</a>
</g>
</g>
<!-- Node3&#45;&gt;Node1 -->
<g id="edge2" class="edge">
<title>Node3&#45;&gt;Node1</title>
<path fill="none" stroke="#9a32cd" stroke-dasharray="5,2" d="M171.32,-62.29C148.13,-49.4 114.14,-30.52 94.53,-19.63"/>
<polygon fill="#9a32cd" stroke="#9a32cd" points="169.78,-65.44 180.22,-67.23 173.18,-59.32 169.78,-65.44"/>
<text text-anchor="middle" x="173" y="-41" font-family="Helvetica,sans-Serif" font-size="10.00"> physRange</text>
</g>
<!-- Node4 -->
<g id="node4" class="node">
<title>Node4</title>
<g id="a_node4"><a xlink:href="classdrain_1_1UniTuple.html" target="_top" xlink:title=" ">
<polygon fill="white" stroke="black" points="133,-124.5 133,-143.5 259,-143.5 259,-124.5 133,-124.5"/>
<text text-anchor="middle" x="196" y="-131.5" font-family="Helvetica,sans-Serif" font-size="10.00">UniTuple&lt; double, 2 &gt;</text>
</a>
</g>
</g>
<!-- Node4&#45;&gt;Node3 -->
<g id="edge3" class="edge">
<title>Node4&#45;&gt;Node3</title>
<path fill="none" stroke="midnightblue" d="M196,-114.12C196,-104.82 196,-94.06 196,-86.71"/>
<polygon fill="midnightblue" stroke="midnightblue" points="192.5,-114.41 196,-124.41 199.5,-114.41 192.5,-114.41"/>
</g>
</g>
</svg>
