<?xml version="1.0" encoding="UTF-8" standalone="no"?>
<!DOCTYPE svg PUBLIC "-//W3C//DTD SVG 1.1//EN"
 "http://www.w3.org/Graphics/SVG/1.1/DTD/svg11.dtd">
<!-- Generated by graphviz version 2.43.0 (0)
 -->
<!-- Title: ImpulseAvg Pages: 1 -->
<svg width="165pt" height="207pt"
 viewBox="0.00 0.00 165.00 207.00" xmlns="http://www.w3.org/2000/svg" xmlns:xlink="http://www.w3.org/1999/xlink">
<g id="graph0" class="graph" transform="scale(1 1) rotate(0) translate(4 203)">
<title>ImpulseAvg</title>
<polygon fill="white" stroke="transparent" points="-4,4 -4,-203 161,-203 161,4 -4,4"/>
<!-- Node1 -->
<g id="node1" class="node">
<title>Node1</title>
<g id="a_node1"><a xlink:title="Averaging operator. A simple example implementation of ImpulseBucket.">
<polygon fill="#bfbfbf" stroke="black" points="41.5,-0.5 41.5,-19.5 115.5,-19.5 115.5,-0.5 41.5,-0.5"/>
<text text-anchor="middle" x="78.5" y="-7.5" font-family="Helvetica,sans-Serif" font-size="10.00">ImpulseAvg</text>
</a>
</g>
</g>
<!-- Node2 -->
<g id="node2" class="node">
<title>Node2</title>
<g id="a_node2"><a xlink:href="classdrain_1_1image_1_1ImpulseBucket.html" target="_top" xlink:title=" ">
<polygon fill="white" stroke="black" points="0,-56.5 0,-86.5 157,-86.5 157,-56.5 0,-56.5"/>
<text text-anchor="start" x="8" y="-74.5" font-family="Helvetica,sans-Serif" font-size="10.00">ImpulseBucket&lt; ImpulseAvg</text>
<text text-anchor="middle" x="78.5" y="-63.5" font-family="Helvetica,sans-Serif" font-size="10.00">Conf &gt;</text>
</a>
</g>
</g>
<!-- Node2&#45;&gt;Node1 -->
<g id="edge1" class="edge">
<title>Node2&#45;&gt;Node1</title>
<path fill="none" stroke="midnightblue" d="M78.5,-46.29C78.5,-36.86 78.5,-26.65 78.5,-19.66"/>
<polygon fill="midnightblue" stroke="midnightblue" points="75,-46.4 78.5,-56.4 82,-46.4 75,-46.4"/>
</g>
<!-- Node3 -->
<g id="node3" class="node">
<title>Node3</title>
<g id="a_node3"><a xlink:href="structdrain_1_1image_1_1ImpulseAvgConf.html" target="_top" xlink:title=" ">
<polygon fill="white" stroke="black" points="30.5,-123.5 30.5,-142.5 126.5,-142.5 126.5,-123.5 30.5,-123.5"/>
<text text-anchor="middle" x="78.5" y="-130.5" font-family="Helvetica,sans-Serif" font-size="10.00">ImpulseAvgConf</text>
</a>
</g>
</g>
<!-- Node3&#45;&gt;Node2 -->
<g id="edge2" class="edge">
<title>Node3&#45;&gt;Node2</title>
<path fill="none" stroke="midnightblue" d="M78.5,-113.23C78.5,-104.59 78.5,-94.5 78.5,-86.52"/>
<polygon fill="midnightblue" stroke="midnightblue" points="75,-113.48 78.5,-123.48 82,-113.48 75,-113.48"/>
</g>
<!-- Node4 -->
<g id="node4" class="node">
<title>Node4</title>
<g id="a_node4"><a xlink:href="classdrain_1_1BeanLike.html" target="_top" xlink:title="Something which has a name, a description and possibly some parameters of varying type.">
<polygon fill="white" stroke="black" points="48,-179.5 48,-198.5 109,-198.5 109,-179.5 48,-179.5"/>
<text text-anchor="middle" x="78.5" y="-186.5" font-family="Helvetica,sans-Serif" font-size="10.00">BeanLike</text>
</a>
</g>
</g>
<!-- Node4&#45;&gt;Node3 -->
<g id="edge3" class="edge">
<title>Node4&#45;&gt;Node3</title>
<path fill="none" stroke="midnightblue" d="M78.5,-168.8C78.5,-159.91 78.5,-149.78 78.5,-142.75"/>
<polygon fill="midnightblue" stroke="midnightblue" points="75,-169.08 78.5,-179.08 82,-169.08 75,-169.08"/>
</g>
</g>
</svg>
