<?xml version="1.0" encoding="UTF-8" standalone="no"?>
<!DOCTYPE svg PUBLIC "-//W3C//DTD SVG 1.1//EN"
 "http://www.w3.org/Graphics/SVG/1.1/DTD/svg11.dtd">
<!-- Generated by graphviz version 2.43.0 (0)
 -->
<!-- Title: SeparableWindowOp Pages: 1 -->
<svg width="162pt" height="263pt"
 viewBox="0.00 0.00 162.00 263.00" xmlns="http://www.w3.org/2000/svg" xmlns:xlink="http://www.w3.org/1999/xlink">
<g id="graph0" class="graph" transform="scale(1 1) rotate(0) translate(4 259)">
<title>SeparableWindowOp</title>
<polygon fill="white" stroke="transparent" points="-4,4 -4,-259 158,-259 158,4 -4,4"/>
<!-- Node1 -->
<g id="node1" class="node">
<title>Node1</title>
<g id="a_node1"><a xlink:title="Sliding window averaging operator with optional weighting support.">
<polygon fill="#bfbfbf" stroke="black" points="18,-0.5 18,-19.5 136,-19.5 136,-0.5 18,-0.5"/>
<text text-anchor="middle" x="77" y="-7.5" font-family="Helvetica,sans-Serif" font-size="10.00">SeparableWindowOp</text>
</a>
</g>
</g>
<!-- Node2 -->
<g id="node2" class="node">
<title>Node2</title>
<g id="a_node2"><a xlink:href="classdrain_1_1image_1_1WindowOp.html" target="_top" xlink:title=" ">
<polygon fill="white" stroke="black" points="0,-56.5 0,-86.5 154,-86.5 154,-56.5 0,-56.5"/>
<text text-anchor="start" x="8" y="-74.5" font-family="Helvetica,sans-Serif" font-size="10.00">WindowOp&lt; GaussianStripe</text>
<text text-anchor="middle" x="77" y="-63.5" font-family="Helvetica,sans-Serif" font-size="10.00">&lt; WindowCore &gt; &gt;</text>
</a>
</g>
</g>
<!-- Node2&#45;&gt;Node1 -->
<g id="edge1" class="edge">
<title>Node2&#45;&gt;Node1</title>
<path fill="none" stroke="midnightblue" d="M77,-46.29C77,-36.86 77,-26.65 77,-19.66"/>
<polygon fill="midnightblue" stroke="midnightblue" points="73.5,-46.4 77,-56.4 80.5,-46.4 73.5,-46.4"/>
</g>
<!-- Node3 -->
<g id="node3" class="node">
<title>Node3</title>
<g id="a_node3"><a xlink:href="classdrain_1_1image_1_1ImageOp.html" target="_top" xlink:title="Base class for image processing functions.">
<polygon fill="white" stroke="black" points="46.5,-123.5 46.5,-142.5 107.5,-142.5 107.5,-123.5 46.5,-123.5"/>
<text text-anchor="middle" x="77" y="-130.5" font-family="Helvetica,sans-Serif" font-size="10.00">ImageOp</text>
</a>
</g>
</g>
<!-- Node3&#45;&gt;Node2 -->
<g id="edge2" class="edge">
<title>Node3&#45;&gt;Node2</title>
<path fill="none" stroke="midnightblue" d="M77,-113.23C77,-104.59 77,-94.5 77,-86.52"/>
<polygon fill="midnightblue" stroke="midnightblue" points="73.5,-113.48 77,-123.48 80.5,-113.48 73.5,-113.48"/>
</g>
<!-- Node4 -->
<g id="node4" class="node">
<title>Node4</title>
<g id="a_node4"><a xlink:href="classdrain_1_1image_1_1ImageMod.html" target="_top" xlink:title="Class for operations that modify an existing image instead of producing a new image.">
<polygon fill="white" stroke="black" points="43,-179.5 43,-198.5 111,-198.5 111,-179.5 43,-179.5"/>
<text text-anchor="middle" x="77" y="-186.5" font-family="Helvetica,sans-Serif" font-size="10.00">ImageMod</text>
</a>
</g>
</g>
<!-- Node4&#45;&gt;Node3 -->
<g id="edge3" class="edge">
<title>Node4&#45;&gt;Node3</title>
<path fill="none" stroke="midnightblue" d="M77,-168.8C77,-159.91 77,-149.78 77,-142.75"/>
<polygon fill="midnightblue" stroke="midnightblue" points="73.5,-169.08 77,-179.08 80.5,-169.08 73.5,-169.08"/>
</g>
<!-- Node5 -->
<g id="node5" class="node">
<title>Node5</title>
<g id="a_node5"><a xlink:href="classdrain_1_1BeanLike.html" target="_top" xlink:title="Something which has a name, a description and possibly some parameters of varying type.">
<polygon fill="white" stroke="black" points="46.5,-235.5 46.5,-254.5 107.5,-254.5 107.5,-235.5 46.5,-235.5"/>
<text text-anchor="middle" x="77" y="-242.5" font-family="Helvetica,sans-Serif" font-size="10.00">BeanLike</text>
</a>
</g>
</g>
<!-- Node5&#45;&gt;Node4 -->
<g id="edge4" class="edge">
<title>Node5&#45;&gt;Node4</title>
<path fill="none" stroke="midnightblue" d="M77,-224.8C77,-215.91 77,-205.78 77,-198.75"/>
<polygon fill="midnightblue" stroke="midnightblue" points="73.5,-225.08 77,-235.08 80.5,-225.08 73.5,-225.08"/>
</g>
</g>
</svg>
