<?xml version="1.0" encoding="UTF-8" standalone="no"?>
<!DOCTYPE svg PUBLIC "-//W3C//DTD SVG 1.1//EN"
 "http://www.w3.org/Graphics/SVG/1.1/DTD/svg11.dtd">
<!-- Generated by graphviz version 2.43.0 (0)
 -->
<!-- Title: DistanceTransformFillOp&lt; T &gt; Pages: 1 -->
<svg width="301pt" height="447pt"
 viewBox="0.00 0.00 300.50 447.00" xmlns="http://www.w3.org/2000/svg" xmlns:xlink="http://www.w3.org/1999/xlink">
<g id="graph0" class="graph" transform="scale(1 1) rotate(0) translate(4 443)">
<title>DistanceTransformFillOp&lt; T &gt;</title>
<polygon fill="white" stroke="transparent" points="-4,4 -4,-443 296.5,-443 296.5,4 -4,4"/>
<!-- Node1 -->
<g id="node1" class="node">
<title>Node1</title>
<g id="a_node1"><a xlink:title="Template for DistanceTransformFillLinearOp and DistanceTransformFillExponentialOp.">
<polygon fill="#bfbfbf" stroke="black" points="74.5,-0.5 74.5,-19.5 238.5,-19.5 238.5,-0.5 74.5,-0.5"/>
<text text-anchor="middle" x="156.5" y="-7.5" font-family="Helvetica,sans-Serif" font-size="10.00">DistanceTransformFillOp&lt; T &gt;</text>
</a>
</g>
</g>
<!-- Node2 -->
<g id="node2" class="node">
<title>Node2</title>
<g id="a_node2"><a xlink:href="classdrain_1_1image_1_1DistanceTransformOp.html" target="_top" xlink:title=" ">
<polygon fill="white" stroke="black" points="9,-67.5 9,-86.5 160,-86.5 160,-67.5 9,-67.5"/>
<text text-anchor="middle" x="84.5" y="-74.5" font-family="Helvetica,sans-Serif" font-size="10.00">DistanceTransformOp&lt; T &gt;</text>
</a>
</g>
</g>
<!-- Node2&#45;&gt;Node1 -->
<g id="edge1" class="edge">
<title>Node2&#45;&gt;Node1</title>
<path fill="none" stroke="midnightblue" d="M101.83,-60.36C115.98,-47.58 135.46,-29.99 146.94,-19.63"/>
<polygon fill="midnightblue" stroke="midnightblue" points="99.29,-57.93 94.21,-67.23 103.98,-63.13 99.29,-57.93"/>
</g>
<!-- Node3 -->
<g id="node3" class="node">
<title>Node3</title>
<g id="a_node3"><a xlink:href="classdrain_1_1image_1_1ImageOp.html" target="_top" xlink:title="Base class for image processing functions.">
<polygon fill="white" stroke="black" points="54,-124.5 54,-143.5 115,-143.5 115,-124.5 54,-124.5"/>
<text text-anchor="middle" x="84.5" y="-131.5" font-family="Helvetica,sans-Serif" font-size="10.00">ImageOp</text>
</a>
</g>
</g>
<!-- Node3&#45;&gt;Node2 -->
<g id="edge2" class="edge">
<title>Node3&#45;&gt;Node2</title>
<path fill="none" stroke="midnightblue" d="M84.5,-114.12C84.5,-104.82 84.5,-94.06 84.5,-86.71"/>
<polygon fill="midnightblue" stroke="midnightblue" points="81,-114.41 84.5,-124.41 88,-114.41 81,-114.41"/>
</g>
<!-- Node4 -->
<g id="node4" class="node">
<title>Node4</title>
<g id="a_node4"><a xlink:href="classdrain_1_1image_1_1ImageMod.html" target="_top" xlink:title="Class for operations that modify an existing image instead of producing a new image.">
<polygon fill="white" stroke="black" points="50.5,-181.5 50.5,-200.5 118.5,-200.5 118.5,-181.5 50.5,-181.5"/>
<text text-anchor="middle" x="84.5" y="-188.5" font-family="Helvetica,sans-Serif" font-size="10.00">ImageMod</text>
</a>
</g>
</g>
<!-- Node4&#45;&gt;Node3 -->
<g id="edge3" class="edge">
<title>Node4&#45;&gt;Node3</title>
<path fill="none" stroke="midnightblue" d="M84.5,-171.12C84.5,-161.82 84.5,-151.06 84.5,-143.71"/>
<polygon fill="midnightblue" stroke="midnightblue" points="81,-171.41 84.5,-181.41 88,-171.41 81,-171.41"/>
</g>
<!-- Node5 -->
<g id="node5" class="node">
<title>Node5</title>
<g id="a_node5"><a xlink:href="classdrain_1_1BeanLike.html" target="_top" xlink:title="Something which has a name, a description and possibly some parameters of varying type.">
<polygon fill="white" stroke="black" points="54,-238.5 54,-257.5 115,-257.5 115,-238.5 54,-238.5"/>
<text text-anchor="middle" x="84.5" y="-245.5" font-family="Helvetica,sans-Serif" font-size="10.00">BeanLike</text>
</a>
</g>
</g>
<!-- Node5&#45;&gt;Node4 -->
<g id="edge4" class="edge">
<title>Node5&#45;&gt;Node4</title>
<path fill="none" stroke="midnightblue" d="M84.5,-228.12C84.5,-218.82 84.5,-208.06 84.5,-200.71"/>
<polygon fill="midnightblue" stroke="midnightblue" points="81,-228.41 84.5,-238.41 88,-228.41 81,-228.41"/>
</g>
<!-- Node6 -->
<g id="node6" class="node">
<title>Node6</title>
<g id="a_node6"><a xlink:href="classdrain_1_1ReferenceMap.html" target="_top" xlink:title=" ">
<polygon fill="white" stroke="black" points="41,-305.5 41,-324.5 128,-324.5 128,-305.5 41,-305.5"/>
<text text-anchor="middle" x="84.5" y="-312.5" font-family="Helvetica,sans-Serif" font-size="10.00">ReferenceMap</text>
</a>
</g>
</g>
<!-- Node6&#45;&gt;Node5 -->
<g id="edge5" class="edge">
<title>Node6&#45;&gt;Node5</title>
<path fill="none" stroke="#9a32cd" stroke-dasharray="5,2" d="M84.5,-295.04C84.5,-282.67 84.5,-267.12 84.5,-257.63"/>
<polygon fill="#9a32cd" stroke="#9a32cd" points="81,-295.23 84.5,-305.23 88,-295.23 81,-295.23"/>
<text text-anchor="middle" x="114.5" y="-279" font-family="Helvetica,sans-Serif" font-size="10.00"> parameters</text>
</g>
<!-- Node7 -->
<g id="node7" class="node">
<title>Node7</title>
<g id="a_node7"><a xlink:href="classdrain_1_1SmartMap.html" target="_top" xlink:title=" ">
<polygon fill="white" stroke="black" points="13,-362.5 13,-381.5 156,-381.5 156,-362.5 13,-362.5"/>
<text text-anchor="middle" x="84.5" y="-369.5" font-family="Helvetica,sans-Serif" font-size="10.00">SmartMap&lt; Referencer &gt;</text>
</a>
</g>
</g>
<!-- Node7&#45;&gt;Node6 -->
<g id="edge6" class="edge">
<title>Node7&#45;&gt;Node6</title>
<path fill="none" stroke="midnightblue" d="M84.5,-352.12C84.5,-342.82 84.5,-332.06 84.5,-324.71"/>
<polygon fill="midnightblue" stroke="midnightblue" points="81,-352.41 84.5,-362.41 88,-352.41 81,-352.41"/>
</g>
<!-- Node8 -->
<g id="node8" class="node">
<title>Node8</title>
<g id="a_node8"><a xlink:title=" ">
<polygon fill="white" stroke="#bfbfbf" points="0,-419.5 0,-438.5 169,-438.5 169,-419.5 0,-419.5"/>
<text text-anchor="middle" x="84.5" y="-426.5" font-family="Helvetica,sans-Serif" font-size="10.00">map&lt; std::string, Referencer &gt;</text>
</a>
</g>
</g>
<!-- Node8&#45;&gt;Node7 -->
<g id="edge7" class="edge">
<title>Node8&#45;&gt;Node7</title>
<path fill="none" stroke="midnightblue" d="M84.5,-409.12C84.5,-399.82 84.5,-389.06 84.5,-381.71"/>
<polygon fill="midnightblue" stroke="midnightblue" points="81,-409.41 84.5,-419.41 88,-409.41 81,-409.41"/>
</g>
<!-- Node9 -->
<g id="node9" class="node">
<title>Node9</title>
<g id="a_node9"><a xlink:href="classdrain_1_1Range.html" target="_top" xlink:title=" ">
<polygon fill="white" stroke="black" points="178,-67.5 178,-86.5 281,-86.5 281,-67.5 178,-67.5"/>
<text text-anchor="middle" x="229.5" y="-74.5" font-family="Helvetica,sans-Serif" font-size="10.00">Range&lt; double &gt;</text>
</a>
</g>
</g>
<!-- Node9&#45;&gt;Node1 -->
<g id="edge8" class="edge">
<title>Node9&#45;&gt;Node1</title>
<path fill="none" stroke="#9a32cd" stroke-dasharray="5,2" d="M211.93,-60.36C197.58,-47.58 177.83,-29.99 166.19,-19.63"/>
<polygon fill="#9a32cd" stroke="#9a32cd" points="209.86,-63.2 219.65,-67.23 214.51,-57.97 209.86,-63.2"/>
<text text-anchor="middle" x="237" y="-41" font-family="Helvetica,sans-Serif" font-size="10.00"> alphaThreshold</text>
</g>
<!-- Node10 -->
<g id="node10" class="node">
<title>Node10</title>
<g id="a_node10"><a xlink:href="classdrain_1_1UniTuple.html" target="_top" xlink:title=" ">
<polygon fill="white" stroke="black" points="166.5,-124.5 166.5,-143.5 292.5,-143.5 292.5,-124.5 166.5,-124.5"/>
<text text-anchor="middle" x="229.5" y="-131.5" font-family="Helvetica,sans-Serif" font-size="10.00">UniTuple&lt; double, 2 &gt;</text>
</a>
</g>
</g>
<!-- Node10&#45;&gt;Node9 -->
<g id="edge9" class="edge">
<title>Node10&#45;&gt;Node9</title>
<path fill="none" stroke="midnightblue" d="M229.5,-114.12C229.5,-104.82 229.5,-94.06 229.5,-86.71"/>
<polygon fill="midnightblue" stroke="midnightblue" points="226,-114.41 229.5,-124.41 233,-114.41 226,-114.41"/>
</g>
</g>
</svg>
