<?xml version="1.0" encoding="UTF-8" standalone="no"?>
<!DOCTYPE svg PUBLIC "-//W3C//DTD SVG 1.1//EN"
 "http://www.w3.org/Graphics/SVG/1.1/DTD/svg11.dtd">
<!-- Generated by graphviz version 2.43.0 (0)
 -->
<!-- Title: DopplerDevOp Pages: 1 -->
<!--zoomable 845 -->
<svg id="main" version="1.1" xmlns="http://www.w3.org/2000/svg" xmlns:xlink="http://www.w3.org/1999/xlink" xml:space="preserve" onload="init(evt)">
<style type="text/css"><![CDATA[
.edge:hover path { stroke: red; }
.edge:hover polygon { stroke: red; fill: red; }
]]></style>
<script type="text/javascript"><![CDATA[
var edges = document.getElementsByTagName('g');
if (edges && edges.length) {
  for (var i=0;i<edges.length;i++) {
    if (edges[i].id.substr(0,4)=='edge') {
      edges[i].setAttribute('class','edge');
    }
  }
}
]]></script>
        <defs>
                <circle id="rim" cx="0" cy="0" r="7"/>
                <circle id="rim2" cx="0" cy="0" r="3.5"/>
                <g id="zoomPlus">
                        <use xlink:href="#rim" fill="#404040">
                                <set attributeName="fill" to="#808080" begin="zoomplus.mouseover" end="zoomplus.mouseout"/>
                        </use>
                        <path d="M-4,0h8M0,-4v8" fill="none" stroke="white" stroke-width="1.5" pointer-events="none"/>
                </g>
                <g id="zoomMin">
                        <use xlink:href="#rim" fill="#404040">
                                <set attributeName="fill" to="#808080" begin="zoomminus.mouseover" end="zoomminus.mouseout"/>
                        </use>
                        <path d="M-4,0h8" fill="none" stroke="white" stroke-width="1.5" pointer-events="none"/>
                </g>
                <g id="dirArrow">
                        <path fill="none" stroke="white" stroke-width="1.5" d="M0,-3.0v7 M-2.5,-0.5L0,-3.0L2.5,-0.5"/>
                </g>
               <g id="resetDef">
                       <use xlink:href="#rim2" fill="#404040">
                               <set attributeName="fill" to="#808080" begin="reset.mouseover" end="reset.mouseout"/>
                       </use>
               </g>
        </defs>

<script type="text/javascript">
var viewWidth = 1180;
var viewHeight = 845;
var sectionId = 'dynsection-1';
</script>
<script xlink:href="svgpan.js"/>
<svg id="graph" class="graph">
<g id="viewport">
<title>DopplerDevOp</title>
<polygon fill="white" stroke="transparent" points="-4,4 -4,-841 1175.5,-841 1175.5,4 -4,4"/>
<!-- Node1 -->
<g id="node1" class="node">
<title>Node1</title>
<g id="a_node1"><a xlink:title=" ">
<polygon fill="#bfbfbf" stroke="black" points="339,-0.5 339,-19.5 427,-19.5 427,-0.5 339,-0.5"/>
<text text-anchor="middle" x="383" y="-7.5" font-family="Helvetica,sans-Serif" font-size="10.00">DopplerDevOp</text>
</a>
</g>
</g>
<!-- Node2 -->
<g id="node2" class="node">
<title>Node2</title>
<g id="a_node2"><a xlink:href="classrack_1_1DopplerWindowOp.html" target="_top" xlink:title=" ">
<polygon fill="white" stroke="black" points="304.5,-57.5 304.5,-87.5 461.5,-87.5 461.5,-57.5 304.5,-57.5"/>
<text text-anchor="start" x="312.5" y="-75.5" font-family="Helvetica,sans-Serif" font-size="10.00">DopplerWindowOp&lt; Doppler</text>
<text text-anchor="middle" x="383" y="-64.5" font-family="Helvetica,sans-Serif" font-size="10.00">DevWindow &gt;</text>
</a>
</g>
</g>
<!-- Node2&#45;&gt;Node1 -->
<g id="edge1" class="edge">
<title>Node2&#45;&gt;Node1</title>
<path fill="none" stroke="midnightblue" d="M383,-47.35C383,-37.51 383,-26.78 383,-19.54"/>
<polygon fill="midnightblue" stroke="midnightblue" points="379.5,-47.47 383,-57.47 386.5,-47.47 379.5,-47.47"/>
</g>
<!-- Node3 -->
<g id="node3" class="node">
<title>Node3</title>
<g id="a_node3"><a xlink:href="classrack_1_1DopplerOp.html" target="_top" xlink:title="Base class for computing products using Doppler speed [VRAD] data.">
<polygon fill="white" stroke="black" points="142,-394 142,-413 210,-413 210,-394 142,-394"/>
<text text-anchor="middle" x="176" y="-401" font-family="Helvetica,sans-Serif" font-size="10.00">DopplerOp</text>
</a>
</g>
</g>
<!-- Node3&#45;&gt;Node2 -->
<g id="edge2" class="edge">
<title>Node3&#45;&gt;Node2</title>
<path fill="none" stroke="midnightblue" d="M220.26,-395.81C276.68,-386.01 367,-365.48 367,-334.5 367,-334.5 367,-334.5 367,-144 367,-124.04 373.17,-101.68 377.85,-87.6"/>
<polygon fill="midnightblue" stroke="midnightblue" points="219.43,-392.4 210.15,-397.52 220.59,-399.3 219.43,-392.4"/>
</g>
<!-- Node4 -->
<g id="node4" class="node">
<title>Node4</title>
<g id="a_node4"><a xlink:href="classrack_1_1PolarProductOp.html" target="_top" xlink:title="Base class for flat (2D) products computed in the polar coordinate system. Volume is used as input.">
<polygon fill="white" stroke="black" points="39,-468.5 39,-487.5 131,-487.5 131,-468.5 39,-468.5"/>
<text text-anchor="middle" x="85" y="-475.5" font-family="Helvetica,sans-Serif" font-size="10.00">PolarProductOp</text>
</a>
</g>
</g>
<!-- Node4&#45;&gt;Node3 -->
<g id="edge3" class="edge">
<title>Node4&#45;&gt;Node3</title>
<path fill="none" stroke="midnightblue" d="M103.84,-461.99C122.4,-447.2 150.11,-425.13 165.22,-413.09"/>
<polygon fill="midnightblue" stroke="midnightblue" points="101.44,-459.43 95.8,-468.4 105.8,-464.9 101.44,-459.43"/>
</g>
<!-- Node5 -->
<g id="node5" class="node">
<title>Node5</title>
<g id="a_node5"><a xlink:href="classrack_1_1VolumeOp.html" target="_top" xlink:title=" ">
<polygon fill="white" stroke="black" points="11,-547.5 11,-566.5 153,-566.5 153,-547.5 11,-547.5"/>
<text text-anchor="middle" x="82" y="-554.5" font-family="Helvetica,sans-Serif" font-size="10.00">VolumeOp&lt; PolarODIM &gt;</text>
</a>
</g>
</g>
<!-- Node5&#45;&gt;Node4 -->
<g id="edge4" class="edge">
<title>Node5&#45;&gt;Node4</title>
<path fill="none" stroke="midnightblue" d="M82.73,-537.31C83.34,-521.59 84.19,-499.81 84.66,-487.81"/>
<polygon fill="midnightblue" stroke="midnightblue" points="79.22,-537.34 82.33,-547.47 86.22,-537.61 79.22,-537.34"/>
</g>
<!-- Node6 -->
<g id="node6" class="node">
<title>Node6</title>
<g id="a_node6"><a xlink:href="classdrain_1_1image_1_1ProductOp.html" target="_top" xlink:title=" ">
<polygon fill="white" stroke="black" points="0,-614.5 0,-644.5 162,-644.5 162,-614.5 0,-614.5"/>
<text text-anchor="start" x="8" y="-632.5" font-family="Helvetica,sans-Serif" font-size="10.00">ProductOp&lt; const PolarODIM,</text>
<text text-anchor="middle" x="81" y="-621.5" font-family="Helvetica,sans-Serif" font-size="10.00"> PolarODIM &gt;</text>
</a>
</g>
</g>
<!-- Node6&#45;&gt;Node5 -->
<g id="edge5" class="edge">
<title>Node6&#45;&gt;Node5</title>
<path fill="none" stroke="midnightblue" d="M81.35,-604.09C81.53,-591.21 81.74,-576.2 81.87,-566.89"/>
<polygon fill="midnightblue" stroke="midnightblue" points="77.84,-604.18 81.2,-614.23 84.84,-604.28 77.84,-604.18"/>
</g>
<!-- Node7 -->
<g id="node7" class="node">
<title>Node7</title>
<g id="a_node7"><a xlink:href="classdrain_1_1image_1_1CoordinatePolicy.html" target="_top" xlink:title="Policies for coordinate underflows and overflows.">
<polygon fill="white" stroke="black" points="206.5,-547.5 206.5,-566.5 305.5,-566.5 305.5,-547.5 206.5,-547.5"/>
<text text-anchor="middle" x="256" y="-554.5" font-family="Helvetica,sans-Serif" font-size="10.00">CoordinatePolicy</text>
</a>
</g>
</g>
<!-- Node7&#45;&gt;Node4 -->
<g id="edge6" class="edge">
<title>Node7&#45;&gt;Node4</title>
<path fill="none" stroke="#9a32cd" stroke-dasharray="5,2" d="M201.29,-544.92C186.23,-540.89 170.16,-535.64 156,-529 132.25,-517.86 107.99,-498.76 94.88,-487.67"/>
<polygon fill="#9a32cd" stroke="#9a32cd" points="200.46,-548.31 211.01,-547.39 202.18,-541.53 200.46,-548.31"/>
<text text-anchor="middle" x="199" y="-515.5" font-family="Helvetica,sans-Serif" font-size="10.00"> polarCoordPolicy</text>
</g>
<!-- Node36 -->
<g id="node36" class="node">
<title>Node36</title>
<g id="a_node36"><a xlink:href="classdrain_1_1image_1_1CoordinateHandler2D.html" target="_top" xlink:title=" ">
<polygon fill="white" stroke="black" points="311,-468.5 311,-487.5 433,-487.5 433,-468.5 311,-468.5"/>
<text text-anchor="middle" x="372" y="-475.5" font-family="Helvetica,sans-Serif" font-size="10.00">CoordinateHandler2D</text>
</a>
</g>
</g>
<!-- Node7&#45;&gt;Node36 -->
<g id="edge40" class="edge">
<title>Node7&#45;&gt;Node36</title>
<path fill="none" stroke="#9a32cd" stroke-dasharray="5,2" d="M277.26,-541.89C301.19,-526.01 339.28,-500.72 359.09,-487.57"/>
<polygon fill="#9a32cd" stroke="#9a32cd" points="275.25,-539.02 268.86,-547.47 279.12,-544.85 275.25,-539.02"/>
<text text-anchor="middle" x="343.5" y="-515.5" font-family="Helvetica,sans-Serif" font-size="10.00"> policy</text>
</g>
<!-- Node8 -->
<g id="node8" class="node">
<title>Node8</title>
<g id="a_node8"><a xlink:href="classdrain_1_1UniTuple.html" target="_top" xlink:title=" ">
<polygon fill="white" stroke="black" points="313.5,-614.5 313.5,-644.5 430.5,-644.5 430.5,-614.5 313.5,-614.5"/>
<text text-anchor="start" x="321.5" y="-632.5" font-family="Helvetica,sans-Serif" font-size="10.00">UniTuple&lt; coord_pol</text>
<text text-anchor="middle" x="372" y="-621.5" font-family="Helvetica,sans-Serif" font-size="10.00">_t, 4 &gt;</text>
</a>
</g>
</g>
<!-- Node8&#45;&gt;Node7 -->
<g id="edge7" class="edge">
<title>Node8&#45;&gt;Node7</title>
<path fill="none" stroke="midnightblue" d="M340.08,-609.1C317.13,-595.15 287.3,-577.02 270.04,-566.53"/>
<polygon fill="midnightblue" stroke="midnightblue" points="338.44,-612.2 348.8,-614.4 342.08,-606.22 338.44,-612.2"/>
</g>
<!-- Node9 -->
<g id="node9" class="node">
<title>Node9</title>
<g id="a_node9"><a xlink:href="classdrain_1_1Dictionary2.html" target="_top" xlink:title="Two&#45;way mapping between strings and objects of template class T.">
<polygon fill="white" stroke="black" points="180.5,-620 180.5,-639 295.5,-639 295.5,-620 180.5,-620"/>
<text text-anchor="middle" x="238" y="-627" font-family="Helvetica,sans-Serif" font-size="10.00">Dictionary2&lt; K, V &gt;</text>
</a>
</g>
</g>
<!-- Node9&#45;&gt;Node7 -->
<g id="edge8" class="edge">
<title>Node9&#45;&gt;Node7</title>
<path fill="none" stroke="#9a32cd" stroke-dasharray="5,2" d="M242.76,-609.86C246.32,-595.9 251.04,-577.43 253.77,-566.72"/>
<polygon fill="#9a32cd" stroke="#9a32cd" points="239.29,-609.3 240.21,-619.86 246.07,-611.03 239.29,-609.3"/>
<text text-anchor="middle" x="259" y="-588" font-family="Helvetica,sans-Serif" font-size="10.00"> dict</text>
</g>
<!-- Node10 -->
<g id="node10" class="node">
<title>Node10</title>
<g id="a_node10"><a xlink:title=" ">
<polygon fill="white" stroke="#bfbfbf" points="186,-692.5 186,-722.5 290,-722.5 290,-692.5 186,-692.5"/>
<text text-anchor="start" x="194" y="-710.5" font-family="Helvetica,sans-Serif" font-size="10.00">list&lt; std::pair&lt; K,</text>
<text text-anchor="middle" x="238" y="-699.5" font-family="Helvetica,sans-Serif" font-size="10.00"> V &gt; &gt;</text>
</a>
</g>
</g>
<!-- Node10&#45;&gt;Node9 -->
<g id="edge9" class="edge">
<title>Node10&#45;&gt;Node9</title>
<path fill="none" stroke="midnightblue" d="M238,-682.17C238,-667.4 238,-649.45 238,-639.06"/>
<polygon fill="midnightblue" stroke="midnightblue" points="234.5,-682.2 238,-692.2 241.5,-682.21 234.5,-682.2"/>
</g>
<!-- Node11 -->
<g id="node11" class="node">
<title>Node11</title>
<g id="a_node11"><a xlink:href="classdrain_1_1RegExp.html" target="_top" xlink:title=" ">
<polygon fill="white" stroke="black" points="149.5,-468.5 149.5,-487.5 202.5,-487.5 202.5,-468.5 149.5,-468.5"/>
<text text-anchor="middle" x="176" y="-475.5" font-family="Helvetica,sans-Serif" font-size="10.00">RegExp</text>
</a>
</g>
</g>
<!-- Node11&#45;&gt;Node3 -->
<g id="edge10" class="edge">
<title>Node11&#45;&gt;Node3</title>
<path fill="none" stroke="#9a32cd" stroke-dasharray="5,2" d="M176,-458.03C176,-443.48 176,-424.09 176,-413.09"/>
<polygon fill="#9a32cd" stroke="#9a32cd" points="172.5,-458.4 176,-468.4 179.5,-458.4 172.5,-458.4"/>
<text text-anchor="middle" x="208.5" y="-441" font-family="Helvetica,sans-Serif" font-size="10.00"> regExpVRAD</text>
</g>
<!-- Node12 -->
<g id="node12" class="node">
<title>Node12</title>
<g id="a_node12"><a xlink:href="classrack_1_1DopplerDevWindow.html" target="_top" xlink:title=" ">
<polygon fill="white" stroke="black" points="401.5,-135.5 401.5,-154.5 514.5,-154.5 514.5,-135.5 401.5,-135.5"/>
<text text-anchor="middle" x="458" y="-142.5" font-family="Helvetica,sans-Serif" font-size="10.00">DopplerDevWindow</text>
</a>
</g>
</g>
<!-- Node12&#45;&gt;Node2 -->
<g id="edge11" class="edge">
<title>Node12&#45;&gt;Node2</title>
<path fill="none" stroke="#9a32cd" stroke-dasharray="5,2" d="M441.45,-128.44C428.46,-116.23 410.54,-99.39 397.97,-87.58"/>
<polygon fill="#9a32cd" stroke="#9a32cd" points="439.12,-131.06 448.8,-135.36 443.91,-125.96 439.12,-131.06"/>
<text text-anchor="middle" x="439.5" y="-109" font-family="Helvetica,sans-Serif" font-size="10.00"> conf</text>
</g>
<!-- Node13 -->
<g id="node13" class="node">
<title>Node13</title>
<g id="a_node13"><a xlink:href="classrack_1_1DopplerWindow.html" target="_top" xlink:title=" ">
<polygon fill="white" stroke="black" points="416,-192.5 416,-211.5 510,-211.5 510,-192.5 416,-192.5"/>
<text text-anchor="middle" x="463" y="-199.5" font-family="Helvetica,sans-Serif" font-size="10.00">DopplerWindow</text>
</a>
</g>
</g>
<!-- Node13&#45;&gt;Node12 -->
<g id="edge12" class="edge">
<title>Node13&#45;&gt;Node12</title>
<path fill="none" stroke="midnightblue" d="M461.31,-182.42C460.46,-173.05 459.47,-162.14 458.79,-154.71"/>
<polygon fill="midnightblue" stroke="midnightblue" points="457.83,-182.76 462.22,-192.41 464.8,-182.13 457.83,-182.76"/>
</g>
<!-- Node14 -->
<g id="node14" class="node">
<title>Node14</title>
<g id="a_node14"><a xlink:href="classrack_1_1SlidingRadarWindow.html" target="_top" xlink:title=" ">
<polygon fill="white" stroke="black" points="402,-249.5 402,-279.5 540,-279.5 540,-249.5 402,-249.5"/>
<text text-anchor="start" x="410" y="-267.5" font-family="Helvetica,sans-Serif" font-size="10.00">SlidingRadarWindow</text>
<text text-anchor="middle" x="471" y="-256.5" font-family="Helvetica,sans-Serif" font-size="10.00">&lt; RadarWindowConfig &gt;</text>
</a>
</g>
</g>
<!-- Node14&#45;&gt;Node13 -->
<g id="edge13" class="edge">
<title>Node14&#45;&gt;Node13</title>
<path fill="none" stroke="midnightblue" d="M467.81,-239.35C466.51,-229.51 465.09,-218.78 464.13,-211.54"/>
<polygon fill="midnightblue" stroke="midnightblue" points="464.36,-240.01 469.14,-249.47 471.3,-239.1 464.36,-240.01"/>
</g>
<!-- Node15 -->
<g id="node15" class="node">
<title>Node15</title>
<g id="a_node15"><a xlink:href="classdrain_1_1image_1_1SlidingWindow.html" target="_top" xlink:title=" ">
<polygon fill="white" stroke="black" points="584.5,-318.5 584.5,-348.5 751.5,-348.5 751.5,-318.5 584.5,-318.5"/>
<text text-anchor="start" x="592.5" y="-336.5" font-family="Helvetica,sans-Serif" font-size="10.00">SlidingWindow&lt; RadarWindow</text>
<text text-anchor="middle" x="668" y="-325.5" font-family="Helvetica,sans-Serif" font-size="10.00">Config, RadarWindowCore &gt;</text>
</a>
</g>
</g>
<!-- Node15&#45;&gt;Node14 -->
<g id="edge14" class="edge">
<title>Node15&#45;&gt;Node14</title>
<path fill="none" stroke="midnightblue" d="M616.91,-315.12C584.34,-304.05 542.7,-289.89 512.24,-279.53"/>
<polygon fill="midnightblue" stroke="midnightblue" points="616.11,-318.55 626.7,-318.45 618.36,-311.92 616.11,-318.55"/>
</g>
<!-- Node15&#45;&gt;Node15 -->
<g id="edge42" class="edge">
<title>Node15&#45;&gt;Node15</title>
<path fill="none" stroke="#9a32cd" stroke-dasharray="5,2" d="M761.65,-337.7C766.58,-336.66 769.5,-335.27 769.5,-333.5 769.5,-330.74 762.39,-328.88 751.62,-327.91"/>
<polygon fill="#9a32cd" stroke="#9a32cd" points="761.04,-334.25 751.62,-339.09 762.01,-341.18 761.04,-334.25"/>
<text text-anchor="middle" x="798" y="-342" font-family="Helvetica,sans-Serif" font-size="10.00"> fill</text>
<text text-anchor="middle" x="798" y="-331" font-family="Helvetica,sans-Serif" font-size="10.00">updateVert</text>
<text text-anchor="middle" x="798" y="-320" font-family="Helvetica,sans-Serif" font-size="10.00">updateHorz</text>
</g>
<!-- Node16 -->
<g id="node16" class="node">
<title>Node16</title>
<g id="a_node16"><a xlink:href="classdrain_1_1image_1_1Window.html" target="_top" xlink:title=" ">
<polygon fill="white" stroke="black" points="583.5,-388.5 583.5,-418.5 752.5,-418.5 752.5,-388.5 583.5,-388.5"/>
<text text-anchor="start" x="591.5" y="-406.5" font-family="Helvetica,sans-Serif" font-size="10.00">Window&lt; RadarWindowConfig,</text>
<text text-anchor="middle" x="668" y="-395.5" font-family="Helvetica,sans-Serif" font-size="10.00"> RadarWindowCore &gt;</text>
</a>
</g>
</g>
<!-- Node16&#45;&gt;Node15 -->
<g id="edge15" class="edge">
<title>Node16&#45;&gt;Node15</title>
<path fill="none" stroke="midnightblue" d="M668,-378.27C668,-368.31 668,-357.14 668,-348.57"/>
<polygon fill="midnightblue" stroke="midnightblue" points="664.5,-378.41 668,-388.41 671.5,-378.41 664.5,-378.41"/>
</g>
<!-- Node17 -->
<g id="node17" class="node">
<title>Node17</title>
<g id="a_node17"><a xlink:title=" ">
<polygon fill="white" stroke="#bfbfbf" points="451.5,-468.5 451.5,-487.5 558.5,-487.5 558.5,-468.5 451.5,-468.5"/>
<text text-anchor="middle" x="505" y="-475.5" font-family="Helvetica,sans-Serif" font-size="10.00">RadarWindowCore</text>
</a>
</g>
</g>
<!-- Node17&#45;&gt;Node16 -->
<g id="edge16" class="edge">
<title>Node17&#45;&gt;Node16</title>
<path fill="none" stroke="midnightblue" d="M533.83,-464.18C562.59,-451.38 606.68,-431.77 636.39,-418.56"/>
<polygon fill="midnightblue" stroke="midnightblue" points="532.05,-461.14 524.34,-468.4 534.9,-467.53 532.05,-461.14"/>
</g>
<!-- Node18 -->
<g id="node18" class="node">
<title>Node18</title>
<g id="a_node18"><a xlink:href="classdrain_1_1Range.html" target="_top" xlink:title=" ">
<polygon fill="white" stroke="black" points="330.5,-547.5 330.5,-566.5 413.5,-566.5 413.5,-547.5 330.5,-547.5"/>
<text text-anchor="middle" x="372" y="-554.5" font-family="Helvetica,sans-Serif" font-size="10.00">Range&lt; int &gt;</text>
</a>
</g>
</g>
<!-- Node18&#45;&gt;Node16 -->
<g id="edge17" class="edge">
<title>Node18&#45;&gt;Node16</title>
<path fill="none" stroke="#9a32cd" stroke-dasharray="5,2" d="M320.75,-544.24C310.6,-540.44 300.48,-535.46 292,-529 268.1,-510.78 245.62,-489.97 265,-467 304.78,-419.86 477.12,-407.93 583.13,-405.13"/>
<polygon fill="#9a32cd" stroke="#9a32cd" points="319.83,-547.63 330.43,-547.54 322.09,-541 319.83,-547.63"/>
<text text-anchor="middle" x="283.5" y="-481" font-family="Helvetica,sans-Serif" font-size="10.00"> jRange</text>
<text text-anchor="middle" x="283.5" y="-470" font-family="Helvetica,sans-Serif" font-size="10.00">iRange</text>
</g>
<!-- Node18&#45;&gt;Node36 -->
<g id="edge38" class="edge">
<title>Node18&#45;&gt;Node36</title>
<path fill="none" stroke="#9a32cd" stroke-dasharray="5,2" d="M372,-537.31C372,-521.59 372,-499.81 372,-487.81"/>
<polygon fill="#9a32cd" stroke="#9a32cd" points="368.5,-537.47 372,-547.47 375.5,-537.47 368.5,-537.47"/>
<text text-anchor="middle" x="392" y="-521" font-family="Helvetica,sans-Serif" font-size="10.00"> yRange</text>
<text text-anchor="middle" x="392" y="-510" font-family="Helvetica,sans-Serif" font-size="10.00">xRange</text>
</g>
<!-- Node19 -->
<g id="node19" class="node">
<title>Node19</title>
<g id="a_node19"><a xlink:href="classdrain_1_1UniTuple.html" target="_top" xlink:title=" ">
<polygon fill="white" stroke="black" points="482,-698 482,-717 588,-717 588,-698 482,-698"/>
<text text-anchor="middle" x="535" y="-705" font-family="Helvetica,sans-Serif" font-size="10.00">UniTuple&lt; int, 2 &gt;</text>
</a>
</g>
</g>
<!-- Node19&#45;&gt;Node18 -->
<g id="edge18" class="edge">
<title>Node19&#45;&gt;Node18</title>
<path fill="none" stroke="midnightblue" d="M519.54,-690.66C501.05,-671.91 468.96,-639.94 440,-614 420.63,-596.65 397,-577.65 383.31,-566.84"/>
<polygon fill="midnightblue" stroke="midnightblue" points="517.08,-693.15 526.58,-697.84 522.08,-688.25 517.08,-693.15"/>
</g>
<!-- Node31 -->
<g id="node31" class="node">
<title>Node31</title>
<g id="a_node31"><a xlink:href="classdrain_1_1Frame2D.html" target="_top" xlink:title=" ">
<polygon fill="white" stroke="black" points="487,-620 487,-639 583,-639 583,-620 487,-620"/>
<text text-anchor="middle" x="535" y="-627" font-family="Helvetica,sans-Serif" font-size="10.00">Frame2D&lt; int &gt;</text>
</a>
</g>
</g>
<!-- Node19&#45;&gt;Node31 -->
<g id="edge31" class="edge">
<title>Node19&#45;&gt;Node31</title>
<path fill="none" stroke="midnightblue" d="M535,-687.72C535,-672.2 535,-650.86 535,-639.12"/>
<polygon fill="midnightblue" stroke="midnightblue" points="531.5,-687.78 535,-697.78 538.5,-687.78 531.5,-687.78"/>
</g>
<!-- Node35 -->
<g id="node35" class="node">
<title>Node35</title>
<g id="a_node35"><a xlink:href="structdrain_1_1Point2D.html" target="_top" xlink:title=" ">
<polygon fill="white" stroke="black" points="912,-468.5 912,-487.5 1002,-487.5 1002,-468.5 912,-468.5"/>
<text text-anchor="middle" x="957" y="-475.5" font-family="Helvetica,sans-Serif" font-size="10.00">Point2D&lt; int &gt;</text>
</a>
</g>
</g>
<!-- Node19&#45;&gt;Node35 -->
<g id="edge36" class="edge">
<title>Node19&#45;&gt;Node35</title>
<path fill="none" stroke="midnightblue" d="M598.09,-697.07C667.86,-684.07 780.86,-655.2 860,-596 903.1,-563.76 939.11,-508.61 951.95,-487.53"/>
<polygon fill="midnightblue" stroke="midnightblue" points="597.33,-693.65 588.12,-698.87 598.58,-700.53 597.33,-693.65"/>
</g>
<!-- Node20 -->
<g id="node20" class="node">
<title>Node20</title>
<g id="a_node20"><a xlink:href="structdrain_1_1UnaryFunctor.html" target="_top" xlink:title=" ">
<polygon fill="white" stroke="black" points="1021,-468.5 1021,-487.5 1103,-487.5 1103,-468.5 1021,-468.5"/>
<text text-anchor="middle" x="1062" y="-475.5" font-family="Helvetica,sans-Serif" font-size="10.00">UnaryFunctor</text>
</a>
</g>
</g>
<!-- Node20&#45;&gt;Node16 -->
<g id="edge19" class="edge">
<title>Node20&#45;&gt;Node16</title>
<path fill="none" stroke="#9a32cd" stroke-dasharray="5,2" d="M1010.8,-466.96C942.31,-453.63 924.2,-449.76 860,-438 824.05,-431.41 784.27,-424.42 750.28,-418.54"/>
<polygon fill="#9a32cd" stroke="#9a32cd" points="1010.32,-470.44 1020.81,-468.91 1011.66,-463.56 1010.32,-470.44"/>
<text text-anchor="middle" x="944.5" y="-441" font-family="Helvetica,sans-Serif" font-size="10.00"> myFunctor</text>
</g>
<!-- Node21 -->
<g id="node21" class="node">
<title>Node21</title>
<g id="a_node21"><a xlink:href="classdrain_1_1Functor.html" target="_top" xlink:title="Base class for sequential computations. Optional scaling utilities.">
<polygon fill="white" stroke="black" points="1037.5,-547.5 1037.5,-566.5 1090.5,-566.5 1090.5,-547.5 1037.5,-547.5"/>
<text text-anchor="middle" x="1064" y="-554.5" font-family="Helvetica,sans-Serif" font-size="10.00">Functor</text>
</a>
</g>
</g>
<!-- Node21&#45;&gt;Node20 -->
<g id="edge20" class="edge">
<title>Node21&#45;&gt;Node20</title>
<path fill="none" stroke="midnightblue" d="M1063.51,-537.31C1063.11,-521.59 1062.54,-499.81 1062.23,-487.81"/>
<polygon fill="midnightblue" stroke="midnightblue" points="1060.02,-537.56 1063.78,-547.47 1067.02,-537.38 1060.02,-537.56"/>
</g>
<!-- Node22 -->
<g id="node22" class="node">
<title>Node22</title>
<g id="a_node22"><a xlink:href="classdrain_1_1BeanLike.html" target="_top" xlink:title="Something which has a name, a description and possibly some parameters of varying type.">
<polygon fill="white" stroke="black" points="1037.5,-620 1037.5,-639 1098.5,-639 1098.5,-620 1037.5,-620"/>
<text text-anchor="middle" x="1068" y="-627" font-family="Helvetica,sans-Serif" font-size="10.00">BeanLike</text>
</a>
</g>
</g>
<!-- Node22&#45;&gt;Node21 -->
<g id="edge21" class="edge">
<title>Node22&#45;&gt;Node21</title>
<path fill="none" stroke="midnightblue" d="M1066.94,-609.86C1066.15,-595.9 1065.1,-577.43 1064.49,-566.72"/>
<polygon fill="midnightblue" stroke="midnightblue" points="1063.45,-610.07 1067.51,-619.86 1070.44,-609.67 1063.45,-610.07"/>
</g>
<!-- Node23 -->
<g id="node23" class="node">
<title>Node23</title>
<g id="a_node23"><a xlink:href="classdrain_1_1ReferenceMap.html" target="_top" xlink:title=" ">
<polygon fill="white" stroke="black" points="1029.5,-698 1029.5,-717 1116.5,-717 1116.5,-698 1029.5,-698"/>
<text text-anchor="middle" x="1073" y="-705" font-family="Helvetica,sans-Serif" font-size="10.00">ReferenceMap</text>
</a>
</g>
</g>
<!-- Node23&#45;&gt;Node22 -->
<g id="edge22" class="edge">
<title>Node23&#45;&gt;Node22</title>
<path fill="none" stroke="#9a32cd" stroke-dasharray="5,2" d="M1071.76,-687.72C1070.74,-672.2 1069.34,-650.86 1068.57,-639.12"/>
<polygon fill="#9a32cd" stroke="#9a32cd" points="1068.28,-688.03 1072.43,-697.78 1075.26,-687.57 1068.28,-688.03"/>
<text text-anchor="middle" x="1100" y="-666" font-family="Helvetica,sans-Serif" font-size="10.00"> parameters</text>
</g>
<!-- Node24 -->
<g id="node24" class="node">
<title>Node24</title>
<g id="a_node24"><a xlink:href="classdrain_1_1SmartMap.html" target="_top" xlink:title=" ">
<polygon fill="white" stroke="black" points="1015.5,-760.5 1015.5,-779.5 1158.5,-779.5 1158.5,-760.5 1015.5,-760.5"/>
<text text-anchor="middle" x="1087" y="-767.5" font-family="Helvetica,sans-Serif" font-size="10.00">SmartMap&lt; Referencer &gt;</text>
</a>
</g>
</g>
<!-- Node24&#45;&gt;Node23 -->
<g id="edge23" class="edge">
<title>Node24&#45;&gt;Node23</title>
<path fill="none" stroke="midnightblue" d="M1082.68,-750.35C1080.12,-739.28 1077,-725.77 1075,-717.15"/>
<polygon fill="midnightblue" stroke="midnightblue" points="1079.33,-751.38 1084.99,-760.33 1086.15,-749.8 1079.33,-751.38"/>
</g>
<!-- Node25 -->
<g id="node25" class="node">
<title>Node25</title>
<g id="a_node25"><a xlink:title=" ">
<polygon fill="white" stroke="#bfbfbf" points="1002.5,-817.5 1002.5,-836.5 1171.5,-836.5 1171.5,-817.5 1002.5,-817.5"/>
<text text-anchor="middle" x="1087" y="-824.5" font-family="Helvetica,sans-Serif" font-size="10.00">map&lt; std::string, Referencer &gt;</text>
</a>
</g>
</g>
<!-- Node25&#45;&gt;Node24 -->
<g id="edge24" class="edge">
<title>Node25&#45;&gt;Node24</title>
<path fill="none" stroke="midnightblue" d="M1087,-807.12C1087,-797.82 1087,-787.06 1087,-779.71"/>
<polygon fill="midnightblue" stroke="midnightblue" points="1083.5,-807.41 1087,-817.41 1090.5,-807.41 1083.5,-807.41"/>
</g>
<!-- Node26 -->
<g id="node26" class="node">
<title>Node26</title>
<g id="a_node26"><a xlink:href="classrack_1_1RadarWindowConfig.html" target="_top" xlink:title=" ">
<polygon fill="white" stroke="black" points="778,-468.5 778,-487.5 894,-487.5 894,-468.5 778,-468.5"/>
<text text-anchor="middle" x="836" y="-475.5" font-family="Helvetica,sans-Serif" font-size="10.00">RadarWindowConfig</text>
</a>
</g>
</g>
<!-- Node26&#45;&gt;Node16 -->
<g id="edge25" class="edge">
<title>Node26&#45;&gt;Node16</title>
<path fill="none" stroke="#9a32cd" stroke-dasharray="5,2" d="M804.1,-464.84C791.81,-460.05 777.7,-454.41 765,-449 742.16,-439.27 716.65,-427.53 697.53,-418.55"/>
<polygon fill="#9a32cd" stroke="#9a32cd" points="802.9,-468.13 813.49,-468.48 805.43,-461.61 802.9,-468.13"/>
<text text-anchor="middle" x="777.5" y="-441" font-family="Helvetica,sans-Serif" font-size="10.00"> conf</text>
</g>
<!-- Node27 -->
<g id="node27" class="node">
<title>Node27</title>
<g id="a_node27"><a xlink:href="classdrain_1_1image_1_1WindowConfig.html" target="_top" xlink:title="Base class for configurations applied in image processing windows, e.g. for operators of type WindowO...">
<polygon fill="white" stroke="black" points="727.5,-547.5 727.5,-566.5 814.5,-566.5 814.5,-547.5 727.5,-547.5"/>
<text text-anchor="middle" x="771" y="-554.5" font-family="Helvetica,sans-Serif" font-size="10.00">WindowConfig</text>
</a>
</g>
</g>
<!-- Node27&#45;&gt;Node26 -->
<g id="edge26" class="edge">
<title>Node27&#45;&gt;Node26</title>
<path fill="none" stroke="midnightblue" d="M784.88,-539.56C798.24,-523.73 817.94,-500.39 828.56,-487.81"/>
<polygon fill="midnightblue" stroke="midnightblue" points="781.98,-537.57 778.2,-547.47 787.33,-542.08 781.98,-537.57"/>
</g>
<!-- Node28 -->
<g id="node28" class="node">
<title>Node28</title>
<g id="a_node28"><a xlink:href="classdrain_1_1VariableMap.html" target="_top" xlink:title="A map of Variables.">
<polygon fill="white" stroke="black" points="902,-620 902,-639 980,-639 980,-620 902,-620"/>
<text text-anchor="middle" x="941" y="-627" font-family="Helvetica,sans-Serif" font-size="10.00">VariableMap</text>
</a>
</g>
</g>
<!-- Node28&#45;&gt;Node27 -->
<g id="edge27" class="edge">
<title>Node28&#45;&gt;Node27</title>
<path fill="none" stroke="#9a32cd" stroke-dasharray="5,2" d="M910.98,-616.05C876.65,-601.82 821.36,-578.88 791.58,-566.53"/>
<polygon fill="#9a32cd" stroke="#9a32cd" points="909.92,-619.4 920.49,-620 912.6,-612.93 909.92,-619.4"/>
<text text-anchor="middle" x="908" y="-588" font-family="Helvetica,sans-Serif" font-size="10.00"> functorParameters</text>
</g>
<!-- Node29 -->
<g id="node29" class="node">
<title>Node29</title>
<g id="a_node29"><a xlink:href="classdrain_1_1SmartMap.html" target="_top" xlink:title=" ">
<polygon fill="white" stroke="black" points="854,-698 854,-717 984,-717 984,-698 854,-698"/>
<text text-anchor="middle" x="919" y="-705" font-family="Helvetica,sans-Serif" font-size="10.00">SmartMap&lt; Variable &gt;</text>
</a>
</g>
</g>
<!-- Node29&#45;&gt;Node28 -->
<g id="edge28" class="edge">
<title>Node29&#45;&gt;Node28</title>
<path fill="none" stroke="midnightblue" d="M924.3,-688.17C928.81,-672.61 935.07,-650.97 938.51,-639.12"/>
<polygon fill="midnightblue" stroke="midnightblue" points="920.94,-687.2 921.52,-697.78 927.67,-689.15 920.94,-687.2"/>
</g>
<!-- Node30 -->
<g id="node30" class="node">
<title>Node30</title>
<g id="a_node30"><a xlink:title=" ">
<polygon fill="white" stroke="#bfbfbf" points="841,-760.5 841,-779.5 997,-779.5 997,-760.5 841,-760.5"/>
<text text-anchor="middle" x="919" y="-767.5" font-family="Helvetica,sans-Serif" font-size="10.00">map&lt; std::string, Variable &gt;</text>
</a>
</g>
</g>
<!-- Node30&#45;&gt;Node29 -->
<g id="edge29" class="edge">
<title>Node30&#45;&gt;Node29</title>
<path fill="none" stroke="midnightblue" d="M919,-750C919,-739 919,-725.68 919,-717.15"/>
<polygon fill="midnightblue" stroke="midnightblue" points="915.5,-750.33 919,-760.33 922.5,-750.33 915.5,-750.33"/>
</g>
<!-- Node31&#45;&gt;Node27 -->
<g id="edge30" class="edge">
<title>Node31&#45;&gt;Node27</title>
<path fill="none" stroke="#9a32cd" stroke-dasharray="5,2" d="M573.34,-617.05C620.68,-602.9 700.11,-579.18 742.43,-566.53"/>
<polygon fill="#9a32cd" stroke="#9a32cd" points="572.05,-613.78 563.47,-620 574.05,-620.49 572.05,-613.78"/>
<text text-anchor="middle" x="690.5" y="-588" font-family="Helvetica,sans-Serif" font-size="10.00"> frame</text>
</g>
<!-- Node31&#45;&gt;Node36 -->
<g id="edge39" class="edge">
<title>Node31&#45;&gt;Node36</title>
<path fill="none" stroke="#9a32cd" stroke-dasharray="5,2" d="M521.24,-612.23C500.09,-587.76 457.65,-540.77 416,-507 407,-499.7 396,-492.7 387.25,-487.53"/>
<polygon fill="#9a32cd" stroke="#9a32cd" points="518.63,-614.57 527.8,-619.89 523.95,-610.02 518.63,-614.57"/>
<text text-anchor="middle" x="491.5" y="-554.5" font-family="Helvetica,sans-Serif" font-size="10.00"> area</text>
</g>
<!-- Node32 -->
<g id="node32" class="node">
<title>Node32</title>
<g id="a_node32"><a xlink:href="classdrain_1_1UniCloner.html" target="_top" xlink:title=" ">
<polygon fill="white" stroke="black" points="576.5,-468.5 576.5,-487.5 759.5,-487.5 759.5,-468.5 576.5,-468.5"/>
<text text-anchor="middle" x="668" y="-475.5" font-family="Helvetica,sans-Serif" font-size="10.00">UniCloner&lt; drain::UnaryFunctor &gt;</text>
</a>
</g>
</g>
<!-- Node32&#45;&gt;Node16 -->
<g id="edge32" class="edge">
<title>Node32&#45;&gt;Node16</title>
<path fill="none" stroke="#9a32cd" stroke-dasharray="5,2" d="M668,-458.26C668,-445.86 668,-429.87 668,-418.56"/>
<polygon fill="#9a32cd" stroke="#9a32cd" points="664.5,-458.4 668,-468.4 671.5,-458.4 664.5,-458.4"/>
<text text-anchor="middle" x="692.5" y="-441" font-family="Helvetica,sans-Serif" font-size="10.00"> unicloner</text>
</g>
<!-- Node33 -->
<g id="node33" class="node">
<title>Node33</title>
<g id="a_node33"><a xlink:href="classdrain_1_1Bank.html" target="_top" xlink:title=" ">
<polygon fill="white" stroke="black" points="626.5,-547.5 626.5,-566.5 709.5,-566.5 709.5,-547.5 626.5,-547.5"/>
<text text-anchor="middle" x="668" y="-554.5" font-family="Helvetica,sans-Serif" font-size="10.00">Bank&lt; T, K &gt;</text>
</a>
</g>
</g>
<!-- Node33&#45;&gt;Node32 -->
<g id="edge33" class="edge">
<title>Node33&#45;&gt;Node32</title>
<path fill="none" stroke="#9a32cd" stroke-dasharray="5,2" d="M668,-537.31C668,-521.59 668,-499.81 668,-487.81"/>
<polygon fill="#9a32cd" stroke="#9a32cd" points="664.5,-537.47 668,-547.47 671.5,-537.47 664.5,-537.47"/>
<text text-anchor="middle" x="682" y="-515.5" font-family="Helvetica,sans-Serif" font-size="10.00"> bank</text>
</g>
<!-- Node34 -->
<g id="node34" class="node">
<title>Node34</title>
<g id="a_node34"><a xlink:title=" ">
<polygon fill="white" stroke="#bfbfbf" points="601,-614.5 601,-644.5 737,-644.5 737,-614.5 601,-614.5"/>
<text text-anchor="start" x="609" y="-632.5" font-family="Helvetica,sans-Serif" font-size="10.00">map&lt; std::string, Cloner</text>
<text text-anchor="middle" x="669" y="-621.5" font-family="Helvetica,sans-Serif" font-size="10.00">Base&lt; T &gt; * &gt;</text>
</a>
</g>
</g>
<!-- Node34&#45;&gt;Node33 -->
<g id="edge34" class="edge">
<title>Node34&#45;&gt;Node33</title>
<path fill="none" stroke="darkgreen" d="M668.65,-604.09C668.47,-591.21 668.26,-576.2 668.13,-566.89"/>
<polygon fill="darkgreen" stroke="darkgreen" points="665.16,-604.28 668.8,-614.23 672.16,-604.18 665.16,-604.28"/>
</g>
<!-- Node35&#45;&gt;Node15 -->
<g id="edge41" class="edge">
<title>Node35&#45;&gt;Node15</title>
<path fill="none" stroke="#9a32cd" stroke-dasharray="5,2" d="M952.37,-458.65C949.76,-451.43 945.82,-443.55 940,-438 888.26,-388.66 810.62,-362.24 751.51,-348.48"/>
<polygon fill="#9a32cd" stroke="#9a32cd" points="949.08,-459.86 955.31,-468.43 955.78,-457.84 949.08,-459.86"/>
<text text-anchor="middle" x="948" y="-412" font-family="Helvetica,sans-Serif" font-size="10.00"> locationTrail</text>
<text text-anchor="middle" x="948" y="-401" font-family="Helvetica,sans-Serif" font-size="10.00">locationLead</text>
<text text-anchor="middle" x="948" y="-390" font-family="Helvetica,sans-Serif" font-size="10.00">locationTmp</text>
</g>
<!-- Node35&#45;&gt;Node16 -->
<g id="edge35" class="edge">
<title>Node35&#45;&gt;Node16</title>
<path fill="none" stroke="#9a32cd" stroke-dasharray="5,2" d="M902.17,-466.55C866.58,-459.67 825.33,-451.5 817,-449 804.59,-445.27 802.27,-442.17 790,-438 768.89,-430.83 745.34,-424.08 724.61,-418.54"/>
<polygon fill="#9a32cd" stroke="#9a32cd" points="901.54,-469.99 912.02,-468.45 902.86,-463.12 901.54,-469.99"/>
<text text-anchor="middle" x="838.5" y="-441" font-family="Helvetica,sans-Serif" font-size="10.00"> location</text>
</g>
<!-- Node36&#45;&gt;Node16 -->
<g id="edge37" class="edge">
<title>Node36&#45;&gt;Node16</title>
<path fill="none" stroke="#9a32cd" stroke-dasharray="5,2" d="M400.4,-464.29C420.37,-455.79 447.89,-444.93 473,-438 508.6,-428.17 548.68,-420.69 583.21,-415.32"/>
<polygon fill="#9a32cd" stroke="#9a32cd" points="398.77,-461.18 390.98,-468.36 401.55,-467.61 398.77,-461.18"/>
<text text-anchor="middle" x="520" y="-441" font-family="Helvetica,sans-Serif" font-size="10.00"> coordinateHandler</text>
</g>
</g>
</svg>
        <g id="navigator" transform="translate(0 0)" fill="#404254">
                <rect fill="#f2f5e9" fill-opacity="0.5" stroke="#606060" stroke-width=".5" x="0" y="0" width="60" height="60"/>
                <use id="zoomplus" xlink:href="#zoomPlus" x="17" y="9" onmousedown="handleZoom(evt,'in')"/>
                <use id="zoomminus" xlink:href="#zoomMin" x="42" y="9" onmousedown="handleZoom(evt,'out')"/>
                <use id="reset" xlink:href="#resetDef" x="30" y="36" onmousedown="handleReset()"/>
                <g id="arrowUp" xlink:href="#dirArrow" transform="translate(30 24)" onmousedown="handlePan(0,-1)">
                  <use xlink:href="#rim" fill="#404040">
                        <set attributeName="fill" to="#808080" begin="arrowUp.mouseover" end="arrowUp.mouseout"/>
                  </use>
                  <path fill="none" stroke="white" stroke-width="1.5" d="M0,-3.0v7 M-2.5,-0.5L0,-3.0L2.5,-0.5"/>
                </g>
                <g id="arrowRight" xlink:href="#dirArrow" transform="rotate(90) translate(36 -43)" onmousedown="handlePan(1,0)">
                  <use xlink:href="#rim" fill="#404040">
                        <set attributeName="fill" to="#808080" begin="arrowRight.mouseover" end="arrowRight.mouseout"/>
                  </use>
                  <path fill="none" stroke="white" stroke-width="1.5" d="M0,-3.0v7 M-2.5,-0.5L0,-3.0L2.5,-0.5"/>
                </g>
                <g id="arrowDown" xlink:href="#dirArrow" transform="rotate(180) translate(-30 -48)" onmousedown="handlePan(0,1)">
                  <use xlink:href="#rim" fill="#404040">
                        <set attributeName="fill" to="#808080" begin="arrowDown.mouseover" end="arrowDown.mouseout"/>
                  </use>
                  <path fill="none" stroke="white" stroke-width="1.5" d="M0,-3.0v7 M-2.5,-0.5L0,-3.0L2.5,-0.5"/>
                </g>
                <g id="arrowLeft" xlink:href="#dirArrow" transform="rotate(270) translate(-36 17)" onmousedown="handlePan(-1,0)">
                  <use xlink:href="#rim" fill="#404040">
                        <set attributeName="fill" to="#808080" begin="arrowLeft.mouseover" end="arrowLeft.mouseout"/>
                  </use>
                  <path fill="none" stroke="white" stroke-width="1.5" d="M0,-3.0v7 M-2.5,-0.5L0,-3.0L2.5,-0.5"/>
                </g>
        </g>
        <svg viewBox="0 0 15 15" width="100%" height="30px" preserveAspectRatio="xMaxYMin meet">
         <g id="arrow_out" transform="scale(0.3 0.3)">
          <a xlink:href="classrack_1_1DopplerDevOp__coll__graph_org.svg" target="_base">
           <rect id="button" ry="5" rx="5" y="6" x="6" height="38" width="38"
                fill="#f2f5e9" fill-opacity="0.5" stroke="#606060" stroke-width="1.0"/>
           <path id="arrow"
             d="M 11.500037,31.436501 C 11.940474,20.09759 22.043105,11.32322 32.158766,21.979434 L 37.068811,17.246167 C 37.068811,17.246167 37.088388,32 37.088388,32 L 22.160133,31.978069 C 22.160133,31.978069 26.997745,27.140456 26.997745,27.140456 C 18.528582,18.264221 13.291696,25.230495 11.500037,31.436501 z"
             style="fill:#404040;"/>
          </a>
         </g>
        </svg>
</svg>
