<?xml version="1.0" encoding="UTF-8" standalone="no"?>
<!DOCTYPE svg PUBLIC "-//W3C//DTD SVG 1.1//EN"
 "http://www.w3.org/Graphics/SVG/1.1/DTD/svg11.dtd">
<!-- Generated by graphviz version 2.43.0 (0)
 -->
<!-- Title: BeanLike Pages: 1 -->
<!--zoomable 1104 -->
<svg id="main" version="1.1" xmlns="http://www.w3.org/2000/svg" xmlns:xlink="http://www.w3.org/1999/xlink" xml:space="preserve" onload="init(evt)">
<style type="text/css"><![CDATA[
.edge:hover path { stroke: red; }
.edge:hover polygon { stroke: red; fill: red; }
]]></style>
<script type="text/javascript"><![CDATA[
var edges = document.getElementsByTagName('g');
if (edges && edges.length) {
  for (var i=0;i<edges.length;i++) {
    if (edges[i].id.substr(0,4)=='edge') {
      edges[i].setAttribute('class','edge');
    }
  }
}
]]></script>
        <defs>
                <circle id="rim" cx="0" cy="0" r="7"/>
                <circle id="rim2" cx="0" cy="0" r="3.5"/>
                <g id="zoomPlus">
                        <use xlink:href="#rim" fill="#404040">
                                <set attributeName="fill" to="#808080" begin="zoomplus.mouseover" end="zoomplus.mouseout"/>
                        </use>
                        <path d="M-4,0h8M0,-4v8" fill="none" stroke="white" stroke-width="1.5" pointer-events="none"/>
                </g>
                <g id="zoomMin">
                        <use xlink:href="#rim" fill="#404040">
                                <set attributeName="fill" to="#808080" begin="zoomminus.mouseover" end="zoomminus.mouseout"/>
                        </use>
                        <path d="M-4,0h8" fill="none" stroke="white" stroke-width="1.5" pointer-events="none"/>
                </g>
                <g id="dirArrow">
                        <path fill="none" stroke="white" stroke-width="1.5" d="M0,-3.0v7 M-2.5,-0.5L0,-3.0L2.5,-0.5"/>
                </g>
               <g id="resetDef">
                       <use xlink:href="#rim2" fill="#404040">
                               <set attributeName="fill" to="#808080" begin="reset.mouseover" end="reset.mouseout"/>
                       </use>
               </g>
        </defs>

<script type="text/javascript">
var viewWidth = 562;
var viewHeight = 1104;
var sectionId = 'dynsection-0';
</script>
<script xlink:href="svgpan.js"/>
<svg id="graph" class="graph">
<g id="viewport">
<title>BeanLike</title>
<polygon fill="white" stroke="transparent" points="-4,4 -4,-1100 558,-1100 558,4 -4,4"/>
<!-- Node1 -->
<g id="node1" class="node">
<title>Node1</title>
<g id="a_node1"><a xlink:title="Something which has a name, a description and possibly some parameters of varying type.">
<polygon fill="#bfbfbf" stroke="black" points="0,-233.5 0,-252.5 61,-252.5 61,-233.5 0,-233.5"/>
<text text-anchor="middle" x="30.5" y="-240.5" font-family="Helvetica,sans-Serif" font-size="10.00">BeanLike</text>
</a>
</g>
</g>
<!-- Node2 -->
<g id="node2" class="node">
<title>Node2</title>
<g id="a_node2"><a xlink:href="classdrain_1_1Functor.html" target="_top" xlink:title="Base class for sequential computations. Optional scaling utilities.">
<polygon fill="white" stroke="black" points="118.5,-696.5 118.5,-715.5 171.5,-715.5 171.5,-696.5 118.5,-696.5"/>
<text text-anchor="middle" x="145" y="-703.5" font-family="Helvetica,sans-Serif" font-size="10.00">Functor</text>
</a>
</g>
</g>
<!-- Node1&#45;&gt;Node2 -->
<g id="edge1" class="edge">
<title>Node1&#45;&gt;Node2</title>
<path fill="none" stroke="midnightblue" d="M31.11,-262.77C30.65,-323.43 34.67,-511.19 97,-649 105.56,-667.93 122.11,-685.73 133.11,-696.25"/>
<polygon fill="midnightblue" stroke="midnightblue" points="34.61,-262.71 31.24,-252.67 27.61,-262.62 34.61,-262.71"/>
</g>
<!-- Node34 -->
<g id="node20" class="node">
<title>Node34</title>
<g id="a_node20"><a xlink:href="classdrain_1_1image_1_1DistanceModel.html" target="_top" xlink:title="Base class for linear and exponential distances in rectangular pixel images.">
<polygon fill="white" stroke="black" points="100.5,-620.5 100.5,-639.5 189.5,-639.5 189.5,-620.5 100.5,-620.5"/>
<text text-anchor="middle" x="145" y="-627.5" font-family="Helvetica,sans-Serif" font-size="10.00">DistanceModel</text>
</a>
</g>
</g>
<!-- Node1&#45;&gt;Node34 -->
<g id="edge19" class="edge">
<title>Node1&#45;&gt;Node34</title>
<path fill="none" stroke="midnightblue" d="M37.1,-262.26C57.36,-331.96 126.46,-569.68 141.22,-620.42"/>
<polygon fill="midnightblue" stroke="midnightblue" points="40.43,-261.19 34.28,-252.57 33.71,-263.15 40.43,-261.19"/>
</g>
<!-- Node37 -->
<g id="node23" class="node">
<title>Node37</title>
<g id="a_node23"><a xlink:href="classdrain_1_1image_1_1ImageMod.html" target="_top" xlink:title="Class for operations that modify an existing image instead of producing a new image.">
<polygon fill="white" stroke="black" points="111,-386.5 111,-405.5 179,-405.5 179,-386.5 111,-386.5"/>
<text text-anchor="middle" x="145" y="-393.5" font-family="Helvetica,sans-Serif" font-size="10.00">ImageMod</text>
</a>
</g>
</g>
<!-- Node1&#45;&gt;Node37 -->
<g id="edge22" class="edge">
<title>Node1&#45;&gt;Node37</title>
<path fill="none" stroke="midnightblue" d="M36.48,-262.74C44.62,-291.29 63.33,-344.14 97,-376 101.51,-380.27 107.07,-383.69 112.76,-386.42"/>
<polygon fill="midnightblue" stroke="midnightblue" points="39.77,-261.51 33.79,-252.77 33.01,-263.33 39.77,-261.51"/>
</g>
<!-- Node139 -->
<g id="node35" class="node">
<title>Node139</title>
<g id="a_node35"><a xlink:href="structdrain_1_1image_1_1ImpulseAvgConf.html" target="_top" xlink:title=" ">
<polygon fill="white" stroke="black" points="97,-347.5 97,-366.5 193,-366.5 193,-347.5 97,-347.5"/>
<text text-anchor="middle" x="145" y="-354.5" font-family="Helvetica,sans-Serif" font-size="10.00">ImpulseAvgConf</text>
</a>
</g>
</g>
<!-- Node1&#45;&gt;Node139 -->
<g id="edge34" class="edge">
<title>Node1&#45;&gt;Node139</title>
<path fill="none" stroke="midnightblue" d="M40.33,-261.98C51.04,-283.14 70.94,-317.11 97,-338 101.67,-341.74 107.18,-344.84 112.74,-347.37"/>
<polygon fill="midnightblue" stroke="midnightblue" points="43.36,-260.2 35.83,-252.74 37.06,-263.26 43.36,-260.2"/>
</g>
<!-- Node143 -->
<g id="node37" class="node">
<title>Node143</title>
<g id="a_node37"><a xlink:href="classdrain_1_1image_1_1PaletteEntry.html" target="_top" xlink:title=" ">
<polygon fill="white" stroke="black" points="106.5,-309.5 106.5,-328.5 183.5,-328.5 183.5,-309.5 106.5,-309.5"/>
<text text-anchor="middle" x="145" y="-316.5" font-family="Helvetica,sans-Serif" font-size="10.00">PaletteEntry</text>
</a>
</g>
</g>
<!-- Node1&#45;&gt;Node143 -->
<g id="edge36" class="edge">
<title>Node1&#45;&gt;Node143</title>
<path fill="none" stroke="midnightblue" d="M47.85,-259.99C60.41,-272.33 78.66,-288.75 97,-300 102.85,-303.59 109.5,-306.75 115.92,-309.42"/>
<polygon fill="midnightblue" stroke="midnightblue" points="50.01,-257.2 40.47,-252.58 45.04,-262.14 50.01,-257.2"/>
</g>
<!-- Node144 -->
<g id="node38" class="node">
<title>Node144</title>
<g id="a_node38"><a xlink:href="classdrain_1_1image_1_1Sampler.html" target="_top" xlink:title="Utility for sampling images (2D data), outputting formatted text data.">
<polygon fill="white" stroke="black" points="116.5,-271.5 116.5,-290.5 173.5,-290.5 173.5,-271.5 116.5,-271.5"/>
<text text-anchor="middle" x="145" y="-278.5" font-family="Helvetica,sans-Serif" font-size="10.00">Sampler</text>
</a>
</g>
</g>
<!-- Node1&#45;&gt;Node144 -->
<g id="edge37" class="edge">
<title>Node1&#45;&gt;Node144</title>
<path fill="none" stroke="midnightblue" d="M69.62,-255.88C84.96,-261.06 102.31,-266.92 116.4,-271.68"/>
<polygon fill="midnightblue" stroke="midnightblue" points="70.48,-252.47 59.89,-252.59 68.24,-259.11 70.48,-252.47"/>
</g>
<!-- Node145 -->
<g id="node39" class="node">
<title>Node145</title>
<g id="a_node39"><a xlink:href="classrack_1_1DataCoder.html" target="_top" xlink:title="Converts ODIM encoded data (with markers) to natural values and backwards.">
<polygon fill="white" stroke="black" points="111,-233.5 111,-252.5 179,-252.5 179,-233.5 111,-233.5"/>
<text text-anchor="middle" x="145" y="-240.5" font-family="Helvetica,sans-Serif" font-size="10.00">DataCoder</text>
</a>
</g>
</g>
<!-- Node1&#45;&gt;Node145 -->
<g id="edge38" class="edge">
<title>Node1&#45;&gt;Node145</title>
<path fill="none" stroke="midnightblue" d="M71.09,-243C84.02,-243 98.25,-243 110.67,-243"/>
<polygon fill="midnightblue" stroke="midnightblue" points="71.06,-239.5 61.06,-243 71.06,-246.5 71.06,-239.5"/>
</g>
<!-- Node146 -->
<g id="node40" class="node">
<title>Node146</title>
<g id="a_node40"><a xlink:href="classrack_1_1DataSelector.html" target="_top" xlink:title="Tool for selecting datasets based on paths, quantities and min/max elevations.">
<polygon fill="white" stroke="black" points="105,-195.5 105,-214.5 185,-214.5 185,-195.5 105,-195.5"/>
<text text-anchor="middle" x="145" y="-202.5" font-family="Helvetica,sans-Serif" font-size="10.00">DataSelector</text>
</a>
</g>
</g>
<!-- Node1&#45;&gt;Node146 -->
<g id="edge39" class="edge">
<title>Node1&#45;&gt;Node146</title>
<path fill="none" stroke="midnightblue" d="M69.47,-230.17C84.57,-225.08 101.63,-219.31 115.62,-214.59"/>
<polygon fill="midnightblue" stroke="midnightblue" points="68.24,-226.89 59.89,-233.41 70.48,-233.53 68.24,-226.89"/>
</g>
<!-- Node148 -->
<g id="node42" class="node">
<title>Node148</title>
<g id="a_node42"><a xlink:href="classrack_1_1FreezingLevel.html" target="_top" xlink:title=" ">
<polygon fill="white" stroke="black" points="103,-157.5 103,-176.5 187,-176.5 187,-157.5 103,-157.5"/>
<text text-anchor="middle" x="145" y="-164.5" font-family="Helvetica,sans-Serif" font-size="10.00">FreezingLevel</text>
</a>
</g>
</g>
<!-- Node1&#45;&gt;Node148 -->
<g id="edge41" class="edge">
<title>Node1&#45;&gt;Node148</title>
<path fill="none" stroke="midnightblue" d="M47.85,-226.01C60.41,-213.67 78.66,-197.25 97,-186 102.85,-182.41 109.5,-179.25 115.92,-176.58"/>
<polygon fill="midnightblue" stroke="midnightblue" points="45.04,-223.86 40.47,-233.42 50.01,-228.8 45.04,-223.86"/>
</g>
<!-- Node149 -->
<g id="node43" class="node">
<title>Node149</title>
<g id="a_node43"><a xlink:href="structrack_1_1HistEntry.html" target="_top" xlink:title=" ">
<polygon fill="white" stroke="black" points="114,-119.5 114,-138.5 176,-138.5 176,-119.5 114,-119.5"/>
<text text-anchor="middle" x="145" y="-126.5" font-family="Helvetica,sans-Serif" font-size="10.00">HistEntry</text>
</a>
</g>
</g>
<!-- Node1&#45;&gt;Node149 -->
<g id="edge42" class="edge">
<title>Node1&#45;&gt;Node149</title>
<path fill="none" stroke="midnightblue" d="M40.33,-224.02C51.04,-202.86 70.94,-168.89 97,-148 101.94,-144.04 107.83,-140.8 113.73,-138.19"/>
<polygon fill="midnightblue" stroke="midnightblue" points="37.06,-222.74 35.83,-233.26 43.36,-225.8 37.06,-222.74"/>
</g>
<!-- Node150 -->
<g id="node44" class="node">
<title>Node150</title>
<g id="a_node44"><a xlink:href="classrack_1_1PolarSector.html" target="_top" xlink:title=" ">
<polygon fill="white" stroke="black" points="109,-81.5 109,-100.5 181,-100.5 181,-81.5 109,-81.5"/>
<text text-anchor="middle" x="145" y="-88.5" font-family="Helvetica,sans-Serif" font-size="10.00">PolarSector</text>
</a>
</g>
</g>
<!-- Node1&#45;&gt;Node150 -->
<g id="edge43" class="edge">
<title>Node1&#45;&gt;Node150</title>
<path fill="none" stroke="midnightblue" d="M36.4,-223.18C44.45,-194.53 63.04,-141.55 97,-110 101.13,-106.17 106.13,-103.06 111.31,-100.56"/>
<polygon fill="midnightblue" stroke="midnightblue" points="32.93,-222.63 33.75,-233.19 39.7,-224.42 32.93,-222.63"/>
</g>
<!-- Node151 -->
<g id="node45" class="node">
<title>Node151</title>
<g id="a_node45"><a xlink:href="classrack_1_1Precip.html" target="_top" xlink:title=" ">
<polygon fill="white" stroke="black" points="121.5,-43.5 121.5,-62.5 168.5,-62.5 168.5,-43.5 121.5,-43.5"/>
<text text-anchor="middle" x="145" y="-50.5" font-family="Helvetica,sans-Serif" font-size="10.00">Precip</text>
</a>
</g>
</g>
<!-- Node1&#45;&gt;Node151 -->
<g id="edge44" class="edge">
<title>Node1&#45;&gt;Node151</title>
<path fill="none" stroke="midnightblue" d="M33.91,-223.12C39.17,-188.09 54.78,-115 97,-72 103.54,-65.34 112.72,-60.94 121.23,-58.07"/>
<polygon fill="midnightblue" stroke="midnightblue" points="30.39,-223.06 32.5,-233.44 37.32,-224.01 30.39,-223.06"/>
</g>
<!-- Node160 -->
<g id="node48" class="node">
<title>Node160</title>
<g id="a_node48"><a xlink:href="classrack_1_1ProductBase.html" target="_top" xlink:title="Base class for radar data processors. Input can be in polar or Cartesian coordinates.">
<polygon fill="white" stroke="black" points="106.5,-2.5 106.5,-21.5 183.5,-21.5 183.5,-2.5 106.5,-2.5"/>
<text text-anchor="middle" x="145" y="-9.5" font-family="Helvetica,sans-Serif" font-size="10.00">ProductBase</text>
</a>
</g>
</g>
<!-- Node1&#45;&gt;Node160 -->
<g id="edge47" class="edge">
<title>Node1&#45;&gt;Node160</title>
<path fill="none" stroke="midnightblue" d="M32.52,-223.25C35.6,-182.91 47.92,-90.14 97,-34 101.51,-28.84 107.48,-24.81 113.65,-21.69"/>
<polygon fill="midnightblue" stroke="midnightblue" points="29.02,-223.17 31.86,-233.37 36,-223.62 29.02,-223.17"/>
</g>
<!-- Node3 -->
<g id="node3" class="node">
<title>Node3</title>
<g id="a_node3"><a xlink:href="classdrain_1_1BinaryFunctor.html" target="_top" xlink:title=" ">
<polygon fill="white" stroke="black" points="265.5,-943.5 265.5,-962.5 349.5,-962.5 349.5,-943.5 265.5,-943.5"/>
<text text-anchor="middle" x="307.5" y="-950.5" font-family="Helvetica,sans-Serif" font-size="10.00">BinaryFunctor</text>
</a>
</g>
</g>
<!-- Node2&#45;&gt;Node3 -->
<g id="edge2" class="edge">
<title>Node2&#45;&gt;Node3</title>
<path fill="none" stroke="midnightblue" d="M157.9,-724.32C189.78,-773.37 276.26,-906.46 300.25,-943.38"/>
<polygon fill="midnightblue" stroke="midnightblue" points="160.68,-722.16 152.29,-715.68 154.81,-725.97 160.68,-722.16"/>
</g>
<!-- Node11 -->
<g id="node11" class="node">
<title>Node11</title>
<g id="a_node11"><a xlink:href="structdrain_1_1UnaryFunctor.html" target="_top" xlink:title=" ">
<polygon fill="white" stroke="red" points="266.5,-696.5 266.5,-715.5 348.5,-715.5 348.5,-696.5 266.5,-696.5"/>
<text text-anchor="middle" x="307.5" y="-703.5" font-family="Helvetica,sans-Serif" font-size="10.00">UnaryFunctor</text>
</a>
</g>
</g>
<!-- Node2&#45;&gt;Node11 -->
<g id="edge10" class="edge">
<title>Node2&#45;&gt;Node11</title>
<path fill="none" stroke="midnightblue" d="M181.96,-706C207.01,-706 240.44,-706 266.36,-706"/>
<polygon fill="midnightblue" stroke="midnightblue" points="181.79,-702.5 171.79,-706 181.79,-709.5 181.79,-702.5"/>
</g>
<!-- Node4 -->
<g id="node4" class="node">
<title>Node4</title>
<g id="a_node4"><a xlink:href="classdrain_1_1AdditionFunctor.html" target="_top" xlink:title="Adds a intensity values .">
<polygon fill="white" stroke="black" points="441.5,-1076.5 441.5,-1095.5 534.5,-1095.5 534.5,-1076.5 441.5,-1076.5"/>
<text text-anchor="middle" x="488" y="-1083.5" font-family="Helvetica,sans-Serif" font-size="10.00">AdditionFunctor</text>
</a>
</g>
</g>
<!-- Node3&#45;&gt;Node4 -->
<g id="edge3" class="edge">
<title>Node3&#45;&gt;Node4</title>
<path fill="none" stroke="midnightblue" d="M321.46,-970.8C340.65,-995.9 379.02,-1041.47 422,-1067 428.47,-1070.84 435.77,-1073.95 443.07,-1076.45"/>
<polygon fill="midnightblue" stroke="midnightblue" points="324.08,-968.46 315.28,-962.56 318.48,-972.66 324.08,-968.46"/>
</g>
<!-- Node5 -->
<g id="node5" class="node">
<title>Node5</title>
<g id="a_node5"><a xlink:href="classdrain_1_1DivisionFunctor.html" target="_top" xlink:title="Divides image by another image.">
<polygon fill="white" stroke="black" points="442,-1038.5 442,-1057.5 534,-1057.5 534,-1038.5 442,-1038.5"/>
<text text-anchor="middle" x="488" y="-1045.5" font-family="Helvetica,sans-Serif" font-size="10.00">DivisionFunctor</text>
</a>
</g>
</g>
<!-- Node3&#45;&gt;Node5 -->
<g id="edge4" class="edge">
<title>Node3&#45;&gt;Node5</title>
<path fill="none" stroke="midnightblue" d="M328.21,-968.95C350,-985.91 386.72,-1012.51 422,-1029 429.88,-1032.68 438.64,-1035.83 447.1,-1038.43"/>
<polygon fill="midnightblue" stroke="midnightblue" points="330.37,-966.2 320.35,-962.75 326.04,-971.69 330.37,-966.2"/>
</g>
<!-- Node6 -->
<g id="node6" class="node">
<title>Node6</title>
<g id="a_node6"><a xlink:href="classdrain_1_1MaximumFunctor.html" target="_top" xlink:title=" ">
<polygon fill="white" stroke="black" points="437,-1000.5 437,-1019.5 539,-1019.5 539,-1000.5 437,-1000.5"/>
<text text-anchor="middle" x="488" y="-1007.5" font-family="Helvetica,sans-Serif" font-size="10.00">MaximumFunctor</text>
</a>
</g>
</g>
<!-- Node3&#45;&gt;Node6 -->
<g id="edge5" class="edge">
<title>Node3&#45;&gt;Node6</title>
<path fill="none" stroke="midnightblue" d="M345.59,-965.82C367.71,-973.37 396.38,-982.97 422,-991 432.21,-994.2 443.37,-997.53 453.52,-1000.48"/>
<polygon fill="midnightblue" stroke="midnightblue" points="346.52,-962.44 335.93,-962.51 344.25,-969.06 346.52,-962.44"/>
</g>
<!-- Node7 -->
<g id="node7" class="node">
<title>Node7</title>
<g id="a_node7"><a xlink:href="classdrain_1_1MinimumFunctor.html" target="_top" xlink:title="Minimum intensity. Prescaled input.">
<polygon fill="white" stroke="black" points="438.5,-962.5 438.5,-981.5 537.5,-981.5 537.5,-962.5 438.5,-962.5"/>
<text text-anchor="middle" x="488" y="-969.5" font-family="Helvetica,sans-Serif" font-size="10.00">MinimumFunctor</text>
</a>
</g>
</g>
<!-- Node3&#45;&gt;Node7 -->
<g id="edge6" class="edge">
<title>Node3&#45;&gt;Node7</title>
<path fill="none" stroke="midnightblue" d="M360.13,-958.5C384.73,-961.11 414,-964.23 438.22,-966.81"/>
<polygon fill="midnightblue" stroke="midnightblue" points="360.21,-954.98 349.9,-957.41 359.47,-961.95 360.21,-954.98"/>
</g>
<!-- Node8 -->
<g id="node8" class="node">
<title>Node8</title>
<g id="a_node8"><a xlink:href="classdrain_1_1MixerFunctor.html" target="_top" xlink:title="Blends an image to another with given proportion.">
<polygon fill="white" stroke="black" points="448,-924.5 448,-943.5 528,-943.5 528,-924.5 448,-924.5"/>
<text text-anchor="middle" x="488" y="-931.5" font-family="Helvetica,sans-Serif" font-size="10.00">MixerFunctor</text>
</a>
</g>
</g>
<!-- Node3&#45;&gt;Node8 -->
<g id="edge7" class="edge">
<title>Node3&#45;&gt;Node8</title>
<path fill="none" stroke="midnightblue" d="M359.93,-947.53C387.97,-944.54 422.13,-940.9 447.97,-938.15"/>
<polygon fill="midnightblue" stroke="midnightblue" points="359.47,-944.05 349.9,-948.59 360.21,-951.02 359.47,-944.05"/>
</g>
<!-- Node9 -->
<g id="node9" class="node">
<title>Node9</title>
<g id="a_node9"><a xlink:href="classdrain_1_1MultiplicationFunctor.html" target="_top" xlink:title="Multiplies two images, with optional post scaling and offset.">
<polygon fill="white" stroke="black" points="428.5,-886.5 428.5,-905.5 547.5,-905.5 547.5,-886.5 428.5,-886.5"/>
<text text-anchor="middle" x="488" y="-893.5" font-family="Helvetica,sans-Serif" font-size="10.00">MultiplicationFunctor</text>
</a>
</g>
</g>
<!-- Node3&#45;&gt;Node9 -->
<g id="edge8" class="edge">
<title>Node3&#45;&gt;Node9</title>
<path fill="none" stroke="midnightblue" d="M345.59,-940.18C367.71,-932.63 396.38,-923.03 422,-915 432.21,-911.8 443.37,-908.47 453.52,-905.52"/>
<polygon fill="midnightblue" stroke="midnightblue" points="344.25,-936.94 335.93,-943.49 346.52,-943.56 344.25,-936.94"/>
</g>
<!-- Node10 -->
<g id="node10" class="node">
<title>Node10</title>
<g id="a_node10"><a xlink:href="classdrain_1_1SubtractionFunctor.html" target="_top" xlink:title="Subtracts image from another image.">
<polygon fill="white" stroke="black" points="434,-848.5 434,-867.5 542,-867.5 542,-848.5 434,-848.5"/>
<text text-anchor="middle" x="488" y="-855.5" font-family="Helvetica,sans-Serif" font-size="10.00">SubtractionFunctor</text>
</a>
</g>
</g>
<!-- Node3&#45;&gt;Node10 -->
<g id="edge9" class="edge">
<title>Node3&#45;&gt;Node10</title>
<path fill="none" stroke="midnightblue" d="M328.21,-937.05C350,-920.09 386.72,-893.49 422,-877 429.88,-873.32 438.64,-870.17 447.1,-867.57"/>
<polygon fill="midnightblue" stroke="midnightblue" points="326.04,-934.31 320.35,-943.25 330.37,-939.8 326.04,-934.31"/>
</g>
<!-- Node12 -->
<g id="node12" class="node">
<title>Node12</title>
<g id="a_node12"><a xlink:href="classdrain_1_1BinaryThresholdFunctor.html" target="_top" xlink:title="Thresholds intensity values.">
<polygon fill="white" stroke="black" points="422,-810.5 422,-829.5 554,-829.5 554,-810.5 422,-810.5"/>
<text text-anchor="middle" x="488" y="-817.5" font-family="Helvetica,sans-Serif" font-size="10.00">BinaryThresholdFunctor</text>
</a>
</g>
</g>
<!-- Node11&#45;&gt;Node12 -->
<g id="edge11" class="edge">
<title>Node11&#45;&gt;Node12</title>
<path fill="none" stroke="midnightblue" d="M324.22,-722.91C344.78,-744.07 382.81,-780.06 422,-801 429.05,-804.77 436.94,-807.87 444.73,-810.4"/>
<polygon fill="midnightblue" stroke="midnightblue" points="326.67,-720.41 317.23,-715.59 321.61,-725.24 326.67,-720.41"/>
</g>
<!-- Node13 -->
<g id="node13" class="node">
<title>Node13</title>
<g id="a_node13"><a xlink:href="classdrain_1_1Fuzzifier.html" target="_top" xlink:title="A base class for fuzzy functions; also an unary functor.">
<polygon fill="white" stroke="red" points="445,-772.5 445,-791.5 531,-791.5 531,-772.5 445,-772.5"/>
<text text-anchor="middle" x="488" y="-779.5" font-family="Helvetica,sans-Serif" font-size="10.00">Fuzzifier&lt; T &gt;</text>
</a>
</g>
</g>
<!-- Node11&#45;&gt;Node13 -->
<g id="edge12" class="edge">
<title>Node11&#45;&gt;Node13</title>
<path fill="none" stroke="midnightblue" d="M334.31,-720.66C356.93,-733.08 390.94,-750.78 422,-763 430.97,-766.53 440.86,-769.75 450.17,-772.49"/>
<polygon fill="midnightblue" stroke="midnightblue" points="335.8,-717.48 325.36,-715.68 332.41,-723.6 335.8,-717.48"/>
</g>
<!-- Node21 -->
<g id="node14" class="node">
<title>Node21</title>
<g id="a_node14"><a xlink:href="structdrain_1_1IdentityFunctor.html" target="_top" xlink:title=" ">
<polygon fill="white" stroke="black" points="443,-734.5 443,-753.5 533,-753.5 533,-734.5 443,-734.5"/>
<text text-anchor="middle" x="488" y="-741.5" font-family="Helvetica,sans-Serif" font-size="10.00">IdentityFunctor</text>
</a>
</g>
</g>
<!-- Node11&#45;&gt;Node21 -->
<g id="edge13" class="edge">
<title>Node11&#45;&gt;Node21</title>
<path fill="none" stroke="midnightblue" d="M358.4,-716.62C384.86,-722.26 417.11,-729.12 442.69,-734.57"/>
<polygon fill="midnightblue" stroke="midnightblue" points="359.07,-713.19 348.56,-714.53 357.61,-720.03 359.07,-713.19"/>
</g>
<!-- Node22 -->
<g id="node15" class="node">
<title>Node22</title>
<g id="a_node15"><a xlink:href="classdrain_1_1image_1_1CopyFunctor.html" target="_top" xlink:title=" ">
<polygon fill="white" stroke="black" points="449.5,-696.5 449.5,-715.5 526.5,-715.5 526.5,-696.5 449.5,-696.5"/>
<text text-anchor="middle" x="488" y="-703.5" font-family="Helvetica,sans-Serif" font-size="10.00">CopyFunctor</text>
</a>
</g>
</g>
<!-- Node11&#45;&gt;Node22 -->
<g id="edge14" class="edge">
<title>Node11&#45;&gt;Node22</title>
<path fill="none" stroke="midnightblue" d="M358.8,-706C387.5,-706 422.89,-706 449.21,-706"/>
<polygon fill="midnightblue" stroke="midnightblue" points="358.56,-702.5 348.56,-706 358.56,-709.5 358.56,-702.5"/>
</g>
<!-- Node23 -->
<g id="node16" class="node">
<title>Node23</title>
<g id="a_node16"><a xlink:href="classdrain_1_1image_1_1GammaFunctor.html" target="_top" xlink:title="Gamma correction. Intensity is mapped as f&#39; = f^(gamma)">
<polygon fill="white" stroke="black" points="442,-658.5 442,-677.5 534,-677.5 534,-658.5 442,-658.5"/>
<text text-anchor="middle" x="488" y="-665.5" font-family="Helvetica,sans-Serif" font-size="10.00">GammaFunctor</text>
</a>
</g>
</g>
<!-- Node11&#45;&gt;Node23 -->
<g id="edge15" class="edge">
<title>Node11&#45;&gt;Node23</title>
<path fill="none" stroke="midnightblue" d="M358.36,-695.39C384.72,-689.77 416.83,-682.94 442.37,-677.5"/>
<polygon fill="midnightblue" stroke="midnightblue" points="357.61,-691.97 348.56,-697.47 359.07,-698.81 357.61,-691.97"/>
</g>
<!-- Node24 -->
<g id="node17" class="node">
<title>Node24</title>
<g id="a_node17"><a xlink:href="classdrain_1_1image_1_1QuantizatorFunctor.html" target="_top" xlink:title="TODO: CopyOP should be quite similar.">
<polygon fill="white" stroke="black" points="433,-620.5 433,-639.5 543,-639.5 543,-620.5 433,-620.5"/>
<text text-anchor="middle" x="488" y="-627.5" font-family="Helvetica,sans-Serif" font-size="10.00">QuantizatorFunctor</text>
</a>
</g>
</g>
<!-- Node11&#45;&gt;Node24 -->
<g id="edge16" class="edge">
<title>Node11&#45;&gt;Node24</title>
<path fill="none" stroke="midnightblue" d="M358.6,-698.17C368.09,-695.48 377.64,-691.86 386,-687 406.11,-675.31 402.15,-661.13 422,-649 428.32,-645.14 435.47,-642.03 442.65,-639.53"/>
<polygon fill="midnightblue" stroke="midnightblue" points="357.63,-694.81 348.8,-700.66 359.35,-701.59 357.63,-694.81"/>
</g>
<!-- Node25 -->
<g id="node18" class="node">
<title>Node25</title>
<g id="a_node18"><a xlink:href="classdrain_1_1RemappingFunctor.html" target="_top" xlink:title="Maps a single intensity value to another value.">
<polygon fill="white" stroke="black" points="434,-582.5 434,-601.5 542,-601.5 542,-582.5 434,-582.5"/>
<text text-anchor="middle" x="488" y="-589.5" font-family="Helvetica,sans-Serif" font-size="10.00">RemappingFunctor</text>
</a>
</g>
</g>
<!-- Node11&#45;&gt;Node25 -->
<g id="edge17" class="edge">
<title>Node11&#45;&gt;Node25</title>
<path fill="none" stroke="midnightblue" d="M358.48,-700.61C368.36,-697.74 378.11,-693.44 386,-687 414.96,-663.37 393.57,-635.26 422,-611 426.56,-607.11 431.88,-604.01 437.49,-601.55"/>
<polygon fill="midnightblue" stroke="midnightblue" points="357.48,-697.25 348.6,-703.03 359.15,-704.05 357.48,-697.25"/>
</g>
<!-- Node26 -->
<g id="node19" class="node">
<title>Node26</title>
<g id="a_node19"><a xlink:href="classdrain_1_1ScalingFunctor.html" target="_top" xlink:title="Rescales intensities linearly: f&#39; = scale*f + offset.">
<polygon fill="white" stroke="red" points="444,-544.5 444,-563.5 532,-563.5 532,-544.5 444,-544.5"/>
<text text-anchor="middle" x="488" y="-551.5" font-family="Helvetica,sans-Serif" font-size="10.00">ScalingFunctor</text>
</a>
</g>
</g>
<!-- Node11&#45;&gt;Node26 -->
<g id="edge18" class="edge">
<title>Node11&#45;&gt;Node26</title>
<path fill="none" stroke="midnightblue" d="M358.87,-701.5C368.82,-698.58 378.49,-694.03 386,-687 424.78,-650.68 384.03,-610.16 422,-573 428.05,-567.08 435.84,-562.99 443.91,-560.16"/>
<polygon fill="midnightblue" stroke="midnightblue" points="357.8,-698.16 348.9,-703.91 359.44,-704.96 357.8,-698.16"/>
</g>
<!-- Node35 -->
<g id="node21" class="node">
<title>Node35</title>
<g id="a_node21"><a xlink:href="classdrain_1_1image_1_1DistanceModelExponential.html" target="_top" xlink:title=" ">
<polygon fill="white" stroke="black" points="234,-658.5 234,-677.5 381,-677.5 381,-658.5 234,-658.5"/>
<text text-anchor="middle" x="307.5" y="-665.5" font-family="Helvetica,sans-Serif" font-size="10.00">DistanceModelExponential</text>
</a>
</g>
</g>
<!-- Node34&#45;&gt;Node35 -->
<g id="edge20" class="edge">
<title>Node34&#45;&gt;Node35</title>
<path fill="none" stroke="midnightblue" d="M196.25,-641.9C218.81,-647.24 245.06,-653.45 266.29,-658.48"/>
<polygon fill="midnightblue" stroke="midnightblue" points="197.04,-638.49 186.5,-639.59 195.43,-645.3 197.04,-638.49"/>
</g>
<!-- Node36 -->
<g id="node22" class="node">
<title>Node36</title>
<g id="a_node22"><a xlink:href="classdrain_1_1image_1_1DistanceModelLinear.html" target="_top" xlink:title=" ">
<polygon fill="white" stroke="black" points="248,-620.5 248,-639.5 367,-639.5 367,-620.5 248,-620.5"/>
<text text-anchor="middle" x="307.5" y="-627.5" font-family="Helvetica,sans-Serif" font-size="10.00">DistanceModelLinear</text>
</a>
</g>
</g>
<!-- Node34&#45;&gt;Node36 -->
<g id="edge21" class="edge">
<title>Node34&#45;&gt;Node36</title>
<path fill="none" stroke="midnightblue" d="M200.23,-630C215.58,-630 232.35,-630 247.95,-630"/>
<polygon fill="midnightblue" stroke="midnightblue" points="199.86,-626.5 189.86,-630 199.86,-633.5 199.86,-626.5"/>
</g>
<!-- Node38 -->
<g id="node24" class="node">
<title>Node38</title>
<g id="a_node24"><a xlink:href="classdrain_1_1image_1_1ImageBox.html" target="_top" xlink:title="Plots a single value in an image. The value will be scaled; notice that alpha channel is scaled by de...">
<polygon fill="white" stroke="black" points="274.5,-582.5 274.5,-601.5 340.5,-601.5 340.5,-582.5 274.5,-582.5"/>
<text text-anchor="middle" x="307.5" y="-589.5" font-family="Helvetica,sans-Serif" font-size="10.00">ImageBox</text>
</a>
</g>
</g>
<!-- Node37&#45;&gt;Node38 -->
<g id="edge23" class="edge">
<title>Node37&#45;&gt;Node38</title>
<path fill="none" stroke="midnightblue" d="M149.5,-415.84C157.08,-452.69 178.56,-531.68 229,-573 241.65,-583.36 259.1,-588.21 274.24,-590.42"/>
<polygon fill="midnightblue" stroke="midnightblue" points="152.91,-415.01 147.58,-405.85 146.03,-416.33 152.91,-415.01"/>
</g>
<!-- Node39 -->
<g id="node25" class="node">
<title>Node39</title>
<g id="a_node25"><a xlink:href="classdrain_1_1image_1_1ImageChannels.html" target="_top" xlink:title=" ">
<polygon fill="white" stroke="black" points="261.5,-544.5 261.5,-563.5 353.5,-563.5 353.5,-544.5 261.5,-544.5"/>
<text text-anchor="middle" x="307.5" y="-551.5" font-family="Helvetica,sans-Serif" font-size="10.00">ImageChannels</text>
</a>
</g>
</g>
<!-- Node37&#45;&gt;Node39 -->
<g id="edge24" class="edge">
<title>Node37&#45;&gt;Node39</title>
<path fill="none" stroke="midnightblue" d="M152.07,-415.33C162.63,-445.67 187.33,-504.2 229,-535 238.36,-541.92 249.92,-546.34 261.23,-549.16"/>
<polygon fill="midnightblue" stroke="midnightblue" points="155.29,-413.91 148.82,-405.53 148.65,-416.12 155.29,-413.91"/>
</g>
<!-- Node40 -->
<g id="node26" class="node">
<title>Node40</title>
<g id="a_node26"><a xlink:href="classdrain_1_1image_1_1ImageCoordPolicy.html" target="_top" xlink:title=" ">
<polygon fill="white" stroke="black" points="255,-506.5 255,-525.5 360,-525.5 360,-506.5 255,-506.5"/>
<text text-anchor="middle" x="307.5" y="-513.5" font-family="Helvetica,sans-Serif" font-size="10.00">ImageCoordPolicy</text>
</a>
</g>
</g>
<!-- Node37&#45;&gt;Node40 -->
<g id="edge25" class="edge">
<title>Node37&#45;&gt;Node40</title>
<path fill="none" stroke="midnightblue" d="M155.98,-414.27C169.47,-437.2 195.72,-476.06 229,-497 236.86,-501.94 245.91,-505.6 254.99,-508.31"/>
<polygon fill="midnightblue" stroke="midnightblue" points="158.98,-412.48 150.99,-405.52 152.9,-415.94 158.98,-412.48"/>
</g>
<!-- Node41 -->
<g id="node27" class="node">
<title>Node41</title>
<g id="a_node27"><a xlink:href="classdrain_1_1image_1_1ImageEncoding.html" target="_top" xlink:title="Changes the type of a target image.">
<polygon fill="white" stroke="black" points="261.5,-468.5 261.5,-487.5 353.5,-487.5 353.5,-468.5 261.5,-468.5"/>
<text text-anchor="middle" x="307.5" y="-475.5" font-family="Helvetica,sans-Serif" font-size="10.00">ImageEncoding</text>
</a>
</g>
</g>
<!-- Node37&#45;&gt;Node41 -->
<g id="edge26" class="edge">
<title>Node37&#45;&gt;Node41</title>
<path fill="none" stroke="midnightblue" d="M163.28,-412.53C179.16,-426.84 203.97,-447.07 229,-459 239,-463.77 250.32,-467.41 261.16,-470.17"/>
<polygon fill="midnightblue" stroke="midnightblue" points="165.55,-409.87 155.83,-405.66 160.81,-415.01 165.55,-409.87"/>
</g>
<!-- Node42 -->
<g id="node28" class="node">
<title>Node42</title>
<g id="a_node28"><a xlink:href="classdrain_1_1image_1_1ImageFill.html" target="_top" xlink:title=" ">
<polygon fill="white" stroke="black" points="277,-430.5 277,-449.5 338,-449.5 338,-430.5 277,-430.5"/>
<text text-anchor="middle" x="307.5" y="-437.5" font-family="Helvetica,sans-Serif" font-size="10.00">ImageFill</text>
</a>
</g>
</g>
<!-- Node37&#45;&gt;Node42 -->
<g id="edge27" class="edge">
<title>Node37&#45;&gt;Node42</title>
<path fill="none" stroke="midnightblue" d="M185.83,-408.46C199.47,-412.6 214.86,-417.14 229,-421 244.77,-425.3 262.47,-429.68 276.97,-433.14"/>
<polygon fill="midnightblue" stroke="midnightblue" points="186.83,-405.1 176.25,-405.52 184.78,-411.8 186.83,-405.1"/>
</g>
<!-- Node43 -->
<g id="node29" class="node">
<title>Node43</title>
<g id="a_node29"><a xlink:href="classdrain_1_1image_1_1ImageGeometry.html" target="_top" xlink:title=" ">
<polygon fill="white" stroke="black" points="259.5,-392.5 259.5,-411.5 355.5,-411.5 355.5,-392.5 259.5,-392.5"/>
<text text-anchor="middle" x="307.5" y="-399.5" font-family="Helvetica,sans-Serif" font-size="10.00">ImageGeometry</text>
</a>
</g>
</g>
<!-- Node37&#45;&gt;Node43 -->
<g id="edge28" class="edge">
<title>Node37&#45;&gt;Node43</title>
<path fill="none" stroke="midnightblue" d="M189.46,-397.62C211.06,-398.43 237.2,-399.41 259.29,-400.24"/>
<polygon fill="midnightblue" stroke="midnightblue" points="189.38,-394.12 179.26,-397.24 189.12,-401.11 189.38,-394.12"/>
</g>
<!-- Node44 -->
<g id="node30" class="node">
<title>Node44</title>
<g id="a_node30"><a xlink:href="classdrain_1_1image_1_1ImageHistogram.html" target="_top" xlink:title=" ">
<polygon fill="white" stroke="black" points="258.5,-354.5 258.5,-373.5 356.5,-373.5 356.5,-354.5 258.5,-354.5"/>
<text text-anchor="middle" x="307.5" y="-361.5" font-family="Helvetica,sans-Serif" font-size="10.00">ImageHistogram</text>
</a>
</g>
</g>
<!-- Node37&#45;&gt;Node44 -->
<g id="edge29" class="edge">
<title>Node37&#45;&gt;Node44</title>
<path fill="none" stroke="midnightblue" d="M189.08,-387.41C210.55,-383.13 236.58,-377.94 258.67,-373.54"/>
<polygon fill="midnightblue" stroke="midnightblue" points="188.38,-383.98 179.26,-389.37 189.75,-390.85 188.38,-383.98"/>
</g>
<!-- Node45 -->
<g id="node31" class="node">
<title>Node45</title>
<g id="a_node31"><a xlink:href="classdrain_1_1image_1_1ImageOp.html" target="_top" xlink:title="Base class for image processing functions.">
<polygon fill="white" stroke="red" points="277,-316.5 277,-335.5 338,-335.5 338,-316.5 277,-316.5"/>
<text text-anchor="middle" x="307.5" y="-323.5" font-family="Helvetica,sans-Serif" font-size="10.00">ImageOp</text>
</a>
</g>
</g>
<!-- Node37&#45;&gt;Node45 -->
<g id="edge30" class="edge">
<title>Node37&#45;&gt;Node45</title>
<path fill="none" stroke="midnightblue" d="M181.69,-382.21C185.6,-380.29 189.44,-378.21 193,-376 210.93,-364.84 210.23,-354.67 229,-345 243.78,-337.39 261.73,-332.74 276.63,-329.94"/>
<polygon fill="midnightblue" stroke="midnightblue" points="180.21,-379.04 172.57,-386.38 183.12,-385.4 180.21,-379.04"/>
</g>
<!-- Node136 -->
<g id="node32" class="node">
<title>Node136</title>
<g id="a_node32"><a xlink:href="classdrain_1_1image_1_1ImagePlot.html" target="_top" xlink:title="Plots a single value in an image. The value will be scaled; notice that alpha channel is scaled by de...">
<polygon fill="white" stroke="black" points="274.5,-278.5 274.5,-297.5 340.5,-297.5 340.5,-278.5 274.5,-278.5"/>
<text text-anchor="middle" x="307.5" y="-285.5" font-family="Helvetica,sans-Serif" font-size="10.00">ImagePlot</text>
</a>
</g>
</g>
<!-- Node37&#45;&gt;Node136 -->
<g id="edge31" class="edge">
<title>Node37&#45;&gt;Node136</title>
<path fill="none" stroke="midnightblue" d="M186.01,-381.41C188.5,-379.77 190.86,-377.98 193,-376 218.4,-352.52 201.78,-328.35 229,-307 241.86,-296.91 259.33,-292.09 274.43,-289.82"/>
<polygon fill="midnightblue" stroke="midnightblue" points="184.19,-378.41 177.16,-386.34 187.6,-384.53 184.19,-378.41"/>
</g>
<!-- Node137 -->
<g id="node33" class="node">
<title>Node137</title>
<g id="a_node33"><a xlink:href="classdrain_1_1image_1_1ImagePlotFile.html" target="_top" xlink:title=" ">
<polygon fill="white" stroke="black" points="266,-240.5 266,-259.5 349,-259.5 349,-240.5 266,-240.5"/>
<text text-anchor="middle" x="307.5" y="-247.5" font-family="Helvetica,sans-Serif" font-size="10.00">ImagePlotFile</text>
</a>
</g>
</g>
<!-- Node37&#45;&gt;Node137 -->
<g id="edge32" class="edge">
<title>Node37&#45;&gt;Node137</title>
<path fill="none" stroke="midnightblue" d="M187.23,-381.14C189.32,-379.59 191.26,-377.88 193,-376 227.07,-339.17 192.06,-302.96 229,-269 239,-259.81 252.69,-254.87 265.8,-252.28"/>
<polygon fill="midnightblue" stroke="midnightblue" points="185.36,-378.19 178.67,-386.4 189.02,-384.15 185.36,-378.19"/>
</g>
<!-- Node138 -->
<g id="node34" class="node">
<title>Node138</title>
<g id="a_node34"><a xlink:href="classdrain_1_1image_1_1ImageSampler.html" target="_top" xlink:title="Traverses image, returning samples.">
<polygon fill="white" stroke="black" points="263.5,-202.5 263.5,-221.5 351.5,-221.5 351.5,-202.5 263.5,-202.5"/>
<text text-anchor="middle" x="307.5" y="-209.5" font-family="Helvetica,sans-Serif" font-size="10.00">ImageSampler</text>
</a>
</g>
</g>
<!-- Node37&#45;&gt;Node138 -->
<g id="edge33" class="edge">
<title>Node37&#45;&gt;Node138</title>
<path fill="none" stroke="midnightblue" d="M188.02,-380.83C189.83,-379.36 191.5,-377.75 193,-376 236.08,-325.47 181.98,-277.88 229,-231 238.12,-221.9 250.85,-216.91 263.35,-214.24"/>
<polygon fill="midnightblue" stroke="midnightblue" points="185.91,-378.02 179.44,-386.41 189.73,-383.89 185.91,-378.02"/>
</g>
<!-- Node140 -->
<g id="node36" class="node">
<title>Node140</title>
<g id="a_node36"><a xlink:href="classdrain_1_1image_1_1ImpulseBucket.html" target="_top" xlink:title=" ">
<polygon fill="white" stroke="red" points="229,-153 229,-183 386,-183 386,-153 229,-153"/>
<text text-anchor="start" x="237" y="-171" font-family="Helvetica,sans-Serif" font-size="10.00">ImpulseBucket&lt; ImpulseAvg</text>
<text text-anchor="middle" x="307.5" y="-160" font-family="Helvetica,sans-Serif" font-size="10.00">Conf &gt;</text>
</a>
</g>
</g>
<!-- Node139&#45;&gt;Node140 -->
<g id="edge35" class="edge">
<title>Node139&#45;&gt;Node140</title>
<path fill="none" stroke="midnightblue" d="M189.25,-341.71C190.59,-340.56 191.85,-339.33 193,-338 236.53,-287.86 183.69,-241.54 229,-193 232.57,-189.18 236.73,-185.94 241.23,-183.19"/>
<polygon fill="midnightblue" stroke="midnightblue" points="187.17,-338.9 180.85,-347.4 191.09,-344.69 187.17,-338.9"/>
</g>
<!-- Node147 -->
<g id="node41" class="node">
<title>Node147</title>
<g id="a_node41"><a xlink:href="classrack_1_1DatasetSelector.html" target="_top" xlink:title=" ">
<polygon fill="white" stroke="black" points="260,-114.5 260,-133.5 355,-133.5 355,-114.5 260,-114.5"/>
<text text-anchor="middle" x="307.5" y="-121.5" font-family="Helvetica,sans-Serif" font-size="10.00">DatasetSelector</text>
</a>
</g>
</g>
<!-- Node146&#45;&gt;Node147 -->
<g id="edge40" class="edge">
<title>Node146&#45;&gt;Node147</title>
<path fill="none" stroke="midnightblue" d="M185.04,-190.97C187.82,-189.45 190.51,-187.79 193,-186 212.96,-171.65 208.14,-157 229,-144 238.32,-138.19 249.26,-134.07 259.95,-131.13"/>
<polygon fill="midnightblue" stroke="midnightblue" points="183.42,-187.87 175.96,-195.4 186.49,-194.16 183.42,-187.87"/>
</g>
<!-- Node152 -->
<g id="node46" class="node">
<title>Node152</title>
<g id="a_node46"><a xlink:href="classrack_1_1DoubleParamPrecip.html" target="_top" xlink:title=" ">
<polygon fill="white" stroke="red" points="251,-76.5 251,-95.5 364,-95.5 364,-76.5 251,-76.5"/>
<text text-anchor="middle" x="307.5" y="-83.5" font-family="Helvetica,sans-Serif" font-size="10.00">DoubleParamPrecip</text>
</a>
</g>
</g>
<!-- Node151&#45;&gt;Node152 -->
<g id="edge45" class="edge">
<title>Node151&#45;&gt;Node152</title>
<path fill="none" stroke="midnightblue" d="M178.47,-59.68C201.95,-64.5 234.02,-71.1 260.18,-76.48"/>
<polygon fill="midnightblue" stroke="midnightblue" points="179.16,-56.24 168.66,-57.66 177.75,-63.1 179.16,-56.24"/>
</g>
<!-- Node155 -->
<g id="node47" class="node">
<title>Node155</title>
<g id="a_node47"><a xlink:href="classrack_1_1SingleParamPrecip.html" target="_top" xlink:title=" ">
<polygon fill="white" stroke="red" points="253.5,-38.5 253.5,-57.5 361.5,-57.5 361.5,-38.5 253.5,-38.5"/>
<text text-anchor="middle" x="307.5" y="-45.5" font-family="Helvetica,sans-Serif" font-size="10.00">SingleParamPrecip</text>
</a>
</g>
</g>
<!-- Node151&#45;&gt;Node155 -->
<g id="edge46" class="edge">
<title>Node151&#45;&gt;Node155</title>
<path fill="none" stroke="midnightblue" d="M178.88,-51.98C200.35,-51.31 228.86,-50.42 253.49,-49.65"/>
<polygon fill="midnightblue" stroke="midnightblue" points="178.54,-48.48 168.66,-52.29 178.76,-55.48 178.54,-48.48"/>
</g>
<!-- Node161 -->
<g id="node49" class="node">
<title>Node161</title>
<g id="a_node49"><a xlink:href="classrack_1_1ProductOp.html" target="_top" xlink:title="Polar and Cartesian products.">
<polygon fill="white" stroke="black" points="244,-0.5 244,-19.5 371,-19.5 371,-0.5 244,-0.5"/>
<text text-anchor="middle" x="307.5" y="-7.5" font-family="Helvetica,sans-Serif" font-size="10.00">ProductOp&lt; MS, MD &gt;</text>
</a>
</g>
</g>
<!-- Node160&#45;&gt;Node161 -->
<g id="edge48" class="edge">
<title>Node160&#45;&gt;Node161</title>
<path fill="none" stroke="midnightblue" d="M193.68,-11.41C209.46,-11.21 227.26,-10.99 243.99,-10.78"/>
<polygon fill="midnightblue" stroke="midnightblue" points="193.59,-7.91 183.63,-11.53 193.67,-14.91 193.59,-7.91"/>
</g>
</g>
</svg>
        <g id="navigator" transform="translate(0 0)" fill="#404254">
                <rect fill="#f2f5e9" fill-opacity="0.5" stroke="#606060" stroke-width=".5" x="0" y="0" width="60" height="60"/>
                <use id="zoomplus" xlink:href="#zoomPlus" x="17" y="9" onmousedown="handleZoom(evt,'in')"/>
                <use id="zoomminus" xlink:href="#zoomMin" x="42" y="9" onmousedown="handleZoom(evt,'out')"/>
                <use id="reset" xlink:href="#resetDef" x="30" y="36" onmousedown="handleReset()"/>
                <g id="arrowUp" xlink:href="#dirArrow" transform="translate(30 24)" onmousedown="handlePan(0,-1)">
                  <use xlink:href="#rim" fill="#404040">
                        <set attributeName="fill" to="#808080" begin="arrowUp.mouseover" end="arrowUp.mouseout"/>
                  </use>
                  <path fill="none" stroke="white" stroke-width="1.5" d="M0,-3.0v7 M-2.5,-0.5L0,-3.0L2.5,-0.5"/>
                </g>
                <g id="arrowRight" xlink:href="#dirArrow" transform="rotate(90) translate(36 -43)" onmousedown="handlePan(1,0)">
                  <use xlink:href="#rim" fill="#404040">
                        <set attributeName="fill" to="#808080" begin="arrowRight.mouseover" end="arrowRight.mouseout"/>
                  </use>
                  <path fill="none" stroke="white" stroke-width="1.5" d="M0,-3.0v7 M-2.5,-0.5L0,-3.0L2.5,-0.5"/>
                </g>
                <g id="arrowDown" xlink:href="#dirArrow" transform="rotate(180) translate(-30 -48)" onmousedown="handlePan(0,1)">
                  <use xlink:href="#rim" fill="#404040">
                        <set attributeName="fill" to="#808080" begin="arrowDown.mouseover" end="arrowDown.mouseout"/>
                  </use>
                  <path fill="none" stroke="white" stroke-width="1.5" d="M0,-3.0v7 M-2.5,-0.5L0,-3.0L2.5,-0.5"/>
                </g>
                <g id="arrowLeft" xlink:href="#dirArrow" transform="rotate(270) translate(-36 17)" onmousedown="handlePan(-1,0)">
                  <use xlink:href="#rim" fill="#404040">
                        <set attributeName="fill" to="#808080" begin="arrowLeft.mouseover" end="arrowLeft.mouseout"/>
                  </use>
                  <path fill="none" stroke="white" stroke-width="1.5" d="M0,-3.0v7 M-2.5,-0.5L0,-3.0L2.5,-0.5"/>
                </g>
        </g>
        <svg viewBox="0 0 15 15" width="100%" height="30px" preserveAspectRatio="xMaxYMin meet">
         <g id="arrow_out" transform="scale(0.3 0.3)">
          <a xlink:href="classdrain_1_1BeanLike__inherit__graph_org.svg" target="_base">
           <rect id="button" ry="5" rx="5" y="6" x="6" height="38" width="38"
                fill="#f2f5e9" fill-opacity="0.5" stroke="#606060" stroke-width="1.0"/>
           <path id="arrow"
             d="M 11.500037,31.436501 C 11.940474,20.09759 22.043105,11.32322 32.158766,21.979434 L 37.068811,17.246167 C 37.068811,17.246167 37.088388,32 37.088388,32 L 22.160133,31.978069 C 22.160133,31.978069 26.997745,27.140456 26.997745,27.140456 C 18.528582,18.264221 13.291696,25.230495 11.500037,31.436501 z"
             style="fill:#404040;"/>
          </a>
         </g>
        </svg>
</svg>
