<?xml version="1.0" encoding="UTF-8" standalone="no"?>
<!DOCTYPE svg PUBLIC "-//W3C//DTD SVG 1.1//EN"
 "http://www.w3.org/Graphics/SVG/1.1/DTD/svg11.dtd">
<!-- Generated by graphviz version 2.43.0 (0)
 -->
<!-- Title: ODIMPathElemMatcher Pages: 1 -->
<svg width="187pt" height="152pt"
 viewBox="0.00 0.00 187.00 152.00" xmlns="http://www.w3.org/2000/svg" xmlns:xlink="http://www.w3.org/1999/xlink">
<g id="graph0" class="graph" transform="scale(1 1) rotate(0) translate(4 148)">
<title>ODIMPathElemMatcher</title>
<polygon fill="white" stroke="transparent" points="-4,4 -4,-148 183,-148 183,4 -4,4"/>
<!-- Node1 -->
<g id="node1" class="node">
<title>Node1</title>
<g id="a_node1"><a xlink:title="Element in a chain in testing a path for a match.">
<polygon fill="#bfbfbf" stroke="black" points="0,-0.5 0,-19.5 130,-19.5 130,-0.5 0,-0.5"/>
<text text-anchor="middle" x="65" y="-7.5" font-family="Helvetica,sans-Serif" font-size="10.00">ODIMPathElemMatcher</text>
</a>
</g>
</g>
<!-- Node2 -->
<g id="node2" class="node">
<title>Node2</title>
<g id="a_node2"><a xlink:href="classrack_1_1ODIMPathElem.html" target="_top" xlink:title=" ">
<polygon fill="white" stroke="black" points="4,-67.5 4,-86.5 94,-86.5 94,-67.5 4,-67.5"/>
<text text-anchor="middle" x="49" y="-74.5" font-family="Helvetica,sans-Serif" font-size="10.00">ODIMPathElem</text>
</a>
</g>
</g>
<!-- Node2&#45;&gt;Node1 -->
<g id="edge1" class="edge">
<title>Node2&#45;&gt;Node1</title>
<path fill="none" stroke="midnightblue" d="M53.57,-57.41C56.63,-44.99 60.52,-29.22 62.88,-19.63"/>
<polygon fill="midnightblue" stroke="midnightblue" points="50.15,-56.69 51.16,-67.23 56.95,-58.36 50.15,-56.69"/>
</g>
<!-- Node3 -->
<g id="node3" class="node">
<title>Node3</title>
<g id="a_node3"><a xlink:href="classdrain_1_1Flagger.html" target="_top" xlink:title="Bit vector accessible also with integer values associated with strings.">
<polygon fill="white" stroke="black" points="112.5,-67.5 112.5,-86.5 165.5,-86.5 165.5,-67.5 112.5,-67.5"/>
<text text-anchor="middle" x="139" y="-74.5" font-family="Helvetica,sans-Serif" font-size="10.00">Flagger</text>
</a>
</g>
</g>
<!-- Node3&#45;&gt;Node1 -->
<g id="edge2" class="edge">
<title>Node3&#45;&gt;Node1</title>
<path fill="none" stroke="#9a32cd" stroke-dasharray="5,2" d="M121.19,-60.36C106.64,-47.58 86.62,-29.99 74.82,-19.63"/>
<polygon fill="#9a32cd" stroke="#9a32cd" points="119.2,-63.26 129.02,-67.23 123.82,-58 119.2,-63.26"/>
<text text-anchor="middle" x="120" y="-41" font-family="Helvetica,sans-Serif" font-size="10.00"> flags</text>
</g>
<!-- Node4 -->
<g id="node4" class="node">
<title>Node4</title>
<g id="a_node4"><a xlink:href="classdrain_1_1FlagResolver.html" target="_top" xlink:title="Referencing a dictionary of binary values: {&quot;A&quot;,1: &quot;B&quot;:2, &quot;C&quot;: 4, &quot;D&quot;: 8, ...} resolves two&#45;way mappi...">
<polygon fill="white" stroke="black" points="99,-124.5 99,-143.5 179,-143.5 179,-124.5 99,-124.5"/>
<text text-anchor="middle" x="139" y="-131.5" font-family="Helvetica,sans-Serif" font-size="10.00">FlagResolver</text>
</a>
</g>
</g>
<!-- Node4&#45;&gt;Node3 -->
<g id="edge3" class="edge">
<title>Node4&#45;&gt;Node3</title>
<path fill="none" stroke="midnightblue" d="M139,-114.12C139,-104.82 139,-94.06 139,-86.71"/>
<polygon fill="midnightblue" stroke="midnightblue" points="135.5,-114.41 139,-124.41 142.5,-114.41 135.5,-114.41"/>
</g>
</g>
</svg>
