<?xml version="1.0" encoding="UTF-8" standalone="no"?>
<!DOCTYPE svg PUBLIC "-//W3C//DTD SVG 1.1//EN"
 "http://www.w3.org/Graphics/SVG/1.1/DTD/svg11.dtd">
<!-- Generated by graphviz version 2.43.0 (0)
 -->
<!-- Title: DopplerDiffPlotterOp Pages: 1 -->
<!--zoomable 242 -->
<svg id="main" version="1.1" xmlns="http://www.w3.org/2000/svg" xmlns:xlink="http://www.w3.org/1999/xlink" xml:space="preserve" onload="init(evt)">
<style type="text/css"><![CDATA[
.edge:hover path { stroke: red; }
.edge:hover polygon { stroke: red; fill: red; }
]]></style>
<script type="text/javascript"><![CDATA[
var edges = document.getElementsByTagName('g');
if (edges && edges.length) {
  for (var i=0;i<edges.length;i++) {
    if (edges[i].id.substr(0,4)=='edge') {
      edges[i].setAttribute('class','edge');
    }
  }
}
]]></script>
        <defs>
                <circle id="rim" cx="0" cy="0" r="7"/>
                <circle id="rim2" cx="0" cy="0" r="3.5"/>
                <g id="zoomPlus">
                        <use xlink:href="#rim" fill="#404040">
                                <set attributeName="fill" to="#808080" begin="zoomplus.mouseover" end="zoomplus.mouseout"/>
                        </use>
                        <path d="M-4,0h8M0,-4v8" fill="none" stroke="white" stroke-width="1.5" pointer-events="none"/>
                </g>
                <g id="zoomMin">
                        <use xlink:href="#rim" fill="#404040">
                                <set attributeName="fill" to="#808080" begin="zoomminus.mouseover" end="zoomminus.mouseout"/>
                        </use>
                        <path d="M-4,0h8" fill="none" stroke="white" stroke-width="1.5" pointer-events="none"/>
                </g>
                <g id="dirArrow">
                        <path fill="none" stroke="white" stroke-width="1.5" d="M0,-3.0v7 M-2.5,-0.5L0,-3.0L2.5,-0.5"/>
                </g>
               <g id="resetDef">
                       <use xlink:href="#rim2" fill="#404040">
                               <set attributeName="fill" to="#808080" begin="reset.mouseover" end="reset.mouseout"/>
                       </use>
               </g>
        </defs>

<script type="text/javascript">
var viewWidth = 1295;
var viewHeight = 242;
var sectionId = 'dynsection-1';
</script>
<script xlink:href="svgpan.js"/>
<svg id="graph" class="graph">
<g id="viewport">
<title>DopplerDiffPlotterOp</title>
<polygon fill="white" stroke="transparent" points="-4,4 -4,-237.5 1291,-237.5 1291,4 -4,4"/>
<!-- Node1 -->
<g id="node1" class="node">
<title>Node1</title>
<g id="a_node1"><a xlink:title=" ">
<polygon fill="#bfbfbf" stroke="black" points="1168,-83.5 1168,-102.5 1287,-102.5 1287,-83.5 1168,-83.5"/>
<text text-anchor="middle" x="1227.5" y="-90.5" font-family="Helvetica,sans-Serif" font-size="10.00">DopplerDiffPlotterOp</text>
</a>
</g>
</g>
<!-- Node2 -->
<g id="node2" class="node">
<title>Node2</title>
<g id="a_node2"><a xlink:href="classrack_1_1DopplerSamplerOp.html" target="_top" xlink:title="Base class for computing products using Doppler speed [VRAD] data.">
<polygon fill="white" stroke="black" points="1022,-83.5 1022,-102.5 1131,-102.5 1131,-83.5 1022,-83.5"/>
<text text-anchor="middle" x="1076.5" y="-90.5" font-family="Helvetica,sans-Serif" font-size="10.00">DopplerSamplerOp</text>
</a>
</g>
</g>
<!-- Node2&#45;&gt;Node1 -->
<g id="edge1" class="edge">
<title>Node2&#45;&gt;Node1</title>
<path fill="none" stroke="midnightblue" d="M1141.5,-93C1150.3,-93 1159.3,-93 1168,-93"/>
<polygon fill="midnightblue" stroke="midnightblue" points="1141.29,-89.5 1131.29,-93 1141.29,-96.5 1141.29,-89.5"/>
</g>
<!-- Node3 -->
<g id="node3" class="node">
<title>Node3</title>
<g id="a_node3"><a xlink:href="classrack_1_1DopplerOp.html" target="_top" xlink:title="Base class for computing products using Doppler speed [VRAD] data.">
<polygon fill="white" stroke="black" points="904,-120.5 904,-139.5 972,-139.5 972,-120.5 904,-120.5"/>
<text text-anchor="middle" x="938" y="-127.5" font-family="Helvetica,sans-Serif" font-size="10.00">DopplerOp</text>
</a>
</g>
</g>
<!-- Node3&#45;&gt;Node2 -->
<g id="edge2" class="edge">
<title>Node3&#45;&gt;Node2</title>
<path fill="none" stroke="midnightblue" d="M981.86,-118.38C1000.69,-113.28 1022.53,-107.36 1040.38,-102.52"/>
<polygon fill="midnightblue" stroke="midnightblue" points="980.78,-115.05 972.04,-121.04 982.61,-121.81 980.78,-115.05"/>
</g>
<!-- Node4 -->
<g id="node4" class="node">
<title>Node4</title>
<g id="a_node4"><a xlink:href="classrack_1_1PolarProductOp.html" target="_top" xlink:title="Base class for flat (2D) products computed in the polar coordinate system. Volume is used as input.">
<polygon fill="white" stroke="black" points="695.5,-158.5 695.5,-177.5 787.5,-177.5 787.5,-158.5 695.5,-158.5"/>
<text text-anchor="middle" x="741.5" y="-165.5" font-family="Helvetica,sans-Serif" font-size="10.00">PolarProductOp</text>
</a>
</g>
</g>
<!-- Node4&#45;&gt;Node3 -->
<g id="edge3" class="edge">
<title>Node4&#45;&gt;Node3</title>
<path fill="none" stroke="midnightblue" d="M797.82,-160.51C824.07,-156.57 855.79,-151.26 884,-145 891,-143.45 898.45,-141.51 905.48,-139.56"/>
<polygon fill="midnightblue" stroke="midnightblue" points="797.06,-157.08 787.68,-162 798.08,-164.01 797.06,-157.08"/>
</g>
<!-- Node5 -->
<g id="node5" class="node">
<title>Node5</title>
<g id="a_node5"><a xlink:href="classrack_1_1VolumeOp.html" target="_top" xlink:title=" ">
<polygon fill="white" stroke="black" points="426,-203.5 426,-222.5 568,-222.5 568,-203.5 426,-203.5"/>
<text text-anchor="middle" x="497" y="-210.5" font-family="Helvetica,sans-Serif" font-size="10.00">VolumeOp&lt; PolarODIM &gt;</text>
</a>
</g>
</g>
<!-- Node5&#45;&gt;Node4 -->
<g id="edge4" class="edge">
<title>Node5&#45;&gt;Node4</title>
<path fill="none" stroke="midnightblue" d="M567.44,-201.76C599.35,-196.41 637.66,-189.72 672,-183 680.6,-181.32 689.78,-179.39 698.54,-177.5"/>
<polygon fill="midnightblue" stroke="midnightblue" points="566.6,-198.35 557.31,-203.45 567.75,-205.26 566.6,-198.35"/>
</g>
<!-- Node6 -->
<g id="node6" class="node">
<title>Node6</title>
<g id="a_node6"><a xlink:href="classdrain_1_1image_1_1ProductOp.html" target="_top" xlink:title=" ">
<polygon fill="white" stroke="black" points="206,-203 206,-233 368,-233 368,-203 206,-203"/>
<text text-anchor="start" x="214" y="-221" font-family="Helvetica,sans-Serif" font-size="10.00">ProductOp&lt; const PolarODIM,</text>
<text text-anchor="middle" x="287" y="-210" font-family="Helvetica,sans-Serif" font-size="10.00"> PolarODIM &gt;</text>
</a>
</g>
</g>
<!-- Node6&#45;&gt;Node5 -->
<g id="edge5" class="edge">
<title>Node6&#45;&gt;Node5</title>
<path fill="none" stroke="midnightblue" d="M378.45,-215.83C394.3,-215.44 410.57,-215.05 425.76,-214.69"/>
<polygon fill="midnightblue" stroke="midnightblue" points="378.03,-212.33 368.12,-216.07 378.2,-219.33 378.03,-212.33"/>
</g>
<!-- Node7 -->
<g id="node7" class="node">
<title>Node7</title>
<g id="a_node7"><a xlink:href="classdrain_1_1image_1_1CoordinatePolicy.html" target="_top" xlink:title="Policies for coordinate underflows and overflows.">
<polygon fill="white" stroke="black" points="447.5,-158.5 447.5,-177.5 546.5,-177.5 546.5,-158.5 447.5,-158.5"/>
<text text-anchor="middle" x="497" y="-165.5" font-family="Helvetica,sans-Serif" font-size="10.00">CoordinatePolicy</text>
</a>
</g>
</g>
<!-- Node7&#45;&gt;Node4 -->
<g id="edge6" class="edge">
<title>Node7&#45;&gt;Node4</title>
<path fill="none" stroke="#9a32cd" stroke-dasharray="5,2" d="M557.03,-168C599.69,-168 656.45,-168 695.48,-168"/>
<polygon fill="#9a32cd" stroke="#9a32cd" points="556.78,-164.5 546.78,-168 556.78,-171.5 556.78,-164.5"/>
<text text-anchor="middle" x="629" y="-171" font-family="Helvetica,sans-Serif" font-size="10.00"> polarCoordPolicy</text>
</g>
<!-- Node8 -->
<g id="node8" class="node">
<title>Node8</title>
<g id="a_node8"><a xlink:href="classdrain_1_1UniTuple.html" target="_top" xlink:title=" ">
<polygon fill="white" stroke="black" points="228.5,-154 228.5,-184 345.5,-184 345.5,-154 228.5,-154"/>
<text text-anchor="start" x="236.5" y="-172" font-family="Helvetica,sans-Serif" font-size="10.00">UniTuple&lt; coord_pol</text>
<text text-anchor="middle" x="287" y="-161" font-family="Helvetica,sans-Serif" font-size="10.00">_t, 4 &gt;</text>
</a>
</g>
</g>
<!-- Node8&#45;&gt;Node7 -->
<g id="edge7" class="edge">
<title>Node8&#45;&gt;Node7</title>
<path fill="none" stroke="midnightblue" d="M356.01,-168.67C385.84,-168.53 420.18,-168.36 447.38,-168.23"/>
<polygon fill="midnightblue" stroke="midnightblue" points="355.65,-165.17 345.66,-168.72 355.68,-172.17 355.65,-165.17"/>
</g>
<!-- Node9 -->
<g id="node9" class="node">
<title>Node9</title>
<g id="a_node9"><a xlink:href="classdrain_1_1Dictionary2.html" target="_top" xlink:title="Two&#45;way mapping between strings and objects of template class T.">
<polygon fill="white" stroke="black" points="229.5,-115.5 229.5,-134.5 344.5,-134.5 344.5,-115.5 229.5,-115.5"/>
<text text-anchor="middle" x="287" y="-122.5" font-family="Helvetica,sans-Serif" font-size="10.00">Dictionary2&lt; K, V &gt;</text>
</a>
</g>
</g>
<!-- Node9&#45;&gt;Node7 -->
<g id="edge8" class="edge">
<title>Node9&#45;&gt;Node7</title>
<path fill="none" stroke="#9a32cd" stroke-dasharray="5,2" d="M344.16,-136.61C377.31,-143.46 418.76,-152.03 449.97,-158.48"/>
<polygon fill="#9a32cd" stroke="#9a32cd" points="344.66,-133.14 334.16,-134.54 343.25,-140 344.66,-133.14"/>
<text text-anchor="middle" x="397" y="-152" font-family="Helvetica,sans-Serif" font-size="10.00"> dict</text>
</g>
<!-- Node10 -->
<g id="node10" class="node">
<title>Node10</title>
<g id="a_node10"><a xlink:title=" ">
<polygon fill="white" stroke="#bfbfbf" points="32.5,-111 32.5,-141 136.5,-141 136.5,-111 32.5,-111"/>
<text text-anchor="start" x="40.5" y="-129" font-family="Helvetica,sans-Serif" font-size="10.00">list&lt; std::pair&lt; K,</text>
<text text-anchor="middle" x="84.5" y="-118" font-family="Helvetica,sans-Serif" font-size="10.00"> V &gt; &gt;</text>
</a>
</g>
</g>
<!-- Node10&#45;&gt;Node9 -->
<g id="edge9" class="edge">
<title>Node10&#45;&gt;Node9</title>
<path fill="none" stroke="midnightblue" d="M146.83,-125.69C173.1,-125.56 203.59,-125.41 229.33,-125.28"/>
<polygon fill="midnightblue" stroke="midnightblue" points="146.6,-122.2 136.61,-125.75 146.63,-129.2 146.6,-122.2"/>
</g>
<!-- Node11 -->
<g id="node11" class="node">
<title>Node11</title>
<g id="a_node11"><a xlink:href="classdrain_1_1RegExp.html" target="_top" xlink:title=" ">
<polygon fill="white" stroke="black" points="715,-120.5 715,-139.5 768,-139.5 768,-120.5 715,-120.5"/>
<text text-anchor="middle" x="741.5" y="-127.5" font-family="Helvetica,sans-Serif" font-size="10.00">RegExp</text>
</a>
</g>
</g>
<!-- Node11&#45;&gt;Node3 -->
<g id="edge10" class="edge">
<title>Node11&#45;&gt;Node3</title>
<path fill="none" stroke="#9a32cd" stroke-dasharray="5,2" d="M778.37,-130C814.26,-130 869.02,-130 903.9,-130"/>
<polygon fill="#9a32cd" stroke="#9a32cd" points="778.33,-126.5 768.33,-130 778.33,-133.5 778.33,-126.5"/>
<text text-anchor="middle" x="847.5" y="-133" font-family="Helvetica,sans-Serif" font-size="10.00"> regExpVRAD</text>
</g>
<!-- Node12 -->
<g id="node12" class="node">
<title>Node12</title>
<g id="a_node12"><a xlink:href="classrack_1_1PolarSector.html" target="_top" xlink:title=" ">
<polygon fill="white" stroke="black" points="902,-64.5 902,-83.5 974,-83.5 974,-64.5 902,-64.5"/>
<text text-anchor="middle" x="938" y="-71.5" font-family="Helvetica,sans-Serif" font-size="10.00">PolarSector</text>
</a>
</g>
</g>
<!-- Node12&#45;&gt;Node2 -->
<g id="edge11" class="edge">
<title>Node12&#45;&gt;Node2</title>
<path fill="none" stroke="#9a32cd" stroke-dasharray="5,2" d="M984.39,-80.32C996.41,-81.99 1009.5,-83.81 1021.91,-85.54"/>
<polygon fill="#9a32cd" stroke="#9a32cd" points="984.54,-76.81 974.15,-78.89 983.57,-83.74 984.54,-76.81"/>
<text text-anchor="middle" x="998" y="-85" font-family="Helvetica,sans-Serif" font-size="10.00"> w</text>
</g>
<!-- Node13 -->
<g id="node13" class="node">
<title>Node13</title>
<g id="a_node13"><a xlink:href="classdrain_1_1BeanLike.html" target="_top" xlink:title="Something which has a name, a description and possibly some parameters of varying type.">
<polygon fill="white" stroke="black" points="711,-82.5 711,-101.5 772,-101.5 772,-82.5 711,-82.5"/>
<text text-anchor="middle" x="741.5" y="-89.5" font-family="Helvetica,sans-Serif" font-size="10.00">BeanLike</text>
</a>
</g>
</g>
<!-- Node13&#45;&gt;Node12 -->
<g id="edge12" class="edge">
<title>Node13&#45;&gt;Node12</title>
<path fill="none" stroke="midnightblue" d="M782.42,-88.31C817.57,-85.05 868.27,-80.36 901.9,-77.25"/>
<polygon fill="midnightblue" stroke="midnightblue" points="781.68,-84.86 772.04,-89.27 782.32,-91.83 781.68,-84.86"/>
</g>
<!-- Node14 -->
<g id="node14" class="node">
<title>Node14</title>
<g id="a_node14"><a xlink:href="classdrain_1_1ReferenceMap.html" target="_top" xlink:title=" ">
<polygon fill="white" stroke="black" points="453.5,-82.5 453.5,-101.5 540.5,-101.5 540.5,-82.5 453.5,-82.5"/>
<text text-anchor="middle" x="497" y="-89.5" font-family="Helvetica,sans-Serif" font-size="10.00">ReferenceMap</text>
</a>
</g>
</g>
<!-- Node14&#45;&gt;Node13 -->
<g id="edge13" class="edge">
<title>Node14&#45;&gt;Node13</title>
<path fill="none" stroke="#9a32cd" stroke-dasharray="5,2" d="M550.61,-92C599.58,-92 670.82,-92 710.66,-92"/>
<polygon fill="#9a32cd" stroke="#9a32cd" points="550.52,-88.5 540.52,-92 550.52,-95.5 550.52,-88.5"/>
<text text-anchor="middle" x="629" y="-95" font-family="Helvetica,sans-Serif" font-size="10.00"> parameters</text>
</g>
<!-- Node15 -->
<g id="node15" class="node">
<title>Node15</title>
<g id="a_node15"><a xlink:href="classdrain_1_1SmartMap.html" target="_top" xlink:title=" ">
<polygon fill="white" stroke="black" points="215.5,-74.5 215.5,-93.5 358.5,-93.5 358.5,-74.5 215.5,-74.5"/>
<text text-anchor="middle" x="287" y="-81.5" font-family="Helvetica,sans-Serif" font-size="10.00">SmartMap&lt; Referencer &gt;</text>
</a>
</g>
</g>
<!-- Node15&#45;&gt;Node14 -->
<g id="edge14" class="edge">
<title>Node15&#45;&gt;Node14</title>
<path fill="none" stroke="midnightblue" d="M368.79,-87.11C397.65,-88.22 429.01,-89.42 453.38,-90.36"/>
<polygon fill="midnightblue" stroke="midnightblue" points="368.84,-83.61 358.71,-86.72 368.57,-90.6 368.84,-83.61"/>
</g>
<!-- Node16 -->
<g id="node16" class="node">
<title>Node16</title>
<g id="a_node16"><a xlink:title=" ">
<polygon fill="white" stroke="#bfbfbf" points="0,-72.5 0,-91.5 169,-91.5 169,-72.5 0,-72.5"/>
<text text-anchor="middle" x="84.5" y="-79.5" font-family="Helvetica,sans-Serif" font-size="10.00">map&lt; std::string, Referencer &gt;</text>
</a>
</g>
</g>
<!-- Node16&#45;&gt;Node15 -->
<g id="edge15" class="edge">
<title>Node16&#45;&gt;Node15</title>
<path fill="none" stroke="midnightblue" d="M179.22,-82.93C191.36,-83.06 203.62,-83.18 215.29,-83.29"/>
<polygon fill="midnightblue" stroke="midnightblue" points="179.11,-79.43 169.08,-82.83 179.04,-86.43 179.11,-79.43"/>
</g>
<!-- Node17 -->
<g id="node17" class="node">
<title>Node17</title>
<g id="a_node17"><a xlink:href="classdrain_1_1Range.html" target="_top" xlink:title=" ">
<polygon fill="white" stroke="black" points="700,-44.5 700,-63.5 783,-63.5 783,-44.5 700,-44.5"/>
<text text-anchor="middle" x="741.5" y="-51.5" font-family="Helvetica,sans-Serif" font-size="10.00">Range&lt; int &gt;</text>
</a>
</g>
</g>
<!-- Node17&#45;&gt;Node12 -->
<g id="edge16" class="edge">
<title>Node17&#45;&gt;Node12</title>
<path fill="none" stroke="#9a32cd" stroke-dasharray="5,2" d="M793.19,-48.89C820.35,-47.34 854.26,-47.32 884,-53 895.67,-55.23 908.04,-59.98 917.9,-64.4"/>
<polygon fill="#9a32cd" stroke="#9a32cd" points="792.88,-45.4 783.13,-49.55 793.34,-52.39 792.88,-45.4"/>
<text text-anchor="middle" x="847.5" y="-67" font-family="Helvetica,sans-Serif" font-size="10.00"> binRange</text>
<text text-anchor="middle" x="847.5" y="-56" font-family="Helvetica,sans-Serif" font-size="10.00">rayRange</text>
</g>
<!-- Node18 -->
<g id="node18" class="node">
<title>Node18</title>
<g id="a_node18"><a xlink:href="classdrain_1_1UniTuple.html" target="_top" xlink:title=" ">
<polygon fill="white" stroke="black" points="444,-44.5 444,-63.5 550,-63.5 550,-44.5 444,-44.5"/>
<text text-anchor="middle" x="497" y="-51.5" font-family="Helvetica,sans-Serif" font-size="10.00">UniTuple&lt; int, 2 &gt;</text>
</a>
</g>
</g>
<!-- Node18&#45;&gt;Node17 -->
<g id="edge17" class="edge">
<title>Node18&#45;&gt;Node17</title>
<path fill="none" stroke="midnightblue" d="M560.3,-54C604.18,-54 661.68,-54 699.79,-54"/>
<polygon fill="midnightblue" stroke="midnightblue" points="560.02,-50.5 550.02,-54 560.02,-57.5 560.02,-50.5"/>
</g>
<!-- Node19 -->
<g id="node19" class="node">
<title>Node19</title>
<g id="a_node19"><a xlink:href="classdrain_1_1Range.html" target="_top" xlink:title=" ">
<polygon fill="white" stroke="black" points="690,-0.5 690,-19.5 793,-19.5 793,-0.5 690,-0.5"/>
<text text-anchor="middle" x="741.5" y="-7.5" font-family="Helvetica,sans-Serif" font-size="10.00">Range&lt; double &gt;</text>
</a>
</g>
</g>
<!-- Node19&#45;&gt;Node12 -->
<g id="edge18" class="edge">
<title>Node19&#45;&gt;Node12</title>
<path fill="none" stroke="#9a32cd" stroke-dasharray="5,2" d="M803.16,-6.2C829.1,-6.8 859.08,-10.56 884,-22 904.39,-31.36 921.54,-52.02 930.44,-64.29"/>
<polygon fill="#9a32cd" stroke="#9a32cd" points="803.09,-2.7 793.07,-6.12 803.04,-9.7 803.09,-2.7"/>
<text text-anchor="middle" x="847.5" y="-36" font-family="Helvetica,sans-Serif" font-size="10.00"> azmRange</text>
<text text-anchor="middle" x="847.5" y="-25" font-family="Helvetica,sans-Serif" font-size="10.00">distanceRange</text>
</g>
<!-- Node20 -->
<g id="node20" class="node">
<title>Node20</title>
<g id="a_node20"><a xlink:href="classdrain_1_1UniTuple.html" target="_top" xlink:title=" ">
<polygon fill="white" stroke="black" points="434,-0.5 434,-19.5 560,-19.5 560,-0.5 434,-0.5"/>
<text text-anchor="middle" x="497" y="-7.5" font-family="Helvetica,sans-Serif" font-size="10.00">UniTuple&lt; double, 2 &gt;</text>
</a>
</g>
</g>
<!-- Node20&#45;&gt;Node19 -->
<g id="edge19" class="edge">
<title>Node20&#45;&gt;Node19</title>
<path fill="none" stroke="midnightblue" d="M570.26,-10C608.81,-10 655.3,-10 689.95,-10"/>
<polygon fill="midnightblue" stroke="midnightblue" points="570.13,-6.5 560.13,-10 570.13,-13.5 570.13,-6.5"/>
</g>
</g>
</svg>
        <g id="navigator" transform="translate(0 0)" fill="#404254">
                <rect fill="#f2f5e9" fill-opacity="0.5" stroke="#606060" stroke-width=".5" x="0" y="0" width="60" height="60"/>
                <use id="zoomplus" xlink:href="#zoomPlus" x="17" y="9" onmousedown="handleZoom(evt,'in')"/>
                <use id="zoomminus" xlink:href="#zoomMin" x="42" y="9" onmousedown="handleZoom(evt,'out')"/>
                <use id="reset" xlink:href="#resetDef" x="30" y="36" onmousedown="handleReset()"/>
                <g id="arrowUp" xlink:href="#dirArrow" transform="translate(30 24)" onmousedown="handlePan(0,-1)">
                  <use xlink:href="#rim" fill="#404040">
                        <set attributeName="fill" to="#808080" begin="arrowUp.mouseover" end="arrowUp.mouseout"/>
                  </use>
                  <path fill="none" stroke="white" stroke-width="1.5" d="M0,-3.0v7 M-2.5,-0.5L0,-3.0L2.5,-0.5"/>
                </g>
                <g id="arrowRight" xlink:href="#dirArrow" transform="rotate(90) translate(36 -43)" onmousedown="handlePan(1,0)">
                  <use xlink:href="#rim" fill="#404040">
                        <set attributeName="fill" to="#808080" begin="arrowRight.mouseover" end="arrowRight.mouseout"/>
                  </use>
                  <path fill="none" stroke="white" stroke-width="1.5" d="M0,-3.0v7 M-2.5,-0.5L0,-3.0L2.5,-0.5"/>
                </g>
                <g id="arrowDown" xlink:href="#dirArrow" transform="rotate(180) translate(-30 -48)" onmousedown="handlePan(0,1)">
                  <use xlink:href="#rim" fill="#404040">
                        <set attributeName="fill" to="#808080" begin="arrowDown.mouseover" end="arrowDown.mouseout"/>
                  </use>
                  <path fill="none" stroke="white" stroke-width="1.5" d="M0,-3.0v7 M-2.5,-0.5L0,-3.0L2.5,-0.5"/>
                </g>
                <g id="arrowLeft" xlink:href="#dirArrow" transform="rotate(270) translate(-36 17)" onmousedown="handlePan(-1,0)">
                  <use xlink:href="#rim" fill="#404040">
                        <set attributeName="fill" to="#808080" begin="arrowLeft.mouseover" end="arrowLeft.mouseout"/>
                  </use>
                  <path fill="none" stroke="white" stroke-width="1.5" d="M0,-3.0v7 M-2.5,-0.5L0,-3.0L2.5,-0.5"/>
                </g>
        </g>
        <svg viewBox="0 0 15 15" width="100%" height="30px" preserveAspectRatio="xMaxYMin meet">
         <g id="arrow_out" transform="scale(0.3 0.3)">
          <a xlink:href="classrack_1_1DopplerDiffPlotterOp__coll__graph_org.svg" target="_base">
           <rect id="button" ry="5" rx="5" y="6" x="6" height="38" width="38"
                fill="#f2f5e9" fill-opacity="0.5" stroke="#606060" stroke-width="1.0"/>
           <path id="arrow"
             d="M 11.500037,31.436501 C 11.940474,20.09759 22.043105,11.32322 32.158766,21.979434 L 37.068811,17.246167 C 37.068811,17.246167 37.088388,32 37.088388,32 L 22.160133,31.978069 C 22.160133,31.978069 26.997745,27.140456 26.997745,27.140456 C 18.528582,18.264221 13.291696,25.230495 11.500037,31.436501 z"
             style="fill:#404040;"/>
          </a>
         </g>
        </svg>
</svg>
