<?xml version="1.0" encoding="UTF-8" standalone="no"?>
<!DOCTYPE svg PUBLIC "-//W3C//DTD SVG 1.1//EN"
 "http://www.w3.org/Graphics/SVG/1.1/DTD/svg11.dtd">
<!-- Generated by graphviz version 2.43.0 (0)
 -->
<!-- Title: VerticalProfileOp Pages: 1 -->
<svg width="170pt" height="162pt"
 viewBox="0.00 0.00 170.00 162.00" xmlns="http://www.w3.org/2000/svg" xmlns:xlink="http://www.w3.org/1999/xlink">
<g id="graph0" class="graph" transform="scale(1 1) rotate(0) translate(4 158)">
<title>VerticalProfileOp</title>
<polygon fill="white" stroke="transparent" points="-4,4 -4,-158 166,-158 166,4 -4,4"/>
<!-- Node1 -->
<g id="node1" class="node">
<title>Node1</title>
<g id="a_node1"><a xlink:title="Computes vertical profiles of reflectivity (DBZH), including raw and polarized reflectivity.">
<polygon fill="#bfbfbf" stroke="black" points="31.5,-0.5 31.5,-19.5 130.5,-19.5 130.5,-0.5 31.5,-0.5"/>
<text text-anchor="middle" x="81" y="-7.5" font-family="Helvetica,sans-Serif" font-size="10.00">VerticalProfileOp</text>
</a>
</g>
</g>
<!-- Node2 -->
<g id="node2" class="node">
<title>Node2</title>
<g id="a_node2"><a xlink:href="classrack_1_1VolumeOp.html" target="_top" xlink:title=" ">
<polygon fill="white" stroke="black" points="7,-56.5 7,-86.5 155,-86.5 155,-56.5 7,-56.5"/>
<text text-anchor="start" x="15" y="-74.5" font-family="Helvetica,sans-Serif" font-size="10.00">VolumeOp&lt; VerticalProfile</text>
<text text-anchor="middle" x="81" y="-63.5" font-family="Helvetica,sans-Serif" font-size="10.00">ODIM &gt;</text>
</a>
</g>
</g>
<!-- Node2&#45;&gt;Node1 -->
<g id="edge1" class="edge">
<title>Node2&#45;&gt;Node1</title>
<path fill="none" stroke="midnightblue" d="M81,-46.29C81,-36.86 81,-26.65 81,-19.66"/>
<polygon fill="midnightblue" stroke="midnightblue" points="77.5,-46.4 81,-56.4 84.5,-46.4 77.5,-46.4"/>
</g>
<!-- Node3 -->
<g id="node3" class="node">
<title>Node3</title>
<g id="a_node3"><a xlink:href="classdrain_1_1image_1_1ProductOp.html" target="_top" xlink:title=" ">
<polygon fill="white" stroke="black" points="0,-123.5 0,-153.5 162,-153.5 162,-123.5 0,-123.5"/>
<text text-anchor="start" x="8" y="-141.5" font-family="Helvetica,sans-Serif" font-size="10.00">ProductOp&lt; const PolarODIM,</text>
<text text-anchor="middle" x="81" y="-130.5" font-family="Helvetica,sans-Serif" font-size="10.00"> VerticalProfileODIM &gt;</text>
</a>
</g>
</g>
<!-- Node3&#45;&gt;Node2 -->
<g id="edge2" class="edge">
<title>Node3&#45;&gt;Node2</title>
<path fill="none" stroke="midnightblue" d="M81,-113.11C81,-104.15 81,-94.32 81,-86.58"/>
<polygon fill="midnightblue" stroke="midnightblue" points="77.5,-113.4 81,-123.4 84.5,-113.4 77.5,-113.4"/>
</g>
</g>
</svg>
