<?xml version="1.0" encoding="UTF-8" standalone="no"?>
<!DOCTYPE svg PUBLIC "-//W3C//DTD SVG 1.1//EN"
 "http://www.w3.org/Graphics/SVG/1.1/DTD/svg11.dtd">
<!-- Generated by graphviz version 2.43.0 (0)
 -->
<!-- Title: GaussianStripe&lt; DIR, R &gt; Pages: 1 -->
<svg width="2770pt" height="512pt"
 viewBox="0.00 0.00 2770.00 512.00" xmlns="http://www.w3.org/2000/svg" xmlns:xlink="http://www.w3.org/1999/xlink">
<g id="graph0" class="graph" transform="scale(1 1) rotate(0) translate(4 508)">
<title>GaussianStripe&lt; DIR, R &gt;</title>
<polygon fill="white" stroke="transparent" points="-4,4 -4,-508 2766,-508 2766,4 -4,4"/>
<!-- Node1 -->
<g id="node1" class="node">
<title>Node1</title>
<g id="a_node1"><a xlink:title=" ">
<polygon fill="#bfbfbf" stroke="black" points="2619,-93.5 2619,-112.5 2762,-112.5 2762,-93.5 2619,-93.5"/>
<text text-anchor="middle" x="2690.5" y="-100.5" font-family="Helvetica,sans-Serif" font-size="10.00">GaussianStripe&lt; DIR, R &gt;</text>
</a>
</g>
</g>
<!-- Node2 -->
<g id="node2" class="node">
<title>Node2</title>
<g id="a_node2"><a xlink:href="classdrain_1_1image_1_1Window.html" target="_top" xlink:title=" ">
<polygon fill="white" stroke="black" points="2406,-145 2406,-175 2582,-175 2582,-145 2406,-145"/>
<text text-anchor="start" x="2414" y="-163" font-family="Helvetica,sans-Serif" font-size="10.00">Window&lt; GaussianWindowConf,</text>
<text text-anchor="middle" x="2494" y="-152" font-family="Helvetica,sans-Serif" font-size="10.00"> WindowCore &gt;</text>
</a>
</g>
</g>
<!-- Node2&#45;&gt;Node1 -->
<g id="edge1" class="edge">
<title>Node2&#45;&gt;Node1</title>
<path fill="none" stroke="midnightblue" d="M2556.02,-142.12C2589.38,-132.34 2629.36,-120.62 2656.82,-112.58"/>
<polygon fill="midnightblue" stroke="midnightblue" points="2554.97,-138.78 2546.36,-144.95 2556.94,-145.5 2554.97,-138.78"/>
</g>
<!-- Node3 -->
<g id="node3" class="node">
<title>Node3</title>
<g id="a_node3"><a xlink:href="classdrain_1_1image_1_1WindowCore.html" target="_top" xlink:title="Container for source data (input) and destination data (output). May also contain metadata of them.">
<polygon fill="white" stroke="black" points="2184.5,-284.5 2184.5,-303.5 2262.5,-303.5 2262.5,-284.5 2184.5,-284.5"/>
<text text-anchor="middle" x="2223.5" y="-291.5" font-family="Helvetica,sans-Serif" font-size="10.00">WindowCore</text>
</a>
</g>
</g>
<!-- Node3&#45;&gt;Node2 -->
<g id="edge2" class="edge">
<title>Node3&#45;&gt;Node2</title>
<path fill="none" stroke="midnightblue" d="M2272.46,-285.19C2286.28,-282.31 2301.32,-278.85 2315,-275 2348.15,-265.66 2358.16,-266.19 2388,-249 2424.03,-228.24 2459.59,-194.59 2478.67,-175.16"/>
<polygon fill="midnightblue" stroke="midnightblue" points="2271.75,-281.76 2262.65,-287.18 2273.14,-288.62 2271.75,-281.76"/>
</g>
<!-- Node4 -->
<g id="node4" class="node">
<title>Node4</title>
<g id="a_node4"><a xlink:href="classdrain_1_1image_1_1WindowCoreBase.html" target="_top" xlink:title="Provides splitting frames.">
<polygon fill="white" stroke="black" points="1947,-284.5 1947,-303.5 2049,-303.5 2049,-284.5 1947,-284.5"/>
<text text-anchor="middle" x="1998" y="-291.5" font-family="Helvetica,sans-Serif" font-size="10.00">WindowCoreBase</text>
</a>
</g>
</g>
<!-- Node4&#45;&gt;Node3 -->
<g id="edge3" class="edge">
<title>Node4&#45;&gt;Node3</title>
<path fill="none" stroke="midnightblue" d="M2059.28,-294C2099.08,-294 2150.03,-294 2184.33,-294"/>
<polygon fill="midnightblue" stroke="midnightblue" points="2059.16,-290.5 2049.16,-294 2059.16,-297.5 2059.16,-290.5"/>
</g>
<!-- Node5 -->
<g id="node5" class="node">
<title>Node5</title>
<g id="a_node5"><a xlink:href="classdrain_1_1image_1_1ImageView.html" target="_top" xlink:title="ImageFrame that also has channels.">
<polygon fill="white" stroke="black" points="1962.5,-322.5 1962.5,-341.5 2033.5,-341.5 2033.5,-322.5 1962.5,-322.5"/>
<text text-anchor="middle" x="1998" y="-329.5" font-family="Helvetica,sans-Serif" font-size="10.00">ImageView</text>
</a>
</g>
</g>
<!-- Node5&#45;&gt;Node3 -->
<g id="edge4" class="edge">
<title>Node5&#45;&gt;Node3</title>
<path fill="none" stroke="#9a32cd" stroke-dasharray="5,2" d="M2043.97,-324.35C2085.19,-317.35 2145.57,-307.08 2184.46,-300.47"/>
<polygon fill="#9a32cd" stroke="#9a32cd" points="2043.19,-320.94 2033.92,-326.06 2044.37,-327.84 2043.19,-320.94"/>
<text text-anchor="middle" x="2095.5" y="-332" font-family="Helvetica,sans-Serif" font-size="10.00"> src</text>
<text text-anchor="middle" x="2095.5" y="-321" font-family="Helvetica,sans-Serif" font-size="10.00">dst</text>
</g>
<!-- Node6 -->
<g id="node6" class="node">
<title>Node6</title>
<g id="a_node6"><a xlink:href="classdrain_1_1image_1_1MultiChannel.html" target="_top" xlink:title="Multi&#45;channel ImageFrame.">
<polygon fill="white" stroke="black" points="1698.5,-321.5 1698.5,-340.5 1779.5,-340.5 1779.5,-321.5 1698.5,-321.5"/>
<text text-anchor="middle" x="1739" y="-328.5" font-family="Helvetica,sans-Serif" font-size="10.00">MultiChannel</text>
</a>
</g>
</g>
<!-- Node6&#45;&gt;Node5 -->
<g id="edge5" class="edge">
<title>Node6&#45;&gt;Node5</title>
<path fill="none" stroke="midnightblue" d="M1789.68,-331.19C1840.4,-331.39 1917.83,-331.69 1962.31,-331.87"/>
<polygon fill="midnightblue" stroke="midnightblue" points="1789.61,-327.69 1779.59,-331.15 1789.58,-334.69 1789.61,-327.69"/>
</g>
<!-- Node7 -->
<g id="node7" class="node">
<title>Node7</title>
<g id="a_node7"><a xlink:href="classdrain_1_1image_1_1ImageFrame.html" target="_top" xlink:title="Image with static geometry.">
<polygon fill="white" stroke="black" points="1471,-320.5 1471,-339.5 1549,-339.5 1549,-320.5 1471,-320.5"/>
<text text-anchor="middle" x="1510" y="-327.5" font-family="Helvetica,sans-Serif" font-size="10.00">ImageFrame</text>
</a>
</g>
</g>
<!-- Node7&#45;&gt;Node6 -->
<g id="edge6" class="edge">
<title>Node7&#45;&gt;Node6</title>
<path fill="none" stroke="midnightblue" d="M1559.39,-330.21C1600.83,-330.4 1659.78,-330.66 1698.45,-330.83"/>
<polygon fill="midnightblue" stroke="midnightblue" points="1559.27,-326.71 1549.25,-330.17 1559.24,-333.71 1559.27,-326.71"/>
</g>
<!-- Node8 -->
<g id="node8" class="node">
<title>Node8</title>
<g id="a_node8"><a xlink:href="classdrain_1_1image_1_1ImageLike.html" target="_top" xlink:title="A base class for images.">
<polygon fill="white" stroke="black" points="1230.5,-370.5 1230.5,-389.5 1297.5,-389.5 1297.5,-370.5 1230.5,-370.5"/>
<text text-anchor="middle" x="1264" y="-377.5" font-family="Helvetica,sans-Serif" font-size="10.00">ImageLike</text>
</a>
</g>
</g>
<!-- Node8&#45;&gt;Node7 -->
<g id="edge7" class="edge">
<title>Node8&#45;&gt;Node7</title>
<path fill="none" stroke="midnightblue" d="M1307.64,-371.26C1353.77,-361.81 1426.65,-346.87 1470.93,-337.8"/>
<polygon fill="midnightblue" stroke="midnightblue" points="1306.75,-367.87 1297.65,-373.31 1308.15,-374.73 1306.75,-367.87"/>
</g>
<!-- Node9 -->
<g id="node9" class="node">
<title>Node9</title>
<g id="a_node9"><a xlink:href="classdrain_1_1image_1_1ImageConf.html" target="_top" xlink:title="Struct for image (excluding data)">
<polygon fill="white" stroke="black" points="935.5,-370.5 935.5,-389.5 1005.5,-389.5 1005.5,-370.5 935.5,-370.5"/>
<text text-anchor="middle" x="970.5" y="-377.5" font-family="Helvetica,sans-Serif" font-size="10.00">ImageConf</text>
</a>
</g>
</g>
<!-- Node9&#45;&gt;Node8 -->
<g id="edge8" class="edge">
<title>Node9&#45;&gt;Node8</title>
<path fill="none" stroke="#9a32cd" stroke-dasharray="5,2" d="M1015.62,-380C1074.53,-380 1177.53,-380 1230.1,-380"/>
<polygon fill="#9a32cd" stroke="#9a32cd" points="1015.51,-376.5 1005.51,-380 1015.51,-383.5 1015.51,-376.5"/>
<text text-anchor="middle" x="1120.5" y="-383" font-family="Helvetica,sans-Serif" font-size="10.00"> conf</text>
</g>
<!-- Node10 -->
<g id="node10" class="node">
<title>Node10</title>
<g id="a_node10"><a xlink:href="classdrain_1_1image_1_1Encoding.html" target="_top" xlink:title=" ">
<polygon fill="white" stroke="black" points="646,-370.5 646,-389.5 707,-389.5 707,-370.5 646,-370.5"/>
<text text-anchor="middle" x="676.5" y="-377.5" font-family="Helvetica,sans-Serif" font-size="10.00">Encoding</text>
</a>
</g>
</g>
<!-- Node10&#45;&gt;Node9 -->
<g id="edge9" class="edge">
<title>Node10&#45;&gt;Node9</title>
<path fill="none" stroke="midnightblue" d="M717.3,-380C775.01,-380 880.96,-380 935.33,-380"/>
<polygon fill="midnightblue" stroke="midnightblue" points="717.11,-376.5 707.11,-380 717.11,-383.5 717.11,-376.5"/>
</g>
<!-- Node11 -->
<g id="node11" class="node">
<title>Node11</title>
<g id="a_node11"><a xlink:href="classdrain_1_1ValueScaling.html" target="_top" xlink:title="Linear scaling and physical range for image intensities.">
<polygon fill="white" stroke="black" points="404,-370.5 404,-389.5 484,-389.5 484,-370.5 404,-370.5"/>
<text text-anchor="middle" x="444" y="-377.5" font-family="Helvetica,sans-Serif" font-size="10.00">ValueScaling</text>
</a>
</g>
</g>
<!-- Node11&#45;&gt;Node10 -->
<g id="edge10" class="edge">
<title>Node11&#45;&gt;Node10</title>
<path fill="none" stroke="midnightblue" d="M494.15,-380C540.16,-380 607.4,-380 645.76,-380"/>
<polygon fill="midnightblue" stroke="midnightblue" points="494.1,-376.5 484.1,-380 494.1,-383.5 494.1,-376.5"/>
</g>
<!-- Node12 -->
<g id="node12" class="node">
<title>Node12</title>
<g id="a_node12"><a xlink:href="classdrain_1_1UniTuple.html" target="_top" xlink:title=" ">
<polygon fill="white" stroke="black" points="163,-376.5 163,-395.5 289,-395.5 289,-376.5 163,-376.5"/>
<text text-anchor="middle" x="226" y="-383.5" font-family="Helvetica,sans-Serif" font-size="10.00">UniTuple&lt; double, 4 &gt;</text>
</a>
</g>
</g>
<!-- Node12&#45;&gt;Node11 -->
<g id="edge11" class="edge">
<title>Node12&#45;&gt;Node11</title>
<path fill="none" stroke="midnightblue" d="M299.36,-383.99C334.32,-383.02 374.9,-381.89 403.99,-381.08"/>
<polygon fill="midnightblue" stroke="midnightblue" points="299.09,-380.5 289.19,-384.27 299.28,-387.49 299.09,-380.5"/>
</g>
<!-- Node13 -->
<g id="node13" class="node">
<title>Node13</title>
<g id="a_node13"><a xlink:href="classdrain_1_1Range.html" target="_top" xlink:title=" ">
<polygon fill="white" stroke="black" points="174.5,-338.5 174.5,-357.5 277.5,-357.5 277.5,-338.5 174.5,-338.5"/>
<text text-anchor="middle" x="226" y="-345.5" font-family="Helvetica,sans-Serif" font-size="10.00">Range&lt; double &gt;</text>
</a>
</g>
</g>
<!-- Node13&#45;&gt;Node11 -->
<g id="edge12" class="edge">
<title>Node13&#45;&gt;Node11</title>
<path fill="none" stroke="#9a32cd" stroke-dasharray="5,2" d="M287.6,-355.97C311.71,-359.23 339.69,-363.15 365,-367 377.62,-368.92 391.37,-371.16 403.75,-373.24"/>
<polygon fill="#9a32cd" stroke="#9a32cd" points="287.9,-352.47 277.52,-354.61 286.96,-359.41 287.9,-352.47"/>
<text text-anchor="middle" x="336" y="-370" font-family="Helvetica,sans-Serif" font-size="10.00"> physRange</text>
</g>
<!-- Node14 -->
<g id="node14" class="node">
<title>Node14</title>
<g id="a_node14"><a xlink:href="classdrain_1_1UniTuple.html" target="_top" xlink:title=" ">
<polygon fill="white" stroke="black" points="0,-338.5 0,-357.5 126,-357.5 126,-338.5 0,-338.5"/>
<text text-anchor="middle" x="63" y="-345.5" font-family="Helvetica,sans-Serif" font-size="10.00">UniTuple&lt; double, 2 &gt;</text>
</a>
</g>
</g>
<!-- Node14&#45;&gt;Node13 -->
<g id="edge13" class="edge">
<title>Node14&#45;&gt;Node13</title>
<path fill="none" stroke="midnightblue" d="M136.44,-348C149.24,-348 162.33,-348 174.37,-348"/>
<polygon fill="midnightblue" stroke="midnightblue" points="136.25,-344.5 126.25,-348 136.25,-351.5 136.25,-344.5"/>
</g>
<!-- Node15 -->
<g id="node15" class="node">
<title>Node15</title>
<g id="a_node15"><a xlink:href="classdrain_1_1Caster.html" target="_top" xlink:title=" ">
<polygon fill="white" stroke="black" points="420,-323.5 420,-342.5 468,-342.5 468,-323.5 420,-323.5"/>
<text text-anchor="middle" x="444" y="-330.5" font-family="Helvetica,sans-Serif" font-size="10.00">Caster</text>
</a>
</g>
</g>
<!-- Node15&#45;&gt;Node10 -->
<g id="edge14" class="edge">
<title>Node15&#45;&gt;Node10</title>
<path fill="none" stroke="#9a32cd" stroke-dasharray="5,2" d="M478.22,-339.77C523.24,-348.95 602.9,-365.2 645.94,-373.97"/>
<polygon fill="#9a32cd" stroke="#9a32cd" points="478.87,-336.33 468.37,-337.77 477.47,-343.19 478.87,-336.33"/>
<text text-anchor="middle" x="546.5" y="-360" font-family="Helvetica,sans-Serif" font-size="10.00"> caster</text>
</g>
<!-- Node26 -->
<g id="node26" class="node">
<title>Node26</title>
<g id="a_node26"><a xlink:href="classdrain_1_1Castable.html" target="_top" xlink:title=" ">
<polygon fill="white" stroke="black" points="647,-315.5 647,-334.5 706,-334.5 706,-315.5 647,-315.5"/>
<text text-anchor="middle" x="676.5" y="-322.5" font-family="Helvetica,sans-Serif" font-size="10.00">Castable</text>
</a>
</g>
</g>
<!-- Node15&#45;&gt;Node26 -->
<g id="edge27" class="edge">
<title>Node15&#45;&gt;Node26</title>
<path fill="none" stroke="#9a32cd" stroke-dasharray="5,2" d="M478.17,-327.8C491.99,-325.88 508.23,-323.94 523,-323 566.07,-320.25 616.12,-321.81 646.8,-323.31"/>
<polygon fill="#9a32cd" stroke="#9a32cd" points="477.53,-324.36 468.13,-329.25 478.53,-331.28 477.53,-324.36"/>
<text text-anchor="middle" x="546.5" y="-326" font-family="Helvetica,sans-Serif" font-size="10.00"> caster</text>
</g>
<!-- Node16 -->
<g id="node16" class="node">
<title>Node16</title>
<g id="a_node16"><a xlink:href="classdrain_1_1image_1_1Geometry.html" target="_top" xlink:title=" ">
<polygon fill="white" stroke="black" points="644,-423.5 644,-442.5 709,-442.5 709,-423.5 644,-423.5"/>
<text text-anchor="middle" x="676.5" y="-430.5" font-family="Helvetica,sans-Serif" font-size="10.00">Geometry</text>
</a>
</g>
</g>
<!-- Node16&#45;&gt;Node9 -->
<g id="edge15" class="edge">
<title>Node16&#45;&gt;Node9</title>
<path fill="none" stroke="midnightblue" d="M718.97,-425.47C777.06,-414.93 881.58,-395.96 935.41,-386.19"/>
<polygon fill="midnightblue" stroke="midnightblue" points="718.24,-422.05 709.03,-427.28 719.49,-428.94 718.24,-422.05"/>
</g>
<!-- Node17 -->
<g id="node17" class="node">
<title>Node17</title>
<g id="a_node17"><a xlink:href="classdrain_1_1UniTuple.html" target="_top" xlink:title=" ">
<polygon fill="white" stroke="black" points="383,-484.5 383,-503.5 505,-503.5 505,-484.5 383,-484.5"/>
<text text-anchor="middle" x="444" y="-491.5" font-family="Helvetica,sans-Serif" font-size="10.00">UniTuple&lt; size_t, 4 &gt;</text>
</a>
</g>
</g>
<!-- Node17&#45;&gt;Node16 -->
<g id="edge16" class="edge">
<title>Node17&#45;&gt;Node16</title>
<path fill="none" stroke="midnightblue" d="M493.04,-481.91C516.3,-476.01 544.63,-468.73 570,-462 594.79,-455.42 622.77,-447.72 643.68,-441.9"/>
<polygon fill="midnightblue" stroke="midnightblue" points="491.9,-478.59 483.06,-484.44 493.62,-485.38 491.9,-478.59"/>
</g>
<!-- Node18 -->
<g id="node18" class="node">
<title>Node18</title>
<g id="a_node18"><a xlink:href="classdrain_1_1Frame2D.html" target="_top" xlink:title=" ">
<polygon fill="white" stroke="black" points="388,-408.5 388,-427.5 500,-427.5 500,-408.5 388,-408.5"/>
<text text-anchor="middle" x="444" y="-415.5" font-family="Helvetica,sans-Serif" font-size="10.00">Frame2D&lt; size_t &gt;</text>
</a>
</g>
</g>
<!-- Node18&#45;&gt;Node16 -->
<g id="edge17" class="edge">
<title>Node18&#45;&gt;Node16</title>
<path fill="none" stroke="#9a32cd" stroke-dasharray="5,2" d="M510.29,-419.2C529.54,-419.8 550.63,-420.68 570,-422 594.8,-423.69 622.79,-426.65 643.7,-429.08"/>
<polygon fill="#9a32cd" stroke="#9a32cd" points="510.21,-415.7 500.11,-418.91 510.01,-422.7 510.21,-415.7"/>
<text text-anchor="middle" x="546.5" y="-425" font-family="Helvetica,sans-Serif" font-size="10.00"> area</text>
</g>
<!-- Node19 -->
<g id="node19" class="node">
<title>Node19</title>
<g id="a_node19"><a xlink:href="classdrain_1_1UniTuple.html" target="_top" xlink:title=" ">
<polygon fill="white" stroke="black" points="165,-428.5 165,-447.5 287,-447.5 287,-428.5 165,-428.5"/>
<text text-anchor="middle" x="226" y="-435.5" font-family="Helvetica,sans-Serif" font-size="10.00">UniTuple&lt; size_t, 2 &gt;</text>
</a>
</g>
</g>
<!-- Node19&#45;&gt;Node18 -->
<g id="edge18" class="edge">
<title>Node19&#45;&gt;Node18</title>
<path fill="none" stroke="midnightblue" d="M297.37,-431.48C326.77,-428.76 360.42,-425.65 387.96,-423.1"/>
<polygon fill="midnightblue" stroke="midnightblue" points="296.8,-428.02 287.17,-432.43 297.45,-434.99 296.8,-428.02"/>
</g>
<!-- Node20 -->
<g id="node20" class="node">
<title>Node20</title>
<g id="a_node20"><a xlink:href="classdrain_1_1image_1_1ChannelGeometry.html" target="_top" xlink:title=" ">
<polygon fill="white" stroke="black" points="391.5,-446.5 391.5,-465.5 496.5,-465.5 496.5,-446.5 391.5,-446.5"/>
<text text-anchor="middle" x="444" y="-453.5" font-family="Helvetica,sans-Serif" font-size="10.00">ChannelGeometry</text>
</a>
</g>
</g>
<!-- Node19&#45;&gt;Node20 -->
<g id="edge20" class="edge">
<title>Node19&#45;&gt;Node20</title>
<path fill="none" stroke="midnightblue" d="M297.34,-443.86C327.92,-446.41 363.09,-449.34 391.22,-451.68"/>
<polygon fill="midnightblue" stroke="midnightblue" points="297.42,-440.36 287.17,-443.01 296.84,-447.33 297.42,-440.36"/>
</g>
<!-- Node20&#45;&gt;Node16 -->
<g id="edge19" class="edge">
<title>Node20&#45;&gt;Node16</title>
<path fill="none" stroke="#9a32cd" stroke-dasharray="5,2" d="M506.79,-449.83C550.98,-445.43 608.62,-439.67 643.81,-436.16"/>
<polygon fill="#9a32cd" stroke="#9a32cd" points="506.33,-446.36 496.73,-450.84 507.03,-453.33 506.33,-446.36"/>
<text text-anchor="middle" x="546.5" y="-450" font-family="Helvetica,sans-Serif" font-size="10.00"> channels</text>
</g>
<!-- Node21 -->
<g id="node21" class="node">
<title>Node21</title>
<g id="a_node21"><a xlink:href="classdrain_1_1image_1_1CoordinatePolicy.html" target="_top" xlink:title="Policies for coordinate underflows and overflows.">
<polygon fill="white" stroke="black" points="627,-209.5 627,-228.5 726,-228.5 726,-209.5 627,-209.5"/>
<text text-anchor="middle" x="676.5" y="-216.5" font-family="Helvetica,sans-Serif" font-size="10.00">CoordinatePolicy</text>
</a>
</g>
</g>
<!-- Node21&#45;&gt;Node9 -->
<g id="edge21" class="edge">
<title>Node21&#45;&gt;Node9</title>
<path fill="none" stroke="#9a32cd" stroke-dasharray="5,2" d="M716.97,-232C732.26,-237.52 749.72,-244.43 765,-252 840.81,-289.56 924.31,-347.54 956.16,-370.33"/>
<polygon fill="#9a32cd" stroke="#9a32cd" points="717.88,-228.61 707.28,-228.58 715.55,-235.21 717.88,-228.61"/>
<text text-anchor="middle" x="825.5" y="-313" font-family="Helvetica,sans-Serif" font-size="10.00"> coordinatePolicy</text>
</g>
<!-- Node48 -->
<g id="node48" class="node">
<title>Node48</title>
<g id="a_node48"><a xlink:href="classdrain_1_1image_1_1CoordinateHandler2D.html" target="_top" xlink:title=" ">
<polygon fill="white" stroke="black" points="1937,-132.5 1937,-151.5 2059,-151.5 2059,-132.5 1937,-132.5"/>
<text text-anchor="middle" x="1998" y="-139.5" font-family="Helvetica,sans-Serif" font-size="10.00">CoordinateHandler2D</text>
</a>
</g>
</g>
<!-- Node21&#45;&gt;Node48 -->
<g id="edge54" class="edge">
<title>Node21&#45;&gt;Node48</title>
<path fill="none" stroke="#9a32cd" stroke-dasharray="5,2" d="M736.27,-214.53C795.2,-210.43 888.59,-205 969.5,-205 969.5,-205 969.5,-205 1740,-205 1828.66,-205 1929.71,-169.19 1974.08,-151.57"/>
<polygon fill="#9a32cd" stroke="#9a32cd" points="735.76,-211.05 726.03,-215.25 736.25,-218.04 735.76,-211.05"/>
<text text-anchor="middle" x="1393.5" y="-208" font-family="Helvetica,sans-Serif" font-size="10.00"> policy</text>
</g>
<!-- Node22 -->
<g id="node22" class="node">
<title>Node22</title>
<g id="a_node22"><a xlink:href="classdrain_1_1UniTuple.html" target="_top" xlink:title=" ">
<polygon fill="white" stroke="black" points="385.5,-222 385.5,-252 502.5,-252 502.5,-222 385.5,-222"/>
<text text-anchor="start" x="393.5" y="-240" font-family="Helvetica,sans-Serif" font-size="10.00">UniTuple&lt; coord_pol</text>
<text text-anchor="middle" x="444" y="-229" font-family="Helvetica,sans-Serif" font-size="10.00">_t, 4 &gt;</text>
</a>
</g>
</g>
<!-- Node22&#45;&gt;Node21 -->
<g id="edge22" class="edge">
<title>Node22&#45;&gt;Node21</title>
<path fill="none" stroke="midnightblue" d="M512.67,-231.72C549.28,-228.86 593.66,-225.39 626.84,-222.8"/>
<polygon fill="midnightblue" stroke="midnightblue" points="512.27,-228.24 502.57,-232.5 512.81,-235.22 512.27,-228.24"/>
</g>
<!-- Node23 -->
<g id="node23" class="node">
<title>Node23</title>
<g id="a_node23"><a xlink:href="classdrain_1_1Dictionary2.html" target="_top" xlink:title="Two&#45;way mapping between strings and objects of template class T.">
<polygon fill="white" stroke="black" points="386.5,-183.5 386.5,-202.5 501.5,-202.5 501.5,-183.5 386.5,-183.5"/>
<text text-anchor="middle" x="444" y="-190.5" font-family="Helvetica,sans-Serif" font-size="10.00">Dictionary2&lt; K, V &gt;</text>
</a>
</g>
</g>
<!-- Node23&#45;&gt;Node21 -->
<g id="edge23" class="edge">
<title>Node23&#45;&gt;Node21</title>
<path fill="none" stroke="#9a32cd" stroke-dasharray="5,2" d="M511.82,-200.54C548.6,-204.69 593.41,-209.74 626.85,-213.51"/>
<polygon fill="#9a32cd" stroke="#9a32cd" points="512.01,-197.04 501.68,-199.39 511.23,-203.99 512.01,-197.04"/>
<text text-anchor="middle" x="546.5" y="-210" font-family="Helvetica,sans-Serif" font-size="10.00"> dict</text>
</g>
<!-- Node24 -->
<g id="node24" class="node">
<title>Node24</title>
<g id="a_node24"><a xlink:title=" ">
<polygon fill="white" stroke="#bfbfbf" points="174,-178 174,-208 278,-208 278,-178 174,-178"/>
<text text-anchor="start" x="182" y="-196" font-family="Helvetica,sans-Serif" font-size="10.00">list&lt; std::pair&lt; K,</text>
<text text-anchor="middle" x="226" y="-185" font-family="Helvetica,sans-Serif" font-size="10.00"> V &gt; &gt;</text>
</a>
</g>
</g>
<!-- Node24&#45;&gt;Node23 -->
<g id="edge24" class="edge">
<title>Node24&#45;&gt;Node23</title>
<path fill="none" stroke="midnightblue" d="M288.39,-193C319.23,-193 356.35,-193 386.48,-193"/>
<polygon fill="midnightblue" stroke="midnightblue" points="288.19,-189.5 278.19,-193 288.19,-196.5 288.19,-189.5"/>
</g>
<!-- Node25 -->
<g id="node25" class="node">
<title>Node25</title>
<g id="a_node25"><a xlink:href="classdrain_1_1CastableIterator.html" target="_top" xlink:title=" ">
<polygon fill="white" stroke="black" points="1073,-320.5 1073,-339.5 1168,-339.5 1168,-320.5 1073,-320.5"/>
<text text-anchor="middle" x="1120.5" y="-327.5" font-family="Helvetica,sans-Serif" font-size="10.00">CastableIterator</text>
</a>
</g>
</g>
<!-- Node25&#45;&gt;Node7 -->
<g id="edge25" class="edge">
<title>Node25&#45;&gt;Node7</title>
<path fill="none" stroke="#9a32cd" stroke-dasharray="5,2" d="M1178.64,-330C1258.79,-330 1402.43,-330 1470.81,-330"/>
<polygon fill="#9a32cd" stroke="#9a32cd" points="1178.24,-326.5 1168.24,-330 1178.24,-333.5 1178.24,-326.5"/>
<text text-anchor="middle" x="1264" y="-344" font-family="Helvetica,sans-Serif" font-size="10.00"> segmentEnd</text>
<text text-anchor="middle" x="1264" y="-333" font-family="Helvetica,sans-Serif" font-size="10.00">segmentBegin</text>
</g>
<!-- Node26&#45;&gt;Node25 -->
<g id="edge26" class="edge">
<title>Node26&#45;&gt;Node25</title>
<path fill="none" stroke="darkgreen" d="M716.46,-325.44C797.82,-326.36 985.47,-328.48 1072.99,-329.47"/>
<polygon fill="darkgreen" stroke="darkgreen" points="716.2,-321.94 706.16,-325.32 716.12,-328.94 716.2,-321.94"/>
</g>
<!-- Node27 -->
<g id="node27" class="node">
<title>Node27</title>
<g id="a_node27"><a xlink:href="classdrain_1_1FlexVariableMap.html" target="_top" xlink:title="A map of FlexVariable:s.">
<polygon fill="white" stroke="black" points="1214.5,-274.5 1214.5,-293.5 1313.5,-293.5 1313.5,-274.5 1214.5,-274.5"/>
<text text-anchor="middle" x="1264" y="-281.5" font-family="Helvetica,sans-Serif" font-size="10.00">FlexVariableMap</text>
</a>
</g>
</g>
<!-- Node27&#45;&gt;Node7 -->
<g id="edge28" class="edge">
<title>Node27&#45;&gt;Node7</title>
<path fill="none" stroke="#9a32cd" stroke-dasharray="5,2" d="M1323.74,-282.69C1354.83,-283.23 1393.41,-285.86 1427,-294 1450.57,-299.71 1475.87,-311.83 1492.03,-320.43"/>
<polygon fill="#9a32cd" stroke="#9a32cd" points="1323.54,-279.19 1313.51,-282.58 1323.47,-286.19 1323.54,-279.19"/>
<text text-anchor="middle" x="1393.5" y="-308" font-family="Helvetica,sans-Serif" font-size="10.00"> propertiesPtr</text>
<text text-anchor="middle" x="1393.5" y="-297" font-family="Helvetica,sans-Serif" font-size="10.00">properties</text>
</g>
<!-- Node28 -->
<g id="node28" class="node">
<title>Node28</title>
<g id="a_node28"><a xlink:href="classdrain_1_1SmartMap.html" target="_top" xlink:title=" ">
<polygon fill="white" stroke="black" points="895,-272.5 895,-291.5 1046,-291.5 1046,-272.5 895,-272.5"/>
<text text-anchor="middle" x="970.5" y="-279.5" font-family="Helvetica,sans-Serif" font-size="10.00">SmartMap&lt; FlexVariable &gt;</text>
</a>
</g>
</g>
<!-- Node28&#45;&gt;Node27 -->
<g id="edge29" class="edge">
<title>Node28&#45;&gt;Node27</title>
<path fill="none" stroke="midnightblue" d="M1056.27,-282.58C1107.56,-282.93 1171.13,-283.37 1214.13,-283.66"/>
<polygon fill="midnightblue" stroke="midnightblue" points="1056.21,-279.08 1046.19,-282.51 1056.17,-286.08 1056.21,-279.08"/>
</g>
<!-- Node29 -->
<g id="node29" class="node">
<title>Node29</title>
<g id="a_node29"><a xlink:title=" ">
<polygon fill="white" stroke="#bfbfbf" points="588,-261.5 588,-280.5 765,-280.5 765,-261.5 588,-261.5"/>
<text text-anchor="middle" x="676.5" y="-268.5" font-family="Helvetica,sans-Serif" font-size="10.00">map&lt; std::string, FlexVariable &gt;</text>
</a>
</g>
</g>
<!-- Node29&#45;&gt;Node28 -->
<g id="edge30" class="edge">
<title>Node29&#45;&gt;Node28</title>
<path fill="none" stroke="midnightblue" d="M775.42,-274.69C814.38,-276.16 858.48,-277.82 894.78,-279.19"/>
<polygon fill="midnightblue" stroke="midnightblue" points="775.23,-271.18 765.11,-274.3 774.97,-278.17 775.23,-271.18"/>
</g>
<!-- Node30 -->
<g id="node30" class="node">
<title>Node30</title>
<g id="a_node30"><a xlink:href="classdrain_1_1Range.html" target="_top" xlink:title=" ">
<polygon fill="white" stroke="black" points="1697.5,-132.5 1697.5,-151.5 1780.5,-151.5 1780.5,-132.5 1697.5,-132.5"/>
<text text-anchor="middle" x="1739" y="-139.5" font-family="Helvetica,sans-Serif" font-size="10.00">Range&lt; int &gt;</text>
</a>
</g>
</g>
<!-- Node30&#45;&gt;Node2 -->
<g id="edge31" class="edge">
<title>Node30&#45;&gt;Node2</title>
<path fill="none" stroke="#9a32cd" stroke-dasharray="5,2" d="M1776.58,-154.71C1791.42,-159.24 1808.83,-163.76 1825,-166 2072.86,-200.32 2137.88,-173.14 2388,-166 2393.84,-165.83 2399.86,-165.61 2405.93,-165.36"/>
<polygon fill="#9a32cd" stroke="#9a32cd" points="1777.36,-151.29 1766.77,-151.61 1775.25,-157.96 1777.36,-151.29"/>
<text text-anchor="middle" x="2095.5" y="-197" font-family="Helvetica,sans-Serif" font-size="10.00"> jRange</text>
<text text-anchor="middle" x="2095.5" y="-186" font-family="Helvetica,sans-Serif" font-size="10.00">iRange</text>
</g>
<!-- Node30&#45;&gt;Node48 -->
<g id="edge52" class="edge">
<title>Node30&#45;&gt;Node48</title>
<path fill="none" stroke="#9a32cd" stroke-dasharray="5,2" d="M1790.73,-142C1832.72,-142 1892.46,-142 1936.86,-142"/>
<polygon fill="#9a32cd" stroke="#9a32cd" points="1790.72,-138.5 1780.72,-142 1790.72,-145.5 1790.72,-138.5"/>
<text text-anchor="middle" x="1872" y="-156" font-family="Helvetica,sans-Serif" font-size="10.00"> yRange</text>
<text text-anchor="middle" x="1872" y="-145" font-family="Helvetica,sans-Serif" font-size="10.00">xRange</text>
</g>
<!-- Node31 -->
<g id="node31" class="node">
<title>Node31</title>
<g id="a_node31"><a xlink:href="classdrain_1_1UniTuple.html" target="_top" xlink:title=" ">
<polygon fill="white" stroke="black" points="1457,-94.5 1457,-113.5 1563,-113.5 1563,-94.5 1457,-94.5"/>
<text text-anchor="middle" x="1510" y="-101.5" font-family="Helvetica,sans-Serif" font-size="10.00">UniTuple&lt; int, 2 &gt;</text>
</a>
</g>
</g>
<!-- Node31&#45;&gt;Node30 -->
<g id="edge32" class="edge">
<title>Node31&#45;&gt;Node30</title>
<path fill="none" stroke="midnightblue" d="M1572.92,-114.61C1579.7,-115.76 1586.49,-116.91 1593,-118 1628.23,-123.92 1668.29,-130.55 1697.36,-135.33"/>
<polygon fill="midnightblue" stroke="midnightblue" points="1573.49,-111.15 1563.05,-112.93 1572.32,-118.05 1573.49,-111.15"/>
</g>
<!-- Node37 -->
<g id="node37" class="node">
<title>Node37</title>
<g id="a_node37"><a xlink:href="classdrain_1_1Frame2D.html" target="_top" xlink:title=" ">
<polygon fill="white" stroke="black" points="1691,-56.5 1691,-75.5 1787,-75.5 1787,-56.5 1691,-56.5"/>
<text text-anchor="middle" x="1739" y="-63.5" font-family="Helvetica,sans-Serif" font-size="10.00">Frame2D&lt; int &gt;</text>
</a>
</g>
</g>
<!-- Node31&#45;&gt;Node37 -->
<g id="edge39" class="edge">
<title>Node31&#45;&gt;Node37</title>
<path fill="none" stroke="midnightblue" d="M1572.92,-93.39C1579.7,-92.24 1586.49,-91.09 1593,-90 1625.71,-84.5 1662.59,-78.4 1690.97,-73.72"/>
<polygon fill="midnightblue" stroke="midnightblue" points="1572.32,-89.95 1563.05,-95.07 1573.49,-96.85 1572.32,-89.95"/>
</g>
<!-- Node47 -->
<g id="node47" class="node">
<title>Node47</title>
<g id="a_node47"><a xlink:href="structdrain_1_1Point2D.html" target="_top" xlink:title=" ">
<polygon fill="white" stroke="black" points="2178.5,-85.5 2178.5,-104.5 2268.5,-104.5 2268.5,-85.5 2178.5,-85.5"/>
<text text-anchor="middle" x="2223.5" y="-92.5" font-family="Helvetica,sans-Serif" font-size="10.00">Point2D&lt; int &gt;</text>
</a>
</g>
</g>
<!-- Node31&#45;&gt;Node47 -->
<g id="edge50" class="edge">
<title>Node31&#45;&gt;Node47</title>
<path fill="none" stroke="midnightblue" d="M1573.25,-103.21C1714.51,-101.43 2056.5,-97.1 2178.42,-95.56"/>
<polygon fill="midnightblue" stroke="midnightblue" points="1572.98,-99.72 1563.03,-103.34 1573.07,-106.71 1572.98,-99.72"/>
</g>
<!-- Node32 -->
<g id="node32" class="node">
<title>Node32</title>
<g id="a_node32"><a xlink:href="classdrain_1_1image_1_1GaussianWindowConf.html" target="_top" xlink:title="Extends WindowConfig with radius.">
<polygon fill="white" stroke="black" points="2162,-42.5 2162,-61.5 2285,-61.5 2285,-42.5 2162,-42.5"/>
<text text-anchor="middle" x="2223.5" y="-49.5" font-family="Helvetica,sans-Serif" font-size="10.00">GaussianWindowConf</text>
</a>
</g>
</g>
<!-- Node32&#45;&gt;Node2 -->
<g id="edge33" class="edge">
<title>Node32&#45;&gt;Node2</title>
<path fill="none" stroke="#9a32cd" stroke-dasharray="5,2" d="M2294.94,-63.23C2324.44,-69.34 2358.64,-78.32 2388,-91 2420.64,-105.1 2454.28,-129.22 2474.42,-144.88"/>
<polygon fill="#9a32cd" stroke="#9a32cd" points="2295.62,-59.8 2285.13,-61.27 2294.25,-66.66 2295.62,-59.8"/>
<text text-anchor="middle" x="2360.5" y="-94" font-family="Helvetica,sans-Serif" font-size="10.00"> conf</text>
</g>
<!-- Node33 -->
<g id="node33" class="node">
<title>Node33</title>
<g id="a_node33"><a xlink:href="classdrain_1_1image_1_1WindowConfig.html" target="_top" xlink:title="Base class for configurations applied in image processing windows, e.g. for operators of type WindowO...">
<polygon fill="white" stroke="black" points="1954.5,-34.5 1954.5,-53.5 2041.5,-53.5 2041.5,-34.5 1954.5,-34.5"/>
<text text-anchor="middle" x="1998" y="-41.5" font-family="Helvetica,sans-Serif" font-size="10.00">WindowConfig</text>
</a>
</g>
</g>
<!-- Node33&#45;&gt;Node32 -->
<g id="edge34" class="edge">
<title>Node33&#45;&gt;Node32</title>
<path fill="none" stroke="midnightblue" d="M2051.93,-45.89C2084.95,-47.08 2127.57,-48.6 2161.94,-49.83"/>
<polygon fill="midnightblue" stroke="midnightblue" points="2051.68,-42.38 2041.56,-45.52 2051.43,-49.38 2051.68,-42.38"/>
</g>
<!-- Node34 -->
<g id="node34" class="node">
<title>Node34</title>
<g id="a_node34"><a xlink:href="classdrain_1_1VariableMap.html" target="_top" xlink:title="A map of Variables.">
<polygon fill="white" stroke="black" points="1700,-0.5 1700,-19.5 1778,-19.5 1778,-0.5 1700,-0.5"/>
<text text-anchor="middle" x="1739" y="-7.5" font-family="Helvetica,sans-Serif" font-size="10.00">VariableMap</text>
</a>
</g>
</g>
<!-- Node34&#45;&gt;Node33 -->
<g id="edge35" class="edge">
<title>Node34&#45;&gt;Node33</title>
<path fill="none" stroke="#9a32cd" stroke-dasharray="5,2" d="M1788.51,-12.52C1824.65,-14.84 1875.11,-19.01 1919,-26 1932.59,-28.16 1947.33,-31.35 1960.3,-34.44"/>
<polygon fill="#9a32cd" stroke="#9a32cd" points="1788.45,-9.01 1778.25,-11.89 1788.01,-16 1788.45,-9.01"/>
<text text-anchor="middle" x="1872" y="-29" font-family="Helvetica,sans-Serif" font-size="10.00"> functorParameters</text>
</g>
<!-- Node35 -->
<g id="node35" class="node">
<title>Node35</title>
<g id="a_node35"><a xlink:href="classdrain_1_1SmartMap.html" target="_top" xlink:title=" ">
<polygon fill="white" stroke="black" points="1445,-0.5 1445,-19.5 1575,-19.5 1575,-0.5 1445,-0.5"/>
<text text-anchor="middle" x="1510" y="-7.5" font-family="Helvetica,sans-Serif" font-size="10.00">SmartMap&lt; Variable &gt;</text>
</a>
</g>
</g>
<!-- Node35&#45;&gt;Node34 -->
<g id="edge36" class="edge">
<title>Node35&#45;&gt;Node34</title>
<path fill="none" stroke="midnightblue" d="M1585.24,-10C1623.57,-10 1668.71,-10 1699.94,-10"/>
<polygon fill="midnightblue" stroke="midnightblue" points="1585.14,-6.5 1575.14,-10 1585.14,-13.5 1585.14,-6.5"/>
</g>
<!-- Node36 -->
<g id="node36" class="node">
<title>Node36</title>
<g id="a_node36"><a xlink:title=" ">
<polygon fill="white" stroke="#bfbfbf" points="1186,-0.5 1186,-19.5 1342,-19.5 1342,-0.5 1186,-0.5"/>
<text text-anchor="middle" x="1264" y="-7.5" font-family="Helvetica,sans-Serif" font-size="10.00">map&lt; std::string, Variable &gt;</text>
</a>
</g>
</g>
<!-- Node36&#45;&gt;Node35 -->
<g id="edge37" class="edge">
<title>Node36&#45;&gt;Node35</title>
<path fill="none" stroke="midnightblue" d="M1352.43,-10C1382.98,-10 1416.69,-10 1444.97,-10"/>
<polygon fill="midnightblue" stroke="midnightblue" points="1352.2,-6.5 1342.2,-10 1352.2,-13.5 1352.2,-6.5"/>
</g>
<!-- Node37&#45;&gt;Node33 -->
<g id="edge38" class="edge">
<title>Node37&#45;&gt;Node33</title>
<path fill="none" stroke="#9a32cd" stroke-dasharray="5,2" d="M1780.89,-53.82C1794.76,-50.25 1810.43,-46.82 1825,-45 1868.86,-39.53 1919.49,-40.05 1954.41,-41.46"/>
<polygon fill="#9a32cd" stroke="#9a32cd" points="1779.91,-50.46 1771.15,-56.43 1781.72,-57.22 1779.91,-50.46"/>
<text text-anchor="middle" x="1872" y="-48" font-family="Helvetica,sans-Serif" font-size="10.00"> frame</text>
</g>
<!-- Node37&#45;&gt;Node48 -->
<g id="edge53" class="edge">
<title>Node37&#45;&gt;Node48</title>
<path fill="none" stroke="#9a32cd" stroke-dasharray="5,2" d="M1782.04,-78.43C1833.16,-93.55 1918.34,-118.74 1964.64,-132.43"/>
<polygon fill="#9a32cd" stroke="#9a32cd" points="1782.87,-75.03 1772.29,-75.55 1780.89,-81.74 1782.87,-75.03"/>
<text text-anchor="middle" x="1872" y="-121" font-family="Helvetica,sans-Serif" font-size="10.00"> area</text>
</g>
<!-- Node38 -->
<g id="node38" class="node">
<title>Node38</title>
<g id="a_node38"><a xlink:href="structdrain_1_1UnaryFunctor.html" target="_top" xlink:title=" ">
<polygon fill="white" stroke="black" points="2182.5,-208.5 2182.5,-227.5 2264.5,-227.5 2264.5,-208.5 2182.5,-208.5"/>
<text text-anchor="middle" x="2223.5" y="-215.5" font-family="Helvetica,sans-Serif" font-size="10.00">UnaryFunctor</text>
</a>
</g>
</g>
<!-- Node38&#45;&gt;Node2 -->
<g id="edge40" class="edge">
<title>Node38&#45;&gt;Node2</title>
<path fill="none" stroke="#9a32cd" stroke-dasharray="5,2" d="M2274.97,-212.31C2307.48,-208.14 2350.52,-201.7 2388,-193 2408.75,-188.18 2431.35,-181.3 2450.24,-175.07"/>
<polygon fill="#9a32cd" stroke="#9a32cd" points="2274.29,-208.86 2264.81,-213.58 2275.16,-215.81 2274.29,-208.86"/>
<text text-anchor="middle" x="2360.5" y="-207" font-family="Helvetica,sans-Serif" font-size="10.00"> myFunctor</text>
</g>
<!-- Node39 -->
<g id="node39" class="node">
<title>Node39</title>
<g id="a_node39"><a xlink:href="classdrain_1_1Functor.html" target="_top" xlink:title="Base class for sequential computations. Optional scaling utilities.">
<polygon fill="white" stroke="black" points="1971.5,-208.5 1971.5,-227.5 2024.5,-227.5 2024.5,-208.5 1971.5,-208.5"/>
<text text-anchor="middle" x="1998" y="-215.5" font-family="Helvetica,sans-Serif" font-size="10.00">Functor</text>
</a>
</g>
</g>
<!-- Node39&#45;&gt;Node38 -->
<g id="edge41" class="edge">
<title>Node39&#45;&gt;Node38</title>
<path fill="none" stroke="midnightblue" d="M2034.82,-218C2075.15,-218 2140.52,-218 2182.5,-218"/>
<polygon fill="midnightblue" stroke="midnightblue" points="2034.64,-214.5 2024.64,-218 2034.64,-221.5 2034.64,-214.5"/>
</g>
<!-- Node40 -->
<g id="node40" class="node">
<title>Node40</title>
<g id="a_node40"><a xlink:href="classdrain_1_1BeanLike.html" target="_top" xlink:title="Something which has a name, a description and possibly some parameters of varying type.">
<polygon fill="white" stroke="black" points="1708.5,-233.5 1708.5,-252.5 1769.5,-252.5 1769.5,-233.5 1708.5,-233.5"/>
<text text-anchor="middle" x="1739" y="-240.5" font-family="Helvetica,sans-Serif" font-size="10.00">BeanLike</text>
</a>
</g>
</g>
<!-- Node40&#45;&gt;Node39 -->
<g id="edge42" class="edge">
<title>Node40&#45;&gt;Node39</title>
<path fill="none" stroke="midnightblue" d="M1779.85,-239.12C1833.25,-233.93 1926.47,-224.86 1971.38,-220.49"/>
<polygon fill="midnightblue" stroke="midnightblue" points="1779.35,-235.66 1769.73,-240.11 1780.02,-242.62 1779.35,-235.66"/>
</g>
<!-- Node41 -->
<g id="node41" class="node">
<title>Node41</title>
<g id="a_node41"><a xlink:href="classdrain_1_1ReferenceMap.html" target="_top" xlink:title=" ">
<polygon fill="white" stroke="black" points="1466.5,-233.5 1466.5,-252.5 1553.5,-252.5 1553.5,-233.5 1466.5,-233.5"/>
<text text-anchor="middle" x="1510" y="-240.5" font-family="Helvetica,sans-Serif" font-size="10.00">ReferenceMap</text>
</a>
</g>
</g>
<!-- Node41&#45;&gt;Node40 -->
<g id="edge43" class="edge">
<title>Node41&#45;&gt;Node40</title>
<path fill="none" stroke="#9a32cd" stroke-dasharray="5,2" d="M1563.87,-243C1608.88,-243 1671.91,-243 1708.5,-243"/>
<polygon fill="#9a32cd" stroke="#9a32cd" points="1563.7,-239.5 1553.7,-243 1563.7,-246.5 1563.7,-239.5"/>
<text text-anchor="middle" x="1623" y="-246" font-family="Helvetica,sans-Serif" font-size="10.00"> parameters</text>
</g>
<!-- Node42 -->
<g id="node42" class="node">
<title>Node42</title>
<g id="a_node42"><a xlink:href="classdrain_1_1SmartMap.html" target="_top" xlink:title=" ">
<polygon fill="white" stroke="black" points="1192.5,-233.5 1192.5,-252.5 1335.5,-252.5 1335.5,-233.5 1192.5,-233.5"/>
<text text-anchor="middle" x="1264" y="-240.5" font-family="Helvetica,sans-Serif" font-size="10.00">SmartMap&lt; Referencer &gt;</text>
</a>
</g>
</g>
<!-- Node42&#45;&gt;Node41 -->
<g id="edge44" class="edge">
<title>Node42&#45;&gt;Node41</title>
<path fill="none" stroke="midnightblue" d="M1345.64,-243C1385.87,-243 1432.9,-243 1466.14,-243"/>
<polygon fill="midnightblue" stroke="midnightblue" points="1345.57,-239.5 1335.57,-243 1345.57,-246.5 1345.57,-239.5"/>
</g>
<!-- Node43 -->
<g id="node43" class="node">
<title>Node43</title>
<g id="a_node43"><a xlink:title=" ">
<polygon fill="white" stroke="#bfbfbf" points="886,-233.5 886,-252.5 1055,-252.5 1055,-233.5 886,-233.5"/>
<text text-anchor="middle" x="970.5" y="-240.5" font-family="Helvetica,sans-Serif" font-size="10.00">map&lt; std::string, Referencer &gt;</text>
</a>
</g>
</g>
<!-- Node43&#45;&gt;Node42 -->
<g id="edge45" class="edge">
<title>Node43&#45;&gt;Node42</title>
<path fill="none" stroke="midnightblue" d="M1065.1,-243C1106.37,-243 1154.06,-243 1192.28,-243"/>
<polygon fill="midnightblue" stroke="midnightblue" points="1065.03,-239.5 1055.03,-243 1065.03,-246.5 1065.03,-239.5"/>
</g>
<!-- Node44 -->
<g id="node44" class="node">
<title>Node44</title>
<g id="a_node44"><a xlink:href="classdrain_1_1UniCloner.html" target="_top" xlink:title=" ">
<polygon fill="white" stroke="black" points="2132,-246.5 2132,-265.5 2315,-265.5 2315,-246.5 2132,-246.5"/>
<text text-anchor="middle" x="2223.5" y="-253.5" font-family="Helvetica,sans-Serif" font-size="10.00">UniCloner&lt; drain::UnaryFunctor &gt;</text>
</a>
</g>
</g>
<!-- Node44&#45;&gt;Node2 -->
<g id="edge46" class="edge">
<title>Node44&#45;&gt;Node2</title>
<path fill="none" stroke="#9a32cd" stroke-dasharray="5,2" d="M2281.58,-244.33C2292.68,-241.97 2304.21,-239.46 2315,-237 2347.58,-229.57 2356.93,-231.3 2388,-219 2417.75,-207.23 2449.44,-188.45 2470.13,-175.25"/>
<polygon fill="#9a32cd" stroke="#9a32cd" points="2280.6,-240.96 2271.54,-246.45 2282.05,-247.81 2280.6,-240.96"/>
<text text-anchor="middle" x="2360.5" y="-237" font-family="Helvetica,sans-Serif" font-size="10.00"> unicloner</text>
</g>
<!-- Node45 -->
<g id="node45" class="node">
<title>Node45</title>
<g id="a_node45"><a xlink:href="classdrain_1_1Bank.html" target="_top" xlink:title=" ">
<polygon fill="white" stroke="black" points="1956.5,-246.5 1956.5,-265.5 2039.5,-265.5 2039.5,-246.5 1956.5,-246.5"/>
<text text-anchor="middle" x="1998" y="-253.5" font-family="Helvetica,sans-Serif" font-size="10.00">Bank&lt; T, K &gt;</text>
</a>
</g>
</g>
<!-- Node45&#45;&gt;Node44 -->
<g id="edge47" class="edge">
<title>Node45&#45;&gt;Node44</title>
<path fill="none" stroke="#9a32cd" stroke-dasharray="5,2" d="M2049.74,-256C2073.94,-256 2103.64,-256 2131.54,-256"/>
<polygon fill="#9a32cd" stroke="#9a32cd" points="2049.73,-252.5 2039.73,-256 2049.73,-259.5 2049.73,-252.5"/>
<text text-anchor="middle" x="2095.5" y="-259" font-family="Helvetica,sans-Serif" font-size="10.00"> bank</text>
</g>
<!-- Node46 -->
<g id="node46" class="node">
<title>Node46</title>
<g id="a_node46"><a xlink:title=" ">
<polygon fill="white" stroke="#bfbfbf" points="1671,-272 1671,-302 1807,-302 1807,-272 1671,-272"/>
<text text-anchor="start" x="1679" y="-290" font-family="Helvetica,sans-Serif" font-size="10.00">map&lt; std::string, Cloner</text>
<text text-anchor="middle" x="1739" y="-279" font-family="Helvetica,sans-Serif" font-size="10.00">Base&lt; T &gt; * &gt;</text>
</a>
</g>
</g>
<!-- Node46&#45;&gt;Node45 -->
<g id="edge48" class="edge">
<title>Node46&#45;&gt;Node45</title>
<path fill="none" stroke="darkgreen" d="M1817.37,-277.67C1863.06,-272.16 1919.06,-265.4 1956.27,-260.91"/>
<polygon fill="darkgreen" stroke="darkgreen" points="1816.7,-274.22 1807.19,-278.9 1817.54,-281.17 1816.7,-274.22"/>
</g>
<!-- Node47&#45;&gt;Node1 -->
<g id="edge55" class="edge">
<title>Node47&#45;&gt;Node1</title>
<path fill="none" stroke="#9a32cd" stroke-dasharray="5,2" d="M2278.8,-95.93C2363.16,-97.39 2525.68,-100.18 2618.99,-101.79"/>
<polygon fill="#9a32cd" stroke="#9a32cd" points="2278.72,-92.43 2268.67,-95.76 2278.6,-99.43 2278.72,-92.43"/>
<text text-anchor="middle" x="2494" y="-105" font-family="Helvetica,sans-Serif" font-size="10.00"> locationTmp</text>
</g>
<!-- Node47&#45;&gt;Node2 -->
<g id="edge49" class="edge">
<title>Node47&#45;&gt;Node2</title>
<path fill="none" stroke="#9a32cd" stroke-dasharray="5,2" d="M2278.94,-98.31C2311.08,-101.17 2352.33,-106.43 2388,-116 2414.15,-123.02 2442.38,-135.13 2462.98,-144.87"/>
<polygon fill="#9a32cd" stroke="#9a32cd" points="2279.1,-94.81 2268.84,-97.46 2278.52,-101.78 2279.1,-94.81"/>
<text text-anchor="middle" x="2360.5" y="-119" font-family="Helvetica,sans-Serif" font-size="10.00"> location</text>
</g>
<!-- Node48&#45;&gt;Node2 -->
<g id="edge51" class="edge">
<title>Node48&#45;&gt;Node2</title>
<path fill="none" stroke="#9a32cd" stroke-dasharray="5,2" d="M2069.3,-144.56C2157.88,-147.79 2310.1,-153.34 2405.95,-156.83"/>
<polygon fill="#9a32cd" stroke="#9a32cd" points="2069.2,-141.06 2059.08,-144.19 2068.95,-148.05 2069.2,-141.06"/>
<text text-anchor="middle" x="2223.5" y="-157" font-family="Helvetica,sans-Serif" font-size="10.00"> coordinateHandler</text>
</g>
</g>
</svg>
