<?xml version="1.0" encoding="UTF-8" standalone="no"?>
<!DOCTYPE svg PUBLIC "-//W3C//DTD SVG 1.1//EN"
 "http://www.w3.org/Graphics/SVG/1.1/DTD/svg11.dtd">
<!-- Generated by graphviz version 2.43.0 (0)
 -->
<!-- Title: SmartContext Pages: 1 -->
<svg width="294pt" height="334pt"
 viewBox="0.00 0.00 294.00 334.00" xmlns="http://www.w3.org/2000/svg" xmlns:xlink="http://www.w3.org/1999/xlink">
<g id="graph0" class="graph" transform="scale(1 1) rotate(0) translate(4 330)">
<title>SmartContext</title>
<polygon fill="white" stroke="transparent" points="-4,4 -4,-330 290,-330 290,4 -4,4"/>
<!-- Node1 -->
<g id="node1" class="node">
<title>Node1</title>
<g id="a_node1"><a xlink:title=" ">
<polygon fill="#bfbfbf" stroke="black" points="154,-0.5 154,-19.5 238,-19.5 238,-0.5 154,-0.5"/>
<text text-anchor="middle" x="196" y="-7.5" font-family="Helvetica,sans-Serif" font-size="10.00">SmartContext</text>
</a>
</g>
</g>
<!-- Node2 -->
<g id="node2" class="node">
<title>Node2</title>
<g id="a_node2"><a xlink:href="classdrain_1_1Context.html" target="_top" xlink:title=" ">
<polygon fill="white" stroke="black" points="128.5,-57.5 128.5,-76.5 183.5,-76.5 183.5,-57.5 128.5,-57.5"/>
<text text-anchor="middle" x="156" y="-64.5" font-family="Helvetica,sans-Serif" font-size="10.00">Context</text>
</a>
</g>
</g>
<!-- Node2&#45;&gt;Node1 -->
<g id="edge1" class="edge">
<title>Node2&#45;&gt;Node1</title>
<path fill="none" stroke="midnightblue" d="M168.19,-49.23C175.28,-39.49 183.91,-27.62 189.66,-19.71"/>
<polygon fill="midnightblue" stroke="midnightblue" points="165.3,-47.26 162.25,-57.41 170.96,-51.38 165.3,-47.26"/>
</g>
<!-- Node3 -->
<g id="node3" class="node">
<title>Node3</title>
<g id="a_node3"><a xlink:href="classdrain_1_1VariableMap.html" target="_top" xlink:title="A map of Variables.">
<polygon fill="white" stroke="black" points="39,-124.5 39,-143.5 117,-143.5 117,-124.5 39,-124.5"/>
<text text-anchor="middle" x="78" y="-131.5" font-family="Helvetica,sans-Serif" font-size="10.00">VariableMap</text>
</a>
</g>
</g>
<!-- Node3&#45;&gt;Node2 -->
<g id="edge2" class="edge">
<title>Node3&#45;&gt;Node2</title>
<path fill="none" stroke="#9a32cd" stroke-dasharray="5,2" d="M84.01,-115.04C87.03,-108.09 91.3,-100.51 97,-95 105.75,-86.55 117.62,-80.42 128.42,-76.16"/>
<polygon fill="#9a32cd" stroke="#9a32cd" points="80.71,-113.84 80.43,-124.44 87.26,-116.33 80.71,-113.84"/>
<text text-anchor="middle" x="124.5" y="-98" font-family="Helvetica,sans-Serif" font-size="10.00"> statusMap</text>
</g>
<!-- Node4 -->
<g id="node4" class="node">
<title>Node4</title>
<g id="a_node4"><a xlink:href="classdrain_1_1SmartMap.html" target="_top" xlink:title=" ">
<polygon fill="white" stroke="black" points="13,-187 13,-206 143,-206 143,-187 13,-187"/>
<text text-anchor="middle" x="78" y="-194" font-family="Helvetica,sans-Serif" font-size="10.00">SmartMap&lt; Variable &gt;</text>
</a>
</g>
</g>
<!-- Node4&#45;&gt;Node3 -->
<g id="edge3" class="edge">
<title>Node4&#45;&gt;Node3</title>
<path fill="none" stroke="midnightblue" d="M78,-176.5C78,-165.5 78,-152.18 78,-143.65"/>
<polygon fill="midnightblue" stroke="midnightblue" points="74.5,-176.83 78,-186.83 81.5,-176.83 74.5,-176.83"/>
</g>
<!-- Node5 -->
<g id="node5" class="node">
<title>Node5</title>
<g id="a_node5"><a xlink:title=" ">
<polygon fill="white" stroke="#bfbfbf" points="0,-249.5 0,-268.5 156,-268.5 156,-249.5 0,-249.5"/>
<text text-anchor="middle" x="78" y="-256.5" font-family="Helvetica,sans-Serif" font-size="10.00">map&lt; std::string, Variable &gt;</text>
</a>
</g>
</g>
<!-- Node5&#45;&gt;Node4 -->
<g id="edge4" class="edge">
<title>Node5&#45;&gt;Node4</title>
<path fill="none" stroke="midnightblue" d="M78,-239C78,-228 78,-214.68 78,-206.15"/>
<polygon fill="midnightblue" stroke="midnightblue" points="74.5,-239.33 78,-249.33 81.5,-239.33 74.5,-239.33"/>
</g>
<!-- Node6 -->
<g id="node6" class="node">
<title>Node6</title>
<g id="a_node6"><a xlink:href="classdrain_1_1Log.html" target="_top" xlink:title="Handler for notifications sent by a Logger.">
<polygon fill="white" stroke="black" points="139,-124.5 139,-143.5 173,-143.5 173,-124.5 139,-124.5"/>
<text text-anchor="middle" x="156" y="-131.5" font-family="Helvetica,sans-Serif" font-size="10.00">Log</text>
</a>
</g>
</g>
<!-- Node6&#45;&gt;Node2 -->
<g id="edge5" class="edge">
<title>Node6&#45;&gt;Node2</title>
<path fill="none" stroke="#9a32cd" stroke-dasharray="5,2" d="M156,-114.04C156,-101.67 156,-86.12 156,-76.63"/>
<polygon fill="#9a32cd" stroke="#9a32cd" points="152.5,-114.23 156,-124.23 159.5,-114.23 152.5,-114.23"/>
<text text-anchor="middle" x="165.5" y="-98" font-family="Helvetica,sans-Serif" font-size="10.00"> log</text>
</g>
<!-- Node7 -->
<g id="node7" class="node">
<title>Node7</title>
<g id="a_node7"><a xlink:href="classdrain_1_1StatusFlags.html" target="_top" xlink:title=" ">
<polygon fill="white" stroke="black" points="191,-124.5 191,-143.5 265,-143.5 265,-124.5 191,-124.5"/>
<text text-anchor="middle" x="228" y="-131.5" font-family="Helvetica,sans-Serif" font-size="10.00">StatusFlags</text>
</a>
</g>
</g>
<!-- Node7&#45;&gt;Node2 -->
<g id="edge6" class="edge">
<title>Node7&#45;&gt;Node2</title>
<path fill="none" stroke="#9a32cd" stroke-dasharray="5,2" d="M210.67,-117.36C196.52,-104.58 177.04,-86.99 165.56,-76.63"/>
<polygon fill="#9a32cd" stroke="#9a32cd" points="208.52,-120.13 218.29,-124.23 213.21,-114.93 208.52,-120.13"/>
<text text-anchor="middle" x="227" y="-98" font-family="Helvetica,sans-Serif" font-size="10.00"> statusFlags</text>
</g>
<!-- Node8 -->
<g id="node8" class="node">
<title>Node8</title>
<g id="a_node8"><a xlink:href="classdrain_1_1GlobalFlags.html" target="_top" xlink:title=" ">
<polygon fill="white" stroke="black" points="170,-181.5 170,-211.5 286,-211.5 286,-181.5 170,-181.5"/>
<text text-anchor="start" x="178" y="-199.5" font-family="Helvetica,sans-Serif" font-size="10.00">GlobalFlags&lt; status</text>
<text text-anchor="middle" x="228" y="-188.5" font-family="Helvetica,sans-Serif" font-size="10.00">_flag_id &gt;</text>
</a>
</g>
</g>
<!-- Node8&#45;&gt;Node7 -->
<g id="edge7" class="edge">
<title>Node8&#45;&gt;Node7</title>
<path fill="none" stroke="midnightblue" d="M228,-171.35C228,-161.51 228,-150.78 228,-143.54"/>
<polygon fill="midnightblue" stroke="midnightblue" points="224.5,-171.47 228,-181.47 231.5,-171.47 224.5,-171.47"/>
</g>
<!-- Node9 -->
<g id="node9" class="node">
<title>Node9</title>
<g id="a_node9"><a xlink:href="classdrain_1_1Flagger.html" target="_top" xlink:title="Bit vector accessible also with integer values associated with strings.">
<polygon fill="white" stroke="black" points="201.5,-249.5 201.5,-268.5 254.5,-268.5 254.5,-249.5 201.5,-249.5"/>
<text text-anchor="middle" x="228" y="-256.5" font-family="Helvetica,sans-Serif" font-size="10.00">Flagger</text>
</a>
</g>
</g>
<!-- Node9&#45;&gt;Node8 -->
<g id="edge8" class="edge">
<title>Node9&#45;&gt;Node8</title>
<path fill="none" stroke="midnightblue" d="M228,-239.22C228,-230.36 228,-219.96 228,-211.76"/>
<polygon fill="midnightblue" stroke="midnightblue" points="224.5,-239.33 228,-249.33 231.5,-239.33 224.5,-239.33"/>
</g>
<!-- Node10 -->
<g id="node10" class="node">
<title>Node10</title>
<g id="a_node10"><a xlink:href="classdrain_1_1FlagResolver.html" target="_top" xlink:title="Referencing a dictionary of binary values: {&quot;A&quot;,1: &quot;B&quot;:2, &quot;C&quot;: 4, &quot;D&quot;: 8, ...} resolves two&#45;way mappi...">
<polygon fill="white" stroke="black" points="188,-306.5 188,-325.5 268,-325.5 268,-306.5 188,-306.5"/>
<text text-anchor="middle" x="228" y="-313.5" font-family="Helvetica,sans-Serif" font-size="10.00">FlagResolver</text>
</a>
</g>
</g>
<!-- Node10&#45;&gt;Node9 -->
<g id="edge9" class="edge">
<title>Node10&#45;&gt;Node9</title>
<path fill="none" stroke="midnightblue" d="M228,-296.12C228,-286.82 228,-276.06 228,-268.71"/>
<polygon fill="midnightblue" stroke="midnightblue" points="224.5,-296.41 228,-306.41 231.5,-296.41 224.5,-296.41"/>
</g>
<!-- Node11 -->
<g id="node11" class="node">
<title>Node11</title>
<g id="a_node11"><a xlink:href="classdrain_1_1ContextKit.html" target="_top" xlink:title="Utilities.">
<polygon fill="white" stroke="black" points="202,-57.5 202,-76.5 270,-76.5 270,-57.5 202,-57.5"/>
<text text-anchor="middle" x="236" y="-64.5" font-family="Helvetica,sans-Serif" font-size="10.00">ContextKit</text>
</a>
</g>
</g>
<!-- Node11&#45;&gt;Node1 -->
<g id="edge10" class="edge">
<title>Node11&#45;&gt;Node1</title>
<path fill="none" stroke="midnightblue" d="M223.81,-49.23C216.72,-39.49 208.09,-27.62 202.34,-19.71"/>
<polygon fill="midnightblue" stroke="midnightblue" points="221.04,-51.38 229.75,-57.41 226.7,-47.26 221.04,-51.38"/>
</g>
</g>
</svg>
