<?xml version="1.0" encoding="UTF-8" standalone="no"?>
<!DOCTYPE svg PUBLIC "-//W3C//DTD SVG 1.1//EN"
 "http://www.w3.org/Graphics/SVG/1.1/DTD/svg11.dtd">
<!-- Generated by graphviz version 2.43.0 (0)
 -->
<!-- Title: PolarProductOp Pages: 1 -->
<svg width="1210pt" height="778pt"
 viewBox="0.00 0.00 1210.00 778.00" xmlns="http://www.w3.org/2000/svg" xmlns:xlink="http://www.w3.org/1999/xlink">
<g id="graph0" class="graph" transform="scale(1 1) rotate(0) translate(4 774)">
<title>PolarProductOp</title>
<polygon fill="white" stroke="transparent" points="-4,4 -4,-774 1206,-774 1206,4 -4,4"/>
<!-- Node1 -->
<g id="node1" class="node">
<title>Node1</title>
<g id="a_node1"><a xlink:title="Base class for flat (2D) products computed in the polar coordinate system. Volume is used as input.">
<polygon fill="#bfbfbf" stroke="black" points="376,-418.5 376,-437.5 468,-437.5 468,-418.5 376,-418.5"/>
<text text-anchor="middle" x="422" y="-425.5" font-family="Helvetica,sans-Serif" font-size="10.00">PolarProductOp</text>
</a>
</g>
</g>
<!-- Node4 -->
<g id="node4" class="node">
<title>Node4</title>
<g id="a_node4"><a xlink:href="classrack_1_1PolarSlidingWindowOp.html" target="_top" xlink:title=" ">
<polygon fill="white" stroke="black" points="504,-725.5 504,-766.5 696,-766.5 696,-725.5 504,-725.5"/>
<text text-anchor="start" x="512" y="-754.5" font-family="Helvetica,sans-Serif" font-size="10.00">PolarSlidingWindowOp</text>
<text text-anchor="start" x="512" y="-743.5" font-family="Helvetica,sans-Serif" font-size="10.00">&lt; RadarWindowAvg&lt; RadarWindow</text>
<text text-anchor="middle" x="600" y="-732.5" font-family="Helvetica,sans-Serif" font-size="10.00">Config &gt; &gt;</text>
</a>
</g>
</g>
<!-- Node1&#45;&gt;Node4 -->
<g id="edge3" class="edge">
<title>Node1&#45;&gt;Node4</title>
<path fill="none" stroke="midnightblue" d="M424.37,-447.66C428.55,-494.32 444.72,-613.5 504,-689 516,-704.28 533.32,-716.37 549.89,-725.42"/>
<polygon fill="midnightblue" stroke="midnightblue" points="427.86,-447.35 423.57,-437.66 420.88,-447.91 427.86,-447.35"/>
</g>
<!-- Node6 -->
<g id="node6" class="node">
<title>Node6</title>
<g id="a_node6"><a xlink:href="classrack_1_1BeamAltitudeOp.html" target="_top" xlink:title="A single&#45;ray &quot;product&quot; storing the altitude at each bin.">
<polygon fill="white" stroke="black" points="551.5,-660.5 551.5,-679.5 648.5,-679.5 648.5,-660.5 551.5,-660.5"/>
<text text-anchor="middle" x="600" y="-667.5" font-family="Helvetica,sans-Serif" font-size="10.00">BeamAltitudeOp</text>
</a>
</g>
</g>
<!-- Node1&#45;&gt;Node6 -->
<g id="edge5" class="edge">
<title>Node1&#45;&gt;Node6</title>
<path fill="none" stroke="midnightblue" d="M423.98,-447.88C427.28,-491.8 441.64,-597.41 504,-651 517.01,-662.18 534.74,-667.47 551.35,-669.78"/>
<polygon fill="midnightblue" stroke="midnightblue" points="427.47,-447.65 423.35,-437.89 420.49,-448.1 427.47,-447.65"/>
</g>
<!-- Node7 -->
<g id="node7" class="node">
<title>Node7</title>
<g id="a_node7"><a xlink:href="classrack_1_1ConvOp.html" target="_top" xlink:title="Computes Cb s or bottoms in kilometers for a given dBZ threshold, typically 20, 40 or 45 dBZ.">
<polygon fill="white" stroke="black" points="572.5,-622.5 572.5,-641.5 627.5,-641.5 627.5,-622.5 572.5,-622.5"/>
<text text-anchor="middle" x="600" y="-629.5" font-family="Helvetica,sans-Serif" font-size="10.00">ConvOp</text>
</a>
</g>
</g>
<!-- Node1&#45;&gt;Node7 -->
<g id="edge6" class="edge">
<title>Node1&#45;&gt;Node7</title>
<path fill="none" stroke="midnightblue" d="M425.63,-447.83C431.83,-486.15 451.03,-570.36 504,-613 523.26,-628.5 551.73,-632.47 572.47,-633.03"/>
<polygon fill="midnightblue" stroke="midnightblue" points="429.03,-446.89 424.11,-437.51 422.11,-447.91 429.03,-446.89"/>
</g>
<!-- Node8 -->
<g id="node8" class="node">
<title>Node8</title>
<g id="a_node8"><a xlink:href="classrack_1_1CumulativeProductOp.html" target="_top" xlink:title="Base class for flat (2D) products computed in the polar coordinate system.">
<polygon fill="white" stroke="black" points="538.5,-584.5 538.5,-603.5 661.5,-603.5 661.5,-584.5 538.5,-584.5"/>
<text text-anchor="middle" x="600" y="-591.5" font-family="Helvetica,sans-Serif" font-size="10.00">CumulativeProductOp</text>
</a>
</g>
</g>
<!-- Node1&#45;&gt;Node8 -->
<g id="edge7" class="edge">
<title>Node1&#45;&gt;Node8</title>
<path fill="none" stroke="midnightblue" d="M429.83,-447.27C440.98,-476.04 465.76,-530.13 504,-561 517.59,-571.97 535.05,-579.4 551.3,-584.39"/>
<polygon fill="midnightblue" stroke="midnightblue" points="433,-445.74 426.23,-437.59 426.44,-448.18 433,-445.74"/>
</g>
<!-- Node12 -->
<g id="node12" class="node">
<title>Node12</title>
<g id="a_node12"><a xlink:href="classrack_1_1DopplerAvgExpOp.html" target="_top" xlink:title=" ">
<polygon fill="white" stroke="black" points="548,-532.5 548,-551.5 652,-551.5 652,-532.5 548,-532.5"/>
<text text-anchor="middle" x="600" y="-539.5" font-family="Helvetica,sans-Serif" font-size="10.00">DopplerAvgExpOp</text>
</a>
</g>
</g>
<!-- Node1&#45;&gt;Node12 -->
<g id="edge11" class="edge">
<title>Node1&#45;&gt;Node12</title>
<path fill="none" stroke="midnightblue" d="M433.35,-446.36C446.72,-468.26 472.09,-504.26 504,-523 517.2,-530.75 533.02,-535.39 547.93,-538.16"/>
<polygon fill="midnightblue" stroke="midnightblue" points="436.32,-444.5 428.23,-437.66 430.29,-448.06 436.32,-444.5"/>
</g>
<!-- Node13 -->
<g id="node13" class="node">
<title>Node13</title>
<g id="a_node13"><a xlink:href="classrack_1_1DopplerOp.html" target="_top" xlink:title="Base class for computing products using Doppler speed [VRAD] data.">
<polygon fill="white" stroke="black" points="566,-494.5 566,-513.5 634,-513.5 634,-494.5 566,-494.5"/>
<text text-anchor="middle" x="600" y="-501.5" font-family="Helvetica,sans-Serif" font-size="10.00">DopplerOp</text>
</a>
</g>
</g>
<!-- Node1&#45;&gt;Node13 -->
<g id="edge12" class="edge">
<title>Node1&#45;&gt;Node13</title>
<path fill="none" stroke="midnightblue" d="M441.44,-444.39C457.04,-457.36 480.53,-474.93 504,-485 523.63,-493.42 547.16,-498.16 565.9,-500.8"/>
<polygon fill="midnightblue" stroke="midnightblue" points="443.52,-441.56 433.64,-437.72 438.97,-446.88 443.52,-441.56"/>
</g>
<!-- Node28 -->
<g id="node28" class="node">
<title>Node28</title>
<g id="a_node28"><a xlink:href="classrack_1_1DrawingOp.html" target="_top" xlink:title="Select and visualise a direction, range, sector or arc.">
<polygon fill="white" stroke="black" points="564.5,-456.5 564.5,-475.5 635.5,-475.5 635.5,-456.5 564.5,-456.5"/>
<text text-anchor="middle" x="600" y="-463.5" font-family="Helvetica,sans-Serif" font-size="10.00">DrawingOp</text>
</a>
</g>
</g>
<!-- Node1&#45;&gt;Node28 -->
<g id="edge27" class="edge">
<title>Node1&#45;&gt;Node28</title>
<path fill="none" stroke="midnightblue" d="M472.31,-439.84C482.76,-442.27 493.73,-444.77 504,-447 523.89,-451.32 546.2,-455.8 564.2,-459.33"/>
<polygon fill="midnightblue" stroke="midnightblue" points="473.03,-436.41 462.49,-437.54 471.43,-443.23 473.03,-436.41"/>
</g>
<!-- Node29 -->
<g id="node29" class="node">
<title>Node29</title>
<g id="a_node29"><a xlink:href="classrack_1_1FunctorOp.html" target="_top" xlink:title="A single&#45;ray &quot;product&quot; storing the altitude at each bin.">
<polygon fill="white" stroke="black" points="567,-418.5 567,-437.5 633,-437.5 633,-418.5 567,-418.5"/>
<text text-anchor="middle" x="600" y="-425.5" font-family="Helvetica,sans-Serif" font-size="10.00">FunctorOp</text>
</a>
</g>
</g>
<!-- Node1&#45;&gt;Node29 -->
<g id="edge28" class="edge">
<title>Node1&#45;&gt;Node29</title>
<path fill="none" stroke="midnightblue" d="M478.37,-428C507.5,-428 542.2,-428 566.88,-428"/>
<polygon fill="midnightblue" stroke="midnightblue" points="478.32,-424.5 468.32,-428 478.32,-431.5 478.32,-424.5"/>
</g>
<!-- Node30 -->
<g id="node30" class="node">
<title>Node30</title>
<g id="a_node30"><a xlink:href="classrack_1_1PolarNeuralVPROp.html" target="_top" xlink:title="The VPRimum dBZ value in each a vertical column.">
<polygon fill="white" stroke="black" points="546.5,-380.5 546.5,-399.5 653.5,-399.5 653.5,-380.5 546.5,-380.5"/>
<text text-anchor="middle" x="600" y="-387.5" font-family="Helvetica,sans-Serif" font-size="10.00">PolarNeuralVPROp</text>
</a>
</g>
</g>
<!-- Node1&#45;&gt;Node30 -->
<g id="edge29" class="edge">
<title>Node1&#45;&gt;Node30</title>
<path fill="none" stroke="midnightblue" d="M472.31,-416.16C482.76,-413.73 493.73,-411.23 504,-409 518.79,-405.79 534.93,-402.48 549.63,-399.55"/>
<polygon fill="midnightblue" stroke="midnightblue" points="471.43,-412.77 462.49,-418.46 473.03,-419.59 471.43,-412.77"/>
</g>
<!-- Node31 -->
<g id="node31" class="node">
<title>Node31</title>
<g id="a_node31"><a xlink:href="classrack_1_1PolarSlidingWindowOp.html" target="_top" xlink:title=" ">
<polygon fill="white" stroke="black" points="520.5,-342.5 520.5,-361.5 679.5,-361.5 679.5,-342.5 520.5,-342.5"/>
<text text-anchor="middle" x="600" y="-349.5" font-family="Helvetica,sans-Serif" font-size="10.00">PolarSlidingWindowOp&lt; W &gt;</text>
</a>
</g>
</g>
<!-- Node1&#45;&gt;Node31 -->
<g id="edge30" class="edge">
<title>Node1&#45;&gt;Node31</title>
<path fill="none" stroke="midnightblue" d="M441.44,-411.61C457.04,-398.64 480.53,-381.07 504,-371 513.04,-367.12 522.91,-364.02 532.76,-361.55"/>
<polygon fill="midnightblue" stroke="midnightblue" points="438.97,-409.12 433.64,-418.28 443.52,-414.44 438.97,-409.12"/>
</g>
<!-- Node32 -->
<g id="node32" class="node">
<title>Node32</title>
<g id="a_node32"><a xlink:href="classrack_1_1QualityCombinerOp.html" target="_top" xlink:title="A quick QualityCombiner .">
<polygon fill="white" stroke="black" points="543.5,-304.5 543.5,-323.5 656.5,-323.5 656.5,-304.5 543.5,-304.5"/>
<text text-anchor="middle" x="600" y="-311.5" font-family="Helvetica,sans-Serif" font-size="10.00">QualityCombinerOp</text>
</a>
</g>
</g>
<!-- Node1&#45;&gt;Node32 -->
<g id="edge31" class="edge">
<title>Node1&#45;&gt;Node32</title>
<path fill="none" stroke="midnightblue" d="M433.35,-409.64C446.72,-387.74 472.09,-351.74 504,-333 515.89,-326.01 529.91,-321.55 543.48,-318.72"/>
<polygon fill="midnightblue" stroke="midnightblue" points="430.29,-407.94 428.23,-418.34 436.32,-411.5 430.29,-407.94"/>
</g>
<!-- Node33 -->
<g id="node33" class="node">
<title>Node33</title>
<g id="a_node33"><a xlink:href="classrack_1_1RainRateDPOp.html" target="_top" xlink:title="Uses DBZ, ZDR and KDP to derive rain rate. Under construction.">
<polygon fill="white" stroke="black" points="556,-266.5 556,-285.5 644,-285.5 644,-266.5 556,-266.5"/>
<text text-anchor="middle" x="600" y="-273.5" font-family="Helvetica,sans-Serif" font-size="10.00">RainRateDPOp</text>
</a>
</g>
</g>
<!-- Node1&#45;&gt;Node33 -->
<g id="edge32" class="edge">
<title>Node1&#45;&gt;Node33</title>
<path fill="none" stroke="midnightblue" d="M429.04,-408.87C439.37,-379.43 463.36,-323.44 504,-295 519.02,-284.49 538.47,-279.48 555.86,-277.2"/>
<polygon fill="midnightblue" stroke="midnightblue" points="425.7,-407.82 425.84,-418.42 432.33,-410.04 425.7,-407.82"/>
</g>
<!-- Node34 -->
<g id="node34" class="node">
<title>Node34</title>
<g id="a_node34"><a xlink:href="classrack_1_1RainRateOp.html" target="_top" xlink:title="Computes rain rate from dBZ.">
<polygon fill="white" stroke="black" points="563,-228.5 563,-247.5 637,-247.5 637,-228.5 563,-228.5"/>
<text text-anchor="middle" x="600" y="-235.5" font-family="Helvetica,sans-Serif" font-size="10.00">RainRateOp</text>
</a>
</g>
</g>
<!-- Node1&#45;&gt;Node34 -->
<g id="edge33" class="edge">
<title>Node1&#45;&gt;Node34</title>
<path fill="none" stroke="midnightblue" d="M426.42,-408.16C433.73,-372.03 454.47,-295.67 504,-257 520.57,-244.06 543.61,-239.23 562.85,-237.67"/>
<polygon fill="midnightblue" stroke="midnightblue" points="422.9,-407.91 424.49,-418.38 429.78,-409.2 422.9,-407.91"/>
</g>
<!-- Node35 -->
<g id="node35" class="node">
<title>Node35</title>
<g id="a_node35"><a xlink:href="classrack_1_1SunShineOp.html" target="_top" xlink:title="A single&#45;ray &quot;product&quot; storing the altitude at each bin.">
<polygon fill="white" stroke="black" points="562.5,-190.5 562.5,-209.5 637.5,-209.5 637.5,-190.5 562.5,-190.5"/>
<text text-anchor="middle" x="600" y="-197.5" font-family="Helvetica,sans-Serif" font-size="10.00">SunShineOp</text>
</a>
</g>
</g>
<!-- Node1&#45;&gt;Node35 -->
<g id="edge34" class="edge">
<title>Node1&#45;&gt;Node35</title>
<path fill="none" stroke="midnightblue" d="M424.52,-408.22C428.85,-366.36 445.07,-268.56 504,-219 520.09,-205.47 543.12,-200.62 562.47,-199.2"/>
<polygon fill="midnightblue" stroke="midnightblue" points="421.03,-407.97 423.6,-418.25 428,-408.61 421.03,-407.97"/>
</g>
<!-- Node36 -->
<g id="node36" class="node">
<title>Node36</title>
<g id="a_node36"><a xlink:href="classrack_1_1VolumeTraversalOp.html" target="_top" xlink:title="Base class for radar data processors.">
<polygon fill="white" stroke="black" points="543.5,-152.5 543.5,-171.5 656.5,-171.5 656.5,-152.5 543.5,-152.5"/>
<text text-anchor="middle" x="600" y="-159.5" font-family="Helvetica,sans-Serif" font-size="10.00">VolumeTraversalOp</text>
</a>
</g>
</g>
<!-- Node1&#45;&gt;Node36 -->
<g id="edge35" class="edge">
<title>Node1&#45;&gt;Node36</title>
<path fill="none" stroke="midnightblue" d="M423.17,-408.29C424.71,-361.23 435.54,-241.73 504,-181 514.82,-171.4 529.09,-166.11 543.28,-163.31"/>
<polygon fill="midnightblue" stroke="midnightblue" points="419.67,-408.3 422.95,-418.38 426.67,-408.46 419.67,-408.3"/>
</g>
<!-- Node2 -->
<g id="node2" class="node">
<title>Node2</title>
<g id="a_node2"><a xlink:href="classrack_1_1VolumeOp.html" target="_top" xlink:title=" ">
<polygon fill="white" stroke="black" points="198,-418.5 198,-437.5 340,-437.5 340,-418.5 198,-418.5"/>
<text text-anchor="middle" x="269" y="-425.5" font-family="Helvetica,sans-Serif" font-size="10.00">VolumeOp&lt; PolarODIM &gt;</text>
</a>
</g>
</g>
<!-- Node2&#45;&gt;Node1 -->
<g id="edge1" class="edge">
<title>Node2&#45;&gt;Node1</title>
<path fill="none" stroke="midnightblue" d="M350.48,-428C359.23,-428 367.89,-428 375.98,-428"/>
<polygon fill="midnightblue" stroke="midnightblue" points="350.2,-424.5 340.2,-428 350.2,-431.5 350.2,-424.5"/>
</g>
<!-- Node3 -->
<g id="node3" class="node">
<title>Node3</title>
<g id="a_node3"><a xlink:href="classdrain_1_1image_1_1ProductOp.html" target="_top" xlink:title=" ">
<polygon fill="white" stroke="black" points="0,-413 0,-443 162,-443 162,-413 0,-413"/>
<text text-anchor="start" x="8" y="-431" font-family="Helvetica,sans-Serif" font-size="10.00">ProductOp&lt; const PolarODIM,</text>
<text text-anchor="middle" x="81" y="-420" font-family="Helvetica,sans-Serif" font-size="10.00"> PolarODIM &gt;</text>
</a>
</g>
</g>
<!-- Node3&#45;&gt;Node2 -->
<g id="edge2" class="edge">
<title>Node3&#45;&gt;Node2</title>
<path fill="none" stroke="midnightblue" d="M172.32,-428C180.94,-428 189.59,-428 197.97,-428"/>
<polygon fill="midnightblue" stroke="midnightblue" points="172.23,-424.5 162.23,-428 172.23,-431.5 172.23,-424.5"/>
</g>
<!-- Node5 -->
<g id="node5" class="node">
<title>Node5</title>
<g id="a_node5"><a xlink:href="classrack_1_1PolarSlidingAvgOp.html" target="_top" xlink:title=" ">
<polygon fill="white" stroke="black" points="757.5,-750.5 757.5,-769.5 863.5,-769.5 863.5,-750.5 757.5,-750.5"/>
<text text-anchor="middle" x="810.5" y="-757.5" font-family="Helvetica,sans-Serif" font-size="10.00">PolarSlidingAvgOp</text>
</a>
</g>
</g>
<!-- Node4&#45;&gt;Node5 -->
<g id="edge4" class="edge">
<title>Node4&#45;&gt;Node5</title>
<path fill="none" stroke="midnightblue" d="M706.48,-753.08C724.14,-754.27 741.75,-755.45 757.29,-756.49"/>
<polygon fill="midnightblue" stroke="midnightblue" points="706.31,-749.56 696.1,-752.39 705.84,-756.55 706.31,-749.56"/>
</g>
<!-- Node9 -->
<g id="node9" class="node">
<title>Node9</title>
<g id="a_node9"><a xlink:href="classrack_1_1CappiOp.html" target="_top" xlink:title="Pseudo&#45;CAPPI: the constant altitude planar position indicator product.">
<polygon fill="white" stroke="black" points="781.5,-712.5 781.5,-731.5 839.5,-731.5 839.5,-712.5 781.5,-712.5"/>
<text text-anchor="middle" x="810.5" y="-719.5" font-family="Helvetica,sans-Serif" font-size="10.00">CappiOp</text>
</a>
</g>
</g>
<!-- Node8&#45;&gt;Node9 -->
<g id="edge8" class="edge">
<title>Node8&#45;&gt;Node9</title>
<path fill="none" stroke="midnightblue" d="M671.54,-599.79C680.42,-602.82 688.88,-607.08 696,-613 729.12,-640.55 699.48,-674.74 732,-703 745.49,-714.72 765.06,-719.45 781.16,-721.27"/>
<polygon fill="midnightblue" stroke="midnightblue" points="672.35,-596.38 661.77,-596.97 670.4,-603.11 672.35,-596.38"/>
</g>
<!-- Node10 -->
<g id="node10" class="node">
<title>Node10</title>
<g id="a_node10"><a xlink:href="classrack_1_1EchoTopOp.html" target="_top" xlink:title="Height of echo exceeding a reflectivity threshold.">
<polygon fill="white" stroke="black" points="775.5,-674.5 775.5,-693.5 845.5,-693.5 845.5,-674.5 775.5,-674.5"/>
<text text-anchor="middle" x="810.5" y="-681.5" font-family="Helvetica,sans-Serif" font-size="10.00">EchoTopOp</text>
</a>
</g>
</g>
<!-- Node8&#45;&gt;Node10 -->
<g id="edge9" class="edge">
<title>Node8&#45;&gt;Node10</title>
<path fill="none" stroke="midnightblue" d="M671.4,-601.65C680.1,-604.42 688.54,-608.1 696,-613 719.49,-628.44 708.85,-649.06 732,-665 744.67,-673.72 760.92,-678.45 775.27,-681.01"/>
<polygon fill="midnightblue" stroke="midnightblue" points="672.07,-598.21 661.5,-598.91 670.2,-604.95 672.07,-598.21"/>
</g>
<!-- Node11 -->
<g id="node11" class="node">
<title>Node11</title>
<g id="a_node11"><a xlink:href="classrack_1_1MaxEchoOp.html" target="_top" xlink:title="The maximum dBZ value in each a vertical column.">
<polygon fill="white" stroke="black" points="773.5,-636.5 773.5,-655.5 847.5,-655.5 847.5,-636.5 773.5,-636.5"/>
<text text-anchor="middle" x="810.5" y="-643.5" font-family="Helvetica,sans-Serif" font-size="10.00">MaxEchoOp</text>
</a>
</g>
</g>
<!-- Node8&#45;&gt;Node11 -->
<g id="edge10" class="edge">
<title>Node8&#45;&gt;Node11</title>
<path fill="none" stroke="midnightblue" d="M666.71,-605.59C676.6,-607.78 686.62,-610.26 696,-613 712.48,-617.81 715.63,-621.83 732,-627 745.34,-631.21 760.22,-635.06 773.35,-638.17"/>
<polygon fill="midnightblue" stroke="midnightblue" points="667.41,-602.16 656.9,-603.5 665.95,-609.01 667.41,-602.16"/>
</g>
<!-- Node14 -->
<g id="node14" class="node">
<title>Node14</title>
<g id="a_node14"><a xlink:href="classrack_1_1DopplerWindowOp.html" target="_top" xlink:title=" ">
<polygon fill="white" stroke="black" points="732,-587 732,-617 889,-617 889,-587 732,-587"/>
<text text-anchor="start" x="740" y="-605" font-family="Helvetica,sans-Serif" font-size="10.00">DopplerWindowOp&lt; Doppler</text>
<text text-anchor="middle" x="810.5" y="-594" font-family="Helvetica,sans-Serif" font-size="10.00">AverageWindow2 &gt;</text>
</a>
</g>
</g>
<!-- Node13&#45;&gt;Node14 -->
<g id="edge13" class="edge">
<title>Node13&#45;&gt;Node14</title>
<path fill="none" stroke="midnightblue" d="M644.62,-505.53C661.81,-507.89 681,-512.86 696,-523 720.21,-539.36 708.67,-560.42 732,-578 736.5,-581.39 741.49,-584.31 746.69,-586.82"/>
<polygon fill="midnightblue" stroke="midnightblue" points="644.55,-502 634.22,-504.38 643.77,-508.96 644.55,-502"/>
</g>
<!-- Node16 -->
<g id="node16" class="node">
<title>Node16</title>
<g id="a_node16"><a xlink:href="classrack_1_1DopplerWindowOp.html" target="_top" xlink:title=" ">
<polygon fill="white" stroke="black" points="732,-538 732,-568 889,-568 889,-538 732,-538"/>
<text text-anchor="start" x="740" y="-556" font-family="Helvetica,sans-Serif" font-size="10.00">DopplerWindowOp&lt; Doppler</text>
<text text-anchor="middle" x="810.5" y="-545" font-family="Helvetica,sans-Serif" font-size="10.00">DevWindow &gt;</text>
</a>
</g>
</g>
<!-- Node13&#45;&gt;Node16 -->
<g id="edge15" class="edge">
<title>Node13&#45;&gt;Node16</title>
<path fill="none" stroke="midnightblue" d="M643.91,-512.01C660.26,-515.21 679.04,-519.07 696,-523 715.46,-527.51 736.65,-532.97 755.4,-537.98"/>
<polygon fill="midnightblue" stroke="midnightblue" points="644.56,-508.57 634.08,-510.1 643.23,-515.44 644.56,-508.57"/>
</g>
<!-- Node18 -->
<g id="node18" class="node">
<title>Node18</title>
<g id="a_node18"><a xlink:href="classrack_1_1DopplerWindowOp.html" target="_top" xlink:title=" ">
<polygon fill="white" stroke="black" points="732,-489 732,-519 889,-519 889,-489 732,-489"/>
<text text-anchor="start" x="740" y="-507" font-family="Helvetica,sans-Serif" font-size="10.00">DopplerWindowOp&lt; Doppler</text>
<text text-anchor="middle" x="810.5" y="-496" font-family="Helvetica,sans-Serif" font-size="10.00">EccentricityWindow &gt;</text>
</a>
</g>
</g>
<!-- Node13&#45;&gt;Node18 -->
<g id="edge17" class="edge">
<title>Node13&#45;&gt;Node18</title>
<path fill="none" stroke="midnightblue" d="M644.36,-504C669.57,-504 702.09,-504 731.6,-504"/>
<polygon fill="midnightblue" stroke="midnightblue" points="644.04,-500.5 634.04,-504 644.04,-507.5 644.04,-500.5"/>
</g>
<!-- Node20 -->
<g id="node20" class="node">
<title>Node20</title>
<g id="a_node20"><a xlink:href="classrack_1_1DopplerCrawlerOp.html" target="_top" xlink:title=" ">
<polygon fill="white" stroke="black" points="757.5,-450.5 757.5,-469.5 863.5,-469.5 863.5,-450.5 757.5,-450.5"/>
<text text-anchor="middle" x="810.5" y="-457.5" font-family="Helvetica,sans-Serif" font-size="10.00">DopplerCrawlerOp</text>
</a>
</g>
</g>
<!-- Node13&#45;&gt;Node20 -->
<g id="edge19" class="edge">
<title>Node13&#45;&gt;Node20</title>
<path fill="none" stroke="midnightblue" d="M643.83,-495.62C660.17,-492.37 678.96,-488.58 696,-485 719.6,-480.04 745.9,-474.27 767.23,-469.51"/>
<polygon fill="midnightblue" stroke="midnightblue" points="643.14,-492.19 634.01,-497.56 644.5,-499.05 643.14,-492.19"/>
</g>
<!-- Node21 -->
<g id="node21" class="node">
<title>Node21</title>
<g id="a_node21"><a xlink:href="classrack_1_1DopplerDiffOp.html" target="_top" xlink:title="Experimental.">
<polygon fill="white" stroke="black" points="767.5,-412.5 767.5,-431.5 853.5,-431.5 853.5,-412.5 767.5,-412.5"/>
<text text-anchor="middle" x="810.5" y="-419.5" font-family="Helvetica,sans-Serif" font-size="10.00">DopplerDiffOp</text>
</a>
</g>
</g>
<!-- Node13&#45;&gt;Node21 -->
<g id="edge20" class="edge">
<title>Node13&#45;&gt;Node21</title>
<path fill="none" stroke="midnightblue" d="M644.49,-501.59C661.51,-499.1 680.6,-494.26 696,-485 717.66,-471.98 710.63,-454.48 732,-441 742.55,-434.35 755.25,-430.03 767.3,-427.22"/>
<polygon fill="midnightblue" stroke="midnightblue" points="643.71,-498.16 634.21,-502.86 644.57,-505.11 643.71,-498.16"/>
</g>
<!-- Node22 -->
<g id="node22" class="node">
<title>Node22</title>
<g id="a_node22"><a xlink:href="classrack_1_1DopplerReprojectOp.html" target="_top" xlink:title=" ">
<polygon fill="white" stroke="black" points="753,-374.5 753,-393.5 868,-393.5 868,-374.5 753,-374.5"/>
<text text-anchor="middle" x="810.5" y="-381.5" font-family="Helvetica,sans-Serif" font-size="10.00">DopplerReprojectOp</text>
</a>
</g>
</g>
<!-- Node13&#45;&gt;Node22 -->
<g id="edge21" class="edge">
<title>Node13&#45;&gt;Node22</title>
<path fill="none" stroke="midnightblue" d="M644.22,-503.84C661.89,-501.76 681.54,-496.63 696,-485 727.02,-460.06 701.53,-428.6 732,-403 738.05,-397.92 745.24,-394.16 752.78,-391.39"/>
<polygon fill="midnightblue" stroke="midnightblue" points="643.75,-500.37 634.1,-504.74 644.37,-507.34 643.75,-500.37"/>
</g>
<!-- Node23 -->
<g id="node23" class="node">
<title>Node23</title>
<g id="a_node23"><a xlink:href="classrack_1_1DopplerSamplerOp.html" target="_top" xlink:title="Base class for computing products using Doppler speed [VRAD] data.">
<polygon fill="white" stroke="black" points="756,-336.5 756,-355.5 865,-355.5 865,-336.5 756,-336.5"/>
<text text-anchor="middle" x="810.5" y="-343.5" font-family="Helvetica,sans-Serif" font-size="10.00">DopplerSamplerOp</text>
</a>
</g>
</g>
<!-- Node13&#45;&gt;Node23 -->
<g id="edge22" class="edge">
<title>Node13&#45;&gt;Node23</title>
<path fill="none" stroke="midnightblue" d="M644.28,-504.75C662.25,-502.87 682.11,-497.65 696,-485 737.18,-447.52 691.64,-403.36 732,-365 738.63,-358.7 746.99,-354.39 755.75,-351.45"/>
<polygon fill="midnightblue" stroke="midnightblue" points="643.98,-501.26 634.26,-505.48 644.49,-508.24 643.98,-501.26"/>
</g>
<!-- Node25 -->
<g id="node25" class="node">
<title>Node25</title>
<g id="a_node25"><a xlink:href="classrack_1_1DopplerWindOp.html" target="_top" xlink:title="Base class for operators retrieving true wind (u,v).">
<polygon fill="white" stroke="black" points="764,-298.5 764,-317.5 857,-317.5 857,-298.5 764,-298.5"/>
<text text-anchor="middle" x="810.5" y="-305.5" font-family="Helvetica,sans-Serif" font-size="10.00">DopplerWindOp</text>
</a>
</g>
</g>
<!-- Node13&#45;&gt;Node25 -->
<g id="edge24" class="edge">
<title>Node13&#45;&gt;Node25</title>
<path fill="none" stroke="midnightblue" d="M644.29,-505.23C662.44,-503.47 682.44,-498.21 696,-485 747.6,-434.76 681.49,-378.34 732,-327 740.45,-318.41 752.11,-313.46 763.82,-310.68"/>
<polygon fill="midnightblue" stroke="midnightblue" points="643.91,-501.74 634.16,-505.88 644.36,-508.73 643.91,-501.74"/>
</g>
<!-- Node27 -->
<g id="node27" class="node">
<title>Node27</title>
<g id="a_node27"><a xlink:href="classrack_1_1DopplerWindowOp.html" target="_top" xlink:title="Base class for Doppler average and variance.">
<polygon fill="white" stroke="black" points="740.5,-260.5 740.5,-279.5 880.5,-279.5 880.5,-260.5 740.5,-260.5"/>
<text text-anchor="middle" x="810.5" y="-267.5" font-family="Helvetica,sans-Serif" font-size="10.00">DopplerWindowOp&lt; W &gt;</text>
</a>
</g>
</g>
<!-- Node13&#45;&gt;Node27 -->
<g id="edge26" class="edge">
<title>Node13&#45;&gt;Node27</title>
<path fill="none" stroke="midnightblue" d="M644.55,-505.5C662.76,-503.79 682.72,-498.49 696,-485 758.13,-421.88 671.24,-353.44 732,-289 735.61,-285.17 739.86,-282.06 744.47,-279.54"/>
<polygon fill="midnightblue" stroke="midnightblue" points="644.16,-502.01 634.39,-506.11 644.58,-509 644.16,-502.01"/>
</g>
<!-- Node15 -->
<g id="node15" class="node">
<title>Node15</title>
<g id="a_node15"><a xlink:href="classrack_1_1DopplerAvgOp.html" target="_top" xlink:title="Simple op not producing quality field.">
<polygon fill="white" stroke="black" points="944.5,-592.5 944.5,-611.5 1030.5,-611.5 1030.5,-592.5 944.5,-592.5"/>
<text text-anchor="middle" x="987.5" y="-599.5" font-family="Helvetica,sans-Serif" font-size="10.00">DopplerAvgOp</text>
</a>
</g>
</g>
<!-- Node14&#45;&gt;Node15 -->
<g id="edge14" class="edge">
<title>Node14&#45;&gt;Node15</title>
<path fill="none" stroke="midnightblue" d="M899.31,-602C915,-602 930.68,-602 944.33,-602"/>
<polygon fill="midnightblue" stroke="midnightblue" points="899.02,-598.5 889.02,-602 899.02,-605.5 899.02,-598.5"/>
</g>
<!-- Node17 -->
<g id="node17" class="node">
<title>Node17</title>
<g id="a_node17"><a xlink:href="classrack_1_1DopplerDevOp.html" target="_top" xlink:title=" ">
<polygon fill="white" stroke="black" points="943.5,-543.5 943.5,-562.5 1031.5,-562.5 1031.5,-543.5 943.5,-543.5"/>
<text text-anchor="middle" x="987.5" y="-550.5" font-family="Helvetica,sans-Serif" font-size="10.00">DopplerDevOp</text>
</a>
</g>
</g>
<!-- Node16&#45;&gt;Node17 -->
<g id="edge16" class="edge">
<title>Node16&#45;&gt;Node17</title>
<path fill="none" stroke="midnightblue" d="M899.11,-553C914.5,-553 929.89,-553 943.36,-553"/>
<polygon fill="midnightblue" stroke="midnightblue" points="899.02,-549.5 889.02,-553 899.02,-556.5 899.02,-549.5"/>
</g>
<!-- Node19 -->
<g id="node19" class="node">
<title>Node19</title>
<g id="a_node19"><a xlink:href="classrack_1_1DopplerEccentricityOp.html" target="_top" xlink:title=" ">
<polygon fill="white" stroke="black" points="925,-494.5 925,-513.5 1050,-513.5 1050,-494.5 925,-494.5"/>
<text text-anchor="middle" x="987.5" y="-501.5" font-family="Helvetica,sans-Serif" font-size="10.00">DopplerEccentricityOp</text>
</a>
</g>
</g>
<!-- Node18&#45;&gt;Node19 -->
<g id="edge18" class="edge">
<title>Node18&#45;&gt;Node19</title>
<path fill="none" stroke="midnightblue" d="M899.17,-504C907.83,-504 916.48,-504 924.8,-504"/>
<polygon fill="midnightblue" stroke="midnightblue" points="899.02,-500.5 889.02,-504 899.02,-507.5 899.02,-500.5"/>
</g>
<!-- Node24 -->
<g id="node24" class="node">
<title>Node24</title>
<g id="a_node24"><a xlink:href="classrack_1_1DopplerDiffPlotterOp.html" target="_top" xlink:title=" ">
<polygon fill="white" stroke="black" points="928,-336.5 928,-355.5 1047,-355.5 1047,-336.5 928,-336.5"/>
<text text-anchor="middle" x="987.5" y="-343.5" font-family="Helvetica,sans-Serif" font-size="10.00">DopplerDiffPlotterOp</text>
</a>
</g>
</g>
<!-- Node23&#45;&gt;Node24 -->
<g id="edge23" class="edge">
<title>Node23&#45;&gt;Node24</title>
<path fill="none" stroke="midnightblue" d="M875.85,-346C892.88,-346 911.17,-346 927.88,-346"/>
<polygon fill="midnightblue" stroke="midnightblue" points="875.43,-342.5 865.43,-346 875.43,-349.5 875.43,-342.5"/>
</g>
<!-- Node26 -->
<g id="node26" class="node">
<title>Node26</title>
<g id="a_node26"><a xlink:href="classrack_1_1DopplerInversionOp.html" target="_top" xlink:title="Derives two&#45;dimensional wind (u,v) from Doppler data.">
<polygon fill="white" stroke="black" points="931,-298.5 931,-317.5 1044,-317.5 1044,-298.5 931,-298.5"/>
<text text-anchor="middle" x="987.5" y="-305.5" font-family="Helvetica,sans-Serif" font-size="10.00">DopplerInversionOp</text>
</a>
</g>
</g>
<!-- Node25&#45;&gt;Node26 -->
<g id="edge25" class="edge">
<title>Node25&#45;&gt;Node26</title>
<path fill="none" stroke="midnightblue" d="M867.1,-308C887.47,-308 910.52,-308 930.9,-308"/>
<polygon fill="midnightblue" stroke="midnightblue" points="867.02,-304.5 857.02,-308 867.02,-311.5 867.02,-304.5"/>
</g>
<!-- Node37 -->
<g id="node37" class="node">
<title>Node37</title>
<g id="a_node37"><a xlink:href="classrack_1_1AndreOp.html" target="_top" xlink:title="The base class for removal operators.">
<polygon fill="white" stroke="black" points="781,-152.5 781,-171.5 840,-171.5 840,-152.5 781,-152.5"/>
<text text-anchor="middle" x="810.5" y="-159.5" font-family="Helvetica,sans-Serif" font-size="10.00">AndreOp</text>
</a>
</g>
</g>
<!-- Node36&#45;&gt;Node37 -->
<g id="edge36" class="edge">
<title>Node36&#45;&gt;Node37</title>
<path fill="none" stroke="midnightblue" d="M666.69,-162C705.11,-162 751.67,-162 780.94,-162"/>
<polygon fill="midnightblue" stroke="midnightblue" points="666.6,-158.5 656.6,-162 666.6,-165.5 666.6,-158.5"/>
</g>
<!-- Node38 -->
<g id="node38" class="node">
<title>Node38</title>
<g id="a_node38"><a xlink:href="classrack_1_1DetectorOp.html" target="_top" xlink:title="Base class for anomaly detectors.">
<polygon fill="white" stroke="red" points="951.5,-171.5 951.5,-190.5 1023.5,-190.5 1023.5,-171.5 951.5,-171.5"/>
<text text-anchor="middle" x="987.5" y="-178.5" font-family="Helvetica,sans-Serif" font-size="10.00">DetectorOp</text>
</a>
</g>
</g>
<!-- Node37&#45;&gt;Node38 -->
<g id="edge37" class="edge">
<title>Node37&#45;&gt;Node38</title>
<path fill="none" stroke="midnightblue" d="M850.18,-166.2C880.41,-169.48 922.08,-174.01 951.36,-177.19"/>
<polygon fill="midnightblue" stroke="midnightblue" points="850.33,-162.69 840.01,-165.09 849.57,-169.65 850.33,-162.69"/>
</g>
<!-- Node60 -->
<g id="node49" class="node">
<title>Node60</title>
<g id="a_node49"><a xlink:href="classrack_1_1RemoverOp.html" target="_top" xlink:title="The simplest possible anomaly removal operator and the base class for more complex ones.">
<polygon fill="white" stroke="red" points="950.5,-133.5 950.5,-152.5 1024.5,-152.5 1024.5,-133.5 950.5,-133.5"/>
<text text-anchor="middle" x="987.5" y="-140.5" font-family="Helvetica,sans-Serif" font-size="10.00">RemoverOp</text>
</a>
</g>
</g>
<!-- Node37&#45;&gt;Node60 -->
<g id="edge48" class="edge">
<title>Node37&#45;&gt;Node60</title>
<path fill="none" stroke="midnightblue" d="M850.08,-157.81C880,-154.56 921.16,-150.09 950.42,-146.92"/>
<polygon fill="midnightblue" stroke="midnightblue" points="849.57,-154.35 840.01,-158.91 850.33,-161.31 849.57,-154.35"/>
</g>
<!-- Node39 -->
<g id="node39" class="node">
<title>Node39</title>
<g id="a_node39"><a xlink:href="classrack_1_1AttenuationOp.html" target="_top" xlink:title="Computes attenuation caused by precipitation.">
<polygon fill="white" stroke="black" points="1100.5,-342.5 1100.5,-361.5 1187.5,-361.5 1187.5,-342.5 1100.5,-342.5"/>
<text text-anchor="middle" x="1144" y="-349.5" font-family="Helvetica,sans-Serif" font-size="10.00">AttenuationOp</text>
</a>
</g>
</g>
<!-- Node38&#45;&gt;Node39 -->
<g id="edge38" class="edge">
<title>Node38&#45;&gt;Node39</title>
<path fill="none" stroke="midnightblue" d="M998.45,-199.75C1018.07,-236.11 1061.91,-314.26 1086,-333 1090.94,-336.84 1096.7,-339.93 1102.61,-342.4"/>
<polygon fill="midnightblue" stroke="midnightblue" points="1001.4,-197.85 993.6,-190.69 995.23,-201.16 1001.4,-197.85"/>
</g>
<!-- Node40 -->
<g id="node40" class="node">
<title>Node40</title>
<g id="a_node40"><a xlink:href="classrack_1_1BiometeorOp.html" target="_top" xlink:title=" ">
<polygon fill="white" stroke="red" points="1103.5,-304.5 1103.5,-323.5 1184.5,-323.5 1184.5,-304.5 1103.5,-304.5"/>
<text text-anchor="middle" x="1144" y="-311.5" font-family="Helvetica,sans-Serif" font-size="10.00">BiometeorOp</text>
</a>
</g>
</g>
<!-- Node38&#45;&gt;Node40 -->
<g id="edge39" class="edge">
<title>Node38&#45;&gt;Node40</title>
<path fill="none" stroke="midnightblue" d="M999.61,-199.37C1015.67,-224.44 1047.69,-269.21 1086,-295 1091.71,-298.84 1098.27,-301.97 1104.85,-304.49"/>
<polygon fill="midnightblue" stroke="midnightblue" points="1002.52,-197.43 994.25,-190.8 996.59,-201.14 1002.52,-197.43"/>
</g>
<!-- Node43 -->
<g id="node41" class="node">
<title>Node43</title>
<g id="a_node41"><a xlink:href="classrack_1_1BiometOp.html" target="_top" xlink:title="Detects birds and insects.">
<polygon fill="white" stroke="black" points="1111.5,-266.5 1111.5,-285.5 1176.5,-285.5 1176.5,-266.5 1111.5,-266.5"/>
<text text-anchor="middle" x="1144" y="-273.5" font-family="Helvetica,sans-Serif" font-size="10.00">BiometOp</text>
</a>
</g>
</g>
<!-- Node38&#45;&gt;Node43 -->
<g id="edge40" class="edge">
<title>Node38&#45;&gt;Node43</title>
<path fill="none" stroke="midnightblue" d="M1005.88,-197.57C1024.44,-214.5 1055.35,-240.58 1086,-257 1093.91,-261.24 1102.93,-264.77 1111.44,-267.6"/>
<polygon fill="midnightblue" stroke="midnightblue" points="1008.2,-194.95 998.49,-190.71 1003.44,-200.08 1008.2,-194.95"/>
</g>
<!-- Node44 -->
<g id="node42" class="node">
<title>Node44</title>
<g id="a_node42"><a xlink:href="classrack_1_1CCorOp.html" target="_top" xlink:title=" ">
<polygon fill="white" stroke="black" points="1117.5,-228.5 1117.5,-247.5 1170.5,-247.5 1170.5,-228.5 1117.5,-228.5"/>
<text text-anchor="middle" x="1144" y="-235.5" font-family="Helvetica,sans-Serif" font-size="10.00">CCorOp</text>
</a>
</g>
</g>
<!-- Node38&#45;&gt;Node44 -->
<g id="edge41" class="edge">
<title>Node38&#45;&gt;Node44</title>
<path fill="none" stroke="midnightblue" d="M1021.34,-194.27C1040.18,-201.76 1064.32,-211.17 1086,-219 1096.2,-222.69 1107.52,-226.51 1117.37,-229.76"/>
<polygon fill="midnightblue" stroke="midnightblue" points="1022.6,-191.01 1012.02,-190.55 1020.01,-197.51 1022.6,-191.01"/>
</g>
<!-- Node45 -->
<g id="node43" class="node">
<title>Node45</title>
<g id="a_node43"><a xlink:href="classrack_1_1ClutterOp.html" target="_top" xlink:title="Based on pre&#45;computed clutter map, scales the clutter probability for desired sweeps.">
<polygon fill="white" stroke="black" points="1112.5,-190.5 1112.5,-209.5 1175.5,-209.5 1175.5,-190.5 1112.5,-190.5"/>
<text text-anchor="middle" x="1144" y="-197.5" font-family="Helvetica,sans-Serif" font-size="10.00">ClutterOp</text>
</a>
</g>
</g>
<!-- Node38&#45;&gt;Node45 -->
<g id="edge42" class="edge">
<title>Node38&#45;&gt;Node45</title>
<path fill="none" stroke="midnightblue" d="M1033.65,-186.55C1058.93,-189.66 1089.78,-193.46 1112.26,-196.22"/>
<polygon fill="midnightblue" stroke="midnightblue" points="1033.91,-183.06 1023.56,-185.31 1033.06,-190.01 1033.91,-183.06"/>
</g>
<!-- Node46 -->
<g id="node44" class="node">
<title>Node46</title>
<g id="a_node44"><a xlink:href="classrack_1_1DefaultOp.html" target="_top" xlink:title="Simply, &quot;detects&quot; precipitation ie sets its probability.">
<polygon fill="white" stroke="black" points="1111,-152.5 1111,-171.5 1177,-171.5 1177,-152.5 1111,-152.5"/>
<text text-anchor="middle" x="1144" y="-159.5" font-family="Helvetica,sans-Serif" font-size="10.00">DefaultOp</text>
</a>
</g>
</g>
<!-- Node38&#45;&gt;Node46 -->
<g id="edge43" class="edge">
<title>Node38&#45;&gt;Node46</title>
<path fill="none" stroke="midnightblue" d="M1033.81,-175.43C1058.58,-172.38 1088.66,-168.68 1110.97,-165.94"/>
<polygon fill="midnightblue" stroke="midnightblue" points="1033.06,-171.99 1023.56,-176.69 1033.91,-178.94 1033.06,-171.99"/>
</g>
<!-- Node47 -->
<g id="node45" class="node">
<title>Node47</title>
<g id="a_node45"><a xlink:href="classrack_1_1DopplerNoiseOp.html" target="_top" xlink:title="Detects suspicious variance in Doppler speed (VRAD).">
<polygon fill="white" stroke="black" points="1096,-114.5 1096,-133.5 1192,-133.5 1192,-114.5 1096,-114.5"/>
<text text-anchor="middle" x="1144" y="-121.5" font-family="Helvetica,sans-Serif" font-size="10.00">DopplerNoiseOp</text>
</a>
</g>
</g>
<!-- Node38&#45;&gt;Node47 -->
<g id="edge44" class="edge">
<title>Node38&#45;&gt;Node47</title>
<path fill="none" stroke="midnightblue" d="M1033.02,-168.33C1038.79,-166.37 1044.58,-164.25 1050,-162 1066.71,-155.08 1069.36,-150.11 1086,-143 1094.06,-139.56 1102.96,-136.33 1111.3,-133.54"/>
<polygon fill="midnightblue" stroke="midnightblue" points="1031.81,-165.04 1023.38,-171.46 1033.97,-171.7 1031.81,-165.04"/>
</g>
<!-- Node48 -->
<g id="node46" class="node">
<title>Node48</title>
<g id="a_node46"><a xlink:href="classrack_1_1EmitterOp.html" target="_top" xlink:title="A quick emitter detection based on subtracting horizontal window medians by vertical ones.">
<polygon fill="white" stroke="black" points="1111,-76.5 1111,-95.5 1177,-95.5 1177,-76.5 1111,-76.5"/>
<text text-anchor="middle" x="1144" y="-83.5" font-family="Helvetica,sans-Serif" font-size="10.00">EmitterOp</text>
</a>
</g>
</g>
<!-- Node38&#45;&gt;Node48 -->
<g id="edge45" class="edge">
<title>Node38&#45;&gt;Node48</title>
<path fill="none" stroke="midnightblue" d="M1033.22,-171.35C1039.2,-168.9 1044.99,-165.83 1050,-162 1073.79,-143.78 1062.41,-123.48 1086,-105 1093.23,-99.34 1102.22,-95.32 1110.91,-92.49"/>
<polygon fill="midnightblue" stroke="midnightblue" points="1032,-168.07 1023.75,-174.72 1034.34,-174.67 1032,-168.07"/>
</g>
<!-- Node49 -->
<g id="node47" class="node">
<title>Node49</title>
<g id="a_node47"><a xlink:href="classrack_1_1HydroClassBasedOp.html" target="_top" xlink:title="Sets probabilities of non&#45;meteorological echoes based on precomputed hydrometeor classification.">
<polygon fill="white" stroke="black" points="1086,-38.5 1086,-57.5 1202,-57.5 1202,-38.5 1086,-38.5"/>
<text text-anchor="middle" x="1144" y="-45.5" font-family="Helvetica,sans-Serif" font-size="10.00">HydroClassBasedOp</text>
</a>
</g>
</g>
<!-- Node38&#45;&gt;Node49 -->
<g id="edge46" class="edge">
<title>Node38&#45;&gt;Node49</title>
<path fill="none" stroke="midnightblue" d="M1033.35,-172.5C1039.45,-169.89 1045.24,-166.47 1050,-162 1082.91,-131.09 1053.43,-98.27 1086,-67 1090.06,-63.1 1094.95,-60 1100.13,-57.53"/>
<polygon fill="midnightblue" stroke="midnightblue" points="1031.85,-169.32 1023.61,-175.99 1034.21,-175.91 1031.85,-169.32"/>
</g>
<!-- Node50 -->
<g id="node48" class="node">
<title>Node50</title>
<g id="a_node48"><a xlink:href="classrack_1_1JammingOp.html" target="_top" xlink:title="A detector for widespread electromagnetic interference.">
<polygon fill="white" stroke="black" points="1107,-0.5 1107,-19.5 1181,-19.5 1181,-0.5 1107,-0.5"/>
<text text-anchor="middle" x="1144" y="-7.5" font-family="Helvetica,sans-Serif" font-size="10.00">JammingOp</text>
</a>
</g>
</g>
<!-- Node38&#45;&gt;Node50 -->
<g id="edge47" class="edge">
<title>Node38&#45;&gt;Node50</title>
<path fill="none" stroke="midnightblue" d="M1033.55,-173C1039.67,-170.32 1045.42,-166.75 1050,-162 1092.53,-117.94 1043.96,-73.53 1086,-29 1091.59,-23.08 1099.06,-19.01 1106.75,-16.2"/>
<polygon fill="midnightblue" stroke="midnightblue" points="1031.96,-169.85 1023.73,-176.52 1034.32,-176.44 1031.96,-169.85"/>
</g>
</g>
</svg>
