<?xml version="1.0" encoding="UTF-8" standalone="no"?>
<!DOCTYPE svg PUBLIC "-//W3C//DTD SVG 1.1//EN"
 "http://www.w3.org/Graphics/SVG/1.1/DTD/svg11.dtd">
<!-- Generated by graphviz version 2.43.0 (0)
 -->
<!-- Title: BinaryFunctorOp&lt; F &gt; Pages: 1 -->
<svg width="213pt" height="252pt"
 viewBox="0.00 0.00 213.00 252.00" xmlns="http://www.w3.org/2000/svg" xmlns:xlink="http://www.w3.org/1999/xlink">
<g id="graph0" class="graph" transform="scale(1 1) rotate(0) translate(4 248)">
<title>BinaryFunctorOp&lt; F &gt;</title>
<polygon fill="white" stroke="transparent" points="-4,4 -4,-248 209,-248 209,4 -4,4"/>
<!-- Node1 -->
<g id="node1" class="node">
<title>Node1</title>
<g id="a_node1"><a xlink:title="Class for using two&#45;parameter function objects (like std::functor) for sequential and spatial pixel i...">
<polygon fill="#bfbfbf" stroke="black" points="53,-0.5 53,-19.5 179,-19.5 179,-0.5 53,-0.5"/>
<text text-anchor="middle" x="116" y="-7.5" font-family="Helvetica,sans-Serif" font-size="10.00">BinaryFunctorOp&lt; F &gt;</text>
</a>
</g>
</g>
<!-- Node2 -->
<g id="node2" class="node">
<title>Node2</title>
<g id="a_node2"><a xlink:href="classdrain_1_1image_1_1FunctorOp.html" target="_top" xlink:title="Class for using simple function objects (like std::functor) for sequential pixel iteration.">
<polygon fill="white" stroke="black" points="68.5,-56.5 68.5,-75.5 163.5,-75.5 163.5,-56.5 68.5,-56.5"/>
<text text-anchor="middle" x="116" y="-63.5" font-family="Helvetica,sans-Serif" font-size="10.00">FunctorOp&lt; F &gt;</text>
</a>
</g>
</g>
<!-- Node2&#45;&gt;Node1 -->
<g id="edge1" class="edge">
<title>Node2&#45;&gt;Node1</title>
<path fill="none" stroke="midnightblue" d="M116,-45.8C116,-36.91 116,-26.78 116,-19.75"/>
<polygon fill="midnightblue" stroke="midnightblue" points="112.5,-46.08 116,-56.08 119.5,-46.08 112.5,-46.08"/>
</g>
<!-- Node3 -->
<g id="node3" class="node">
<title>Node3</title>
<g id="a_node3"><a xlink:href="structdrain_1_1image_1_1FunctorWrapper.html" target="_top" xlink:title="Helper class that only ensures that functor is initialized before ImageOp.">
<polygon fill="white" stroke="black" points="0,-112.5 0,-131.5 122,-131.5 122,-112.5 0,-112.5"/>
<text text-anchor="middle" x="61" y="-119.5" font-family="Helvetica,sans-Serif" font-size="10.00">FunctorWrapper&lt; F &gt;</text>
</a>
</g>
</g>
<!-- Node3&#45;&gt;Node2 -->
<g id="edge2" class="edge">
<title>Node3&#45;&gt;Node2</title>
<path fill="none" stroke="midnightblue" d="M77.29,-105C87.04,-95.43 99.05,-83.64 107.09,-75.75"/>
<polygon fill="midnightblue" stroke="midnightblue" points="74.77,-102.58 70.08,-112.08 79.67,-107.57 74.77,-102.58"/>
</g>
<!-- Node4 -->
<g id="node4" class="node">
<title>Node4</title>
<g id="a_node4"><a xlink:href="classdrain_1_1image_1_1ImageOp.html" target="_top" xlink:title="Base class for image processing functions.">
<polygon fill="white" stroke="black" points="140.5,-112.5 140.5,-131.5 201.5,-131.5 201.5,-112.5 140.5,-112.5"/>
<text text-anchor="middle" x="171" y="-119.5" font-family="Helvetica,sans-Serif" font-size="10.00">ImageOp</text>
</a>
</g>
</g>
<!-- Node4&#45;&gt;Node2 -->
<g id="edge3" class="edge">
<title>Node4&#45;&gt;Node2</title>
<path fill="none" stroke="midnightblue" d="M154.71,-105C144.96,-95.43 132.95,-83.64 124.91,-75.75"/>
<polygon fill="midnightblue" stroke="midnightblue" points="152.33,-107.57 161.92,-112.08 157.23,-102.58 152.33,-107.57"/>
</g>
<!-- Node5 -->
<g id="node5" class="node">
<title>Node5</title>
<g id="a_node5"><a xlink:href="classdrain_1_1image_1_1ImageMod.html" target="_top" xlink:title="Class for operations that modify an existing image instead of producing a new image.">
<polygon fill="white" stroke="black" points="137,-168.5 137,-187.5 205,-187.5 205,-168.5 137,-168.5"/>
<text text-anchor="middle" x="171" y="-175.5" font-family="Helvetica,sans-Serif" font-size="10.00">ImageMod</text>
</a>
</g>
</g>
<!-- Node5&#45;&gt;Node4 -->
<g id="edge4" class="edge">
<title>Node5&#45;&gt;Node4</title>
<path fill="none" stroke="midnightblue" d="M171,-157.8C171,-148.91 171,-138.78 171,-131.75"/>
<polygon fill="midnightblue" stroke="midnightblue" points="167.5,-158.08 171,-168.08 174.5,-158.08 167.5,-158.08"/>
</g>
<!-- Node6 -->
<g id="node6" class="node">
<title>Node6</title>
<g id="a_node6"><a xlink:href="classdrain_1_1BeanLike.html" target="_top" xlink:title="Something which has a name, a description and possibly some parameters of varying type.">
<polygon fill="white" stroke="black" points="140.5,-224.5 140.5,-243.5 201.5,-243.5 201.5,-224.5 140.5,-224.5"/>
<text text-anchor="middle" x="171" y="-231.5" font-family="Helvetica,sans-Serif" font-size="10.00">BeanLike</text>
</a>
</g>
</g>
<!-- Node6&#45;&gt;Node5 -->
<g id="edge5" class="edge">
<title>Node6&#45;&gt;Node5</title>
<path fill="none" stroke="midnightblue" d="M171,-213.8C171,-204.91 171,-194.78 171,-187.75"/>
<polygon fill="midnightblue" stroke="midnightblue" points="167.5,-214.08 171,-224.08 174.5,-214.08 167.5,-214.08"/>
</g>
</g>
</svg>
