<?xml version="1.0" encoding="UTF-8" standalone="no"?>
<!DOCTYPE svg PUBLIC "-//W3C//DTD SVG 1.1//EN"
 "http://www.w3.org/Graphics/SVG/1.1/DTD/svg11.dtd">
<!-- Generated by graphviz version 2.43.0 (0)
 -->
<!-- Title: DataSet&lt; DT &gt; Pages: 1 -->
<svg width="843pt" height="176pt"
 viewBox="0.00 0.00 843.00 176.00" xmlns="http://www.w3.org/2000/svg" xmlns:xlink="http://www.w3.org/1999/xlink">
<g id="graph0" class="graph" transform="scale(1 1) rotate(0) translate(4 172)">
<title>DataSet&lt; DT &gt;</title>
<polygon fill="white" stroke="transparent" points="-4,4 -4,-172 839,-172 839,4 -4,4"/>
<!-- Node1 -->
<g id="node1" class="node">
<title>Node1</title>
<g id="a_node1"><a xlink:title="A map of radar data, indexed by quantity code (DBZH, VRAD, etc).">
<polygon fill="#bfbfbf" stroke="black" points="743,-73 743,-92 835,-92 835,-73 743,-73"/>
<text text-anchor="middle" x="789" y="-80" font-family="Helvetica,sans-Serif" font-size="10.00">DataSet&lt; DT &gt;</text>
</a>
</g>
</g>
<!-- Node2 -->
<g id="node2" class="node">
<title>Node2</title>
<g id="a_node2"><a xlink:href="classrack_1_1DataGroup.html" target="_top" xlink:title=" ">
<polygon fill="white" stroke="black" points="363,-90.5 363,-120.5 513,-120.5 513,-90.5 363,-90.5"/>
<text text-anchor="start" x="371" y="-108.5" font-family="Helvetica,sans-Serif" font-size="10.00">DataGroup&lt; Data&lt; DT</text>
<text text-anchor="middle" x="438" y="-97.5" font-family="Helvetica,sans-Serif" font-size="10.00"> &gt;, ODIMPathElem::DATA &gt;</text>
</a>
</g>
</g>
<!-- Node2&#45;&gt;Node1 -->
<g id="edge1" class="edge">
<title>Node2&#45;&gt;Node1</title>
<path fill="none" stroke="midnightblue" d="M523.01,-99.96C592.11,-95.41 687.39,-89.13 742.87,-85.47"/>
<polygon fill="midnightblue" stroke="midnightblue" points="522.76,-96.47 513.01,-100.62 523.22,-103.46 522.76,-96.47"/>
</g>
<!-- Node3 -->
<g id="node3" class="node">
<title>Node3</title>
<g id="a_node3"><a xlink:href="classrack_1_1TreeWrapper.html" target="_top" xlink:title=" ">
<polygon fill="white" stroke="black" points="173.5,-137.5 173.5,-167.5 294.5,-167.5 294.5,-137.5 173.5,-137.5"/>
<text text-anchor="start" x="181.5" y="-155.5" font-family="Helvetica,sans-Serif" font-size="10.00">TreeWrapper&lt; Data&lt;</text>
<text text-anchor="middle" x="234" y="-144.5" font-family="Helvetica,sans-Serif" font-size="10.00"> DT &gt; ::datatype_t &gt;</text>
</a>
</g>
</g>
<!-- Node3&#45;&gt;Node2 -->
<g id="edge2" class="edge">
<title>Node3&#45;&gt;Node2</title>
<path fill="none" stroke="midnightblue" d="M304.44,-136.34C326.43,-131.23 350.63,-125.6 372.27,-120.56"/>
<polygon fill="midnightblue" stroke="midnightblue" points="303.46,-132.98 294.51,-138.65 305.05,-139.8 303.46,-132.98"/>
</g>
<!-- Node4 -->
<g id="node4" class="node">
<title>Node4</title>
<g id="a_node4"><a xlink:href="classdrain_1_1Tree.html" target="_top" xlink:title="Unordered tree based on std::map.">
<polygon fill="white" stroke="black" points="0,-74 0,-93 90,-93 90,-74 0,-74"/>
<text text-anchor="middle" x="45" y="-81" font-family="Helvetica,sans-Serif" font-size="10.00">Tree&lt; T, P, C &gt;</text>
</a>
</g>
</g>
<!-- Node4&#45;&gt;Node3 -->
<g id="edge3" class="edge">
<title>Node4&#45;&gt;Node3</title>
<path fill="none" stroke="#9a32cd" stroke-dasharray="5,2" d="M74.89,-97.36C95.31,-106.85 123.48,-119.32 149,-128.5 157.71,-131.63 167.03,-134.63 176.19,-137.39"/>
<polygon fill="#9a32cd" stroke="#9a32cd" points="76.35,-94.18 65.81,-93.1 73.38,-100.52 76.35,-94.18"/>
<text text-anchor="middle" x="119.5" y="-123.5" font-family="Helvetica,sans-Serif" font-size="10.00"> tree</text>
</g>
<!-- Node4&#45;&gt;Node4 -->
<g id="edge4" class="edge">
<title>Node4&#45;&gt;Node4</title>
<path fill="none" stroke="#9a32cd" stroke-dasharray="5,2" d="M31.37,-103.27C32.44,-108 36.99,-111.5 45,-111.5 58.15,-111.5 61.95,-102.07 56.41,-93.26"/>
<polygon fill="#9a32cd" stroke="#9a32cd" points="34.84,-103.78 33.59,-93.26 28.01,-102.26 34.84,-103.78"/>
<text text-anchor="middle" x="45" y="-114.5" font-family="Helvetica,sans-Serif" font-size="10.00"> dummy</text>
</g>
<!-- Node8 -->
<g id="node8" class="node">
<title>Node8</title>
<g id="a_node8"><a xlink:href="classrack_1_1TreeWrapper.html" target="_top" xlink:title=" ">
<polygon fill="white" stroke="black" points="166.5,-0.5 166.5,-30.5 301.5,-30.5 301.5,-0.5 166.5,-0.5"/>
<text text-anchor="start" x="174.5" y="-18.5" font-family="Helvetica,sans-Serif" font-size="10.00">TreeWrapper&lt; plaindata</text>
<text text-anchor="middle" x="234" y="-7.5" font-family="Helvetica,sans-Serif" font-size="10.00">_t ::datatype_t &gt;</text>
</a>
</g>
</g>
<!-- Node4&#45;&gt;Node8 -->
<g id="edge9" class="edge">
<title>Node4&#45;&gt;Node8</title>
<path fill="none" stroke="#9a32cd" stroke-dasharray="5,2" d="M76.41,-69.8C96.75,-60.89 124.22,-49.33 149,-40.5 158.75,-37.03 169.24,-33.63 179.4,-30.53"/>
<polygon fill="#9a32cd" stroke="#9a32cd" points="74.78,-66.7 67.05,-73.94 77.61,-73.1 74.78,-66.7"/>
<text text-anchor="middle" x="119.5" y="-59.5" font-family="Helvetica,sans-Serif" font-size="10.00"> tree</text>
</g>
<!-- Node5 -->
<g id="node5" class="node">
<title>Node5</title>
<g id="a_node5"><a xlink:title=" ">
<polygon fill="white" stroke="#bfbfbf" points="170,-88.5 170,-118.5 298,-118.5 298,-88.5 170,-88.5"/>
<text text-anchor="start" x="178" y="-106.5" font-family="Helvetica,sans-Serif" font-size="10.00">map&lt; std::string, Data</text>
<text text-anchor="middle" x="234" y="-95.5" font-family="Helvetica,sans-Serif" font-size="10.00">&lt; DT &gt; &gt;</text>
</a>
</g>
</g>
<!-- Node5&#45;&gt;Node2 -->
<g id="edge5" class="edge">
<title>Node5&#45;&gt;Node2</title>
<path fill="none" stroke="midnightblue" d="M308.35,-104.23C326.05,-104.4 344.98,-104.59 362.73,-104.76"/>
<polygon fill="midnightblue" stroke="midnightblue" points="308.12,-100.72 298.08,-104.12 308.05,-107.72 308.12,-100.72"/>
</g>
<!-- Node6 -->
<g id="node6" class="node">
<title>Node6</title>
<g id="a_node6"><a xlink:href="classrack_1_1QualityDataSupport.html" target="_top" xlink:title="Base class providing quality support for Dataand DataSet">
<polygon fill="white" stroke="black" points="593,-44.5 593,-74.5 706,-74.5 706,-44.5 593,-44.5"/>
<text text-anchor="start" x="601" y="-62.5" font-family="Helvetica,sans-Serif" font-size="10.00">QualityDataSupport</text>
<text text-anchor="middle" x="649.5" y="-51.5" font-family="Helvetica,sans-Serif" font-size="10.00">&lt; DT &gt;</text>
</a>
</g>
</g>
<!-- Node6&#45;&gt;Node1 -->
<g id="edge6" class="edge">
<title>Node6&#45;&gt;Node1</title>
<path fill="none" stroke="midnightblue" d="M716.15,-70.48C725.18,-71.99 734.27,-73.51 742.81,-74.94"/>
<polygon fill="midnightblue" stroke="midnightblue" points="716.47,-66.99 706.03,-68.79 715.32,-73.89 716.47,-66.99"/>
</g>
<!-- Node7 -->
<g id="node7" class="node">
<title>Node7</title>
<g id="a_node7"><a xlink:href="classrack_1_1DataGroup.html" target="_top" xlink:title=" ">
<polygon fill="white" stroke="black" points="356,-41.5 356,-71.5 520,-71.5 520,-41.5 356,-41.5"/>
<text text-anchor="start" x="364" y="-59.5" font-family="Helvetica,sans-Serif" font-size="10.00">DataGroup&lt; plaindata</text>
<text text-anchor="middle" x="438" y="-48.5" font-family="Helvetica,sans-Serif" font-size="10.00">_t, ODIMPathElem::QUALITY &gt;</text>
</a>
</g>
</g>
<!-- Node7&#45;&gt;Node6 -->
<g id="edge7" class="edge">
<title>Node7&#45;&gt;Node6</title>
<path fill="none" stroke="#9a32cd" stroke-dasharray="5,2" d="M530.34,-57.81C551.62,-58.11 573.64,-58.43 592.83,-58.7"/>
<polygon fill="#9a32cd" stroke="#9a32cd" points="530.35,-54.31 520.3,-57.66 530.25,-61.31 530.35,-54.31"/>
<text text-anchor="middle" x="556.5" y="-61.5" font-family="Helvetica,sans-Serif" font-size="10.00"> quality</text>
</g>
<!-- Node8&#45;&gt;Node7 -->
<g id="edge8" class="edge">
<title>Node8&#45;&gt;Node7</title>
<path fill="none" stroke="midnightblue" d="M311.52,-31.03C328.4,-34.46 346.26,-38.08 363.05,-41.49"/>
<polygon fill="midnightblue" stroke="midnightblue" points="312.2,-27.6 301.7,-29.04 310.81,-34.46 312.2,-27.6"/>
</g>
<!-- Node9 -->
<g id="node9" class="node">
<title>Node9</title>
<g id="a_node9"><a xlink:title=" ">
<polygon fill="white" stroke="#bfbfbf" points="149,-50 149,-69 319,-69 319,-50 149,-50"/>
<text text-anchor="middle" x="234" y="-57" font-family="Helvetica,sans-Serif" font-size="10.00">map&lt; std::string, plaindata_t &gt;</text>
</a>
</g>
</g>
<!-- Node9&#45;&gt;Node7 -->
<g id="edge10" class="edge">
<title>Node9&#45;&gt;Node7</title>
<path fill="none" stroke="midnightblue" d="M329.21,-58.1C338.11,-57.97 347.08,-57.84 355.85,-57.71"/>
<polygon fill="midnightblue" stroke="midnightblue" points="329.15,-54.6 319.2,-58.25 329.25,-61.6 329.15,-54.6"/>
</g>
</g>
</svg>
