<?xml version="1.0" encoding="UTF-8" standalone="no"?>
<!DOCTYPE svg PUBLIC "-//W3C//DTD SVG 1.1//EN"
 "http://www.w3.org/Graphics/SVG/1.1/DTD/svg11.dtd">
<!-- Generated by graphviz version 2.43.0 (0)
 -->
<!-- Title: FunctorOp&lt; F &gt; Pages: 1 -->
<svg width="418pt" height="308pt"
 viewBox="0.00 0.00 418.00 308.00" xmlns="http://www.w3.org/2000/svg" xmlns:xlink="http://www.w3.org/1999/xlink">
<g id="graph0" class="graph" transform="scale(1 1) rotate(0) translate(4 304)">
<title>FunctorOp&lt; F &gt;</title>
<polygon fill="white" stroke="transparent" points="-4,4 -4,-304 414,-304 414,4 -4,4"/>
<!-- Node1 -->
<g id="node1" class="node">
<title>Node1</title>
<g id="a_node1"><a xlink:title="Class for using simple function objects (like std::functor) for sequential pixel iteration.">
<polygon fill="#bfbfbf" stroke="black" points="158.5,-112.5 158.5,-131.5 253.5,-131.5 253.5,-112.5 158.5,-112.5"/>
<text text-anchor="middle" x="206" y="-119.5" font-family="Helvetica,sans-Serif" font-size="10.00">FunctorOp&lt; F &gt;</text>
</a>
</g>
</g>
<!-- Node6 -->
<g id="node6" class="node">
<title>Node6</title>
<g id="a_node6"><a xlink:href="classdrain_1_1image_1_1BinaryFunctorOp.html" target="_top" xlink:title="Class for using two&#45;parameter function objects (like std::functor) for sequential and spatial pixel i...">
<polygon fill="white" stroke="black" points="0,-56.5 0,-75.5 126,-75.5 126,-56.5 0,-56.5"/>
<text text-anchor="middle" x="63" y="-63.5" font-family="Helvetica,sans-Serif" font-size="10.00">BinaryFunctorOp&lt; F &gt;</text>
</a>
</g>
</g>
<!-- Node1&#45;&gt;Node6 -->
<g id="edge5" class="edge">
<title>Node1&#45;&gt;Node6</title>
<path fill="none" stroke="midnightblue" d="M173.97,-108.91C147.09,-98.75 109.36,-84.51 85.55,-75.52"/>
<polygon fill="midnightblue" stroke="midnightblue" points="172.75,-112.19 183.34,-112.44 175.22,-105.64 172.75,-112.19"/>
</g>
<!-- Node7 -->
<g id="node7" class="node">
<title>Node7</title>
<g id="a_node7"><a xlink:href="classdrain_1_1image_1_1UnaryFunctorOp.html" target="_top" xlink:title="Class for using simple function objects (like std::functor) for sequential pixel iteration.">
<polygon fill="white" stroke="black" points="144,-56.5 144,-75.5 268,-75.5 268,-56.5 144,-56.5"/>
<text text-anchor="middle" x="206" y="-63.5" font-family="Helvetica,sans-Serif" font-size="10.00">UnaryFunctorOp&lt; F &gt;</text>
</a>
</g>
</g>
<!-- Node1&#45;&gt;Node7 -->
<g id="edge6" class="edge">
<title>Node1&#45;&gt;Node7</title>
<path fill="none" stroke="midnightblue" d="M206,-101.8C206,-92.91 206,-82.78 206,-75.75"/>
<polygon fill="midnightblue" stroke="midnightblue" points="202.5,-102.08 206,-112.08 209.5,-102.08 202.5,-102.08"/>
</g>
<!-- Node8 -->
<g id="node8" class="node">
<title>Node8</title>
<g id="a_node8"><a xlink:href="classdrain_1_1image_1_1UnaryFunctorOp.html" target="_top" xlink:title=" ">
<polygon fill="white" stroke="black" points="286,-56.5 286,-75.5 410,-75.5 410,-56.5 286,-56.5"/>
<text text-anchor="middle" x="348" y="-63.5" font-family="Helvetica,sans-Serif" font-size="10.00">UnaryFunctorOp&lt; F &gt;</text>
</a>
</g>
</g>
<!-- Node1&#45;&gt;Node8 -->
<g id="edge7" class="edge">
<title>Node1&#45;&gt;Node8</title>
<path fill="none" stroke="midnightblue" d="M238.16,-108.77C264.83,-98.63 302.07,-84.47 325.6,-75.52"/>
<polygon fill="midnightblue" stroke="midnightblue" points="236.6,-105.62 228.5,-112.44 239.09,-112.16 236.6,-105.62"/>
</g>
<!-- Node2 -->
<g id="node2" class="node">
<title>Node2</title>
<g id="a_node2"><a xlink:href="structdrain_1_1image_1_1FunctorWrapper.html" target="_top" xlink:title="Helper class that only ensures that functor is initialized before ImageOp.">
<polygon fill="white" stroke="black" points="90,-168.5 90,-187.5 212,-187.5 212,-168.5 90,-168.5"/>
<text text-anchor="middle" x="151" y="-175.5" font-family="Helvetica,sans-Serif" font-size="10.00">FunctorWrapper&lt; F &gt;</text>
</a>
</g>
</g>
<!-- Node2&#45;&gt;Node1 -->
<g id="edge1" class="edge">
<title>Node2&#45;&gt;Node1</title>
<path fill="none" stroke="midnightblue" d="M167.29,-161C177.04,-151.43 189.05,-139.64 197.09,-131.75"/>
<polygon fill="midnightblue" stroke="midnightblue" points="164.77,-158.58 160.08,-168.08 169.67,-163.57 164.77,-158.58"/>
</g>
<!-- Node3 -->
<g id="node3" class="node">
<title>Node3</title>
<g id="a_node3"><a xlink:href="classdrain_1_1image_1_1ImageOp.html" target="_top" xlink:title="Base class for image processing functions.">
<polygon fill="white" stroke="black" points="230.5,-168.5 230.5,-187.5 291.5,-187.5 291.5,-168.5 230.5,-168.5"/>
<text text-anchor="middle" x="261" y="-175.5" font-family="Helvetica,sans-Serif" font-size="10.00">ImageOp</text>
</a>
</g>
</g>
<!-- Node3&#45;&gt;Node1 -->
<g id="edge2" class="edge">
<title>Node3&#45;&gt;Node1</title>
<path fill="none" stroke="midnightblue" d="M244.71,-161C234.96,-151.43 222.95,-139.64 214.91,-131.75"/>
<polygon fill="midnightblue" stroke="midnightblue" points="242.33,-163.57 251.92,-168.08 247.23,-158.58 242.33,-163.57"/>
</g>
<!-- Node4 -->
<g id="node4" class="node">
<title>Node4</title>
<g id="a_node4"><a xlink:href="classdrain_1_1image_1_1ImageMod.html" target="_top" xlink:title="Class for operations that modify an existing image instead of producing a new image.">
<polygon fill="white" stroke="black" points="227,-224.5 227,-243.5 295,-243.5 295,-224.5 227,-224.5"/>
<text text-anchor="middle" x="261" y="-231.5" font-family="Helvetica,sans-Serif" font-size="10.00">ImageMod</text>
</a>
</g>
</g>
<!-- Node4&#45;&gt;Node3 -->
<g id="edge3" class="edge">
<title>Node4&#45;&gt;Node3</title>
<path fill="none" stroke="midnightblue" d="M261,-213.8C261,-204.91 261,-194.78 261,-187.75"/>
<polygon fill="midnightblue" stroke="midnightblue" points="257.5,-214.08 261,-224.08 264.5,-214.08 257.5,-214.08"/>
</g>
<!-- Node5 -->
<g id="node5" class="node">
<title>Node5</title>
<g id="a_node5"><a xlink:href="classdrain_1_1BeanLike.html" target="_top" xlink:title="Something which has a name, a description and possibly some parameters of varying type.">
<polygon fill="white" stroke="black" points="230.5,-280.5 230.5,-299.5 291.5,-299.5 291.5,-280.5 230.5,-280.5"/>
<text text-anchor="middle" x="261" y="-287.5" font-family="Helvetica,sans-Serif" font-size="10.00">BeanLike</text>
</a>
</g>
</g>
<!-- Node5&#45;&gt;Node4 -->
<g id="edge4" class="edge">
<title>Node5&#45;&gt;Node4</title>
<path fill="none" stroke="midnightblue" d="M261,-269.8C261,-260.91 261,-250.78 261,-243.75"/>
<polygon fill="midnightblue" stroke="midnightblue" points="257.5,-270.08 261,-280.08 264.5,-270.08 257.5,-270.08"/>
</g>
<!-- Node9 -->
<g id="node9" class="node">
<title>Node9</title>
<g id="a_node9"><a xlink:href="classrack_1_1RadarFunctorOp.html" target="_top" xlink:title="Convenience (abbreviation)">
<polygon fill="white" stroke="black" points="286.5,-0.5 286.5,-19.5 409.5,-19.5 409.5,-0.5 286.5,-0.5"/>
<text text-anchor="middle" x="348" y="-7.5" font-family="Helvetica,sans-Serif" font-size="10.00">RadarFunctorOp&lt; F &gt;</text>
</a>
</g>
</g>
<!-- Node8&#45;&gt;Node9 -->
<g id="edge8" class="edge">
<title>Node8&#45;&gt;Node9</title>
<path fill="none" stroke="midnightblue" d="M348,-45.8C348,-36.91 348,-26.78 348,-19.75"/>
<polygon fill="midnightblue" stroke="midnightblue" points="344.5,-46.08 348,-56.08 351.5,-46.08 344.5,-46.08"/>
</g>
</g>
</svg>
