<?xml version="1.0" encoding="UTF-8" standalone="no"?>
<!DOCTYPE svg PUBLIC "-//W3C//DTD SVG 1.1//EN"
 "http://www.w3.org/Graphics/SVG/1.1/DTD/svg11.dtd">
<!-- Generated by graphviz version 2.43.0 (0)
 -->
<!-- Title: DistanceTransformFillLinearOp Pages: 1 -->
<!--zoomable 579 -->
<svg id="main" version="1.1" xmlns="http://www.w3.org/2000/svg" xmlns:xlink="http://www.w3.org/1999/xlink" xml:space="preserve" onload="init(evt)">
<style type="text/css"><![CDATA[
.edge:hover path { stroke: red; }
.edge:hover polygon { stroke: red; fill: red; }
]]></style>
<script type="text/javascript"><![CDATA[
var edges = document.getElementsByTagName('g');
if (edges && edges.length) {
  for (var i=0;i<edges.length;i++) {
    if (edges[i].id.substr(0,4)=='edge') {
      edges[i].setAttribute('class','edge');
    }
  }
}
]]></script>
        <defs>
                <circle id="rim" cx="0" cy="0" r="7"/>
                <circle id="rim2" cx="0" cy="0" r="3.5"/>
                <g id="zoomPlus">
                        <use xlink:href="#rim" fill="#404040">
                                <set attributeName="fill" to="#808080" begin="zoomplus.mouseover" end="zoomplus.mouseout"/>
                        </use>
                        <path d="M-4,0h8M0,-4v8" fill="none" stroke="white" stroke-width="1.5" pointer-events="none"/>
                </g>
                <g id="zoomMin">
                        <use xlink:href="#rim" fill="#404040">
                                <set attributeName="fill" to="#808080" begin="zoomminus.mouseover" end="zoomminus.mouseout"/>
                        </use>
                        <path d="M-4,0h8" fill="none" stroke="white" stroke-width="1.5" pointer-events="none"/>
                </g>
                <g id="dirArrow">
                        <path fill="none" stroke="white" stroke-width="1.5" d="M0,-3.0v7 M-2.5,-0.5L0,-3.0L2.5,-0.5"/>
                </g>
               <g id="resetDef">
                       <use xlink:href="#rim2" fill="#404040">
                               <set attributeName="fill" to="#808080" begin="reset.mouseover" end="reset.mouseout"/>
                       </use>
               </g>
        </defs>

<script type="text/javascript">
var viewWidth = 372;
var viewHeight = 579;
var sectionId = 'dynsection-1';
</script>
<script xlink:href="svgpan.js"/>
<svg id="graph" class="graph">
<g id="viewport">
<title>DistanceTransformFillLinearOp</title>
<polygon fill="white" stroke="transparent" points="-4,4 -4,-575 368,-575 368,4 -4,4"/>
<!-- Node1 -->
<g id="node1" class="node">
<title>Node1</title>
<g id="a_node1"><a xlink:title="Spreeads values using inverse linear distance transform.">
<polygon fill="#bfbfbf" stroke="black" points="147,-0.5 147,-19.5 313,-19.5 313,-0.5 147,-0.5"/>
<text text-anchor="middle" x="230" y="-7.5" font-family="Helvetica,sans-Serif" font-size="10.00">DistanceTransformFillLinearOp</text>
</a>
</g>
</g>
<!-- Node2 -->
<g id="node2" class="node">
<title>Node2</title>
<g id="a_node2"><a xlink:href="classdrain_1_1image_1_1DistanceTransformFillOp.html" target="_top" xlink:title=" ">
<polygon fill="white" stroke="black" points="159,-57.5 159,-87.5 301,-87.5 301,-57.5 159,-57.5"/>
<text text-anchor="start" x="167" y="-75.5" font-family="Helvetica,sans-Serif" font-size="10.00">DistanceTransformFillOp</text>
<text text-anchor="middle" x="230" y="-64.5" font-family="Helvetica,sans-Serif" font-size="10.00">&lt; DistanceModelLinear &gt;</text>
</a>
</g>
</g>
<!-- Node2&#45;&gt;Node1 -->
<g id="edge1" class="edge">
<title>Node2&#45;&gt;Node1</title>
<path fill="none" stroke="midnightblue" d="M230,-47.35C230,-37.51 230,-26.78 230,-19.54"/>
<polygon fill="midnightblue" stroke="midnightblue" points="226.5,-47.47 230,-57.47 233.5,-47.47 226.5,-47.47"/>
</g>
<!-- Node3 -->
<g id="node3" class="node">
<title>Node3</title>
<g id="a_node3"><a xlink:href="classdrain_1_1image_1_1DistanceTransformOp.html" target="_top" xlink:title=" ">
<polygon fill="white" stroke="black" points="89,-135.5 89,-165.5 231,-165.5 231,-135.5 89,-135.5"/>
<text text-anchor="start" x="97" y="-153.5" font-family="Helvetica,sans-Serif" font-size="10.00">DistanceTransformOp</text>
<text text-anchor="middle" x="160" y="-142.5" font-family="Helvetica,sans-Serif" font-size="10.00">&lt; DistanceModelLinear &gt;</text>
</a>
</g>
</g>
<!-- Node3&#45;&gt;Node2 -->
<g id="edge2" class="edge">
<title>Node3&#45;&gt;Node2</title>
<path fill="none" stroke="midnightblue" d="M180.11,-127.67C191.93,-114.83 206.54,-98.97 216.89,-87.73"/>
<polygon fill="midnightblue" stroke="midnightblue" points="177.37,-125.48 173.17,-135.2 182.52,-130.22 177.37,-125.48"/>
</g>
<!-- Node4 -->
<g id="node4" class="node">
<title>Node4</title>
<g id="a_node4"><a xlink:href="classdrain_1_1image_1_1ImageOp.html" target="_top" xlink:title="Base class for image processing functions.">
<polygon fill="white" stroke="black" points="144.5,-213.5 144.5,-232.5 205.5,-232.5 205.5,-213.5 144.5,-213.5"/>
<text text-anchor="middle" x="175" y="-220.5" font-family="Helvetica,sans-Serif" font-size="10.00">ImageOp</text>
</a>
</g>
</g>
<!-- Node4&#45;&gt;Node3 -->
<g id="edge3" class="edge">
<title>Node4&#45;&gt;Node3</title>
<path fill="none" stroke="midnightblue" d="M171.01,-203.24C168.49,-191.41 165.29,-176.38 162.99,-165.58"/>
<polygon fill="midnightblue" stroke="midnightblue" points="167.66,-204.3 173.16,-213.36 174.5,-202.85 167.66,-204.3"/>
</g>
<!-- Node5 -->
<g id="node5" class="node">
<title>Node5</title>
<g id="a_node5"><a xlink:href="classdrain_1_1image_1_1ImageMod.html" target="_top" xlink:title="Class for operations that modify an existing image instead of producing a new image.">
<polygon fill="white" stroke="black" points="141,-270.5 141,-289.5 209,-289.5 209,-270.5 141,-270.5"/>
<text text-anchor="middle" x="175" y="-277.5" font-family="Helvetica,sans-Serif" font-size="10.00">ImageMod</text>
</a>
</g>
</g>
<!-- Node5&#45;&gt;Node4 -->
<g id="edge4" class="edge">
<title>Node5&#45;&gt;Node4</title>
<path fill="none" stroke="midnightblue" d="M175,-260.12C175,-250.82 175,-240.06 175,-232.71"/>
<polygon fill="midnightblue" stroke="midnightblue" points="171.5,-260.41 175,-270.41 178.5,-260.41 171.5,-260.41"/>
</g>
<!-- Node6 -->
<g id="node6" class="node">
<title>Node6</title>
<g id="a_node6"><a xlink:href="classdrain_1_1BeanLike.html" target="_top" xlink:title="Something which has a name, a description and possibly some parameters of varying type.">
<polygon fill="white" stroke="black" points="144.5,-370.5 144.5,-389.5 205.5,-389.5 205.5,-370.5 144.5,-370.5"/>
<text text-anchor="middle" x="175" y="-377.5" font-family="Helvetica,sans-Serif" font-size="10.00">BeanLike</text>
</a>
</g>
</g>
<!-- Node6&#45;&gt;Node5 -->
<g id="edge5" class="edge">
<title>Node6&#45;&gt;Node5</title>
<path fill="none" stroke="midnightblue" d="M175,-360.22C175,-338.95 175,-305.22 175,-289.54"/>
<polygon fill="midnightblue" stroke="midnightblue" points="171.5,-360.3 175,-370.3 178.5,-360.3 171.5,-360.3"/>
</g>
<!-- Node11 -->
<g id="node11" class="node">
<title>Node11</title>
<g id="a_node11"><a xlink:href="classdrain_1_1image_1_1DistanceModel.html" target="_top" xlink:title="Base class for linear and exponential distances in rectangular pixel images.">
<polygon fill="white" stroke="black" points="22.5,-270.5 22.5,-289.5 111.5,-289.5 111.5,-270.5 22.5,-270.5"/>
<text text-anchor="middle" x="67" y="-277.5" font-family="Helvetica,sans-Serif" font-size="10.00">DistanceModel</text>
</a>
</g>
</g>
<!-- Node6&#45;&gt;Node11 -->
<g id="edge11" class="edge">
<title>Node6&#45;&gt;Node11</title>
<path fill="none" stroke="midnightblue" d="M166.03,-361.33C157.33,-345.63 142.84,-322.92 125,-308 115.54,-300.09 103.38,-293.96 92.64,-289.56"/>
<polygon fill="midnightblue" stroke="midnightblue" points="163.11,-363.29 170.89,-370.48 169.29,-360.01 163.11,-363.29"/>
</g>
<!-- Node7 -->
<g id="node7" class="node">
<title>Node7</title>
<g id="a_node7"><a xlink:href="classdrain_1_1ReferenceMap.html" target="_top" xlink:title=" ">
<polygon fill="white" stroke="black" points="134.5,-437.5 134.5,-456.5 221.5,-456.5 221.5,-437.5 134.5,-437.5"/>
<text text-anchor="middle" x="178" y="-444.5" font-family="Helvetica,sans-Serif" font-size="10.00">ReferenceMap</text>
</a>
</g>
</g>
<!-- Node7&#45;&gt;Node6 -->
<g id="edge6" class="edge">
<title>Node7&#45;&gt;Node6</title>
<path fill="none" stroke="#9a32cd" stroke-dasharray="5,2" d="M177.12,-427.04C176.55,-414.67 175.84,-399.12 175.4,-389.63"/>
<polygon fill="#9a32cd" stroke="#9a32cd" points="173.64,-427.41 177.6,-437.23 180.63,-427.08 173.64,-427.41"/>
<text text-anchor="middle" x="207" y="-411" font-family="Helvetica,sans-Serif" font-size="10.00"> parameters</text>
</g>
<!-- Node8 -->
<g id="node8" class="node">
<title>Node8</title>
<g id="a_node8"><a xlink:href="classdrain_1_1SmartMap.html" target="_top" xlink:title=" ">
<polygon fill="white" stroke="black" points="106.5,-494.5 106.5,-513.5 249.5,-513.5 249.5,-494.5 106.5,-494.5"/>
<text text-anchor="middle" x="178" y="-501.5" font-family="Helvetica,sans-Serif" font-size="10.00">SmartMap&lt; Referencer &gt;</text>
</a>
</g>
</g>
<!-- Node8&#45;&gt;Node7 -->
<g id="edge7" class="edge">
<title>Node8&#45;&gt;Node7</title>
<path fill="none" stroke="midnightblue" d="M178,-484.12C178,-474.82 178,-464.06 178,-456.71"/>
<polygon fill="midnightblue" stroke="midnightblue" points="174.5,-484.41 178,-494.41 181.5,-484.41 174.5,-484.41"/>
</g>
<!-- Node9 -->
<g id="node9" class="node">
<title>Node9</title>
<g id="a_node9"><a xlink:title=" ">
<polygon fill="white" stroke="#bfbfbf" points="93.5,-551.5 93.5,-570.5 262.5,-570.5 262.5,-551.5 93.5,-551.5"/>
<text text-anchor="middle" x="178" y="-558.5" font-family="Helvetica,sans-Serif" font-size="10.00">map&lt; std::string, Referencer &gt;</text>
</a>
</g>
</g>
<!-- Node9&#45;&gt;Node8 -->
<g id="edge8" class="edge">
<title>Node9&#45;&gt;Node8</title>
<path fill="none" stroke="midnightblue" d="M178,-541.12C178,-531.82 178,-521.06 178,-513.71"/>
<polygon fill="midnightblue" stroke="midnightblue" points="174.5,-541.41 178,-551.41 181.5,-541.41 174.5,-541.41"/>
</g>
<!-- Node10 -->
<g id="node10" class="node">
<title>Node10</title>
<g id="a_node10"><a xlink:href="classdrain_1_1image_1_1DistanceModelLinear.html" target="_top" xlink:title=" ">
<polygon fill="white" stroke="black" points="7.5,-213.5 7.5,-232.5 126.5,-232.5 126.5,-213.5 7.5,-213.5"/>
<text text-anchor="middle" x="67" y="-220.5" font-family="Helvetica,sans-Serif" font-size="10.00">DistanceModelLinear</text>
</a>
</g>
</g>
<!-- Node10&#45;&gt;Node3 -->
<g id="edge9" class="edge">
<title>Node10&#45;&gt;Node3</title>
<path fill="none" stroke="#9a32cd" stroke-dasharray="5,2" d="M74.5,-204.04C78.08,-197.09 82.94,-189.51 89,-184 97.33,-176.43 107.72,-170.36 117.96,-165.6"/>
<polygon fill="#9a32cd" stroke="#9a32cd" points="71.17,-202.89 70.15,-213.44 77.53,-205.83 71.17,-202.89"/>
<text text-anchor="middle" x="126.5" y="-187" font-family="Helvetica,sans-Serif" font-size="10.00"> distanceModel</text>
</g>
<!-- Node11&#45;&gt;Node10 -->
<g id="edge10" class="edge">
<title>Node11&#45;&gt;Node10</title>
<path fill="none" stroke="midnightblue" d="M67,-260.12C67,-250.82 67,-240.06 67,-232.71"/>
<polygon fill="midnightblue" stroke="midnightblue" points="63.5,-260.41 67,-270.41 70.5,-260.41 63.5,-260.41"/>
</g>
<!-- Node12 -->
<g id="node12" class="node">
<title>Node12</title>
<g id="a_node12"><a xlink:href="classdrain_1_1Bidirectional.html" target="_top" xlink:title=" ">
<polygon fill="white" stroke="black" points="1.5,-370.5 1.5,-389.5 124.5,-389.5 124.5,-370.5 1.5,-370.5"/>
<text text-anchor="middle" x="63" y="-377.5" font-family="Helvetica,sans-Serif" font-size="10.00">Bidirectional&lt; float &gt;</text>
</a>
</g>
</g>
<!-- Node12&#45;&gt;Node11 -->
<g id="edge12" class="edge">
<title>Node12&#45;&gt;Node11</title>
<path fill="none" stroke="#9a32cd" stroke-dasharray="5,2" d="M63.77,-360.22C64.63,-338.95 66.01,-305.22 66.65,-289.54"/>
<polygon fill="#9a32cd" stroke="#9a32cd" points="60.27,-360.17 63.35,-370.3 67.26,-360.45 60.27,-360.17"/>
<text text-anchor="middle" x="93.5" y="-344" font-family="Helvetica,sans-Serif" font-size="10.00"> vertDec</text>
<text text-anchor="middle" x="93.5" y="-333" font-family="Helvetica,sans-Serif" font-size="10.00">horzDec</text>
<text text-anchor="middle" x="93.5" y="-322" font-family="Helvetica,sans-Serif" font-size="10.00">vertRadius</text>
<text text-anchor="middle" x="93.5" y="-311" font-family="Helvetica,sans-Serif" font-size="10.00">horzRadius</text>
</g>
<!-- Node13 -->
<g id="node13" class="node">
<title>Node13</title>
<g id="a_node13"><a xlink:href="classdrain_1_1UniTuple.html" target="_top" xlink:title=" ">
<polygon fill="white" stroke="black" points="0,-437.5 0,-456.5 116,-456.5 116,-437.5 0,-437.5"/>
<text text-anchor="middle" x="58" y="-444.5" font-family="Helvetica,sans-Serif" font-size="10.00">UniTuple&lt; float, 2 &gt;</text>
</a>
</g>
</g>
<!-- Node13&#45;&gt;Node12 -->
<g id="edge13" class="edge">
<title>Node13&#45;&gt;Node12</title>
<path fill="none" stroke="midnightblue" d="M59.46,-427.04C60.41,-414.67 61.61,-399.12 62.34,-389.63"/>
<polygon fill="midnightblue" stroke="midnightblue" points="55.95,-426.99 58.67,-437.23 62.93,-427.53 55.95,-426.99"/>
</g>
<!-- Node14 -->
<g id="node14" class="node">
<title>Node14</title>
<g id="a_node14"><a xlink:href="classdrain_1_1Range.html" target="_top" xlink:title=" ">
<polygon fill="white" stroke="black" points="249.5,-141 249.5,-160 352.5,-160 352.5,-141 249.5,-141"/>
<text text-anchor="middle" x="301" y="-148" font-family="Helvetica,sans-Serif" font-size="10.00">Range&lt; double &gt;</text>
</a>
</g>
</g>
<!-- Node14&#45;&gt;Node2 -->
<g id="edge14" class="edge">
<title>Node14&#45;&gt;Node2</title>
<path fill="none" stroke="#9a32cd" stroke-dasharray="5,2" d="M285.72,-133.14C273.02,-119.55 255.15,-100.42 243.1,-87.52"/>
<polygon fill="#9a32cd" stroke="#9a32cd" points="283.47,-135.86 292.86,-140.78 288.59,-131.09 283.47,-135.86"/>
<text text-anchor="middle" x="309.5" y="-109" font-family="Helvetica,sans-Serif" font-size="10.00"> alphaThreshold</text>
</g>
<!-- Node15 -->
<g id="node15" class="node">
<title>Node15</title>
<g id="a_node15"><a xlink:href="classdrain_1_1UniTuple.html" target="_top" xlink:title=" ">
<polygon fill="white" stroke="black" points="238,-213.5 238,-232.5 364,-232.5 364,-213.5 238,-213.5"/>
<text text-anchor="middle" x="301" y="-220.5" font-family="Helvetica,sans-Serif" font-size="10.00">UniTuple&lt; double, 2 &gt;</text>
</a>
</g>
</g>
<!-- Node15&#45;&gt;Node14 -->
<g id="edge15" class="edge">
<title>Node15&#45;&gt;Node14</title>
<path fill="none" stroke="midnightblue" d="M301,-202.94C301,-189.03 301,-170.82 301,-160.22"/>
<polygon fill="midnightblue" stroke="midnightblue" points="297.5,-203.36 301,-213.36 304.5,-203.36 297.5,-203.36"/>
</g>
</g>
</svg>
        <g id="navigator" transform="translate(0 0)" fill="#404254">
                <rect fill="#f2f5e9" fill-opacity="0.5" stroke="#606060" stroke-width=".5" x="0" y="0" width="60" height="60"/>
                <use id="zoomplus" xlink:href="#zoomPlus" x="17" y="9" onmousedown="handleZoom(evt,'in')"/>
                <use id="zoomminus" xlink:href="#zoomMin" x="42" y="9" onmousedown="handleZoom(evt,'out')"/>
                <use id="reset" xlink:href="#resetDef" x="30" y="36" onmousedown="handleReset()"/>
                <g id="arrowUp" xlink:href="#dirArrow" transform="translate(30 24)" onmousedown="handlePan(0,-1)">
                  <use xlink:href="#rim" fill="#404040">
                        <set attributeName="fill" to="#808080" begin="arrowUp.mouseover" end="arrowUp.mouseout"/>
                  </use>
                  <path fill="none" stroke="white" stroke-width="1.5" d="M0,-3.0v7 M-2.5,-0.5L0,-3.0L2.5,-0.5"/>
                </g>
                <g id="arrowRight" xlink:href="#dirArrow" transform="rotate(90) translate(36 -43)" onmousedown="handlePan(1,0)">
                  <use xlink:href="#rim" fill="#404040">
                        <set attributeName="fill" to="#808080" begin="arrowRight.mouseover" end="arrowRight.mouseout"/>
                  </use>
                  <path fill="none" stroke="white" stroke-width="1.5" d="M0,-3.0v7 M-2.5,-0.5L0,-3.0L2.5,-0.5"/>
                </g>
                <g id="arrowDown" xlink:href="#dirArrow" transform="rotate(180) translate(-30 -48)" onmousedown="handlePan(0,1)">
                  <use xlink:href="#rim" fill="#404040">
                        <set attributeName="fill" to="#808080" begin="arrowDown.mouseover" end="arrowDown.mouseout"/>
                  </use>
                  <path fill="none" stroke="white" stroke-width="1.5" d="M0,-3.0v7 M-2.5,-0.5L0,-3.0L2.5,-0.5"/>
                </g>
                <g id="arrowLeft" xlink:href="#dirArrow" transform="rotate(270) translate(-36 17)" onmousedown="handlePan(-1,0)">
                  <use xlink:href="#rim" fill="#404040">
                        <set attributeName="fill" to="#808080" begin="arrowLeft.mouseover" end="arrowLeft.mouseout"/>
                  </use>
                  <path fill="none" stroke="white" stroke-width="1.5" d="M0,-3.0v7 M-2.5,-0.5L0,-3.0L2.5,-0.5"/>
                </g>
        </g>
        <svg viewBox="0 0 15 15" width="100%" height="30px" preserveAspectRatio="xMaxYMin meet">
         <g id="arrow_out" transform="scale(0.3 0.3)">
          <a xlink:href="classdrain_1_1image_1_1DistanceTransformFillLinearOp__coll__graph_org.svg" target="_base">
           <rect id="button" ry="5" rx="5" y="6" x="6" height="38" width="38"
                fill="#f2f5e9" fill-opacity="0.5" stroke="#606060" stroke-width="1.0"/>
           <path id="arrow"
             d="M 11.500037,31.436501 C 11.940474,20.09759 22.043105,11.32322 32.158766,21.979434 L 37.068811,17.246167 C 37.068811,17.246167 37.088388,32 37.088388,32 L 22.160133,31.978069 C 22.160133,31.978069 26.997745,27.140456 26.997745,27.140456 C 18.528582,18.264221 13.291696,25.230495 11.500037,31.436501 z"
             style="fill:#404040;"/>
          </a>
         </g>
        </svg>
</svg>
