<?xml version="1.0" encoding="UTF-8" standalone="no"?>
<!DOCTYPE svg PUBLIC "-//W3C//DTD SVG 1.1//EN"
 "http://www.w3.org/Graphics/SVG/1.1/DTD/svg11.dtd">
<!-- Generated by graphviz version 2.43.0 (0)
 -->
<!-- Title: ImageView Pages: 1 -->
<svg width="89pt" height="196pt"
 viewBox="0.00 0.00 89.00 196.00" xmlns="http://www.w3.org/2000/svg" xmlns:xlink="http://www.w3.org/1999/xlink">
<g id="graph0" class="graph" transform="scale(1 1) rotate(0) translate(4 192)">
<title>ImageView</title>
<polygon fill="white" stroke="transparent" points="-4,4 -4,-192 85,-192 85,4 -4,4"/>
<!-- Node1 -->
<g id="node1" class="node">
<title>Node1</title>
<g id="a_node1"><a xlink:title="ImageFrame that also has channels.">
<polygon fill="#bfbfbf" stroke="black" points="5,-0.5 5,-19.5 76,-19.5 76,-0.5 5,-0.5"/>
<text text-anchor="middle" x="40.5" y="-7.5" font-family="Helvetica,sans-Serif" font-size="10.00">ImageView</text>
</a>
</g>
</g>
<!-- Node2 -->
<g id="node2" class="node">
<title>Node2</title>
<g id="a_node2"><a xlink:href="classdrain_1_1image_1_1MultiChannel.html" target="_top" xlink:title="Multi&#45;channel ImageFrame.">
<polygon fill="white" stroke="black" points="0,-56.5 0,-75.5 81,-75.5 81,-56.5 0,-56.5"/>
<text text-anchor="middle" x="40.5" y="-63.5" font-family="Helvetica,sans-Serif" font-size="10.00">MultiChannel</text>
</a>
</g>
</g>
<!-- Node2&#45;&gt;Node1 -->
<g id="edge1" class="edge">
<title>Node2&#45;&gt;Node1</title>
<path fill="none" stroke="midnightblue" d="M40.5,-45.8C40.5,-36.91 40.5,-26.78 40.5,-19.75"/>
<polygon fill="midnightblue" stroke="midnightblue" points="37,-46.08 40.5,-56.08 44,-46.08 37,-46.08"/>
</g>
<!-- Node3 -->
<g id="node3" class="node">
<title>Node3</title>
<g id="a_node3"><a xlink:href="classdrain_1_1image_1_1ImageFrame.html" target="_top" xlink:title="Image with static geometry.">
<polygon fill="white" stroke="black" points="1.5,-112.5 1.5,-131.5 79.5,-131.5 79.5,-112.5 1.5,-112.5"/>
<text text-anchor="middle" x="40.5" y="-119.5" font-family="Helvetica,sans-Serif" font-size="10.00">ImageFrame</text>
</a>
</g>
</g>
<!-- Node3&#45;&gt;Node2 -->
<g id="edge2" class="edge">
<title>Node3&#45;&gt;Node2</title>
<path fill="none" stroke="midnightblue" d="M40.5,-101.8C40.5,-92.91 40.5,-82.78 40.5,-75.75"/>
<polygon fill="midnightblue" stroke="midnightblue" points="37,-102.08 40.5,-112.08 44,-102.08 37,-102.08"/>
</g>
<!-- Node4 -->
<g id="node4" class="node">
<title>Node4</title>
<g id="a_node4"><a xlink:href="classdrain_1_1image_1_1ImageLike.html" target="_top" xlink:title="A base class for images.">
<polygon fill="white" stroke="black" points="7,-168.5 7,-187.5 74,-187.5 74,-168.5 7,-168.5"/>
<text text-anchor="middle" x="40.5" y="-175.5" font-family="Helvetica,sans-Serif" font-size="10.00">ImageLike</text>
</a>
</g>
</g>
<!-- Node4&#45;&gt;Node3 -->
<g id="edge3" class="edge">
<title>Node4&#45;&gt;Node3</title>
<path fill="none" stroke="midnightblue" d="M40.5,-157.8C40.5,-148.91 40.5,-138.78 40.5,-131.75"/>
<polygon fill="midnightblue" stroke="midnightblue" points="37,-158.08 40.5,-168.08 44,-158.08 37,-158.08"/>
</g>
</g>
</svg>
