<?xml version="1.0" encoding="UTF-8" standalone="no"?>
<!DOCTYPE svg PUBLIC "-//W3C//DTD SVG 1.1//EN"
 "http://www.w3.org/Graphics/SVG/1.1/DTD/svg11.dtd">
<!-- Generated by graphviz version 2.43.0 (0)
 -->
<!-- Title: CopyOp Pages: 1 -->
<svg width="256pt" height="637pt"
 viewBox="0.00 0.00 256.00 637.00" xmlns="http://www.w3.org/2000/svg" xmlns:xlink="http://www.w3.org/1999/xlink">
<g id="graph0" class="graph" transform="scale(1 1) rotate(0) translate(4 633)">
<title>CopyOp</title>
<polygon fill="white" stroke="transparent" points="-4,4 -4,-633 252,-633 252,4 -4,4"/>
<!-- Node1 -->
<g id="node1" class="node">
<title>Node1</title>
<g id="a_node1"><a xlink:title=" ">
<polygon fill="#bfbfbf" stroke="black" points="119,-0.5 119,-19.5 174,-19.5 174,-0.5 119,-0.5"/>
<text text-anchor="middle" x="146.5" y="-7.5" font-family="Helvetica,sans-Serif" font-size="10.00">CopyOp</text>
</a>
</g>
</g>
<!-- Node2 -->
<g id="node2" class="node">
<title>Node2</title>
<g id="a_node2"><a xlink:href="classdrain_1_1image_1_1UnaryFunctorOp.html" target="_top" xlink:title=" ">
<polygon fill="white" stroke="black" points="57,-57.5 57,-76.5 236,-76.5 236,-57.5 57,-57.5"/>
<text text-anchor="middle" x="146.5" y="-64.5" font-family="Helvetica,sans-Serif" font-size="10.00">UnaryFunctorOp&lt; CopyFunctor &gt;</text>
</a>
</g>
</g>
<!-- Node2&#45;&gt;Node1 -->
<g id="edge1" class="edge">
<title>Node2&#45;&gt;Node1</title>
<path fill="none" stroke="midnightblue" d="M146.5,-47.12C146.5,-37.82 146.5,-27.06 146.5,-19.71"/>
<polygon fill="midnightblue" stroke="midnightblue" points="143,-47.41 146.5,-57.41 150,-47.41 143,-47.41"/>
</g>
<!-- Node3 -->
<g id="node3" class="node">
<title>Node3</title>
<g id="a_node3"><a xlink:href="classdrain_1_1image_1_1FunctorOp.html" target="_top" xlink:title=" ">
<polygon fill="white" stroke="black" points="72,-114.5 72,-133.5 221,-133.5 221,-114.5 72,-114.5"/>
<text text-anchor="middle" x="146.5" y="-121.5" font-family="Helvetica,sans-Serif" font-size="10.00">FunctorOp&lt; CopyFunctor &gt;</text>
</a>
</g>
</g>
<!-- Node3&#45;&gt;Node2 -->
<g id="edge2" class="edge">
<title>Node3&#45;&gt;Node2</title>
<path fill="none" stroke="midnightblue" d="M146.5,-104.12C146.5,-94.82 146.5,-84.06 146.5,-76.71"/>
<polygon fill="midnightblue" stroke="midnightblue" points="143,-104.41 146.5,-114.41 150,-104.41 143,-104.41"/>
</g>
<!-- Node4 -->
<g id="node4" class="node">
<title>Node4</title>
<g id="a_node4"><a xlink:href="structdrain_1_1image_1_1FunctorWrapper.html" target="_top" xlink:title=" ">
<polygon fill="white" stroke="black" points="0,-171.5 0,-190.5 177,-190.5 177,-171.5 0,-171.5"/>
<text text-anchor="middle" x="88.5" y="-178.5" font-family="Helvetica,sans-Serif" font-size="10.00">FunctorWrapper&lt; CopyFunctor &gt;</text>
</a>
</g>
</g>
<!-- Node4&#45;&gt;Node3 -->
<g id="edge3" class="edge">
<title>Node4&#45;&gt;Node3</title>
<path fill="none" stroke="midnightblue" d="M104.93,-164.42C115.42,-154.47 128.63,-141.94 137.31,-133.71"/>
<polygon fill="midnightblue" stroke="midnightblue" points="102.41,-161.99 97.56,-171.41 107.23,-167.06 102.41,-161.99"/>
</g>
<!-- Node5 -->
<g id="node5" class="node">
<title>Node5</title>
<g id="a_node5"><a xlink:href="classdrain_1_1image_1_1CopyFunctor.html" target="_top" xlink:title=" ">
<polygon fill="white" stroke="black" points="52,-238.5 52,-257.5 129,-257.5 129,-238.5 52,-238.5"/>
<text text-anchor="middle" x="90.5" y="-245.5" font-family="Helvetica,sans-Serif" font-size="10.00">CopyFunctor</text>
</a>
</g>
</g>
<!-- Node5&#45;&gt;Node4 -->
<g id="edge4" class="edge">
<title>Node5&#45;&gt;Node4</title>
<path fill="none" stroke="#9a32cd" stroke-dasharray="5,2" d="M89.92,-228.04C89.54,-215.67 89.06,-200.12 88.77,-190.63"/>
<polygon fill="#9a32cd" stroke="#9a32cd" points="86.42,-228.35 90.23,-238.23 93.42,-228.13 86.42,-228.35"/>
<text text-anchor="middle" x="109.5" y="-212" font-family="Helvetica,sans-Serif" font-size="10.00"> functor</text>
</g>
<!-- Node6 -->
<g id="node6" class="node">
<title>Node6</title>
<g id="a_node6"><a xlink:href="structdrain_1_1UnaryFunctor.html" target="_top" xlink:title=" ">
<polygon fill="white" stroke="black" points="56.5,-314.5 56.5,-333.5 138.5,-333.5 138.5,-314.5 56.5,-314.5"/>
<text text-anchor="middle" x="97.5" y="-321.5" font-family="Helvetica,sans-Serif" font-size="10.00">UnaryFunctor</text>
</a>
</g>
</g>
<!-- Node6&#45;&gt;Node5 -->
<g id="edge5" class="edge">
<title>Node6&#45;&gt;Node5</title>
<path fill="none" stroke="midnightblue" d="M95.71,-304.07C94.3,-289.18 92.4,-269.11 91.33,-257.77"/>
<polygon fill="midnightblue" stroke="midnightblue" points="92.24,-304.59 96.67,-314.22 99.21,-303.94 92.24,-304.59"/>
</g>
<!-- Node7 -->
<g id="node7" class="node">
<title>Node7</title>
<g id="a_node7"><a xlink:href="classdrain_1_1Functor.html" target="_top" xlink:title="Base class for sequential computations. Optional scaling utilities.">
<polygon fill="white" stroke="black" points="98,-371.5 98,-390.5 151,-390.5 151,-371.5 98,-371.5"/>
<text text-anchor="middle" x="124.5" y="-378.5" font-family="Helvetica,sans-Serif" font-size="10.00">Functor</text>
</a>
</g>
</g>
<!-- Node7&#45;&gt;Node6 -->
<g id="edge6" class="edge">
<title>Node7&#45;&gt;Node6</title>
<path fill="none" stroke="midnightblue" d="M115.83,-362.33C111.13,-352.77 105.54,-341.38 101.78,-333.71"/>
<polygon fill="midnightblue" stroke="midnightblue" points="112.73,-363.97 120.28,-371.41 119.02,-360.89 112.73,-363.97"/>
</g>
<!-- Node8 -->
<g id="node8" class="node">
<title>Node8</title>
<g id="a_node8"><a xlink:href="classdrain_1_1BeanLike.html" target="_top" xlink:title="Something which has a name, a description and possibly some parameters of varying type.">
<polygon fill="white" stroke="black" points="133,-428.5 133,-447.5 194,-447.5 194,-428.5 133,-428.5"/>
<text text-anchor="middle" x="163.5" y="-435.5" font-family="Helvetica,sans-Serif" font-size="10.00">BeanLike</text>
</a>
</g>
</g>
<!-- Node8&#45;&gt;Node7 -->
<g id="edge7" class="edge">
<title>Node8&#45;&gt;Node7</title>
<path fill="none" stroke="midnightblue" d="M151.61,-420.23C144.7,-410.49 136.29,-398.62 130.68,-390.71"/>
<polygon fill="midnightblue" stroke="midnightblue" points="148.77,-422.27 157.41,-428.41 154.48,-418.22 148.77,-422.27"/>
</g>
<!-- Node13 -->
<g id="node13" class="node">
<title>Node13</title>
<g id="a_node13"><a xlink:href="classdrain_1_1image_1_1ImageMod.html" target="_top" xlink:title="Class for operations that modify an existing image instead of producing a new image.">
<polygon fill="white" stroke="black" points="169.5,-371.5 169.5,-390.5 237.5,-390.5 237.5,-371.5 169.5,-371.5"/>
<text text-anchor="middle" x="203.5" y="-378.5" font-family="Helvetica,sans-Serif" font-size="10.00">ImageMod</text>
</a>
</g>
</g>
<!-- Node8&#45;&gt;Node13 -->
<g id="edge13" class="edge">
<title>Node8&#45;&gt;Node13</title>
<path fill="none" stroke="midnightblue" d="M175.69,-420.23C182.78,-410.49 191.41,-398.62 197.16,-390.71"/>
<polygon fill="midnightblue" stroke="midnightblue" points="172.8,-418.26 169.75,-428.41 178.46,-422.38 172.8,-418.26"/>
</g>
<!-- Node9 -->
<g id="node9" class="node">
<title>Node9</title>
<g id="a_node9"><a xlink:href="classdrain_1_1ReferenceMap.html" target="_top" xlink:title=" ">
<polygon fill="white" stroke="black" points="120,-495.5 120,-514.5 207,-514.5 207,-495.5 120,-495.5"/>
<text text-anchor="middle" x="163.5" y="-502.5" font-family="Helvetica,sans-Serif" font-size="10.00">ReferenceMap</text>
</a>
</g>
</g>
<!-- Node9&#45;&gt;Node8 -->
<g id="edge8" class="edge">
<title>Node9&#45;&gt;Node8</title>
<path fill="none" stroke="#9a32cd" stroke-dasharray="5,2" d="M163.5,-485.04C163.5,-472.67 163.5,-457.12 163.5,-447.63"/>
<polygon fill="#9a32cd" stroke="#9a32cd" points="160,-485.23 163.5,-495.23 167,-485.23 160,-485.23"/>
<text text-anchor="middle" x="193.5" y="-469" font-family="Helvetica,sans-Serif" font-size="10.00"> parameters</text>
</g>
<!-- Node10 -->
<g id="node10" class="node">
<title>Node10</title>
<g id="a_node10"><a xlink:href="classdrain_1_1SmartMap.html" target="_top" xlink:title=" ">
<polygon fill="white" stroke="black" points="92,-552.5 92,-571.5 235,-571.5 235,-552.5 92,-552.5"/>
<text text-anchor="middle" x="163.5" y="-559.5" font-family="Helvetica,sans-Serif" font-size="10.00">SmartMap&lt; Referencer &gt;</text>
</a>
</g>
</g>
<!-- Node10&#45;&gt;Node9 -->
<g id="edge9" class="edge">
<title>Node10&#45;&gt;Node9</title>
<path fill="none" stroke="midnightblue" d="M163.5,-542.12C163.5,-532.82 163.5,-522.06 163.5,-514.71"/>
<polygon fill="midnightblue" stroke="midnightblue" points="160,-542.41 163.5,-552.41 167,-542.41 160,-542.41"/>
</g>
<!-- Node11 -->
<g id="node11" class="node">
<title>Node11</title>
<g id="a_node11"><a xlink:title=" ">
<polygon fill="white" stroke="#bfbfbf" points="79,-609.5 79,-628.5 248,-628.5 248,-609.5 79,-609.5"/>
<text text-anchor="middle" x="163.5" y="-616.5" font-family="Helvetica,sans-Serif" font-size="10.00">map&lt; std::string, Referencer &gt;</text>
</a>
</g>
</g>
<!-- Node11&#45;&gt;Node10 -->
<g id="edge10" class="edge">
<title>Node11&#45;&gt;Node10</title>
<path fill="none" stroke="midnightblue" d="M163.5,-599.12C163.5,-589.82 163.5,-579.06 163.5,-571.71"/>
<polygon fill="midnightblue" stroke="midnightblue" points="160,-599.41 163.5,-609.41 167,-599.41 160,-599.41"/>
</g>
<!-- Node12 -->
<g id="node12" class="node">
<title>Node12</title>
<g id="a_node12"><a xlink:href="classdrain_1_1image_1_1ImageOp.html" target="_top" xlink:title="Base class for image processing functions.">
<polygon fill="white" stroke="black" points="173,-276.5 173,-295.5 234,-295.5 234,-276.5 173,-276.5"/>
<text text-anchor="middle" x="203.5" y="-283.5" font-family="Helvetica,sans-Serif" font-size="10.00">ImageOp</text>
</a>
</g>
</g>
<!-- Node12&#45;&gt;Node3 -->
<g id="edge11" class="edge">
<title>Node12&#45;&gt;Node3</title>
<path fill="none" stroke="midnightblue" d="M203.59,-265.98C203.02,-242.59 199.79,-202.16 185.5,-171 178.69,-156.15 165.7,-142.32 156.59,-133.78"/>
<polygon fill="midnightblue" stroke="midnightblue" points="200.09,-266.29 203.69,-276.25 207.09,-266.22 200.09,-266.29"/>
</g>
<!-- Node13&#45;&gt;Node12 -->
<g id="edge12" class="edge">
<title>Node13&#45;&gt;Node12</title>
<path fill="none" stroke="midnightblue" d="M203.5,-361.34C203.5,-341.33 203.5,-310.43 203.5,-295.56"/>
<polygon fill="midnightblue" stroke="midnightblue" points="200,-361.42 203.5,-371.42 207,-361.42 200,-361.42"/>
</g>
</g>
</svg>
