<?xml version="1.0" encoding="UTF-8" standalone="no"?>
<!DOCTYPE svg PUBLIC "-//W3C//DTD SVG 1.1//EN"
 "http://www.w3.org/Graphics/SVG/1.1/DTD/svg11.dtd">
<!-- Generated by graphviz version 2.43.0 (0)
 -->
<!-- Title: FuzzyTriangle&lt; T &gt; Pages: 1 -->
<svg width="278pt" height="458pt"
 viewBox="0.00 0.00 277.50 458.00" xmlns="http://www.w3.org/2000/svg" xmlns:xlink="http://www.w3.org/1999/xlink">
<g id="graph0" class="graph" transform="scale(1 1) rotate(0) translate(4 454)">
<title>FuzzyTriangle&lt; T &gt;</title>
<polygon fill="white" stroke="transparent" points="-4,4 -4,-454 273.5,-454 273.5,4 -4,4"/>
<!-- Node1 -->
<g id="node1" class="node">
<title>Node1</title>
<g id="a_node1"><a xlink:title="A basic triangular peak function with linear around the peak.">
<polygon fill="#bfbfbf" stroke="black" points="90.5,-0.5 90.5,-19.5 202.5,-19.5 202.5,-0.5 90.5,-0.5"/>
<text text-anchor="middle" x="146.5" y="-7.5" font-family="Helvetica,sans-Serif" font-size="10.00">FuzzyTriangle&lt; T &gt;</text>
</a>
</g>
</g>
<!-- Node2 -->
<g id="node2" class="node">
<title>Node2</title>
<g id="a_node2"><a xlink:href="classdrain_1_1Fuzzifier.html" target="_top" xlink:title="A base class for fuzzy functions; also an unary functor.">
<polygon fill="white" stroke="black" points="47.5,-78.5 47.5,-97.5 133.5,-97.5 133.5,-78.5 47.5,-78.5"/>
<text text-anchor="middle" x="90.5" y="-85.5" font-family="Helvetica,sans-Serif" font-size="10.00">Fuzzifier&lt; T &gt;</text>
</a>
</g>
</g>
<!-- Node2&#45;&gt;Node1 -->
<g id="edge1" class="edge">
<title>Node2&#45;&gt;Node1</title>
<path fill="none" stroke="midnightblue" d="M103.02,-70.01C114.54,-54.37 131.16,-31.81 140.15,-19.62"/>
<polygon fill="midnightblue" stroke="midnightblue" points="100.04,-68.16 96.92,-78.28 105.67,-72.31 100.04,-68.16"/>
</g>
<!-- Node3 -->
<g id="node3" class="node">
<title>Node3</title>
<g id="a_node3"><a xlink:href="structdrain_1_1UnaryFunctor.html" target="_top" xlink:title=" ">
<polygon fill="white" stroke="black" points="43.5,-135.5 43.5,-154.5 125.5,-154.5 125.5,-135.5 43.5,-135.5"/>
<text text-anchor="middle" x="84.5" y="-142.5" font-family="Helvetica,sans-Serif" font-size="10.00">UnaryFunctor</text>
</a>
</g>
</g>
<!-- Node3&#45;&gt;Node2 -->
<g id="edge2" class="edge">
<title>Node3&#45;&gt;Node2</title>
<path fill="none" stroke="midnightblue" d="M86.53,-125.42C87.55,-116.05 88.74,-105.14 89.55,-97.71"/>
<polygon fill="midnightblue" stroke="midnightblue" points="83.04,-125.09 85.44,-135.41 90,-125.84 83.04,-125.09"/>
</g>
<!-- Node4 -->
<g id="node4" class="node">
<title>Node4</title>
<g id="a_node4"><a xlink:href="classdrain_1_1Functor.html" target="_top" xlink:title="Base class for sequential computations. Optional scaling utilities.">
<polygon fill="white" stroke="black" points="58,-192.5 58,-211.5 111,-211.5 111,-192.5 58,-192.5"/>
<text text-anchor="middle" x="84.5" y="-199.5" font-family="Helvetica,sans-Serif" font-size="10.00">Functor</text>
</a>
</g>
</g>
<!-- Node4&#45;&gt;Node3 -->
<g id="edge3" class="edge">
<title>Node4&#45;&gt;Node3</title>
<path fill="none" stroke="midnightblue" d="M84.5,-182.12C84.5,-172.82 84.5,-162.06 84.5,-154.71"/>
<polygon fill="midnightblue" stroke="midnightblue" points="81,-182.41 84.5,-192.41 88,-182.41 81,-182.41"/>
</g>
<!-- Node5 -->
<g id="node5" class="node">
<title>Node5</title>
<g id="a_node5"><a xlink:href="classdrain_1_1BeanLike.html" target="_top" xlink:title="Something which has a name, a description and possibly some parameters of varying type.">
<polygon fill="white" stroke="black" points="54,-249.5 54,-268.5 115,-268.5 115,-249.5 54,-249.5"/>
<text text-anchor="middle" x="84.5" y="-256.5" font-family="Helvetica,sans-Serif" font-size="10.00">BeanLike</text>
</a>
</g>
</g>
<!-- Node5&#45;&gt;Node4 -->
<g id="edge4" class="edge">
<title>Node5&#45;&gt;Node4</title>
<path fill="none" stroke="midnightblue" d="M84.5,-239.12C84.5,-229.82 84.5,-219.06 84.5,-211.71"/>
<polygon fill="midnightblue" stroke="midnightblue" points="81,-239.41 84.5,-249.41 88,-239.41 81,-239.41"/>
</g>
<!-- Node6 -->
<g id="node6" class="node">
<title>Node6</title>
<g id="a_node6"><a xlink:href="classdrain_1_1ReferenceMap.html" target="_top" xlink:title=" ">
<polygon fill="white" stroke="black" points="41,-316.5 41,-335.5 128,-335.5 128,-316.5 41,-316.5"/>
<text text-anchor="middle" x="84.5" y="-323.5" font-family="Helvetica,sans-Serif" font-size="10.00">ReferenceMap</text>
</a>
</g>
</g>
<!-- Node6&#45;&gt;Node5 -->
<g id="edge5" class="edge">
<title>Node6&#45;&gt;Node5</title>
<path fill="none" stroke="#9a32cd" stroke-dasharray="5,2" d="M84.5,-306.04C84.5,-293.67 84.5,-278.12 84.5,-268.63"/>
<polygon fill="#9a32cd" stroke="#9a32cd" points="81,-306.23 84.5,-316.23 88,-306.23 81,-306.23"/>
<text text-anchor="middle" x="114.5" y="-290" font-family="Helvetica,sans-Serif" font-size="10.00"> parameters</text>
</g>
<!-- Node7 -->
<g id="node7" class="node">
<title>Node7</title>
<g id="a_node7"><a xlink:href="classdrain_1_1SmartMap.html" target="_top" xlink:title=" ">
<polygon fill="white" stroke="black" points="13,-373.5 13,-392.5 156,-392.5 156,-373.5 13,-373.5"/>
<text text-anchor="middle" x="84.5" y="-380.5" font-family="Helvetica,sans-Serif" font-size="10.00">SmartMap&lt; Referencer &gt;</text>
</a>
</g>
</g>
<!-- Node7&#45;&gt;Node6 -->
<g id="edge6" class="edge">
<title>Node7&#45;&gt;Node6</title>
<path fill="none" stroke="midnightblue" d="M84.5,-363.12C84.5,-353.82 84.5,-343.06 84.5,-335.71"/>
<polygon fill="midnightblue" stroke="midnightblue" points="81,-363.41 84.5,-373.41 88,-363.41 81,-363.41"/>
</g>
<!-- Node8 -->
<g id="node8" class="node">
<title>Node8</title>
<g id="a_node8"><a xlink:title=" ">
<polygon fill="white" stroke="#bfbfbf" points="0,-430.5 0,-449.5 169,-449.5 169,-430.5 0,-430.5"/>
<text text-anchor="middle" x="84.5" y="-437.5" font-family="Helvetica,sans-Serif" font-size="10.00">map&lt; std::string, Referencer &gt;</text>
</a>
</g>
</g>
<!-- Node8&#45;&gt;Node7 -->
<g id="edge7" class="edge">
<title>Node8&#45;&gt;Node7</title>
<path fill="none" stroke="midnightblue" d="M84.5,-420.12C84.5,-410.82 84.5,-400.06 84.5,-392.71"/>
<polygon fill="midnightblue" stroke="midnightblue" points="81,-420.41 84.5,-430.41 88,-420.41 81,-420.41"/>
</g>
<!-- Node9 -->
<g id="node9" class="node">
<title>Node9</title>
<g id="a_node9"><a xlink:href="classdrain_1_1Range.html" target="_top" xlink:title=" ">
<polygon fill="white" stroke="black" points="154,-78.5 154,-97.5 257,-97.5 257,-78.5 154,-78.5"/>
<text text-anchor="middle" x="205.5" y="-85.5" font-family="Helvetica,sans-Serif" font-size="10.00">Range&lt; double &gt;</text>
</a>
</g>
</g>
<!-- Node9&#45;&gt;Node1 -->
<g id="edge8" class="edge">
<title>Node9&#45;&gt;Node1</title>
<path fill="none" stroke="#9a32cd" stroke-dasharray="5,2" d="M192.31,-70.01C180.17,-54.37 162.66,-31.81 153.19,-19.62"/>
<polygon fill="#9a32cd" stroke="#9a32cd" points="189.84,-72.53 198.73,-78.28 195.36,-68.24 189.84,-72.53"/>
<text text-anchor="middle" x="199" y="-52" font-family="Helvetica,sans-Serif" font-size="10.00"> range</text>
<text text-anchor="middle" x="199" y="-41" font-family="Helvetica,sans-Serif" font-size="10.00">span</text>
</g>
<!-- Node10 -->
<g id="node10" class="node">
<title>Node10</title>
<g id="a_node10"><a xlink:href="classdrain_1_1UniTuple.html" target="_top" xlink:title=" ">
<polygon fill="white" stroke="black" points="143.5,-135.5 143.5,-154.5 269.5,-154.5 269.5,-135.5 143.5,-135.5"/>
<text text-anchor="middle" x="206.5" y="-142.5" font-family="Helvetica,sans-Serif" font-size="10.00">UniTuple&lt; double, 2 &gt;</text>
</a>
</g>
</g>
<!-- Node10&#45;&gt;Node9 -->
<g id="edge9" class="edge">
<title>Node10&#45;&gt;Node9</title>
<path fill="none" stroke="midnightblue" d="M206.16,-125.12C205.99,-115.82 205.79,-105.06 205.66,-97.71"/>
<polygon fill="midnightblue" stroke="midnightblue" points="202.66,-125.47 206.34,-135.41 209.66,-125.34 202.66,-125.47"/>
</g>
</g>
</svg>
