<?xml version="1.0" encoding="UTF-8" standalone="no"?>
<!DOCTYPE svg PUBLIC "-//W3C//DTD SVG 1.1//EN"
 "http://www.w3.org/Graphics/SVG/1.1/DTD/svg11.dtd">
<!-- Generated by graphviz version 2.43.0 (0)
 -->
<!-- Title: Hdf5Context Pages: 1 -->
<svg width="817pt" height="880pt"
 viewBox="0.00 0.00 816.50 880.00" xmlns="http://www.w3.org/2000/svg" xmlns:xlink="http://www.w3.org/1999/xlink">
<g id="graph0" class="graph" transform="scale(1 1) rotate(0) translate(4 876)">
<title>Hdf5Context</title>
<polygon fill="white" stroke="transparent" points="-4,4 -4,-876 812.5,-876 812.5,4 -4,4"/>
<!-- Node1 -->
<g id="node1" class="node">
<title>Node1</title>
<g id="a_node1"><a xlink:title=" ">
<polygon fill="#bfbfbf" stroke="black" points="210.5,-0.5 210.5,-19.5 288.5,-19.5 288.5,-0.5 210.5,-0.5"/>
<text text-anchor="middle" x="249.5" y="-7.5" font-family="Helvetica,sans-Serif" font-size="10.00">Hdf5Context</text>
</a>
</g>
</g>
<!-- Node2 -->
<g id="node2" class="node">
<title>Node2</title>
<g id="a_node2"><a xlink:href="classdrain_1_1Tree.html" target="_top" xlink:title=" ">
<polygon fill="white" stroke="black" points="299.5,-89.5 299.5,-130.5 421.5,-130.5 421.5,-89.5 299.5,-89.5"/>
<text text-anchor="start" x="307.5" y="-118.5" font-family="Helvetica,sans-Serif" font-size="10.00">Tree&lt; hi5::NodeHi5,</text>
<text text-anchor="start" x="307.5" y="-107.5" font-family="Helvetica,sans-Serif" font-size="10.00"> rack::ODIMPath, rack</text>
<text text-anchor="middle" x="360.5" y="-96.5" font-family="Helvetica,sans-Serif" font-size="10.00">::ODIMPathLess &gt;</text>
</a>
</g>
</g>
<!-- Node2&#45;&gt;Node1 -->
<g id="edge1" class="edge">
<title>Node2&#45;&gt;Node1</title>
<path fill="none" stroke="#9a32cd" stroke-dasharray="5,2" d="M330.6,-82.61C306.89,-61.67 275.2,-33.69 259.37,-19.71"/>
<polygon fill="#9a32cd" stroke="#9a32cd" points="328.49,-85.41 338.3,-89.4 333.12,-80.16 328.49,-85.41"/>
<text text-anchor="middle" x="346.5" y="-63" font-family="Helvetica,sans-Serif" font-size="10.00"> inputHi5</text>
<text text-anchor="middle" x="346.5" y="-52" font-family="Helvetica,sans-Serif" font-size="10.00">cartesianHi5</text>
<text text-anchor="middle" x="346.5" y="-41" font-family="Helvetica,sans-Serif" font-size="10.00">polarHi5</text>
</g>
<!-- Node3 -->
<g id="node3" class="node">
<title>Node3</title>
<g id="a_node3"><a xlink:href="classdrain_1_1Tree.html" target="_top" xlink:title="Unordered tree based on std::map.">
<polygon fill="white" stroke="black" points="160.5,-178.5 160.5,-197.5 250.5,-197.5 250.5,-178.5 160.5,-178.5"/>
<text text-anchor="middle" x="205.5" y="-185.5" font-family="Helvetica,sans-Serif" font-size="10.00">Tree&lt; T, P, C &gt;</text>
</a>
</g>
</g>
<!-- Node3&#45;&gt;Node1 -->
<g id="edge36" class="edge">
<title>Node3&#45;&gt;Node1</title>
<path fill="none" stroke="#9a32cd" stroke-dasharray="5,2" d="M204.5,-168.24C203.93,-148.26 204.43,-115.87 211.5,-89 218.55,-62.2 235.1,-33.63 243.85,-19.68"/>
<polygon fill="#9a32cd" stroke="#9a32cd" points="201.01,-168.59 204.92,-178.43 208.01,-168.3 201.01,-168.59"/>
<text text-anchor="middle" x="251" y="-113" font-family="Helvetica,sans-Serif" font-size="10.00"> currentPolarHi5</text>
<text text-anchor="middle" x="251" y="-102" font-family="Helvetica,sans-Serif" font-size="10.00">currentHi5</text>
</g>
<!-- Node3&#45;&gt;Node2 -->
<g id="edge2" class="edge">
<title>Node3&#45;&gt;Node2</title>
<path fill="none" stroke="#9a32cd" stroke-dasharray="5,2" d="M231.98,-174.02C256.31,-162.09 292.7,-144.24 320.56,-130.59"/>
<polygon fill="#9a32cd" stroke="#9a32cd" points="230.42,-170.88 222.98,-178.43 233.5,-177.17 230.42,-170.88"/>
<text text-anchor="middle" x="304" y="-152" font-family="Helvetica,sans-Serif" font-size="10.00"> dummy</text>
</g>
<!-- Node3&#45;&gt;Node3 -->
<g id="edge3" class="edge">
<title>Node3&#45;&gt;Node3</title>
<path fill="none" stroke="#9a32cd" stroke-dasharray="5,2" d="M260.76,-192.69C265.53,-191.69 268.5,-190.13 268.5,-188 268.5,-184.59 260.89,-182.64 250.52,-182.13"/>
<polygon fill="#9a32cd" stroke="#9a32cd" points="260.05,-189.25 250.52,-193.87 260.86,-196.2 260.05,-189.25"/>
<text text-anchor="middle" x="289" y="-185.5" font-family="Helvetica,sans-Serif" font-size="10.00"> dummy</text>
</g>
<!-- Node4 -->
<g id="node4" class="node">
<title>Node4</title>
<g id="a_node4"><a xlink:href="structhi5_1_1NodeHi5.html" target="_top" xlink:title="Rack&#39;s hi5 structure that uses Rack classes (Tree, Data, Image).">
<polygon fill="white" stroke="black" points="331,-178.5 331,-197.5 390,-197.5 390,-178.5 331,-178.5"/>
<text text-anchor="middle" x="360.5" y="-185.5" font-family="Helvetica,sans-Serif" font-size="10.00">NodeHi5</text>
</a>
</g>
</g>
<!-- Node4&#45;&gt;Node2 -->
<g id="edge4" class="edge">
<title>Node4&#45;&gt;Node2</title>
<path fill="none" stroke="#9a32cd" stroke-dasharray="5,2" d="M360.5,-168.14C360.5,-156.73 360.5,-142.21 360.5,-130.66"/>
<polygon fill="#9a32cd" stroke="#9a32cd" points="357,-168.28 360.5,-178.28 364,-168.28 357,-168.28"/>
<text text-anchor="middle" x="373" y="-152" font-family="Helvetica,sans-Serif" font-size="10.00"> data</text>
</g>
<!-- Node5 -->
<g id="node5" class="node">
<title>Node5</title>
<g id="a_node5"><a xlink:href="classdrain_1_1VariableMap.html" target="_top" xlink:title="A map of Variables.">
<polygon fill="white" stroke="black" points="280.5,-245.5 280.5,-264.5 358.5,-264.5 358.5,-245.5 280.5,-245.5"/>
<text text-anchor="middle" x="319.5" y="-252.5" font-family="Helvetica,sans-Serif" font-size="10.00">VariableMap</text>
</a>
</g>
</g>
<!-- Node5&#45;&gt;Node4 -->
<g id="edge5" class="edge">
<title>Node5&#45;&gt;Node4</title>
<path fill="none" stroke="#9a32cd" stroke-dasharray="5,2" d="M319.68,-235.25C320.44,-228.79 322.1,-221.74 325.5,-216 330.04,-208.34 337.65,-202.08 344.62,-197.52"/>
<polygon fill="#9a32cd" stroke="#9a32cd" points="316.18,-235.05 319.1,-245.24 323.17,-235.46 316.18,-235.05"/>
<text text-anchor="middle" x="351" y="-219" font-family="Helvetica,sans-Serif" font-size="10.00"> attributes</text>
</g>
<!-- Node6 -->
<g id="node6" class="node">
<title>Node6</title>
<g id="a_node6"><a xlink:href="classdrain_1_1SmartMap.html" target="_top" xlink:title=" ">
<polygon fill="white" stroke="black" points="215.5,-302.5 215.5,-321.5 345.5,-321.5 345.5,-302.5 215.5,-302.5"/>
<text text-anchor="middle" x="280.5" y="-309.5" font-family="Helvetica,sans-Serif" font-size="10.00">SmartMap&lt; Variable &gt;</text>
</a>
</g>
</g>
<!-- Node6&#45;&gt;Node5 -->
<g id="edge6" class="edge">
<title>Node6&#45;&gt;Node5</title>
<path fill="none" stroke="midnightblue" d="M292.39,-294.23C299.3,-284.49 307.71,-272.62 313.32,-264.71"/>
<polygon fill="midnightblue" stroke="midnightblue" points="289.52,-292.22 286.59,-302.41 295.23,-296.27 289.52,-292.22"/>
</g>
<!-- Node7 -->
<g id="node7" class="node">
<title>Node7</title>
<g id="a_node7"><a xlink:title=" ">
<polygon fill="white" stroke="#bfbfbf" points="200.5,-359.5 200.5,-378.5 356.5,-378.5 356.5,-359.5 200.5,-359.5"/>
<text text-anchor="middle" x="278.5" y="-366.5" font-family="Helvetica,sans-Serif" font-size="10.00">map&lt; std::string, Variable &gt;</text>
</a>
</g>
</g>
<!-- Node7&#45;&gt;Node6 -->
<g id="edge7" class="edge">
<title>Node7&#45;&gt;Node6</title>
<path fill="none" stroke="midnightblue" d="M279.19,-349.12C279.52,-339.82 279.92,-329.06 280.18,-321.71"/>
<polygon fill="midnightblue" stroke="midnightblue" points="275.68,-349.29 278.81,-359.41 282.67,-349.54 275.68,-349.29"/>
</g>
<!-- Node8 -->
<g id="node8" class="node">
<title>Node8</title>
<g id="a_node8"><a xlink:href="classdrain_1_1image_1_1Image.html" target="_top" xlink:title="Class for multi&#45;channel digital images. Supports dynamic typing with base types (char,...">
<polygon fill="white" stroke="black" points="383,-245.5 383,-264.5 430,-264.5 430,-245.5 383,-245.5"/>
<text text-anchor="middle" x="406.5" y="-252.5" font-family="Helvetica,sans-Serif" font-size="10.00">Image</text>
</a>
</g>
</g>
<!-- Node8&#45;&gt;Node4 -->
<g id="edge8" class="edge">
<title>Node8&#45;&gt;Node4</title>
<path fill="none" stroke="#9a32cd" stroke-dasharray="5,2" d="M394.4,-236.9C385.46,-224.27 373.67,-207.6 366.61,-197.63"/>
<polygon fill="#9a32cd" stroke="#9a32cd" points="391.66,-239.09 400.3,-245.23 397.38,-235.05 391.66,-239.09"/>
<text text-anchor="middle" x="407" y="-219" font-family="Helvetica,sans-Serif" font-size="10.00"> dataSet</text>
</g>
<!-- Node9 -->
<g id="node9" class="node">
<title>Node9</title>
<g id="a_node9"><a xlink:href="classdrain_1_1image_1_1ModifiableImage.html" target="_top" xlink:title="Image with modifiable geometry.">
<polygon fill="white" stroke="black" points="365,-302.5 365,-321.5 464,-321.5 464,-302.5 365,-302.5"/>
<text text-anchor="middle" x="414.5" y="-309.5" font-family="Helvetica,sans-Serif" font-size="10.00">ModifiableImage</text>
</a>
</g>
</g>
<!-- Node9&#45;&gt;Node8 -->
<g id="edge9" class="edge">
<title>Node9&#45;&gt;Node8</title>
<path fill="none" stroke="midnightblue" d="M411.8,-292.42C410.44,-283.05 408.85,-272.14 407.77,-264.71"/>
<polygon fill="midnightblue" stroke="midnightblue" points="408.35,-293.01 413.25,-302.41 415.27,-292.01 408.35,-293.01"/>
</g>
<!-- Node10 -->
<g id="node10" class="node">
<title>Node10</title>
<g id="a_node10"><a xlink:href="classdrain_1_1image_1_1MultiChannel.html" target="_top" xlink:title="Multi&#45;channel ImageFrame.">
<polygon fill="white" stroke="black" points="375,-359.5 375,-378.5 456,-378.5 456,-359.5 375,-359.5"/>
<text text-anchor="middle" x="415.5" y="-366.5" font-family="Helvetica,sans-Serif" font-size="10.00">MultiChannel</text>
</a>
</g>
</g>
<!-- Node10&#45;&gt;Node9 -->
<g id="edge10" class="edge">
<title>Node10&#45;&gt;Node9</title>
<path fill="none" stroke="midnightblue" d="M415.16,-349.12C414.99,-339.82 414.79,-329.06 414.66,-321.71"/>
<polygon fill="midnightblue" stroke="midnightblue" points="411.66,-349.47 415.34,-359.41 418.66,-349.34 411.66,-349.47"/>
</g>
<!-- Node11 -->
<g id="node11" class="node">
<title>Node11</title>
<g id="a_node11"><a xlink:href="classdrain_1_1image_1_1ImageFrame.html" target="_top" xlink:title="Image with static geometry.">
<polygon fill="white" stroke="black" points="376.5,-416.5 376.5,-435.5 454.5,-435.5 454.5,-416.5 376.5,-416.5"/>
<text text-anchor="middle" x="415.5" y="-423.5" font-family="Helvetica,sans-Serif" font-size="10.00">ImageFrame</text>
</a>
</g>
</g>
<!-- Node11&#45;&gt;Node10 -->
<g id="edge11" class="edge">
<title>Node11&#45;&gt;Node10</title>
<path fill="none" stroke="midnightblue" d="M415.5,-406.12C415.5,-396.82 415.5,-386.06 415.5,-378.71"/>
<polygon fill="midnightblue" stroke="midnightblue" points="412,-406.41 415.5,-416.41 419,-406.41 412,-406.41"/>
</g>
<!-- Node12 -->
<g id="node12" class="node">
<title>Node12</title>
<g id="a_node12"><a xlink:href="classdrain_1_1image_1_1ImageLike.html" target="_top" xlink:title="A base class for images.">
<polygon fill="white" stroke="black" points="382,-495.5 382,-514.5 449,-514.5 449,-495.5 382,-495.5"/>
<text text-anchor="middle" x="415.5" y="-502.5" font-family="Helvetica,sans-Serif" font-size="10.00">ImageLike</text>
</a>
</g>
</g>
<!-- Node12&#45;&gt;Node11 -->
<g id="edge12" class="edge">
<title>Node12&#45;&gt;Node11</title>
<path fill="none" stroke="midnightblue" d="M415.5,-485.31C415.5,-469.59 415.5,-447.81 415.5,-435.81"/>
<polygon fill="midnightblue" stroke="midnightblue" points="412,-485.47 415.5,-495.47 419,-485.47 412,-485.47"/>
</g>
<!-- Node13 -->
<g id="node13" class="node">
<title>Node13</title>
<g id="a_node13"><a xlink:href="classdrain_1_1image_1_1ImageConf.html" target="_top" xlink:title="Struct for image (excluding data)">
<polygon fill="white" stroke="black" points="368.5,-572.5 368.5,-591.5 438.5,-591.5 438.5,-572.5 368.5,-572.5"/>
<text text-anchor="middle" x="403.5" y="-579.5" font-family="Helvetica,sans-Serif" font-size="10.00">ImageConf</text>
</a>
</g>
</g>
<!-- Node13&#45;&gt;Node12 -->
<g id="edge13" class="edge">
<title>Node13&#45;&gt;Node12</title>
<path fill="none" stroke="#9a32cd" stroke-dasharray="5,2" d="M406.46,-562.47C408.92,-547.15 412.29,-526.09 414.14,-514.5"/>
<polygon fill="#9a32cd" stroke="#9a32cd" points="403,-561.97 404.88,-572.4 409.91,-563.08 403,-561.97"/>
<text text-anchor="middle" x="424" y="-541.5" font-family="Helvetica,sans-Serif" font-size="10.00"> conf</text>
</g>
<!-- Node14 -->
<g id="node14" class="node">
<title>Node14</title>
<g id="a_node14"><a xlink:href="classdrain_1_1image_1_1Encoding.html" target="_top" xlink:title=" ">
<polygon fill="white" stroke="black" points="368,-639.5 368,-658.5 429,-658.5 429,-639.5 368,-639.5"/>
<text text-anchor="middle" x="398.5" y="-646.5" font-family="Helvetica,sans-Serif" font-size="10.00">Encoding</text>
</a>
</g>
</g>
<!-- Node14&#45;&gt;Node13 -->
<g id="edge14" class="edge">
<title>Node14&#45;&gt;Node13</title>
<path fill="none" stroke="midnightblue" d="M399.96,-629.04C400.91,-616.67 402.11,-601.12 402.84,-591.63"/>
<polygon fill="midnightblue" stroke="midnightblue" points="396.45,-628.99 399.17,-639.23 403.43,-629.53 396.45,-628.99"/>
</g>
<!-- Node15 -->
<g id="node15" class="node">
<title>Node15</title>
<g id="a_node15"><a xlink:href="classdrain_1_1ValueScaling.html" target="_top" xlink:title="Linear scaling and physical range for image intensities.">
<polygon fill="white" stroke="black" points="334.5,-712 334.5,-731 414.5,-731 414.5,-712 334.5,-712"/>
<text text-anchor="middle" x="374.5" y="-719" font-family="Helvetica,sans-Serif" font-size="10.00">ValueScaling</text>
</a>
</g>
</g>
<!-- Node15&#45;&gt;Node14 -->
<g id="edge15" class="edge">
<title>Node15&#45;&gt;Node14</title>
<path fill="none" stroke="midnightblue" d="M380.71,-702.27C385.47,-688.26 391.85,-669.53 395.53,-658.72"/>
<polygon fill="midnightblue" stroke="midnightblue" points="377.35,-701.26 377.44,-711.86 383.98,-703.52 377.35,-701.26"/>
</g>
<!-- Node16 -->
<g id="node16" class="node">
<title>Node16</title>
<g id="a_node16"><a xlink:href="classdrain_1_1UniTuple.html" target="_top" xlink:title=" ">
<polygon fill="white" stroke="black" points="354.5,-790 354.5,-809 480.5,-809 480.5,-790 354.5,-790"/>
<text text-anchor="middle" x="417.5" y="-797" font-family="Helvetica,sans-Serif" font-size="10.00">UniTuple&lt; double, 4 &gt;</text>
</a>
</g>
</g>
<!-- Node16&#45;&gt;Node15 -->
<g id="edge16" class="edge">
<title>Node16&#45;&gt;Node15</title>
<path fill="none" stroke="midnightblue" d="M407.64,-781.07C398.8,-765.45 386.21,-743.2 379.38,-731.12"/>
<polygon fill="midnightblue" stroke="midnightblue" points="404.6,-782.8 412.57,-789.78 410.69,-779.35 404.6,-782.8"/>
</g>
<!-- Node17 -->
<g id="node17" class="node">
<title>Node17</title>
<g id="a_node17"><a xlink:href="classdrain_1_1Range.html" target="_top" xlink:title=" ">
<polygon fill="white" stroke="black" points="233,-790 233,-809 336,-809 336,-790 233,-790"/>
<text text-anchor="middle" x="284.5" y="-797" font-family="Helvetica,sans-Serif" font-size="10.00">Range&lt; double &gt;</text>
</a>
</g>
</g>
<!-- Node17&#45;&gt;Node15 -->
<g id="edge17" class="edge">
<title>Node17&#45;&gt;Node15</title>
<path fill="none" stroke="#9a32cd" stroke-dasharray="5,2" d="M300.66,-782.8C309.57,-774.34 320.93,-763.85 331.5,-755 341.69,-746.47 353.8,-737.4 362.57,-731.02"/>
<polygon fill="#9a32cd" stroke="#9a32cd" points="298.06,-780.44 293.27,-789.89 302.91,-785.49 298.06,-780.44"/>
<text text-anchor="middle" x="360.5" y="-758" font-family="Helvetica,sans-Serif" font-size="10.00"> physRange</text>
</g>
<!-- Node18 -->
<g id="node18" class="node">
<title>Node18</title>
<g id="a_node18"><a xlink:href="classdrain_1_1UniTuple.html" target="_top" xlink:title=" ">
<polygon fill="white" stroke="black" points="221.5,-852.5 221.5,-871.5 347.5,-871.5 347.5,-852.5 221.5,-852.5"/>
<text text-anchor="middle" x="284.5" y="-859.5" font-family="Helvetica,sans-Serif" font-size="10.00">UniTuple&lt; double, 2 &gt;</text>
</a>
</g>
</g>
<!-- Node18&#45;&gt;Node17 -->
<g id="edge18" class="edge">
<title>Node18&#45;&gt;Node17</title>
<path fill="none" stroke="midnightblue" d="M284.5,-842C284.5,-831 284.5,-817.68 284.5,-809.15"/>
<polygon fill="midnightblue" stroke="midnightblue" points="281,-842.33 284.5,-852.33 288,-842.33 281,-842.33"/>
</g>
<!-- Node19 -->
<g id="node19" class="node">
<title>Node19</title>
<g id="a_node19"><a xlink:href="classdrain_1_1Caster.html" target="_top" xlink:title=" ">
<polygon fill="white" stroke="black" points="268.5,-712 268.5,-731 316.5,-731 316.5,-712 268.5,-712"/>
<text text-anchor="middle" x="292.5" y="-719" font-family="Helvetica,sans-Serif" font-size="10.00">Caster</text>
</a>
</g>
</g>
<!-- Node19&#45;&gt;Node14 -->
<g id="edge19" class="edge">
<title>Node19&#45;&gt;Node14</title>
<path fill="none" stroke="#9a32cd" stroke-dasharray="5,2" d="M310.25,-705.49C320.99,-696.72 335.16,-685.7 348.5,-677 358.91,-670.21 371.19,-663.56 380.97,-658.56"/>
<polygon fill="#9a32cd" stroke="#9a32cd" points="307.91,-702.88 302.45,-711.96 312.38,-708.27 307.91,-702.88"/>
<text text-anchor="middle" x="365.5" y="-680" font-family="Helvetica,sans-Serif" font-size="10.00"> caster</text>
</g>
<!-- Node30 -->
<g id="node30" class="node">
<title>Node30</title>
<g id="a_node30"><a xlink:href="classdrain_1_1Castable.html" target="_top" xlink:title=" ">
<polygon fill="white" stroke="black" points="263,-639.5 263,-658.5 322,-658.5 322,-639.5 263,-639.5"/>
<text text-anchor="middle" x="292.5" y="-646.5" font-family="Helvetica,sans-Serif" font-size="10.00">Castable</text>
</a>
</g>
</g>
<!-- Node19&#45;&gt;Node30 -->
<g id="edge32" class="edge">
<title>Node19&#45;&gt;Node30</title>
<path fill="none" stroke="#9a32cd" stroke-dasharray="5,2" d="M292.5,-701.44C292.5,-687.53 292.5,-669.32 292.5,-658.72"/>
<polygon fill="#9a32cd" stroke="#9a32cd" points="289,-701.86 292.5,-711.86 296,-701.86 289,-701.86"/>
<text text-anchor="middle" x="309.5" y="-680" font-family="Helvetica,sans-Serif" font-size="10.00"> caster</text>
</g>
<!-- Node20 -->
<g id="node20" class="node">
<title>Node20</title>
<g id="a_node20"><a xlink:href="classdrain_1_1image_1_1Geometry.html" target="_top" xlink:title=" ">
<polygon fill="white" stroke="black" points="453,-639.5 453,-658.5 518,-658.5 518,-639.5 453,-639.5"/>
<text text-anchor="middle" x="485.5" y="-646.5" font-family="Helvetica,sans-Serif" font-size="10.00">Geometry</text>
</a>
</g>
</g>
<!-- Node20&#45;&gt;Node13 -->
<g id="edge20" class="edge">
<title>Node20&#45;&gt;Node13</title>
<path fill="none" stroke="midnightblue" d="M466.22,-632.71C450.06,-619.91 427.58,-602.09 414.38,-591.63"/>
<polygon fill="midnightblue" stroke="midnightblue" points="464.43,-635.76 474.44,-639.23 468.78,-630.28 464.43,-635.76"/>
</g>
<!-- Node21 -->
<g id="node21" class="node">
<title>Node21</title>
<g id="a_node21"><a xlink:href="classdrain_1_1UniTuple.html" target="_top" xlink:title=" ">
<polygon fill="white" stroke="black" points="556.5,-712 556.5,-731 678.5,-731 678.5,-712 556.5,-712"/>
<text text-anchor="middle" x="617.5" y="-719" font-family="Helvetica,sans-Serif" font-size="10.00">UniTuple&lt; size_t, 4 &gt;</text>
</a>
</g>
</g>
<!-- Node21&#45;&gt;Node20 -->
<g id="edge21" class="edge">
<title>Node21&#45;&gt;Node20</title>
<path fill="none" stroke="midnightblue" d="M592.46,-707.01C576.47,-698.4 555.28,-687.01 536.5,-677 525.01,-670.87 512.04,-664.01 502.05,-658.73"/>
<polygon fill="midnightblue" stroke="midnightblue" points="591.22,-710.31 601.68,-711.97 594.54,-704.15 591.22,-710.31"/>
</g>
<!-- Node22 -->
<g id="node22" class="node">
<title>Node22</title>
<g id="a_node22"><a xlink:href="classdrain_1_1Frame2D.html" target="_top" xlink:title=" ">
<polygon fill="white" stroke="black" points="696.5,-712 696.5,-731 808.5,-731 808.5,-712 696.5,-712"/>
<text text-anchor="middle" x="752.5" y="-719" font-family="Helvetica,sans-Serif" font-size="10.00">Frame2D&lt; size_t &gt;</text>
</a>
</g>
</g>
<!-- Node22&#45;&gt;Node20 -->
<g id="edge22" class="edge">
<title>Node22&#45;&gt;Node20</title>
<path fill="none" stroke="#9a32cd" stroke-dasharray="5,2" d="M710.46,-709.4C657.07,-695.3 566.1,-671.28 517.82,-658.53"/>
<polygon fill="#9a32cd" stroke="#9a32cd" points="709.73,-712.83 720.29,-712 711.52,-706.06 709.73,-712.83"/>
<text text-anchor="middle" x="639" y="-680" font-family="Helvetica,sans-Serif" font-size="10.00"> area</text>
</g>
<!-- Node23 -->
<g id="node23" class="node">
<title>Node23</title>
<g id="a_node23"><a xlink:href="classdrain_1_1UniTuple.html" target="_top" xlink:title=" ">
<polygon fill="white" stroke="black" points="616.5,-790 616.5,-809 738.5,-809 738.5,-790 616.5,-790"/>
<text text-anchor="middle" x="677.5" y="-797" font-family="Helvetica,sans-Serif" font-size="10.00">UniTuple&lt; size_t, 2 &gt;</text>
</a>
</g>
</g>
<!-- Node23&#45;&gt;Node22 -->
<g id="edge23" class="edge">
<title>Node23&#45;&gt;Node22</title>
<path fill="none" stroke="midnightblue" d="M693.41,-782.38C708.87,-766.72 731.73,-743.54 744,-731.12"/>
<polygon fill="midnightblue" stroke="midnightblue" points="690.64,-780.21 686.1,-789.78 695.62,-785.12 690.64,-780.21"/>
</g>
<!-- Node24 -->
<g id="node24" class="node">
<title>Node24</title>
<g id="a_node24"><a xlink:href="classdrain_1_1image_1_1ChannelGeometry.html" target="_top" xlink:title=" ">
<polygon fill="white" stroke="black" points="433,-712 433,-731 538,-731 538,-712 433,-712"/>
<text text-anchor="middle" x="485.5" y="-719" font-family="Helvetica,sans-Serif" font-size="10.00">ChannelGeometry</text>
</a>
</g>
</g>
<!-- Node23&#45;&gt;Node24 -->
<g id="edge25" class="edge">
<title>Node23&#45;&gt;Node24</title>
<path fill="none" stroke="midnightblue" d="M646.52,-786.24C607.41,-770.75 541.11,-744.51 507.07,-731.04"/>
<polygon fill="midnightblue" stroke="midnightblue" points="645.26,-789.5 655.85,-789.93 647.84,-782.99 645.26,-789.5"/>
</g>
<!-- Node24&#45;&gt;Node20 -->
<g id="edge24" class="edge">
<title>Node24&#45;&gt;Node20</title>
<path fill="none" stroke="#9a32cd" stroke-dasharray="5,2" d="M485.5,-701.44C485.5,-687.53 485.5,-669.32 485.5,-658.72"/>
<polygon fill="#9a32cd" stroke="#9a32cd" points="482,-701.86 485.5,-711.86 489,-701.86 482,-701.86"/>
<text text-anchor="middle" x="509" y="-680" font-family="Helvetica,sans-Serif" font-size="10.00"> channels</text>
</g>
<!-- Node25 -->
<g id="node25" class="node">
<title>Node25</title>
<g id="a_node25"><a xlink:href="classdrain_1_1image_1_1CoordinatePolicy.html" target="_top" xlink:title="Policies for coordinate underflows and overflows.">
<polygon fill="white" stroke="black" points="142,-639.5 142,-658.5 241,-658.5 241,-639.5 142,-639.5"/>
<text text-anchor="middle" x="191.5" y="-646.5" font-family="Helvetica,sans-Serif" font-size="10.00">CoordinatePolicy</text>
</a>
</g>
</g>
<!-- Node25&#45;&gt;Node13 -->
<g id="edge26" class="edge">
<title>Node25&#45;&gt;Node13</title>
<path fill="none" stroke="#9a32cd" stroke-dasharray="5,2" d="M228.12,-636.33C252.1,-628.74 284.12,-618.66 312.5,-610 333.15,-603.7 356.49,-596.77 374.37,-591.52"/>
<polygon fill="#9a32cd" stroke="#9a32cd" points="226.85,-633.07 218.37,-639.43 228.97,-639.74 226.85,-633.07"/>
<text text-anchor="middle" x="355" y="-613" font-family="Helvetica,sans-Serif" font-size="10.00"> coordinatePolicy</text>
</g>
<!-- Node26 -->
<g id="node26" class="node">
<title>Node26</title>
<g id="a_node26"><a xlink:href="classdrain_1_1UniTuple.html" target="_top" xlink:title=" ">
<polygon fill="white" stroke="black" points="133,-706.5 133,-736.5 250,-736.5 250,-706.5 133,-706.5"/>
<text text-anchor="start" x="141" y="-724.5" font-family="Helvetica,sans-Serif" font-size="10.00">UniTuple&lt; coord_pol</text>
<text text-anchor="middle" x="191.5" y="-713.5" font-family="Helvetica,sans-Serif" font-size="10.00">_t, 4 &gt;</text>
</a>
</g>
</g>
<!-- Node26&#45;&gt;Node25 -->
<g id="edge27" class="edge">
<title>Node26&#45;&gt;Node25</title>
<path fill="none" stroke="midnightblue" d="M191.5,-696.09C191.5,-683.21 191.5,-668.2 191.5,-658.89"/>
<polygon fill="midnightblue" stroke="midnightblue" points="188,-696.23 191.5,-706.23 195,-696.23 188,-696.23"/>
</g>
<!-- Node27 -->
<g id="node27" class="node">
<title>Node27</title>
<g id="a_node27"><a xlink:href="classdrain_1_1Dictionary2.html" target="_top" xlink:title="Two&#45;way mapping between strings and objects of template class T.">
<polygon fill="white" stroke="black" points="0,-712 0,-731 115,-731 115,-712 0,-712"/>
<text text-anchor="middle" x="57.5" y="-719" font-family="Helvetica,sans-Serif" font-size="10.00">Dictionary2&lt; K, V &gt;</text>
</a>
</g>
</g>
<!-- Node27&#45;&gt;Node25 -->
<g id="edge28" class="edge">
<title>Node27&#45;&gt;Node25</title>
<path fill="none" stroke="#9a32cd" stroke-dasharray="5,2" d="M82.57,-707.31C109.71,-693.03 152.21,-670.67 175.28,-658.53"/>
<polygon fill="#9a32cd" stroke="#9a32cd" points="80.88,-704.24 73.66,-712 84.14,-710.44 80.88,-704.24"/>
<text text-anchor="middle" x="148.5" y="-680" font-family="Helvetica,sans-Serif" font-size="10.00"> dict</text>
</g>
<!-- Node28 -->
<g id="node28" class="node">
<title>Node28</title>
<g id="a_node28"><a xlink:title=" ">
<polygon fill="white" stroke="#bfbfbf" points="5.5,-784.5 5.5,-814.5 109.5,-814.5 109.5,-784.5 5.5,-784.5"/>
<text text-anchor="start" x="13.5" y="-802.5" font-family="Helvetica,sans-Serif" font-size="10.00">list&lt; std::pair&lt; K,</text>
<text text-anchor="middle" x="57.5" y="-791.5" font-family="Helvetica,sans-Serif" font-size="10.00"> V &gt; &gt;</text>
</a>
</g>
</g>
<!-- Node28&#45;&gt;Node27 -->
<g id="edge29" class="edge">
<title>Node28&#45;&gt;Node27</title>
<path fill="none" stroke="midnightblue" d="M57.5,-774.17C57.5,-759.4 57.5,-741.45 57.5,-731.06"/>
<polygon fill="midnightblue" stroke="midnightblue" points="54,-774.2 57.5,-784.2 61,-774.21 54,-774.2"/>
</g>
<!-- Node29 -->
<g id="node29" class="node">
<title>Node29</title>
<g id="a_node29"><a xlink:href="classdrain_1_1CastableIterator.html" target="_top" xlink:title=" ">
<polygon fill="white" stroke="black" points="245,-534.5 245,-553.5 340,-553.5 340,-534.5 245,-534.5"/>
<text text-anchor="middle" x="292.5" y="-541.5" font-family="Helvetica,sans-Serif" font-size="10.00">CastableIterator</text>
</a>
</g>
</g>
<!-- Node29&#45;&gt;Node11 -->
<g id="edge30" class="edge">
<title>Node29&#45;&gt;Node11</title>
<path fill="none" stroke="#9a32cd" stroke-dasharray="5,2" d="M292.34,-523.93C293.12,-514.21 295.44,-502.66 301.5,-494 322.56,-463.91 361.83,-445.26 388.31,-435.5"/>
<polygon fill="#9a32cd" stroke="#9a32cd" points="288.83,-524.1 292.01,-534.2 295.83,-524.32 288.83,-524.1"/>
<text text-anchor="middle" x="337" y="-508" font-family="Helvetica,sans-Serif" font-size="10.00"> segmentEnd</text>
<text text-anchor="middle" x="337" y="-497" font-family="Helvetica,sans-Serif" font-size="10.00">segmentBegin</text>
</g>
<!-- Node30&#45;&gt;Node29 -->
<g id="edge31" class="edge">
<title>Node30&#45;&gt;Node29</title>
<path fill="none" stroke="darkgreen" d="M292.5,-628.94C292.5,-606.53 292.5,-570.31 292.5,-553.76"/>
<polygon fill="darkgreen" stroke="darkgreen" points="289,-629.22 292.5,-639.22 296,-629.22 289,-629.22"/>
</g>
<!-- Node31 -->
<g id="node31" class="node">
<title>Node31</title>
<g id="a_node31"><a xlink:href="classdrain_1_1FlexVariableMap.html" target="_top" xlink:title="A map of FlexVariable:s.">
<polygon fill="white" stroke="black" points="521,-495.5 521,-514.5 620,-514.5 620,-495.5 521,-495.5"/>
<text text-anchor="middle" x="570.5" y="-502.5" font-family="Helvetica,sans-Serif" font-size="10.00">FlexVariableMap</text>
</a>
</g>
</g>
<!-- Node31&#45;&gt;Node11 -->
<g id="edge33" class="edge">
<title>Node31&#45;&gt;Node11</title>
<path fill="none" stroke="#9a32cd" stroke-dasharray="5,2" d="M544.17,-490.92C512.38,-475.13 459.81,-449.01 432.76,-435.57"/>
<polygon fill="#9a32cd" stroke="#9a32cd" points="542.81,-494.15 553.32,-495.47 545.92,-487.88 542.81,-494.15"/>
<text text-anchor="middle" x="545" y="-468" font-family="Helvetica,sans-Serif" font-size="10.00"> propertiesPtr</text>
<text text-anchor="middle" x="545" y="-457" font-family="Helvetica,sans-Serif" font-size="10.00">properties</text>
</g>
<!-- Node32 -->
<g id="node32" class="node">
<title>Node32</title>
<g id="a_node32"><a xlink:href="classdrain_1_1SmartMap.html" target="_top" xlink:title=" ">
<polygon fill="white" stroke="black" points="536,-572.5 536,-591.5 687,-591.5 687,-572.5 536,-572.5"/>
<text text-anchor="middle" x="611.5" y="-579.5" font-family="Helvetica,sans-Serif" font-size="10.00">SmartMap&lt; FlexVariable &gt;</text>
</a>
</g>
</g>
<!-- Node32&#45;&gt;Node31 -->
<g id="edge34" class="edge">
<title>Node32&#45;&gt;Node31</title>
<path fill="none" stroke="midnightblue" d="M601.86,-563.36C593.44,-547.97 581.61,-526.32 575.15,-514.5"/>
<polygon fill="midnightblue" stroke="midnightblue" points="598.93,-565.3 606.8,-572.4 605.07,-561.94 598.93,-565.3"/>
</g>
<!-- Node33 -->
<g id="node33" class="node">
<title>Node33</title>
<g id="a_node33"><a xlink:title=" ">
<polygon fill="white" stroke="#bfbfbf" points="536,-639.5 536,-658.5 713,-658.5 713,-639.5 536,-639.5"/>
<text text-anchor="middle" x="624.5" y="-646.5" font-family="Helvetica,sans-Serif" font-size="10.00">map&lt; std::string, FlexVariable &gt;</text>
</a>
</g>
</g>
<!-- Node33&#45;&gt;Node32 -->
<g id="edge35" class="edge">
<title>Node33&#45;&gt;Node32</title>
<path fill="none" stroke="midnightblue" d="M620.78,-629.41C618.3,-616.99 615.14,-601.22 613.23,-591.63"/>
<polygon fill="midnightblue" stroke="midnightblue" points="617.35,-630.11 622.75,-639.23 624.22,-628.74 617.35,-630.11"/>
</g>
</g>
</svg>
