<?xml version="1.0" encoding="UTF-8" standalone="no"?>
<!DOCTYPE svg PUBLIC "-//W3C//DTD SVG 1.1//EN"
 "http://www.w3.org/Graphics/SVG/1.1/DTD/svg11.dtd">
<!-- Generated by graphviz version 2.43.0 (0)
 -->
<!-- Title: DataCoder Pages: 1 -->
<svg width="518pt" height="426pt"
 viewBox="0.00 0.00 517.50 426.00" xmlns="http://www.w3.org/2000/svg" xmlns:xlink="http://www.w3.org/1999/xlink">
<g id="graph0" class="graph" transform="scale(1 1) rotate(0) translate(4 422)">
<title>DataCoder</title>
<polygon fill="white" stroke="transparent" points="-4,4 -4,-422 513.5,-422 513.5,4 -4,4"/>
<!-- Node1 -->
<g id="node1" class="node">
<title>Node1</title>
<g id="a_node1"><a xlink:title="Converts ODIM encoded data (with markers) to natural values and backwards.">
<polygon fill="#bfbfbf" stroke="black" points="219.5,-0.5 219.5,-19.5 287.5,-19.5 287.5,-0.5 219.5,-0.5"/>
<text text-anchor="middle" x="253.5" y="-7.5" font-family="Helvetica,sans-Serif" font-size="10.00">DataCoder</text>
</a>
</g>
</g>
<!-- Node2 -->
<g id="node2" class="node">
<title>Node2</title>
<g id="a_node2"><a xlink:href="classdrain_1_1BeanLike.html" target="_top" xlink:title="Something which has a name, a description and possibly some parameters of varying type.">
<polygon fill="white" stroke="black" points="129,-138.5 129,-157.5 190,-157.5 190,-138.5 129,-138.5"/>
<text text-anchor="middle" x="159.5" y="-145.5" font-family="Helvetica,sans-Serif" font-size="10.00">BeanLike</text>
</a>
</g>
</g>
<!-- Node2&#45;&gt;Node1 -->
<g id="edge1" class="edge">
<title>Node2&#45;&gt;Node1</title>
<path fill="none" stroke="midnightblue" d="M165.33,-128.8C168.59,-119.81 173.08,-108.99 178.5,-100 198.1,-67.46 229.36,-34.72 244.59,-19.62"/>
<polygon fill="midnightblue" stroke="midnightblue" points="162.01,-127.7 162.1,-138.3 168.64,-129.96 162.01,-127.7"/>
</g>
<!-- Node3 -->
<g id="node3" class="node">
<title>Node3</title>
<g id="a_node3"><a xlink:href="classdrain_1_1ReferenceMap.html" target="_top" xlink:title=" ">
<polygon fill="white" stroke="black" points="116,-265.5 116,-284.5 203,-284.5 203,-265.5 116,-265.5"/>
<text text-anchor="middle" x="159.5" y="-272.5" font-family="Helvetica,sans-Serif" font-size="10.00">ReferenceMap</text>
</a>
</g>
</g>
<!-- Node3&#45;&gt;Node2 -->
<g id="edge2" class="edge">
<title>Node3&#45;&gt;Node2</title>
<path fill="none" stroke="#9a32cd" stroke-dasharray="5,2" d="M157.94,-255.38C157.76,-252.58 157.6,-249.71 157.5,-247 156.28,-214.01 158.06,-174.74 158.99,-157.65"/>
<polygon fill="#9a32cd" stroke="#9a32cd" points="154.46,-255.79 158.71,-265.5 161.44,-255.26 154.46,-255.79"/>
<text text-anchor="middle" x="187.5" y="-228" font-family="Helvetica,sans-Serif" font-size="10.00"> parameters</text>
</g>
<!-- Node8 -->
<g id="node8" class="node">
<title>Node8</title>
<g id="a_node8"><a xlink:href="classrack_1_1EncodingODIM.html" target="_top" xlink:title="Structure for data storage type, scaling and marker codes. Does not contain quantity.">
<polygon fill="white" stroke="black" points="225.5,-176.5 225.5,-195.5 313.5,-195.5 313.5,-176.5 225.5,-176.5"/>
<text text-anchor="middle" x="269.5" y="-183.5" font-family="Helvetica,sans-Serif" font-size="10.00">EncodingODIM</text>
</a>
</g>
</g>
<!-- Node3&#45;&gt;Node8 -->
<g id="edge8" class="edge">
<title>Node3&#45;&gt;Node8</title>
<path fill="none" stroke="midnightblue" d="M196.05,-261.58C204.86,-257.67 213.9,-252.82 221.5,-247 240.57,-232.4 256.55,-208.67 264.36,-195.87"/>
<polygon fill="midnightblue" stroke="midnightblue" points="194.59,-258.4 186.68,-265.45 197.26,-264.87 194.59,-258.4"/>
</g>
<!-- Node4 -->
<g id="node4" class="node">
<title>Node4</title>
<g id="a_node4"><a xlink:href="classdrain_1_1SmartMap.html" target="_top" xlink:title=" ">
<polygon fill="white" stroke="black" points="13,-341.5 13,-360.5 156,-360.5 156,-341.5 13,-341.5"/>
<text text-anchor="middle" x="84.5" y="-348.5" font-family="Helvetica,sans-Serif" font-size="10.00">SmartMap&lt; Referencer &gt;</text>
</a>
</g>
</g>
<!-- Node4&#45;&gt;Node3 -->
<g id="edge3" class="edge">
<title>Node4&#45;&gt;Node3</title>
<path fill="none" stroke="midnightblue" d="M100.65,-334.06C115.94,-318.98 138.33,-296.89 150.61,-284.77"/>
<polygon fill="midnightblue" stroke="midnightblue" points="98.06,-331.71 93.4,-341.22 102.97,-336.69 98.06,-331.71"/>
</g>
<!-- Node5 -->
<g id="node5" class="node">
<title>Node5</title>
<g id="a_node5"><a xlink:title=" ">
<polygon fill="white" stroke="#bfbfbf" points="0,-398.5 0,-417.5 169,-417.5 169,-398.5 0,-398.5"/>
<text text-anchor="middle" x="84.5" y="-405.5" font-family="Helvetica,sans-Serif" font-size="10.00">map&lt; std::string, Referencer &gt;</text>
</a>
</g>
</g>
<!-- Node5&#45;&gt;Node4 -->
<g id="edge4" class="edge">
<title>Node5&#45;&gt;Node4</title>
<path fill="none" stroke="midnightblue" d="M84.5,-388.12C84.5,-378.82 84.5,-368.06 84.5,-360.71"/>
<polygon fill="midnightblue" stroke="midnightblue" points="81,-388.41 84.5,-398.41 88,-388.41 81,-388.41"/>
</g>
<!-- Node6 -->
<g id="node6" class="node">
<title>Node6</title>
<g id="a_node6"><a xlink:href="structdrain_1_1image_1_1AccumulationConverter.html" target="_top" xlink:title="Converts raw data to values appropriate for accumulation.">
<polygon fill="white" stroke="black" points="188,-100.5 188,-119.5 319,-119.5 319,-100.5 188,-100.5"/>
<text text-anchor="middle" x="253.5" y="-107.5" font-family="Helvetica,sans-Serif" font-size="10.00">AccumulationConverter</text>
</a>
</g>
</g>
<!-- Node6&#45;&gt;Node1 -->
<g id="edge5" class="edge">
<title>Node6&#45;&gt;Node1</title>
<path fill="none" stroke="midnightblue" d="M253.5,-90.22C253.5,-68.95 253.5,-35.22 253.5,-19.54"/>
<polygon fill="midnightblue" stroke="midnightblue" points="250,-90.3 253.5,-100.3 257,-90.3 250,-90.3"/>
</g>
<!-- Node7 -->
<g id="node7" class="node">
<title>Node7</title>
<g id="a_node7"><a xlink:href="classrack_1_1ODIM.html" target="_top" xlink:title="ODIM metadata (quantity, gain, offset, undetect, nodata, date, time)">
<polygon fill="white" stroke="black" points="337.5,-100.5 337.5,-119.5 381.5,-119.5 381.5,-100.5 337.5,-100.5"/>
<text text-anchor="middle" x="359.5" y="-107.5" font-family="Helvetica,sans-Serif" font-size="10.00">ODIM</text>
</a>
</g>
</g>
<!-- Node7&#45;&gt;Node1 -->
<g id="edge6" class="edge">
<title>Node7&#45;&gt;Node1</title>
<path fill="none" stroke="#9a32cd" stroke-dasharray="5,2" d="M342.58,-93.35C319.93,-72.42 280.56,-36.01 262.73,-19.54"/>
<polygon fill="#9a32cd" stroke="#9a32cd" points="340.37,-96.08 350.09,-100.3 345.13,-90.94 340.37,-96.08"/>
<text text-anchor="middle" x="376" y="-74" font-family="Helvetica,sans-Serif" font-size="10.00"> defaultDataODIM</text>
<text text-anchor="middle" x="376" y="-63" font-family="Helvetica,sans-Serif" font-size="10.00">qualityODIM</text>
<text text-anchor="middle" x="376" y="-52" font-family="Helvetica,sans-Serif" font-size="10.00">defaultQualityODIM</text>
<text text-anchor="middle" x="376" y="-41" font-family="Helvetica,sans-Serif" font-size="10.00">dataODIM</text>
</g>
<!-- Node8&#45;&gt;Node7 -->
<g id="edge7" class="edge">
<title>Node8&#45;&gt;Node7</title>
<path fill="none" stroke="midnightblue" d="M287.93,-169.85C306.4,-154.66 334.18,-131.82 349.11,-119.54"/>
<polygon fill="midnightblue" stroke="midnightblue" points="285.68,-167.17 280.18,-176.22 290.12,-172.57 285.68,-167.17"/>
</g>
<!-- Node9 -->
<g id="node9" class="node">
<title>Node9</title>
<g id="a_node9"><a xlink:href="classdrain_1_1ValueScaling.html" target="_top" xlink:title="Linear scaling and physical range for image intensities.">
<polygon fill="white" stroke="black" points="229.5,-265.5 229.5,-284.5 309.5,-284.5 309.5,-265.5 229.5,-265.5"/>
<text text-anchor="middle" x="269.5" y="-272.5" font-family="Helvetica,sans-Serif" font-size="10.00">ValueScaling</text>
</a>
</g>
</g>
<!-- Node9&#45;&gt;Node8 -->
<g id="edge9" class="edge">
<title>Node9&#45;&gt;Node8</title>
<path fill="none" stroke="#9a32cd" stroke-dasharray="5,2" d="M269.5,-255.19C269.5,-236.74 269.5,-209.41 269.5,-195.62"/>
<polygon fill="#9a32cd" stroke="#9a32cd" points="266,-255.34 269.5,-265.34 273,-255.34 266,-255.34"/>
<text text-anchor="middle" x="302.5" y="-239" font-family="Helvetica,sans-Serif" font-size="10.00"> scalingConst</text>
<text text-anchor="middle" x="302.5" y="-228" font-family="Helvetica,sans-Serif" font-size="10.00">scaling</text>
<text text-anchor="middle" x="302.5" y="-217" font-family="Helvetica,sans-Serif" font-size="10.00">ownScaling</text>
</g>
<!-- Node10 -->
<g id="node10" class="node">
<title>Node10</title>
<g id="a_node10"><a xlink:href="classdrain_1_1UniTuple.html" target="_top" xlink:title=" ">
<polygon fill="white" stroke="black" points="174.5,-341.5 174.5,-360.5 300.5,-360.5 300.5,-341.5 174.5,-341.5"/>
<text text-anchor="middle" x="237.5" y="-348.5" font-family="Helvetica,sans-Serif" font-size="10.00">UniTuple&lt; double, 4 &gt;</text>
</a>
</g>
</g>
<!-- Node10&#45;&gt;Node9 -->
<g id="edge10" class="edge">
<title>Node10&#45;&gt;Node9</title>
<path fill="none" stroke="midnightblue" d="M245.31,-331.94C251.78,-316.97 260.71,-296.33 265.71,-284.77"/>
<polygon fill="midnightblue" stroke="midnightblue" points="242.05,-330.65 241.3,-341.22 248.48,-333.43 242.05,-330.65"/>
</g>
<!-- Node11 -->
<g id="node11" class="node">
<title>Node11</title>
<g id="a_node11"><a xlink:href="classdrain_1_1Range.html" target="_top" xlink:title=" ">
<polygon fill="white" stroke="black" points="319,-341.5 319,-360.5 422,-360.5 422,-341.5 319,-341.5"/>
<text text-anchor="middle" x="370.5" y="-348.5" font-family="Helvetica,sans-Serif" font-size="10.00">Range&lt; double &gt;</text>
</a>
</g>
</g>
<!-- Node11&#45;&gt;Node9 -->
<g id="edge11" class="edge">
<title>Node11&#45;&gt;Node9</title>
<path fill="none" stroke="#9a32cd" stroke-dasharray="5,2" d="M337.41,-337.32C328.91,-333.35 320.05,-328.54 312.5,-323 297.34,-311.88 283.35,-294.8 275.66,-284.58"/>
<polygon fill="#9a32cd" stroke="#9a32cd" points="336.19,-340.61 346.76,-341.44 339.02,-334.21 336.19,-340.61"/>
<text text-anchor="middle" x="341.5" y="-310.5" font-family="Helvetica,sans-Serif" font-size="10.00"> physRange</text>
</g>
<!-- Node12 -->
<g id="node12" class="node">
<title>Node12</title>
<g id="a_node12"><a xlink:href="classdrain_1_1UniTuple.html" target="_top" xlink:title=" ">
<polygon fill="white" stroke="black" points="347.5,-398.5 347.5,-417.5 473.5,-417.5 473.5,-398.5 347.5,-398.5"/>
<text text-anchor="middle" x="410.5" y="-405.5" font-family="Helvetica,sans-Serif" font-size="10.00">UniTuple&lt; double, 2 &gt;</text>
</a>
</g>
</g>
<!-- Node12&#45;&gt;Node11 -->
<g id="edge12" class="edge">
<title>Node12&#45;&gt;Node11</title>
<path fill="none" stroke="midnightblue" d="M398.31,-390.23C391.22,-380.49 382.59,-368.62 376.84,-360.71"/>
<polygon fill="midnightblue" stroke="midnightblue" points="395.54,-392.38 404.25,-398.41 401.2,-388.26 395.54,-392.38"/>
</g>
<!-- Node13 -->
<g id="node13" class="node">
<title>Node13</title>
<g id="a_node13"><a xlink:href="structdrain_1_1Point2D.html" target="_top" xlink:title=" ">
<polygon fill="white" stroke="black" points="379.5,-303.5 379.5,-322.5 489.5,-322.5 489.5,-303.5 379.5,-303.5"/>
<text text-anchor="middle" x="434.5" y="-310.5" font-family="Helvetica,sans-Serif" font-size="10.00">Point2D&lt; double &gt;</text>
</a>
</g>
</g>
<!-- Node12&#45;&gt;Node13 -->
<g id="edge14" class="edge">
<title>Node12&#45;&gt;Node13</title>
<path fill="none" stroke="midnightblue" d="M420.49,-389.15C424.65,-380.85 429.07,-370.69 431.5,-361 434.77,-347.99 435.08,-332.36 434.88,-322.81"/>
<polygon fill="midnightblue" stroke="midnightblue" points="417.29,-387.72 415.7,-398.19 423.48,-390.99 417.29,-387.72"/>
</g>
<!-- Node13&#45;&gt;Node7 -->
<g id="edge13" class="edge">
<title>Node13&#45;&gt;Node7</title>
<path fill="none" stroke="#9a32cd" stroke-dasharray="5,2" d="M394.12,-298.82C388.07,-295.22 382.52,-290.69 378.5,-285 341.15,-232.14 352.8,-146.79 357.77,-119.6"/>
<polygon fill="#9a32cd" stroke="#9a32cd" points="392.73,-302.04 403.23,-303.46 395.9,-295.8 392.73,-302.04"/>
<text text-anchor="middle" x="385.5" y="-228" font-family="Helvetica,sans-Serif" font-size="10.00"> resolution</text>
</g>
<!-- Node14 -->
<g id="node14" class="node">
<title>Node14</title>
<g id="a_node14"><a xlink:href="classdrain_1_1Frame2D.html" target="_top" xlink:title=" ">
<polygon fill="white" stroke="black" points="390.5,-176.5 390.5,-195.5 502.5,-195.5 502.5,-176.5 390.5,-176.5"/>
<text text-anchor="middle" x="446.5" y="-183.5" font-family="Helvetica,sans-Serif" font-size="10.00">Frame2D&lt; size_t &gt;</text>
</a>
</g>
</g>
<!-- Node14&#45;&gt;Node7 -->
<g id="edge15" class="edge">
<title>Node14&#45;&gt;Node7</title>
<path fill="none" stroke="#9a32cd" stroke-dasharray="5,2" d="M428.2,-169.43C410.35,-154.25 383.85,-131.71 369.54,-119.54"/>
<polygon fill="#9a32cd" stroke="#9a32cd" points="426.29,-172.41 436.18,-176.22 430.83,-167.08 426.29,-172.41"/>
<text text-anchor="middle" x="425" y="-145.5" font-family="Helvetica,sans-Serif" font-size="10.00"> area</text>
</g>
<!-- Node15 -->
<g id="node15" class="node">
<title>Node15</title>
<g id="a_node15"><a xlink:href="classdrain_1_1UniTuple.html" target="_top" xlink:title=" ">
<polygon fill="white" stroke="black" points="387.5,-265.5 387.5,-284.5 509.5,-284.5 509.5,-265.5 387.5,-265.5"/>
<text text-anchor="middle" x="448.5" y="-272.5" font-family="Helvetica,sans-Serif" font-size="10.00">UniTuple&lt; size_t, 2 &gt;</text>
</a>
</g>
</g>
<!-- Node15&#45;&gt;Node14 -->
<g id="edge16" class="edge">
<title>Node15&#45;&gt;Node14</title>
<path fill="none" stroke="midnightblue" d="M448.07,-255.19C447.64,-236.74 447.02,-209.41 446.7,-195.62"/>
<polygon fill="midnightblue" stroke="midnightblue" points="444.57,-255.42 448.3,-265.34 451.57,-255.26 444.57,-255.42"/>
</g>
</g>
</svg>
