<?xml version="1.0" encoding="UTF-8" standalone="no"?>
<!DOCTYPE svg PUBLIC "-//W3C//DTD SVG 1.1//EN"
 "http://www.w3.org/Graphics/SVG/1.1/DTD/svg11.dtd">
<!-- Generated by graphviz version 2.43.0 (0)
 -->
<!-- Title: Tray&lt; T &gt; Pages: 1 -->
<svg width="120pt" height="140pt"
 viewBox="0.00 0.00 120.00 140.00" xmlns="http://www.w3.org/2000/svg" xmlns:xlink="http://www.w3.org/1999/xlink">
<g id="graph0" class="graph" transform="scale(1 1) rotate(0) translate(4 136)">
<title>Tray&lt; T &gt;</title>
<polygon fill="white" stroke="transparent" points="-4,4 -4,-136 116,-136 116,4 -4,4"/>
<!-- Node1 -->
<g id="node1" class="node">
<title>Node1</title>
<g id="a_node1"><a xlink:title="Set of images, usable for general calls of type traverseFrame(src, dst) .">
<polygon fill="#bfbfbf" stroke="black" points="23,-56.5 23,-75.5 89,-75.5 89,-56.5 23,-56.5"/>
<text text-anchor="middle" x="56" y="-63.5" font-family="Helvetica,sans-Serif" font-size="10.00">Tray&lt; T &gt;</text>
</a>
</g>
</g>
<!-- Node3 -->
<g id="node3" class="node">
<title>Node3</title>
<g id="a_node3"><a xlink:href="classdrain_1_1image_1_1ImageTray.html" target="_top" xlink:title="Container applicable for Channels and Images, with alpha support.">
<polygon fill="white" stroke="black" points="7.5,-0.5 7.5,-19.5 104.5,-19.5 104.5,-0.5 7.5,-0.5"/>
<text text-anchor="middle" x="56" y="-7.5" font-family="Helvetica,sans-Serif" font-size="10.00">ImageTray&lt; T &gt;</text>
</a>
</g>
</g>
<!-- Node1&#45;&gt;Node3 -->
<g id="edge2" class="edge">
<title>Node1&#45;&gt;Node3</title>
<path fill="none" stroke="midnightblue" d="M56,-45.8C56,-36.91 56,-26.78 56,-19.75"/>
<polygon fill="midnightblue" stroke="midnightblue" points="52.5,-46.08 56,-56.08 59.5,-46.08 52.5,-46.08"/>
</g>
<!-- Node2 -->
<g id="node2" class="node">
<title>Node2</title>
<g id="a_node2"><a xlink:title=" ">
<polygon fill="white" stroke="#bfbfbf" points="0,-112.5 0,-131.5 112,-131.5 112,-112.5 0,-112.5"/>
<text text-anchor="middle" x="56" y="-119.5" font-family="Helvetica,sans-Serif" font-size="10.00">map&lt; size_t, T &amp; &gt;</text>
</a>
</g>
</g>
<!-- Node2&#45;&gt;Node1 -->
<g id="edge1" class="edge">
<title>Node2&#45;&gt;Node1</title>
<path fill="none" stroke="midnightblue" d="M56,-101.8C56,-92.91 56,-82.78 56,-75.75"/>
<polygon fill="midnightblue" stroke="midnightblue" points="52.5,-102.08 56,-112.08 59.5,-102.08 52.5,-102.08"/>
</g>
</g>
</svg>
