<?xml version="1.0" encoding="UTF-8" standalone="no"?>
<!DOCTYPE svg PUBLIC "-//W3C//DTD SVG 1.1//EN"
 "http://www.w3.org/Graphics/SVG/1.1/DTD/svg11.dtd">
<!-- Generated by graphviz version 2.43.0 (0)
 -->
<!-- Title: FlexVariable Pages: 1 -->
<svg width="155pt" height="287pt"
 viewBox="0.00 0.00 154.50 287.00" xmlns="http://www.w3.org/2000/svg" xmlns:xlink="http://www.w3.org/1999/xlink">
<g id="graph0" class="graph" transform="scale(1 1) rotate(0) translate(4 283)">
<title>FlexVariable</title>
<polygon fill="white" stroke="transparent" points="-4,4 -4,-283 150.5,-283 150.5,4 -4,4"/>
<!-- Node1 -->
<g id="node1" class="node">
<title>Node1</title>
<g id="a_node1"><a xlink:title="FlexVariable combines behaviour of Variable and Referencer: it is like a Variable that can be also re...">
<polygon fill="#bfbfbf" stroke="black" points="0,-0.5 0,-19.5 78,-19.5 78,-0.5 0,-0.5"/>
<text text-anchor="middle" x="39" y="-7.5" font-family="Helvetica,sans-Serif" font-size="10.00">FlexVariable</text>
</a>
</g>
</g>
<!-- Node2 -->
<g id="node2" class="node">
<title>Node2</title>
<g id="a_node2"><a xlink:href="classdrain_1_1Variable.html" target="_top" xlink:title=" ">
<polygon fill="white" stroke="black" points="10.5,-57.5 10.5,-76.5 67.5,-76.5 67.5,-57.5 10.5,-57.5"/>
<text text-anchor="middle" x="39" y="-64.5" font-family="Helvetica,sans-Serif" font-size="10.00">Variable</text>
</a>
</g>
</g>
<!-- Node2&#45;&gt;Node1 -->
<g id="edge1" class="edge">
<title>Node2&#45;&gt;Node1</title>
<path fill="none" stroke="midnightblue" d="M39,-47.12C39,-37.82 39,-27.06 39,-19.71"/>
<polygon fill="midnightblue" stroke="midnightblue" points="35.5,-47.41 39,-57.41 42.5,-47.41 35.5,-47.41"/>
</g>
<!-- Node3 -->
<g id="node3" class="node">
<title>Node3</title>
<g id="a_node3"><a xlink:href="classdrain_1_1Castable.html" target="_top" xlink:title=" ">
<polygon fill="white" stroke="black" points="5.5,-192.5 5.5,-211.5 64.5,-211.5 64.5,-192.5 5.5,-192.5"/>
<text text-anchor="middle" x="35" y="-199.5" font-family="Helvetica,sans-Serif" font-size="10.00">Castable</text>
</a>
</g>
</g>
<!-- Node3&#45;&gt;Node2 -->
<g id="edge2" class="edge">
<title>Node3&#45;&gt;Node2</title>
<path fill="none" stroke="midnightblue" d="M35.57,-182.13C36.45,-152.88 38.1,-97.76 38.74,-76.59"/>
<polygon fill="midnightblue" stroke="midnightblue" points="32.06,-182.17 35.26,-192.27 39.06,-182.38 32.06,-182.17"/>
</g>
<!-- Node5 -->
<g id="node5" class="node">
<title>Node5</title>
<g id="a_node5"><a xlink:href="classdrain_1_1CastableIterator.html" target="_top" xlink:title=" ">
<polygon fill="white" stroke="black" points="51.5,-135.5 51.5,-154.5 146.5,-154.5 146.5,-135.5 51.5,-135.5"/>
<text text-anchor="middle" x="99" y="-142.5" font-family="Helvetica,sans-Serif" font-size="10.00">CastableIterator</text>
</a>
</g>
</g>
<!-- Node3&#45;&gt;Node5 -->
<g id="edge5" class="edge">
<title>Node3&#45;&gt;Node5</title>
<path fill="none" stroke="darkgreen" d="M52.79,-185.71C64.42,-175.72 79.19,-163.02 88.86,-154.71"/>
<polygon fill="darkgreen" stroke="darkgreen" points="50.3,-183.23 45,-192.41 54.87,-188.54 50.3,-183.23"/>
</g>
<!-- Node4 -->
<g id="node4" class="node">
<title>Node4</title>
<g id="a_node4"><a xlink:href="classdrain_1_1Caster.html" target="_top" xlink:title=" ">
<polygon fill="white" stroke="black" points="11,-259.5 11,-278.5 59,-278.5 59,-259.5 11,-259.5"/>
<text text-anchor="middle" x="35" y="-266.5" font-family="Helvetica,sans-Serif" font-size="10.00">Caster</text>
</a>
</g>
</g>
<!-- Node4&#45;&gt;Node3 -->
<g id="edge3" class="edge">
<title>Node4&#45;&gt;Node3</title>
<path fill="none" stroke="#9a32cd" stroke-dasharray="5,2" d="M35,-249.04C35,-236.67 35,-221.12 35,-211.63"/>
<polygon fill="#9a32cd" stroke="#9a32cd" points="31.5,-249.23 35,-259.23 38.5,-249.23 31.5,-249.23"/>
<text text-anchor="middle" x="52" y="-233" font-family="Helvetica,sans-Serif" font-size="10.00"> caster</text>
</g>
<!-- Node5&#45;&gt;Node2 -->
<g id="edge4" class="edge">
<title>Node5&#45;&gt;Node2</title>
<path fill="none" stroke="#9a32cd" stroke-dasharray="5,2" d="M85.58,-127.01C73.24,-111.37 55.43,-88.81 45.8,-76.62"/>
<polygon fill="#9a32cd" stroke="#9a32cd" points="83.17,-129.6 92.12,-135.28 88.67,-125.26 83.17,-129.6"/>
<text text-anchor="middle" x="101" y="-109" font-family="Helvetica,sans-Serif" font-size="10.00"> dataEnd</text>
<text text-anchor="middle" x="101" y="-98" font-family="Helvetica,sans-Serif" font-size="10.00">dataBegin</text>
</g>
</g>
</svg>
