<?xml version="1.0" encoding="UTF-8" standalone="no"?>
<!DOCTYPE svg PUBLIC "-//W3C//DTD SVG 1.1//EN"
 "http://www.w3.org/Graphics/SVG/1.1/DTD/svg11.dtd">
<!-- Generated by graphviz version 2.43.0 (0)
 -->
<!-- Title: OverwriteMethod Pages: 1 -->
<svg width="956pt" height="859pt"
 viewBox="0.00 0.00 956.00 859.00" xmlns="http://www.w3.org/2000/svg" xmlns:xlink="http://www.w3.org/1999/xlink">
<g id="graph0" class="graph" transform="scale(1 1) rotate(0) translate(4 855)">
<title>OverwriteMethod</title>
<polygon fill="white" stroke="transparent" points="-4,4 -4,-855 952,-855 952,4 -4,4"/>
<!-- Node1 -->
<g id="node1" class="node">
<title>Node1</title>
<g id="a_node1"><a xlink:title=" ">
<polygon fill="#bfbfbf" stroke="black" points="191.5,-0.5 191.5,-19.5 292.5,-19.5 292.5,-0.5 191.5,-0.5"/>
<text text-anchor="middle" x="242" y="-7.5" font-family="Helvetica,sans-Serif" font-size="10.00">OverwriteMethod</text>
</a>
</g>
</g>
<!-- Node2 -->
<g id="node2" class="node">
<title>Node2</title>
<g id="a_node2"><a xlink:href="classdrain_1_1image_1_1AccumulationMethod.html" target="_top" xlink:title="Function for accumulating data: maximum, average, weighted average etc.">
<polygon fill="white" stroke="black" points="182,-57.5 182,-76.5 302,-76.5 302,-57.5 182,-57.5"/>
<text text-anchor="middle" x="242" y="-64.5" font-family="Helvetica,sans-Serif" font-size="10.00">AccumulationMethod</text>
</a>
</g>
</g>
<!-- Node2&#45;&gt;Node1 -->
<g id="edge1" class="edge">
<title>Node2&#45;&gt;Node1</title>
<path fill="none" stroke="midnightblue" d="M242,-47.12C242,-37.82 242,-27.06 242,-19.71"/>
<polygon fill="midnightblue" stroke="midnightblue" points="238.5,-47.41 242,-57.41 245.5,-47.41 238.5,-47.41"/>
</g>
<!-- Node3 -->
<g id="node3" class="node">
<title>Node3</title>
<g id="a_node3"><a xlink:href="classdrain_1_1ReferenceMap.html" target="_top" xlink:title=" ">
<polygon fill="white" stroke="black" points="132.5,-124.5 132.5,-143.5 219.5,-143.5 219.5,-124.5 132.5,-124.5"/>
<text text-anchor="middle" x="176" y="-131.5" font-family="Helvetica,sans-Serif" font-size="10.00">ReferenceMap</text>
</a>
</g>
</g>
<!-- Node3&#45;&gt;Node2 -->
<g id="edge2" class="edge">
<title>Node3&#45;&gt;Node2</title>
<path fill="none" stroke="#9a32cd" stroke-dasharray="5,2" d="M192.25,-117C205.19,-104.25 222.81,-86.89 233.24,-76.63"/>
<polygon fill="#9a32cd" stroke="#9a32cd" points="189.57,-114.72 184.9,-124.23 194.48,-119.71 189.57,-114.72"/>
<text text-anchor="middle" x="243" y="-98" font-family="Helvetica,sans-Serif" font-size="10.00"> parameters</text>
</g>
<!-- Node4 -->
<g id="node4" class="node">
<title>Node4</title>
<g id="a_node4"><a xlink:href="classdrain_1_1SmartMap.html" target="_top" xlink:title=" ">
<polygon fill="white" stroke="black" points="92.5,-213.5 92.5,-232.5 235.5,-232.5 235.5,-213.5 92.5,-213.5"/>
<text text-anchor="middle" x="164" y="-220.5" font-family="Helvetica,sans-Serif" font-size="10.00">SmartMap&lt; Referencer &gt;</text>
</a>
</g>
</g>
<!-- Node4&#45;&gt;Node3 -->
<g id="edge3" class="edge">
<title>Node4&#45;&gt;Node3</title>
<path fill="none" stroke="midnightblue" d="M166.59,-203.19C169.14,-184.74 172.91,-157.41 174.81,-143.62"/>
<polygon fill="midnightblue" stroke="midnightblue" points="163.09,-202.96 165.19,-213.34 170.03,-203.91 163.09,-202.96"/>
</g>
<!-- Node5 -->
<g id="node5" class="node">
<title>Node5</title>
<g id="a_node5"><a xlink:title=" ">
<polygon fill="white" stroke="#bfbfbf" points="73.5,-270.5 73.5,-289.5 242.5,-289.5 242.5,-270.5 73.5,-270.5"/>
<text text-anchor="middle" x="158" y="-277.5" font-family="Helvetica,sans-Serif" font-size="10.00">map&lt; std::string, Referencer &gt;</text>
</a>
</g>
</g>
<!-- Node5&#45;&gt;Node4 -->
<g id="edge4" class="edge">
<title>Node5&#45;&gt;Node4</title>
<path fill="none" stroke="midnightblue" d="M160.03,-260.42C161.05,-251.05 162.24,-240.14 163.05,-232.71"/>
<polygon fill="midnightblue" stroke="midnightblue" points="156.54,-260.09 158.94,-270.41 163.5,-260.84 156.54,-260.09"/>
</g>
<!-- Node6 -->
<g id="node6" class="node">
<title>Node6</title>
<g id="a_node6"><a xlink:href="classdrain_1_1image_1_1AccumulationArray.html" target="_top" xlink:title="General&#45;purpose image compositing.">
<polygon fill="white" stroke="black" points="262,-124.5 262,-143.5 372,-143.5 372,-124.5 262,-124.5"/>
<text text-anchor="middle" x="317" y="-131.5" font-family="Helvetica,sans-Serif" font-size="10.00">AccumulationArray</text>
</a>
</g>
</g>
<!-- Node6&#45;&gt;Node2 -->
<g id="edge5" class="edge">
<title>Node6&#45;&gt;Node2</title>
<path fill="none" stroke="#9a32cd" stroke-dasharray="5,2" d="M300.75,-116.84C293.62,-109.94 285.05,-101.9 277,-95 269.54,-88.61 260.79,-81.86 253.91,-76.71"/>
<polygon fill="#9a32cd" stroke="#9a32cd" points="298.75,-119.78 308.34,-124.28 303.65,-114.78 298.75,-119.78"/>
<text text-anchor="middle" x="337" y="-98" font-family="Helvetica,sans-Serif" font-size="10.00"> accumulationArray</text>
</g>
<!-- Node7 -->
<g id="node7" class="node">
<title>Node7</title>
<g id="a_node7"><a xlink:href="classdrain_1_1image_1_1ImageT.html" target="_top" xlink:title=" ">
<polygon fill="white" stroke="black" points="426,-213.5 426,-232.5 562,-232.5 562,-213.5 426,-213.5"/>
<text text-anchor="middle" x="494" y="-220.5" font-family="Helvetica,sans-Serif" font-size="10.00">ImageT&lt; unsigned int &gt;</text>
</a>
</g>
</g>
<!-- Node7&#45;&gt;Node6 -->
<g id="edge6" class="edge">
<title>Node7&#45;&gt;Node6</title>
<path fill="none" stroke="#9a32cd" stroke-dasharray="5,2" d="M469.71,-208.5C446.83,-195.95 411.45,-176.98 380,-162 366.25,-155.45 350.5,-148.7 338.19,-143.59"/>
<polygon fill="#9a32cd" stroke="#9a32cd" points="468.26,-211.69 478.71,-213.45 471.64,-205.56 468.26,-211.69"/>
<text text-anchor="middle" x="458.5" y="-176" font-family="Helvetica,sans-Serif" font-size="10.00"> count</text>
</g>
<!-- Node8 -->
<g id="node8" class="node">
<title>Node8</title>
<g id="a_node8"><a xlink:href="classdrain_1_1image_1_1ModifiableImage.html" target="_top" xlink:title="Image with modifiable geometry.">
<polygon fill="white" stroke="black" points="444.5,-270.5 444.5,-289.5 543.5,-289.5 543.5,-270.5 444.5,-270.5"/>
<text text-anchor="middle" x="494" y="-277.5" font-family="Helvetica,sans-Serif" font-size="10.00">ModifiableImage</text>
</a>
</g>
</g>
<!-- Node8&#45;&gt;Node7 -->
<g id="edge7" class="edge">
<title>Node8&#45;&gt;Node7</title>
<path fill="none" stroke="midnightblue" d="M494,-260.12C494,-250.82 494,-240.06 494,-232.71"/>
<polygon fill="midnightblue" stroke="midnightblue" points="490.5,-260.41 494,-270.41 497.5,-260.41 490.5,-260.41"/>
</g>
<!-- Node33 -->
<g id="node33" class="node">
<title>Node33</title>
<g id="a_node33"><a xlink:href="classdrain_1_1image_1_1ImageT.html" target="_top" xlink:title=" ">
<polygon fill="white" stroke="black" points="298.5,-213.5 298.5,-232.5 407.5,-232.5 407.5,-213.5 298.5,-213.5"/>
<text text-anchor="middle" x="353" y="-220.5" font-family="Helvetica,sans-Serif" font-size="10.00">ImageT&lt; double &gt;</text>
</a>
</g>
</g>
<!-- Node8&#45;&gt;Node33 -->
<g id="edge35" class="edge">
<title>Node8&#45;&gt;Node33</title>
<path fill="none" stroke="midnightblue" d="M462.34,-266.65C435.7,-256.26 398.3,-241.67 374.88,-232.53"/>
<polygon fill="midnightblue" stroke="midnightblue" points="461.38,-270.03 471.97,-270.41 463.92,-263.51 461.38,-270.03"/>
</g>
<!-- Node9 -->
<g id="node9" class="node">
<title>Node9</title>
<g id="a_node9"><a xlink:href="classdrain_1_1image_1_1MultiChannel.html" target="_top" xlink:title="Multi&#45;channel ImageFrame.">
<polygon fill="white" stroke="black" points="537.5,-327.5 537.5,-346.5 618.5,-346.5 618.5,-327.5 537.5,-327.5"/>
<text text-anchor="middle" x="578" y="-334.5" font-family="Helvetica,sans-Serif" font-size="10.00">MultiChannel</text>
</a>
</g>
</g>
<!-- Node9&#45;&gt;Node8 -->
<g id="edge8" class="edge">
<title>Node9&#45;&gt;Node8</title>
<path fill="none" stroke="midnightblue" d="M556.35,-321.82C540.74,-311.61 520.19,-298.15 507.03,-289.53"/>
<polygon fill="midnightblue" stroke="midnightblue" points="554.59,-324.86 564.88,-327.41 558.43,-319 554.59,-324.86"/>
</g>
<!-- Node10 -->
<g id="node10" class="node">
<title>Node10</title>
<g id="a_node10"><a xlink:href="classdrain_1_1image_1_1ImageFrame.html" target="_top" xlink:title="Image with static geometry.">
<polygon fill="white" stroke="black" points="622,-384.5 622,-403.5 700,-403.5 700,-384.5 622,-384.5"/>
<text text-anchor="middle" x="661" y="-391.5" font-family="Helvetica,sans-Serif" font-size="10.00">ImageFrame</text>
</a>
</g>
</g>
<!-- Node10&#45;&gt;Node9 -->
<g id="edge9" class="edge">
<title>Node10&#45;&gt;Node9</title>
<path fill="none" stroke="midnightblue" d="M639.61,-378.82C624.19,-368.61 603.88,-355.15 590.88,-346.53"/>
<polygon fill="midnightblue" stroke="midnightblue" points="637.76,-381.8 648.03,-384.41 641.63,-375.96 637.76,-381.8"/>
</g>
<!-- Node11 -->
<g id="node11" class="node">
<title>Node11</title>
<g id="a_node11"><a xlink:href="classdrain_1_1image_1_1ImageLike.html" target="_top" xlink:title="A base class for images.">
<polygon fill="white" stroke="black" points="559.5,-463.5 559.5,-482.5 626.5,-482.5 626.5,-463.5 559.5,-463.5"/>
<text text-anchor="middle" x="593" y="-470.5" font-family="Helvetica,sans-Serif" font-size="10.00">ImageLike</text>
</a>
</g>
</g>
<!-- Node11&#45;&gt;Node10 -->
<g id="edge10" class="edge">
<title>Node11&#45;&gt;Node10</title>
<path fill="none" stroke="midnightblue" d="M607.52,-455.56C621.5,-439.73 642.11,-416.39 653.22,-403.81"/>
<polygon fill="midnightblue" stroke="midnightblue" points="604.53,-453.65 600.54,-463.47 609.78,-458.29 604.53,-453.65"/>
</g>
<!-- Node12 -->
<g id="node12" class="node">
<title>Node12</title>
<g id="a_node12"><a xlink:href="classdrain_1_1image_1_1ImageConf.html" target="_top" xlink:title="Struct for image (excluding data)">
<polygon fill="white" stroke="black" points="537,-540.5 537,-559.5 607,-559.5 607,-540.5 537,-540.5"/>
<text text-anchor="middle" x="572" y="-547.5" font-family="Helvetica,sans-Serif" font-size="10.00">ImageConf</text>
</a>
</g>
</g>
<!-- Node12&#45;&gt;Node11 -->
<g id="edge11" class="edge">
<title>Node12&#45;&gt;Node11</title>
<path fill="none" stroke="#9a32cd" stroke-dasharray="5,2" d="M577.19,-530.47C581.48,-515.15 587.37,-494.09 590.62,-482.5"/>
<polygon fill="#9a32cd" stroke="#9a32cd" points="573.73,-529.82 574.41,-540.4 580.48,-531.71 573.73,-529.82"/>
<text text-anchor="middle" x="597.5" y="-509.5" font-family="Helvetica,sans-Serif" font-size="10.00"> conf</text>
</g>
<!-- Node13 -->
<g id="node13" class="node">
<title>Node13</title>
<g id="a_node13"><a xlink:href="classdrain_1_1image_1_1Encoding.html" target="_top" xlink:title=" ">
<polygon fill="white" stroke="black" points="613.5,-618.5 613.5,-637.5 674.5,-637.5 674.5,-618.5 613.5,-618.5"/>
<text text-anchor="middle" x="644" y="-625.5" font-family="Helvetica,sans-Serif" font-size="10.00">Encoding</text>
</a>
</g>
</g>
<!-- Node13&#45;&gt;Node12 -->
<g id="edge12" class="edge">
<title>Node13&#45;&gt;Node12</title>
<path fill="none" stroke="midnightblue" d="M628.72,-610.88C613.89,-595.22 591.93,-572.04 580.16,-559.62"/>
<polygon fill="midnightblue" stroke="midnightblue" points="626.32,-613.43 635.74,-618.28 631.4,-608.62 626.32,-613.43"/>
</g>
<!-- Node14 -->
<g id="node14" class="node">
<title>Node14</title>
<g id="a_node14"><a xlink:href="classdrain_1_1ValueScaling.html" target="_top" xlink:title="Linear scaling and physical range for image intensities.">
<polygon fill="white" stroke="black" points="786,-691 786,-710 866,-710 866,-691 786,-691"/>
<text text-anchor="middle" x="826" y="-698" font-family="Helvetica,sans-Serif" font-size="10.00">ValueScaling</text>
</a>
</g>
</g>
<!-- Node14&#45;&gt;Node13 -->
<g id="edge13" class="edge">
<title>Node14&#45;&gt;Node13</title>
<path fill="none" stroke="midnightblue" d="M794.34,-687.24C757.62,-673.01 698.05,-649.94 666.03,-637.53"/>
<polygon fill="midnightblue" stroke="midnightblue" points="793.46,-690.65 804.05,-691 795.99,-684.12 793.46,-690.65"/>
</g>
<!-- Node15 -->
<g id="node15" class="node">
<title>Node15</title>
<g id="a_node15"><a xlink:href="classdrain_1_1UniTuple.html" target="_top" xlink:title=" ">
<polygon fill="white" stroke="black" points="784,-769 784,-788 910,-788 910,-769 784,-769"/>
<text text-anchor="middle" x="847" y="-776" font-family="Helvetica,sans-Serif" font-size="10.00">UniTuple&lt; double, 4 &gt;</text>
</a>
</g>
</g>
<!-- Node15&#45;&gt;Node14 -->
<g id="edge14" class="edge">
<title>Node15&#45;&gt;Node14</title>
<path fill="none" stroke="midnightblue" d="M841.81,-758.72C837.52,-743.2 831.63,-721.86 828.38,-710.12"/>
<polygon fill="midnightblue" stroke="midnightblue" points="838.55,-760.08 844.59,-768.78 845.3,-758.21 838.55,-760.08"/>
</g>
<!-- Node16 -->
<g id="node16" class="node">
<title>Node16</title>
<g id="a_node16"><a xlink:href="classdrain_1_1Range.html" target="_top" xlink:title=" ">
<polygon fill="white" stroke="black" points="662.5,-769 662.5,-788 765.5,-788 765.5,-769 662.5,-769"/>
<text text-anchor="middle" x="714" y="-776" font-family="Helvetica,sans-Serif" font-size="10.00">Range&lt; double &gt;</text>
</a>
</g>
</g>
<!-- Node16&#45;&gt;Node14 -->
<g id="edge15" class="edge">
<title>Node16&#45;&gt;Node14</title>
<path fill="none" stroke="#9a32cd" stroke-dasharray="5,2" d="M733.08,-762.79C744.49,-754.16 759.37,-743.18 773,-734 785.71,-725.44 800.63,-716.38 811.39,-710"/>
<polygon fill="#9a32cd" stroke="#9a32cd" points="730.94,-760.02 725.11,-768.87 735.18,-765.59 730.94,-760.02"/>
<text text-anchor="middle" x="802" y="-737" font-family="Helvetica,sans-Serif" font-size="10.00"> physRange</text>
</g>
<!-- Node17 -->
<g id="node17" class="node">
<title>Node17</title>
<g id="a_node17"><a xlink:href="classdrain_1_1UniTuple.html" target="_top" xlink:title=" ">
<polygon fill="white" stroke="black" points="651,-831.5 651,-850.5 777,-850.5 777,-831.5 651,-831.5"/>
<text text-anchor="middle" x="714" y="-838.5" font-family="Helvetica,sans-Serif" font-size="10.00">UniTuple&lt; double, 2 &gt;</text>
</a>
</g>
</g>
<!-- Node17&#45;&gt;Node16 -->
<g id="edge16" class="edge">
<title>Node17&#45;&gt;Node16</title>
<path fill="none" stroke="midnightblue" d="M714,-821C714,-810 714,-796.68 714,-788.15"/>
<polygon fill="midnightblue" stroke="midnightblue" points="710.5,-821.33 714,-831.33 717.5,-821.33 710.5,-821.33"/>
</g>
<!-- Node18 -->
<g id="node18" class="node">
<title>Node18</title>
<g id="a_node18"><a xlink:href="classdrain_1_1Caster.html" target="_top" xlink:title=" ">
<polygon fill="white" stroke="black" points="888,-691 888,-710 936,-710 936,-691 888,-691"/>
<text text-anchor="middle" x="912" y="-698" font-family="Helvetica,sans-Serif" font-size="10.00">Caster</text>
</a>
</g>
</g>
<!-- Node18&#45;&gt;Node13 -->
<g id="edge17" class="edge">
<title>Node18&#45;&gt;Node13</title>
<path fill="none" stroke="#9a32cd" stroke-dasharray="5,2" d="M881.95,-687.33C879.61,-686.51 877.28,-685.72 875,-685 837.61,-673.2 728.48,-648.07 674.69,-635.89"/>
<polygon fill="#9a32cd" stroke="#9a32cd" points="880.84,-690.66 891.43,-690.87 883.29,-684.1 880.84,-690.66"/>
<text text-anchor="middle" x="819" y="-659" font-family="Helvetica,sans-Serif" font-size="10.00"> caster</text>
</g>
<!-- Node29 -->
<g id="node29" class="node">
<title>Node29</title>
<g id="a_node29"><a xlink:href="classdrain_1_1Castable.html" target="_top" xlink:title=" ">
<polygon fill="white" stroke="black" points="887.5,-618.5 887.5,-637.5 946.5,-637.5 946.5,-618.5 887.5,-618.5"/>
<text text-anchor="middle" x="917" y="-625.5" font-family="Helvetica,sans-Serif" font-size="10.00">Castable</text>
</a>
</g>
</g>
<!-- Node18&#45;&gt;Node29 -->
<g id="edge30" class="edge">
<title>Node18&#45;&gt;Node29</title>
<path fill="none" stroke="#9a32cd" stroke-dasharray="5,2" d="M913.32,-680.86C914.31,-666.9 915.62,-648.43 916.38,-637.72"/>
<polygon fill="#9a32cd" stroke="#9a32cd" points="909.83,-680.63 912.61,-690.86 916.81,-681.13 909.83,-680.63"/>
<text text-anchor="middle" x="931" y="-659" font-family="Helvetica,sans-Serif" font-size="10.00"> caster</text>
</g>
<!-- Node19 -->
<g id="node19" class="node">
<title>Node19</title>
<g id="a_node19"><a xlink:href="classdrain_1_1image_1_1Geometry.html" target="_top" xlink:title=" ">
<polygon fill="white" stroke="black" points="530.5,-618.5 530.5,-637.5 595.5,-637.5 595.5,-618.5 530.5,-618.5"/>
<text text-anchor="middle" x="563" y="-625.5" font-family="Helvetica,sans-Serif" font-size="10.00">Geometry</text>
</a>
</g>
</g>
<!-- Node19&#45;&gt;Node12 -->
<g id="edge18" class="edge">
<title>Node19&#45;&gt;Node12</title>
<path fill="none" stroke="midnightblue" d="M565.22,-608.22C567.06,-592.7 569.59,-571.36 570.98,-559.62"/>
<polygon fill="midnightblue" stroke="midnightblue" points="561.73,-607.94 564.03,-618.28 568.68,-608.76 561.73,-607.94"/>
</g>
<!-- Node20 -->
<g id="node20" class="node">
<title>Node20</title>
<g id="a_node20"><a xlink:href="classdrain_1_1UniTuple.html" target="_top" xlink:title=" ">
<polygon fill="white" stroke="black" points="646,-691 646,-710 768,-710 768,-691 646,-691"/>
<text text-anchor="middle" x="707" y="-698" font-family="Helvetica,sans-Serif" font-size="10.00">UniTuple&lt; size_t, 4 &gt;</text>
</a>
</g>
</g>
<!-- Node20&#45;&gt;Node19 -->
<g id="edge19" class="edge">
<title>Node20&#45;&gt;Node19</title>
<path fill="none" stroke="midnightblue" d="M680.44,-686.5C651.29,-672.23 605.33,-649.73 580.43,-637.53"/>
<polygon fill="midnightblue" stroke="midnightblue" points="679.11,-689.74 689.63,-691 682.19,-683.46 679.11,-689.74"/>
</g>
<!-- Node21 -->
<g id="node21" class="node">
<title>Node21</title>
<g id="a_node21"><a xlink:href="classdrain_1_1Frame2D.html" target="_top" xlink:title=" ">
<polygon fill="white" stroke="black" points="516,-691 516,-710 628,-710 628,-691 516,-691"/>
<text text-anchor="middle" x="572" y="-698" font-family="Helvetica,sans-Serif" font-size="10.00">Frame2D&lt; size_t &gt;</text>
</a>
</g>
</g>
<!-- Node21&#45;&gt;Node19 -->
<g id="edge20" class="edge">
<title>Node21&#45;&gt;Node19</title>
<path fill="none" stroke="#9a32cd" stroke-dasharray="5,2" d="M569.62,-680.86C567.84,-666.9 565.48,-648.43 564.11,-637.72"/>
<polygon fill="#9a32cd" stroke="#9a32cd" points="566.16,-681.38 570.9,-690.86 573.1,-680.49 566.16,-681.38"/>
<text text-anchor="middle" x="580.5" y="-659" font-family="Helvetica,sans-Serif" font-size="10.00"> area</text>
</g>
<!-- Node22 -->
<g id="node22" class="node">
<title>Node22</title>
<g id="a_node22"><a xlink:href="classdrain_1_1UniTuple.html" target="_top" xlink:title=" ">
<polygon fill="white" stroke="black" points="489,-769 489,-788 611,-788 611,-769 489,-769"/>
<text text-anchor="middle" x="550" y="-776" font-family="Helvetica,sans-Serif" font-size="10.00">UniTuple&lt; size_t, 2 &gt;</text>
</a>
</g>
</g>
<!-- Node22&#45;&gt;Node21 -->
<g id="edge21" class="edge">
<title>Node22&#45;&gt;Node21</title>
<path fill="none" stroke="midnightblue" d="M555.3,-759.17C559.81,-743.61 566.07,-721.97 569.51,-710.12"/>
<polygon fill="midnightblue" stroke="midnightblue" points="551.94,-758.2 552.52,-768.78 558.67,-760.15 551.94,-758.2"/>
</g>
<!-- Node23 -->
<g id="node23" class="node">
<title>Node23</title>
<g id="a_node23"><a xlink:href="classdrain_1_1image_1_1ChannelGeometry.html" target="_top" xlink:title=" ">
<polygon fill="white" stroke="black" points="392.5,-691 392.5,-710 497.5,-710 497.5,-691 392.5,-691"/>
<text text-anchor="middle" x="445" y="-698" font-family="Helvetica,sans-Serif" font-size="10.00">ChannelGeometry</text>
</a>
</g>
</g>
<!-- Node22&#45;&gt;Node23 -->
<g id="edge23" class="edge">
<title>Node22&#45;&gt;Node23</title>
<path fill="none" stroke="midnightblue" d="M529.77,-762.86C508.16,-747.22 474.62,-722.94 456.9,-710.12"/>
<polygon fill="midnightblue" stroke="midnightblue" points="527.8,-765.75 537.96,-768.78 531.91,-760.08 527.8,-765.75"/>
</g>
<!-- Node23&#45;&gt;Node19 -->
<g id="edge22" class="edge">
<title>Node23&#45;&gt;Node19</title>
<path fill="none" stroke="#9a32cd" stroke-dasharray="5,2" d="M467.66,-685.39C481.56,-676.8 499.74,-665.65 516,-656 526.52,-649.76 538.48,-642.89 547.7,-637.65"/>
<polygon fill="#9a32cd" stroke="#9a32cd" points="465.46,-682.64 458.81,-690.88 469.15,-688.59 465.46,-682.64"/>
<text text-anchor="middle" x="539.5" y="-659" font-family="Helvetica,sans-Serif" font-size="10.00"> channels</text>
</g>
<!-- Node24 -->
<g id="node24" class="node">
<title>Node24</title>
<g id="a_node24"><a xlink:href="classdrain_1_1image_1_1CoordinatePolicy.html" target="_top" xlink:title="Policies for coordinate underflows and overflows.">
<polygon fill="white" stroke="black" points="261.5,-618.5 261.5,-637.5 360.5,-637.5 360.5,-618.5 261.5,-618.5"/>
<text text-anchor="middle" x="311" y="-625.5" font-family="Helvetica,sans-Serif" font-size="10.00">CoordinatePolicy</text>
</a>
</g>
</g>
<!-- Node24&#45;&gt;Node12 -->
<g id="edge24" class="edge">
<title>Node24&#45;&gt;Node12</title>
<path fill="none" stroke="#9a32cd" stroke-dasharray="5,2" d="M349.89,-615.52C383.73,-605.55 434.08,-590.75 478,-578 499.36,-571.8 523.47,-564.87 541.93,-559.59"/>
<polygon fill="#9a32cd" stroke="#9a32cd" points="348.55,-612.27 339.95,-618.45 350.53,-618.98 348.55,-612.27"/>
<text text-anchor="middle" x="520.5" y="-586.5" font-family="Helvetica,sans-Serif" font-size="10.00"> coordinatePolicy</text>
</g>
<!-- Node34 -->
<g id="node34" class="node">
<title>Node34</title>
<g id="a_node34"><a xlink:href="classdrain_1_1image_1_1CoordinateHandler2D.html" target="_top" xlink:title=" ">
<polygon fill="white" stroke="black" points="190,-540.5 190,-559.5 312,-559.5 312,-540.5 190,-540.5"/>
<text text-anchor="middle" x="251" y="-547.5" font-family="Helvetica,sans-Serif" font-size="10.00">CoordinateHandler2D</text>
</a>
</g>
</g>
<!-- Node24&#45;&gt;Node34 -->
<g id="edge41" class="edge">
<title>Node24&#45;&gt;Node34</title>
<path fill="none" stroke="#9a32cd" stroke-dasharray="5,2" d="M297.58,-610.01C285.24,-594.37 267.43,-571.81 257.8,-559.62"/>
<polygon fill="#9a32cd" stroke="#9a32cd" points="295.17,-612.6 304.12,-618.28 300.67,-608.26 295.17,-612.6"/>
<text text-anchor="middle" x="305.5" y="-586.5" font-family="Helvetica,sans-Serif" font-size="10.00"> policy</text>
</g>
<!-- Node25 -->
<g id="node25" class="node">
<title>Node25</title>
<g id="a_node25"><a xlink:href="classdrain_1_1UniTuple.html" target="_top" xlink:title=" ">
<polygon fill="white" stroke="black" points="124.5,-685.5 124.5,-715.5 241.5,-715.5 241.5,-685.5 124.5,-685.5"/>
<text text-anchor="start" x="132.5" y="-703.5" font-family="Helvetica,sans-Serif" font-size="10.00">UniTuple&lt; coord_pol</text>
<text text-anchor="middle" x="183" y="-692.5" font-family="Helvetica,sans-Serif" font-size="10.00">_t, 4 &gt;</text>
</a>
</g>
</g>
<!-- Node25&#45;&gt;Node24 -->
<g id="edge25" class="edge">
<title>Node25&#45;&gt;Node24</title>
<path fill="none" stroke="midnightblue" d="M217.56,-680.47C242.97,-666.47 276.29,-648.12 295.51,-637.53"/>
<polygon fill="midnightblue" stroke="midnightblue" points="215.67,-677.51 208.6,-685.4 219.04,-683.64 215.67,-677.51"/>
</g>
<!-- Node26 -->
<g id="node26" class="node">
<title>Node26</title>
<g id="a_node26"><a xlink:href="classdrain_1_1Dictionary2.html" target="_top" xlink:title="Two&#45;way mapping between strings and objects of template class T.">
<polygon fill="white" stroke="black" points="259.5,-691 259.5,-710 374.5,-710 374.5,-691 259.5,-691"/>
<text text-anchor="middle" x="317" y="-698" font-family="Helvetica,sans-Serif" font-size="10.00">Dictionary2&lt; K, V &gt;</text>
</a>
</g>
</g>
<!-- Node26&#45;&gt;Node24 -->
<g id="edge26" class="edge">
<title>Node26&#45;&gt;Node24</title>
<path fill="none" stroke="#9a32cd" stroke-dasharray="5,2" d="M315.41,-680.86C314.23,-666.9 312.65,-648.43 311.74,-637.72"/>
<polygon fill="#9a32cd" stroke="#9a32cd" points="311.93,-681.19 316.26,-690.86 318.9,-680.59 311.93,-681.19"/>
<text text-anchor="middle" x="326" y="-659" font-family="Helvetica,sans-Serif" font-size="10.00"> dict</text>
</g>
<!-- Node27 -->
<g id="node27" class="node">
<title>Node27</title>
<g id="a_node27"><a xlink:title=" ">
<polygon fill="white" stroke="#bfbfbf" points="265,-763.5 265,-793.5 369,-793.5 369,-763.5 265,-763.5"/>
<text text-anchor="start" x="273" y="-781.5" font-family="Helvetica,sans-Serif" font-size="10.00">list&lt; std::pair&lt; K,</text>
<text text-anchor="middle" x="317" y="-770.5" font-family="Helvetica,sans-Serif" font-size="10.00"> V &gt; &gt;</text>
</a>
</g>
</g>
<!-- Node27&#45;&gt;Node26 -->
<g id="edge27" class="edge">
<title>Node27&#45;&gt;Node26</title>
<path fill="none" stroke="midnightblue" d="M317,-753.17C317,-738.4 317,-720.45 317,-710.06"/>
<polygon fill="midnightblue" stroke="midnightblue" points="313.5,-753.2 317,-763.2 320.5,-753.21 313.5,-753.2"/>
</g>
<!-- Node28 -->
<g id="node28" class="node">
<title>Node28</title>
<g id="a_node28"><a xlink:href="classdrain_1_1CastableIterator.html" target="_top" xlink:title=" ">
<polygon fill="white" stroke="black" points="787.5,-502.5 787.5,-521.5 882.5,-521.5 882.5,-502.5 787.5,-502.5"/>
<text text-anchor="middle" x="835" y="-509.5" font-family="Helvetica,sans-Serif" font-size="10.00">CastableIterator</text>
</a>
</g>
</g>
<!-- Node28&#45;&gt;Node10 -->
<g id="edge28" class="edge">
<title>Node28&#45;&gt;Node10</title>
<path fill="none" stroke="#9a32cd" stroke-dasharray="5,2" d="M825.94,-493.56C814.48,-473.26 792.85,-440.22 765,-422 745.72,-409.39 720.84,-402.66 700.25,-399.08"/>
<polygon fill="#9a32cd" stroke="#9a32cd" points="822.88,-495.26 830.72,-502.37 829.03,-491.92 822.88,-495.26"/>
<text text-anchor="middle" x="854.5" y="-476" font-family="Helvetica,sans-Serif" font-size="10.00"> segmentEnd</text>
<text text-anchor="middle" x="854.5" y="-465" font-family="Helvetica,sans-Serif" font-size="10.00">segmentBegin</text>
</g>
<!-- Node29&#45;&gt;Node28 -->
<g id="edge29" class="edge">
<title>Node29&#45;&gt;Node28</title>
<path fill="none" stroke="darkgreen" d="M904.82,-610.07C887.08,-585.4 854.78,-540.49 841.23,-521.67"/>
<polygon fill="darkgreen" stroke="darkgreen" points="902.16,-612.36 910.84,-618.43 907.84,-608.27 902.16,-612.36"/>
</g>
<!-- Node30 -->
<g id="node30" class="node">
<title>Node30</title>
<g id="a_node30"><a xlink:href="classdrain_1_1FlexVariableMap.html" target="_top" xlink:title="A map of FlexVariable:s.">
<polygon fill="white" stroke="black" points="663.5,-463.5 663.5,-482.5 762.5,-482.5 762.5,-463.5 663.5,-463.5"/>
<text text-anchor="middle" x="713" y="-470.5" font-family="Helvetica,sans-Serif" font-size="10.00">FlexVariableMap</text>
</a>
</g>
</g>
<!-- Node30&#45;&gt;Node10 -->
<g id="edge31" class="edge">
<title>Node30&#45;&gt;Node10</title>
<path fill="none" stroke="#9a32cd" stroke-dasharray="5,2" d="M701.6,-455.12C690.92,-439.3 675.37,-416.27 666.95,-403.81"/>
<polygon fill="#9a32cd" stroke="#9a32cd" points="698.74,-457.14 707.24,-463.47 704.54,-453.22 698.74,-457.14"/>
<text text-anchor="middle" x="727.5" y="-436" font-family="Helvetica,sans-Serif" font-size="10.00"> propertiesPtr</text>
<text text-anchor="middle" x="727.5" y="-425" font-family="Helvetica,sans-Serif" font-size="10.00">properties</text>
</g>
<!-- Node31 -->
<g id="node31" class="node">
<title>Node31</title>
<g id="a_node31"><a xlink:href="classdrain_1_1SmartMap.html" target="_top" xlink:title=" ">
<polygon fill="white" stroke="black" points="641.5,-540.5 641.5,-559.5 792.5,-559.5 792.5,-540.5 641.5,-540.5"/>
<text text-anchor="middle" x="717" y="-547.5" font-family="Helvetica,sans-Serif" font-size="10.00">SmartMap&lt; FlexVariable &gt;</text>
</a>
</g>
</g>
<!-- Node31&#45;&gt;Node30 -->
<g id="edge32" class="edge">
<title>Node31&#45;&gt;Node30</title>
<path fill="none" stroke="midnightblue" d="M715.99,-530.02C715.17,-514.74 714.07,-493.98 713.45,-482.5"/>
<polygon fill="midnightblue" stroke="midnightblue" points="712.51,-530.6 716.54,-540.4 719.5,-530.22 712.51,-530.6"/>
</g>
<!-- Node32 -->
<g id="node32" class="node">
<title>Node32</title>
<g id="a_node32"><a xlink:title=" ">
<polygon fill="white" stroke="#bfbfbf" points="692.5,-618.5 692.5,-637.5 869.5,-637.5 869.5,-618.5 692.5,-618.5"/>
<text text-anchor="middle" x="781" y="-625.5" font-family="Helvetica,sans-Serif" font-size="10.00">map&lt; std::string, FlexVariable &gt;</text>
</a>
</g>
</g>
<!-- Node32&#45;&gt;Node31 -->
<g id="edge33" class="edge">
<title>Node32&#45;&gt;Node31</title>
<path fill="none" stroke="midnightblue" d="M767.06,-610.44C753.88,-594.79 734.62,-571.93 724.26,-559.62"/>
<polygon fill="midnightblue" stroke="midnightblue" points="764.54,-612.89 773.66,-618.28 769.89,-608.38 764.54,-612.89"/>
</g>
<!-- Node33&#45;&gt;Node6 -->
<g id="edge34" class="edge">
<title>Node33&#45;&gt;Node6</title>
<path fill="none" stroke="#9a32cd" stroke-dasharray="5,2" d="M345.54,-203.97C337.9,-185.51 326.35,-157.61 320.57,-143.62"/>
<polygon fill="#9a32cd" stroke="#9a32cd" points="342.36,-205.44 349.42,-213.34 348.83,-202.76 342.36,-205.44"/>
<text text-anchor="middle" x="359" y="-187" font-family="Helvetica,sans-Serif" font-size="10.00"> data2</text>
<text text-anchor="middle" x="359" y="-176" font-family="Helvetica,sans-Serif" font-size="10.00">weight</text>
<text text-anchor="middle" x="359" y="-165" font-family="Helvetica,sans-Serif" font-size="10.00">data</text>
</g>
<!-- Node34&#45;&gt;Node6 -->
<g id="edge36" class="edge">
<title>Node34&#45;&gt;Node6</title>
<path fill="none" stroke="#9a32cd" stroke-dasharray="5,2" d="M258.28,-530.85C263.64,-515.86 270,-493.89 270,-474 270,-474 270,-474 270,-222 270,-190.07 294.81,-158.61 308.38,-143.79"/>
<polygon fill="#9a32cd" stroke="#9a32cd" points="254.94,-529.81 254.66,-540.4 261.48,-532.29 254.94,-529.81"/>
<text text-anchor="middle" x="317" y="-334.5" font-family="Helvetica,sans-Serif" font-size="10.00"> coordinateHandler</text>
</g>
<!-- Node35 -->
<g id="node35" class="node">
<title>Node35</title>
<g id="a_node35"><a xlink:href="classdrain_1_1Range.html" target="_top" xlink:title=" ">
<polygon fill="white" stroke="black" points="41.5,-618.5 41.5,-637.5 124.5,-637.5 124.5,-618.5 41.5,-618.5"/>
<text text-anchor="middle" x="83" y="-625.5" font-family="Helvetica,sans-Serif" font-size="10.00">Range&lt; int &gt;</text>
</a>
</g>
</g>
<!-- Node35&#45;&gt;Node34 -->
<g id="edge37" class="edge">
<title>Node35&#45;&gt;Node34</title>
<path fill="none" stroke="#9a32cd" stroke-dasharray="5,2" d="M104.89,-612.9C121.91,-602.35 146.34,-588.06 169,-578 185.44,-570.7 204.48,-564.31 220.08,-559.58"/>
<polygon fill="#9a32cd" stroke="#9a32cd" points="102.87,-610.04 96.27,-618.33 106.59,-615.97 102.87,-610.04"/>
<text text-anchor="middle" x="189" y="-592" font-family="Helvetica,sans-Serif" font-size="10.00"> yRange</text>
<text text-anchor="middle" x="189" y="-581" font-family="Helvetica,sans-Serif" font-size="10.00">xRange</text>
</g>
<!-- Node36 -->
<g id="node36" class="node">
<title>Node36</title>
<g id="a_node36"><a xlink:href="classdrain_1_1UniTuple.html" target="_top" xlink:title=" ">
<polygon fill="white" stroke="black" points="0,-691 0,-710 106,-710 106,-691 0,-691"/>
<text text-anchor="middle" x="53" y="-698" font-family="Helvetica,sans-Serif" font-size="10.00">UniTuple&lt; int, 2 &gt;</text>
</a>
</g>
</g>
<!-- Node36&#45;&gt;Node35 -->
<g id="edge38" class="edge">
<title>Node36&#45;&gt;Node35</title>
<path fill="none" stroke="midnightblue" d="M60.76,-681.27C66.72,-667.26 74.69,-648.53 79.29,-637.72"/>
<polygon fill="midnightblue" stroke="midnightblue" points="57.37,-680.28 56.68,-690.86 63.81,-683.02 57.37,-680.28"/>
</g>
<!-- Node37 -->
<g id="node37" class="node">
<title>Node37</title>
<g id="a_node37"><a xlink:href="classdrain_1_1Frame2D.html" target="_top" xlink:title=" ">
<polygon fill="white" stroke="black" points="145,-618.5 145,-637.5 241,-637.5 241,-618.5 145,-618.5"/>
<text text-anchor="middle" x="193" y="-625.5" font-family="Helvetica,sans-Serif" font-size="10.00">Frame2D&lt; int &gt;</text>
</a>
</g>
</g>
<!-- Node36&#45;&gt;Node37 -->
<g id="edge40" class="edge">
<title>Node36&#45;&gt;Node37</title>
<path fill="none" stroke="midnightblue" d="M78.82,-686.5C107.16,-672.23 151.84,-649.73 176.05,-637.53"/>
<polygon fill="midnightblue" stroke="midnightblue" points="77.24,-683.37 69.89,-691 80.39,-689.62 77.24,-683.37"/>
</g>
<!-- Node37&#45;&gt;Node34 -->
<g id="edge39" class="edge">
<title>Node37&#45;&gt;Node34</title>
<path fill="none" stroke="#9a32cd" stroke-dasharray="5,2" d="M204.67,-609.91C211.32,-600.38 219.91,-588.37 228,-578 232.85,-571.79 238.6,-565.04 243.14,-559.84"/>
<polygon fill="#9a32cd" stroke="#9a32cd" points="201.78,-607.94 198.98,-618.16 207.54,-611.92 201.78,-607.94"/>
<text text-anchor="middle" x="240.5" y="-586.5" font-family="Helvetica,sans-Serif" font-size="10.00"> area</text>
</g>
</g>
</svg>
