<?xml version="1.0" encoding="UTF-8" standalone="no"?>
<!DOCTYPE svg PUBLIC "-//W3C//DTD SVG 1.1//EN"
 "http://www.w3.org/Graphics/SVG/1.1/DTD/svg11.dtd">
<!-- Generated by graphviz version 2.43.0 (0)
 -->
<!-- Title: SpeckleOp Pages: 1 -->
<svg width="170pt" height="375pt"
 viewBox="0.00 0.00 170.00 375.00" xmlns="http://www.w3.org/2000/svg" xmlns:xlink="http://www.w3.org/1999/xlink">
<g id="graph0" class="graph" transform="scale(1 1) rotate(0) translate(4 371)">
<title>SpeckleOp</title>
<polygon fill="white" stroke="transparent" points="-4,4 -4,-371 166,-371 166,4 -4,4"/>
<!-- Node1 -->
<g id="node1" class="node">
<title>Node1</title>
<g id="a_node1"><a xlink:title=" ">
<polygon fill="#bfbfbf" stroke="black" points="47,-0.5 47,-19.5 115,-19.5 115,-0.5 47,-0.5"/>
<text text-anchor="middle" x="81" y="-7.5" font-family="Helvetica,sans-Serif" font-size="10.00">SpeckleOp</text>
</a>
</g>
</g>
<!-- Node2 -->
<g id="node2" class="node">
<title>Node2</title>
<g id="a_node2"><a xlink:href="classrack_1_1DetectorOp.html" target="_top" xlink:title="Base class for anomaly detectors.">
<polygon fill="white" stroke="black" points="45,-56.5 45,-75.5 117,-75.5 117,-56.5 45,-56.5"/>
<text text-anchor="middle" x="81" y="-63.5" font-family="Helvetica,sans-Serif" font-size="10.00">DetectorOp</text>
</a>
</g>
</g>
<!-- Node2&#45;&gt;Node1 -->
<g id="edge1" class="edge">
<title>Node2&#45;&gt;Node1</title>
<path fill="none" stroke="midnightblue" d="M81,-45.8C81,-36.91 81,-26.78 81,-19.75"/>
<polygon fill="midnightblue" stroke="midnightblue" points="77.5,-46.08 81,-56.08 84.5,-46.08 77.5,-46.08"/>
</g>
<!-- Node3 -->
<g id="node3" class="node">
<title>Node3</title>
<g id="a_node3"><a xlink:href="classrack_1_1AndreOp.html" target="_top" xlink:title="The base class for removal operators.">
<polygon fill="white" stroke="black" points="51.5,-112.5 51.5,-131.5 110.5,-131.5 110.5,-112.5 51.5,-112.5"/>
<text text-anchor="middle" x="81" y="-119.5" font-family="Helvetica,sans-Serif" font-size="10.00">AndreOp</text>
</a>
</g>
</g>
<!-- Node3&#45;&gt;Node2 -->
<g id="edge2" class="edge">
<title>Node3&#45;&gt;Node2</title>
<path fill="none" stroke="midnightblue" d="M81,-101.8C81,-92.91 81,-82.78 81,-75.75"/>
<polygon fill="midnightblue" stroke="midnightblue" points="77.5,-102.08 81,-112.08 84.5,-102.08 77.5,-102.08"/>
</g>
<!-- Node4 -->
<g id="node4" class="node">
<title>Node4</title>
<g id="a_node4"><a xlink:href="classrack_1_1VolumeTraversalOp.html" target="_top" xlink:title="Base class for radar data processors.">
<polygon fill="white" stroke="black" points="24.5,-168.5 24.5,-187.5 137.5,-187.5 137.5,-168.5 24.5,-168.5"/>
<text text-anchor="middle" x="81" y="-175.5" font-family="Helvetica,sans-Serif" font-size="10.00">VolumeTraversalOp</text>
</a>
</g>
</g>
<!-- Node4&#45;&gt;Node3 -->
<g id="edge3" class="edge">
<title>Node4&#45;&gt;Node3</title>
<path fill="none" stroke="midnightblue" d="M81,-157.8C81,-148.91 81,-138.78 81,-131.75"/>
<polygon fill="midnightblue" stroke="midnightblue" points="77.5,-158.08 81,-168.08 84.5,-158.08 77.5,-158.08"/>
</g>
<!-- Node5 -->
<g id="node5" class="node">
<title>Node5</title>
<g id="a_node5"><a xlink:href="classrack_1_1PolarProductOp.html" target="_top" xlink:title="Base class for flat (2D) products computed in the polar coordinate system. Volume is used as input.">
<polygon fill="white" stroke="black" points="35,-224.5 35,-243.5 127,-243.5 127,-224.5 35,-224.5"/>
<text text-anchor="middle" x="81" y="-231.5" font-family="Helvetica,sans-Serif" font-size="10.00">PolarProductOp</text>
</a>
</g>
</g>
<!-- Node5&#45;&gt;Node4 -->
<g id="edge4" class="edge">
<title>Node5&#45;&gt;Node4</title>
<path fill="none" stroke="midnightblue" d="M81,-213.8C81,-204.91 81,-194.78 81,-187.75"/>
<polygon fill="midnightblue" stroke="midnightblue" points="77.5,-214.08 81,-224.08 84.5,-214.08 77.5,-214.08"/>
</g>
<!-- Node6 -->
<g id="node6" class="node">
<title>Node6</title>
<g id="a_node6"><a xlink:href="classrack_1_1VolumeOp.html" target="_top" xlink:title=" ">
<polygon fill="white" stroke="black" points="10,-280.5 10,-299.5 152,-299.5 152,-280.5 10,-280.5"/>
<text text-anchor="middle" x="81" y="-287.5" font-family="Helvetica,sans-Serif" font-size="10.00">VolumeOp&lt; PolarODIM &gt;</text>
</a>
</g>
</g>
<!-- Node6&#45;&gt;Node5 -->
<g id="edge5" class="edge">
<title>Node6&#45;&gt;Node5</title>
<path fill="none" stroke="midnightblue" d="M81,-269.8C81,-260.91 81,-250.78 81,-243.75"/>
<polygon fill="midnightblue" stroke="midnightblue" points="77.5,-270.08 81,-280.08 84.5,-270.08 77.5,-270.08"/>
</g>
<!-- Node7 -->
<g id="node7" class="node">
<title>Node7</title>
<g id="a_node7"><a xlink:href="classdrain_1_1image_1_1ProductOp.html" target="_top" xlink:title=" ">
<polygon fill="white" stroke="black" points="0,-336.5 0,-366.5 162,-366.5 162,-336.5 0,-336.5"/>
<text text-anchor="start" x="8" y="-354.5" font-family="Helvetica,sans-Serif" font-size="10.00">ProductOp&lt; const PolarODIM,</text>
<text text-anchor="middle" x="81" y="-343.5" font-family="Helvetica,sans-Serif" font-size="10.00"> PolarODIM &gt;</text>
</a>
</g>
</g>
<!-- Node7&#45;&gt;Node6 -->
<g id="edge6" class="edge">
<title>Node7&#45;&gt;Node6</title>
<path fill="none" stroke="midnightblue" d="M81,-326.29C81,-316.86 81,-306.65 81,-299.66"/>
<polygon fill="midnightblue" stroke="midnightblue" points="77.5,-326.4 81,-336.4 84.5,-326.4 77.5,-326.4"/>
</g>
</g>
</svg>
