<?xml version="1.0" encoding="UTF-8" standalone="no"?>
<!DOCTYPE svg PUBLIC "-//W3C//DTD SVG 1.1//EN"
 "http://www.w3.org/Graphics/SVG/1.1/DTD/svg11.dtd">
<!-- Generated by graphviz version 2.43.0 (0)
 -->
<!-- Title: PixelVectorOp Pages: 1 -->
<!--zoomable 191 -->
<svg id="main" version="1.1" xmlns="http://www.w3.org/2000/svg" xmlns:xlink="http://www.w3.org/1999/xlink" xml:space="preserve" onload="init(evt)">
<style type="text/css"><![CDATA[
.edge:hover path { stroke: red; }
.edge:hover polygon { stroke: red; fill: red; }
]]></style>
<script type="text/javascript"><![CDATA[
var edges = document.getElementsByTagName('g');
if (edges && edges.length) {
  for (var i=0;i<edges.length;i++) {
    if (edges[i].id.substr(0,4)=='edge') {
      edges[i].setAttribute('class','edge');
    }
  }
}
]]></script>
        <defs>
                <circle id="rim" cx="0" cy="0" r="7"/>
                <circle id="rim2" cx="0" cy="0" r="3.5"/>
                <g id="zoomPlus">
                        <use xlink:href="#rim" fill="#404040">
                                <set attributeName="fill" to="#808080" begin="zoomplus.mouseover" end="zoomplus.mouseout"/>
                        </use>
                        <path d="M-4,0h8M0,-4v8" fill="none" stroke="white" stroke-width="1.5" pointer-events="none"/>
                </g>
                <g id="zoomMin">
                        <use xlink:href="#rim" fill="#404040">
                                <set attributeName="fill" to="#808080" begin="zoomminus.mouseover" end="zoomminus.mouseout"/>
                        </use>
                        <path d="M-4,0h8" fill="none" stroke="white" stroke-width="1.5" pointer-events="none"/>
                </g>
                <g id="dirArrow">
                        <path fill="none" stroke="white" stroke-width="1.5" d="M0,-3.0v7 M-2.5,-0.5L0,-3.0L2.5,-0.5"/>
                </g>
               <g id="resetDef">
                       <use xlink:href="#rim2" fill="#404040">
                               <set attributeName="fill" to="#808080" begin="reset.mouseover" end="reset.mouseout"/>
                       </use>
               </g>
        </defs>

<script type="text/javascript">
var viewWidth = 692;
var viewHeight = 191;
var sectionId = 'dynsection-0';
</script>
<script xlink:href="svgpan.js"/>
<svg id="graph" class="graph">
<g id="viewport">
<title>PixelVectorOp</title>
<polygon fill="white" stroke="transparent" points="-4,4 -4,-187 688,-187 688,4 -4,4"/>
<!-- Node1 -->
<g id="node1" class="node">
<title>Node1</title>
<g id="a_node1"><a xlink:title="A base class for operations between of multi&#45;channel pixels (intensity vectors) of two images.">
<polygon fill="#bfbfbf" stroke="black" points="298,-60.5 298,-79.5 384,-79.5 384,-60.5 298,-60.5"/>
<text text-anchor="middle" x="341" y="-67.5" font-family="Helvetica,sans-Serif" font-size="10.00">PixelVectorOp</text>
</a>
</g>
</g>
<!-- Node5 -->
<g id="node5" class="node">
<title>Node5</title>
<g id="a_node5"><a xlink:href="classdrain_1_1image_1_1BinaryPixelVectorOp.html" target="_top" xlink:title=" ">
<polygon fill="white" stroke="black" points="422,-126 422,-156 564,-156 564,-126 422,-126"/>
<text text-anchor="start" x="430" y="-144" font-family="Helvetica,sans-Serif" font-size="10.00">BinaryPixelVectorOp</text>
<text text-anchor="middle" x="493" y="-133" font-family="Helvetica,sans-Serif" font-size="10.00">&lt; MultiplicationFunctor &gt;</text>
</a>
</g>
</g>
<!-- Node1&#45;&gt;Node5 -->
<g id="edge4" class="edge">
<title>Node1&#45;&gt;Node5</title>
<path fill="none" stroke="midnightblue" d="M364.9,-85.14C380.11,-94.78 400.74,-107.09 420,-116 427.69,-119.56 436.03,-122.9 444.22,-125.91"/>
<polygon fill="midnightblue" stroke="midnightblue" points="366.5,-82.01 356.2,-79.54 362.71,-87.9 366.5,-82.01"/>
</g>
<!-- Node8 -->
<g id="node8" class="node">
<title>Node8</title>
<g id="a_node8"><a xlink:href="classdrain_1_1image_1_1BinaryPixelVectorOp.html" target="_top" xlink:title=" ">
<polygon fill="white" stroke="black" points="427.5,-77 427.5,-107 558.5,-107 558.5,-77 427.5,-77"/>
<text text-anchor="start" x="435.5" y="-95" font-family="Helvetica,sans-Serif" font-size="10.00">BinaryPixelVectorOp</text>
<text text-anchor="middle" x="493" y="-84" font-family="Helvetica,sans-Serif" font-size="10.00">&lt; SubtractionFunctor &gt;</text>
</a>
</g>
</g>
<!-- Node1&#45;&gt;Node8 -->
<g id="edge7" class="edge">
<title>Node1&#45;&gt;Node8</title>
<path fill="none" stroke="midnightblue" d="M394.22,-77.66C404.93,-79.23 416.34,-80.9 427.43,-82.53"/>
<polygon fill="midnightblue" stroke="midnightblue" points="394.58,-74.18 384.18,-76.19 393.57,-81.1 394.58,-74.18"/>
</g>
<!-- Node10 -->
<g id="node10" class="node">
<title>Node10</title>
<g id="a_node10"><a xlink:href="classdrain_1_1image_1_1BinaryPixelVectorOp.html" target="_top" xlink:title=" ">
<polygon fill="white" stroke="black" points="420,-38.5 420,-57.5 566,-57.5 566,-38.5 420,-38.5"/>
<text text-anchor="middle" x="493" y="-45.5" font-family="Helvetica,sans-Serif" font-size="10.00">BinaryPixelVectorOp&lt; F &gt;</text>
</a>
</g>
</g>
<!-- Node1&#45;&gt;Node10 -->
<g id="edge9" class="edge">
<title>Node1&#45;&gt;Node10</title>
<path fill="none" stroke="midnightblue" d="M394.15,-62.35C404.8,-60.79 416.12,-59.13 427.15,-57.51"/>
<polygon fill="midnightblue" stroke="midnightblue" points="393.57,-58.9 384.18,-63.81 394.58,-65.82 393.57,-58.9"/>
</g>
<!-- Node11 -->
<g id="node11" class="node">
<title>Node11</title>
<g id="a_node11"><a xlink:href="classdrain_1_1image_1_1GrayOp.html" target="_top" xlink:title=" ">
<polygon fill="white" stroke="black" points="466.5,-0.5 466.5,-19.5 519.5,-19.5 519.5,-0.5 466.5,-0.5"/>
<text text-anchor="middle" x="493" y="-7.5" font-family="Helvetica,sans-Serif" font-size="10.00">GrayOp</text>
</a>
</g>
</g>
<!-- Node1&#45;&gt;Node11 -->
<g id="edge10" class="edge">
<title>Node1&#45;&gt;Node11</title>
<path fill="none" stroke="midnightblue" d="M366.32,-55.39C381.38,-46.81 401.34,-36.26 420,-29 434.94,-23.19 452.3,-18.55 466.23,-15.31"/>
<polygon fill="midnightblue" stroke="midnightblue" points="364.53,-52.38 357.64,-60.43 368.04,-58.44 364.53,-52.38"/>
</g>
<!-- Node2 -->
<g id="node2" class="node">
<title>Node2</title>
<g id="a_node2"><a xlink:href="classdrain_1_1image_1_1ImageOp.html" target="_top" xlink:title="Base class for image processing functions.">
<polygon fill="white" stroke="black" points="201,-60.5 201,-79.5 262,-79.5 262,-60.5 201,-60.5"/>
<text text-anchor="middle" x="231.5" y="-67.5" font-family="Helvetica,sans-Serif" font-size="10.00">ImageOp</text>
</a>
</g>
</g>
<!-- Node2&#45;&gt;Node1 -->
<g id="edge1" class="edge">
<title>Node2&#45;&gt;Node1</title>
<path fill="none" stroke="midnightblue" d="M272.4,-70C280.74,-70 289.55,-70 297.96,-70"/>
<polygon fill="midnightblue" stroke="midnightblue" points="272.16,-66.5 262.16,-70 272.16,-73.5 272.16,-66.5"/>
</g>
<!-- Node3 -->
<g id="node3" class="node">
<title>Node3</title>
<g id="a_node3"><a xlink:href="classdrain_1_1image_1_1ImageMod.html" target="_top" xlink:title="Class for operations that modify an existing image instead of producing a new image.">
<polygon fill="white" stroke="black" points="97,-60.5 97,-79.5 165,-79.5 165,-60.5 97,-60.5"/>
<text text-anchor="middle" x="131" y="-67.5" font-family="Helvetica,sans-Serif" font-size="10.00">ImageMod</text>
</a>
</g>
</g>
<!-- Node3&#45;&gt;Node2 -->
<g id="edge2" class="edge">
<title>Node3&#45;&gt;Node2</title>
<path fill="none" stroke="midnightblue" d="M175.14,-70C183.87,-70 192.86,-70 200.99,-70"/>
<polygon fill="midnightblue" stroke="midnightblue" points="175.07,-66.5 165.07,-70 175.07,-73.5 175.07,-66.5"/>
</g>
<!-- Node4 -->
<g id="node4" class="node">
<title>Node4</title>
<g id="a_node4"><a xlink:href="classdrain_1_1BeanLike.html" target="_top" xlink:title="Something which has a name, a description and possibly some parameters of varying type.">
<polygon fill="white" stroke="black" points="0,-60.5 0,-79.5 61,-79.5 61,-60.5 0,-60.5"/>
<text text-anchor="middle" x="30.5" y="-67.5" font-family="Helvetica,sans-Serif" font-size="10.00">BeanLike</text>
</a>
</g>
</g>
<!-- Node4&#45;&gt;Node3 -->
<g id="edge3" class="edge">
<title>Node4&#45;&gt;Node3</title>
<path fill="none" stroke="midnightblue" d="M71.12,-70C79.59,-70 88.46,-70 96.67,-70"/>
<polygon fill="midnightblue" stroke="midnightblue" points="71.05,-66.5 61.05,-70 71.05,-73.5 71.05,-66.5"/>
</g>
<!-- Node6 -->
<g id="node6" class="node">
<title>Node6</title>
<g id="a_node6"><a xlink:href="classdrain_1_1image_1_1MagnitudeOp.html" target="_top" xlink:title="Computes pixel magnitude, that is, euclidean norm of the intensity vector.">
<polygon fill="white" stroke="black" points="602,-163.5 602,-182.5 684,-182.5 684,-163.5 602,-163.5"/>
<text text-anchor="middle" x="643" y="-170.5" font-family="Helvetica,sans-Serif" font-size="10.00">MagnitudeOp</text>
</a>
</g>
</g>
<!-- Node5&#45;&gt;Node6 -->
<g id="edge5" class="edge">
<title>Node5&#45;&gt;Node6</title>
<path fill="none" stroke="midnightblue" d="M573.46,-158.18C583.23,-160.29 592.88,-162.38 601.71,-164.29"/>
<polygon fill="midnightblue" stroke="midnightblue" points="574.18,-154.76 563.67,-156.06 572.7,-161.6 574.18,-154.76"/>
</g>
<!-- Node7 -->
<g id="node7" class="node">
<title>Node7</title>
<g id="a_node7"><a xlink:href="classdrain_1_1image_1_1ProductOp.html" target="_top" xlink:title="Computes dot product of intensities of two images.">
<polygon fill="white" stroke="black" points="609.5,-125.5 609.5,-144.5 676.5,-144.5 676.5,-125.5 609.5,-125.5"/>
<text text-anchor="middle" x="643" y="-132.5" font-family="Helvetica,sans-Serif" font-size="10.00">ProductOp</text>
</a>
</g>
</g>
<!-- Node5&#45;&gt;Node7 -->
<g id="edge6" class="edge">
<title>Node5&#45;&gt;Node7</title>
<path fill="none" stroke="midnightblue" d="M574.13,-137.75C586.6,-137.25 598.84,-136.75 609.42,-136.32"/>
<polygon fill="midnightblue" stroke="midnightblue" points="573.95,-134.26 564.1,-138.16 574.23,-141.25 573.95,-134.26"/>
</g>
<!-- Node9 -->
<g id="node9" class="node">
<title>Node9</title>
<g id="a_node9"><a xlink:href="classdrain_1_1image_1_1DistanceOp.html" target="_top" xlink:title="Computes the distance between intensity vectors.">
<polygon fill="white" stroke="black" points="606.5,-82.5 606.5,-101.5 679.5,-101.5 679.5,-82.5 606.5,-82.5"/>
<text text-anchor="middle" x="643" y="-89.5" font-family="Helvetica,sans-Serif" font-size="10.00">DistanceOp</text>
</a>
</g>
</g>
<!-- Node8&#45;&gt;Node9 -->
<g id="edge8" class="edge">
<title>Node8&#45;&gt;Node9</title>
<path fill="none" stroke="midnightblue" d="M569.29,-92C582.24,-92 595.14,-92 606.4,-92"/>
<polygon fill="midnightblue" stroke="midnightblue" points="568.91,-88.5 558.91,-92 568.91,-95.5 568.91,-88.5"/>
</g>
</g>
</svg>
        <g id="navigator" transform="translate(0 0)" fill="#404254">
                <rect fill="#f2f5e9" fill-opacity="0.5" stroke="#606060" stroke-width=".5" x="0" y="0" width="60" height="60"/>
                <use id="zoomplus" xlink:href="#zoomPlus" x="17" y="9" onmousedown="handleZoom(evt,'in')"/>
                <use id="zoomminus" xlink:href="#zoomMin" x="42" y="9" onmousedown="handleZoom(evt,'out')"/>
                <use id="reset" xlink:href="#resetDef" x="30" y="36" onmousedown="handleReset()"/>
                <g id="arrowUp" xlink:href="#dirArrow" transform="translate(30 24)" onmousedown="handlePan(0,-1)">
                  <use xlink:href="#rim" fill="#404040">
                        <set attributeName="fill" to="#808080" begin="arrowUp.mouseover" end="arrowUp.mouseout"/>
                  </use>
                  <path fill="none" stroke="white" stroke-width="1.5" d="M0,-3.0v7 M-2.5,-0.5L0,-3.0L2.5,-0.5"/>
                </g>
                <g id="arrowRight" xlink:href="#dirArrow" transform="rotate(90) translate(36 -43)" onmousedown="handlePan(1,0)">
                  <use xlink:href="#rim" fill="#404040">
                        <set attributeName="fill" to="#808080" begin="arrowRight.mouseover" end="arrowRight.mouseout"/>
                  </use>
                  <path fill="none" stroke="white" stroke-width="1.5" d="M0,-3.0v7 M-2.5,-0.5L0,-3.0L2.5,-0.5"/>
                </g>
                <g id="arrowDown" xlink:href="#dirArrow" transform="rotate(180) translate(-30 -48)" onmousedown="handlePan(0,1)">
                  <use xlink:href="#rim" fill="#404040">
                        <set attributeName="fill" to="#808080" begin="arrowDown.mouseover" end="arrowDown.mouseout"/>
                  </use>
                  <path fill="none" stroke="white" stroke-width="1.5" d="M0,-3.0v7 M-2.5,-0.5L0,-3.0L2.5,-0.5"/>
                </g>
                <g id="arrowLeft" xlink:href="#dirArrow" transform="rotate(270) translate(-36 17)" onmousedown="handlePan(-1,0)">
                  <use xlink:href="#rim" fill="#404040">
                        <set attributeName="fill" to="#808080" begin="arrowLeft.mouseover" end="arrowLeft.mouseout"/>
                  </use>
                  <path fill="none" stroke="white" stroke-width="1.5" d="M0,-3.0v7 M-2.5,-0.5L0,-3.0L2.5,-0.5"/>
                </g>
        </g>
        <svg viewBox="0 0 15 15" width="100%" height="30px" preserveAspectRatio="xMaxYMin meet">
         <g id="arrow_out" transform="scale(0.3 0.3)">
          <a xlink:href="classdrain_1_1image_1_1PixelVectorOp__inherit__graph_org.svg" target="_base">
           <rect id="button" ry="5" rx="5" y="6" x="6" height="38" width="38"
                fill="#f2f5e9" fill-opacity="0.5" stroke="#606060" stroke-width="1.0"/>
           <path id="arrow"
             d="M 11.500037,31.436501 C 11.940474,20.09759 22.043105,11.32322 32.158766,21.979434 L 37.068811,17.246167 C 37.068811,17.246167 37.088388,32 37.088388,32 L 22.160133,31.978069 C 22.160133,31.978069 26.997745,27.140456 26.997745,27.140456 C 18.528582,18.264221 13.291696,25.230495 11.500037,31.436501 z"
             style="fill:#404040;"/>
          </a>
         </g>
        </svg>
</svg>
