<?xml version="1.0" encoding="UTF-8" standalone="no"?>
<!DOCTYPE svg PUBLIC "-//W3C//DTD SVG 1.1//EN"
 "http://www.w3.org/Graphics/SVG/1.1/DTD/svg11.dtd">
<!-- Generated by graphviz version 2.43.0 (0)
 -->
<!-- Title: FastOpticalFlow2Op Pages: 1 -->
<svg width="937pt" height="1232pt"
 viewBox="0.00 0.00 936.50 1232.00" xmlns="http://www.w3.org/2000/svg" xmlns:xlink="http://www.w3.org/1999/xlink">
<g id="graph0" class="graph" transform="scale(1 1) rotate(0) translate(4 1228)">
<title>FastOpticalFlow2Op</title>
<polygon fill="white" stroke="transparent" points="-4,4 -4,-1228 932.5,-1228 932.5,4 -4,4"/>
<!-- Node1 -->
<g id="node1" class="node">
<title>Node1</title>
<g id="a_node1"><a xlink:title=" ">
<polygon fill="#bfbfbf" stroke="black" points="467,-0.5 467,-19.5 581,-19.5 581,-0.5 467,-0.5"/>
<text text-anchor="middle" x="524" y="-7.5" font-family="Helvetica,sans-Serif" font-size="10.00">FastOpticalFlow2Op</text>
</a>
</g>
</g>
<!-- Node2 -->
<g id="node2" class="node">
<title>Node2</title>
<g id="a_node2"><a xlink:href="classdrain_1_1image_1_1SlidingWindowOp.html" target="_top" xlink:title=" ">
<polygon fill="white" stroke="black" points="451,-57.5 451,-87.5 597,-87.5 597,-57.5 451,-57.5"/>
<text text-anchor="start" x="459" y="-75.5" font-family="Helvetica,sans-Serif" font-size="10.00">SlidingWindowOp&lt; Sliding</text>
<text text-anchor="middle" x="524" y="-64.5" font-family="Helvetica,sans-Serif" font-size="10.00">OpticalFlowWeighted2 &gt;</text>
</a>
</g>
</g>
<!-- Node2&#45;&gt;Node1 -->
<g id="edge1" class="edge">
<title>Node2&#45;&gt;Node1</title>
<path fill="none" stroke="midnightblue" d="M524,-47.35C524,-37.51 524,-26.78 524,-19.54"/>
<polygon fill="midnightblue" stroke="midnightblue" points="520.5,-47.47 524,-57.47 527.5,-47.47 520.5,-47.47"/>
</g>
<!-- Node3 -->
<g id="node3" class="node">
<title>Node3</title>
<g id="a_node3"><a xlink:href="classdrain_1_1image_1_1WindowOp.html" target="_top" xlink:title=" ">
<polygon fill="white" stroke="black" points="450,-125.5 450,-155.5 598,-155.5 598,-125.5 450,-125.5"/>
<text text-anchor="start" x="458" y="-143.5" font-family="Helvetica,sans-Serif" font-size="10.00">WindowOp&lt; SlidingOptical</text>
<text text-anchor="middle" x="524" y="-132.5" font-family="Helvetica,sans-Serif" font-size="10.00">FlowWeighted2 &gt;</text>
</a>
</g>
</g>
<!-- Node3&#45;&gt;Node2 -->
<g id="edge2" class="edge">
<title>Node3&#45;&gt;Node2</title>
<path fill="none" stroke="midnightblue" d="M524,-115.03C524,-105.86 524,-95.74 524,-87.79"/>
<polygon fill="midnightblue" stroke="midnightblue" points="520.5,-115.18 524,-125.18 527.5,-115.18 520.5,-115.18"/>
</g>
<!-- Node4 -->
<g id="node4" class="node">
<title>Node4</title>
<g id="a_node4"><a xlink:href="classdrain_1_1image_1_1ImageOp.html" target="_top" xlink:title="Base class for image processing functions.">
<polygon fill="white" stroke="black" points="810.5,-449.5 810.5,-468.5 871.5,-468.5 871.5,-449.5 810.5,-449.5"/>
<text text-anchor="middle" x="841" y="-456.5" font-family="Helvetica,sans-Serif" font-size="10.00">ImageOp</text>
</a>
</g>
</g>
<!-- Node4&#45;&gt;Node3 -->
<g id="edge3" class="edge">
<title>Node4&#45;&gt;Node3</title>
<path fill="none" stroke="midnightblue" d="M799.97,-454.39C726.02,-446.75 578,-425.73 578,-380 578,-380 578,-380 578,-212 578,-188.72 559.21,-168.37 543.8,-155.6"/>
<polygon fill="midnightblue" stroke="midnightblue" points="800.02,-457.91 810.32,-455.42 800.71,-450.95 800.02,-457.91"/>
</g>
<!-- Node5 -->
<g id="node5" class="node">
<title>Node5</title>
<g id="a_node5"><a xlink:href="classdrain_1_1image_1_1ImageMod.html" target="_top" xlink:title="Class for operations that modify an existing image instead of producing a new image.">
<polygon fill="white" stroke="black" points="846,-583 846,-602 914,-602 914,-583 846,-583"/>
<text text-anchor="middle" x="880" y="-590" font-family="Helvetica,sans-Serif" font-size="10.00">ImageMod</text>
</a>
</g>
</g>
<!-- Node5&#45;&gt;Node4 -->
<g id="edge4" class="edge">
<title>Node5&#45;&gt;Node4</title>
<path fill="none" stroke="midnightblue" d="M876.6,-573.04C872.43,-551.89 864.6,-516.37 854,-487 851.74,-480.74 848.49,-473.99 845.8,-468.8"/>
<polygon fill="midnightblue" stroke="midnightblue" points="873.17,-573.76 878.49,-582.93 880.05,-572.45 873.17,-573.76"/>
</g>
<!-- Node6 -->
<g id="node6" class="node">
<title>Node6</title>
<g id="a_node6"><a xlink:href="classdrain_1_1BeanLike.html" target="_top" xlink:title="Something which has a name, a description and possibly some parameters of varying type.">
<polygon fill="white" stroke="black" points="813.5,-706 813.5,-725 874.5,-725 874.5,-706 813.5,-706"/>
<text text-anchor="middle" x="844" y="-713" font-family="Helvetica,sans-Serif" font-size="10.00">BeanLike</text>
</a>
</g>
</g>
<!-- Node6&#45;&gt;Node5 -->
<g id="edge5" class="edge">
<title>Node6&#45;&gt;Node5</title>
<path fill="none" stroke="midnightblue" d="M849.44,-696.2C857.33,-669.7 871.62,-621.67 877.43,-602.12"/>
<polygon fill="midnightblue" stroke="midnightblue" points="846.09,-695.22 846.59,-705.8 852.8,-697.21 846.09,-695.22"/>
</g>
<!-- Node45 -->
<g id="node39" class="node">
<title>Node45</title>
<g id="a_node39"><a xlink:href="classdrain_1_1Functor.html" target="_top" xlink:title="Base class for sequential computations. Optional scaling utilities.">
<polygon fill="white" stroke="black" points="774.5,-583 774.5,-602 827.5,-602 827.5,-583 774.5,-583"/>
<text text-anchor="middle" x="801" y="-590" font-family="Helvetica,sans-Serif" font-size="10.00">Functor</text>
</a>
</g>
</g>
<!-- Node6&#45;&gt;Node45 -->
<g id="edge41" class="edge">
<title>Node6&#45;&gt;Node45</title>
<path fill="none" stroke="midnightblue" d="M837.5,-696.2C828.08,-669.7 811.01,-621.67 804.06,-602.12"/>
<polygon fill="midnightblue" stroke="midnightblue" points="834.26,-697.55 840.91,-705.8 840.86,-695.2 834.26,-697.55"/>
</g>
<!-- Node7 -->
<g id="node7" class="node">
<title>Node7</title>
<g id="a_node7"><a xlink:href="classdrain_1_1ReferenceMap.html" target="_top" xlink:title=" ">
<polygon fill="white" stroke="black" points="800.5,-778.5 800.5,-797.5 887.5,-797.5 887.5,-778.5 800.5,-778.5"/>
<text text-anchor="middle" x="844" y="-785.5" font-family="Helvetica,sans-Serif" font-size="10.00">ReferenceMap</text>
</a>
</g>
</g>
<!-- Node7&#45;&gt;Node6 -->
<g id="edge6" class="edge">
<title>Node7&#45;&gt;Node6</title>
<path fill="none" stroke="#9a32cd" stroke-dasharray="5,2" d="M844,-767.94C844,-754.03 844,-735.82 844,-725.22"/>
<polygon fill="#9a32cd" stroke="#9a32cd" points="840.5,-768.36 844,-778.36 847.5,-768.36 840.5,-768.36"/>
<text text-anchor="middle" x="874" y="-752" font-family="Helvetica,sans-Serif" font-size="10.00"> parameters</text>
</g>
<!-- Node8 -->
<g id="node8" class="node">
<title>Node8</title>
<g id="a_node8"><a xlink:href="classdrain_1_1SmartMap.html" target="_top" xlink:title=" ">
<polygon fill="white" stroke="black" points="772.5,-835.5 772.5,-854.5 915.5,-854.5 915.5,-835.5 772.5,-835.5"/>
<text text-anchor="middle" x="844" y="-842.5" font-family="Helvetica,sans-Serif" font-size="10.00">SmartMap&lt; Referencer &gt;</text>
</a>
</g>
</g>
<!-- Node8&#45;&gt;Node7 -->
<g id="edge7" class="edge">
<title>Node8&#45;&gt;Node7</title>
<path fill="none" stroke="midnightblue" d="M844,-825.12C844,-815.82 844,-805.06 844,-797.71"/>
<polygon fill="midnightblue" stroke="midnightblue" points="840.5,-825.41 844,-835.41 847.5,-825.41 840.5,-825.41"/>
</g>
<!-- Node9 -->
<g id="node9" class="node">
<title>Node9</title>
<g id="a_node9"><a xlink:title=" ">
<polygon fill="white" stroke="#bfbfbf" points="759.5,-914.5 759.5,-933.5 928.5,-933.5 928.5,-914.5 759.5,-914.5"/>
<text text-anchor="middle" x="844" y="-921.5" font-family="Helvetica,sans-Serif" font-size="10.00">map&lt; std::string, Referencer &gt;</text>
</a>
</g>
</g>
<!-- Node9&#45;&gt;Node8 -->
<g id="edge8" class="edge">
<title>Node9&#45;&gt;Node8</title>
<path fill="none" stroke="midnightblue" d="M844,-904.31C844,-888.59 844,-866.81 844,-854.81"/>
<polygon fill="midnightblue" stroke="midnightblue" points="840.5,-904.47 844,-914.47 847.5,-904.47 840.5,-904.47"/>
</g>
<!-- Node10 -->
<g id="node10" class="node">
<title>Node10</title>
<g id="a_node10"><a xlink:href="classdrain_1_1image_1_1SlidingOpticalFlowWeighted2.html" target="_top" xlink:title=" ">
<polygon fill="white" stroke="black" points="385,-203.5 385,-222.5 545,-222.5 545,-203.5 385,-203.5"/>
<text text-anchor="middle" x="465" y="-210.5" font-family="Helvetica,sans-Serif" font-size="10.00">SlidingOpticalFlowWeighted2</text>
</a>
</g>
</g>
<!-- Node10&#45;&gt;Node3 -->
<g id="edge9" class="edge">
<title>Node10&#45;&gt;Node3</title>
<path fill="none" stroke="#9a32cd" stroke-dasharray="5,2" d="M478.9,-195.39C489.03,-183.28 502.62,-167.05 512.22,-155.58"/>
<polygon fill="#9a32cd" stroke="#9a32cd" points="475.97,-193.44 472.23,-203.36 481.34,-197.93 475.97,-193.44"/>
<text text-anchor="middle" x="509.5" y="-177" font-family="Helvetica,sans-Serif" font-size="10.00"> conf</text>
</g>
<!-- Node11 -->
<g id="node11" class="node">
<title>Node11</title>
<g id="a_node11"><a xlink:href="classdrain_1_1image_1_1SlidingOpticalFlow2.html" target="_top" xlink:title=" ">
<polygon fill="white" stroke="black" points="361.5,-260.5 361.5,-290.5 486.5,-290.5 486.5,-260.5 361.5,-260.5"/>
<text text-anchor="start" x="369.5" y="-278.5" font-family="Helvetica,sans-Serif" font-size="10.00">SlidingOpticalFlow2</text>
<text text-anchor="middle" x="424" y="-267.5" font-family="Helvetica,sans-Serif" font-size="10.00">&lt; OpticalFlowCore2 &gt;</text>
</a>
</g>
</g>
<!-- Node11&#45;&gt;Node10 -->
<g id="edge10" class="edge">
<title>Node11&#45;&gt;Node10</title>
<path fill="none" stroke="midnightblue" d="M439.31,-251.91C446.25,-241.67 454.05,-230.16 459.21,-222.54"/>
<polygon fill="midnightblue" stroke="midnightblue" points="436.22,-250.23 433.51,-260.47 442.02,-254.15 436.22,-250.23"/>
</g>
<!-- Node12 -->
<g id="node12" class="node">
<title>Node12</title>
<g id="a_node12"><a xlink:href="classdrain_1_1image_1_1SlidingWindow.html" target="_top" xlink:title=" ">
<polygon fill="white" stroke="black" points="290,-329.5 290,-359.5 448,-359.5 448,-329.5 290,-329.5"/>
<text text-anchor="start" x="298" y="-347.5" font-family="Helvetica,sans-Serif" font-size="10.00">SlidingWindow&lt; OpticalFlow</text>
<text text-anchor="middle" x="369" y="-336.5" font-family="Helvetica,sans-Serif" font-size="10.00">Config, OpticalFlowCore2 &gt;</text>
</a>
</g>
</g>
<!-- Node12&#45;&gt;Node11 -->
<g id="edge11" class="edge">
<title>Node12&#45;&gt;Node11</title>
<path fill="none" stroke="midnightblue" d="M387.24,-321.28C395.52,-311.19 405.06,-299.57 412.35,-290.69"/>
<polygon fill="midnightblue" stroke="midnightblue" points="384.3,-319.34 380.66,-329.29 389.71,-323.78 384.3,-319.34"/>
</g>
<!-- Node12&#45;&gt;Node12 -->
<g id="edge58" class="edge">
<title>Node12&#45;&gt;Node12</title>
<path fill="none" stroke="#9a32cd" stroke-dasharray="5,2" d="M458.16,-348.77C463.07,-347.73 466,-346.31 466,-344.5 466,-341.68 458.87,-339.79 448.16,-338.84"/>
<polygon fill="#9a32cd" stroke="#9a32cd" points="457.59,-345.32 448.16,-350.16 458.55,-352.25 457.59,-345.32"/>
<text text-anchor="middle" x="494.5" y="-353" font-family="Helvetica,sans-Serif" font-size="10.00"> fill</text>
<text text-anchor="middle" x="494.5" y="-342" font-family="Helvetica,sans-Serif" font-size="10.00">updateVert</text>
<text text-anchor="middle" x="494.5" y="-331" font-family="Helvetica,sans-Serif" font-size="10.00">updateHorz</text>
</g>
<!-- Node13 -->
<g id="node13" class="node">
<title>Node13</title>
<g id="a_node13"><a xlink:href="classdrain_1_1image_1_1Window.html" target="_top" xlink:title=" ">
<polygon fill="white" stroke="black" points="289.5,-399.5 289.5,-429.5 448.5,-429.5 448.5,-399.5 289.5,-399.5"/>
<text text-anchor="start" x="297.5" y="-417.5" font-family="Helvetica,sans-Serif" font-size="10.00">Window&lt; OpticalFlowConfig,</text>
<text text-anchor="middle" x="369" y="-406.5" font-family="Helvetica,sans-Serif" font-size="10.00"> OpticalFlowCore2 &gt;</text>
</a>
</g>
</g>
<!-- Node13&#45;&gt;Node12 -->
<g id="edge12" class="edge">
<title>Node13&#45;&gt;Node12</title>
<path fill="none" stroke="midnightblue" d="M369,-389.27C369,-379.31 369,-368.14 369,-359.57"/>
<polygon fill="midnightblue" stroke="midnightblue" points="365.5,-389.41 369,-399.41 372.5,-389.41 365.5,-389.41"/>
</g>
<!-- Node14 -->
<g id="node14" class="node">
<title>Node14</title>
<g id="a_node14"><a xlink:href="classdrain_1_1image_1_1OpticalFlowCore2.html" target="_top" xlink:title=" ">
<polygon fill="white" stroke="black" points="440.5,-487.5 440.5,-506.5 543.5,-506.5 543.5,-487.5 440.5,-487.5"/>
<text text-anchor="middle" x="492" y="-494.5" font-family="Helvetica,sans-Serif" font-size="10.00">OpticalFlowCore2</text>
</a>
</g>
</g>
<!-- Node14&#45;&gt;Node13 -->
<g id="edge13" class="edge">
<title>Node14&#45;&gt;Node13</title>
<path fill="none" stroke="midnightblue" d="M470.35,-481.83C447.94,-467.17 413.15,-444.4 390.72,-429.72"/>
<polygon fill="midnightblue" stroke="midnightblue" points="468.55,-484.84 478.84,-487.39 472.39,-478.98 468.55,-484.84"/>
</g>
<!-- Node15 -->
<g id="node15" class="node">
<title>Node15</title>
<g id="a_node15"><a xlink:href="classdrain_1_1image_1_1OpticalFlowCore.html" target="_top" xlink:title=" ">
<polygon fill="white" stroke="black" points="443.5,-583 443.5,-602 540.5,-602 540.5,-583 443.5,-583"/>
<text text-anchor="middle" x="492" y="-590" font-family="Helvetica,sans-Serif" font-size="10.00">OpticalFlowCore</text>
</a>
</g>
</g>
<!-- Node15&#45;&gt;Node14 -->
<g id="edge14" class="edge">
<title>Node15&#45;&gt;Node14</title>
<path fill="none" stroke="midnightblue" d="M492,-572.74C492,-552.62 492,-521.55 492,-506.61"/>
<polygon fill="midnightblue" stroke="midnightblue" points="488.5,-572.87 492,-582.87 495.5,-572.87 488.5,-572.87"/>
</g>
<!-- Node16 -->
<g id="node16" class="node">
<title>Node16</title>
<g id="a_node16"><a xlink:href="classdrain_1_1image_1_1WindowCoreBase.html" target="_top" xlink:title="Provides splitting frames.">
<polygon fill="white" stroke="black" points="436,-706 436,-725 538,-725 538,-706 436,-706"/>
<text text-anchor="middle" x="487" y="-713" font-family="Helvetica,sans-Serif" font-size="10.00">WindowCoreBase</text>
</a>
</g>
</g>
<!-- Node16&#45;&gt;Node15 -->
<g id="edge15" class="edge">
<title>Node16&#45;&gt;Node15</title>
<path fill="none" stroke="midnightblue" d="M487.79,-695.49C488.89,-668.85 490.84,-621.5 491.64,-602.12"/>
<polygon fill="midnightblue" stroke="midnightblue" points="484.28,-695.66 487.36,-705.8 491.27,-695.95 484.28,-695.66"/>
</g>
<!-- Node17 -->
<g id="node17" class="node">
<title>Node17</title>
<g id="a_node17"><a xlink:href="classdrain_1_1image_1_1ImageView.html" target="_top" xlink:title="ImageFrame that also has channels.">
<polygon fill="white" stroke="black" points="556.5,-706 556.5,-725 627.5,-725 627.5,-706 556.5,-706"/>
<text text-anchor="middle" x="592" y="-713" font-family="Helvetica,sans-Serif" font-size="10.00">ImageView</text>
</a>
</g>
</g>
<!-- Node17&#45;&gt;Node14 -->
<g id="edge36" class="edge">
<title>Node17&#45;&gt;Node14</title>
<path fill="none" stroke="#9a32cd" stroke-dasharray="5,2" d="M589.64,-695.67C585.29,-666.12 574.05,-607.8 549,-565 535.42,-541.8 513.57,-518.83 501.24,-506.74"/>
<polygon fill="#9a32cd" stroke="#9a32cd" points="586.2,-696.38 591.02,-705.82 593.14,-695.43 586.2,-696.38"/>
<text text-anchor="middle" x="584.5" y="-612" font-family="Helvetica,sans-Serif" font-size="10.00"> GYY</text>
<text text-anchor="middle" x="584.5" y="-601" font-family="Helvetica,sans-Serif" font-size="10.00">GXX</text>
<text text-anchor="middle" x="584.5" y="-590" font-family="Helvetica,sans-Serif" font-size="10.00">GXY</text>
<text text-anchor="middle" x="584.5" y="-579" font-family="Helvetica,sans-Serif" font-size="10.00">GYT</text>
<text text-anchor="middle" x="584.5" y="-568" font-family="Helvetica,sans-Serif" font-size="10.00">GXT</text>
</g>
<!-- Node17&#45;&gt;Node15 -->
<g id="edge16" class="edge">
<title>Node17&#45;&gt;Node15</title>
<path fill="none" stroke="#9a32cd" stroke-dasharray="5,2" d="M552.58,-701.91C542.19,-697.05 531.73,-690.54 524,-682 502.61,-658.39 495.24,-619.4 492.94,-602.16"/>
<polygon fill="#9a32cd" stroke="#9a32cd" points="551.46,-705.24 562.03,-705.93 554.2,-698.8 551.46,-705.24"/>
<text text-anchor="middle" x="550" y="-674" font-family="Helvetica,sans-Serif" font-size="10.00"> srcWeight</text>
<text text-anchor="middle" x="550" y="-663" font-family="Helvetica,sans-Serif" font-size="10.00">dstWeight</text>
<text text-anchor="middle" x="550" y="-652" font-family="Helvetica,sans-Serif" font-size="10.00">vField</text>
<text text-anchor="middle" x="550" y="-641" font-family="Helvetica,sans-Serif" font-size="10.00">uField</text>
</g>
<!-- Node18 -->
<g id="node18" class="node">
<title>Node18</title>
<g id="a_node18"><a xlink:href="classdrain_1_1image_1_1MultiChannel.html" target="_top" xlink:title="Multi&#45;channel ImageFrame.">
<polygon fill="white" stroke="black" points="539.5,-778.5 539.5,-797.5 620.5,-797.5 620.5,-778.5 539.5,-778.5"/>
<text text-anchor="middle" x="580" y="-785.5" font-family="Helvetica,sans-Serif" font-size="10.00">MultiChannel</text>
</a>
</g>
</g>
<!-- Node18&#45;&gt;Node17 -->
<g id="edge17" class="edge">
<title>Node18&#45;&gt;Node17</title>
<path fill="none" stroke="midnightblue" d="M583.17,-768.36C585.55,-754.4 588.69,-735.93 590.52,-725.22"/>
<polygon fill="midnightblue" stroke="midnightblue" points="579.7,-767.91 581.47,-778.36 586.6,-769.08 579.7,-767.91"/>
</g>
<!-- Node19 -->
<g id="node19" class="node">
<title>Node19</title>
<g id="a_node19"><a xlink:href="classdrain_1_1image_1_1ImageFrame.html" target="_top" xlink:title="Image with static geometry.">
<polygon fill="white" stroke="black" points="509,-835.5 509,-854.5 587,-854.5 587,-835.5 509,-835.5"/>
<text text-anchor="middle" x="548" y="-842.5" font-family="Helvetica,sans-Serif" font-size="10.00">ImageFrame</text>
</a>
</g>
</g>
<!-- Node19&#45;&gt;Node18 -->
<g id="edge18" class="edge">
<title>Node19&#45;&gt;Node18</title>
<path fill="none" stroke="midnightblue" d="M558.1,-826.64C563.7,-817.01 570.42,-805.46 574.93,-797.71"/>
<polygon fill="midnightblue" stroke="midnightblue" points="555,-825 553,-835.41 561.05,-828.52 555,-825"/>
</g>
<!-- Node20 -->
<g id="node20" class="node">
<title>Node20</title>
<g id="a_node20"><a xlink:href="classdrain_1_1image_1_1ImageLike.html" target="_top" xlink:title="A base class for images.">
<polygon fill="white" stroke="black" points="433.5,-914.5 433.5,-933.5 500.5,-933.5 500.5,-914.5 433.5,-914.5"/>
<text text-anchor="middle" x="467" y="-921.5" font-family="Helvetica,sans-Serif" font-size="10.00">ImageLike</text>
</a>
</g>
</g>
<!-- Node20&#45;&gt;Node19 -->
<g id="edge19" class="edge">
<title>Node20&#45;&gt;Node19</title>
<path fill="none" stroke="midnightblue" d="M483.38,-907.43C500.03,-891.6 525.25,-867.62 538.73,-854.81"/>
<polygon fill="midnightblue" stroke="midnightblue" points="480.81,-905.04 475.98,-914.47 485.64,-910.11 480.81,-905.04"/>
</g>
<!-- Node21 -->
<g id="node21" class="node">
<title>Node21</title>
<g id="a_node21"><a xlink:href="classdrain_1_1image_1_1ImageConf.html" target="_top" xlink:title="Struct for image (excluding data)">
<polygon fill="white" stroke="black" points="294,-991.5 294,-1010.5 364,-1010.5 364,-991.5 294,-991.5"/>
<text text-anchor="middle" x="329" y="-998.5" font-family="Helvetica,sans-Serif" font-size="10.00">ImageConf</text>
</a>
</g>
</g>
<!-- Node21&#45;&gt;Node20 -->
<g id="edge20" class="edge">
<title>Node21&#45;&gt;Node20</title>
<path fill="none" stroke="#9a32cd" stroke-dasharray="5,2" d="M353.71,-986.57C382.02,-971.18 427.55,-946.44 451.35,-933.5"/>
<polygon fill="#9a32cd" stroke="#9a32cd" points="351.95,-983.55 344.83,-991.4 355.29,-989.7 351.95,-983.55"/>
<text text-anchor="middle" x="427.5" y="-960.5" font-family="Helvetica,sans-Serif" font-size="10.00"> conf</text>
</g>
<!-- Node22 -->
<g id="node22" class="node">
<title>Node22</title>
<g id="a_node22"><a xlink:href="classdrain_1_1image_1_1Encoding.html" target="_top" xlink:title=" ">
<polygon fill="white" stroke="black" points="423.5,-1058.5 423.5,-1077.5 484.5,-1077.5 484.5,-1058.5 423.5,-1058.5"/>
<text text-anchor="middle" x="454" y="-1065.5" font-family="Helvetica,sans-Serif" font-size="10.00">Encoding</text>
</a>
</g>
</g>
<!-- Node22&#45;&gt;Node21 -->
<g id="edge21" class="edge">
<title>Node22&#45;&gt;Node21</title>
<path fill="none" stroke="midnightblue" d="M428.24,-1053.6C403.48,-1040.73 366.81,-1021.66 345.67,-1010.67"/>
<polygon fill="midnightblue" stroke="midnightblue" points="426.91,-1056.86 437.4,-1058.37 430.14,-1050.65 426.91,-1056.86"/>
</g>
<!-- Node23 -->
<g id="node23" class="node">
<title>Node23</title>
<g id="a_node23"><a xlink:href="classdrain_1_1ValueScaling.html" target="_top" xlink:title="Linear scaling and physical range for image intensities.">
<polygon fill="white" stroke="red" points="414,-1131 414,-1150 494,-1150 494,-1131 414,-1131"/>
<text text-anchor="middle" x="454" y="-1138" font-family="Helvetica,sans-Serif" font-size="10.00">ValueScaling</text>
</a>
</g>
</g>
<!-- Node23&#45;&gt;Node22 -->
<g id="edge22" class="edge">
<title>Node23&#45;&gt;Node22</title>
<path fill="none" stroke="midnightblue" d="M454,-1120.44C454,-1106.53 454,-1088.32 454,-1077.72"/>
<polygon fill="midnightblue" stroke="midnightblue" points="450.5,-1120.86 454,-1130.86 457.5,-1120.86 450.5,-1120.86"/>
</g>
<!-- Node27 -->
<g id="node24" class="node">
<title>Node27</title>
<g id="a_node24"><a xlink:href="classdrain_1_1Caster.html" target="_top" xlink:title=" ">
<polygon fill="white" stroke="black" points="516,-1131 516,-1150 564,-1150 564,-1131 516,-1131"/>
<text text-anchor="middle" x="540" y="-1138" font-family="Helvetica,sans-Serif" font-size="10.00">Caster</text>
</a>
</g>
</g>
<!-- Node27&#45;&gt;Node22 -->
<g id="edge23" class="edge">
<title>Node27&#45;&gt;Node22</title>
<path fill="none" stroke="#9a32cd" stroke-dasharray="5,2" d="M521.67,-1124.47C504.32,-1110.25 478.86,-1089.38 464.63,-1077.72"/>
<polygon fill="#9a32cd" stroke="#9a32cd" points="519.5,-1127.22 529.45,-1130.86 523.94,-1121.81 519.5,-1127.22"/>
<text text-anchor="middle" x="517" y="-1099" font-family="Helvetica,sans-Serif" font-size="10.00"> caster</text>
</g>
<!-- Node38 -->
<g id="node32" class="node">
<title>Node38</title>
<g id="a_node32"><a xlink:href="classdrain_1_1Castable.html" target="_top" xlink:title=" ">
<polygon fill="white" stroke="black" points="514.5,-1058.5 514.5,-1077.5 573.5,-1077.5 573.5,-1058.5 514.5,-1058.5"/>
<text text-anchor="middle" x="544" y="-1065.5" font-family="Helvetica,sans-Serif" font-size="10.00">Castable</text>
</a>
</g>
</g>
<!-- Node27&#45;&gt;Node38 -->
<g id="edge32" class="edge">
<title>Node27&#45;&gt;Node38</title>
<path fill="none" stroke="#9a32cd" stroke-dasharray="5,2" d="M541.06,-1120.86C541.85,-1106.9 542.9,-1088.43 543.51,-1077.72"/>
<polygon fill="#9a32cd" stroke="#9a32cd" points="537.56,-1120.67 540.49,-1130.86 544.55,-1121.07 537.56,-1120.67"/>
<text text-anchor="middle" x="560" y="-1099" font-family="Helvetica,sans-Serif" font-size="10.00"> caster</text>
</g>
<!-- Node28 -->
<g id="node25" class="node">
<title>Node28</title>
<g id="a_node25"><a xlink:href="classdrain_1_1image_1_1Geometry.html" target="_top" xlink:title=" ">
<polygon fill="white" stroke="red" points="87.5,-1058.5 87.5,-1077.5 152.5,-1077.5 152.5,-1058.5 87.5,-1058.5"/>
<text text-anchor="middle" x="120" y="-1065.5" font-family="Helvetica,sans-Serif" font-size="10.00">Geometry</text>
</a>
</g>
</g>
<!-- Node28&#45;&gt;Node21 -->
<g id="edge24" class="edge">
<title>Node28&#45;&gt;Node21</title>
<path fill="none" stroke="midnightblue" d="M157.47,-1055.35C198.87,-1042.47 264.55,-1022.05 301.46,-1010.56"/>
<polygon fill="midnightblue" stroke="midnightblue" points="156.26,-1052.06 147.75,-1058.37 158.34,-1058.74 156.26,-1052.06"/>
</g>
<!-- Node29 -->
<g id="node26" class="node">
<title>Node29</title>
<g id="a_node26"><a xlink:href="classdrain_1_1UniTuple.html" target="_top" xlink:title=" ">
<polygon fill="white" stroke="black" points="5,-1131 5,-1150 127,-1150 127,-1131 5,-1131"/>
<text text-anchor="middle" x="66" y="-1138" font-family="Helvetica,sans-Serif" font-size="10.00">UniTuple&lt; size_t, 4 &gt;</text>
</a>
</g>
</g>
<!-- Node29&#45;&gt;Node28 -->
<g id="edge25" class="edge">
<title>Node29&#45;&gt;Node28</title>
<path fill="none" stroke="midnightblue" d="M78.72,-1122.9C89.56,-1108.74 104.71,-1088.96 113.32,-1077.72"/>
<polygon fill="midnightblue" stroke="midnightblue" points="75.92,-1120.79 72.62,-1130.86 81.48,-1125.04 75.92,-1120.79"/>
</g>
<!-- Node33 -->
<g id="node27" class="node">
<title>Node33</title>
<g id="a_node27"><a xlink:href="classdrain_1_1image_1_1CoordinatePolicy.html" target="_top" xlink:title="Policies for coordinate underflows and overflows.">
<polygon fill="white" stroke="black" points="181.5,-1058.5 181.5,-1077.5 280.5,-1077.5 280.5,-1058.5 181.5,-1058.5"/>
<text text-anchor="middle" x="231" y="-1065.5" font-family="Helvetica,sans-Serif" font-size="10.00">CoordinatePolicy</text>
</a>
</g>
</g>
<!-- Node33&#45;&gt;Node21 -->
<g id="edge26" class="edge">
<title>Node33&#45;&gt;Node21</title>
<path fill="none" stroke="#9a32cd" stroke-dasharray="5,2" d="M252.72,-1052.59C272.11,-1039.74 299.86,-1021.33 315.99,-1010.63"/>
<polygon fill="#9a32cd" stroke="#9a32cd" points="250.62,-1049.79 244.22,-1058.23 254.48,-1055.62 250.62,-1049.79"/>
<text text-anchor="middle" x="328.5" y="-1032" font-family="Helvetica,sans-Serif" font-size="10.00"> coordinatePolicy</text>
</g>
<!-- Node56 -->
<g id="node50" class="node">
<title>Node56</title>
<g id="a_node50"><a xlink:href="classdrain_1_1image_1_1CoordinateHandler2D.html" target="_top" xlink:title=" ">
<polygon fill="white" stroke="black" points="0,-583 0,-602 122,-602 122,-583 0,-583"/>
<text text-anchor="middle" x="61" y="-590" font-family="Helvetica,sans-Serif" font-size="10.00">CoordinateHandler2D</text>
</a>
</g>
</g>
<!-- Node33&#45;&gt;Node56 -->
<g id="edge57" class="edge">
<title>Node33&#45;&gt;Node56</title>
<path fill="none" stroke="#9a32cd" stroke-dasharray="5,2" d="M171.39,-1056.49C120.67,-1045.8 56,-1027.22 56,-1002 56,-1002 56,-1002 56,-714.5 56,-672.24 59.08,-621.75 60.41,-602"/>
<polygon fill="#9a32cd" stroke="#9a32cd" points="170.82,-1059.95 181.32,-1058.52 172.22,-1053.09 170.82,-1059.95"/>
<text text-anchor="middle" x="72.5" y="-842.5" font-family="Helvetica,sans-Serif" font-size="10.00"> policy</text>
</g>
<!-- Node34 -->
<g id="node28" class="node">
<title>Node34</title>
<g id="a_node28"><a xlink:href="classdrain_1_1UniTuple.html" target="_top" xlink:title=" ">
<polygon fill="white" stroke="black" points="278.5,-1125.5 278.5,-1155.5 395.5,-1155.5 395.5,-1125.5 278.5,-1125.5"/>
<text text-anchor="start" x="286.5" y="-1143.5" font-family="Helvetica,sans-Serif" font-size="10.00">UniTuple&lt; coord_pol</text>
<text text-anchor="middle" x="337" y="-1132.5" font-family="Helvetica,sans-Serif" font-size="10.00">_t, 4 &gt;</text>
</a>
</g>
</g>
<!-- Node34&#45;&gt;Node33 -->
<g id="edge27" class="edge">
<title>Node34&#45;&gt;Node33</title>
<path fill="none" stroke="midnightblue" d="M307.27,-1119.73C286.38,-1105.83 259.46,-1087.93 243.83,-1077.53"/>
<polygon fill="midnightblue" stroke="midnightblue" points="305.54,-1122.78 315.8,-1125.4 309.42,-1116.95 305.54,-1122.78"/>
</g>
<!-- Node35 -->
<g id="node29" class="node">
<title>Node35</title>
<g id="a_node29"><a xlink:href="classdrain_1_1Dictionary2.html" target="_top" xlink:title="Two&#45;way mapping between strings and objects of template class T.">
<polygon fill="white" stroke="black" points="145.5,-1131 145.5,-1150 260.5,-1150 260.5,-1131 145.5,-1131"/>
<text text-anchor="middle" x="203" y="-1138" font-family="Helvetica,sans-Serif" font-size="10.00">Dictionary2&lt; K, V &gt;</text>
</a>
</g>
</g>
<!-- Node35&#45;&gt;Node33 -->
<g id="edge28" class="edge">
<title>Node35&#45;&gt;Node33</title>
<path fill="none" stroke="#9a32cd" stroke-dasharray="5,2" d="M210.24,-1121.27C215.8,-1107.26 223.24,-1088.53 227.54,-1077.72"/>
<polygon fill="#9a32cd" stroke="#9a32cd" points="206.87,-1120.27 206.43,-1130.86 213.38,-1122.85 206.87,-1120.27"/>
<text text-anchor="middle" x="231" y="-1099" font-family="Helvetica,sans-Serif" font-size="10.00"> dict</text>
</g>
<!-- Node36 -->
<g id="node30" class="node">
<title>Node36</title>
<g id="a_node30"><a xlink:title=" ">
<polygon fill="white" stroke="#bfbfbf" points="151,-1193.5 151,-1223.5 255,-1223.5 255,-1193.5 151,-1193.5"/>
<text text-anchor="start" x="159" y="-1211.5" font-family="Helvetica,sans-Serif" font-size="10.00">list&lt; std::pair&lt; K,</text>
<text text-anchor="middle" x="203" y="-1200.5" font-family="Helvetica,sans-Serif" font-size="10.00"> V &gt; &gt;</text>
</a>
</g>
</g>
<!-- Node36&#45;&gt;Node35 -->
<g id="edge29" class="edge">
<title>Node36&#45;&gt;Node35</title>
<path fill="none" stroke="midnightblue" d="M203,-1182.88C203,-1171.47 203,-1158.64 203,-1150.33"/>
<polygon fill="midnightblue" stroke="midnightblue" points="199.5,-1183.18 203,-1193.18 206.5,-1183.18 199.5,-1183.18"/>
</g>
<!-- Node37 -->
<g id="node31" class="node">
<title>Node37</title>
<g id="a_node31"><a xlink:href="classdrain_1_1CastableIterator.html" target="_top" xlink:title=" ">
<polygon fill="white" stroke="black" points="496.5,-953.5 496.5,-972.5 591.5,-972.5 591.5,-953.5 496.5,-953.5"/>
<text text-anchor="middle" x="544" y="-960.5" font-family="Helvetica,sans-Serif" font-size="10.00">CastableIterator</text>
</a>
</g>
</g>
<!-- Node37&#45;&gt;Node19 -->
<g id="edge30" class="edge">
<title>Node37&#45;&gt;Node19</title>
<path fill="none" stroke="#9a32cd" stroke-dasharray="5,2" d="M544.65,-943.02C545.54,-917.46 547.07,-873.04 547.71,-854.5"/>
<polygon fill="#9a32cd" stroke="#9a32cd" points="541.15,-943.17 544.3,-953.28 548.14,-943.41 541.15,-943.17"/>
<text text-anchor="middle" x="581.5" y="-927" font-family="Helvetica,sans-Serif" font-size="10.00"> segmentEnd</text>
<text text-anchor="middle" x="581.5" y="-916" font-family="Helvetica,sans-Serif" font-size="10.00">segmentBegin</text>
</g>
<!-- Node38&#45;&gt;Node37 -->
<g id="edge31" class="edge">
<title>Node38&#45;&gt;Node37</title>
<path fill="none" stroke="darkgreen" d="M544,-1047.94C544,-1025.53 544,-989.31 544,-972.76"/>
<polygon fill="darkgreen" stroke="darkgreen" points="540.5,-1048.22 544,-1058.22 547.5,-1048.22 540.5,-1048.22"/>
</g>
<!-- Node39 -->
<g id="node33" class="node">
<title>Node39</title>
<g id="a_node33"><a xlink:href="classdrain_1_1FlexVariableMap.html" target="_top" xlink:title="A map of FlexVariable:s.">
<polygon fill="white" stroke="black" points="633.5,-914.5 633.5,-933.5 732.5,-933.5 732.5,-914.5 633.5,-914.5"/>
<text text-anchor="middle" x="683" y="-921.5" font-family="Helvetica,sans-Serif" font-size="10.00">FlexVariableMap</text>
</a>
</g>
</g>
<!-- Node39&#45;&gt;Node19 -->
<g id="edge33" class="edge">
<title>Node39&#45;&gt;Node19</title>
<path fill="none" stroke="#9a32cd" stroke-dasharray="5,2" d="M659.35,-909.51C631.59,-893.68 586.39,-867.89 563.03,-854.57"/>
<polygon fill="#9a32cd" stroke="#9a32cd" points="657.62,-912.55 668.04,-914.47 661.08,-906.47 657.62,-912.55"/>
<text text-anchor="middle" x="665.5" y="-887" font-family="Helvetica,sans-Serif" font-size="10.00"> propertiesPtr</text>
<text text-anchor="middle" x="665.5" y="-876" font-family="Helvetica,sans-Serif" font-size="10.00">properties</text>
</g>
<!-- Node40 -->
<g id="node34" class="node">
<title>Node40</title>
<g id="a_node34"><a xlink:href="classdrain_1_1SmartMap.html" target="_top" xlink:title=" ">
<polygon fill="white" stroke="black" points="607.5,-991.5 607.5,-1010.5 758.5,-1010.5 758.5,-991.5 607.5,-991.5"/>
<text text-anchor="middle" x="683" y="-998.5" font-family="Helvetica,sans-Serif" font-size="10.00">SmartMap&lt; FlexVariable &gt;</text>
</a>
</g>
</g>
<!-- Node40&#45;&gt;Node39 -->
<g id="edge34" class="edge">
<title>Node40&#45;&gt;Node39</title>
<path fill="none" stroke="midnightblue" d="M683,-981.02C683,-965.74 683,-944.98 683,-933.5"/>
<polygon fill="midnightblue" stroke="midnightblue" points="679.5,-981.4 683,-991.4 686.5,-981.4 679.5,-981.4"/>
</g>
<!-- Node41 -->
<g id="node35" class="node">
<title>Node41</title>
<g id="a_node35"><a xlink:title=" ">
<polygon fill="white" stroke="#bfbfbf" points="594.5,-1058.5 594.5,-1077.5 771.5,-1077.5 771.5,-1058.5 594.5,-1058.5"/>
<text text-anchor="middle" x="683" y="-1065.5" font-family="Helvetica,sans-Serif" font-size="10.00">map&lt; std::string, FlexVariable &gt;</text>
</a>
</g>
</g>
<!-- Node41&#45;&gt;Node40 -->
<g id="edge35" class="edge">
<title>Node41&#45;&gt;Node40</title>
<path fill="none" stroke="midnightblue" d="M683,-1048.04C683,-1035.67 683,-1020.12 683,-1010.63"/>
<polygon fill="midnightblue" stroke="midnightblue" points="679.5,-1048.23 683,-1058.23 686.5,-1048.23 679.5,-1048.23"/>
</g>
<!-- Node42 -->
<g id="node36" class="node">
<title>Node42</title>
<g id="a_node36"><a xlink:href="classdrain_1_1Range.html" target="_top" xlink:title=" ">
<polygon fill="white" stroke="black" points="86.5,-706 86.5,-725 169.5,-725 169.5,-706 86.5,-706"/>
<text text-anchor="middle" x="128" y="-713" font-family="Helvetica,sans-Serif" font-size="10.00">Range&lt; int &gt;</text>
</a>
</g>
</g>
<!-- Node42&#45;&gt;Node13 -->
<g id="edge37" class="edge">
<title>Node42&#45;&gt;Node13</title>
<path fill="none" stroke="#9a32cd" stroke-dasharray="5,2" d="M133,-696.18C137.89,-680.07 146.31,-656.39 158,-638 188.06,-590.72 311.35,-470.76 354.22,-429.61"/>
<polygon fill="#9a32cd" stroke="#9a32cd" points="129.58,-695.39 130.18,-705.97 136.31,-697.32 129.58,-695.39"/>
<text text-anchor="middle" x="276.5" y="-539" font-family="Helvetica,sans-Serif" font-size="10.00"> jRange</text>
<text text-anchor="middle" x="276.5" y="-528" font-family="Helvetica,sans-Serif" font-size="10.00">iRange</text>
</g>
<!-- Node42&#45;&gt;Node56 -->
<g id="edge55" class="edge">
<title>Node42&#45;&gt;Node56</title>
<path fill="none" stroke="#9a32cd" stroke-dasharray="5,2" d="M106.69,-699.77C100.62,-694.72 94.45,-688.65 90,-682 72.64,-656.07 64.97,-618.94 62.25,-602.23"/>
<polygon fill="#9a32cd" stroke="#9a32cd" points="104.69,-702.64 114.74,-705.98 108.96,-697.1 104.69,-702.64"/>
<text text-anchor="middle" x="110" y="-663" font-family="Helvetica,sans-Serif" font-size="10.00"> yRange</text>
<text text-anchor="middle" x="110" y="-652" font-family="Helvetica,sans-Serif" font-size="10.00">xRange</text>
</g>
<!-- Node43 -->
<g id="node37" class="node">
<title>Node43</title>
<g id="a_node37"><a xlink:href="classdrain_1_1UniTuple.html" target="_top" xlink:title=" ">
<polygon fill="white" stroke="black" points="145,-778.5 145,-797.5 251,-797.5 251,-778.5 145,-778.5"/>
<text text-anchor="middle" x="198" y="-785.5" font-family="Helvetica,sans-Serif" font-size="10.00">UniTuple&lt; int, 2 &gt;</text>
</a>
</g>
</g>
<!-- Node43&#45;&gt;Node42 -->
<g id="edge38" class="edge">
<title>Node43&#45;&gt;Node42</title>
<path fill="none" stroke="midnightblue" d="M182.3,-771.19C168.21,-756.99 148.03,-736.67 136.65,-725.22"/>
<polygon fill="midnightblue" stroke="midnightblue" points="179.89,-773.73 189.42,-778.36 184.85,-768.79 179.89,-773.73"/>
</g>
<!-- Node54 -->
<g id="node48" class="node">
<title>Node54</title>
<g id="a_node48"><a xlink:href="classdrain_1_1Frame2D.html" target="_top" xlink:title=" ">
<polygon fill="white" stroke="black" points="226,-706 226,-725 322,-725 322,-706 226,-706"/>
<text text-anchor="middle" x="274" y="-713" font-family="Helvetica,sans-Serif" font-size="10.00">Frame2D&lt; int &gt;</text>
</a>
</g>
</g>
<!-- Node43&#45;&gt;Node54 -->
<g id="edge51" class="edge">
<title>Node43&#45;&gt;Node54</title>
<path fill="none" stroke="midnightblue" d="M215.04,-771.19C230.35,-756.99 252.26,-736.67 264.6,-725.22"/>
<polygon fill="midnightblue" stroke="midnightblue" points="212.27,-768.99 207.32,-778.36 217.03,-774.12 212.27,-768.99"/>
</g>
<!-- Node55 -->
<g id="node49" class="node">
<title>Node55</title>
<g id="a_node49"><a xlink:href="structdrain_1_1Point2D.html" target="_top" xlink:title=" ">
<polygon fill="white" stroke="black" points="170,-487.5 170,-506.5 260,-506.5 260,-487.5 170,-487.5"/>
<text text-anchor="middle" x="215" y="-494.5" font-family="Helvetica,sans-Serif" font-size="10.00">Point2D&lt; int &gt;</text>
</a>
</g>
</g>
<!-- Node43&#45;&gt;Node55 -->
<g id="edge53" class="edge">
<title>Node43&#45;&gt;Node55</title>
<path fill="none" stroke="midnightblue" d="M199.11,-768.05C202.43,-711.64 212.16,-546.26 214.49,-506.62"/>
<polygon fill="midnightblue" stroke="midnightblue" points="195.6,-768.16 198.51,-778.35 202.59,-768.57 195.6,-768.16"/>
</g>
<!-- Node44 -->
<g id="node38" class="node">
<title>Node44</title>
<g id="a_node38"><a xlink:href="structdrain_1_1UnaryFunctor.html" target="_top" xlink:title=" ">
<polygon fill="white" stroke="black" points="763,-487.5 763,-506.5 845,-506.5 845,-487.5 763,-487.5"/>
<text text-anchor="middle" x="804" y="-494.5" font-family="Helvetica,sans-Serif" font-size="10.00">UnaryFunctor</text>
</a>
</g>
</g>
<!-- Node44&#45;&gt;Node13 -->
<g id="edge39" class="edge">
<title>Node44&#45;&gt;Node13</title>
<path fill="none" stroke="#9a32cd" stroke-dasharray="5,2" d="M762.27,-484.83C722.56,-474.5 661.03,-459.22 607,-449 554.52,-439.07 495.02,-430.69 448.64,-424.8"/>
<polygon fill="#9a32cd" stroke="#9a32cd" points="761.56,-488.27 772.12,-487.41 763.34,-481.49 761.56,-488.27"/>
<text text-anchor="middle" x="721.5" y="-456.5" font-family="Helvetica,sans-Serif" font-size="10.00"> myFunctor</text>
</g>
<!-- Node45&#45;&gt;Node44 -->
<g id="edge40" class="edge">
<title>Node45&#45;&gt;Node44</title>
<path fill="none" stroke="midnightblue" d="M801.6,-572.74C802.25,-552.62 803.24,-521.55 803.72,-506.61"/>
<polygon fill="midnightblue" stroke="midnightblue" points="798.1,-572.76 801.28,-582.87 805.1,-572.99 798.1,-572.76"/>
</g>
<!-- Node46 -->
<g id="node40" class="node">
<title>Node46</title>
<g id="a_node40"><a xlink:href="classdrain_1_1UniCloner.html" target="_top" xlink:title=" ">
<polygon fill="white" stroke="black" points="561.5,-487.5 561.5,-506.5 744.5,-506.5 744.5,-487.5 561.5,-487.5"/>
<text text-anchor="middle" x="653" y="-494.5" font-family="Helvetica,sans-Serif" font-size="10.00">UniCloner&lt; drain::UnaryFunctor &gt;</text>
</a>
</g>
</g>
<!-- Node46&#45;&gt;Node13 -->
<g id="edge42" class="edge">
<title>Node46&#45;&gt;Node13</title>
<path fill="none" stroke="#9a32cd" stroke-dasharray="5,2" d="M613.19,-484.72C562.19,-470.26 473.78,-445.2 418.49,-429.53"/>
<polygon fill="#9a32cd" stroke="#9a32cd" points="612.3,-488.1 622.88,-487.46 614.21,-481.37 612.3,-488.1"/>
<text text-anchor="middle" x="578.5" y="-456.5" font-family="Helvetica,sans-Serif" font-size="10.00"> unicloner</text>
</g>
<!-- Node47 -->
<g id="node41" class="node">
<title>Node47</title>
<g id="a_node41"><a xlink:href="classdrain_1_1Bank.html" target="_top" xlink:title=" ">
<polygon fill="white" stroke="black" points="671.5,-583 671.5,-602 754.5,-602 754.5,-583 671.5,-583"/>
<text text-anchor="middle" x="713" y="-590" font-family="Helvetica,sans-Serif" font-size="10.00">Bank&lt; T, K &gt;</text>
</a>
</g>
</g>
<!-- Node47&#45;&gt;Node46 -->
<g id="edge43" class="edge">
<title>Node47&#45;&gt;Node46</title>
<path fill="none" stroke="#9a32cd" stroke-dasharray="5,2" d="M702.03,-574.4C689.17,-554.37 668.38,-521.97 658.52,-506.61"/>
<polygon fill="#9a32cd" stroke="#9a32cd" points="699.12,-576.35 707.46,-582.87 705.01,-572.56 699.12,-576.35"/>
<text text-anchor="middle" x="697" y="-533.5" font-family="Helvetica,sans-Serif" font-size="10.00"> bank</text>
</g>
<!-- Node48 -->
<g id="node42" class="node">
<title>Node48</title>
<g id="a_node42"><a xlink:title=" ">
<polygon fill="white" stroke="#bfbfbf" points="646,-700.5 646,-730.5 782,-730.5 782,-700.5 646,-700.5"/>
<text text-anchor="start" x="654" y="-718.5" font-family="Helvetica,sans-Serif" font-size="10.00">map&lt; std::string, Cloner</text>
<text text-anchor="middle" x="714" y="-707.5" font-family="Helvetica,sans-Serif" font-size="10.00">Base&lt; T &gt; * &gt;</text>
</a>
</g>
</g>
<!-- Node48&#45;&gt;Node47 -->
<g id="edge44" class="edge">
<title>Node48&#45;&gt;Node47</title>
<path fill="none" stroke="darkgreen" d="M713.8,-689.84C713.57,-662.56 713.22,-620.08 713.07,-602.05"/>
<polygon fill="darkgreen" stroke="darkgreen" points="710.3,-690.17 713.88,-700.14 717.3,-690.12 710.3,-690.17"/>
</g>
<!-- Node49 -->
<g id="node43" class="node">
<title>Node49</title>
<g id="a_node43"><a xlink:href="classdrain_1_1image_1_1OpticalFlowConfig.html" target="_top" xlink:title="Consider using SlidingStripeOpticalFlow instead.">
<polygon fill="white" stroke="black" points="316,-487.5 316,-506.5 422,-506.5 422,-487.5 316,-487.5"/>
<text text-anchor="middle" x="369" y="-494.5" font-family="Helvetica,sans-Serif" font-size="10.00">OpticalFlowConfig</text>
</a>
</g>
</g>
<!-- Node49&#45;&gt;Node13 -->
<g id="edge45" class="edge">
<title>Node49&#45;&gt;Node13</title>
<path fill="none" stroke="#9a32cd" stroke-dasharray="5,2" d="M369,-477.1C369,-462.6 369,-442.9 369,-429.72"/>
<polygon fill="#9a32cd" stroke="#9a32cd" points="365.5,-477.39 369,-487.39 372.5,-477.39 365.5,-477.39"/>
<text text-anchor="middle" x="381.5" y="-456.5" font-family="Helvetica,sans-Serif" font-size="10.00"> conf</text>
</g>
<!-- Node50 -->
<g id="node44" class="node">
<title>Node50</title>
<g id="a_node44"><a xlink:href="classdrain_1_1image_1_1WindowConfig.html" target="_top" xlink:title="Base class for configurations applied in image processing windows, e.g. for operators of type WindowO...">
<polygon fill="white" stroke="black" points="325.5,-583 325.5,-602 412.5,-602 412.5,-583 325.5,-583"/>
<text text-anchor="middle" x="369" y="-590" font-family="Helvetica,sans-Serif" font-size="10.00">WindowConfig</text>
</a>
</g>
</g>
<!-- Node50&#45;&gt;Node49 -->
<g id="edge46" class="edge">
<title>Node50&#45;&gt;Node49</title>
<path fill="none" stroke="midnightblue" d="M369,-572.74C369,-552.62 369,-521.55 369,-506.61"/>
<polygon fill="midnightblue" stroke="midnightblue" points="365.5,-572.87 369,-582.87 372.5,-572.87 365.5,-572.87"/>
</g>
<!-- Node51 -->
<g id="node45" class="node">
<title>Node51</title>
<g id="a_node45"><a xlink:href="classdrain_1_1VariableMap.html" target="_top" xlink:title="A map of Variables.">
<polygon fill="white" stroke="black" points="340,-706 340,-725 418,-725 418,-706 340,-706"/>
<text text-anchor="middle" x="379" y="-713" font-family="Helvetica,sans-Serif" font-size="10.00">VariableMap</text>
</a>
</g>
</g>
<!-- Node51&#45;&gt;Node50 -->
<g id="edge47" class="edge">
<title>Node51&#45;&gt;Node50</title>
<path fill="none" stroke="#9a32cd" stroke-dasharray="5,2" d="M377.43,-695.49C375.23,-668.85 371.31,-621.5 369.71,-602.12"/>
<polygon fill="#9a32cd" stroke="#9a32cd" points="373.97,-696.12 378.28,-705.8 380.95,-695.54 373.97,-696.12"/>
<text text-anchor="middle" x="424" y="-657.5" font-family="Helvetica,sans-Serif" font-size="10.00"> functorParameters</text>
</g>
<!-- Node52 -->
<g id="node46" class="node">
<title>Node52</title>
<g id="a_node46"><a xlink:href="classdrain_1_1SmartMap.html" target="_top" xlink:title=" ">
<polygon fill="white" stroke="black" points="314,-778.5 314,-797.5 444,-797.5 444,-778.5 314,-778.5"/>
<text text-anchor="middle" x="379" y="-785.5" font-family="Helvetica,sans-Serif" font-size="10.00">SmartMap&lt; Variable &gt;</text>
</a>
</g>
</g>
<!-- Node52&#45;&gt;Node51 -->
<g id="edge48" class="edge">
<title>Node52&#45;&gt;Node51</title>
<path fill="none" stroke="midnightblue" d="M379,-767.94C379,-754.03 379,-735.82 379,-725.22"/>
<polygon fill="midnightblue" stroke="midnightblue" points="375.5,-768.36 379,-778.36 382.5,-768.36 375.5,-768.36"/>
</g>
<!-- Node53 -->
<g id="node47" class="node">
<title>Node53</title>
<g id="a_node47"><a xlink:title=" ">
<polygon fill="white" stroke="#bfbfbf" points="301,-835.5 301,-854.5 457,-854.5 457,-835.5 301,-835.5"/>
<text text-anchor="middle" x="379" y="-842.5" font-family="Helvetica,sans-Serif" font-size="10.00">map&lt; std::string, Variable &gt;</text>
</a>
</g>
</g>
<!-- Node53&#45;&gt;Node52 -->
<g id="edge49" class="edge">
<title>Node53&#45;&gt;Node52</title>
<path fill="none" stroke="midnightblue" d="M379,-825.12C379,-815.82 379,-805.06 379,-797.71"/>
<polygon fill="midnightblue" stroke="midnightblue" points="375.5,-825.41 379,-835.41 382.5,-825.41 375.5,-825.41"/>
</g>
<!-- Node54&#45;&gt;Node50 -->
<g id="edge50" class="edge">
<title>Node54&#45;&gt;Node50</title>
<path fill="none" stroke="#9a32cd" stroke-dasharray="5,2" d="M287.27,-697.59C307.83,-671.41 346.61,-622.02 362.23,-602.12"/>
<polygon fill="#9a32cd" stroke="#9a32cd" points="284.25,-695.77 280.83,-705.8 289.76,-700.09 284.25,-695.77"/>
<text text-anchor="middle" x="349.5" y="-657.5" font-family="Helvetica,sans-Serif" font-size="10.00"> frame</text>
</g>
<!-- Node54&#45;&gt;Node56 -->
<g id="edge56" class="edge">
<title>Node54&#45;&gt;Node56</title>
<path fill="none" stroke="#9a32cd" stroke-dasharray="5,2" d="M250.15,-700.95C206.03,-675.89 112.87,-622.97 76.25,-602.16"/>
<polygon fill="#9a32cd" stroke="#9a32cd" points="248.6,-704.1 259.02,-705.99 252.06,-698.01 248.6,-704.1"/>
<text text-anchor="middle" x="224.5" y="-657.5" font-family="Helvetica,sans-Serif" font-size="10.00"> area</text>
</g>
<!-- Node55&#45;&gt;Node12 -->
<g id="edge59" class="edge">
<title>Node55&#45;&gt;Node12</title>
<path fill="none" stroke="#9a32cd" stroke-dasharray="5,2" d="M209.4,-477.67C204.1,-456.39 199.21,-421.26 216,-398 233.18,-374.2 261.82,-361.09 289.72,-353.9"/>
<polygon fill="#9a32cd" stroke="#9a32cd" points="206.05,-478.69 212.09,-487.39 212.8,-476.82 206.05,-478.69"/>
<text text-anchor="middle" x="248" y="-423" font-family="Helvetica,sans-Serif" font-size="10.00"> locationTrail</text>
<text text-anchor="middle" x="248" y="-412" font-family="Helvetica,sans-Serif" font-size="10.00">locationLead</text>
<text text-anchor="middle" x="248" y="-401" font-family="Helvetica,sans-Serif" font-size="10.00">locationTmp</text>
</g>
<!-- Node55&#45;&gt;Node13 -->
<g id="edge52" class="edge">
<title>Node55&#45;&gt;Node13</title>
<path fill="none" stroke="#9a32cd" stroke-dasharray="5,2" d="M217.03,-477.38C219.05,-467.64 223.05,-456.27 231,-449 247.02,-434.36 268.33,-425.83 289.4,-420.94"/>
<polygon fill="#9a32cd" stroke="#9a32cd" points="213.56,-476.96 215.5,-487.37 220.48,-478.02 213.56,-476.96"/>
<text text-anchor="middle" x="252.5" y="-456.5" font-family="Helvetica,sans-Serif" font-size="10.00"> location</text>
</g>
<!-- Node56&#45;&gt;Node13 -->
<g id="edge54" class="edge">
<title>Node56&#45;&gt;Node13</title>
<path fill="none" stroke="#9a32cd" stroke-dasharray="5,2" d="M56.08,-572.87C51.24,-549.95 47.14,-511.1 67,-487 74.52,-477.88 213.66,-447.66 300.42,-429.56"/>
<polygon fill="#9a32cd" stroke="#9a32cd" points="52.7,-573.79 58.42,-582.71 59.52,-572.17 52.7,-573.79"/>
<text text-anchor="middle" x="114" y="-494.5" font-family="Helvetica,sans-Serif" font-size="10.00"> coordinateHandler</text>
</g>
</g>
</svg>
