<?xml version="1.0" encoding="UTF-8" standalone="no"?>
<!DOCTYPE svg PUBLIC "-//W3C//DTD SVG 1.1//EN"
 "http://www.w3.org/Graphics/SVG/1.1/DTD/svg11.dtd">
<!-- Generated by graphviz version 2.43.0 (0)
 -->
<!-- Title: example Pages: 1 -->
<svg width="432pt" height="99pt"
 viewBox="0.00 0.00 432.00 99.12" xmlns="http://www.w3.org/2000/svg" xmlns:xlink="http://www.w3.org/1999/xlink">
<g id="graph0" class="graph" transform="scale(1.51 1.51) rotate(0) translate(4 145.5)">
<title>example</title>
<polygon fill="white" stroke="transparent" points="-4,4 -4,-145.5 647.6,-145.5 647.6,4 -4,4"/>
<text text-anchor="middle" x="321.8" y="-7.8" font-family="Times,serif" font-size="14.00">Continuous compositing (direct or distributed)</text>
<!-- compin -->
<g id="node1" class="node">
<title>compin</title>
<polygon fill="none" stroke="forestgreen" points="0,-23.5 0,-83.5 145,-83.5 145,-23.5 0,-23.5"/>
<text text-anchor="middle" x="72.5" y="-71.5" font-family="Times,serif" font-size="10.00">Read previous composite</text>
<polyline fill="none" stroke="forestgreen" points="0,-64.5 145,-64.5 "/>
<text text-anchor="middle" x="72.5" y="-52.5" font-family="Times,serif" font-size="10.00">(&#45;&#45;inputFile) </text>
<text text-anchor="middle" x="72.5" y="-41.5" font-family="Times,serif" font-size="10.00"> &#45;&#45;cAdd </text>
<text text-anchor="middle" x="72.5" y="-30.5" font-family="Times,serif" font-size="10.00"> &#45;&#45;cAddWeighted</text>
</g>
<!-- single -->
<g id="node2" class="node">
<title>single</title>
<polygon fill="none" stroke="darkturquoise" points="182,-56.5 182,-92.5 312,-92.5 312,-56.5 182,-56.5"/>
<text text-anchor="middle" x="247" y="-72" font-family="Times,serif" font-size="10.00">Generate or load a tile</text>
</g>
<!-- compin&#45;&gt;single -->
<g id="edge1" class="edge">
<title>compin:i&#45;&gt;single:i</title>
<path fill="none" stroke="black" d="M145,-74.5C153.68,-74.5 162.79,-74.5 171.82,-74.5"/>
<polygon fill="black" stroke="black" points="171.98,-78 181.98,-74.5 171.98,-71 171.98,-78"/>
</g>
<!-- add -->
<g id="node3" class="node">
<title>add</title>
<polygon fill="none" stroke="black" points="349,-92 349,-141 458,-141 458,-92 349,-92"/>
<text text-anchor="middle" x="403.5" y="-129" font-family="Times,serif" font-size="10.00">Update composite</text>
<polyline fill="none" stroke="black" points="349,-122 458,-122 "/>
<text text-anchor="middle" x="403.5" y="-110" font-family="Times,serif" font-size="10.00">&#45;&#45;cAdd </text>
<text text-anchor="middle" x="403.5" y="-99" font-family="Times,serif" font-size="10.00"> &#45;&#45;cAddWeighted</text>
</g>
<!-- single&#45;&gt;add -->
<g id="edge2" class="edge">
<title>single:i&#45;&gt;add:i</title>
<path fill="none" stroke="black" d="M312.47,-92.79C328.95,-103.08 326.93,-122.88 339.21,-129.37"/>
<polygon fill="black" stroke="black" points="338.49,-132.8 349,-131.5 339.97,-125.96 338.49,-132.8"/>
</g>
<!-- isMore -->
<g id="node4" class="node">
<title>isMore</title>
<ellipse fill="black" stroke="black" cx="496.8" cy="-74.5" rx="1.8" ry="1.8"/>
</g>
<!-- add&#45;&gt;isMore -->
<g id="edge3" class="edge">
<title>add:i&#45;&gt;isMore</title>
<path fill="none" stroke="black" d="M458,-131.5C479.74,-131.5 489.72,-102.35 493.64,-85.74"/>
<polygon fill="black" stroke="black" points="497.07,-86.4 495.59,-75.91 490.21,-85.03 497.07,-86.4"/>
</g>
<!-- isMore&#45;&gt;single -->
<g id="edge4" class="edge">
<title>isMore&#45;&gt;single:i</title>
<path fill="none" stroke="black" d="M494.87,-74.4C490.62,-73.94 472.73,-72.08 458,-71.5 412.95,-69.72 362.45,-70.34 322.15,-71.47"/>
<polygon fill="black" stroke="black" points="322.03,-67.97 312.13,-71.77 322.23,-74.97 322.03,-67.97"/>
<text text-anchor="middle" x="403.5" y="-74.5" font-family="Times,serif" font-size="10.00">repeat for each radar</text>
</g>
<!-- close -->
<g id="node5" class="node">
<title>close</title>
<polygon fill="none" stroke="black" points="535.6,-29.5 535.6,-89.5 643.6,-89.5 643.6,-29.5 535.6,-29.5"/>
<text text-anchor="middle" x="589.6" y="-77.5" font-family="Times,serif" font-size="10.00">Extraction and </text>
<text text-anchor="middle" x="589.6" y="-66.5" font-family="Times,serif" font-size="10.00"> saving composite</text>
<polyline fill="none" stroke="black" points="535.6,-59.5 643.6,-59.5 "/>
<text text-anchor="middle" x="589.6" y="-47.5" font-family="Times,serif" font-size="10.00">&#45;&#45;cExtract </text>
<text text-anchor="middle" x="589.6" y="-36.5" font-family="Times,serif" font-size="10.00"> &#45;&#45;outputFile</text>
</g>
<!-- isMore&#45;&gt;close -->
<g id="edge5" class="edge">
<title>isMore&#45;&gt;close:i</title>
<path fill="none" stroke="black" d="M498.74,-74.5C502.02,-74.5 513.48,-74.5 525.31,-74.5"/>
<polygon fill="black" stroke="black" points="525.6,-78 535.6,-74.5 525.6,-71 525.6,-78"/>
</g>
</g>
</svg>
