<?xml version="1.0" encoding="UTF-8" standalone="no"?>
<!DOCTYPE svg PUBLIC "-//W3C//DTD SVG 1.1//EN"
 "http://www.w3.org/Graphics/SVG/1.1/DTD/svg11.dtd">
<!-- Generated by graphviz version 2.43.0 (0)
 -->
<!-- Title: example Pages: 1 -->
<svg width="648pt" height="116pt"
 viewBox="0.00 0.00 648.00 115.82" xmlns="http://www.w3.org/2000/svg" xmlns:xlink="http://www.w3.org/1999/xlink">
<g id="graph0" class="graph" transform="scale(1.37 1.37) rotate(0) translate(4 155)">
<title>example</title>
<polygon fill="white" stroke="transparent" points="-4,4 -4,-155 885.6,-155 885.6,4 -4,4"/>
<text text-anchor="middle" x="440.8" y="-7.8" font-family="Times,serif" font-size="14.00">Control flow in direct compositing</text>
<!-- init -->
<g id="node1" class="node">
<title>init</title>
<polygon fill="none" stroke="black" points="0,-23.5 0,-94.5 80,-94.5 80,-23.5 0,-23.5"/>
<text text-anchor="middle" x="40" y="-82.5" font-family="Times,serif" font-size="10.00">Initialisation</text>
<polyline fill="none" stroke="black" points="0,-75.5 80,-75.5 "/>
<text text-anchor="middle" x="40" y="-63.5" font-family="Times,serif" font-size="10.00">&#45;&#45;cProj </text>
<text text-anchor="middle" x="40" y="-52.5" font-family="Times,serif" font-size="10.00"> &#45;&#45;cBBox </text>
<text text-anchor="middle" x="40" y="-41.5" font-family="Times,serif" font-size="10.00"> &#45;&#45;cSize </text>
<text text-anchor="middle" x="40" y="-30.5" font-family="Times,serif" font-size="10.00"> &#45;&#45;cMethod</text>
</g>
<!-- filein -->
<g id="node2" class="node">
<title>filein</title>
<g id="a_node2"><a xlink:href="fileiopage.html" target="_top" xlink:title="&lt;i&gt;Read volume file">
<polygon fill="none" stroke="forestgreen" points="117,-67 117,-103 219,-103 219,-67 117,-67"/>
<text text-anchor="middle" x="168" y="-82.5" font-family="Times,serif" font-size="10.00">Read volume file</text>
</a>
</g>
</g>
<!-- init&#45;&gt;filein -->
<g id="edge1" class="edge">
<title>init:i&#45;&gt;filein:i</title>
<path fill="none" stroke="black" d="M80,-85C88.66,-85 97.8,-85 106.78,-85"/>
<polygon fill="black" stroke="black" points="106.81,-88.5 116.81,-85 106.81,-81.5 106.81,-88.5"/>
</g>
<!-- create -->
<g id="node3" class="node">
<title>create</title>
<g id="a_node3"><a xlink:href="productspage.html" target="_top" xlink:title="&lt;i&gt;Creation of meteorological product">
<polygon fill="none" stroke="blue" points="256,-112 256,-148 450,-148 450,-112 256,-112"/>
<text text-anchor="middle" x="353" y="-127.5" font-family="Times,serif" font-size="10.00">Creation of meteorological product</text>
</a>
</g>
</g>
<!-- filein&#45;&gt;create -->
<g id="edge2" class="edge">
<title>filein:i&#45;&gt;create:i</title>
<path fill="none" stroke="black" d="M219.38,-101.84C227.99,-104.45 237.01,-107.05 245.85,-109.4"/>
<polygon fill="black" stroke="black" points="245.16,-112.84 255.72,-111.93 246.9,-106.06 245.16,-112.84"/>
</g>
<!-- add -->
<g id="node4" class="node">
<title>add</title>
<polygon fill="none" stroke="black" points="595,-101.5 595,-150.5 704,-150.5 704,-101.5 595,-101.5"/>
<text text-anchor="middle" x="649.5" y="-138.5" font-family="Times,serif" font-size="10.00">Update composite</text>
<polyline fill="none" stroke="black" points="595,-131.5 704,-131.5 "/>
<text text-anchor="middle" x="649.5" y="-119.5" font-family="Times,serif" font-size="10.00">&#45;&#45;cAdd </text>
<text text-anchor="middle" x="649.5" y="-108.5" font-family="Times,serif" font-size="10.00"> &#45;&#45;cAddWeighted</text>
</g>
<!-- create&#45;&gt;add -->
<g id="edge3" class="edge">
<title>create&#45;&gt;add:i</title>
<path fill="none" stroke="black" d="M450.12,-136.4C491.14,-138.65 539.84,-140.69 584.86,-140.97"/>
<polygon fill="black" stroke="black" points="584.99,-144.47 595,-141 585.01,-137.47 584.99,-144.47"/>
</g>
<!-- isMore -->
<g id="node5" class="node">
<title>isMore</title>
<ellipse fill="black" stroke="black" cx="742.8" cy="-85" rx="1.8" ry="1.8"/>
</g>
<!-- add&#45;&gt;isMore -->
<g id="edge4" class="edge">
<title>add:i&#45;&gt;isMore</title>
<path fill="none" stroke="black" d="M704,-141C725.26,-141 735.36,-112.93 739.45,-96.54"/>
<polygon fill="black" stroke="black" points="742.95,-96.89 741.58,-86.38 736.1,-95.45 742.95,-96.89"/>
</g>
<!-- isMore&#45;&gt;filein -->
<g id="edge5" class="edge">
<title>isMore&#45;&gt;filein:i</title>
<path fill="none" stroke="black" d="M740.7,-85C718.71,-85 372.92,-85 229.55,-85"/>
<polygon fill="black" stroke="black" points="229.17,-81.5 219.17,-85 229.17,-88.5 229.17,-81.5"/>
<text text-anchor="middle" x="522.5" y="-88" font-family="Times,serif" font-size="10.00">repeat for each radar</text>
</g>
<!-- close -->
<g id="node6" class="node">
<title>close</title>
<polygon fill="none" stroke="black" points="781.6,-45.5 781.6,-94.5 881.6,-94.5 881.6,-45.5 781.6,-45.5"/>
<text text-anchor="middle" x="831.6" y="-82.5" font-family="Times,serif" font-size="10.00">Extraction</text>
<polyline fill="none" stroke="black" points="781.6,-75.5 881.6,-75.5 "/>
<text text-anchor="middle" x="831.6" y="-63.5" font-family="Times,serif" font-size="10.00">&#45;&#45;cExtract </text>
<text text-anchor="middle" x="831.6" y="-52.5" font-family="Times,serif" font-size="10.00"> &#45;o composite.h5</text>
</g>
<!-- isMore&#45;&gt;close -->
<g id="edge6" class="edge">
<title>isMore&#45;&gt;close:i</title>
<path fill="none" stroke="black" d="M744.74,-85C748.02,-85 759.48,-85 771.31,-85"/>
<polygon fill="black" stroke="black" points="771.6,-88.5 781.6,-85 771.6,-81.5 771.6,-88.5"/>
</g>
</g>
</svg>
