<?xml version="1.0" encoding="UTF-8" standalone="no"?>
<!DOCTYPE svg PUBLIC "-//W3C//DTD SVG 1.1//EN"
 "http://www.w3.org/Graphics/SVG/1.1/DTD/svg11.dtd">
<!-- Generated by graphviz version 2.43.0 (0)
 -->
<!-- Title: parallel1 Pages: 1 -->
<svg width="757pt" height="77pt"
 viewBox="0.00 0.00 757.00 77.00" xmlns="http://www.w3.org/2000/svg" xmlns:xlink="http://www.w3.org/1999/xlink">
<g id="graph0" class="graph" transform="scale(1 1) rotate(0) translate(4 73)">
<title>parallel1</title>
<polygon fill="white" stroke="transparent" points="-4,4 -4,-73 753,-73 753,4 -4,4"/>
<text text-anchor="middle" x="374.5" y="-7" font-family="Times,serif" font-size="10.00">Parallel processing &#45;&#45; Command line structure</text>
<!-- CMD_INITIAL -->
<g id="node1" class="node">
<title>CMD_INITIAL</title>
<polygon fill="none" stroke="black" points="0,-20 0,-58 128,-58 128,-20 0,-20"/>
<text text-anchor="middle" x="64" y="-46" font-family="Times,serif" font-size="10.00">Common initialisation</text>
<polyline fill="none" stroke="black" points="0,-39 128,-39 "/>
<text text-anchor="middle" x="64" y="-27" font-family="Times,serif" font-size="10.00">rack &#45;&#45;cmd &#45;&#45;cmd ...</text>
</g>
<!-- CMD_SCRIPT -->
<g id="node2" class="node">
<title>CMD_SCRIPT</title>
<g id="a_node2"><a xlink:href="" target="_top" xlink:title="Script definition |&lt;i&gt; &#45;&#45;sript &#39;&#45;&#45;cmd &#45;&#45;cmd...&#39; ">
<polygon fill="none" stroke="red" points="164,-20 164,-58 291,-58 291,-20 164,-20"/>
<text text-anchor="middle" x="227.5" y="-46" font-family="Times,serif" font-size="10.00">Script definition</text>
<polyline fill="none" stroke="red" points="164,-39 291,-39 "/>
<text text-anchor="middle" x="227.5" y="-27" font-family="Times,serif" font-size="10.00">&#45;&#45;sript &#39;&#45;&#45;cmd &#45;&#45;cmd...&#39;</text>
</a>
</g>
</g>
<!-- CMD_INITIAL&#45;&gt;CMD_SCRIPT -->
<g id="edge1" class="edge">
<title>CMD_INITIAL:i&#45;&gt;CMD_SCRIPT:i</title>
<path fill="none" stroke="black" d="M128,-29C140,-29 145.25,-29 153.88,-29"/>
<polygon fill="black" stroke="black" points="154,-32.5 164,-29 154,-25.5 154,-32.5"/>
</g>
<!-- CMD_ACTIONS -->
<g id="node3" class="node">
<title>CMD_ACTIONS</title>
<g id="a_node3"><a xlink:href="productspage.html" target="_top" xlink:title="Basic commands (cmd...) and \n script triggering commands (CMD..) |&lt;i&gt;[ &#45;&#45;CMD1 &#45;&#45;cmd2 &#45;&#45;CMD3 &#45;&#45;CMD4 &#45;cmd5 ... ] ">
<polygon fill="none" stroke="red" points="327,-19.5 327,-68.5 567,-68.5 567,-19.5 327,-19.5"/>
<text text-anchor="middle" x="447" y="-56.5" font-family="Times,serif" font-size="10.00">Basic commands (cmd...) and </text>
<text text-anchor="middle" x="447" y="-45.5" font-family="Times,serif" font-size="10.00"> script triggering commands (CMD..)</text>
<polyline fill="none" stroke="red" points="327,-38.5 567,-38.5 "/>
<text text-anchor="middle" x="447" y="-26.5" font-family="Times,serif" font-size="10.00">[ &#45;&#45;CMD1 &#45;&#45;cmd2 &#45;&#45;CMD3 &#45;&#45;CMD4 &#45;cmd5 ... ]</text>
</a>
</g>
</g>
<!-- CMD_SCRIPT&#45;&gt;CMD_ACTIONS -->
<g id="edge2" class="edge">
<title>CMD_SCRIPT:i&#45;&gt;CMD_ACTIONS:i</title>
<path fill="none" stroke="black" d="M291,-29C303,-29 308.25,-29 316.88,-29"/>
<polygon fill="black" stroke="black" points="317,-32.5 327,-29 317,-25.5 317,-32.5"/>
</g>
<!-- CMD_FINAL -->
<g id="node4" class="node">
<title>CMD_FINAL</title>
<polygon fill="none" stroke="black" points="603,-20 603,-58 749,-58 749,-20 603,-20"/>
<text text-anchor="middle" x="676" y="-46" font-family="Times,serif" font-size="10.00">Common final commands</text>
<polyline fill="none" stroke="black" points="603,-39 749,-39 "/>
<text text-anchor="middle" x="676" y="-27" font-family="Times,serif" font-size="10.00">&#45;&#45;cmd &#45;&#45;cmd ...</text>
</g>
<!-- CMD_ACTIONS&#45;&gt;CMD_FINAL -->
<g id="edge3" class="edge">
<title>CMD_ACTIONS:i&#45;&gt;CMD_FINAL:i</title>
<path fill="none" stroke="black" d="M567,-29C579,-29 584.25,-29 592.88,-29"/>
<polygon fill="black" stroke="black" points="593,-32.5 603,-29 593,-25.5 593,-32.5"/>
</g>
</g>
</svg>
