<?xml version="1.0" encoding="UTF-8" standalone="no"?>
<!DOCTYPE svg PUBLIC "-//W3C//DTD SVG 1.1//EN"
 "http://www.w3.org/Graphics/SVG/1.1/DTD/svg11.dtd">
<!-- Generated by graphviz version 2.43.0 (0)
 -->
<!-- Title: example Pages: 1 -->
<!--zoomable 97 -->
<svg id="main" version="1.1" xmlns="http://www.w3.org/2000/svg" xmlns:xlink="http://www.w3.org/1999/xlink" xml:space="preserve" onload="init(evt)">
<style type="text/css"><![CDATA[
.edge:hover path { stroke: red; }
.edge:hover polygon { stroke: red; fill: red; }
]]></style>
<script type="text/javascript"><![CDATA[
var edges = document.getElementsByTagName('g');
if (edges && edges.length) {
  for (var i=0;i<edges.length;i++) {
    if (edges[i].id.substr(0,4)=='edge') {
      edges[i].setAttribute('class','edge');
    }
  }
}
]]></script>
        <defs>
                <circle id="rim" cx="0" cy="0" r="7"/>
                <circle id="rim2" cx="0" cy="0" r="3.5"/>
                <g id="zoomPlus">
                        <use xlink:href="#rim" fill="#404040">
                                <set attributeName="fill" to="#808080" begin="zoomplus.mouseover" end="zoomplus.mouseout"/>
                        </use>
                        <path d="M-4,0h8M0,-4v8" fill="none" stroke="white" stroke-width="1.5" pointer-events="none"/>
                </g>
                <g id="zoomMin">
                        <use xlink:href="#rim" fill="#404040">
                                <set attributeName="fill" to="#808080" begin="zoomminus.mouseover" end="zoomminus.mouseout"/>
                        </use>
                        <path d="M-4,0h8" fill="none" stroke="white" stroke-width="1.5" pointer-events="none"/>
                </g>
                <g id="dirArrow">
                        <path fill="none" stroke="white" stroke-width="1.5" d="M0,-3.0v7 M-2.5,-0.5L0,-3.0L2.5,-0.5"/>
                </g>
               <g id="resetDef">
                       <use xlink:href="#rim2" fill="#404040">
                               <set attributeName="fill" to="#808080" begin="reset.mouseover" end="reset.mouseout"/>
                       </use>
               </g>
        </defs>

<script type="text/javascript">
var viewWidth = 648;
var viewHeight = 97;
</script>
<script xlink:href="svgpan.js"/>
<svg id="graph" class="graph">
<g id="viewport">
<title>example</title>
<polygon fill="white" stroke="transparent" points="-4,4 -4,-107.5 739,-107.5 739,4 -4,4"/>
<text text-anchor="middle" x="367.5" y="-7.8" font-family="Times,serif" font-size="14.00">Distributed compositing, stage 1: tile creation</text>
<!-- init -->
<g id="node1" class="node">
<title>init</title>
<polygon fill="none" stroke="black" points="0,-23.5 0,-94.5 80,-94.5 80,-23.5 0,-23.5"/>
<text text-anchor="middle" x="40" y="-82.5" font-family="Times,serif" font-size="10.00">Initialisation</text>
<polyline fill="none" stroke="black" points="0,-75.5 80,-75.5 "/>
<text text-anchor="middle" x="40" y="-63.5" font-family="Times,serif" font-size="10.00">&#45;&#45;cMethod </text>
<text text-anchor="middle" x="40" y="-52.5" font-family="Times,serif" font-size="10.00"> &#45;&#45;cSize </text>
<text text-anchor="middle" x="40" y="-41.5" font-family="Times,serif" font-size="10.00"> &#45;&#45;cProj </text>
<text text-anchor="middle" x="40" y="-30.5" font-family="Times,serif" font-size="10.00"> &#45;&#45;cBBox</text>
</g>
<!-- filein -->
<g id="node2" class="node">
<title>filein</title>
<g id="a_node2"><a xlink:href="fileiopage.html" target="_top" xlink:title="&lt;i&gt;Load volume file">
<polygon fill="none" stroke="forestgreen" points="116,-67 116,-103 217,-103 217,-67 116,-67"/>
<text text-anchor="middle" x="166.5" y="-82.5" font-family="Times,serif" font-size="10.00">Load volume file</text>
</a>
</g>
</g>
<!-- init&#45;&gt;filein -->
<g id="edge1" class="edge">
<title>init:i&#45;&gt;filein:i</title>
<path fill="none" stroke="black" d="M80,-85C88.31,-85 97.07,-85 105.7,-85"/>
<polygon fill="black" stroke="black" points="105.73,-88.5 115.73,-85 105.73,-81.5 105.73,-88.5"/>
</g>
<!-- create -->
<g id="node3" class="node">
<title>create</title>
<g id="a_node3"><a xlink:href="productspage.html" target="_top" xlink:title="&lt;i&gt;Creation of meteorological product">
<polygon fill="none" stroke="blue" points="253,-67 253,-103 447,-103 447,-67 253,-67"/>
<text text-anchor="middle" x="350" y="-82.5" font-family="Times,serif" font-size="10.00">Creation of meteorological product</text>
</a>
</g>
</g>
<!-- filein&#45;&gt;create -->
<g id="edge2" class="edge">
<title>filein:i&#45;&gt;create:i</title>
<path fill="none" stroke="black" d="M217.13,-85C225.22,-85 233.85,-85 242.68,-85"/>
<polygon fill="black" stroke="black" points="242.72,-88.5 252.72,-85 242.72,-81.5 242.72,-88.5"/>
</g>
<!-- project -->
<g id="node4" class="node">
<title>project</title>
<polygon fill="none" stroke="black" points="483,-56 483,-94 622,-94 622,-56 483,-56"/>
<text text-anchor="middle" x="552.5" y="-82" font-family="Times,serif" font-size="10.00">Conversion to Cartesian</text>
<polyline fill="none" stroke="black" points="483,-75 622,-75 "/>
<text text-anchor="middle" x="552.5" y="-63" font-family="Times,serif" font-size="10.00">&#45;&#45;cCreateTile</text>
</g>
<!-- create&#45;&gt;project -->
<g id="edge3" class="edge">
<title>create:i&#45;&gt;project:i</title>
<path fill="none" stroke="black" d="M447.33,-85C455.87,-85 464.46,-85 472.86,-85"/>
<polygon fill="black" stroke="black" points="473,-88.5 483,-85 473,-81.5 473,-88.5"/>
</g>
<!-- fileout -->
<g id="node5" class="node">
<title>fileout</title>
<g id="a_node5"><a xlink:href="fileiopage.html" target="_top" xlink:title="&lt;i&gt;Saving tile | &#45;&#45;outputFile ">
<polygon fill="none" stroke="forestgreen" points="658,-56 658,-94 735,-94 735,-56 658,-56"/>
<text text-anchor="middle" x="696.5" y="-82" font-family="Times,serif" font-size="10.00">Saving tile</text>
<polyline fill="none" stroke="forestgreen" points="658,-75 735,-75 "/>
<text text-anchor="middle" x="696.5" y="-63" font-family="Times,serif" font-size="10.00">&#45;&#45;outputFile</text>
</a>
</g>
</g>
<!-- project&#45;&gt;fileout -->
<g id="edge4" class="edge">
<title>project:i&#45;&gt;fileout:i</title>
<path fill="none" stroke="black" d="M622,-85C634,-85 639.25,-85 647.88,-85"/>
<polygon fill="black" stroke="black" points="648,-88.5 658,-85 648,-81.5 648,-88.5"/>
</g>
</g>
</svg>
        <g id="navigator" transform="translate(0 0)" fill="#404254">
                <rect fill="#f2f5e9" fill-opacity="0.5" stroke="#606060" stroke-width=".5" x="0" y="0" width="60" height="60"/>
                <use id="zoomplus" xlink:href="#zoomPlus" x="17" y="9" onmousedown="handleZoom(evt,'in')"/>
                <use id="zoomminus" xlink:href="#zoomMin" x="42" y="9" onmousedown="handleZoom(evt,'out')"/>
                <use id="reset" xlink:href="#resetDef" x="30" y="36" onmousedown="handleReset()"/>
                <g id="arrowUp" xlink:href="#dirArrow" transform="translate(30 24)" onmousedown="handlePan(0,-1)">
                  <use xlink:href="#rim" fill="#404040">
                        <set attributeName="fill" to="#808080" begin="arrowUp.mouseover" end="arrowUp.mouseout"/>
                  </use>
                  <path fill="none" stroke="white" stroke-width="1.5" d="M0,-3.0v7 M-2.5,-0.5L0,-3.0L2.5,-0.5"/>
                </g>
                <g id="arrowRight" xlink:href="#dirArrow" transform="rotate(90) translate(36 -43)" onmousedown="handlePan(1,0)">
                  <use xlink:href="#rim" fill="#404040">
                        <set attributeName="fill" to="#808080" begin="arrowRight.mouseover" end="arrowRight.mouseout"/>
                  </use>
                  <path fill="none" stroke="white" stroke-width="1.5" d="M0,-3.0v7 M-2.5,-0.5L0,-3.0L2.5,-0.5"/>
                </g>
                <g id="arrowDown" xlink:href="#dirArrow" transform="rotate(180) translate(-30 -48)" onmousedown="handlePan(0,1)">
                  <use xlink:href="#rim" fill="#404040">
                        <set attributeName="fill" to="#808080" begin="arrowDown.mouseover" end="arrowDown.mouseout"/>
                  </use>
                  <path fill="none" stroke="white" stroke-width="1.5" d="M0,-3.0v7 M-2.5,-0.5L0,-3.0L2.5,-0.5"/>
                </g>
                <g id="arrowLeft" xlink:href="#dirArrow" transform="rotate(270) translate(-36 17)" onmousedown="handlePan(-1,0)">
                  <use xlink:href="#rim" fill="#404040">
                        <set attributeName="fill" to="#808080" begin="arrowLeft.mouseover" end="arrowLeft.mouseout"/>
                  </use>
                  <path fill="none" stroke="white" stroke-width="1.5" d="M0,-3.0v7 M-2.5,-0.5L0,-3.0L2.5,-0.5"/>
                </g>
        </g>
        <svg viewBox="0 0 15 15" width="100%" height="30px" preserveAspectRatio="xMaxYMin meet">
         <g id="arrow_out" transform="scale(0.3 0.3)">
          <a xlink:href="dot_inline_dotgraph_2_org.svg" target="_base">
           <rect id="button" ry="5" rx="5" y="6" x="6" height="38" width="38"
                fill="#f2f5e9" fill-opacity="0.5" stroke="#606060" stroke-width="1.0"/>
           <path id="arrow"
             d="M 11.500037,31.436501 C 11.940474,20.09759 22.043105,11.32322 32.158766,21.979434 L 37.068811,17.246167 C 37.068811,17.246167 37.088388,32 37.088388,32 L 22.160133,31.978069 C 22.160133,31.978069 26.997745,27.140456 26.997745,27.140456 C 18.528582,18.264221 13.291696,25.230495 11.500037,31.436501 z"
             style="fill:#404040;"/>
          </a>
         </g>
        </svg>
</svg>
