<?xml version="1.0" encoding="UTF-8" standalone="no"?>
<!DOCTYPE svg PUBLIC "-//W3C//DTD SVG 1.1//EN"
 "http://www.w3.org/Graphics/SVG/1.1/DTD/svg11.dtd">
<!-- Generated by graphviz version 2.43.0 (0)
 -->
<!-- Title: example Pages: 1 -->
<!--zoomable 116 -->
<svg id="main" version="1.1" xmlns="http://www.w3.org/2000/svg" xmlns:xlink="http://www.w3.org/1999/xlink" xml:space="preserve" onload="init(evt)">
<style type="text/css"><![CDATA[
.edge:hover path { stroke: red; }
.edge:hover polygon { stroke: red; fill: red; }
]]></style>
<script type="text/javascript"><![CDATA[
var edges = document.getElementsByTagName('g');
if (edges && edges.length) {
  for (var i=0;i<edges.length;i++) {
    if (edges[i].id.substr(0,4)=='edge') {
      edges[i].setAttribute('class','edge');
    }
  }
}
]]></script>
        <defs>
                <circle id="rim" cx="0" cy="0" r="7"/>
                <circle id="rim2" cx="0" cy="0" r="3.5"/>
                <g id="zoomPlus">
                        <use xlink:href="#rim" fill="#404040">
                                <set attributeName="fill" to="#808080" begin="zoomplus.mouseover" end="zoomplus.mouseout"/>
                        </use>
                        <path d="M-4,0h8M0,-4v8" fill="none" stroke="white" stroke-width="1.5" pointer-events="none"/>
                </g>
                <g id="zoomMin">
                        <use xlink:href="#rim" fill="#404040">
                                <set attributeName="fill" to="#808080" begin="zoomminus.mouseover" end="zoomminus.mouseout"/>
                        </use>
                        <path d="M-4,0h8" fill="none" stroke="white" stroke-width="1.5" pointer-events="none"/>
                </g>
                <g id="dirArrow">
                        <path fill="none" stroke="white" stroke-width="1.5" d="M0,-3.0v7 M-2.5,-0.5L0,-3.0L2.5,-0.5"/>
                </g>
               <g id="resetDef">
                       <use xlink:href="#rim2" fill="#404040">
                               <set attributeName="fill" to="#808080" begin="reset.mouseover" end="reset.mouseout"/>
                       </use>
               </g>
        </defs>

<script type="text/javascript">
var viewWidth = 648;
var viewHeight = 116;
</script>
<script xlink:href="svgpan.js"/>
<svg id="graph" class="graph">
<g id="viewport">
<title>example</title>
<polygon fill="white" stroke="transparent" points="-4,4 -4,-155 885.6,-155 885.6,4 -4,4"/>
<text text-anchor="middle" x="440.8" y="-7.8" font-family="Times,serif" font-size="14.00">Control flow in direct compositing</text>
<!-- init -->
<g id="node1" class="node">
<title>init</title>
<polygon fill="none" stroke="black" points="0,-23.5 0,-94.5 80,-94.5 80,-23.5 0,-23.5"/>
<text text-anchor="middle" x="40" y="-82.5" font-family="Times,serif" font-size="10.00">Initialisation</text>
<polyline fill="none" stroke="black" points="0,-75.5 80,-75.5 "/>
<text text-anchor="middle" x="40" y="-63.5" font-family="Times,serif" font-size="10.00">&#45;&#45;cProj </text>
<text text-anchor="middle" x="40" y="-52.5" font-family="Times,serif" font-size="10.00"> &#45;&#45;cBBox </text>
<text text-anchor="middle" x="40" y="-41.5" font-family="Times,serif" font-size="10.00"> &#45;&#45;cSize </text>
<text text-anchor="middle" x="40" y="-30.5" font-family="Times,serif" font-size="10.00"> &#45;&#45;cMethod</text>
</g>
<!-- filein -->
<g id="node2" class="node">
<title>filein</title>
<g id="a_node2"><a xlink:href="fileiopage.html" target="_top" xlink:title="&lt;i&gt;Read volume file">
<polygon fill="none" stroke="forestgreen" points="117,-67 117,-103 219,-103 219,-67 117,-67"/>
<text text-anchor="middle" x="168" y="-82.5" font-family="Times,serif" font-size="10.00">Read volume file</text>
</a>
</g>
</g>
<!-- init&#45;&gt;filein -->
<g id="edge1" class="edge">
<title>init:i&#45;&gt;filein:i</title>
<path fill="none" stroke="black" d="M80,-85C88.66,-85 97.8,-85 106.78,-85"/>
<polygon fill="black" stroke="black" points="106.81,-88.5 116.81,-85 106.81,-81.5 106.81,-88.5"/>
</g>
<!-- create -->
<g id="node3" class="node">
<title>create</title>
<g id="a_node3"><a xlink:href="productspage.html" target="_top" xlink:title="&lt;i&gt;Creation of meteorological product">
<polygon fill="none" stroke="blue" points="256,-112 256,-148 450,-148 450,-112 256,-112"/>
<text text-anchor="middle" x="353" y="-127.5" font-family="Times,serif" font-size="10.00">Creation of meteorological product</text>
</a>
</g>
</g>
<!-- filein&#45;&gt;create -->
<g id="edge2" class="edge">
<title>filein:i&#45;&gt;create:i</title>
<path fill="none" stroke="black" d="M219.38,-101.84C227.99,-104.45 237.01,-107.05 245.85,-109.4"/>
<polygon fill="black" stroke="black" points="245.16,-112.84 255.72,-111.93 246.9,-106.06 245.16,-112.84"/>
</g>
<!-- add -->
<g id="node4" class="node">
<title>add</title>
<polygon fill="none" stroke="black" points="595,-101.5 595,-150.5 704,-150.5 704,-101.5 595,-101.5"/>
<text text-anchor="middle" x="649.5" y="-138.5" font-family="Times,serif" font-size="10.00">Update composite</text>
<polyline fill="none" stroke="black" points="595,-131.5 704,-131.5 "/>
<text text-anchor="middle" x="649.5" y="-119.5" font-family="Times,serif" font-size="10.00">&#45;&#45;cAdd </text>
<text text-anchor="middle" x="649.5" y="-108.5" font-family="Times,serif" font-size="10.00"> &#45;&#45;cAddWeighted</text>
</g>
<!-- create&#45;&gt;add -->
<g id="edge3" class="edge">
<title>create&#45;&gt;add:i</title>
<path fill="none" stroke="black" d="M450.12,-136.4C491.14,-138.65 539.84,-140.69 584.86,-140.97"/>
<polygon fill="black" stroke="black" points="584.99,-144.47 595,-141 585.01,-137.47 584.99,-144.47"/>
</g>
<!-- isMore -->
<g id="node5" class="node">
<title>isMore</title>
<ellipse fill="black" stroke="black" cx="742.8" cy="-85" rx="1.8" ry="1.8"/>
</g>
<!-- add&#45;&gt;isMore -->
<g id="edge4" class="edge">
<title>add:i&#45;&gt;isMore</title>
<path fill="none" stroke="black" d="M704,-141C725.26,-141 735.36,-112.93 739.45,-96.54"/>
<polygon fill="black" stroke="black" points="742.95,-96.89 741.58,-86.38 736.1,-95.45 742.95,-96.89"/>
</g>
<!-- isMore&#45;&gt;filein -->
<g id="edge5" class="edge">
<title>isMore&#45;&gt;filein:i</title>
<path fill="none" stroke="black" d="M740.7,-85C718.71,-85 372.92,-85 229.55,-85"/>
<polygon fill="black" stroke="black" points="229.17,-81.5 219.17,-85 229.17,-88.5 229.17,-81.5"/>
<text text-anchor="middle" x="522.5" y="-88" font-family="Times,serif" font-size="10.00">repeat for each radar</text>
</g>
<!-- close -->
<g id="node6" class="node">
<title>close</title>
<polygon fill="none" stroke="black" points="781.6,-45.5 781.6,-94.5 881.6,-94.5 881.6,-45.5 781.6,-45.5"/>
<text text-anchor="middle" x="831.6" y="-82.5" font-family="Times,serif" font-size="10.00">Extraction</text>
<polyline fill="none" stroke="black" points="781.6,-75.5 881.6,-75.5 "/>
<text text-anchor="middle" x="831.6" y="-63.5" font-family="Times,serif" font-size="10.00">&#45;&#45;cExtract </text>
<text text-anchor="middle" x="831.6" y="-52.5" font-family="Times,serif" font-size="10.00"> &#45;o composite.h5</text>
</g>
<!-- isMore&#45;&gt;close -->
<g id="edge6" class="edge">
<title>isMore&#45;&gt;close:i</title>
<path fill="none" stroke="black" d="M744.74,-85C748.02,-85 759.48,-85 771.31,-85"/>
<polygon fill="black" stroke="black" points="771.6,-88.5 781.6,-85 771.6,-81.5 771.6,-88.5"/>
</g>
</g>
</svg>
        <g id="navigator" transform="translate(0 0)" fill="#404254">
                <rect fill="#f2f5e9" fill-opacity="0.5" stroke="#606060" stroke-width=".5" x="0" y="0" width="60" height="60"/>
                <use id="zoomplus" xlink:href="#zoomPlus" x="17" y="9" onmousedown="handleZoom(evt,'in')"/>
                <use id="zoomminus" xlink:href="#zoomMin" x="42" y="9" onmousedown="handleZoom(evt,'out')"/>
                <use id="reset" xlink:href="#resetDef" x="30" y="36" onmousedown="handleReset()"/>
                <g id="arrowUp" xlink:href="#dirArrow" transform="translate(30 24)" onmousedown="handlePan(0,-1)">
                  <use xlink:href="#rim" fill="#404040">
                        <set attributeName="fill" to="#808080" begin="arrowUp.mouseover" end="arrowUp.mouseout"/>
                  </use>
                  <path fill="none" stroke="white" stroke-width="1.5" d="M0,-3.0v7 M-2.5,-0.5L0,-3.0L2.5,-0.5"/>
                </g>
                <g id="arrowRight" xlink:href="#dirArrow" transform="rotate(90) translate(36 -43)" onmousedown="handlePan(1,0)">
                  <use xlink:href="#rim" fill="#404040">
                        <set attributeName="fill" to="#808080" begin="arrowRight.mouseover" end="arrowRight.mouseout"/>
                  </use>
                  <path fill="none" stroke="white" stroke-width="1.5" d="M0,-3.0v7 M-2.5,-0.5L0,-3.0L2.5,-0.5"/>
                </g>
                <g id="arrowDown" xlink:href="#dirArrow" transform="rotate(180) translate(-30 -48)" onmousedown="handlePan(0,1)">
                  <use xlink:href="#rim" fill="#404040">
                        <set attributeName="fill" to="#808080" begin="arrowDown.mouseover" end="arrowDown.mouseout"/>
                  </use>
                  <path fill="none" stroke="white" stroke-width="1.5" d="M0,-3.0v7 M-2.5,-0.5L0,-3.0L2.5,-0.5"/>
                </g>
                <g id="arrowLeft" xlink:href="#dirArrow" transform="rotate(270) translate(-36 17)" onmousedown="handlePan(-1,0)">
                  <use xlink:href="#rim" fill="#404040">
                        <set attributeName="fill" to="#808080" begin="arrowLeft.mouseover" end="arrowLeft.mouseout"/>
                  </use>
                  <path fill="none" stroke="white" stroke-width="1.5" d="M0,-3.0v7 M-2.5,-0.5L0,-3.0L2.5,-0.5"/>
                </g>
        </g>
        <svg viewBox="0 0 15 15" width="100%" height="30px" preserveAspectRatio="xMaxYMin meet">
         <g id="arrow_out" transform="scale(0.3 0.3)">
          <a xlink:href="dot_inline_dotgraph_1_org.svg" target="_base">
           <rect id="button" ry="5" rx="5" y="6" x="6" height="38" width="38"
                fill="#f2f5e9" fill-opacity="0.5" stroke="#606060" stroke-width="1.0"/>
           <path id="arrow"
             d="M 11.500037,31.436501 C 11.940474,20.09759 22.043105,11.32322 32.158766,21.979434 L 37.068811,17.246167 C 37.068811,17.246167 37.088388,32 37.088388,32 L 22.160133,31.978069 C 22.160133,31.978069 26.997745,27.140456 26.997745,27.140456 C 18.528582,18.264221 13.291696,25.230495 11.500037,31.436501 z"
             style="fill:#404040;"/>
          </a>
         </g>
        </svg>
</svg>
