<?xml version="1.0" encoding="UTF-8" standalone="no"?>
<!DOCTYPE svg PUBLIC "-//W3C//DTD SVG 1.1//EN"
 "http://www.w3.org/Graphics/SVG/1.1/DTD/svg11.dtd">
<!-- Generated by graphviz version 2.43.0 (0)
 -->
<!-- Title: rainRateDP Pages: 1 -->
<svg width="308pt" height="360pt"
 viewBox="0.00 0.00 307.56 360.00" xmlns="http://www.w3.org/2000/svg" xmlns:xlink="http://www.w3.org/1999/xlink">
<g id="graph0" class="graph" transform="scale(1.06 1.06) rotate(0) translate(4 377)">
<title>rainRateDP</title>
<polygon fill="white" stroke="transparent" points="-4,4 -4,-377 321.5,-377 321.5,4 -4,4"/>
<!-- metfilter -->
<g id="node1" class="node">
<title>metfilter</title>
<polygon fill="none" stroke="black" points="0,-336.5 0,-372.5 137,-372.5 137,-336.5 0,-336.5"/>
<text text-anchor="middle" x="68.5" y="-352" font-family="Times,serif" font-size="10.00">rhohv greater than 0.85</text>
</g>
<!-- nonmet -->
<g id="node2" class="node">
<title>nonmet</title>
<polygon fill="none" stroke="black" points="23.5,-252.5 23.5,-288.5 77.5,-288.5 77.5,-252.5 23.5,-252.5"/>
<text text-anchor="middle" x="50.5" y="-268" font-family="Times,serif" font-size="10.00">R=0</text>
</g>
<!-- metfilter&#45;&gt;nonmet -->
<g id="edge1" class="edge">
<title>metfilter&#45;&gt;nonmet</title>
<path fill="none" stroke="black" d="M64.68,-336.11C62.28,-325.16 59.13,-310.81 56.41,-298.42"/>
<polygon fill="black" stroke="black" points="59.81,-297.6 54.25,-288.58 52.98,-299.1 59.81,-297.6"/>
<text text-anchor="middle" x="68" y="-310" font-family="Times,serif" font-size="10.00">no</text>
</g>
<!-- hailice -->
<g id="node3" class="node">
<title>hailice</title>
<polygon fill="none" stroke="black" points="96,-252.5 96,-288.5 213,-288.5 213,-252.5 96,-252.5"/>
<text text-anchor="middle" x="154.5" y="-268" font-family="Times,serif" font-size="10.00">dbz greater than 50</text>
</g>
<!-- metfilter&#45;&gt;hailice -->
<g id="edge2" class="edge">
<title>metfilter&#45;&gt;hailice</title>
<path fill="none" stroke="black" d="M86.74,-336.11C99.02,-324.4 115.39,-308.79 128.97,-295.85"/>
<polygon fill="black" stroke="black" points="131.76,-298.02 136.58,-288.58 126.93,-292.95 131.76,-298.02"/>
<text text-anchor="middle" x="126.5" y="-310" font-family="Times,serif" font-size="10.00">yes</text>
</g>
<!-- hailicezdr -->
<g id="node4" class="node">
<title>hailicezdr</title>
<polygon fill="none" stroke="black" points="63.5,-84.5 63.5,-120.5 181.5,-120.5 181.5,-84.5 63.5,-84.5"/>
<text text-anchor="middle" x="122.5" y="-100" font-family="Times,serif" font-size="10.00">zdr greater than 0.1</text>
</g>
<!-- hailice&#45;&gt;hailicezdr -->
<g id="edge4" class="edge">
<title>hailice&#45;&gt;hailicezdr</title>
<path fill="none" stroke="black" d="M147.03,-252.33C141.79,-239.53 135.11,-221.49 131.5,-205 126.08,-180.24 123.91,-151.41 123.05,-130.82"/>
<polygon fill="black" stroke="black" points="126.54,-130.46 122.7,-120.58 119.54,-130.69 126.54,-130.46"/>
<text text-anchor="middle" x="140.5" y="-184" font-family="Times,serif" font-size="10.00">yes</text>
</g>
<!-- heavyrain -->
<g id="node7" class="node">
<title>heavyrain</title>
<polygon fill="none" stroke="black" points="159,-168.5 159,-204.5 280,-204.5 280,-168.5 159,-168.5"/>
<text text-anchor="middle" x="219.5" y="-189.5" font-family="Times,serif" font-size="10.00">dbz greater than 20</text>
<text text-anchor="middle" x="219.5" y="-178.5" font-family="Times,serif" font-size="10.00">kdp greater than 0.2</text>
</g>
<!-- hailice&#45;&gt;heavyrain -->
<g id="edge3" class="edge">
<title>hailice&#45;&gt;heavyrain</title>
<path fill="none" stroke="black" d="M168.28,-252.11C177.39,-240.62 189.48,-225.37 199.62,-212.57"/>
<polygon fill="black" stroke="black" points="202.49,-214.59 205.96,-204.58 197,-210.25 202.49,-214.59"/>
<text text-anchor="middle" x="198" y="-226" font-family="Times,serif" font-size="10.00">no</text>
</g>
<!-- hailice3 -->
<g id="node5" class="node">
<title>hailice3</title>
<polygon fill="none" stroke="black" points="31.5,-0.5 31.5,-36.5 85.5,-36.5 85.5,-0.5 31.5,-0.5"/>
<text text-anchor="middle" x="58.5" y="-16" font-family="Times,serif" font-size="10.00">Eq. 3</text>
</g>
<!-- hailicezdr&#45;&gt;hailice3 -->
<g id="edge5" class="edge">
<title>hailicezdr&#45;&gt;hailice3</title>
<path fill="none" stroke="black" d="M108.93,-84.11C99.96,-72.62 88.06,-57.37 78.07,-44.57"/>
<polygon fill="black" stroke="black" points="80.75,-42.31 71.83,-36.58 75.23,-46.62 80.75,-42.31"/>
<text text-anchor="middle" x="101" y="-58" font-family="Times,serif" font-size="10.00">no</text>
</g>
<!-- hailice4 -->
<g id="node6" class="node">
<title>hailice4</title>
<polygon fill="none" stroke="black" points="103.5,-0.5 103.5,-36.5 157.5,-36.5 157.5,-0.5 103.5,-0.5"/>
<text text-anchor="middle" x="130.5" y="-16" font-family="Times,serif" font-size="10.00">Eq. 4</text>
</g>
<!-- hailicezdr&#45;&gt;hailice4 -->
<g id="edge6" class="edge">
<title>hailicezdr&#45;&gt;hailice4</title>
<path fill="none" stroke="black" d="M124.2,-84.11C125.25,-73.27 126.64,-59.1 127.84,-46.79"/>
<polygon fill="black" stroke="black" points="131.35,-46.88 128.83,-36.58 124.38,-46.2 131.35,-46.88"/>
<text text-anchor="middle" x="136.5" y="-58" font-family="Times,serif" font-size="10.00">yes</text>
</g>
<!-- heavyrain&#45;&gt;hailicezdr -->
<g id="edge8" class="edge">
<title>heavyrain&#45;&gt;hailicezdr</title>
<path fill="none" stroke="black" d="M198.93,-168.11C184.82,-156.18 165.92,-140.2 150.44,-127.12"/>
<polygon fill="black" stroke="black" points="152.61,-124.37 142.71,-120.58 148.09,-129.71 152.61,-124.37"/>
<text text-anchor="middle" x="186.5" y="-142" font-family="Times,serif" font-size="10.00">yes</text>
</g>
<!-- heavyrainzdr -->
<g id="node8" class="node">
<title>heavyrainzdr</title>
<polygon fill="none" stroke="black" points="199.5,-84.5 199.5,-120.5 253.5,-120.5 253.5,-84.5 199.5,-84.5"/>
<text text-anchor="middle" x="226.5" y="-100" font-family="Times,serif" font-size="10.00">zdr 0.1</text>
</g>
<!-- heavyrain&#45;&gt;heavyrainzdr -->
<g id="edge7" class="edge">
<title>heavyrain&#45;&gt;heavyrainzdr</title>
<path fill="none" stroke="black" d="M220.98,-168.11C221.91,-157.27 223.12,-143.1 224.17,-130.79"/>
<polygon fill="black" stroke="black" points="227.68,-130.85 225.04,-120.58 220.7,-130.25 227.68,-130.85"/>
<text text-anchor="middle" x="230" y="-142" font-family="Times,serif" font-size="10.00">no</text>
</g>
<!-- heavyrain2 -->
<g id="node9" class="node">
<title>heavyrain2</title>
<polygon fill="none" stroke="black" points="191.5,-0.5 191.5,-36.5 245.5,-36.5 245.5,-0.5 191.5,-0.5"/>
<text text-anchor="middle" x="218.5" y="-16" font-family="Times,serif" font-size="10.00">Eq. 2</text>
</g>
<!-- heavyrainzdr&#45;&gt;heavyrain2 -->
<g id="edge10" class="edge">
<title>heavyrainzdr&#45;&gt;heavyrain2</title>
<path fill="none" stroke="black" d="M224.8,-84.11C223.75,-73.27 222.36,-59.1 221.16,-46.79"/>
<polygon fill="black" stroke="black" points="224.62,-46.2 220.17,-36.58 217.65,-46.88 224.62,-46.2"/>
<text text-anchor="middle" x="232.5" y="-58" font-family="Times,serif" font-size="10.00">yes</text>
</g>
<!-- heavyrain1 -->
<g id="node10" class="node">
<title>heavyrain1</title>
<polygon fill="none" stroke="black" points="263.5,-0.5 263.5,-36.5 317.5,-36.5 317.5,-0.5 263.5,-0.5"/>
<text text-anchor="middle" x="290.5" y="-16" font-family="Times,serif" font-size="10.00">Eq. 1</text>
</g>
<!-- heavyrainzdr&#45;&gt;heavyrain1 -->
<g id="edge9" class="edge">
<title>heavyrainzdr&#45;&gt;heavyrain1</title>
<path fill="none" stroke="black" d="M240.07,-84.11C249.04,-72.62 260.94,-57.37 270.93,-44.57"/>
<polygon fill="black" stroke="black" points="273.77,-46.62 277.17,-36.58 268.25,-42.31 273.77,-46.62"/>
<text text-anchor="middle" x="269" y="-58" font-family="Times,serif" font-size="10.00">no</text>
</g>
</g>
</svg>
