<?xml version="1.0" encoding="UTF-8" standalone="no"?>
<!DOCTYPE svg PUBLIC "-//W3C//DTD SVG 1.1//EN"
 "http://www.w3.org/Graphics/SVG/1.1/DTD/svg11.dtd">
<!-- Generated by graphviz version 2.43.0 (0)
 -->
<!-- Title: example Pages: 1 -->
<svg width="328pt" height="184pt"
 viewBox="0.00 0.00 328.00 184.00" xmlns="http://www.w3.org/2000/svg" xmlns:xlink="http://www.w3.org/1999/xlink">
<g id="graph0" class="graph" transform="scale(1 1) rotate(0) translate(4 180)">
<title>example</title>
<polygon fill="white" stroke="transparent" points="-4,4 -4,-180 324,-180 324,4 -4,4"/>
<text text-anchor="middle" x="160" y="-7.8" font-family="Times,serif" font-size="14.00">Compositing of motion fields</text>
<!-- RADAR1 -->
<g id="node1" class="node">
<title>RADAR1</title>
<polygon fill="none" stroke="forestgreen" points="0,-137.5 0,-175.5 106,-175.5 106,-137.5 0,-137.5"/>
<text text-anchor="middle" x="28" y="-154" font-family="Times,serif" font-size="10.00">Radar 1</text>
<polyline fill="none" stroke="forestgreen" points="56,-137.5 56,-175.5 "/>
<text text-anchor="middle" x="81" y="-163.5" font-family="Times,serif" font-size="10.00">AMVU</text>
<polyline fill="none" stroke="forestgreen" points="56,-156.5 106,-156.5 "/>
<text text-anchor="middle" x="81" y="-144.5" font-family="Times,serif" font-size="10.00">AMVV</text>
</g>
<!-- AMVU -->
<g id="node4" class="node">
<title>AMVU</title>
<g id="a_node4"><a xlink:href="compositespage.html" target="_top" xlink:title="Composite | &lt;i&gt; AMVU">
<polygon fill="none" stroke="forestgreen" points="142,-118.5 142,-156.5 213,-156.5 213,-118.5 142,-118.5"/>
<text text-anchor="middle" x="177.5" y="-144.5" font-family="Times,serif" font-size="10.00">Composite</text>
<polyline fill="none" stroke="forestgreen" points="142,-137.5 213,-137.5 "/>
<text text-anchor="middle" x="177.5" y="-125.5" font-family="Times,serif" font-size="10.00">AMVU</text>
</a>
</g>
</g>
<!-- RADAR1&#45;&gt;AMVU -->
<g id="edge1" class="edge">
<title>RADAR1:u&#45;&gt;AMVU:i</title>
<path fill="none" stroke="black" d="M106,-166.5C125.35,-166.5 121.31,-140.26 132.25,-130.83"/>
<polygon fill="black" stroke="black" points="133.66,-134.04 142,-127.5 131.41,-127.41 133.66,-134.04"/>
</g>
<!-- AMVV -->
<g id="node5" class="node">
<title>AMVV</title>
<g id="a_node5"><a xlink:href="compositespage.html" target="_top" xlink:title="Composite | &lt;i&gt; AMVV">
<polygon fill="none" stroke="forestgreen" points="142,-61.5 142,-99.5 213,-99.5 213,-61.5 142,-61.5"/>
<text text-anchor="middle" x="177.5" y="-87.5" font-family="Times,serif" font-size="10.00">Composite</text>
<polyline fill="none" stroke="forestgreen" points="142,-80.5 213,-80.5 "/>
<text text-anchor="middle" x="177.5" y="-68.5" font-family="Times,serif" font-size="10.00">AMVV</text>
</a>
</g>
</g>
<!-- RADAR1&#45;&gt;AMVV -->
<g id="edge2" class="edge">
<title>RADAR1:v&#45;&gt;AMVV:i</title>
<path fill="none" stroke="black" d="M106,-146.5C139.29,-146.5 112.19,-86.22 132.27,-73.03"/>
<polygon fill="black" stroke="black" points="133.2,-76.4 142,-70.5 131.44,-69.63 133.2,-76.4"/>
</g>
<!-- RADAR2 -->
<g id="node2" class="node">
<title>RADAR2</title>
<polygon fill="none" stroke="forestgreen" points="0,-80.5 0,-118.5 106,-118.5 106,-80.5 0,-80.5"/>
<text text-anchor="middle" x="28" y="-97" font-family="Times,serif" font-size="10.00">Radar 2</text>
<polyline fill="none" stroke="forestgreen" points="56,-80.5 56,-118.5 "/>
<text text-anchor="middle" x="81" y="-106.5" font-family="Times,serif" font-size="10.00">AMVU</text>
<polyline fill="none" stroke="forestgreen" points="56,-99.5 106,-99.5 "/>
<text text-anchor="middle" x="81" y="-87.5" font-family="Times,serif" font-size="10.00">AMVV</text>
</g>
<!-- RADAR2&#45;&gt;AMVU -->
<g id="edge3" class="edge">
<title>RADAR2:u&#45;&gt;AMVU:i</title>
<path fill="none" stroke="black" d="M106,-109.5C119.84,-109.5 123.1,-120.27 132.15,-125.15"/>
<polygon fill="black" stroke="black" points="131.46,-128.58 142,-127.5 133.09,-121.77 131.46,-128.58"/>
</g>
<!-- RADAR2&#45;&gt;AMVV -->
<g id="edge4" class="edge">
<title>RADAR2:v&#45;&gt;AMVV:i</title>
<path fill="none" stroke="black" d="M106,-89.5C119.99,-89.5 123.05,-78.13 132.09,-72.98"/>
<polygon fill="black" stroke="black" points="133.15,-76.33 142,-70.5 131.45,-69.54 133.15,-76.33"/>
</g>
<!-- RADAR3 -->
<g id="node3" class="node">
<title>RADAR3</title>
<polygon fill="none" stroke="forestgreen" points="0,-23.5 0,-61.5 106,-61.5 106,-23.5 0,-23.5"/>
<text text-anchor="middle" x="28" y="-40" font-family="Times,serif" font-size="10.00">Radar 3</text>
<polyline fill="none" stroke="forestgreen" points="56,-23.5 56,-61.5 "/>
<text text-anchor="middle" x="81" y="-49.5" font-family="Times,serif" font-size="10.00">AMVU</text>
<polyline fill="none" stroke="forestgreen" points="56,-42.5 106,-42.5 "/>
<text text-anchor="middle" x="81" y="-30.5" font-family="Times,serif" font-size="10.00">AMVV</text>
</g>
<!-- RADAR3&#45;&gt;AMVU -->
<g id="edge5" class="edge">
<title>RADAR3:u&#45;&gt;AMVU:i</title>
<path fill="none" stroke="black" d="M106,-52.5C138.79,-52.5 112.66,-111.47 132.1,-124.83"/>
<polygon fill="black" stroke="black" points="131.43,-128.28 142,-127.5 133.26,-121.52 131.43,-128.28"/>
</g>
<!-- RADAR3&#45;&gt;AMVV -->
<g id="edge6" class="edge">
<title>RADAR3:v&#45;&gt;AMVV:i</title>
<path fill="none" stroke="black" d="M106,-32.5C125.08,-32.5 121.43,-58.07 132.34,-67.26"/>
<polygon fill="black" stroke="black" points="131.41,-70.64 142,-70.5 133.63,-64 131.41,-70.64"/>
</g>
<!-- COMPOSITE -->
<g id="node6" class="node">
<title>COMPOSITE</title>
<polygon fill="none" stroke="black" points="249,-80 249,-137 320,-137 320,-80 249,-80"/>
<text text-anchor="middle" x="284.5" y="-125" font-family="Times,serif" font-size="10.00">Composite</text>
<polyline fill="none" stroke="black" points="249,-118 320,-118 "/>
<text text-anchor="middle" x="284.5" y="-106" font-family="Times,serif" font-size="10.00">AMVU</text>
<polyline fill="none" stroke="black" points="249,-99 320,-99 "/>
<text text-anchor="middle" x="284.5" y="-87" font-family="Times,serif" font-size="10.00">AMVV</text>
</g>
<!-- AMVU&#45;&gt;COMPOSITE -->
<g id="edge7" class="edge">
<title>AMVU:i&#45;&gt;COMPOSITE:u</title>
<path fill="none" stroke="black" d="M213,-127.5C226.99,-127.5 230.05,-116.13 239.09,-110.98"/>
<polygon fill="black" stroke="black" points="240.15,-114.33 249,-108.5 238.45,-107.54 240.15,-114.33"/>
</g>
<!-- AMVV&#45;&gt;COMPOSITE -->
<g id="edge8" class="edge">
<title>AMVV:i&#45;&gt;COMPOSITE:v</title>
<path fill="none" stroke="black" d="M213,-70.5C226.99,-70.5 230.05,-81.87 239.09,-87.02"/>
<polygon fill="black" stroke="black" points="238.45,-90.46 249,-89.5 240.15,-83.67 238.45,-90.46"/>
</g>
</g>
</svg>
