<?xml version="1.0" encoding="UTF-8" standalone="no"?>
<!DOCTYPE svg PUBLIC "-//W3C//DTD SVG 1.1//EN"
 "http://www.w3.org/Graphics/SVG/1.1/DTD/svg11.dtd">
<!-- Generated by graphviz version 2.43.0 (0)
 -->
<!-- Title: example Pages: 1 -->
<svg width="648pt" height="97pt"
 viewBox="0.00 0.00 648.00 97.24" xmlns="http://www.w3.org/2000/svg" xmlns:xlink="http://www.w3.org/1999/xlink">
<g id="graph0" class="graph" transform="scale(1.15 1.15) rotate(0) translate(4 107.5)">
<title>example</title>
<polygon fill="white" stroke="transparent" points="-4,4 -4,-107.5 739,-107.5 739,4 -4,4"/>
<text text-anchor="middle" x="367.5" y="-7.8" font-family="Times,serif" font-size="14.00">Distributed compositing, stage 1: tile creation</text>
<!-- init -->
<g id="node1" class="node">
<title>init</title>
<polygon fill="none" stroke="black" points="0,-23.5 0,-94.5 80,-94.5 80,-23.5 0,-23.5"/>
<text text-anchor="middle" x="40" y="-82.5" font-family="Times,serif" font-size="10.00">Initialisation</text>
<polyline fill="none" stroke="black" points="0,-75.5 80,-75.5 "/>
<text text-anchor="middle" x="40" y="-63.5" font-family="Times,serif" font-size="10.00">&#45;&#45;cMethod </text>
<text text-anchor="middle" x="40" y="-52.5" font-family="Times,serif" font-size="10.00"> &#45;&#45;cSize </text>
<text text-anchor="middle" x="40" y="-41.5" font-family="Times,serif" font-size="10.00"> &#45;&#45;cProj </text>
<text text-anchor="middle" x="40" y="-30.5" font-family="Times,serif" font-size="10.00"> &#45;&#45;cBBox</text>
</g>
<!-- filein -->
<g id="node2" class="node">
<title>filein</title>
<g id="a_node2"><a xlink:href="fileiopage.html" target="_top" xlink:title="&lt;i&gt;Load volume file">
<polygon fill="none" stroke="forestgreen" points="116,-67 116,-103 217,-103 217,-67 116,-67"/>
<text text-anchor="middle" x="166.5" y="-82.5" font-family="Times,serif" font-size="10.00">Load volume file</text>
</a>
</g>
</g>
<!-- init&#45;&gt;filein -->
<g id="edge1" class="edge">
<title>init:i&#45;&gt;filein:i</title>
<path fill="none" stroke="black" d="M80,-85C88.31,-85 97.07,-85 105.7,-85"/>
<polygon fill="black" stroke="black" points="105.73,-88.5 115.73,-85 105.73,-81.5 105.73,-88.5"/>
</g>
<!-- create -->
<g id="node3" class="node">
<title>create</title>
<g id="a_node3"><a xlink:href="productspage.html" target="_top" xlink:title="&lt;i&gt;Creation of meteorological product">
<polygon fill="none" stroke="blue" points="253,-67 253,-103 447,-103 447,-67 253,-67"/>
<text text-anchor="middle" x="350" y="-82.5" font-family="Times,serif" font-size="10.00">Creation of meteorological product</text>
</a>
</g>
</g>
<!-- filein&#45;&gt;create -->
<g id="edge2" class="edge">
<title>filein:i&#45;&gt;create:i</title>
<path fill="none" stroke="black" d="M217.13,-85C225.22,-85 233.85,-85 242.68,-85"/>
<polygon fill="black" stroke="black" points="242.72,-88.5 252.72,-85 242.72,-81.5 242.72,-88.5"/>
</g>
<!-- project -->
<g id="node4" class="node">
<title>project</title>
<polygon fill="none" stroke="black" points="483,-56 483,-94 622,-94 622,-56 483,-56"/>
<text text-anchor="middle" x="552.5" y="-82" font-family="Times,serif" font-size="10.00">Conversion to Cartesian</text>
<polyline fill="none" stroke="black" points="483,-75 622,-75 "/>
<text text-anchor="middle" x="552.5" y="-63" font-family="Times,serif" font-size="10.00">&#45;&#45;cCreateTile</text>
</g>
<!-- create&#45;&gt;project -->
<g id="edge3" class="edge">
<title>create:i&#45;&gt;project:i</title>
<path fill="none" stroke="black" d="M447.33,-85C455.87,-85 464.46,-85 472.86,-85"/>
<polygon fill="black" stroke="black" points="473,-88.5 483,-85 473,-81.5 473,-88.5"/>
</g>
<!-- fileout -->
<g id="node5" class="node">
<title>fileout</title>
<g id="a_node5"><a xlink:href="fileiopage.html" target="_top" xlink:title="&lt;i&gt;Saving tile | &#45;&#45;outputFile ">
<polygon fill="none" stroke="forestgreen" points="658,-56 658,-94 735,-94 735,-56 658,-56"/>
<text text-anchor="middle" x="696.5" y="-82" font-family="Times,serif" font-size="10.00">Saving tile</text>
<polyline fill="none" stroke="forestgreen" points="658,-75 735,-75 "/>
<text text-anchor="middle" x="696.5" y="-63" font-family="Times,serif" font-size="10.00">&#45;&#45;outputFile</text>
</a>
</g>
</g>
<!-- project&#45;&gt;fileout -->
<g id="edge4" class="edge">
<title>project:i&#45;&gt;fileout:i</title>
<path fill="none" stroke="black" d="M622,-85C634,-85 639.25,-85 647.88,-85"/>
<polygon fill="black" stroke="black" points="648,-88.5 658,-85 648,-81.5 648,-88.5"/>
</g>
</g>
</svg>
