<?xml version="1.0" encoding="UTF-8" standalone="no"?>
<!DOCTYPE svg PUBLIC "-//W3C//DTD SVG 1.1//EN"
 "http://www.w3.org/Graphics/SVG/1.1/DTD/svg11.dtd">
<!-- Generated by graphviz version 2.43.0 (0)
 -->
<!-- Title: parallel1 Pages: 1 -->
<!--zoomable 77 -->
<svg id="main" version="1.1" xmlns="http://www.w3.org/2000/svg" xmlns:xlink="http://www.w3.org/1999/xlink" xml:space="preserve" onload="init(evt)">
<style type="text/css"><![CDATA[
.edge:hover path { stroke: red; }
.edge:hover polygon { stroke: red; fill: red; }
]]></style>
<script type="text/javascript"><![CDATA[
var edges = document.getElementsByTagName('g');
if (edges && edges.length) {
  for (var i=0;i<edges.length;i++) {
    if (edges[i].id.substr(0,4)=='edge') {
      edges[i].setAttribute('class','edge');
    }
  }
}
]]></script>
        <defs>
                <circle id="rim" cx="0" cy="0" r="7"/>
                <circle id="rim2" cx="0" cy="0" r="3.5"/>
                <g id="zoomPlus">
                        <use xlink:href="#rim" fill="#404040">
                                <set attributeName="fill" to="#808080" begin="zoomplus.mouseover" end="zoomplus.mouseout"/>
                        </use>
                        <path d="M-4,0h8M0,-4v8" fill="none" stroke="white" stroke-width="1.5" pointer-events="none"/>
                </g>
                <g id="zoomMin">
                        <use xlink:href="#rim" fill="#404040">
                                <set attributeName="fill" to="#808080" begin="zoomminus.mouseover" end="zoomminus.mouseout"/>
                        </use>
                        <path d="M-4,0h8" fill="none" stroke="white" stroke-width="1.5" pointer-events="none"/>
                </g>
                <g id="dirArrow">
                        <path fill="none" stroke="white" stroke-width="1.5" d="M0,-3.0v7 M-2.5,-0.5L0,-3.0L2.5,-0.5"/>
                </g>
               <g id="resetDef">
                       <use xlink:href="#rim2" fill="#404040">
                               <set attributeName="fill" to="#808080" begin="reset.mouseover" end="reset.mouseout"/>
                       </use>
               </g>
        </defs>

<script type="text/javascript">
var viewWidth = 757;
var viewHeight = 77;
</script>
<script xlink:href="svgpan.js"/>
<svg id="graph" class="graph">
<g id="viewport">
<title>parallel1</title>
<polygon fill="white" stroke="transparent" points="-4,4 -4,-73 753,-73 753,4 -4,4"/>
<text text-anchor="middle" x="374.5" y="-7" font-family="Times,serif" font-size="10.00">Parallel processing &#45;&#45; Command line structure</text>
<!-- CMD_INITIAL -->
<g id="node1" class="node">
<title>CMD_INITIAL</title>
<polygon fill="none" stroke="black" points="0,-20 0,-58 128,-58 128,-20 0,-20"/>
<text text-anchor="middle" x="64" y="-46" font-family="Times,serif" font-size="10.00">Common initialisation</text>
<polyline fill="none" stroke="black" points="0,-39 128,-39 "/>
<text text-anchor="middle" x="64" y="-27" font-family="Times,serif" font-size="10.00">rack &#45;&#45;cmd &#45;&#45;cmd ...</text>
</g>
<!-- CMD_SCRIPT -->
<g id="node2" class="node">
<title>CMD_SCRIPT</title>
<g id="a_node2"><a xlink:href="" target="_top" xlink:title="Script definition |&lt;i&gt; &#45;&#45;sript &#39;&#45;&#45;cmd &#45;&#45;cmd...&#39; ">
<polygon fill="none" stroke="red" points="164,-20 164,-58 291,-58 291,-20 164,-20"/>
<text text-anchor="middle" x="227.5" y="-46" font-family="Times,serif" font-size="10.00">Script definition</text>
<polyline fill="none" stroke="red" points="164,-39 291,-39 "/>
<text text-anchor="middle" x="227.5" y="-27" font-family="Times,serif" font-size="10.00">&#45;&#45;sript &#39;&#45;&#45;cmd &#45;&#45;cmd...&#39;</text>
</a>
</g>
</g>
<!-- CMD_INITIAL&#45;&gt;CMD_SCRIPT -->
<g id="edge1" class="edge">
<title>CMD_INITIAL:i&#45;&gt;CMD_SCRIPT:i</title>
<path fill="none" stroke="black" d="M128,-29C140,-29 145.25,-29 153.88,-29"/>
<polygon fill="black" stroke="black" points="154,-32.5 164,-29 154,-25.5 154,-32.5"/>
</g>
<!-- CMD_ACTIONS -->
<g id="node3" class="node">
<title>CMD_ACTIONS</title>
<g id="a_node3"><a xlink:href="productspage.html" target="_top" xlink:title="Basic commands (cmd...) and \n script triggering commands (CMD..) |&lt;i&gt;[ &#45;&#45;CMD1 &#45;&#45;cmd2 &#45;&#45;CMD3 &#45;&#45;CMD4 &#45;cmd5 ... ] ">
<polygon fill="none" stroke="red" points="327,-19.5 327,-68.5 567,-68.5 567,-19.5 327,-19.5"/>
<text text-anchor="middle" x="447" y="-56.5" font-family="Times,serif" font-size="10.00">Basic commands (cmd...) and </text>
<text text-anchor="middle" x="447" y="-45.5" font-family="Times,serif" font-size="10.00"> script triggering commands (CMD..)</text>
<polyline fill="none" stroke="red" points="327,-38.5 567,-38.5 "/>
<text text-anchor="middle" x="447" y="-26.5" font-family="Times,serif" font-size="10.00">[ &#45;&#45;CMD1 &#45;&#45;cmd2 &#45;&#45;CMD3 &#45;&#45;CMD4 &#45;cmd5 ... ]</text>
</a>
</g>
</g>
<!-- CMD_SCRIPT&#45;&gt;CMD_ACTIONS -->
<g id="edge2" class="edge">
<title>CMD_SCRIPT:i&#45;&gt;CMD_ACTIONS:i</title>
<path fill="none" stroke="black" d="M291,-29C303,-29 308.25,-29 316.88,-29"/>
<polygon fill="black" stroke="black" points="317,-32.5 327,-29 317,-25.5 317,-32.5"/>
</g>
<!-- CMD_FINAL -->
<g id="node4" class="node">
<title>CMD_FINAL</title>
<polygon fill="none" stroke="black" points="603,-20 603,-58 749,-58 749,-20 603,-20"/>
<text text-anchor="middle" x="676" y="-46" font-family="Times,serif" font-size="10.00">Common final commands</text>
<polyline fill="none" stroke="black" points="603,-39 749,-39 "/>
<text text-anchor="middle" x="676" y="-27" font-family="Times,serif" font-size="10.00">&#45;&#45;cmd &#45;&#45;cmd ...</text>
</g>
<!-- CMD_ACTIONS&#45;&gt;CMD_FINAL -->
<g id="edge3" class="edge">
<title>CMD_ACTIONS:i&#45;&gt;CMD_FINAL:i</title>
<path fill="none" stroke="black" d="M567,-29C579,-29 584.25,-29 592.88,-29"/>
<polygon fill="black" stroke="black" points="593,-32.5 603,-29 593,-25.5 593,-32.5"/>
</g>
</g>
</svg>
        <g id="navigator" transform="translate(0 0)" fill="#404254">
                <rect fill="#f2f5e9" fill-opacity="0.5" stroke="#606060" stroke-width=".5" x="0" y="0" width="60" height="60"/>
                <use id="zoomplus" xlink:href="#zoomPlus" x="17" y="9" onmousedown="handleZoom(evt,'in')"/>
                <use id="zoomminus" xlink:href="#zoomMin" x="42" y="9" onmousedown="handleZoom(evt,'out')"/>
                <use id="reset" xlink:href="#resetDef" x="30" y="36" onmousedown="handleReset()"/>
                <g id="arrowUp" xlink:href="#dirArrow" transform="translate(30 24)" onmousedown="handlePan(0,-1)">
                  <use xlink:href="#rim" fill="#404040">
                        <set attributeName="fill" to="#808080" begin="arrowUp.mouseover" end="arrowUp.mouseout"/>
                  </use>
                  <path fill="none" stroke="white" stroke-width="1.5" d="M0,-3.0v7 M-2.5,-0.5L0,-3.0L2.5,-0.5"/>
                </g>
                <g id="arrowRight" xlink:href="#dirArrow" transform="rotate(90) translate(36 -43)" onmousedown="handlePan(1,0)">
                  <use xlink:href="#rim" fill="#404040">
                        <set attributeName="fill" to="#808080" begin="arrowRight.mouseover" end="arrowRight.mouseout"/>
                  </use>
                  <path fill="none" stroke="white" stroke-width="1.5" d="M0,-3.0v7 M-2.5,-0.5L0,-3.0L2.5,-0.5"/>
                </g>
                <g id="arrowDown" xlink:href="#dirArrow" transform="rotate(180) translate(-30 -48)" onmousedown="handlePan(0,1)">
                  <use xlink:href="#rim" fill="#404040">
                        <set attributeName="fill" to="#808080" begin="arrowDown.mouseover" end="arrowDown.mouseout"/>
                  </use>
                  <path fill="none" stroke="white" stroke-width="1.5" d="M0,-3.0v7 M-2.5,-0.5L0,-3.0L2.5,-0.5"/>
                </g>
                <g id="arrowLeft" xlink:href="#dirArrow" transform="rotate(270) translate(-36 17)" onmousedown="handlePan(-1,0)">
                  <use xlink:href="#rim" fill="#404040">
                        <set attributeName="fill" to="#808080" begin="arrowLeft.mouseover" end="arrowLeft.mouseout"/>
                  </use>
                  <path fill="none" stroke="white" stroke-width="1.5" d="M0,-3.0v7 M-2.5,-0.5L0,-3.0L2.5,-0.5"/>
                </g>
        </g>
        <svg viewBox="0 0 15 15" width="100%" height="30px" preserveAspectRatio="xMaxYMin meet">
         <g id="arrow_out" transform="scale(0.3 0.3)">
          <a xlink:href="dot_inline_dotgraph_7_org.svg" target="_base">
           <rect id="button" ry="5" rx="5" y="6" x="6" height="38" width="38"
                fill="#f2f5e9" fill-opacity="0.5" stroke="#606060" stroke-width="1.0"/>
           <path id="arrow"
             d="M 11.500037,31.436501 C 11.940474,20.09759 22.043105,11.32322 32.158766,21.979434 L 37.068811,17.246167 C 37.068811,17.246167 37.088388,32 37.088388,32 L 22.160133,31.978069 C 22.160133,31.978069 26.997745,27.140456 26.997745,27.140456 C 18.528582,18.264221 13.291696,25.230495 11.500037,31.436501 z"
             style="fill:#404040;"/>
          </a>
         </g>
        </svg>
</svg>
