<?xml version="1.0" encoding="UTF-8" standalone="no"?>
<!DOCTYPE svg PUBLIC "-//W3C//DTD SVG 1.1//EN"
 "http://www.w3.org/Graphics/SVG/1.1/DTD/svg11.dtd">
<!-- Generated by graphviz version 2.43.0 (0)
 -->
<!-- Title: parallel2 Pages: 1 -->
<svg width="929pt" height="232pt"
 viewBox="0.00 0.00 929.00 232.00" xmlns="http://www.w3.org/2000/svg" xmlns:xlink="http://www.w3.org/1999/xlink">
<g id="graph0" class="graph" transform="scale(1 1) rotate(0) translate(4 228)">
<title>parallel2</title>
<polygon fill="white" stroke="transparent" points="-4,4 -4,-228 925,-228 925,4 -4,4"/>
<text text-anchor="middle" x="460.5" y="-7" font-family="Times,serif" font-size="10.00">Parallel processing &#45;&#45; Computation scheme</text>
<!-- INITIAL -->
<g id="node1" class="node">
<title>INITIAL</title>
<polygon fill="none" stroke="black" points="0,-185.5 0,-223.5 119,-223.5 119,-185.5 0,-185.5"/>
<text text-anchor="middle" x="59.5" y="-211.5" font-family="Times,serif" font-size="10.00">Shared initialisation</text>
<polyline fill="none" stroke="black" points="0,-204.5 119,-204.5 "/>
<text text-anchor="middle" x="59.5" y="-192.5" font-family="Times,serif" font-size="10.00">rack &#45;&#45;cmd &#45;&#45;cmd ...</text>
</g>
<!-- FORK -->
<g id="node2" class="node">
<title>FORK</title>
<polygon fill="none" stroke="red" points="155,-185.5 155,-223.5 250,-223.5 250,-185.5 155,-185.5"/>
<text text-anchor="middle" x="202.5" y="-211.5" font-family="Times,serif" font-size="10.00">Enable threads</text>
<polyline fill="none" stroke="red" points="155,-204.5 250,-204.5 "/>
<text text-anchor="middle" x="202.5" y="-192.5" font-family="Times,serif" font-size="10.00">[</text>
</g>
<!-- INITIAL&#45;&gt;FORK -->
<g id="edge1" class="edge">
<title>INITIAL:i&#45;&gt;FORK:i</title>
<path fill="none" stroke="black" d="M119,-194.5C131,-194.5 136.25,-194.5 144.88,-194.5"/>
<polygon fill="black" stroke="black" points="145,-198 155,-194.5 145,-191 145,-198"/>
</g>
<!-- MAIN -->
<g id="node3" class="node">
<title>MAIN</title>
<polygon fill="none" stroke="black" points="286,-176.5 286,-212.5 476,-212.5 476,-176.5 286,-176.5"/>
<text text-anchor="middle" x="296" y="-192" font-family="Times,serif" font-size="10.00"> </text>
<polyline fill="none" stroke="black" points="306,-176.5 306,-212.5 "/>
<text text-anchor="middle" x="332" y="-192" font-family="Times,serif" font-size="10.00">&#45;&#45;cmd2</text>
<polyline fill="none" stroke="black" points="358,-176.5 358,-212.5 "/>
<text text-anchor="middle" x="368" y="-192" font-family="Times,serif" font-size="10.00"> </text>
<polyline fill="none" stroke="black" points="378,-176.5 378,-212.5 "/>
<text text-anchor="middle" x="388" y="-192" font-family="Times,serif" font-size="10.00"> </text>
<polyline fill="none" stroke="black" points="398,-176.5 398,-212.5 "/>
<text text-anchor="middle" x="424" y="-192" font-family="Times,serif" font-size="10.00">&#45;&#45;cmd5</text>
<polyline fill="none" stroke="black" points="450,-176.5 450,-212.5 "/>
<text text-anchor="middle" x="463" y="-192" font-family="Times,serif" font-size="10.00">...</text>
</g>
<!-- FORK&#45;&gt;MAIN -->
<g id="edge2" class="edge">
<title>FORK:i&#45;&gt;MAIN:CMD1</title>
<path fill="none" stroke="black" d="M250,-194.5C262,-194.5 267.25,-194.5 275.88,-194.5"/>
<polygon fill="black" stroke="black" points="276,-198 286,-194.5 276,-191 276,-198"/>
</g>
<!-- JOIN -->
<g id="node4" class="node">
<title>JOIN</title>
<polygon fill="none" stroke="red" points="694,-185.5 694,-223.5 748,-223.5 748,-185.5 694,-185.5"/>
<text text-anchor="middle" x="721" y="-211.5" font-family="Times,serif" font-size="10.00">Join</text>
<polyline fill="none" stroke="red" points="694,-204.5 748,-204.5 "/>
<text text-anchor="middle" x="721" y="-192.5" font-family="Times,serif" font-size="10.00">]</text>
</g>
<!-- MAIN&#45;&gt;JOIN -->
<g id="edge3" class="edge">
<title>MAIN:end&#45;&gt;JOIN:i</title>
<path fill="none" stroke="black" d="M476,-194.5C569.39,-194.5 595.27,-194.5 683.78,-194.5"/>
<polygon fill="black" stroke="black" points="684,-198 694,-194.5 684,-191 684,-198"/>
</g>
<!-- THREAD1 -->
<g id="node6" class="node">
<title>THREAD1</title>
<g id="a_node6"><a xlink:href="" target="_top" xlink:title="{&lt;i&gt;&#45;&#45;CMD1|&lt;s&gt; &#45;&#45;cmd &#45;&#45;cmd ...}">
<polygon fill="none" stroke="red" points="512,-129.5 512,-165.5 658,-165.5 658,-129.5 512,-129.5"/>
<text text-anchor="middle" x="540" y="-145" font-family="Times,serif" font-size="10.00">&#45;&#45;CMD1</text>
<polyline fill="none" stroke="red" points="568,-129.5 568,-165.5 "/>
<text text-anchor="middle" x="613" y="-145" font-family="Times,serif" font-size="10.00">&#45;&#45;cmd &#45;&#45;cmd ...</text>
</a>
</g>
</g>
<!-- MAIN&#45;&gt;THREAD1 -->
<g id="edge5" class="edge">
<title>MAIN:CMD1&#45;&gt;THREAD1:i</title>
<path fill="none" stroke="black" stroke-dasharray="5,2" d="M296,-175.5C296,-82.01 407.19,-142.99 502,-147.27"/>
<polygon fill="black" stroke="black" points="501.92,-150.77 512,-147.5 502.08,-143.77 501.92,-150.77"/>
</g>
<!-- THREAD2 -->
<g id="node7" class="node">
<title>THREAD2</title>
<g id="a_node7"><a xlink:href="" target="_top" xlink:title="{&lt;i&gt;&#45;&#45;CMD3|&lt;s&gt; &#45;&#45;cmd &#45;&#45;cmd ...}">
<polygon fill="none" stroke="red" points="512,-74.5 512,-110.5 658,-110.5 658,-74.5 512,-74.5"/>
<text text-anchor="middle" x="540" y="-90" font-family="Times,serif" font-size="10.00">&#45;&#45;CMD3</text>
<polyline fill="none" stroke="red" points="568,-74.5 568,-110.5 "/>
<text text-anchor="middle" x="613" y="-90" font-family="Times,serif" font-size="10.00">&#45;&#45;cmd &#45;&#45;cmd ...</text>
</a>
</g>
</g>
<!-- MAIN&#45;&gt;THREAD2 -->
<g id="edge6" class="edge">
<title>MAIN:CMD2&#45;&gt;THREAD2:i</title>
<path fill="none" stroke="black" stroke-dasharray="1,5" d="M368,-175.5C368,-105.09 431.71,-93.5 501.64,-92.57"/>
<polygon fill="black" stroke="black" points="502.02,-96.06 512,-92.5 501.98,-89.06 502.02,-96.06"/>
</g>
<!-- THREAD3 -->
<g id="node8" class="node">
<title>THREAD3</title>
<g id="a_node8"><a xlink:href="" target="_top" xlink:title="{&lt;i&gt;&#45;&#45;CMD4|&lt;s&gt; &#45;&#45;cmd &#45;&#45;cmd ...}">
<polygon fill="none" stroke="red" points="512,-19.5 512,-55.5 658,-55.5 658,-19.5 512,-19.5"/>
<text text-anchor="middle" x="540" y="-35" font-family="Times,serif" font-size="10.00">&#45;&#45;CMD4</text>
<polyline fill="none" stroke="red" points="568,-19.5 568,-55.5 "/>
<text text-anchor="middle" x="613" y="-35" font-family="Times,serif" font-size="10.00">&#45;&#45;cmd &#45;&#45;cmd ...</text>
</a>
</g>
</g>
<!-- MAIN&#45;&gt;THREAD3 -->
<g id="edge7" class="edge">
<title>MAIN:CMD3&#45;&gt;THREAD3:i</title>
<path fill="none" stroke="black" stroke-dasharray="1,5" d="M388,-175.5C388,-96.59 426.05,-42.32 501.6,-37.81"/>
<polygon fill="black" stroke="black" points="502.11,-41.29 512,-37.5 501.9,-34.3 502.11,-41.29"/>
</g>
<!-- FINAL -->
<g id="node5" class="node">
<title>FINAL</title>
<polygon fill="none" stroke="black" points="784,-185.5 784,-223.5 921,-223.5 921,-185.5 784,-185.5"/>
<text text-anchor="middle" x="852.5" y="-211.5" font-family="Times,serif" font-size="10.00">Shared final commands</text>
<polyline fill="none" stroke="black" points="784,-204.5 921,-204.5 "/>
<text text-anchor="middle" x="852.5" y="-192.5" font-family="Times,serif" font-size="10.00">&#45;&#45;cmd &#45;&#45;cmd ...</text>
</g>
<!-- JOIN&#45;&gt;FINAL -->
<g id="edge4" class="edge">
<title>JOIN:i&#45;&gt;FINAL:i</title>
<path fill="none" stroke="black" d="M748,-194.5C760,-194.5 765.25,-194.5 773.88,-194.5"/>
<polygon fill="black" stroke="black" points="774,-198 784,-194.5 774,-191 774,-198"/>
</g>
<!-- THREAD1&#45;&gt;JOIN -->
<g id="edge8" class="edge">
<title>THREAD1:s&#45;&gt;JOIN:i</title>
<path fill="none" stroke="black" stroke-dasharray="5,2" d="M658,-147.5C680.2,-147.5 671.83,-180.96 684.48,-191.42"/>
<polygon fill="black" stroke="black" points="683.41,-194.75 694,-194.5 685.57,-188.09 683.41,-194.75"/>
</g>
<!-- THREAD2&#45;&gt;JOIN -->
<g id="edge9" class="edge">
<title>THREAD2:s&#45;&gt;JOIN:i</title>
<path fill="none" stroke="black" stroke-dasharray="1,5" d="M658,-92.5C701.94,-92.5 655.46,-177.72 683.87,-192.37"/>
<polygon fill="black" stroke="black" points="683.49,-195.87 694,-194.5 684.93,-189.02 683.49,-195.87"/>
</g>
<!-- THREAD3&#45;&gt;JOIN -->
<g id="edge10" class="edge">
<title>THREAD3:s&#45;&gt;JOIN:i</title>
<path fill="none" stroke="black" stroke-dasharray="1,5" d="M658,-37.5C725.67,-37.5 633.6,-177.8 683.8,-193.14"/>
<polygon fill="black" stroke="black" points="683.63,-196.65 694,-194.5 684.55,-189.71 683.63,-196.65"/>
</g>
</g>
</svg>
