<?xml version="1.0" encoding="UTF-8" standalone="no"?>
<!DOCTYPE svg PUBLIC "-//W3C//DTD SVG 1.1//EN"
 "http://www.w3.org/Graphics/SVG/1.1/DTD/svg11.dtd">
<!-- Generated by graphviz version 2.43.0 (0)
 -->
<!-- Title: example Pages: 1 -->
<svg width="864pt" height="143pt"
 viewBox="0.00 0.00 864.00 143.12" xmlns="http://www.w3.org/2000/svg" xmlns:xlink="http://www.w3.org/1999/xlink">
<g id="graph0" class="graph" transform="scale(1.44 1.44) rotate(0) translate(4 202)">
<title>example</title>
<polygon fill="white" stroke="transparent" points="-4,4 -4,-202 1239.58,-202 1239.58,4 -4,4"/>
<g id="clust1" class="cluster">
<title>cluster2</title>
<polygon fill="none" stroke="gray" points="152,-29 152,-190 1067.58,-190 1067.58,-29 152,-29"/>
<text text-anchor="middle" x="609.79" y="-174.8" font-family="Times,serif" font-size="14.00">Rack</text>
</g>
<!-- file -->
<g id="node1" class="node">
<title>file</title>
<g id="a_node1"><a xlink:href="fileiopage.html" target="_top" xlink:title="Input file\nHDF5 (or PNG+TXT)">
<polygon fill="none" stroke="blue" points="0,-40 0,-76 123,-76 123,-40 0,-40"/>
<text text-anchor="middle" x="61.5" y="-61" font-family="Times,serif" font-size="10.00">Input file</text>
<text text-anchor="middle" x="61.5" y="-50" font-family="Times,serif" font-size="10.00">HDF5 (or PNG+TXT)</text>
</a>
</g>
</g>
<!-- volume -->
<g id="node2" class="node">
<title>volume</title>
<g id="a_node2"><a xlink:href="fileiopage.html" target="_top" xlink:title="Input volume">
<polygon fill="none" stroke="black" points="160,-40 160,-76 245,-76 245,-40 160,-40"/>
<text text-anchor="middle" x="202.5" y="-55.5" font-family="Times,serif" font-size="10.00">Input volume</text>
</a>
</g>
</g>
<!-- file&#45;&gt;volume -->
<g id="edge1" class="edge">
<title>file&#45;&gt;volume</title>
<path fill="none" stroke="black" d="M123.06,-58C132,-58 141.14,-58 149.88,-58"/>
<polygon fill="black" stroke="black" points="149.91,-61.5 159.91,-58 149.91,-54.5 149.91,-61.5"/>
</g>
<!-- andre -->
<g id="node3" class="node">
<title>andre</title>
<g id="a_node3"><a xlink:href="andrepage.html" target="_top" xlink:title="Anomaly detection\n and removal">
<ellipse fill="none" stroke="blue" cx="370.39" cy="-58" rx="79.39" ry="21.43"/>
<text text-anchor="middle" x="370.39" y="-61" font-family="Times,serif" font-size="10.00">Anomaly detection</text>
<text text-anchor="middle" x="370.39" y="-50" font-family="Times,serif" font-size="10.00"> and removal</text>
</a>
</g>
</g>
<!-- volume&#45;&gt;andre -->
<g id="edge2" class="edge">
<title>volume&#45;&gt;andre</title>
<path fill="none" stroke="black" d="M245.36,-52.05C257.56,-51.53 271.35,-51.27 285.19,-51.25"/>
<polygon fill="black" stroke="black" points="285.24,-54.75 295.25,-51.28 285.26,-47.75 285.24,-54.75"/>
</g>
<!-- polar -->
<g id="node4" class="node">
<title>polar</title>
<g id="a_node4"><a xlink:href="productspage.html" target="_top" xlink:title="Product generation\n(in polar coordinates)">
<ellipse fill="none" stroke="blue" cx="370.39" cy="-118" rx="88.28" ry="21.43"/>
<text text-anchor="middle" x="370.39" y="-121" font-family="Times,serif" font-size="10.00">Product generation</text>
<text text-anchor="middle" x="370.39" y="-110" font-family="Times,serif" font-size="10.00">(in polar coordinates)</text>
</a>
</g>
</g>
<!-- volume&#45;&gt;polar -->
<g id="edge4" class="edge">
<title>volume&#45;&gt;polar</title>
<path fill="none" stroke="black" d="M245.36,-74.3C257.18,-78.82 270.07,-83.67 282,-88 290.53,-91.09 299.55,-94.28 308.44,-97.38"/>
<polygon fill="black" stroke="black" points="307.4,-100.72 317.99,-100.69 309.69,-94.11 307.4,-100.72"/>
</g>
<!-- cartesian -->
<g id="node6" class="node">
<title>cartesian</title>
<g id="a_node6"><a xlink:href="compositespage.html" target="_top" xlink:title="Cartesian products\n and compositing">
<ellipse fill="none" stroke="blue" cx="749.68" cy="-111" rx="79.81" ry="21.43"/>
<text text-anchor="middle" x="749.68" y="-114" font-family="Times,serif" font-size="10.00">Cartesian products</text>
<text text-anchor="middle" x="749.68" y="-103" font-family="Times,serif" font-size="10.00"> and compositing</text>
</a>
</g>
</g>
<!-- volume&#45;&gt;cartesian -->
<g id="edge7" class="edge">
<title>volume&#45;&gt;cartesian</title>
<path fill="none" stroke="black" d="M213.04,-76.32C225.54,-98.1 249.73,-133.32 282,-148 419.77,-210.65 604.04,-162.58 694.26,-131.72"/>
<polygon fill="black" stroke="black" points="695.45,-135.01 703.74,-128.42 693.15,-128.4 695.45,-135.01"/>
<text text-anchor="middle" x="502.78" y="-179.6" font-family="Times,serif" font-size="8.00">Single sweep</text>
</g>
<!-- outfile -->
<g id="node9" class="node">
<title>outfile</title>
<g id="a_node9"><a xlink:href="fileiopage.html" target="_top" xlink:title="Output file\nHDF5, GeoTIFF, or PNG">
<polygon fill="none" stroke="blue" points="1096.58,-20 1096.58,-56 1235.58,-56 1235.58,-20 1096.58,-20"/>
<text text-anchor="middle" x="1166.08" y="-41" font-family="Times,serif" font-size="10.00">Output file</text>
<text text-anchor="middle" x="1166.08" y="-30" font-family="Times,serif" font-size="10.00">HDF5, GeoTIFF, or PNG</text>
</a>
</g>
</g>
<!-- volume&#45;&gt;outfile -->
<g id="edge11" class="edge">
<title>volume&#45;&gt;outfile</title>
<path fill="none" stroke="black" stroke-dasharray="1,5" d="M234.79,-39.97C267.32,-22.94 320.27,0 369.39,0 369.39,0 369.39,0 977.58,0 1017.66,0 1061.61,-8.44 1096.88,-17.37"/>
<polygon fill="black" stroke="black" points="1096.03,-20.76 1106.58,-19.89 1097.79,-13.99 1096.03,-20.76"/>
</g>
<!-- andre&#45;&gt;volume -->
<g id="edge3" class="edge">
<title>andre&#45;&gt;volume</title>
<path fill="none" stroke="black" d="M295.25,-64.72C281.89,-64.82 268.21,-64.69 255.63,-64.32"/>
<polygon fill="black" stroke="black" points="255.48,-60.81 245.36,-63.95 255.23,-67.81 255.48,-60.81"/>
</g>
<!-- polarfile -->
<g id="node5" class="node">
<title>polarfile</title>
<polygon fill="none" stroke="black" points="546.78,-93 546.78,-129 632.78,-129 632.78,-93 546.78,-93"/>
<text text-anchor="middle" x="589.78" y="-108.5" font-family="Times,serif" font-size="10.00">Polar product</text>
</g>
<!-- polar&#45;&gt;polarfile -->
<g id="edge5" class="edge">
<title>polar&#45;&gt;polarfile</title>
<path fill="none" stroke="black" d="M458.24,-115.2C484.72,-114.35 513,-113.44 536.44,-112.69"/>
<polygon fill="black" stroke="black" points="536.63,-116.18 546.51,-112.36 536.4,-109.18 536.63,-116.18"/>
</g>
<!-- polarfile&#45;&gt;cartesian -->
<g id="edge6" class="edge">
<title>polarfile&#45;&gt;cartesian</title>
<path fill="none" stroke="black" d="M633.09,-111C641.41,-111 650.43,-111 659.63,-111"/>
<polygon fill="black" stroke="black" points="659.66,-114.5 669.66,-111 659.66,-107.5 659.66,-114.5"/>
</g>
<!-- polarfile&#45;&gt;outfile -->
<g id="edge12" class="edge">
<title>polarfile&#45;&gt;outfile</title>
<path fill="none" stroke="black" stroke-dasharray="1,5" d="M632.37,-92.89C644.25,-88.35 657.36,-83.94 669.78,-81 813.96,-46.83 987.51,-39.15 1086.2,-37.8"/>
<polygon fill="black" stroke="black" points="1086.43,-41.3 1096.39,-37.68 1086.35,-34.3 1086.43,-41.3"/>
</g>
<!-- cartfile -->
<g id="node7" class="node">
<title>cartfile</title>
<polygon fill="none" stroke="black" points="922.58,-67 922.58,-103 1030.58,-103 1030.58,-67 922.58,-67"/>
<text text-anchor="middle" x="976.58" y="-82.5" font-family="Times,serif" font-size="10.00">Cartesian product</text>
</g>
<!-- cartesian&#45;&gt;cartfile -->
<g id="edge10" class="edge">
<title>cartesian&#45;&gt;cartfile</title>
<path fill="none" stroke="black" d="M808.81,-96.68C821.52,-94.03 834.95,-91.6 847.58,-90 868.53,-87.34 891.55,-85.97 912.22,-85.29"/>
<polygon fill="black" stroke="black" points="912.58,-88.78 922.48,-85 912.38,-81.78 912.58,-88.78"/>
</g>
<!-- cumulator -->
<g id="node8" class="node">
<title>cumulator</title>
<polygon fill="none" stroke="black" stroke-dasharray="1,5" points="893.58,-122 893.58,-158 1059.58,-158 1059.58,-122 893.58,-122"/>
<text text-anchor="middle" x="976.58" y="-143" font-family="Times,serif" font-size="10.00">Composite</text>
<text text-anchor="middle" x="976.58" y="-132" font-family="Times,serif" font-size="10.00">(Internal accumulation array)</text>
</g>
<!-- cartesian&#45;&gt;cumulator -->
<g id="edge8" class="edge">
<title>cartesian&#45;&gt;cumulator</title>
<path fill="none" stroke="black" d="M828.87,-107.62C844.41,-107.9 860.55,-108.86 875.58,-111 888.15,-112.79 901.35,-115.77 913.89,-119.17"/>
<polygon fill="black" stroke="black" points="913.2,-122.61 923.77,-121.97 915.1,-115.88 913.2,-122.61"/>
<text text-anchor="middle" x="861.58" y="-113.6" font-family="Times,serif" font-size="8.00">add</text>
</g>
<!-- cartfile&#45;&gt;outfile -->
<g id="edge13" class="edge">
<title>cartfile&#45;&gt;outfile</title>
<path fill="none" stroke="black" stroke-dasharray="1,5" d="M1030.81,-71.66C1048.14,-67.31 1067.77,-62.39 1086.55,-57.69"/>
<polygon fill="black" stroke="black" points="1087.43,-61.07 1096.28,-55.25 1085.73,-54.28 1087.43,-61.07"/>
</g>
<!-- cumulator&#45;&gt;cartesian -->
<g id="edge9" class="edge">
<title>cumulator&#45;&gt;cartesian</title>
<path fill="none" stroke="black" d="M893.51,-129.42C873.42,-126.83 851.92,-124.05 831.87,-121.47"/>
<polygon fill="black" stroke="black" points="832.21,-117.98 821.84,-120.18 831.31,-124.93 832.21,-117.98"/>
<text text-anchor="middle" x="861.58" y="-128.6" font-family="Times,serif" font-size="8.00">extract</text>
</g>
</g>
</svg>
