<?xml version="1.0" encoding="UTF-8" standalone="no"?>
<!DOCTYPE svg PUBLIC "-//W3C//DTD SVG 1.1//EN"
 "http://www.w3.org/Graphics/SVG/1.1/DTD/svg11.dtd">
<!-- Generated by graphviz version 2.43.0 (0)
 -->
<!-- Title: Graphical Class Hierarchy Pages: 1 -->
<svg width="266pt" height="370pt"
 viewBox="0.00 0.00 266.00 370.00" xmlns="http://www.w3.org/2000/svg" xmlns:xlink="http://www.w3.org/1999/xlink">
<g id="graph0" class="graph" transform="scale(1 1) rotate(0) translate(4 366)">
<title>Graphical Class Hierarchy</title>
<polygon fill="white" stroke="transparent" points="-4,4 -4,-366 262,-366 262,4 -4,4"/>
<!-- Node0 -->
<g id="node1" class="node">
<title>Node0</title>
<g id="a_node1"><a xlink:href="classdrain_1_1CommandSection.html" target="_top" xlink:title=" ">
<polygon fill="white" stroke="black" points="0,-171.5 0,-190.5 103,-190.5 103,-171.5 0,-171.5"/>
<text text-anchor="middle" x="51.5" y="-178.5" font-family="Helvetica,sans-Serif" font-size="10.00">CommandSection</text>
</a>
</g>
</g>
<!-- Node1 -->
<g id="node2" class="node">
<title>Node1</title>
<g id="a_node2"><a xlink:href="structdrain_1_1GeneralSection.html" target="_top" xlink:title=" ">
<polygon fill="white" stroke="black" points="153,-342.5 153,-361.5 244,-361.5 244,-342.5 153,-342.5"/>
<text text-anchor="middle" x="198.5" y="-349.5" font-family="Helvetica,sans-Serif" font-size="10.00">GeneralSection</text>
</a>
</g>
</g>
<!-- Node0&#45;&gt;Node1 -->
<g id="edge1" class="edge">
<title>Node0&#45;&gt;Node1</title>
<path fill="none" stroke="midnightblue" d="M58.39,-200.42C69.15,-232.65 95.01,-297.16 139,-333 143.72,-336.84 149.24,-339.92 154.96,-342.38"/>
<polygon fill="midnightblue" stroke="midnightblue" points="61.7,-199.28 55.32,-190.82 55.03,-201.41 61.7,-199.28"/>
</g>
<!-- Node2 -->
<g id="node3" class="node">
<title>Node2</title>
<g id="a_node3"><a xlink:href="structdrain_1_1HiddenSection.html" target="_top" xlink:title=" ">
<polygon fill="white" stroke="black" points="155,-304.5 155,-323.5 242,-323.5 242,-304.5 155,-304.5"/>
<text text-anchor="middle" x="198.5" y="-311.5" font-family="Helvetica,sans-Serif" font-size="10.00">HiddenSection</text>
</a>
</g>
</g>
<!-- Node0&#45;&gt;Node2 -->
<g id="edge2" class="edge">
<title>Node0&#45;&gt;Node2</title>
<path fill="none" stroke="midnightblue" d="M61.79,-199.4C75.39,-224.56 103.07,-269.46 139,-295 144.4,-298.84 150.61,-301.93 156.93,-304.41"/>
<polygon fill="midnightblue" stroke="midnightblue" points="64.87,-197.75 57.13,-190.52 58.67,-201 64.87,-197.75"/>
</g>
<!-- Node3 -->
<g id="node4" class="node">
<title>Node3</title>
<g id="a_node4"><a xlink:href="structdrain_1_1TriggerSection.html" target="_top" xlink:title=" ">
<polygon fill="white" stroke="black" points="155.5,-266.5 155.5,-285.5 241.5,-285.5 241.5,-266.5 155.5,-266.5"/>
<text text-anchor="middle" x="198.5" y="-273.5" font-family="Helvetica,sans-Serif" font-size="10.00">TriggerSection</text>
</a>
</g>
</g>
<!-- Node0&#45;&gt;Node3 -->
<g id="edge3" class="edge">
<title>Node0&#45;&gt;Node3</title>
<path fill="none" stroke="midnightblue" d="M67.93,-198.15C84.13,-215.22 111.08,-241.11 139,-257 145.59,-260.75 153.02,-263.88 160.33,-266.45"/>
<polygon fill="midnightblue" stroke="midnightblue" points="70.25,-195.51 60.88,-190.56 65.12,-200.27 70.25,-195.51"/>
</g>
<!-- Node4 -->
<g id="node5" class="node">
<title>Node4</title>
<g id="a_node5"><a xlink:href="structrack_1_1AccumulationSection.html" target="_top" xlink:title=" ">
<polygon fill="white" stroke="black" points="139,-228.5 139,-247.5 258,-247.5 258,-228.5 139,-228.5"/>
<text text-anchor="middle" x="198.5" y="-235.5" font-family="Helvetica,sans-Serif" font-size="10.00">AccumulationSection</text>
</a>
</g>
</g>
<!-- Node0&#45;&gt;Node4 -->
<g id="edge4" class="edge">
<title>Node0&#45;&gt;Node4</title>
<path fill="none" stroke="midnightblue" d="M82.06,-194.86C98.64,-202.41 119.78,-211.68 139,-219 147.68,-222.31 157.22,-225.56 166.03,-228.42"/>
<polygon fill="midnightblue" stroke="midnightblue" points="83.43,-191.64 72.88,-190.64 80.51,-198 83.43,-191.64"/>
</g>
<!-- Node5 -->
<g id="node6" class="node">
<title>Node5</title>
<g id="a_node6"><a xlink:href="structrack_1_1AnDReSection.html" target="_top" xlink:title=" ">
<polygon fill="white" stroke="black" points="155.5,-190.5 155.5,-209.5 241.5,-209.5 241.5,-190.5 155.5,-190.5"/>
<text text-anchor="middle" x="198.5" y="-197.5" font-family="Helvetica,sans-Serif" font-size="10.00">AnDReSection</text>
</a>
</g>
</g>
<!-- Node0&#45;&gt;Node5 -->
<g id="edge5" class="edge">
<title>Node0&#45;&gt;Node5</title>
<path fill="none" stroke="midnightblue" d="M113.34,-188.97C127.43,-190.82 142.12,-192.74 155.22,-194.46"/>
<polygon fill="midnightblue" stroke="midnightblue" points="113.58,-185.47 103.21,-187.65 112.67,-192.41 113.58,-185.47"/>
</g>
<!-- Node6 -->
<g id="node7" class="node">
<title>Node6</title>
<g id="a_node7"><a xlink:href="structrack_1_1CartesianSection.html" target="_top" xlink:title=" ">
<polygon fill="white" stroke="black" points="149,-152.5 149,-171.5 248,-171.5 248,-152.5 149,-152.5"/>
<text text-anchor="middle" x="198.5" y="-159.5" font-family="Helvetica,sans-Serif" font-size="10.00">CartesianSection</text>
</a>
</g>
</g>
<!-- Node0&#45;&gt;Node6 -->
<g id="edge6" class="edge">
<title>Node0&#45;&gt;Node6</title>
<path fill="none" stroke="midnightblue" d="M113.38,-173.02C125.1,-171.49 137.24,-169.9 148.52,-168.42"/>
<polygon fill="midnightblue" stroke="midnightblue" points="112.67,-169.59 103.21,-174.35 113.58,-176.53 112.67,-169.59"/>
</g>
<!-- Node7 -->
<g id="node8" class="node">
<title>Node7</title>
<g id="a_node8"><a xlink:href="structrack_1_1ImageOpSection.html" target="_top" xlink:title=" ">
<polygon fill="white" stroke="black" points="150,-114.5 150,-133.5 247,-133.5 247,-114.5 150,-114.5"/>
<text text-anchor="middle" x="198.5" y="-121.5" font-family="Helvetica,sans-Serif" font-size="10.00">ImageOpSection</text>
</a>
</g>
</g>
<!-- Node0&#45;&gt;Node7 -->
<g id="edge7" class="edge">
<title>Node0&#45;&gt;Node7</title>
<path fill="none" stroke="midnightblue" d="M82.06,-167.14C98.64,-159.59 119.78,-150.32 139,-143 147.68,-139.69 157.22,-136.44 166.03,-133.58"/>
<polygon fill="midnightblue" stroke="midnightblue" points="80.51,-164 72.88,-171.36 83.43,-170.36 80.51,-164"/>
</g>
<!-- Node8 -->
<g id="node9" class="node">
<title>Node8</title>
<g id="a_node9"><a xlink:href="structrack_1_1ImageSection.html" target="_top" xlink:title=" ">
<polygon fill="white" stroke="black" points="157,-76.5 157,-95.5 240,-95.5 240,-76.5 157,-76.5"/>
<text text-anchor="middle" x="198.5" y="-83.5" font-family="Helvetica,sans-Serif" font-size="10.00">ImageSection</text>
</a>
</g>
</g>
<!-- Node0&#45;&gt;Node8 -->
<g id="edge8" class="edge">
<title>Node0&#45;&gt;Node8</title>
<path fill="none" stroke="midnightblue" d="M67.93,-163.85C84.13,-146.78 111.08,-120.89 139,-105 145.59,-101.25 153.02,-98.12 160.33,-95.55"/>
<polygon fill="midnightblue" stroke="midnightblue" points="65.12,-161.73 60.88,-171.44 70.25,-166.49 65.12,-161.73"/>
</g>
<!-- Node9 -->
<g id="node10" class="node">
<title>Node9</title>
<g id="a_node10"><a xlink:href="structrack_1_1ProductSection.html" target="_top" xlink:title=" ">
<polygon fill="white" stroke="black" points="154,-38.5 154,-57.5 243,-57.5 243,-38.5 154,-38.5"/>
<text text-anchor="middle" x="198.5" y="-45.5" font-family="Helvetica,sans-Serif" font-size="10.00">ProductSection</text>
</a>
</g>
</g>
<!-- Node0&#45;&gt;Node9 -->
<g id="edge9" class="edge">
<title>Node0&#45;&gt;Node9</title>
<path fill="none" stroke="midnightblue" d="M61.79,-162.6C75.39,-137.44 103.07,-92.54 139,-67 144.4,-63.16 150.61,-60.07 156.93,-57.59"/>
<polygon fill="midnightblue" stroke="midnightblue" points="58.67,-161 57.13,-171.48 64.87,-164.25 58.67,-161"/>
</g>
<!-- Node10 -->
<g id="node11" class="node">
<title>Node10</title>
<g id="a_node11"><a xlink:href="structrack_1_1ScienceSection.html" target="_top" xlink:title=" ">
<polygon fill="white" stroke="black" points="153.5,-0.5 153.5,-19.5 243.5,-19.5 243.5,-0.5 153.5,-0.5"/>
<text text-anchor="middle" x="198.5" y="-7.5" font-family="Helvetica,sans-Serif" font-size="10.00">ScienceSection</text>
</a>
</g>
</g>
<!-- Node0&#45;&gt;Node10 -->
<g id="edge10" class="edge">
<title>Node0&#45;&gt;Node10</title>
<path fill="none" stroke="midnightblue" d="M58.39,-161.58C69.15,-129.35 95.01,-64.84 139,-29 143.72,-25.16 149.24,-22.08 154.96,-19.62"/>
<polygon fill="midnightblue" stroke="midnightblue" points="55.03,-160.59 55.32,-171.18 61.7,-162.72 55.03,-160.59"/>
</g>
</g>
</svg>
