<?xml version="1.0" encoding="UTF-8" standalone="no"?>
<!DOCTYPE svg PUBLIC "-//W3C//DTD SVG 1.1//EN"
 "http://www.w3.org/Graphics/SVG/1.1/DTD/svg11.dtd">
<!-- Generated by graphviz version 2.43.0 (0)
 -->
<!-- Title: Graphical Class Hierarchy Pages: 1 -->
<svg width="448pt" height="142pt"
 viewBox="0.00 0.00 448.00 142.00" xmlns="http://www.w3.org/2000/svg" xmlns:xlink="http://www.w3.org/1999/xlink">
<g id="graph0" class="graph" transform="scale(1 1) rotate(0) translate(4 138)">
<title>Graphical Class Hierarchy</title>
<polygon fill="white" stroke="transparent" points="-4,4 -4,-138 444,-138 444,4 -4,4"/>
<!-- Node416 -->
<g id="node1" class="node">
<title>Node416</title>
<g id="a_node1"><a xlink:href="structdrain_1_1image_1_1HistogramConfig.html" target="_top" xlink:title=" ">
<polygon fill="white" stroke="black" points="0,-114.5 0,-133.5 99,-133.5 99,-114.5 0,-114.5"/>
<text text-anchor="middle" x="49.5" y="-121.5" font-family="Helvetica,sans-Serif" font-size="10.00">HistogramConfig</text>
</a>
</g>
</g>
<!-- Node2 -->
<g id="node2" class="node">
<title>Node2</title>
<g id="a_node2"><a xlink:href="classdrain_1_1image_1_1HistogramWindowConfig.html" target="_top" xlink:title=" ">
<polygon fill="white" stroke="black" points="135,-114.5 135,-133.5 273,-133.5 273,-114.5 135,-114.5"/>
<text text-anchor="middle" x="204" y="-121.5" font-family="Helvetica,sans-Serif" font-size="10.00">HistogramWindowConfig</text>
</a>
</g>
</g>
<!-- Node416&#45;&gt;Node2 -->
<g id="edge1" class="edge">
<title>Node416&#45;&gt;Node2</title>
<path fill="none" stroke="midnightblue" d="M109.2,-124C117.57,-124 126.24,-124 134.78,-124"/>
<polygon fill="midnightblue" stroke="midnightblue" points="109.17,-120.5 99.17,-124 109.17,-127.5 109.17,-120.5"/>
</g>
<!-- Node0 -->
<g id="node3" class="node">
<title>Node0</title>
<g id="a_node3"><a xlink:href="classdrain_1_1image_1_1WindowConfig.html" target="_top" xlink:title="Base class for configurations applied in image processing windows, e.g. for operators of type WindowO...">
<polygon fill="white" stroke="black" points="6,-57.5 6,-76.5 93,-76.5 93,-57.5 6,-57.5"/>
<text text-anchor="middle" x="49.5" y="-64.5" font-family="Helvetica,sans-Serif" font-size="10.00">WindowConfig</text>
</a>
</g>
</g>
<!-- Node0&#45;&gt;Node2 -->
<g id="edge3" class="edge">
<title>Node0&#45;&gt;Node2</title>
<path fill="none" stroke="midnightblue" d="M79.05,-81.13C95.22,-88.8 115.96,-98.1 135,-105 144.57,-108.47 155.08,-111.68 164.91,-114.44"/>
<polygon fill="midnightblue" stroke="midnightblue" points="80.15,-77.78 69.62,-76.6 77.12,-84.08 80.15,-77.78"/>
</g>
<!-- Node1 -->
<g id="node4" class="node">
<title>Node1</title>
<g id="a_node4"><a xlink:href="classdrain_1_1image_1_1GaussianWindowConf.html" target="_top" xlink:title="Extends WindowConfig with radius.">
<polygon fill="white" stroke="black" points="142.5,-76.5 142.5,-95.5 265.5,-95.5 265.5,-76.5 142.5,-76.5"/>
<text text-anchor="middle" x="204" y="-83.5" font-family="Helvetica,sans-Serif" font-size="10.00">GaussianWindowConf</text>
</a>
</g>
</g>
<!-- Node0&#45;&gt;Node1 -->
<g id="edge2" class="edge">
<title>Node0&#45;&gt;Node1</title>
<path fill="none" stroke="midnightblue" d="M103.61,-73.62C116.08,-75.17 129.46,-76.84 142.23,-78.43"/>
<polygon fill="midnightblue" stroke="midnightblue" points="103.74,-70.11 93.39,-72.34 102.88,-77.05 103.74,-70.11"/>
</g>
<!-- Node3 -->
<g id="node5" class="node">
<title>Node3</title>
<g id="a_node5"><a xlink:href="classdrain_1_1image_1_1OpticalFlowConfig.html" target="_top" xlink:title="Consider using SlidingStripeOpticalFlow instead.">
<polygon fill="white" stroke="black" points="151,-38.5 151,-57.5 257,-57.5 257,-38.5 151,-38.5"/>
<text text-anchor="middle" x="204" y="-45.5" font-family="Helvetica,sans-Serif" font-size="10.00">OpticalFlowConfig</text>
</a>
</g>
</g>
<!-- Node0&#45;&gt;Node3 -->
<g id="edge4" class="edge">
<title>Node0&#45;&gt;Node3</title>
<path fill="none" stroke="midnightblue" d="M103.73,-60.37C119.04,-58.46 135.72,-56.38 150.96,-54.48"/>
<polygon fill="midnightblue" stroke="midnightblue" points="102.88,-56.95 93.39,-61.66 103.74,-63.89 102.88,-56.95"/>
</g>
<!-- Node4 -->
<g id="node6" class="node">
<title>Node4</title>
<g id="a_node6"><a xlink:href="classrack_1_1RadarWindowConfig.html" target="_top" xlink:title=" ">
<polygon fill="white" stroke="black" points="146,-0.5 146,-19.5 262,-19.5 262,-0.5 146,-0.5"/>
<text text-anchor="middle" x="204" y="-7.5" font-family="Helvetica,sans-Serif" font-size="10.00">RadarWindowConfig</text>
</a>
</g>
</g>
<!-- Node0&#45;&gt;Node4 -->
<g id="edge5" class="edge">
<title>Node0&#45;&gt;Node4</title>
<path fill="none" stroke="midnightblue" d="M79.05,-52.87C95.22,-45.2 115.96,-35.9 135,-29 144.57,-25.53 155.08,-22.32 164.91,-19.56"/>
<polygon fill="midnightblue" stroke="midnightblue" points="77.12,-49.92 69.62,-57.4 80.15,-56.22 77.12,-49.92"/>
</g>
<!-- Node5 -->
<g id="node7" class="node">
<title>Node5</title>
<g id="a_node7"><a xlink:href="classrack_1_1DopplerInversionConfig.html" target="_top" xlink:title=" ">
<polygon fill="white" stroke="black" points="309,-0.5 309,-19.5 440,-19.5 440,-0.5 309,-0.5"/>
<text text-anchor="middle" x="374.5" y="-7.5" font-family="Helvetica,sans-Serif" font-size="10.00">DopplerInversionConfig</text>
</a>
</g>
</g>
<!-- Node4&#45;&gt;Node5 -->
<g id="edge6" class="edge">
<title>Node4&#45;&gt;Node5</title>
<path fill="none" stroke="midnightblue" d="M272.11,-10C284.26,-10 296.9,-10 308.97,-10"/>
<polygon fill="midnightblue" stroke="midnightblue" points="272.05,-6.5 262.05,-10 272.05,-13.5 272.05,-6.5"/>
</g>
</g>
</svg>
