<?xml version="1.0" encoding="UTF-8" standalone="no"?>
<!DOCTYPE svg PUBLIC "-//W3C//DTD SVG 1.1//EN"
 "http://www.w3.org/Graphics/SVG/1.1/DTD/svg11.dtd">
<!-- Generated by graphviz version 2.43.0 (0)
 -->
<!-- Title: Graphical Class Hierarchy Pages: 1 -->
<svg width="522pt" height="39pt"
 viewBox="0.00 0.00 522.00 39.00" xmlns="http://www.w3.org/2000/svg" xmlns:xlink="http://www.w3.org/1999/xlink">
<g id="graph0" class="graph" transform="scale(1 1) rotate(0) translate(4 35)">
<title>Graphical Class Hierarchy</title>
<polygon fill="white" stroke="transparent" points="-4,4 -4,-35 518,-35 518,4 -4,4"/>
<!-- Node0 -->
<g id="node1" class="node">
<title>Node0</title>
<g id="a_node1"><a xlink:href="classdrain_1_1CommandInstaller.html" target="_top" xlink:title=" ">
<polygon fill="white" stroke="black" points="0,-0.5 0,-30.5 155,-30.5 155,-0.5 0,-0.5"/>
<text text-anchor="start" x="8" y="-18.5" font-family="Helvetica,sans-Serif" font-size="10.00">CommandInstaller&lt; PREFIX,</text>
<text text-anchor="middle" x="77.5" y="-7.5" font-family="Helvetica,sans-Serif" font-size="10.00"> ImageSection &gt;</text>
</a>
</g>
</g>
<!-- Node1 -->
<g id="node2" class="node">
<title>Node1</title>
<g id="a_node2"><a xlink:href="classdrain_1_1CommandModule.html" target="_top" xlink:title=" ">
<polygon fill="white" stroke="black" points="191,-6 191,-25 395,-25 395,-6 191,-6"/>
<text text-anchor="middle" x="293" y="-13" font-family="Helvetica,sans-Serif" font-size="10.00">CommandModule&lt; 0, ImageSection &gt;</text>
</a>
</g>
</g>
<!-- Node0&#45;&gt;Node1 -->
<g id="edge1" class="edge">
<title>Node0&#45;&gt;Node1</title>
<path fill="none" stroke="darkgreen" d="M165.45,-15.5C173.87,-15.5 182.45,-15.5 190.99,-15.5"/>
<polygon fill="darkgreen" stroke="darkgreen" points="165.28,-12 155.28,-15.5 165.28,-19 165.28,-12"/>
</g>
<!-- Node2 -->
<g id="node3" class="node">
<title>Node2</title>
<g id="a_node3"><a xlink:href="classrack_1_1ImageModule.html" target="_top" xlink:title=" ">
<polygon fill="white" stroke="black" points="431,-6 431,-25 514,-25 514,-6 431,-6"/>
<text text-anchor="middle" x="472.5" y="-13" font-family="Helvetica,sans-Serif" font-size="10.00">ImageModule</text>
</a>
</g>
</g>
<!-- Node1&#45;&gt;Node2 -->
<g id="edge2" class="edge">
<title>Node1&#45;&gt;Node2</title>
<path fill="none" stroke="midnightblue" d="M405.44,-15.5C414.41,-15.5 423.05,-15.5 430.96,-15.5"/>
<polygon fill="midnightblue" stroke="midnightblue" points="405.19,-12 395.19,-15.5 405.19,-19 405.19,-12"/>
</g>
</g>
</svg>
