<?xml version="1.0" encoding="UTF-8" standalone="no"?>
<!DOCTYPE svg PUBLIC "-//W3C//DTD SVG 1.1//EN"
 "http://www.w3.org/Graphics/SVG/1.1/DTD/svg11.dtd">
<!-- Generated by graphviz version 2.43.0 (0)
 -->
<!-- Title: Graphical Class Hierarchy Pages: 1 -->
<svg width="449pt" height="116pt"
 viewBox="0.00 0.00 449.00 115.50" xmlns="http://www.w3.org/2000/svg" xmlns:xlink="http://www.w3.org/1999/xlink">
<g id="graph0" class="graph" transform="scale(1 1) rotate(0) translate(4 111.5)">
<title>Graphical Class Hierarchy</title>
<polygon fill="white" stroke="transparent" points="-4,4 -4,-111.5 445,-111.5 445,4 -4,4"/>
<!-- Node0 -->
<g id="node1" class="node">
<title>Node0</title>
<g id="a_node1"><a xlink:href="classdrain_1_1CommandInstaller.html" target="_top" xlink:title=" ">
<polygon fill="white" stroke="black" points="0,-22.5 0,-52.5 127,-52.5 127,-22.5 0,-22.5"/>
<text text-anchor="start" x="8" y="-40.5" font-family="Helvetica,sans-Serif" font-size="10.00">CommandInstaller&lt; 0,</text>
<text text-anchor="middle" x="63.5" y="-29.5" font-family="Helvetica,sans-Serif" font-size="10.00"> GeneralSection &gt;</text>
</a>
</g>
</g>
<!-- Node1 -->
<g id="node2" class="node">
<title>Node1</title>
<g id="a_node2"><a xlink:href="classdrain_1_1CommandModule.html" target="_top" xlink:title=" ">
<polygon fill="white" stroke="black" points="179.5,-50 179.5,-69 298.5,-69 298.5,-50 179.5,-50"/>
<text text-anchor="middle" x="239" y="-57" font-family="Helvetica,sans-Serif" font-size="10.00">CommandModule&lt;&gt;</text>
</a>
</g>
</g>
<!-- Node0&#45;&gt;Node1 -->
<g id="edge1" class="edge">
<title>Node0&#45;&gt;Node1</title>
<path fill="none" stroke="darkgreen" d="M137.22,-46.72C151.22,-48.5 165.72,-50.34 179.22,-52.05"/>
<polygon fill="darkgreen" stroke="darkgreen" points="137.5,-43.23 127.14,-45.44 136.62,-50.17 137.5,-43.23"/>
</g>
<!-- Node5 -->
<g id="node6" class="node">
<title>Node5</title>
<g id="a_node6"><a xlink:href="classdrain_1_1CommandModule.html" target="_top" xlink:title="Combines command installation and sectioning.">
<polygon fill="white" stroke="black" points="163,-0.5 163,-30.5 315,-30.5 315,-0.5 163,-0.5"/>
<text text-anchor="start" x="171" y="-18.5" font-family="Helvetica,sans-Serif" font-size="10.00">CommandModule&lt; PREFIX,</text>
<text text-anchor="middle" x="239" y="-7.5" font-family="Helvetica,sans-Serif" font-size="10.00"> SECTION &gt;</text>
</a>
</g>
</g>
<!-- Node0&#45;&gt;Node5 -->
<g id="edge5" class="edge">
<title>Node0&#45;&gt;Node5</title>
<path fill="none" stroke="darkgreen" d="M137.29,-28.27C145.7,-27.2 154.29,-26.11 162.74,-25.04"/>
<polygon fill="darkgreen" stroke="darkgreen" points="136.62,-24.83 127.14,-29.56 137.5,-31.77 136.62,-24.83"/>
</g>
<!-- Node2 -->
<g id="node3" class="node">
<title>Node2</title>
<g id="a_node3"><a xlink:href="classrack_1_1FileModule.html" target="_top" xlink:title=" ">
<polygon fill="white" stroke="black" points="361.5,-88 361.5,-107 430.5,-107 430.5,-88 361.5,-88"/>
<text text-anchor="middle" x="396" y="-95" font-family="Helvetica,sans-Serif" font-size="10.00">FileModule</text>
</a>
</g>
</g>
<!-- Node1&#45;&gt;Node2 -->
<g id="edge2" class="edge">
<title>Node1&#45;&gt;Node2</title>
<path fill="none" stroke="midnightblue" d="M288.94,-71.5C312.54,-77.28 340.25,-84.08 361.42,-89.27"/>
<polygon fill="midnightblue" stroke="midnightblue" points="289.66,-68.07 279.11,-69.09 287.99,-74.87 289.66,-68.07"/>
</g>
<!-- Node3 -->
<g id="node4" class="node">
<title>Node3</title>
<g id="a_node4"><a xlink:href="classrack_1_1MainModule.html" target="_top" xlink:title=" ">
<polygon fill="white" stroke="black" points="357.5,-50 357.5,-69 434.5,-69 434.5,-50 357.5,-50"/>
<text text-anchor="middle" x="396" y="-57" font-family="Helvetica,sans-Serif" font-size="10.00">MainModule</text>
</a>
</g>
</g>
<!-- Node1&#45;&gt;Node3 -->
<g id="edge3" class="edge">
<title>Node1&#45;&gt;Node3</title>
<path fill="none" stroke="midnightblue" d="M308.89,-59.5C325.58,-59.5 342.81,-59.5 357.43,-59.5"/>
<polygon fill="midnightblue" stroke="midnightblue" points="308.6,-56 298.6,-59.5 308.6,-63 308.6,-56"/>
</g>
<!-- Node4 -->
<g id="node5" class="node">
<title>Node4</title>
<g id="a_node5"><a xlink:href="classrack_1_1ScienceModule.html" target="_top" xlink:title=" ">
<polygon fill="white" stroke="black" points="351,-12 351,-31 441,-31 441,-12 351,-12"/>
<text text-anchor="middle" x="396" y="-19" font-family="Helvetica,sans-Serif" font-size="10.00">ScienceModule</text>
</a>
</g>
</g>
<!-- Node1&#45;&gt;Node4 -->
<g id="edge4" class="edge">
<title>Node1&#45;&gt;Node4</title>
<path fill="none" stroke="midnightblue" d="M289.11,-47.46C310.76,-42.15 335.85,-36 356.17,-31.02"/>
<polygon fill="midnightblue" stroke="midnightblue" points="287.99,-44.13 279.11,-49.91 289.66,-50.93 287.99,-44.13"/>
</g>
</g>
</svg>
