<?xml version="1.0" encoding="UTF-8" standalone="no"?>
<!DOCTYPE svg PUBLIC "-//W3C//DTD SVG 1.1//EN"
 "http://www.w3.org/Graphics/SVG/1.1/DTD/svg11.dtd">
<!-- Generated by graphviz version 2.43.0 (0)
 -->
<!-- Title: Graphical Class Hierarchy Pages: 1 -->
<svg width="499pt" height="142pt"
 viewBox="0.00 0.00 499.00 142.00" xmlns="http://www.w3.org/2000/svg" xmlns:xlink="http://www.w3.org/1999/xlink">
<g id="graph0" class="graph" transform="scale(1 1) rotate(0) translate(4 138)">
<title>Graphical Class Hierarchy</title>
<polygon fill="white" stroke="transparent" points="-4,4 -4,-138 495,-138 495,4 -4,4"/>
<!-- Node100 -->
<g id="node1" class="node">
<title>Node100</title>
<g id="a_node1"><a xlink:href="classdrain_1_1UniTuple.html" target="_top" xlink:title=" ">
<polygon fill="white" stroke="black" points="0,-76.5 0,-95.5 126,-95.5 126,-76.5 0,-76.5"/>
<text text-anchor="middle" x="63" y="-83.5" font-family="Helvetica,sans-Serif" font-size="10.00">UniTuple&lt; double, 4 &gt;</text>
</a>
</g>
</g>
<!-- Node101 -->
<g id="node2" class="node">
<title>Node101</title>
<g id="a_node2"><a xlink:href="structdrain_1_1image_1_1Decay4.html" target="_top" xlink:title=" ">
<polygon fill="white" stroke="black" points="168.5,-114.5 168.5,-133.5 277.5,-133.5 277.5,-114.5 168.5,-114.5"/>
<text text-anchor="middle" x="223" y="-121.5" font-family="Helvetica,sans-Serif" font-size="10.00">Decay4&lt; double &gt;</text>
</a>
</g>
</g>
<!-- Node100&#45;&gt;Node101 -->
<g id="edge1" class="edge">
<title>Node100&#45;&gt;Node101</title>
<path fill="none" stroke="midnightblue" d="M113.76,-97.97C135.9,-103.29 161.61,-109.48 182.42,-114.48"/>
<polygon fill="midnightblue" stroke="midnightblue" points="114.41,-94.52 103.87,-95.59 112.77,-101.33 114.41,-94.52"/>
</g>
<!-- Node102 -->
<g id="node3" class="node">
<title>Node102</title>
<g id="a_node3"><a xlink:href="classdrain_1_1ValueScaling.html" target="_top" xlink:title="Linear scaling and physical range for image intensities.">
<polygon fill="white" stroke="black" points="183,-76.5 183,-95.5 263,-95.5 263,-76.5 183,-76.5"/>
<text text-anchor="middle" x="223" y="-83.5" font-family="Helvetica,sans-Serif" font-size="10.00">ValueScaling</text>
</a>
</g>
</g>
<!-- Node100&#45;&gt;Node102 -->
<g id="edge2" class="edge">
<title>Node100&#45;&gt;Node102</title>
<path fill="none" stroke="midnightblue" d="M136.78,-86C152.61,-86 168.79,-86 182.73,-86"/>
<polygon fill="midnightblue" stroke="midnightblue" points="136.45,-82.5 126.45,-86 136.45,-89.5 136.45,-82.5"/>
</g>
<!-- Node104 -->
<g id="node6" class="node">
<title>Node104</title>
<g id="a_node6"><a xlink:href="structdrain_1_1Rectangle.html" target="_top" xlink:title=" ">
<polygon fill="white" stroke="black" points="162.5,-38.5 162.5,-57.5 283.5,-57.5 283.5,-38.5 162.5,-38.5"/>
<text text-anchor="middle" x="223" y="-45.5" font-family="Helvetica,sans-Serif" font-size="10.00">Rectangle&lt; double &gt;</text>
</a>
</g>
</g>
<!-- Node100&#45;&gt;Node104 -->
<g id="edge5" class="edge">
<title>Node100&#45;&gt;Node104</title>
<path fill="none" stroke="midnightblue" d="M113.76,-74.03C135.9,-68.71 161.61,-62.52 182.42,-57.52"/>
<polygon fill="midnightblue" stroke="midnightblue" points="112.77,-70.67 103.87,-76.41 114.41,-77.48 112.77,-70.67"/>
</g>
<!-- Node103 -->
<g id="node4" class="node">
<title>Node103</title>
<g id="a_node4"><a xlink:href="classdrain_1_1image_1_1Encoding.html" target="_top" xlink:title=" ">
<polygon fill="white" stroke="black" points="322,-66.5 322,-85.5 383,-85.5 383,-66.5 322,-66.5"/>
<text text-anchor="middle" x="352.5" y="-73.5" font-family="Helvetica,sans-Serif" font-size="10.00">Encoding</text>
</a>
</g>
</g>
<!-- Node102&#45;&gt;Node103 -->
<g id="edge3" class="edge">
<title>Node102&#45;&gt;Node103</title>
<path fill="none" stroke="midnightblue" d="M273.29,-82.13C289.68,-80.85 307.42,-79.46 321.85,-78.33"/>
<polygon fill="midnightblue" stroke="midnightblue" points="272.99,-78.65 263.29,-82.92 273.54,-85.63 272.99,-78.65"/>
</g>
<!-- Node2 -->
<g id="node5" class="node">
<title>Node2</title>
<g id="a_node5"><a xlink:href="classdrain_1_1image_1_1ImageConf.html" target="_top" xlink:title="Struct for image (excluding data)">
<polygon fill="white" stroke="black" points="421,-38.5 421,-57.5 491,-57.5 491,-38.5 421,-38.5"/>
<text text-anchor="middle" x="456" y="-45.5" font-family="Helvetica,sans-Serif" font-size="10.00">ImageConf</text>
</a>
</g>
</g>
<!-- Node103&#45;&gt;Node2 -->
<g id="edge4" class="edge">
<title>Node103&#45;&gt;Node2</title>
<path fill="none" stroke="midnightblue" d="M392.88,-65.14C402.12,-62.59 411.88,-59.9 420.86,-57.42"/>
<polygon fill="midnightblue" stroke="midnightblue" points="391.84,-61.79 383.13,-67.83 393.7,-68.54 391.84,-61.79"/>
</g>
<!-- Node0 -->
<g id="node7" class="node">
<title>Node0</title>
<g id="a_node7"><a xlink:href="classdrain_1_1UniTuple.html" target="_top" xlink:title=" ">
<polygon fill="white" stroke="black" points="162,-0.5 162,-19.5 284,-19.5 284,-0.5 162,-0.5"/>
<text text-anchor="middle" x="223" y="-7.5" font-family="Helvetica,sans-Serif" font-size="10.00">UniTuple&lt; size_t, 4 &gt;</text>
</a>
</g>
</g>
<!-- Node1 -->
<g id="node8" class="node">
<title>Node1</title>
<g id="a_node8"><a xlink:href="classdrain_1_1image_1_1Geometry.html" target="_top" xlink:title=" ">
<polygon fill="white" stroke="black" points="320,-19.5 320,-38.5 385,-38.5 385,-19.5 320,-19.5"/>
<text text-anchor="middle" x="352.5" y="-26.5" font-family="Helvetica,sans-Serif" font-size="10.00">Geometry</text>
</a>
</g>
</g>
<!-- Node0&#45;&gt;Node1 -->
<g id="edge6" class="edge">
<title>Node0&#45;&gt;Node1</title>
<path fill="none" stroke="midnightblue" d="M294.19,-20.46C303.18,-21.8 311.99,-23.11 319.9,-24.29"/>
<polygon fill="midnightblue" stroke="midnightblue" points="294.42,-16.96 284.02,-18.94 293.39,-23.88 294.42,-16.96"/>
</g>
<!-- Node1&#45;&gt;Node2 -->
<g id="edge7" class="edge">
<title>Node1&#45;&gt;Node2</title>
<path fill="none" stroke="midnightblue" d="M394.98,-36.76C403.63,-38.38 412.65,-40.07 420.99,-41.63"/>
<polygon fill="midnightblue" stroke="midnightblue" points="395.53,-33.31 385.06,-34.91 394.24,-40.19 395.53,-33.31"/>
</g>
</g>
</svg>
