<?xml version="1.0" encoding="UTF-8" standalone="no"?>
<!DOCTYPE svg PUBLIC "-//W3C//DTD SVG 1.1//EN"
 "http://www.w3.org/Graphics/SVG/1.1/DTD/svg11.dtd">
<!-- Generated by graphviz version 2.43.0 (0)
 -->
<!-- Title: Graphical Class Hierarchy Pages: 1 -->
<svg width="1550pt" height="579pt"
 viewBox="0.00 0.00 1550.00 578.50" xmlns="http://www.w3.org/2000/svg" xmlns:xlink="http://www.w3.org/1999/xlink">
<g id="graph0" class="graph" transform="scale(1 1) rotate(0) translate(4 574.5)">
<title>Graphical Class Hierarchy</title>
<polygon fill="white" stroke="transparent" points="-4,4 -4,-574.5 1546,-574.5 1546,4 -4,4"/>
<!-- Node0 -->
<g id="node1" class="node">
<title>Node0</title>
<g id="a_node1"><a xlink:href="classdrain_1_1image_1_1WindowCoreBase.html" target="_top" xlink:title="Provides splitting frames.">
<polygon fill="white" stroke="black" points="0,-302 0,-321 102,-321 102,-302 0,-302"/>
<text text-anchor="middle" x="51" y="-309" font-family="Helvetica,sans-Serif" font-size="10.00">WindowCoreBase</text>
</a>
</g>
</g>
<!-- Node1 -->
<g id="node2" class="node">
<title>Node1</title>
<g id="a_node2"><a xlink:href="classdrain_1_1image_1_1OpticalFlowCore.html" target="_top" xlink:title=" ">
<polygon fill="white" stroke="black" points="138,-431 138,-450 235,-450 235,-431 138,-431"/>
<text text-anchor="middle" x="186.5" y="-438" font-family="Helvetica,sans-Serif" font-size="10.00">OpticalFlowCore</text>
</a>
</g>
</g>
<!-- Node0&#45;&gt;Node1 -->
<g id="edge1" class="edge">
<title>Node0&#45;&gt;Node1</title>
<path fill="none" stroke="midnightblue" d="M69.23,-328.15C97.44,-355.41 152.62,-408.73 175.35,-430.69"/>
<polygon fill="midnightblue" stroke="midnightblue" points="71.66,-325.63 62.03,-321.2 66.79,-330.66 71.66,-325.63"/>
</g>
<!-- Node14 -->
<g id="node15" class="node">
<title>Node14</title>
<g id="a_node15"><a xlink:href="classdrain_1_1image_1_1WindowCore.html" target="_top" xlink:title="Container for source data (input) and destination data (output). May also contain metadata of them.">
<polygon fill="white" stroke="black" points="147.5,-199 147.5,-218 225.5,-218 225.5,-199 147.5,-199"/>
<text text-anchor="middle" x="186.5" y="-206" font-family="Helvetica,sans-Serif" font-size="10.00">WindowCore</text>
</a>
</g>
</g>
<!-- Node0&#45;&gt;Node14 -->
<g id="edge14" class="edge">
<title>Node0&#45;&gt;Node14</title>
<path fill="none" stroke="midnightblue" d="M72.6,-295.61C100.57,-274.03 149.71,-236.11 172.82,-218.28"/>
<polygon fill="midnightblue" stroke="midnightblue" points="70.1,-293.11 64.32,-301.99 74.38,-298.66 70.1,-293.11"/>
</g>
<!-- Node2 -->
<g id="node3" class="node">
<title>Node2</title>
<g id="a_node3"><a xlink:href="classdrain_1_1image_1_1OpticalFlowCore1.html" target="_top" xlink:title=" ">
<polygon fill="white" stroke="black" points="315,-494 315,-513 418,-513 418,-494 315,-494"/>
<text text-anchor="middle" x="366.5" y="-501" font-family="Helvetica,sans-Serif" font-size="10.00">OpticalFlowCore1</text>
</a>
</g>
</g>
<!-- Node1&#45;&gt;Node2 -->
<g id="edge2" class="edge">
<title>Node1&#45;&gt;Node2</title>
<path fill="none" stroke="midnightblue" d="M224.11,-453.46C258.12,-465.49 307.98,-483.14 338.5,-493.95"/>
<polygon fill="midnightblue" stroke="midnightblue" points="225.13,-450.11 214.53,-450.07 222.79,-456.7 225.13,-450.11"/>
</g>
<!-- Node8 -->
<g id="node9" class="node">
<title>Node8</title>
<g id="a_node9"><a xlink:href="classdrain_1_1image_1_1OpticalFlowCore2.html" target="_top" xlink:title=" ">
<polygon fill="white" stroke="black" points="315,-431 315,-450 418,-450 418,-431 315,-431"/>
<text text-anchor="middle" x="366.5" y="-438" font-family="Helvetica,sans-Serif" font-size="10.00">OpticalFlowCore2</text>
</a>
</g>
</g>
<!-- Node1&#45;&gt;Node8 -->
<g id="edge8" class="edge">
<title>Node1&#45;&gt;Node8</title>
<path fill="none" stroke="midnightblue" d="M245.27,-440.5C267.7,-440.5 293.16,-440.5 314.86,-440.5"/>
<polygon fill="midnightblue" stroke="midnightblue" points="245.2,-437 235.2,-440.5 245.2,-444 245.2,-437"/>
</g>
<!-- Node3 -->
<g id="node4" class="node">
<title>Node3</title>
<g id="a_node4"><a xlink:href="classdrain_1_1image_1_1Window.html" target="_top" xlink:title=" ">
<polygon fill="white" stroke="black" points="514,-495.5 514,-525.5 673,-525.5 673,-495.5 514,-495.5"/>
<text text-anchor="start" x="522" y="-513.5" font-family="Helvetica,sans-Serif" font-size="10.00">Window&lt; OpticalFlowConfig,</text>
<text text-anchor="middle" x="593.5" y="-502.5" font-family="Helvetica,sans-Serif" font-size="10.00"> OpticalFlowCore1 &gt;</text>
</a>
</g>
</g>
<!-- Node2&#45;&gt;Node3 -->
<g id="edge3" class="edge">
<title>Node2&#45;&gt;Node3</title>
<path fill="none" stroke="midnightblue" d="M428.45,-505.4C454.69,-506.21 485.69,-507.18 513.65,-508.05"/>
<polygon fill="midnightblue" stroke="midnightblue" points="428.38,-501.89 418.27,-505.08 428.16,-508.89 428.38,-501.89"/>
</g>
<!-- Node4 -->
<g id="node5" class="node">
<title>Node4</title>
<g id="a_node5"><a xlink:href="classdrain_1_1image_1_1SlidingWindow.html" target="_top" xlink:title=" ">
<polygon fill="white" stroke="black" points="735.5,-501.5 735.5,-531.5 893.5,-531.5 893.5,-501.5 735.5,-501.5"/>
<text text-anchor="start" x="743.5" y="-519.5" font-family="Helvetica,sans-Serif" font-size="10.00">SlidingWindow&lt; OpticalFlow</text>
<text text-anchor="middle" x="814.5" y="-508.5" font-family="Helvetica,sans-Serif" font-size="10.00">Config, OpticalFlowCore1 &gt;</text>
</a>
</g>
</g>
<!-- Node3&#45;&gt;Node4 -->
<g id="edge4" class="edge">
<title>Node3&#45;&gt;Node4</title>
<path fill="none" stroke="midnightblue" d="M683.32,-512.93C700.59,-513.41 718.56,-513.9 735.44,-514.36"/>
<polygon fill="midnightblue" stroke="midnightblue" points="683.35,-509.43 673.25,-512.66 683.15,-516.43 683.35,-509.43"/>
</g>
<!-- Node5 -->
<g id="node6" class="node">
<title>Node5</title>
<g id="a_node6"><a xlink:href="classdrain_1_1image_1_1SlidingOpticalFlow.html" target="_top" xlink:title=" ">
<polygon fill="white" stroke="black" points="958,-551 958,-570 1095,-570 1095,-551 958,-551"/>
<text text-anchor="middle" x="1026.5" y="-558" font-family="Helvetica,sans-Serif" font-size="10.00">SlidingOpticalFlow&lt; R &gt;</text>
</a>
</g>
</g>
<!-- Node4&#45;&gt;Node5 -->
<g id="edge5" class="edge">
<title>Node4&#45;&gt;Node5</title>
<path fill="none" stroke="midnightblue" d="M897.05,-533.59C925.26,-539.5 955.85,-545.91 980.1,-550.99"/>
<polygon fill="midnightblue" stroke="midnightblue" points="897.69,-530.14 887.18,-531.52 896.25,-537 897.69,-530.14"/>
</g>
<!-- Node6 -->
<g id="node7" class="node">
<title>Node6</title>
<g id="a_node7"><a xlink:href="classdrain_1_1image_1_1SlidingOpticalFlow.html" target="_top" xlink:title=" ">
<polygon fill="white" stroke="black" points="964,-501.5 964,-531.5 1089,-531.5 1089,-501.5 964,-501.5"/>
<text text-anchor="start" x="972" y="-519.5" font-family="Helvetica,sans-Serif" font-size="10.00">SlidingOpticalFlow</text>
<text text-anchor="middle" x="1026.5" y="-508.5" font-family="Helvetica,sans-Serif" font-size="10.00">&lt; OpticalFlowCore1 &gt;</text>
</a>
</g>
</g>
<!-- Node4&#45;&gt;Node6 -->
<g id="edge6" class="edge">
<title>Node4&#45;&gt;Node6</title>
<path fill="none" stroke="midnightblue" d="M903.86,-516.5C924.09,-516.5 945.16,-516.5 963.97,-516.5"/>
<polygon fill="midnightblue" stroke="midnightblue" points="903.7,-513 893.7,-516.5 903.7,-520 903.7,-513"/>
</g>
<!-- Node7 -->
<g id="node8" class="node">
<title>Node7</title>
<g id="a_node8"><a xlink:href="classdrain_1_1image_1_1SlidingOpticalFlowWeighted.html" target="_top" xlink:title=" ">
<polygon fill="white" stroke="black" points="1165,-507 1165,-526 1319,-526 1319,-507 1165,-507"/>
<text text-anchor="middle" x="1242" y="-514" font-family="Helvetica,sans-Serif" font-size="10.00">SlidingOpticalFlowWeighted</text>
</a>
</g>
</g>
<!-- Node6&#45;&gt;Node7 -->
<g id="edge7" class="edge">
<title>Node6&#45;&gt;Node7</title>
<path fill="none" stroke="midnightblue" d="M1099.43,-516.5C1120.51,-516.5 1143.64,-516.5 1164.98,-516.5"/>
<polygon fill="midnightblue" stroke="midnightblue" points="1099.25,-513 1089.25,-516.5 1099.25,-520 1099.25,-513"/>
</g>
<!-- Node9 -->
<g id="node10" class="node">
<title>Node9</title>
<g id="a_node10"><a xlink:href="classdrain_1_1image_1_1Window.html" target="_top" xlink:title=" ">
<polygon fill="white" stroke="black" points="514,-425.5 514,-455.5 673,-455.5 673,-425.5 514,-425.5"/>
<text text-anchor="start" x="522" y="-443.5" font-family="Helvetica,sans-Serif" font-size="10.00">Window&lt; OpticalFlowConfig,</text>
<text text-anchor="middle" x="593.5" y="-432.5" font-family="Helvetica,sans-Serif" font-size="10.00"> OpticalFlowCore2 &gt;</text>
</a>
</g>
</g>
<!-- Node8&#45;&gt;Node9 -->
<g id="edge9" class="edge">
<title>Node8&#45;&gt;Node9</title>
<path fill="none" stroke="midnightblue" d="M428.45,-440.5C454.69,-440.5 485.69,-440.5 513.65,-440.5"/>
<polygon fill="midnightblue" stroke="midnightblue" points="428.27,-437 418.27,-440.5 428.27,-444 428.27,-437"/>
</g>
<!-- Node10 -->
<g id="node11" class="node">
<title>Node10</title>
<g id="a_node11"><a xlink:href="classdrain_1_1image_1_1SlidingWindow.html" target="_top" xlink:title=" ">
<polygon fill="white" stroke="black" points="735.5,-425.5 735.5,-455.5 893.5,-455.5 893.5,-425.5 735.5,-425.5"/>
<text text-anchor="start" x="743.5" y="-443.5" font-family="Helvetica,sans-Serif" font-size="10.00">SlidingWindow&lt; OpticalFlow</text>
<text text-anchor="middle" x="814.5" y="-432.5" font-family="Helvetica,sans-Serif" font-size="10.00">Config, OpticalFlowCore2 &gt;</text>
</a>
</g>
</g>
<!-- Node9&#45;&gt;Node10 -->
<g id="edge10" class="edge">
<title>Node9&#45;&gt;Node10</title>
<path fill="none" stroke="midnightblue" d="M683.32,-440.5C700.59,-440.5 718.56,-440.5 735.44,-440.5"/>
<polygon fill="midnightblue" stroke="midnightblue" points="683.25,-437 673.25,-440.5 683.25,-444 683.25,-437"/>
</g>
<!-- Node11 -->
<g id="node12" class="node">
<title>Node11</title>
<g id="a_node12"><a xlink:href="classdrain_1_1image_1_1SlidingOpticalFlow2.html" target="_top" xlink:title="Currently not in use. See SlidingOpticalFlowWeighted2 below.">
<polygon fill="white" stroke="black" points="955,-463 955,-482 1098,-482 1098,-463 955,-463"/>
<text text-anchor="middle" x="1026.5" y="-470" font-family="Helvetica,sans-Serif" font-size="10.00">SlidingOpticalFlow2&lt; R &gt;</text>
</a>
</g>
</g>
<!-- Node10&#45;&gt;Node11 -->
<g id="edge11" class="edge">
<title>Node10&#45;&gt;Node11</title>
<path fill="none" stroke="midnightblue" d="M903.71,-453.94C923.62,-456.98 944.37,-460.14 962.97,-462.97"/>
<polygon fill="midnightblue" stroke="midnightblue" points="904.11,-450.46 893.7,-452.42 903.05,-457.38 904.11,-450.46"/>
</g>
<!-- Node12 -->
<g id="node13" class="node">
<title>Node12</title>
<g id="a_node13"><a xlink:href="classdrain_1_1image_1_1SlidingOpticalFlow2.html" target="_top" xlink:title=" ">
<polygon fill="white" stroke="black" points="964,-413.5 964,-443.5 1089,-443.5 1089,-413.5 964,-413.5"/>
<text text-anchor="start" x="972" y="-431.5" font-family="Helvetica,sans-Serif" font-size="10.00">SlidingOpticalFlow2</text>
<text text-anchor="middle" x="1026.5" y="-420.5" font-family="Helvetica,sans-Serif" font-size="10.00">&lt; OpticalFlowCore2 &gt;</text>
</a>
</g>
</g>
<!-- Node10&#45;&gt;Node12 -->
<g id="edge12" class="edge">
<title>Node10&#45;&gt;Node12</title>
<path fill="none" stroke="midnightblue" d="M903.86,-435.45C924.09,-434.3 945.16,-433.09 963.97,-432.02"/>
<polygon fill="midnightblue" stroke="midnightblue" points="903.48,-431.97 893.7,-436.03 903.88,-438.96 903.48,-431.97"/>
</g>
<!-- Node13 -->
<g id="node14" class="node">
<title>Node13</title>
<g id="a_node14"><a xlink:href="classdrain_1_1image_1_1SlidingOpticalFlowWeighted2.html" target="_top" xlink:title=" ">
<polygon fill="white" stroke="black" points="1162,-419 1162,-438 1322,-438 1322,-419 1162,-419"/>
<text text-anchor="middle" x="1242" y="-426" font-family="Helvetica,sans-Serif" font-size="10.00">SlidingOpticalFlowWeighted2</text>
</a>
</g>
</g>
<!-- Node12&#45;&gt;Node13 -->
<g id="edge13" class="edge">
<title>Node12&#45;&gt;Node13</title>
<path fill="none" stroke="midnightblue" d="M1099.27,-428.5C1119.38,-428.5 1141.35,-428.5 1161.86,-428.5"/>
<polygon fill="midnightblue" stroke="midnightblue" points="1099.25,-425 1089.25,-428.5 1099.25,-432 1099.25,-425"/>
</g>
<!-- Node15 -->
<g id="node16" class="node">
<title>Node15</title>
<g id="a_node16"><a xlink:href="classdrain_1_1image_1_1WeightedWindowCore.html" target="_top" xlink:title=" ">
<polygon fill="white" stroke="black" points="304,-297 304,-316 429,-316 429,-297 304,-297"/>
<text text-anchor="middle" x="366.5" y="-304" font-family="Helvetica,sans-Serif" font-size="10.00">WeightedWindowCore</text>
</a>
</g>
</g>
<!-- Node14&#45;&gt;Node15 -->
<g id="edge15" class="edge">
<title>Node14&#45;&gt;Node15</title>
<path fill="none" stroke="midnightblue" d="M201.04,-226.18C216.07,-244.5 242.07,-272.51 271,-287.5 281.1,-292.74 292.51,-296.53 303.81,-299.28"/>
<polygon fill="midnightblue" stroke="midnightblue" points="203.54,-223.71 194.58,-218.07 198.07,-228.07 203.54,-223.71"/>
</g>
<!-- Node33 -->
<g id="node34" class="node">
<title>Node33</title>
<g id="a_node34"><a xlink:href="classdrain_1_1image_1_1Window.html" target="_top" xlink:title="Base class for windows applied by WIndowOp&#39;s.">
<polygon fill="white" stroke="black" points="317.5,-259 317.5,-278 415.5,-278 415.5,-259 317.5,-259"/>
<text text-anchor="middle" x="366.5" y="-266" font-family="Helvetica,sans-Serif" font-size="10.00">Window&lt; C, R &gt;</text>
</a>
</g>
</g>
<!-- Node14&#45;&gt;Node33 -->
<g id="edge33" class="edge">
<title>Node14&#45;&gt;Node33</title>
<path fill="none" stroke="midnightblue" d="M212.75,-223.03C228.95,-231.81 250.68,-242.6 271,-249.5 285.74,-254.51 302.24,-258.38 317.28,-261.29"/>
<polygon fill="midnightblue" stroke="midnightblue" points="214.35,-219.92 203.91,-218.14 210.96,-226.04 214.35,-219.92"/>
</g>
<!-- Node34 -->
<g id="node35" class="node">
<title>Node34</title>
<g id="a_node35"><a xlink:href="classdrain_1_1image_1_1Window.html" target="_top" xlink:title=" ">
<polygon fill="white" stroke="black" points="274,-221 274,-240 459,-240 459,-221 274,-221"/>
<text text-anchor="middle" x="366.5" y="-228" font-family="Helvetica,sans-Serif" font-size="10.00">Window&lt; GaussianWindowConf &gt;</text>
</a>
</g>
</g>
<!-- Node14&#45;&gt;Node34 -->
<g id="edge34" class="edge">
<title>Node14&#45;&gt;Node34</title>
<path fill="none" stroke="midnightblue" d="M235.99,-214.49C252.21,-216.5 270.72,-218.79 288.57,-220.99"/>
<polygon fill="midnightblue" stroke="midnightblue" points="236.04,-210.97 225.69,-213.22 235.18,-217.92 236.04,-210.97"/>
</g>
<!-- Node35 -->
<g id="node36" class="node">
<title>Node35</title>
<g id="a_node36"><a xlink:href="classdrain_1_1image_1_1Window.html" target="_top" xlink:title=" ">
<polygon fill="white" stroke="black" points="278.5,-171.5 278.5,-201.5 454.5,-201.5 454.5,-171.5 278.5,-171.5"/>
<text text-anchor="start" x="286.5" y="-189.5" font-family="Helvetica,sans-Serif" font-size="10.00">Window&lt; GaussianWindowConf,</text>
<text text-anchor="middle" x="366.5" y="-178.5" font-family="Helvetica,sans-Serif" font-size="10.00"> WindowCore &gt;</text>
</a>
</g>
</g>
<!-- Node14&#45;&gt;Node35 -->
<g id="edge35" class="edge">
<title>Node14&#45;&gt;Node35</title>
<path fill="none" stroke="midnightblue" d="M235.9,-202.52C249.07,-200.89 263.75,-199.08 278.37,-197.27"/>
<polygon fill="midnightblue" stroke="midnightblue" points="235.18,-199.08 225.69,-203.78 236.04,-206.03 235.18,-199.08"/>
</g>
<!-- Node38 -->
<g id="node39" class="node">
<title>Node38</title>
<g id="a_node39"><a xlink:href="classdrain_1_1image_1_1Window.html" target="_top" xlink:title=" ">
<polygon fill="white" stroke="black" points="271,-122.5 271,-152.5 462,-152.5 462,-122.5 271,-122.5"/>
<text text-anchor="start" x="279" y="-140.5" font-family="Helvetica,sans-Serif" font-size="10.00">Window&lt; HistogramWindowConfig,</text>
<text text-anchor="middle" x="366.5" y="-129.5" font-family="Helvetica,sans-Serif" font-size="10.00"> WindowCore &gt;</text>
</a>
</g>
</g>
<!-- Node14&#45;&gt;Node38 -->
<g id="edge38" class="edge">
<title>Node14&#45;&gt;Node38</title>
<path fill="none" stroke="midnightblue" d="M211.18,-193.41C227.49,-183.53 249.94,-170.94 271,-162.5 280.29,-158.78 290.32,-155.44 300.26,-152.51"/>
<polygon fill="midnightblue" stroke="midnightblue" points="209.01,-190.63 202.34,-198.86 212.69,-196.59 209.01,-190.63"/>
</g>
<!-- Node43 -->
<g id="node44" class="node">
<title>Node43</title>
<g id="a_node44"><a xlink:href="classdrain_1_1image_1_1Window.html" target="_top" xlink:title=" ">
<polygon fill="white" stroke="black" points="292,-84 292,-103 441,-103 441,-84 292,-84"/>
<text text-anchor="middle" x="366.5" y="-91" font-family="Helvetica,sans-Serif" font-size="10.00">Window&lt; WindowConfig &gt;</text>
</a>
</g>
</g>
<!-- Node14&#45;&gt;Node43 -->
<g id="edge43" class="edge">
<title>Node14&#45;&gt;Node43</title>
<path fill="none" stroke="midnightblue" d="M198.35,-190.2C212.3,-168.36 238.64,-132.43 271,-113.5 278.38,-109.18 286.57,-105.79 294.96,-103.13"/>
<polygon fill="midnightblue" stroke="midnightblue" points="195.27,-188.52 192.99,-198.87 201.22,-192.21 195.27,-188.52"/>
</g>
<!-- Node44 -->
<g id="node45" class="node">
<title>Node44</title>
<g id="a_node45"><a xlink:href="classdrain_1_1image_1_1Window.html" target="_top" xlink:title=" ">
<polygon fill="white" stroke="black" points="296.5,-34.5 296.5,-64.5 436.5,-64.5 436.5,-34.5 296.5,-34.5"/>
<text text-anchor="start" x="304.5" y="-52.5" font-family="Helvetica,sans-Serif" font-size="10.00">Window&lt; WindowConfig,</text>
<text text-anchor="middle" x="366.5" y="-41.5" font-family="Helvetica,sans-Serif" font-size="10.00"> WindowCore &gt;</text>
</a>
</g>
</g>
<!-- Node14&#45;&gt;Node44 -->
<g id="edge44" class="edge">
<title>Node14&#45;&gt;Node44</title>
<path fill="none" stroke="midnightblue" d="M194.23,-189.09C205.44,-159.71 230.74,-104.23 271,-74.5 278.51,-68.96 287.15,-64.64 296.1,-61.28"/>
<polygon fill="midnightblue" stroke="midnightblue" points="190.89,-188.05 190.74,-198.64 197.46,-190.45 190.89,-188.05"/>
</g>
<!-- Node16 -->
<g id="node17" class="node">
<title>Node16</title>
<g id="a_node17"><a xlink:href="classdrain_1_1image_1_1MultiChannelWindowCore.html" target="_top" xlink:title=" ">
<polygon fill="white" stroke="black" points="522,-370 522,-389 665,-389 665,-370 522,-370"/>
<text text-anchor="middle" x="593.5" y="-377" font-family="Helvetica,sans-Serif" font-size="10.00">MultiChannelWindowCore</text>
</a>
</g>
</g>
<!-- Node15&#45;&gt;Node16 -->
<g id="edge16" class="edge">
<title>Node15&#45;&gt;Node16</title>
<path fill="none" stroke="midnightblue" d="M396.7,-320.5C422.76,-332.53 462.22,-349.61 498,-360.5 510.09,-364.18 523.26,-367.34 535.84,-369.97"/>
<polygon fill="midnightblue" stroke="midnightblue" points="397.94,-317.22 387.4,-316.16 394.98,-323.56 397.94,-317.22"/>
</g>
<!-- Node21 -->
<g id="node22" class="node">
<title>Node21</title>
<g id="a_node22"><a xlink:href="classrack_1_1RadarWindowCore.html" target="_top" xlink:title=" ">
<polygon fill="white" stroke="black" points="540,-332 540,-351 647,-351 647,-332 540,-332"/>
<text text-anchor="middle" x="593.5" y="-339" font-family="Helvetica,sans-Serif" font-size="10.00">RadarWindowCore</text>
</a>
</g>
</g>
<!-- Node15&#45;&gt;Node21 -->
<g id="edge21" class="edge">
<title>Node15&#45;&gt;Node21</title>
<path fill="none" stroke="midnightblue" d="M438.66,-317.57C471.42,-322.66 509.6,-328.6 539.74,-333.29"/>
<polygon fill="midnightblue" stroke="midnightblue" points="439.1,-314.1 428.69,-316.02 438.03,-321.01 439.1,-314.1"/>
</g>
<!-- Node22 -->
<g id="node23" class="node">
<title>Node22</title>
<g id="a_node23"><a xlink:href="classdrain_1_1image_1_1Window.html" target="_top" xlink:title=" ">
<polygon fill="white" stroke="black" points="505.5,-282.5 505.5,-312.5 681.5,-312.5 681.5,-282.5 505.5,-282.5"/>
<text text-anchor="start" x="513.5" y="-300.5" font-family="Helvetica,sans-Serif" font-size="10.00">Window&lt; GaussianWindowConf,</text>
<text text-anchor="middle" x="593.5" y="-289.5" font-family="Helvetica,sans-Serif" font-size="10.00"> WeightedWindowCore &gt;</text>
</a>
</g>
</g>
<!-- Node15&#45;&gt;Node22 -->
<g id="edge22" class="edge">
<title>Node15&#45;&gt;Node22</title>
<path fill="none" stroke="midnightblue" d="M439.36,-303.63C460.29,-302.79 483.38,-301.86 505.15,-300.99"/>
<polygon fill="midnightblue" stroke="midnightblue" points="439.13,-300.13 429.28,-304.03 439.41,-307.13 439.13,-300.13"/>
</g>
<!-- Node28 -->
<g id="node29" class="node">
<title>Node28</title>
<g id="a_node29"><a xlink:href="classdrain_1_1image_1_1Window.html" target="_top" xlink:title=" ">
<polygon fill="white" stroke="black" points="498,-233.5 498,-263.5 689,-263.5 689,-233.5 498,-233.5"/>
<text text-anchor="start" x="506" y="-251.5" font-family="Helvetica,sans-Serif" font-size="10.00">Window&lt; HistogramWindowConfig,</text>
<text text-anchor="middle" x="593.5" y="-240.5" font-family="Helvetica,sans-Serif" font-size="10.00"> WeightedWindowCore &gt;</text>
</a>
</g>
</g>
<!-- Node15&#45;&gt;Node28 -->
<g id="edge28" class="edge">
<title>Node15&#45;&gt;Node28</title>
<path fill="none" stroke="midnightblue" d="M433.36,-294.78C443.03,-292.62 452.82,-290.19 462,-287.5 478.48,-282.68 481.68,-278.81 498,-273.5 508.81,-269.98 520.44,-266.59 531.71,-263.5"/>
<polygon fill="midnightblue" stroke="midnightblue" points="432.4,-291.41 423.36,-296.93 433.87,-298.25 432.4,-291.41"/>
</g>
<!-- Node17 -->
<g id="node18" class="node">
<title>Node17</title>
<g id="a_node18"><a xlink:href="classdrain_1_1image_1_1Window.html" target="_top" xlink:title=" ">
<polygon fill="white" stroke="black" points="736,-364.5 736,-394.5 893,-394.5 893,-364.5 736,-364.5"/>
<text text-anchor="start" x="744" y="-382.5" font-family="Helvetica,sans-Serif" font-size="10.00">Window&lt; WindowConfig,</text>
<text text-anchor="middle" x="814.5" y="-371.5" font-family="Helvetica,sans-Serif" font-size="10.00"> MultiChannelWindowCore &gt;</text>
</a>
</g>
</g>
<!-- Node16&#45;&gt;Node17 -->
<g id="edge17" class="edge">
<title>Node16&#45;&gt;Node17</title>
<path fill="none" stroke="midnightblue" d="M675.47,-379.5C695.17,-379.5 716.2,-379.5 735.75,-379.5"/>
<polygon fill="midnightblue" stroke="midnightblue" points="675.3,-376 665.3,-379.5 675.3,-383 675.3,-376"/>
</g>
<!-- Node18 -->
<g id="node19" class="node">
<title>Node18</title>
<g id="a_node19"><a xlink:href="classdrain_1_1image_1_1SlidingWindow.html" target="_top" xlink:title=" ">
<polygon fill="white" stroke="black" points="940,-364.5 940,-394.5 1113,-394.5 1113,-364.5 940,-364.5"/>
<text text-anchor="start" x="948" y="-382.5" font-family="Helvetica,sans-Serif" font-size="10.00">SlidingWindow&lt; WindowConfig,</text>
<text text-anchor="middle" x="1026.5" y="-371.5" font-family="Helvetica,sans-Serif" font-size="10.00"> MultiChannelWindowCore &gt;</text>
</a>
</g>
</g>
<!-- Node17&#45;&gt;Node18 -->
<g id="edge18" class="edge">
<title>Node17&#45;&gt;Node18</title>
<path fill="none" stroke="midnightblue" d="M903.17,-379.5C915.27,-379.5 927.68,-379.5 939.74,-379.5"/>
<polygon fill="midnightblue" stroke="midnightblue" points="903.1,-376 893.1,-379.5 903.1,-383 903.1,-376"/>
</g>
<!-- Node19 -->
<g id="node20" class="node">
<title>Node19</title>
<g id="a_node20"><a xlink:href="classdrain_1_1image_1_1FlowAverageWindow.html" target="_top" xlink:title="Window average that preserves the magnitude.">
<polygon fill="white" stroke="black" points="1182.5,-370 1182.5,-389 1301.5,-389 1301.5,-370 1182.5,-370"/>
<text text-anchor="middle" x="1242" y="-377" font-family="Helvetica,sans-Serif" font-size="10.00">FlowAverageWindow</text>
</a>
</g>
</g>
<!-- Node18&#45;&gt;Node19 -->
<g id="edge19" class="edge">
<title>Node18&#45;&gt;Node19</title>
<path fill="none" stroke="midnightblue" d="M1123.24,-379.5C1143.35,-379.5 1163.99,-379.5 1182.25,-379.5"/>
<polygon fill="midnightblue" stroke="midnightblue" points="1123.11,-376 1113.11,-379.5 1123.11,-383 1123.11,-376"/>
</g>
<!-- Node20 -->
<g id="node21" class="node">
<title>Node20</title>
<g id="a_node21"><a xlink:href="classdrain_1_1image_1_1FlowAverageWindowWeighted.html" target="_top" xlink:title=" ">
<polygon fill="white" stroke="black" points="1374,-370 1374,-389 1539,-389 1539,-370 1374,-370"/>
<text text-anchor="middle" x="1456.5" y="-377" font-family="Helvetica,sans-Serif" font-size="10.00">FlowAverageWindowWeighted</text>
</a>
</g>
</g>
<!-- Node19&#45;&gt;Node20 -->
<g id="edge20" class="edge">
<title>Node19&#45;&gt;Node20</title>
<path fill="none" stroke="midnightblue" d="M1311.8,-379.5C1331.64,-379.5 1353.47,-379.5 1374,-379.5"/>
<polygon fill="midnightblue" stroke="midnightblue" points="1311.63,-376 1301.63,-379.5 1311.63,-383 1311.63,-376"/>
</g>
<!-- Node23 -->
<g id="node24" class="node">
<title>Node23</title>
<g id="a_node24"><a xlink:href="classdrain_1_1image_1_1GaussianStripe.html" target="_top" xlink:title=" ">
<polygon fill="white" stroke="black" points="745,-315.5 745,-345.5 884,-345.5 884,-315.5 745,-315.5"/>
<text text-anchor="start" x="753" y="-333.5" font-family="Helvetica,sans-Serif" font-size="10.00">GaussianStripe&lt; DIR,</text>
<text text-anchor="middle" x="814.5" y="-322.5" font-family="Helvetica,sans-Serif" font-size="10.00"> WeightedWindowCore &gt;</text>
</a>
</g>
</g>
<!-- Node22&#45;&gt;Node23 -->
<g id="edge23" class="edge">
<title>Node22&#45;&gt;Node23</title>
<path fill="none" stroke="midnightblue" d="M691.6,-312.13C709.54,-314.84 727.94,-317.61 744.83,-320.15"/>
<polygon fill="midnightblue" stroke="midnightblue" points="692.09,-308.67 681.68,-310.64 691.05,-315.59 692.09,-308.67"/>
</g>
<!-- Node26 -->
<g id="node27" class="node">
<title>Node26</title>
<g id="a_node27"><a xlink:href="classdrain_1_1image_1_1GaussianStripe.html" target="_top" xlink:title=" ">
<polygon fill="white" stroke="black" points="745,-266.5 745,-296.5 884,-296.5 884,-266.5 745,-266.5"/>
<text text-anchor="start" x="753" y="-284.5" font-family="Helvetica,sans-Serif" font-size="10.00">GaussianStripe&lt; true,</text>
<text text-anchor="middle" x="814.5" y="-273.5" font-family="Helvetica,sans-Serif" font-size="10.00"> WeightedWindowCore &gt;</text>
</a>
</g>
</g>
<!-- Node22&#45;&gt;Node26 -->
<g id="edge26" class="edge">
<title>Node22&#45;&gt;Node26</title>
<path fill="none" stroke="midnightblue" d="M692.09,-290.37C709.88,-289.07 728.1,-287.74 744.83,-286.52"/>
<polygon fill="midnightblue" stroke="midnightblue" points="691.4,-286.91 681.68,-291.13 691.91,-293.89 691.4,-286.91"/>
</g>
<!-- Node24 -->
<g id="node25" class="node">
<title>Node24</title>
<g id="a_node25"><a xlink:href="classdrain_1_1image_1_1GaussianStripeWeighted.html" target="_top" xlink:title=" ">
<polygon fill="white" stroke="black" points="958,-315.5 958,-345.5 1095,-345.5 1095,-315.5 958,-315.5"/>
<text text-anchor="start" x="966" y="-333.5" font-family="Helvetica,sans-Serif" font-size="10.00">GaussianStripeWeighted</text>
<text text-anchor="middle" x="1026.5" y="-322.5" font-family="Helvetica,sans-Serif" font-size="10.00">&lt; false &gt;</text>
</a>
</g>
</g>
<!-- Node23&#45;&gt;Node24 -->
<g id="edge24" class="edge">
<title>Node23&#45;&gt;Node24</title>
<path fill="none" stroke="midnightblue" d="M894.35,-330.5C915.18,-330.5 937.47,-330.5 957.66,-330.5"/>
<polygon fill="midnightblue" stroke="midnightblue" points="894.26,-327 884.26,-330.5 894.26,-334 894.26,-327"/>
</g>
<!-- Node25 -->
<g id="node26" class="node">
<title>Node25</title>
<g id="a_node26"><a xlink:href="classrack_1_1GaussianStripeVertPolarWeighted.html" target="_top" xlink:title=" ">
<polygon fill="white" stroke="black" points="1151,-321 1151,-340 1333,-340 1333,-321 1151,-321"/>
<text text-anchor="middle" x="1242" y="-328" font-family="Helvetica,sans-Serif" font-size="10.00">GaussianStripeVertPolarWeighted</text>
</a>
</g>
</g>
<!-- Node24&#45;&gt;Node25 -->
<g id="edge25" class="edge">
<title>Node24&#45;&gt;Node25</title>
<path fill="none" stroke="midnightblue" d="M1105.18,-330.5C1120.01,-330.5 1135.66,-330.5 1150.84,-330.5"/>
<polygon fill="midnightblue" stroke="midnightblue" points="1105.05,-327 1095.05,-330.5 1105.05,-334 1105.05,-327"/>
</g>
<!-- Node27 -->
<g id="node28" class="node">
<title>Node27</title>
<g id="a_node28"><a xlink:href="classdrain_1_1image_1_1GaussianStripeWeighted.html" target="_top" xlink:title=" ">
<polygon fill="white" stroke="black" points="958,-266.5 958,-296.5 1095,-296.5 1095,-266.5 958,-266.5"/>
<text text-anchor="start" x="966" y="-284.5" font-family="Helvetica,sans-Serif" font-size="10.00">GaussianStripeWeighted</text>
<text text-anchor="middle" x="1026.5" y="-273.5" font-family="Helvetica,sans-Serif" font-size="10.00">&lt; DIR &gt;</text>
</a>
</g>
</g>
<!-- Node26&#45;&gt;Node27 -->
<g id="edge27" class="edge">
<title>Node26&#45;&gt;Node27</title>
<path fill="none" stroke="midnightblue" d="M894.35,-281.5C915.18,-281.5 937.47,-281.5 957.66,-281.5"/>
<polygon fill="midnightblue" stroke="midnightblue" points="894.26,-278 884.26,-281.5 894.26,-285 894.26,-278"/>
</g>
<!-- Node29 -->
<g id="node30" class="node">
<title>Node29</title>
<g id="a_node30"><a xlink:href="classdrain_1_1image_1_1SlidingWindow.html" target="_top" xlink:title=" ">
<polygon fill="white" stroke="black" points="725,-206 725,-247 904,-247 904,-206 725,-206"/>
<text text-anchor="start" x="733" y="-235" font-family="Helvetica,sans-Serif" font-size="10.00">SlidingWindow&lt; Histogram</text>
<text text-anchor="start" x="733" y="-224" font-family="Helvetica,sans-Serif" font-size="10.00">WindowConfig, WeightedWindow</text>
<text text-anchor="middle" x="814.5" y="-213" font-family="Helvetica,sans-Serif" font-size="10.00">Core &gt;</text>
</a>
</g>
</g>
<!-- Node28&#45;&gt;Node29 -->
<g id="edge29" class="edge">
<title>Node28&#45;&gt;Node29</title>
<path fill="none" stroke="midnightblue" d="M699.27,-237.97C707.81,-237.12 716.39,-236.26 724.79,-235.41"/>
<polygon fill="midnightblue" stroke="midnightblue" points="698.88,-234.5 689.28,-238.98 699.58,-241.46 698.88,-234.5"/>
</g>
<!-- Node30 -->
<g id="node31" class="node">
<title>Node30</title>
<g id="a_node31"><a xlink:href="classdrain_1_1image_1_1SlidingWindowHistogram.html" target="_top" xlink:title=" ">
<polygon fill="white" stroke="black" points="953,-211.5 953,-241.5 1100,-241.5 1100,-211.5 953,-211.5"/>
<text text-anchor="start" x="961" y="-229.5" font-family="Helvetica,sans-Serif" font-size="10.00">SlidingWindowHistogram</text>
<text text-anchor="middle" x="1026.5" y="-218.5" font-family="Helvetica,sans-Serif" font-size="10.00">&lt; WeightedWindowCore &gt;</text>
</a>
</g>
</g>
<!-- Node29&#45;&gt;Node30 -->
<g id="edge30" class="edge">
<title>Node29&#45;&gt;Node30</title>
<path fill="none" stroke="midnightblue" d="M914.58,-226.5C927.51,-226.5 940.56,-226.5 952.94,-226.5"/>
<polygon fill="midnightblue" stroke="midnightblue" points="914.25,-223 904.25,-226.5 914.25,-230 914.25,-223"/>
</g>
<!-- Node31 -->
<g id="node32" class="node">
<title>Node31</title>
<g id="a_node32"><a xlink:href="classdrain_1_1image_1_1SlidingWindowHistogramWeighted.html" target="_top" xlink:title=" ">
<polygon fill="white" stroke="black" points="1149,-217 1149,-236 1335,-236 1335,-217 1149,-217"/>
<text text-anchor="middle" x="1242" y="-224" font-family="Helvetica,sans-Serif" font-size="10.00">SlidingWindowHistogramWeighted</text>
</a>
</g>
</g>
<!-- Node30&#45;&gt;Node31 -->
<g id="edge31" class="edge">
<title>Node30&#45;&gt;Node31</title>
<path fill="none" stroke="midnightblue" d="M1110.16,-226.5C1122.87,-226.5 1136.06,-226.5 1148.96,-226.5"/>
<polygon fill="midnightblue" stroke="midnightblue" points="1110.08,-223 1100.08,-226.5 1110.08,-230 1110.08,-223"/>
</g>
<!-- Node32 -->
<g id="node33" class="node">
<title>Node32</title>
<g id="a_node33"><a xlink:href="classdrain_1_1image_1_1SlidingWindowMedianWeighted.html" target="_top" xlink:title=" ">
<polygon fill="white" stroke="black" points="1371,-217 1371,-236 1542,-236 1542,-217 1371,-217"/>
<text text-anchor="middle" x="1456.5" y="-224" font-family="Helvetica,sans-Serif" font-size="10.00">SlidingWindowMedianWeighted</text>
</a>
</g>
</g>
<!-- Node31&#45;&gt;Node32 -->
<g id="edge32" class="edge">
<title>Node31&#45;&gt;Node32</title>
<path fill="none" stroke="midnightblue" d="M1345.52,-226.5C1353.94,-226.5 1362.4,-226.5 1370.67,-226.5"/>
<polygon fill="midnightblue" stroke="midnightblue" points="1345.28,-223 1335.28,-226.5 1345.28,-230 1345.28,-223"/>
</g>
<!-- Node36 -->
<g id="node37" class="node">
<title>Node36</title>
<g id="a_node37"><a xlink:href="classdrain_1_1image_1_1GaussianStripe.html" target="_top" xlink:title=" ">
<polygon fill="white" stroke="black" points="522,-195 522,-214 665,-214 665,-195 522,-195"/>
<text text-anchor="middle" x="593.5" y="-202" font-family="Helvetica,sans-Serif" font-size="10.00">GaussianStripe&lt; DIR, R &gt;</text>
</a>
</g>
</g>
<!-- Node35&#45;&gt;Node36 -->
<g id="edge36" class="edge">
<title>Node35&#45;&gt;Node36</title>
<path fill="none" stroke="midnightblue" d="M464.79,-194.28C484.01,-195.82 503.83,-197.41 521.95,-198.86"/>
<polygon fill="midnightblue" stroke="midnightblue" points="465.06,-190.79 454.81,-193.49 464.5,-197.77 465.06,-190.79"/>
</g>
<!-- Node37 -->
<g id="node38" class="node">
<title>Node37</title>
<g id="a_node38"><a xlink:href="classdrain_1_1image_1_1GaussianStripe.html" target="_top" xlink:title=" ">
<polygon fill="white" stroke="black" points="506.5,-157 506.5,-176 680.5,-176 680.5,-157 506.5,-157"/>
<text text-anchor="middle" x="593.5" y="-164" font-family="Helvetica,sans-Serif" font-size="10.00">GaussianStripe&lt; WindowCore &gt;</text>
</a>
</g>
</g>
<!-- Node35&#45;&gt;Node37 -->
<g id="edge37" class="edge">
<title>Node35&#45;&gt;Node37</title>
<path fill="none" stroke="midnightblue" d="M464.81,-177.85C478.63,-176.62 492.76,-175.37 506.35,-174.16"/>
<polygon fill="midnightblue" stroke="midnightblue" points="464.46,-174.37 454.81,-178.74 465.08,-181.34 464.46,-174.37"/>
</g>
<!-- Node39 -->
<g id="node40" class="node">
<title>Node39</title>
<g id="a_node40"><a xlink:href="classdrain_1_1image_1_1SlidingWindow.html" target="_top" xlink:title=" ">
<polygon fill="white" stroke="black" points="510.5,-107.5 510.5,-137.5 676.5,-137.5 676.5,-107.5 510.5,-107.5"/>
<text text-anchor="start" x="518.5" y="-125.5" font-family="Helvetica,sans-Serif" font-size="10.00">SlidingWindow&lt; Histogram</text>
<text text-anchor="middle" x="593.5" y="-114.5" font-family="Helvetica,sans-Serif" font-size="10.00">WindowConfig, WindowCore &gt;</text>
</a>
</g>
</g>
<!-- Node38&#45;&gt;Node39 -->
<g id="edge39" class="edge">
<title>Node38&#45;&gt;Node39</title>
<path fill="none" stroke="midnightblue" d="M472.43,-130.5C485.15,-129.66 498,-128.8 510.32,-127.98"/>
<polygon fill="midnightblue" stroke="midnightblue" points="472.01,-127.02 462.27,-131.18 472.48,-134.01 472.01,-127.02"/>
</g>
<!-- Node40 -->
<g id="node41" class="node">
<title>Node40</title>
<g id="a_node41"><a xlink:href="classdrain_1_1image_1_1SlidingWindowHistogram.html" target="_top" xlink:title="Base class for median and str histogram based statistics.">
<polygon fill="white" stroke="black" points="730,-135 730,-154 899,-154 899,-135 730,-135"/>
<text text-anchor="middle" x="814.5" y="-142" font-family="Helvetica,sans-Serif" font-size="10.00">SlidingWindowHistogram&lt; R &gt;</text>
</a>
</g>
</g>
<!-- Node39&#45;&gt;Node40 -->
<g id="edge40" class="edge">
<title>Node39&#45;&gt;Node40</title>
<path fill="none" stroke="midnightblue" d="M686.94,-131.79C701.15,-133.21 715.76,-134.68 729.77,-136.09"/>
<polygon fill="midnightblue" stroke="midnightblue" points="686.97,-128.27 676.67,-130.75 686.27,-135.24 686.97,-128.27"/>
</g>
<!-- Node41 -->
<g id="node42" class="node">
<title>Node41</title>
<g id="a_node42"><a xlink:href="classdrain_1_1image_1_1SlidingWindowHistogram.html" target="_top" xlink:title=" ">
<polygon fill="white" stroke="black" points="744.5,-85.5 744.5,-115.5 884.5,-115.5 884.5,-85.5 744.5,-85.5"/>
<text text-anchor="start" x="752.5" y="-103.5" font-family="Helvetica,sans-Serif" font-size="10.00">SlidingWindowHistogram</text>
<text text-anchor="middle" x="814.5" y="-92.5" font-family="Helvetica,sans-Serif" font-size="10.00">&lt; WindowCore &gt;</text>
</a>
</g>
</g>
<!-- Node39&#45;&gt;Node41 -->
<g id="edge41" class="edge">
<title>Node39&#45;&gt;Node41</title>
<path fill="none" stroke="midnightblue" d="M686.71,-113.24C706.06,-111.29 726.15,-109.27 744.48,-107.43"/>
<polygon fill="midnightblue" stroke="midnightblue" points="686.27,-109.76 676.67,-114.25 686.97,-116.73 686.27,-109.76"/>
</g>
<!-- Node42 -->
<g id="node43" class="node">
<title>Node42</title>
<g id="a_node43"><a xlink:href="classdrain_1_1image_1_1SlidingWindowMedian.html" target="_top" xlink:title=" ">
<polygon fill="white" stroke="black" points="964,-91 964,-110 1089,-110 1089,-91 964,-91"/>
<text text-anchor="middle" x="1026.5" y="-98" font-family="Helvetica,sans-Serif" font-size="10.00">SlidingWindowMedian</text>
</a>
</g>
</g>
<!-- Node41&#45;&gt;Node42 -->
<g id="edge42" class="edge">
<title>Node41&#45;&gt;Node42</title>
<path fill="none" stroke="midnightblue" d="M894.59,-100.5C917.5,-100.5 942.16,-100.5 963.84,-100.5"/>
<polygon fill="midnightblue" stroke="midnightblue" points="894.55,-97 884.55,-100.5 894.55,-104 894.55,-97"/>
</g>
<!-- Node45 -->
<g id="node46" class="node">
<title>Node45</title>
<g id="a_node46"><a xlink:href="classdrain_1_1image_1_1SlidingWindow.html" target="_top" xlink:title=" ">
<polygon fill="white" stroke="black" points="528,-50 528,-69 659,-69 659,-50 528,-50"/>
<text text-anchor="middle" x="593.5" y="-57" font-family="Helvetica,sans-Serif" font-size="10.00">SlidingWindow&lt; C, R &gt;</text>
</a>
</g>
</g>
<!-- Node44&#45;&gt;Node45 -->
<g id="edge45" class="edge">
<title>Node44&#45;&gt;Node45</title>
<path fill="none" stroke="midnightblue" d="M446.58,-53.01C473.16,-54.2 502.48,-55.5 527.82,-56.63"/>
<polygon fill="midnightblue" stroke="midnightblue" points="446.68,-49.52 436.54,-52.57 446.37,-56.51 446.68,-49.52"/>
</g>
<!-- Node46 -->
<g id="node47" class="node">
<title>Node46</title>
<g id="a_node47"><a xlink:href="classdrain_1_1image_1_1SlidingWindow.html" target="_top" xlink:title=" ">
<polygon fill="white" stroke="black" points="507,-0.5 507,-30.5 680,-30.5 680,-0.5 507,-0.5"/>
<text text-anchor="start" x="515" y="-18.5" font-family="Helvetica,sans-Serif" font-size="10.00">SlidingWindow&lt; WindowConfig,</text>
<text text-anchor="middle" x="593.5" y="-7.5" font-family="Helvetica,sans-Serif" font-size="10.00"> WindowCore &gt;</text>
</a>
</g>
</g>
<!-- Node44&#45;&gt;Node46 -->
<g id="edge46" class="edge">
<title>Node44&#45;&gt;Node46</title>
<path fill="none" stroke="midnightblue" d="M446.59,-37.55C466.11,-34.6 487.1,-31.43 506.91,-28.43"/>
<polygon fill="midnightblue" stroke="midnightblue" points="445.9,-34.11 436.54,-39.07 446.95,-41.03 445.9,-34.11"/>
</g>
<!-- Node47 -->
<g id="node48" class="node">
<title>Node47</title>
<g id="a_node48"><a xlink:href="classdrain_1_1image_1_1SlidingStripe.html" target="_top" xlink:title="A horizontal, one&#45;dimensional SlidingWindow (Nx1).">
<polygon fill="white" stroke="black" points="758.5,-0.5 758.5,-30.5 870.5,-30.5 870.5,-0.5 758.5,-0.5"/>
<text text-anchor="start" x="766.5" y="-18.5" font-family="Helvetica,sans-Serif" font-size="10.00">SlidingStripe&lt; C, R,</text>
<text text-anchor="middle" x="814.5" y="-7.5" font-family="Helvetica,sans-Serif" font-size="10.00"> DIR &gt;</text>
</a>
</g>
</g>
<!-- Node46&#45;&gt;Node47 -->
<g id="edge47" class="edge">
<title>Node46&#45;&gt;Node47</title>
<path fill="none" stroke="midnightblue" d="M690.35,-15.5C713.58,-15.5 737.64,-15.5 758.26,-15.5"/>
<polygon fill="midnightblue" stroke="midnightblue" points="690.11,-12 680.11,-15.5 690.11,-19 690.11,-12"/>
</g>
</g>
</svg>
