<?xml version="1.0" encoding="UTF-8" standalone="no"?>
<!DOCTYPE svg PUBLIC "-//W3C//DTD SVG 1.1//EN"
 "http://www.w3.org/Graphics/SVG/1.1/DTD/svg11.dtd">
<!-- Generated by graphviz version 2.43.0 (0)
 -->
<!-- Title: Graphical Class Hierarchy Pages: 1 -->
<svg width="395pt" height="458pt"
 viewBox="0.00 0.00 395.00 458.00" xmlns="http://www.w3.org/2000/svg" xmlns:xlink="http://www.w3.org/1999/xlink">
<g id="graph0" class="graph" transform="scale(1 1) rotate(0) translate(4 454)">
<title>Graphical Class Hierarchy</title>
<polygon fill="white" stroke="transparent" points="-4,4 -4,-454 391,-454 391,4 -4,4"/>
<!-- Node55 -->
<g id="node1" class="node">
<title>Node55</title>
<g id="a_node1"><a xlink:title=" ">
<polygon fill="white" stroke="#bfbfbf" points="0,-221.5 0,-240.5 47,-240.5 47,-221.5 0,-221.5"/>
<text text-anchor="middle" x="23.5" y="-228.5" font-family="Helvetica,sans-Serif" font-size="10.00">vector</text>
</a>
</g>
</g>
<!-- Node0 -->
<g id="node2" class="node">
<title>Node0</title>
<g id="a_node2"><a xlink:href="classdrain_1_1Histogram.html" target="_top" xlink:title="Class for computing a histogram and some statistics: average, min, max, mean, std....">
<polygon fill="white" stroke="black" points="118,-430.5 118,-449.5 186,-449.5 186,-430.5 118,-430.5"/>
<text text-anchor="middle" x="152" y="-437.5" font-family="Helvetica,sans-Serif" font-size="10.00">Histogram</text>
</a>
</g>
</g>
<!-- Node55&#45;&gt;Node0 -->
<g id="edge1" class="edge">
<title>Node55&#45;&gt;Node0</title>
<path fill="none" stroke="darkgreen" d="M24.69,-250.85C26.18,-289.31 35.05,-374.29 83,-421 92.31,-430.07 105.57,-434.88 117.91,-437.41"/>
<polygon fill="darkgreen" stroke="darkgreen" points="28.18,-250.41 24.43,-240.5 21.19,-250.59 28.18,-250.41"/>
</g>
<!-- Node57 -->
<g id="node3" class="node">
<title>Node57</title>
<g id="a_node3"><a xlink:href="classdrain_1_1Kernel.html" target="_top" xlink:title=" ">
<polygon fill="white" stroke="black" points="114,-392.5 114,-411.5 190,-411.5 190,-392.5 114,-392.5"/>
<text text-anchor="middle" x="152" y="-399.5" font-family="Helvetica,sans-Serif" font-size="10.00">Kernel&lt; T &gt;</text>
</a>
</g>
</g>
<!-- Node55&#45;&gt;Node57 -->
<g id="edge2" class="edge">
<title>Node55&#45;&gt;Node57</title>
<path fill="none" stroke="midnightblue" d="M26.5,-250.91C30.83,-283.37 44.08,-347.61 83,-383 91.43,-390.67 102.71,-395.27 113.66,-398.03"/>
<polygon fill="midnightblue" stroke="midnightblue" points="29.96,-250.37 25.31,-240.85 23.01,-251.2 29.96,-250.37"/>
</g>
<!-- Node58 -->
<g id="node4" class="node">
<title>Node58</title>
<g id="a_node4"><a xlink:href="classdrain_1_1LookUp.html" target="_top" xlink:title="Look&#45;up tables.">
<polygon fill="white" stroke="black" points="111,-354.5 111,-373.5 193,-373.5 193,-354.5 111,-354.5"/>
<text text-anchor="middle" x="152" y="-361.5" font-family="Helvetica,sans-Serif" font-size="10.00">LookUp&lt; T &gt;</text>
</a>
</g>
</g>
<!-- Node55&#45;&gt;Node58 -->
<g id="edge3" class="edge">
<title>Node55&#45;&gt;Node58</title>
<path fill="none" stroke="midnightblue" d="M29.29,-250.58C36.56,-276.1 52.83,-320.37 83,-345 90.98,-351.51 101.04,-355.79 110.96,-358.61"/>
<polygon fill="midnightblue" stroke="midnightblue" points="32.6,-249.38 26.64,-240.61 25.83,-251.17 32.6,-249.38"/>
</g>
<!-- Node59 -->
<g id="node5" class="node">
<title>Node59</title>
<g id="a_node5"><a xlink:href="classdrain_1_1LookUp2.html" target="_top" xlink:title="Look&#45;up tables.">
<polygon fill="white" stroke="black" points="108,-316.5 108,-335.5 196,-335.5 196,-316.5 108,-316.5"/>
<text text-anchor="middle" x="152" y="-323.5" font-family="Helvetica,sans-Serif" font-size="10.00">LookUp2&lt; T &gt;</text>
</a>
</g>
</g>
<!-- Node55&#45;&gt;Node59 -->
<g id="edge4" class="edge">
<title>Node55&#45;&gt;Node59</title>
<path fill="none" stroke="midnightblue" d="M34.23,-249.69C44.2,-267.06 61.31,-292.36 83,-307 90.42,-312.01 99.13,-315.7 107.81,-318.43"/>
<polygon fill="midnightblue" stroke="midnightblue" points="37.08,-247.61 29.2,-240.53 30.94,-250.98 37.08,-247.61"/>
</g>
<!-- Node61 -->
<g id="node7" class="node">
<title>Node61</title>
<g id="a_node7"><a xlink:href="classdrain_1_1Matrix.html" target="_top" xlink:title=" ">
<polygon fill="white" stroke="black" points="113.5,-278.5 113.5,-297.5 190.5,-297.5 190.5,-278.5 113.5,-278.5"/>
<text text-anchor="middle" x="152" y="-285.5" font-family="Helvetica,sans-Serif" font-size="10.00">Matrix&lt; T &gt;</text>
</a>
</g>
</g>
<!-- Node55&#45;&gt;Node61 -->
<g id="edge6" class="edge">
<title>Node55&#45;&gt;Node61</title>
<path fill="none" stroke="darkgreen" d="M45.19,-246.65C56,-254.25 69.72,-263 83,-269 92.5,-273.29 103.18,-276.82 113.22,-279.63"/>
<polygon fill="darkgreen" stroke="darkgreen" points="47.02,-243.66 36.87,-240.63 42.92,-249.33 47.02,-243.66"/>
</g>
<!-- Node62 -->
<g id="node8" class="node">
<title>Node62</title>
<g id="a_node8"><a xlink:href="classdrain_1_1NeuralVector.html" target="_top" xlink:title=" ">
<polygon fill="white" stroke="black" points="97.5,-240.5 97.5,-259.5 206.5,-259.5 206.5,-240.5 97.5,-240.5"/>
<text text-anchor="middle" x="152" y="-247.5" font-family="Helvetica,sans-Serif" font-size="10.00">NeuralVector&lt; T &gt;</text>
</a>
</g>
</g>
<!-- Node55&#45;&gt;Node62 -->
<g id="edge7" class="edge">
<title>Node55&#45;&gt;Node62</title>
<path fill="none" stroke="midnightblue" d="M57.28,-235.92C69.49,-237.76 83.71,-239.89 97.32,-241.94"/>
<polygon fill="midnightblue" stroke="midnightblue" points="57.52,-232.42 47.12,-234.4 56.48,-239.34 57.52,-232.42"/>
</g>
<!-- Node63 -->
<g id="node9" class="node">
<title>Node63</title>
<g id="a_node9"><a xlink:href="classdrain_1_1PaletteEntry2.html" target="_top" xlink:title=" ">
<polygon fill="white" stroke="black" points="110.5,-202.5 110.5,-221.5 193.5,-221.5 193.5,-202.5 110.5,-202.5"/>
<text text-anchor="middle" x="152" y="-209.5" font-family="Helvetica,sans-Serif" font-size="10.00">PaletteEntry2</text>
</a>
</g>
</g>
<!-- Node55&#45;&gt;Node63 -->
<g id="edge8" class="edge">
<title>Node55&#45;&gt;Node63</title>
<path fill="none" stroke="midnightblue" d="M57.22,-226.09C73.46,-223.65 93.23,-220.68 110.43,-218.09"/>
<polygon fill="midnightblue" stroke="midnightblue" points="56.48,-222.66 47.12,-227.6 57.52,-229.58 56.48,-222.66"/>
</g>
<!-- Node64 -->
<g id="node10" class="node">
<title>Node64</title>
<g id="a_node10"><a xlink:href="classdrain_1_1ProgramVector.html" target="_top" xlink:title="Structure for implementing threads in parallelized OpenMP for loop.">
<polygon fill="white" stroke="black" points="107.5,-164.5 107.5,-183.5 196.5,-183.5 196.5,-164.5 107.5,-164.5"/>
<text text-anchor="middle" x="152" y="-171.5" font-family="Helvetica,sans-Serif" font-size="10.00">ProgramVector</text>
</a>
</g>
</g>
<!-- Node55&#45;&gt;Node64 -->
<g id="edge9" class="edge">
<title>Node55&#45;&gt;Node64</title>
<path fill="none" stroke="midnightblue" d="M45.19,-215.35C56,-207.75 69.72,-199 83,-193 91.15,-189.32 100.19,-186.19 108.94,-183.6"/>
<polygon fill="midnightblue" stroke="midnightblue" points="42.92,-212.67 36.87,-221.37 47.02,-218.34 42.92,-212.67"/>
</g>
<!-- Node65 -->
<g id="node11" class="node">
<title>Node65</title>
<g id="a_node11"><a xlink:href="classdrain_1_1WeightedVector.html" target="_top" xlink:title=" ">
<polygon fill="white" stroke="black" points="90.5,-126.5 90.5,-145.5 213.5,-145.5 213.5,-126.5 90.5,-126.5"/>
<text text-anchor="middle" x="152" y="-133.5" font-family="Helvetica,sans-Serif" font-size="10.00">WeightedVector&lt; T &gt;</text>
</a>
</g>
</g>
<!-- Node55&#45;&gt;Node65 -->
<g id="edge10" class="edge">
<title>Node55&#45;&gt;Node65</title>
<path fill="none" stroke="midnightblue" d="M34.23,-212.31C44.2,-194.94 61.31,-169.64 83,-155 88.79,-151.09 95.38,-147.98 102.11,-145.51"/>
<polygon fill="midnightblue" stroke="midnightblue" points="30.94,-211.02 29.2,-221.47 37.08,-214.39 30.94,-211.02"/>
</g>
<!-- Node66 -->
<g id="node12" class="node">
<title>Node66</title>
<g id="a_node12"><a xlink:href="classLookUp3.html" target="_top" xlink:title=" ">
<polygon fill="white" stroke="black" points="108,-88.5 108,-107.5 196,-107.5 196,-88.5 108,-88.5"/>
<text text-anchor="middle" x="152" y="-95.5" font-family="Helvetica,sans-Serif" font-size="10.00">LookUp3&lt; T &gt;</text>
</a>
</g>
</g>
<!-- Node55&#45;&gt;Node66 -->
<g id="edge11" class="edge">
<title>Node55&#45;&gt;Node66</title>
<path fill="none" stroke="midnightblue" d="M29.29,-211.42C36.56,-185.9 52.83,-141.63 83,-117 90.12,-111.19 98.91,-107.15 107.77,-104.35"/>
<polygon fill="midnightblue" stroke="midnightblue" points="25.83,-210.83 26.64,-221.39 32.6,-212.62 25.83,-210.83"/>
</g>
<!-- Node67 -->
<g id="node13" class="node">
<title>Node67</title>
<g id="a_node13"><a xlink:href="classdrain_1_1LookUp.html" target="_top" xlink:title=" ">
<polygon fill="white" stroke="black" points="83,-39 83,-69 221,-69 221,-39 83,-39"/>
<text text-anchor="start" x="91" y="-57" font-family="Helvetica,sans-Serif" font-size="10.00">LookUp&lt; typename cont</text>
<text text-anchor="middle" x="152" y="-46" font-family="Helvetica,sans-Serif" font-size="10.00">_t::const_iterator &gt;</text>
</a>
</g>
</g>
<!-- Node55&#45;&gt;Node67 -->
<g id="edge12" class="edge">
<title>Node55&#45;&gt;Node67</title>
<path fill="none" stroke="midnightblue" d="M26.88,-211.01C31.74,-178.91 45.68,-115.76 83,-79 86.94,-75.12 91.54,-71.83 96.45,-69.05"/>
<polygon fill="midnightblue" stroke="midnightblue" points="23.36,-210.94 25.48,-221.33 30.3,-211.89 23.36,-210.94"/>
</g>
<!-- Node68 -->
<g id="node14" class="node">
<title>Node68</title>
<g id="a_node14"><a xlink:href="classdrain_1_1Matrix.html" target="_top" xlink:title=" ">
<polygon fill="white" stroke="black" points="100,-0.5 100,-19.5 204,-19.5 204,-0.5 100,-0.5"/>
<text text-anchor="middle" x="152" y="-7.5" font-family="Helvetica,sans-Serif" font-size="10.00">Matrix&lt; double &gt;</text>
</a>
</g>
</g>
<!-- Node55&#45;&gt;Node68 -->
<g id="edge13" class="edge">
<title>Node55&#45;&gt;Node68</title>
<path fill="none" stroke="darkgreen" d="M24.26,-211.28C24.87,-171.11 32.13,-79.39 83,-29 87.79,-24.26 93.66,-20.67 99.93,-17.97"/>
<polygon fill="darkgreen" stroke="darkgreen" points="20.76,-211.36 24.23,-221.37 27.76,-211.38 20.76,-211.36"/>
</g>
<!-- Node60 -->
<g id="node6" class="node">
<title>Node60</title>
<g id="a_node6"><a xlink:href="classdrain_1_1FunctorLookUp.html" target="_top" xlink:title="Values are available from [0,2PI].">
<polygon fill="white" stroke="black" points="257,-316.5 257,-335.5 387,-335.5 387,-316.5 257,-316.5"/>
<text text-anchor="middle" x="322" y="-323.5" font-family="Helvetica,sans-Serif" font-size="10.00">FunctorLookUp&lt; T, F &gt;</text>
</a>
</g>
</g>
<!-- Node59&#45;&gt;Node60 -->
<g id="edge5" class="edge">
<title>Node59&#45;&gt;Node60</title>
<path fill="none" stroke="midnightblue" d="M206.53,-326C222.57,-326 240.32,-326 256.97,-326"/>
<polygon fill="midnightblue" stroke="midnightblue" points="206.26,-322.5 196.26,-326 206.26,-329.5 206.26,-322.5"/>
</g>
<!-- Node69 -->
<g id="node15" class="node">
<title>Node69</title>
<g id="a_node15"><a xlink:href="classdrain_1_1Vector.html" target="_top" xlink:title=" ">
<polygon fill="white" stroke="black" points="283.5,-0.5 283.5,-19.5 360.5,-19.5 360.5,-0.5 283.5,-0.5"/>
<text text-anchor="middle" x="322" y="-7.5" font-family="Helvetica,sans-Serif" font-size="10.00">Vector&lt; T &gt;</text>
</a>
</g>
</g>
<!-- Node68&#45;&gt;Node69 -->
<g id="edge14" class="edge">
<title>Node68&#45;&gt;Node69</title>
<path fill="none" stroke="midnightblue" d="M214.38,-10C237.47,-10 263.02,-10 283.32,-10"/>
<polygon fill="midnightblue" stroke="midnightblue" points="214.32,-6.5 204.32,-10 214.32,-13.5 214.32,-6.5"/>
</g>
</g>
</svg>
