<?xml version="1.0" encoding="UTF-8" standalone="no"?>
<!DOCTYPE svg PUBLIC "-//W3C//DTD SVG 1.1//EN"
 "http://www.w3.org/Graphics/SVG/1.1/DTD/svg11.dtd">
<!-- Generated by graphviz version 2.43.0 (0)
 -->
<!-- Title: Graphical Class Hierarchy Pages: 1 -->
<svg width="414pt" height="712pt"
 viewBox="0.00 0.00 414.00 712.00" xmlns="http://www.w3.org/2000/svg" xmlns:xlink="http://www.w3.org/1999/xlink">
<g id="graph0" class="graph" transform="scale(1 1) rotate(0) translate(4 708)">
<title>Graphical Class Hierarchy</title>
<polygon fill="white" stroke="transparent" points="-4,4 -4,-708 410,-708 410,4 -4,4"/>
<!-- Node368 -->
<g id="node1" class="node">
<title>Node368</title>
<g id="a_node1"><a xlink:title=" ">
<polygon fill="white" stroke="#bfbfbf" points="0,-309.5 0,-328.5 32,-328.5 32,-309.5 0,-309.5"/>
<text text-anchor="middle" x="16" y="-316.5" font-family="Helvetica,sans-Serif" font-size="10.00">list</text>
</a>
</g>
</g>
<!-- Node0 -->
<g id="node2" class="node">
<title>Node0</title>
<g id="a_node2"><a xlink:href="classdrain_1_1CommandSequence.html" target="_top" xlink:title=" ">
<polygon fill="white" stroke="black" points="85,-662.5 85,-703.5 225,-703.5 225,-662.5 85,-662.5"/>
<text text-anchor="start" x="93" y="-691.5" font-family="Helvetica,sans-Serif" font-size="10.00">CommandSequence&lt; std</text>
<text text-anchor="start" x="93" y="-680.5" font-family="Helvetica,sans-Serif" font-size="10.00">::pair&lt; std::string,</text>
<text text-anchor="middle" x="155" y="-669.5" font-family="Helvetica,sans-Serif" font-size="10.00"> Command * &gt; &gt;</text>
</a>
</g>
</g>
<!-- Node368&#45;&gt;Node0 -->
<g id="edge1" class="edge">
<title>Node368&#45;&gt;Node0</title>
<path fill="none" stroke="midnightblue" d="M17.42,-338.97C19.19,-403.44 27.85,-604.69 68,-653 72.65,-658.59 78.4,-663.15 84.72,-666.85"/>
<polygon fill="midnightblue" stroke="midnightblue" points="20.91,-338.5 17.17,-328.59 13.92,-338.67 20.91,-338.5"/>
</g>
<!-- Node371 -->
<g id="node4" class="node">
<title>Node371</title>
<g id="a_node4"><a xlink:href="classdrain_1_1CommandSequence.html" target="_top" xlink:title=" ">
<polygon fill="white" stroke="black" points="85,-602.5 85,-643.5 225,-643.5 225,-602.5 85,-602.5"/>
<text text-anchor="start" x="93" y="-631.5" font-family="Helvetica,sans-Serif" font-size="10.00">CommandSequence&lt; std</text>
<text text-anchor="start" x="93" y="-620.5" font-family="Helvetica,sans-Serif" font-size="10.00">::pair&lt; std::string,</text>
<text text-anchor="middle" x="155" y="-609.5" font-family="Helvetica,sans-Serif" font-size="10.00"> std::string &gt; &gt;</text>
</a>
</g>
</g>
<!-- Node368&#45;&gt;Node371 -->
<g id="edge3" class="edge">
<title>Node368&#45;&gt;Node371</title>
<path fill="none" stroke="midnightblue" d="M18.14,-338.6C21.78,-394.72 34.89,-554.45 68,-593 72.74,-598.52 78.55,-603.02 84.9,-606.7"/>
<polygon fill="midnightblue" stroke="midnightblue" points="21.63,-338.32 17.52,-328.55 14.64,-338.75 21.63,-338.32"/>
</g>
<!-- Node373 -->
<g id="node6" class="node">
<title>Node373</title>
<g id="a_node6"><a xlink:href="classdrain_1_1Dictionary2.html" target="_top" xlink:title=" ">
<polygon fill="white" stroke="black" points="101,-553 101,-583 209,-583 209,-553 101,-553"/>
<text text-anchor="start" x="109" y="-571" font-family="Helvetica,sans-Serif" font-size="10.00">Dictionary2&lt; char,</text>
<text text-anchor="middle" x="155" y="-560" font-family="Helvetica,sans-Serif" font-size="10.00"> std::string &gt;</text>
</a>
</g>
</g>
<!-- Node368&#45;&gt;Node373 -->
<g id="edge5" class="edge">
<title>Node368&#45;&gt;Node373</title>
<path fill="none" stroke="midnightblue" d="M18.89,-338.67C24.01,-387.83 39.69,-514.26 68,-544 76.76,-553.21 88.74,-558.98 100.96,-562.57"/>
<polygon fill="midnightblue" stroke="midnightblue" points="22.37,-338.27 17.89,-328.67 15.41,-338.97 22.37,-338.27"/>
</g>
<!-- Node374 -->
<g id="node7" class="node">
<title>Node374</title>
<g id="a_node7"><a xlink:href="classdrain_1_1Dictionary2.html" target="_top" xlink:title=" ">
<polygon fill="white" stroke="black" points="96,-504 96,-534 214,-534 214,-504 96,-504"/>
<text text-anchor="start" x="104" y="-522" font-family="Helvetica,sans-Serif" font-size="10.00">Dictionary2&lt; int, std</text>
<text text-anchor="middle" x="155" y="-511" font-family="Helvetica,sans-Serif" font-size="10.00">::string &gt;</text>
</a>
</g>
</g>
<!-- Node368&#45;&gt;Node374 -->
<g id="edge6" class="edge">
<title>Node368&#45;&gt;Node374</title>
<path fill="none" stroke="midnightblue" d="M16.92,-338.69C17.88,-374.65 25.18,-451.21 68,-494 75.7,-501.69 85.62,-507.05 95.97,-510.77"/>
<polygon fill="midnightblue" stroke="midnightblue" points="20.42,-338.49 16.8,-328.53 13.42,-338.57 20.42,-338.49"/>
</g>
<!-- Node375 -->
<g id="node8" class="node">
<title>Node375</title>
<g id="a_node8"><a xlink:href="classdrain_1_1Dictionary2.html" target="_top" xlink:title=" ">
<polygon fill="white" stroke="black" points="93.5,-465.5 93.5,-484.5 216.5,-484.5 216.5,-465.5 93.5,-465.5"/>
<text text-anchor="middle" x="155" y="-472.5" font-family="Helvetica,sans-Serif" font-size="10.00">Dictionary2&lt; K, V * &gt;</text>
</a>
</g>
</g>
<!-- Node368&#45;&gt;Node375 -->
<g id="edge7" class="edge">
<title>Node368&#45;&gt;Node375</title>
<path fill="none" stroke="midnightblue" d="M18.55,-338.8C21.99,-368.82 33.02,-425.57 68,-456 75.27,-462.32 84.17,-466.68 93.45,-469.67"/>
<polygon fill="midnightblue" stroke="midnightblue" points="22.02,-338.32 17.56,-328.71 15.05,-339 22.02,-338.32"/>
</g>
<!-- Node377 -->
<g id="node10" class="node">
<title>Node377</title>
<g id="a_node10"><a xlink:href="classdrain_1_1Dictionary2.html" target="_top" xlink:title=" ">
<polygon fill="white" stroke="black" points="98.5,-416 98.5,-446 211.5,-446 211.5,-416 98.5,-416"/>
<text text-anchor="start" x="106.5" y="-434" font-family="Helvetica,sans-Serif" font-size="10.00">Dictionary2&lt; key_t,</text>
<text text-anchor="middle" x="155" y="-423" font-family="Helvetica,sans-Serif" font-size="10.00"> std::string &gt;</text>
</a>
</g>
</g>
<!-- Node368&#45;&gt;Node377 -->
<g id="edge9" class="edge">
<title>Node368&#45;&gt;Node377</title>
<path fill="none" stroke="midnightblue" d="M23.21,-338.21C30.68,-358.29 45.16,-389.31 68,-407 76.82,-413.83 87.49,-418.72 98.26,-422.22"/>
<polygon fill="midnightblue" stroke="midnightblue" points="26.45,-336.86 19.85,-328.57 19.84,-339.17 26.45,-336.86"/>
</g>
<!-- Node378 -->
<g id="node11" class="node">
<title>Node378</title>
<g id="a_node11"><a xlink:href="classdrain_1_1Dictionary2.html" target="_top" xlink:title=" ">
<polygon fill="white" stroke="black" points="98.5,-367 98.5,-397 211.5,-397 211.5,-367 98.5,-367"/>
<text text-anchor="start" x="106.5" y="-385" font-family="Helvetica,sans-Serif" font-size="10.00">Dictionary2&lt; key_t,</text>
<text text-anchor="middle" x="155" y="-374" font-family="Helvetica,sans-Serif" font-size="10.00"> value_t &gt;</text>
</a>
</g>
</g>
<!-- Node368&#45;&gt;Node378 -->
<g id="edge10" class="edge">
<title>Node368&#45;&gt;Node378</title>
<path fill="none" stroke="midnightblue" d="M35.33,-335.18C44.61,-342.68 56.34,-351.2 68,-357 77.47,-361.71 87.97,-365.68 98.3,-368.97"/>
<polygon fill="midnightblue" stroke="midnightblue" points="37.5,-332.43 27.59,-328.68 33,-337.79 37.5,-332.43"/>
</g>
<!-- Node379 -->
<g id="node12" class="node">
<title>Node379</title>
<g id="a_node12"><a xlink:href="classdrain_1_1CommandSequence.html" target="_top" xlink:title="A base class for Script and Program.">
<polygon fill="white" stroke="black" points="83.5,-328.5 83.5,-347.5 226.5,-347.5 226.5,-328.5 83.5,-328.5"/>
<text text-anchor="middle" x="155" y="-335.5" font-family="Helvetica,sans-Serif" font-size="10.00">CommandSequence&lt; T &gt;</text>
</a>
</g>
</g>
<!-- Node368&#45;&gt;Node379 -->
<g id="edge11" class="edge">
<title>Node368&#45;&gt;Node379</title>
<path fill="none" stroke="midnightblue" d="M42.11,-322.48C54.44,-324.19 69.94,-326.34 85.45,-328.49"/>
<polygon fill="midnightblue" stroke="midnightblue" points="42.57,-319.01 32.18,-321.11 41.61,-325.95 42.57,-319.01"/>
</g>
<!-- Node380 -->
<g id="node13" class="node">
<title>Node380</title>
<g id="a_node13"><a xlink:href="classdrain_1_1Dictionary2.html" target="_top" xlink:title="Two&#45;way mapping between strings and objects of template class T.">
<polygon fill="white" stroke="black" points="97.5,-290.5 97.5,-309.5 212.5,-309.5 212.5,-290.5 97.5,-290.5"/>
<text text-anchor="middle" x="155" y="-297.5" font-family="Helvetica,sans-Serif" font-size="10.00">Dictionary2&lt; K, V &gt;</text>
</a>
</g>
</g>
<!-- Node368&#45;&gt;Node380 -->
<g id="edge12" class="edge">
<title>Node368&#45;&gt;Node380</title>
<path fill="none" stroke="midnightblue" d="M42.5,-315.46C57.98,-313.32 78.37,-310.49 97.49,-307.84"/>
<polygon fill="midnightblue" stroke="midnightblue" points="41.61,-312.05 32.18,-316.89 42.57,-318.99 41.61,-312.05"/>
</g>
<!-- Node381 -->
<g id="node14" class="node">
<title>Node381</title>
<g id="a_node14"><a xlink:href="classdrain_1_1Layer.html" target="_top" xlink:title=" ">
<polygon fill="white" stroke="black" points="119,-252.5 119,-271.5 191,-271.5 191,-252.5 119,-252.5"/>
<text text-anchor="middle" x="155" y="-259.5" font-family="Helvetica,sans-Serif" font-size="10.00">Layer&lt; T &gt;</text>
</a>
</g>
</g>
<!-- Node368&#45;&gt;Node381 -->
<g id="edge13" class="edge">
<title>Node368&#45;&gt;Node381</title>
<path fill="none" stroke="midnightblue" d="M34.82,-302.78C44.1,-295.12 56.01,-286.48 68,-281 83.85,-273.75 102.64,-269.19 118.61,-266.36"/>
<polygon fill="midnightblue" stroke="midnightblue" points="32.4,-300.24 27.1,-309.41 36.96,-305.55 32.4,-300.24"/>
</g>
<!-- Node382 -->
<g id="node15" class="node">
<title>Node382</title>
<g id="a_node15"><a xlink:href="classdrain_1_1Path.html" target="_top" xlink:title=" ">
<polygon fill="white" stroke="black" points="94.5,-203 94.5,-233 215.5,-233 215.5,-203 94.5,-203"/>
<text text-anchor="start" x="102.5" y="-221" font-family="Helvetica,sans-Serif" font-size="10.00">Path&lt; T, SEP, ALEAD,</text>
<text text-anchor="middle" x="155" y="-210" font-family="Helvetica,sans-Serif" font-size="10.00"> AREPEAT, ATRAIL &gt;</text>
</a>
</g>
</g>
<!-- Node368&#45;&gt;Node382 -->
<g id="edge14" class="edge">
<title>Node368&#45;&gt;Node382</title>
<path fill="none" stroke="midnightblue" d="M24.92,-300.35C33.21,-283.02 47.84,-257.74 68,-243 75.78,-237.31 84.84,-232.91 94.1,-229.51"/>
<polygon fill="midnightblue" stroke="midnightblue" points="21.72,-298.94 20.78,-309.49 28.09,-301.83 21.72,-298.94"/>
</g>
<!-- Node383 -->
<g id="node16" class="node">
<title>Node383</title>
<g id="a_node16"><a xlink:href="classdrain_1_1StringMapper.html" target="_top" xlink:title="A tool for expanding variables embedded in a std::string to literals.">
<polygon fill="white" stroke="black" points="114,-164.5 114,-183.5 196,-183.5 196,-164.5 114,-164.5"/>
<text text-anchor="middle" x="155" y="-171.5" font-family="Helvetica,sans-Serif" font-size="10.00">StringMapper</text>
</a>
</g>
</g>
<!-- Node368&#45;&gt;Node383 -->
<g id="edge15" class="edge">
<title>Node368&#45;&gt;Node383</title>
<path fill="none" stroke="midnightblue" d="M19.38,-299.4C23.82,-271.65 36.02,-221.26 68,-194 80.6,-183.26 97.87,-178.02 113.64,-175.56"/>
<polygon fill="midnightblue" stroke="midnightblue" points="15.89,-299.07 17.95,-309.46 22.82,-300.05 15.89,-299.07"/>
</g>
<!-- Node384 -->
<g id="node17" class="node">
<title>Node384</title>
<g id="a_node17"><a xlink:href="classdrain_1_1Path.html" target="_top" xlink:title=" ">
<polygon fill="white" stroke="black" points="68,-126.5 68,-145.5 242,-145.5 242,-126.5 68,-126.5"/>
<text text-anchor="middle" x="155" y="-133.5" font-family="Helvetica,sans-Serif" font-size="10.00">Path&lt; ODIMPathElemMatcher &gt;</text>
</a>
</g>
</g>
<!-- Node368&#45;&gt;Node384 -->
<g id="edge16" class="edge">
<title>Node368&#45;&gt;Node384</title>
<path fill="none" stroke="midnightblue" d="M17.13,-298.84C18.51,-264.11 26.58,-193.07 68,-155 72.17,-151.17 76.92,-148.05 82.01,-145.52"/>
<polygon fill="midnightblue" stroke="midnightblue" points="13.63,-299.04 16.88,-309.12 20.63,-299.21 13.63,-299.04"/>
</g>
<!-- Node386 -->
<g id="node19" class="node">
<title>Node386</title>
<g id="a_node19"><a xlink:href="classdrain_1_1Path.html" target="_top" xlink:title=" ">
<polygon fill="white" stroke="black" points="97.5,-77 97.5,-107 212.5,-107 212.5,-77 97.5,-77"/>
<text text-anchor="start" x="105.5" y="-95" font-family="Helvetica,sans-Serif" font-size="10.00">Path&lt; std::string,&#39;</text>
<text text-anchor="middle" x="155" y="-84" font-family="Helvetica,sans-Serif" font-size="10.00">/&#39;, true, false, true &gt;</text>
</a>
</g>
</g>
<!-- Node368&#45;&gt;Node386 -->
<g id="edge18" class="edge">
<title>Node368&#45;&gt;Node386</title>
<path fill="none" stroke="midnightblue" d="M19.47,-299.26C25.56,-253.74 42.65,-143.27 68,-117 75.88,-108.83 86.26,-103.29 97.07,-99.54"/>
<polygon fill="midnightblue" stroke="midnightblue" points="15.98,-298.98 18.16,-309.35 22.92,-299.88 15.98,-298.98"/>
</g>
<!-- Node387 -->
<g id="node20" class="node">
<title>Node387</title>
<g id="a_node20"><a xlink:href="classrack_1_1DataSetList.html" target="_top" xlink:title=" ">
<polygon fill="white" stroke="black" points="100.5,-38.5 100.5,-57.5 209.5,-57.5 209.5,-38.5 100.5,-38.5"/>
<text text-anchor="middle" x="155" y="-45.5" font-family="Helvetica,sans-Serif" font-size="10.00">DataSetList&lt; DT &gt;</text>
</a>
</g>
</g>
<!-- Node368&#45;&gt;Node387 -->
<g id="edge19" class="edge">
<title>Node368&#45;&gt;Node387</title>
<path fill="none" stroke="midnightblue" d="M18.29,-299.05C22.16,-245.44 35.51,-100.08 68,-67 76.57,-58.27 88.19,-53.15 100.1,-50.22"/>
<polygon fill="midnightblue" stroke="midnightblue" points="14.78,-299.07 17.59,-309.29 21.76,-299.55 14.78,-299.07"/>
</g>
<!-- Node388 -->
<g id="node21" class="node">
<title>Node388</title>
<g id="a_node21"><a xlink:href="classrack_1_1ODIMValidator.html" target="_top" xlink:title=" ">
<polygon fill="white" stroke="black" points="111,-0.5 111,-19.5 199,-19.5 199,-0.5 111,-0.5"/>
<text text-anchor="middle" x="155" y="-7.5" font-family="Helvetica,sans-Serif" font-size="10.00">ODIMValidator</text>
</a>
</g>
</g>
<!-- Node368&#45;&gt;Node388 -->
<g id="edge20" class="edge">
<title>Node368&#45;&gt;Node388</title>
<path fill="none" stroke="midnightblue" d="M17.7,-299.22C20.2,-240.36 30.63,-68.03 68,-29 79,-17.51 95.25,-12.23 110.68,-9.99"/>
<polygon fill="midnightblue" stroke="midnightblue" points="14.2,-299.27 17.3,-309.4 21.19,-299.55 14.2,-299.27"/>
</g>
<!-- Node1 -->
<g id="node3" class="node">
<title>Node1</title>
<g id="a_node3"><a xlink:href="classdrain_1_1Program.html" target="_top" xlink:title="Sequence consisting of Command:s retrieved from a CommandBank.">
<polygon fill="white" stroke="black" points="313,-673.5 313,-692.5 371,-692.5 371,-673.5 313,-673.5"/>
<text text-anchor="middle" x="342" y="-680.5" font-family="Helvetica,sans-Serif" font-size="10.00">Program</text>
</a>
</g>
</g>
<!-- Node0&#45;&gt;Node1 -->
<g id="edge2" class="edge">
<title>Node0&#45;&gt;Node1</title>
<path fill="none" stroke="midnightblue" d="M235.23,-683C262.83,-683 292.05,-683 312.76,-683"/>
<polygon fill="midnightblue" stroke="midnightblue" points="235.15,-679.5 225.15,-683 235.15,-686.5 235.15,-679.5"/>
</g>
<!-- Node372 -->
<g id="node5" class="node">
<title>Node372</title>
<g id="a_node5"><a xlink:href="classdrain_1_1Script.html" target="_top" xlink:title=" ">
<polygon fill="white" stroke="black" points="320,-613.5 320,-632.5 364,-632.5 364,-613.5 320,-613.5"/>
<text text-anchor="middle" x="342" y="-620.5" font-family="Helvetica,sans-Serif" font-size="10.00">Script</text>
</a>
</g>
</g>
<!-- Node371&#45;&gt;Node372 -->
<g id="edge4" class="edge">
<title>Node371&#45;&gt;Node372</title>
<path fill="none" stroke="midnightblue" d="M235.52,-623C266.39,-623 299.23,-623 319.91,-623"/>
<polygon fill="midnightblue" stroke="midnightblue" points="235.15,-619.5 225.15,-623 235.15,-626.5 235.15,-619.5"/>
</g>
<!-- Node376 -->
<g id="node9" class="node">
<title>Node376</title>
<g id="a_node9"><a xlink:href="classdrain_1_1Dictionary2Ptr.html" target="_top" xlink:title="Associates type info.">
<polygon fill="white" stroke="black" points="278,-465.5 278,-484.5 406,-484.5 406,-465.5 278,-465.5"/>
<text text-anchor="middle" x="342" y="-472.5" font-family="Helvetica,sans-Serif" font-size="10.00">Dictionary2Ptr&lt; K, V &gt;</text>
</a>
</g>
</g>
<!-- Node375&#45;&gt;Node376 -->
<g id="edge8" class="edge">
<title>Node375&#45;&gt;Node376</title>
<path fill="none" stroke="midnightblue" d="M226.85,-475C243.6,-475 261.36,-475 277.75,-475"/>
<polygon fill="midnightblue" stroke="midnightblue" points="226.58,-471.5 216.58,-475 226.58,-478.5 226.58,-471.5"/>
</g>
<!-- Node385 -->
<g id="node18" class="node">
<title>Node385</title>
<g id="a_node18"><a xlink:href="classrack_1_1ODIMPathMatcher.html" target="_top" xlink:title="Structure for testing if a path matches a given sequence of path elements.">
<polygon fill="white" stroke="black" points="289.5,-126.5 289.5,-145.5 394.5,-145.5 394.5,-126.5 289.5,-126.5"/>
<text text-anchor="middle" x="342" y="-133.5" font-family="Helvetica,sans-Serif" font-size="10.00">ODIMPathMatcher</text>
</a>
</g>
</g>
<!-- Node384&#45;&gt;Node385 -->
<g id="edge17" class="edge">
<title>Node384&#45;&gt;Node385</title>
<path fill="none" stroke="midnightblue" d="M252.29,-136C265.11,-136 277.84,-136 289.48,-136"/>
<polygon fill="midnightblue" stroke="midnightblue" points="252,-132.5 242,-136 252,-139.5 252,-132.5"/>
</g>
</g>
</svg>
