<?xml version="1.0" encoding="UTF-8" standalone="no"?>
<!DOCTYPE svg PUBLIC "-//W3C//DTD SVG 1.1//EN"
 "http://www.w3.org/Graphics/SVG/1.1/DTD/svg11.dtd">
<!-- Generated by graphviz version 2.43.0 (0)
 -->
<!-- Title: Graphical Class Hierarchy Pages: 1 -->
<svg width="695pt" height="99pt"
 viewBox="0.00 0.00 695.00 99.00" xmlns="http://www.w3.org/2000/svg" xmlns:xlink="http://www.w3.org/1999/xlink">
<g id="graph0" class="graph" transform="scale(1 1) rotate(0) translate(4 95)">
<title>Graphical Class Hierarchy</title>
<polygon fill="white" stroke="transparent" points="-4,4 -4,-95 691,-95 691,4 -4,4"/>
<!-- Node827 -->
<g id="node1" class="node">
<title>Node827</title>
<g id="a_node1"><a xlink:href="classdrain_1_1image_1_1AccumulationArray.html" target="_top" xlink:title="General&#45;purpose image compositing.">
<polygon fill="white" stroke="black" points="0,-16.5 0,-35.5 110,-35.5 110,-16.5 0,-16.5"/>
<text text-anchor="middle" x="55" y="-23.5" font-family="Helvetica,sans-Serif" font-size="10.00">AccumulationArray</text>
</a>
</g>
</g>
<!-- Node828 -->
<g id="node2" class="node">
<title>Node828</title>
<g id="a_node2"><a xlink:href="classdrain_1_1image_1_1Accumulator.html" target="_top" xlink:title=" ">
<polygon fill="white" stroke="black" points="146,-16.5 146,-35.5 224,-35.5 224,-16.5 146,-16.5"/>
<text text-anchor="middle" x="185" y="-23.5" font-family="Helvetica,sans-Serif" font-size="10.00">Accumulator</text>
</a>
</g>
</g>
<!-- Node827&#45;&gt;Node828 -->
<g id="edge1" class="edge">
<title>Node827&#45;&gt;Node828</title>
<path fill="none" stroke="midnightblue" d="M120.47,-26C129.18,-26 137.88,-26 145.92,-26"/>
<polygon fill="midnightblue" stroke="midnightblue" points="120.28,-22.5 110.28,-26 120.28,-29.5 120.28,-22.5"/>
</g>
<!-- Node1 -->
<g id="node3" class="node">
<title>Node1</title>
<g id="a_node3"><a xlink:href="classdrain_1_1image_1_1AccumulatorGeo.html" target="_top" xlink:title=" ">
<polygon fill="white" stroke="black" points="282.5,-60.5 282.5,-79.5 380.5,-79.5 380.5,-60.5 282.5,-60.5"/>
<text text-anchor="middle" x="331.5" y="-67.5" font-family="Helvetica,sans-Serif" font-size="10.00">AccumulatorGeo</text>
</a>
</g>
</g>
<!-- Node828&#45;&gt;Node1 -->
<g id="edge2" class="edge">
<title>Node828&#45;&gt;Node1</title>
<path fill="none" stroke="midnightblue" d="M222.54,-38.85C234.44,-42.9 247.73,-47.28 260,-51 270.8,-54.27 282.61,-57.57 293.42,-60.47"/>
<polygon fill="midnightblue" stroke="midnightblue" points="223.53,-35.49 212.93,-35.55 221.25,-42.11 223.53,-35.49"/>
</g>
<!-- Node829 -->
<g id="node6" class="node">
<title>Node829</title>
<g id="a_node6"><a xlink:href="classrack_1_1RadarAccumulator.html" target="_top" xlink:title=" ">
<polygon fill="white" stroke="black" points="260,-0.5 260,-41.5 403,-41.5 403,-0.5 260,-0.5"/>
<text text-anchor="start" x="268" y="-29.5" font-family="Helvetica,sans-Serif" font-size="10.00">RadarAccumulator&lt; drain</text>
<text text-anchor="start" x="268" y="-18.5" font-family="Helvetica,sans-Serif" font-size="10.00">::image::Accumulator,</text>
<text text-anchor="middle" x="331.5" y="-7.5" font-family="Helvetica,sans-Serif" font-size="10.00"> rack::PolarODIM &gt;</text>
</a>
</g>
</g>
<!-- Node828&#45;&gt;Node829 -->
<g id="edge5" class="edge">
<title>Node828&#45;&gt;Node829</title>
<path fill="none" stroke="midnightblue" d="M234.42,-24.32C242.59,-24.04 251.23,-23.74 259.83,-23.45"/>
<polygon fill="midnightblue" stroke="midnightblue" points="234.22,-20.83 224.34,-24.67 234.46,-27.83 234.22,-20.83"/>
</g>
<!-- Node2 -->
<g id="node4" class="node">
<title>Node2</title>
<g id="a_node4"><a xlink:href="classrack_1_1RadarAccumulator.html" target="_top" xlink:title=" ">
<polygon fill="white" stroke="black" points="439,-49.5 439,-90.5 582,-90.5 582,-49.5 439,-49.5"/>
<text text-anchor="start" x="447" y="-78.5" font-family="Helvetica,sans-Serif" font-size="10.00">RadarAccumulator&lt; drain</text>
<text text-anchor="start" x="447" y="-67.5" font-family="Helvetica,sans-Serif" font-size="10.00">::image::AccumulatorGeo,</text>
<text text-anchor="middle" x="510.5" y="-56.5" font-family="Helvetica,sans-Serif" font-size="10.00"> CartesianODIM &gt;</text>
</a>
</g>
</g>
<!-- Node1&#45;&gt;Node2 -->
<g id="edge3" class="edge">
<title>Node1&#45;&gt;Node2</title>
<path fill="none" stroke="midnightblue" d="M391.21,-70C406.5,-70 423.13,-70 438.96,-70"/>
<polygon fill="midnightblue" stroke="midnightblue" points="390.87,-66.5 380.87,-70 390.87,-73.5 390.87,-66.5"/>
</g>
<!-- Node3 -->
<g id="node5" class="node">
<title>Node3</title>
<g id="a_node5"><a xlink:href="classrack_1_1Composite.html" target="_top" xlink:title="Cartesian composite (mosaic) of data from several radars.">
<polygon fill="white" stroke="black" points="618,-60.5 618,-79.5 687,-79.5 687,-60.5 618,-60.5"/>
<text text-anchor="middle" x="652.5" y="-67.5" font-family="Helvetica,sans-Serif" font-size="10.00">Composite</text>
</a>
</g>
</g>
<!-- Node2&#45;&gt;Node3 -->
<g id="edge4" class="edge">
<title>Node2&#45;&gt;Node3</title>
<path fill="none" stroke="midnightblue" d="M592.41,-70C601.28,-70 609.91,-70 617.71,-70"/>
<polygon fill="midnightblue" stroke="midnightblue" points="592.32,-66.5 582.32,-70 592.32,-73.5 592.32,-66.5"/>
</g>
<!-- Node0 -->
<g id="node7" class="node">
<title>Node0</title>
<g id="a_node7"><a xlink:href="classdrain_1_1image_1_1GeoFrame.html" target="_top" xlink:title="Array with georeferencing support.">
<polygon fill="white" stroke="black" points="151.5,-60.5 151.5,-79.5 218.5,-79.5 218.5,-60.5 151.5,-60.5"/>
<text text-anchor="middle" x="185" y="-67.5" font-family="Helvetica,sans-Serif" font-size="10.00">GeoFrame</text>
</a>
</g>
</g>
<!-- Node0&#45;&gt;Node1 -->
<g id="edge6" class="edge">
<title>Node0&#45;&gt;Node1</title>
<path fill="none" stroke="midnightblue" d="M228.91,-70C245.76,-70 265.17,-70 282.49,-70"/>
<polygon fill="midnightblue" stroke="midnightblue" points="228.79,-66.5 218.79,-70 228.79,-73.5 228.79,-66.5"/>
</g>
</g>
</svg>
