<?xml version="1.0" encoding="UTF-8" standalone="no"?>
<!DOCTYPE svg PUBLIC "-//W3C//DTD SVG 1.1//EN"
 "http://www.w3.org/Graphics/SVG/1.1/DTD/svg11.dtd">
<!-- Generated by graphviz version 2.43.0 (0)
 -->
<!-- Title: Graphical Class Hierarchy Pages: 1 -->
<svg width="394pt" height="39pt"
 viewBox="0.00 0.00 394.00 39.00" xmlns="http://www.w3.org/2000/svg" xmlns:xlink="http://www.w3.org/1999/xlink">
<g id="graph0" class="graph" transform="scale(1 1) rotate(0) translate(4 35)">
<title>Graphical Class Hierarchy</title>
<polygon fill="white" stroke="transparent" points="-4,4 -4,-35 390,-35 390,4 -4,4"/>
<!-- Node150 -->
<g id="node1" class="node">
<title>Node150</title>
<g id="a_node1"><a xlink:title=" ">
<polygon fill="white" stroke="#bfbfbf" points="0,-6 0,-25 32,-25 32,-6 0,-6"/>
<text text-anchor="middle" x="16" y="-13" font-family="Helvetica,sans-Serif" font-size="10.00">SW</text>
</a>
</g>
</g>
<!-- Node0 -->
<g id="node2" class="node">
<title>Node0</title>
<g id="a_node2"><a xlink:href="classdrain_1_1image_1_1SlidingStripeAverage.html" target="_top" xlink:title="Stripe window for computing averages.">
<polygon fill="white" stroke="black" points="68,-0.5 68,-30.5 186,-30.5 186,-0.5 68,-0.5"/>
<text text-anchor="start" x="76" y="-18.5" font-family="Helvetica,sans-Serif" font-size="10.00">SlidingStripeAverage</text>
<text text-anchor="middle" x="127" y="-7.5" font-family="Helvetica,sans-Serif" font-size="10.00">&lt; SW &gt;</text>
</a>
</g>
</g>
<!-- Node150&#45;&gt;Node0 -->
<g id="edge1" class="edge">
<title>Node150&#45;&gt;Node0</title>
<path fill="none" stroke="midnightblue" d="M42.21,-15.5C49.91,-15.5 58.73,-15.5 67.68,-15.5"/>
<polygon fill="midnightblue" stroke="midnightblue" points="42.16,-12 32.16,-15.5 42.16,-19 42.16,-12"/>
</g>
<!-- Node1 -->
<g id="node3" class="node">
<title>Node1</title>
<g id="a_node3"><a xlink:href="classdrain_1_1image_1_1SlidingStripeAverageWeighted.html" target="_top" xlink:title="Stripe window for computing weight averages.">
<polygon fill="white" stroke="black" points="222,-0.5 222,-30.5 386,-30.5 386,-0.5 222,-0.5"/>
<text text-anchor="start" x="230" y="-18.5" font-family="Helvetica,sans-Serif" font-size="10.00">SlidingStripeAverageWeighted</text>
<text text-anchor="middle" x="304" y="-7.5" font-family="Helvetica,sans-Serif" font-size="10.00">&lt; SW &gt;</text>
</a>
</g>
</g>
<!-- Node0&#45;&gt;Node1 -->
<g id="edge2" class="edge">
<title>Node0&#45;&gt;Node1</title>
<path fill="none" stroke="midnightblue" d="M196.35,-15.5C204.74,-15.5 213.37,-15.5 221.92,-15.5"/>
<polygon fill="midnightblue" stroke="midnightblue" points="196.27,-12 186.27,-15.5 196.27,-19 196.27,-12"/>
</g>
</g>
</svg>
