<?xml version="1.0" encoding="UTF-8" standalone="no"?>
<!DOCTYPE svg PUBLIC "-//W3C//DTD SVG 1.1//EN"
 "http://www.w3.org/Graphics/SVG/1.1/DTD/svg11.dtd">
<!-- Generated by graphviz version 2.43.0 (0)
 -->
<!-- Title: Graphical Class Hierarchy Pages: 1 -->
<svg width="250pt" height="180pt"
 viewBox="0.00 0.00 250.00 180.00" xmlns="http://www.w3.org/2000/svg" xmlns:xlink="http://www.w3.org/1999/xlink">
<g id="graph0" class="graph" transform="scale(1 1) rotate(0) translate(4 176)">
<title>Graphical Class Hierarchy</title>
<polygon fill="white" stroke="transparent" points="-4,4 -4,-176 246,-176 246,4 -4,4"/>
<!-- Node0 -->
<g id="node1" class="node">
<title>Node0</title>
<g id="a_node1"><a xlink:href="classdrain_1_1UniTuple.html" target="_top" xlink:title=" ">
<polygon fill="white" stroke="black" points="0,-76.5 0,-95.5 99,-95.5 99,-76.5 0,-76.5"/>
<text text-anchor="middle" x="49.5" y="-83.5" font-family="Helvetica,sans-Serif" font-size="10.00">UniTuple&lt; T, 2 &gt;</text>
</a>
</g>
</g>
<!-- Node1 -->
<g id="node2" class="node">
<title>Node1</title>
<g id="a_node2"><a xlink:href="classdrain_1_1Bidirectional.html" target="_top" xlink:title=" ">
<polygon fill="white" stroke="black" points="135,-152.5 135,-171.5 242,-171.5 242,-152.5 135,-152.5"/>
<text text-anchor="middle" x="188.5" y="-159.5" font-family="Helvetica,sans-Serif" font-size="10.00">Bidirectional&lt; T &gt;</text>
</a>
</g>
</g>
<!-- Node0&#45;&gt;Node1 -->
<g id="edge1" class="edge">
<title>Node0&#45;&gt;Node1</title>
<path fill="none" stroke="midnightblue" d="M70.86,-101.84C87.45,-114.21 111.84,-131.23 135,-143 142,-146.56 149.82,-149.77 157.25,-152.49"/>
<polygon fill="midnightblue" stroke="midnightblue" points="72.59,-98.75 62.51,-95.5 68.36,-104.33 72.59,-98.75"/>
</g>
<!-- Node2 -->
<g id="node3" class="node">
<title>Node2</title>
<g id="a_node3"><a xlink:href="classdrain_1_1Frame2D.html" target="_top" xlink:title=" ">
<polygon fill="white" stroke="black" points="144,-114.5 144,-133.5 233,-133.5 233,-114.5 144,-114.5"/>
<text text-anchor="middle" x="188.5" y="-121.5" font-family="Helvetica,sans-Serif" font-size="10.00">Frame2D&lt; T &gt;</text>
</a>
</g>
</g>
<!-- Node0&#45;&gt;Node2 -->
<g id="edge2" class="edge">
<title>Node0&#45;&gt;Node2</title>
<path fill="none" stroke="midnightblue" d="M94.91,-98.32C113.73,-103.54 135.34,-109.53 152.94,-114.41"/>
<polygon fill="midnightblue" stroke="midnightblue" points="95.64,-94.89 85.07,-95.59 93.77,-101.63 95.64,-94.89"/>
</g>
<!-- Node3 -->
<g id="node4" class="node">
<title>Node3</title>
<g id="a_node4"><a xlink:href="classdrain_1_1image_1_1Decay2.html" target="_top" xlink:title=" ">
<polygon fill="white" stroke="black" points="147.5,-76.5 147.5,-95.5 229.5,-95.5 229.5,-76.5 147.5,-76.5"/>
<text text-anchor="middle" x="188.5" y="-83.5" font-family="Helvetica,sans-Serif" font-size="10.00">Decay2&lt; T &gt;</text>
</a>
</g>
</g>
<!-- Node0&#45;&gt;Node3 -->
<g id="edge3" class="edge">
<title>Node0&#45;&gt;Node3</title>
<path fill="none" stroke="midnightblue" d="M109.28,-86C122.04,-86 135.25,-86 147.11,-86"/>
<polygon fill="midnightblue" stroke="midnightblue" points="109.19,-82.5 99.19,-86 109.19,-89.5 109.19,-82.5"/>
</g>
<!-- Node4 -->
<g id="node5" class="node">
<title>Node4</title>
<g id="a_node5"><a xlink:href="structdrain_1_1Point2D.html" target="_top" xlink:title=" ">
<polygon fill="white" stroke="black" points="147,-38.5 147,-57.5 230,-57.5 230,-38.5 147,-38.5"/>
<text text-anchor="middle" x="188.5" y="-45.5" font-family="Helvetica,sans-Serif" font-size="10.00">Point2D&lt; T &gt;</text>
</a>
</g>
</g>
<!-- Node0&#45;&gt;Node4 -->
<g id="edge4" class="edge">
<title>Node0&#45;&gt;Node4</title>
<path fill="none" stroke="midnightblue" d="M94.91,-73.68C113.73,-68.46 135.34,-62.47 152.94,-57.59"/>
<polygon fill="midnightblue" stroke="midnightblue" points="93.77,-70.37 85.07,-76.41 95.64,-77.11 93.77,-70.37"/>
</g>
<!-- Node5 -->
<g id="node6" class="node">
<title>Node5</title>
<g id="a_node6"><a xlink:href="classdrain_1_1Range.html" target="_top" xlink:title=" ">
<polygon fill="white" stroke="black" points="150.5,-0.5 150.5,-19.5 226.5,-19.5 226.5,-0.5 150.5,-0.5"/>
<text text-anchor="middle" x="188.5" y="-7.5" font-family="Helvetica,sans-Serif" font-size="10.00">Range&lt; T &gt;</text>
</a>
</g>
</g>
<!-- Node0&#45;&gt;Node5 -->
<g id="edge5" class="edge">
<title>Node0&#45;&gt;Node5</title>
<path fill="none" stroke="midnightblue" d="M70.86,-70.16C87.45,-57.79 111.84,-40.77 135,-29 142,-25.44 149.82,-22.23 157.25,-19.51"/>
<polygon fill="midnightblue" stroke="midnightblue" points="68.36,-67.67 62.51,-76.5 72.59,-73.25 68.36,-67.67"/>
</g>
</g>
</svg>
