<?xml version="1.0" encoding="UTF-8" standalone="no"?>
<!DOCTYPE svg PUBLIC "-//W3C//DTD SVG 1.1//EN"
 "http://www.w3.org/Graphics/SVG/1.1/DTD/svg11.dtd">
<!-- Generated by graphviz version 2.43.0 (0)
 -->
<!-- Title: Graphical Class Hierarchy Pages: 1 -->
<svg width="304pt" height="218pt"
 viewBox="0.00 0.00 304.00 218.00" xmlns="http://www.w3.org/2000/svg" xmlns:xlink="http://www.w3.org/1999/xlink">
<g id="graph0" class="graph" transform="scale(1 1) rotate(0) translate(4 214)">
<title>Graphical Class Hierarchy</title>
<polygon fill="white" stroke="transparent" points="-4,4 -4,-214 300,-214 300,4 -4,4"/>
<!-- Node0 -->
<g id="node1" class="node">
<title>Node0</title>
<g id="a_node1"><a xlink:href="classdrain_1_1image_1_1AccumulationMethod.html" target="_top" xlink:title="Function for accumulating data: maximum, average, weighted average etc.">
<polygon fill="white" stroke="black" points="0,-95.5 0,-114.5 120,-114.5 120,-95.5 0,-95.5"/>
<text text-anchor="middle" x="60" y="-102.5" font-family="Helvetica,sans-Serif" font-size="10.00">AccumulationMethod</text>
</a>
</g>
</g>
<!-- Node1 -->
<g id="node2" class="node">
<title>Node1</title>
<g id="a_node2"><a xlink:href="classdrain_1_1image_1_1AverageMethod.html" target="_top" xlink:title=" ">
<polygon fill="white" stroke="black" points="179.5,-190.5 179.5,-209.5 272.5,-209.5 272.5,-190.5 179.5,-190.5"/>
<text text-anchor="middle" x="226" y="-197.5" font-family="Helvetica,sans-Serif" font-size="10.00">AverageMethod</text>
</a>
</g>
</g>
<!-- Node0&#45;&gt;Node1 -->
<g id="edge1" class="edge">
<title>Node0&#45;&gt;Node1</title>
<path fill="none" stroke="midnightblue" d="M77.64,-121.87C95.51,-139.09 125.49,-165.44 156,-181 163.42,-184.78 171.68,-187.89 179.83,-190.41"/>
<polygon fill="midnightblue" stroke="midnightblue" points="79.9,-119.19 70.32,-114.68 74.99,-124.18 79.9,-119.19"/>
</g>
<!-- Node2 -->
<g id="node3" class="node">
<title>Node2</title>
<g id="a_node3"><a xlink:href="classdrain_1_1image_1_1MaximumMethod.html" target="_top" xlink:title=" ">
<polygon fill="white" stroke="black" points="174.5,-152.5 174.5,-171.5 277.5,-171.5 277.5,-152.5 174.5,-152.5"/>
<text text-anchor="middle" x="226" y="-159.5" font-family="Helvetica,sans-Serif" font-size="10.00">MaximumMethod</text>
</a>
</g>
</g>
<!-- Node0&#45;&gt;Node2 -->
<g id="edge2" class="edge">
<title>Node0&#45;&gt;Node2</title>
<path fill="none" stroke="midnightblue" d="M92.34,-118.56C110.7,-126.25 134.45,-135.75 156,-143 166.01,-146.37 176.98,-149.59 187.17,-152.4"/>
<polygon fill="midnightblue" stroke="midnightblue" points="93.58,-115.29 83,-114.62 90.85,-121.73 93.58,-115.29"/>
</g>
<!-- Node3 -->
<g id="node4" class="node">
<title>Node3</title>
<g id="a_node4"><a xlink:href="classdrain_1_1image_1_1MaximumWeightMethod.html" target="_top" xlink:title=" ">
<polygon fill="white" stroke="black" points="157.5,-114.5 157.5,-133.5 294.5,-133.5 294.5,-114.5 157.5,-114.5"/>
<text text-anchor="middle" x="226" y="-121.5" font-family="Helvetica,sans-Serif" font-size="10.00">MaximumWeightMethod</text>
</a>
</g>
</g>
<!-- Node0&#45;&gt;Node3 -->
<g id="edge3" class="edge">
<title>Node0&#45;&gt;Node3</title>
<path fill="none" stroke="midnightblue" d="M130.2,-113.02C139.16,-114.05 148.32,-115.12 157.24,-116.15"/>
<polygon fill="midnightblue" stroke="midnightblue" points="130.54,-109.53 120.21,-111.86 129.74,-116.49 130.54,-109.53"/>
</g>
<!-- Node4 -->
<g id="node5" class="node">
<title>Node4</title>
<g id="a_node5"><a xlink:href="classdrain_1_1image_1_1MinimumMethod.html" target="_top" xlink:title=" ">
<polygon fill="white" stroke="black" points="176,-76.5 176,-95.5 276,-95.5 276,-76.5 176,-76.5"/>
<text text-anchor="middle" x="226" y="-83.5" font-family="Helvetica,sans-Serif" font-size="10.00">MinimumMethod</text>
</a>
</g>
</g>
<!-- Node0&#45;&gt;Node4 -->
<g id="edge4" class="edge">
<title>Node0&#45;&gt;Node4</title>
<path fill="none" stroke="midnightblue" d="M130.19,-96.98C145.54,-95.21 161.51,-93.36 175.86,-91.69"/>
<polygon fill="midnightblue" stroke="midnightblue" points="129.74,-93.51 120.21,-98.14 130.54,-100.47 129.74,-93.51"/>
</g>
<!-- Node5 -->
<g id="node6" class="node">
<title>Node5</title>
<g id="a_node6"><a xlink:href="classdrain_1_1image_1_1OverwriteMethod.html" target="_top" xlink:title=" ">
<polygon fill="white" stroke="black" points="175.5,-38.5 175.5,-57.5 276.5,-57.5 276.5,-38.5 175.5,-38.5"/>
<text text-anchor="middle" x="226" y="-45.5" font-family="Helvetica,sans-Serif" font-size="10.00">OverwriteMethod</text>
</a>
</g>
</g>
<!-- Node0&#45;&gt;Node5 -->
<g id="edge5" class="edge">
<title>Node0&#45;&gt;Node5</title>
<path fill="none" stroke="midnightblue" d="M92.34,-91.44C110.7,-83.75 134.45,-74.25 156,-67 166.01,-63.63 176.98,-60.41 187.17,-57.6"/>
<polygon fill="midnightblue" stroke="midnightblue" points="90.85,-88.27 83,-95.38 93.58,-94.71 90.85,-88.27"/>
</g>
<!-- Node6 -->
<g id="node7" class="node">
<title>Node6</title>
<g id="a_node7"><a xlink:href="classdrain_1_1image_1_1WeightedAverageMethod.html" target="_top" xlink:title=" ">
<polygon fill="white" stroke="black" points="156,-0.5 156,-19.5 296,-19.5 296,-0.5 156,-0.5"/>
<text text-anchor="middle" x="226" y="-7.5" font-family="Helvetica,sans-Serif" font-size="10.00">WeightedAverageMethod</text>
</a>
</g>
</g>
<!-- Node0&#45;&gt;Node6 -->
<g id="edge6" class="edge">
<title>Node0&#45;&gt;Node6</title>
<path fill="none" stroke="midnightblue" d="M77.64,-88.13C95.51,-70.91 125.49,-44.56 156,-29 163.42,-25.22 171.68,-22.11 179.83,-19.59"/>
<polygon fill="midnightblue" stroke="midnightblue" points="74.99,-85.82 70.32,-95.32 79.9,-90.81 74.99,-85.82"/>
</g>
</g>
</svg>
