<?xml version="1.0" encoding="UTF-8" standalone="no"?>
<!DOCTYPE svg PUBLIC "-//W3C//DTD SVG 1.1//EN"
 "http://www.w3.org/Graphics/SVG/1.1/DTD/svg11.dtd">
<!-- Generated by graphviz version 2.43.0 (0)
 -->
<!-- Title: Graphical Class Hierarchy Pages: 1 -->
<svg width="1179pt" height="280pt"
 viewBox="0.00 0.00 1179.00 280.00" xmlns="http://www.w3.org/2000/svg" xmlns:xlink="http://www.w3.org/1999/xlink">
<g id="graph0" class="graph" transform="scale(1 1) rotate(0) translate(4 276)">
<title>Graphical Class Hierarchy</title>
<polygon fill="white" stroke="transparent" points="-4,4 -4,-276 1175,-276 1175,4 -4,4"/>
<!-- Node187 -->
<g id="node1" class="node">
<title>Node187</title>
<g id="a_node1"><a xlink:title=" ">
<polygon fill="white" stroke="#bfbfbf" points="0,-138.5 0,-157.5 107,-157.5 107,-138.5 0,-138.5"/>
<text text-anchor="middle" x="53.5" y="-145.5" font-family="Helvetica,sans-Serif" font-size="10.00">RadarWindowCore</text>
</a>
</g>
</g>
<!-- Node0 -->
<g id="node2" class="node">
<title>Node0</title>
<g id="a_node2"><a xlink:href="classdrain_1_1image_1_1Window.html" target="_top" xlink:title=" ">
<polygon fill="white" stroke="black" points="143,-184.5 143,-203.5 324,-203.5 324,-184.5 143,-184.5"/>
<text text-anchor="middle" x="233.5" y="-191.5" font-family="Helvetica,sans-Serif" font-size="10.00">Window&lt; C, RadarWindowCore &gt;</text>
</a>
</g>
</g>
<!-- Node187&#45;&gt;Node0 -->
<g id="edge1" class="edge">
<title>Node187&#45;&gt;Node0</title>
<path fill="none" stroke="midnightblue" d="M96.93,-160.4C111.5,-164.55 127.93,-169.11 143,-173 158.3,-176.95 175.15,-180.99 190.06,-184.45"/>
<polygon fill="midnightblue" stroke="midnightblue" points="97.76,-157 87.19,-157.61 95.84,-163.73 97.76,-157"/>
</g>
<!-- Node195 -->
<g id="node9" class="node">
<title>Node195</title>
<g id="a_node9"><a xlink:href="classdrain_1_1image_1_1Window.html" target="_top" xlink:title=" ">
<polygon fill="white" stroke="black" points="156,-133 156,-163 311,-163 311,-133 156,-133"/>
<text text-anchor="start" x="164" y="-151" font-family="Helvetica,sans-Serif" font-size="10.00">Window&lt; DopplerInversion</text>
<text text-anchor="middle" x="233.5" y="-140" font-family="Helvetica,sans-Serif" font-size="10.00">Config, RadarWindowCore &gt;</text>
</a>
</g>
</g>
<!-- Node187&#45;&gt;Node195 -->
<g id="edge8" class="edge">
<title>Node187&#45;&gt;Node195</title>
<path fill="none" stroke="midnightblue" d="M117.6,-148C129.94,-148 143,-148 155.73,-148"/>
<polygon fill="midnightblue" stroke="midnightblue" points="117.42,-144.5 107.42,-148 117.42,-151.5 117.42,-144.5"/>
</g>
<!-- Node200 -->
<g id="node14" class="node">
<title>Node200</title>
<g id="a_node14"><a xlink:href="classdrain_1_1image_1_1Window.html" target="_top" xlink:title=" ">
<polygon fill="white" stroke="black" points="149,-84 149,-114 318,-114 318,-84 149,-84"/>
<text text-anchor="start" x="157" y="-102" font-family="Helvetica,sans-Serif" font-size="10.00">Window&lt; RadarWindowConfig,</text>
<text text-anchor="middle" x="233.5" y="-91" font-family="Helvetica,sans-Serif" font-size="10.00"> RadarWindowCore &gt;</text>
</a>
</g>
</g>
<!-- Node187&#45;&gt;Node200 -->
<g id="edge13" class="edge">
<title>Node187&#45;&gt;Node200</title>
<path fill="none" stroke="midnightblue" d="M99.1,-135.72C122.99,-129.15 152.62,-120.99 177.88,-114.04"/>
<polygon fill="midnightblue" stroke="midnightblue" points="97.96,-132.41 89.24,-138.44 99.81,-139.16 97.96,-132.41"/>
</g>
<!-- Node1 -->
<g id="node3" class="node">
<title>Node1</title>
<g id="a_node3"><a xlink:href="classdrain_1_1image_1_1SlidingWindow.html" target="_top" xlink:title=" ">
<polygon fill="white" stroke="black" points="361.5,-195 361.5,-225 541.5,-225 541.5,-195 361.5,-195"/>
<text text-anchor="start" x="369.5" y="-213" font-family="Helvetica,sans-Serif" font-size="10.00">SlidingWindow&lt; C, RadarWindow</text>
<text text-anchor="middle" x="451.5" y="-202" font-family="Helvetica,sans-Serif" font-size="10.00">Core &gt;</text>
</a>
</g>
</g>
<!-- Node0&#45;&gt;Node1 -->
<g id="edge2" class="edge">
<title>Node0&#45;&gt;Node1</title>
<path fill="none" stroke="midnightblue" d="M334.37,-201.4C343.39,-202.07 352.48,-202.74 361.4,-203.4"/>
<polygon fill="midnightblue" stroke="midnightblue" points="334.46,-197.89 324.23,-200.65 333.94,-204.88 334.46,-197.89"/>
</g>
<!-- Node2 -->
<g id="node4" class="node">
<title>Node2</title>
<g id="a_node4"><a xlink:href="classrack_1_1SlidingRadarWindow.html" target="_top" xlink:title="A two&#45;dimensional image processing window that handles the special ODIM codes and scales the result....">
<polygon fill="white" stroke="black" points="597.5,-239 597.5,-269 714.5,-269 714.5,-239 597.5,-239"/>
<text text-anchor="start" x="605.5" y="-257" font-family="Helvetica,sans-Serif" font-size="10.00">SlidingRadarWindow</text>
<text text-anchor="middle" x="656" y="-246" font-family="Helvetica,sans-Serif" font-size="10.00">&lt; C, R &gt;</text>
</a>
</g>
</g>
<!-- Node1&#45;&gt;Node2 -->
<g id="edge3" class="edge">
<title>Node1&#45;&gt;Node2</title>
<path fill="none" stroke="midnightblue" d="M531.57,-227.18C553.48,-231.94 576.85,-237.02 597.29,-241.46"/>
<polygon fill="midnightblue" stroke="midnightblue" points="532.14,-223.72 521.62,-225.02 530.65,-230.56 532.14,-223.72"/>
</g>
<!-- Node3 -->
<g id="node5" class="node">
<title>Node3</title>
<g id="a_node5"><a xlink:href="classrack_1_1SlidingRadarWindow.html" target="_top" xlink:title=" ">
<polygon fill="white" stroke="black" points="583,-200.5 583,-219.5 729,-219.5 729,-200.5 583,-200.5"/>
<text text-anchor="middle" x="656" y="-207.5" font-family="Helvetica,sans-Serif" font-size="10.00">SlidingRadarWindow&lt; C &gt;</text>
</a>
</g>
</g>
<!-- Node1&#45;&gt;Node3 -->
<g id="edge4" class="edge">
<title>Node1&#45;&gt;Node3</title>
<path fill="none" stroke="midnightblue" d="M551.68,-210C562.19,-210 572.74,-210 582.87,-210"/>
<polygon fill="midnightblue" stroke="midnightblue" points="551.61,-206.5 541.61,-210 551.61,-213.5 551.61,-206.5"/>
</g>
<!-- Node4 -->
<g id="node6" class="node">
<title>Node4</title>
<g id="a_node6"><a xlink:href="classrack_1_1RadarWindowAvg.html" target="_top" xlink:title=" ">
<polygon fill="white" stroke="black" points="794,-252.5 794,-271.5 925,-271.5 925,-252.5 794,-252.5"/>
<text text-anchor="middle" x="859.5" y="-259.5" font-family="Helvetica,sans-Serif" font-size="10.00">RadarWindowAvg&lt; C &gt;</text>
</a>
</g>
</g>
<!-- Node3&#45;&gt;Node4 -->
<g id="edge5" class="edge">
<title>Node3&#45;&gt;Node4</title>
<path fill="none" stroke="midnightblue" d="M705.61,-222.1C714.75,-224.57 724.2,-227.26 733,-230 749.24,-235.06 752.64,-238.33 769,-243 781.37,-246.53 794.88,-249.73 807.56,-252.45"/>
<polygon fill="midnightblue" stroke="midnightblue" points="706.42,-218.69 695.85,-219.51 704.62,-225.46 706.42,-218.69"/>
</g>
<!-- Node5 -->
<g id="node7" class="node">
<title>Node5</title>
<g id="a_node7"><a xlink:href="classrack_1_1RadarWindowSoftMax.html" target="_top" xlink:title=" ">
<polygon fill="white" stroke="black" points="782.5,-214.5 782.5,-233.5 936.5,-233.5 936.5,-214.5 782.5,-214.5"/>
<text text-anchor="middle" x="859.5" y="-221.5" font-family="Helvetica,sans-Serif" font-size="10.00">RadarWindowSoftMax&lt; C &gt;</text>
</a>
</g>
</g>
<!-- Node3&#45;&gt;Node5 -->
<g id="edge6" class="edge">
<title>Node3&#45;&gt;Node5</title>
<path fill="none" stroke="midnightblue" d="M739.42,-215.73C753.64,-216.71 768.36,-217.74 782.4,-218.71"/>
<polygon fill="midnightblue" stroke="midnightblue" points="739.4,-212.22 729.18,-215.01 738.91,-219.2 739.4,-212.22"/>
</g>
<!-- Node6 -->
<g id="node8" class="node">
<title>Node6</title>
<g id="a_node8"><a xlink:href="classrack_1_1RadarWindowStdDev.html" target="_top" xlink:title="Sliding window for computing standard deviation of scalar quantities.">
<polygon fill="white" stroke="black" points="785,-176.5 785,-195.5 934,-195.5 934,-176.5 785,-176.5"/>
<text text-anchor="middle" x="859.5" y="-183.5" font-family="Helvetica,sans-Serif" font-size="10.00">RadarWindowStdDev&lt; C &gt;</text>
</a>
</g>
</g>
<!-- Node3&#45;&gt;Node6 -->
<g id="edge7" class="edge">
<title>Node3&#45;&gt;Node6</title>
<path fill="none" stroke="midnightblue" d="M739.46,-200.18C754.48,-198.39 770.05,-196.53 784.79,-194.78"/>
<polygon fill="midnightblue" stroke="midnightblue" points="738.69,-196.75 729.18,-201.4 739.52,-203.7 738.69,-196.75"/>
</g>
<!-- Node196 -->
<g id="node10" class="node">
<title>Node196</title>
<g id="a_node10"><a xlink:href="classdrain_1_1image_1_1SlidingWindow.html" target="_top" xlink:title=" ">
<polygon fill="white" stroke="black" points="360,-133 360,-163 543,-163 543,-133 360,-133"/>
<text text-anchor="start" x="368" y="-151" font-family="Helvetica,sans-Serif" font-size="10.00">SlidingWindow&lt; DopplerInversion</text>
<text text-anchor="middle" x="451.5" y="-140" font-family="Helvetica,sans-Serif" font-size="10.00">Config, RadarWindowCore &gt;</text>
</a>
</g>
</g>
<!-- Node195&#45;&gt;Node196 -->
<g id="edge9" class="edge">
<title>Node195&#45;&gt;Node196</title>
<path fill="none" stroke="midnightblue" d="M321.35,-148C334.06,-148 347.18,-148 359.96,-148"/>
<polygon fill="midnightblue" stroke="midnightblue" points="321.26,-144.5 311.26,-148 321.26,-151.5 321.26,-144.5"/>
</g>
<!-- Node197 -->
<g id="node11" class="node">
<title>Node197</title>
<g id="a_node11"><a xlink:href="classrack_1_1SlidingRadarWindow.html" target="_top" xlink:title=" ">
<polygon fill="white" stroke="black" points="579,-133 579,-163 733,-163 733,-133 579,-133"/>
<text text-anchor="start" x="587" y="-151" font-family="Helvetica,sans-Serif" font-size="10.00">SlidingRadarWindow</text>
<text text-anchor="middle" x="656" y="-140" font-family="Helvetica,sans-Serif" font-size="10.00">&lt; DopplerInversionConfig &gt;</text>
</a>
</g>
</g>
<!-- Node196&#45;&gt;Node197 -->
<g id="edge10" class="edge">
<title>Node196&#45;&gt;Node197</title>
<path fill="none" stroke="midnightblue" d="M553.16,-148C561.76,-148 570.36,-148 578.72,-148"/>
<polygon fill="midnightblue" stroke="midnightblue" points="553.09,-144.5 543.09,-148 553.09,-151.5 553.09,-144.5"/>
</g>
<!-- Node198 -->
<g id="node12" class="node">
<title>Node198</title>
<g id="a_node12"><a xlink:href="classrack_1_1DopplerInversionWindow.html" target="_top" xlink:title=" ">
<polygon fill="white" stroke="black" points="790,-138.5 790,-157.5 929,-157.5 929,-138.5 790,-138.5"/>
<text text-anchor="middle" x="859.5" y="-145.5" font-family="Helvetica,sans-Serif" font-size="10.00">DopplerInversionWindow</text>
</a>
</g>
</g>
<!-- Node197&#45;&gt;Node198 -->
<g id="edge11" class="edge">
<title>Node197&#45;&gt;Node198</title>
<path fill="none" stroke="midnightblue" d="M743.31,-148C758.86,-148 774.87,-148 789.83,-148"/>
<polygon fill="midnightblue" stroke="midnightblue" points="743.18,-144.5 733.18,-148 743.18,-151.5 743.18,-144.5"/>
</g>
<!-- Node199 -->
<g id="node13" class="node">
<title>Node199</title>
<g id="a_node13"><a xlink:href="classrack_1_1DopplerInversionWindowWeighted.html" target="_top" xlink:title=" ">
<polygon fill="white" stroke="black" points="986,-152.5 986,-171.5 1171,-171.5 1171,-152.5 986,-152.5"/>
<text text-anchor="middle" x="1078.5" y="-159.5" font-family="Helvetica,sans-Serif" font-size="10.00">DopplerInversionWindowWeighted</text>
</a>
</g>
</g>
<!-- Node198&#45;&gt;Node199 -->
<g id="edge12" class="edge">
<title>Node198&#45;&gt;Node199</title>
<path fill="none" stroke="midnightblue" d="M939.45,-153.09C954.53,-154.07 970.43,-155.09 985.87,-156.09"/>
<polygon fill="midnightblue" stroke="midnightblue" points="939.36,-149.58 929.16,-152.43 938.91,-156.57 939.36,-149.58"/>
</g>
<!-- Node201 -->
<g id="node15" class="node">
<title>Node201</title>
<g id="a_node15"><a xlink:href="classdrain_1_1image_1_1SlidingWindow.html" target="_top" xlink:title=" ">
<polygon fill="white" stroke="black" points="368,-84 368,-114 535,-114 535,-84 368,-84"/>
<text text-anchor="start" x="376" y="-102" font-family="Helvetica,sans-Serif" font-size="10.00">SlidingWindow&lt; RadarWindow</text>
<text text-anchor="middle" x="451.5" y="-91" font-family="Helvetica,sans-Serif" font-size="10.00">Config, RadarWindowCore &gt;</text>
</a>
</g>
</g>
<!-- Node200&#45;&gt;Node201 -->
<g id="edge14" class="edge">
<title>Node200&#45;&gt;Node201</title>
<path fill="none" stroke="midnightblue" d="M328.08,-99C341.34,-99 354.89,-99 367.92,-99"/>
<polygon fill="midnightblue" stroke="midnightblue" points="328.01,-95.5 318.01,-99 328.01,-102.5 328.01,-95.5"/>
</g>
<!-- Node202 -->
<g id="node16" class="node">
<title>Node202</title>
<g id="a_node16"><a xlink:href="classrack_1_1SlidingRadarWindow.html" target="_top" xlink:title=" ">
<polygon fill="white" stroke="black" points="587,-71 587,-101 725,-101 725,-71 587,-71"/>
<text text-anchor="start" x="595" y="-89" font-family="Helvetica,sans-Serif" font-size="10.00">SlidingRadarWindow</text>
<text text-anchor="middle" x="656" y="-78" font-family="Helvetica,sans-Serif" font-size="10.00">&lt; RadarWindowConfig &gt;</text>
</a>
</g>
</g>
<!-- Node201&#45;&gt;Node202 -->
<g id="edge15" class="edge">
<title>Node201&#45;&gt;Node202</title>
<path fill="none" stroke="midnightblue" d="M545.29,-93.04C559.27,-92.15 573.47,-91.23 586.81,-90.38"/>
<polygon fill="midnightblue" stroke="midnightblue" points="544.91,-89.56 535.16,-93.69 545.36,-96.55 544.91,-89.56"/>
</g>
<!-- Node203 -->
<g id="node17" class="node">
<title>Node203</title>
<g id="a_node17"><a xlink:href="classrack_1_1DopplerWindow.html" target="_top" xlink:title=" ">
<polygon fill="white" stroke="black" points="812.5,-76.5 812.5,-95.5 906.5,-95.5 906.5,-76.5 812.5,-76.5"/>
<text text-anchor="middle" x="859.5" y="-83.5" font-family="Helvetica,sans-Serif" font-size="10.00">DopplerWindow</text>
</a>
</g>
</g>
<!-- Node202&#45;&gt;Node203 -->
<g id="edge16" class="edge">
<title>Node202&#45;&gt;Node203</title>
<path fill="none" stroke="midnightblue" d="M735.44,-86C761.42,-86 789.49,-86 812.25,-86"/>
<polygon fill="midnightblue" stroke="midnightblue" points="735.22,-82.5 725.22,-86 735.22,-89.5 735.22,-82.5"/>
</g>
<!-- Node208 -->
<g id="node22" class="node">
<title>Node208</title>
<g id="a_node22"><a xlink:href="classrack_1_1RadarWindowAvg.html" target="_top" xlink:title=" ">
<polygon fill="white" stroke="black" points="769,-27 769,-57 950,-57 950,-27 769,-27"/>
<text text-anchor="start" x="777" y="-45" font-family="Helvetica,sans-Serif" font-size="10.00">RadarWindowAvg&lt; RadarWindow</text>
<text text-anchor="middle" x="859.5" y="-34" font-family="Helvetica,sans-Serif" font-size="10.00">Config &gt;</text>
</a>
</g>
</g>
<!-- Node202&#45;&gt;Node208 -->
<g id="edge21" class="edge">
<title>Node202&#45;&gt;Node208</title>
<path fill="none" stroke="midnightblue" d="M735.09,-68.95C753.09,-65.02 772.1,-60.87 789.67,-57.03"/>
<polygon fill="midnightblue" stroke="midnightblue" points="734.24,-65.55 725.22,-71.1 735.74,-72.39 734.24,-65.55"/>
</g>
<!-- Node204 -->
<g id="node18" class="node">
<title>Node204</title>
<g id="a_node18"><a xlink:href="classrack_1_1DopplerAverageWindow.html" target="_top" xlink:title=" ">
<polygon fill="white" stroke="black" points="1011.5,-114.5 1011.5,-133.5 1145.5,-133.5 1145.5,-114.5 1011.5,-114.5"/>
<text text-anchor="middle" x="1078.5" y="-121.5" font-family="Helvetica,sans-Serif" font-size="10.00">DopplerAverageWindow</text>
</a>
</g>
</g>
<!-- Node203&#45;&gt;Node204 -->
<g id="edge17" class="edge">
<title>Node203&#45;&gt;Node204</title>
<path fill="none" stroke="midnightblue" d="M916.42,-95.79C949.25,-101.54 990.55,-108.77 1023.11,-114.48"/>
<polygon fill="midnightblue" stroke="midnightblue" points="916.97,-92.34 906.52,-94.06 915.77,-99.23 916.97,-92.34"/>
</g>
<!-- Node205 -->
<g id="node19" class="node">
<title>Node205</title>
<g id="a_node19"><a xlink:href="classrack_1_1DopplerAverageWindow2.html" target="_top" xlink:title="Smoothens Doppler field, providing quality computed as eccentricity.">
<polygon fill="white" stroke="black" points="1008.5,-76.5 1008.5,-95.5 1148.5,-95.5 1148.5,-76.5 1008.5,-76.5"/>
<text text-anchor="middle" x="1078.5" y="-83.5" font-family="Helvetica,sans-Serif" font-size="10.00">DopplerAverageWindow2</text>
</a>
</g>
</g>
<!-- Node203&#45;&gt;Node205 -->
<g id="edge18" class="edge">
<title>Node203&#45;&gt;Node205</title>
<path fill="none" stroke="midnightblue" d="M916.55,-86C944.6,-86 978.8,-86 1008.45,-86"/>
<polygon fill="midnightblue" stroke="midnightblue" points="916.52,-82.5 906.52,-86 916.52,-89.5 916.52,-82.5"/>
</g>
<!-- Node206 -->
<g id="node20" class="node">
<title>Node206</title>
<g id="a_node20"><a xlink:href="classrack_1_1DopplerDevWindow.html" target="_top" xlink:title=" ">
<polygon fill="white" stroke="black" points="1022,-38.5 1022,-57.5 1135,-57.5 1135,-38.5 1022,-38.5"/>
<text text-anchor="middle" x="1078.5" y="-45.5" font-family="Helvetica,sans-Serif" font-size="10.00">DopplerDevWindow</text>
</a>
</g>
</g>
<!-- Node203&#45;&gt;Node206 -->
<g id="edge19" class="edge">
<title>Node203&#45;&gt;Node206</title>
<path fill="none" stroke="midnightblue" d="M916.42,-76.21C949.25,-70.46 990.55,-63.23 1023.11,-57.52"/>
<polygon fill="midnightblue" stroke="midnightblue" points="915.77,-72.77 906.52,-77.94 916.97,-79.66 915.77,-72.77"/>
</g>
<!-- Node207 -->
<g id="node21" class="node">
<title>Node207</title>
<g id="a_node21"><a xlink:href="classrack_1_1DopplerEccentricityWindow.html" target="_top" xlink:title="Computes eccentrity of Doppler speeds mapped on a Nyquist&#45;normalized unit window.">
<polygon fill="white" stroke="black" points="1003,-0.5 1003,-19.5 1154,-19.5 1154,-0.5 1003,-0.5"/>
<text text-anchor="middle" x="1078.5" y="-7.5" font-family="Helvetica,sans-Serif" font-size="10.00">DopplerEccentricityWindow</text>
</a>
</g>
</g>
<!-- Node203&#45;&gt;Node207 -->
<g id="edge20" class="edge">
<title>Node203&#45;&gt;Node207</title>
<path fill="none" stroke="midnightblue" d="M916.59,-79.5C928.11,-76.7 939.82,-72.71 950,-67 970.29,-55.63 965.68,-40.33 986,-29 992.94,-25.13 1000.58,-22.04 1008.39,-19.59"/>
<polygon fill="midnightblue" stroke="midnightblue" points="915.59,-76.13 906.55,-81.66 917.07,-82.98 915.59,-76.13"/>
</g>
</g>
</svg>
