<?xml version="1.0" encoding="UTF-8" standalone="no"?>
<!DOCTYPE svg PUBLIC "-//W3C//DTD SVG 1.1//EN"
 "http://www.w3.org/Graphics/SVG/1.1/DTD/svg11.dtd">
<!-- Generated by graphviz version 2.43.0 (0)
 -->
<!-- Title: Graphical Class Hierarchy Pages: 1 -->
<svg width="515pt" height="104pt"
 viewBox="0.00 0.00 515.00 104.00" xmlns="http://www.w3.org/2000/svg" xmlns:xlink="http://www.w3.org/1999/xlink">
<g id="graph0" class="graph" transform="scale(1 1) rotate(0) translate(4 100)">
<title>Graphical Class Hierarchy</title>
<polygon fill="white" stroke="transparent" points="-4,4 -4,-100 511,-100 511,4 -4,4"/>
<!-- Node0 -->
<g id="node1" class="node">
<title>Node0</title>
<g id="a_node1"><a xlink:href="classdrain_1_1image_1_1ProductOp.html" target="_top" xlink:title=" ">
<polygon fill="white" stroke="black" points="0,-33 0,-63 162,-63 162,-33 0,-33"/>
<text text-anchor="start" x="8" y="-51" font-family="Helvetica,sans-Serif" font-size="10.00">ProductOp&lt; const PolarODIM,</text>
<text text-anchor="middle" x="81" y="-40" font-family="Helvetica,sans-Serif" font-size="10.00"> VerticalProfileODIM &gt;</text>
</a>
</g>
</g>
<!-- Node1 -->
<g id="node2" class="node">
<title>Node1</title>
<g id="a_node2"><a xlink:href="classrack_1_1VolumeOp.html" target="_top" xlink:title=" ">
<polygon fill="white" stroke="black" points="198,-33 198,-63 346,-63 346,-33 198,-33"/>
<text text-anchor="start" x="206" y="-51" font-family="Helvetica,sans-Serif" font-size="10.00">VolumeOp&lt; VerticalProfile</text>
<text text-anchor="middle" x="272" y="-40" font-family="Helvetica,sans-Serif" font-size="10.00">ODIM &gt;</text>
</a>
</g>
</g>
<!-- Node0&#45;&gt;Node1 -->
<g id="edge1" class="edge">
<title>Node0&#45;&gt;Node1</title>
<path fill="none" stroke="midnightblue" d="M172.23,-48C180.84,-48 189.5,-48 197.92,-48"/>
<polygon fill="midnightblue" stroke="midnightblue" points="172.15,-44.5 162.15,-48 172.15,-51.5 172.15,-44.5"/>
</g>
<!-- Node2 -->
<g id="node3" class="node">
<title>Node2</title>
<g id="a_node3"><a xlink:href="classrack_1_1VerticalIntersectionOp.html" target="_top" xlink:title=" ">
<polygon fill="white" stroke="black" points="382,-76.5 382,-95.5 507,-95.5 507,-76.5 382,-76.5"/>
<text text-anchor="middle" x="444.5" y="-83.5" font-family="Helvetica,sans-Serif" font-size="10.00">VerticalIntersectionOp</text>
</a>
</g>
</g>
<!-- Node1&#45;&gt;Node2 -->
<g id="edge2" class="edge">
<title>Node1&#45;&gt;Node2</title>
<path fill="none" stroke="midnightblue" d="M350.51,-65.28C367.83,-69.14 385.58,-73.09 400.87,-76.5"/>
<polygon fill="midnightblue" stroke="midnightblue" points="350.91,-61.78 340.39,-63.02 349.39,-68.61 350.91,-61.78"/>
</g>
<!-- Node3 -->
<g id="node4" class="node">
<title>Node3</title>
<g id="a_node4"><a xlink:href="classrack_1_1VerticalProfileOp.html" target="_top" xlink:title="Computes vertical profiles of reflectivity (DBZH), including raw and polarized reflectivity.">
<polygon fill="white" stroke="black" points="395,-38.5 395,-57.5 494,-57.5 494,-38.5 395,-38.5"/>
<text text-anchor="middle" x="444.5" y="-45.5" font-family="Helvetica,sans-Serif" font-size="10.00">VerticalProfileOp</text>
</a>
</g>
</g>
<!-- Node1&#45;&gt;Node3 -->
<g id="edge3" class="edge">
<title>Node1&#45;&gt;Node3</title>
<path fill="none" stroke="midnightblue" d="M356.36,-48C369.56,-48 382.83,-48 394.88,-48"/>
<polygon fill="midnightblue" stroke="midnightblue" points="356.3,-44.5 346.3,-48 356.3,-51.5 356.3,-44.5"/>
</g>
<!-- Node4 -->
<g id="node5" class="node">
<title>Node4</title>
<g id="a_node5"><a xlink:href="classrack_1_1VerticalWindProfileOp.html" target="_top" xlink:title="Computes vertical profiles of reflectivity (DBZH), including raw and polarized reflectivity.">
<polygon fill="white" stroke="black" points="382.5,-0.5 382.5,-19.5 506.5,-19.5 506.5,-0.5 382.5,-0.5"/>
<text text-anchor="middle" x="444.5" y="-7.5" font-family="Helvetica,sans-Serif" font-size="10.00">VerticalWindProfileOp</text>
</a>
</g>
</g>
<!-- Node1&#45;&gt;Node4 -->
<g id="edge4" class="edge">
<title>Node1&#45;&gt;Node4</title>
<path fill="none" stroke="midnightblue" d="M350.51,-30.72C367.83,-26.86 385.58,-22.91 400.87,-19.5"/>
<polygon fill="midnightblue" stroke="midnightblue" points="349.39,-27.39 340.39,-32.98 350.91,-34.22 349.39,-27.39"/>
</g>
</g>
</svg>
