<?xml version="1.0" encoding="UTF-8" standalone="no"?>
<!DOCTYPE svg PUBLIC "-//W3C//DTD SVG 1.1//EN"
 "http://www.w3.org/Graphics/SVG/1.1/DTD/svg11.dtd">
<!-- Generated by graphviz version 2.43.0 (0)
 -->
<!-- Title: Graphical Class Hierarchy Pages: 1 -->
<svg width="456pt" height="39pt"
 viewBox="0.00 0.00 456.00 39.00" xmlns="http://www.w3.org/2000/svg" xmlns:xlink="http://www.w3.org/1999/xlink">
<g id="graph0" class="graph" transform="scale(1 1) rotate(0) translate(4 35)">
<title>Graphical Class Hierarchy</title>
<polygon fill="white" stroke="transparent" points="-4,4 -4,-35 452,-35 452,4 -4,4"/>
<!-- Node0 -->
<g id="node1" class="node">
<title>Node0</title>
<g id="a_node1"><a xlink:href="classdrain_1_1image_1_1ProductOp.html" target="_top" xlink:title=" ">
<polygon fill="white" stroke="black" points="0,-0.5 0,-30.5 162,-30.5 162,-0.5 0,-0.5"/>
<text text-anchor="start" x="8" y="-18.5" font-family="Helvetica,sans-Serif" font-size="10.00">ProductOp&lt; const PolarODIM,</text>
<text text-anchor="middle" x="81" y="-7.5" font-family="Helvetica,sans-Serif" font-size="10.00"> RhiODIM &gt;</text>
</a>
</g>
</g>
<!-- Node1 -->
<g id="node2" class="node">
<title>Node1</title>
<g id="a_node2"><a xlink:href="classrack_1_1VolumeOp.html" target="_top" xlink:title=" ">
<polygon fill="white" stroke="black" points="198,-6 198,-25 331,-25 331,-6 198,-6"/>
<text text-anchor="middle" x="264.5" y="-13" font-family="Helvetica,sans-Serif" font-size="10.00">VolumeOp&lt; RhiODIM &gt;</text>
</a>
</g>
</g>
<!-- Node0&#45;&gt;Node1 -->
<g id="edge1" class="edge">
<title>Node0&#45;&gt;Node1</title>
<path fill="none" stroke="midnightblue" d="M172.27,-15.5C180.93,-15.5 189.58,-15.5 197.93,-15.5"/>
<polygon fill="midnightblue" stroke="midnightblue" points="172.14,-12 162.14,-15.5 172.14,-19 172.14,-12"/>
</g>
<!-- Node2 -->
<g id="node3" class="node">
<title>Node2</title>
<g id="a_node3"><a xlink:href="classrack_1_1PseudoRhiOp.html" target="_top" xlink:title="Pseudo Range&#45;Height indicator.">
<polygon fill="white" stroke="black" points="367,-6 367,-25 448,-25 448,-6 367,-6"/>
<text text-anchor="middle" x="407.5" y="-13" font-family="Helvetica,sans-Serif" font-size="10.00">PseudoRhiOp</text>
</a>
</g>
</g>
<!-- Node1&#45;&gt;Node2 -->
<g id="edge2" class="edge">
<title>Node1&#45;&gt;Node2</title>
<path fill="none" stroke="midnightblue" d="M341.09,-15.5C349.97,-15.5 358.75,-15.5 366.84,-15.5"/>
<polygon fill="midnightblue" stroke="midnightblue" points="341.05,-12 331.05,-15.5 341.05,-19 341.05,-12"/>
</g>
</g>
</svg>
