<?xml version="1.0" encoding="UTF-8" standalone="no"?>
<!DOCTYPE svg PUBLIC "-//W3C//DTD SVG 1.1//EN"
 "http://www.w3.org/Graphics/SVG/1.1/DTD/svg11.dtd">
<!-- Generated by graphviz version 2.43.0 (0)
 -->
<!-- Title: SamplePicker Pages: 1 -->
<svg width="372pt" height="209pt"
 viewBox="0.00 0.00 372.00 209.00" xmlns="http://www.w3.org/2000/svg" xmlns:xlink="http://www.w3.org/1999/xlink">
<g id="graph0" class="graph" transform="scale(1 1) rotate(0) translate(4 205)">
<title>SamplePicker</title>
<polygon fill="white" stroke="transparent" points="-4,4 -4,-205 368,-205 368,4 -4,4"/>
<!-- Node1 -->
<g id="node1" class="node">
<title>Node1</title>
<g id="a_node1"><a xlink:title="Interprets data values for Sampler.">
<polygon fill="#bfbfbf" stroke="black" points="145,-0.5 145,-19.5 228,-19.5 228,-0.5 145,-0.5"/>
<text text-anchor="middle" x="186.5" y="-7.5" font-family="Helvetica,sans-Serif" font-size="10.00">SamplePicker</text>
</a>
</g>
</g>
<!-- Node2 -->
<g id="node2" class="node">
<title>Node2</title>
<g id="a_node2"><a xlink:href="classdrain_1_1ReferenceMap.html" target="_top" xlink:title=" ">
<polygon fill="white" stroke="black" points="88,-67.5 88,-86.5 175,-86.5 175,-67.5 88,-67.5"/>
<text text-anchor="middle" x="131.5" y="-74.5" font-family="Helvetica,sans-Serif" font-size="10.00">ReferenceMap</text>
</a>
</g>
</g>
<!-- Node2&#45;&gt;Node1 -->
<g id="edge1" class="edge">
<title>Node2&#45;&gt;Node1</title>
<path fill="none" stroke="#9a32cd" stroke-dasharray="5,2" d="M141.71,-58.46C145.94,-51.78 151.11,-44.28 156.5,-38 162.25,-31.3 169.61,-24.66 175.6,-19.64"/>
<polygon fill="#9a32cd" stroke="#9a32cd" points="138.48,-57.05 136.29,-67.41 144.47,-60.68 138.48,-57.05"/>
<text text-anchor="middle" x="188.5" y="-41" font-family="Helvetica,sans-Serif" font-size="10.00"> variableMap</text>
</g>
<!-- Node3 -->
<g id="node3" class="node">
<title>Node3</title>
<g id="a_node3"><a xlink:href="classdrain_1_1SmartMap.html" target="_top" xlink:title=" ">
<polygon fill="white" stroke="black" points="20,-124.5 20,-143.5 163,-143.5 163,-124.5 20,-124.5"/>
<text text-anchor="middle" x="91.5" y="-131.5" font-family="Helvetica,sans-Serif" font-size="10.00">SmartMap&lt; Referencer &gt;</text>
</a>
</g>
</g>
<!-- Node3&#45;&gt;Node2 -->
<g id="edge2" class="edge">
<title>Node3&#45;&gt;Node2</title>
<path fill="none" stroke="midnightblue" d="M103.69,-116.23C110.78,-106.49 119.41,-94.62 125.16,-86.71"/>
<polygon fill="midnightblue" stroke="midnightblue" points="100.8,-114.26 97.75,-124.41 106.46,-118.38 100.8,-114.26"/>
</g>
<!-- Node4 -->
<g id="node4" class="node">
<title>Node4</title>
<g id="a_node4"><a xlink:title=" ">
<polygon fill="white" stroke="#bfbfbf" points="0,-181.5 0,-200.5 169,-200.5 169,-181.5 0,-181.5"/>
<text text-anchor="middle" x="84.5" y="-188.5" font-family="Helvetica,sans-Serif" font-size="10.00">map&lt; std::string, Referencer &gt;</text>
</a>
</g>
</g>
<!-- Node4&#45;&gt;Node3 -->
<g id="edge3" class="edge">
<title>Node4&#45;&gt;Node3</title>
<path fill="none" stroke="midnightblue" d="M86.86,-171.42C88.06,-162.05 89.45,-151.14 90.39,-143.71"/>
<polygon fill="midnightblue" stroke="midnightblue" points="83.38,-171.04 85.59,-181.41 90.33,-171.93 83.38,-171.04"/>
</g>
<!-- Node5 -->
<g id="node5" class="node">
<title>Node5</title>
<g id="a_node5"><a xlink:href="classdrain_1_1FlexVariableMap.html" target="_top" xlink:title="A map of FlexVariable:s.">
<polygon fill="white" stroke="black" points="206,-67.5 206,-86.5 305,-86.5 305,-67.5 206,-67.5"/>
<text text-anchor="middle" x="255.5" y="-74.5" font-family="Helvetica,sans-Serif" font-size="10.00">FlexVariableMap</text>
</a>
</g>
</g>
<!-- Node5&#45;&gt;Node1 -->
<g id="edge4" class="edge">
<title>Node5&#45;&gt;Node1</title>
<path fill="none" stroke="#9a32cd" stroke-dasharray="5,2" d="M241.74,-59.97C235.49,-52.99 227.87,-44.85 220.5,-38 213.43,-31.43 204.93,-24.68 198.2,-19.57"/>
<polygon fill="#9a32cd" stroke="#9a32cd" points="239.12,-62.29 248.34,-67.5 244.38,-57.67 239.12,-62.29"/>
<text text-anchor="middle" x="254" y="-41" font-family="Helvetica,sans-Serif" font-size="10.00"> infoMap</text>
</g>
<!-- Node6 -->
<g id="node6" class="node">
<title>Node6</title>
<g id="a_node6"><a xlink:href="classdrain_1_1SmartMap.html" target="_top" xlink:title=" ">
<polygon fill="white" stroke="black" points="194,-124.5 194,-143.5 345,-143.5 345,-124.5 194,-124.5"/>
<text text-anchor="middle" x="269.5" y="-131.5" font-family="Helvetica,sans-Serif" font-size="10.00">SmartMap&lt; FlexVariable &gt;</text>
</a>
</g>
</g>
<!-- Node6&#45;&gt;Node5 -->
<g id="edge5" class="edge">
<title>Node6&#45;&gt;Node5</title>
<path fill="none" stroke="midnightblue" d="M264.77,-114.42C262.39,-105.05 259.61,-94.14 257.72,-86.71"/>
<polygon fill="midnightblue" stroke="midnightblue" points="261.45,-115.58 267.31,-124.41 268.24,-113.85 261.45,-115.58"/>
</g>
<!-- Node7 -->
<g id="node7" class="node">
<title>Node7</title>
<g id="a_node7"><a xlink:title=" ">
<polygon fill="white" stroke="#bfbfbf" points="187,-181.5 187,-200.5 364,-200.5 364,-181.5 187,-181.5"/>
<text text-anchor="middle" x="275.5" y="-188.5" font-family="Helvetica,sans-Serif" font-size="10.00">map&lt; std::string, FlexVariable &gt;</text>
</a>
</g>
</g>
<!-- Node7&#45;&gt;Node6 -->
<g id="edge6" class="edge">
<title>Node7&#45;&gt;Node6</title>
<path fill="none" stroke="midnightblue" d="M273.47,-171.42C272.45,-162.05 271.26,-151.14 270.45,-143.71"/>
<polygon fill="midnightblue" stroke="midnightblue" points="270,-171.84 274.56,-181.41 276.96,-171.09 270,-171.84"/>
</g>
</g>
</svg>
