<?xml version="1.0" encoding="UTF-8" standalone="no"?>
<!DOCTYPE svg PUBLIC "-//W3C//DTD SVG 1.1//EN"
 "http://www.w3.org/Graphics/SVG/1.1/DTD/svg11.dtd">
<!-- Generated by graphviz version 2.43.0 (0)
 -->
<!-- Title: ProductConf Pages: 1 -->
<svg width="509pt" height="364pt"
 viewBox="0.00 0.00 508.50 364.00" xmlns="http://www.w3.org/2000/svg" xmlns:xlink="http://www.w3.org/1999/xlink">
<g id="graph0" class="graph" transform="scale(1 1) rotate(0) translate(4 360)">
<title>ProductConf</title>
<polygon fill="white" stroke="transparent" points="-4,4 -4,-360 504.5,-360 504.5,4 -4,4"/>
<!-- Node1 -->
<g id="node1" class="node">
<title>Node1</title>
<g id="a_node1"><a xlink:title="Shared properties for meteorological products and Cartesian products (composites and single&#45;radar ima...">
<polygon fill="#bfbfbf" stroke="black" points="302.5,-0.5 302.5,-19.5 378.5,-19.5 378.5,-0.5 302.5,-0.5"/>
<text text-anchor="middle" x="340.5" y="-7.5" font-family="Helvetica,sans-Serif" font-size="10.00">ProductConf</text>
</a>
</g>
</g>
<!-- Node2 -->
<g id="node2" class="node">
<title>Node2</title>
<g id="a_node2"><a xlink:href="classrack_1_1DataSelector.html" target="_top" xlink:title="Tool for selecting datasets based on paths, quantities and min/max elevations.">
<polygon fill="white" stroke="black" points="248.5,-67.5 248.5,-86.5 328.5,-86.5 328.5,-67.5 248.5,-67.5"/>
<text text-anchor="middle" x="288.5" y="-74.5" font-family="Helvetica,sans-Serif" font-size="10.00">DataSelector</text>
</a>
</g>
</g>
<!-- Node2&#45;&gt;Node1 -->
<g id="edge1" class="edge">
<title>Node2&#45;&gt;Node1</title>
<path fill="none" stroke="#9a32cd" stroke-dasharray="5,2" d="M289.43,-57.24C290.5,-50.69 292.57,-43.58 296.5,-38 302.08,-30.09 310.78,-24.05 318.98,-19.71"/>
<polygon fill="#9a32cd" stroke="#9a32cd" points="285.92,-57.09 288.42,-67.39 292.89,-57.78 285.92,-57.09"/>
<text text-anchor="middle" x="329" y="-41" font-family="Helvetica,sans-Serif" font-size="10.00"> dataSelector</text>
</g>
<!-- Node3 -->
<g id="node3" class="node">
<title>Node3</title>
<g id="a_node3"><a xlink:href="classdrain_1_1BeanLike.html" target="_top" xlink:title="Something which has a name, a description and possibly some parameters of varying type.">
<polygon fill="white" stroke="black" points="94,-145.5 94,-164.5 155,-164.5 155,-145.5 94,-145.5"/>
<text text-anchor="middle" x="124.5" y="-152.5" font-family="Helvetica,sans-Serif" font-size="10.00">BeanLike</text>
</a>
</g>
</g>
<!-- Node3&#45;&gt;Node2 -->
<g id="edge2" class="edge">
<title>Node3&#45;&gt;Node2</title>
<path fill="none" stroke="midnightblue" d="M152.22,-141.16C185.68,-125.65 241.04,-99.99 269.82,-86.66"/>
<polygon fill="midnightblue" stroke="midnightblue" points="150.6,-138.05 142.99,-145.43 153.54,-144.4 150.6,-138.05"/>
</g>
<!-- Node4 -->
<g id="node4" class="node">
<title>Node4</title>
<g id="a_node4"><a xlink:href="classdrain_1_1ReferenceMap.html" target="_top" xlink:title=" ">
<polygon fill="white" stroke="black" points="59,-212.5 59,-231.5 146,-231.5 146,-212.5 59,-212.5"/>
<text text-anchor="middle" x="102.5" y="-219.5" font-family="Helvetica,sans-Serif" font-size="10.00">ReferenceMap</text>
</a>
</g>
</g>
<!-- Node4&#45;&gt;Node3 -->
<g id="edge3" class="edge">
<title>Node4&#45;&gt;Node3</title>
<path fill="none" stroke="#9a32cd" stroke-dasharray="5,2" d="M108.79,-202.41C113,-189.99 118.33,-174.22 121.58,-164.63"/>
<polygon fill="#9a32cd" stroke="#9a32cd" points="105.36,-201.64 105.47,-212.23 111.99,-203.88 105.36,-201.64"/>
<text text-anchor="middle" x="145.5" y="-186" font-family="Helvetica,sans-Serif" font-size="10.00"> parameters</text>
</g>
<!-- Node5 -->
<g id="node5" class="node">
<title>Node5</title>
<g id="a_node5"><a xlink:href="classdrain_1_1SmartMap.html" target="_top" xlink:title=" ">
<polygon fill="white" stroke="black" points="13,-279.5 13,-298.5 156,-298.5 156,-279.5 13,-279.5"/>
<text text-anchor="middle" x="84.5" y="-286.5" font-family="Helvetica,sans-Serif" font-size="10.00">SmartMap&lt; Referencer &gt;</text>
</a>
</g>
</g>
<!-- Node5&#45;&gt;Node4 -->
<g id="edge4" class="edge">
<title>Node5&#45;&gt;Node4</title>
<path fill="none" stroke="midnightblue" d="M89.65,-269.41C93.09,-256.99 97.46,-241.22 100.11,-231.63"/>
<polygon fill="midnightblue" stroke="midnightblue" points="86.22,-268.66 86.93,-279.23 92.97,-270.53 86.22,-268.66"/>
</g>
<!-- Node6 -->
<g id="node6" class="node">
<title>Node6</title>
<g id="a_node6"><a xlink:title=" ">
<polygon fill="white" stroke="#bfbfbf" points="0,-336.5 0,-355.5 169,-355.5 169,-336.5 0,-336.5"/>
<text text-anchor="middle" x="84.5" y="-343.5" font-family="Helvetica,sans-Serif" font-size="10.00">map&lt; std::string, Referencer &gt;</text>
</a>
</g>
</g>
<!-- Node6&#45;&gt;Node5 -->
<g id="edge5" class="edge">
<title>Node6&#45;&gt;Node5</title>
<path fill="none" stroke="midnightblue" d="M84.5,-326.12C84.5,-316.82 84.5,-306.06 84.5,-298.71"/>
<polygon fill="midnightblue" stroke="midnightblue" points="81,-326.41 84.5,-336.41 88,-326.41 81,-326.41"/>
</g>
<!-- Node7 -->
<g id="node7" class="node">
<title>Node7</title>
<g id="a_node7"><a xlink:href="classrack_1_1ODIMPathMatcher.html" target="_top" xlink:title="Structure for testing if a path matches a given sequence of path elements.">
<polygon fill="white" stroke="black" points="188,-145.5 188,-164.5 293,-164.5 293,-145.5 188,-145.5"/>
<text text-anchor="middle" x="240.5" y="-152.5" font-family="Helvetica,sans-Serif" font-size="10.00">ODIMPathMatcher</text>
</a>
</g>
</g>
<!-- Node7&#45;&gt;Node2 -->
<g id="edge6" class="edge">
<title>Node7&#45;&gt;Node2</title>
<path fill="none" stroke="#9a32cd" stroke-dasharray="5,2" d="M239.14,-135.1C239.31,-125.43 240.93,-113.87 246.5,-105 251.48,-97.07 259.73,-91.03 267.61,-86.69"/>
<polygon fill="#9a32cd" stroke="#9a32cd" points="235.65,-135.42 239.45,-145.3 242.64,-135.2 235.65,-135.42"/>
<text text-anchor="middle" x="279" y="-113.5" font-family="Helvetica,sans-Serif" font-size="10.00"> pathMatcher</text>
</g>
<!-- Node8 -->
<g id="node8" class="node">
<title>Node8</title>
<g id="a_node8"><a xlink:href="classdrain_1_1Path.html" target="_top" xlink:title=" ">
<polygon fill="white" stroke="black" points="170.5,-212.5 170.5,-231.5 344.5,-231.5 344.5,-212.5 170.5,-212.5"/>
<text text-anchor="middle" x="257.5" y="-219.5" font-family="Helvetica,sans-Serif" font-size="10.00">Path&lt; ODIMPathElemMatcher &gt;</text>
</a>
</g>
</g>
<!-- Node8&#45;&gt;Node7 -->
<g id="edge7" class="edge">
<title>Node8&#45;&gt;Node7</title>
<path fill="none" stroke="midnightblue" d="M252.64,-202.41C249.39,-189.99 245.26,-174.22 242.76,-164.63"/>
<polygon fill="midnightblue" stroke="midnightblue" points="249.29,-203.44 255.21,-212.23 256.06,-201.67 249.29,-203.44"/>
</g>
<!-- Node9 -->
<g id="node9" class="node">
<title>Node9</title>
<g id="a_node9"><a xlink:title=" ">
<polygon fill="white" stroke="#bfbfbf" points="174,-279.5 174,-298.5 341,-298.5 341,-279.5 174,-279.5"/>
<text text-anchor="middle" x="257.5" y="-286.5" font-family="Helvetica,sans-Serif" font-size="10.00">list&lt; ODIMPathElemMatcher &gt;</text>
</a>
</g>
</g>
<!-- Node9&#45;&gt;Node8 -->
<g id="edge8" class="edge">
<title>Node9&#45;&gt;Node8</title>
<path fill="none" stroke="midnightblue" d="M257.5,-269.04C257.5,-256.67 257.5,-241.12 257.5,-231.63"/>
<polygon fill="midnightblue" stroke="midnightblue" points="254,-269.23 257.5,-279.23 261,-269.23 254,-269.23"/>
</g>
<!-- Node10 -->
<g id="node10" class="node">
<title>Node10</title>
<g id="a_node10"><a xlink:href="structdrain_1_1PathSeparatorPolicy.html" target="_top" xlink:title="Determines if separators will be stored in the path.">
<polygon fill="white" stroke="black" points="359,-279.5 359,-298.5 474,-298.5 474,-279.5 359,-279.5"/>
<text text-anchor="middle" x="416.5" y="-286.5" font-family="Helvetica,sans-Serif" font-size="10.00">PathSeparatorPolicy</text>
</a>
</g>
</g>
<!-- Node10&#45;&gt;Node8 -->
<g id="edge9" class="edge">
<title>Node10&#45;&gt;Node8</title>
<path fill="none" stroke="#9a32cd" stroke-dasharray="5,2" d="M385.77,-275.44C354.19,-262.53 305.88,-242.78 278.45,-231.56"/>
<polygon fill="#9a32cd" stroke="#9a32cd" points="384.81,-278.82 395.39,-279.37 387.45,-272.34 384.81,-278.82"/>
<text text-anchor="middle" x="371.5" y="-253" font-family="Helvetica,sans-Serif" font-size="10.00"> separator</text>
</g>
<!-- Node11 -->
<g id="node11" class="node">
<title>Node11</title>
<g id="a_node11"><a xlink:href="classdrain_1_1UniTuple.html" target="_top" xlink:title=" ">
<polygon fill="white" stroke="black" points="359.5,-336.5 359.5,-355.5 473.5,-355.5 473.5,-336.5 359.5,-336.5"/>
<text text-anchor="middle" x="416.5" y="-343.5" font-family="Helvetica,sans-Serif" font-size="10.00">UniTuple&lt; bool, 3 &gt;</text>
</a>
</g>
</g>
<!-- Node11&#45;&gt;Node10 -->
<g id="edge10" class="edge">
<title>Node11&#45;&gt;Node10</title>
<path fill="none" stroke="midnightblue" d="M416.5,-326.12C416.5,-316.82 416.5,-306.06 416.5,-298.71"/>
<polygon fill="midnightblue" stroke="midnightblue" points="413,-326.41 416.5,-336.41 420,-326.41 413,-326.41"/>
</g>
<!-- Node12 -->
<g id="node12" class="node">
<title>Node12</title>
<g id="a_node12"><a xlink:href="classdrain_1_1RegExp.html" target="_top" xlink:title=" ">
<polygon fill="white" stroke="black" points="311,-145.5 311,-164.5 364,-164.5 364,-145.5 311,-145.5"/>
<text text-anchor="middle" x="337.5" y="-152.5" font-family="Helvetica,sans-Serif" font-size="10.00">RegExp</text>
</a>
</g>
</g>
<!-- Node12&#45;&gt;Node2 -->
<g id="edge11" class="edge">
<title>Node12&#45;&gt;Node2</title>
<path fill="none" stroke="#9a32cd" stroke-dasharray="5,2" d="M329.17,-136.09C324.46,-126.56 318.18,-114.83 311.5,-105 307.07,-98.48 301.32,-91.73 296.68,-86.61"/>
<polygon fill="#9a32cd" stroke="#9a32cd" points="326.14,-137.85 333.62,-145.35 332.45,-134.82 326.14,-137.85"/>
<text text-anchor="middle" x="364" y="-119" font-family="Helvetica,sans-Serif" font-size="10.00"> quantityRegExp</text>
<text text-anchor="middle" x="364" y="-108" font-family="Helvetica,sans-Serif" font-size="10.00">qualityRegExp</text>
</g>
<!-- Node13 -->
<g id="node13" class="node">
<title>Node13</title>
<g id="a_node13"><a xlink:href="classdrain_1_1Range.html" target="_top" xlink:title=" ">
<polygon fill="white" stroke="black" points="386,-145.5 386,-164.5 489,-164.5 489,-145.5 386,-145.5"/>
<text text-anchor="middle" x="437.5" y="-152.5" font-family="Helvetica,sans-Serif" font-size="10.00">Range&lt; double &gt;</text>
</a>
</g>
</g>
<!-- Node13&#45;&gt;Node2 -->
<g id="edge12" class="edge">
<title>Node13&#45;&gt;Node2</title>
<path fill="none" stroke="#9a32cd" stroke-dasharray="5,2" d="M430.95,-135.69C426.26,-125.17 418.93,-112.59 408.5,-105 401.94,-100.23 360.86,-91.6 328.57,-85.38"/>
<polygon fill="#9a32cd" stroke="#9a32cd" points="427.81,-137.26 434.76,-145.25 434.31,-134.67 427.81,-137.26"/>
<text text-anchor="middle" x="445.5" y="-113.5" font-family="Helvetica,sans-Serif" font-size="10.00"> elangle</text>
</g>
<!-- Node14 -->
<g id="node14" class="node">
<title>Node14</title>
<g id="a_node14"><a xlink:href="classdrain_1_1UniTuple.html" target="_top" xlink:title=" ">
<polygon fill="white" stroke="black" points="374.5,-212.5 374.5,-231.5 500.5,-231.5 500.5,-212.5 374.5,-212.5"/>
<text text-anchor="middle" x="437.5" y="-219.5" font-family="Helvetica,sans-Serif" font-size="10.00">UniTuple&lt; double, 2 &gt;</text>
</a>
</g>
</g>
<!-- Node14&#45;&gt;Node13 -->
<g id="edge13" class="edge">
<title>Node14&#45;&gt;Node13</title>
<path fill="none" stroke="midnightblue" d="M437.5,-202.04C437.5,-189.67 437.5,-174.12 437.5,-164.63"/>
<polygon fill="midnightblue" stroke="midnightblue" points="434,-202.23 437.5,-212.23 441,-202.23 434,-202.23"/>
</g>
<!-- Node15 -->
<g id="node15" class="node">
<title>Node15</title>
<g id="a_node15"><a xlink:href="classrack_1_1ODIMPathElem.html" target="_top" xlink:title=" ">
<polygon fill="white" stroke="black" points="346.5,-67.5 346.5,-86.5 436.5,-86.5 436.5,-67.5 346.5,-67.5"/>
<text text-anchor="middle" x="391.5" y="-74.5" font-family="Helvetica,sans-Serif" font-size="10.00">ODIMPathElem</text>
</a>
</g>
</g>
<!-- Node15&#45;&gt;Node1 -->
<g id="edge14" class="edge">
<title>Node15&#45;&gt;Node1</title>
<path fill="none" stroke="#9a32cd" stroke-dasharray="5,2" d="M380.3,-58.49C375.89,-51.91 370.66,-44.46 365.5,-38 360.4,-31.61 354.15,-24.86 349.17,-19.71"/>
<polygon fill="#9a32cd" stroke="#9a32cd" points="377.66,-60.84 386.06,-67.29 383.52,-57.01 377.66,-60.84"/>
<text text-anchor="middle" x="410.5" y="-41" font-family="Helvetica,sans-Serif" font-size="10.00"> appendResults</text>
</g>
</g>
</svg>
