<?xml version="1.0" encoding="UTF-8" standalone="no"?>
<!DOCTYPE svg PUBLIC "-//W3C//DTD SVG 1.1//EN"
 "http://www.w3.org/Graphics/SVG/1.1/DTD/svg11.dtd">
<!-- Generated by graphviz version 2.43.0 (0)
 -->
<!-- Title: ImpulseAvgConf Pages: 1 -->
<svg width="174pt" height="207pt"
 viewBox="0.00 0.00 173.50 207.00" xmlns="http://www.w3.org/2000/svg" xmlns:xlink="http://www.w3.org/1999/xlink">
<g id="graph0" class="graph" transform="scale(1 1) rotate(0) translate(4 203)">
<title>ImpulseAvgConf</title>
<polygon fill="white" stroke="transparent" points="-4,4 -4,-203 169.5,-203 169.5,4 -4,4"/>
<!-- Node1 -->
<g id="node1" class="node">
<title>Node1</title>
<g id="a_node1"><a xlink:title=" ">
<polygon fill="#bfbfbf" stroke="black" points="35,-123.5 35,-142.5 131,-142.5 131,-123.5 35,-123.5"/>
<text text-anchor="middle" x="83" y="-130.5" font-family="Helvetica,sans-Serif" font-size="10.00">ImpulseAvgConf</text>
</a>
</g>
</g>
<!-- Node3 -->
<g id="node3" class="node">
<title>Node3</title>
<g id="a_node3"><a xlink:href="classdrain_1_1image_1_1ImpulseBucket.html" target="_top" xlink:title=" ">
<polygon fill="white" stroke="black" points="4.5,-56.5 4.5,-86.5 161.5,-86.5 161.5,-56.5 4.5,-56.5"/>
<text text-anchor="start" x="12.5" y="-74.5" font-family="Helvetica,sans-Serif" font-size="10.00">ImpulseBucket&lt; ImpulseAvg</text>
<text text-anchor="middle" x="83" y="-63.5" font-family="Helvetica,sans-Serif" font-size="10.00">Conf &gt;</text>
</a>
</g>
</g>
<!-- Node1&#45;&gt;Node3 -->
<g id="edge2" class="edge">
<title>Node1&#45;&gt;Node3</title>
<path fill="none" stroke="midnightblue" d="M83,-113.23C83,-104.59 83,-94.5 83,-86.52"/>
<polygon fill="midnightblue" stroke="midnightblue" points="79.5,-113.48 83,-123.48 86.5,-113.48 79.5,-113.48"/>
</g>
<!-- Node2 -->
<g id="node2" class="node">
<title>Node2</title>
<g id="a_node2"><a xlink:href="classdrain_1_1BeanLike.html" target="_top" xlink:title="Something which has a name, a description and possibly some parameters of varying type.">
<polygon fill="white" stroke="black" points="52.5,-179.5 52.5,-198.5 113.5,-198.5 113.5,-179.5 52.5,-179.5"/>
<text text-anchor="middle" x="83" y="-186.5" font-family="Helvetica,sans-Serif" font-size="10.00">BeanLike</text>
</a>
</g>
</g>
<!-- Node2&#45;&gt;Node1 -->
<g id="edge1" class="edge">
<title>Node2&#45;&gt;Node1</title>
<path fill="none" stroke="midnightblue" d="M83,-168.8C83,-159.91 83,-149.78 83,-142.75"/>
<polygon fill="midnightblue" stroke="midnightblue" points="79.5,-169.08 83,-179.08 86.5,-169.08 79.5,-169.08"/>
</g>
<!-- Node4 -->
<g id="node4" class="node">
<title>Node4</title>
<g id="a_node4"><a xlink:href="classdrain_1_1image_1_1ImpulseAvg.html" target="_top" xlink:title="Averaging operator. A simple example implementation of ImpulseBucket.">
<polygon fill="white" stroke="black" points="0,-0.5 0,-19.5 74,-19.5 74,-0.5 0,-0.5"/>
<text text-anchor="middle" x="37" y="-7.5" font-family="Helvetica,sans-Serif" font-size="10.00">ImpulseAvg</text>
</a>
</g>
</g>
<!-- Node3&#45;&gt;Node4 -->
<g id="edge3" class="edge">
<title>Node3&#45;&gt;Node4</title>
<path fill="none" stroke="midnightblue" d="M65.92,-48.4C58.19,-38.41 49.51,-27.18 43.69,-19.66"/>
<polygon fill="midnightblue" stroke="midnightblue" points="63.21,-50.63 72.1,-56.4 68.75,-46.35 63.21,-50.63"/>
</g>
<!-- Node5 -->
<g id="node5" class="node">
<title>Node5</title>
<g id="a_node5"><a xlink:href="classrack_1_1DopplerAvg.html" target="_top" xlink:title="Averaging operator. A simple example implementation of ImpulseCumulator.">
<polygon fill="white" stroke="black" points="92.5,-0.5 92.5,-19.5 165.5,-19.5 165.5,-0.5 92.5,-0.5"/>
<text text-anchor="middle" x="129" y="-7.5" font-family="Helvetica,sans-Serif" font-size="10.00">DopplerAvg</text>
</a>
</g>
</g>
<!-- Node3&#45;&gt;Node5 -->
<g id="edge4" class="edge">
<title>Node3&#45;&gt;Node5</title>
<path fill="none" stroke="midnightblue" d="M100.08,-48.4C107.81,-38.41 116.49,-27.18 122.31,-19.66"/>
<polygon fill="midnightblue" stroke="midnightblue" points="97.25,-46.35 93.9,-56.4 102.79,-50.63 97.25,-46.35"/>
</g>
</g>
</svg>
