<?xml version="1.0" encoding="UTF-8" standalone="no"?>
<!DOCTYPE svg PUBLIC "-//W3C//DTD SVG 1.1//EN"
 "http://www.w3.org/Graphics/SVG/1.1/DTD/svg11.dtd">
<!-- Generated by graphviz version 2.43.0 (0)
 -->
<!-- Title: ImpulseAvgConf Pages: 1 -->
<svg width="417pt" height="287pt"
 viewBox="0.00 0.00 416.50 287.00" xmlns="http://www.w3.org/2000/svg" xmlns:xlink="http://www.w3.org/1999/xlink">
<g id="graph0" class="graph" transform="scale(1 1) rotate(0) translate(4 283)">
<title>ImpulseAvgConf</title>
<polygon fill="white" stroke="transparent" points="-4,4 -4,-283 412.5,-283 412.5,4 -4,4"/>
<!-- Node1 -->
<g id="node1" class="node">
<title>Node1</title>
<g id="a_node1"><a xlink:title=" ">
<polygon fill="#bfbfbf" stroke="black" points="104.5,-0.5 104.5,-19.5 200.5,-19.5 200.5,-0.5 104.5,-0.5"/>
<text text-anchor="middle" x="152.5" y="-7.5" font-family="Helvetica,sans-Serif" font-size="10.00">ImpulseAvgConf</text>
</a>
</g>
</g>
<!-- Node2 -->
<g id="node2" class="node">
<title>Node2</title>
<g id="a_node2"><a xlink:href="classdrain_1_1BeanLike.html" target="_top" xlink:title="Something which has a name, a description and possibly some parameters of varying type.">
<polygon fill="white" stroke="black" points="71,-67.5 71,-86.5 132,-86.5 132,-67.5 71,-67.5"/>
<text text-anchor="middle" x="101.5" y="-74.5" font-family="Helvetica,sans-Serif" font-size="10.00">BeanLike</text>
</a>
</g>
</g>
<!-- Node2&#45;&gt;Node1 -->
<g id="edge1" class="edge">
<title>Node2&#45;&gt;Node1</title>
<path fill="none" stroke="midnightblue" d="M114.63,-59.27C124.57,-46.6 137.83,-29.7 145.73,-19.63"/>
<polygon fill="midnightblue" stroke="midnightblue" points="111.8,-57.21 108.38,-67.23 117.3,-61.53 111.8,-57.21"/>
</g>
<!-- Node3 -->
<g id="node3" class="node">
<title>Node3</title>
<g id="a_node3"><a xlink:href="classdrain_1_1ReferenceMap.html" target="_top" xlink:title=" ">
<polygon fill="white" stroke="black" points="41,-145.5 41,-164.5 128,-164.5 128,-145.5 41,-145.5"/>
<text text-anchor="middle" x="84.5" y="-152.5" font-family="Helvetica,sans-Serif" font-size="10.00">ReferenceMap</text>
</a>
</g>
</g>
<!-- Node3&#45;&gt;Node2 -->
<g id="edge2" class="edge">
<title>Node3&#45;&gt;Node2</title>
<path fill="none" stroke="#9a32cd" stroke-dasharray="5,2" d="M88.7,-135.22C92.17,-119.7 96.95,-98.36 99.57,-86.62"/>
<polygon fill="#9a32cd" stroke="#9a32cd" points="85.22,-134.76 86.45,-145.28 92.05,-136.29 85.22,-134.76"/>
<text text-anchor="middle" x="125.5" y="-113.5" font-family="Helvetica,sans-Serif" font-size="10.00"> parameters</text>
</g>
<!-- Node4 -->
<g id="node4" class="node">
<title>Node4</title>
<g id="a_node4"><a xlink:href="classdrain_1_1SmartMap.html" target="_top" xlink:title=" ">
<polygon fill="white" stroke="black" points="13,-202.5 13,-221.5 156,-221.5 156,-202.5 13,-202.5"/>
<text text-anchor="middle" x="84.5" y="-209.5" font-family="Helvetica,sans-Serif" font-size="10.00">SmartMap&lt; Referencer &gt;</text>
</a>
</g>
</g>
<!-- Node4&#45;&gt;Node3 -->
<g id="edge3" class="edge">
<title>Node4&#45;&gt;Node3</title>
<path fill="none" stroke="midnightblue" d="M84.5,-192.12C84.5,-182.82 84.5,-172.06 84.5,-164.71"/>
<polygon fill="midnightblue" stroke="midnightblue" points="81,-192.41 84.5,-202.41 88,-192.41 81,-192.41"/>
</g>
<!-- Node5 -->
<g id="node5" class="node">
<title>Node5</title>
<g id="a_node5"><a xlink:title=" ">
<polygon fill="white" stroke="#bfbfbf" points="0,-259.5 0,-278.5 169,-278.5 169,-259.5 0,-259.5"/>
<text text-anchor="middle" x="84.5" y="-266.5" font-family="Helvetica,sans-Serif" font-size="10.00">map&lt; std::string, Referencer &gt;</text>
</a>
</g>
</g>
<!-- Node5&#45;&gt;Node4 -->
<g id="edge4" class="edge">
<title>Node5&#45;&gt;Node4</title>
<path fill="none" stroke="midnightblue" d="M84.5,-249.12C84.5,-239.82 84.5,-229.06 84.5,-221.71"/>
<polygon fill="midnightblue" stroke="midnightblue" points="81,-249.41 84.5,-259.41 88,-249.41 81,-249.41"/>
</g>
<!-- Node6 -->
<g id="node6" class="node">
<title>Node6</title>
<g id="a_node6"><a xlink:href="structdrain_1_1image_1_1Decay4.html" target="_top" xlink:title=" ">
<polygon fill="white" stroke="black" points="155,-67.5 155,-86.5 264,-86.5 264,-67.5 155,-67.5"/>
<text text-anchor="middle" x="209.5" y="-74.5" font-family="Helvetica,sans-Serif" font-size="10.00">Decay4&lt; double &gt;</text>
</a>
</g>
</g>
<!-- Node6&#45;&gt;Node1 -->
<g id="edge5" class="edge">
<title>Node6&#45;&gt;Node1</title>
<path fill="none" stroke="#9a32cd" stroke-dasharray="5,2" d="M195.15,-59.63C184,-46.92 168.98,-29.8 160.07,-19.63"/>
<polygon fill="#9a32cd" stroke="#9a32cd" points="192.59,-62.02 201.81,-67.23 197.85,-57.41 192.59,-62.02"/>
<text text-anchor="middle" x="203.5" y="-41" font-family="Helvetica,sans-Serif" font-size="10.00"> decays</text>
</g>
<!-- Node7 -->
<g id="node7" class="node">
<title>Node7</title>
<g id="a_node7"><a xlink:href="classdrain_1_1UniTuple.html" target="_top" xlink:title=" ">
<polygon fill="white" stroke="black" points="146.5,-145.5 146.5,-164.5 272.5,-164.5 272.5,-145.5 146.5,-145.5"/>
<text text-anchor="middle" x="209.5" y="-152.5" font-family="Helvetica,sans-Serif" font-size="10.00">UniTuple&lt; double, 4 &gt;</text>
</a>
</g>
</g>
<!-- Node7&#45;&gt;Node6 -->
<g id="edge6" class="edge">
<title>Node7&#45;&gt;Node6</title>
<path fill="none" stroke="midnightblue" d="M209.5,-135.22C209.5,-119.7 209.5,-98.36 209.5,-86.62"/>
<polygon fill="midnightblue" stroke="midnightblue" points="206,-135.28 209.5,-145.28 213,-135.28 206,-135.28"/>
</g>
<!-- Node8 -->
<g id="node8" class="node">
<title>Node8</title>
<g id="a_node8"><a xlink:href="classdrain_1_1image_1_1Decay2.html" target="_top" xlink:title=" ">
<polygon fill="white" stroke="black" points="291,-145.5 291,-164.5 400,-164.5 400,-145.5 291,-145.5"/>
<text text-anchor="middle" x="345.5" y="-152.5" font-family="Helvetica,sans-Serif" font-size="10.00">Decay2&lt; double &gt;</text>
</a>
</g>
</g>
<!-- Node8&#45;&gt;Node6 -->
<g id="edge7" class="edge">
<title>Node8&#45;&gt;Node6</title>
<path fill="none" stroke="#9a32cd" stroke-dasharray="5,2" d="M321.07,-140.35C293.2,-124.77 248.45,-99.76 224.99,-86.66"/>
<polygon fill="#9a32cd" stroke="#9a32cd" points="319.73,-143.61 330.16,-145.43 323.14,-137.5 319.73,-143.61"/>
<text text-anchor="middle" x="306" y="-119" font-family="Helvetica,sans-Serif" font-size="10.00"> vert</text>
<text text-anchor="middle" x="306" y="-108" font-family="Helvetica,sans-Serif" font-size="10.00">horz</text>
</g>
<!-- Node9 -->
<g id="node9" class="node">
<title>Node9</title>
<g id="a_node9"><a xlink:href="classdrain_1_1UniTuple.html" target="_top" xlink:title=" ">
<polygon fill="white" stroke="black" points="282.5,-202.5 282.5,-221.5 408.5,-221.5 408.5,-202.5 282.5,-202.5"/>
<text text-anchor="middle" x="345.5" y="-209.5" font-family="Helvetica,sans-Serif" font-size="10.00">UniTuple&lt; double, 2 &gt;</text>
</a>
</g>
</g>
<!-- Node9&#45;&gt;Node8 -->
<g id="edge8" class="edge">
<title>Node9&#45;&gt;Node8</title>
<path fill="none" stroke="midnightblue" d="M345.5,-192.12C345.5,-182.82 345.5,-172.06 345.5,-164.71"/>
<polygon fill="midnightblue" stroke="midnightblue" points="342,-192.41 345.5,-202.41 349,-192.41 342,-192.41"/>
</g>
</g>
</svg>
