<?xml version="1.0" encoding="UTF-8" standalone="no"?>
<!DOCTYPE svg PUBLIC "-//W3C//DTD SVG 1.1//EN"
 "http://www.w3.org/Graphics/SVG/1.1/DTD/svg11.dtd">
<!-- Generated by graphviz version 2.43.0 (0)
 -->
<!-- Title: UnaryFunctor Pages: 1 -->
<!--zoomable 484 -->
<svg id="main" version="1.1" xmlns="http://www.w3.org/2000/svg" xmlns:xlink="http://www.w3.org/1999/xlink" xml:space="preserve" onload="init(evt)">
<style type="text/css"><![CDATA[
.edge:hover path { stroke: red; }
.edge:hover polygon { stroke: red; fill: red; }
]]></style>
<script type="text/javascript"><![CDATA[
var edges = document.getElementsByTagName('g');
if (edges && edges.length) {
  for (var i=0;i<edges.length;i++) {
    if (edges[i].id.substr(0,4)=='edge') {
      edges[i].setAttribute('class','edge');
    }
  }
}
]]></script>
        <defs>
                <circle id="rim" cx="0" cy="0" r="7"/>
                <circle id="rim2" cx="0" cy="0" r="3.5"/>
                <g id="zoomPlus">
                        <use xlink:href="#rim" fill="#404040">
                                <set attributeName="fill" to="#808080" begin="zoomplus.mouseover" end="zoomplus.mouseout"/>
                        </use>
                        <path d="M-4,0h8M0,-4v8" fill="none" stroke="white" stroke-width="1.5" pointer-events="none"/>
                </g>
                <g id="zoomMin">
                        <use xlink:href="#rim" fill="#404040">
                                <set attributeName="fill" to="#808080" begin="zoomminus.mouseover" end="zoomminus.mouseout"/>
                        </use>
                        <path d="M-4,0h8" fill="none" stroke="white" stroke-width="1.5" pointer-events="none"/>
                </g>
                <g id="dirArrow">
                        <path fill="none" stroke="white" stroke-width="1.5" d="M0,-3.0v7 M-2.5,-0.5L0,-3.0L2.5,-0.5"/>
                </g>
               <g id="resetDef">
                       <use xlink:href="#rim2" fill="#404040">
                               <set attributeName="fill" to="#808080" begin="reset.mouseover" end="reset.mouseout"/>
                       </use>
               </g>
        </defs>

<script type="text/javascript">
var viewWidth = 605;
var viewHeight = 484;
var sectionId = 'dynsection-0';
</script>
<script xlink:href="svgpan.js"/>
<svg id="graph" class="graph">
<g id="viewport">
<title>UnaryFunctor</title>
<polygon fill="white" stroke="transparent" points="-4,4 -4,-480 601,-480 601,4 -4,4"/>
<!-- Node1 -->
<g id="node1" class="node">
<title>Node1</title>
<g id="a_node1"><a xlink:title=" ">
<polygon fill="#bfbfbf" stroke="black" points="186,-190.5 186,-209.5 268,-209.5 268,-190.5 186,-190.5"/>
<text text-anchor="middle" x="227" y="-197.5" font-family="Helvetica,sans-Serif" font-size="10.00">UnaryFunctor</text>
</a>
</g>
</g>
<!-- Node4 -->
<g id="node4" class="node">
<title>Node4</title>
<g id="a_node4"><a xlink:href="classdrain_1_1BinaryThresholdFunctor.html" target="_top" xlink:title="Thresholds intensity values.">
<polygon fill="white" stroke="black" points="304,-380.5 304,-399.5 436,-399.5 436,-380.5 304,-380.5"/>
<text text-anchor="middle" x="370" y="-387.5" font-family="Helvetica,sans-Serif" font-size="10.00">BinaryThresholdFunctor</text>
</a>
</g>
</g>
<!-- Node1&#45;&gt;Node4 -->
<g id="edge3" class="edge">
<title>Node1&#45;&gt;Node4</title>
<path fill="none" stroke="midnightblue" d="M231.24,-219.91C238.1,-255.55 257.44,-330.28 304,-371 308.43,-374.87 313.6,-377.95 319.07,-380.41"/>
<polygon fill="midnightblue" stroke="midnightblue" points="234.64,-219.04 229.44,-209.81 227.75,-220.27 234.64,-219.04"/>
</g>
<!-- Node5 -->
<g id="node5" class="node">
<title>Node5</title>
<g id="a_node5"><a xlink:href="classdrain_1_1Fuzzifier.html" target="_top" xlink:title="A base class for fuzzy functions; also an unary functor.">
<polygon fill="white" stroke="black" points="327,-342.5 327,-361.5 413,-361.5 413,-342.5 327,-342.5"/>
<text text-anchor="middle" x="370" y="-349.5" font-family="Helvetica,sans-Serif" font-size="10.00">Fuzzifier&lt; T &gt;</text>
</a>
</g>
</g>
<!-- Node1&#45;&gt;Node5 -->
<g id="edge4" class="edge">
<title>Node1&#45;&gt;Node5</title>
<path fill="none" stroke="midnightblue" d="M233.89,-219.51C243.67,-248.58 266.05,-303.06 304,-333 310.65,-338.24 318.69,-342.04 326.83,-344.79"/>
<polygon fill="midnightblue" stroke="midnightblue" points="237.14,-218.17 230.75,-209.71 230.47,-220.3 237.14,-218.17"/>
</g>
<!-- Node13 -->
<g id="node13" class="node">
<title>Node13</title>
<g id="a_node13"><a xlink:href="structdrain_1_1IdentityFunctor.html" target="_top" xlink:title=" ">
<polygon fill="white" stroke="black" points="325,-304.5 325,-323.5 415,-323.5 415,-304.5 325,-304.5"/>
<text text-anchor="middle" x="370" y="-311.5" font-family="Helvetica,sans-Serif" font-size="10.00">IdentityFunctor</text>
</a>
</g>
</g>
<!-- Node1&#45;&gt;Node13 -->
<g id="edge12" class="edge">
<title>Node1&#45;&gt;Node13</title>
<path fill="none" stroke="midnightblue" d="M238.07,-218.54C250.69,-240.05 274.33,-275.12 304,-295 310.25,-299.19 317.44,-302.47 324.71,-305.04"/>
<polygon fill="midnightblue" stroke="midnightblue" points="241.04,-216.68 233.06,-209.71 234.95,-220.13 241.04,-216.68"/>
</g>
<!-- Node14 -->
<g id="node14" class="node">
<title>Node14</title>
<g id="a_node14"><a xlink:href="classdrain_1_1image_1_1CopyFunctor.html" target="_top" xlink:title=" ">
<polygon fill="white" stroke="black" points="331.5,-266.5 331.5,-285.5 408.5,-285.5 408.5,-266.5 331.5,-266.5"/>
<text text-anchor="middle" x="370" y="-273.5" font-family="Helvetica,sans-Serif" font-size="10.00">CopyFunctor</text>
</a>
</g>
</g>
<!-- Node1&#45;&gt;Node14 -->
<g id="edge13" class="edge">
<title>Node1&#45;&gt;Node14</title>
<path fill="none" stroke="midnightblue" d="M246.27,-216.7C260.94,-229.33 282.55,-246.27 304,-257 312.52,-261.26 322.15,-264.73 331.34,-267.48"/>
<polygon fill="midnightblue" stroke="midnightblue" points="248.31,-213.83 238.5,-209.85 243.68,-219.08 248.31,-213.83"/>
</g>
<!-- Node15 -->
<g id="node15" class="node">
<title>Node15</title>
<g id="a_node15"><a xlink:href="classdrain_1_1image_1_1GammaFunctor.html" target="_top" xlink:title="Gamma correction. Intensity is mapped as f&#39; = f^(gamma)">
<polygon fill="white" stroke="black" points="324,-228.5 324,-247.5 416,-247.5 416,-228.5 324,-228.5"/>
<text text-anchor="middle" x="370" y="-235.5" font-family="Helvetica,sans-Serif" font-size="10.00">GammaFunctor</text>
</a>
</g>
</g>
<!-- Node1&#45;&gt;Node15 -->
<g id="edge14" class="edge">
<title>Node1&#45;&gt;Node15</title>
<path fill="none" stroke="midnightblue" d="M273.44,-212.25C292.87,-217.48 315.23,-223.51 333.43,-228.41"/>
<polygon fill="midnightblue" stroke="midnightblue" points="274.15,-208.81 263.58,-209.59 272.32,-215.57 274.15,-208.81"/>
</g>
<!-- Node16 -->
<g id="node16" class="node">
<title>Node16</title>
<g id="a_node16"><a xlink:href="classdrain_1_1image_1_1QuantizatorFunctor.html" target="_top" xlink:title="TODO: CopyOP should be quite similar.">
<polygon fill="white" stroke="black" points="315,-190.5 315,-209.5 425,-209.5 425,-190.5 315,-190.5"/>
<text text-anchor="middle" x="370" y="-197.5" font-family="Helvetica,sans-Serif" font-size="10.00">QuantizatorFunctor</text>
</a>
</g>
</g>
<!-- Node1&#45;&gt;Node16 -->
<g id="edge15" class="edge">
<title>Node1&#45;&gt;Node16</title>
<path fill="none" stroke="midnightblue" d="M278.23,-200C290.12,-200 302.86,-200 314.92,-200"/>
<polygon fill="midnightblue" stroke="midnightblue" points="278.03,-196.5 268.03,-200 278.03,-203.5 278.03,-196.5"/>
</g>
<!-- Node17 -->
<g id="node17" class="node">
<title>Node17</title>
<g id="a_node17"><a xlink:href="classdrain_1_1RemappingFunctor.html" target="_top" xlink:title="Maps a single intensity value to another value.">
<polygon fill="white" stroke="black" points="316,-152.5 316,-171.5 424,-171.5 424,-152.5 316,-152.5"/>
<text text-anchor="middle" x="370" y="-159.5" font-family="Helvetica,sans-Serif" font-size="10.00">RemappingFunctor</text>
</a>
</g>
</g>
<!-- Node1&#45;&gt;Node17 -->
<g id="edge16" class="edge">
<title>Node1&#45;&gt;Node17</title>
<path fill="none" stroke="midnightblue" d="M273.44,-187.75C292.87,-182.52 315.23,-176.49 333.43,-171.59"/>
<polygon fill="midnightblue" stroke="midnightblue" points="272.32,-184.43 263.58,-190.41 274.15,-191.19 272.32,-184.43"/>
</g>
<!-- Node18 -->
<g id="node18" class="node">
<title>Node18</title>
<g id="a_node18"><a xlink:href="classdrain_1_1ScalingFunctor.html" target="_top" xlink:title="Rescales intensities linearly: f&#39; = scale*f + offset.">
<polygon fill="white" stroke="black" points="326,-114.5 326,-133.5 414,-133.5 414,-114.5 326,-114.5"/>
<text text-anchor="middle" x="370" y="-121.5" font-family="Helvetica,sans-Serif" font-size="10.00">ScalingFunctor</text>
</a>
</g>
</g>
<!-- Node1&#45;&gt;Node18 -->
<g id="edge17" class="edge">
<title>Node1&#45;&gt;Node18</title>
<path fill="none" stroke="midnightblue" d="M246.27,-183.3C260.94,-170.67 282.55,-153.73 304,-143 311.47,-139.26 319.79,-136.14 327.92,-133.57"/>
<polygon fill="midnightblue" stroke="midnightblue" points="243.68,-180.92 238.5,-190.15 248.31,-186.17 243.68,-180.92"/>
</g>
<!-- Node20 -->
<g id="node20" class="node">
<title>Node20</title>
<g id="a_node20"><a xlink:href="classdrain_1_1ThresholdFunctor.html" target="_top" xlink:title="Thresholds intensity values.">
<polygon fill="white" stroke="black" points="319.5,-76.5 319.5,-95.5 420.5,-95.5 420.5,-76.5 319.5,-76.5"/>
<text text-anchor="middle" x="370" y="-83.5" font-family="Helvetica,sans-Serif" font-size="10.00">ThresholdFunctor</text>
</a>
</g>
</g>
<!-- Node1&#45;&gt;Node20 -->
<g id="edge19" class="edge">
<title>Node1&#45;&gt;Node20</title>
<path fill="none" stroke="midnightblue" d="M238.07,-181.46C250.69,-159.95 274.33,-124.88 304,-105 309.76,-101.14 316.32,-98.05 323,-95.58"/>
<polygon fill="midnightblue" stroke="midnightblue" points="234.95,-179.87 233.06,-190.29 241.04,-183.32 234.95,-179.87"/>
</g>
<!-- Node21 -->
<g id="node21" class="node">
<title>Node21</title>
<g id="a_node21"><a xlink:href="classdrain_1_1Fuzzifier.html" target="_top" xlink:title=" ">
<polygon fill="white" stroke="black" points="313.5,-38.5 313.5,-57.5 426.5,-57.5 426.5,-38.5 313.5,-38.5"/>
<text text-anchor="middle" x="370" y="-45.5" font-family="Helvetica,sans-Serif" font-size="10.00">Fuzzifier&lt; double &gt;</text>
</a>
</g>
</g>
<!-- Node1&#45;&gt;Node21 -->
<g id="edge20" class="edge">
<title>Node1&#45;&gt;Node21</title>
<path fill="none" stroke="midnightblue" d="M233.89,-180.49C243.67,-151.42 266.05,-96.94 304,-67 308.89,-63.14 314.54,-60.06 320.43,-57.61"/>
<polygon fill="midnightblue" stroke="midnightblue" points="230.47,-179.7 230.75,-190.29 237.14,-181.83 230.47,-179.7"/>
</g>
<!-- Node25 -->
<g id="node25" class="node">
<title>Node25</title>
<g id="a_node25"><a xlink:href="classrack_1_1DataMarker.html" target="_top" xlink:title="Simple class marking true data with a given constant value, typically a CLASS label.">
<polygon fill="white" stroke="black" points="333,-0.5 333,-19.5 407,-19.5 407,-0.5 333,-0.5"/>
<text text-anchor="middle" x="370" y="-7.5" font-family="Helvetica,sans-Serif" font-size="10.00">DataMarker</text>
</a>
</g>
</g>
<!-- Node1&#45;&gt;Node25 -->
<g id="edge24" class="edge">
<title>Node1&#45;&gt;Node25</title>
<path fill="none" stroke="midnightblue" d="M231.24,-180.09C238.1,-144.45 257.44,-69.72 304,-29 312.05,-21.96 322.6,-17.52 332.84,-14.73"/>
<polygon fill="midnightblue" stroke="midnightblue" points="227.75,-179.73 229.44,-190.19 234.64,-180.96 227.75,-179.73"/>
</g>
<!-- Node2 -->
<g id="node2" class="node">
<title>Node2</title>
<g id="a_node2"><a xlink:href="classdrain_1_1Functor.html" target="_top" xlink:title="Base class for sequential computations. Optional scaling utilities.">
<polygon fill="white" stroke="black" points="97,-190.5 97,-209.5 150,-209.5 150,-190.5 97,-190.5"/>
<text text-anchor="middle" x="123.5" y="-197.5" font-family="Helvetica,sans-Serif" font-size="10.00">Functor</text>
</a>
</g>
</g>
<!-- Node2&#45;&gt;Node1 -->
<g id="edge1" class="edge">
<title>Node2&#45;&gt;Node1</title>
<path fill="none" stroke="midnightblue" d="M160.2,-200C168.47,-200 177.33,-200 185.78,-200"/>
<polygon fill="midnightblue" stroke="midnightblue" points="160.11,-196.5 150.11,-200 160.11,-203.5 160.11,-196.5"/>
</g>
<!-- Node3 -->
<g id="node3" class="node">
<title>Node3</title>
<g id="a_node3"><a xlink:href="classdrain_1_1BeanLike.html" target="_top" xlink:title="Something which has a name, a description and possibly some parameters of varying type.">
<polygon fill="white" stroke="black" points="0,-190.5 0,-209.5 61,-209.5 61,-190.5 0,-190.5"/>
<text text-anchor="middle" x="30.5" y="-197.5" font-family="Helvetica,sans-Serif" font-size="10.00">BeanLike</text>
</a>
</g>
</g>
<!-- Node3&#45;&gt;Node2 -->
<g id="edge2" class="edge">
<title>Node3&#45;&gt;Node2</title>
<path fill="none" stroke="midnightblue" d="M71.06,-200C79.77,-200 88.78,-200 96.78,-200"/>
<polygon fill="midnightblue" stroke="midnightblue" points="71.05,-196.5 61.05,-200 71.05,-203.5 71.05,-196.5"/>
</g>
<!-- Node6 -->
<g id="node6" class="node">
<title>Node6</title>
<g id="a_node6"><a xlink:href="classdrain_1_1FuzzyBell.html" target="_top" xlink:title="A smooth symmetric peak function that resembles the Gaussian bell curve.">
<polygon fill="white" stroke="black" points="488.5,-456.5 488.5,-475.5 580.5,-475.5 580.5,-456.5 488.5,-456.5"/>
<text text-anchor="middle" x="534.5" y="-463.5" font-family="Helvetica,sans-Serif" font-size="10.00">FuzzyBell&lt; T &gt;</text>
</a>
</g>
</g>
<!-- Node5&#45;&gt;Node6 -->
<g id="edge5" class="edge">
<title>Node5&#45;&gt;Node6</title>
<path fill="none" stroke="midnightblue" d="M422.65,-362.53C427.46,-364.82 432.02,-367.61 436,-371 464.43,-395.26 443.75,-422.52 472,-447 476.73,-451.1 482.33,-454.31 488.2,-456.83"/>
<polygon fill="midnightblue" stroke="midnightblue" points="423.73,-359.19 413.15,-358.71 421.12,-365.68 423.73,-359.19"/>
</g>
<!-- Node7 -->
<g id="node7" class="node">
<title>Node7</title>
<g id="a_node7"><a xlink:href="classdrain_1_1FuzzyBell2.html" target="_top" xlink:title="A smooth symmetric peak function that resembles the Gaussian bell curve. Diminishes quicker than Fuzz...">
<polygon fill="white" stroke="black" points="485.5,-418.5 485.5,-437.5 583.5,-437.5 583.5,-418.5 485.5,-418.5"/>
<text text-anchor="middle" x="534.5" y="-425.5" font-family="Helvetica,sans-Serif" font-size="10.00">FuzzyBell2&lt; T &gt;</text>
</a>
</g>
</g>
<!-- Node5&#45;&gt;Node7 -->
<g id="edge6" class="edge">
<title>Node5&#45;&gt;Node7</title>
<path fill="none" stroke="midnightblue" d="M422.84,-364.38C427.43,-366.3 431.89,-368.49 436,-371 455.85,-383.13 452.24,-396.72 472,-409 478.17,-412.83 485.17,-415.95 492.18,-418.46"/>
<polygon fill="midnightblue" stroke="midnightblue" points="423.89,-361.04 413.3,-360.83 421.45,-367.6 423.89,-361.04"/>
</g>
<!-- Node8 -->
<g id="node8" class="node">
<title>Node8</title>
<g id="a_node8"><a xlink:href="classdrain_1_1FuzzySigmoid.html" target="_top" xlink:title="A smooth step function, by default from &#45;1.0 to +1.0.">
<polygon fill="white" stroke="black" points="478,-380.5 478,-399.5 591,-399.5 591,-380.5 478,-380.5"/>
<text text-anchor="middle" x="534.5" y="-387.5" font-family="Helvetica,sans-Serif" font-size="10.00">FuzzySigmoid&lt; T &gt;</text>
</a>
</g>
</g>
<!-- Node5&#45;&gt;Node8 -->
<g id="edge7" class="edge">
<title>Node5&#45;&gt;Node8</title>
<path fill="none" stroke="midnightblue" d="M421.87,-363.9C444.71,-369.24 471.3,-375.45 492.79,-380.48"/>
<polygon fill="midnightblue" stroke="midnightblue" points="422.54,-360.46 412.01,-361.59 420.95,-367.27 422.54,-360.46"/>
</g>
<!-- Node9 -->
<g id="node9" class="node">
<title>Node9</title>
<g id="a_node9"><a xlink:href="classdrain_1_1FuzzyStep.html" target="_top" xlink:title="A basic, linear transition from 0 to scale between (start) and (end) .">
<polygon fill="white" stroke="black" points="487,-342.5 487,-361.5 582,-361.5 582,-342.5 487,-342.5"/>
<text text-anchor="middle" x="534.5" y="-349.5" font-family="Helvetica,sans-Serif" font-size="10.00">FuzzyStep&lt; T &gt;</text>
</a>
</g>
</g>
<!-- Node5&#45;&gt;Node9 -->
<g id="edge8" class="edge">
<title>Node5&#45;&gt;Node9</title>
<path fill="none" stroke="midnightblue" d="M423.36,-352C443.79,-352 467.02,-352 486.87,-352"/>
<polygon fill="midnightblue" stroke="midnightblue" points="423.27,-348.5 413.27,-352 423.27,-355.5 423.27,-348.5"/>
</g>
<!-- Node10 -->
<g id="node10" class="node">
<title>Node10</title>
<g id="a_node10"><a xlink:href="classdrain_1_1FuzzyStepsoid.html" target="_top" xlink:title="A smooth step function between 0.0 and 1.0. Increasing (decreasing) with positive (negative) width....">
<polygon fill="white" stroke="black" points="477,-304.5 477,-323.5 592,-323.5 592,-304.5 477,-304.5"/>
<text text-anchor="middle" x="534.5" y="-311.5" font-family="Helvetica,sans-Serif" font-size="10.00">FuzzyStepsoid&lt; T &gt;</text>
</a>
</g>
</g>
<!-- Node5&#45;&gt;Node10 -->
<g id="edge9" class="edge">
<title>Node5&#45;&gt;Node10</title>
<path fill="none" stroke="midnightblue" d="M421.87,-340.1C444.71,-334.76 471.3,-328.55 492.79,-323.52"/>
<polygon fill="midnightblue" stroke="midnightblue" points="420.95,-336.73 412.01,-342.41 422.54,-343.54 420.95,-336.73"/>
</g>
<!-- Node11 -->
<g id="node11" class="node">
<title>Node11</title>
<g id="a_node11"><a xlink:href="classdrain_1_1FuzzyTriangle.html" target="_top" xlink:title="A basic triangular peak function with linear around the peak.">
<polygon fill="white" stroke="black" points="478.5,-266.5 478.5,-285.5 590.5,-285.5 590.5,-266.5 478.5,-266.5"/>
<text text-anchor="middle" x="534.5" y="-273.5" font-family="Helvetica,sans-Serif" font-size="10.00">FuzzyTriangle&lt; T &gt;</text>
</a>
</g>
</g>
<!-- Node5&#45;&gt;Node11 -->
<g id="edge10" class="edge">
<title>Node5&#45;&gt;Node11</title>
<path fill="none" stroke="midnightblue" d="M422.84,-339.62C427.43,-337.7 431.89,-335.51 436,-333 455.85,-320.87 452.24,-307.28 472,-295 478.17,-291.17 485.17,-288.05 492.18,-285.54"/>
<polygon fill="midnightblue" stroke="midnightblue" points="421.45,-336.4 413.3,-343.17 423.89,-342.96 421.45,-336.4"/>
</g>
<!-- Node12 -->
<g id="node12" class="node">
<title>Node12</title>
<g id="a_node12"><a xlink:href="classdrain_1_1FuzzyTwinPeaks.html" target="_top" xlink:title="A function taking shape of two peaks, with a zero in the middle .">
<polygon fill="white" stroke="black" points="472.5,-228.5 472.5,-247.5 596.5,-247.5 596.5,-228.5 472.5,-228.5"/>
<text text-anchor="middle" x="534.5" y="-235.5" font-family="Helvetica,sans-Serif" font-size="10.00">FuzzyTwinPeaks&lt; T &gt;</text>
</a>
</g>
</g>
<!-- Node5&#45;&gt;Node12 -->
<g id="edge11" class="edge">
<title>Node5&#45;&gt;Node12</title>
<path fill="none" stroke="midnightblue" d="M422.65,-341.47C427.46,-339.18 432.02,-336.39 436,-333 464.43,-308.74 443.75,-281.48 472,-257 476.48,-253.12 481.73,-250.03 487.26,-247.58"/>
<polygon fill="midnightblue" stroke="midnightblue" points="421.12,-338.32 413.15,-345.29 423.73,-344.81 421.12,-338.32"/>
</g>
<!-- Node19 -->
<g id="node19" class="node">
<title>Node19</title>
<g id="a_node19"><a xlink:href="classdrain_1_1NegateFunctor.html" target="_top" xlink:title="Inverts intensities: f&#39; = f_max &#45; f.">
<polygon fill="white" stroke="black" points="490.5,-114.5 490.5,-133.5 578.5,-133.5 578.5,-114.5 490.5,-114.5"/>
<text text-anchor="middle" x="534.5" y="-121.5" font-family="Helvetica,sans-Serif" font-size="10.00">NegateFunctor</text>
</a>
</g>
</g>
<!-- Node18&#45;&gt;Node19 -->
<g id="edge18" class="edge">
<title>Node18&#45;&gt;Node19</title>
<path fill="none" stroke="midnightblue" d="M424.38,-124C445.81,-124 470.19,-124 490.46,-124"/>
<polygon fill="midnightblue" stroke="midnightblue" points="424.12,-120.5 414.12,-124 424.12,-127.5 424.12,-120.5"/>
</g>
<!-- Node22 -->
<g id="node22" class="node">
<title>Node22</title>
<g id="a_node22"><a xlink:href="classdrain_1_1FuzzyBell2.html" target="_top" xlink:title=" ">
<polygon fill="white" stroke="black" points="472,-76.5 472,-95.5 597,-95.5 597,-76.5 472,-76.5"/>
<text text-anchor="middle" x="534.5" y="-83.5" font-family="Helvetica,sans-Serif" font-size="10.00">FuzzyBell2&lt; double &gt;</text>
</a>
</g>
</g>
<!-- Node21&#45;&gt;Node22 -->
<g id="edge21" class="edge">
<title>Node21&#45;&gt;Node22</title>
<path fill="none" stroke="midnightblue" d="M421.87,-59.9C444.71,-65.24 471.3,-71.45 492.79,-76.48"/>
<polygon fill="midnightblue" stroke="midnightblue" points="422.54,-56.46 412.01,-57.59 420.95,-63.27 422.54,-56.46"/>
</g>
<!-- Node23 -->
<g id="node23" class="node">
<title>Node23</title>
<g id="a_node23"><a xlink:href="classdrain_1_1FuzzyBell.html" target="_top" xlink:title=" ">
<polygon fill="white" stroke="black" points="475,-38.5 475,-57.5 594,-57.5 594,-38.5 475,-38.5"/>
<text text-anchor="middle" x="534.5" y="-45.5" font-family="Helvetica,sans-Serif" font-size="10.00">FuzzyBell&lt; double &gt;</text>
</a>
</g>
</g>
<!-- Node21&#45;&gt;Node23 -->
<g id="edge22" class="edge">
<title>Node21&#45;&gt;Node23</title>
<path fill="none" stroke="midnightblue" d="M437.27,-48C449.77,-48 462.75,-48 474.98,-48"/>
<polygon fill="midnightblue" stroke="midnightblue" points="436.92,-44.5 426.92,-48 436.92,-51.5 436.92,-44.5"/>
</g>
<!-- Node24 -->
<g id="node24" class="node">
<title>Node24</title>
<g id="a_node24"><a xlink:href="classdrain_1_1FuzzyStep.html" target="_top" xlink:title=" ">
<polygon fill="white" stroke="black" points="473.5,-0.5 473.5,-19.5 595.5,-19.5 595.5,-0.5 473.5,-0.5"/>
<text text-anchor="middle" x="534.5" y="-7.5" font-family="Helvetica,sans-Serif" font-size="10.00">FuzzyStep&lt; double &gt;</text>
</a>
</g>
</g>
<!-- Node21&#45;&gt;Node24 -->
<g id="edge23" class="edge">
<title>Node21&#45;&gt;Node24</title>
<path fill="none" stroke="midnightblue" d="M421.87,-36.1C444.71,-30.76 471.3,-24.55 492.79,-19.52"/>
<polygon fill="midnightblue" stroke="midnightblue" points="420.95,-32.73 412.01,-38.41 422.54,-39.54 420.95,-32.73"/>
</g>
</g>
</svg>
        <g id="navigator" transform="translate(0 0)" fill="#404254">
                <rect fill="#f2f5e9" fill-opacity="0.5" stroke="#606060" stroke-width=".5" x="0" y="0" width="60" height="60"/>
                <use id="zoomplus" xlink:href="#zoomPlus" x="17" y="9" onmousedown="handleZoom(evt,'in')"/>
                <use id="zoomminus" xlink:href="#zoomMin" x="42" y="9" onmousedown="handleZoom(evt,'out')"/>
                <use id="reset" xlink:href="#resetDef" x="30" y="36" onmousedown="handleReset()"/>
                <g id="arrowUp" xlink:href="#dirArrow" transform="translate(30 24)" onmousedown="handlePan(0,-1)">
                  <use xlink:href="#rim" fill="#404040">
                        <set attributeName="fill" to="#808080" begin="arrowUp.mouseover" end="arrowUp.mouseout"/>
                  </use>
                  <path fill="none" stroke="white" stroke-width="1.5" d="M0,-3.0v7 M-2.5,-0.5L0,-3.0L2.5,-0.5"/>
                </g>
                <g id="arrowRight" xlink:href="#dirArrow" transform="rotate(90) translate(36 -43)" onmousedown="handlePan(1,0)">
                  <use xlink:href="#rim" fill="#404040">
                        <set attributeName="fill" to="#808080" begin="arrowRight.mouseover" end="arrowRight.mouseout"/>
                  </use>
                  <path fill="none" stroke="white" stroke-width="1.5" d="M0,-3.0v7 M-2.5,-0.5L0,-3.0L2.5,-0.5"/>
                </g>
                <g id="arrowDown" xlink:href="#dirArrow" transform="rotate(180) translate(-30 -48)" onmousedown="handlePan(0,1)">
                  <use xlink:href="#rim" fill="#404040">
                        <set attributeName="fill" to="#808080" begin="arrowDown.mouseover" end="arrowDown.mouseout"/>
                  </use>
                  <path fill="none" stroke="white" stroke-width="1.5" d="M0,-3.0v7 M-2.5,-0.5L0,-3.0L2.5,-0.5"/>
                </g>
                <g id="arrowLeft" xlink:href="#dirArrow" transform="rotate(270) translate(-36 17)" onmousedown="handlePan(-1,0)">
                  <use xlink:href="#rim" fill="#404040">
                        <set attributeName="fill" to="#808080" begin="arrowLeft.mouseover" end="arrowLeft.mouseout"/>
                  </use>
                  <path fill="none" stroke="white" stroke-width="1.5" d="M0,-3.0v7 M-2.5,-0.5L0,-3.0L2.5,-0.5"/>
                </g>
        </g>
        <svg viewBox="0 0 15 15" width="100%" height="30px" preserveAspectRatio="xMaxYMin meet">
         <g id="arrow_out" transform="scale(0.3 0.3)">
          <a xlink:href="structdrain_1_1UnaryFunctor__inherit__graph_org.svg" target="_base">
           <rect id="button" ry="5" rx="5" y="6" x="6" height="38" width="38"
                fill="#f2f5e9" fill-opacity="0.5" stroke="#606060" stroke-width="1.0"/>
           <path id="arrow"
             d="M 11.500037,31.436501 C 11.940474,20.09759 22.043105,11.32322 32.158766,21.979434 L 37.068811,17.246167 C 37.068811,17.246167 37.088388,32 37.088388,32 L 22.160133,31.978069 C 22.160133,31.978069 26.997745,27.140456 26.997745,27.140456 C 18.528582,18.264221 13.291696,25.230495 11.500037,31.436501 z"
             style="fill:#404040;"/>
          </a>
         </g>
        </svg>
</svg>
