<?xml version="1.0" encoding="UTF-8" standalone="no"?>
<!DOCTYPE svg PUBLIC "-//W3C//DTD SVG 1.1//EN"
 "http://www.w3.org/Graphics/SVG/1.1/DTD/svg11.dtd">
<!-- Generated by graphviz version 2.43.0 (0)
 -->
<!-- Title: SamplePicker Pages: 1 -->
<svg width="451pt" height="154pt"
 viewBox="0.00 0.00 451.00 154.00" xmlns="http://www.w3.org/2000/svg" xmlns:xlink="http://www.w3.org/1999/xlink">
<g id="graph0" class="graph" transform="scale(1 1) rotate(0) translate(4 150)">
<title>SamplePicker</title>
<polygon fill="white" stroke="transparent" points="-4,4 -4,-150 447,-150 447,4 -4,4"/>
<!-- Node1 -->
<g id="node1" class="node">
<title>Node1</title>
<g id="a_node1"><a xlink:title="Interprets data values for Sampler.">
<polygon fill="#bfbfbf" stroke="black" points="0,-66.5 0,-85.5 83,-85.5 83,-66.5 0,-66.5"/>
<text text-anchor="middle" x="41.5" y="-73.5" font-family="Helvetica,sans-Serif" font-size="10.00">SamplePicker</text>
</a>
</g>
</g>
<!-- Node2 -->
<g id="node2" class="node">
<title>Node2</title>
<g id="a_node2"><a xlink:href="classdrain_1_1image_1_1ImageReader.html" target="_top" xlink:title="Reads image channels, returning scaled (physical) values.">
<polygon fill="white" stroke="black" points="164,-126.5 164,-145.5 246,-145.5 246,-126.5 164,-126.5"/>
<text text-anchor="middle" x="205" y="-133.5" font-family="Helvetica,sans-Serif" font-size="10.00">ImageReader</text>
</a>
</g>
</g>
<!-- Node1&#45;&gt;Node2 -->
<g id="edge1" class="edge">
<title>Node1&#45;&gt;Node2</title>
<path fill="none" stroke="midnightblue" d="M66.36,-90.97C81.07,-99.64 100.58,-110.15 119,-117 133.31,-122.32 149.57,-126.4 164,-129.39"/>
<polygon fill="midnightblue" stroke="midnightblue" points="67.83,-87.77 57.45,-85.6 64.21,-93.76 67.83,-87.77"/>
</g>
<!-- Node3 -->
<g id="node3" class="node">
<title>Node3</title>
<g id="a_node3"><a xlink:href="classrack_1_1RadarDataPicker.html" target="_top" xlink:title="Base class for utilities traversing radar data with Sampler.">
<polygon fill="white" stroke="black" points="137.5,-88.5 137.5,-107.5 272.5,-107.5 272.5,-88.5 137.5,-88.5"/>
<text text-anchor="middle" x="205" y="-95.5" font-family="Helvetica,sans-Serif" font-size="10.00">RadarDataPicker&lt; OD &gt;</text>
</a>
</g>
</g>
<!-- Node1&#45;&gt;Node3 -->
<g id="edge2" class="edge">
<title>Node1&#45;&gt;Node3</title>
<path fill="none" stroke="midnightblue" d="M93.2,-82.91C107.24,-84.82 122.7,-86.92 137.5,-88.94"/>
<polygon fill="midnightblue" stroke="midnightblue" points="93.63,-79.43 83.25,-81.55 92.69,-86.37 93.63,-79.43"/>
</g>
<!-- Node4 -->
<g id="node4" class="node">
<title>Node4</title>
<g id="a_node4"><a xlink:href="classrack_1_1RadarDataPicker.html" target="_top" xlink:title=" ">
<polygon fill="white" stroke="black" points="127.5,-39 127.5,-69 282.5,-69 282.5,-39 127.5,-39"/>
<text text-anchor="start" x="135.5" y="-57" font-family="Helvetica,sans-Serif" font-size="10.00">RadarDataPicker&lt; Cartesian</text>
<text text-anchor="middle" x="205" y="-46" font-family="Helvetica,sans-Serif" font-size="10.00">ODIM &gt;</text>
</a>
</g>
</g>
<!-- Node1&#45;&gt;Node4 -->
<g id="edge3" class="edge">
<title>Node1&#45;&gt;Node4</title>
<path fill="none" stroke="midnightblue" d="M93.35,-69.07C104.18,-67.6 115.84,-66.01 127.39,-64.44"/>
<polygon fill="midnightblue" stroke="midnightblue" points="92.69,-65.63 83.25,-70.45 93.63,-72.57 92.69,-65.63"/>
</g>
<!-- Node6 -->
<g id="node6" class="node">
<title>Node6</title>
<g id="a_node6"><a xlink:href="classrack_1_1RadarDataPicker.html" target="_top" xlink:title=" ">
<polygon fill="white" stroke="black" points="119,-0.5 119,-19.5 291,-19.5 291,-0.5 119,-0.5"/>
<text text-anchor="middle" x="205" y="-7.5" font-family="Helvetica,sans-Serif" font-size="10.00">RadarDataPicker&lt; PolarODIM &gt;</text>
</a>
</g>
</g>
<!-- Node1&#45;&gt;Node6 -->
<g id="edge5" class="edge">
<title>Node1&#45;&gt;Node6</title>
<path fill="none" stroke="midnightblue" d="M63.48,-60.47C78.31,-50.17 99.02,-37.1 119,-29 128.39,-25.19 138.68,-22.07 148.77,-19.55"/>
<polygon fill="midnightblue" stroke="midnightblue" points="61.18,-57.81 55.06,-66.46 65.24,-63.51 61.18,-57.81"/>
</g>
<!-- Node5 -->
<g id="node5" class="node">
<title>Node5</title>
<g id="a_node5"><a xlink:href="classrack_1_1CartesianDataPicker.html" target="_top" xlink:title=" ">
<polygon fill="white" stroke="black" points="327,-44.5 327,-63.5 443,-63.5 443,-44.5 327,-44.5"/>
<text text-anchor="middle" x="385" y="-51.5" font-family="Helvetica,sans-Serif" font-size="10.00">CartesianDataPicker</text>
</a>
</g>
</g>
<!-- Node4&#45;&gt;Node5 -->
<g id="edge4" class="edge">
<title>Node4&#45;&gt;Node5</title>
<path fill="none" stroke="midnightblue" d="M292.69,-54C304.31,-54 315.97,-54 326.9,-54"/>
<polygon fill="midnightblue" stroke="midnightblue" points="292.52,-50.5 282.52,-54 292.52,-57.5 292.52,-50.5"/>
</g>
<!-- Node7 -->
<g id="node7" class="node">
<title>Node7</title>
<g id="a_node7"><a xlink:href="classrack_1_1PolarDataPicker.html" target="_top" xlink:title=" ">
<polygon fill="white" stroke="black" points="338,-0.5 338,-19.5 432,-19.5 432,-0.5 338,-0.5"/>
<text text-anchor="middle" x="385" y="-7.5" font-family="Helvetica,sans-Serif" font-size="10.00">PolarDataPicker</text>
</a>
</g>
</g>
<!-- Node6&#45;&gt;Node7 -->
<g id="edge6" class="edge">
<title>Node6&#45;&gt;Node7</title>
<path fill="none" stroke="midnightblue" d="M301.27,-10C313.95,-10 326.46,-10 337.76,-10"/>
<polygon fill="midnightblue" stroke="midnightblue" points="301.09,-6.5 291.09,-10 301.09,-13.5 301.09,-6.5"/>
</g>
</g>
</svg>
