<?xml version="1.0" encoding="UTF-8" standalone="no"?>
<!DOCTYPE svg PUBLIC "-//W3C//DTD SVG 1.1//EN"
 "http://www.w3.org/Graphics/SVG/1.1/DTD/svg11.dtd">
<!-- Generated by graphviz version 2.43.0 (0)
 -->
<!-- Title: SprinterLayout Pages: 1 -->
<svg width="124pt" height="185pt"
 viewBox="0.00 0.00 124.00 185.00" xmlns="http://www.w3.org/2000/svg" xmlns:xlink="http://www.w3.org/1999/xlink">
<g id="graph0" class="graph" transform="scale(1 1) rotate(0) translate(4 181)">
<title>SprinterLayout</title>
<polygon fill="white" stroke="transparent" points="-4,4 -4,-181 120,-181 120,4 -4,4"/>
<!-- Node1 -->
<g id="node1" class="node">
<title>Node1</title>
<g id="a_node1"><a xlink:title=" ">
<polygon fill="#bfbfbf" stroke="black" points="13,-0.5 13,-19.5 101,-19.5 101,-0.5 13,-0.5"/>
<text text-anchor="middle" x="57" y="-7.5" font-family="Helvetica,sans-Serif" font-size="10.00">SprinterLayout</text>
</a>
</g>
</g>
<!-- Node2 -->
<g id="node2" class="node">
<title>Node2</title>
<g id="a_node2"><a xlink:href="structdrain_1_1TypeLayout.html" target="_top" xlink:title="Small container for printing style for putting of structured objects (array, maps,...">
<polygon fill="white" stroke="black" points="21,-100.5 21,-119.5 93,-119.5 93,-100.5 21,-100.5"/>
<text text-anchor="middle" x="57" y="-107.5" font-family="Helvetica,sans-Serif" font-size="10.00">TypeLayout</text>
</a>
</g>
</g>
<!-- Node2&#45;&gt;Node1 -->
<g id="edge1" class="edge">
<title>Node2&#45;&gt;Node1</title>
<path fill="none" stroke="#9a32cd" stroke-dasharray="5,2" d="M57,-90.22C57,-68.95 57,-35.22 57,-19.54"/>
<polygon fill="#9a32cd" stroke="#9a32cd" points="53.5,-90.3 57,-100.3 60.5,-90.3 53.5,-90.3"/>
<text text-anchor="middle" x="86.5" y="-74" font-family="Helvetica,sans-Serif" font-size="10.00"> stringChars</text>
<text text-anchor="middle" x="86.5" y="-63" font-family="Helvetica,sans-Serif" font-size="10.00">mapChars</text>
<text text-anchor="middle" x="86.5" y="-52" font-family="Helvetica,sans-Serif" font-size="10.00">arrayChars</text>
<text text-anchor="middle" x="86.5" y="-41" font-family="Helvetica,sans-Serif" font-size="10.00">pairChars</text>
</g>
<!-- Node3 -->
<g id="node3" class="node">
<title>Node3</title>
<g id="a_node3"><a xlink:href="classdrain_1_1UniTuple.html" target="_top" xlink:title=" ">
<polygon fill="white" stroke="black" points="0,-157.5 0,-176.5 114,-176.5 114,-157.5 0,-157.5"/>
<text text-anchor="middle" x="57" y="-164.5" font-family="Helvetica,sans-Serif" font-size="10.00">UniTuple&lt; char, 3 &gt;</text>
</a>
</g>
</g>
<!-- Node3&#45;&gt;Node2 -->
<g id="edge2" class="edge">
<title>Node3&#45;&gt;Node2</title>
<path fill="none" stroke="midnightblue" d="M57,-147.12C57,-137.82 57,-127.06 57,-119.71"/>
<polygon fill="midnightblue" stroke="midnightblue" points="53.5,-147.41 57,-157.41 60.5,-147.41 53.5,-147.41"/>
</g>
</g>
</svg>
