<?xml version="1.0" encoding="UTF-8" standalone="no"?>
<!DOCTYPE svg PUBLIC "-//W3C//DTD SVG 1.1//EN"
 "http://www.w3.org/Graphics/SVG/1.1/DTD/svg11.dtd">
<!-- Generated by graphviz version 2.43.0 (0)
 -->
<!-- Title: HistEntry Pages: 1 -->
<svg width="281pt" height="276pt"
 viewBox="0.00 0.00 280.50 276.00" xmlns="http://www.w3.org/2000/svg" xmlns:xlink="http://www.w3.org/1999/xlink">
<g id="graph0" class="graph" transform="scale(1 1) rotate(0) translate(4 272)">
<title>HistEntry</title>
<polygon fill="white" stroke="transparent" points="-4,4 -4,-272 276.5,-272 276.5,4 -4,4"/>
<!-- Node1 -->
<g id="node1" class="node">
<title>Node1</title>
<g id="a_node1"><a xlink:title=" ">
<polygon fill="#bfbfbf" stroke="black" points="118.5,-0.5 118.5,-19.5 180.5,-19.5 180.5,-0.5 118.5,-0.5"/>
<text text-anchor="middle" x="149.5" y="-7.5" font-family="Helvetica,sans-Serif" font-size="10.00">HistEntry</text>
</a>
</g>
</g>
<!-- Node2 -->
<g id="node2" class="node">
<title>Node2</title>
<g id="a_node2"><a xlink:href="classdrain_1_1BeanLike.html" target="_top" xlink:title="Something which has a name, a description and possibly some parameters of varying type.">
<polygon fill="white" stroke="black" points="70,-67.5 70,-86.5 131,-86.5 131,-67.5 70,-67.5"/>
<text text-anchor="middle" x="100.5" y="-74.5" font-family="Helvetica,sans-Serif" font-size="10.00">BeanLike</text>
</a>
</g>
</g>
<!-- Node2&#45;&gt;Node1 -->
<g id="edge1" class="edge">
<title>Node2&#45;&gt;Node1</title>
<path fill="none" stroke="midnightblue" d="M113.39,-58.9C122.91,-46.27 135.48,-29.6 143,-19.63"/>
<polygon fill="midnightblue" stroke="midnightblue" points="110.33,-57.14 107.11,-67.23 115.92,-61.36 110.33,-57.14"/>
</g>
<!-- Node3 -->
<g id="node3" class="node">
<title>Node3</title>
<g id="a_node3"><a xlink:href="classdrain_1_1ReferenceMap.html" target="_top" xlink:title=" ">
<polygon fill="white" stroke="black" points="41,-134.5 41,-153.5 128,-153.5 128,-134.5 41,-134.5"/>
<text text-anchor="middle" x="84.5" y="-141.5" font-family="Helvetica,sans-Serif" font-size="10.00">ReferenceMap</text>
</a>
</g>
</g>
<!-- Node3&#45;&gt;Node2 -->
<g id="edge2" class="edge">
<title>Node3&#45;&gt;Node2</title>
<path fill="none" stroke="#9a32cd" stroke-dasharray="5,2" d="M89.07,-124.41C92.13,-111.99 96.02,-96.22 98.38,-86.63"/>
<polygon fill="#9a32cd" stroke="#9a32cd" points="85.65,-123.69 86.66,-134.23 92.45,-125.36 85.65,-123.69"/>
<text text-anchor="middle" x="123.5" y="-108" font-family="Helvetica,sans-Serif" font-size="10.00"> parameters</text>
</g>
<!-- Node4 -->
<g id="node4" class="node">
<title>Node4</title>
<g id="a_node4"><a xlink:href="classdrain_1_1SmartMap.html" target="_top" xlink:title=" ">
<polygon fill="white" stroke="black" points="13,-191.5 13,-210.5 156,-210.5 156,-191.5 13,-191.5"/>
<text text-anchor="middle" x="84.5" y="-198.5" font-family="Helvetica,sans-Serif" font-size="10.00">SmartMap&lt; Referencer &gt;</text>
</a>
</g>
</g>
<!-- Node4&#45;&gt;Node3 -->
<g id="edge3" class="edge">
<title>Node4&#45;&gt;Node3</title>
<path fill="none" stroke="midnightblue" d="M84.5,-181.12C84.5,-171.82 84.5,-161.06 84.5,-153.71"/>
<polygon fill="midnightblue" stroke="midnightblue" points="81,-181.41 84.5,-191.41 88,-181.41 81,-181.41"/>
</g>
<!-- Node5 -->
<g id="node5" class="node">
<title>Node5</title>
<g id="a_node5"><a xlink:title=" ">
<polygon fill="white" stroke="#bfbfbf" points="0,-248.5 0,-267.5 169,-267.5 169,-248.5 0,-248.5"/>
<text text-anchor="middle" x="84.5" y="-255.5" font-family="Helvetica,sans-Serif" font-size="10.00">map&lt; std::string, Referencer &gt;</text>
</a>
</g>
</g>
<!-- Node5&#45;&gt;Node4 -->
<g id="edge4" class="edge">
<title>Node5&#45;&gt;Node4</title>
<path fill="none" stroke="midnightblue" d="M84.5,-238.12C84.5,-228.82 84.5,-218.06 84.5,-210.71"/>
<polygon fill="midnightblue" stroke="midnightblue" points="81,-238.41 84.5,-248.41 88,-238.41 81,-238.41"/>
</g>
<!-- Node6 -->
<g id="node6" class="node">
<title>Node6</title>
<g id="a_node6"><a xlink:href="classdrain_1_1Range.html" target="_top" xlink:title=" ">
<polygon fill="white" stroke="black" points="155,-67.5 155,-86.5 258,-86.5 258,-67.5 155,-67.5"/>
<text text-anchor="middle" x="206.5" y="-74.5" font-family="Helvetica,sans-Serif" font-size="10.00">Range&lt; double &gt;</text>
</a>
</g>
</g>
<!-- Node6&#45;&gt;Node1 -->
<g id="edge5" class="edge">
<title>Node6&#45;&gt;Node1</title>
<path fill="none" stroke="#9a32cd" stroke-dasharray="5,2" d="M192.15,-59.63C181,-46.92 165.98,-29.8 157.07,-19.63"/>
<polygon fill="#9a32cd" stroke="#9a32cd" points="189.59,-62.02 198.81,-67.23 194.85,-57.41 189.59,-62.02"/>
<text text-anchor="middle" x="206" y="-41" font-family="Helvetica,sans-Serif" font-size="10.00"> binRange</text>
</g>
<!-- Node7 -->
<g id="node7" class="node">
<title>Node7</title>
<g id="a_node7"><a xlink:href="classdrain_1_1UniTuple.html" target="_top" xlink:title=" ">
<polygon fill="white" stroke="black" points="146.5,-134.5 146.5,-153.5 272.5,-153.5 272.5,-134.5 146.5,-134.5"/>
<text text-anchor="middle" x="209.5" y="-141.5" font-family="Helvetica,sans-Serif" font-size="10.00">UniTuple&lt; double, 2 &gt;</text>
</a>
</g>
</g>
<!-- Node7&#45;&gt;Node6 -->
<g id="edge6" class="edge">
<title>Node7&#45;&gt;Node6</title>
<path fill="none" stroke="midnightblue" d="M208.62,-124.04C208.05,-111.67 207.34,-96.12 206.9,-86.63"/>
<polygon fill="midnightblue" stroke="midnightblue" points="205.14,-124.41 209.1,-134.23 212.13,-124.08 205.14,-124.41"/>
</g>
</g>
</svg>
