<?xml version="1.0" encoding="UTF-8" standalone="no"?>
<!DOCTYPE svg PUBLIC "-//W3C//DTD SVG 1.1//EN"
 "http://www.w3.org/Graphics/SVG/1.1/DTD/svg11.dtd">
<!-- Generated by graphviz version 2.43.0 (0)
 -->
<!-- Title: FunctorWrapper&lt; F &gt; Pages: 1 -->
<svg width="418pt" height="196pt"
 viewBox="0.00 0.00 418.00 196.00" xmlns="http://www.w3.org/2000/svg" xmlns:xlink="http://www.w3.org/1999/xlink">
<g id="graph0" class="graph" transform="scale(1 1) rotate(0) translate(4 192)">
<title>FunctorWrapper&lt; F &gt;</title>
<polygon fill="white" stroke="transparent" points="-4,4 -4,-192 414,-192 414,4 -4,4"/>
<!-- Node1 -->
<g id="node1" class="node">
<title>Node1</title>
<g id="a_node1"><a xlink:title="Helper class that only ensures that functor is initialized before ImageOp.">
<polygon fill="#bfbfbf" stroke="black" points="145,-168.5 145,-187.5 267,-187.5 267,-168.5 145,-168.5"/>
<text text-anchor="middle" x="206" y="-175.5" font-family="Helvetica,sans-Serif" font-size="10.00">FunctorWrapper&lt; F &gt;</text>
</a>
</g>
</g>
<!-- Node2 -->
<g id="node2" class="node">
<title>Node2</title>
<g id="a_node2"><a xlink:href="classdrain_1_1image_1_1FunctorOp.html" target="_top" xlink:title="Class for using simple function objects (like std::functor) for sequential pixel iteration.">
<polygon fill="white" stroke="black" points="158.5,-112.5 158.5,-131.5 253.5,-131.5 253.5,-112.5 158.5,-112.5"/>
<text text-anchor="middle" x="206" y="-119.5" font-family="Helvetica,sans-Serif" font-size="10.00">FunctorOp&lt; F &gt;</text>
</a>
</g>
</g>
<!-- Node1&#45;&gt;Node2 -->
<g id="edge1" class="edge">
<title>Node1&#45;&gt;Node2</title>
<path fill="none" stroke="midnightblue" d="M206,-157.8C206,-148.91 206,-138.78 206,-131.75"/>
<polygon fill="midnightblue" stroke="midnightblue" points="202.5,-158.08 206,-168.08 209.5,-158.08 202.5,-158.08"/>
</g>
<!-- Node3 -->
<g id="node3" class="node">
<title>Node3</title>
<g id="a_node3"><a xlink:href="classdrain_1_1image_1_1BinaryFunctorOp.html" target="_top" xlink:title="Class for using two&#45;parameter function objects (like std::functor) for sequential and spatial pixel i...">
<polygon fill="white" stroke="black" points="0,-56.5 0,-75.5 126,-75.5 126,-56.5 0,-56.5"/>
<text text-anchor="middle" x="63" y="-63.5" font-family="Helvetica,sans-Serif" font-size="10.00">BinaryFunctorOp&lt; F &gt;</text>
</a>
</g>
</g>
<!-- Node2&#45;&gt;Node3 -->
<g id="edge2" class="edge">
<title>Node2&#45;&gt;Node3</title>
<path fill="none" stroke="midnightblue" d="M173.97,-108.91C147.09,-98.75 109.36,-84.51 85.55,-75.52"/>
<polygon fill="midnightblue" stroke="midnightblue" points="172.75,-112.19 183.34,-112.44 175.22,-105.64 172.75,-112.19"/>
</g>
<!-- Node4 -->
<g id="node4" class="node">
<title>Node4</title>
<g id="a_node4"><a xlink:href="classdrain_1_1image_1_1UnaryFunctorOp.html" target="_top" xlink:title="Class for using simple function objects (like std::functor) for sequential pixel iteration.">
<polygon fill="white" stroke="black" points="144,-56.5 144,-75.5 268,-75.5 268,-56.5 144,-56.5"/>
<text text-anchor="middle" x="206" y="-63.5" font-family="Helvetica,sans-Serif" font-size="10.00">UnaryFunctorOp&lt; F &gt;</text>
</a>
</g>
</g>
<!-- Node2&#45;&gt;Node4 -->
<g id="edge3" class="edge">
<title>Node2&#45;&gt;Node4</title>
<path fill="none" stroke="midnightblue" d="M206,-101.8C206,-92.91 206,-82.78 206,-75.75"/>
<polygon fill="midnightblue" stroke="midnightblue" points="202.5,-102.08 206,-112.08 209.5,-102.08 202.5,-102.08"/>
</g>
<!-- Node5 -->
<g id="node5" class="node">
<title>Node5</title>
<g id="a_node5"><a xlink:href="classdrain_1_1image_1_1UnaryFunctorOp.html" target="_top" xlink:title=" ">
<polygon fill="white" stroke="black" points="286,-56.5 286,-75.5 410,-75.5 410,-56.5 286,-56.5"/>
<text text-anchor="middle" x="348" y="-63.5" font-family="Helvetica,sans-Serif" font-size="10.00">UnaryFunctorOp&lt; F &gt;</text>
</a>
</g>
</g>
<!-- Node2&#45;&gt;Node5 -->
<g id="edge4" class="edge">
<title>Node2&#45;&gt;Node5</title>
<path fill="none" stroke="midnightblue" d="M238.16,-108.77C264.83,-98.63 302.07,-84.47 325.6,-75.52"/>
<polygon fill="midnightblue" stroke="midnightblue" points="236.6,-105.62 228.5,-112.44 239.09,-112.16 236.6,-105.62"/>
</g>
<!-- Node6 -->
<g id="node6" class="node">
<title>Node6</title>
<g id="a_node6"><a xlink:href="classrack_1_1RadarFunctorOp.html" target="_top" xlink:title="Convenience (abbreviation)">
<polygon fill="white" stroke="black" points="286.5,-0.5 286.5,-19.5 409.5,-19.5 409.5,-0.5 286.5,-0.5"/>
<text text-anchor="middle" x="348" y="-7.5" font-family="Helvetica,sans-Serif" font-size="10.00">RadarFunctorOp&lt; F &gt;</text>
</a>
</g>
</g>
<!-- Node5&#45;&gt;Node6 -->
<g id="edge5" class="edge">
<title>Node5&#45;&gt;Node6</title>
<path fill="none" stroke="midnightblue" d="M348,-45.8C348,-36.91 348,-26.78 348,-19.75"/>
<polygon fill="midnightblue" stroke="midnightblue" points="344.5,-46.08 348,-56.08 351.5,-46.08 344.5,-46.08"/>
</g>
</g>
</svg>
