<?xml version="1.0" encoding="UTF-8" standalone="no"?>
<!DOCTYPE svg PUBLIC "-//W3C//DTD SVG 1.1//EN"
 "http://www.w3.org/Graphics/SVG/1.1/DTD/svg11.dtd">
<!-- Generated by graphviz version 2.43.0 (0)
 -->
<!-- Title: ProductConf Pages: 1 -->
<svg width="207pt" height="140pt"
 viewBox="0.00 0.00 207.00 140.00" xmlns="http://www.w3.org/2000/svg" xmlns:xlink="http://www.w3.org/1999/xlink">
<g id="graph0" class="graph" transform="scale(1 1) rotate(0) translate(4 136)">
<title>ProductConf</title>
<polygon fill="white" stroke="transparent" points="-4,4 -4,-136 203,-136 203,4 -4,4"/>
<!-- Node1 -->
<g id="node1" class="node">
<title>Node1</title>
<g id="a_node1"><a xlink:title="Shared properties for meteorological products and Cartesian products (composites and single&#45;radar ima...">
<polygon fill="#bfbfbf" stroke="black" points="73.5,-112.5 73.5,-131.5 149.5,-131.5 149.5,-112.5 73.5,-112.5"/>
<text text-anchor="middle" x="111.5" y="-119.5" font-family="Helvetica,sans-Serif" font-size="10.00">ProductConf</text>
</a>
</g>
</g>
<!-- Node2 -->
<g id="node2" class="node">
<title>Node2</title>
<g id="a_node2"><a xlink:href="classrack_1_1ProductBase.html" target="_top" xlink:title="Base class for radar data processors. Input can be in polar or Cartesian coordinates.">
<polygon fill="white" stroke="black" points="25,-56.5 25,-75.5 102,-75.5 102,-56.5 25,-56.5"/>
<text text-anchor="middle" x="63.5" y="-63.5" font-family="Helvetica,sans-Serif" font-size="10.00">ProductBase</text>
</a>
</g>
</g>
<!-- Node1&#45;&gt;Node2 -->
<g id="edge1" class="edge">
<title>Node1&#45;&gt;Node2</title>
<path fill="none" stroke="midnightblue" d="M96.77,-104.43C88.36,-94.97 78.15,-83.48 71.28,-75.75"/>
<polygon fill="midnightblue" stroke="midnightblue" points="94.31,-106.93 103.57,-112.08 99.55,-102.28 94.31,-106.93"/>
</g>
<!-- Node4 -->
<g id="node4" class="node">
<title>Node4</title>
<g id="a_node4"><a xlink:href="classrack_1_1RackContext.html" target="_top" xlink:title="Resources provided separately for each thread.">
<polygon fill="white" stroke="black" points="120,-56.5 120,-75.5 199,-75.5 199,-56.5 120,-56.5"/>
<text text-anchor="middle" x="159.5" y="-63.5" font-family="Helvetica,sans-Serif" font-size="10.00">RackContext</text>
</a>
</g>
</g>
<!-- Node1&#45;&gt;Node4 -->
<g id="edge3" class="edge">
<title>Node1&#45;&gt;Node4</title>
<path fill="none" stroke="midnightblue" d="M126.23,-104.43C134.64,-94.97 144.85,-83.48 151.72,-75.75"/>
<polygon fill="midnightblue" stroke="midnightblue" points="123.45,-102.28 119.43,-112.08 128.69,-106.93 123.45,-102.28"/>
</g>
<!-- Node3 -->
<g id="node3" class="node">
<title>Node3</title>
<g id="a_node3"><a xlink:href="classrack_1_1ProductOp.html" target="_top" xlink:title="Polar and Cartesian products.">
<polygon fill="white" stroke="black" points="0,-0.5 0,-19.5 127,-19.5 127,-0.5 0,-0.5"/>
<text text-anchor="middle" x="63.5" y="-7.5" font-family="Helvetica,sans-Serif" font-size="10.00">ProductOp&lt; MS, MD &gt;</text>
</a>
</g>
</g>
<!-- Node2&#45;&gt;Node3 -->
<g id="edge2" class="edge">
<title>Node2&#45;&gt;Node3</title>
<path fill="none" stroke="midnightblue" d="M63.5,-45.8C63.5,-36.91 63.5,-26.78 63.5,-19.75"/>
<polygon fill="midnightblue" stroke="midnightblue" points="60,-46.08 63.5,-56.08 67,-46.08 60,-46.08"/>
</g>
</g>
</svg>
